G04*
G04 #@! TF.GenerationSoftware,Altium Limited,Altium Designer,18.1.7 (191)*
G04*
G04 Layer_Physical_Order=2*
G04 Layer_Color=16711680*
%FSLAX43Y43*%
%MOMM*%
G71*
G01*
G75*
%ADD11C,0.254*%
%ADD19C,1.270*%
%ADD20R,1.524X0.508*%
G36*
X35941Y42037D02*
X35941Y32766D01*
X32481Y32766D01*
X32384Y32892D01*
X32198Y33035D01*
X32059Y33092D01*
X30480Y34671D01*
Y35242D01*
X30734D01*
Y35578D01*
X30779Y35686D01*
X30861Y35692D01*
X30862Y35685D01*
X30884Y35518D01*
X30973Y35302D01*
X31116Y35116D01*
X31302Y34973D01*
X31518Y34884D01*
X31623Y34870D01*
Y35750D01*
Y36630D01*
X31518Y36616D01*
X31302Y36527D01*
X31116Y36384D01*
X30973Y36198D01*
X30884Y35982D01*
X30862Y35815D01*
X30861Y35808D01*
X30779Y35814D01*
X30734Y35922D01*
Y36258D01*
X30480D01*
Y36449D01*
X32512Y38481D01*
Y39439D01*
X32520Y39497D01*
X32512Y39555D01*
X32512Y42016D01*
X32578Y42069D01*
X32702Y42014D01*
Y41877D01*
X33591D01*
Y42258D01*
X32899D01*
X32850Y42375D01*
X33020Y42545D01*
X35433D01*
X35941Y42037D01*
D02*
G37*
%LPC*%
G36*
X34734Y42258D02*
X33845D01*
Y41877D01*
X34734D01*
Y42258D01*
D02*
G37*
G36*
Y41623D02*
X33845D01*
Y41242D01*
X34734D01*
Y41623D01*
D02*
G37*
G36*
X33591D02*
X32702D01*
Y41242D01*
X33591D01*
Y41623D01*
D02*
G37*
G36*
X34734Y40258D02*
X32702D01*
Y39242D01*
X34734D01*
Y40258D01*
D02*
G37*
G36*
Y38258D02*
X33845D01*
Y37877D01*
X34734D01*
Y38258D01*
D02*
G37*
G36*
X33591D02*
X32702D01*
Y37877D01*
X33591D01*
Y38258D01*
D02*
G37*
G36*
X34734Y37623D02*
X33845D01*
Y37242D01*
X34734D01*
Y37623D01*
D02*
G37*
G36*
X33591D02*
X32702D01*
Y37242D01*
X33591D01*
Y37623D01*
D02*
G37*
G36*
X34734Y36258D02*
X33845D01*
Y35877D01*
X34734D01*
Y36258D01*
D02*
G37*
G36*
Y35623D02*
X33845D01*
Y35242D01*
X34734D01*
Y35623D01*
D02*
G37*
G36*
X31877Y36630D02*
Y35750D01*
Y34870D01*
X31982Y34884D01*
X32198Y34973D01*
X32384Y35116D01*
X32527Y35302D01*
X32575Y35419D01*
X32702Y35393D01*
Y35242D01*
X33591D01*
Y35750D01*
Y36258D01*
X32702D01*
Y36107D01*
X32575Y36081D01*
X32527Y36198D01*
X32384Y36384D01*
X32198Y36527D01*
X31982Y36616D01*
X31877Y36630D01*
D02*
G37*
G36*
X34734Y34258D02*
X33845D01*
Y33877D01*
X34734D01*
Y34258D01*
D02*
G37*
G36*
X33591D02*
X32702D01*
Y33877D01*
X33591D01*
Y34258D01*
D02*
G37*
G36*
X34734Y33623D02*
X33845D01*
Y33242D01*
X34734D01*
Y33623D01*
D02*
G37*
G36*
X33591D02*
X32702D01*
Y33242D01*
X33591D01*
Y33623D01*
D02*
G37*
%LPD*%
D11*
X35445Y26289D02*
Y26531D01*
X34226Y27750D02*
X35445Y26531D01*
X33718Y27750D02*
X34226D01*
X27718Y33750D02*
X29718D01*
X26924Y34544D02*
X27718Y33750D01*
X26924Y34544D02*
Y36576D01*
X26384Y29750D02*
X29718D01*
X26162Y29972D02*
X26384Y29750D01*
X31623Y38258D02*
Y39497D01*
X31115Y37750D02*
X31623Y38258D01*
X33718Y31750D02*
X35433D01*
X35814Y31369D01*
X31242Y31750D02*
X31750Y32258D01*
X29718Y31750D02*
X31242D01*
X29643Y27825D02*
X29718Y27750D01*
X27813Y27825D02*
X29643D01*
X29718Y37750D02*
X31115D01*
X29718Y41750D02*
X30955D01*
X32131Y42926D01*
D19*
X35445Y26289D02*
D03*
X31750Y35750D02*
D03*
X26924Y36576D02*
D03*
X26162Y29972D02*
D03*
X35814Y31369D02*
D03*
X31750Y32258D02*
D03*
X27813Y27825D02*
D03*
X31623Y39497D02*
D03*
X32131Y42926D02*
D03*
D20*
X33718Y27750D02*
D03*
Y29750D02*
D03*
Y31750D02*
D03*
Y33750D02*
D03*
Y35750D02*
D03*
Y37750D02*
D03*
Y39750D02*
D03*
Y41750D02*
D03*
Y43750D02*
D03*
Y45750D02*
D03*
X29718Y27750D02*
D03*
Y29750D02*
D03*
Y31750D02*
D03*
Y33750D02*
D03*
Y35750D02*
D03*
Y37750D02*
D03*
Y39750D02*
D03*
Y41750D02*
D03*
Y43750D02*
D03*
Y45750D02*
D03*
M02*
