G04*
G04 #@! TF.GenerationSoftware,Altium Limited,Altium Designer,18.1.7 (191)*
G04*
G04 Layer_Color=65535*
%FSLAX25Y25*%
%MOIN*%
G70*
G01*
G75*
%ADD10C,0.00787*%
%ADD11C,0.01000*%
D10*
X145378Y111713D02*
Y113287D01*
X142622Y111713D02*
Y113287D01*
X115213Y173878D02*
X116787D01*
X115213Y171122D02*
X116787D01*
X136713Y170622D02*
X138287D01*
X136713Y173378D02*
X138287D01*
D11*
X111000Y166500D02*
Y172498D01*
X113999D01*
X114999Y171498D01*
Y169499D01*
X113999Y168499D01*
X111000D01*
X120997Y166500D02*
X116998D01*
X120997Y170499D01*
Y171498D01*
X119997Y172498D01*
X117998D01*
X116998Y171498D01*
X137000Y119500D02*
Y125498D01*
X139999D01*
X140999Y124498D01*
Y122499D01*
X139999Y121499D01*
X137000D01*
X138999D02*
X140999Y119500D01*
X142998Y124498D02*
X143998Y125498D01*
X145997D01*
X146997Y124498D01*
Y123499D01*
X145997Y122499D01*
X144997D01*
X145997D01*
X146997Y121499D01*
Y120500D01*
X145997Y119500D01*
X143998D01*
X142998Y120500D01*
X133600Y177400D02*
Y183398D01*
X136599D01*
X137599Y182398D01*
Y180399D01*
X136599Y179399D01*
X133600D01*
X135599D02*
X137599Y177400D01*
X143597D02*
X139598D01*
X143597Y181399D01*
Y182398D01*
X142597Y183398D01*
X140598D01*
X139598Y182398D01*
X112100Y177900D02*
Y183898D01*
X115099D01*
X116099Y182898D01*
Y180899D01*
X115099Y179899D01*
X112100D01*
X114099D02*
X116099Y177900D01*
X118098D02*
X120097D01*
X119098D01*
Y183898D01*
X118098Y182898D01*
M02*
