G04*
G04 #@! TF.GenerationSoftware,Altium Limited,Altium Designer,18.1.7 (191)*
G04*
G04 Layer_Physical_Order=2*
G04 Layer_Color=16711680*
%FSLAX25Y25*%
%MOIN*%
G70*
G01*
G75*
%ADD11C,0.01000*%
%ADD19C,0.05000*%
%ADD20R,0.11614X0.04015*%
D11*
X106378Y148622D02*
X116100D01*
X104500Y150500D02*
X106378Y148622D01*
X104500Y150500D02*
Y157500D01*
X107500Y164370D02*
X116100D01*
X106000Y165870D02*
X107500Y164370D01*
X106000Y165870D02*
Y185000D01*
X125500D01*
X134000Y125000D02*
X143500D01*
X146000Y127500D01*
Y142000D01*
X143000Y166500D02*
X144500D01*
X140870Y164370D02*
X143000Y166500D01*
X134000Y164370D02*
X140870D01*
X135500Y104000D02*
X140500D01*
X134000Y105500D02*
Y109252D01*
Y105500D02*
X135500Y104000D01*
X124500Y128500D02*
X125000Y129000D01*
X116100Y125000D02*
X123500D01*
X124500Y126000D01*
Y128500D01*
X125870Y164370D02*
X134000D01*
X125000Y163500D02*
X125870Y164370D01*
X125000Y150000D02*
Y163500D01*
Y150000D02*
X126378Y148622D01*
X134000D01*
Y140748D02*
Y148622D01*
Y132874D02*
Y140748D01*
X105500Y109500D02*
X105748Y109252D01*
X116100D01*
X115397Y117000D02*
X115550Y117153D01*
X104500Y117000D02*
X115397D01*
X106000Y140594D02*
Y140748D01*
Y135000D02*
Y140594D01*
X115451Y133000D02*
X115550Y132901D01*
X108000Y133000D02*
X115451D01*
X106000Y135000D02*
X108000Y133000D01*
D19*
X104500Y157500D02*
D03*
X125500Y185000D02*
D03*
X146000Y142000D02*
D03*
X144500Y166500D02*
D03*
X140500Y104000D02*
D03*
X125000Y129000D02*
D03*
X105500Y109500D02*
D03*
X104500Y117000D02*
D03*
X106000Y140748D02*
D03*
Y140594D02*
D03*
D20*
X116100Y180118D02*
D03*
Y172244D02*
D03*
Y164370D02*
D03*
Y156496D02*
D03*
Y148622D02*
D03*
Y140748D02*
D03*
Y132874D02*
D03*
Y125000D02*
D03*
Y117126D02*
D03*
Y109252D02*
D03*
X134000Y180118D02*
D03*
Y172244D02*
D03*
Y164370D02*
D03*
Y156496D02*
D03*
Y148622D02*
D03*
Y140748D02*
D03*
Y132874D02*
D03*
Y125000D02*
D03*
Y117126D02*
D03*
Y109252D02*
D03*
M02*
