G04 Layer_Color=8421504*
%FSLAX44Y44*%
%MOMM*%
G71*
G01*
G75*
%ADD11R,1.3000X0.9000*%
%ADD12R,0.7000X1.3000*%
%ADD13R,0.9000X1.3000*%
%ADD14R,1.4900X2.4000*%
%ADD15R,0.6000X0.3000*%
%ADD16R,1.3000X0.7000*%
%ADD17R,0.4000X1.3500*%
%ADD18R,2.1000X1.6000*%
%ADD19R,1.8000X1.9000*%
%ADD20R,1.9000X1.9000*%
%ADD21R,1.0000X1.6000*%
%ADD22R,0.7000X0.3000*%
%ADD23R,0.7620X2.7940*%
%ADD24O,0.3000X1.4500*%
%ADD25O,1.4500X0.3000*%
%ADD26R,5.6000X2.1000*%
%ADD27R,1.2700X2.1500*%
%ADD28R,3.7000X2.0000*%
%ADD29R,0.8000X0.8000*%
%ADD30R,1.6000X3.5000*%
%ADD31R,1.0500X4.1500*%
%ADD32R,9.8000X2.7000*%
%ADD33O,1.5000X0.6000*%
%ADD34R,1.5200X3.0500*%
%ADD35O,0.3000X1.3500*%
%ADD36R,0.8000X0.8000*%
%ADD37R,0.8000X0.6500*%
%ADD38R,2.0000X3.7000*%
%ADD39R,2.0000X1.5000*%
%ADD40R,2.0000X3.8000*%
%ADD41R,1.2700X1.8200*%
%ADD42R,0.5000X0.3000*%
%ADD43R,0.3000X0.5000*%
%ADD44R,3.2000X3.2000*%
%ADD45R,0.4000X1.3550*%
%ADD46R,1.5500X1.3000*%
%ADD47R,1.8200X1.2700*%
%ADD48R,0.9000X1.0000*%
%ADD49O,1.8500X0.6000*%
%ADD50O,1.4000X0.5000*%
%ADD51R,1.8000X2.1000*%
%ADD52R,2.1000X1.8000*%
D11*
X664000Y1259500D02*
D03*
Y1240500D02*
D03*
X1403000Y1479500D02*
D03*
Y1498500D02*
D03*
X994000Y1817500D02*
D03*
Y1836500D02*
D03*
X1030000Y1415500D02*
D03*
Y1396500D02*
D03*
X1059000Y1721500D02*
D03*
Y1740500D02*
D03*
X1122000Y1721500D02*
D03*
Y1740500D02*
D03*
X1195000Y1427500D02*
D03*
Y1408500D02*
D03*
X1169000Y1427500D02*
D03*
Y1408500D02*
D03*
X1004000Y1415500D02*
D03*
Y1396500D02*
D03*
X1033000Y1721500D02*
D03*
Y1740500D02*
D03*
X637600Y1579100D02*
D03*
Y1598100D02*
D03*
X1094000Y2003000D02*
D03*
Y1984000D02*
D03*
X418600Y1388100D02*
D03*
Y1369100D02*
D03*
X570000Y1388500D02*
D03*
Y1369500D02*
D03*
X830000Y2116500D02*
D03*
Y2135500D02*
D03*
X1334000Y1608500D02*
D03*
Y1589500D02*
D03*
X1294000Y1619500D02*
D03*
Y1600500D02*
D03*
X1334000Y1633500D02*
D03*
Y1652500D02*
D03*
X565000Y1288500D02*
D03*
Y1269500D02*
D03*
X1189000Y1746500D02*
D03*
Y1765500D02*
D03*
X1217000Y1757500D02*
D03*
Y1776500D02*
D03*
X994000Y1752500D02*
D03*
Y1733500D02*
D03*
D12*
X565600Y1630600D02*
D03*
X584600D02*
D03*
X635500Y1395000D02*
D03*
X654500D02*
D03*
X623500Y1345000D02*
D03*
X604500D02*
D03*
X1417500Y1799000D02*
D03*
X1398500D02*
D03*
X1342500Y2056000D02*
D03*
X1323500D02*
D03*
X1284000Y2056000D02*
D03*
X1265000D02*
D03*
X1226000Y2056000D02*
D03*
X1207000D02*
D03*
X566100Y1541600D02*
D03*
X585100D02*
D03*
X471600Y2118600D02*
D03*
X490600D02*
D03*
X469100Y1996600D02*
D03*
X488100D02*
D03*
X467100Y1879600D02*
D03*
X486100D02*
D03*
X554100Y1768400D02*
D03*
X573100D02*
D03*
X1084500Y2041000D02*
D03*
X1103500D02*
D03*
X1417500Y1711000D02*
D03*
X1398500D02*
D03*
X1142500Y2224000D02*
D03*
X1123500D02*
D03*
X1170500Y1822000D02*
D03*
X1151500D02*
D03*
X820500Y1781000D02*
D03*
X839500D02*
D03*
X809500Y1807000D02*
D03*
X828500D02*
D03*
X1577500Y1259000D02*
D03*
X1596500D02*
D03*
X1228500Y1235000D02*
D03*
X1247500D02*
D03*
X1378500Y1259000D02*
D03*
X1397500D02*
D03*
D13*
X713500Y1395000D02*
D03*
X694500D02*
D03*
X891500Y1816000D02*
D03*
X872500D02*
D03*
X1246500Y1582000D02*
D03*
X1265500D02*
D03*
X1246500Y1531000D02*
D03*
X1265500D02*
D03*
X957500Y1480000D02*
D03*
X938500D02*
D03*
X957500Y1506000D02*
D03*
X938500D02*
D03*
X957500Y1582000D02*
D03*
X938500D02*
D03*
X957500Y1632000D02*
D03*
X938500D02*
D03*
X1246500Y1556000D02*
D03*
X1265500D02*
D03*
X1246500Y1506000D02*
D03*
X1265500D02*
D03*
X957500Y1531000D02*
D03*
X938500D02*
D03*
X957500Y1607000D02*
D03*
X938500D02*
D03*
X1246500Y1481000D02*
D03*
X1265500D02*
D03*
X1239500Y1662000D02*
D03*
X1258500D02*
D03*
X1075500Y1409000D02*
D03*
X1094500D02*
D03*
X1139500Y1409000D02*
D03*
X1120500D02*
D03*
X1141500Y2198000D02*
D03*
X1122500D02*
D03*
X1345500Y1761000D02*
D03*
X1326500D02*
D03*
X1350500Y1259000D02*
D03*
X1331500D02*
D03*
X1550500D02*
D03*
X1531500D02*
D03*
X694500Y1338000D02*
D03*
X713500D02*
D03*
D14*
X661000Y1361000D02*
D03*
D15*
X675000Y1351250D02*
D03*
Y1357750D02*
D03*
Y1364250D02*
D03*
Y1370750D02*
D03*
X647000Y1351250D02*
D03*
Y1357750D02*
D03*
Y1364250D02*
D03*
Y1370750D02*
D03*
D16*
X1373000Y1498500D02*
D03*
Y1479500D02*
D03*
X1054000Y1817500D02*
D03*
Y1836500D02*
D03*
X981000Y1252500D02*
D03*
Y1233500D02*
D03*
X1031000Y1252500D02*
D03*
Y1233500D02*
D03*
X1006000Y1233500D02*
D03*
Y1252500D02*
D03*
X1031000Y1209500D02*
D03*
Y1190500D02*
D03*
X981000Y1209500D02*
D03*
Y1190500D02*
D03*
X1006000Y1209500D02*
D03*
Y1190500D02*
D03*
X1056000Y1252500D02*
D03*
Y1233500D02*
D03*
X1081000Y1252500D02*
D03*
Y1233500D02*
D03*
Y1209500D02*
D03*
Y1190500D02*
D03*
X1056000Y1209500D02*
D03*
Y1190500D02*
D03*
X1220000Y1428500D02*
D03*
Y1409500D02*
D03*
X442000Y1601500D02*
D03*
Y1620500D02*
D03*
X477600Y1601600D02*
D03*
Y1620600D02*
D03*
X670600Y1597600D02*
D03*
Y1578600D02*
D03*
X709600Y1915600D02*
D03*
Y1934600D02*
D03*
Y2028600D02*
D03*
Y2047600D02*
D03*
X710600Y2155600D02*
D03*
Y2174600D02*
D03*
X553600Y1722900D02*
D03*
Y1741900D02*
D03*
X728600Y1747600D02*
D03*
Y1728600D02*
D03*
X728600Y1780100D02*
D03*
Y1799100D02*
D03*
X455600Y1389100D02*
D03*
Y1370100D02*
D03*
X599000Y1407500D02*
D03*
Y1388500D02*
D03*
X818000Y2012500D02*
D03*
Y2031500D02*
D03*
X790000Y2012500D02*
D03*
Y2031500D02*
D03*
X1345000Y1802500D02*
D03*
Y1783500D02*
D03*
X1514000Y1747500D02*
D03*
Y1728500D02*
D03*
X1467000Y1747500D02*
D03*
Y1728500D02*
D03*
D17*
X500500Y1215000D02*
D03*
X526500D02*
D03*
X520000D02*
D03*
X513500D02*
D03*
D18*
X482500Y1213750D02*
D03*
X544500Y1213750D02*
D03*
D19*
X475500Y1188250D02*
D03*
X551500Y1188250D02*
D03*
D20*
X501500Y1188250D02*
D03*
X525500D02*
D03*
D21*
X924000Y1823000D02*
D03*
D22*
X913500Y1816500D02*
D03*
Y1823000D02*
D03*
Y1829500D02*
D03*
X934500D02*
D03*
Y1823000D02*
D03*
Y1816500D02*
D03*
D23*
X1171400Y1232000D02*
D03*
X1158700D02*
D03*
X1146000D02*
D03*
X1133300D02*
D03*
X1120600D02*
D03*
Y1191400D02*
D03*
X1133300D02*
D03*
X1146000D02*
D03*
X1158700D02*
D03*
X1171400D02*
D03*
D24*
X1017400Y1462200D02*
D03*
X1022400D02*
D03*
X1027400D02*
D03*
X1032400D02*
D03*
X1037400D02*
D03*
X1042400D02*
D03*
X1047400D02*
D03*
X1052400D02*
D03*
X1057400D02*
D03*
X1062400D02*
D03*
X1067400D02*
D03*
X1072400D02*
D03*
X1077400D02*
D03*
X1082400D02*
D03*
X1087400D02*
D03*
X1092400D02*
D03*
X1097400D02*
D03*
X1102400D02*
D03*
X1107400D02*
D03*
X1112400D02*
D03*
X1117400D02*
D03*
X1122400D02*
D03*
X1127400D02*
D03*
X1132400D02*
D03*
X1137400D02*
D03*
X1142400D02*
D03*
X1147400D02*
D03*
X1152400D02*
D03*
X1157400D02*
D03*
X1162400D02*
D03*
X1167400D02*
D03*
X1172400D02*
D03*
X1177400D02*
D03*
X1182400D02*
D03*
X1187400D02*
D03*
X1192400D02*
D03*
Y1676700D02*
D03*
X1187400D02*
D03*
X1182400D02*
D03*
X1177400D02*
D03*
X1172400D02*
D03*
X1167400D02*
D03*
X1162400D02*
D03*
X1157400D02*
D03*
X1152400D02*
D03*
X1147400D02*
D03*
X1142400D02*
D03*
X1137400D02*
D03*
X1132400D02*
D03*
X1127400D02*
D03*
X1122400D02*
D03*
X1117400D02*
D03*
X1112400D02*
D03*
X1107400D02*
D03*
X1102400D02*
D03*
X1097400D02*
D03*
X1092400D02*
D03*
X1087400D02*
D03*
X1082400D02*
D03*
X1077400D02*
D03*
X1072400D02*
D03*
X1067400D02*
D03*
X1062400D02*
D03*
X1057400D02*
D03*
X1052400D02*
D03*
X1047400D02*
D03*
X1042400D02*
D03*
X1037400D02*
D03*
X1032400D02*
D03*
X1027400D02*
D03*
X1022400D02*
D03*
X1017400D02*
D03*
D25*
X1212150Y1481950D02*
D03*
Y1486950D02*
D03*
Y1491950D02*
D03*
Y1496950D02*
D03*
Y1501950D02*
D03*
Y1506950D02*
D03*
Y1511950D02*
D03*
Y1516950D02*
D03*
Y1521950D02*
D03*
Y1526950D02*
D03*
Y1531950D02*
D03*
Y1536950D02*
D03*
Y1541950D02*
D03*
Y1546950D02*
D03*
Y1551950D02*
D03*
Y1556950D02*
D03*
Y1561950D02*
D03*
Y1566950D02*
D03*
Y1571950D02*
D03*
Y1576950D02*
D03*
Y1581950D02*
D03*
Y1586950D02*
D03*
Y1591950D02*
D03*
Y1596950D02*
D03*
Y1601950D02*
D03*
Y1606950D02*
D03*
Y1611950D02*
D03*
Y1616950D02*
D03*
Y1621950D02*
D03*
Y1626950D02*
D03*
Y1631950D02*
D03*
Y1636950D02*
D03*
Y1641950D02*
D03*
Y1646950D02*
D03*
Y1651950D02*
D03*
Y1656950D02*
D03*
X997650D02*
D03*
Y1651950D02*
D03*
Y1646950D02*
D03*
Y1641950D02*
D03*
Y1636950D02*
D03*
Y1631950D02*
D03*
Y1626950D02*
D03*
Y1621950D02*
D03*
Y1616950D02*
D03*
Y1611950D02*
D03*
Y1606950D02*
D03*
Y1601950D02*
D03*
Y1596950D02*
D03*
Y1591950D02*
D03*
Y1586950D02*
D03*
Y1581950D02*
D03*
Y1576950D02*
D03*
Y1571950D02*
D03*
Y1566950D02*
D03*
Y1561950D02*
D03*
Y1556950D02*
D03*
Y1551950D02*
D03*
Y1546950D02*
D03*
Y1541950D02*
D03*
Y1536950D02*
D03*
Y1531950D02*
D03*
Y1526950D02*
D03*
Y1521950D02*
D03*
Y1516950D02*
D03*
Y1511950D02*
D03*
Y1506950D02*
D03*
Y1501950D02*
D03*
Y1496950D02*
D03*
Y1491950D02*
D03*
Y1486950D02*
D03*
Y1481950D02*
D03*
D26*
X1153500Y1349000D02*
D03*
X1058500D02*
D03*
D27*
X447000Y1940000D02*
D03*
X485000D02*
D03*
X561000Y1940000D02*
D03*
X523000D02*
D03*
X447000Y2179000D02*
D03*
X485000D02*
D03*
X447000Y2053000D02*
D03*
X485000D02*
D03*
X561000D02*
D03*
X523000D02*
D03*
X562000Y2179000D02*
D03*
X524000D02*
D03*
D28*
X1598000Y1605000D02*
D03*
X1484000Y1622000D02*
D03*
X1207000Y2168000D02*
D03*
X1322000D02*
D03*
X1265000Y2204000D02*
D03*
X419000Y1423000D02*
D03*
X959000Y1743000D02*
D03*
X612000Y1856000D02*
D03*
X673000Y1871000D02*
D03*
X1322000Y2204000D02*
D03*
X1208000D02*
D03*
X1404000Y1639000D02*
D03*
X1265000Y2168000D02*
D03*
D29*
X713500Y1827000D02*
D03*
X728500D02*
D03*
X515600Y2118600D02*
D03*
X530600D02*
D03*
X516100Y1996600D02*
D03*
X531100D02*
D03*
X522100Y1879600D02*
D03*
X537100D02*
D03*
X1202500Y1822000D02*
D03*
X1217500D02*
D03*
X1229500Y1258000D02*
D03*
X1244500D02*
D03*
D30*
X1116000Y1943000D02*
D03*
X1170000D02*
D03*
D31*
X505000Y1808900D02*
D03*
X454200D02*
D03*
X1414600Y1936500D02*
D03*
X1465400D02*
D03*
D32*
X479600Y1676400D02*
D03*
X1440000Y2069000D02*
D03*
D33*
X548600Y1604650D02*
D03*
Y1591950D02*
D03*
Y1579250D02*
D03*
Y1566550D02*
D03*
X602600Y1604650D02*
D03*
Y1591950D02*
D03*
Y1579250D02*
D03*
Y1566550D02*
D03*
X1378000Y1773050D02*
D03*
Y1760350D02*
D03*
Y1747650D02*
D03*
Y1734950D02*
D03*
X1432000Y1773050D02*
D03*
Y1760350D02*
D03*
Y1747650D02*
D03*
Y1734950D02*
D03*
D34*
X1119100Y2138000D02*
D03*
X1142000D02*
D03*
D35*
X1145000Y2047250D02*
D03*
X1140000D02*
D03*
X1135000D02*
D03*
X1130000D02*
D03*
X1125000D02*
D03*
X1145000Y2002750D02*
D03*
X1140000D02*
D03*
X1135000D02*
D03*
X1130000D02*
D03*
X1125000D02*
D03*
D36*
X1207000Y2081500D02*
D03*
Y2096500D02*
D03*
X1265000Y2081500D02*
D03*
Y2096500D02*
D03*
X1323000Y2081500D02*
D03*
Y2096500D02*
D03*
D37*
X799000Y2127500D02*
D03*
Y2116500D02*
D03*
X1023000Y1817500D02*
D03*
Y1828500D02*
D03*
X897000Y1791500D02*
D03*
Y1780500D02*
D03*
D38*
X1109000Y1829000D02*
D03*
D39*
X672100Y2155600D02*
D03*
Y2178600D02*
D03*
Y2201600D02*
D03*
Y2028600D02*
D03*
Y2051600D02*
D03*
Y2074600D02*
D03*
Y1915600D02*
D03*
Y1938600D02*
D03*
Y1961600D02*
D03*
X672500Y1748000D02*
D03*
Y1771000D02*
D03*
Y1794000D02*
D03*
D40*
X609100Y2178600D02*
D03*
Y2051600D02*
D03*
Y1938600D02*
D03*
X609500Y1771000D02*
D03*
D41*
X679800Y1190000D02*
D03*
X722200D02*
D03*
D42*
X596500Y1284500D02*
D03*
Y1279500D02*
D03*
Y1274500D02*
D03*
Y1269500D02*
D03*
Y1264500D02*
D03*
Y1259500D02*
D03*
Y1254500D02*
D03*
Y1249500D02*
D03*
X641500D02*
D03*
Y1254500D02*
D03*
Y1259500D02*
D03*
Y1264500D02*
D03*
Y1269500D02*
D03*
Y1274500D02*
D03*
Y1279500D02*
D03*
Y1284500D02*
D03*
D43*
X601500Y1244500D02*
D03*
X606500D02*
D03*
X611500D02*
D03*
X616500D02*
D03*
X621500D02*
D03*
X626500D02*
D03*
X631500D02*
D03*
X636500D02*
D03*
Y1289500D02*
D03*
X631500D02*
D03*
X626500D02*
D03*
X621500D02*
D03*
X616500D02*
D03*
X611500D02*
D03*
X606500D02*
D03*
X601500D02*
D03*
D44*
X619000Y1267000D02*
D03*
D45*
X507000Y1215000D02*
D03*
D46*
X1324250Y1230500D02*
D03*
X1403750D02*
D03*
X1324250Y1185500D02*
D03*
X1403750D02*
D03*
X1524250Y1230500D02*
D03*
X1603750D02*
D03*
X1524250Y1185500D02*
D03*
X1603750D02*
D03*
D47*
X500000Y1266000D02*
D03*
Y1308400D02*
D03*
D48*
X955500Y1817000D02*
D03*
X968500D02*
D03*
X499500Y1333000D02*
D03*
X512500D02*
D03*
X700500Y1364250D02*
D03*
X713500D02*
D03*
X1142000Y2172000D02*
D03*
X1155000D02*
D03*
D49*
X1527750Y1416450D02*
D03*
Y1429150D02*
D03*
Y1441850D02*
D03*
Y1454550D02*
D03*
Y1467250D02*
D03*
Y1479950D02*
D03*
Y1492650D02*
D03*
Y1505350D02*
D03*
Y1518050D02*
D03*
Y1530750D02*
D03*
Y1543450D02*
D03*
Y1556150D02*
D03*
Y1568850D02*
D03*
Y1581550D02*
D03*
X1434250Y1416450D02*
D03*
Y1429150D02*
D03*
Y1441850D02*
D03*
Y1454550D02*
D03*
Y1467250D02*
D03*
Y1479950D02*
D03*
Y1492650D02*
D03*
Y1505350D02*
D03*
Y1518050D02*
D03*
Y1530750D02*
D03*
Y1543450D02*
D03*
Y1556150D02*
D03*
Y1568850D02*
D03*
Y1581550D02*
D03*
D50*
X526600Y1388850D02*
D03*
Y1395350D02*
D03*
Y1401850D02*
D03*
Y1408350D02*
D03*
X482600Y1388850D02*
D03*
Y1395350D02*
D03*
Y1401850D02*
D03*
Y1408350D02*
D03*
D51*
X1546000Y1650000D02*
D03*
Y1606000D02*
D03*
X944000Y2162000D02*
D03*
Y2118000D02*
D03*
X900000Y2150000D02*
D03*
Y2194000D02*
D03*
D52*
X813000Y1730000D02*
D03*
X857000D02*
D03*
M02*
