G04 Layer_Physical_Order=1*
G04 Layer_Color=255*
%FSLAX44Y44*%
%MOMM*%
G71*
G01*
G75*
%ADD10C,0.2000*%
%ADD11R,1.3000X0.9000*%
%ADD12R,0.7000X1.3000*%
%ADD13R,0.9000X1.3000*%
%ADD14R,1.4900X2.4000*%
%ADD15R,0.6000X0.3000*%
%ADD16R,1.3000X0.7000*%
%ADD17R,0.4000X1.3500*%
%ADD18R,2.1000X1.6000*%
%ADD19R,1.8000X1.9000*%
%ADD20R,1.9000X1.9000*%
%ADD21R,1.0000X1.6000*%
%ADD22R,0.7000X0.3000*%
%ADD23R,0.7620X2.7940*%
%ADD24O,0.3000X1.4500*%
%ADD25O,1.4500X0.3000*%
%ADD26R,5.6000X2.1000*%
%ADD27R,1.2700X2.1500*%
%ADD28R,3.7000X2.0000*%
%ADD29R,0.8000X0.8000*%
%ADD30R,1.6000X3.5000*%
%ADD31R,1.0500X4.1500*%
%ADD32R,9.8000X2.7000*%
%ADD33O,1.5000X0.6000*%
%ADD34R,1.5200X3.0500*%
%ADD35O,0.3000X1.3500*%
%ADD36R,0.8000X0.8000*%
%ADD37R,0.8000X0.6500*%
%ADD38R,2.0000X3.7000*%
%ADD39R,2.0000X1.5000*%
%ADD40R,2.0000X3.8000*%
%ADD41R,1.2700X1.8200*%
%ADD42R,0.5000X0.3000*%
%ADD43R,0.3000X0.5000*%
%ADD44R,3.2000X3.2000*%
%ADD45R,0.4000X1.3550*%
%ADD46R,1.5500X1.3000*%
%ADD47R,1.8200X1.2700*%
%ADD48R,0.9000X1.0000*%
%ADD49O,1.8500X0.6000*%
%ADD50O,1.4000X0.5000*%
%ADD51R,1.8000X2.1000*%
%ADD52R,2.1000X1.8000*%
%ADD53C,0.3000*%
%ADD54C,0.5000*%
%ADD55C,0.4000*%
%ADD56C,1.0000*%
%ADD57C,0.9000*%
%ADD58C,0.7000*%
%ADD59C,0.5300*%
%ADD60C,2.0000*%
%ADD61C,1.6000*%
%ADD62C,1.5240*%
%ADD63C,1.7780*%
%ADD64C,2.2000*%
%ADD65C,1.9000*%
%ADD66C,7.0000*%
%ADD67C,2.1000*%
%ADD68C,2.0000*%
%ADD69C,0.6000*%
%ADD70C,0.4500*%
G36*
X1351000Y2224000D02*
X1351000Y2188000D01*
X1347000Y2184000D01*
X1184000Y2184000D01*
X1181000Y2187000D01*
X1181000Y2225000D01*
X1193395Y2237395D01*
X1337605D01*
X1351000Y2224000D01*
D02*
G37*
G36*
X1523000Y1959000D02*
X1523000Y1918000D01*
X1515000Y1910000D01*
X1443000D01*
X1443000Y1967000D01*
X1515000Y1967000D01*
X1523000Y1959000D01*
D02*
G37*
%LPC*%
G36*
X1206730Y2202730D02*
X1186960D01*
Y2191460D01*
X1206730D01*
Y2202730D01*
D02*
G37*
G36*
X1263730Y2202730D02*
X1243960D01*
Y2191460D01*
X1263730D01*
Y2202730D01*
D02*
G37*
G36*
X1229040Y2202730D02*
X1209270D01*
Y2191460D01*
X1229040D01*
Y2202730D01*
D02*
G37*
G36*
X1320730Y2216540D02*
X1300960D01*
Y2205270D01*
X1320730D01*
Y2216540D01*
D02*
G37*
G36*
X1206730D02*
X1186960D01*
Y2205270D01*
X1206730D01*
Y2216540D01*
D02*
G37*
G36*
X1229040D02*
X1209270D01*
Y2205270D01*
X1229040D01*
Y2216540D01*
D02*
G37*
G36*
X1343040D02*
X1323270D01*
Y2205270D01*
X1343040D01*
Y2216540D01*
D02*
G37*
G36*
X1286040D02*
X1266270D01*
Y2205270D01*
X1286040D01*
Y2216540D01*
D02*
G37*
G36*
X1320730Y2202730D02*
X1300960D01*
Y2191460D01*
X1320730D01*
Y2202730D01*
D02*
G37*
G36*
X1286040Y2202730D02*
X1266270D01*
Y2191460D01*
X1286040D01*
Y2202730D01*
D02*
G37*
G36*
X1263730Y2216540D02*
X1243960D01*
Y2205270D01*
X1263730D01*
Y2216540D01*
D02*
G37*
G36*
X1343040Y2202730D02*
X1323270D01*
Y2191460D01*
X1343040D01*
Y2202730D01*
D02*
G37*
G36*
X1473190Y1935230D02*
X1466670D01*
Y1913210D01*
X1473190D01*
Y1935230D01*
D02*
G37*
G36*
X1464130D02*
X1457610D01*
Y1913210D01*
X1464130D01*
Y1935230D01*
D02*
G37*
G36*
X1473190Y1959790D02*
X1466670D01*
Y1937770D01*
X1473190D01*
Y1959790D01*
D02*
G37*
G36*
X1464130D02*
X1457610D01*
Y1937770D01*
X1464130D01*
Y1959790D01*
D02*
G37*
%LPD*%
D10*
X624500Y1235750D02*
G03*
X626500Y1237750I0J2000D01*
G01*
X518250Y1235750D02*
G03*
X513500Y1231000I0J-4750D01*
G01*
X507000Y1205000D02*
G03*
X509000Y1203000I2000J0D01*
G01*
X557000D02*
G03*
X562000Y1208000I0J5000D01*
G01*
X565000Y1222000D02*
G03*
X562000Y1219000I0J-3000D01*
G01*
X628000Y1222000D02*
G03*
X631500Y1225500I0J3500D01*
G01*
X556000Y1235750D02*
X624500D01*
X518250D02*
X535000D01*
X513500Y1215000D02*
Y1231000D01*
X957450Y1531950D02*
X997650D01*
X956500Y1531000D02*
X957450Y1531950D01*
X959000Y1528000D02*
Y1531000D01*
X663000Y1260500D02*
X664000Y1261500D01*
X564000Y1288500D02*
X580500D01*
X562000Y1904500D02*
Y1938600D01*
X537100Y1879600D02*
X562000Y1904500D01*
X343400Y1887600D02*
X359400D01*
X380000Y1867000D01*
X579000D01*
X343400Y1862200D02*
X350600Y1855000D01*
X343400Y1836800D02*
X352600Y1846000D01*
X349300Y1435700D02*
Y1507800D01*
Y1435700D02*
X362000Y1423000D01*
X349300Y1682800D02*
X370000Y1662100D01*
Y1645000D02*
Y1662100D01*
Y1645000D02*
X394500Y1620500D01*
X334000Y1632500D02*
X349300Y1647800D01*
X334000Y1593100D02*
Y1632500D01*
Y1593100D02*
X349300Y1577800D01*
Y1612800D02*
X386800D01*
X394500Y1620500D01*
X442000D01*
X349300Y1577800D02*
X379200D01*
X410400Y1546600D01*
X442000D01*
X621500Y1264500D02*
X641500D01*
X526600Y1408350D02*
X539350D01*
X526600Y1395350D02*
X549350D01*
X526600Y1401850D02*
X544850D01*
X854000Y1713000D02*
X1007000D01*
X1032400Y1687600D01*
Y1676700D02*
Y1687600D01*
X1070000Y1698000D02*
Y1705000D01*
X1082400Y1676700D02*
Y1685600D01*
X1070000Y1698000D02*
X1082400Y1685600D01*
X1086000Y1696000D02*
X1092400Y1689600D01*
Y1676700D02*
Y1689600D01*
X1015000Y1689000D02*
X1017400Y1686600D01*
X1114000Y1691000D02*
X1115000D01*
X1112400Y1689400D02*
X1114000Y1691000D01*
X1107400Y1676700D02*
Y1696520D01*
X1228900Y1549000D02*
X1229000D01*
X1212150Y1551950D02*
X1225950D01*
X1228900Y1549000D01*
X1212200Y1557000D02*
X1234000D01*
X1212150Y1556950D02*
X1212200Y1557000D01*
X1224950Y1561950D02*
X1229000Y1566000D01*
X1212150Y1561950D02*
X1224950D01*
Y1571950D02*
X1228000Y1575000D01*
X1234000D01*
X1212150Y1571950D02*
X1224950D01*
X1261000Y1456000D02*
X1300550Y1416450D01*
X1270000Y1461000D02*
X1301850Y1429150D01*
X1277000Y1468000D02*
X1303150Y1441850D01*
X1246500Y1503500D02*
X1255000Y1495000D01*
Y1471000D02*
Y1495000D01*
X1246000Y1462000D02*
X1255000Y1471000D01*
X1246000Y1424000D02*
Y1462000D01*
X1246500Y1531000D02*
Y1553500D01*
Y1556000D01*
X1234950Y1541950D02*
X1246500Y1553500D01*
X1212150Y1541950D02*
X1234950D01*
X984050Y1656950D02*
X997650D01*
X965000Y1676000D02*
X984050Y1656950D01*
X980050Y1651950D02*
X997650D01*
X965000Y1667000D02*
X980050Y1651950D01*
X883000Y1651000D02*
X894000Y1662000D01*
X977050Y1646950D02*
X997650D01*
X964000Y1660000D02*
X977050Y1646950D01*
X973050Y1641950D02*
X997650D01*
X961000Y1654000D02*
X973050Y1641950D01*
X1017400Y1676700D02*
Y1686600D01*
X981000Y1209500D02*
Y1233500D01*
X926000D02*
X981000D01*
X996500Y1233500D02*
X1006000D01*
Y1209500D02*
Y1233500D01*
X926000Y1244000D02*
X986000D01*
X996500Y1233500D01*
X1012000Y1244000D02*
X1022500Y1233500D01*
X1031000D01*
X993000Y1250000D02*
Y1256000D01*
X999000Y1244000D02*
X1012000D01*
X1031000Y1209500D02*
Y1233500D01*
X926000Y1262000D02*
X987000D01*
X993000Y1256000D01*
Y1250000D02*
X999000Y1244000D01*
X1037000D02*
X1047500Y1233500D01*
X1056000D01*
X1018000Y1247000D02*
X1021000Y1244000D01*
X1037000D01*
X1056000Y1209500D02*
Y1233500D01*
X1063000Y1243000D02*
X1072500Y1233500D01*
X1081000D01*
X1043000Y1249000D02*
X1049000Y1243000D01*
X1063000D01*
X1081000Y1209500D02*
Y1233500D01*
X993000Y1168000D02*
X1159000D01*
X981000Y1180000D02*
X993000Y1168000D01*
X1159000D02*
X1171400Y1180400D01*
X1037400Y1676700D02*
Y1690600D01*
X1033000Y1695000D02*
X1037400Y1690600D01*
X1033000Y1695000D02*
Y1721500D01*
X1035500D01*
X1032500Y1721000D02*
X1033000Y1721500D01*
X1016000Y1721000D02*
X1032500D01*
X977000Y1506000D02*
X987950Y1516950D01*
X957500Y1506000D02*
X977000D01*
X987950Y1516950D02*
X997650D01*
X981950Y1586950D02*
X997650D01*
X956500Y1531000D02*
X956500Y1531000D01*
X957500Y1604500D02*
Y1607000D01*
X1195000Y1427500D02*
X1197500D01*
X1246500Y1503500D02*
Y1506000D01*
X1212150Y1626950D02*
X1212200Y1627000D01*
X1239500Y1659500D02*
Y1662000D01*
X1221950Y1641950D02*
X1239500Y1659500D01*
X1212150Y1641950D02*
X1221950D01*
X1246500Y1506000D02*
Y1531000D01*
Y1556000D02*
Y1582000D01*
X1075500Y1390500D02*
Y1409000D01*
X1058500Y1373500D02*
X1075500Y1390500D01*
X957550Y1631950D02*
X997650D01*
X1112500Y1445500D02*
Y1457750D01*
Y1445500D02*
X1139500Y1418500D01*
Y1409000D02*
Y1418500D01*
Y1387500D02*
Y1409000D01*
Y1387500D02*
X1153500Y1373500D01*
Y1349000D02*
Y1373500D01*
X1058500Y1349000D02*
Y1373500D01*
X1102500Y1445500D02*
Y1457750D01*
X1075500Y1418500D02*
X1102500Y1445500D01*
X1075500Y1409000D02*
Y1418500D01*
X1107500Y1424000D02*
X1120500Y1411000D01*
Y1409000D02*
Y1411000D01*
X1107500Y1424000D02*
Y1457750D01*
X467100Y1879600D02*
Y1882900D01*
X446600Y1903400D02*
X467100Y1882900D01*
X446600Y1903400D02*
Y1938600D01*
X1112000Y2030000D02*
X1132000D01*
X1103500Y2038500D02*
X1112000Y2030000D01*
X1103500Y2041000D02*
Y2046000D01*
Y2038500D02*
Y2041000D01*
X1132000Y2030000D02*
X1135000Y2033000D01*
Y2047250D01*
X548600Y1591950D02*
X553950D01*
X565600Y1603600D01*
Y1630600D01*
X548600Y1579250D02*
X552950D01*
X566100Y1566100D01*
Y1541600D02*
Y1566100D01*
X477600Y1572000D02*
Y1601600D01*
X510250Y1579250D02*
X548600D01*
X477600Y1546600D02*
X510250Y1579250D01*
X477600Y1620600D02*
X481600D01*
X510250Y1591950D01*
X548600D01*
X455850Y1388850D02*
X482600D01*
X455600Y1389100D02*
X455850Y1388850D01*
X419600Y1389100D02*
X455600D01*
X418600Y1388100D02*
X419600Y1389100D01*
X531100Y1996600D02*
X560600Y2026100D01*
Y2052600D01*
X490600Y2118600D02*
X515600D01*
X488100Y1996600D02*
X516100D01*
X446600Y2021600D02*
X469100Y1999100D01*
Y1996600D02*
Y1999100D01*
X530600Y2118600D02*
X561600Y2149600D01*
Y2178600D01*
X584600Y1617600D02*
Y1630600D01*
Y1617600D02*
X597550Y1604650D01*
X446600Y2118600D02*
X446600Y2118600D01*
X471600D01*
X585100Y1541600D02*
Y1553100D01*
X598550Y1566550D01*
X1157400Y1450600D02*
Y1462200D01*
Y1450600D02*
X1166000Y1442000D01*
X1192500Y1427500D02*
X1195000D01*
X1178000Y1442000D02*
X1192500Y1427500D01*
X1166000Y1442000D02*
X1178000D01*
X1212150Y1506950D02*
X1223050D01*
X1230000Y1500000D01*
Y1487000D02*
Y1500000D01*
Y1487000D02*
X1236000Y1481000D01*
X1246500D01*
X1212150Y1536950D02*
X1224050D01*
X1230000Y1531000D01*
X1246500D01*
X1212150Y1581950D02*
X1246450D01*
X1052400Y1676700D02*
Y1689400D01*
X1059000Y1696000D01*
Y1721500D01*
X985050Y1601950D02*
X997650D01*
X1097400Y1451400D02*
Y1462200D01*
X1061500Y1415500D02*
X1097400Y1451400D01*
X418600Y1388100D02*
Y1422600D01*
X419000Y1423000D01*
X362000D02*
X419000D01*
X1212150Y1621950D02*
X1220400D01*
X1212150Y1616950D02*
X1221821D01*
X1702400Y1734500D02*
X1717500D01*
X1721000Y1731000D01*
X1729540Y1653469D02*
Y1695000D01*
X1721000Y1652000D02*
Y1731000D01*
X1220400Y1621950D02*
X1233450Y1635000D01*
X1704000D02*
X1721000Y1652000D01*
X1514000Y1728500D02*
X1524500D01*
X1537000Y1741000D02*
Y1782000D01*
X1540300Y1785300D01*
X1524500Y1728500D02*
X1537000Y1741000D01*
X1540300Y1785300D02*
X1677000D01*
X1514000Y1798000D02*
X1526700Y1810700D01*
X1677000D01*
X1467000Y1728500D02*
X1514000D01*
X1432000Y1747650D02*
X1436350D01*
X1455500Y1728500D01*
X1467000D01*
X1432000Y1760350D02*
X1439350D01*
X1449000Y1770000D01*
Y1780000D01*
X1467000Y1798000D01*
X1514000D01*
X1467000Y1747500D02*
Y1772600D01*
X1514000Y1747500D02*
Y1772600D01*
X1417500Y1711000D02*
Y1743500D01*
X1421650Y1747650D01*
X1432000D01*
X1417500Y1764500D02*
Y1799000D01*
Y1764500D02*
X1421650Y1760350D01*
X1432000D01*
X1122000Y1721500D02*
X1122400Y1721100D01*
Y1676700D02*
Y1721100D01*
X1378000Y1734950D02*
X1389050D01*
X1398500Y1711000D02*
Y1725500D01*
X1389050Y1734950D02*
X1398500Y1725500D01*
X1112400Y1676700D02*
Y1689400D01*
X1130000Y1690000D02*
Y1702249D01*
X1135291Y1707540D01*
X1135540D01*
X1136000Y1708000D01*
X1138000Y1701000D02*
X1352000D01*
X1378000Y1727000D01*
Y1734950D01*
Y1773050D02*
Y1790000D01*
X1387000Y1799000D01*
X1398500D01*
X1378000Y1773050D02*
X1388950D01*
X1391000Y1771000D01*
X1368000Y1741000D02*
X1386000D01*
X1391000Y1746000D01*
Y1771000D01*
X1221821Y1616950D02*
X1225871Y1621000D01*
X1697071D02*
X1729540Y1653469D01*
X584500Y1284500D02*
X596500D01*
X580500Y1288500D02*
X584500Y1284500D01*
X641500Y1259500D02*
X664000D01*
X1196000Y1474000D02*
Y1484000D01*
X1198950Y1486950D01*
X1196000Y1474000D02*
X1208000Y1462000D01*
X1198950Y1486950D02*
X1212150D01*
X1208000Y1454000D02*
Y1462000D01*
X1217000Y1462000D02*
X1225000Y1470000D01*
X1212150Y1491950D02*
X1221050D01*
X1217000Y1454000D02*
Y1462000D01*
X1221050Y1491950D02*
X1225000Y1488000D01*
Y1470000D02*
Y1488000D01*
X611500Y1289500D02*
Y1295772D01*
X586000Y1275000D02*
X590500Y1279500D01*
X596500D01*
X1146000Y1189000D02*
Y1191400D01*
X1133300D02*
Y1201700D01*
X1126000Y1209000D02*
X1133300Y1201700D01*
X1146000Y1191400D02*
Y1201000D01*
X1133000Y1214000D02*
X1146000Y1201000D01*
X1158700Y1180700D02*
Y1191400D01*
X1151000Y1173000D02*
X1158700Y1180700D01*
X1171400Y1180400D02*
Y1191400D01*
X1016000Y1173000D02*
X1151000D01*
X1031000Y1182000D02*
Y1190500D01*
Y1182000D02*
X1035000Y1178000D01*
X1102000D01*
X1115400Y1191400D01*
X1120600D01*
X1006000Y1183000D02*
Y1190500D01*
X981000Y1180000D02*
Y1190500D01*
X1117000Y1209000D02*
X1126000D01*
X1006000Y1183000D02*
X1016000Y1173000D01*
X1056000Y1190500D02*
X1059500D01*
X1067000Y1183000D01*
X1091000D01*
X1117000Y1209000D01*
X1081000Y1190500D02*
X1083500D01*
X1107000Y1214000D02*
X1133000D01*
X1083500Y1190500D02*
X1107000Y1214000D01*
X913500Y1801500D02*
X924000Y1791000D01*
X1016000D01*
X959000Y1528000D02*
X965050Y1521950D01*
X997650D01*
X602600Y1604650D02*
X617650D01*
X625000Y1612000D01*
X602600Y1566550D02*
X618450D01*
X1707000Y1609000D02*
X1709000Y1611000D01*
X1246450Y1581950D02*
X1246500Y1582000D01*
Y1583500D01*
X1260000Y1597000D01*
Y1600000D01*
X1212150Y1596950D02*
X1245950D01*
X1258000Y1609000D01*
X1122000Y1721500D02*
X1262500D01*
X1267000Y1717000D01*
X1136000Y1708000D02*
X1335000D01*
X1368000Y1741000D01*
X1212150Y1611950D02*
X1227950D01*
X1230000Y1614000D01*
X1150000Y1739000D02*
X1225000D01*
X1212150Y1606950D02*
X1236950D01*
X1240000Y1610000D01*
X1212150Y1601950D02*
X1241950D01*
X1251000Y1611000D01*
Y1614000D01*
X1238000Y1756000D02*
X1242000Y1752000D01*
X1212150Y1526950D02*
X1227050D01*
X1232000Y1522000D01*
X1212150Y1521950D02*
X1220050D01*
X1236000Y1506000D01*
X1246500D01*
X1017000Y1404000D02*
X1028500Y1415500D01*
X1030000D01*
X1061500D01*
X549350Y1395350D02*
X582000Y1428000D01*
X539350Y1408350D02*
X571000Y1440000D01*
X882000Y1661000D02*
X890000Y1669000D01*
X859000Y1696000D02*
X1003000D01*
X858000Y1695000D02*
X859000Y1696000D01*
X858000Y1692000D02*
Y1695000D01*
X867411Y1689000D02*
X868000D01*
X1015000D01*
X858000Y1705000D02*
X1003000D01*
X854000Y1701000D02*
Y1702000D01*
X544850Y1401850D02*
X577000Y1434000D01*
X1143574Y1771000D02*
X1158574Y1756000D01*
X1140000Y1763000D02*
X1157000Y1746000D01*
X844000Y1434000D02*
X850000Y1440000D01*
X913500Y1816500D02*
X913500Y1816500D01*
X872000Y1771000D02*
X1143574D01*
X863000Y1763000D02*
X1140000D01*
X442100Y1620600D02*
X477600D01*
X442000Y1620500D02*
X442100Y1620600D01*
X442000Y1546600D02*
X477600D01*
X442000Y1546600D02*
X442000Y1546600D01*
X761899Y1410101D02*
X880101D01*
X754000Y1418000D02*
X761899Y1410101D01*
X880101D02*
X891000Y1421000D01*
X979000D01*
X1057400Y1449400D02*
Y1462200D01*
X728600Y1747600D02*
X728600Y1747600D01*
X728600Y1747600D02*
Y1748600D01*
Y1780100D02*
X728600Y1780100D01*
X728600Y1748600D02*
Y1780100D01*
X763799Y1400201D02*
X884201D01*
X898000Y1414000D01*
X972000D01*
X1072450Y1448450D02*
X1079450D01*
X1082400Y1451400D01*
Y1462200D01*
X672100Y1915600D02*
X709600D01*
X1122400Y1462200D02*
Y1477600D01*
X672100Y2028600D02*
X709600D01*
X781974Y1391008D02*
X888009D01*
X904000Y1407000D01*
X966000D01*
X1073000Y1439000D02*
X1077000D01*
X1067000Y1433000D02*
X1073000Y1439000D01*
X1077000D02*
X1092400Y1454400D01*
Y1462200D01*
X672100Y2155600D02*
X710600D01*
X709600Y1915600D02*
X710200Y1915000D01*
X710600Y2155600D02*
X712200Y2154000D01*
X714200Y2156000D02*
X776000D01*
X745000Y1747000D02*
X754000Y1738000D01*
Y1738000D02*
Y1738000D01*
X730200Y1747000D02*
X745000D01*
X761000Y1403000D02*
X763799Y1400201D01*
X710200Y1915000D02*
X752000D01*
X769000Y1421000D02*
X875000D01*
X722000Y1997000D02*
X752000D01*
X779000Y1393000D02*
Y1393983D01*
X709600Y2009400D02*
Y2028600D01*
Y2009400D02*
X722000Y1997000D01*
X875000Y1421000D02*
X882000Y1428000D01*
X986000D01*
X1018000Y1247000D02*
Y1265000D01*
X980950Y1486950D02*
X997650D01*
X957500Y1480000D02*
X974000D01*
X980950Y1486950D01*
X828500Y1807000D02*
X842000D01*
X862000Y1827000D01*
X888000D01*
X891000Y1830000D01*
X837000Y1440000D02*
X842000Y1445000D01*
X848000Y1707000D02*
X854000Y1713000D01*
X846000Y1707000D02*
X848000D01*
X895000Y1619000D02*
Y1621000D01*
X889000Y1382000D02*
X895000Y1388000D01*
X847000Y1382000D02*
X889000D01*
X903000Y1385000D02*
Y1395000D01*
X893000Y1375000D02*
X903000Y1385000D01*
X855000Y1375000D02*
X893000D01*
X984150Y1561950D02*
X997650D01*
X1564000Y1233500D02*
Y1259000D01*
X1564000Y1233500D02*
X1564000Y1233500D01*
X1550500Y1259000D02*
X1564000D01*
X1577500D01*
X837000Y1561000D02*
X841050Y1556950D01*
X997650D01*
X947000Y1393000D02*
X947500Y1392500D01*
X929000Y1393000D02*
X947000D01*
X947500Y1392500D02*
X953000Y1398000D01*
X625000Y1612000D02*
X834000D01*
X837000Y1609000D01*
X1255000Y1426000D02*
Y1445000D01*
Y1426000D02*
X1261000Y1420000D01*
X1267500Y1230500D02*
X1324250D01*
X1365000D02*
Y1259000D01*
X1350500D02*
X1365000D01*
X1378500D01*
X984000Y1827000D02*
X1004000D01*
X839500Y1781000D02*
X862000D01*
X887500Y1806500D01*
X891500D01*
X1215000Y1226000D02*
Y1231000D01*
X1219000Y1235000D01*
X1228500D01*
X791000Y1297636D02*
X1228364D01*
X752000Y1309000D02*
X761000D01*
X746000Y1315000D02*
X752000Y1309000D01*
X1135000Y1754000D02*
X1150000Y1739000D01*
X858000Y1754000D02*
X923000D01*
X995500D02*
X1135000D01*
X994000Y1752500D02*
X995500Y1754000D01*
X638000Y1878000D02*
X649000Y1867000D01*
X590000Y1878000D02*
X638000D01*
X579000Y1867000D02*
X590000Y1878000D01*
X651000Y1846000D02*
X844000D01*
X352600D02*
X578000D01*
X589000Y1835000D01*
X640000D01*
X651000Y1846000D01*
X701400Y1472000D02*
X712000D01*
X744000Y1440000D01*
X837000D01*
X571000D02*
X610000D01*
X712000Y1443000D02*
X721000Y1434000D01*
X844000D01*
X610000Y1440000D02*
X619000Y1449000D01*
X678400D01*
X701400Y1472000D01*
X673000Y1428000D02*
X852000D01*
X617000Y1440000D02*
X669000D01*
X611000Y1434000D02*
X617000Y1440000D01*
X577000Y1434000D02*
X611000D01*
X582000Y1428000D02*
X632000D01*
X442000Y1572000D02*
Y1601500D01*
Y1572000D02*
X442000Y1572000D01*
X1116000Y1943000D02*
X1133000D01*
X1140000Y1950000D01*
Y2002750D01*
X1145000Y1950000D02*
Y2002750D01*
Y1950000D02*
X1151650Y1943350D01*
X1135000Y2002750D02*
Y2015000D01*
X1137000Y2017000D01*
X1164000D01*
X1201000Y1980000D01*
Y1943350D02*
Y1980000D01*
X1434250Y1377250D02*
Y1416450D01*
X1427000Y1370000D02*
X1434250Y1377250D01*
X1412800Y1370000D02*
X1427000D01*
X1412800D02*
Y1407650D01*
X1404000Y1416450D02*
X1412800Y1407650D01*
X1300550Y1416450D02*
X1404000D01*
X1285000Y1473000D02*
X1303450Y1454550D01*
X1327450D01*
X1328000Y1454000D01*
X1205000Y1216000D02*
X1506750D01*
X1245000Y1237500D02*
X1247500Y1235000D01*
X1245000Y1237500D02*
Y1255500D01*
X631500Y1225500D02*
Y1244500D01*
X626500Y1237750D02*
Y1244500D01*
X535000Y1235750D02*
X537124D01*
X538540Y1237166D01*
Y1243694D01*
X539956Y1245110D01*
X544204D01*
X545620Y1243694D01*
Y1235750D02*
Y1243694D01*
Y1227806D02*
Y1235750D01*
Y1227806D02*
X547036Y1226390D01*
X551284D01*
X552700Y1227806D01*
Y1234334D01*
X554116Y1235750D01*
X556000D01*
X1109000Y1829000D02*
X1116000Y1822000D01*
X1151500D01*
X934500Y1829500D02*
X981500D01*
X984000Y1827000D01*
X830000Y1491000D02*
Y1495000D01*
X838000Y1483000D02*
X907000D01*
X830000Y1491000D02*
X838000Y1483000D01*
X820000Y1765000D02*
Y1780500D01*
X820500Y1781000D01*
Y1816500D01*
X838000Y1834000D01*
X855000D01*
X929000Y1461000D02*
X993000D01*
X907000Y1483000D02*
X929000Y1461000D01*
X993000D02*
X1009000Y1477000D01*
X1020000D02*
X1022400Y1474600D01*
Y1462200D02*
Y1474600D01*
X1009000Y1477000D02*
X1020000D01*
X855000Y1834000D02*
X881000Y1860000D01*
X1606000D01*
X1611000Y1855000D01*
X822000Y1483000D02*
X823000D01*
X830000Y1475000D02*
X888000D01*
X809000Y1790000D02*
Y1806500D01*
X809500Y1807000D01*
Y1820500D01*
X828000Y1839000D01*
X848000D01*
X875000Y1866000D01*
X911000Y1436000D02*
X991000D01*
X996000Y1431000D01*
X1026000D01*
X1037400Y1442400D01*
Y1462200D01*
X897000Y1466000D02*
X911000D01*
X875000Y1866000D02*
X1615000D01*
X888000Y1475000D02*
X897000Y1466000D01*
X1615000Y1866000D02*
X1621000Y1860000D01*
X785000Y1448000D02*
Y1456000D01*
X791000Y1462000D01*
X853000D01*
X790000Y2031500D02*
X791000Y2032500D01*
Y2047000D01*
X793000Y1931000D02*
X915000D01*
X791000Y2047000D02*
X802000Y2058000D01*
X866000Y1449000D02*
X1025000D01*
X1027400Y1451400D01*
X853000Y1462000D02*
X866000Y1449000D01*
X1027400Y1451400D02*
Y1462200D01*
X915000Y1931000D02*
X975000Y1871000D01*
X1625000D02*
X1630000Y1866000D01*
X875000Y2047000D02*
X884000D01*
X802000Y2058000D02*
X864000D01*
X875000Y2047000D01*
X975000Y1871000D02*
X1625000D01*
X1116000Y2047000D02*
X1124750D01*
X1125000Y2047250D01*
X777000Y1928000D02*
Y1934600D01*
X795000Y1448000D02*
X825000D01*
X834000Y1457000D01*
X850000D01*
X777000Y1928000D02*
X804000Y1901000D01*
Y1896000D02*
Y1901000D01*
X777000Y1934600D02*
X781600D01*
X787000Y1940000D01*
X826000D01*
X818000Y2031500D02*
Y2040000D01*
X825000Y2047000D01*
X826000Y1940000D02*
X917000D01*
X825000Y2047000D02*
X836000D01*
X864000Y1443000D02*
X1028000D01*
X1032400Y1447400D01*
X850000Y1457000D02*
X864000Y1443000D01*
X1032400Y1447400D02*
Y1462200D01*
X917000Y1940000D02*
X979000Y1878000D01*
X1634000D01*
X1640000Y1872000D01*
X836000Y2047000D02*
X865000D01*
X889000Y2039000D02*
X896000Y2046000D01*
X873000Y2039000D02*
X889000D01*
X865000Y2047000D02*
X873000Y2039000D01*
X896000Y2046000D02*
Y2056000D01*
X1130000Y2047250D02*
Y2065000D01*
X1301850Y1429150D02*
X1379000D01*
X1401000D02*
X1434250D01*
X822000Y1483000D02*
X830000Y1475000D01*
X1484000Y1621000D02*
X1697071D01*
X1225871D02*
X1484000D01*
X854000Y1701000D02*
X858000Y1705000D01*
X1245000Y1255500D02*
X1247500Y1258000D01*
X1151650Y1943350D02*
X1170000D01*
X712200Y2154000D02*
X714200Y2156000D01*
X779000Y1393983D02*
X781974Y1391008D01*
X350600Y1855000D02*
X854000D01*
X1157000Y1746000D02*
X1232000D01*
X486000Y1879000D02*
X522000D01*
X649000Y1867000D02*
X864000D01*
X1158574Y1756000D02*
X1238000D01*
X1092500Y1409000D02*
X1107500Y1424000D01*
X1303150Y1441850D02*
X1353000D01*
X1376000D02*
X1434250D01*
X728600Y1799100D02*
Y1827600D01*
X1353000Y1454550D02*
X1434250D01*
X1233450Y1635000D02*
X1704000D01*
X606000Y1301000D02*
X620000Y1315000D01*
X746000D01*
X910000Y1646000D02*
X918000Y1654000D01*
X961000D01*
X890000Y1643000D02*
X907000Y1660000D01*
X964000D01*
X894000Y1662000D02*
X902000D01*
X907000Y1667000D01*
X965000D01*
X890000Y1669000D02*
X898000D01*
X905000Y1676000D01*
X965000D01*
X895000Y1621000D02*
X895950Y1621950D01*
X997650D01*
X903000Y1613000D02*
X906950Y1616950D01*
X997650D01*
X618450Y1566550D02*
X634000Y1551000D01*
X967000D01*
X969000Y1549000D01*
X982100Y1564000D02*
X984150Y1561950D01*
X921000Y1534000D02*
X928000Y1541000D01*
X950000D01*
X956500Y1534500D01*
X1171500Y1427500D02*
X1183000Y1416000D01*
X1197500Y1427500D02*
X1203000Y1422000D01*
X1244000D01*
X1246000Y1424000D01*
X1230000Y1414000D02*
X1238000D01*
X1183000Y1416000D02*
X1228000D01*
X1230000Y1414000D01*
X1043000Y1249000D02*
Y1273000D01*
X509000Y1203000D02*
X557000D01*
X507000Y1205000D02*
Y1215000D01*
X562000Y1208000D02*
Y1219000D01*
X565000Y1222000D02*
X628000D01*
X565000Y1288500D02*
Y1296000D01*
X571000Y1302000D01*
X582000D01*
X590000Y1294000D01*
X663000Y1260500D02*
X664000Y1259500D01*
X664000Y1259500D02*
Y1261500D01*
Y1280000D01*
X611500Y1295772D02*
X625728Y1310000D01*
X736000D01*
X741000Y1305000D01*
X1014000Y1415000D02*
X1024000Y1425000D01*
X1004500Y1415000D02*
X1014000D01*
X1004000Y1415500D02*
X1004500Y1415000D01*
X991500Y1752500D02*
X994000D01*
X982000Y1743000D02*
X991500Y1752500D01*
X959000Y1743000D02*
X982000D01*
X934000D02*
X959000D01*
X923000Y1754000D02*
X934000Y1743000D01*
X1008750Y1831750D02*
Y1848750D01*
X1014000Y1854000D01*
X1045000D01*
X1054000Y1845000D01*
Y1836500D02*
Y1845000D01*
X1004000Y1827000D02*
X1008750Y1831750D01*
X1130000Y1988000D02*
Y2002750D01*
X1506750Y1216000D02*
X1524250Y1233500D01*
X1067400Y1462200D02*
Y1480600D01*
X1117400Y1462200D02*
Y1470600D01*
X1109000Y1479000D02*
X1117400Y1470600D01*
X1109000Y1479000D02*
Y1482000D01*
X1147400Y1462200D02*
Y1472400D01*
X1150000Y1475000D01*
X1152400Y1462200D02*
Y1472600D01*
X1150000Y1475000D02*
X1152400Y1472600D01*
X1182400Y1449600D02*
Y1462200D01*
Y1449600D02*
X1188000Y1444000D01*
X1212000D01*
X1220000Y1436000D01*
Y1428500D02*
Y1436000D01*
X1199950Y1516950D02*
X1212150D01*
X1198000Y1515000D02*
X1199950Y1516950D01*
X1201050Y1511950D02*
X1212150D01*
X1198000Y1515000D02*
X1201050Y1511950D01*
X1198050Y1531950D02*
X1212150D01*
X1198000Y1532000D02*
X1198050Y1531950D01*
Y1546950D02*
X1212150D01*
X1198000Y1547000D02*
X1198050Y1546950D01*
X1198050Y1576950D02*
X1212150D01*
X1198000Y1577000D02*
X1198050Y1576950D01*
X1190000Y1639000D02*
X1192950Y1641950D01*
X1212150D01*
X1199950Y1636950D02*
X1212150D01*
X1198000Y1635000D02*
X1199950Y1636950D01*
X1201050Y1631950D02*
X1212150D01*
X1198000Y1635000D02*
X1201050Y1631950D01*
X1190000Y1630000D02*
Y1639000D01*
Y1630000D02*
X1193050Y1626950D01*
X1212150D01*
X1117400Y1661400D02*
Y1676700D01*
X1042400Y1663600D02*
Y1676700D01*
X1047400Y1663400D02*
Y1676700D01*
X1042400Y1663600D02*
X1045000Y1661000D01*
X1047400Y1663400D01*
X997650Y1626950D02*
X1010950D01*
X997650Y1596950D02*
X1009050D01*
X1012000Y1594000D01*
X997650Y1591950D02*
X1009950D01*
X1012000Y1594000D01*
X997650Y1526950D02*
X1013950D01*
X1014000Y1527000D01*
X997650Y1511950D02*
X1013950D01*
X1014000Y1512000D01*
X993500Y1472500D02*
X997650Y1476650D01*
Y1481950D01*
X918000Y1270000D02*
X999000D01*
X1011000Y1272000D02*
X1018000Y1265000D01*
X999000Y1270000D02*
X1001000Y1272000D01*
X1011000D01*
X1038000Y1278000D02*
X1043000Y1273000D01*
X926000Y1278000D02*
X1038000D01*
X1218000Y1304000D02*
X1222000Y1308000D01*
X795000Y1309000D02*
X800000Y1304000D01*
X1218000D01*
X761000Y1309000D02*
X795000D01*
X981000Y1404000D02*
X1017000D01*
X968000Y1391000D02*
X981000Y1404000D01*
X963000Y1391000D02*
X968000D01*
X953000Y1398000D02*
X967000D01*
X984500Y1415500D01*
X1004000D01*
X1142400Y1451600D02*
Y1462200D01*
Y1451600D02*
X1166500Y1427500D01*
X1169000D01*
X1055000Y1447000D02*
X1057400Y1449400D01*
X1045000Y1447000D02*
X1055000D01*
X728600Y1748600D02*
X730200Y1747000D01*
X672500Y1747600D02*
X728600D01*
X1062400Y1447400D02*
Y1462200D01*
X1048000Y1441000D02*
X1056000D01*
X1032000Y1425000D02*
X1048000Y1441000D01*
X1056000D02*
X1062400Y1447400D01*
X1024000Y1425000D02*
X1032000D01*
X857000Y1469000D02*
X871000Y1455000D01*
X822000Y1469000D02*
X857000D01*
X871000Y1455000D02*
X1001000D01*
X1008200Y1462200D01*
X1017400D01*
X816000Y1505000D02*
X834000D01*
X910000Y1491000D02*
X932000Y1469000D01*
X834000Y1505000D02*
X848000Y1491000D01*
X910000D01*
X932000Y1469000D02*
X974000D01*
X981050Y1491950D02*
X997650D01*
X977000Y1496000D02*
X981050Y1491950D01*
X815000Y1540000D02*
X821000Y1546000D01*
X961000D02*
X970050Y1536950D01*
X821000Y1546000D02*
X961000D01*
X970050Y1536950D02*
X997650D01*
X843000Y1569000D02*
X850000Y1562000D01*
X802000Y1569000D02*
X843000D01*
X850000Y1562000D02*
X965000D01*
X974950Y1571950D01*
X997650D01*
X1258000Y1609000D02*
X1580000D01*
X1707000D01*
D11*
X664000Y1259500D02*
D03*
Y1240500D02*
D03*
X1403000Y1479500D02*
D03*
Y1498500D02*
D03*
X994000Y1817500D02*
D03*
Y1836500D02*
D03*
X1030000Y1415500D02*
D03*
Y1396500D02*
D03*
X1059000Y1721500D02*
D03*
Y1740500D02*
D03*
X1122000Y1721500D02*
D03*
Y1740500D02*
D03*
X1195000Y1427500D02*
D03*
Y1408500D02*
D03*
X1169000Y1427500D02*
D03*
Y1408500D02*
D03*
X1004000Y1415500D02*
D03*
Y1396500D02*
D03*
X1033000Y1721500D02*
D03*
Y1740500D02*
D03*
X637600Y1579100D02*
D03*
Y1598100D02*
D03*
X1094000Y2003000D02*
D03*
Y1984000D02*
D03*
X418600Y1388100D02*
D03*
Y1369100D02*
D03*
X570000Y1388500D02*
D03*
Y1369500D02*
D03*
X830000Y2116500D02*
D03*
Y2135500D02*
D03*
X1334000Y1608500D02*
D03*
Y1589500D02*
D03*
X1294000Y1619500D02*
D03*
Y1600500D02*
D03*
X1334000Y1633500D02*
D03*
Y1652500D02*
D03*
X565000Y1288500D02*
D03*
Y1269500D02*
D03*
X1189000Y1746500D02*
D03*
Y1765500D02*
D03*
X1217000Y1757500D02*
D03*
Y1776500D02*
D03*
X994000Y1752500D02*
D03*
Y1733500D02*
D03*
D12*
X565600Y1630600D02*
D03*
X584600D02*
D03*
X635500Y1395000D02*
D03*
X654500D02*
D03*
X623500Y1345000D02*
D03*
X604500D02*
D03*
X1417500Y1799000D02*
D03*
X1398500D02*
D03*
X1342500Y2056000D02*
D03*
X1323500D02*
D03*
X1284000Y2056000D02*
D03*
X1265000D02*
D03*
X1226000Y2056000D02*
D03*
X1207000D02*
D03*
X566100Y1541600D02*
D03*
X585100D02*
D03*
X471600Y2118600D02*
D03*
X490600D02*
D03*
X469100Y1996600D02*
D03*
X488100D02*
D03*
X467100Y1879600D02*
D03*
X486100D02*
D03*
X554100Y1768400D02*
D03*
X573100D02*
D03*
X1084500Y2041000D02*
D03*
X1103500D02*
D03*
X1417500Y1711000D02*
D03*
X1398500D02*
D03*
X1142500Y2224000D02*
D03*
X1123500D02*
D03*
X1170500Y1822000D02*
D03*
X1151500D02*
D03*
X820500Y1781000D02*
D03*
X839500D02*
D03*
X809500Y1807000D02*
D03*
X828500D02*
D03*
X1577500Y1259000D02*
D03*
X1596500D02*
D03*
X1228500Y1235000D02*
D03*
X1247500D02*
D03*
X1378500Y1259000D02*
D03*
X1397500D02*
D03*
D13*
X713500Y1395000D02*
D03*
X694500D02*
D03*
X891500Y1816000D02*
D03*
X872500D02*
D03*
X1246500Y1582000D02*
D03*
X1265500D02*
D03*
X1246500Y1531000D02*
D03*
X1265500D02*
D03*
X957500Y1480000D02*
D03*
X938500D02*
D03*
X957500Y1506000D02*
D03*
X938500D02*
D03*
X957500Y1582000D02*
D03*
X938500D02*
D03*
X957500Y1632000D02*
D03*
X938500D02*
D03*
X1246500Y1556000D02*
D03*
X1265500D02*
D03*
X1246500Y1506000D02*
D03*
X1265500D02*
D03*
X957500Y1531000D02*
D03*
X938500D02*
D03*
X957500Y1607000D02*
D03*
X938500D02*
D03*
X1246500Y1481000D02*
D03*
X1265500D02*
D03*
X1239500Y1662000D02*
D03*
X1258500D02*
D03*
X1075500Y1409000D02*
D03*
X1094500D02*
D03*
X1139500Y1409000D02*
D03*
X1120500D02*
D03*
X1141500Y2198000D02*
D03*
X1122500D02*
D03*
X1345500Y1761000D02*
D03*
X1326500D02*
D03*
X1350500Y1259000D02*
D03*
X1331500D02*
D03*
X1550500D02*
D03*
X1531500D02*
D03*
X694500Y1338000D02*
D03*
X713500D02*
D03*
D14*
X661000Y1361000D02*
D03*
D15*
X675000Y1351250D02*
D03*
Y1357750D02*
D03*
Y1364250D02*
D03*
Y1370750D02*
D03*
X647000Y1351250D02*
D03*
Y1357750D02*
D03*
Y1364250D02*
D03*
Y1370750D02*
D03*
D16*
X1373000Y1498500D02*
D03*
Y1479500D02*
D03*
X1054000Y1817500D02*
D03*
Y1836500D02*
D03*
X981000Y1252500D02*
D03*
Y1233500D02*
D03*
X1031000Y1252500D02*
D03*
Y1233500D02*
D03*
X1006000Y1233500D02*
D03*
Y1252500D02*
D03*
X1031000Y1209500D02*
D03*
Y1190500D02*
D03*
X981000Y1209500D02*
D03*
Y1190500D02*
D03*
X1006000Y1209500D02*
D03*
Y1190500D02*
D03*
X1056000Y1252500D02*
D03*
Y1233500D02*
D03*
X1081000Y1252500D02*
D03*
Y1233500D02*
D03*
Y1209500D02*
D03*
Y1190500D02*
D03*
X1056000Y1209500D02*
D03*
Y1190500D02*
D03*
X1220000Y1428500D02*
D03*
Y1409500D02*
D03*
X442000Y1601500D02*
D03*
Y1620500D02*
D03*
X477600Y1601600D02*
D03*
Y1620600D02*
D03*
X670600Y1597600D02*
D03*
Y1578600D02*
D03*
X709600Y1915600D02*
D03*
Y1934600D02*
D03*
Y2028600D02*
D03*
Y2047600D02*
D03*
X710600Y2155600D02*
D03*
Y2174600D02*
D03*
X553600Y1722900D02*
D03*
Y1741900D02*
D03*
X728600Y1747600D02*
D03*
Y1728600D02*
D03*
X728600Y1780100D02*
D03*
Y1799100D02*
D03*
X455600Y1389100D02*
D03*
Y1370100D02*
D03*
X599000Y1407500D02*
D03*
Y1388500D02*
D03*
X818000Y2012500D02*
D03*
Y2031500D02*
D03*
X790000Y2012500D02*
D03*
Y2031500D02*
D03*
X1345000Y1802500D02*
D03*
Y1783500D02*
D03*
X1514000Y1747500D02*
D03*
Y1728500D02*
D03*
X1467000Y1747500D02*
D03*
Y1728500D02*
D03*
D17*
X500500Y1215000D02*
D03*
X526500D02*
D03*
X520000D02*
D03*
X513500D02*
D03*
D18*
X482500Y1213750D02*
D03*
X544500Y1213750D02*
D03*
D19*
X475500Y1188250D02*
D03*
X551500Y1188250D02*
D03*
D20*
X501500Y1188250D02*
D03*
X525500D02*
D03*
D21*
X924000Y1823000D02*
D03*
D22*
X913500Y1816500D02*
D03*
Y1823000D02*
D03*
Y1829500D02*
D03*
X934500D02*
D03*
Y1823000D02*
D03*
Y1816500D02*
D03*
D23*
X1171400Y1232000D02*
D03*
X1158700D02*
D03*
X1146000D02*
D03*
X1133300D02*
D03*
X1120600D02*
D03*
Y1191400D02*
D03*
X1133300D02*
D03*
X1146000D02*
D03*
X1158700D02*
D03*
X1171400D02*
D03*
D24*
X1017400Y1462200D02*
D03*
X1022400D02*
D03*
X1027400D02*
D03*
X1032400D02*
D03*
X1037400D02*
D03*
X1042400D02*
D03*
X1047400D02*
D03*
X1052400D02*
D03*
X1057400D02*
D03*
X1062400D02*
D03*
X1067400D02*
D03*
X1072400D02*
D03*
X1077400D02*
D03*
X1082400D02*
D03*
X1087400D02*
D03*
X1092400D02*
D03*
X1097400D02*
D03*
X1102400D02*
D03*
X1107400D02*
D03*
X1112400D02*
D03*
X1117400D02*
D03*
X1122400D02*
D03*
X1127400D02*
D03*
X1132400D02*
D03*
X1137400D02*
D03*
X1142400D02*
D03*
X1147400D02*
D03*
X1152400D02*
D03*
X1157400D02*
D03*
X1162400D02*
D03*
X1167400D02*
D03*
X1172400D02*
D03*
X1177400D02*
D03*
X1182400D02*
D03*
X1187400D02*
D03*
X1192400D02*
D03*
Y1676700D02*
D03*
X1187400D02*
D03*
X1182400D02*
D03*
X1177400D02*
D03*
X1172400D02*
D03*
X1167400D02*
D03*
X1162400D02*
D03*
X1157400D02*
D03*
X1152400D02*
D03*
X1147400D02*
D03*
X1142400D02*
D03*
X1137400D02*
D03*
X1132400D02*
D03*
X1127400D02*
D03*
X1122400D02*
D03*
X1117400D02*
D03*
X1112400D02*
D03*
X1107400D02*
D03*
X1102400D02*
D03*
X1097400D02*
D03*
X1092400D02*
D03*
X1087400D02*
D03*
X1082400D02*
D03*
X1077400D02*
D03*
X1072400D02*
D03*
X1067400D02*
D03*
X1062400D02*
D03*
X1057400D02*
D03*
X1052400D02*
D03*
X1047400D02*
D03*
X1042400D02*
D03*
X1037400D02*
D03*
X1032400D02*
D03*
X1027400D02*
D03*
X1022400D02*
D03*
X1017400D02*
D03*
D25*
X1212150Y1481950D02*
D03*
Y1486950D02*
D03*
Y1491950D02*
D03*
Y1496950D02*
D03*
Y1501950D02*
D03*
Y1506950D02*
D03*
Y1511950D02*
D03*
Y1516950D02*
D03*
Y1521950D02*
D03*
Y1526950D02*
D03*
Y1531950D02*
D03*
Y1536950D02*
D03*
Y1541950D02*
D03*
Y1546950D02*
D03*
Y1551950D02*
D03*
Y1556950D02*
D03*
Y1561950D02*
D03*
Y1566950D02*
D03*
Y1571950D02*
D03*
Y1576950D02*
D03*
Y1581950D02*
D03*
Y1586950D02*
D03*
Y1591950D02*
D03*
Y1596950D02*
D03*
Y1601950D02*
D03*
Y1606950D02*
D03*
Y1611950D02*
D03*
Y1616950D02*
D03*
Y1621950D02*
D03*
Y1626950D02*
D03*
Y1631950D02*
D03*
Y1636950D02*
D03*
Y1641950D02*
D03*
Y1646950D02*
D03*
Y1651950D02*
D03*
Y1656950D02*
D03*
X997650D02*
D03*
Y1651950D02*
D03*
Y1646950D02*
D03*
Y1641950D02*
D03*
Y1636950D02*
D03*
Y1631950D02*
D03*
Y1626950D02*
D03*
Y1621950D02*
D03*
Y1616950D02*
D03*
Y1611950D02*
D03*
Y1606950D02*
D03*
Y1601950D02*
D03*
Y1596950D02*
D03*
Y1591950D02*
D03*
Y1586950D02*
D03*
Y1581950D02*
D03*
Y1576950D02*
D03*
Y1571950D02*
D03*
Y1566950D02*
D03*
Y1561950D02*
D03*
Y1556950D02*
D03*
Y1551950D02*
D03*
Y1546950D02*
D03*
Y1541950D02*
D03*
Y1536950D02*
D03*
Y1531950D02*
D03*
Y1526950D02*
D03*
Y1521950D02*
D03*
Y1516950D02*
D03*
Y1511950D02*
D03*
Y1506950D02*
D03*
Y1501950D02*
D03*
Y1496950D02*
D03*
Y1491950D02*
D03*
Y1486950D02*
D03*
Y1481950D02*
D03*
D26*
X1153500Y1349000D02*
D03*
X1058500D02*
D03*
D27*
X447000Y1940000D02*
D03*
X485000D02*
D03*
X561000Y1940000D02*
D03*
X523000D02*
D03*
X447000Y2179000D02*
D03*
X485000D02*
D03*
X447000Y2053000D02*
D03*
X485000D02*
D03*
X561000D02*
D03*
X523000D02*
D03*
X562000Y2179000D02*
D03*
X524000D02*
D03*
D28*
X1598000Y1605000D02*
D03*
X1484000Y1622000D02*
D03*
X1207000Y2168000D02*
D03*
X1322000D02*
D03*
X1265000Y2204000D02*
D03*
X419000Y1423000D02*
D03*
X959000Y1743000D02*
D03*
X612000Y1856000D02*
D03*
X673000Y1871000D02*
D03*
X1322000Y2204000D02*
D03*
X1208000D02*
D03*
X1404000Y1639000D02*
D03*
X1265000Y2168000D02*
D03*
D29*
X713500Y1827000D02*
D03*
X728500D02*
D03*
X515600Y2118600D02*
D03*
X530600D02*
D03*
X516100Y1996600D02*
D03*
X531100D02*
D03*
X522100Y1879600D02*
D03*
X537100D02*
D03*
X1202500Y1822000D02*
D03*
X1217500D02*
D03*
X1229500Y1258000D02*
D03*
X1244500D02*
D03*
D30*
X1116000Y1943000D02*
D03*
X1170000D02*
D03*
D31*
X505000Y1808900D02*
D03*
X454200D02*
D03*
X1414600Y1936500D02*
D03*
X1465400D02*
D03*
D32*
X479600Y1676400D02*
D03*
X1440000Y2069000D02*
D03*
D33*
X548600Y1604650D02*
D03*
Y1591950D02*
D03*
Y1579250D02*
D03*
Y1566550D02*
D03*
X602600Y1604650D02*
D03*
Y1591950D02*
D03*
Y1579250D02*
D03*
Y1566550D02*
D03*
X1378000Y1773050D02*
D03*
Y1760350D02*
D03*
Y1747650D02*
D03*
Y1734950D02*
D03*
X1432000Y1773050D02*
D03*
Y1760350D02*
D03*
Y1747650D02*
D03*
Y1734950D02*
D03*
D34*
X1119100Y2138000D02*
D03*
X1142000D02*
D03*
D35*
X1145000Y2047250D02*
D03*
X1140000D02*
D03*
X1135000D02*
D03*
X1130000D02*
D03*
X1125000D02*
D03*
X1145000Y2002750D02*
D03*
X1140000D02*
D03*
X1135000D02*
D03*
X1130000D02*
D03*
X1125000D02*
D03*
D36*
X1207000Y2081500D02*
D03*
Y2096500D02*
D03*
X1265000Y2081500D02*
D03*
Y2096500D02*
D03*
X1323000Y2081500D02*
D03*
Y2096500D02*
D03*
D37*
X799000Y2127500D02*
D03*
Y2116500D02*
D03*
X1023000Y1817500D02*
D03*
Y1828500D02*
D03*
X897000Y1791500D02*
D03*
Y1780500D02*
D03*
D38*
X1109000Y1829000D02*
D03*
D39*
X672100Y2155600D02*
D03*
Y2178600D02*
D03*
Y2201600D02*
D03*
Y2028600D02*
D03*
Y2051600D02*
D03*
Y2074600D02*
D03*
Y1915600D02*
D03*
Y1938600D02*
D03*
Y1961600D02*
D03*
X672500Y1748000D02*
D03*
Y1771000D02*
D03*
Y1794000D02*
D03*
D40*
X609100Y2178600D02*
D03*
Y2051600D02*
D03*
Y1938600D02*
D03*
X609500Y1771000D02*
D03*
D41*
X679800Y1190000D02*
D03*
X722200D02*
D03*
D42*
X596500Y1284500D02*
D03*
Y1279500D02*
D03*
Y1274500D02*
D03*
Y1269500D02*
D03*
Y1264500D02*
D03*
Y1259500D02*
D03*
Y1254500D02*
D03*
Y1249500D02*
D03*
X641500D02*
D03*
Y1254500D02*
D03*
Y1259500D02*
D03*
Y1264500D02*
D03*
Y1269500D02*
D03*
Y1274500D02*
D03*
Y1279500D02*
D03*
Y1284500D02*
D03*
D43*
X601500Y1244500D02*
D03*
X606500D02*
D03*
X611500D02*
D03*
X616500D02*
D03*
X621500D02*
D03*
X626500D02*
D03*
X631500D02*
D03*
X636500D02*
D03*
Y1289500D02*
D03*
X631500D02*
D03*
X626500D02*
D03*
X621500D02*
D03*
X616500D02*
D03*
X611500D02*
D03*
X606500D02*
D03*
X601500D02*
D03*
D44*
X619000Y1267000D02*
D03*
D45*
X507000Y1215000D02*
D03*
D46*
X1324250Y1230500D02*
D03*
X1403750D02*
D03*
X1324250Y1185500D02*
D03*
X1403750D02*
D03*
X1524250Y1230500D02*
D03*
X1603750D02*
D03*
X1524250Y1185500D02*
D03*
X1603750D02*
D03*
D47*
X500000Y1266000D02*
D03*
Y1308400D02*
D03*
D48*
X955500Y1817000D02*
D03*
X968500D02*
D03*
X499500Y1333000D02*
D03*
X512500D02*
D03*
X700500Y1364250D02*
D03*
X713500D02*
D03*
X1142000Y2172000D02*
D03*
X1155000D02*
D03*
D49*
X1527750Y1416450D02*
D03*
Y1429150D02*
D03*
Y1441850D02*
D03*
Y1454550D02*
D03*
Y1467250D02*
D03*
Y1479950D02*
D03*
Y1492650D02*
D03*
Y1505350D02*
D03*
Y1518050D02*
D03*
Y1530750D02*
D03*
Y1543450D02*
D03*
Y1556150D02*
D03*
Y1568850D02*
D03*
Y1581550D02*
D03*
X1434250Y1416450D02*
D03*
Y1429150D02*
D03*
Y1441850D02*
D03*
Y1454550D02*
D03*
Y1467250D02*
D03*
Y1479950D02*
D03*
Y1492650D02*
D03*
Y1505350D02*
D03*
Y1518050D02*
D03*
Y1530750D02*
D03*
Y1543450D02*
D03*
Y1556150D02*
D03*
Y1568850D02*
D03*
Y1581550D02*
D03*
D50*
X526600Y1388850D02*
D03*
Y1395350D02*
D03*
Y1401850D02*
D03*
Y1408350D02*
D03*
X482600Y1388850D02*
D03*
Y1395350D02*
D03*
Y1401850D02*
D03*
Y1408350D02*
D03*
D51*
X1546000Y1650000D02*
D03*
Y1606000D02*
D03*
X944000Y2162000D02*
D03*
Y2118000D02*
D03*
X900000Y2150000D02*
D03*
Y2194000D02*
D03*
D52*
X813000Y1730000D02*
D03*
X857000D02*
D03*
D53*
X661000Y1358000D02*
X667750Y1351250D01*
X1059000Y1721500D02*
X1116500D01*
X994000Y1817500D02*
X1054000D01*
X891000Y1816500D02*
X913500D01*
X956500Y1531000D02*
X957750Y1529750D01*
X695000Y1337000D02*
Y1350000D01*
X694500Y1384500D02*
Y1395000D01*
X680750Y1370750D02*
X694500Y1384500D01*
X675000Y1370750D02*
X680750D01*
X635500Y1375500D02*
Y1395000D01*
Y1375500D02*
X640250Y1370750D01*
X647000D01*
X623500Y1345000D02*
X632000D01*
X638250Y1351250D01*
X647000D01*
X687250Y1357750D02*
X695000Y1350000D01*
X675000Y1357750D02*
X687250D01*
X616500Y1269500D02*
X619000Y1267000D01*
X596500Y1269500D02*
X616500D01*
X619000Y1267000D02*
X621500Y1264500D01*
X636500Y1249500D02*
X641500D01*
X636500Y1284500D02*
X641500D01*
X660750Y1357750D02*
X661000Y1358000D01*
X647000Y1357750D02*
X660750D01*
X667750Y1351250D02*
X675000D01*
X1035500Y1721500D02*
X1045000Y1731000D01*
X1246500Y1470500D02*
Y1481000D01*
X1238000Y1462000D02*
X1246500Y1470500D01*
X1238000Y1429000D02*
Y1462000D01*
X957000Y1632500D02*
Y1647000D01*
X1169000Y1427500D02*
X1171500D01*
X1120040Y1723460D02*
X1122000Y1721500D01*
X1118460Y1723460D02*
X1120040D01*
X1116500Y1721500D02*
X1118460Y1723460D01*
X1072500Y1801500D02*
X1073000Y1801000D01*
X977000Y1582000D02*
X981950Y1586950D01*
X980000Y1607000D02*
X985050Y1601950D01*
X957500Y1607000D02*
X980000D01*
X949000Y1596000D02*
X957500Y1604500D01*
X930000Y1596000D02*
X949000D01*
X920000Y1606000D02*
X930000Y1596000D01*
X994000Y1817500D02*
X994000Y1817500D01*
X969500Y1817500D02*
X994000D01*
X957500Y1632000D02*
X957550Y1631950D01*
X957000Y1632500D02*
X957500Y1632000D01*
Y1582000D02*
X977000D01*
X1045000Y1731000D02*
X1276000D01*
X1290000Y1717000D01*
X1006000Y1252500D02*
Y1264000D01*
X722200Y1190000D02*
X740000D01*
X660000D02*
X679800D01*
X664000Y1240500D02*
X682500D01*
X565000Y1258000D02*
Y1269500D01*
X957500Y1506000D02*
X958000Y1505500D01*
Y1494000D02*
Y1505500D01*
X957500Y1480000D02*
X958000Y1480500D01*
Y1494000D01*
X891500Y1829500D02*
X913500D01*
X891000Y1830000D02*
X891500Y1829500D01*
X913500Y1823000D02*
X924000D01*
X948000Y1569000D02*
X957500Y1578500D01*
Y1582000D01*
X1170500Y1822000D02*
X1202500D01*
X1054000Y1817500D02*
X1107500D01*
X1109000Y1819000D01*
Y1829000D01*
X1170000Y1943000D02*
Y1943350D01*
X934500Y1816500D02*
X955000D01*
X955500Y1817000D01*
X940000Y1807000D02*
X967000D01*
X935000Y1802000D02*
X940000Y1807000D01*
X973500Y1801500D02*
X1072500D01*
X968500Y1806500D02*
X973500Y1801500D01*
X968500Y1806500D02*
Y1817000D01*
X675000Y1364250D02*
X700500D01*
X1527750Y1581550D02*
X1620450D01*
X1647000Y1555000D01*
Y1530800D02*
Y1555000D01*
X1527750Y1568850D02*
X1583550D01*
X1527750Y1556150D02*
X1570850D01*
X1595600Y1378400D02*
X1647000D01*
X1561000Y1413000D02*
X1595600Y1378400D01*
X1576000Y1428000D02*
X1600200Y1403800D01*
X1647000D01*
X1608800Y1429200D02*
X1647000D01*
X1592000Y1446000D02*
X1608800Y1429200D01*
X1527750Y1492650D02*
X1538350D01*
X1547000Y1484000D01*
X1614400Y1454600D02*
X1647000D01*
X1606000Y1463000D02*
X1614400Y1454600D01*
X1621000Y1479000D02*
X1646000D01*
X1647000Y1480000D01*
X1583550Y1568850D02*
X1647000Y1505400D01*
X1527750Y1543450D02*
X1562550D01*
X1606000Y1500000D01*
Y1463000D02*
Y1500000D01*
X1527750Y1530750D02*
X1555250D01*
X1592000Y1494000D01*
Y1446000D02*
Y1494000D01*
X1527750Y1518050D02*
X1547950D01*
X1576000Y1490000D01*
Y1428000D02*
Y1490000D01*
X1527750Y1505350D02*
X1543650D01*
X1561000Y1488000D01*
Y1413000D02*
Y1488000D01*
X1617000Y1483000D02*
X1621000Y1479000D01*
X1617000Y1483000D02*
Y1510000D01*
X1570850Y1556150D02*
X1617000Y1510000D01*
X1547000Y1399000D02*
Y1484000D01*
Y1399000D02*
X1593000Y1353000D01*
X1647000D01*
X633250Y1357750D02*
X647000D01*
X675000Y1345000D02*
Y1351250D01*
X482600Y1395350D02*
X496650D01*
X924000Y1823000D02*
Y1836000D01*
X938500Y1632000D02*
Y1644500D01*
Y1607000D02*
X947000D01*
X947000Y1607000D01*
X938500Y1579500D02*
Y1582000D01*
X934000Y1575000D02*
X938500Y1579500D01*
X934000Y1569000D02*
Y1575000D01*
X956500Y1531000D02*
Y1534500D01*
X526500Y1215000D02*
Y1226500D01*
X621500Y1264500D02*
X630000Y1256000D01*
Y1278000D02*
X636500Y1284500D01*
X630000Y1256000D02*
X636500Y1249500D01*
X619000Y1267000D02*
X630000Y1278000D01*
X631500Y1289500D02*
Y1301500D01*
D54*
X896500Y1793000D02*
X898000Y1791500D01*
X713500Y1364250D02*
X731250D01*
X671200Y1597000D02*
X672200Y1598000D01*
X830000Y2116500D02*
X1024750D01*
X485000Y1940000D02*
X528000D01*
X318000Y2013000D02*
Y2014600D01*
X315450Y1580550D02*
X317300D01*
Y1557550D02*
X319750Y1560000D01*
X358000D01*
X391000Y1527000D01*
X741000D01*
X613000Y1418000D02*
X644000D01*
X602500Y1407500D02*
X613000Y1418000D01*
X599000Y1407500D02*
X602500D01*
X654500Y1395000D02*
Y1407500D01*
X644000Y1418000D02*
X654500Y1407500D01*
X702000Y1414000D02*
X727000D01*
X694500Y1406500D02*
X702000Y1414000D01*
X694500Y1395000D02*
Y1406500D01*
X1373000Y1479500D02*
X1373000Y1479500D01*
X1403000D01*
X1403550Y1479950D02*
X1434250D01*
X1207000Y2081500D02*
X1207000Y2081500D01*
X1265000Y2056000D02*
Y2081500D01*
X1265000Y2081500D02*
X1265000Y2081500D01*
X1323000Y2057000D02*
Y2081500D01*
X1094000Y2003000D02*
X1123210D01*
X1270000Y2025000D02*
X1284000Y2039000D01*
Y2056000D01*
X602600Y1579250D02*
X634950D01*
X573100Y1768400D02*
X573600Y1768900D01*
X554100Y1742400D02*
Y1768400D01*
X553600Y1741900D02*
X554100Y1742400D01*
X505000Y1779000D02*
Y1808900D01*
Y1779000D02*
X515600Y1768400D01*
X554100D01*
X637600Y1579100D02*
X670100D01*
X670600Y1578600D01*
X1253000Y2025000D02*
X1270000D01*
X1194000D02*
X1253000D01*
X1121000Y2098000D02*
X1194000Y2025000D01*
X1084500Y2041000D02*
Y2097500D01*
X1084000Y2098000D02*
X1084500Y2097500D01*
X1025250Y2098000D02*
X1084000D01*
X1121000D01*
X1345500Y1761000D02*
Y1783000D01*
X1345000Y1783500D02*
X1345500Y1783000D01*
Y1761000D02*
X1346150Y1760350D01*
X1378000D01*
X1373000Y1498500D02*
Y1518000D01*
X1345000Y1694000D02*
X1366000Y1673000D01*
X1250000Y1694000D02*
X1345000D01*
X1239500Y1683500D02*
X1250000Y1694000D01*
X1239500Y1662000D02*
Y1683500D01*
X1345000Y1802500D02*
X1359500D01*
X1366000Y1796000D01*
X774000Y2117000D02*
X798500D01*
X799000Y2116500D01*
X830000D01*
X830000Y2116500D01*
X1024750D02*
X1025250Y2117000D01*
X670600Y1597600D02*
X671200Y1597000D01*
X672200Y1598000D02*
X673200Y1597000D01*
X674200Y1598000D01*
X741000D01*
Y2012000D02*
X789500D01*
X790000Y2012500D01*
X818000D01*
X479600Y1676400D02*
Y1703600D01*
X498900Y1722900D01*
X553600D01*
X896500Y1801500D02*
X913500D01*
X891500Y1806500D02*
Y1816000D01*
X1592000Y1276000D02*
Y1302000D01*
Y1276000D02*
X1596500Y1271500D01*
Y1259000D02*
Y1271500D01*
X1397500Y1259000D02*
X1412000D01*
X891500Y1806500D02*
X896500Y1801500D01*
Y1793000D02*
Y1801500D01*
X499500Y1308900D02*
X500000Y1308400D01*
X499500Y1308900D02*
Y1333000D01*
X1372000Y1886000D02*
X1676100D01*
X1677000Y1886900D01*
X1702400D01*
X1294000Y1975000D02*
X1342000Y2023000D01*
X1294000Y1903000D02*
Y1975000D01*
X526600Y1388850D02*
X599000D01*
X1207000Y2054000D02*
Y2081500D01*
X1403000Y1480500D02*
X1403550Y1479950D01*
X1412250Y1467250D02*
X1434250D01*
X418600Y1357400D02*
Y1369100D01*
X455600Y1358400D02*
Y1370100D01*
X592000Y1345000D02*
X604500D01*
X570000Y1356000D02*
Y1369500D01*
X713500Y1323500D02*
Y1338000D01*
Y1381500D02*
Y1395000D01*
X622100Y1598100D02*
X637600D01*
X615950Y1591950D02*
X622100Y1598100D01*
X602600Y1591950D02*
X615950D01*
X584950D02*
X602600D01*
X695600Y1728600D02*
X728600D01*
X695000Y1827000D02*
X713500D01*
X485000Y2053000D02*
X523000D01*
X485000Y2179000D02*
X524000D01*
X709600Y1934600D02*
Y1947400D01*
X695400Y1961600D02*
X709600Y1947400D01*
X672100Y1961600D02*
X695400D01*
X672100Y2074600D02*
X677400D01*
X704400Y2047600D01*
X709600D01*
X710600Y2174600D02*
Y2200600D01*
X709600Y2201600D02*
X710600Y2200600D01*
X799000Y2127500D02*
Y2139000D01*
X830000Y2135500D02*
Y2148000D01*
X852500Y1796000D02*
X872500Y1816000D01*
X841000Y1796000D02*
X852500D01*
X885500Y1780500D02*
X897000D01*
X1195000Y1408500D02*
X1219000D01*
X1220000Y1409500D01*
X1222500D01*
X1230000Y1402000D01*
X1265500Y1481000D02*
X1272000D01*
X1280000Y1489000D01*
X1313000D01*
X1265500Y1531000D02*
X1313000D01*
X1265500Y1556000D02*
X1315000D01*
X1334000Y1580000D02*
Y1589500D01*
X1294000Y1600500D02*
X1311500D01*
X1265500Y1582000D02*
Y1583500D01*
X1274000Y1592000D01*
X1265500Y1506000D02*
X1265500Y1506000D01*
X1313000D01*
X1334000Y1652500D02*
Y1667000D01*
X1258500Y1662000D02*
X1277000D01*
X1403000Y1498500D02*
Y1512000D01*
X656500Y1393000D02*
X668000D01*
X654500Y1395000D02*
X656500Y1393000D01*
X1217000Y1821500D02*
X1217500Y1822000D01*
X1217000Y1812000D02*
Y1821500D01*
Y1776500D02*
Y1788000D01*
X1189000Y1765500D02*
Y1778000D01*
X1099500Y1740500D02*
X1122000D01*
X1059000D02*
X1099500D01*
X1033000D02*
X1059000D01*
X983500Y1723000D02*
X994000Y1733500D01*
X994000Y1836500D02*
Y1850000D01*
X1023000Y1828500D02*
Y1839000D01*
X1326500Y1745500D02*
Y1761000D01*
X1358650Y1747650D02*
X1378000D01*
X1356500Y1745500D02*
X1358650Y1747650D01*
X1350000Y1745500D02*
X1356500D01*
X1226000Y2056000D02*
Y2120000D01*
X1207000D02*
Y2168000D01*
X1284000Y2056000D02*
Y2076000D01*
X1289000Y2144000D02*
Y2152000D01*
X1273000Y2168000D02*
X1289000Y2152000D01*
X1322000Y2168000D02*
X1331000D01*
X1353000Y2146000D01*
X1342500Y2056000D02*
Y2075500D01*
X1342000Y2023000D02*
Y2057000D01*
X1412000Y1259000D02*
X1423000Y1270000D01*
X1490000Y1302000D02*
X1592000D01*
X1423000Y1270000D02*
X1458000D01*
X1490000Y1302000D01*
X1413000Y1280000D02*
X1423000Y1270000D01*
X1315000Y1280000D02*
X1413000D01*
X1307000Y1272000D02*
X1315000Y1280000D01*
X965500Y1252500D02*
X981000D01*
X1031000D02*
Y1266000D01*
X1171400Y1232000D02*
Y1271400D01*
X1229500Y1258000D02*
Y1271500D01*
X1230000Y1272000D01*
X1307000D01*
X1056000Y1252500D02*
Y1272000D01*
X1081000Y1252500D02*
Y1272000D01*
X1056000D02*
X1081000D01*
X1230000D01*
X736000Y1293000D02*
X741000Y1288000D01*
X1260000D01*
X1289000Y1317000D01*
X573600Y1768900D02*
X609500D01*
X901000Y1722000D02*
X935000D01*
X893000Y1730000D02*
X901000Y1722000D01*
X857000Y1730000D02*
X893000D01*
D55*
X679000Y1337000D02*
X695000D01*
X669000Y1327000D02*
X679000Y1337000D01*
X500500Y1215000D02*
Y1265500D01*
X500000Y1266000D02*
X500500Y1265500D01*
X531500Y1288500D02*
X564000D01*
X512500Y1333000D02*
X529000D01*
X535000Y1327000D01*
X669000D01*
X512500Y1320500D02*
Y1333000D01*
Y1320500D02*
X521000Y1312000D01*
Y1299000D02*
Y1312000D01*
Y1299000D02*
X531500Y1288500D01*
D56*
X562000Y1938600D02*
X609100D01*
X561600Y2178600D02*
X606100D01*
X343400Y1963800D02*
X405000D01*
X409800Y1968600D01*
X446600D01*
X439000Y2014000D02*
X446600Y2021600D01*
X344000Y2014000D02*
X439000D01*
X385000Y2072000D02*
X446600D01*
X378400Y2065400D02*
X385000Y2072000D01*
X446600D02*
Y2099000D01*
X343400Y2065400D02*
X378400D01*
X343400Y2014600D02*
X344000Y2014000D01*
X318000Y2065400D02*
X343400D01*
X446600Y2099000D02*
Y2118600D01*
Y2099000D02*
X447600Y2098000D01*
X681000D01*
X710500Y2068500D01*
X317300Y1557550D02*
Y1580550D01*
Y1662550D02*
Y1685550D01*
X304000Y1698850D02*
X317300Y1685550D01*
X304000Y1698850D02*
Y1747000D01*
X326000Y1769000D01*
X357000D01*
X396900Y1808900D01*
X454200D01*
X1003750Y2012250D02*
X1004000Y2012000D01*
X1003750Y2012250D02*
Y2067750D01*
X753500Y2098000D02*
X959000D01*
X923250Y1998750D02*
X979000Y1943000D01*
X923250Y1998750D02*
Y2068500D01*
X1119010Y2137910D02*
X1119100Y2138000D01*
X973500Y2067750D02*
Y2083500D01*
X959000Y2098000D02*
X973500Y2083500D01*
X1003750Y2067750D02*
X1025250Y2089250D01*
Y2098000D01*
X1076500Y2139000D02*
X1077500Y2138000D01*
X446600Y2118600D02*
Y2178600D01*
X454200Y1808900D02*
Y1823000D01*
X1077500Y2138000D02*
X1119100D01*
X1025250Y2098000D02*
Y2117000D01*
Y2139250D01*
X710500Y2068500D02*
X923250D01*
X482000Y1674000D02*
X694000D01*
X479600Y1676400D02*
X482000Y1674000D01*
X1055000Y1920000D02*
Y1943000D01*
Y1920000D02*
X1072000Y1903000D01*
X1055000Y1943000D02*
X1116000D01*
X1403000Y1903000D02*
X1414600Y1914600D01*
X979000Y1943000D02*
X1055000D01*
X1524250Y1230500D02*
X1603750D01*
X1324250D02*
X1365000D01*
X1403750D01*
X1617000Y1989000D02*
X1681000D01*
X1721000Y1949000D01*
Y1854700D02*
Y1949000D01*
X1702400Y1836100D02*
X1721000Y1854700D01*
X1677000Y1912300D02*
X1702400D01*
X1677000Y1836100D02*
Y1861500D01*
X1702400D01*
X1654500D02*
X1677000D01*
X1676700Y1912000D02*
X1677000Y1912300D01*
X1655000Y1912000D02*
X1676700D01*
X1072000Y1903000D02*
X1294000D01*
X1403000D01*
X1332200Y1927000D02*
Y1961000D01*
X1201000Y1943350D02*
X1215350D01*
X1233000Y1961000D01*
X1215350Y1943350D02*
X1216650D01*
X1233000Y1927000D01*
X1369000Y2039000D02*
X1388000Y2020000D01*
X1226000Y2120000D02*
X1340000D01*
X1388000Y2020000D02*
X1538000D01*
X1440000Y2069000D02*
X1440000Y2069000D01*
X1170000Y1943350D02*
X1201000D01*
X647000Y1794000D02*
X672500D01*
X647600Y1961600D02*
X672100D01*
X646400Y2074600D02*
X672100D01*
Y2201600D02*
X709600D01*
X1170000Y2138000D02*
X1188000Y2120000D01*
X1340000D02*
X1369000Y2091000D01*
Y2039000D02*
Y2091000D01*
X1188000Y2120000D02*
X1207000D01*
X1226000D01*
X1265000Y2168000D02*
X1273000D01*
X1332200Y1961000D02*
X1361200Y1990000D01*
X1559000D01*
X1638000Y2069000D01*
X1414600Y1914600D02*
X1431200Y1898000D01*
X1526000D01*
X1617000Y1989000D01*
X446600Y1938600D02*
Y1968600D01*
Y2021600D02*
Y2072000D01*
X1524250Y1185500D02*
X1547000D01*
X1565000D01*
X1583000D01*
X1603750D01*
X1324250D02*
X1348000D01*
X1365500D01*
X1383000D01*
X1403750D01*
X609100Y2178600D02*
X672100D01*
X609100Y2051600D02*
X672100D01*
X560600Y2052600D02*
X609100D01*
Y1938600D02*
X672100D01*
X609500Y1771000D02*
X672500D01*
D57*
X1004000Y2012000D02*
X1013000Y2003000D01*
X1094000D01*
D58*
X866000Y2187000D02*
X873000Y2194000D01*
X891000Y1816500D02*
X891500Y1816000D01*
X891000Y1816500D02*
Y1830000D01*
Y1835000D01*
X1091000Y2194000D02*
X1107000Y2210000D01*
X1132000D01*
X1142500Y2220500D01*
Y2224000D01*
X1155000Y2171000D02*
Y2172000D01*
Y2171000D02*
X1170000Y2156000D01*
Y2138000D02*
Y2156000D01*
X938500Y1506000D02*
Y1519000D01*
Y1531000D01*
Y1480000D02*
Y1493000D01*
Y1506000D01*
X986500Y1396500D02*
X1004000D01*
X1169000Y1397000D02*
Y1408500D01*
X1142500Y2224000D02*
X1153000D01*
X1155000Y2172000D02*
X1165000Y2182000D01*
Y2212000D01*
X1153000Y2224000D02*
X1165000Y2212000D01*
X1094000Y1984000D02*
X1113000D01*
X1122500Y2181500D02*
Y2198000D01*
X1111000Y2224000D02*
X1123500D01*
X1517000Y1259000D02*
X1531500D01*
X1316000D02*
X1331500D01*
X1120600Y1232000D02*
Y1254400D01*
X1146000Y1232000D02*
Y1254000D01*
X1158700Y1232000D02*
Y1253700D01*
X1004000Y1396500D02*
X1030000D01*
X1192500Y2096500D02*
X1207000D01*
X1250500D02*
X1265000D01*
X1309500D02*
X1323000D01*
X873000Y2194000D02*
X900000D01*
X1091000D01*
X701000Y1646000D02*
X804000D01*
X813000Y1730000D02*
X814000Y1729000D01*
Y1662000D02*
Y1729000D01*
X900000Y2150000D02*
Y2170000D01*
X944000Y2143000D02*
Y2160000D01*
X1546000Y1650000D02*
Y1673000D01*
D59*
X1142000Y2138000D02*
Y2172000D01*
X1142000Y2172000D02*
X1142000Y2172000D01*
X1142000Y2172000D02*
Y2197500D01*
X1141500Y2198000D02*
X1142000Y2197500D01*
D60*
X1440000Y2069000D02*
X1583000D01*
D61*
X442000Y1572000D02*
D03*
Y1546600D02*
D03*
X477600Y1572000D02*
D03*
Y1546600D02*
D03*
X1467000Y1798000D02*
D03*
Y1772600D02*
D03*
X1514000Y1798000D02*
D03*
Y1772600D02*
D03*
X761000Y1309000D02*
D03*
Y1334400D02*
D03*
Y1359800D02*
D03*
X701400Y1472000D02*
D03*
X676000D02*
D03*
X650600D02*
D03*
X625200D02*
D03*
X1336600Y1370000D02*
D03*
X1362000D02*
D03*
X1311200D02*
D03*
X1387400D02*
D03*
X1412800D02*
D03*
X777000Y1909200D02*
D03*
Y1934600D02*
D03*
Y1960000D02*
D03*
X1672400Y1530800D02*
D03*
Y1505400D02*
D03*
Y1429200D02*
D03*
Y1480000D02*
D03*
Y1454600D02*
D03*
Y1403800D02*
D03*
Y1378400D02*
D03*
Y1353000D02*
D03*
X1647000D02*
D03*
Y1378400D02*
D03*
Y1403800D02*
D03*
Y1454600D02*
D03*
Y1480000D02*
D03*
Y1429200D02*
D03*
Y1505400D02*
D03*
Y1530800D02*
D03*
D62*
X1000249Y2138999D02*
D03*
X1025250Y2139250D02*
D03*
X1051000Y2139000D02*
D03*
X1076500D02*
D03*
D63*
X923250Y2068500D02*
D03*
X949000Y2068000D02*
D03*
X973500Y2067750D02*
D03*
D64*
X1583000Y2069000D02*
D03*
X1638000D02*
D03*
D65*
X1677000Y1912300D02*
D03*
X1702400D02*
D03*
Y1886900D02*
D03*
X1677000D02*
D03*
Y1861500D02*
D03*
X1702400D02*
D03*
Y1836100D02*
D03*
X1677000D02*
D03*
Y1810700D02*
D03*
X1702400D02*
D03*
Y1785300D02*
D03*
X1677000D02*
D03*
Y1759900D02*
D03*
X1702400D02*
D03*
Y1734500D02*
D03*
X1677000D02*
D03*
Y1709100D02*
D03*
X1702400D02*
D03*
Y1683700D02*
D03*
X1677000D02*
D03*
X343400Y1836800D02*
D03*
X318000D02*
D03*
Y1862200D02*
D03*
X343400D02*
D03*
Y1887600D02*
D03*
X318000D02*
D03*
Y1913000D02*
D03*
X343400D02*
D03*
Y1938400D02*
D03*
X318000D02*
D03*
Y1963800D02*
D03*
X343400D02*
D03*
Y1989200D02*
D03*
X318000D02*
D03*
Y2014600D02*
D03*
X343400D02*
D03*
Y2040000D02*
D03*
X318000D02*
D03*
Y2065400D02*
D03*
X343400D02*
D03*
D66*
X348000Y2174000D02*
D03*
X1676000D02*
D03*
Y1247000D02*
D03*
X348000D02*
D03*
D67*
X317300Y1610050D02*
D03*
X349300Y1682800D02*
D03*
X349300Y1647800D02*
D03*
Y1507800D02*
D03*
Y1612800D02*
D03*
Y1577800D02*
D03*
Y1542800D02*
D03*
X317300Y1633050D02*
D03*
Y1685550D02*
D03*
Y1662550D02*
D03*
Y1528050D02*
D03*
Y1505050D02*
D03*
Y1557550D02*
D03*
Y1580550D02*
D03*
D68*
X1233000Y1961000D02*
D03*
Y1927000D02*
D03*
X1332200Y1961000D02*
D03*
Y1927000D02*
D03*
D69*
X837000Y1561000D02*
D03*
X815000Y1540000D02*
D03*
X802000Y1569000D02*
D03*
X731250Y1364250D02*
D03*
X741000Y1527000D02*
D03*
X753500Y2098000D02*
D03*
X727000Y1414000D02*
D03*
X1070000Y1705000D02*
D03*
X1003000D02*
D03*
X1086000Y1696000D02*
D03*
X1003000D02*
D03*
X1107400Y1696520D02*
D03*
X1115000Y1691000D02*
D03*
X1228900Y1549000D02*
D03*
X1234000Y1557000D02*
D03*
X1229000Y1566000D02*
D03*
X1234000Y1575000D02*
D03*
X1285000Y1473000D02*
D03*
X1277000Y1468000D02*
D03*
X1261000Y1456000D02*
D03*
X1270000Y1461000D02*
D03*
X1238000Y1429000D02*
D03*
X890000Y1643000D02*
D03*
X883000Y1651000D02*
D03*
X910000Y1646000D02*
D03*
X957000Y1647000D02*
D03*
X926000Y1244000D02*
D03*
Y1233500D02*
D03*
Y1262000D02*
D03*
X1016000Y1721000D02*
D03*
Y1791000D02*
D03*
X1073000Y1800000D02*
D03*
X1081000Y1722000D02*
D03*
X962000Y1391000D02*
D03*
X935000Y1802000D02*
D03*
X1729540Y1695000D02*
D03*
X1709000Y1611000D02*
D03*
X1130000Y1690000D02*
D03*
X1138000Y1701000D02*
D03*
X608000Y1256000D02*
D03*
Y1278000D02*
D03*
X1228364Y1297636D02*
D03*
X1208000Y1454000D02*
D03*
X1217000D02*
D03*
X586000Y1275000D02*
D03*
X736000Y1293000D02*
D03*
X1373000Y1518000D02*
D03*
X1366000Y1673000D02*
D03*
Y1796000D02*
D03*
X774000Y2117000D02*
D03*
X913500Y1801500D02*
D03*
X969000Y1549000D02*
D03*
X1260000Y1600000D02*
D03*
X1290000Y1717000D02*
D03*
X1267000D02*
D03*
X1225000Y1739000D02*
D03*
X1230000Y1614000D02*
D03*
X1240000Y1610000D02*
D03*
X1232000Y1746000D02*
D03*
X1251000Y1614000D02*
D03*
X1242000Y1752000D02*
D03*
X1232000Y1522000D02*
D03*
X882000Y1661000D02*
D03*
X858000Y1692000D02*
D03*
X868000Y1689000D02*
D03*
X854000Y1702000D02*
D03*
X852000Y1428000D02*
D03*
X741000Y1598000D02*
D03*
X850000Y1440000D02*
D03*
X872000Y1771000D02*
D03*
X863000Y1763000D02*
D03*
X864000Y1867000D02*
D03*
X854000Y1855000D02*
D03*
X754000Y1418000D02*
D03*
X979000Y1421000D02*
D03*
X972000Y1414000D02*
D03*
X1072450Y1448450D02*
D03*
X986000Y1428000D02*
D03*
X1122400Y1477600D02*
D03*
X966000Y1407000D02*
D03*
X1067000Y1433000D02*
D03*
X776000Y2156000D02*
D03*
X754000Y1738000D02*
D03*
X761000Y1403000D02*
D03*
X752000Y1915000D02*
D03*
X769000Y1421000D02*
D03*
X752000Y1997000D02*
D03*
X779000Y1393000D02*
D03*
X741000Y2012000D02*
D03*
X710500Y2068500D02*
D03*
X694000Y1674000D02*
D03*
X1006000Y1264000D02*
D03*
X740000Y1190000D02*
D03*
X660000D02*
D03*
X682500Y1240500D02*
D03*
X565000Y1258000D02*
D03*
X958000Y1494000D02*
D03*
X866000Y2187000D02*
D03*
X891000Y1835000D02*
D03*
X842000Y1445000D02*
D03*
X846000Y1707000D02*
D03*
X920000Y1606000D02*
D03*
X895000Y1619000D02*
D03*
X903000Y1613000D02*
D03*
X895000Y1388000D02*
D03*
X903000Y1395000D02*
D03*
X847000Y1382000D02*
D03*
X855000Y1375000D02*
D03*
X983000Y1564000D02*
D03*
X948000Y1569000D02*
D03*
X921000Y1534000D02*
D03*
X1215000Y1226000D02*
D03*
X1205000Y1216000D02*
D03*
X929000Y1393000D02*
D03*
X837000Y1609000D02*
D03*
X1255000Y1445000D02*
D03*
X1261000Y1420000D02*
D03*
X1267500Y1230500D02*
D03*
X1592000Y1302000D02*
D03*
X791000Y1297636D02*
D03*
X741000Y1305000D02*
D03*
X1289000Y1317000D02*
D03*
X844000Y1846000D02*
D03*
X858000Y1754000D02*
D03*
X712000Y1443000D02*
D03*
X669000Y1440000D02*
D03*
X673000Y1428000D02*
D03*
X632000D02*
D03*
X1401000Y1429000D02*
D03*
X1376000Y1442000D02*
D03*
X1379000Y1429000D02*
D03*
X1353000Y1442000D02*
D03*
Y1455000D02*
D03*
X1328000Y1454000D02*
D03*
X1372000Y1886000D02*
D03*
X1654500Y1861500D02*
D03*
X1655000Y1912000D02*
D03*
X1630000Y1866000D02*
D03*
X1621000Y1860000D02*
D03*
X1611000Y1855000D02*
D03*
X1640000Y1872000D02*
D03*
X830000Y1495000D02*
D03*
X820000Y1765000D02*
D03*
X823000Y1483000D02*
D03*
X809000Y1790000D02*
D03*
X911000Y1436000D02*
D03*
Y1466000D02*
D03*
X785000Y1448000D02*
D03*
X793000Y1931000D02*
D03*
X791000Y2047000D02*
D03*
X884000D02*
D03*
X795000Y1448000D02*
D03*
X804000Y1896000D02*
D03*
X826000Y1940000D02*
D03*
X836000Y2047000D02*
D03*
X896000Y2056000D02*
D03*
X1538000Y2020000D02*
D03*
X1412250Y1467250D02*
D03*
X661000Y1367000D02*
D03*
Y1355000D02*
D03*
X633250Y1357750D02*
D03*
X675000Y1345000D02*
D03*
X496650Y1395350D02*
D03*
X418600Y1357400D02*
D03*
X455600Y1358400D02*
D03*
X592000Y1345000D02*
D03*
X570000Y1356000D02*
D03*
X713500Y1323500D02*
D03*
Y1381500D02*
D03*
X606000Y1301000D02*
D03*
X584950Y1591950D02*
D03*
X695600Y1728600D02*
D03*
X695000Y1827000D02*
D03*
X647000Y1794000D02*
D03*
X647600Y1961600D02*
D03*
X646400Y2074600D02*
D03*
X709600Y2201600D02*
D03*
X799000Y2139000D02*
D03*
X830000Y2148000D02*
D03*
X841000Y1796000D02*
D03*
X885500Y1780500D02*
D03*
X924000Y1823000D02*
D03*
Y1836000D02*
D03*
X938500Y1644500D02*
D03*
X947000Y1607000D02*
D03*
X934000Y1569000D02*
D03*
X938500Y1519000D02*
D03*
Y1493000D02*
D03*
X986500Y1396500D02*
D03*
X1169000Y1397000D02*
D03*
X1238000Y1414000D02*
D03*
X1230000Y1402000D02*
D03*
X1274000Y1592000D02*
D03*
X1311500Y1600500D02*
D03*
X1315000Y1556000D02*
D03*
X1313000Y1531000D02*
D03*
X1313000Y1489000D02*
D03*
Y1506000D02*
D03*
X1334000Y1580000D02*
D03*
Y1667000D02*
D03*
X1277000Y1662000D02*
D03*
X1403000Y1512000D02*
D03*
X668000Y1393000D02*
D03*
X590000Y1294000D02*
D03*
X664000Y1280000D02*
D03*
X526500Y1226500D02*
D03*
X630000Y1278000D02*
D03*
Y1256000D02*
D03*
X631500Y1301500D02*
D03*
X1217000Y1812000D02*
D03*
Y1788000D02*
D03*
X1189000Y1778000D02*
D03*
X1099500Y1740500D02*
D03*
X983500Y1723000D02*
D03*
X994000Y1850000D02*
D03*
X1023000Y1839000D02*
D03*
X1326500Y1745500D02*
D03*
X1350000D02*
D03*
X1353000Y2146000D02*
D03*
X1284000Y2076000D02*
D03*
X1289000Y2144000D02*
D03*
X1342500Y2075500D02*
D03*
X1203000Y2230000D02*
D03*
X1214857Y2222000D02*
D03*
X1340000D02*
D03*
X1235714D02*
D03*
X1256571D02*
D03*
X1277429D02*
D03*
X1298286D02*
D03*
X1309667Y2230000D02*
D03*
X1319143Y2222000D02*
D03*
X1267000Y2230000D02*
D03*
X1245667D02*
D03*
X1331000D02*
D03*
X1224333D02*
D03*
X1288333D02*
D03*
X1194000Y2222000D02*
D03*
X1483000Y1958000D02*
D03*
X1496000D02*
D03*
X1509000D02*
D03*
X1489500Y1947750D02*
D03*
X1502500D02*
D03*
X1483000Y1937500D02*
D03*
X1509000D02*
D03*
X1489500Y1927250D02*
D03*
X1502500D02*
D03*
X1483000Y1917000D02*
D03*
X1496000D02*
D03*
X1509000D02*
D03*
X1496000Y1937500D02*
D03*
X1130000Y1988000D02*
D03*
X1113000Y1984000D02*
D03*
X1111000Y2224000D02*
D03*
X1122500Y2181500D02*
D03*
X1565000Y1185500D02*
D03*
X1547000D02*
D03*
X1583000D02*
D03*
X1517000Y1259000D02*
D03*
X1365500Y1185500D02*
D03*
X1348000D02*
D03*
X1383000D02*
D03*
X1316000Y1259000D02*
D03*
X1056000Y1272000D02*
D03*
X965500Y1252500D02*
D03*
X1031000Y1266000D02*
D03*
X1120600Y1254400D02*
D03*
X1146000Y1254000D02*
D03*
X1158700Y1253700D02*
D03*
X1067400Y1480600D02*
D03*
X1109000Y1482000D02*
D03*
X1150000Y1475000D02*
D03*
X1198000Y1515000D02*
D03*
Y1532000D02*
D03*
Y1547000D02*
D03*
Y1577000D02*
D03*
Y1635000D02*
D03*
X1117400Y1661400D02*
D03*
X1045000Y1661000D02*
D03*
X1010950Y1626950D02*
D03*
X1012000Y1594000D02*
D03*
X1014000Y1527000D02*
D03*
Y1512000D02*
D03*
X993500Y1472500D02*
D03*
X918000Y1270000D02*
D03*
X926000Y1278000D02*
D03*
X1222000Y1308000D02*
D03*
X1045000Y1447000D02*
D03*
X1192500Y2096500D02*
D03*
X1250500D02*
D03*
X1309500D02*
D03*
X822000Y1469000D02*
D03*
X816000Y1505000D02*
D03*
X974000Y1469000D02*
D03*
X977000Y1496000D02*
D03*
X935000Y1722000D02*
D03*
X804000Y1646000D02*
D03*
X814000Y1662000D02*
D03*
X701000Y1646000D02*
D03*
X900000Y2170000D02*
D03*
X944000Y2143000D02*
D03*
X1546000Y1673000D02*
D03*
D70*
X1253000Y2025000D02*
D03*
X446600Y2021600D02*
D03*
Y1968600D02*
D03*
X591600Y2178600D02*
D03*
Y2052600D02*
D03*
Y1938600D02*
D03*
X1116000Y2047000D02*
D03*
X1130000Y2065000D02*
D03*
M02*
