M48
;Layer_Color=9474304
;FILE_FORMAT=4:4
METRIC,LZ
;TYPE=PLATED
T1F00S00C0.2000
T2F00S00C0.4000
T3F00S00C0.7620
T4F00S00C1.1000
T5F00S00C1.1430
T6F00S00C1.2000
T7F00S00C1.3000
T8F00S00C1.4800
T9F00S00C1.7000
T10F00S00C1.8000
T11F00S00C2.5400
T12F00S00C3.0000
T13F00S00C4.5000
%
T01
X004466Y019686
X005916Y019386
X01253Y02025
X01116Y02047
X0113Y02065
X005916Y020526
Y021786
X004466Y020216
T02
X0066Y0119
X0074
X01348Y011855
X013655
X01383
X01547
X01565
X01583
X01592Y01302
X01517Y01259
X01316
X012675Y012305
X01215Y01226
X01205Y01216
X01228364Y01297636
X01222Y01308
X01289Y01317
X01261Y0142
X01238Y01414
Y01429
X01255Y01445
X01261Y01456
X0127Y01461
X01277Y01468
X01285Y01473
X01313Y01489
Y01506
X01313Y01531
X01315Y01556
X01334Y0158
X01373Y01518
X01403Y01512
X0141225Y0146725
X01401Y01429
X01379
X01376Y01442
X01353
Y01455
X01328Y01454
X01217
X01208
X01198Y01515
Y01532
Y01547
Y01577
X01234Y01575
X01229Y01566
X01234Y01557
X012289Y01549
X01232Y01522
X0123Y01402
X01169Y01397
X0115Y01475
X011224Y014776
X01109Y01482
X010674Y014806
X0107245Y0144845
X01067Y01433
X01045Y01447
X009935Y014725
X00974Y01469
X00977Y01496
X00958Y01494
X009385Y01493
Y01519
X00921Y01534
X00934Y01569
X00948
X00983Y01564
X00969Y01549
X01014Y01527
Y01512
X00986Y01428
X00979Y01421
X00972Y01414
X00966Y01407
X00962Y01391
X009865Y013965
X00929Y01393
X00903Y01395
X00895Y01388
X00855Y01375
X00847Y01382
X00852Y01428
X0085Y0144
X00842Y01445
X00822Y01469
X00823Y01483
X0083Y01495
X00816Y01505
X00815Y0154
X00802Y01569
X00837Y01561
X00795Y01448
X00911Y01436
Y01466
X00918Y0127
X00926Y01262
Y01278
Y01244
Y012335
X009655Y012525
X01006Y01264
X01031Y01266
X01056Y01272
X011206Y012544
X01146Y01254
X011587Y012537
X00791Y01297636
X00741Y01305
X00736Y01293
X007135Y013235
Y013815
X0073125Y0136425
X00727Y01414
X00754Y01418
X00769Y01421
X00761Y01403
X00779Y01393
X00785Y01448
X00712Y01443
X00669Y0144
X00673Y01428
X00668Y01393
X00661Y01367
Y01355
X00675Y01345
X0063325Y0135775
X00592Y01345
X0057Y01356
X0059Y01294
X00586Y01275
X00608Y01278
Y01256
X0063
Y01278
X006315Y013015
X00606Y01301
X00664Y0128
X006825Y012405
X00565Y01258
X005265Y012265
X0049665Y0139535
X004556Y013584
X004186Y013574
X00632Y01428
X00741Y01527
Y01598
X00701Y01646
X00694Y01674
X006956Y017286
X00754Y01738
X00695Y01827
X00647Y01794
X006476Y019616
X00752Y01915
X00793Y01931
X0058495Y0159195
X00837Y01609
X00895Y01619
X00903Y01613
X0092Y01606
X00947Y01607
X009385Y016445
X00957Y01647
X0091Y01646
X0089Y01643
X00883Y01651
X00882Y01661
X00868Y01689
X00858Y01692
X00854Y01702
X00846Y01707
X00858Y01754
X00863Y01763
X00872Y01771
X008855Y017805
X009135Y018015
X00935Y01802
X00924Y01823
Y01836
X00891Y01835
X00854Y01855
X00844Y01846
X00864Y01867
X00804Y01896
X00826Y0194
X00841Y01796
X00809Y0179
X0082Y01765
X00814Y01662
X00804Y01646
X00935Y01722
X009835Y01723
X01016Y01721
X01003Y01705
Y01696
X0107Y01705
X01086Y01696
X011074Y0169652
X01115Y01691
X0113Y0169
X01138Y01701
X011174Y016614
X01045Y01661
X0101095Y0162695
X01012Y01594
X01081Y01722
X010995Y017405
X01073Y018
X01016Y01791
X01023Y01839
X00994Y0185
X01113Y01984
X01189Y01778
X01217Y01788
Y01812
X01225Y01739
X01232Y01746
X01242Y01752
X01267Y01717
X0129
X013265Y017455
X0135
X01366Y01796
X01372Y01886
X01483Y01917
X01496
X01509
X015025Y0192725
X014895
X01483Y019375
X01496
X01509
X015025Y0194775
X014895
X01483Y01958
X01496
X01509
X01546Y01673
X01366
X01334Y01667
X01277Y01662
X01274Y01592
X0126Y016
X01251Y01614
X0124Y0161
X0123Y01614
X01198Y01635
X013115Y016005
X01709Y01611
X0172954Y01695
X016545Y018615
X0164Y01872
X0163Y01866
X01621Y0186
X01611Y01855
X01655Y01912
X01538Y0202
X013425Y020755
X013095Y020965
X01284Y02076
X012505Y020965
X011925
X01194Y02222
X01203Y0223
X01214857Y02222
X01224333Y0223
X01235714Y02222
X01245667Y0223
X01256571Y02222
X01267Y0223
X01277429Y02222
X01288333Y0223
X01298286Y02222
X01309667Y0223
X01319143Y02222
X01331Y0223
X0134Y02222
X01353Y02146
X01289Y02144
X011225Y021815
X01111Y02224
X00944Y02143
X009Y0217
X00866Y02187
X0083Y02148
X00799Y02139
X00836Y02047
X00884
X00896Y02056
X0113Y01988
X00752Y01997
X00741Y02012
X00791Y02047
X00774Y02117
X007535Y02098
X007105Y020685
X006464Y020746
X007096Y022016
X00776Y02156
T03
X01000249Y02138999
X0102525Y0213925
X01051Y02139
X010765
T04
X01647Y01353
X016724
Y013784
Y014038
Y014292
Y014546
Y0148
Y015054
Y015308
X01647
Y015054
Y0148
Y014546
Y014292
Y014038
Y013784
X014128Y0137
X013874
X01362
X013366
X013112
X00761Y013598
Y013344
Y01309
X007014Y01472
X00676
X006506
X006252
X004776Y015466
Y01572
X00442Y01572
Y015466
X00777Y019092
Y019346
Y0196
X01467Y01798
Y017726
X01514
Y01798
T05
X0092325Y020685
X00949Y02068
X009735Y0206775
T06
X003434Y018368
Y018622
Y018876
Y01913
Y019384
Y019638
X01677Y019123
Y018869
Y018615
Y018361
Y018107
Y017853
Y017599
Y017345
Y017091
Y016837
X003434Y019892
Y020146
Y0204
Y020654
T07
X00318Y018368
Y018622
Y018876
Y01913
Y019384
Y019638
X017024Y019123
Y018869
Y018615
Y018361
Y018107
Y017853
Y017599
Y017345
Y017091
Y016837
X00318Y019892
Y020146
Y0204
Y020654
T08
X003173Y0150505
Y0152805
Y0155755
Y0158055
X003493Y015778
Y015428
Y015078
Y016128
X003173Y0161005
Y0163305
Y0166255
Y0168555
X003493Y016828
X003493Y016478
T09
X01233Y01927
Y01961
X013322
Y01927
T10
X01638Y02069
X01583
T11
X0033Y014556
Y01735
X003307Y018114
X016897Y019377
Y016583
X003307Y020908
T12
X01711Y02069
T13
X01676Y01247
X00348
X01676Y02174
X00348
M30
