G04 Layer_Physical_Order=2*
G04 Layer_Color=16711680*
%FSLAX44Y44*%
%MOMM*%
G71*
G01*
G75*
%ADD10C,0.2000*%
%ADD53C,0.3000*%
%ADD54C,0.5000*%
%ADD56C,1.0000*%
%ADD58C,0.7000*%
%ADD61C,1.6000*%
%ADD62C,1.5240*%
%ADD63C,1.7780*%
%ADD64C,2.2000*%
%ADD65C,1.9000*%
%ADD66C,7.0000*%
%ADD67C,2.1000*%
%ADD68C,2.0000*%
%ADD69C,0.6000*%
%ADD70C,0.4500*%
G36*
X704000Y1291000D02*
Y1172190D01*
X685400Y1153590D01*
X441000D01*
X422000Y1172590D01*
X421911Y1290500D01*
X422410Y1291000D01*
X441000Y1309590D01*
X685410D01*
X704000Y1291000D01*
D02*
G37*
G36*
X1755000Y1150000D02*
X687317D01*
X687172Y1150207D01*
X687231Y1151758D01*
X705831Y1170359D01*
X706393Y1171199D01*
X706590Y1172190D01*
Y1291000D01*
X706393Y1291991D01*
X705831Y1292831D01*
X687242Y1311421D01*
X686401Y1311982D01*
X685410Y1312180D01*
X441000D01*
X440009Y1311982D01*
X439169Y1311421D01*
X420579Y1292831D01*
X420579Y1292831D01*
X420578Y1292831D01*
X420079Y1292330D01*
X420078Y1292330D01*
X420078Y1292330D01*
X419784Y1291889D01*
X419518Y1291490D01*
X419518Y1291490D01*
X419517Y1291489D01*
X419418Y1290990D01*
X419321Y1290499D01*
X419321Y1290499D01*
X419321Y1290498D01*
X419410Y1172588D01*
X419507Y1172101D01*
X419607Y1171599D01*
X419608Y1171598D01*
X419608Y1171597D01*
X419883Y1171187D01*
X420169Y1170759D01*
X439169Y1151758D01*
X439228Y1150207D01*
X439083Y1150000D01*
X255000D01*
Y2250000D01*
X1755000D01*
Y1150000D01*
D02*
G37*
%LPC*%
G36*
X606000Y1306649D02*
X603838Y1306219D01*
X602006Y1304994D01*
X601749Y1304609D01*
X585000D01*
X583619Y1304335D01*
X582448Y1303552D01*
X576448Y1297552D01*
X575665Y1296381D01*
X575391Y1295000D01*
Y1282000D01*
X575665Y1280619D01*
X576448Y1279448D01*
X580442Y1275454D01*
X580351Y1275000D01*
X580781Y1272838D01*
X582006Y1271006D01*
X583838Y1269781D01*
X586000Y1269352D01*
X588162Y1269781D01*
X589994Y1271006D01*
X591219Y1272838D01*
X591648Y1275000D01*
X591219Y1277162D01*
X589994Y1278994D01*
X588162Y1280219D01*
X586000Y1280648D01*
X585546Y1280558D01*
X582609Y1283495D01*
Y1292965D01*
X583224Y1293431D01*
X584568Y1292909D01*
X584781Y1291838D01*
X586006Y1290006D01*
X587838Y1288781D01*
X590000Y1288351D01*
X592162Y1288781D01*
X593994Y1290006D01*
X594251Y1290391D01*
X652505D01*
X659564Y1283332D01*
X658781Y1282162D01*
X658352Y1280000D01*
X658781Y1277838D01*
X660006Y1276006D01*
X661838Y1274781D01*
X664000Y1274352D01*
X666162Y1274781D01*
X667994Y1276006D01*
X669219Y1277838D01*
X669649Y1280000D01*
X669219Y1282162D01*
X667994Y1283994D01*
X667552Y1284290D01*
X667335Y1285381D01*
X666552Y1286552D01*
X656552Y1296552D01*
X655381Y1297335D01*
X654000Y1297609D01*
X611891D01*
X611196Y1298652D01*
X611227Y1298879D01*
X611648Y1301000D01*
X611219Y1303162D01*
X609994Y1304994D01*
X608162Y1306219D01*
X606000Y1306649D01*
D02*
G37*
G36*
X1682864Y1478730D02*
X1673670D01*
Y1469536D01*
X1675152Y1469731D01*
X1677715Y1470793D01*
X1679917Y1472483D01*
X1681607Y1474685D01*
X1682669Y1477249D01*
X1682864Y1478730D01*
D02*
G37*
G36*
X1671130D02*
X1661936D01*
X1662131Y1477249D01*
X1663193Y1474685D01*
X1664883Y1472483D01*
X1667085Y1470793D01*
X1669648Y1469731D01*
X1671130Y1469536D01*
Y1478730D01*
D02*
G37*
G36*
X1647000Y1490631D02*
X1644249Y1490269D01*
X1641685Y1489207D01*
X1639483Y1487517D01*
X1637793Y1485316D01*
X1636731Y1482751D01*
X1636369Y1480000D01*
X1636731Y1477249D01*
X1637793Y1474685D01*
X1639483Y1472483D01*
X1641685Y1470793D01*
X1644249Y1469731D01*
X1647000Y1469369D01*
X1649751Y1469731D01*
X1652316Y1470793D01*
X1654517Y1472483D01*
X1656207Y1474685D01*
X1657269Y1477249D01*
X1657631Y1480000D01*
X1657269Y1482751D01*
X1656207Y1485316D01*
X1654517Y1487517D01*
X1652316Y1489207D01*
X1649751Y1490269D01*
X1647000Y1490631D01*
D02*
G37*
G36*
X623930Y1482464D02*
X622449Y1482269D01*
X619884Y1481207D01*
X617683Y1479517D01*
X615993Y1477316D01*
X614931Y1474751D01*
X614736Y1473270D01*
X623930D01*
Y1482464D01*
D02*
G37*
G36*
X1673670Y1490464D02*
Y1481270D01*
X1682864D01*
X1682669Y1482751D01*
X1681607Y1485316D01*
X1679917Y1487517D01*
X1677715Y1489207D01*
X1675152Y1490269D01*
X1673670Y1490464D01*
D02*
G37*
G36*
X1671130Y1490464D02*
X1669648Y1490269D01*
X1667085Y1489207D01*
X1664883Y1487517D01*
X1663193Y1485316D01*
X1662131Y1482751D01*
X1661936Y1481270D01*
X1671130D01*
Y1490464D01*
D02*
G37*
G36*
X626470Y1482464D02*
Y1473270D01*
X635664D01*
X635469Y1474751D01*
X634407Y1477316D01*
X632717Y1479517D01*
X630516Y1481207D01*
X627952Y1482269D01*
X626470Y1482464D01*
D02*
G37*
G36*
X1372000Y1891649D02*
X1369838Y1891219D01*
X1368006Y1889994D01*
X1366781Y1888162D01*
X1366753Y1888021D01*
X1362366Y1883634D01*
X1361252Y1881967D01*
X1360861Y1880000D01*
Y1798281D01*
X1360782Y1798162D01*
X1360352Y1796000D01*
X1360782Y1793838D01*
X1360861Y1793719D01*
Y1675281D01*
X1360782Y1675162D01*
X1360352Y1673000D01*
X1360782Y1670838D01*
X1362006Y1669006D01*
X1363838Y1667781D01*
X1363979Y1667753D01*
X1367861Y1663871D01*
Y1520281D01*
X1367781Y1520162D01*
X1367753Y1520021D01*
X1311733Y1464000D01*
X1305934D01*
X1304974Y1465270D01*
X1305119Y1466000D01*
Y1668000D01*
X1304806Y1669576D01*
X1303913Y1670913D01*
X1294119Y1680706D01*
Y1713193D01*
X1295219Y1714838D01*
X1295648Y1717000D01*
X1295219Y1719162D01*
X1293994Y1720994D01*
X1292162Y1722219D01*
X1290000Y1722648D01*
X1287838Y1722219D01*
X1286006Y1720994D01*
X1284781Y1719162D01*
X1284352Y1717000D01*
X1284781Y1714838D01*
X1285881Y1713193D01*
Y1679000D01*
X1286194Y1677424D01*
X1287087Y1676087D01*
X1296881Y1666294D01*
Y1580219D01*
X1236162D01*
X1234000Y1580648D01*
X1231838Y1580219D01*
X1230006Y1578994D01*
X1228781Y1577162D01*
X1228352Y1575000D01*
X1228781Y1572838D01*
X1228161Y1571482D01*
X1226838Y1571219D01*
X1225006Y1569994D01*
X1223781Y1568162D01*
X1223352Y1566000D01*
X1223781Y1563838D01*
X1225006Y1562006D01*
X1226838Y1560781D01*
X1228161Y1560518D01*
X1228781Y1559162D01*
X1228352Y1557000D01*
X1228593Y1555784D01*
X1228781Y1554838D01*
X1227672Y1554404D01*
X1226738Y1554219D01*
X1224906Y1552994D01*
X1223681Y1551162D01*
X1223251Y1549000D01*
X1223681Y1546838D01*
X1224906Y1545006D01*
X1226738Y1543781D01*
X1228900Y1543351D01*
X1230018Y1543574D01*
X1231000Y1542768D01*
Y1532000D01*
X1230000Y1531000D01*
X1232194Y1528806D01*
X1231629Y1527575D01*
X1229838Y1527219D01*
X1228006Y1525994D01*
X1226781Y1524162D01*
X1226351Y1522000D01*
X1226781Y1519838D01*
X1228006Y1518006D01*
X1229838Y1516781D01*
X1232000Y1516351D01*
X1232454Y1516442D01*
X1248391Y1500505D01*
Y1448000D01*
X1248665Y1446619D01*
X1249442Y1445456D01*
X1249352Y1445000D01*
X1249781Y1442838D01*
X1251006Y1441006D01*
X1252838Y1439781D01*
X1254561Y1439439D01*
X1259707Y1434292D01*
X1259221Y1433119D01*
X1241807D01*
X1240162Y1434219D01*
X1238000Y1434648D01*
X1235838Y1434219D01*
X1234006Y1432994D01*
X1232781Y1431162D01*
X1232352Y1429000D01*
X1232781Y1426838D01*
X1233881Y1425193D01*
Y1417807D01*
X1232781Y1416162D01*
X1232352Y1414000D01*
X1232781Y1411838D01*
X1234006Y1410006D01*
X1235838Y1408781D01*
X1238000Y1408351D01*
X1240162Y1408781D01*
X1241994Y1410006D01*
X1243219Y1411838D01*
X1243649Y1414000D01*
X1243219Y1416162D01*
X1242119Y1417807D01*
Y1424881D01*
X1256221D01*
X1256750Y1423611D01*
X1255781Y1422162D01*
X1255351Y1420000D01*
X1255781Y1417838D01*
X1257006Y1416006D01*
X1257391Y1415749D01*
Y1234000D01*
X1257665Y1232619D01*
X1258448Y1231448D01*
X1261948Y1227948D01*
X1263022Y1227230D01*
X1263506Y1226506D01*
X1265338Y1225281D01*
X1267500Y1224852D01*
X1269662Y1225281D01*
X1271494Y1226506D01*
X1272719Y1228338D01*
X1273148Y1230500D01*
X1272719Y1232662D01*
X1271494Y1234494D01*
X1269662Y1235719D01*
X1267500Y1236149D01*
X1265879Y1235826D01*
X1264758Y1236547D01*
X1264609Y1236759D01*
Y1415749D01*
X1264994Y1416006D01*
X1266218Y1417838D01*
X1266648Y1420000D01*
X1266218Y1422162D01*
X1265348Y1423465D01*
X1265168Y1424280D01*
X1265654Y1425081D01*
X1266413Y1425587D01*
X1275825Y1435000D01*
X1283059D01*
X1283865Y1434018D01*
X1283861Y1434000D01*
Y1319281D01*
X1283781Y1319162D01*
X1283351Y1317000D01*
X1283781Y1314838D01*
X1285006Y1313006D01*
X1286838Y1311781D01*
X1289000Y1311351D01*
X1291162Y1311781D01*
X1292994Y1313006D01*
X1294218Y1314838D01*
X1294648Y1317000D01*
X1294218Y1319162D01*
X1294139Y1319281D01*
Y1431871D01*
X1375021Y1512753D01*
X1375162Y1512782D01*
X1376994Y1514006D01*
X1378219Y1515838D01*
X1378649Y1518000D01*
X1378219Y1520162D01*
X1378139Y1520281D01*
Y1666000D01*
X1377748Y1667966D01*
X1376634Y1669634D01*
X1371247Y1675021D01*
X1371219Y1675162D01*
X1371139Y1675281D01*
Y1793719D01*
X1371219Y1793838D01*
X1371649Y1796000D01*
X1371219Y1798162D01*
X1371139Y1798281D01*
Y1877872D01*
X1374021Y1880753D01*
X1374162Y1880782D01*
X1375994Y1882006D01*
X1377219Y1883838D01*
X1377648Y1886000D01*
X1377219Y1888162D01*
X1375994Y1889994D01*
X1374162Y1891219D01*
X1372000Y1891649D01*
D02*
G37*
G36*
X1217000Y1459648D02*
X1214838Y1459218D01*
X1213006Y1457994D01*
X1211994D01*
X1210162Y1459218D01*
X1208000Y1459648D01*
X1205838Y1459218D01*
X1204006Y1457994D01*
X1202781Y1456162D01*
X1202352Y1454000D01*
X1202781Y1451838D01*
X1204006Y1450006D01*
X1204391Y1449749D01*
Y1379272D01*
X1204665Y1377891D01*
X1205448Y1376720D01*
X1227391Y1354777D01*
Y1318495D01*
X1222454Y1313558D01*
X1222000Y1313649D01*
X1219838Y1313219D01*
X1218006Y1311994D01*
X1216781Y1310162D01*
X1216351Y1308000D01*
X1216781Y1305838D01*
X1218006Y1304006D01*
X1219838Y1302781D01*
X1222000Y1302352D01*
X1223661Y1302682D01*
X1224150Y1301956D01*
X1224291Y1301512D01*
X1223145Y1299798D01*
X1222715Y1297636D01*
X1223145Y1295474D01*
X1224370Y1293642D01*
X1226202Y1292417D01*
X1228364Y1291987D01*
X1230526Y1292417D01*
X1232358Y1293642D01*
X1233316Y1295075D01*
X1233329Y1295084D01*
X1242552Y1304307D01*
X1243335Y1305478D01*
X1243609Y1306859D01*
Y1360000D01*
X1243335Y1361381D01*
X1242552Y1362552D01*
X1220609Y1384495D01*
Y1449749D01*
X1220994Y1450006D01*
X1222219Y1451838D01*
X1222648Y1454000D01*
X1222219Y1456162D01*
X1220994Y1457994D01*
X1219162Y1459218D01*
X1217000Y1459648D01*
D02*
G37*
G36*
X1673670Y1465064D02*
Y1455870D01*
X1682864D01*
X1682669Y1457352D01*
X1681607Y1459915D01*
X1679917Y1462117D01*
X1677715Y1463807D01*
X1675152Y1464869D01*
X1673670Y1465064D01*
D02*
G37*
G36*
X1671130Y1465064D02*
X1669648Y1464869D01*
X1667085Y1463807D01*
X1664883Y1462117D01*
X1663193Y1459915D01*
X1662131Y1457352D01*
X1661936Y1455870D01*
X1671130D01*
Y1465064D01*
D02*
G37*
G36*
X701400Y1482631D02*
X698649Y1482269D01*
X696085Y1481207D01*
X693883Y1479517D01*
X692193Y1477316D01*
X691131Y1474751D01*
X690769Y1472000D01*
X691131Y1469249D01*
X692193Y1466685D01*
X693883Y1464483D01*
X696085Y1462793D01*
X698649Y1461731D01*
X701400Y1461369D01*
X704152Y1461731D01*
X706715Y1462793D01*
X708917Y1464483D01*
X710607Y1466685D01*
X711669Y1469249D01*
X712031Y1472000D01*
X711669Y1474751D01*
X710607Y1477316D01*
X708917Y1479517D01*
X706715Y1481207D01*
X704152Y1482269D01*
X701400Y1482631D01*
D02*
G37*
G36*
X977000Y1501649D02*
X974838Y1501219D01*
X973006Y1499994D01*
X971781Y1498162D01*
X971351Y1496000D01*
X971781Y1493838D01*
X973006Y1492006D01*
X973391Y1491749D01*
Y1474527D01*
X971838Y1474219D01*
X970006Y1472994D01*
X968782Y1471162D01*
X968352Y1469000D01*
X968782Y1466838D01*
X970006Y1465006D01*
X971838Y1463781D01*
X974000Y1463351D01*
X976162Y1463781D01*
X977994Y1465006D01*
X979219Y1466838D01*
X979649Y1469000D01*
X979558Y1469456D01*
X980335Y1470619D01*
X980609Y1472000D01*
Y1491749D01*
X980994Y1492006D01*
X982219Y1493838D01*
X982648Y1496000D01*
X982219Y1498162D01*
X980994Y1499994D01*
X979162Y1501219D01*
X977000Y1501649D01*
D02*
G37*
G36*
X623930Y1470730D02*
X614736D01*
X614931Y1469249D01*
X615993Y1466685D01*
X617683Y1464483D01*
X619884Y1462793D01*
X622449Y1461731D01*
X623930Y1461536D01*
Y1470730D01*
D02*
G37*
G36*
X635664D02*
X626470D01*
Y1461536D01*
X627952Y1461731D01*
X630516Y1462793D01*
X632717Y1464483D01*
X634407Y1466685D01*
X635469Y1469249D01*
X635664Y1470730D01*
D02*
G37*
G36*
X349300Y1555952D02*
X345896Y1555504D01*
X342724Y1554190D01*
X340000Y1552100D01*
X337910Y1549376D01*
X336596Y1546204D01*
X336147Y1542800D01*
X336596Y1539396D01*
X337910Y1536224D01*
X340000Y1533500D01*
X342724Y1531410D01*
X345896Y1530096D01*
X349300Y1529648D01*
X352704Y1530096D01*
X355876Y1531410D01*
X358600Y1533500D01*
X360690Y1536224D01*
X362004Y1539396D01*
X362453Y1542800D01*
X362004Y1546204D01*
X360690Y1549376D01*
X358600Y1552100D01*
X355876Y1554190D01*
X352704Y1555504D01*
X349300Y1555952D01*
D02*
G37*
G36*
X318570Y1541035D02*
Y1529320D01*
X330285D01*
X330004Y1531454D01*
X328690Y1534626D01*
X326600Y1537350D01*
X323876Y1539440D01*
X320704Y1540754D01*
X318570Y1541035D01*
D02*
G37*
G36*
X316030Y1541035D02*
X313896Y1540754D01*
X310724Y1539440D01*
X308000Y1537350D01*
X305910Y1534626D01*
X304596Y1531454D01*
X304315Y1529320D01*
X316030D01*
Y1541035D01*
D02*
G37*
G36*
X442000Y1557231D02*
X439249Y1556869D01*
X436684Y1555807D01*
X434483Y1554117D01*
X432793Y1551915D01*
X431731Y1549352D01*
X431369Y1546600D01*
X431731Y1543849D01*
X432793Y1541284D01*
X434483Y1539083D01*
X436684Y1537393D01*
X439249Y1536331D01*
X442000Y1535969D01*
X444752Y1536331D01*
X447315Y1537393D01*
X449517Y1539083D01*
X451207Y1541284D01*
X452269Y1543849D01*
X452631Y1546600D01*
X452269Y1549352D01*
X451207Y1551915D01*
X449517Y1554117D01*
X447315Y1555807D01*
X444752Y1556869D01*
X442000Y1557231D01*
D02*
G37*
G36*
X477600Y1582631D02*
X474848Y1582269D01*
X472284Y1581207D01*
X470083Y1579517D01*
X468393Y1577316D01*
X467331Y1574751D01*
X466969Y1572000D01*
X467331Y1569249D01*
X468393Y1566685D01*
X470083Y1564483D01*
X472284Y1562793D01*
X474848Y1561731D01*
X477600Y1561369D01*
X480351Y1561731D01*
X482915Y1562793D01*
X485117Y1564483D01*
X486807Y1566685D01*
X487869Y1569249D01*
X488231Y1572000D01*
X487869Y1574751D01*
X486807Y1577316D01*
X485117Y1579517D01*
X482915Y1581207D01*
X480351Y1582269D01*
X477600Y1582631D01*
D02*
G37*
G36*
X442000Y1582631D02*
X439249Y1582269D01*
X436684Y1581207D01*
X434483Y1579517D01*
X432793Y1577316D01*
X431731Y1574751D01*
X431369Y1572000D01*
X431731Y1569249D01*
X432793Y1566685D01*
X434483Y1564483D01*
X436684Y1562793D01*
X439249Y1561731D01*
X442000Y1561369D01*
X444752Y1561731D01*
X447315Y1562793D01*
X449517Y1564483D01*
X451207Y1566685D01*
X452269Y1569249D01*
X452631Y1572000D01*
X452269Y1574751D01*
X451207Y1577316D01*
X449517Y1579517D01*
X447315Y1581207D01*
X444752Y1582269D01*
X442000Y1582631D01*
D02*
G37*
G36*
X477600Y1557231D02*
X474848Y1556869D01*
X472284Y1555807D01*
X470083Y1554117D01*
X468393Y1551915D01*
X467331Y1549352D01*
X466969Y1546600D01*
X467331Y1543849D01*
X468393Y1541285D01*
X470083Y1539083D01*
X472284Y1537393D01*
X474848Y1536331D01*
X477600Y1535969D01*
X480351Y1536331D01*
X482915Y1537393D01*
X485117Y1539083D01*
X486807Y1541285D01*
X487869Y1543849D01*
X488231Y1546600D01*
X487869Y1549352D01*
X486807Y1551915D01*
X485117Y1554117D01*
X482915Y1555807D01*
X480351Y1556869D01*
X477600Y1557231D01*
D02*
G37*
G36*
X1672400Y1541431D02*
X1669648Y1541069D01*
X1667085Y1540007D01*
X1664883Y1538317D01*
X1663193Y1536116D01*
X1662131Y1533551D01*
X1661769Y1530800D01*
X1662131Y1528049D01*
X1663193Y1525485D01*
X1664883Y1523283D01*
X1667085Y1521593D01*
X1669648Y1520531D01*
X1672400Y1520169D01*
X1675152Y1520531D01*
X1677715Y1521593D01*
X1679917Y1523283D01*
X1681607Y1525485D01*
X1682669Y1528049D01*
X1683031Y1530800D01*
X1682669Y1533551D01*
X1681607Y1536116D01*
X1679917Y1538317D01*
X1677715Y1540007D01*
X1675152Y1541069D01*
X1672400Y1541431D01*
D02*
G37*
G36*
X349300Y1520952D02*
X345896Y1520504D01*
X342724Y1519190D01*
X340000Y1517100D01*
X337910Y1514376D01*
X336596Y1511204D01*
X336147Y1507800D01*
X336596Y1504396D01*
X337910Y1501224D01*
X340000Y1498500D01*
X342724Y1496410D01*
X345896Y1495096D01*
X349300Y1494648D01*
X352704Y1495096D01*
X355876Y1496410D01*
X358600Y1498500D01*
X360690Y1501224D01*
X362004Y1504396D01*
X362453Y1507800D01*
X362004Y1511204D01*
X360690Y1514376D01*
X358600Y1517100D01*
X355876Y1519190D01*
X352704Y1520504D01*
X349300Y1520952D01*
D02*
G37*
G36*
X330285Y1503780D02*
X318570D01*
Y1492065D01*
X320704Y1492346D01*
X323876Y1493660D01*
X326600Y1495750D01*
X328690Y1498474D01*
X330004Y1501646D01*
X330285Y1503780D01*
D02*
G37*
G36*
X316030D02*
X304315D01*
X304596Y1501646D01*
X305910Y1498474D01*
X308000Y1495750D01*
X310724Y1493660D01*
X313896Y1492346D01*
X316030Y1492065D01*
Y1503780D01*
D02*
G37*
G36*
X1647000Y1516031D02*
X1644249Y1515669D01*
X1641685Y1514607D01*
X1639483Y1512917D01*
X1637793Y1510715D01*
X1636731Y1508152D01*
X1636369Y1505400D01*
X1636731Y1502648D01*
X1637793Y1500085D01*
X1639483Y1497883D01*
X1641685Y1496193D01*
X1644249Y1495131D01*
X1647000Y1494769D01*
X1649751Y1495131D01*
X1652316Y1496193D01*
X1654517Y1497883D01*
X1656207Y1500085D01*
X1657269Y1502648D01*
X1657631Y1505400D01*
X1657269Y1508152D01*
X1656207Y1510715D01*
X1654517Y1512917D01*
X1652316Y1514607D01*
X1649751Y1515669D01*
X1647000Y1516031D01*
D02*
G37*
G36*
Y1541431D02*
X1644249Y1541069D01*
X1641685Y1540007D01*
X1639483Y1538317D01*
X1637793Y1536116D01*
X1636731Y1533551D01*
X1636369Y1530800D01*
X1636731Y1528049D01*
X1637793Y1525485D01*
X1639483Y1523283D01*
X1641685Y1521593D01*
X1644249Y1520531D01*
X1647000Y1520169D01*
X1649751Y1520531D01*
X1652316Y1521593D01*
X1654517Y1523283D01*
X1656207Y1525485D01*
X1657269Y1528049D01*
X1657631Y1530800D01*
X1657269Y1533551D01*
X1656207Y1536116D01*
X1654517Y1538317D01*
X1652316Y1540007D01*
X1649751Y1541069D01*
X1647000Y1541431D01*
D02*
G37*
G36*
X330285Y1526780D02*
X317300D01*
X304315D01*
X304596Y1524646D01*
X305910Y1521474D01*
X308000Y1518750D01*
X309823Y1517350D01*
Y1515750D01*
X308000Y1514350D01*
X305910Y1511626D01*
X304596Y1508454D01*
X304315Y1506320D01*
X317300D01*
X330285D01*
X330004Y1508454D01*
X328690Y1511626D01*
X326600Y1514350D01*
X324777Y1515750D01*
Y1517350D01*
X326600Y1518750D01*
X328690Y1521474D01*
X330004Y1524646D01*
X330285Y1526780D01*
D02*
G37*
G36*
X1672400Y1516031D02*
X1669648Y1515669D01*
X1667085Y1514607D01*
X1664883Y1512917D01*
X1663193Y1510715D01*
X1662131Y1508152D01*
X1661769Y1505400D01*
X1662131Y1502648D01*
X1663193Y1500085D01*
X1664883Y1497883D01*
X1667085Y1496193D01*
X1669648Y1495131D01*
X1672400Y1494769D01*
X1675152Y1495131D01*
X1677715Y1496193D01*
X1679917Y1497883D01*
X1681607Y1500085D01*
X1682669Y1502648D01*
X1683031Y1505400D01*
X1682669Y1508152D01*
X1681607Y1510715D01*
X1679917Y1512917D01*
X1677715Y1514607D01*
X1675152Y1515669D01*
X1672400Y1516031D01*
D02*
G37*
G36*
X1575900Y2027605D02*
X1538000D01*
X1536032Y2027346D01*
X1534198Y2026586D01*
X1532622Y2025378D01*
X1531414Y2023802D01*
X1530654Y2021968D01*
X1530395Y2020000D01*
X1530654Y2018032D01*
X1531414Y2016198D01*
X1532622Y2014622D01*
X1534198Y2013414D01*
X1536032Y2012654D01*
X1538000Y2012395D01*
X1572750D01*
X1584395Y2000750D01*
Y1302000D01*
X1584654Y1300032D01*
X1585414Y1298197D01*
X1586622Y1296622D01*
X1588197Y1295414D01*
X1590032Y1294654D01*
X1592000Y1294395D01*
X1593968Y1294654D01*
X1595802Y1295414D01*
X1597378Y1296622D01*
X1598586Y1298197D01*
X1599346Y1300032D01*
X1599605Y1302000D01*
Y2003900D01*
X1599346Y2005868D01*
X1598901Y2006943D01*
X1598586Y2007703D01*
X1597378Y2009278D01*
X1581278Y2025378D01*
X1579703Y2026586D01*
X1577868Y2027346D01*
X1575900Y2027605D01*
D02*
G37*
G36*
X1056000Y1277648D02*
X1053838Y1277219D01*
X1052006Y1275994D01*
X1050781Y1274162D01*
X1050753Y1274021D01*
X1047871Y1271139D01*
X1033281D01*
X1033162Y1271219D01*
X1031000Y1271648D01*
X1028838Y1271219D01*
X1027006Y1269994D01*
X1025781Y1268162D01*
X1025351Y1266000D01*
X1025415Y1265682D01*
X1017372Y1257639D01*
X967781D01*
X967662Y1257719D01*
X965500Y1258148D01*
X963338Y1257719D01*
X961506Y1256494D01*
X960281Y1254662D01*
X959852Y1252500D01*
X960281Y1250338D01*
X961506Y1248506D01*
X963338Y1247281D01*
X965500Y1246852D01*
X967662Y1247281D01*
X967781Y1247361D01*
X1019500D01*
X1021467Y1247752D01*
X1023134Y1248866D01*
X1034634Y1260366D01*
X1034964Y1260861D01*
X1050000D01*
X1051966Y1261252D01*
X1053634Y1262366D01*
X1058021Y1266753D01*
X1058162Y1266781D01*
X1059994Y1268006D01*
X1061219Y1269838D01*
X1061648Y1272000D01*
X1061219Y1274162D01*
X1059994Y1275994D01*
X1058162Y1277219D01*
X1056000Y1277648D01*
D02*
G37*
G36*
X761000Y1319631D02*
X758249Y1319269D01*
X755685Y1318207D01*
X753483Y1316517D01*
X751793Y1314315D01*
X750731Y1311752D01*
X750369Y1309000D01*
X750731Y1306248D01*
X751793Y1303685D01*
X753483Y1301483D01*
X755685Y1299793D01*
X758249Y1298731D01*
X761000Y1298369D01*
X763752Y1298731D01*
X766316Y1299793D01*
X768517Y1301483D01*
X770207Y1303685D01*
X771269Y1306248D01*
X771631Y1309000D01*
X771269Y1311752D01*
X770207Y1314315D01*
X768517Y1316517D01*
X766316Y1318207D01*
X763752Y1319269D01*
X761000Y1319631D01*
D02*
G37*
G36*
X759730Y1358530D02*
X750536D01*
X750731Y1357048D01*
X751793Y1354485D01*
X753483Y1352283D01*
X755685Y1350593D01*
X758249Y1349531D01*
X759730Y1349336D01*
Y1358530D01*
D02*
G37*
G36*
X771464D02*
X762270D01*
Y1349336D01*
X763752Y1349531D01*
X766316Y1350593D01*
X768517Y1352283D01*
X770207Y1354485D01*
X771269Y1357048D01*
X771464Y1358530D01*
D02*
G37*
G36*
X1647000Y1363631D02*
X1644249Y1363269D01*
X1641685Y1362207D01*
X1639483Y1360517D01*
X1637793Y1358315D01*
X1636731Y1355751D01*
X1636369Y1353000D01*
X1636731Y1350249D01*
X1637793Y1347685D01*
X1639483Y1345483D01*
X1641685Y1343793D01*
X1644249Y1342731D01*
X1647000Y1342369D01*
X1649751Y1342731D01*
X1652316Y1343793D01*
X1654517Y1345483D01*
X1656207Y1347685D01*
X1657269Y1350249D01*
X1657631Y1353000D01*
X1657269Y1355751D01*
X1656207Y1358315D01*
X1654517Y1360517D01*
X1652316Y1362207D01*
X1649751Y1363269D01*
X1647000Y1363631D01*
D02*
G37*
G36*
X1677270Y1284556D02*
Y1248270D01*
X1713556D01*
X1713192Y1252891D01*
X1711813Y1258636D01*
X1709552Y1264096D01*
X1706464Y1269134D01*
X1702627Y1273627D01*
X1698134Y1277464D01*
X1693096Y1280552D01*
X1687636Y1282813D01*
X1681891Y1284193D01*
X1677270Y1284556D01*
D02*
G37*
G36*
X1674730Y1245730D02*
X1638444D01*
X1638808Y1241109D01*
X1640187Y1235364D01*
X1642448Y1229904D01*
X1645536Y1224866D01*
X1649373Y1220373D01*
X1653866Y1216536D01*
X1658905Y1213448D01*
X1664364Y1211187D01*
X1670109Y1209808D01*
X1674730Y1209444D01*
Y1245730D01*
D02*
G37*
G36*
X385556D02*
X349270D01*
Y1209444D01*
X353891Y1209808D01*
X359636Y1211187D01*
X365095Y1213448D01*
X370134Y1216536D01*
X374627Y1220373D01*
X378464Y1224866D01*
X381552Y1229904D01*
X383813Y1235364D01*
X385192Y1241109D01*
X385556Y1245730D01*
D02*
G37*
G36*
X346730D02*
X310444D01*
X310807Y1241109D01*
X312187Y1235364D01*
X314448Y1229904D01*
X317536Y1224866D01*
X321373Y1220373D01*
X325866Y1216536D01*
X330905Y1213448D01*
X336364Y1211187D01*
X342109Y1209808D01*
X346730Y1209444D01*
Y1245730D01*
D02*
G37*
G36*
X1713556D02*
X1677270D01*
Y1209444D01*
X1681891Y1209808D01*
X1687636Y1211187D01*
X1693096Y1213448D01*
X1698134Y1216536D01*
X1702627Y1220373D01*
X1706464Y1224866D01*
X1709552Y1229904D01*
X1711813Y1235364D01*
X1713192Y1241109D01*
X1713556Y1245730D01*
D02*
G37*
G36*
X1674730Y1284556D02*
X1670109Y1284193D01*
X1664364Y1282813D01*
X1658905Y1280552D01*
X1653866Y1277464D01*
X1649373Y1273627D01*
X1645536Y1269134D01*
X1642448Y1264096D01*
X1640187Y1258636D01*
X1638808Y1252891D01*
X1638444Y1248270D01*
X1674730D01*
Y1284556D01*
D02*
G37*
G36*
X349270D02*
Y1248270D01*
X385556D01*
X385192Y1252891D01*
X383813Y1258636D01*
X381552Y1264096D01*
X378464Y1269134D01*
X374627Y1273627D01*
X370134Y1277464D01*
X365095Y1280552D01*
X359636Y1282813D01*
X353891Y1284193D01*
X349270Y1284556D01*
D02*
G37*
G36*
X346730D02*
X342109Y1284193D01*
X336364Y1282813D01*
X330905Y1280552D01*
X325866Y1277464D01*
X321373Y1273627D01*
X317536Y1269134D01*
X314448Y1264096D01*
X312187Y1258636D01*
X310807Y1252891D01*
X310444Y1248270D01*
X346730D01*
Y1284556D01*
D02*
G37*
G36*
X330000Y1470914D02*
X327012Y1470620D01*
X324140Y1469748D01*
X321492Y1468333D01*
X319172Y1466429D01*
X317267Y1464108D01*
X315852Y1461460D01*
X314981Y1458588D01*
X314686Y1455600D01*
X314981Y1452612D01*
X315852Y1449740D01*
X317267Y1447092D01*
X319172Y1444772D01*
X321492Y1442867D01*
X324140Y1441452D01*
X327012Y1440580D01*
X330000Y1440286D01*
X332988Y1440580D01*
X335860Y1441452D01*
X338508Y1442867D01*
X340829Y1444772D01*
X342733Y1447092D01*
X344148Y1449740D01*
X345019Y1452612D01*
X345314Y1455600D01*
X345019Y1458588D01*
X344148Y1461460D01*
X342733Y1464108D01*
X340829Y1466429D01*
X338508Y1468333D01*
X335860Y1469748D01*
X332988Y1470620D01*
X330000Y1470914D01*
D02*
G37*
G36*
X1647000Y1439831D02*
X1644249Y1439469D01*
X1641685Y1438407D01*
X1639483Y1436717D01*
X1637793Y1434516D01*
X1636731Y1431951D01*
X1636369Y1429200D01*
X1636731Y1426449D01*
X1637793Y1423885D01*
X1639483Y1421683D01*
X1641685Y1419993D01*
X1644249Y1418931D01*
X1647000Y1418569D01*
X1649751Y1418931D01*
X1652316Y1419993D01*
X1654517Y1421683D01*
X1656207Y1423885D01*
X1657269Y1426449D01*
X1657631Y1429200D01*
X1657269Y1431951D01*
X1656207Y1434516D01*
X1654517Y1436717D01*
X1652316Y1438407D01*
X1649751Y1439469D01*
X1647000Y1439831D01*
D02*
G37*
G36*
Y1414431D02*
X1644249Y1414069D01*
X1641685Y1413007D01*
X1639483Y1411317D01*
X1637793Y1409115D01*
X1636731Y1406552D01*
X1636369Y1403800D01*
X1636731Y1401048D01*
X1637793Y1398485D01*
X1639483Y1396283D01*
X1641685Y1394593D01*
X1644249Y1393531D01*
X1647000Y1393169D01*
X1649751Y1393531D01*
X1652316Y1394593D01*
X1654517Y1396283D01*
X1656207Y1398485D01*
X1657269Y1401048D01*
X1657631Y1403800D01*
X1657269Y1406552D01*
X1656207Y1409115D01*
X1654517Y1411317D01*
X1652316Y1413007D01*
X1649751Y1414069D01*
X1647000Y1414431D01*
D02*
G37*
G36*
Y1465231D02*
X1644249Y1464869D01*
X1641685Y1463807D01*
X1639483Y1462117D01*
X1637793Y1459915D01*
X1636731Y1457352D01*
X1636369Y1454600D01*
X1636731Y1451848D01*
X1637793Y1449285D01*
X1639483Y1447083D01*
X1641685Y1445393D01*
X1644249Y1444331D01*
X1647000Y1443969D01*
X1649751Y1444331D01*
X1652316Y1445393D01*
X1654517Y1447083D01*
X1656207Y1449285D01*
X1657269Y1451848D01*
X1657631Y1454600D01*
X1657269Y1457352D01*
X1656207Y1459915D01*
X1654517Y1462117D01*
X1652316Y1463807D01*
X1649751Y1464869D01*
X1647000Y1465231D01*
D02*
G37*
G36*
X1353000Y1460648D02*
X1350838Y1460219D01*
X1349006Y1458994D01*
X1347782Y1457162D01*
X1347352Y1455000D01*
X1346396Y1454000D01*
X1333649D01*
X1333219Y1456162D01*
X1331994Y1457994D01*
X1330162Y1459218D01*
X1328000Y1459648D01*
X1325838Y1459218D01*
X1324006Y1457994D01*
X1322782Y1456162D01*
X1322352Y1454000D01*
X1322782Y1451838D01*
X1324006Y1450006D01*
X1324391Y1449749D01*
Y1378600D01*
X1324665Y1377219D01*
X1325448Y1376048D01*
X1327038Y1374458D01*
X1326331Y1372751D01*
X1325969Y1370000D01*
X1326331Y1367249D01*
X1327393Y1364684D01*
X1329083Y1362483D01*
X1331284Y1360793D01*
X1333849Y1359731D01*
X1336600Y1359369D01*
X1339352Y1359731D01*
X1341915Y1360793D01*
X1344117Y1362483D01*
X1345807Y1364684D01*
X1346869Y1367249D01*
X1347231Y1370000D01*
X1346869Y1372751D01*
X1346599Y1373402D01*
X1347305Y1374458D01*
X1351295D01*
X1352001Y1373402D01*
X1351731Y1372751D01*
X1351369Y1370000D01*
X1351731Y1367249D01*
X1352793Y1364684D01*
X1354483Y1362483D01*
X1356685Y1360793D01*
X1359249Y1359731D01*
X1362000Y1359369D01*
X1364751Y1359731D01*
X1367316Y1360793D01*
X1369517Y1362483D01*
X1371207Y1364684D01*
X1372269Y1367249D01*
X1372631Y1370000D01*
X1372269Y1372751D01*
X1371999Y1373402D01*
X1372705Y1374458D01*
X1376695D01*
X1377401Y1373402D01*
X1377131Y1372751D01*
X1376769Y1370000D01*
X1377131Y1367249D01*
X1378193Y1364684D01*
X1379883Y1362483D01*
X1382085Y1360793D01*
X1384648Y1359731D01*
X1387400Y1359369D01*
X1390152Y1359731D01*
X1392715Y1360793D01*
X1394917Y1362483D01*
X1396607Y1364684D01*
X1397669Y1367249D01*
X1398031Y1370000D01*
X1397669Y1372751D01*
X1396962Y1374458D01*
X1403552Y1381048D01*
X1404335Y1382219D01*
X1404609Y1383600D01*
Y1424749D01*
X1404994Y1425006D01*
X1406219Y1426838D01*
X1406649Y1429000D01*
X1406219Y1431162D01*
X1404994Y1432994D01*
X1403162Y1434219D01*
X1401000Y1434648D01*
X1398838Y1434219D01*
X1397006Y1432994D01*
X1396337Y1431994D01*
X1395074Y1431869D01*
X1372943Y1454000D01*
X1359451D01*
X1358645Y1454982D01*
X1358649Y1455000D01*
X1358219Y1457162D01*
X1356994Y1458994D01*
X1355162Y1460219D01*
X1353000Y1460648D01*
D02*
G37*
G36*
X1682864Y1453330D02*
X1673670D01*
Y1444136D01*
X1675152Y1444331D01*
X1677715Y1445393D01*
X1679917Y1447083D01*
X1681607Y1449285D01*
X1682669Y1451848D01*
X1682864Y1453330D01*
D02*
G37*
G36*
X1671130D02*
X1661936D01*
X1662131Y1451848D01*
X1663193Y1449285D01*
X1664883Y1447083D01*
X1667085Y1445393D01*
X1669648Y1444331D01*
X1671130Y1444136D01*
Y1453330D01*
D02*
G37*
G36*
X1312470Y1380464D02*
Y1371270D01*
X1321664D01*
X1321469Y1372751D01*
X1320407Y1375316D01*
X1318717Y1377517D01*
X1316516Y1379207D01*
X1313952Y1380269D01*
X1312470Y1380464D01*
D02*
G37*
G36*
X1321664Y1368730D02*
X1312470D01*
Y1359536D01*
X1313952Y1359731D01*
X1316516Y1360793D01*
X1318717Y1362483D01*
X1320407Y1364684D01*
X1321469Y1367249D01*
X1321664Y1368730D01*
D02*
G37*
G36*
X1309930D02*
X1300736D01*
X1300931Y1367249D01*
X1301993Y1364684D01*
X1303683Y1362483D01*
X1305885Y1360793D01*
X1308448Y1359731D01*
X1309930Y1359536D01*
Y1368730D01*
D02*
G37*
G36*
X1412800Y1380631D02*
X1410049Y1380269D01*
X1407484Y1379207D01*
X1405283Y1377517D01*
X1403593Y1375316D01*
X1402531Y1372751D01*
X1402169Y1370000D01*
X1402531Y1367249D01*
X1403593Y1364684D01*
X1405283Y1362483D01*
X1407484Y1360793D01*
X1410049Y1359731D01*
X1412800Y1359369D01*
X1415551Y1359731D01*
X1418116Y1360793D01*
X1420317Y1362483D01*
X1422007Y1364684D01*
X1423069Y1367249D01*
X1423431Y1370000D01*
X1423069Y1372751D01*
X1422007Y1375316D01*
X1420317Y1377517D01*
X1418116Y1379207D01*
X1415551Y1380269D01*
X1412800Y1380631D01*
D02*
G37*
G36*
X759730Y1370264D02*
X758249Y1370069D01*
X755685Y1369007D01*
X753483Y1367317D01*
X751793Y1365116D01*
X750731Y1362552D01*
X750536Y1361070D01*
X759730D01*
Y1370264D01*
D02*
G37*
G36*
X1309930Y1380464D02*
X1308448Y1380269D01*
X1305885Y1379207D01*
X1303683Y1377517D01*
X1301993Y1375316D01*
X1300931Y1372751D01*
X1300736Y1371270D01*
X1309930D01*
Y1380464D01*
D02*
G37*
G36*
X1647000Y1389031D02*
X1644249Y1388669D01*
X1641685Y1387607D01*
X1639483Y1385917D01*
X1637793Y1383716D01*
X1636731Y1381151D01*
X1636369Y1378400D01*
X1636731Y1375648D01*
X1637793Y1373085D01*
X1639483Y1370883D01*
X1641685Y1369193D01*
X1644249Y1368131D01*
X1647000Y1367769D01*
X1649751Y1368131D01*
X1652316Y1369193D01*
X1654517Y1370883D01*
X1656207Y1373085D01*
X1657269Y1375648D01*
X1657631Y1378400D01*
X1657269Y1381151D01*
X1656207Y1383716D01*
X1654517Y1385917D01*
X1652316Y1387607D01*
X1649751Y1388669D01*
X1647000Y1389031D01*
D02*
G37*
G36*
X762270Y1370264D02*
Y1361070D01*
X771464D01*
X771269Y1362552D01*
X770207Y1365116D01*
X768517Y1367317D01*
X766316Y1369007D01*
X763752Y1370069D01*
X762270Y1370264D01*
D02*
G37*
G36*
X349300Y1590952D02*
X345896Y1590504D01*
X342724Y1589190D01*
X340000Y1587100D01*
X337910Y1584376D01*
X336596Y1581204D01*
X336147Y1577800D01*
X336596Y1574396D01*
X337910Y1571224D01*
X340000Y1568500D01*
X342724Y1566410D01*
X345896Y1565096D01*
X349300Y1564648D01*
X352704Y1565096D01*
X355876Y1566410D01*
X358600Y1568500D01*
X360690Y1571224D01*
X362004Y1574396D01*
X362453Y1577800D01*
X362004Y1581204D01*
X360690Y1584376D01*
X358600Y1587100D01*
X355876Y1589190D01*
X352704Y1590504D01*
X349300Y1590952D01*
D02*
G37*
G36*
X950270Y2079361D02*
Y2069270D01*
X960361D01*
X960136Y2070984D01*
X958984Y2073764D01*
X957152Y2076152D01*
X954764Y2077984D01*
X951984Y2079136D01*
X950270Y2079361D01*
D02*
G37*
G36*
X947730Y2079361D02*
X946016Y2079136D01*
X943236Y2077984D01*
X940848Y2076152D01*
X939016Y2073764D01*
X937864Y2070984D01*
X937639Y2069270D01*
X947730D01*
Y2079361D01*
D02*
G37*
G36*
X923250Y2080029D02*
X920266Y2079636D01*
X917486Y2078484D01*
X915098Y2076652D01*
X913266Y2074264D01*
X912114Y2071484D01*
X911721Y2068500D01*
X912114Y2065516D01*
X913266Y2062736D01*
X915098Y2060348D01*
X915380Y2060132D01*
X914971Y2058929D01*
X900706D01*
X899994Y2059994D01*
X898162Y2061219D01*
X896000Y2061649D01*
X893838Y2061219D01*
X892006Y2059994D01*
X890781Y2058162D01*
X890351Y2056000D01*
X890781Y2053838D01*
X892006Y2052006D01*
X892195Y2051879D01*
X891810Y2050609D01*
X888251D01*
X887994Y2050994D01*
X886162Y2052219D01*
X884000Y2052648D01*
X881838Y2052219D01*
X880006Y2050994D01*
X878782Y2049162D01*
X878352Y2047000D01*
X878782Y2044838D01*
X880006Y2043006D01*
X881838Y2041781D01*
X884000Y2041351D01*
X886162Y2041781D01*
X887994Y2043006D01*
X888251Y2043391D01*
X1112780D01*
X1114131Y2042488D01*
X1116000Y2042116D01*
X1117869Y2042488D01*
X1119453Y2043547D01*
X1120512Y2045131D01*
X1120884Y2047000D01*
X1120512Y2048869D01*
X1119453Y2050453D01*
X1119858Y2051711D01*
X1120320D01*
X1121701Y2051985D01*
X1122872Y2052768D01*
X1130275Y2060171D01*
X1131869Y2060488D01*
X1133453Y2061547D01*
X1134512Y2063131D01*
X1134884Y2065000D01*
X1134512Y2066869D01*
X1133453Y2068453D01*
X1131869Y2069512D01*
X1130000Y2069884D01*
X1128131Y2069512D01*
X1126547Y2068453D01*
X1125488Y2066869D01*
X1125171Y2065275D01*
X1118825Y2058929D01*
X982740D01*
X982113Y2060199D01*
X983484Y2061986D01*
X984636Y2064766D01*
X985029Y2067750D01*
X984636Y2070734D01*
X983484Y2073514D01*
X981652Y2075902D01*
X979264Y2077734D01*
X976484Y2078886D01*
X973500Y2079279D01*
X970516Y2078886D01*
X967736Y2077734D01*
X965348Y2075902D01*
X963516Y2073514D01*
X962364Y2070734D01*
X961971Y2067750D01*
X962364Y2064766D01*
X963516Y2061986D01*
X964887Y2060199D01*
X964260Y2058929D01*
X957907D01*
X957422Y2060199D01*
X958984Y2062236D01*
X960136Y2065016D01*
X960361Y2066730D01*
X949000D01*
X937639D01*
X937864Y2065016D01*
X939016Y2062236D01*
X940579Y2060199D01*
X940093Y2058929D01*
X931529D01*
X931120Y2060132D01*
X931402Y2060348D01*
X933234Y2062736D01*
X934386Y2065516D01*
X934779Y2068500D01*
X934386Y2071484D01*
X933234Y2074264D01*
X931402Y2076652D01*
X929014Y2078484D01*
X926234Y2079636D01*
X923250Y2080029D01*
D02*
G37*
G36*
X1353000Y2151649D02*
X1350838Y2151219D01*
X1349006Y2149994D01*
X1347782Y2148162D01*
X1347352Y2146000D01*
X1347782Y2143838D01*
X1347861Y2143719D01*
Y2104129D01*
X1338866Y2095134D01*
X1337752Y2093466D01*
X1337361Y2091500D01*
Y2077781D01*
X1337281Y2077662D01*
X1336852Y2075500D01*
X1337281Y2073338D01*
X1338506Y2071506D01*
X1340338Y2070281D01*
X1342500Y2069852D01*
X1344662Y2070281D01*
X1346494Y2071506D01*
X1347719Y2073338D01*
X1348148Y2075500D01*
X1347719Y2077662D01*
X1347639Y2077781D01*
Y2089371D01*
X1356634Y2098366D01*
X1357748Y2100034D01*
X1358139Y2102000D01*
Y2143719D01*
X1358219Y2143838D01*
X1358649Y2146000D01*
X1358219Y2148162D01*
X1356994Y2149994D01*
X1355162Y2151219D01*
X1353000Y2151649D01*
D02*
G37*
G36*
X1076500Y2149248D02*
X1073848Y2148898D01*
X1071376Y2147875D01*
X1069254Y2146246D01*
X1067625Y2144124D01*
X1066601Y2141652D01*
X1066252Y2139000D01*
X1066601Y2136348D01*
X1067625Y2133876D01*
X1069254Y2131754D01*
X1071376Y2130125D01*
X1073848Y2129102D01*
X1076500Y2128752D01*
X1079152Y2129102D01*
X1081624Y2130125D01*
X1083746Y2131754D01*
X1085375Y2133876D01*
X1086398Y2136348D01*
X1086748Y2139000D01*
X1086398Y2141652D01*
X1085375Y2144124D01*
X1083746Y2146246D01*
X1081624Y2147875D01*
X1079152Y2148898D01*
X1076500Y2149248D01*
D02*
G37*
G36*
X776000Y2161649D02*
X773838Y2161219D01*
X772006Y2159994D01*
X770781Y2158162D01*
X770351Y2156000D01*
X770554Y2154982D01*
X769748Y2154000D01*
X760000Y2144252D01*
Y2127000D01*
X715000Y2082000D01*
Y2076048D01*
X713730Y2075323D01*
X712468Y2075846D01*
X710500Y2076105D01*
X708532Y2075846D01*
X706697Y2075086D01*
X705122Y2073878D01*
X703914Y2072303D01*
X703154Y2070468D01*
X702895Y2068500D01*
Y1693650D01*
X688622Y1679378D01*
X687414Y1677802D01*
X686654Y1675968D01*
X686395Y1674000D01*
X686654Y1672032D01*
X687414Y1670197D01*
X688622Y1668622D01*
X690198Y1667414D01*
X692032Y1666654D01*
X694000Y1666395D01*
X695968Y1666654D01*
X697803Y1667414D01*
X699378Y1668622D01*
X713827Y1683071D01*
X715000Y1682585D01*
Y1449070D01*
X713730Y1448304D01*
X712000Y1448649D01*
X709838Y1448219D01*
X708006Y1446994D01*
X707749Y1446609D01*
X706495D01*
X685562Y1467542D01*
X686269Y1469249D01*
X686631Y1472000D01*
X686269Y1474751D01*
X685207Y1477316D01*
X683517Y1479517D01*
X681316Y1481207D01*
X678752Y1482269D01*
X676000Y1482631D01*
X673249Y1482269D01*
X670685Y1481207D01*
X668483Y1479517D01*
X666793Y1477316D01*
X665731Y1474751D01*
X665369Y1472000D01*
X665731Y1469249D01*
X666439Y1467539D01*
X665665Y1466381D01*
X665391Y1465000D01*
Y1464110D01*
X664121Y1463584D01*
X660162Y1467542D01*
X660869Y1469249D01*
X661231Y1472000D01*
X660869Y1474751D01*
X659807Y1477316D01*
X658117Y1479517D01*
X655916Y1481207D01*
X653352Y1482269D01*
X650600Y1482631D01*
X647849Y1482269D01*
X645285Y1481207D01*
X643083Y1479517D01*
X641393Y1477316D01*
X640331Y1474751D01*
X639969Y1472000D01*
X640331Y1469249D01*
X641038Y1467542D01*
X636448Y1462952D01*
X635665Y1461781D01*
X635391Y1460400D01*
Y1436495D01*
X632454Y1433558D01*
X632000Y1433649D01*
X629838Y1433219D01*
X628006Y1431994D01*
X626781Y1430162D01*
X626352Y1428000D01*
X626781Y1425838D01*
X628006Y1424006D01*
X629838Y1422781D01*
X632000Y1422352D01*
X634162Y1422781D01*
X635994Y1424006D01*
X637219Y1425838D01*
X637649Y1428000D01*
X637558Y1428454D01*
X641552Y1432448D01*
X642335Y1433619D01*
X642609Y1435000D01*
X642609Y1435000D01*
Y1458905D01*
X646142Y1462438D01*
X647849Y1461731D01*
X650600Y1461369D01*
X653352Y1461731D01*
X655058Y1462438D01*
X658391Y1459105D01*
Y1434000D01*
X658665Y1432619D01*
X659448Y1431448D01*
X665448Y1425448D01*
X666619Y1424665D01*
X668000Y1424391D01*
X668749D01*
X669006Y1424006D01*
X670838Y1422781D01*
X673000Y1422352D01*
X675162Y1422781D01*
X676994Y1424006D01*
X678219Y1425838D01*
X678649Y1428000D01*
X678219Y1430162D01*
X676994Y1431994D01*
X675162Y1433219D01*
X673000Y1433649D01*
X670838Y1433219D01*
X669069Y1432036D01*
X667811Y1433293D01*
X668437Y1434464D01*
X669000Y1434352D01*
X671162Y1434781D01*
X672994Y1436006D01*
X674219Y1437838D01*
X674649Y1440000D01*
X674219Y1442162D01*
X672994Y1443994D01*
X672609Y1444251D01*
Y1460746D01*
X673879Y1461648D01*
X676000Y1461369D01*
X678752Y1461731D01*
X680458Y1462438D01*
X702448Y1440448D01*
X703619Y1439665D01*
X705000Y1439391D01*
X707749D01*
X708006Y1439006D01*
X709838Y1437782D01*
X712000Y1437352D01*
X713730Y1437696D01*
X715000Y1436931D01*
Y1393000D01*
X733866Y1374134D01*
X729229Y1369497D01*
X729088Y1369469D01*
X728969Y1369389D01*
X698879D01*
X673247Y1395021D01*
X673219Y1395162D01*
X671994Y1396994D01*
X670162Y1398219D01*
X668000Y1398649D01*
X665838Y1398219D01*
X664006Y1396994D01*
X662782Y1395162D01*
X662352Y1393000D01*
X662782Y1390838D01*
X664006Y1389006D01*
X665838Y1387782D01*
X665979Y1387753D01*
X693116Y1360616D01*
X694783Y1359502D01*
X696750Y1359111D01*
X726111D01*
Y1297750D01*
X726502Y1295784D01*
X727616Y1294116D01*
X730753Y1290979D01*
X730781Y1290838D01*
X732006Y1289006D01*
X733838Y1287781D01*
X736000Y1287352D01*
X738162Y1287781D01*
X739994Y1289006D01*
X741219Y1290838D01*
X741648Y1293000D01*
X741219Y1295162D01*
X739994Y1296994D01*
X738162Y1298219D01*
X738021Y1298247D01*
X737319Y1298948D01*
X737363Y1299240D01*
X738737Y1299849D01*
X738838Y1299781D01*
X741000Y1299352D01*
X743162Y1299781D01*
X744994Y1301006D01*
X746218Y1302838D01*
X746648Y1305000D01*
X746218Y1307162D01*
X744994Y1308994D01*
X744609Y1309251D01*
Y1327505D01*
X747495Y1330391D01*
X751252D01*
X751793Y1329084D01*
X753483Y1326883D01*
X755685Y1325193D01*
X758249Y1324131D01*
X761000Y1323769D01*
X763752Y1324131D01*
X766316Y1325193D01*
X768517Y1326883D01*
X770207Y1329084D01*
X770913Y1330791D01*
X782105D01*
X789280Y1323616D01*
X787707Y1302099D01*
X787006Y1301630D01*
X785781Y1299798D01*
X785351Y1297636D01*
X785781Y1295474D01*
X787006Y1293642D01*
X788838Y1292417D01*
X791000Y1291987D01*
X793162Y1292417D01*
X794994Y1293642D01*
X796218Y1295474D01*
X796648Y1297636D01*
X796218Y1299798D01*
X794994Y1301630D01*
X794915Y1301683D01*
X796600Y1324737D01*
X796583Y1324869D01*
X796609Y1325000D01*
X796497Y1325564D01*
X796426Y1326134D01*
X796361Y1326250D01*
X796335Y1326381D01*
X796015Y1326859D01*
X795731Y1327359D01*
X795626Y1327441D01*
X795552Y1327552D01*
X786152Y1336952D01*
X784981Y1337735D01*
X783600Y1338009D01*
X770913D01*
X770207Y1339716D01*
X768517Y1341917D01*
X766316Y1343607D01*
X763752Y1344669D01*
X761000Y1345031D01*
X758249Y1344669D01*
X755685Y1343607D01*
X753483Y1341917D01*
X751793Y1339716D01*
X750921Y1337609D01*
X746000D01*
X744619Y1337335D01*
X743448Y1336552D01*
X738448Y1331552D01*
X737665Y1330381D01*
X737659Y1330348D01*
X736389Y1330473D01*
Y1361969D01*
X736469Y1362088D01*
X736497Y1362229D01*
X744634Y1370366D01*
X745748Y1372034D01*
X746139Y1374000D01*
Y1382139D01*
X752000Y1388000D01*
X776511D01*
X776838Y1387782D01*
X779000Y1387352D01*
X781162Y1387782D01*
X781489Y1388000D01*
X807391D01*
Y1242000D01*
X807665Y1240619D01*
X808448Y1239448D01*
X863448Y1184448D01*
X864619Y1183665D01*
X866000Y1183391D01*
X1335870D01*
X1337251Y1183665D01*
X1338422Y1184448D01*
X1350365Y1196391D01*
X1592870D01*
X1594251Y1196665D01*
X1595422Y1197448D01*
X1625552Y1227578D01*
X1626335Y1228749D01*
X1626609Y1230130D01*
Y1264635D01*
X1654495Y1292521D01*
X1658130D01*
X1659511Y1292795D01*
X1660682Y1293578D01*
X1673495Y1306391D01*
X1679000D01*
X1680381Y1306665D01*
X1681552Y1307448D01*
X1707552Y1333448D01*
X1708335Y1334619D01*
X1708609Y1336000D01*
Y1410000D01*
X1708609Y1410000D01*
X1708335Y1411381D01*
X1707552Y1412552D01*
X1688352Y1431752D01*
X1687181Y1432535D01*
X1685800Y1432809D01*
X1682313D01*
X1681607Y1434516D01*
X1679917Y1436717D01*
X1677715Y1438407D01*
X1675152Y1439469D01*
X1672400Y1439831D01*
X1669648Y1439469D01*
X1667085Y1438407D01*
X1664883Y1436717D01*
X1663193Y1434516D01*
X1662131Y1431951D01*
X1661769Y1429200D01*
X1662131Y1426449D01*
X1663193Y1423885D01*
X1664883Y1421683D01*
X1667085Y1419993D01*
X1669648Y1418931D01*
X1672400Y1418569D01*
Y1414431D01*
X1669648Y1414069D01*
X1667085Y1413007D01*
X1664883Y1411317D01*
X1663193Y1409115D01*
X1662131Y1406552D01*
X1661769Y1403800D01*
X1662131Y1401048D01*
X1663193Y1398485D01*
X1664883Y1396283D01*
X1667085Y1394593D01*
X1669648Y1393531D01*
X1672400Y1393169D01*
Y1389031D01*
X1669648Y1388669D01*
X1667085Y1387607D01*
X1664883Y1385917D01*
X1663193Y1383716D01*
X1662131Y1381151D01*
X1661769Y1378400D01*
X1662131Y1375648D01*
X1663193Y1373085D01*
X1664883Y1370883D01*
X1667085Y1369193D01*
X1669648Y1368131D01*
X1672400Y1367769D01*
Y1363631D01*
X1669648Y1363269D01*
X1667085Y1362207D01*
X1664883Y1360517D01*
X1663193Y1358315D01*
X1662131Y1355751D01*
X1661769Y1353000D01*
X1662131Y1350249D01*
X1663193Y1347685D01*
X1664883Y1345483D01*
X1664913Y1345018D01*
X1631448Y1311552D01*
X1630665Y1310381D01*
X1630391Y1309000D01*
Y1305495D01*
X1601448Y1276552D01*
X1600665Y1275381D01*
X1600391Y1274000D01*
Y1244599D01*
X1578401Y1222609D01*
X1341000D01*
X1339619Y1222335D01*
X1338448Y1221552D01*
X1326505Y1209609D01*
X1221391D01*
X1212754Y1218246D01*
X1213172Y1219624D01*
X1213381Y1219665D01*
X1214544Y1220442D01*
X1215000Y1220351D01*
X1217162Y1220781D01*
X1218994Y1222006D01*
X1220219Y1223838D01*
X1220648Y1226000D01*
X1220219Y1228162D01*
X1218994Y1229994D01*
X1217162Y1231219D01*
X1215000Y1231648D01*
X1212838Y1231219D01*
X1211006Y1229994D01*
X1209781Y1228162D01*
X1209473Y1226609D01*
X928554D01*
X928028Y1227879D01*
X928971Y1228822D01*
X929994Y1229506D01*
X931219Y1231338D01*
X931648Y1233500D01*
X931219Y1235662D01*
X929994Y1237494D01*
Y1240006D01*
X931219Y1241838D01*
X931648Y1244000D01*
X931219Y1246162D01*
X929994Y1247994D01*
Y1258006D01*
X931219Y1259838D01*
X931648Y1262000D01*
X931219Y1264162D01*
X929994Y1265994D01*
Y1274006D01*
X931219Y1275838D01*
X931648Y1278000D01*
X931219Y1280162D01*
X929994Y1281994D01*
X928162Y1283219D01*
X926000Y1283649D01*
X923838Y1283219D01*
X922006Y1281994D01*
X913110D01*
X890609Y1304495D01*
Y1373609D01*
X902000Y1385000D01*
X916069Y1399069D01*
X917605Y1398809D01*
X918087Y1398087D01*
X923395Y1392779D01*
X923781Y1390838D01*
X925006Y1389006D01*
X926838Y1387782D01*
X929000Y1387352D01*
X931162Y1387782D01*
X932994Y1389006D01*
X934219Y1390838D01*
X934649Y1393000D01*
X934219Y1395162D01*
X932994Y1396994D01*
X931162Y1398219D01*
X929221Y1398605D01*
X925119Y1402706D01*
Y1530193D01*
X926219Y1531838D01*
X926648Y1534000D01*
X926219Y1536162D01*
X925119Y1537807D01*
Y1603690D01*
X925219Y1603838D01*
X925648Y1606000D01*
X925219Y1608162D01*
X925119Y1608310D01*
Y1611000D01*
X924806Y1612576D01*
X924119Y1613604D01*
Y1659000D01*
X923806Y1660576D01*
X922913Y1661913D01*
X917119Y1667706D01*
Y1797255D01*
X917494Y1797506D01*
X918719Y1799338D01*
X919148Y1801500D01*
X918719Y1803662D01*
X917494Y1805494D01*
X915662Y1806719D01*
X913500Y1807148D01*
X911338Y1806719D01*
X909506Y1805494D01*
X908281Y1803662D01*
X907851Y1801500D01*
X908281Y1799338D01*
X908881Y1798441D01*
Y1668779D01*
X907708Y1668292D01*
X843000Y1733000D01*
Y1765000D01*
X798609Y1809391D01*
Y1885505D01*
X803546Y1890442D01*
X804000Y1890352D01*
X806162Y1890781D01*
X807994Y1892006D01*
X809219Y1893838D01*
X809649Y1896000D01*
X809219Y1898162D01*
X807994Y1899994D01*
X806162Y1901219D01*
X804000Y1901649D01*
X801838Y1901219D01*
X800006Y1899994D01*
X798781Y1898162D01*
X798352Y1896000D01*
X798442Y1895546D01*
X796173Y1893278D01*
X795000Y1893764D01*
X795000Y1922096D01*
X795552Y1922648D01*
X796335Y1923819D01*
X796609Y1925200D01*
Y1926749D01*
X796994Y1927006D01*
X798219Y1928838D01*
X798649Y1931000D01*
X798219Y1933162D01*
X796994Y1934994D01*
X796609Y1935251D01*
Y1949000D01*
X796335Y1950381D01*
X795552Y1951552D01*
X794609Y1952495D01*
Y2042749D01*
X794994Y2043006D01*
X796218Y2044838D01*
X796648Y2047000D01*
X796218Y2049162D01*
X794994Y2050994D01*
X793162Y2052219D01*
X791000Y2052648D01*
X788838Y2052219D01*
X787006Y2050994D01*
X785781Y2049162D01*
X785351Y2047000D01*
X785781Y2044838D01*
X787006Y2043006D01*
X787391Y2042749D01*
Y1965776D01*
X786497Y1965428D01*
X786121Y1965428D01*
X784517Y1967517D01*
X782316Y1969207D01*
X779752Y1970269D01*
X778270Y1970464D01*
Y1960000D01*
Y1949536D01*
X779752Y1949731D01*
X782316Y1950793D01*
X784517Y1952483D01*
X786121Y1954572D01*
X786497Y1954572D01*
X787391Y1954224D01*
Y1951000D01*
X787665Y1949619D01*
X788448Y1948448D01*
X788626Y1948270D01*
X788100Y1947000D01*
X764609Y1947000D01*
Y2072505D01*
X785552Y2093448D01*
X786335Y2094619D01*
X786609Y2096000D01*
Y2149000D01*
X786609Y2149000D01*
X786335Y2150381D01*
X786000Y2150882D01*
Y2154000D01*
X783104D01*
X781558Y2155546D01*
X781648Y2156000D01*
X781219Y2158162D01*
X779994Y2159994D01*
X778162Y2161219D01*
X776000Y2161649D01*
D02*
G37*
G36*
X1289000Y2149648D02*
X1286838Y2149219D01*
X1285006Y2147994D01*
X1283781Y2146162D01*
X1283351Y2144000D01*
X1283781Y2141838D01*
X1283861Y2141719D01*
Y2083129D01*
X1281979Y2081247D01*
X1281838Y2081219D01*
X1280006Y2079994D01*
X1278781Y2078162D01*
X1278352Y2076000D01*
X1278781Y2073838D01*
X1280006Y2072006D01*
X1281838Y2070781D01*
X1284000Y2070352D01*
X1286162Y2070781D01*
X1287994Y2072006D01*
X1289219Y2073838D01*
X1289247Y2073979D01*
X1292634Y2077366D01*
X1293748Y2079034D01*
X1294139Y2081000D01*
Y2141719D01*
X1294218Y2141838D01*
X1294648Y2144000D01*
X1294218Y2146162D01*
X1292994Y2147994D01*
X1291162Y2149219D01*
X1289000Y2149648D01*
D02*
G37*
G36*
X1638000Y2082657D02*
X1634465Y2082191D01*
X1631172Y2080827D01*
X1628343Y2078657D01*
X1626173Y2075828D01*
X1624809Y2072535D01*
X1624343Y2069000D01*
X1624809Y2065465D01*
X1626173Y2062172D01*
X1628343Y2059343D01*
X1631172Y2057173D01*
X1634465Y2055809D01*
X1638000Y2055343D01*
X1641535Y2055809D01*
X1644828Y2057173D01*
X1647657Y2059343D01*
X1649827Y2062172D01*
X1651192Y2065465D01*
X1651657Y2069000D01*
X1651192Y2072535D01*
X1649827Y2075828D01*
X1647657Y2078657D01*
X1644828Y2080827D01*
X1641535Y2082191D01*
X1638000Y2082657D01*
D02*
G37*
G36*
X775730Y1970464D02*
X774249Y1970269D01*
X771684Y1969207D01*
X769483Y1967517D01*
X767793Y1965316D01*
X766731Y1962751D01*
X766536Y1961270D01*
X775730D01*
Y1970464D01*
D02*
G37*
G36*
X446600Y2029205D02*
X444632Y2028946D01*
X442798Y2028186D01*
X441222Y2026978D01*
X440014Y2025403D01*
X439254Y2023568D01*
X438995Y2021600D01*
Y1968600D01*
X439254Y1966632D01*
X440014Y1964798D01*
X441222Y1963223D01*
X442798Y1962014D01*
X444632Y1961254D01*
X446600Y1960995D01*
X448568Y1961254D01*
X450403Y1962014D01*
X451978Y1963223D01*
X453186Y1964798D01*
X453946Y1966632D01*
X454205Y1968600D01*
Y2021600D01*
X453946Y2023568D01*
X453186Y2025403D01*
X451978Y2026978D01*
X450403Y2028186D01*
X448568Y2028946D01*
X446600Y2029205D01*
D02*
G37*
G36*
X1677270Y2211556D02*
Y2175270D01*
X1713556D01*
X1713192Y2179891D01*
X1711813Y2185636D01*
X1709552Y2191095D01*
X1706464Y2196134D01*
X1702627Y2200627D01*
X1698134Y2204464D01*
X1693096Y2207552D01*
X1687636Y2209813D01*
X1681891Y2211192D01*
X1677270Y2211556D01*
D02*
G37*
G36*
X1253000Y2029884D02*
X1251131Y2029512D01*
X1249547Y2028453D01*
X1248488Y2026869D01*
X1248116Y2025000D01*
X1248488Y2023131D01*
X1249547Y2021547D01*
X1251131Y2020488D01*
X1253000Y2020116D01*
X1254869Y2020488D01*
X1256453Y2021547D01*
X1257512Y2023131D01*
X1257884Y2025000D01*
X1257512Y2026869D01*
X1256453Y2028453D01*
X1254869Y2029512D01*
X1253000Y2029884D01*
D02*
G37*
G36*
X1583000Y2082657D02*
X1579465Y2082191D01*
X1576172Y2080827D01*
X1573343Y2078657D01*
X1571173Y2075828D01*
X1569809Y2072535D01*
X1569343Y2069000D01*
X1569809Y2065465D01*
X1571173Y2062172D01*
X1573343Y2059343D01*
X1576172Y2057173D01*
X1579465Y2055809D01*
X1583000Y2055343D01*
X1586535Y2055809D01*
X1589828Y2057173D01*
X1592657Y2059343D01*
X1594827Y2062172D01*
X1596192Y2065465D01*
X1596657Y2069000D01*
X1596192Y2072535D01*
X1594827Y2075828D01*
X1592657Y2078657D01*
X1589828Y2080827D01*
X1586535Y2082191D01*
X1583000Y2082657D01*
D02*
G37*
G36*
X1711000Y2086625D02*
X1707561Y2086286D01*
X1704255Y2085283D01*
X1701208Y2083654D01*
X1698537Y2081463D01*
X1696346Y2078792D01*
X1694717Y2075745D01*
X1693714Y2072439D01*
X1693375Y2069000D01*
X1693714Y2065562D01*
X1694717Y2062255D01*
X1696346Y2059208D01*
X1698537Y2056537D01*
X1701208Y2054346D01*
X1704255Y2052717D01*
X1707561Y2051714D01*
X1711000Y2051375D01*
X1714438Y2051714D01*
X1717745Y2052717D01*
X1720792Y2054346D01*
X1723463Y2056537D01*
X1725654Y2059208D01*
X1727283Y2062255D01*
X1728286Y2065562D01*
X1728625Y2069000D01*
X1728286Y2072439D01*
X1727283Y2075745D01*
X1725654Y2078792D01*
X1723463Y2081463D01*
X1720792Y2083654D01*
X1717745Y2085283D01*
X1714438Y2086286D01*
X1711000Y2086625D01*
D02*
G37*
G36*
X591600Y2186205D02*
X422000D01*
X420032Y2185946D01*
X418198Y2185186D01*
X416622Y2183978D01*
X408622Y2175978D01*
X407414Y2174403D01*
X406654Y2172568D01*
X406395Y2170600D01*
Y2083150D01*
X370850Y2047605D01*
X352741D01*
X351987Y2048587D01*
X349472Y2050517D01*
X346543Y2051730D01*
X344041Y2052059D01*
Y2053340D01*
X346543Y2053670D01*
X349472Y2054883D01*
X351987Y2056813D01*
X353917Y2059328D01*
X355130Y2062257D01*
X355544Y2065400D01*
X355130Y2068543D01*
X353917Y2071472D01*
X351987Y2073987D01*
X349472Y2075917D01*
X346543Y2077130D01*
X343400Y2077544D01*
X340257Y2077130D01*
X339777Y2076931D01*
X339208Y2078067D01*
X341529Y2079972D01*
X343433Y2082292D01*
X344848Y2084940D01*
X345719Y2087812D01*
X346014Y2090800D01*
X345719Y2093788D01*
X344848Y2096660D01*
X343433Y2099308D01*
X341529Y2101629D01*
X339208Y2103533D01*
X336560Y2104948D01*
X333688Y2105820D01*
X330700Y2106114D01*
X327712Y2105820D01*
X324840Y2104948D01*
X322192Y2103533D01*
X319872Y2101629D01*
X317967Y2099308D01*
X316552Y2096660D01*
X315681Y2093788D01*
X315386Y2090800D01*
X315681Y2087812D01*
X316552Y2084940D01*
X317967Y2082292D01*
X319872Y2079972D01*
X322192Y2078067D01*
X321623Y2076931D01*
X321143Y2077130D01*
X318000Y2077544D01*
X314857Y2077130D01*
X311928Y2075917D01*
X309413Y2073987D01*
X307483Y2071472D01*
X306270Y2068543D01*
X305856Y2065400D01*
X306270Y2062257D01*
X307483Y2059328D01*
X309413Y2056813D01*
X311928Y2054883D01*
X314857Y2053670D01*
X317359Y2053340D01*
Y2052059D01*
X314857Y2051730D01*
X311928Y2050517D01*
X309413Y2048587D01*
X307483Y2046072D01*
X306270Y2043143D01*
X306023Y2041270D01*
X318000D01*
Y2038730D01*
X306023D01*
X306270Y2036857D01*
X307483Y2033928D01*
X309413Y2031413D01*
X311928Y2029483D01*
X314857Y2028270D01*
X317359Y2027941D01*
Y2026660D01*
X314857Y2026330D01*
X311928Y2025117D01*
X309413Y2023187D01*
X307483Y2020672D01*
X306270Y2017743D01*
X305856Y2014600D01*
X306270Y2011457D01*
X307125Y2009392D01*
X285366Y1987634D01*
X284252Y1985966D01*
X283861Y1984000D01*
Y1607000D01*
X284252Y1605034D01*
X285366Y1603366D01*
X304649Y1584084D01*
X304596Y1583954D01*
X304147Y1580550D01*
X304596Y1577146D01*
X305910Y1573974D01*
X308000Y1571250D01*
X309823Y1569850D01*
Y1568250D01*
X308000Y1566850D01*
X305910Y1564126D01*
X304596Y1560954D01*
X304147Y1557550D01*
X304596Y1554146D01*
X305910Y1550974D01*
X308000Y1548250D01*
X310724Y1546160D01*
X313896Y1544846D01*
X317300Y1544397D01*
X320704Y1544846D01*
X323876Y1546160D01*
X326600Y1548250D01*
X328690Y1550974D01*
X330004Y1554146D01*
X330452Y1557550D01*
X330004Y1560954D01*
X328690Y1564126D01*
X326600Y1566850D01*
X324777Y1568250D01*
Y1569850D01*
X326600Y1571250D01*
X328690Y1573974D01*
X330004Y1577146D01*
X330452Y1580550D01*
X330004Y1583954D01*
X328690Y1587126D01*
X326600Y1589850D01*
X323876Y1591940D01*
X320704Y1593254D01*
X317300Y1593703D01*
X313896Y1593254D01*
X311150Y1592117D01*
X294139Y1609129D01*
Y1981871D01*
X305275Y1993008D01*
X305657Y1992753D01*
X306249Y1992186D01*
X306023Y1990470D01*
X318000D01*
Y1987930D01*
X306023D01*
X306270Y1986057D01*
X307483Y1983128D01*
X309413Y1980613D01*
X311928Y1978683D01*
X314857Y1977470D01*
X317359Y1977141D01*
Y1975860D01*
X314857Y1975530D01*
X311928Y1974317D01*
X309413Y1972387D01*
X307483Y1969872D01*
X306270Y1966943D01*
X305856Y1963800D01*
X306270Y1960657D01*
X307483Y1957728D01*
X309413Y1955213D01*
X311928Y1953283D01*
X314857Y1952070D01*
X317359Y1951741D01*
Y1950459D01*
X314857Y1950130D01*
X311928Y1948917D01*
X309413Y1946987D01*
X307483Y1944472D01*
X306270Y1941543D01*
X305856Y1938400D01*
X306270Y1935257D01*
X307483Y1932328D01*
X309413Y1929813D01*
X311928Y1927883D01*
X314857Y1926670D01*
X317359Y1926340D01*
Y1925060D01*
X314857Y1924730D01*
X311928Y1923517D01*
X309413Y1921587D01*
X307483Y1919072D01*
X306270Y1916143D01*
X305856Y1913000D01*
X306270Y1909857D01*
X307483Y1906928D01*
X309413Y1904413D01*
X311928Y1902483D01*
X314857Y1901270D01*
X317359Y1900941D01*
Y1899659D01*
X314857Y1899330D01*
X311928Y1898117D01*
X309413Y1896187D01*
X307483Y1893672D01*
X306270Y1890743D01*
X305856Y1887600D01*
X306270Y1884457D01*
X307483Y1881528D01*
X309413Y1879013D01*
X311928Y1877083D01*
X314857Y1875870D01*
X317359Y1875540D01*
Y1874259D01*
X314857Y1873930D01*
X311928Y1872717D01*
X309413Y1870787D01*
X307483Y1868272D01*
X306270Y1865343D01*
X305856Y1862200D01*
X306270Y1859057D01*
X307483Y1856128D01*
X309413Y1853613D01*
X311928Y1851683D01*
X314857Y1850470D01*
X317359Y1850141D01*
Y1848860D01*
X314857Y1848530D01*
X311928Y1847317D01*
X309413Y1845387D01*
X307483Y1842872D01*
X306270Y1839943D01*
X305856Y1836800D01*
X306270Y1833657D01*
X307483Y1830728D01*
X309413Y1828213D01*
X311928Y1826283D01*
X314857Y1825070D01*
X318000Y1824656D01*
X321143Y1825070D01*
X321623Y1825269D01*
X322192Y1824133D01*
X319872Y1822229D01*
X317967Y1819908D01*
X316552Y1817260D01*
X315681Y1814388D01*
X315386Y1811400D01*
X315681Y1808412D01*
X316552Y1805540D01*
X317967Y1802892D01*
X319872Y1800572D01*
X322192Y1798667D01*
X324840Y1797252D01*
X327712Y1796380D01*
X330700Y1796086D01*
X333688Y1796380D01*
X336560Y1797252D01*
X339208Y1798667D01*
X341529Y1800572D01*
X343433Y1802892D01*
X344848Y1805540D01*
X345719Y1808412D01*
X346014Y1811400D01*
X345719Y1814388D01*
X344848Y1817260D01*
X343433Y1819908D01*
X341529Y1822229D01*
X339208Y1824133D01*
X339777Y1825269D01*
X340257Y1825070D01*
X343400Y1824656D01*
X346543Y1825070D01*
X349472Y1826283D01*
X351987Y1828213D01*
X353917Y1830728D01*
X355130Y1833657D01*
X355544Y1836800D01*
X355130Y1839943D01*
X353917Y1842872D01*
X351987Y1845387D01*
X349472Y1847317D01*
X346543Y1848530D01*
X344041Y1848860D01*
Y1850141D01*
X346543Y1850470D01*
X349472Y1851683D01*
X351987Y1853613D01*
X353917Y1856128D01*
X355130Y1859057D01*
X355544Y1862200D01*
X355130Y1865343D01*
X353917Y1868272D01*
X351987Y1870787D01*
X349472Y1872717D01*
X346543Y1873930D01*
X344041Y1874259D01*
Y1875540D01*
X346543Y1875870D01*
X349472Y1877083D01*
X351987Y1879013D01*
X353917Y1881528D01*
X355130Y1884457D01*
X355544Y1887600D01*
X355130Y1890743D01*
X353917Y1893672D01*
X351987Y1896187D01*
X349472Y1898117D01*
X346543Y1899330D01*
X344041Y1899659D01*
Y1900941D01*
X346543Y1901270D01*
X349472Y1902483D01*
X351987Y1904413D01*
X353917Y1906928D01*
X355130Y1909857D01*
X355544Y1913000D01*
X355130Y1916143D01*
X353917Y1919072D01*
X351987Y1921587D01*
X349472Y1923517D01*
X346543Y1924730D01*
X344041Y1925060D01*
Y1926340D01*
X346543Y1926670D01*
X349472Y1927883D01*
X351987Y1929813D01*
X352894Y1930995D01*
X591600D01*
X593568Y1931254D01*
X595402Y1932014D01*
X596978Y1933223D01*
X598186Y1934798D01*
X598946Y1936632D01*
X599205Y1938600D01*
X598946Y1940568D01*
X598186Y1942403D01*
X596978Y1943978D01*
X595402Y1945186D01*
X593568Y1945946D01*
X591600Y1946205D01*
X352587D01*
X351987Y1946987D01*
X349472Y1948917D01*
X346543Y1950130D01*
X344041Y1950459D01*
Y1951741D01*
X346543Y1952070D01*
X349472Y1953283D01*
X351987Y1955213D01*
X353917Y1957728D01*
X355130Y1960657D01*
X355544Y1963800D01*
X355130Y1966943D01*
X353917Y1969872D01*
X351987Y1972387D01*
X349472Y1974317D01*
X346543Y1975530D01*
X344041Y1975860D01*
Y1977141D01*
X346543Y1977470D01*
X349472Y1978683D01*
X351987Y1980613D01*
X352741Y1981595D01*
X367200D01*
X369168Y1981854D01*
X371003Y1982614D01*
X372578Y1983822D01*
X433750Y2044995D01*
X591600D01*
X593568Y2045254D01*
X595402Y2046014D01*
X596978Y2047222D01*
X598186Y2048797D01*
X598946Y2050632D01*
X599205Y2052600D01*
X598946Y2054568D01*
X598186Y2056403D01*
X596978Y2057978D01*
X595402Y2059186D01*
X593568Y2059946D01*
X591600Y2060205D01*
X430600D01*
X428632Y2059946D01*
X426797Y2059186D01*
X425223Y2057978D01*
X364050Y1996805D01*
X352741D01*
X351987Y1997787D01*
X349472Y1999717D01*
X346543Y2000930D01*
X344041Y2001259D01*
Y2002540D01*
X346543Y2002870D01*
X349472Y2004083D01*
X351987Y2006013D01*
X353917Y2008528D01*
X355130Y2011457D01*
X355544Y2014600D01*
X355130Y2017743D01*
X353917Y2020672D01*
X351987Y2023187D01*
X349472Y2025117D01*
X346543Y2026330D01*
X344041Y2026660D01*
Y2027941D01*
X346543Y2028270D01*
X349472Y2029483D01*
X351987Y2031413D01*
X352741Y2032395D01*
X374000D01*
X375968Y2032654D01*
X377803Y2033414D01*
X379378Y2034622D01*
X419378Y2074622D01*
X420586Y2076198D01*
X421346Y2078032D01*
X421605Y2080000D01*
Y2167450D01*
X425150Y2170995D01*
X591600D01*
X593568Y2171254D01*
X595402Y2172014D01*
X596978Y2173223D01*
X598186Y2174798D01*
X598946Y2176632D01*
X599205Y2178600D01*
X598946Y2180568D01*
X598186Y2182403D01*
X596978Y2183978D01*
X595402Y2185186D01*
X593568Y2185946D01*
X591600Y2186205D01*
D02*
G37*
G36*
X998979Y2137729D02*
X990169D01*
X990351Y2136347D01*
X991374Y2133875D01*
X993003Y2131753D01*
X995125Y2130124D01*
X997597Y2129101D01*
X998979Y2128919D01*
Y2137729D01*
D02*
G37*
G36*
X1049730Y2149081D02*
X1048348Y2148898D01*
X1045876Y2147875D01*
X1043754Y2146246D01*
X1042125Y2144124D01*
X1041102Y2141652D01*
X1040919Y2140270D01*
X1049730D01*
Y2149081D01*
D02*
G37*
G36*
X1001519Y2149080D02*
Y2140269D01*
X1010330D01*
X1010148Y2141651D01*
X1009124Y2144123D01*
X1007495Y2146245D01*
X1005373Y2147874D01*
X1002902Y2148898D01*
X1001519Y2149080D01*
D02*
G37*
G36*
X998979D02*
X997597Y2148898D01*
X995125Y2147874D01*
X993003Y2146245D01*
X991374Y2144123D01*
X990351Y2141651D01*
X990169Y2140269D01*
X998979D01*
Y2149080D01*
D02*
G37*
G36*
X1052270Y2149081D02*
Y2140270D01*
X1061080D01*
X1060899Y2141652D01*
X1059875Y2144124D01*
X1058246Y2146246D01*
X1056124Y2147875D01*
X1053652Y2148898D01*
X1052270Y2149081D01*
D02*
G37*
G36*
X1674730Y2211556D02*
X1670109Y2211192D01*
X1664364Y2209813D01*
X1658905Y2207552D01*
X1653866Y2204464D01*
X1649373Y2200627D01*
X1645536Y2196134D01*
X1642448Y2191095D01*
X1640187Y2185636D01*
X1638808Y2179891D01*
X1638444Y2175270D01*
X1674730D01*
Y2211556D01*
D02*
G37*
G36*
X349270D02*
Y2175270D01*
X385556D01*
X385192Y2179891D01*
X383813Y2185636D01*
X381552Y2191095D01*
X378464Y2196134D01*
X374627Y2200627D01*
X370134Y2204464D01*
X365095Y2207552D01*
X359636Y2209813D01*
X353891Y2211192D01*
X349270Y2211556D01*
D02*
G37*
G36*
X346730D02*
X342109Y2211192D01*
X336364Y2209813D01*
X330905Y2207552D01*
X325866Y2204464D01*
X321373Y2200627D01*
X317536Y2196134D01*
X314448Y2191095D01*
X312187Y2185636D01*
X310807Y2179891D01*
X310444Y2175270D01*
X346730D01*
Y2211556D01*
D02*
G37*
G36*
X1713556Y2172730D02*
X1677270D01*
Y2136444D01*
X1681891Y2136808D01*
X1687636Y2138187D01*
X1693096Y2140448D01*
X1698134Y2143536D01*
X1702627Y2147373D01*
X1706464Y2151866D01*
X1709552Y2156904D01*
X1711813Y2162364D01*
X1713192Y2168109D01*
X1713556Y2172730D01*
D02*
G37*
G36*
X1061080Y2137730D02*
X1052270D01*
Y2128920D01*
X1053652Y2129102D01*
X1056124Y2130125D01*
X1058246Y2131754D01*
X1059875Y2133876D01*
X1060899Y2136348D01*
X1061080Y2137730D01*
D02*
G37*
G36*
X1049730D02*
X1040919D01*
X1041102Y2136348D01*
X1042125Y2133876D01*
X1043754Y2131754D01*
X1045876Y2130125D01*
X1048348Y2129102D01*
X1049730Y2128920D01*
Y2137730D01*
D02*
G37*
G36*
X1010330Y2137729D02*
X1001519D01*
Y2128919D01*
X1002902Y2129101D01*
X1005373Y2130124D01*
X1007495Y2131753D01*
X1009124Y2133875D01*
X1010148Y2136347D01*
X1010330Y2137729D01*
D02*
G37*
G36*
X1025250Y2149498D02*
X1022598Y2149149D01*
X1020126Y2148125D01*
X1018004Y2146496D01*
X1016375Y2144374D01*
X1015351Y2141902D01*
X1015002Y2139250D01*
X1015351Y2136598D01*
X1016375Y2134126D01*
X1018004Y2132004D01*
X1020126Y2130375D01*
X1022598Y2129352D01*
X1025250Y2129002D01*
X1027902Y2129352D01*
X1030374Y2130375D01*
X1032496Y2132004D01*
X1034125Y2134126D01*
X1035148Y2136598D01*
X1035498Y2139250D01*
X1035148Y2141902D01*
X1034125Y2144374D01*
X1032496Y2146496D01*
X1030374Y2148125D01*
X1027902Y2149149D01*
X1025250Y2149498D01*
D02*
G37*
G36*
X1674730Y2172730D02*
X1638444D01*
X1638808Y2168109D01*
X1640187Y2162364D01*
X1642448Y2156904D01*
X1645536Y2151866D01*
X1649373Y2147373D01*
X1653866Y2143536D01*
X1658905Y2140448D01*
X1664364Y2138187D01*
X1670109Y2136808D01*
X1674730Y2136444D01*
Y2172730D01*
D02*
G37*
G36*
X385556D02*
X349270D01*
Y2136444D01*
X353891Y2136808D01*
X359636Y2138187D01*
X365095Y2140448D01*
X370134Y2143536D01*
X374627Y2147373D01*
X378464Y2151866D01*
X381552Y2156904D01*
X383813Y2162364D01*
X385192Y2168109D01*
X385556Y2172730D01*
D02*
G37*
G36*
X346730D02*
X310444D01*
X310807Y2168109D01*
X312187Y2162364D01*
X314448Y2156904D01*
X317536Y2151866D01*
X321373Y2147373D01*
X325866Y2143536D01*
X330905Y2140448D01*
X336364Y2138187D01*
X342109Y2136808D01*
X346730Y2136444D01*
Y2172730D01*
D02*
G37*
G36*
X1138000Y1706649D02*
X1135838Y1706219D01*
X1134006Y1704994D01*
X1133749Y1704609D01*
X1110000D01*
X1108619Y1704335D01*
X1107448Y1703552D01*
X1105732Y1701837D01*
X1105238Y1701739D01*
X1103406Y1700514D01*
X1102181Y1698682D01*
X1101751Y1696520D01*
X1102181Y1694358D01*
X1103406Y1692526D01*
X1105238Y1691302D01*
X1107400Y1690871D01*
X1109135Y1691217D01*
X1109352Y1691000D01*
X1109781Y1688838D01*
X1111006Y1687006D01*
X1112838Y1685781D01*
X1115000Y1685352D01*
X1117162Y1685781D01*
X1118994Y1687006D01*
X1119251Y1687391D01*
X1125081D01*
X1126006Y1686006D01*
X1127838Y1684781D01*
X1130000Y1684352D01*
X1132162Y1684781D01*
X1133994Y1686006D01*
X1135219Y1687838D01*
X1135648Y1690000D01*
X1135219Y1692162D01*
X1135196Y1692196D01*
X1138000Y1695000D01*
Y1695352D01*
X1140162Y1695781D01*
X1141994Y1697006D01*
X1143219Y1698838D01*
X1143649Y1701000D01*
X1143219Y1703162D01*
X1141994Y1704994D01*
X1140162Y1706219D01*
X1138000Y1706649D01*
D02*
G37*
G36*
X349300Y1695952D02*
X345896Y1695504D01*
X342724Y1694190D01*
X340000Y1692100D01*
X337910Y1689376D01*
X336596Y1686204D01*
X336147Y1682800D01*
X336596Y1679396D01*
X337910Y1676224D01*
X340000Y1673500D01*
X342724Y1671410D01*
X345896Y1670096D01*
X349300Y1669648D01*
X352704Y1670096D01*
X355876Y1671410D01*
X358600Y1673500D01*
X360690Y1676224D01*
X362004Y1679396D01*
X362453Y1682800D01*
X362004Y1686204D01*
X360690Y1689376D01*
X358600Y1692100D01*
X355876Y1694190D01*
X352704Y1695504D01*
X349300Y1695952D01*
D02*
G37*
G36*
X317300Y1698703D02*
X313896Y1698254D01*
X310724Y1696940D01*
X308000Y1694850D01*
X305910Y1692126D01*
X304596Y1688954D01*
X304147Y1685550D01*
X304596Y1682146D01*
X305910Y1678974D01*
X308000Y1676250D01*
X309823Y1674850D01*
Y1673250D01*
X308000Y1671850D01*
X305910Y1669126D01*
X304596Y1665954D01*
X304147Y1662550D01*
X304596Y1659146D01*
X305910Y1655974D01*
X308000Y1653250D01*
X310724Y1651160D01*
X313896Y1649846D01*
X317300Y1649397D01*
X320704Y1649846D01*
X323876Y1651160D01*
X326600Y1653250D01*
X328690Y1655974D01*
X330004Y1659146D01*
X330452Y1662550D01*
X330004Y1665954D01*
X328690Y1669126D01*
X326600Y1671850D01*
X324777Y1673250D01*
Y1674850D01*
X326600Y1676250D01*
X328690Y1678974D01*
X330004Y1682146D01*
X330452Y1685550D01*
X330004Y1688954D01*
X328690Y1692126D01*
X326600Y1694850D01*
X323876Y1696940D01*
X320704Y1698254D01*
X317300Y1698703D01*
D02*
G37*
G36*
X1070000Y1710648D02*
X1067838Y1710219D01*
X1066006Y1708994D01*
X1065749Y1708609D01*
X1007251D01*
X1006994Y1708994D01*
X1005162Y1710219D01*
X1003000Y1710648D01*
X1000838Y1710219D01*
X999006Y1708994D01*
X997781Y1707162D01*
X997352Y1705000D01*
X997781Y1702838D01*
X998768Y1701362D01*
X998918Y1700500D01*
X998768Y1699638D01*
X997781Y1698162D01*
X997352Y1696000D01*
X997781Y1693838D01*
X999006Y1692006D01*
X1000838Y1690782D01*
X1003000Y1690352D01*
X1005162Y1690782D01*
X1006994Y1692006D01*
X1007251Y1692391D01*
X1081749D01*
X1082006Y1692006D01*
X1083838Y1690782D01*
X1086000Y1690352D01*
X1088162Y1690782D01*
X1089994Y1692006D01*
X1091219Y1693838D01*
X1091648Y1696000D01*
X1091219Y1698162D01*
X1089994Y1699994D01*
X1088162Y1701219D01*
X1086000Y1701649D01*
X1083838Y1701219D01*
X1082006Y1699994D01*
X1081749Y1699609D01*
X1074190D01*
X1073805Y1700879D01*
X1073994Y1701006D01*
X1075219Y1702838D01*
X1075648Y1705000D01*
X1075219Y1707162D01*
X1073994Y1708994D01*
X1072162Y1710219D01*
X1070000Y1710648D01*
D02*
G37*
G36*
X330000Y1750314D02*
X327012Y1750020D01*
X324140Y1749148D01*
X321492Y1747733D01*
X319172Y1745829D01*
X317267Y1743508D01*
X315852Y1740860D01*
X314981Y1737988D01*
X314686Y1735000D01*
X314981Y1732012D01*
X315852Y1729140D01*
X317267Y1726492D01*
X319172Y1724172D01*
X321492Y1722267D01*
X324140Y1720852D01*
X327012Y1719980D01*
X330000Y1719686D01*
X332988Y1719980D01*
X335860Y1720852D01*
X338508Y1722267D01*
X340829Y1724172D01*
X342733Y1726492D01*
X344148Y1729140D01*
X345019Y1732012D01*
X345314Y1735000D01*
X345019Y1737988D01*
X344148Y1740860D01*
X342733Y1743508D01*
X340829Y1745829D01*
X338508Y1747733D01*
X335860Y1749148D01*
X332988Y1750020D01*
X330000Y1750314D01*
D02*
G37*
G36*
X1073000Y1805648D02*
X1070838Y1805219D01*
X1069006Y1803994D01*
X1067781Y1802162D01*
X1067352Y1800000D01*
X1067781Y1797838D01*
X1069006Y1796006D01*
X1070838Y1794781D01*
X1073000Y1794352D01*
X1073687Y1794488D01*
X1076881Y1791294D01*
Y1725807D01*
X1075781Y1724162D01*
X1075351Y1722000D01*
X1075781Y1719838D01*
X1077006Y1718006D01*
X1078838Y1716781D01*
X1081000Y1716351D01*
X1083162Y1716781D01*
X1084994Y1718006D01*
X1086219Y1719838D01*
X1086648Y1722000D01*
X1086219Y1724162D01*
X1085119Y1725807D01*
Y1793000D01*
X1084806Y1794576D01*
X1083913Y1795913D01*
X1078356Y1801469D01*
X1078219Y1802162D01*
X1076994Y1803994D01*
X1075162Y1805219D01*
X1073000Y1805648D01*
D02*
G37*
G36*
X1016000Y1796649D02*
X1013838Y1796219D01*
X1012006Y1794994D01*
X1010781Y1793162D01*
X1010351Y1791000D01*
X1010781Y1788838D01*
X1012006Y1787006D01*
X1012391Y1786749D01*
Y1725251D01*
X1012006Y1724994D01*
X1010781Y1723162D01*
X1010351Y1721000D01*
X1010781Y1718838D01*
X1012006Y1717006D01*
X1013838Y1715782D01*
X1016000Y1715352D01*
X1018162Y1715782D01*
X1019994Y1717006D01*
X1021219Y1718838D01*
X1021648Y1721000D01*
X1021219Y1723162D01*
X1019994Y1724994D01*
X1019609Y1725251D01*
Y1786749D01*
X1019994Y1787006D01*
X1021219Y1788838D01*
X1021648Y1791000D01*
X1021219Y1793162D01*
X1019994Y1794994D01*
X1018162Y1796219D01*
X1016000Y1796649D01*
D02*
G37*
G36*
X349300Y1660952D02*
X345896Y1660504D01*
X342724Y1659190D01*
X340000Y1657100D01*
X337910Y1654376D01*
X336596Y1651204D01*
X336147Y1647800D01*
X336596Y1644396D01*
X337910Y1641224D01*
X340000Y1638500D01*
X342724Y1636410D01*
X345896Y1635096D01*
X349300Y1634648D01*
X352704Y1635096D01*
X355876Y1636410D01*
X358600Y1638500D01*
X360690Y1641224D01*
X362004Y1644396D01*
X362453Y1647800D01*
X362004Y1651204D01*
X360690Y1654376D01*
X358600Y1657100D01*
X355876Y1659190D01*
X352704Y1660504D01*
X349300Y1660952D01*
D02*
G37*
G36*
X330285Y1608780D02*
X318570D01*
Y1597065D01*
X320704Y1597346D01*
X323876Y1598660D01*
X326600Y1600750D01*
X328690Y1603474D01*
X330004Y1606646D01*
X330285Y1608780D01*
D02*
G37*
G36*
X316030D02*
X304315D01*
X304596Y1606646D01*
X305910Y1603474D01*
X308000Y1600750D01*
X310724Y1598660D01*
X313896Y1597346D01*
X316030Y1597065D01*
Y1608780D01*
D02*
G37*
G36*
X935000Y1807648D02*
X932838Y1807219D01*
X931006Y1805994D01*
X929781Y1804162D01*
X929352Y1802000D01*
X929781Y1799838D01*
X930381Y1798941D01*
Y1725059D01*
X929781Y1724162D01*
X929352Y1722000D01*
X929781Y1719838D01*
X930381Y1718941D01*
Y1679500D01*
X930694Y1677924D01*
X931587Y1676587D01*
X952881Y1655294D01*
Y1650807D01*
X951781Y1649162D01*
X951351Y1647000D01*
X951781Y1644838D01*
X953006Y1643006D01*
X953881Y1642421D01*
Y1573119D01*
X951807D01*
X950162Y1574219D01*
X948000Y1574648D01*
X945838Y1574219D01*
X944006Y1572994D01*
X942782Y1571162D01*
X942352Y1569000D01*
X942782Y1566838D01*
X944006Y1565006D01*
X945838Y1563781D01*
X948000Y1563351D01*
X950162Y1563781D01*
X951807Y1564881D01*
X953881D01*
Y1497807D01*
X952781Y1496162D01*
X952352Y1494000D01*
X952781Y1491838D01*
X953881Y1490193D01*
Y1396000D01*
X954194Y1394424D01*
X955087Y1393087D01*
X956488Y1391687D01*
X956351Y1391000D01*
X956781Y1388838D01*
X958006Y1387006D01*
X959838Y1385782D01*
X962000Y1385352D01*
X964162Y1385782D01*
X965994Y1387006D01*
X967219Y1388838D01*
X967648Y1391000D01*
X967219Y1393162D01*
X965994Y1394994D01*
X964162Y1396219D01*
X963469Y1396356D01*
X962119Y1397706D01*
Y1401583D01*
X963239Y1402182D01*
X963838Y1401781D01*
X966000Y1401351D01*
X968162Y1401781D01*
X969994Y1403006D01*
X970251Y1403391D01*
X1022609D01*
X1022750Y1403250D01*
X1038591D01*
X1039077Y1402077D01*
X1013000Y1376000D01*
Y1319000D01*
X1019000Y1313000D01*
X1193000D01*
X1201000Y1321000D01*
Y1372000D01*
X1183000Y1390000D01*
X1158000D01*
Y1391000D01*
X1152000Y1397000D01*
X1152000Y1434000D01*
X1118506Y1467494D01*
X1118830Y1468966D01*
X1119552Y1469448D01*
X1122113Y1472009D01*
X1122400Y1471951D01*
X1124562Y1472381D01*
X1126394Y1473606D01*
X1127619Y1475438D01*
X1128048Y1477600D01*
X1127619Y1479762D01*
X1126394Y1481594D01*
X1124562Y1482818D01*
X1122400Y1483248D01*
X1120238Y1482818D01*
X1118406Y1481594D01*
X1117181Y1479762D01*
X1116751Y1477600D01*
X1116875Y1476979D01*
X1115505Y1475609D01*
X1017000D01*
X1015619Y1475335D01*
X1014448Y1474552D01*
X994448Y1454552D01*
X993665Y1453381D01*
X993391Y1452000D01*
Y1433495D01*
X991505Y1431609D01*
X990251D01*
X989994Y1431994D01*
X988162Y1433219D01*
X986000Y1433649D01*
X983838Y1433219D01*
X982006Y1431994D01*
X980781Y1430162D01*
X980351Y1428000D01*
X980464Y1427434D01*
X979566Y1426536D01*
X979000Y1426649D01*
X976838Y1426219D01*
X975006Y1424994D01*
X973781Y1423162D01*
X973352Y1421000D01*
X973464Y1420434D01*
X972566Y1419536D01*
X972000Y1419648D01*
X969838Y1419218D01*
X968006Y1417994D01*
X966781Y1416162D01*
X966351Y1414000D01*
X966398Y1413766D01*
X965351Y1412520D01*
X963838Y1412219D01*
X963239Y1411818D01*
X962119Y1412417D01*
Y1490193D01*
X963219Y1491838D01*
X963649Y1494000D01*
X963219Y1496162D01*
X962119Y1497807D01*
Y1548685D01*
X963389Y1548811D01*
X963548Y1548011D01*
X963781Y1546838D01*
X965006Y1545006D01*
X966838Y1543781D01*
X969000Y1543351D01*
X971162Y1543781D01*
X972994Y1545006D01*
X974219Y1546838D01*
X974649Y1549000D01*
X974558Y1549456D01*
X975335Y1550619D01*
X975609Y1552000D01*
Y1557505D01*
X977731Y1559627D01*
X979006Y1560006D01*
X980838Y1558781D01*
X983000Y1558351D01*
X985162Y1558781D01*
X986994Y1560006D01*
X988219Y1561838D01*
X988649Y1564000D01*
X988219Y1566162D01*
X986994Y1567994D01*
X985162Y1569219D01*
X983000Y1569648D01*
X980838Y1569219D01*
X979006Y1567994D01*
X978749Y1567609D01*
X977000D01*
X975619Y1567335D01*
X974448Y1566552D01*
X969448Y1561552D01*
X968665Y1560381D01*
X968391Y1559000D01*
Y1554527D01*
X966838Y1554219D01*
X965006Y1552994D01*
X963781Y1551162D01*
X963548Y1549989D01*
X963389Y1549189D01*
X962119Y1549315D01*
Y1569000D01*
Y1643645D01*
X962306Y1643924D01*
X962619Y1645500D01*
X962485Y1646176D01*
X962648Y1647000D01*
X962218Y1649162D01*
X961119Y1650807D01*
Y1657000D01*
X960806Y1658576D01*
X959913Y1659913D01*
X938619Y1681206D01*
Y1717755D01*
X938994Y1718006D01*
X940219Y1719838D01*
X940648Y1722000D01*
X940219Y1724162D01*
X938994Y1725994D01*
X938619Y1726245D01*
Y1797755D01*
X938994Y1798006D01*
X940219Y1799838D01*
X940648Y1802000D01*
X940219Y1804162D01*
X938994Y1805994D01*
X937162Y1807219D01*
X935000Y1807648D01*
D02*
G37*
G36*
X349300Y1625952D02*
X345896Y1625504D01*
X342724Y1624190D01*
X340000Y1622100D01*
X337910Y1619376D01*
X336596Y1616204D01*
X336147Y1612800D01*
X336596Y1609396D01*
X337910Y1606224D01*
X340000Y1603500D01*
X342724Y1601410D01*
X345896Y1600096D01*
X349300Y1599648D01*
X352704Y1600096D01*
X355876Y1601410D01*
X358600Y1603500D01*
X360690Y1606224D01*
X362004Y1609396D01*
X362453Y1612800D01*
X362004Y1616204D01*
X360690Y1619376D01*
X358600Y1622100D01*
X355876Y1624190D01*
X352704Y1625504D01*
X349300Y1625952D01*
D02*
G37*
G36*
X318570Y1646035D02*
Y1634320D01*
X330285D01*
X330004Y1636454D01*
X328690Y1639626D01*
X326600Y1642350D01*
X323876Y1644440D01*
X320704Y1645754D01*
X318570Y1646035D01*
D02*
G37*
G36*
X316030D02*
X313896Y1645754D01*
X310724Y1644440D01*
X308000Y1642350D01*
X305910Y1639626D01*
X304596Y1636454D01*
X304315Y1634320D01*
X316030D01*
Y1646035D01*
D02*
G37*
G36*
X330285Y1631780D02*
X317300D01*
X304315D01*
X304596Y1629646D01*
X305910Y1626474D01*
X308000Y1623750D01*
X309823Y1622350D01*
Y1620750D01*
X308000Y1619350D01*
X305910Y1616626D01*
X304596Y1613454D01*
X304315Y1611320D01*
X317300D01*
X330285D01*
X330004Y1613454D01*
X328690Y1616626D01*
X326600Y1619350D01*
X324777Y1620750D01*
Y1622350D01*
X326600Y1623750D01*
X328690Y1626474D01*
X330004Y1629646D01*
X330285Y1631780D01*
D02*
G37*
G36*
X1242000Y1757648D02*
X1239838Y1757219D01*
X1238006Y1755994D01*
X1236781Y1754162D01*
X1236351Y1752000D01*
X1236516Y1751173D01*
X1235373Y1750409D01*
X1234162Y1751219D01*
X1232000Y1751649D01*
X1229838Y1751219D01*
X1228006Y1749994D01*
X1226781Y1748162D01*
X1226351Y1746000D01*
X1226464Y1745434D01*
X1225566Y1744536D01*
X1225000Y1744648D01*
X1222838Y1744219D01*
X1221006Y1742994D01*
X1219781Y1741162D01*
X1219352Y1739000D01*
X1219781Y1736838D01*
X1221006Y1735006D01*
X1222838Y1733781D01*
X1224050Y1733540D01*
X1226391Y1730731D01*
Y1618251D01*
X1226006Y1617994D01*
X1224781Y1616162D01*
X1224352Y1614000D01*
X1224781Y1611838D01*
X1226006Y1610006D01*
X1227838Y1608781D01*
X1230000Y1608351D01*
X1232162Y1608781D01*
X1233166Y1609452D01*
X1234577Y1608868D01*
X1234781Y1607838D01*
X1236006Y1606006D01*
X1237838Y1604781D01*
X1240000Y1604352D01*
X1242162Y1604781D01*
X1243994Y1606006D01*
X1245219Y1607838D01*
X1245610Y1609808D01*
X1246205Y1610086D01*
X1246883Y1610190D01*
X1247006Y1610006D01*
X1248838Y1608781D01*
X1251000Y1608351D01*
X1253162Y1608781D01*
X1254994Y1610006D01*
X1255121Y1610195D01*
X1256391Y1609810D01*
Y1604251D01*
X1256006Y1603994D01*
X1254781Y1602162D01*
X1254352Y1600000D01*
X1254781Y1597838D01*
X1256006Y1596006D01*
X1257838Y1594781D01*
X1260000Y1594352D01*
X1262162Y1594781D01*
X1263994Y1596006D01*
X1265219Y1597838D01*
X1265648Y1600000D01*
X1265219Y1602162D01*
X1263994Y1603994D01*
X1263609Y1604251D01*
Y1695505D01*
X1269552Y1701448D01*
X1270335Y1702619D01*
X1270609Y1704000D01*
X1270609Y1704000D01*
Y1712749D01*
X1270994Y1713006D01*
X1272219Y1714838D01*
X1272648Y1717000D01*
X1272219Y1719162D01*
X1270994Y1720994D01*
X1269162Y1722219D01*
X1267000Y1722648D01*
X1264838Y1722219D01*
X1264270Y1721839D01*
X1263000Y1722518D01*
Y1728000D01*
X1264000Y1729000D01*
X1254609Y1738391D01*
Y1743000D01*
X1254335Y1744381D01*
X1253552Y1745552D01*
X1247558Y1751546D01*
X1247648Y1752000D01*
X1247219Y1754162D01*
X1245994Y1755994D01*
X1244162Y1757219D01*
X1242000Y1757648D01*
D02*
G37*
G36*
X1689700Y1953014D02*
X1686712Y1952720D01*
X1683840Y1951848D01*
X1681192Y1950433D01*
X1678871Y1948528D01*
X1676967Y1946208D01*
X1675552Y1943560D01*
X1674680Y1940688D01*
X1674386Y1937700D01*
X1674680Y1934712D01*
X1675552Y1931840D01*
X1676967Y1929192D01*
X1678871Y1926872D01*
X1681192Y1924967D01*
X1680623Y1923831D01*
X1680143Y1924030D01*
X1678270Y1924277D01*
Y1912300D01*
X1677000D01*
Y1911030D01*
X1665023D01*
X1665270Y1909157D01*
X1666483Y1906228D01*
X1668413Y1903713D01*
X1670928Y1901783D01*
X1673857Y1900570D01*
X1676359Y1900240D01*
Y1898960D01*
X1673857Y1898630D01*
X1670928Y1897417D01*
X1668413Y1895487D01*
X1666483Y1892972D01*
X1665270Y1890043D01*
X1664856Y1886900D01*
X1665270Y1883757D01*
X1666483Y1880828D01*
X1668413Y1878313D01*
X1670928Y1876383D01*
X1673857Y1875170D01*
X1676359Y1874841D01*
Y1873560D01*
X1673857Y1873230D01*
X1670928Y1872017D01*
X1668413Y1870087D01*
X1666483Y1867572D01*
X1665270Y1864643D01*
X1665023Y1862770D01*
X1677000D01*
Y1860230D01*
X1665023D01*
X1665270Y1858357D01*
X1666483Y1855428D01*
X1668413Y1852913D01*
X1670928Y1850983D01*
X1673857Y1849770D01*
X1676359Y1849440D01*
Y1848159D01*
X1673857Y1847830D01*
X1670928Y1846617D01*
X1668413Y1844687D01*
X1666483Y1842172D01*
X1665270Y1839243D01*
X1665023Y1837370D01*
X1677000D01*
Y1834830D01*
X1665023D01*
X1665270Y1832957D01*
X1666483Y1830028D01*
X1668413Y1827513D01*
X1670928Y1825583D01*
X1673857Y1824370D01*
X1676359Y1824041D01*
Y1822760D01*
X1673857Y1822430D01*
X1670928Y1821217D01*
X1668413Y1819287D01*
X1666483Y1816772D01*
X1665270Y1813843D01*
X1664856Y1810700D01*
X1665270Y1807557D01*
X1666483Y1804628D01*
X1668413Y1802113D01*
X1670928Y1800183D01*
X1673857Y1798970D01*
X1676359Y1798640D01*
Y1797359D01*
X1673857Y1797030D01*
X1670928Y1795817D01*
X1668413Y1793887D01*
X1666483Y1791372D01*
X1665270Y1788443D01*
X1664856Y1785300D01*
X1665270Y1782157D01*
X1666483Y1779228D01*
X1668413Y1776713D01*
X1670928Y1774783D01*
X1673857Y1773570D01*
X1676359Y1773241D01*
Y1771960D01*
X1673857Y1771630D01*
X1670928Y1770417D01*
X1668413Y1768487D01*
X1666483Y1765972D01*
X1665463Y1763509D01*
X1650595D01*
X1643609Y1770495D01*
Y1867749D01*
X1643994Y1868006D01*
X1645219Y1869838D01*
X1645648Y1872000D01*
X1645219Y1874162D01*
X1643994Y1875994D01*
X1642162Y1877218D01*
X1640000Y1877648D01*
X1637838Y1877218D01*
X1636006Y1875994D01*
X1634781Y1874162D01*
X1634352Y1872000D01*
X1634516Y1871173D01*
X1633373Y1870409D01*
X1632162Y1871219D01*
X1630000Y1871649D01*
X1627838Y1871219D01*
X1626006Y1869994D01*
X1624781Y1868162D01*
X1624352Y1866000D01*
X1624389Y1865809D01*
X1623333Y1865104D01*
X1623162Y1865219D01*
X1621000Y1865648D01*
X1618838Y1865219D01*
X1617006Y1863994D01*
X1615782Y1862162D01*
X1615401Y1860250D01*
X1614642Y1859743D01*
X1614144Y1859562D01*
X1613162Y1860219D01*
X1611000Y1860648D01*
X1608838Y1860219D01*
X1607006Y1858994D01*
X1605781Y1857162D01*
X1605352Y1855000D01*
X1605781Y1852838D01*
X1607006Y1851006D01*
X1607391Y1850749D01*
Y1732000D01*
X1607665Y1730619D01*
X1608448Y1729448D01*
X1656748Y1681148D01*
X1657919Y1680365D01*
X1659300Y1680091D01*
X1665463D01*
X1666483Y1677628D01*
X1668413Y1675113D01*
X1670928Y1673183D01*
X1673857Y1671970D01*
X1677000Y1671556D01*
X1680143Y1671970D01*
X1680623Y1672169D01*
X1681192Y1671033D01*
X1678871Y1669129D01*
X1676967Y1666808D01*
X1675552Y1664160D01*
X1674680Y1661288D01*
X1674386Y1658300D01*
X1674680Y1655312D01*
X1675552Y1652440D01*
X1676967Y1649792D01*
X1678871Y1647472D01*
X1681192Y1645567D01*
X1683840Y1644152D01*
X1686712Y1643280D01*
X1689700Y1642986D01*
X1692688Y1643280D01*
X1695560Y1644152D01*
X1698208Y1645567D01*
X1700529Y1647472D01*
X1702433Y1649792D01*
X1703848Y1652440D01*
X1704720Y1655312D01*
X1705014Y1658300D01*
X1704720Y1661288D01*
X1703848Y1664160D01*
X1702433Y1666808D01*
X1700529Y1669129D01*
X1698208Y1671033D01*
X1698777Y1672169D01*
X1699257Y1671970D01*
X1702400Y1671556D01*
X1705543Y1671970D01*
X1708006Y1672990D01*
X1709391Y1671605D01*
Y1616969D01*
X1709000Y1616649D01*
X1706838Y1616219D01*
X1705006Y1614994D01*
X1703781Y1613162D01*
X1703351Y1611000D01*
X1703781Y1608838D01*
X1705006Y1607006D01*
X1706838Y1605781D01*
X1709000Y1605352D01*
X1711162Y1605781D01*
X1712994Y1607006D01*
X1714219Y1608838D01*
X1714648Y1611000D01*
X1714558Y1611454D01*
X1715552Y1612448D01*
X1716335Y1613619D01*
X1716609Y1615000D01*
Y1673100D01*
X1716335Y1674481D01*
X1715552Y1675652D01*
X1713110Y1678094D01*
X1714130Y1680557D01*
X1714544Y1683700D01*
X1714130Y1686843D01*
X1712917Y1689772D01*
X1710987Y1692287D01*
X1708472Y1694217D01*
X1705543Y1695430D01*
X1703041Y1695759D01*
Y1697041D01*
X1705543Y1697370D01*
X1708472Y1698583D01*
X1710987Y1700513D01*
X1712917Y1703028D01*
X1713937Y1705491D01*
X1719505D01*
X1725587Y1699409D01*
X1725546Y1698994D01*
X1724321Y1697162D01*
X1723891Y1695000D01*
X1724321Y1692838D01*
X1725546Y1691006D01*
X1727378Y1689781D01*
X1729540Y1689352D01*
X1731702Y1689781D01*
X1733534Y1691006D01*
X1734759Y1692838D01*
X1735188Y1695000D01*
X1734759Y1697162D01*
X1733534Y1698994D01*
X1733149Y1699251D01*
Y1700560D01*
X1732875Y1701941D01*
X1732092Y1703112D01*
X1723552Y1711652D01*
X1722381Y1712435D01*
X1721000Y1712709D01*
X1713937D01*
X1712917Y1715172D01*
X1710987Y1717687D01*
X1708472Y1719617D01*
X1705543Y1720830D01*
X1703041Y1721160D01*
Y1722440D01*
X1705543Y1722770D01*
X1708472Y1723983D01*
X1710987Y1725913D01*
X1712917Y1728428D01*
X1714130Y1731357D01*
X1714544Y1734500D01*
X1714130Y1737643D01*
X1712917Y1740572D01*
X1710987Y1743087D01*
X1708472Y1745017D01*
X1705543Y1746230D01*
X1703041Y1746559D01*
Y1747841D01*
X1705543Y1748170D01*
X1708472Y1749383D01*
X1710987Y1751313D01*
X1712917Y1753828D01*
X1714130Y1756757D01*
X1714544Y1759900D01*
X1714130Y1763043D01*
X1712917Y1765972D01*
X1710987Y1768487D01*
X1708472Y1770417D01*
X1705543Y1771630D01*
X1703041Y1771960D01*
Y1773241D01*
X1705543Y1773570D01*
X1708472Y1774783D01*
X1710987Y1776713D01*
X1712917Y1779228D01*
X1714130Y1782157D01*
X1714544Y1785300D01*
X1714130Y1788443D01*
X1712917Y1791372D01*
X1710987Y1793887D01*
X1708472Y1795817D01*
X1705543Y1797030D01*
X1703041Y1797359D01*
Y1798640D01*
X1705543Y1798970D01*
X1708472Y1800183D01*
X1710987Y1802113D01*
X1712917Y1804628D01*
X1714130Y1807557D01*
X1714544Y1810700D01*
X1714130Y1813843D01*
X1712917Y1816772D01*
X1710987Y1819287D01*
X1708472Y1821217D01*
X1705543Y1822430D01*
X1703041Y1822760D01*
Y1824041D01*
X1705543Y1824370D01*
X1708472Y1825583D01*
X1710987Y1827513D01*
X1712917Y1830028D01*
X1714130Y1832957D01*
X1714544Y1836100D01*
X1714130Y1839243D01*
X1712917Y1842172D01*
X1710987Y1844687D01*
X1708472Y1846617D01*
X1705543Y1847830D01*
X1703041Y1848159D01*
Y1849440D01*
X1705543Y1849770D01*
X1708472Y1850983D01*
X1710987Y1852913D01*
X1712917Y1855428D01*
X1714130Y1858357D01*
X1714377Y1860230D01*
X1702400D01*
Y1862770D01*
X1714377D01*
X1714130Y1864643D01*
X1712917Y1867572D01*
X1710987Y1870087D01*
X1708472Y1872017D01*
X1705543Y1873230D01*
X1703041Y1873560D01*
Y1874841D01*
X1705543Y1875170D01*
X1708472Y1876383D01*
X1710987Y1878313D01*
X1712917Y1880828D01*
X1714130Y1883757D01*
X1714544Y1886900D01*
X1714130Y1890043D01*
X1712917Y1892972D01*
X1710987Y1895487D01*
X1708472Y1897417D01*
X1705543Y1898630D01*
X1703041Y1898960D01*
Y1900240D01*
X1705543Y1900570D01*
X1708472Y1901783D01*
X1710987Y1903713D01*
X1712917Y1906228D01*
X1714130Y1909157D01*
X1714377Y1911030D01*
X1702400D01*
Y1912300D01*
X1701130D01*
Y1924277D01*
X1699257Y1924030D01*
X1698777Y1923831D01*
X1698208Y1924967D01*
X1700529Y1926872D01*
X1702433Y1929192D01*
X1703848Y1931840D01*
X1704720Y1934712D01*
X1705014Y1937700D01*
X1704720Y1940688D01*
X1703848Y1943560D01*
X1702433Y1946208D01*
X1700529Y1948528D01*
X1698208Y1950433D01*
X1695560Y1951848D01*
X1692688Y1952720D01*
X1689700Y1953014D01*
D02*
G37*
G36*
X1332200Y1939648D02*
X1328926Y1939217D01*
X1325876Y1937954D01*
X1323256Y1935944D01*
X1321246Y1933324D01*
X1319983Y1930274D01*
X1319552Y1927000D01*
X1319983Y1923726D01*
X1321246Y1920676D01*
X1323256Y1918056D01*
X1325876Y1916046D01*
X1328926Y1914783D01*
X1332200Y1914352D01*
X1335474Y1914783D01*
X1338524Y1916046D01*
X1341144Y1918056D01*
X1343154Y1920676D01*
X1344417Y1923726D01*
X1344848Y1927000D01*
X1344417Y1930274D01*
X1343154Y1933324D01*
X1341144Y1935944D01*
X1338524Y1937954D01*
X1335474Y1939217D01*
X1332200Y1939648D01*
D02*
G37*
G36*
X1233000D02*
X1229726Y1939217D01*
X1226676Y1937954D01*
X1224056Y1935944D01*
X1222046Y1933324D01*
X1220783Y1930274D01*
X1220352Y1927000D01*
X1220783Y1923726D01*
X1222046Y1920676D01*
X1224056Y1918056D01*
X1226676Y1916046D01*
X1229726Y1914783D01*
X1233000Y1914352D01*
X1236274Y1914783D01*
X1239324Y1916046D01*
X1241944Y1918056D01*
X1243954Y1920676D01*
X1245217Y1923726D01*
X1245648Y1927000D01*
X1245217Y1930274D01*
X1243954Y1933324D01*
X1241944Y1935944D01*
X1239324Y1937954D01*
X1236274Y1939217D01*
X1233000Y1939648D01*
D02*
G37*
G36*
X836000Y2052648D02*
X833838Y2052219D01*
X832006Y2050994D01*
X830781Y2049162D01*
X830351Y2047000D01*
X830781Y2044838D01*
X832006Y2043006D01*
X832391Y2042749D01*
Y1950095D01*
X827622Y1945326D01*
X826000Y1945648D01*
X823838Y1945219D01*
X822006Y1943994D01*
X820781Y1942162D01*
X820351Y1940000D01*
X820781Y1937838D01*
X822006Y1936006D01*
X823838Y1934781D01*
X826000Y1934352D01*
X828162Y1934781D01*
X829994Y1936006D01*
X831219Y1937838D01*
X831436Y1938932D01*
X838552Y1946048D01*
X839335Y1947219D01*
X839609Y1948600D01*
Y2042749D01*
X839994Y2043006D01*
X841219Y2044838D01*
X841648Y2047000D01*
X841219Y2049162D01*
X839994Y2050994D01*
X838162Y2052219D01*
X836000Y2052648D01*
D02*
G37*
G36*
X775730Y1958730D02*
X766536D01*
X766731Y1957249D01*
X767793Y1954684D01*
X769483Y1952483D01*
X771684Y1950793D01*
X774249Y1949731D01*
X775730Y1949536D01*
Y1958730D01*
D02*
G37*
G36*
X1332200Y1973648D02*
X1328926Y1973217D01*
X1325876Y1971954D01*
X1323256Y1969944D01*
X1321246Y1967324D01*
X1319983Y1964274D01*
X1319552Y1961000D01*
X1319983Y1957726D01*
X1321246Y1954676D01*
X1323256Y1952056D01*
X1325876Y1950046D01*
X1328926Y1948783D01*
X1332200Y1948352D01*
X1335474Y1948783D01*
X1338524Y1950046D01*
X1341144Y1952056D01*
X1343154Y1954676D01*
X1344417Y1957726D01*
X1344848Y1961000D01*
X1344417Y1964274D01*
X1343154Y1967324D01*
X1341144Y1969944D01*
X1338524Y1971954D01*
X1335474Y1973217D01*
X1332200Y1973648D01*
D02*
G37*
G36*
X1233000D02*
X1229726Y1973217D01*
X1226676Y1971954D01*
X1224056Y1969944D01*
X1222046Y1967324D01*
X1220783Y1964274D01*
X1220352Y1961000D01*
X1220783Y1957726D01*
X1222046Y1954676D01*
X1224056Y1952056D01*
X1226676Y1950046D01*
X1229726Y1948783D01*
X1233000Y1948352D01*
X1236274Y1948783D01*
X1239324Y1950046D01*
X1241944Y1952056D01*
X1243954Y1954676D01*
X1245217Y1957726D01*
X1245648Y1961000D01*
X1245217Y1964274D01*
X1243954Y1967324D01*
X1241944Y1969944D01*
X1239324Y1971954D01*
X1236274Y1973217D01*
X1233000Y1973648D01*
D02*
G37*
G36*
X1703670Y1924277D02*
Y1913570D01*
X1714377D01*
X1714130Y1915443D01*
X1712917Y1918372D01*
X1710987Y1920887D01*
X1708472Y1922817D01*
X1705543Y1924030D01*
X1703670Y1924277D01*
D02*
G37*
G36*
X1467000Y1808631D02*
X1464249Y1808269D01*
X1461685Y1807207D01*
X1459483Y1805517D01*
X1457793Y1803315D01*
X1456731Y1800751D01*
X1456369Y1798000D01*
X1456731Y1795249D01*
X1457793Y1792684D01*
X1459483Y1790483D01*
X1461685Y1788793D01*
X1464249Y1787731D01*
X1467000Y1787369D01*
X1469751Y1787731D01*
X1472316Y1788793D01*
X1474517Y1790483D01*
X1476207Y1792684D01*
X1477269Y1795249D01*
X1477631Y1798000D01*
X1477269Y1800751D01*
X1476207Y1803315D01*
X1474517Y1805517D01*
X1472316Y1807207D01*
X1469751Y1808269D01*
X1467000Y1808631D01*
D02*
G37*
G36*
X1514000Y1783231D02*
X1511248Y1782869D01*
X1508685Y1781807D01*
X1506483Y1780117D01*
X1504793Y1777915D01*
X1503731Y1775352D01*
X1503369Y1772600D01*
X1503731Y1769848D01*
X1504793Y1767285D01*
X1506483Y1765083D01*
X1508685Y1763393D01*
X1511248Y1762331D01*
X1514000Y1761969D01*
X1516752Y1762331D01*
X1519315Y1763393D01*
X1521517Y1765083D01*
X1523207Y1767285D01*
X1524269Y1769848D01*
X1524631Y1772600D01*
X1524269Y1775352D01*
X1523207Y1777915D01*
X1521517Y1780117D01*
X1519315Y1781807D01*
X1516752Y1782869D01*
X1514000Y1783231D01*
D02*
G37*
G36*
X1467000D02*
X1464249Y1782869D01*
X1461685Y1781807D01*
X1459483Y1780117D01*
X1457793Y1777915D01*
X1456731Y1775352D01*
X1456369Y1772600D01*
X1456731Y1769848D01*
X1457793Y1767285D01*
X1459483Y1765083D01*
X1461685Y1763393D01*
X1464249Y1762331D01*
X1467000Y1761969D01*
X1469751Y1762331D01*
X1472316Y1763393D01*
X1474517Y1765083D01*
X1476207Y1767285D01*
X1477269Y1769848D01*
X1477631Y1772600D01*
X1477269Y1775352D01*
X1476207Y1777915D01*
X1474517Y1780117D01*
X1472316Y1781807D01*
X1469751Y1782869D01*
X1467000Y1783231D01*
D02*
G37*
G36*
X1514000Y1808631D02*
X1511248Y1808269D01*
X1508685Y1807207D01*
X1506483Y1805517D01*
X1504793Y1803315D01*
X1503731Y1800751D01*
X1503369Y1798000D01*
X1503731Y1795249D01*
X1504793Y1792684D01*
X1506483Y1790483D01*
X1508685Y1788793D01*
X1511248Y1787731D01*
X1514000Y1787369D01*
X1516752Y1787731D01*
X1519315Y1788793D01*
X1521517Y1790483D01*
X1523207Y1792684D01*
X1524269Y1795249D01*
X1524631Y1798000D01*
X1524269Y1800751D01*
X1523207Y1803315D01*
X1521517Y1805517D01*
X1519315Y1807207D01*
X1516752Y1808269D01*
X1514000Y1808631D01*
D02*
G37*
G36*
X1675730Y1924277D02*
X1673857Y1924030D01*
X1670928Y1922817D01*
X1668413Y1920887D01*
X1666483Y1918372D01*
X1665270Y1915443D01*
X1665023Y1913570D01*
X1675730D01*
Y1924277D01*
D02*
G37*
G36*
X864000Y1872648D02*
X861838Y1872219D01*
X860006Y1870994D01*
X858781Y1869162D01*
X858352Y1867000D01*
X858683Y1865332D01*
X854000Y1860648D01*
X851838Y1860219D01*
X850006Y1858994D01*
X848781Y1857162D01*
X848352Y1855000D01*
X848781Y1852838D01*
X850006Y1851006D01*
X851838Y1849781D01*
X854000Y1849352D01*
X854121Y1849375D01*
X855391Y1848333D01*
Y1841510D01*
X854121Y1840984D01*
X849558Y1845546D01*
X849649Y1846000D01*
X849219Y1848162D01*
X847994Y1849994D01*
X846162Y1851219D01*
X844000Y1851649D01*
X841838Y1851219D01*
X840006Y1849994D01*
X838781Y1848162D01*
X838352Y1846000D01*
X838781Y1843838D01*
X840006Y1842006D01*
X841838Y1840781D01*
X844000Y1840352D01*
X844454Y1840442D01*
X848391Y1836505D01*
Y1760000D01*
X848665Y1758619D01*
X849448Y1757448D01*
X852442Y1754454D01*
X852352Y1754000D01*
X852782Y1751838D01*
X854006Y1750006D01*
X855838Y1748781D01*
X858000Y1748351D01*
X860162Y1748781D01*
X861994Y1750006D01*
X863219Y1751838D01*
X863649Y1754000D01*
X863219Y1756162D01*
X863839Y1757518D01*
X865162Y1757781D01*
X866994Y1759006D01*
X868219Y1760838D01*
X868450Y1762000D01*
X870380D01*
X874162Y1765781D01*
X875994Y1767006D01*
X877219Y1768838D01*
X877648Y1771000D01*
X877219Y1773162D01*
X875994Y1774994D01*
X874162Y1776219D01*
X872609Y1776527D01*
Y1863000D01*
X872335Y1864381D01*
X871552Y1865552D01*
X869535Y1867569D01*
X869219Y1869162D01*
X867994Y1870994D01*
X866162Y1872219D01*
X864000Y1872648D01*
D02*
G37*
G36*
X866000Y2193158D02*
X863643Y2192690D01*
X861645Y2191355D01*
X860310Y2189357D01*
X859842Y2187000D01*
Y2040000D01*
X860310Y2037643D01*
X861645Y2035645D01*
X870842Y2026449D01*
Y1880000D01*
X871310Y1877643D01*
X872645Y1875645D01*
X884842Y1863449D01*
Y1835000D01*
X885310Y1832643D01*
X886645Y1830645D01*
X888643Y1829310D01*
X891000Y1828842D01*
X893357Y1829310D01*
X895355Y1830645D01*
X896690Y1832643D01*
X897158Y1835000D01*
Y1866000D01*
X896690Y1868357D01*
X895355Y1870355D01*
X883158Y1882551D01*
Y2029000D01*
X882690Y2031357D01*
X881355Y2033355D01*
X872158Y2042551D01*
Y2187000D01*
X871690Y2189357D01*
X870355Y2191355D01*
X868357Y2192690D01*
X866000Y2193158D01*
D02*
G37*
%LPD*%
G36*
X1096217Y1467217D02*
X1080000Y1451000D01*
X1077409D01*
X1076444Y1452444D01*
X1074612Y1453669D01*
X1072450Y1454099D01*
X1070288Y1453669D01*
X1068456Y1452444D01*
X1067491Y1451000D01*
X1056841D01*
X1051720Y1445879D01*
X1050550Y1446505D01*
X1050648Y1447000D01*
X1050219Y1449162D01*
X1048994Y1450994D01*
X1047162Y1452219D01*
X1045000Y1452648D01*
X1042838Y1452219D01*
X1041006Y1450994D01*
X1039781Y1449162D01*
X1039352Y1447000D01*
X1039781Y1444838D01*
X1040564Y1443668D01*
X1021505Y1424609D01*
X996510D01*
X995984Y1425879D01*
X999552Y1429448D01*
X1000335Y1430619D01*
X1000609Y1432000D01*
Y1450505D01*
X1018495Y1468391D01*
X1095731D01*
X1096217Y1467217D01*
D02*
G37*
D10*
X1003000Y1705000D02*
X1070000D01*
X1003000Y1696000D02*
X1086000D01*
X1107400Y1696520D02*
Y1698400D01*
X1110000Y1701000D01*
X1115000Y1691000D02*
X1129000D01*
X1130000Y1690000D01*
X1259000Y1549000D02*
X1261000Y1547000D01*
Y1456000D02*
Y1547000D01*
X1228900Y1549000D02*
X1259000D01*
X1265000Y1557000D02*
X1270000Y1552000D01*
Y1461000D02*
Y1552000D01*
X1234000Y1557000D02*
X1265000D01*
X1271000Y1565000D02*
X1277000Y1559000D01*
Y1468000D02*
Y1559000D01*
X1229000Y1566000D02*
X1271000D01*
Y1565000D02*
Y1566000D01*
X1285000Y1473000D02*
Y1575000D01*
X1234000D02*
X1285000D01*
X906000Y1262000D02*
X926000D01*
X910500Y1233500D02*
X926000D01*
X913000Y1244000D02*
X926000D01*
X1016000Y1721000D02*
Y1791000D01*
X1721000Y1709100D02*
X1729540Y1700560D01*
Y1695000D02*
Y1700560D01*
X1702400Y1709100D02*
X1721000D01*
X1709000Y1611000D02*
X1713000Y1615000D01*
Y1673100D01*
X1702400Y1683700D02*
X1713000Y1673100D01*
X1110000Y1701000D02*
X1138000D01*
X1208000Y1379272D02*
Y1454000D01*
Y1379272D02*
X1231000Y1356272D01*
X1217000Y1383000D02*
Y1454000D01*
Y1383000D02*
X1240000Y1360000D01*
X969000Y1549000D02*
X972000Y1552000D01*
X1260000Y1600000D02*
Y1697000D01*
X1267000Y1704000D01*
Y1717000D01*
X1225000Y1739000D02*
X1230000Y1734000D01*
Y1614000D02*
Y1734000D01*
X1240000Y1610000D02*
Y1738000D01*
X1232000Y1746000D02*
X1240000Y1738000D01*
X1251000Y1614000D02*
Y1743000D01*
X1242000Y1752000D02*
X1251000Y1743000D01*
X881000Y1648142D02*
X882929Y1650071D01*
X875858Y1292142D02*
X906000Y1262000D01*
X870000Y1287000D02*
X913000Y1244000D01*
X888000Y1668000D02*
X910000Y1646000D01*
X875858Y1292142D02*
Y1654858D01*
X882000Y1661000D01*
X870000Y1287000D02*
Y1662000D01*
X876000Y1668000D01*
X888000D01*
X864000Y1280000D02*
X910500Y1233500D01*
X864000Y1280000D02*
Y1685589D01*
X867411Y1689000D01*
X852000Y1428000D02*
X858000Y1434000D01*
Y1692000D01*
X869000Y1774000D02*
X872000Y1771000D01*
X859000Y1767000D02*
X863000Y1763000D01*
X865000Y1867000D02*
X869000Y1863000D01*
Y1774000D02*
Y1863000D01*
X864000Y1867000D02*
X865000D01*
X859000Y1767000D02*
Y1851000D01*
X854000Y1855000D02*
Y1856000D01*
X887000Y1303000D02*
Y1640000D01*
X890000Y1643000D01*
X972000Y1414000D02*
X1038000D01*
X1072450Y1448450D01*
X986000Y1428000D02*
X993000D01*
X997000Y1432000D01*
X966000Y1407000D02*
X1041000D01*
X1067000Y1433000D01*
X754000Y1418000D02*
Y1738000D01*
Y1748000D02*
Y1913000D01*
X752000Y1915000D02*
X754000Y1913000D01*
Y1748000D02*
X761000Y1741000D01*
Y1403000D02*
Y1741000D01*
X759000Y1752000D02*
X769000Y1742000D01*
X759000Y1752000D02*
Y1924000D01*
X755000Y1928000D02*
X759000Y1924000D01*
X755000Y1928000D02*
Y1994000D01*
X752000Y1997000D02*
X755000Y1994000D01*
X769000Y1421000D02*
Y1742000D01*
X777000Y1395000D02*
X779000Y1393000D01*
X765000Y1756000D02*
X777000Y1744000D01*
X765000Y1756000D02*
Y1926000D01*
X761000Y1930000D02*
X765000Y1926000D01*
X761000Y1930000D02*
Y2074000D01*
X783000Y2096000D02*
Y2149000D01*
X777000Y1395000D02*
Y1744000D01*
X761000Y2074000D02*
X783000Y2096000D01*
X776000Y2156000D02*
X783000Y2149000D01*
X850000Y1440000D02*
Y1698000D01*
X854000Y1702000D01*
X846000Y1706000D02*
Y1707000D01*
X842000Y1445000D02*
X844000Y1447000D01*
Y1704000D01*
X846000Y1706000D01*
X920000Y1606000D02*
Y1612000D01*
X895000Y1388000D02*
Y1619000D01*
X903000Y1395000D02*
Y1613000D01*
X855000Y1274000D02*
Y1375000D01*
X847000Y1270000D02*
Y1382000D01*
X977000Y1564000D02*
X983000D01*
X972000Y1559000D02*
X977000Y1564000D01*
X972000Y1552000D02*
Y1559000D01*
X920000Y1612000D02*
X920000Y1612000D01*
X847000Y1270000D02*
X901000Y1216000D01*
X855000Y1274000D02*
X906000Y1223000D01*
X1212000D01*
X1215000Y1226000D01*
X901000Y1216000D02*
X1205000D01*
X837000Y1561000D02*
Y1609000D01*
X1232000Y1522000D02*
X1252000Y1502000D01*
Y1448000D02*
X1255000Y1445000D01*
X1252000Y1448000D02*
Y1502000D01*
X1261000Y1234000D02*
Y1420000D01*
Y1234000D02*
X1264500Y1230500D01*
X1267500D01*
X760600Y1334000D02*
X761000Y1334400D01*
X741000Y1305000D02*
Y1329000D01*
X746000Y1334000D01*
X760600D01*
X761000Y1334400D02*
X783600D01*
X793000Y1325000D01*
X791000Y1297636D02*
X793000Y1325000D01*
X844000Y1846000D02*
X844000D01*
X852000Y1838000D01*
Y1760000D02*
Y1838000D01*
Y1760000D02*
X858000Y1754000D01*
X705000Y1443000D02*
X712000D01*
X676000Y1472000D02*
X705000Y1443000D01*
X669000Y1440000D02*
Y1465000D01*
X676000Y1472000D01*
X668000Y1428000D02*
X673000D01*
X662000Y1434000D02*
X668000Y1428000D01*
X662000Y1434000D02*
Y1460600D01*
X650600Y1472000D02*
X662000Y1460600D01*
X632000Y1428000D02*
X639000Y1435000D01*
Y1460400D01*
X650600Y1472000D01*
X1401000Y1383600D02*
Y1429000D01*
X1387400Y1370000D02*
X1401000Y1383600D01*
X1379000Y1378400D02*
Y1429000D01*
Y1378400D02*
X1387400Y1370000D01*
X1362000D02*
X1371000Y1379000D01*
Y1437000D01*
X1376000Y1442000D01*
X1353000Y1379000D02*
X1362000Y1370000D01*
X1353000Y1379000D02*
Y1442000D01*
X1345000Y1447000D02*
X1353000Y1455000D01*
X1345000Y1378400D02*
Y1447000D01*
X1336600Y1370000D02*
X1345000Y1378400D01*
X1328000Y1378600D02*
X1336600Y1370000D01*
X1328000Y1378600D02*
Y1454000D01*
X1640000Y1769000D02*
Y1872000D01*
Y1769000D02*
X1649100Y1759900D01*
X1677000D01*
X820000Y1765000D02*
X830000Y1755000D01*
Y1495000D02*
Y1755000D01*
X809000Y1753000D02*
Y1790000D01*
X823000Y1483000D02*
Y1739000D01*
X809000Y1753000D02*
X823000Y1739000D01*
X911000Y1436000D02*
Y1466000D01*
X785000Y1448000D02*
Y1901200D01*
X777000Y1909200D02*
X785000Y1901200D01*
X777000Y1909200D02*
X793000Y1925200D01*
Y1931000D01*
X791000Y1951000D02*
X793000Y1949000D01*
Y1931000D02*
Y1949000D01*
X791000Y1951000D02*
Y2047000D01*
X884000D02*
X1116000D01*
X795000Y1448000D02*
Y1887000D01*
X804000Y1896000D01*
X826000Y1940000D02*
X827400D01*
X836000Y1948600D01*
Y2047000D01*
X1120320Y2055320D02*
X1130000Y2065000D01*
X1611000Y1732000D02*
Y1855000D01*
Y1732000D02*
X1659300Y1683700D01*
X1677000D01*
X1621000Y1745000D02*
Y1860000D01*
Y1745000D02*
X1656900Y1709100D01*
X1677000D01*
X1630000Y1757000D02*
Y1866000D01*
Y1757000D02*
X1652500Y1734500D01*
X1677000D01*
X896000Y2055320D02*
X1120320D01*
X854000Y1856000D02*
X859000Y1851000D01*
X1122400Y1477400D02*
Y1477600D01*
X997000Y1432000D02*
Y1452000D01*
X1017000Y1472000D01*
X1117000D01*
X1122400Y1477400D01*
X579000Y1282000D02*
X586000Y1275000D01*
X579000Y1282000D02*
Y1295000D01*
X585000Y1301000D01*
X606000D01*
X590000Y1294000D02*
X654000D01*
X664000Y1280000D02*
Y1284000D01*
X654000Y1294000D02*
X664000Y1284000D01*
X881000Y1299000D02*
Y1648142D01*
Y1299000D02*
X910000Y1270000D01*
X918000D01*
X912000Y1278000D02*
X926000D01*
X887000Y1303000D02*
X912000Y1278000D01*
X1240000Y1306859D02*
Y1360000D01*
X1230777Y1297636D02*
X1240000Y1306859D01*
X1228364Y1297636D02*
X1230777D01*
X1222000Y1308000D02*
X1231000Y1317000D01*
Y1356272D01*
X979000Y1421000D02*
X1023000D01*
X1045000Y1443000D01*
Y1447000D01*
X882000Y1200000D02*
X1330485D01*
X874000Y1194000D02*
X1332971D01*
X1335870Y1187000D02*
X1348870Y1200000D01*
X1332971Y1194000D02*
X1345971Y1207000D01*
X1330485Y1200000D02*
X1343485Y1213000D01*
X1328000Y1206000D02*
X1341000Y1219000D01*
X1345971Y1207000D02*
X1589971D01*
X1616485Y1233515D01*
X1348870Y1200000D02*
X1592870D01*
X1616485Y1233515D02*
Y1269515D01*
X822000Y1452000D02*
X837000Y1437000D01*
Y1262000D02*
X893000Y1206000D01*
X837000Y1262000D02*
Y1437000D01*
X822000Y1452000D02*
Y1469000D01*
X893000Y1206000D02*
X1328000D01*
X828000Y1254000D02*
Y1438000D01*
X814000Y1452000D02*
Y1503000D01*
Y1452000D02*
X828000Y1438000D01*
Y1254000D02*
X882000Y1200000D01*
X814000Y1503000D02*
X816000Y1505000D01*
X974000Y1469000D02*
X977000Y1472000D01*
Y1496000D01*
X807000Y1448000D02*
X819000Y1436000D01*
X807000Y1448000D02*
Y1508000D01*
X819000Y1249000D02*
X874000Y1194000D01*
X819000Y1249000D02*
Y1436000D01*
X807000Y1508000D02*
X815000Y1516000D01*
Y1540000D01*
X802000Y1436000D02*
X811000Y1427000D01*
Y1242000D02*
X866000Y1187000D01*
X811000Y1242000D02*
Y1427000D01*
X802000Y1436000D02*
Y1569000D01*
X866000Y1187000D02*
X1335870D01*
X1634000Y1309000D02*
X1672400Y1347400D01*
Y1353000D01*
X1653000Y1296130D02*
X1658130D01*
X1672000Y1310000D01*
X1679000D01*
X1616485Y1269515D02*
X1663971Y1317000D01*
X1676000D01*
X1341000Y1219000D02*
X1579896D01*
X1343485Y1213000D02*
X1585000D01*
X1579896Y1219000D02*
X1604000Y1243104D01*
X1585000Y1213000D02*
X1610000Y1238000D01*
Y1271515D01*
X1592870Y1200000D02*
X1623000Y1230130D01*
Y1266130D01*
X1653000Y1296130D01*
X1634000Y1304000D02*
Y1309000D01*
X1604000Y1243104D02*
Y1274000D01*
X1634000Y1304000D01*
X1610000Y1271515D02*
X1640000Y1301515D01*
Y1305000D01*
X1658000Y1323000D01*
X1672400Y1378400D02*
X1685600D01*
X1689000Y1375000D01*
X1658000Y1323000D02*
X1664000D01*
X1689000Y1348000D01*
Y1375000D01*
X1676000Y1317000D02*
X1696000Y1337000D01*
X1672400Y1403800D02*
X1688304D01*
X1696000Y1396104D01*
Y1337000D02*
Y1396104D01*
X1672400Y1429200D02*
X1685800D01*
X1679000Y1310000D02*
X1705000Y1336000D01*
Y1410000D01*
X1685800Y1429200D02*
X1705000Y1410000D01*
D53*
X1073000Y1801000D02*
X1081000Y1793000D01*
X934500Y1679500D02*
Y1801500D01*
X958000Y1645000D02*
X958500Y1645500D01*
X958000Y1396000D02*
X963000Y1391000D01*
X921000Y1534000D02*
Y1611000D01*
X1301000Y1466000D02*
Y1668000D01*
X1263500Y1428500D02*
X1301000Y1466000D01*
X1238000Y1429000D02*
X1263000D01*
X1263500Y1428500D01*
X957000Y1647000D02*
Y1657000D01*
X934500Y1679500D02*
X957000Y1657000D01*
X1081000Y1722000D02*
Y1793000D01*
X913000Y1666000D02*
X920000Y1659000D01*
X913000Y1666000D02*
Y1801000D01*
X1290000Y1679000D02*
X1301000Y1668000D01*
X1290000Y1679000D02*
Y1717000D01*
X957000Y1647000D02*
X958500Y1645500D01*
X958000Y1396000D02*
Y1494000D01*
X920000Y1612000D02*
Y1659000D01*
X948000Y1569000D02*
X958000D01*
Y1494000D02*
Y1569000D01*
Y1645000D01*
X920000Y1612000D02*
X921000Y1611000D01*
Y1401000D02*
Y1534000D01*
Y1401000D02*
X929000Y1393000D01*
X1238000Y1414000D02*
Y1429000D01*
D54*
X696750Y1364250D02*
X731250D01*
Y1297750D02*
Y1364250D01*
X741000Y1374000D01*
X289000Y1984000D02*
X318000Y2013000D01*
X289000Y1607000D02*
Y1984000D01*
Y1607000D02*
X315450Y1580550D01*
X741000Y1527000D02*
Y1598000D01*
Y1374000D02*
Y1527000D01*
X774000Y2099000D02*
Y2116000D01*
X731250Y1297750D02*
X736000Y1293000D01*
X1373000Y1518000D02*
Y1666000D01*
X1366000Y1673000D02*
X1373000Y1666000D01*
X1366000Y1673000D02*
Y1796000D01*
X727000Y1414000D02*
Y2071500D01*
X753500Y2098000D01*
X741000Y2066000D02*
X774000Y2099000D01*
X741000Y1598000D02*
Y2012000D01*
Y2066000D01*
X1289000Y1434000D02*
X1373000Y1518000D01*
X1289000Y1317000D02*
Y1434000D01*
X1366000Y1796000D02*
Y1880000D01*
X1372000Y1886000D01*
X668000Y1393000D02*
X696750Y1364250D01*
X1289000Y2081000D02*
Y2144000D01*
X1284000Y2076000D02*
X1289000Y2081000D01*
X1342500Y2075500D02*
Y2091500D01*
X1353000Y2102000D01*
Y2146000D01*
X1019500Y1252500D02*
X1031000Y1264000D01*
X965500Y1252500D02*
X1019500D01*
X1031000Y1264000D02*
Y1266000D01*
X1050000D02*
X1056000Y1272000D01*
X1031000Y1266000D02*
X1050000D01*
D56*
X414000Y2080000D02*
Y2170600D01*
X374000Y2040000D02*
X414000Y2080000D01*
Y2170600D02*
X422000Y2178600D01*
X343400Y2040000D02*
X374000D01*
X430600Y2052600D02*
X591600D01*
X367200Y1989200D02*
X430600Y2052600D01*
X343400Y1989200D02*
X367200D01*
X343400Y1938400D02*
X343600Y1938600D01*
X591600D01*
X446600Y1968600D02*
Y2021600D01*
X710500Y1690500D02*
Y2068500D01*
X694000Y1674000D02*
X710500Y1690500D01*
X1592000Y1302000D02*
Y2003900D01*
X1575900Y2020000D02*
X1592000Y2003900D01*
X1538000Y2020000D02*
X1575900D01*
X422000Y2178600D02*
X591600D01*
D58*
X866000Y2040000D02*
Y2187000D01*
Y2040000D02*
X877000Y2029000D01*
Y1880000D02*
Y2029000D01*
Y1880000D02*
X891000Y1866000D01*
Y1835000D02*
Y1866000D01*
X814000Y1656000D02*
Y1662000D01*
X804000Y1646000D02*
X814000Y1656000D01*
D61*
X442000Y1572000D02*
D03*
Y1546600D02*
D03*
X477600Y1572000D02*
D03*
Y1546600D02*
D03*
X1467000Y1798000D02*
D03*
Y1772600D02*
D03*
X1514000Y1798000D02*
D03*
Y1772600D02*
D03*
X761000Y1309000D02*
D03*
Y1334400D02*
D03*
Y1359800D02*
D03*
X701400Y1472000D02*
D03*
X676000D02*
D03*
X650600D02*
D03*
X625200D02*
D03*
X1336600Y1370000D02*
D03*
X1362000D02*
D03*
X1311200D02*
D03*
X1387400D02*
D03*
X1412800D02*
D03*
X777000Y1909200D02*
D03*
Y1934600D02*
D03*
Y1960000D02*
D03*
X1672400Y1530800D02*
D03*
Y1505400D02*
D03*
Y1429200D02*
D03*
Y1480000D02*
D03*
Y1454600D02*
D03*
Y1403800D02*
D03*
Y1378400D02*
D03*
Y1353000D02*
D03*
X1647000D02*
D03*
Y1378400D02*
D03*
Y1403800D02*
D03*
Y1454600D02*
D03*
Y1480000D02*
D03*
Y1429200D02*
D03*
Y1505400D02*
D03*
Y1530800D02*
D03*
D62*
X1000249Y2138999D02*
D03*
X1025250Y2139250D02*
D03*
X1051000Y2139000D02*
D03*
X1076500D02*
D03*
D63*
X923250Y2068500D02*
D03*
X949000Y2068000D02*
D03*
X973500Y2067750D02*
D03*
D64*
X1583000Y2069000D02*
D03*
X1638000D02*
D03*
D65*
X1677000Y1912300D02*
D03*
X1702400D02*
D03*
Y1886900D02*
D03*
X1677000D02*
D03*
Y1861500D02*
D03*
X1702400D02*
D03*
Y1836100D02*
D03*
X1677000D02*
D03*
Y1810700D02*
D03*
X1702400D02*
D03*
Y1785300D02*
D03*
X1677000D02*
D03*
Y1759900D02*
D03*
X1702400D02*
D03*
Y1734500D02*
D03*
X1677000D02*
D03*
Y1709100D02*
D03*
X1702400D02*
D03*
Y1683700D02*
D03*
X1677000D02*
D03*
X343400Y1836800D02*
D03*
X318000D02*
D03*
Y1862200D02*
D03*
X343400D02*
D03*
Y1887600D02*
D03*
X318000D02*
D03*
Y1913000D02*
D03*
X343400D02*
D03*
Y1938400D02*
D03*
X318000D02*
D03*
Y1963800D02*
D03*
X343400D02*
D03*
Y1989200D02*
D03*
X318000D02*
D03*
Y2014600D02*
D03*
X343400D02*
D03*
Y2040000D02*
D03*
X318000D02*
D03*
Y2065400D02*
D03*
X343400D02*
D03*
D66*
X348000Y2174000D02*
D03*
X1676000D02*
D03*
Y1247000D02*
D03*
X348000D02*
D03*
D67*
X317300Y1610050D02*
D03*
X349300Y1682800D02*
D03*
X349300Y1647800D02*
D03*
Y1507800D02*
D03*
Y1612800D02*
D03*
Y1577800D02*
D03*
Y1542800D02*
D03*
X317300Y1633050D02*
D03*
Y1685550D02*
D03*
Y1662550D02*
D03*
Y1528050D02*
D03*
Y1505050D02*
D03*
Y1557550D02*
D03*
Y1580550D02*
D03*
D68*
X1233000Y1961000D02*
D03*
Y1927000D02*
D03*
X1332200Y1961000D02*
D03*
Y1927000D02*
D03*
D69*
X837000Y1561000D02*
D03*
X815000Y1540000D02*
D03*
X802000Y1569000D02*
D03*
X731250Y1364250D02*
D03*
X741000Y1527000D02*
D03*
X753500Y2098000D02*
D03*
X727000Y1414000D02*
D03*
X1070000Y1705000D02*
D03*
X1003000D02*
D03*
X1086000Y1696000D02*
D03*
X1003000D02*
D03*
X1107400Y1696520D02*
D03*
X1115000Y1691000D02*
D03*
X1228900Y1549000D02*
D03*
X1234000Y1557000D02*
D03*
X1229000Y1566000D02*
D03*
X1234000Y1575000D02*
D03*
X1285000Y1473000D02*
D03*
X1277000Y1468000D02*
D03*
X1261000Y1456000D02*
D03*
X1270000Y1461000D02*
D03*
X1238000Y1429000D02*
D03*
X890000Y1643000D02*
D03*
X883000Y1651000D02*
D03*
X910000Y1646000D02*
D03*
X957000Y1647000D02*
D03*
X926000Y1244000D02*
D03*
Y1233500D02*
D03*
Y1262000D02*
D03*
X1016000Y1721000D02*
D03*
Y1791000D02*
D03*
X1073000Y1800000D02*
D03*
X1081000Y1722000D02*
D03*
X962000Y1391000D02*
D03*
X935000Y1802000D02*
D03*
X1729540Y1695000D02*
D03*
X1709000Y1611000D02*
D03*
X1130000Y1690000D02*
D03*
X1138000Y1701000D02*
D03*
X608000Y1256000D02*
D03*
Y1278000D02*
D03*
X1228364Y1297636D02*
D03*
X1208000Y1454000D02*
D03*
X1217000D02*
D03*
X586000Y1275000D02*
D03*
X736000Y1293000D02*
D03*
X1373000Y1518000D02*
D03*
X1366000Y1673000D02*
D03*
Y1796000D02*
D03*
X774000Y2117000D02*
D03*
X913500Y1801500D02*
D03*
X969000Y1549000D02*
D03*
X1260000Y1600000D02*
D03*
X1290000Y1717000D02*
D03*
X1267000D02*
D03*
X1225000Y1739000D02*
D03*
X1230000Y1614000D02*
D03*
X1240000Y1610000D02*
D03*
X1232000Y1746000D02*
D03*
X1251000Y1614000D02*
D03*
X1242000Y1752000D02*
D03*
X1232000Y1522000D02*
D03*
X882000Y1661000D02*
D03*
X858000Y1692000D02*
D03*
X868000Y1689000D02*
D03*
X854000Y1702000D02*
D03*
X852000Y1428000D02*
D03*
X741000Y1598000D02*
D03*
X850000Y1440000D02*
D03*
X872000Y1771000D02*
D03*
X863000Y1763000D02*
D03*
X864000Y1867000D02*
D03*
X854000Y1855000D02*
D03*
X754000Y1418000D02*
D03*
X979000Y1421000D02*
D03*
X972000Y1414000D02*
D03*
X1072450Y1448450D02*
D03*
X986000Y1428000D02*
D03*
X1122400Y1477600D02*
D03*
X966000Y1407000D02*
D03*
X1067000Y1433000D02*
D03*
X776000Y2156000D02*
D03*
X754000Y1738000D02*
D03*
X761000Y1403000D02*
D03*
X752000Y1915000D02*
D03*
X769000Y1421000D02*
D03*
X752000Y1997000D02*
D03*
X779000Y1393000D02*
D03*
X741000Y2012000D02*
D03*
X710500Y2068500D02*
D03*
X694000Y1674000D02*
D03*
X1006000Y1264000D02*
D03*
X740000Y1190000D02*
D03*
X660000D02*
D03*
X682500Y1240500D02*
D03*
X565000Y1258000D02*
D03*
X958000Y1494000D02*
D03*
X866000Y2187000D02*
D03*
X891000Y1835000D02*
D03*
X842000Y1445000D02*
D03*
X846000Y1707000D02*
D03*
X920000Y1606000D02*
D03*
X895000Y1619000D02*
D03*
X903000Y1613000D02*
D03*
X895000Y1388000D02*
D03*
X903000Y1395000D02*
D03*
X847000Y1382000D02*
D03*
X855000Y1375000D02*
D03*
X983000Y1564000D02*
D03*
X948000Y1569000D02*
D03*
X921000Y1534000D02*
D03*
X1215000Y1226000D02*
D03*
X1205000Y1216000D02*
D03*
X929000Y1393000D02*
D03*
X837000Y1609000D02*
D03*
X1255000Y1445000D02*
D03*
X1261000Y1420000D02*
D03*
X1267500Y1230500D02*
D03*
X1592000Y1302000D02*
D03*
X791000Y1297636D02*
D03*
X741000Y1305000D02*
D03*
X1289000Y1317000D02*
D03*
X844000Y1846000D02*
D03*
X858000Y1754000D02*
D03*
X712000Y1443000D02*
D03*
X669000Y1440000D02*
D03*
X673000Y1428000D02*
D03*
X632000D02*
D03*
X1401000Y1429000D02*
D03*
X1376000Y1442000D02*
D03*
X1379000Y1429000D02*
D03*
X1353000Y1442000D02*
D03*
Y1455000D02*
D03*
X1328000Y1454000D02*
D03*
X1372000Y1886000D02*
D03*
X1654500Y1861500D02*
D03*
X1655000Y1912000D02*
D03*
X1630000Y1866000D02*
D03*
X1621000Y1860000D02*
D03*
X1611000Y1855000D02*
D03*
X1640000Y1872000D02*
D03*
X830000Y1495000D02*
D03*
X820000Y1765000D02*
D03*
X823000Y1483000D02*
D03*
X809000Y1790000D02*
D03*
X911000Y1436000D02*
D03*
Y1466000D02*
D03*
X785000Y1448000D02*
D03*
X793000Y1931000D02*
D03*
X791000Y2047000D02*
D03*
X884000D02*
D03*
X795000Y1448000D02*
D03*
X804000Y1896000D02*
D03*
X826000Y1940000D02*
D03*
X836000Y2047000D02*
D03*
X896000Y2056000D02*
D03*
X1538000Y2020000D02*
D03*
X1412250Y1467250D02*
D03*
X661000Y1367000D02*
D03*
Y1355000D02*
D03*
X633250Y1357750D02*
D03*
X675000Y1345000D02*
D03*
X496650Y1395350D02*
D03*
X418600Y1357400D02*
D03*
X455600Y1358400D02*
D03*
X592000Y1345000D02*
D03*
X570000Y1356000D02*
D03*
X713500Y1323500D02*
D03*
Y1381500D02*
D03*
X606000Y1301000D02*
D03*
X584950Y1591950D02*
D03*
X695600Y1728600D02*
D03*
X695000Y1827000D02*
D03*
X647000Y1794000D02*
D03*
X647600Y1961600D02*
D03*
X646400Y2074600D02*
D03*
X709600Y2201600D02*
D03*
X799000Y2139000D02*
D03*
X830000Y2148000D02*
D03*
X841000Y1796000D02*
D03*
X885500Y1780500D02*
D03*
X924000Y1823000D02*
D03*
Y1836000D02*
D03*
X938500Y1644500D02*
D03*
X947000Y1607000D02*
D03*
X934000Y1569000D02*
D03*
X938500Y1519000D02*
D03*
Y1493000D02*
D03*
X986500Y1396500D02*
D03*
X1169000Y1397000D02*
D03*
X1238000Y1414000D02*
D03*
X1230000Y1402000D02*
D03*
X1274000Y1592000D02*
D03*
X1311500Y1600500D02*
D03*
X1315000Y1556000D02*
D03*
X1313000Y1531000D02*
D03*
X1313000Y1489000D02*
D03*
Y1506000D02*
D03*
X1334000Y1580000D02*
D03*
Y1667000D02*
D03*
X1277000Y1662000D02*
D03*
X1403000Y1512000D02*
D03*
X668000Y1393000D02*
D03*
X590000Y1294000D02*
D03*
X664000Y1280000D02*
D03*
X526500Y1226500D02*
D03*
X630000Y1278000D02*
D03*
Y1256000D02*
D03*
X631500Y1301500D02*
D03*
X1217000Y1812000D02*
D03*
Y1788000D02*
D03*
X1189000Y1778000D02*
D03*
X1099500Y1740500D02*
D03*
X983500Y1723000D02*
D03*
X994000Y1850000D02*
D03*
X1023000Y1839000D02*
D03*
X1326500Y1745500D02*
D03*
X1350000D02*
D03*
X1353000Y2146000D02*
D03*
X1284000Y2076000D02*
D03*
X1289000Y2144000D02*
D03*
X1342500Y2075500D02*
D03*
X1203000Y2230000D02*
D03*
X1214857Y2222000D02*
D03*
X1340000D02*
D03*
X1235714D02*
D03*
X1256571D02*
D03*
X1277429D02*
D03*
X1298286D02*
D03*
X1309667Y2230000D02*
D03*
X1319143Y2222000D02*
D03*
X1267000Y2230000D02*
D03*
X1245667D02*
D03*
X1331000D02*
D03*
X1224333D02*
D03*
X1288333D02*
D03*
X1194000Y2222000D02*
D03*
X1483000Y1958000D02*
D03*
X1496000D02*
D03*
X1509000D02*
D03*
X1489500Y1947750D02*
D03*
X1502500D02*
D03*
X1483000Y1937500D02*
D03*
X1509000D02*
D03*
X1489500Y1927250D02*
D03*
X1502500D02*
D03*
X1483000Y1917000D02*
D03*
X1496000D02*
D03*
X1509000D02*
D03*
X1496000Y1937500D02*
D03*
X1130000Y1988000D02*
D03*
X1113000Y1984000D02*
D03*
X1111000Y2224000D02*
D03*
X1122500Y2181500D02*
D03*
X1565000Y1185500D02*
D03*
X1547000D02*
D03*
X1583000D02*
D03*
X1517000Y1259000D02*
D03*
X1365500Y1185500D02*
D03*
X1348000D02*
D03*
X1383000D02*
D03*
X1316000Y1259000D02*
D03*
X1056000Y1272000D02*
D03*
X965500Y1252500D02*
D03*
X1031000Y1266000D02*
D03*
X1120600Y1254400D02*
D03*
X1146000Y1254000D02*
D03*
X1158700Y1253700D02*
D03*
X1067400Y1480600D02*
D03*
X1109000Y1482000D02*
D03*
X1150000Y1475000D02*
D03*
X1198000Y1515000D02*
D03*
Y1532000D02*
D03*
Y1547000D02*
D03*
Y1577000D02*
D03*
Y1635000D02*
D03*
X1117400Y1661400D02*
D03*
X1045000Y1661000D02*
D03*
X1010950Y1626950D02*
D03*
X1012000Y1594000D02*
D03*
X1014000Y1527000D02*
D03*
Y1512000D02*
D03*
X993500Y1472500D02*
D03*
X918000Y1270000D02*
D03*
X926000Y1278000D02*
D03*
X1222000Y1308000D02*
D03*
X1045000Y1447000D02*
D03*
X1192500Y2096500D02*
D03*
X1250500D02*
D03*
X1309500D02*
D03*
X822000Y1469000D02*
D03*
X816000Y1505000D02*
D03*
X974000Y1469000D02*
D03*
X977000Y1496000D02*
D03*
X935000Y1722000D02*
D03*
X804000Y1646000D02*
D03*
X814000Y1662000D02*
D03*
X701000Y1646000D02*
D03*
X900000Y2170000D02*
D03*
X944000Y2143000D02*
D03*
X1546000Y1673000D02*
D03*
D70*
X1253000Y2025000D02*
D03*
X446600Y2021600D02*
D03*
Y1968600D02*
D03*
X591600Y2178600D02*
D03*
Y2052600D02*
D03*
Y1938600D02*
D03*
X1116000Y2047000D02*
D03*
X1130000Y2065000D02*
D03*
M02*
