G04 Layer_Color=8388736*
%FSLAX44Y44*%
%MOMM*%
G71*
G01*
G75*
%ADD77R,1.5032X1.1032*%
%ADD78R,0.9032X1.5032*%
%ADD79R,1.1032X1.5032*%
%ADD80R,1.6932X2.6032*%
%ADD81R,0.8032X0.5032*%
%ADD82R,1.5032X0.9032*%
%ADD83R,0.6032X1.5532*%
%ADD84R,2.3032X1.8032*%
%ADD85R,2.0032X2.1032*%
%ADD86R,2.1032X2.1032*%
%ADD87R,1.2032X1.8032*%
%ADD88R,0.9032X0.5032*%
%ADD89R,0.9652X2.9972*%
%ADD90O,0.5032X1.6532*%
%ADD91O,1.6532X0.5032*%
%ADD92R,5.8032X2.3032*%
%ADD93R,1.4732X2.3532*%
%ADD94R,3.9032X2.2032*%
%ADD95R,1.0032X1.0032*%
%ADD96R,1.8032X3.7032*%
%ADD97R,1.2532X4.3532*%
%ADD98R,10.0032X2.9032*%
%ADD99O,1.7032X0.8032*%
%ADD100R,1.7232X3.2532*%
%ADD101O,0.5032X1.5532*%
%ADD102R,1.0032X1.0032*%
%ADD103R,1.0032X0.8532*%
%ADD104R,2.2032X3.9032*%
%ADD105R,2.2032X1.7032*%
%ADD106R,2.2032X4.0032*%
%ADD107R,1.4732X2.0232*%
%ADD108R,0.7032X0.5032*%
%ADD109R,0.5032X0.7032*%
%ADD110R,3.4032X3.4032*%
%ADD111R,0.6032X1.5582*%
%ADD112R,1.7532X1.5032*%
%ADD113R,2.0232X1.4732*%
%ADD114R,1.1032X1.2032*%
%ADD115O,2.0532X0.8032*%
%ADD116O,1.6032X0.7032*%
%ADD117R,2.0032X2.3032*%
%ADD118R,2.3032X2.0032*%
%ADD119C,1.8032*%
%ADD120C,1.7272*%
%ADD121C,1.9812*%
%ADD122C,2.4032*%
%ADD123C,0.2032*%
%ADD124C,2.1032*%
%ADD125C,7.2032*%
%ADD126C,2.3032*%
%ADD127C,2.2032*%
D77*
X664000Y1259500D02*
D03*
Y1240500D02*
D03*
X1403000Y1479500D02*
D03*
Y1498500D02*
D03*
X994000Y1817500D02*
D03*
Y1836500D02*
D03*
X1030000Y1415500D02*
D03*
Y1396500D02*
D03*
X1059000Y1721500D02*
D03*
Y1740500D02*
D03*
X1122000Y1721500D02*
D03*
Y1740500D02*
D03*
X1195000Y1427500D02*
D03*
Y1408500D02*
D03*
X1169000Y1427500D02*
D03*
Y1408500D02*
D03*
X1004000Y1415500D02*
D03*
Y1396500D02*
D03*
X1033000Y1721500D02*
D03*
Y1740500D02*
D03*
X637600Y1579100D02*
D03*
Y1598100D02*
D03*
X1094000Y2003000D02*
D03*
Y1984000D02*
D03*
X418600Y1388100D02*
D03*
Y1369100D02*
D03*
X570000Y1388500D02*
D03*
Y1369500D02*
D03*
X830000Y2116500D02*
D03*
Y2135500D02*
D03*
X1334000Y1608500D02*
D03*
Y1589500D02*
D03*
X1294000Y1619500D02*
D03*
Y1600500D02*
D03*
X1334000Y1633500D02*
D03*
Y1652500D02*
D03*
X565000Y1288500D02*
D03*
Y1269500D02*
D03*
X1189000Y1746500D02*
D03*
Y1765500D02*
D03*
X1217000Y1757500D02*
D03*
Y1776500D02*
D03*
X994000Y1752500D02*
D03*
Y1733500D02*
D03*
D78*
X565600Y1630600D02*
D03*
X584600D02*
D03*
X635500Y1395000D02*
D03*
X654500D02*
D03*
X623500Y1345000D02*
D03*
X604500D02*
D03*
X1417500Y1799000D02*
D03*
X1398500D02*
D03*
X1342500Y2056000D02*
D03*
X1323500D02*
D03*
X1284000Y2056000D02*
D03*
X1265000D02*
D03*
X1226000Y2056000D02*
D03*
X1207000D02*
D03*
X566100Y1541600D02*
D03*
X585100D02*
D03*
X471600Y2118600D02*
D03*
X490600D02*
D03*
X469100Y1996600D02*
D03*
X488100D02*
D03*
X467100Y1879600D02*
D03*
X486100D02*
D03*
X554100Y1768400D02*
D03*
X573100D02*
D03*
X1084500Y2041000D02*
D03*
X1103500D02*
D03*
X1417500Y1711000D02*
D03*
X1398500D02*
D03*
X1142500Y2224000D02*
D03*
X1123500D02*
D03*
X1170500Y1822000D02*
D03*
X1151500D02*
D03*
X820500Y1781000D02*
D03*
X839500D02*
D03*
X809500Y1807000D02*
D03*
X828500D02*
D03*
X1577500Y1259000D02*
D03*
X1596500D02*
D03*
X1228500Y1235000D02*
D03*
X1247500D02*
D03*
X1378500Y1259000D02*
D03*
X1397500D02*
D03*
D79*
X713500Y1395000D02*
D03*
X694500D02*
D03*
X891500Y1816000D02*
D03*
X872500D02*
D03*
X1246500Y1582000D02*
D03*
X1265500D02*
D03*
X1246500Y1531000D02*
D03*
X1265500D02*
D03*
X957500Y1480000D02*
D03*
X938500D02*
D03*
X957500Y1506000D02*
D03*
X938500D02*
D03*
X957500Y1582000D02*
D03*
X938500D02*
D03*
X957500Y1632000D02*
D03*
X938500D02*
D03*
X1246500Y1556000D02*
D03*
X1265500D02*
D03*
X1246500Y1506000D02*
D03*
X1265500D02*
D03*
X957500Y1531000D02*
D03*
X938500D02*
D03*
X957500Y1607000D02*
D03*
X938500D02*
D03*
X1246500Y1481000D02*
D03*
X1265500D02*
D03*
X1239500Y1662000D02*
D03*
X1258500D02*
D03*
X1075500Y1409000D02*
D03*
X1094500D02*
D03*
X1139500Y1409000D02*
D03*
X1120500D02*
D03*
X1141500Y2198000D02*
D03*
X1122500D02*
D03*
X1345500Y1761000D02*
D03*
X1326500D02*
D03*
X1350500Y1259000D02*
D03*
X1331500D02*
D03*
X1550500D02*
D03*
X1531500D02*
D03*
X694500Y1338000D02*
D03*
X713500D02*
D03*
D80*
X661000Y1361000D02*
D03*
D81*
X675000Y1351250D02*
D03*
Y1357750D02*
D03*
Y1364250D02*
D03*
Y1370750D02*
D03*
X647000Y1351250D02*
D03*
Y1357750D02*
D03*
Y1364250D02*
D03*
Y1370750D02*
D03*
D82*
X1373000Y1498500D02*
D03*
Y1479500D02*
D03*
X1054000Y1817500D02*
D03*
Y1836500D02*
D03*
X981000Y1252500D02*
D03*
Y1233500D02*
D03*
X1031000Y1252500D02*
D03*
Y1233500D02*
D03*
X1006000Y1233500D02*
D03*
Y1252500D02*
D03*
X1031000Y1209500D02*
D03*
Y1190500D02*
D03*
X981000Y1209500D02*
D03*
Y1190500D02*
D03*
X1006000Y1209500D02*
D03*
Y1190500D02*
D03*
X1056000Y1252500D02*
D03*
Y1233500D02*
D03*
X1081000Y1252500D02*
D03*
Y1233500D02*
D03*
Y1209500D02*
D03*
Y1190500D02*
D03*
X1056000Y1209500D02*
D03*
Y1190500D02*
D03*
X1220000Y1428500D02*
D03*
Y1409500D02*
D03*
X442000Y1601500D02*
D03*
Y1620500D02*
D03*
X477600Y1601600D02*
D03*
Y1620600D02*
D03*
X670600Y1597600D02*
D03*
Y1578600D02*
D03*
X709600Y1915600D02*
D03*
Y1934600D02*
D03*
Y2028600D02*
D03*
Y2047600D02*
D03*
X710600Y2155600D02*
D03*
Y2174600D02*
D03*
X553600Y1722900D02*
D03*
Y1741900D02*
D03*
X728600Y1747600D02*
D03*
Y1728600D02*
D03*
X728600Y1780100D02*
D03*
Y1799100D02*
D03*
X455600Y1389100D02*
D03*
Y1370100D02*
D03*
X599000Y1407500D02*
D03*
Y1388500D02*
D03*
X818000Y2012500D02*
D03*
Y2031500D02*
D03*
X790000Y2012500D02*
D03*
Y2031500D02*
D03*
X1345000Y1802500D02*
D03*
Y1783500D02*
D03*
X1514000Y1747500D02*
D03*
Y1728500D02*
D03*
X1467000Y1747500D02*
D03*
Y1728500D02*
D03*
D83*
X500500Y1215000D02*
D03*
X526500D02*
D03*
X520000D02*
D03*
X513500D02*
D03*
D84*
X482500Y1213750D02*
D03*
X544500Y1213750D02*
D03*
D85*
X475500Y1188250D02*
D03*
X551500Y1188250D02*
D03*
D86*
X501500Y1188250D02*
D03*
X525500D02*
D03*
D87*
X924000Y1823000D02*
D03*
D88*
X913500Y1816500D02*
D03*
Y1823000D02*
D03*
Y1829500D02*
D03*
X934500D02*
D03*
Y1823000D02*
D03*
Y1816500D02*
D03*
D89*
X1171400Y1232000D02*
D03*
X1158700D02*
D03*
X1146000D02*
D03*
X1133300D02*
D03*
X1120600D02*
D03*
Y1191400D02*
D03*
X1133300D02*
D03*
X1146000D02*
D03*
X1158700D02*
D03*
X1171400D02*
D03*
D90*
X1017400Y1462200D02*
D03*
X1022400D02*
D03*
X1027400D02*
D03*
X1032400D02*
D03*
X1037400D02*
D03*
X1042400D02*
D03*
X1047400D02*
D03*
X1052400D02*
D03*
X1057400D02*
D03*
X1062400D02*
D03*
X1067400D02*
D03*
X1072400D02*
D03*
X1077400D02*
D03*
X1082400D02*
D03*
X1087400D02*
D03*
X1092400D02*
D03*
X1097400D02*
D03*
X1102400D02*
D03*
X1107400D02*
D03*
X1112400D02*
D03*
X1117400D02*
D03*
X1122400D02*
D03*
X1127400D02*
D03*
X1132400D02*
D03*
X1137400D02*
D03*
X1142400D02*
D03*
X1147400D02*
D03*
X1152400D02*
D03*
X1157400D02*
D03*
X1162400D02*
D03*
X1167400D02*
D03*
X1172400D02*
D03*
X1177400D02*
D03*
X1182400D02*
D03*
X1187400D02*
D03*
X1192400D02*
D03*
Y1676700D02*
D03*
X1187400D02*
D03*
X1182400D02*
D03*
X1177400D02*
D03*
X1172400D02*
D03*
X1167400D02*
D03*
X1162400D02*
D03*
X1157400D02*
D03*
X1152400D02*
D03*
X1147400D02*
D03*
X1142400D02*
D03*
X1137400D02*
D03*
X1132400D02*
D03*
X1127400D02*
D03*
X1122400D02*
D03*
X1117400D02*
D03*
X1112400D02*
D03*
X1107400D02*
D03*
X1102400D02*
D03*
X1097400D02*
D03*
X1092400D02*
D03*
X1087400D02*
D03*
X1082400D02*
D03*
X1077400D02*
D03*
X1072400D02*
D03*
X1067400D02*
D03*
X1062400D02*
D03*
X1057400D02*
D03*
X1052400D02*
D03*
X1047400D02*
D03*
X1042400D02*
D03*
X1037400D02*
D03*
X1032400D02*
D03*
X1027400D02*
D03*
X1022400D02*
D03*
X1017400D02*
D03*
D91*
X1212150Y1481950D02*
D03*
Y1486950D02*
D03*
Y1491950D02*
D03*
Y1496950D02*
D03*
Y1501950D02*
D03*
Y1506950D02*
D03*
Y1511950D02*
D03*
Y1516950D02*
D03*
Y1521950D02*
D03*
Y1526950D02*
D03*
Y1531950D02*
D03*
Y1536950D02*
D03*
Y1541950D02*
D03*
Y1546950D02*
D03*
Y1551950D02*
D03*
Y1556950D02*
D03*
Y1561950D02*
D03*
Y1566950D02*
D03*
Y1571950D02*
D03*
Y1576950D02*
D03*
Y1581950D02*
D03*
Y1586950D02*
D03*
Y1591950D02*
D03*
Y1596950D02*
D03*
Y1601950D02*
D03*
Y1606950D02*
D03*
Y1611950D02*
D03*
Y1616950D02*
D03*
Y1621950D02*
D03*
Y1626950D02*
D03*
Y1631950D02*
D03*
Y1636950D02*
D03*
Y1641950D02*
D03*
Y1646950D02*
D03*
Y1651950D02*
D03*
Y1656950D02*
D03*
X997650D02*
D03*
Y1651950D02*
D03*
Y1646950D02*
D03*
Y1641950D02*
D03*
Y1636950D02*
D03*
Y1631950D02*
D03*
Y1626950D02*
D03*
Y1621950D02*
D03*
Y1616950D02*
D03*
Y1611950D02*
D03*
Y1606950D02*
D03*
Y1601950D02*
D03*
Y1596950D02*
D03*
Y1591950D02*
D03*
Y1586950D02*
D03*
Y1581950D02*
D03*
Y1576950D02*
D03*
Y1571950D02*
D03*
Y1566950D02*
D03*
Y1561950D02*
D03*
Y1556950D02*
D03*
Y1551950D02*
D03*
Y1546950D02*
D03*
Y1541950D02*
D03*
Y1536950D02*
D03*
Y1531950D02*
D03*
Y1526950D02*
D03*
Y1521950D02*
D03*
Y1516950D02*
D03*
Y1511950D02*
D03*
Y1506950D02*
D03*
Y1501950D02*
D03*
Y1496950D02*
D03*
Y1491950D02*
D03*
Y1486950D02*
D03*
Y1481950D02*
D03*
D92*
X1153500Y1349000D02*
D03*
X1058500D02*
D03*
D93*
X447000Y1940000D02*
D03*
X485000D02*
D03*
X561000Y1940000D02*
D03*
X523000D02*
D03*
X447000Y2179000D02*
D03*
X485000D02*
D03*
X447000Y2053000D02*
D03*
X485000D02*
D03*
X561000D02*
D03*
X523000D02*
D03*
X562000Y2179000D02*
D03*
X524000D02*
D03*
D94*
X1598000Y1605000D02*
D03*
X1484000Y1622000D02*
D03*
X1207000Y2168000D02*
D03*
X1322000D02*
D03*
X1265000Y2204000D02*
D03*
X419000Y1423000D02*
D03*
X959000Y1743000D02*
D03*
X612000Y1856000D02*
D03*
X673000Y1871000D02*
D03*
X1322000Y2204000D02*
D03*
X1208000D02*
D03*
X1404000Y1639000D02*
D03*
X1265000Y2168000D02*
D03*
D95*
X713500Y1827000D02*
D03*
X728500D02*
D03*
X515600Y2118600D02*
D03*
X530600D02*
D03*
X516100Y1996600D02*
D03*
X531100D02*
D03*
X522100Y1879600D02*
D03*
X537100D02*
D03*
X1202500Y1822000D02*
D03*
X1217500D02*
D03*
X1229500Y1258000D02*
D03*
X1244500D02*
D03*
D96*
X1116000Y1943000D02*
D03*
X1170000D02*
D03*
D97*
X505000Y1808900D02*
D03*
X454200D02*
D03*
X1414600Y1936500D02*
D03*
X1465400D02*
D03*
D98*
X479600Y1676400D02*
D03*
X1440000Y2069000D02*
D03*
D99*
X548600Y1604650D02*
D03*
Y1591950D02*
D03*
Y1579250D02*
D03*
Y1566550D02*
D03*
X602600Y1604650D02*
D03*
Y1591950D02*
D03*
Y1579250D02*
D03*
Y1566550D02*
D03*
X1378000Y1773050D02*
D03*
Y1760350D02*
D03*
Y1747650D02*
D03*
Y1734950D02*
D03*
X1432000Y1773050D02*
D03*
Y1760350D02*
D03*
Y1747650D02*
D03*
Y1734950D02*
D03*
D100*
X1119100Y2138000D02*
D03*
X1142000D02*
D03*
D101*
X1145000Y2047250D02*
D03*
X1140000D02*
D03*
X1135000D02*
D03*
X1130000D02*
D03*
X1125000D02*
D03*
X1145000Y2002750D02*
D03*
X1140000D02*
D03*
X1135000D02*
D03*
X1130000D02*
D03*
X1125000D02*
D03*
D102*
X1207000Y2081500D02*
D03*
Y2096500D02*
D03*
X1265000Y2081500D02*
D03*
Y2096500D02*
D03*
X1323000Y2081500D02*
D03*
Y2096500D02*
D03*
D103*
X799000Y2127500D02*
D03*
Y2116500D02*
D03*
X1023000Y1817500D02*
D03*
Y1828500D02*
D03*
X897000Y1791500D02*
D03*
Y1780500D02*
D03*
D104*
X1109000Y1829000D02*
D03*
D105*
X672100Y2155600D02*
D03*
Y2178600D02*
D03*
Y2201600D02*
D03*
Y2028600D02*
D03*
Y2051600D02*
D03*
Y2074600D02*
D03*
Y1915600D02*
D03*
Y1938600D02*
D03*
Y1961600D02*
D03*
X672500Y1748000D02*
D03*
Y1771000D02*
D03*
Y1794000D02*
D03*
D106*
X609100Y2178600D02*
D03*
Y2051600D02*
D03*
Y1938600D02*
D03*
X609500Y1771000D02*
D03*
D107*
X679800Y1190000D02*
D03*
X722200D02*
D03*
D108*
X596500Y1284500D02*
D03*
Y1279500D02*
D03*
Y1274500D02*
D03*
Y1269500D02*
D03*
Y1264500D02*
D03*
Y1259500D02*
D03*
Y1254500D02*
D03*
Y1249500D02*
D03*
X641500D02*
D03*
Y1254500D02*
D03*
Y1259500D02*
D03*
Y1264500D02*
D03*
Y1269500D02*
D03*
Y1274500D02*
D03*
Y1279500D02*
D03*
Y1284500D02*
D03*
D109*
X601500Y1244500D02*
D03*
X606500D02*
D03*
X611500D02*
D03*
X616500D02*
D03*
X621500D02*
D03*
X626500D02*
D03*
X631500D02*
D03*
X636500D02*
D03*
Y1289500D02*
D03*
X631500D02*
D03*
X626500D02*
D03*
X621500D02*
D03*
X616500D02*
D03*
X611500D02*
D03*
X606500D02*
D03*
X601500D02*
D03*
D110*
X619000Y1267000D02*
D03*
D111*
X507000Y1215000D02*
D03*
D112*
X1324250Y1230500D02*
D03*
X1403750D02*
D03*
X1324250Y1185500D02*
D03*
X1403750D02*
D03*
X1524250Y1230500D02*
D03*
X1603750D02*
D03*
X1524250Y1185500D02*
D03*
X1603750D02*
D03*
D113*
X500000Y1266000D02*
D03*
Y1308400D02*
D03*
D114*
X955500Y1817000D02*
D03*
X968500D02*
D03*
X499500Y1333000D02*
D03*
X512500D02*
D03*
X700500Y1364250D02*
D03*
X713500D02*
D03*
X1142000Y2172000D02*
D03*
X1155000D02*
D03*
D115*
X1527750Y1416450D02*
D03*
Y1429150D02*
D03*
Y1441850D02*
D03*
Y1454550D02*
D03*
Y1467250D02*
D03*
Y1479950D02*
D03*
Y1492650D02*
D03*
Y1505350D02*
D03*
Y1518050D02*
D03*
Y1530750D02*
D03*
Y1543450D02*
D03*
Y1556150D02*
D03*
Y1568850D02*
D03*
Y1581550D02*
D03*
X1434250Y1416450D02*
D03*
Y1429150D02*
D03*
Y1441850D02*
D03*
Y1454550D02*
D03*
Y1467250D02*
D03*
Y1479950D02*
D03*
Y1492650D02*
D03*
Y1505350D02*
D03*
Y1518050D02*
D03*
Y1530750D02*
D03*
Y1543450D02*
D03*
Y1556150D02*
D03*
Y1568850D02*
D03*
Y1581550D02*
D03*
D116*
X526600Y1388850D02*
D03*
Y1395350D02*
D03*
Y1401850D02*
D03*
Y1408350D02*
D03*
X482600Y1388850D02*
D03*
Y1395350D02*
D03*
Y1401850D02*
D03*
Y1408350D02*
D03*
D117*
X1546000Y1650000D02*
D03*
Y1606000D02*
D03*
X944000Y2162000D02*
D03*
Y2118000D02*
D03*
X900000Y2150000D02*
D03*
Y2194000D02*
D03*
D118*
X813000Y1730000D02*
D03*
X857000D02*
D03*
D119*
X442000Y1572000D02*
D03*
Y1546600D02*
D03*
X477600Y1572000D02*
D03*
Y1546600D02*
D03*
X1467000Y1798000D02*
D03*
Y1772600D02*
D03*
X1514000Y1798000D02*
D03*
Y1772600D02*
D03*
X761000Y1309000D02*
D03*
Y1334400D02*
D03*
Y1359800D02*
D03*
X701400Y1472000D02*
D03*
X676000D02*
D03*
X650600D02*
D03*
X625200D02*
D03*
X1336600Y1370000D02*
D03*
X1362000D02*
D03*
X1311200D02*
D03*
X1387400D02*
D03*
X1412800D02*
D03*
X777000Y1909200D02*
D03*
Y1934600D02*
D03*
Y1960000D02*
D03*
X1672400Y1530800D02*
D03*
Y1505400D02*
D03*
Y1429200D02*
D03*
Y1480000D02*
D03*
Y1454600D02*
D03*
Y1403800D02*
D03*
Y1378400D02*
D03*
Y1353000D02*
D03*
X1647000D02*
D03*
Y1378400D02*
D03*
Y1403800D02*
D03*
Y1454600D02*
D03*
Y1480000D02*
D03*
Y1429200D02*
D03*
Y1505400D02*
D03*
Y1530800D02*
D03*
D120*
X1000249Y2138999D02*
D03*
X1025250Y2139250D02*
D03*
X1051000Y2139000D02*
D03*
X1076500D02*
D03*
D121*
X923250Y2068500D02*
D03*
X949000Y2068000D02*
D03*
X973500Y2067750D02*
D03*
D122*
X1583000Y2069000D02*
D03*
X1638000D02*
D03*
D123*
X1711000D02*
D03*
X1689700Y1937700D02*
D03*
Y1658300D02*
D03*
X330700Y1811400D02*
D03*
Y2090800D02*
D03*
X330000Y1455600D02*
D03*
Y1735000D02*
D03*
D124*
X1677000Y1912300D02*
D03*
X1702400D02*
D03*
Y1886900D02*
D03*
X1677000D02*
D03*
Y1861500D02*
D03*
X1702400D02*
D03*
Y1836100D02*
D03*
X1677000D02*
D03*
Y1810700D02*
D03*
X1702400D02*
D03*
Y1785300D02*
D03*
X1677000D02*
D03*
Y1759900D02*
D03*
X1702400D02*
D03*
Y1734500D02*
D03*
X1677000D02*
D03*
Y1709100D02*
D03*
X1702400D02*
D03*
Y1683700D02*
D03*
X1677000D02*
D03*
X343400Y1836800D02*
D03*
X318000D02*
D03*
Y1862200D02*
D03*
X343400D02*
D03*
Y1887600D02*
D03*
X318000D02*
D03*
Y1913000D02*
D03*
X343400D02*
D03*
Y1938400D02*
D03*
X318000D02*
D03*
Y1963800D02*
D03*
X343400D02*
D03*
Y1989200D02*
D03*
X318000D02*
D03*
Y2014600D02*
D03*
X343400D02*
D03*
Y2040000D02*
D03*
X318000D02*
D03*
Y2065400D02*
D03*
X343400D02*
D03*
D125*
X348000Y2174000D02*
D03*
X1676000D02*
D03*
Y1247000D02*
D03*
X348000D02*
D03*
D126*
X317300Y1610050D02*
D03*
X349300Y1682800D02*
D03*
X349300Y1647800D02*
D03*
Y1507800D02*
D03*
Y1612800D02*
D03*
Y1577800D02*
D03*
Y1542800D02*
D03*
X317300Y1633050D02*
D03*
Y1685550D02*
D03*
Y1662550D02*
D03*
Y1528050D02*
D03*
Y1505050D02*
D03*
Y1557550D02*
D03*
Y1580550D02*
D03*
D127*
X1233000Y1961000D02*
D03*
Y1927000D02*
D03*
X1332200Y1961000D02*
D03*
Y1927000D02*
D03*
M02*
