G04 Layer_Color=2752767*
%FSLAX44Y44*%
%MOMM*%
G71*
G01*
G75*
%ADD132C,0.0508*%
%ADD133C,0.0677*%
%ADD134C,0.0339*%
D132*
X439968Y1569968D02*
Y1574032D01*
X444032D01*
Y1569968D01*
X439968D01*
Y1544568D02*
Y1548632D01*
X444032D01*
Y1544568D01*
X439968D01*
X475568Y1569968D02*
Y1574032D01*
X479632D01*
Y1569968D01*
X475568D01*
Y1544568D02*
Y1548632D01*
X479632D01*
Y1544568D01*
X475568D01*
X923250Y2066468D02*
X921218Y2070532D01*
X925282D01*
X923250Y2066468D01*
X949000Y2065968D02*
X946968Y2070032D01*
X951032D01*
X949000Y2065968D01*
X973500Y2065718D02*
X971468Y2069782D01*
X975532D01*
X973500Y2065718D01*
X1464968Y1795968D02*
Y1800032D01*
X1469032D01*
Y1795968D01*
X1464968D01*
Y1770568D02*
Y1774632D01*
X1469032D01*
Y1770568D01*
X1464968D01*
X1583000Y2066968D02*
X1584016Y2067984D01*
X1585032D01*
X1584016Y2069000D01*
X1585032Y2070016D01*
X1584016D01*
X1583000Y2071032D01*
X1581984Y2070016D01*
X1580968D01*
X1581984Y2069000D01*
X1580968Y2067984D01*
X1581984D01*
X1583000Y2066968D01*
X1638000D02*
X1639016Y2067984D01*
X1640032D01*
X1639016Y2069000D01*
X1640032Y2070016D01*
X1639016D01*
X1638000Y2071032D01*
X1636984Y2070016D01*
X1635968D01*
X1636984Y2069000D01*
X1635968Y2067984D01*
X1636984D01*
X1638000Y2066968D01*
X1708968D02*
X1709984Y2069000D01*
X1708968Y2071032D01*
X1711000Y2070016D01*
X1713032Y2071032D01*
X1712016Y2069000D01*
X1713032Y2066968D01*
X1711000Y2067984D01*
X1708968Y2066968D01*
X1511968Y1795968D02*
Y1800032D01*
X1516032D01*
Y1795968D01*
X1511968D01*
Y1770568D02*
Y1774632D01*
X1516032D01*
Y1770568D01*
X1511968D01*
X1675984Y1911284D02*
Y1910268D01*
X1678016D01*
Y1911284D01*
X1679032D01*
Y1913316D01*
X1678016D01*
Y1914332D01*
X1675984D01*
Y1913316D01*
X1674968D01*
Y1911284D01*
X1675984D01*
X1700368Y1910268D02*
X1701384D01*
X1702400Y1911284D01*
X1703416Y1910268D01*
X1704432D01*
Y1911284D01*
X1703416Y1912300D01*
X1704432Y1913316D01*
Y1914332D01*
X1703416D01*
X1702400Y1913316D01*
X1701384Y1914332D01*
X1700368D01*
Y1913316D01*
X1701384Y1912300D01*
X1700368Y1911284D01*
Y1910268D01*
Y1884868D02*
X1701384D01*
X1702400Y1885884D01*
X1703416Y1884868D01*
X1704432D01*
Y1885884D01*
X1703416Y1886900D01*
X1704432Y1887916D01*
Y1888932D01*
X1703416D01*
X1702400Y1887916D01*
X1701384Y1888932D01*
X1700368D01*
Y1887916D01*
X1701384Y1886900D01*
X1700368Y1885884D01*
Y1884868D01*
X1675984Y1885884D02*
Y1884868D01*
X1678016D01*
Y1885884D01*
X1679032D01*
Y1887916D01*
X1678016D01*
Y1888932D01*
X1675984D01*
Y1887916D01*
X1674968D01*
Y1885884D01*
X1675984D01*
Y1860484D02*
Y1859468D01*
X1678016D01*
Y1860484D01*
X1679032D01*
Y1862516D01*
X1678016D01*
Y1863532D01*
X1675984D01*
Y1862516D01*
X1674968D01*
Y1860484D01*
X1675984D01*
X1700368Y1859468D02*
X1701384D01*
X1702400Y1860484D01*
X1703416Y1859468D01*
X1704432D01*
Y1860484D01*
X1703416Y1861500D01*
X1704432Y1862516D01*
Y1863532D01*
X1703416D01*
X1702400Y1862516D01*
X1701384Y1863532D01*
X1700368D01*
Y1862516D01*
X1701384Y1861500D01*
X1700368Y1860484D01*
Y1859468D01*
Y1834068D02*
X1701384D01*
X1702400Y1835084D01*
X1703416Y1834068D01*
X1704432D01*
Y1835084D01*
X1703416Y1836100D01*
X1704432Y1837116D01*
Y1838132D01*
X1703416D01*
X1702400Y1837116D01*
X1701384Y1838132D01*
X1700368D01*
Y1837116D01*
X1701384Y1836100D01*
X1700368Y1835084D01*
Y1834068D01*
X1675984Y1835084D02*
Y1834068D01*
X1678016D01*
Y1835084D01*
X1679032D01*
Y1837116D01*
X1678016D01*
Y1838132D01*
X1675984D01*
Y1837116D01*
X1674968D01*
Y1835084D01*
X1675984D01*
Y1809684D02*
Y1808668D01*
X1678016D01*
Y1809684D01*
X1679032D01*
Y1811716D01*
X1678016D01*
Y1812732D01*
X1675984D01*
Y1811716D01*
X1674968D01*
Y1809684D01*
X1675984D01*
X1700368Y1808668D02*
X1701384D01*
X1702400Y1809684D01*
X1703416Y1808668D01*
X1704432D01*
Y1809684D01*
X1703416Y1810700D01*
X1704432Y1811716D01*
Y1812732D01*
X1703416D01*
X1702400Y1811716D01*
X1701384Y1812732D01*
X1700368D01*
Y1811716D01*
X1701384Y1810700D01*
X1700368Y1809684D01*
Y1808668D01*
Y1783268D02*
X1701384D01*
X1702400Y1784284D01*
X1703416Y1783268D01*
X1704432D01*
Y1784284D01*
X1703416Y1785300D01*
X1704432Y1786316D01*
Y1787332D01*
X1703416D01*
X1702400Y1786316D01*
X1701384Y1787332D01*
X1700368D01*
Y1786316D01*
X1701384Y1785300D01*
X1700368Y1784284D01*
Y1783268D01*
X1675984Y1784284D02*
Y1783268D01*
X1678016D01*
Y1784284D01*
X1679032D01*
Y1786316D01*
X1678016D01*
Y1787332D01*
X1675984D01*
Y1786316D01*
X1674968D01*
Y1784284D01*
X1675984D01*
Y1758884D02*
Y1757868D01*
X1678016D01*
Y1758884D01*
X1679032D01*
Y1760916D01*
X1678016D01*
Y1761932D01*
X1675984D01*
Y1760916D01*
X1674968D01*
Y1758884D01*
X1675984D01*
X1700368Y1757868D02*
X1701384D01*
X1702400Y1758884D01*
X1703416Y1757868D01*
X1704432D01*
Y1758884D01*
X1703416Y1759900D01*
X1704432Y1760916D01*
Y1761932D01*
X1703416D01*
X1702400Y1760916D01*
X1701384Y1761932D01*
X1700368D01*
Y1760916D01*
X1701384Y1759900D01*
X1700368Y1758884D01*
Y1757868D01*
Y1732468D02*
X1701384D01*
X1702400Y1733484D01*
X1703416Y1732468D01*
X1704432D01*
Y1733484D01*
X1703416Y1734500D01*
X1704432Y1735516D01*
Y1736532D01*
X1703416D01*
X1702400Y1735516D01*
X1701384Y1736532D01*
X1700368D01*
Y1735516D01*
X1701384Y1734500D01*
X1700368Y1733484D01*
Y1732468D01*
X1675984Y1733484D02*
Y1732468D01*
X1678016D01*
Y1733484D01*
X1679032D01*
Y1735516D01*
X1678016D01*
Y1736532D01*
X1675984D01*
Y1735516D01*
X1674968D01*
Y1733484D01*
X1675984D01*
Y1708084D02*
Y1707068D01*
X1678016D01*
Y1708084D01*
X1679032D01*
Y1710116D01*
X1678016D01*
Y1711132D01*
X1675984D01*
Y1710116D01*
X1674968D01*
Y1708084D01*
X1675984D01*
X1700368Y1707068D02*
X1701384D01*
X1702400Y1708084D01*
X1703416Y1707068D01*
X1704432D01*
Y1708084D01*
X1703416Y1709100D01*
X1704432Y1710116D01*
Y1711132D01*
X1703416D01*
X1702400Y1710116D01*
X1701384Y1711132D01*
X1700368D01*
Y1710116D01*
X1701384Y1709100D01*
X1700368Y1708084D01*
Y1707068D01*
Y1681668D02*
X1701384D01*
X1702400Y1682684D01*
X1703416Y1681668D01*
X1704432D01*
Y1682684D01*
X1703416Y1683700D01*
X1704432Y1684716D01*
Y1685732D01*
X1703416D01*
X1702400Y1684716D01*
X1701384Y1685732D01*
X1700368D01*
Y1684716D01*
X1701384Y1683700D01*
X1700368Y1682684D01*
Y1681668D01*
X1675984Y1682684D02*
Y1681668D01*
X1678016D01*
Y1682684D01*
X1679032D01*
Y1684716D01*
X1678016D01*
Y1685732D01*
X1675984D01*
Y1684716D01*
X1674968D01*
Y1682684D01*
X1675984D01*
X1687668Y1937700D02*
X1689700Y1939732D01*
X1691732Y1937700D01*
X1689700Y1935668D01*
X1687668Y1937700D01*
Y1658300D02*
X1689700Y1660332D01*
X1691732Y1658300D01*
X1689700Y1656268D01*
X1687668Y1658300D01*
X345968Y2171968D02*
Y2176032D01*
X350032D01*
Y2171968D01*
X345968D01*
X346984Y2172984D02*
Y2175016D01*
X349016D01*
Y2172984D01*
X346984D01*
X1673968Y2171968D02*
Y2176032D01*
X1678032D01*
Y2171968D01*
X1673968D01*
X1674984Y2172984D02*
Y2175016D01*
X1677016D01*
Y2172984D01*
X1674984D01*
X1673968Y1244968D02*
Y1249032D01*
X1678032D01*
Y1244968D01*
X1673968D01*
X1674984Y1245984D02*
Y1248016D01*
X1677016D01*
Y1245984D01*
X1674984D01*
X345968Y1244968D02*
Y1249032D01*
X350032D01*
Y1244968D01*
X345968D01*
X346984Y1245984D02*
Y1248016D01*
X349016D01*
Y1245984D01*
X346984D01*
X758968Y1306968D02*
Y1311032D01*
X763032D01*
Y1306968D01*
X758968D01*
Y1332368D02*
Y1336432D01*
X763032D01*
Y1332368D01*
X758968D01*
Y1357768D02*
Y1361832D01*
X763032D01*
Y1357768D01*
X758968D01*
X699368Y1469968D02*
Y1474032D01*
X703432D01*
Y1469968D01*
X699368D01*
X673968D02*
Y1474032D01*
X678032D01*
Y1469968D01*
X673968D01*
X648568D02*
Y1474032D01*
X652632D01*
Y1469968D01*
X648568D01*
X623168D02*
Y1474032D01*
X627232D01*
Y1469968D01*
X623168D01*
X1334568Y1367968D02*
Y1372032D01*
X1338632D01*
Y1367968D01*
X1334568D01*
X1359968D02*
Y1372032D01*
X1364032D01*
Y1367968D01*
X1359968D01*
X1309168D02*
Y1372032D01*
X1313232D01*
Y1367968D01*
X1309168D01*
X1385368D02*
Y1372032D01*
X1389432D01*
Y1367968D01*
X1385368D01*
X1410768D02*
Y1372032D01*
X1414832D01*
Y1367968D01*
X1410768D01*
X774968Y1907168D02*
Y1911232D01*
X779032D01*
Y1907168D01*
X774968D01*
Y1932568D02*
Y1936632D01*
X779032D01*
Y1932568D01*
X774968D01*
Y1957968D02*
Y1962032D01*
X779032D01*
Y1957968D01*
X774968D01*
X342384Y1835784D02*
Y1834768D01*
X344416D01*
Y1835784D01*
X345432D01*
Y1837816D01*
X344416D01*
Y1838832D01*
X342384D01*
Y1837816D01*
X341368D01*
Y1835784D01*
X342384D01*
X315968Y1834768D02*
X316984D01*
X318000Y1835784D01*
X319016Y1834768D01*
X320032D01*
Y1835784D01*
X319016Y1836800D01*
X320032Y1837816D01*
Y1838832D01*
X319016D01*
X318000Y1837816D01*
X316984Y1838832D01*
X315968D01*
Y1837816D01*
X316984Y1836800D01*
X315968Y1835784D01*
Y1834768D01*
Y1860168D02*
X316984D01*
X318000Y1861184D01*
X319016Y1860168D01*
X320032D01*
Y1861184D01*
X319016Y1862200D01*
X320032Y1863216D01*
Y1864232D01*
X319016D01*
X318000Y1863216D01*
X316984Y1864232D01*
X315968D01*
Y1863216D01*
X316984Y1862200D01*
X315968Y1861184D01*
Y1860168D01*
X342384Y1861184D02*
Y1860168D01*
X344416D01*
Y1861184D01*
X345432D01*
Y1863216D01*
X344416D01*
Y1864232D01*
X342384D01*
Y1863216D01*
X341368D01*
Y1861184D01*
X342384D01*
Y1886584D02*
Y1885568D01*
X344416D01*
Y1886584D01*
X345432D01*
Y1888616D01*
X344416D01*
Y1889632D01*
X342384D01*
Y1888616D01*
X341368D01*
Y1886584D01*
X342384D01*
X315968Y1885568D02*
X316984D01*
X318000Y1886584D01*
X319016Y1885568D01*
X320032D01*
Y1886584D01*
X319016Y1887600D01*
X320032Y1888616D01*
Y1889632D01*
X319016D01*
X318000Y1888616D01*
X316984Y1889632D01*
X315968D01*
Y1888616D01*
X316984Y1887600D01*
X315968Y1886584D01*
Y1885568D01*
Y1910968D02*
X316984D01*
X318000Y1911984D01*
X319016Y1910968D01*
X320032D01*
Y1911984D01*
X319016Y1913000D01*
X320032Y1914016D01*
Y1915032D01*
X319016D01*
X318000Y1914016D01*
X316984Y1915032D01*
X315968D01*
Y1914016D01*
X316984Y1913000D01*
X315968Y1911984D01*
Y1910968D01*
X342384Y1911984D02*
Y1910968D01*
X344416D01*
Y1911984D01*
X345432D01*
Y1914016D01*
X344416D01*
Y1915032D01*
X342384D01*
Y1914016D01*
X341368D01*
Y1911984D01*
X342384D01*
Y1937384D02*
Y1936368D01*
X344416D01*
Y1937384D01*
X345432D01*
Y1939416D01*
X344416D01*
Y1940432D01*
X342384D01*
Y1939416D01*
X341368D01*
Y1937384D01*
X342384D01*
X315968Y1936368D02*
X316984D01*
X318000Y1937384D01*
X319016Y1936368D01*
X320032D01*
Y1937384D01*
X319016Y1938400D01*
X320032Y1939416D01*
Y1940432D01*
X319016D01*
X318000Y1939416D01*
X316984Y1940432D01*
X315968D01*
Y1939416D01*
X316984Y1938400D01*
X315968Y1937384D01*
Y1936368D01*
Y1961768D02*
X316984D01*
X318000Y1962784D01*
X319016Y1961768D01*
X320032D01*
Y1962784D01*
X319016Y1963800D01*
X320032Y1964816D01*
Y1965832D01*
X319016D01*
X318000Y1964816D01*
X316984Y1965832D01*
X315968D01*
Y1964816D01*
X316984Y1963800D01*
X315968Y1962784D01*
Y1961768D01*
X342384Y1962784D02*
Y1961768D01*
X344416D01*
Y1962784D01*
X345432D01*
Y1964816D01*
X344416D01*
Y1965832D01*
X342384D01*
Y1964816D01*
X341368D01*
Y1962784D01*
X342384D01*
Y1988184D02*
Y1987168D01*
X344416D01*
Y1988184D01*
X345432D01*
Y1990216D01*
X344416D01*
Y1991232D01*
X342384D01*
Y1990216D01*
X341368D01*
Y1988184D01*
X342384D01*
X315968Y1987168D02*
X316984D01*
X318000Y1988184D01*
X319016Y1987168D01*
X320032D01*
Y1988184D01*
X319016Y1989200D01*
X320032Y1990216D01*
Y1991232D01*
X319016D01*
X318000Y1990216D01*
X316984Y1991232D01*
X315968D01*
Y1990216D01*
X316984Y1989200D01*
X315968Y1988184D01*
Y1987168D01*
Y2012568D02*
X316984D01*
X318000Y2013584D01*
X319016Y2012568D01*
X320032D01*
Y2013584D01*
X319016Y2014600D01*
X320032Y2015616D01*
Y2016632D01*
X319016D01*
X318000Y2015616D01*
X316984Y2016632D01*
X315968D01*
Y2015616D01*
X316984Y2014600D01*
X315968Y2013584D01*
Y2012568D01*
X342384Y2013584D02*
Y2012568D01*
X344416D01*
Y2013584D01*
X345432D01*
Y2015616D01*
X344416D01*
Y2016632D01*
X342384D01*
Y2015616D01*
X341368D01*
Y2013584D01*
X342384D01*
Y2038984D02*
Y2037968D01*
X344416D01*
Y2038984D01*
X345432D01*
Y2041016D01*
X344416D01*
Y2042032D01*
X342384D01*
Y2041016D01*
X341368D01*
Y2038984D01*
X342384D01*
X315968Y2037968D02*
X316984D01*
X318000Y2038984D01*
X319016Y2037968D01*
X320032D01*
Y2038984D01*
X319016Y2040000D01*
X320032Y2041016D01*
Y2042032D01*
X319016D01*
X318000Y2041016D01*
X316984Y2042032D01*
X315968D01*
Y2041016D01*
X316984Y2040000D01*
X315968Y2038984D01*
Y2037968D01*
Y2063368D02*
X316984D01*
X318000Y2064384D01*
X319016Y2063368D01*
X320032D01*
Y2064384D01*
X319016Y2065400D01*
X320032Y2066416D01*
Y2067432D01*
X319016D01*
X318000Y2066416D01*
X316984Y2067432D01*
X315968D01*
Y2066416D01*
X316984Y2065400D01*
X315968Y2064384D01*
Y2063368D01*
X342384Y2064384D02*
Y2063368D01*
X344416D01*
Y2064384D01*
X345432D01*
Y2066416D01*
X344416D01*
Y2067432D01*
X342384D01*
Y2066416D01*
X341368D01*
Y2064384D01*
X342384D01*
X328668Y1811400D02*
X330700Y1813432D01*
X332732Y1811400D01*
X330700Y1809368D01*
X328668Y1811400D01*
Y2090800D02*
X330700Y2092832D01*
X332732Y2090800D01*
X330700Y2088768D01*
X328668Y2090800D01*
X327968Y1455600D02*
X330000Y1457632D01*
X332032Y1455600D01*
X330000Y1453568D01*
X327968Y1455600D01*
Y1735000D02*
X330000Y1737032D01*
X332032Y1735000D01*
X330000Y1732968D01*
X327968Y1735000D01*
X1233000Y1958968D02*
X1230968Y1963032D01*
X1235032D01*
X1233000Y1958968D01*
Y1959984D02*
X1231984Y1962016D01*
X1234016D01*
X1233000Y1959984D01*
Y1924968D02*
X1230968Y1929032D01*
X1235032D01*
X1233000Y1924968D01*
Y1925984D02*
X1231984Y1928016D01*
X1234016D01*
X1233000Y1925984D01*
X1332200Y1958968D02*
X1330168Y1963032D01*
X1334232D01*
X1332200Y1958968D01*
Y1959984D02*
X1331184Y1962016D01*
X1333216D01*
X1332200Y1959984D01*
Y1924968D02*
X1330168Y1929032D01*
X1334232D01*
X1332200Y1924968D01*
Y1925984D02*
X1331184Y1928016D01*
X1333216D01*
X1332200Y1925984D01*
X1670368Y1528768D02*
Y1532832D01*
X1674432D01*
Y1528768D01*
X1670368D01*
Y1503368D02*
Y1507432D01*
X1674432D01*
Y1503368D01*
X1670368D01*
Y1427168D02*
Y1431232D01*
X1674432D01*
Y1427168D01*
X1670368D01*
Y1477968D02*
Y1482032D01*
X1674432D01*
Y1477968D01*
X1670368D01*
Y1452568D02*
Y1456632D01*
X1674432D01*
Y1452568D01*
X1670368D01*
Y1401768D02*
Y1405832D01*
X1674432D01*
Y1401768D01*
X1670368D01*
Y1376368D02*
Y1380432D01*
X1674432D01*
Y1376368D01*
X1670368D01*
Y1350968D02*
Y1355032D01*
X1674432D01*
Y1350968D01*
X1670368D01*
X1644968D02*
Y1355032D01*
X1649032D01*
Y1350968D01*
X1644968D01*
Y1376368D02*
Y1380432D01*
X1649032D01*
Y1376368D01*
X1644968D01*
Y1401768D02*
Y1405832D01*
X1649032D01*
Y1401768D01*
X1644968D01*
Y1452568D02*
Y1456632D01*
X1649032D01*
Y1452568D01*
X1644968D01*
Y1477968D02*
Y1482032D01*
X1649032D01*
Y1477968D01*
X1644968D01*
Y1427168D02*
Y1431232D01*
X1649032D01*
Y1427168D01*
X1644968D01*
Y1503368D02*
Y1507432D01*
X1649032D01*
Y1503368D01*
X1644968D01*
Y1528768D02*
Y1532832D01*
X1649032D01*
Y1528768D01*
X1644968D01*
X837000Y1558968D02*
X838016Y1559984D01*
X839032D01*
X838016Y1561000D01*
X839032Y1562016D01*
X838016D01*
X837000Y1563032D01*
X835984Y1562016D01*
X834968D01*
X835984Y1561000D01*
X834968Y1559984D01*
X835984D01*
X837000Y1558968D01*
Y1559984D02*
X837508Y1560492D01*
X838016D01*
X837508Y1561000D01*
X838016Y1561508D01*
X837508D01*
X837000Y1562016D01*
X836492Y1561508D01*
X835984D01*
X836492Y1561000D01*
X835984Y1560492D01*
X836492D01*
X837000Y1559984D01*
X815000Y1537968D02*
X816016Y1538984D01*
X817032D01*
X816016Y1540000D01*
X817032Y1541016D01*
X816016D01*
X815000Y1542032D01*
X813984Y1541016D01*
X812968D01*
X813984Y1540000D01*
X812968Y1538984D01*
X813984D01*
X815000Y1537968D01*
Y1538984D02*
X815508Y1539492D01*
X816016D01*
X815508Y1540000D01*
X816016Y1540508D01*
X815508D01*
X815000Y1541016D01*
X814492Y1540508D01*
X813984D01*
X814492Y1540000D01*
X813984Y1539492D01*
X814492D01*
X815000Y1538984D01*
X802000Y1566968D02*
X803016Y1567984D01*
X804032D01*
X803016Y1569000D01*
X804032Y1570016D01*
X803016D01*
X802000Y1571032D01*
X800984Y1570016D01*
X799968D01*
X800984Y1569000D01*
X799968Y1567984D01*
X800984D01*
X802000Y1566968D01*
Y1567984D02*
X802508Y1568492D01*
X803016D01*
X802508Y1569000D01*
X803016Y1569508D01*
X802508D01*
X802000Y1570016D01*
X801492Y1569508D01*
X800984D01*
X801492Y1569000D01*
X800984Y1568492D01*
X801492D01*
X802000Y1567984D01*
X731250Y1362218D02*
X732266Y1363234D01*
X733282D01*
X732266Y1364250D01*
X733282Y1365266D01*
X732266D01*
X731250Y1366282D01*
X730234Y1365266D01*
X729218D01*
X730234Y1364250D01*
X729218Y1363234D01*
X730234D01*
X731250Y1362218D01*
Y1363234D02*
X731758Y1363742D01*
X732266D01*
X731758Y1364250D01*
X732266Y1364758D01*
X731758D01*
X731250Y1365266D01*
X730742Y1364758D01*
X730234D01*
X730742Y1364250D01*
X730234Y1363742D01*
X730742D01*
X731250Y1363234D01*
X741000Y1524968D02*
X742016Y1525984D01*
X743032D01*
X742016Y1527000D01*
X743032Y1528016D01*
X742016D01*
X741000Y1529032D01*
X739984Y1528016D01*
X738968D01*
X739984Y1527000D01*
X738968Y1525984D01*
X739984D01*
X741000Y1524968D01*
Y1525984D02*
X741508Y1526492D01*
X742016D01*
X741508Y1527000D01*
X742016Y1527508D01*
X741508D01*
X741000Y1528016D01*
X740492Y1527508D01*
X739984D01*
X740492Y1527000D01*
X739984Y1526492D01*
X740492D01*
X741000Y1525984D01*
X753500Y2095968D02*
X754516Y2096984D01*
X755532D01*
X754516Y2098000D01*
X755532Y2099016D01*
X754516D01*
X753500Y2100032D01*
X752484Y2099016D01*
X751468D01*
X752484Y2098000D01*
X751468Y2096984D01*
X752484D01*
X753500Y2095968D01*
Y2096984D02*
X754008Y2097492D01*
X754516D01*
X754008Y2098000D01*
X754516Y2098508D01*
X754008D01*
X753500Y2099016D01*
X752992Y2098508D01*
X752484D01*
X752992Y2098000D01*
X752484Y2097492D01*
X752992D01*
X753500Y2096984D01*
X727000Y1411968D02*
X728016Y1412984D01*
X729032D01*
X728016Y1414000D01*
X729032Y1415016D01*
X728016D01*
X727000Y1416032D01*
X725984Y1415016D01*
X724968D01*
X725984Y1414000D01*
X724968Y1412984D01*
X725984D01*
X727000Y1411968D01*
Y1412984D02*
X727508Y1413492D01*
X728016D01*
X727508Y1414000D01*
X728016Y1414508D01*
X727508D01*
X727000Y1415016D01*
X726492Y1414508D01*
X725984D01*
X726492Y1414000D01*
X725984Y1413492D01*
X726492D01*
X727000Y1412984D01*
X1070000Y1702968D02*
X1071016Y1703984D01*
X1072032D01*
X1071016Y1705000D01*
X1072032Y1706016D01*
X1071016D01*
X1070000Y1707032D01*
X1068984Y1706016D01*
X1067968D01*
X1068984Y1705000D01*
X1067968Y1703984D01*
X1068984D01*
X1070000Y1702968D01*
Y1703984D02*
X1070508Y1704492D01*
X1071016D01*
X1070508Y1705000D01*
X1071016Y1705508D01*
X1070508D01*
X1070000Y1706016D01*
X1069492Y1705508D01*
X1068984D01*
X1069492Y1705000D01*
X1068984Y1704492D01*
X1069492D01*
X1070000Y1703984D01*
X1003000Y1702968D02*
X1004016Y1703984D01*
X1005032D01*
X1004016Y1705000D01*
X1005032Y1706016D01*
X1004016D01*
X1003000Y1707032D01*
X1001984Y1706016D01*
X1000968D01*
X1001984Y1705000D01*
X1000968Y1703984D01*
X1001984D01*
X1003000Y1702968D01*
Y1703984D02*
X1003508Y1704492D01*
X1004016D01*
X1003508Y1705000D01*
X1004016Y1705508D01*
X1003508D01*
X1003000Y1706016D01*
X1002492Y1705508D01*
X1001984D01*
X1002492Y1705000D01*
X1001984Y1704492D01*
X1002492D01*
X1003000Y1703984D01*
X1086000Y1693968D02*
X1087016Y1694984D01*
X1088032D01*
X1087016Y1696000D01*
X1088032Y1697016D01*
X1087016D01*
X1086000Y1698032D01*
X1084984Y1697016D01*
X1083968D01*
X1084984Y1696000D01*
X1083968Y1694984D01*
X1084984D01*
X1086000Y1693968D01*
Y1694984D02*
X1086508Y1695492D01*
X1087016D01*
X1086508Y1696000D01*
X1087016Y1696508D01*
X1086508D01*
X1086000Y1697016D01*
X1085492Y1696508D01*
X1084984D01*
X1085492Y1696000D01*
X1084984Y1695492D01*
X1085492D01*
X1086000Y1694984D01*
X1003000Y1693968D02*
X1004016Y1694984D01*
X1005032D01*
X1004016Y1696000D01*
X1005032Y1697016D01*
X1004016D01*
X1003000Y1698032D01*
X1001984Y1697016D01*
X1000968D01*
X1001984Y1696000D01*
X1000968Y1694984D01*
X1001984D01*
X1003000Y1693968D01*
Y1694984D02*
X1003508Y1695492D01*
X1004016D01*
X1003508Y1696000D01*
X1004016Y1696508D01*
X1003508D01*
X1003000Y1697016D01*
X1002492Y1696508D01*
X1001984D01*
X1002492Y1696000D01*
X1001984Y1695492D01*
X1002492D01*
X1003000Y1694984D01*
X1107400Y1694488D02*
X1108416Y1695504D01*
X1109432D01*
X1108416Y1696520D01*
X1109432Y1697536D01*
X1108416D01*
X1107400Y1698552D01*
X1106384Y1697536D01*
X1105368D01*
X1106384Y1696520D01*
X1105368Y1695504D01*
X1106384D01*
X1107400Y1694488D01*
Y1695504D02*
X1107908Y1696012D01*
X1108416D01*
X1107908Y1696520D01*
X1108416Y1697028D01*
X1107908D01*
X1107400Y1697536D01*
X1106892Y1697028D01*
X1106384D01*
X1106892Y1696520D01*
X1106384Y1696012D01*
X1106892D01*
X1107400Y1695504D01*
X1115000Y1688968D02*
X1116016Y1689984D01*
X1117032D01*
X1116016Y1691000D01*
X1117032Y1692016D01*
X1116016D01*
X1115000Y1693032D01*
X1113984Y1692016D01*
X1112968D01*
X1113984Y1691000D01*
X1112968Y1689984D01*
X1113984D01*
X1115000Y1688968D01*
Y1689984D02*
X1115508Y1690492D01*
X1116016D01*
X1115508Y1691000D01*
X1116016Y1691508D01*
X1115508D01*
X1115000Y1692016D01*
X1114492Y1691508D01*
X1113984D01*
X1114492Y1691000D01*
X1113984Y1690492D01*
X1114492D01*
X1115000Y1689984D01*
X1228900Y1546968D02*
X1229916Y1547984D01*
X1230932D01*
X1229916Y1549000D01*
X1230932Y1550016D01*
X1229916D01*
X1228900Y1551032D01*
X1227884Y1550016D01*
X1226868D01*
X1227884Y1549000D01*
X1226868Y1547984D01*
X1227884D01*
X1228900Y1546968D01*
Y1547984D02*
X1229408Y1548492D01*
X1229916D01*
X1229408Y1549000D01*
X1229916Y1549508D01*
X1229408D01*
X1228900Y1550016D01*
X1228392Y1549508D01*
X1227884D01*
X1228392Y1549000D01*
X1227884Y1548492D01*
X1228392D01*
X1228900Y1547984D01*
X1234000Y1554968D02*
X1235016Y1555984D01*
X1236032D01*
X1235016Y1557000D01*
X1236032Y1558016D01*
X1235016D01*
X1234000Y1559032D01*
X1232984Y1558016D01*
X1231968D01*
X1232984Y1557000D01*
X1231968Y1555984D01*
X1232984D01*
X1234000Y1554968D01*
Y1555984D02*
X1234508Y1556492D01*
X1235016D01*
X1234508Y1557000D01*
X1235016Y1557508D01*
X1234508D01*
X1234000Y1558016D01*
X1233492Y1557508D01*
X1232984D01*
X1233492Y1557000D01*
X1232984Y1556492D01*
X1233492D01*
X1234000Y1555984D01*
X1229000Y1563968D02*
X1230016Y1564984D01*
X1231032D01*
X1230016Y1566000D01*
X1231032Y1567016D01*
X1230016D01*
X1229000Y1568032D01*
X1227984Y1567016D01*
X1226968D01*
X1227984Y1566000D01*
X1226968Y1564984D01*
X1227984D01*
X1229000Y1563968D01*
Y1564984D02*
X1229508Y1565492D01*
X1230016D01*
X1229508Y1566000D01*
X1230016Y1566508D01*
X1229508D01*
X1229000Y1567016D01*
X1228492Y1566508D01*
X1227984D01*
X1228492Y1566000D01*
X1227984Y1565492D01*
X1228492D01*
X1229000Y1564984D01*
X1234000Y1572968D02*
X1235016Y1573984D01*
X1236032D01*
X1235016Y1575000D01*
X1236032Y1576016D01*
X1235016D01*
X1234000Y1577032D01*
X1232984Y1576016D01*
X1231968D01*
X1232984Y1575000D01*
X1231968Y1573984D01*
X1232984D01*
X1234000Y1572968D01*
Y1573984D02*
X1234508Y1574492D01*
X1235016D01*
X1234508Y1575000D01*
X1235016Y1575508D01*
X1234508D01*
X1234000Y1576016D01*
X1233492Y1575508D01*
X1232984D01*
X1233492Y1575000D01*
X1232984Y1574492D01*
X1233492D01*
X1234000Y1573984D01*
X1285000Y1470968D02*
X1286016Y1471984D01*
X1287032D01*
X1286016Y1473000D01*
X1287032Y1474016D01*
X1286016D01*
X1285000Y1475032D01*
X1283984Y1474016D01*
X1282968D01*
X1283984Y1473000D01*
X1282968Y1471984D01*
X1283984D01*
X1285000Y1470968D01*
Y1471984D02*
X1285508Y1472492D01*
X1286016D01*
X1285508Y1473000D01*
X1286016Y1473508D01*
X1285508D01*
X1285000Y1474016D01*
X1284492Y1473508D01*
X1283984D01*
X1284492Y1473000D01*
X1283984Y1472492D01*
X1284492D01*
X1285000Y1471984D01*
X1277000Y1465968D02*
X1278016Y1466984D01*
X1279032D01*
X1278016Y1468000D01*
X1279032Y1469016D01*
X1278016D01*
X1277000Y1470032D01*
X1275984Y1469016D01*
X1274968D01*
X1275984Y1468000D01*
X1274968Y1466984D01*
X1275984D01*
X1277000Y1465968D01*
Y1466984D02*
X1277508Y1467492D01*
X1278016D01*
X1277508Y1468000D01*
X1278016Y1468508D01*
X1277508D01*
X1277000Y1469016D01*
X1276492Y1468508D01*
X1275984D01*
X1276492Y1468000D01*
X1275984Y1467492D01*
X1276492D01*
X1277000Y1466984D01*
X1261000Y1453968D02*
X1262016Y1454984D01*
X1263032D01*
X1262016Y1456000D01*
X1263032Y1457016D01*
X1262016D01*
X1261000Y1458032D01*
X1259984Y1457016D01*
X1258968D01*
X1259984Y1456000D01*
X1258968Y1454984D01*
X1259984D01*
X1261000Y1453968D01*
Y1454984D02*
X1261508Y1455492D01*
X1262016D01*
X1261508Y1456000D01*
X1262016Y1456508D01*
X1261508D01*
X1261000Y1457016D01*
X1260492Y1456508D01*
X1259984D01*
X1260492Y1456000D01*
X1259984Y1455492D01*
X1260492D01*
X1261000Y1454984D01*
X1270000Y1458968D02*
X1271016Y1459984D01*
X1272032D01*
X1271016Y1461000D01*
X1272032Y1462016D01*
X1271016D01*
X1270000Y1463032D01*
X1268984Y1462016D01*
X1267968D01*
X1268984Y1461000D01*
X1267968Y1459984D01*
X1268984D01*
X1270000Y1458968D01*
Y1459984D02*
X1270508Y1460492D01*
X1271016D01*
X1270508Y1461000D01*
X1271016Y1461508D01*
X1270508D01*
X1270000Y1462016D01*
X1269492Y1461508D01*
X1268984D01*
X1269492Y1461000D01*
X1268984Y1460492D01*
X1269492D01*
X1270000Y1459984D01*
X1238000Y1426968D02*
X1239016Y1427984D01*
X1240032D01*
X1239016Y1429000D01*
X1240032Y1430016D01*
X1239016D01*
X1238000Y1431032D01*
X1236984Y1430016D01*
X1235968D01*
X1236984Y1429000D01*
X1235968Y1427984D01*
X1236984D01*
X1238000Y1426968D01*
Y1427984D02*
X1238508Y1428492D01*
X1239016D01*
X1238508Y1429000D01*
X1239016Y1429508D01*
X1238508D01*
X1238000Y1430016D01*
X1237492Y1429508D01*
X1236984D01*
X1237492Y1429000D01*
X1236984Y1428492D01*
X1237492D01*
X1238000Y1427984D01*
X890000Y1640968D02*
X891016Y1641984D01*
X892032D01*
X891016Y1643000D01*
X892032Y1644016D01*
X891016D01*
X890000Y1645032D01*
X888984Y1644016D01*
X887968D01*
X888984Y1643000D01*
X887968Y1641984D01*
X888984D01*
X890000Y1640968D01*
Y1641984D02*
X890508Y1642492D01*
X891016D01*
X890508Y1643000D01*
X891016Y1643508D01*
X890508D01*
X890000Y1644016D01*
X889492Y1643508D01*
X888984D01*
X889492Y1643000D01*
X888984Y1642492D01*
X889492D01*
X890000Y1641984D01*
X883000Y1648968D02*
X884016Y1649984D01*
X885032D01*
X884016Y1651000D01*
X885032Y1652016D01*
X884016D01*
X883000Y1653032D01*
X881984Y1652016D01*
X880968D01*
X881984Y1651000D01*
X880968Y1649984D01*
X881984D01*
X883000Y1648968D01*
Y1649984D02*
X883508Y1650492D01*
X884016D01*
X883508Y1651000D01*
X884016Y1651508D01*
X883508D01*
X883000Y1652016D01*
X882492Y1651508D01*
X881984D01*
X882492Y1651000D01*
X881984Y1650492D01*
X882492D01*
X883000Y1649984D01*
X910000Y1643968D02*
X911016Y1644984D01*
X912032D01*
X911016Y1646000D01*
X912032Y1647016D01*
X911016D01*
X910000Y1648032D01*
X908984Y1647016D01*
X907968D01*
X908984Y1646000D01*
X907968Y1644984D01*
X908984D01*
X910000Y1643968D01*
Y1644984D02*
X910508Y1645492D01*
X911016D01*
X910508Y1646000D01*
X911016Y1646508D01*
X910508D01*
X910000Y1647016D01*
X909492Y1646508D01*
X908984D01*
X909492Y1646000D01*
X908984Y1645492D01*
X909492D01*
X910000Y1644984D01*
X957000Y1644968D02*
X958016Y1645984D01*
X959032D01*
X958016Y1647000D01*
X959032Y1648016D01*
X958016D01*
X957000Y1649032D01*
X955984Y1648016D01*
X954968D01*
X955984Y1647000D01*
X954968Y1645984D01*
X955984D01*
X957000Y1644968D01*
Y1645984D02*
X957508Y1646492D01*
X958016D01*
X957508Y1647000D01*
X958016Y1647508D01*
X957508D01*
X957000Y1648016D01*
X956492Y1647508D01*
X955984D01*
X956492Y1647000D01*
X955984Y1646492D01*
X956492D01*
X957000Y1645984D01*
X926000Y1241968D02*
X927016Y1242984D01*
X928032D01*
X927016Y1244000D01*
X928032Y1245016D01*
X927016D01*
X926000Y1246032D01*
X924984Y1245016D01*
X923968D01*
X924984Y1244000D01*
X923968Y1242984D01*
X924984D01*
X926000Y1241968D01*
Y1242984D02*
X926508Y1243492D01*
X927016D01*
X926508Y1244000D01*
X927016Y1244508D01*
X926508D01*
X926000Y1245016D01*
X925492Y1244508D01*
X924984D01*
X925492Y1244000D01*
X924984Y1243492D01*
X925492D01*
X926000Y1242984D01*
Y1231468D02*
X927016Y1232484D01*
X928032D01*
X927016Y1233500D01*
X928032Y1234516D01*
X927016D01*
X926000Y1235532D01*
X924984Y1234516D01*
X923968D01*
X924984Y1233500D01*
X923968Y1232484D01*
X924984D01*
X926000Y1231468D01*
Y1232484D02*
X926508Y1232992D01*
X927016D01*
X926508Y1233500D01*
X927016Y1234008D01*
X926508D01*
X926000Y1234516D01*
X925492Y1234008D01*
X924984D01*
X925492Y1233500D01*
X924984Y1232992D01*
X925492D01*
X926000Y1232484D01*
Y1259968D02*
X927016Y1260984D01*
X928032D01*
X927016Y1262000D01*
X928032Y1263016D01*
X927016D01*
X926000Y1264032D01*
X924984Y1263016D01*
X923968D01*
X924984Y1262000D01*
X923968Y1260984D01*
X924984D01*
X926000Y1259968D01*
Y1260984D02*
X926508Y1261492D01*
X927016D01*
X926508Y1262000D01*
X927016Y1262508D01*
X926508D01*
X926000Y1263016D01*
X925492Y1262508D01*
X924984D01*
X925492Y1262000D01*
X924984Y1261492D01*
X925492D01*
X926000Y1260984D01*
X1016000Y1718968D02*
X1017016Y1719984D01*
X1018032D01*
X1017016Y1721000D01*
X1018032Y1722016D01*
X1017016D01*
X1016000Y1723032D01*
X1014984Y1722016D01*
X1013968D01*
X1014984Y1721000D01*
X1013968Y1719984D01*
X1014984D01*
X1016000Y1718968D01*
Y1719984D02*
X1016508Y1720492D01*
X1017016D01*
X1016508Y1721000D01*
X1017016Y1721508D01*
X1016508D01*
X1016000Y1722016D01*
X1015492Y1721508D01*
X1014984D01*
X1015492Y1721000D01*
X1014984Y1720492D01*
X1015492D01*
X1016000Y1719984D01*
Y1788968D02*
X1017016Y1789984D01*
X1018032D01*
X1017016Y1791000D01*
X1018032Y1792016D01*
X1017016D01*
X1016000Y1793032D01*
X1014984Y1792016D01*
X1013968D01*
X1014984Y1791000D01*
X1013968Y1789984D01*
X1014984D01*
X1016000Y1788968D01*
Y1789984D02*
X1016508Y1790492D01*
X1017016D01*
X1016508Y1791000D01*
X1017016Y1791508D01*
X1016508D01*
X1016000Y1792016D01*
X1015492Y1791508D01*
X1014984D01*
X1015492Y1791000D01*
X1014984Y1790492D01*
X1015492D01*
X1016000Y1789984D01*
X1073000Y1797968D02*
X1074016Y1798984D01*
X1075032D01*
X1074016Y1800000D01*
X1075032Y1801016D01*
X1074016D01*
X1073000Y1802032D01*
X1071984Y1801016D01*
X1070968D01*
X1071984Y1800000D01*
X1070968Y1798984D01*
X1071984D01*
X1073000Y1797968D01*
Y1798984D02*
X1073508Y1799492D01*
X1074016D01*
X1073508Y1800000D01*
X1074016Y1800508D01*
X1073508D01*
X1073000Y1801016D01*
X1072492Y1800508D01*
X1071984D01*
X1072492Y1800000D01*
X1071984Y1799492D01*
X1072492D01*
X1073000Y1798984D01*
X1081000Y1719968D02*
X1082016Y1720984D01*
X1083032D01*
X1082016Y1722000D01*
X1083032Y1723016D01*
X1082016D01*
X1081000Y1724032D01*
X1079984Y1723016D01*
X1078968D01*
X1079984Y1722000D01*
X1078968Y1720984D01*
X1079984D01*
X1081000Y1719968D01*
Y1720984D02*
X1081508Y1721492D01*
X1082016D01*
X1081508Y1722000D01*
X1082016Y1722508D01*
X1081508D01*
X1081000Y1723016D01*
X1080492Y1722508D01*
X1079984D01*
X1080492Y1722000D01*
X1079984Y1721492D01*
X1080492D01*
X1081000Y1720984D01*
X962000Y1388968D02*
X963016Y1389984D01*
X964032D01*
X963016Y1391000D01*
X964032Y1392016D01*
X963016D01*
X962000Y1393032D01*
X960984Y1392016D01*
X959968D01*
X960984Y1391000D01*
X959968Y1389984D01*
X960984D01*
X962000Y1388968D01*
Y1389984D02*
X962508Y1390492D01*
X963016D01*
X962508Y1391000D01*
X963016Y1391508D01*
X962508D01*
X962000Y1392016D01*
X961492Y1391508D01*
X960984D01*
X961492Y1391000D01*
X960984Y1390492D01*
X961492D01*
X962000Y1389984D01*
X935000Y1799968D02*
X936016Y1800984D01*
X937032D01*
X936016Y1802000D01*
X937032Y1803016D01*
X936016D01*
X935000Y1804032D01*
X933984Y1803016D01*
X932968D01*
X933984Y1802000D01*
X932968Y1800984D01*
X933984D01*
X935000Y1799968D01*
Y1800984D02*
X935508Y1801492D01*
X936016D01*
X935508Y1802000D01*
X936016Y1802508D01*
X935508D01*
X935000Y1803016D01*
X934492Y1802508D01*
X933984D01*
X934492Y1802000D01*
X933984Y1801492D01*
X934492D01*
X935000Y1800984D01*
X1250968Y2022968D02*
X1251984Y2025000D01*
X1250968Y2027032D01*
X1253000Y2026016D01*
X1255032Y2027032D01*
X1254016Y2025000D01*
X1255032Y2022968D01*
X1253000Y2023984D01*
X1250968Y2022968D01*
X1251984Y2023984D02*
X1252492Y2025000D01*
X1251984Y2026016D01*
X1253000Y2025508D01*
X1254016Y2026016D01*
X1253508Y2025000D01*
X1254016Y2023984D01*
X1253000Y2024492D01*
X1251984Y2023984D01*
X444568Y2019568D02*
X445584Y2021600D01*
X444568Y2023632D01*
X446600Y2022616D01*
X448632Y2023632D01*
X447616Y2021600D01*
X448632Y2019568D01*
X446600Y2020584D01*
X444568Y2019568D01*
X445584Y2020584D02*
X446092Y2021600D01*
X445584Y2022616D01*
X446600Y2022108D01*
X447616Y2022616D01*
X447108Y2021600D01*
X447616Y2020584D01*
X446600Y2021092D01*
X445584Y2020584D01*
X444568Y1966568D02*
X445584Y1968600D01*
X444568Y1970632D01*
X446600Y1969616D01*
X448632Y1970632D01*
X447616Y1968600D01*
X448632Y1966568D01*
X446600Y1967584D01*
X444568Y1966568D01*
X445584Y1967584D02*
X446092Y1968600D01*
X445584Y1969616D01*
X446600Y1969108D01*
X447616Y1969616D01*
X447108Y1968600D01*
X447616Y1967584D01*
X446600Y1968092D01*
X445584Y1967584D01*
X589568Y2176568D02*
X590584Y2178600D01*
X589568Y2180632D01*
X591600Y2179616D01*
X593632Y2180632D01*
X592616Y2178600D01*
X593632Y2176568D01*
X591600Y2177584D01*
X589568Y2176568D01*
X590584Y2177584D02*
X591092Y2178600D01*
X590584Y2179616D01*
X591600Y2179108D01*
X592616Y2179616D01*
X592108Y2178600D01*
X592616Y2177584D01*
X591600Y2178092D01*
X590584Y2177584D01*
X589568Y2050568D02*
X590584Y2052600D01*
X589568Y2054632D01*
X591600Y2053616D01*
X593632Y2054632D01*
X592616Y2052600D01*
X593632Y2050568D01*
X591600Y2051584D01*
X589568Y2050568D01*
X590584Y2051584D02*
X591092Y2052600D01*
X590584Y2053616D01*
X591600Y2053108D01*
X592616Y2053616D01*
X592108Y2052600D01*
X592616Y2051584D01*
X591600Y2052092D01*
X590584Y2051584D01*
X589568Y1936568D02*
X590584Y1938600D01*
X589568Y1940632D01*
X591600Y1939616D01*
X593632Y1940632D01*
X592616Y1938600D01*
X593632Y1936568D01*
X591600Y1937584D01*
X589568Y1936568D01*
X590584Y1937584D02*
X591092Y1938600D01*
X590584Y1939616D01*
X591600Y1939108D01*
X592616Y1939616D01*
X592108Y1938600D01*
X592616Y1937584D01*
X591600Y1938092D01*
X590584Y1937584D01*
X1729540Y1692968D02*
X1730556Y1693984D01*
X1731572D01*
X1730556Y1695000D01*
X1731572Y1696016D01*
X1730556D01*
X1729540Y1697032D01*
X1728524Y1696016D01*
X1727508D01*
X1728524Y1695000D01*
X1727508Y1693984D01*
X1728524D01*
X1729540Y1692968D01*
Y1693984D02*
X1730048Y1694492D01*
X1730556D01*
X1730048Y1695000D01*
X1730556Y1695508D01*
X1730048D01*
X1729540Y1696016D01*
X1729032Y1695508D01*
X1728524D01*
X1729032Y1695000D01*
X1728524Y1694492D01*
X1729032D01*
X1729540Y1693984D01*
X1709000Y1608968D02*
X1710016Y1609984D01*
X1711032D01*
X1710016Y1611000D01*
X1711032Y1612016D01*
X1710016D01*
X1709000Y1613032D01*
X1707984Y1612016D01*
X1706968D01*
X1707984Y1611000D01*
X1706968Y1609984D01*
X1707984D01*
X1709000Y1608968D01*
Y1609984D02*
X1709508Y1610492D01*
X1710016D01*
X1709508Y1611000D01*
X1710016Y1611508D01*
X1709508D01*
X1709000Y1612016D01*
X1708492Y1611508D01*
X1707984D01*
X1708492Y1611000D01*
X1707984Y1610492D01*
X1708492D01*
X1709000Y1609984D01*
X1130000Y1687968D02*
X1131016Y1688984D01*
X1132032D01*
X1131016Y1690000D01*
X1132032Y1691016D01*
X1131016D01*
X1130000Y1692032D01*
X1128984Y1691016D01*
X1127968D01*
X1128984Y1690000D01*
X1127968Y1688984D01*
X1128984D01*
X1130000Y1687968D01*
Y1688984D02*
X1130508Y1689492D01*
X1131016D01*
X1130508Y1690000D01*
X1131016Y1690508D01*
X1130508D01*
X1130000Y1691016D01*
X1129492Y1690508D01*
X1128984D01*
X1129492Y1690000D01*
X1128984Y1689492D01*
X1129492D01*
X1130000Y1688984D01*
X1138000Y1698968D02*
X1139016Y1699984D01*
X1140032D01*
X1139016Y1701000D01*
X1140032Y1702016D01*
X1139016D01*
X1138000Y1703032D01*
X1136984Y1702016D01*
X1135968D01*
X1136984Y1701000D01*
X1135968Y1699984D01*
X1136984D01*
X1138000Y1698968D01*
Y1699984D02*
X1138508Y1700492D01*
X1139016D01*
X1138508Y1701000D01*
X1139016Y1701508D01*
X1138508D01*
X1138000Y1702016D01*
X1137492Y1701508D01*
X1136984D01*
X1137492Y1701000D01*
X1136984Y1700492D01*
X1137492D01*
X1138000Y1699984D01*
X608000Y1253968D02*
X609016Y1254984D01*
X610032D01*
X609016Y1256000D01*
X610032Y1257016D01*
X609016D01*
X608000Y1258032D01*
X606984Y1257016D01*
X605968D01*
X606984Y1256000D01*
X605968Y1254984D01*
X606984D01*
X608000Y1253968D01*
Y1254984D02*
X608508Y1255492D01*
X609016D01*
X608508Y1256000D01*
X609016Y1256508D01*
X608508D01*
X608000Y1257016D01*
X607492Y1256508D01*
X606984D01*
X607492Y1256000D01*
X606984Y1255492D01*
X607492D01*
X608000Y1254984D01*
Y1275968D02*
X609016Y1276984D01*
X610032D01*
X609016Y1278000D01*
X610032Y1279016D01*
X609016D01*
X608000Y1280032D01*
X606984Y1279016D01*
X605968D01*
X606984Y1278000D01*
X605968Y1276984D01*
X606984D01*
X608000Y1275968D01*
Y1276984D02*
X608508Y1277492D01*
X609016D01*
X608508Y1278000D01*
X609016Y1278508D01*
X608508D01*
X608000Y1279016D01*
X607492Y1278508D01*
X606984D01*
X607492Y1278000D01*
X606984Y1277492D01*
X607492D01*
X608000Y1276984D01*
X1228364Y1295604D02*
X1229380Y1296620D01*
X1230396D01*
X1229380Y1297636D01*
X1230396Y1298652D01*
X1229380D01*
X1228364Y1299668D01*
X1227348Y1298652D01*
X1226332D01*
X1227348Y1297636D01*
X1226332Y1296620D01*
X1227348D01*
X1228364Y1295604D01*
Y1296620D02*
X1228872Y1297128D01*
X1229380D01*
X1228872Y1297636D01*
X1229380Y1298144D01*
X1228872D01*
X1228364Y1298652D01*
X1227856Y1298144D01*
X1227348D01*
X1227856Y1297636D01*
X1227348Y1297128D01*
X1227856D01*
X1228364Y1296620D01*
X1208000Y1451968D02*
X1209016Y1452984D01*
X1210032D01*
X1209016Y1454000D01*
X1210032Y1455016D01*
X1209016D01*
X1208000Y1456032D01*
X1206984Y1455016D01*
X1205968D01*
X1206984Y1454000D01*
X1205968Y1452984D01*
X1206984D01*
X1208000Y1451968D01*
Y1452984D02*
X1208508Y1453492D01*
X1209016D01*
X1208508Y1454000D01*
X1209016Y1454508D01*
X1208508D01*
X1208000Y1455016D01*
X1207492Y1454508D01*
X1206984D01*
X1207492Y1454000D01*
X1206984Y1453492D01*
X1207492D01*
X1208000Y1452984D01*
X1217000Y1451968D02*
X1218016Y1452984D01*
X1219032D01*
X1218016Y1454000D01*
X1219032Y1455016D01*
X1218016D01*
X1217000Y1456032D01*
X1215984Y1455016D01*
X1214968D01*
X1215984Y1454000D01*
X1214968Y1452984D01*
X1215984D01*
X1217000Y1451968D01*
Y1452984D02*
X1217508Y1453492D01*
X1218016D01*
X1217508Y1454000D01*
X1218016Y1454508D01*
X1217508D01*
X1217000Y1455016D01*
X1216492Y1454508D01*
X1215984D01*
X1216492Y1454000D01*
X1215984Y1453492D01*
X1216492D01*
X1217000Y1452984D01*
X586000Y1272968D02*
X587016Y1273984D01*
X588032D01*
X587016Y1275000D01*
X588032Y1276016D01*
X587016D01*
X586000Y1277032D01*
X584984Y1276016D01*
X583968D01*
X584984Y1275000D01*
X583968Y1273984D01*
X584984D01*
X586000Y1272968D01*
Y1273984D02*
X586508Y1274492D01*
X587016D01*
X586508Y1275000D01*
X587016Y1275508D01*
X586508D01*
X586000Y1276016D01*
X585492Y1275508D01*
X584984D01*
X585492Y1275000D01*
X584984Y1274492D01*
X585492D01*
X586000Y1273984D01*
X736000Y1290968D02*
X737016Y1291984D01*
X738032D01*
X737016Y1293000D01*
X738032Y1294016D01*
X737016D01*
X736000Y1295032D01*
X734984Y1294016D01*
X733968D01*
X734984Y1293000D01*
X733968Y1291984D01*
X734984D01*
X736000Y1290968D01*
Y1291984D02*
X736508Y1292492D01*
X737016D01*
X736508Y1293000D01*
X737016Y1293508D01*
X736508D01*
X736000Y1294016D01*
X735492Y1293508D01*
X734984D01*
X735492Y1293000D01*
X734984Y1292492D01*
X735492D01*
X736000Y1291984D01*
X1373000Y1515968D02*
X1374016Y1516984D01*
X1375032D01*
X1374016Y1518000D01*
X1375032Y1519016D01*
X1374016D01*
X1373000Y1520032D01*
X1371984Y1519016D01*
X1370968D01*
X1371984Y1518000D01*
X1370968Y1516984D01*
X1371984D01*
X1373000Y1515968D01*
Y1516984D02*
X1373508Y1517492D01*
X1374016D01*
X1373508Y1518000D01*
X1374016Y1518508D01*
X1373508D01*
X1373000Y1519016D01*
X1372492Y1518508D01*
X1371984D01*
X1372492Y1518000D01*
X1371984Y1517492D01*
X1372492D01*
X1373000Y1516984D01*
X1366000Y1670968D02*
X1367016Y1671984D01*
X1368032D01*
X1367016Y1673000D01*
X1368032Y1674016D01*
X1367016D01*
X1366000Y1675032D01*
X1364984Y1674016D01*
X1363968D01*
X1364984Y1673000D01*
X1363968Y1671984D01*
X1364984D01*
X1366000Y1670968D01*
Y1671984D02*
X1366508Y1672492D01*
X1367016D01*
X1366508Y1673000D01*
X1367016Y1673508D01*
X1366508D01*
X1366000Y1674016D01*
X1365492Y1673508D01*
X1364984D01*
X1365492Y1673000D01*
X1364984Y1672492D01*
X1365492D01*
X1366000Y1671984D01*
Y1793968D02*
X1367016Y1794984D01*
X1368032D01*
X1367016Y1796000D01*
X1368032Y1797016D01*
X1367016D01*
X1366000Y1798032D01*
X1364984Y1797016D01*
X1363968D01*
X1364984Y1796000D01*
X1363968Y1794984D01*
X1364984D01*
X1366000Y1793968D01*
Y1794984D02*
X1366508Y1795492D01*
X1367016D01*
X1366508Y1796000D01*
X1367016Y1796508D01*
X1366508D01*
X1366000Y1797016D01*
X1365492Y1796508D01*
X1364984D01*
X1365492Y1796000D01*
X1364984Y1795492D01*
X1365492D01*
X1366000Y1794984D01*
X774000Y2114968D02*
X775016Y2115984D01*
X776032D01*
X775016Y2117000D01*
X776032Y2118016D01*
X775016D01*
X774000Y2119032D01*
X772984Y2118016D01*
X771968D01*
X772984Y2117000D01*
X771968Y2115984D01*
X772984D01*
X774000Y2114968D01*
Y2115984D02*
X774508Y2116492D01*
X775016D01*
X774508Y2117000D01*
X775016Y2117508D01*
X774508D01*
X774000Y2118016D01*
X773492Y2117508D01*
X772984D01*
X773492Y2117000D01*
X772984Y2116492D01*
X773492D01*
X774000Y2115984D01*
X913500Y1799468D02*
X914516Y1800484D01*
X915532D01*
X914516Y1801500D01*
X915532Y1802516D01*
X914516D01*
X913500Y1803532D01*
X912484Y1802516D01*
X911468D01*
X912484Y1801500D01*
X911468Y1800484D01*
X912484D01*
X913500Y1799468D01*
Y1800484D02*
X914008Y1800992D01*
X914516D01*
X914008Y1801500D01*
X914516Y1802008D01*
X914008D01*
X913500Y1802516D01*
X912992Y1802008D01*
X912484D01*
X912992Y1801500D01*
X912484Y1800992D01*
X912992D01*
X913500Y1800484D01*
X969000Y1546968D02*
X970016Y1547984D01*
X971032D01*
X970016Y1549000D01*
X971032Y1550016D01*
X970016D01*
X969000Y1551032D01*
X967984Y1550016D01*
X966968D01*
X967984Y1549000D01*
X966968Y1547984D01*
X967984D01*
X969000Y1546968D01*
Y1547984D02*
X969508Y1548492D01*
X970016D01*
X969508Y1549000D01*
X970016Y1549508D01*
X969508D01*
X969000Y1550016D01*
X968492Y1549508D01*
X967984D01*
X968492Y1549000D01*
X967984Y1548492D01*
X968492D01*
X969000Y1547984D01*
X1260000Y1597968D02*
X1261016Y1598984D01*
X1262032D01*
X1261016Y1600000D01*
X1262032Y1601016D01*
X1261016D01*
X1260000Y1602032D01*
X1258984Y1601016D01*
X1257968D01*
X1258984Y1600000D01*
X1257968Y1598984D01*
X1258984D01*
X1260000Y1597968D01*
Y1598984D02*
X1260508Y1599492D01*
X1261016D01*
X1260508Y1600000D01*
X1261016Y1600508D01*
X1260508D01*
X1260000Y1601016D01*
X1259492Y1600508D01*
X1258984D01*
X1259492Y1600000D01*
X1258984Y1599492D01*
X1259492D01*
X1260000Y1598984D01*
X1290000Y1714968D02*
X1291016Y1715984D01*
X1292032D01*
X1291016Y1717000D01*
X1292032Y1718016D01*
X1291016D01*
X1290000Y1719032D01*
X1288984Y1718016D01*
X1287968D01*
X1288984Y1717000D01*
X1287968Y1715984D01*
X1288984D01*
X1290000Y1714968D01*
Y1715984D02*
X1290508Y1716492D01*
X1291016D01*
X1290508Y1717000D01*
X1291016Y1717508D01*
X1290508D01*
X1290000Y1718016D01*
X1289492Y1717508D01*
X1288984D01*
X1289492Y1717000D01*
X1288984Y1716492D01*
X1289492D01*
X1290000Y1715984D01*
X1267000Y1714968D02*
X1268016Y1715984D01*
X1269032D01*
X1268016Y1717000D01*
X1269032Y1718016D01*
X1268016D01*
X1267000Y1719032D01*
X1265984Y1718016D01*
X1264968D01*
X1265984Y1717000D01*
X1264968Y1715984D01*
X1265984D01*
X1267000Y1714968D01*
Y1715984D02*
X1267508Y1716492D01*
X1268016D01*
X1267508Y1717000D01*
X1268016Y1717508D01*
X1267508D01*
X1267000Y1718016D01*
X1266492Y1717508D01*
X1265984D01*
X1266492Y1717000D01*
X1265984Y1716492D01*
X1266492D01*
X1267000Y1715984D01*
X1225000Y1736968D02*
X1226016Y1737984D01*
X1227032D01*
X1226016Y1739000D01*
X1227032Y1740016D01*
X1226016D01*
X1225000Y1741032D01*
X1223984Y1740016D01*
X1222968D01*
X1223984Y1739000D01*
X1222968Y1737984D01*
X1223984D01*
X1225000Y1736968D01*
Y1737984D02*
X1225508Y1738492D01*
X1226016D01*
X1225508Y1739000D01*
X1226016Y1739508D01*
X1225508D01*
X1225000Y1740016D01*
X1224492Y1739508D01*
X1223984D01*
X1224492Y1739000D01*
X1223984Y1738492D01*
X1224492D01*
X1225000Y1737984D01*
X1230000Y1611968D02*
X1231016Y1612984D01*
X1232032D01*
X1231016Y1614000D01*
X1232032Y1615016D01*
X1231016D01*
X1230000Y1616032D01*
X1228984Y1615016D01*
X1227968D01*
X1228984Y1614000D01*
X1227968Y1612984D01*
X1228984D01*
X1230000Y1611968D01*
Y1612984D02*
X1230508Y1613492D01*
X1231016D01*
X1230508Y1614000D01*
X1231016Y1614508D01*
X1230508D01*
X1230000Y1615016D01*
X1229492Y1614508D01*
X1228984D01*
X1229492Y1614000D01*
X1228984Y1613492D01*
X1229492D01*
X1230000Y1612984D01*
X1240000Y1607968D02*
X1241016Y1608984D01*
X1242032D01*
X1241016Y1610000D01*
X1242032Y1611016D01*
X1241016D01*
X1240000Y1612032D01*
X1238984Y1611016D01*
X1237968D01*
X1238984Y1610000D01*
X1237968Y1608984D01*
X1238984D01*
X1240000Y1607968D01*
Y1608984D02*
X1240508Y1609492D01*
X1241016D01*
X1240508Y1610000D01*
X1241016Y1610508D01*
X1240508D01*
X1240000Y1611016D01*
X1239492Y1610508D01*
X1238984D01*
X1239492Y1610000D01*
X1238984Y1609492D01*
X1239492D01*
X1240000Y1608984D01*
X1232000Y1743968D02*
X1233016Y1744984D01*
X1234032D01*
X1233016Y1746000D01*
X1234032Y1747016D01*
X1233016D01*
X1232000Y1748032D01*
X1230984Y1747016D01*
X1229968D01*
X1230984Y1746000D01*
X1229968Y1744984D01*
X1230984D01*
X1232000Y1743968D01*
Y1744984D02*
X1232508Y1745492D01*
X1233016D01*
X1232508Y1746000D01*
X1233016Y1746508D01*
X1232508D01*
X1232000Y1747016D01*
X1231492Y1746508D01*
X1230984D01*
X1231492Y1746000D01*
X1230984Y1745492D01*
X1231492D01*
X1232000Y1744984D01*
X1251000Y1611968D02*
X1252016Y1612984D01*
X1253032D01*
X1252016Y1614000D01*
X1253032Y1615016D01*
X1252016D01*
X1251000Y1616032D01*
X1249984Y1615016D01*
X1248968D01*
X1249984Y1614000D01*
X1248968Y1612984D01*
X1249984D01*
X1251000Y1611968D01*
Y1612984D02*
X1251508Y1613492D01*
X1252016D01*
X1251508Y1614000D01*
X1252016Y1614508D01*
X1251508D01*
X1251000Y1615016D01*
X1250492Y1614508D01*
X1249984D01*
X1250492Y1614000D01*
X1249984Y1613492D01*
X1250492D01*
X1251000Y1612984D01*
X1242000Y1749968D02*
X1243016Y1750984D01*
X1244032D01*
X1243016Y1752000D01*
X1244032Y1753016D01*
X1243016D01*
X1242000Y1754032D01*
X1240984Y1753016D01*
X1239968D01*
X1240984Y1752000D01*
X1239968Y1750984D01*
X1240984D01*
X1242000Y1749968D01*
Y1750984D02*
X1242508Y1751492D01*
X1243016D01*
X1242508Y1752000D01*
X1243016Y1752508D01*
X1242508D01*
X1242000Y1753016D01*
X1241492Y1752508D01*
X1240984D01*
X1241492Y1752000D01*
X1240984Y1751492D01*
X1241492D01*
X1242000Y1750984D01*
X1232000Y1519968D02*
X1233016Y1520984D01*
X1234032D01*
X1233016Y1522000D01*
X1234032Y1523016D01*
X1233016D01*
X1232000Y1524032D01*
X1230984Y1523016D01*
X1229968D01*
X1230984Y1522000D01*
X1229968Y1520984D01*
X1230984D01*
X1232000Y1519968D01*
Y1520984D02*
X1232508Y1521492D01*
X1233016D01*
X1232508Y1522000D01*
X1233016Y1522508D01*
X1232508D01*
X1232000Y1523016D01*
X1231492Y1522508D01*
X1230984D01*
X1231492Y1522000D01*
X1230984Y1521492D01*
X1231492D01*
X1232000Y1520984D01*
X882000Y1658968D02*
X883016Y1659984D01*
X884032D01*
X883016Y1661000D01*
X884032Y1662016D01*
X883016D01*
X882000Y1663032D01*
X880984Y1662016D01*
X879968D01*
X880984Y1661000D01*
X879968Y1659984D01*
X880984D01*
X882000Y1658968D01*
Y1659984D02*
X882508Y1660492D01*
X883016D01*
X882508Y1661000D01*
X883016Y1661508D01*
X882508D01*
X882000Y1662016D01*
X881492Y1661508D01*
X880984D01*
X881492Y1661000D01*
X880984Y1660492D01*
X881492D01*
X882000Y1659984D01*
X858000Y1689968D02*
X859016Y1690984D01*
X860032D01*
X859016Y1692000D01*
X860032Y1693016D01*
X859016D01*
X858000Y1694032D01*
X856984Y1693016D01*
X855968D01*
X856984Y1692000D01*
X855968Y1690984D01*
X856984D01*
X858000Y1689968D01*
Y1690984D02*
X858508Y1691492D01*
X859016D01*
X858508Y1692000D01*
X859016Y1692508D01*
X858508D01*
X858000Y1693016D01*
X857492Y1692508D01*
X856984D01*
X857492Y1692000D01*
X856984Y1691492D01*
X857492D01*
X858000Y1690984D01*
X868000Y1686968D02*
X869016Y1687984D01*
X870032D01*
X869016Y1689000D01*
X870032Y1690016D01*
X869016D01*
X868000Y1691032D01*
X866984Y1690016D01*
X865968D01*
X866984Y1689000D01*
X865968Y1687984D01*
X866984D01*
X868000Y1686968D01*
Y1687984D02*
X868508Y1688492D01*
X869016D01*
X868508Y1689000D01*
X869016Y1689508D01*
X868508D01*
X868000Y1690016D01*
X867492Y1689508D01*
X866984D01*
X867492Y1689000D01*
X866984Y1688492D01*
X867492D01*
X868000Y1687984D01*
X854000Y1699968D02*
X855016Y1700984D01*
X856032D01*
X855016Y1702000D01*
X856032Y1703016D01*
X855016D01*
X854000Y1704032D01*
X852984Y1703016D01*
X851968D01*
X852984Y1702000D01*
X851968Y1700984D01*
X852984D01*
X854000Y1699968D01*
Y1700984D02*
X854508Y1701492D01*
X855016D01*
X854508Y1702000D01*
X855016Y1702508D01*
X854508D01*
X854000Y1703016D01*
X853492Y1702508D01*
X852984D01*
X853492Y1702000D01*
X852984Y1701492D01*
X853492D01*
X854000Y1700984D01*
X852000Y1425968D02*
X853016Y1426984D01*
X854032D01*
X853016Y1428000D01*
X854032Y1429016D01*
X853016D01*
X852000Y1430032D01*
X850984Y1429016D01*
X849968D01*
X850984Y1428000D01*
X849968Y1426984D01*
X850984D01*
X852000Y1425968D01*
Y1426984D02*
X852508Y1427492D01*
X853016D01*
X852508Y1428000D01*
X853016Y1428508D01*
X852508D01*
X852000Y1429016D01*
X851492Y1428508D01*
X850984D01*
X851492Y1428000D01*
X850984Y1427492D01*
X851492D01*
X852000Y1426984D01*
X741000Y1595968D02*
X742016Y1596984D01*
X743032D01*
X742016Y1598000D01*
X743032Y1599016D01*
X742016D01*
X741000Y1600032D01*
X739984Y1599016D01*
X738968D01*
X739984Y1598000D01*
X738968Y1596984D01*
X739984D01*
X741000Y1595968D01*
Y1596984D02*
X741508Y1597492D01*
X742016D01*
X741508Y1598000D01*
X742016Y1598508D01*
X741508D01*
X741000Y1599016D01*
X740492Y1598508D01*
X739984D01*
X740492Y1598000D01*
X739984Y1597492D01*
X740492D01*
X741000Y1596984D01*
X850000Y1437968D02*
X851016Y1438984D01*
X852032D01*
X851016Y1440000D01*
X852032Y1441016D01*
X851016D01*
X850000Y1442032D01*
X848984Y1441016D01*
X847968D01*
X848984Y1440000D01*
X847968Y1438984D01*
X848984D01*
X850000Y1437968D01*
Y1438984D02*
X850508Y1439492D01*
X851016D01*
X850508Y1440000D01*
X851016Y1440508D01*
X850508D01*
X850000Y1441016D01*
X849492Y1440508D01*
X848984D01*
X849492Y1440000D01*
X848984Y1439492D01*
X849492D01*
X850000Y1438984D01*
X872000Y1768968D02*
X873016Y1769984D01*
X874032D01*
X873016Y1771000D01*
X874032Y1772016D01*
X873016D01*
X872000Y1773032D01*
X870984Y1772016D01*
X869968D01*
X870984Y1771000D01*
X869968Y1769984D01*
X870984D01*
X872000Y1768968D01*
Y1769984D02*
X872508Y1770492D01*
X873016D01*
X872508Y1771000D01*
X873016Y1771508D01*
X872508D01*
X872000Y1772016D01*
X871492Y1771508D01*
X870984D01*
X871492Y1771000D01*
X870984Y1770492D01*
X871492D01*
X872000Y1769984D01*
X863000Y1760968D02*
X864016Y1761984D01*
X865032D01*
X864016Y1763000D01*
X865032Y1764016D01*
X864016D01*
X863000Y1765032D01*
X861984Y1764016D01*
X860968D01*
X861984Y1763000D01*
X860968Y1761984D01*
X861984D01*
X863000Y1760968D01*
Y1761984D02*
X863508Y1762492D01*
X864016D01*
X863508Y1763000D01*
X864016Y1763508D01*
X863508D01*
X863000Y1764016D01*
X862492Y1763508D01*
X861984D01*
X862492Y1763000D01*
X861984Y1762492D01*
X862492D01*
X863000Y1761984D01*
X864000Y1864968D02*
X865016Y1865984D01*
X866032D01*
X865016Y1867000D01*
X866032Y1868016D01*
X865016D01*
X864000Y1869032D01*
X862984Y1868016D01*
X861968D01*
X862984Y1867000D01*
X861968Y1865984D01*
X862984D01*
X864000Y1864968D01*
Y1865984D02*
X864508Y1866492D01*
X865016D01*
X864508Y1867000D01*
X865016Y1867508D01*
X864508D01*
X864000Y1868016D01*
X863492Y1867508D01*
X862984D01*
X863492Y1867000D01*
X862984Y1866492D01*
X863492D01*
X864000Y1865984D01*
X854000Y1852968D02*
X855016Y1853984D01*
X856032D01*
X855016Y1855000D01*
X856032Y1856016D01*
X855016D01*
X854000Y1857032D01*
X852984Y1856016D01*
X851968D01*
X852984Y1855000D01*
X851968Y1853984D01*
X852984D01*
X854000Y1852968D01*
Y1853984D02*
X854508Y1854492D01*
X855016D01*
X854508Y1855000D01*
X855016Y1855508D01*
X854508D01*
X854000Y1856016D01*
X853492Y1855508D01*
X852984D01*
X853492Y1855000D01*
X852984Y1854492D01*
X853492D01*
X854000Y1853984D01*
X754000Y1415968D02*
X755016Y1416984D01*
X756032D01*
X755016Y1418000D01*
X756032Y1419016D01*
X755016D01*
X754000Y1420032D01*
X752984Y1419016D01*
X751968D01*
X752984Y1418000D01*
X751968Y1416984D01*
X752984D01*
X754000Y1415968D01*
Y1416984D02*
X754508Y1417492D01*
X755016D01*
X754508Y1418000D01*
X755016Y1418508D01*
X754508D01*
X754000Y1419016D01*
X753492Y1418508D01*
X752984D01*
X753492Y1418000D01*
X752984Y1417492D01*
X753492D01*
X754000Y1416984D01*
X979000Y1418968D02*
X980016Y1419984D01*
X981032D01*
X980016Y1421000D01*
X981032Y1422016D01*
X980016D01*
X979000Y1423032D01*
X977984Y1422016D01*
X976968D01*
X977984Y1421000D01*
X976968Y1419984D01*
X977984D01*
X979000Y1418968D01*
Y1419984D02*
X979508Y1420492D01*
X980016D01*
X979508Y1421000D01*
X980016Y1421508D01*
X979508D01*
X979000Y1422016D01*
X978492Y1421508D01*
X977984D01*
X978492Y1421000D01*
X977984Y1420492D01*
X978492D01*
X979000Y1419984D01*
X972000Y1411968D02*
X973016Y1412984D01*
X974032D01*
X973016Y1414000D01*
X974032Y1415016D01*
X973016D01*
X972000Y1416032D01*
X970984Y1415016D01*
X969968D01*
X970984Y1414000D01*
X969968Y1412984D01*
X970984D01*
X972000Y1411968D01*
Y1412984D02*
X972508Y1413492D01*
X973016D01*
X972508Y1414000D01*
X973016Y1414508D01*
X972508D01*
X972000Y1415016D01*
X971492Y1414508D01*
X970984D01*
X971492Y1414000D01*
X970984Y1413492D01*
X971492D01*
X972000Y1412984D01*
X1072450Y1446418D02*
X1073466Y1447434D01*
X1074482D01*
X1073466Y1448450D01*
X1074482Y1449466D01*
X1073466D01*
X1072450Y1450482D01*
X1071434Y1449466D01*
X1070418D01*
X1071434Y1448450D01*
X1070418Y1447434D01*
X1071434D01*
X1072450Y1446418D01*
Y1447434D02*
X1072958Y1447942D01*
X1073466D01*
X1072958Y1448450D01*
X1073466Y1448958D01*
X1072958D01*
X1072450Y1449466D01*
X1071942Y1448958D01*
X1071434D01*
X1071942Y1448450D01*
X1071434Y1447942D01*
X1071942D01*
X1072450Y1447434D01*
X986000Y1425968D02*
X987016Y1426984D01*
X988032D01*
X987016Y1428000D01*
X988032Y1429016D01*
X987016D01*
X986000Y1430032D01*
X984984Y1429016D01*
X983968D01*
X984984Y1428000D01*
X983968Y1426984D01*
X984984D01*
X986000Y1425968D01*
Y1426984D02*
X986508Y1427492D01*
X987016D01*
X986508Y1428000D01*
X987016Y1428508D01*
X986508D01*
X986000Y1429016D01*
X985492Y1428508D01*
X984984D01*
X985492Y1428000D01*
X984984Y1427492D01*
X985492D01*
X986000Y1426984D01*
X1122400Y1475568D02*
X1123416Y1476584D01*
X1124432D01*
X1123416Y1477600D01*
X1124432Y1478616D01*
X1123416D01*
X1122400Y1479632D01*
X1121384Y1478616D01*
X1120368D01*
X1121384Y1477600D01*
X1120368Y1476584D01*
X1121384D01*
X1122400Y1475568D01*
Y1476584D02*
X1122908Y1477092D01*
X1123416D01*
X1122908Y1477600D01*
X1123416Y1478108D01*
X1122908D01*
X1122400Y1478616D01*
X1121892Y1478108D01*
X1121384D01*
X1121892Y1477600D01*
X1121384Y1477092D01*
X1121892D01*
X1122400Y1476584D01*
X966000Y1404968D02*
X967016Y1405984D01*
X968032D01*
X967016Y1407000D01*
X968032Y1408016D01*
X967016D01*
X966000Y1409032D01*
X964984Y1408016D01*
X963968D01*
X964984Y1407000D01*
X963968Y1405984D01*
X964984D01*
X966000Y1404968D01*
Y1405984D02*
X966508Y1406492D01*
X967016D01*
X966508Y1407000D01*
X967016Y1407508D01*
X966508D01*
X966000Y1408016D01*
X965492Y1407508D01*
X964984D01*
X965492Y1407000D01*
X964984Y1406492D01*
X965492D01*
X966000Y1405984D01*
X1067000Y1430968D02*
X1068016Y1431984D01*
X1069032D01*
X1068016Y1433000D01*
X1069032Y1434016D01*
X1068016D01*
X1067000Y1435032D01*
X1065984Y1434016D01*
X1064968D01*
X1065984Y1433000D01*
X1064968Y1431984D01*
X1065984D01*
X1067000Y1430968D01*
Y1431984D02*
X1067508Y1432492D01*
X1068016D01*
X1067508Y1433000D01*
X1068016Y1433508D01*
X1067508D01*
X1067000Y1434016D01*
X1066492Y1433508D01*
X1065984D01*
X1066492Y1433000D01*
X1065984Y1432492D01*
X1066492D01*
X1067000Y1431984D01*
X776000Y2153968D02*
X777016Y2154984D01*
X778032D01*
X777016Y2156000D01*
X778032Y2157016D01*
X777016D01*
X776000Y2158032D01*
X774984Y2157016D01*
X773968D01*
X774984Y2156000D01*
X773968Y2154984D01*
X774984D01*
X776000Y2153968D01*
Y2154984D02*
X776508Y2155492D01*
X777016D01*
X776508Y2156000D01*
X777016Y2156508D01*
X776508D01*
X776000Y2157016D01*
X775492Y2156508D01*
X774984D01*
X775492Y2156000D01*
X774984Y2155492D01*
X775492D01*
X776000Y2154984D01*
X754000Y1735968D02*
X755016Y1736984D01*
X756032D01*
X755016Y1738000D01*
X756032Y1739016D01*
X755016D01*
X754000Y1740032D01*
X752984Y1739016D01*
X751968D01*
X752984Y1738000D01*
X751968Y1736984D01*
X752984D01*
X754000Y1735968D01*
Y1736984D02*
X754508Y1737492D01*
X755016D01*
X754508Y1738000D01*
X755016Y1738508D01*
X754508D01*
X754000Y1739016D01*
X753492Y1738508D01*
X752984D01*
X753492Y1738000D01*
X752984Y1737492D01*
X753492D01*
X754000Y1736984D01*
X761000Y1400968D02*
X762016Y1401984D01*
X763032D01*
X762016Y1403000D01*
X763032Y1404016D01*
X762016D01*
X761000Y1405032D01*
X759984Y1404016D01*
X758968D01*
X759984Y1403000D01*
X758968Y1401984D01*
X759984D01*
X761000Y1400968D01*
Y1401984D02*
X761508Y1402492D01*
X762016D01*
X761508Y1403000D01*
X762016Y1403508D01*
X761508D01*
X761000Y1404016D01*
X760492Y1403508D01*
X759984D01*
X760492Y1403000D01*
X759984Y1402492D01*
X760492D01*
X761000Y1401984D01*
X752000Y1912968D02*
X753016Y1913984D01*
X754032D01*
X753016Y1915000D01*
X754032Y1916016D01*
X753016D01*
X752000Y1917032D01*
X750984Y1916016D01*
X749968D01*
X750984Y1915000D01*
X749968Y1913984D01*
X750984D01*
X752000Y1912968D01*
Y1913984D02*
X752508Y1914492D01*
X753016D01*
X752508Y1915000D01*
X753016Y1915508D01*
X752508D01*
X752000Y1916016D01*
X751492Y1915508D01*
X750984D01*
X751492Y1915000D01*
X750984Y1914492D01*
X751492D01*
X752000Y1913984D01*
X769000Y1418968D02*
X770016Y1419984D01*
X771032D01*
X770016Y1421000D01*
X771032Y1422016D01*
X770016D01*
X769000Y1423032D01*
X767984Y1422016D01*
X766968D01*
X767984Y1421000D01*
X766968Y1419984D01*
X767984D01*
X769000Y1418968D01*
Y1419984D02*
X769508Y1420492D01*
X770016D01*
X769508Y1421000D01*
X770016Y1421508D01*
X769508D01*
X769000Y1422016D01*
X768492Y1421508D01*
X767984D01*
X768492Y1421000D01*
X767984Y1420492D01*
X768492D01*
X769000Y1419984D01*
X752000Y1994968D02*
X753016Y1995984D01*
X754032D01*
X753016Y1997000D01*
X754032Y1998016D01*
X753016D01*
X752000Y1999032D01*
X750984Y1998016D01*
X749968D01*
X750984Y1997000D01*
X749968Y1995984D01*
X750984D01*
X752000Y1994968D01*
Y1995984D02*
X752508Y1996492D01*
X753016D01*
X752508Y1997000D01*
X753016Y1997508D01*
X752508D01*
X752000Y1998016D01*
X751492Y1997508D01*
X750984D01*
X751492Y1997000D01*
X750984Y1996492D01*
X751492D01*
X752000Y1995984D01*
X779000Y1390968D02*
X780016Y1391984D01*
X781032D01*
X780016Y1393000D01*
X781032Y1394016D01*
X780016D01*
X779000Y1395032D01*
X777984Y1394016D01*
X776968D01*
X777984Y1393000D01*
X776968Y1391984D01*
X777984D01*
X779000Y1390968D01*
Y1391984D02*
X779508Y1392492D01*
X780016D01*
X779508Y1393000D01*
X780016Y1393508D01*
X779508D01*
X779000Y1394016D01*
X778492Y1393508D01*
X777984D01*
X778492Y1393000D01*
X777984Y1392492D01*
X778492D01*
X779000Y1391984D01*
X741000Y2009968D02*
X742016Y2010984D01*
X743032D01*
X742016Y2012000D01*
X743032Y2013016D01*
X742016D01*
X741000Y2014032D01*
X739984Y2013016D01*
X738968D01*
X739984Y2012000D01*
X738968Y2010984D01*
X739984D01*
X741000Y2009968D01*
Y2010984D02*
X741508Y2011492D01*
X742016D01*
X741508Y2012000D01*
X742016Y2012508D01*
X741508D01*
X741000Y2013016D01*
X740492Y2012508D01*
X739984D01*
X740492Y2012000D01*
X739984Y2011492D01*
X740492D01*
X741000Y2010984D01*
X710500Y2066468D02*
X711516Y2067484D01*
X712532D01*
X711516Y2068500D01*
X712532Y2069516D01*
X711516D01*
X710500Y2070532D01*
X709484Y2069516D01*
X708468D01*
X709484Y2068500D01*
X708468Y2067484D01*
X709484D01*
X710500Y2066468D01*
Y2067484D02*
X711008Y2067992D01*
X711516D01*
X711008Y2068500D01*
X711516Y2069008D01*
X711008D01*
X710500Y2069516D01*
X709992Y2069008D01*
X709484D01*
X709992Y2068500D01*
X709484Y2067992D01*
X709992D01*
X710500Y2067484D01*
X694000Y1671968D02*
X695016Y1672984D01*
X696032D01*
X695016Y1674000D01*
X696032Y1675016D01*
X695016D01*
X694000Y1676032D01*
X692984Y1675016D01*
X691968D01*
X692984Y1674000D01*
X691968Y1672984D01*
X692984D01*
X694000Y1671968D01*
Y1672984D02*
X694508Y1673492D01*
X695016D01*
X694508Y1674000D01*
X695016Y1674508D01*
X694508D01*
X694000Y1675016D01*
X693492Y1674508D01*
X692984D01*
X693492Y1674000D01*
X692984Y1673492D01*
X693492D01*
X694000Y1672984D01*
X1006000Y1261968D02*
X1007016Y1262984D01*
X1008032D01*
X1007016Y1264000D01*
X1008032Y1265016D01*
X1007016D01*
X1006000Y1266032D01*
X1004984Y1265016D01*
X1003968D01*
X1004984Y1264000D01*
X1003968Y1262984D01*
X1004984D01*
X1006000Y1261968D01*
Y1262984D02*
X1006508Y1263492D01*
X1007016D01*
X1006508Y1264000D01*
X1007016Y1264508D01*
X1006508D01*
X1006000Y1265016D01*
X1005492Y1264508D01*
X1004984D01*
X1005492Y1264000D01*
X1004984Y1263492D01*
X1005492D01*
X1006000Y1262984D01*
X740000Y1187968D02*
X741016Y1188984D01*
X742032D01*
X741016Y1190000D01*
X742032Y1191016D01*
X741016D01*
X740000Y1192032D01*
X738984Y1191016D01*
X737968D01*
X738984Y1190000D01*
X737968Y1188984D01*
X738984D01*
X740000Y1187968D01*
Y1188984D02*
X740508Y1189492D01*
X741016D01*
X740508Y1190000D01*
X741016Y1190508D01*
X740508D01*
X740000Y1191016D01*
X739492Y1190508D01*
X738984D01*
X739492Y1190000D01*
X738984Y1189492D01*
X739492D01*
X740000Y1188984D01*
X660000Y1187968D02*
X661016Y1188984D01*
X662032D01*
X661016Y1190000D01*
X662032Y1191016D01*
X661016D01*
X660000Y1192032D01*
X658984Y1191016D01*
X657968D01*
X658984Y1190000D01*
X657968Y1188984D01*
X658984D01*
X660000Y1187968D01*
Y1188984D02*
X660508Y1189492D01*
X661016D01*
X660508Y1190000D01*
X661016Y1190508D01*
X660508D01*
X660000Y1191016D01*
X659492Y1190508D01*
X658984D01*
X659492Y1190000D01*
X658984Y1189492D01*
X659492D01*
X660000Y1188984D01*
X682500Y1238468D02*
X683516Y1239484D01*
X684532D01*
X683516Y1240500D01*
X684532Y1241516D01*
X683516D01*
X682500Y1242532D01*
X681484Y1241516D01*
X680468D01*
X681484Y1240500D01*
X680468Y1239484D01*
X681484D01*
X682500Y1238468D01*
Y1239484D02*
X683008Y1239992D01*
X683516D01*
X683008Y1240500D01*
X683516Y1241008D01*
X683008D01*
X682500Y1241516D01*
X681992Y1241008D01*
X681484D01*
X681992Y1240500D01*
X681484Y1239992D01*
X681992D01*
X682500Y1239484D01*
X565000Y1255968D02*
X566016Y1256984D01*
X567032D01*
X566016Y1258000D01*
X567032Y1259016D01*
X566016D01*
X565000Y1260032D01*
X563984Y1259016D01*
X562968D01*
X563984Y1258000D01*
X562968Y1256984D01*
X563984D01*
X565000Y1255968D01*
Y1256984D02*
X565508Y1257492D01*
X566016D01*
X565508Y1258000D01*
X566016Y1258508D01*
X565508D01*
X565000Y1259016D01*
X564492Y1258508D01*
X563984D01*
X564492Y1258000D01*
X563984Y1257492D01*
X564492D01*
X565000Y1256984D01*
X958000Y1491968D02*
X959016Y1492984D01*
X960032D01*
X959016Y1494000D01*
X960032Y1495016D01*
X959016D01*
X958000Y1496032D01*
X956984Y1495016D01*
X955968D01*
X956984Y1494000D01*
X955968Y1492984D01*
X956984D01*
X958000Y1491968D01*
Y1492984D02*
X958508Y1493492D01*
X959016D01*
X958508Y1494000D01*
X959016Y1494508D01*
X958508D01*
X958000Y1495016D01*
X957492Y1494508D01*
X956984D01*
X957492Y1494000D01*
X956984Y1493492D01*
X957492D01*
X958000Y1492984D01*
X866000Y2184968D02*
X867016Y2185984D01*
X868032D01*
X867016Y2187000D01*
X868032Y2188016D01*
X867016D01*
X866000Y2189032D01*
X864984Y2188016D01*
X863968D01*
X864984Y2187000D01*
X863968Y2185984D01*
X864984D01*
X866000Y2184968D01*
Y2185984D02*
X866508Y2186492D01*
X867016D01*
X866508Y2187000D01*
X867016Y2187508D01*
X866508D01*
X866000Y2188016D01*
X865492Y2187508D01*
X864984D01*
X865492Y2187000D01*
X864984Y2186492D01*
X865492D01*
X866000Y2185984D01*
X891000Y1832968D02*
X892016Y1833984D01*
X893032D01*
X892016Y1835000D01*
X893032Y1836016D01*
X892016D01*
X891000Y1837032D01*
X889984Y1836016D01*
X888968D01*
X889984Y1835000D01*
X888968Y1833984D01*
X889984D01*
X891000Y1832968D01*
Y1833984D02*
X891508Y1834492D01*
X892016D01*
X891508Y1835000D01*
X892016Y1835508D01*
X891508D01*
X891000Y1836016D01*
X890492Y1835508D01*
X889984D01*
X890492Y1835000D01*
X889984Y1834492D01*
X890492D01*
X891000Y1833984D01*
X842000Y1442968D02*
X843016Y1443984D01*
X844032D01*
X843016Y1445000D01*
X844032Y1446016D01*
X843016D01*
X842000Y1447032D01*
X840984Y1446016D01*
X839968D01*
X840984Y1445000D01*
X839968Y1443984D01*
X840984D01*
X842000Y1442968D01*
Y1443984D02*
X842508Y1444492D01*
X843016D01*
X842508Y1445000D01*
X843016Y1445508D01*
X842508D01*
X842000Y1446016D01*
X841492Y1445508D01*
X840984D01*
X841492Y1445000D01*
X840984Y1444492D01*
X841492D01*
X842000Y1443984D01*
X846000Y1704968D02*
X847016Y1705984D01*
X848032D01*
X847016Y1707000D01*
X848032Y1708016D01*
X847016D01*
X846000Y1709032D01*
X844984Y1708016D01*
X843968D01*
X844984Y1707000D01*
X843968Y1705984D01*
X844984D01*
X846000Y1704968D01*
Y1705984D02*
X846508Y1706492D01*
X847016D01*
X846508Y1707000D01*
X847016Y1707508D01*
X846508D01*
X846000Y1708016D01*
X845492Y1707508D01*
X844984D01*
X845492Y1707000D01*
X844984Y1706492D01*
X845492D01*
X846000Y1705984D01*
X920000Y1603968D02*
X921016Y1604984D01*
X922032D01*
X921016Y1606000D01*
X922032Y1607016D01*
X921016D01*
X920000Y1608032D01*
X918984Y1607016D01*
X917968D01*
X918984Y1606000D01*
X917968Y1604984D01*
X918984D01*
X920000Y1603968D01*
Y1604984D02*
X920508Y1605492D01*
X921016D01*
X920508Y1606000D01*
X921016Y1606508D01*
X920508D01*
X920000Y1607016D01*
X919492Y1606508D01*
X918984D01*
X919492Y1606000D01*
X918984Y1605492D01*
X919492D01*
X920000Y1604984D01*
X895000Y1616968D02*
X896016Y1617984D01*
X897032D01*
X896016Y1619000D01*
X897032Y1620016D01*
X896016D01*
X895000Y1621032D01*
X893984Y1620016D01*
X892968D01*
X893984Y1619000D01*
X892968Y1617984D01*
X893984D01*
X895000Y1616968D01*
Y1617984D02*
X895508Y1618492D01*
X896016D01*
X895508Y1619000D01*
X896016Y1619508D01*
X895508D01*
X895000Y1620016D01*
X894492Y1619508D01*
X893984D01*
X894492Y1619000D01*
X893984Y1618492D01*
X894492D01*
X895000Y1617984D01*
X903000Y1610968D02*
X904016Y1611984D01*
X905032D01*
X904016Y1613000D01*
X905032Y1614016D01*
X904016D01*
X903000Y1615032D01*
X901984Y1614016D01*
X900968D01*
X901984Y1613000D01*
X900968Y1611984D01*
X901984D01*
X903000Y1610968D01*
Y1611984D02*
X903508Y1612492D01*
X904016D01*
X903508Y1613000D01*
X904016Y1613508D01*
X903508D01*
X903000Y1614016D01*
X902492Y1613508D01*
X901984D01*
X902492Y1613000D01*
X901984Y1612492D01*
X902492D01*
X903000Y1611984D01*
X895000Y1385968D02*
X896016Y1386984D01*
X897032D01*
X896016Y1388000D01*
X897032Y1389016D01*
X896016D01*
X895000Y1390032D01*
X893984Y1389016D01*
X892968D01*
X893984Y1388000D01*
X892968Y1386984D01*
X893984D01*
X895000Y1385968D01*
Y1386984D02*
X895508Y1387492D01*
X896016D01*
X895508Y1388000D01*
X896016Y1388508D01*
X895508D01*
X895000Y1389016D01*
X894492Y1388508D01*
X893984D01*
X894492Y1388000D01*
X893984Y1387492D01*
X894492D01*
X895000Y1386984D01*
X903000Y1392968D02*
X904016Y1393984D01*
X905032D01*
X904016Y1395000D01*
X905032Y1396016D01*
X904016D01*
X903000Y1397032D01*
X901984Y1396016D01*
X900968D01*
X901984Y1395000D01*
X900968Y1393984D01*
X901984D01*
X903000Y1392968D01*
Y1393984D02*
X903508Y1394492D01*
X904016D01*
X903508Y1395000D01*
X904016Y1395508D01*
X903508D01*
X903000Y1396016D01*
X902492Y1395508D01*
X901984D01*
X902492Y1395000D01*
X901984Y1394492D01*
X902492D01*
X903000Y1393984D01*
X847000Y1379968D02*
X848016Y1380984D01*
X849032D01*
X848016Y1382000D01*
X849032Y1383016D01*
X848016D01*
X847000Y1384032D01*
X845984Y1383016D01*
X844968D01*
X845984Y1382000D01*
X844968Y1380984D01*
X845984D01*
X847000Y1379968D01*
Y1380984D02*
X847508Y1381492D01*
X848016D01*
X847508Y1382000D01*
X848016Y1382508D01*
X847508D01*
X847000Y1383016D01*
X846492Y1382508D01*
X845984D01*
X846492Y1382000D01*
X845984Y1381492D01*
X846492D01*
X847000Y1380984D01*
X855000Y1372968D02*
X856016Y1373984D01*
X857032D01*
X856016Y1375000D01*
X857032Y1376016D01*
X856016D01*
X855000Y1377032D01*
X853984Y1376016D01*
X852968D01*
X853984Y1375000D01*
X852968Y1373984D01*
X853984D01*
X855000Y1372968D01*
Y1373984D02*
X855508Y1374492D01*
X856016D01*
X855508Y1375000D01*
X856016Y1375508D01*
X855508D01*
X855000Y1376016D01*
X854492Y1375508D01*
X853984D01*
X854492Y1375000D01*
X853984Y1374492D01*
X854492D01*
X855000Y1373984D01*
X983000Y1561968D02*
X984016Y1562984D01*
X985032D01*
X984016Y1564000D01*
X985032Y1565016D01*
X984016D01*
X983000Y1566032D01*
X981984Y1565016D01*
X980968D01*
X981984Y1564000D01*
X980968Y1562984D01*
X981984D01*
X983000Y1561968D01*
Y1562984D02*
X983508Y1563492D01*
X984016D01*
X983508Y1564000D01*
X984016Y1564508D01*
X983508D01*
X983000Y1565016D01*
X982492Y1564508D01*
X981984D01*
X982492Y1564000D01*
X981984Y1563492D01*
X982492D01*
X983000Y1562984D01*
X948000Y1566968D02*
X949016Y1567984D01*
X950032D01*
X949016Y1569000D01*
X950032Y1570016D01*
X949016D01*
X948000Y1571032D01*
X946984Y1570016D01*
X945968D01*
X946984Y1569000D01*
X945968Y1567984D01*
X946984D01*
X948000Y1566968D01*
Y1567984D02*
X948508Y1568492D01*
X949016D01*
X948508Y1569000D01*
X949016Y1569508D01*
X948508D01*
X948000Y1570016D01*
X947492Y1569508D01*
X946984D01*
X947492Y1569000D01*
X946984Y1568492D01*
X947492D01*
X948000Y1567984D01*
X921000Y1531968D02*
X922016Y1532984D01*
X923032D01*
X922016Y1534000D01*
X923032Y1535016D01*
X922016D01*
X921000Y1536032D01*
X919984Y1535016D01*
X918968D01*
X919984Y1534000D01*
X918968Y1532984D01*
X919984D01*
X921000Y1531968D01*
Y1532984D02*
X921508Y1533492D01*
X922016D01*
X921508Y1534000D01*
X922016Y1534508D01*
X921508D01*
X921000Y1535016D01*
X920492Y1534508D01*
X919984D01*
X920492Y1534000D01*
X919984Y1533492D01*
X920492D01*
X921000Y1532984D01*
X1215000Y1223968D02*
X1216016Y1224984D01*
X1217032D01*
X1216016Y1226000D01*
X1217032Y1227016D01*
X1216016D01*
X1215000Y1228032D01*
X1213984Y1227016D01*
X1212968D01*
X1213984Y1226000D01*
X1212968Y1224984D01*
X1213984D01*
X1215000Y1223968D01*
Y1224984D02*
X1215508Y1225492D01*
X1216016D01*
X1215508Y1226000D01*
X1216016Y1226508D01*
X1215508D01*
X1215000Y1227016D01*
X1214492Y1226508D01*
X1213984D01*
X1214492Y1226000D01*
X1213984Y1225492D01*
X1214492D01*
X1215000Y1224984D01*
X1205000Y1213968D02*
X1206016Y1214984D01*
X1207032D01*
X1206016Y1216000D01*
X1207032Y1217016D01*
X1206016D01*
X1205000Y1218032D01*
X1203984Y1217016D01*
X1202968D01*
X1203984Y1216000D01*
X1202968Y1214984D01*
X1203984D01*
X1205000Y1213968D01*
Y1214984D02*
X1205508Y1215492D01*
X1206016D01*
X1205508Y1216000D01*
X1206016Y1216508D01*
X1205508D01*
X1205000Y1217016D01*
X1204492Y1216508D01*
X1203984D01*
X1204492Y1216000D01*
X1203984Y1215492D01*
X1204492D01*
X1205000Y1214984D01*
X929000Y1390968D02*
X930016Y1391984D01*
X931032D01*
X930016Y1393000D01*
X931032Y1394016D01*
X930016D01*
X929000Y1395032D01*
X927984Y1394016D01*
X926968D01*
X927984Y1393000D01*
X926968Y1391984D01*
X927984D01*
X929000Y1390968D01*
Y1391984D02*
X929508Y1392492D01*
X930016D01*
X929508Y1393000D01*
X930016Y1393508D01*
X929508D01*
X929000Y1394016D01*
X928492Y1393508D01*
X927984D01*
X928492Y1393000D01*
X927984Y1392492D01*
X928492D01*
X929000Y1391984D01*
X837000Y1606968D02*
X838016Y1607984D01*
X839032D01*
X838016Y1609000D01*
X839032Y1610016D01*
X838016D01*
X837000Y1611032D01*
X835984Y1610016D01*
X834968D01*
X835984Y1609000D01*
X834968Y1607984D01*
X835984D01*
X837000Y1606968D01*
Y1607984D02*
X837508Y1608492D01*
X838016D01*
X837508Y1609000D01*
X838016Y1609508D01*
X837508D01*
X837000Y1610016D01*
X836492Y1609508D01*
X835984D01*
X836492Y1609000D01*
X835984Y1608492D01*
X836492D01*
X837000Y1607984D01*
X1255000Y1442968D02*
X1256016Y1443984D01*
X1257032D01*
X1256016Y1445000D01*
X1257032Y1446016D01*
X1256016D01*
X1255000Y1447032D01*
X1253984Y1446016D01*
X1252968D01*
X1253984Y1445000D01*
X1252968Y1443984D01*
X1253984D01*
X1255000Y1442968D01*
Y1443984D02*
X1255508Y1444492D01*
X1256016D01*
X1255508Y1445000D01*
X1256016Y1445508D01*
X1255508D01*
X1255000Y1446016D01*
X1254492Y1445508D01*
X1253984D01*
X1254492Y1445000D01*
X1253984Y1444492D01*
X1254492D01*
X1255000Y1443984D01*
X1261000Y1417968D02*
X1262016Y1418984D01*
X1263032D01*
X1262016Y1420000D01*
X1263032Y1421016D01*
X1262016D01*
X1261000Y1422032D01*
X1259984Y1421016D01*
X1258968D01*
X1259984Y1420000D01*
X1258968Y1418984D01*
X1259984D01*
X1261000Y1417968D01*
Y1418984D02*
X1261508Y1419492D01*
X1262016D01*
X1261508Y1420000D01*
X1262016Y1420508D01*
X1261508D01*
X1261000Y1421016D01*
X1260492Y1420508D01*
X1259984D01*
X1260492Y1420000D01*
X1259984Y1419492D01*
X1260492D01*
X1261000Y1418984D01*
X1267500Y1228468D02*
X1268516Y1229484D01*
X1269532D01*
X1268516Y1230500D01*
X1269532Y1231516D01*
X1268516D01*
X1267500Y1232532D01*
X1266484Y1231516D01*
X1265468D01*
X1266484Y1230500D01*
X1265468Y1229484D01*
X1266484D01*
X1267500Y1228468D01*
Y1229484D02*
X1268008Y1229992D01*
X1268516D01*
X1268008Y1230500D01*
X1268516Y1231008D01*
X1268008D01*
X1267500Y1231516D01*
X1266992Y1231008D01*
X1266484D01*
X1266992Y1230500D01*
X1266484Y1229992D01*
X1266992D01*
X1267500Y1229484D01*
X1592000Y1299968D02*
X1593016Y1300984D01*
X1594032D01*
X1593016Y1302000D01*
X1594032Y1303016D01*
X1593016D01*
X1592000Y1304032D01*
X1590984Y1303016D01*
X1589968D01*
X1590984Y1302000D01*
X1589968Y1300984D01*
X1590984D01*
X1592000Y1299968D01*
Y1300984D02*
X1592508Y1301492D01*
X1593016D01*
X1592508Y1302000D01*
X1593016Y1302508D01*
X1592508D01*
X1592000Y1303016D01*
X1591492Y1302508D01*
X1590984D01*
X1591492Y1302000D01*
X1590984Y1301492D01*
X1591492D01*
X1592000Y1300984D01*
X791000Y1295604D02*
X792016Y1296620D01*
X793032D01*
X792016Y1297636D01*
X793032Y1298652D01*
X792016D01*
X791000Y1299668D01*
X789984Y1298652D01*
X788968D01*
X789984Y1297636D01*
X788968Y1296620D01*
X789984D01*
X791000Y1295604D01*
Y1296620D02*
X791508Y1297128D01*
X792016D01*
X791508Y1297636D01*
X792016Y1298144D01*
X791508D01*
X791000Y1298652D01*
X790492Y1298144D01*
X789984D01*
X790492Y1297636D01*
X789984Y1297128D01*
X790492D01*
X791000Y1296620D01*
X741000Y1302968D02*
X742016Y1303984D01*
X743032D01*
X742016Y1305000D01*
X743032Y1306016D01*
X742016D01*
X741000Y1307032D01*
X739984Y1306016D01*
X738968D01*
X739984Y1305000D01*
X738968Y1303984D01*
X739984D01*
X741000Y1302968D01*
Y1303984D02*
X741508Y1304492D01*
X742016D01*
X741508Y1305000D01*
X742016Y1305508D01*
X741508D01*
X741000Y1306016D01*
X740492Y1305508D01*
X739984D01*
X740492Y1305000D01*
X739984Y1304492D01*
X740492D01*
X741000Y1303984D01*
X1289000Y1314968D02*
X1290016Y1315984D01*
X1291032D01*
X1290016Y1317000D01*
X1291032Y1318016D01*
X1290016D01*
X1289000Y1319032D01*
X1287984Y1318016D01*
X1286968D01*
X1287984Y1317000D01*
X1286968Y1315984D01*
X1287984D01*
X1289000Y1314968D01*
Y1315984D02*
X1289508Y1316492D01*
X1290016D01*
X1289508Y1317000D01*
X1290016Y1317508D01*
X1289508D01*
X1289000Y1318016D01*
X1288492Y1317508D01*
X1287984D01*
X1288492Y1317000D01*
X1287984Y1316492D01*
X1288492D01*
X1289000Y1315984D01*
X844000Y1843968D02*
X845016Y1844984D01*
X846032D01*
X845016Y1846000D01*
X846032Y1847016D01*
X845016D01*
X844000Y1848032D01*
X842984Y1847016D01*
X841968D01*
X842984Y1846000D01*
X841968Y1844984D01*
X842984D01*
X844000Y1843968D01*
Y1844984D02*
X844508Y1845492D01*
X845016D01*
X844508Y1846000D01*
X845016Y1846508D01*
X844508D01*
X844000Y1847016D01*
X843492Y1846508D01*
X842984D01*
X843492Y1846000D01*
X842984Y1845492D01*
X843492D01*
X844000Y1844984D01*
X858000Y1751968D02*
X859016Y1752984D01*
X860032D01*
X859016Y1754000D01*
X860032Y1755016D01*
X859016D01*
X858000Y1756032D01*
X856984Y1755016D01*
X855968D01*
X856984Y1754000D01*
X855968Y1752984D01*
X856984D01*
X858000Y1751968D01*
Y1752984D02*
X858508Y1753492D01*
X859016D01*
X858508Y1754000D01*
X859016Y1754508D01*
X858508D01*
X858000Y1755016D01*
X857492Y1754508D01*
X856984D01*
X857492Y1754000D01*
X856984Y1753492D01*
X857492D01*
X858000Y1752984D01*
X712000Y1440968D02*
X713016Y1441984D01*
X714032D01*
X713016Y1443000D01*
X714032Y1444016D01*
X713016D01*
X712000Y1445032D01*
X710984Y1444016D01*
X709968D01*
X710984Y1443000D01*
X709968Y1441984D01*
X710984D01*
X712000Y1440968D01*
Y1441984D02*
X712508Y1442492D01*
X713016D01*
X712508Y1443000D01*
X713016Y1443508D01*
X712508D01*
X712000Y1444016D01*
X711492Y1443508D01*
X710984D01*
X711492Y1443000D01*
X710984Y1442492D01*
X711492D01*
X712000Y1441984D01*
X669000Y1437968D02*
X670016Y1438984D01*
X671032D01*
X670016Y1440000D01*
X671032Y1441016D01*
X670016D01*
X669000Y1442032D01*
X667984Y1441016D01*
X666968D01*
X667984Y1440000D01*
X666968Y1438984D01*
X667984D01*
X669000Y1437968D01*
Y1438984D02*
X669508Y1439492D01*
X670016D01*
X669508Y1440000D01*
X670016Y1440508D01*
X669508D01*
X669000Y1441016D01*
X668492Y1440508D01*
X667984D01*
X668492Y1440000D01*
X667984Y1439492D01*
X668492D01*
X669000Y1438984D01*
X673000Y1425968D02*
X674016Y1426984D01*
X675032D01*
X674016Y1428000D01*
X675032Y1429016D01*
X674016D01*
X673000Y1430032D01*
X671984Y1429016D01*
X670968D01*
X671984Y1428000D01*
X670968Y1426984D01*
X671984D01*
X673000Y1425968D01*
Y1426984D02*
X673508Y1427492D01*
X674016D01*
X673508Y1428000D01*
X674016Y1428508D01*
X673508D01*
X673000Y1429016D01*
X672492Y1428508D01*
X671984D01*
X672492Y1428000D01*
X671984Y1427492D01*
X672492D01*
X673000Y1426984D01*
X632000Y1425968D02*
X633016Y1426984D01*
X634032D01*
X633016Y1428000D01*
X634032Y1429016D01*
X633016D01*
X632000Y1430032D01*
X630984Y1429016D01*
X629968D01*
X630984Y1428000D01*
X629968Y1426984D01*
X630984D01*
X632000Y1425968D01*
Y1426984D02*
X632508Y1427492D01*
X633016D01*
X632508Y1428000D01*
X633016Y1428508D01*
X632508D01*
X632000Y1429016D01*
X631492Y1428508D01*
X630984D01*
X631492Y1428000D01*
X630984Y1427492D01*
X631492D01*
X632000Y1426984D01*
X1401000Y1426968D02*
X1402016Y1427984D01*
X1403032D01*
X1402016Y1429000D01*
X1403032Y1430016D01*
X1402016D01*
X1401000Y1431032D01*
X1399984Y1430016D01*
X1398968D01*
X1399984Y1429000D01*
X1398968Y1427984D01*
X1399984D01*
X1401000Y1426968D01*
Y1427984D02*
X1401508Y1428492D01*
X1402016D01*
X1401508Y1429000D01*
X1402016Y1429508D01*
X1401508D01*
X1401000Y1430016D01*
X1400492Y1429508D01*
X1399984D01*
X1400492Y1429000D01*
X1399984Y1428492D01*
X1400492D01*
X1401000Y1427984D01*
X1376000Y1439968D02*
X1377016Y1440984D01*
X1378032D01*
X1377016Y1442000D01*
X1378032Y1443016D01*
X1377016D01*
X1376000Y1444032D01*
X1374984Y1443016D01*
X1373968D01*
X1374984Y1442000D01*
X1373968Y1440984D01*
X1374984D01*
X1376000Y1439968D01*
Y1440984D02*
X1376508Y1441492D01*
X1377016D01*
X1376508Y1442000D01*
X1377016Y1442508D01*
X1376508D01*
X1376000Y1443016D01*
X1375492Y1442508D01*
X1374984D01*
X1375492Y1442000D01*
X1374984Y1441492D01*
X1375492D01*
X1376000Y1440984D01*
X1379000Y1426968D02*
X1380016Y1427984D01*
X1381032D01*
X1380016Y1429000D01*
X1381032Y1430016D01*
X1380016D01*
X1379000Y1431032D01*
X1377984Y1430016D01*
X1376968D01*
X1377984Y1429000D01*
X1376968Y1427984D01*
X1377984D01*
X1379000Y1426968D01*
Y1427984D02*
X1379508Y1428492D01*
X1380016D01*
X1379508Y1429000D01*
X1380016Y1429508D01*
X1379508D01*
X1379000Y1430016D01*
X1378492Y1429508D01*
X1377984D01*
X1378492Y1429000D01*
X1377984Y1428492D01*
X1378492D01*
X1379000Y1427984D01*
X1353000Y1439968D02*
X1354016Y1440984D01*
X1355032D01*
X1354016Y1442000D01*
X1355032Y1443016D01*
X1354016D01*
X1353000Y1444032D01*
X1351984Y1443016D01*
X1350968D01*
X1351984Y1442000D01*
X1350968Y1440984D01*
X1351984D01*
X1353000Y1439968D01*
Y1440984D02*
X1353508Y1441492D01*
X1354016D01*
X1353508Y1442000D01*
X1354016Y1442508D01*
X1353508D01*
X1353000Y1443016D01*
X1352492Y1442508D01*
X1351984D01*
X1352492Y1442000D01*
X1351984Y1441492D01*
X1352492D01*
X1353000Y1440984D01*
Y1452968D02*
X1354016Y1453984D01*
X1355032D01*
X1354016Y1455000D01*
X1355032Y1456016D01*
X1354016D01*
X1353000Y1457032D01*
X1351984Y1456016D01*
X1350968D01*
X1351984Y1455000D01*
X1350968Y1453984D01*
X1351984D01*
X1353000Y1452968D01*
Y1453984D02*
X1353508Y1454492D01*
X1354016D01*
X1353508Y1455000D01*
X1354016Y1455508D01*
X1353508D01*
X1353000Y1456016D01*
X1352492Y1455508D01*
X1351984D01*
X1352492Y1455000D01*
X1351984Y1454492D01*
X1352492D01*
X1353000Y1453984D01*
X1328000Y1451968D02*
X1329016Y1452984D01*
X1330032D01*
X1329016Y1454000D01*
X1330032Y1455016D01*
X1329016D01*
X1328000Y1456032D01*
X1326984Y1455016D01*
X1325968D01*
X1326984Y1454000D01*
X1325968Y1452984D01*
X1326984D01*
X1328000Y1451968D01*
Y1452984D02*
X1328508Y1453492D01*
X1329016D01*
X1328508Y1454000D01*
X1329016Y1454508D01*
X1328508D01*
X1328000Y1455016D01*
X1327492Y1454508D01*
X1326984D01*
X1327492Y1454000D01*
X1326984Y1453492D01*
X1327492D01*
X1328000Y1452984D01*
X1372000Y1883968D02*
X1373016Y1884984D01*
X1374032D01*
X1373016Y1886000D01*
X1374032Y1887016D01*
X1373016D01*
X1372000Y1888032D01*
X1370984Y1887016D01*
X1369968D01*
X1370984Y1886000D01*
X1369968Y1884984D01*
X1370984D01*
X1372000Y1883968D01*
Y1884984D02*
X1372508Y1885492D01*
X1373016D01*
X1372508Y1886000D01*
X1373016Y1886508D01*
X1372508D01*
X1372000Y1887016D01*
X1371492Y1886508D01*
X1370984D01*
X1371492Y1886000D01*
X1370984Y1885492D01*
X1371492D01*
X1372000Y1884984D01*
X1654500Y1859468D02*
X1655516Y1860484D01*
X1656532D01*
X1655516Y1861500D01*
X1656532Y1862516D01*
X1655516D01*
X1654500Y1863532D01*
X1653484Y1862516D01*
X1652468D01*
X1653484Y1861500D01*
X1652468Y1860484D01*
X1653484D01*
X1654500Y1859468D01*
Y1860484D02*
X1655008Y1860992D01*
X1655516D01*
X1655008Y1861500D01*
X1655516Y1862008D01*
X1655008D01*
X1654500Y1862516D01*
X1653992Y1862008D01*
X1653484D01*
X1653992Y1861500D01*
X1653484Y1860992D01*
X1653992D01*
X1654500Y1860484D01*
X1655000Y1909968D02*
X1656016Y1910984D01*
X1657032D01*
X1656016Y1912000D01*
X1657032Y1913016D01*
X1656016D01*
X1655000Y1914032D01*
X1653984Y1913016D01*
X1652968D01*
X1653984Y1912000D01*
X1652968Y1910984D01*
X1653984D01*
X1655000Y1909968D01*
Y1910984D02*
X1655508Y1911492D01*
X1656016D01*
X1655508Y1912000D01*
X1656016Y1912508D01*
X1655508D01*
X1655000Y1913016D01*
X1654492Y1912508D01*
X1653984D01*
X1654492Y1912000D01*
X1653984Y1911492D01*
X1654492D01*
X1655000Y1910984D01*
X1630000Y1863968D02*
X1631016Y1864984D01*
X1632032D01*
X1631016Y1866000D01*
X1632032Y1867016D01*
X1631016D01*
X1630000Y1868032D01*
X1628984Y1867016D01*
X1627968D01*
X1628984Y1866000D01*
X1627968Y1864984D01*
X1628984D01*
X1630000Y1863968D01*
Y1864984D02*
X1630508Y1865492D01*
X1631016D01*
X1630508Y1866000D01*
X1631016Y1866508D01*
X1630508D01*
X1630000Y1867016D01*
X1629492Y1866508D01*
X1628984D01*
X1629492Y1866000D01*
X1628984Y1865492D01*
X1629492D01*
X1630000Y1864984D01*
X1621000Y1857968D02*
X1622016Y1858984D01*
X1623032D01*
X1622016Y1860000D01*
X1623032Y1861016D01*
X1622016D01*
X1621000Y1862032D01*
X1619984Y1861016D01*
X1618968D01*
X1619984Y1860000D01*
X1618968Y1858984D01*
X1619984D01*
X1621000Y1857968D01*
Y1858984D02*
X1621508Y1859492D01*
X1622016D01*
X1621508Y1860000D01*
X1622016Y1860508D01*
X1621508D01*
X1621000Y1861016D01*
X1620492Y1860508D01*
X1619984D01*
X1620492Y1860000D01*
X1619984Y1859492D01*
X1620492D01*
X1621000Y1858984D01*
X1611000Y1852968D02*
X1612016Y1853984D01*
X1613032D01*
X1612016Y1855000D01*
X1613032Y1856016D01*
X1612016D01*
X1611000Y1857032D01*
X1609984Y1856016D01*
X1608968D01*
X1609984Y1855000D01*
X1608968Y1853984D01*
X1609984D01*
X1611000Y1852968D01*
Y1853984D02*
X1611508Y1854492D01*
X1612016D01*
X1611508Y1855000D01*
X1612016Y1855508D01*
X1611508D01*
X1611000Y1856016D01*
X1610492Y1855508D01*
X1609984D01*
X1610492Y1855000D01*
X1609984Y1854492D01*
X1610492D01*
X1611000Y1853984D01*
X1640000Y1869968D02*
X1641016Y1870984D01*
X1642032D01*
X1641016Y1872000D01*
X1642032Y1873016D01*
X1641016D01*
X1640000Y1874032D01*
X1638984Y1873016D01*
X1637968D01*
X1638984Y1872000D01*
X1637968Y1870984D01*
X1638984D01*
X1640000Y1869968D01*
Y1870984D02*
X1640508Y1871492D01*
X1641016D01*
X1640508Y1872000D01*
X1641016Y1872508D01*
X1640508D01*
X1640000Y1873016D01*
X1639492Y1872508D01*
X1638984D01*
X1639492Y1872000D01*
X1638984Y1871492D01*
X1639492D01*
X1640000Y1870984D01*
X830000Y1492968D02*
X831016Y1493984D01*
X832032D01*
X831016Y1495000D01*
X832032Y1496016D01*
X831016D01*
X830000Y1497032D01*
X828984Y1496016D01*
X827968D01*
X828984Y1495000D01*
X827968Y1493984D01*
X828984D01*
X830000Y1492968D01*
Y1493984D02*
X830508Y1494492D01*
X831016D01*
X830508Y1495000D01*
X831016Y1495508D01*
X830508D01*
X830000Y1496016D01*
X829492Y1495508D01*
X828984D01*
X829492Y1495000D01*
X828984Y1494492D01*
X829492D01*
X830000Y1493984D01*
X820000Y1762968D02*
X821016Y1763984D01*
X822032D01*
X821016Y1765000D01*
X822032Y1766016D01*
X821016D01*
X820000Y1767032D01*
X818984Y1766016D01*
X817968D01*
X818984Y1765000D01*
X817968Y1763984D01*
X818984D01*
X820000Y1762968D01*
Y1763984D02*
X820508Y1764492D01*
X821016D01*
X820508Y1765000D01*
X821016Y1765508D01*
X820508D01*
X820000Y1766016D01*
X819492Y1765508D01*
X818984D01*
X819492Y1765000D01*
X818984Y1764492D01*
X819492D01*
X820000Y1763984D01*
X823000Y1480968D02*
X824016Y1481984D01*
X825032D01*
X824016Y1483000D01*
X825032Y1484016D01*
X824016D01*
X823000Y1485032D01*
X821984Y1484016D01*
X820968D01*
X821984Y1483000D01*
X820968Y1481984D01*
X821984D01*
X823000Y1480968D01*
Y1481984D02*
X823508Y1482492D01*
X824016D01*
X823508Y1483000D01*
X824016Y1483508D01*
X823508D01*
X823000Y1484016D01*
X822492Y1483508D01*
X821984D01*
X822492Y1483000D01*
X821984Y1482492D01*
X822492D01*
X823000Y1481984D01*
X809000Y1787968D02*
X810016Y1788984D01*
X811032D01*
X810016Y1790000D01*
X811032Y1791016D01*
X810016D01*
X809000Y1792032D01*
X807984Y1791016D01*
X806968D01*
X807984Y1790000D01*
X806968Y1788984D01*
X807984D01*
X809000Y1787968D01*
Y1788984D02*
X809508Y1789492D01*
X810016D01*
X809508Y1790000D01*
X810016Y1790508D01*
X809508D01*
X809000Y1791016D01*
X808492Y1790508D01*
X807984D01*
X808492Y1790000D01*
X807984Y1789492D01*
X808492D01*
X809000Y1788984D01*
X911000Y1433968D02*
X912016Y1434984D01*
X913032D01*
X912016Y1436000D01*
X913032Y1437016D01*
X912016D01*
X911000Y1438032D01*
X909984Y1437016D01*
X908968D01*
X909984Y1436000D01*
X908968Y1434984D01*
X909984D01*
X911000Y1433968D01*
Y1434984D02*
X911508Y1435492D01*
X912016D01*
X911508Y1436000D01*
X912016Y1436508D01*
X911508D01*
X911000Y1437016D01*
X910492Y1436508D01*
X909984D01*
X910492Y1436000D01*
X909984Y1435492D01*
X910492D01*
X911000Y1434984D01*
Y1463968D02*
X912016Y1464984D01*
X913032D01*
X912016Y1466000D01*
X913032Y1467016D01*
X912016D01*
X911000Y1468032D01*
X909984Y1467016D01*
X908968D01*
X909984Y1466000D01*
X908968Y1464984D01*
X909984D01*
X911000Y1463968D01*
Y1464984D02*
X911508Y1465492D01*
X912016D01*
X911508Y1466000D01*
X912016Y1466508D01*
X911508D01*
X911000Y1467016D01*
X910492Y1466508D01*
X909984D01*
X910492Y1466000D01*
X909984Y1465492D01*
X910492D01*
X911000Y1464984D01*
X785000Y1445968D02*
X786016Y1446984D01*
X787032D01*
X786016Y1448000D01*
X787032Y1449016D01*
X786016D01*
X785000Y1450032D01*
X783984Y1449016D01*
X782968D01*
X783984Y1448000D01*
X782968Y1446984D01*
X783984D01*
X785000Y1445968D01*
Y1446984D02*
X785508Y1447492D01*
X786016D01*
X785508Y1448000D01*
X786016Y1448508D01*
X785508D01*
X785000Y1449016D01*
X784492Y1448508D01*
X783984D01*
X784492Y1448000D01*
X783984Y1447492D01*
X784492D01*
X785000Y1446984D01*
X793000Y1928968D02*
X794016Y1929984D01*
X795032D01*
X794016Y1931000D01*
X795032Y1932016D01*
X794016D01*
X793000Y1933032D01*
X791984Y1932016D01*
X790968D01*
X791984Y1931000D01*
X790968Y1929984D01*
X791984D01*
X793000Y1928968D01*
Y1929984D02*
X793508Y1930492D01*
X794016D01*
X793508Y1931000D01*
X794016Y1931508D01*
X793508D01*
X793000Y1932016D01*
X792492Y1931508D01*
X791984D01*
X792492Y1931000D01*
X791984Y1930492D01*
X792492D01*
X793000Y1929984D01*
X791000Y2044968D02*
X792016Y2045984D01*
X793032D01*
X792016Y2047000D01*
X793032Y2048016D01*
X792016D01*
X791000Y2049032D01*
X789984Y2048016D01*
X788968D01*
X789984Y2047000D01*
X788968Y2045984D01*
X789984D01*
X791000Y2044968D01*
Y2045984D02*
X791508Y2046492D01*
X792016D01*
X791508Y2047000D01*
X792016Y2047508D01*
X791508D01*
X791000Y2048016D01*
X790492Y2047508D01*
X789984D01*
X790492Y2047000D01*
X789984Y2046492D01*
X790492D01*
X791000Y2045984D01*
X884000Y2044968D02*
X885016Y2045984D01*
X886032D01*
X885016Y2047000D01*
X886032Y2048016D01*
X885016D01*
X884000Y2049032D01*
X882984Y2048016D01*
X881968D01*
X882984Y2047000D01*
X881968Y2045984D01*
X882984D01*
X884000Y2044968D01*
Y2045984D02*
X884508Y2046492D01*
X885016D01*
X884508Y2047000D01*
X885016Y2047508D01*
X884508D01*
X884000Y2048016D01*
X883492Y2047508D01*
X882984D01*
X883492Y2047000D01*
X882984Y2046492D01*
X883492D01*
X884000Y2045984D01*
X1113968Y2044968D02*
X1114984Y2047000D01*
X1113968Y2049032D01*
X1116000Y2048016D01*
X1118032Y2049032D01*
X1117016Y2047000D01*
X1118032Y2044968D01*
X1116000Y2045984D01*
X1113968Y2044968D01*
X1114984Y2045984D02*
X1115492Y2047000D01*
X1114984Y2048016D01*
X1116000Y2047508D01*
X1117016Y2048016D01*
X1116508Y2047000D01*
X1117016Y2045984D01*
X1116000Y2046492D01*
X1114984Y2045984D01*
X795000Y1445968D02*
X796016Y1446984D01*
X797032D01*
X796016Y1448000D01*
X797032Y1449016D01*
X796016D01*
X795000Y1450032D01*
X793984Y1449016D01*
X792968D01*
X793984Y1448000D01*
X792968Y1446984D01*
X793984D01*
X795000Y1445968D01*
Y1446984D02*
X795508Y1447492D01*
X796016D01*
X795508Y1448000D01*
X796016Y1448508D01*
X795508D01*
X795000Y1449016D01*
X794492Y1448508D01*
X793984D01*
X794492Y1448000D01*
X793984Y1447492D01*
X794492D01*
X795000Y1446984D01*
X804000Y1893968D02*
X805016Y1894984D01*
X806032D01*
X805016Y1896000D01*
X806032Y1897016D01*
X805016D01*
X804000Y1898032D01*
X802984Y1897016D01*
X801968D01*
X802984Y1896000D01*
X801968Y1894984D01*
X802984D01*
X804000Y1893968D01*
Y1894984D02*
X804508Y1895492D01*
X805016D01*
X804508Y1896000D01*
X805016Y1896508D01*
X804508D01*
X804000Y1897016D01*
X803492Y1896508D01*
X802984D01*
X803492Y1896000D01*
X802984Y1895492D01*
X803492D01*
X804000Y1894984D01*
X826000Y1937968D02*
X827016Y1938984D01*
X828032D01*
X827016Y1940000D01*
X828032Y1941016D01*
X827016D01*
X826000Y1942032D01*
X824984Y1941016D01*
X823968D01*
X824984Y1940000D01*
X823968Y1938984D01*
X824984D01*
X826000Y1937968D01*
Y1938984D02*
X826508Y1939492D01*
X827016D01*
X826508Y1940000D01*
X827016Y1940508D01*
X826508D01*
X826000Y1941016D01*
X825492Y1940508D01*
X824984D01*
X825492Y1940000D01*
X824984Y1939492D01*
X825492D01*
X826000Y1938984D01*
X836000Y2044968D02*
X837016Y2045984D01*
X838032D01*
X837016Y2047000D01*
X838032Y2048016D01*
X837016D01*
X836000Y2049032D01*
X834984Y2048016D01*
X833968D01*
X834984Y2047000D01*
X833968Y2045984D01*
X834984D01*
X836000Y2044968D01*
Y2045984D02*
X836508Y2046492D01*
X837016D01*
X836508Y2047000D01*
X837016Y2047508D01*
X836508D01*
X836000Y2048016D01*
X835492Y2047508D01*
X834984D01*
X835492Y2047000D01*
X834984Y2046492D01*
X835492D01*
X836000Y2045984D01*
X896000Y2053968D02*
X897016Y2054984D01*
X898032D01*
X897016Y2056000D01*
X898032Y2057016D01*
X897016D01*
X896000Y2058032D01*
X894984Y2057016D01*
X893968D01*
X894984Y2056000D01*
X893968Y2054984D01*
X894984D01*
X896000Y2053968D01*
Y2054984D02*
X896508Y2055492D01*
X897016D01*
X896508Y2056000D01*
X897016Y2056508D01*
X896508D01*
X896000Y2057016D01*
X895492Y2056508D01*
X894984D01*
X895492Y2056000D01*
X894984Y2055492D01*
X895492D01*
X896000Y2054984D01*
X1127968Y2062968D02*
X1128984Y2065000D01*
X1127968Y2067032D01*
X1130000Y2066016D01*
X1132032Y2067032D01*
X1131016Y2065000D01*
X1132032Y2062968D01*
X1130000Y2063984D01*
X1127968Y2062968D01*
X1128984Y2063984D02*
X1129492Y2065000D01*
X1128984Y2066016D01*
X1130000Y2065508D01*
X1131016Y2066016D01*
X1130508Y2065000D01*
X1131016Y2063984D01*
X1130000Y2064492D01*
X1128984Y2063984D01*
X1538000Y2017968D02*
X1539016Y2018984D01*
X1540032D01*
X1539016Y2020000D01*
X1540032Y2021016D01*
X1539016D01*
X1538000Y2022032D01*
X1536984Y2021016D01*
X1535968D01*
X1536984Y2020000D01*
X1535968Y2018984D01*
X1536984D01*
X1538000Y2017968D01*
Y2018984D02*
X1538508Y2019492D01*
X1539016D01*
X1538508Y2020000D01*
X1539016Y2020508D01*
X1538508D01*
X1538000Y2021016D01*
X1537492Y2020508D01*
X1536984D01*
X1537492Y2020000D01*
X1536984Y2019492D01*
X1537492D01*
X1538000Y2018984D01*
X1412250Y1465218D02*
X1413266Y1466234D01*
X1414282D01*
X1413266Y1467250D01*
X1414282Y1468266D01*
X1413266D01*
X1412250Y1469282D01*
X1411234Y1468266D01*
X1410218D01*
X1411234Y1467250D01*
X1410218Y1466234D01*
X1411234D01*
X1412250Y1465218D01*
Y1466234D02*
X1412758Y1466742D01*
X1413266D01*
X1412758Y1467250D01*
X1413266Y1467758D01*
X1412758D01*
X1412250Y1468266D01*
X1411742Y1467758D01*
X1411234D01*
X1411742Y1467250D01*
X1411234Y1466742D01*
X1411742D01*
X1412250Y1466234D01*
X661000Y1364968D02*
X662016Y1365984D01*
X663032D01*
X662016Y1367000D01*
X663032Y1368016D01*
X662016D01*
X661000Y1369032D01*
X659984Y1368016D01*
X658968D01*
X659984Y1367000D01*
X658968Y1365984D01*
X659984D01*
X661000Y1364968D01*
Y1365984D02*
X661508Y1366492D01*
X662016D01*
X661508Y1367000D01*
X662016Y1367508D01*
X661508D01*
X661000Y1368016D01*
X660492Y1367508D01*
X659984D01*
X660492Y1367000D01*
X659984Y1366492D01*
X660492D01*
X661000Y1365984D01*
Y1352968D02*
X662016Y1353984D01*
X663032D01*
X662016Y1355000D01*
X663032Y1356016D01*
X662016D01*
X661000Y1357032D01*
X659984Y1356016D01*
X658968D01*
X659984Y1355000D01*
X658968Y1353984D01*
X659984D01*
X661000Y1352968D01*
Y1353984D02*
X661508Y1354492D01*
X662016D01*
X661508Y1355000D01*
X662016Y1355508D01*
X661508D01*
X661000Y1356016D01*
X660492Y1355508D01*
X659984D01*
X660492Y1355000D01*
X659984Y1354492D01*
X660492D01*
X661000Y1353984D01*
X633250Y1355718D02*
X634266Y1356734D01*
X635282D01*
X634266Y1357750D01*
X635282Y1358766D01*
X634266D01*
X633250Y1359782D01*
X632234Y1358766D01*
X631218D01*
X632234Y1357750D01*
X631218Y1356734D01*
X632234D01*
X633250Y1355718D01*
Y1356734D02*
X633758Y1357242D01*
X634266D01*
X633758Y1357750D01*
X634266Y1358258D01*
X633758D01*
X633250Y1358766D01*
X632742Y1358258D01*
X632234D01*
X632742Y1357750D01*
X632234Y1357242D01*
X632742D01*
X633250Y1356734D01*
X675000Y1342968D02*
X676016Y1343984D01*
X677032D01*
X676016Y1345000D01*
X677032Y1346016D01*
X676016D01*
X675000Y1347032D01*
X673984Y1346016D01*
X672968D01*
X673984Y1345000D01*
X672968Y1343984D01*
X673984D01*
X675000Y1342968D01*
Y1343984D02*
X675508Y1344492D01*
X676016D01*
X675508Y1345000D01*
X676016Y1345508D01*
X675508D01*
X675000Y1346016D01*
X674492Y1345508D01*
X673984D01*
X674492Y1345000D01*
X673984Y1344492D01*
X674492D01*
X675000Y1343984D01*
X496650Y1393318D02*
X497666Y1394334D01*
X498682D01*
X497666Y1395350D01*
X498682Y1396366D01*
X497666D01*
X496650Y1397382D01*
X495634Y1396366D01*
X494618D01*
X495634Y1395350D01*
X494618Y1394334D01*
X495634D01*
X496650Y1393318D01*
Y1394334D02*
X497158Y1394842D01*
X497666D01*
X497158Y1395350D01*
X497666Y1395858D01*
X497158D01*
X496650Y1396366D01*
X496142Y1395858D01*
X495634D01*
X496142Y1395350D01*
X495634Y1394842D01*
X496142D01*
X496650Y1394334D01*
X418600Y1355368D02*
X419616Y1356384D01*
X420632D01*
X419616Y1357400D01*
X420632Y1358416D01*
X419616D01*
X418600Y1359432D01*
X417584Y1358416D01*
X416568D01*
X417584Y1357400D01*
X416568Y1356384D01*
X417584D01*
X418600Y1355368D01*
Y1356384D02*
X419108Y1356892D01*
X419616D01*
X419108Y1357400D01*
X419616Y1357908D01*
X419108D01*
X418600Y1358416D01*
X418092Y1357908D01*
X417584D01*
X418092Y1357400D01*
X417584Y1356892D01*
X418092D01*
X418600Y1356384D01*
X455600Y1356368D02*
X456616Y1357384D01*
X457632D01*
X456616Y1358400D01*
X457632Y1359416D01*
X456616D01*
X455600Y1360432D01*
X454584Y1359416D01*
X453568D01*
X454584Y1358400D01*
X453568Y1357384D01*
X454584D01*
X455600Y1356368D01*
Y1357384D02*
X456108Y1357892D01*
X456616D01*
X456108Y1358400D01*
X456616Y1358908D01*
X456108D01*
X455600Y1359416D01*
X455092Y1358908D01*
X454584D01*
X455092Y1358400D01*
X454584Y1357892D01*
X455092D01*
X455600Y1357384D01*
X592000Y1342968D02*
X593016Y1343984D01*
X594032D01*
X593016Y1345000D01*
X594032Y1346016D01*
X593016D01*
X592000Y1347032D01*
X590984Y1346016D01*
X589968D01*
X590984Y1345000D01*
X589968Y1343984D01*
X590984D01*
X592000Y1342968D01*
Y1343984D02*
X592508Y1344492D01*
X593016D01*
X592508Y1345000D01*
X593016Y1345508D01*
X592508D01*
X592000Y1346016D01*
X591492Y1345508D01*
X590984D01*
X591492Y1345000D01*
X590984Y1344492D01*
X591492D01*
X592000Y1343984D01*
X570000Y1353968D02*
X571016Y1354984D01*
X572032D01*
X571016Y1356000D01*
X572032Y1357016D01*
X571016D01*
X570000Y1358032D01*
X568984Y1357016D01*
X567968D01*
X568984Y1356000D01*
X567968Y1354984D01*
X568984D01*
X570000Y1353968D01*
Y1354984D02*
X570508Y1355492D01*
X571016D01*
X570508Y1356000D01*
X571016Y1356508D01*
X570508D01*
X570000Y1357016D01*
X569492Y1356508D01*
X568984D01*
X569492Y1356000D01*
X568984Y1355492D01*
X569492D01*
X570000Y1354984D01*
X713500Y1321468D02*
X714516Y1322484D01*
X715532D01*
X714516Y1323500D01*
X715532Y1324516D01*
X714516D01*
X713500Y1325532D01*
X712484Y1324516D01*
X711468D01*
X712484Y1323500D01*
X711468Y1322484D01*
X712484D01*
X713500Y1321468D01*
Y1322484D02*
X714008Y1322992D01*
X714516D01*
X714008Y1323500D01*
X714516Y1324008D01*
X714008D01*
X713500Y1324516D01*
X712992Y1324008D01*
X712484D01*
X712992Y1323500D01*
X712484Y1322992D01*
X712992D01*
X713500Y1322484D01*
Y1379468D02*
X714516Y1380484D01*
X715532D01*
X714516Y1381500D01*
X715532Y1382516D01*
X714516D01*
X713500Y1383532D01*
X712484Y1382516D01*
X711468D01*
X712484Y1381500D01*
X711468Y1380484D01*
X712484D01*
X713500Y1379468D01*
Y1380484D02*
X714008Y1380992D01*
X714516D01*
X714008Y1381500D01*
X714516Y1382008D01*
X714008D01*
X713500Y1382516D01*
X712992Y1382008D01*
X712484D01*
X712992Y1381500D01*
X712484Y1380992D01*
X712992D01*
X713500Y1380484D01*
X606000Y1298968D02*
X607016Y1299984D01*
X608032D01*
X607016Y1301000D01*
X608032Y1302016D01*
X607016D01*
X606000Y1303032D01*
X604984Y1302016D01*
X603968D01*
X604984Y1301000D01*
X603968Y1299984D01*
X604984D01*
X606000Y1298968D01*
Y1299984D02*
X606508Y1300492D01*
X607016D01*
X606508Y1301000D01*
X607016Y1301508D01*
X606508D01*
X606000Y1302016D01*
X605492Y1301508D01*
X604984D01*
X605492Y1301000D01*
X604984Y1300492D01*
X605492D01*
X606000Y1299984D01*
X584950Y1589918D02*
X585966Y1590934D01*
X586982D01*
X585966Y1591950D01*
X586982Y1592966D01*
X585966D01*
X584950Y1593982D01*
X583934Y1592966D01*
X582918D01*
X583934Y1591950D01*
X582918Y1590934D01*
X583934D01*
X584950Y1589918D01*
Y1590934D02*
X585458Y1591442D01*
X585966D01*
X585458Y1591950D01*
X585966Y1592458D01*
X585458D01*
X584950Y1592966D01*
X584442Y1592458D01*
X583934D01*
X584442Y1591950D01*
X583934Y1591442D01*
X584442D01*
X584950Y1590934D01*
X695600Y1726568D02*
X696616Y1727584D01*
X697632D01*
X696616Y1728600D01*
X697632Y1729616D01*
X696616D01*
X695600Y1730632D01*
X694584Y1729616D01*
X693568D01*
X694584Y1728600D01*
X693568Y1727584D01*
X694584D01*
X695600Y1726568D01*
Y1727584D02*
X696108Y1728092D01*
X696616D01*
X696108Y1728600D01*
X696616Y1729108D01*
X696108D01*
X695600Y1729616D01*
X695092Y1729108D01*
X694584D01*
X695092Y1728600D01*
X694584Y1728092D01*
X695092D01*
X695600Y1727584D01*
X695000Y1824968D02*
X696016Y1825984D01*
X697032D01*
X696016Y1827000D01*
X697032Y1828016D01*
X696016D01*
X695000Y1829032D01*
X693984Y1828016D01*
X692968D01*
X693984Y1827000D01*
X692968Y1825984D01*
X693984D01*
X695000Y1824968D01*
Y1825984D02*
X695508Y1826492D01*
X696016D01*
X695508Y1827000D01*
X696016Y1827508D01*
X695508D01*
X695000Y1828016D01*
X694492Y1827508D01*
X693984D01*
X694492Y1827000D01*
X693984Y1826492D01*
X694492D01*
X695000Y1825984D01*
X647000Y1791968D02*
X648016Y1792984D01*
X649032D01*
X648016Y1794000D01*
X649032Y1795016D01*
X648016D01*
X647000Y1796032D01*
X645984Y1795016D01*
X644968D01*
X645984Y1794000D01*
X644968Y1792984D01*
X645984D01*
X647000Y1791968D01*
Y1792984D02*
X647508Y1793492D01*
X648016D01*
X647508Y1794000D01*
X648016Y1794508D01*
X647508D01*
X647000Y1795016D01*
X646492Y1794508D01*
X645984D01*
X646492Y1794000D01*
X645984Y1793492D01*
X646492D01*
X647000Y1792984D01*
X647600Y1959568D02*
X648616Y1960584D01*
X649632D01*
X648616Y1961600D01*
X649632Y1962616D01*
X648616D01*
X647600Y1963632D01*
X646584Y1962616D01*
X645568D01*
X646584Y1961600D01*
X645568Y1960584D01*
X646584D01*
X647600Y1959568D01*
Y1960584D02*
X648108Y1961092D01*
X648616D01*
X648108Y1961600D01*
X648616Y1962108D01*
X648108D01*
X647600Y1962616D01*
X647092Y1962108D01*
X646584D01*
X647092Y1961600D01*
X646584Y1961092D01*
X647092D01*
X647600Y1960584D01*
X646400Y2072568D02*
X647416Y2073584D01*
X648432D01*
X647416Y2074600D01*
X648432Y2075616D01*
X647416D01*
X646400Y2076632D01*
X645384Y2075616D01*
X644368D01*
X645384Y2074600D01*
X644368Y2073584D01*
X645384D01*
X646400Y2072568D01*
Y2073584D02*
X646908Y2074092D01*
X647416D01*
X646908Y2074600D01*
X647416Y2075108D01*
X646908D01*
X646400Y2075616D01*
X645892Y2075108D01*
X645384D01*
X645892Y2074600D01*
X645384Y2074092D01*
X645892D01*
X646400Y2073584D01*
X709600Y2199568D02*
X710616Y2200584D01*
X711632D01*
X710616Y2201600D01*
X711632Y2202616D01*
X710616D01*
X709600Y2203632D01*
X708584Y2202616D01*
X707568D01*
X708584Y2201600D01*
X707568Y2200584D01*
X708584D01*
X709600Y2199568D01*
Y2200584D02*
X710108Y2201092D01*
X710616D01*
X710108Y2201600D01*
X710616Y2202108D01*
X710108D01*
X709600Y2202616D01*
X709092Y2202108D01*
X708584D01*
X709092Y2201600D01*
X708584Y2201092D01*
X709092D01*
X709600Y2200584D01*
X799000Y2136968D02*
X800016Y2137984D01*
X801032D01*
X800016Y2139000D01*
X801032Y2140016D01*
X800016D01*
X799000Y2141032D01*
X797984Y2140016D01*
X796968D01*
X797984Y2139000D01*
X796968Y2137984D01*
X797984D01*
X799000Y2136968D01*
Y2137984D02*
X799508Y2138492D01*
X800016D01*
X799508Y2139000D01*
X800016Y2139508D01*
X799508D01*
X799000Y2140016D01*
X798492Y2139508D01*
X797984D01*
X798492Y2139000D01*
X797984Y2138492D01*
X798492D01*
X799000Y2137984D01*
X830000Y2145968D02*
X831016Y2146984D01*
X832032D01*
X831016Y2148000D01*
X832032Y2149016D01*
X831016D01*
X830000Y2150032D01*
X828984Y2149016D01*
X827968D01*
X828984Y2148000D01*
X827968Y2146984D01*
X828984D01*
X830000Y2145968D01*
Y2146984D02*
X830508Y2147492D01*
X831016D01*
X830508Y2148000D01*
X831016Y2148508D01*
X830508D01*
X830000Y2149016D01*
X829492Y2148508D01*
X828984D01*
X829492Y2148000D01*
X828984Y2147492D01*
X829492D01*
X830000Y2146984D01*
X841000Y1793968D02*
X842016Y1794984D01*
X843032D01*
X842016Y1796000D01*
X843032Y1797016D01*
X842016D01*
X841000Y1798032D01*
X839984Y1797016D01*
X838968D01*
X839984Y1796000D01*
X838968Y1794984D01*
X839984D01*
X841000Y1793968D01*
Y1794984D02*
X841508Y1795492D01*
X842016D01*
X841508Y1796000D01*
X842016Y1796508D01*
X841508D01*
X841000Y1797016D01*
X840492Y1796508D01*
X839984D01*
X840492Y1796000D01*
X839984Y1795492D01*
X840492D01*
X841000Y1794984D01*
X885500Y1778468D02*
X886516Y1779484D01*
X887532D01*
X886516Y1780500D01*
X887532Y1781516D01*
X886516D01*
X885500Y1782532D01*
X884484Y1781516D01*
X883468D01*
X884484Y1780500D01*
X883468Y1779484D01*
X884484D01*
X885500Y1778468D01*
Y1779484D02*
X886008Y1779992D01*
X886516D01*
X886008Y1780500D01*
X886516Y1781008D01*
X886008D01*
X885500Y1781516D01*
X884992Y1781008D01*
X884484D01*
X884992Y1780500D01*
X884484Y1779992D01*
X884992D01*
X885500Y1779484D01*
X924000Y1820968D02*
X925016Y1821984D01*
X926032D01*
X925016Y1823000D01*
X926032Y1824016D01*
X925016D01*
X924000Y1825032D01*
X922984Y1824016D01*
X921968D01*
X922984Y1823000D01*
X921968Y1821984D01*
X922984D01*
X924000Y1820968D01*
Y1821984D02*
X924508Y1822492D01*
X925016D01*
X924508Y1823000D01*
X925016Y1823508D01*
X924508D01*
X924000Y1824016D01*
X923492Y1823508D01*
X922984D01*
X923492Y1823000D01*
X922984Y1822492D01*
X923492D01*
X924000Y1821984D01*
Y1833968D02*
X925016Y1834984D01*
X926032D01*
X925016Y1836000D01*
X926032Y1837016D01*
X925016D01*
X924000Y1838032D01*
X922984Y1837016D01*
X921968D01*
X922984Y1836000D01*
X921968Y1834984D01*
X922984D01*
X924000Y1833968D01*
Y1834984D02*
X924508Y1835492D01*
X925016D01*
X924508Y1836000D01*
X925016Y1836508D01*
X924508D01*
X924000Y1837016D01*
X923492Y1836508D01*
X922984D01*
X923492Y1836000D01*
X922984Y1835492D01*
X923492D01*
X924000Y1834984D01*
X938500Y1642468D02*
X939516Y1643484D01*
X940532D01*
X939516Y1644500D01*
X940532Y1645516D01*
X939516D01*
X938500Y1646532D01*
X937484Y1645516D01*
X936468D01*
X937484Y1644500D01*
X936468Y1643484D01*
X937484D01*
X938500Y1642468D01*
Y1643484D02*
X939008Y1643992D01*
X939516D01*
X939008Y1644500D01*
X939516Y1645008D01*
X939008D01*
X938500Y1645516D01*
X937992Y1645008D01*
X937484D01*
X937992Y1644500D01*
X937484Y1643992D01*
X937992D01*
X938500Y1643484D01*
X947000Y1604968D02*
X948016Y1605984D01*
X949032D01*
X948016Y1607000D01*
X949032Y1608016D01*
X948016D01*
X947000Y1609032D01*
X945984Y1608016D01*
X944968D01*
X945984Y1607000D01*
X944968Y1605984D01*
X945984D01*
X947000Y1604968D01*
Y1605984D02*
X947508Y1606492D01*
X948016D01*
X947508Y1607000D01*
X948016Y1607508D01*
X947508D01*
X947000Y1608016D01*
X946492Y1607508D01*
X945984D01*
X946492Y1607000D01*
X945984Y1606492D01*
X946492D01*
X947000Y1605984D01*
X934000Y1566968D02*
X935016Y1567984D01*
X936032D01*
X935016Y1569000D01*
X936032Y1570016D01*
X935016D01*
X934000Y1571032D01*
X932984Y1570016D01*
X931968D01*
X932984Y1569000D01*
X931968Y1567984D01*
X932984D01*
X934000Y1566968D01*
Y1567984D02*
X934508Y1568492D01*
X935016D01*
X934508Y1569000D01*
X935016Y1569508D01*
X934508D01*
X934000Y1570016D01*
X933492Y1569508D01*
X932984D01*
X933492Y1569000D01*
X932984Y1568492D01*
X933492D01*
X934000Y1567984D01*
X938500Y1516968D02*
X939516Y1517984D01*
X940532D01*
X939516Y1519000D01*
X940532Y1520016D01*
X939516D01*
X938500Y1521032D01*
X937484Y1520016D01*
X936468D01*
X937484Y1519000D01*
X936468Y1517984D01*
X937484D01*
X938500Y1516968D01*
Y1517984D02*
X939008Y1518492D01*
X939516D01*
X939008Y1519000D01*
X939516Y1519508D01*
X939008D01*
X938500Y1520016D01*
X937992Y1519508D01*
X937484D01*
X937992Y1519000D01*
X937484Y1518492D01*
X937992D01*
X938500Y1517984D01*
Y1490968D02*
X939516Y1491984D01*
X940532D01*
X939516Y1493000D01*
X940532Y1494016D01*
X939516D01*
X938500Y1495032D01*
X937484Y1494016D01*
X936468D01*
X937484Y1493000D01*
X936468Y1491984D01*
X937484D01*
X938500Y1490968D01*
Y1491984D02*
X939008Y1492492D01*
X939516D01*
X939008Y1493000D01*
X939516Y1493508D01*
X939008D01*
X938500Y1494016D01*
X937992Y1493508D01*
X937484D01*
X937992Y1493000D01*
X937484Y1492492D01*
X937992D01*
X938500Y1491984D01*
X986500Y1394468D02*
X987516Y1395484D01*
X988532D01*
X987516Y1396500D01*
X988532Y1397516D01*
X987516D01*
X986500Y1398532D01*
X985484Y1397516D01*
X984468D01*
X985484Y1396500D01*
X984468Y1395484D01*
X985484D01*
X986500Y1394468D01*
Y1395484D02*
X987008Y1395992D01*
X987516D01*
X987008Y1396500D01*
X987516Y1397008D01*
X987008D01*
X986500Y1397516D01*
X985992Y1397008D01*
X985484D01*
X985992Y1396500D01*
X985484Y1395992D01*
X985992D01*
X986500Y1395484D01*
X1169000Y1394968D02*
X1170016Y1395984D01*
X1171032D01*
X1170016Y1397000D01*
X1171032Y1398016D01*
X1170016D01*
X1169000Y1399032D01*
X1167984Y1398016D01*
X1166968D01*
X1167984Y1397000D01*
X1166968Y1395984D01*
X1167984D01*
X1169000Y1394968D01*
Y1395984D02*
X1169508Y1396492D01*
X1170016D01*
X1169508Y1397000D01*
X1170016Y1397508D01*
X1169508D01*
X1169000Y1398016D01*
X1168492Y1397508D01*
X1167984D01*
X1168492Y1397000D01*
X1167984Y1396492D01*
X1168492D01*
X1169000Y1395984D01*
X1238000Y1411968D02*
X1239016Y1412984D01*
X1240032D01*
X1239016Y1414000D01*
X1240032Y1415016D01*
X1239016D01*
X1238000Y1416032D01*
X1236984Y1415016D01*
X1235968D01*
X1236984Y1414000D01*
X1235968Y1412984D01*
X1236984D01*
X1238000Y1411968D01*
Y1412984D02*
X1238508Y1413492D01*
X1239016D01*
X1238508Y1414000D01*
X1239016Y1414508D01*
X1238508D01*
X1238000Y1415016D01*
X1237492Y1414508D01*
X1236984D01*
X1237492Y1414000D01*
X1236984Y1413492D01*
X1237492D01*
X1238000Y1412984D01*
X1230000Y1399968D02*
X1231016Y1400984D01*
X1232032D01*
X1231016Y1402000D01*
X1232032Y1403016D01*
X1231016D01*
X1230000Y1404032D01*
X1228984Y1403016D01*
X1227968D01*
X1228984Y1402000D01*
X1227968Y1400984D01*
X1228984D01*
X1230000Y1399968D01*
Y1400984D02*
X1230508Y1401492D01*
X1231016D01*
X1230508Y1402000D01*
X1231016Y1402508D01*
X1230508D01*
X1230000Y1403016D01*
X1229492Y1402508D01*
X1228984D01*
X1229492Y1402000D01*
X1228984Y1401492D01*
X1229492D01*
X1230000Y1400984D01*
X1274000Y1589968D02*
X1275016Y1590984D01*
X1276032D01*
X1275016Y1592000D01*
X1276032Y1593016D01*
X1275016D01*
X1274000Y1594032D01*
X1272984Y1593016D01*
X1271968D01*
X1272984Y1592000D01*
X1271968Y1590984D01*
X1272984D01*
X1274000Y1589968D01*
Y1590984D02*
X1274508Y1591492D01*
X1275016D01*
X1274508Y1592000D01*
X1275016Y1592508D01*
X1274508D01*
X1274000Y1593016D01*
X1273492Y1592508D01*
X1272984D01*
X1273492Y1592000D01*
X1272984Y1591492D01*
X1273492D01*
X1274000Y1590984D01*
X1311500Y1598468D02*
X1312516Y1599484D01*
X1313532D01*
X1312516Y1600500D01*
X1313532Y1601516D01*
X1312516D01*
X1311500Y1602532D01*
X1310484Y1601516D01*
X1309468D01*
X1310484Y1600500D01*
X1309468Y1599484D01*
X1310484D01*
X1311500Y1598468D01*
Y1599484D02*
X1312008Y1599992D01*
X1312516D01*
X1312008Y1600500D01*
X1312516Y1601008D01*
X1312008D01*
X1311500Y1601516D01*
X1310992Y1601008D01*
X1310484D01*
X1310992Y1600500D01*
X1310484Y1599992D01*
X1310992D01*
X1311500Y1599484D01*
X1315000Y1553968D02*
X1316016Y1554984D01*
X1317032D01*
X1316016Y1556000D01*
X1317032Y1557016D01*
X1316016D01*
X1315000Y1558032D01*
X1313984Y1557016D01*
X1312968D01*
X1313984Y1556000D01*
X1312968Y1554984D01*
X1313984D01*
X1315000Y1553968D01*
Y1554984D02*
X1315508Y1555492D01*
X1316016D01*
X1315508Y1556000D01*
X1316016Y1556508D01*
X1315508D01*
X1315000Y1557016D01*
X1314492Y1556508D01*
X1313984D01*
X1314492Y1556000D01*
X1313984Y1555492D01*
X1314492D01*
X1315000Y1554984D01*
X1313000Y1528968D02*
X1314016Y1529984D01*
X1315032D01*
X1314016Y1531000D01*
X1315032Y1532016D01*
X1314016D01*
X1313000Y1533032D01*
X1311984Y1532016D01*
X1310968D01*
X1311984Y1531000D01*
X1310968Y1529984D01*
X1311984D01*
X1313000Y1528968D01*
Y1529984D02*
X1313508Y1530492D01*
X1314016D01*
X1313508Y1531000D01*
X1314016Y1531508D01*
X1313508D01*
X1313000Y1532016D01*
X1312492Y1531508D01*
X1311984D01*
X1312492Y1531000D01*
X1311984Y1530492D01*
X1312492D01*
X1313000Y1529984D01*
X1313000Y1486968D02*
X1314016Y1487984D01*
X1315032D01*
X1314016Y1489000D01*
X1315032Y1490016D01*
X1314016D01*
X1313000Y1491032D01*
X1311984Y1490016D01*
X1310968D01*
X1311984Y1489000D01*
X1310968Y1487984D01*
X1311984D01*
X1313000Y1486968D01*
Y1487984D02*
X1313508Y1488492D01*
X1314016D01*
X1313508Y1489000D01*
X1314016Y1489508D01*
X1313508D01*
X1313000Y1490016D01*
X1312492Y1489508D01*
X1311984D01*
X1312492Y1489000D01*
X1311984Y1488492D01*
X1312492D01*
X1313000Y1487984D01*
Y1503968D02*
X1314016Y1504984D01*
X1315032D01*
X1314016Y1506000D01*
X1315032Y1507016D01*
X1314016D01*
X1313000Y1508032D01*
X1311984Y1507016D01*
X1310968D01*
X1311984Y1506000D01*
X1310968Y1504984D01*
X1311984D01*
X1313000Y1503968D01*
Y1504984D02*
X1313508Y1505492D01*
X1314016D01*
X1313508Y1506000D01*
X1314016Y1506508D01*
X1313508D01*
X1313000Y1507016D01*
X1312492Y1506508D01*
X1311984D01*
X1312492Y1506000D01*
X1311984Y1505492D01*
X1312492D01*
X1313000Y1504984D01*
X1334000Y1577968D02*
X1335016Y1578984D01*
X1336032D01*
X1335016Y1580000D01*
X1336032Y1581016D01*
X1335016D01*
X1334000Y1582032D01*
X1332984Y1581016D01*
X1331968D01*
X1332984Y1580000D01*
X1331968Y1578984D01*
X1332984D01*
X1334000Y1577968D01*
Y1578984D02*
X1334508Y1579492D01*
X1335016D01*
X1334508Y1580000D01*
X1335016Y1580508D01*
X1334508D01*
X1334000Y1581016D01*
X1333492Y1580508D01*
X1332984D01*
X1333492Y1580000D01*
X1332984Y1579492D01*
X1333492D01*
X1334000Y1578984D01*
Y1664968D02*
X1335016Y1665984D01*
X1336032D01*
X1335016Y1667000D01*
X1336032Y1668016D01*
X1335016D01*
X1334000Y1669032D01*
X1332984Y1668016D01*
X1331968D01*
X1332984Y1667000D01*
X1331968Y1665984D01*
X1332984D01*
X1334000Y1664968D01*
Y1665984D02*
X1334508Y1666492D01*
X1335016D01*
X1334508Y1667000D01*
X1335016Y1667508D01*
X1334508D01*
X1334000Y1668016D01*
X1333492Y1667508D01*
X1332984D01*
X1333492Y1667000D01*
X1332984Y1666492D01*
X1333492D01*
X1334000Y1665984D01*
X1277000Y1659968D02*
X1278016Y1660984D01*
X1279032D01*
X1278016Y1662000D01*
X1279032Y1663016D01*
X1278016D01*
X1277000Y1664032D01*
X1275984Y1663016D01*
X1274968D01*
X1275984Y1662000D01*
X1274968Y1660984D01*
X1275984D01*
X1277000Y1659968D01*
Y1660984D02*
X1277508Y1661492D01*
X1278016D01*
X1277508Y1662000D01*
X1278016Y1662508D01*
X1277508D01*
X1277000Y1663016D01*
X1276492Y1662508D01*
X1275984D01*
X1276492Y1662000D01*
X1275984Y1661492D01*
X1276492D01*
X1277000Y1660984D01*
X1403000Y1509968D02*
X1404016Y1510984D01*
X1405032D01*
X1404016Y1512000D01*
X1405032Y1513016D01*
X1404016D01*
X1403000Y1514032D01*
X1401984Y1513016D01*
X1400968D01*
X1401984Y1512000D01*
X1400968Y1510984D01*
X1401984D01*
X1403000Y1509968D01*
Y1510984D02*
X1403508Y1511492D01*
X1404016D01*
X1403508Y1512000D01*
X1404016Y1512508D01*
X1403508D01*
X1403000Y1513016D01*
X1402492Y1512508D01*
X1401984D01*
X1402492Y1512000D01*
X1401984Y1511492D01*
X1402492D01*
X1403000Y1510984D01*
X668000Y1390968D02*
X669016Y1391984D01*
X670032D01*
X669016Y1393000D01*
X670032Y1394016D01*
X669016D01*
X668000Y1395032D01*
X666984Y1394016D01*
X665968D01*
X666984Y1393000D01*
X665968Y1391984D01*
X666984D01*
X668000Y1390968D01*
Y1391984D02*
X668508Y1392492D01*
X669016D01*
X668508Y1393000D01*
X669016Y1393508D01*
X668508D01*
X668000Y1394016D01*
X667492Y1393508D01*
X666984D01*
X667492Y1393000D01*
X666984Y1392492D01*
X667492D01*
X668000Y1391984D01*
X590000Y1291968D02*
X591016Y1292984D01*
X592032D01*
X591016Y1294000D01*
X592032Y1295016D01*
X591016D01*
X590000Y1296032D01*
X588984Y1295016D01*
X587968D01*
X588984Y1294000D01*
X587968Y1292984D01*
X588984D01*
X590000Y1291968D01*
Y1292984D02*
X590508Y1293492D01*
X591016D01*
X590508Y1294000D01*
X591016Y1294508D01*
X590508D01*
X590000Y1295016D01*
X589492Y1294508D01*
X588984D01*
X589492Y1294000D01*
X588984Y1293492D01*
X589492D01*
X590000Y1292984D01*
X664000Y1277968D02*
X665016Y1278984D01*
X666032D01*
X665016Y1280000D01*
X666032Y1281016D01*
X665016D01*
X664000Y1282032D01*
X662984Y1281016D01*
X661968D01*
X662984Y1280000D01*
X661968Y1278984D01*
X662984D01*
X664000Y1277968D01*
Y1278984D02*
X664508Y1279492D01*
X665016D01*
X664508Y1280000D01*
X665016Y1280508D01*
X664508D01*
X664000Y1281016D01*
X663492Y1280508D01*
X662984D01*
X663492Y1280000D01*
X662984Y1279492D01*
X663492D01*
X664000Y1278984D01*
X526500Y1224468D02*
X527516Y1225484D01*
X528532D01*
X527516Y1226500D01*
X528532Y1227516D01*
X527516D01*
X526500Y1228532D01*
X525484Y1227516D01*
X524468D01*
X525484Y1226500D01*
X524468Y1225484D01*
X525484D01*
X526500Y1224468D01*
Y1225484D02*
X527008Y1225992D01*
X527516D01*
X527008Y1226500D01*
X527516Y1227008D01*
X527008D01*
X526500Y1227516D01*
X525992Y1227008D01*
X525484D01*
X525992Y1226500D01*
X525484Y1225992D01*
X525992D01*
X526500Y1225484D01*
X630000Y1275968D02*
X631016Y1276984D01*
X632032D01*
X631016Y1278000D01*
X632032Y1279016D01*
X631016D01*
X630000Y1280032D01*
X628984Y1279016D01*
X627968D01*
X628984Y1278000D01*
X627968Y1276984D01*
X628984D01*
X630000Y1275968D01*
Y1276984D02*
X630508Y1277492D01*
X631016D01*
X630508Y1278000D01*
X631016Y1278508D01*
X630508D01*
X630000Y1279016D01*
X629492Y1278508D01*
X628984D01*
X629492Y1278000D01*
X628984Y1277492D01*
X629492D01*
X630000Y1276984D01*
Y1253968D02*
X631016Y1254984D01*
X632032D01*
X631016Y1256000D01*
X632032Y1257016D01*
X631016D01*
X630000Y1258032D01*
X628984Y1257016D01*
X627968D01*
X628984Y1256000D01*
X627968Y1254984D01*
X628984D01*
X630000Y1253968D01*
Y1254984D02*
X630508Y1255492D01*
X631016D01*
X630508Y1256000D01*
X631016Y1256508D01*
X630508D01*
X630000Y1257016D01*
X629492Y1256508D01*
X628984D01*
X629492Y1256000D01*
X628984Y1255492D01*
X629492D01*
X630000Y1254984D01*
X631500Y1299468D02*
X632516Y1300484D01*
X633532D01*
X632516Y1301500D01*
X633532Y1302516D01*
X632516D01*
X631500Y1303532D01*
X630484Y1302516D01*
X629468D01*
X630484Y1301500D01*
X629468Y1300484D01*
X630484D01*
X631500Y1299468D01*
Y1300484D02*
X632008Y1300992D01*
X632516D01*
X632008Y1301500D01*
X632516Y1302008D01*
X632008D01*
X631500Y1302516D01*
X630992Y1302008D01*
X630484D01*
X630992Y1301500D01*
X630484Y1300992D01*
X630992D01*
X631500Y1300484D01*
X1217000Y1809968D02*
X1218016Y1810984D01*
X1219032D01*
X1218016Y1812000D01*
X1219032Y1813016D01*
X1218016D01*
X1217000Y1814032D01*
X1215984Y1813016D01*
X1214968D01*
X1215984Y1812000D01*
X1214968Y1810984D01*
X1215984D01*
X1217000Y1809968D01*
Y1810984D02*
X1217508Y1811492D01*
X1218016D01*
X1217508Y1812000D01*
X1218016Y1812508D01*
X1217508D01*
X1217000Y1813016D01*
X1216492Y1812508D01*
X1215984D01*
X1216492Y1812000D01*
X1215984Y1811492D01*
X1216492D01*
X1217000Y1810984D01*
Y1785968D02*
X1218016Y1786984D01*
X1219032D01*
X1218016Y1788000D01*
X1219032Y1789016D01*
X1218016D01*
X1217000Y1790032D01*
X1215984Y1789016D01*
X1214968D01*
X1215984Y1788000D01*
X1214968Y1786984D01*
X1215984D01*
X1217000Y1785968D01*
Y1786984D02*
X1217508Y1787492D01*
X1218016D01*
X1217508Y1788000D01*
X1218016Y1788508D01*
X1217508D01*
X1217000Y1789016D01*
X1216492Y1788508D01*
X1215984D01*
X1216492Y1788000D01*
X1215984Y1787492D01*
X1216492D01*
X1217000Y1786984D01*
X1189000Y1775968D02*
X1190016Y1776984D01*
X1191032D01*
X1190016Y1778000D01*
X1191032Y1779016D01*
X1190016D01*
X1189000Y1780032D01*
X1187984Y1779016D01*
X1186968D01*
X1187984Y1778000D01*
X1186968Y1776984D01*
X1187984D01*
X1189000Y1775968D01*
Y1776984D02*
X1189508Y1777492D01*
X1190016D01*
X1189508Y1778000D01*
X1190016Y1778508D01*
X1189508D01*
X1189000Y1779016D01*
X1188492Y1778508D01*
X1187984D01*
X1188492Y1778000D01*
X1187984Y1777492D01*
X1188492D01*
X1189000Y1776984D01*
X1099500Y1738468D02*
X1100516Y1739484D01*
X1101532D01*
X1100516Y1740500D01*
X1101532Y1741516D01*
X1100516D01*
X1099500Y1742532D01*
X1098484Y1741516D01*
X1097468D01*
X1098484Y1740500D01*
X1097468Y1739484D01*
X1098484D01*
X1099500Y1738468D01*
Y1739484D02*
X1100008Y1739992D01*
X1100516D01*
X1100008Y1740500D01*
X1100516Y1741008D01*
X1100008D01*
X1099500Y1741516D01*
X1098992Y1741008D01*
X1098484D01*
X1098992Y1740500D01*
X1098484Y1739992D01*
X1098992D01*
X1099500Y1739484D01*
X983500Y1720968D02*
X984516Y1721984D01*
X985532D01*
X984516Y1723000D01*
X985532Y1724016D01*
X984516D01*
X983500Y1725032D01*
X982484Y1724016D01*
X981468D01*
X982484Y1723000D01*
X981468Y1721984D01*
X982484D01*
X983500Y1720968D01*
Y1721984D02*
X984008Y1722492D01*
X984516D01*
X984008Y1723000D01*
X984516Y1723508D01*
X984008D01*
X983500Y1724016D01*
X982992Y1723508D01*
X982484D01*
X982992Y1723000D01*
X982484Y1722492D01*
X982992D01*
X983500Y1721984D01*
X994000Y1847968D02*
X995016Y1848984D01*
X996032D01*
X995016Y1850000D01*
X996032Y1851016D01*
X995016D01*
X994000Y1852032D01*
X992984Y1851016D01*
X991968D01*
X992984Y1850000D01*
X991968Y1848984D01*
X992984D01*
X994000Y1847968D01*
Y1848984D02*
X994508Y1849492D01*
X995016D01*
X994508Y1850000D01*
X995016Y1850508D01*
X994508D01*
X994000Y1851016D01*
X993492Y1850508D01*
X992984D01*
X993492Y1850000D01*
X992984Y1849492D01*
X993492D01*
X994000Y1848984D01*
X1023000Y1836968D02*
X1024016Y1837984D01*
X1025032D01*
X1024016Y1839000D01*
X1025032Y1840016D01*
X1024016D01*
X1023000Y1841032D01*
X1021984Y1840016D01*
X1020968D01*
X1021984Y1839000D01*
X1020968Y1837984D01*
X1021984D01*
X1023000Y1836968D01*
Y1837984D02*
X1023508Y1838492D01*
X1024016D01*
X1023508Y1839000D01*
X1024016Y1839508D01*
X1023508D01*
X1023000Y1840016D01*
X1022492Y1839508D01*
X1021984D01*
X1022492Y1839000D01*
X1021984Y1838492D01*
X1022492D01*
X1023000Y1837984D01*
X1326500Y1743468D02*
X1327516Y1744484D01*
X1328532D01*
X1327516Y1745500D01*
X1328532Y1746516D01*
X1327516D01*
X1326500Y1747532D01*
X1325484Y1746516D01*
X1324468D01*
X1325484Y1745500D01*
X1324468Y1744484D01*
X1325484D01*
X1326500Y1743468D01*
Y1744484D02*
X1327008Y1744992D01*
X1327516D01*
X1327008Y1745500D01*
X1327516Y1746008D01*
X1327008D01*
X1326500Y1746516D01*
X1325992Y1746008D01*
X1325484D01*
X1325992Y1745500D01*
X1325484Y1744992D01*
X1325992D01*
X1326500Y1744484D01*
X1350000Y1743468D02*
X1351016Y1744484D01*
X1352032D01*
X1351016Y1745500D01*
X1352032Y1746516D01*
X1351016D01*
X1350000Y1747532D01*
X1348984Y1746516D01*
X1347968D01*
X1348984Y1745500D01*
X1347968Y1744484D01*
X1348984D01*
X1350000Y1743468D01*
Y1744484D02*
X1350508Y1744992D01*
X1351016D01*
X1350508Y1745500D01*
X1351016Y1746008D01*
X1350508D01*
X1350000Y1746516D01*
X1349492Y1746008D01*
X1348984D01*
X1349492Y1745500D01*
X1348984Y1744992D01*
X1349492D01*
X1350000Y1744484D01*
X1353000Y2143968D02*
X1354016Y2144984D01*
X1355032D01*
X1354016Y2146000D01*
X1355032Y2147016D01*
X1354016D01*
X1353000Y2148032D01*
X1351984Y2147016D01*
X1350968D01*
X1351984Y2146000D01*
X1350968Y2144984D01*
X1351984D01*
X1353000Y2143968D01*
Y2144984D02*
X1353508Y2145492D01*
X1354016D01*
X1353508Y2146000D01*
X1354016Y2146508D01*
X1353508D01*
X1353000Y2147016D01*
X1352492Y2146508D01*
X1351984D01*
X1352492Y2146000D01*
X1351984Y2145492D01*
X1352492D01*
X1353000Y2144984D01*
X1284000Y2073968D02*
X1285016Y2074984D01*
X1286032D01*
X1285016Y2076000D01*
X1286032Y2077016D01*
X1285016D01*
X1284000Y2078032D01*
X1282984Y2077016D01*
X1281968D01*
X1282984Y2076000D01*
X1281968Y2074984D01*
X1282984D01*
X1284000Y2073968D01*
Y2074984D02*
X1284508Y2075492D01*
X1285016D01*
X1284508Y2076000D01*
X1285016Y2076508D01*
X1284508D01*
X1284000Y2077016D01*
X1283492Y2076508D01*
X1282984D01*
X1283492Y2076000D01*
X1282984Y2075492D01*
X1283492D01*
X1284000Y2074984D01*
X1289000Y2141968D02*
X1290016Y2142984D01*
X1291032D01*
X1290016Y2144000D01*
X1291032Y2145016D01*
X1290016D01*
X1289000Y2146032D01*
X1287984Y2145016D01*
X1286968D01*
X1287984Y2144000D01*
X1286968Y2142984D01*
X1287984D01*
X1289000Y2141968D01*
Y2142984D02*
X1289508Y2143492D01*
X1290016D01*
X1289508Y2144000D01*
X1290016Y2144508D01*
X1289508D01*
X1289000Y2145016D01*
X1288492Y2144508D01*
X1287984D01*
X1288492Y2144000D01*
X1287984Y2143492D01*
X1288492D01*
X1289000Y2142984D01*
X1342500Y2073468D02*
X1343516Y2074484D01*
X1344532D01*
X1343516Y2075500D01*
X1344532Y2076516D01*
X1343516D01*
X1342500Y2077532D01*
X1341484Y2076516D01*
X1340468D01*
X1341484Y2075500D01*
X1340468Y2074484D01*
X1341484D01*
X1342500Y2073468D01*
Y2074484D02*
X1343008Y2074992D01*
X1343516D01*
X1343008Y2075500D01*
X1343516Y2076008D01*
X1343008D01*
X1342500Y2076516D01*
X1341992Y2076008D01*
X1341484D01*
X1341992Y2075500D01*
X1341484Y2074992D01*
X1341992D01*
X1342500Y2074484D01*
X1203000Y2227968D02*
X1204016Y2228984D01*
X1205032D01*
X1204016Y2230000D01*
X1205032Y2231016D01*
X1204016D01*
X1203000Y2232032D01*
X1201984Y2231016D01*
X1200968D01*
X1201984Y2230000D01*
X1200968Y2228984D01*
X1201984D01*
X1203000Y2227968D01*
Y2228984D02*
X1203508Y2229492D01*
X1204016D01*
X1203508Y2230000D01*
X1204016Y2230508D01*
X1203508D01*
X1203000Y2231016D01*
X1202492Y2230508D01*
X1201984D01*
X1202492Y2230000D01*
X1201984Y2229492D01*
X1202492D01*
X1203000Y2228984D01*
X1214857Y2219968D02*
X1215873Y2220984D01*
X1216889D01*
X1215873Y2222000D01*
X1216889Y2223016D01*
X1215873D01*
X1214857Y2224032D01*
X1213841Y2223016D01*
X1212825D01*
X1213841Y2222000D01*
X1212825Y2220984D01*
X1213841D01*
X1214857Y2219968D01*
Y2220984D02*
X1215365Y2221492D01*
X1215873D01*
X1215365Y2222000D01*
X1215873Y2222508D01*
X1215365D01*
X1214857Y2223016D01*
X1214349Y2222508D01*
X1213841D01*
X1214349Y2222000D01*
X1213841Y2221492D01*
X1214349D01*
X1214857Y2220984D01*
X1340000Y2219968D02*
X1341016Y2220984D01*
X1342032D01*
X1341016Y2222000D01*
X1342032Y2223016D01*
X1341016D01*
X1340000Y2224032D01*
X1338984Y2223016D01*
X1337968D01*
X1338984Y2222000D01*
X1337968Y2220984D01*
X1338984D01*
X1340000Y2219968D01*
Y2220984D02*
X1340508Y2221492D01*
X1341016D01*
X1340508Y2222000D01*
X1341016Y2222508D01*
X1340508D01*
X1340000Y2223016D01*
X1339492Y2222508D01*
X1338984D01*
X1339492Y2222000D01*
X1338984Y2221492D01*
X1339492D01*
X1340000Y2220984D01*
X1235714Y2219968D02*
X1236730Y2220984D01*
X1237746D01*
X1236730Y2222000D01*
X1237746Y2223016D01*
X1236730D01*
X1235714Y2224032D01*
X1234698Y2223016D01*
X1233682D01*
X1234698Y2222000D01*
X1233682Y2220984D01*
X1234698D01*
X1235714Y2219968D01*
Y2220984D02*
X1236222Y2221492D01*
X1236730D01*
X1236222Y2222000D01*
X1236730Y2222508D01*
X1236222D01*
X1235714Y2223016D01*
X1235206Y2222508D01*
X1234698D01*
X1235206Y2222000D01*
X1234698Y2221492D01*
X1235206D01*
X1235714Y2220984D01*
X1256571Y2219968D02*
X1257587Y2220984D01*
X1258603D01*
X1257587Y2222000D01*
X1258603Y2223016D01*
X1257587D01*
X1256571Y2224032D01*
X1255555Y2223016D01*
X1254539D01*
X1255555Y2222000D01*
X1254539Y2220984D01*
X1255555D01*
X1256571Y2219968D01*
Y2220984D02*
X1257079Y2221492D01*
X1257587D01*
X1257079Y2222000D01*
X1257587Y2222508D01*
X1257079D01*
X1256571Y2223016D01*
X1256063Y2222508D01*
X1255555D01*
X1256063Y2222000D01*
X1255555Y2221492D01*
X1256063D01*
X1256571Y2220984D01*
X1277429Y2219968D02*
X1278445Y2220984D01*
X1279461D01*
X1278445Y2222000D01*
X1279461Y2223016D01*
X1278445D01*
X1277429Y2224032D01*
X1276413Y2223016D01*
X1275396D01*
X1276413Y2222000D01*
X1275396Y2220984D01*
X1276413D01*
X1277429Y2219968D01*
Y2220984D02*
X1277936Y2221492D01*
X1278445D01*
X1277936Y2222000D01*
X1278445Y2222508D01*
X1277936D01*
X1277429Y2223016D01*
X1276920Y2222508D01*
X1276413D01*
X1276920Y2222000D01*
X1276413Y2221492D01*
X1276920D01*
X1277429Y2220984D01*
X1298286Y2219968D02*
X1299302Y2220984D01*
X1300318D01*
X1299302Y2222000D01*
X1300318Y2223016D01*
X1299302D01*
X1298286Y2224032D01*
X1297270Y2223016D01*
X1296254D01*
X1297270Y2222000D01*
X1296254Y2220984D01*
X1297270D01*
X1298286Y2219968D01*
Y2220984D02*
X1298794Y2221492D01*
X1299302D01*
X1298794Y2222000D01*
X1299302Y2222508D01*
X1298794D01*
X1298286Y2223016D01*
X1297778Y2222508D01*
X1297270D01*
X1297778Y2222000D01*
X1297270Y2221492D01*
X1297778D01*
X1298286Y2220984D01*
X1309667Y2227968D02*
X1310683Y2228984D01*
X1311699D01*
X1310683Y2230000D01*
X1311699Y2231016D01*
X1310683D01*
X1309667Y2232032D01*
X1308651Y2231016D01*
X1307635D01*
X1308651Y2230000D01*
X1307635Y2228984D01*
X1308651D01*
X1309667Y2227968D01*
Y2228984D02*
X1310175Y2229492D01*
X1310683D01*
X1310175Y2230000D01*
X1310683Y2230508D01*
X1310175D01*
X1309667Y2231016D01*
X1309159Y2230508D01*
X1308651D01*
X1309159Y2230000D01*
X1308651Y2229492D01*
X1309159D01*
X1309667Y2228984D01*
X1319143Y2219968D02*
X1320159Y2220984D01*
X1321175D01*
X1320159Y2222000D01*
X1321175Y2223016D01*
X1320159D01*
X1319143Y2224032D01*
X1318127Y2223016D01*
X1317111D01*
X1318127Y2222000D01*
X1317111Y2220984D01*
X1318127D01*
X1319143Y2219968D01*
Y2220984D02*
X1319651Y2221492D01*
X1320159D01*
X1319651Y2222000D01*
X1320159Y2222508D01*
X1319651D01*
X1319143Y2223016D01*
X1318635Y2222508D01*
X1318127D01*
X1318635Y2222000D01*
X1318127Y2221492D01*
X1318635D01*
X1319143Y2220984D01*
X1267000Y2227968D02*
X1268016Y2228984D01*
X1269032D01*
X1268016Y2230000D01*
X1269032Y2231016D01*
X1268016D01*
X1267000Y2232032D01*
X1265984Y2231016D01*
X1264968D01*
X1265984Y2230000D01*
X1264968Y2228984D01*
X1265984D01*
X1267000Y2227968D01*
Y2228984D02*
X1267508Y2229492D01*
X1268016D01*
X1267508Y2230000D01*
X1268016Y2230508D01*
X1267508D01*
X1267000Y2231016D01*
X1266492Y2230508D01*
X1265984D01*
X1266492Y2230000D01*
X1265984Y2229492D01*
X1266492D01*
X1267000Y2228984D01*
X1245667Y2227968D02*
X1246683Y2228984D01*
X1247699D01*
X1246683Y2230000D01*
X1247699Y2231016D01*
X1246683D01*
X1245667Y2232032D01*
X1244651Y2231016D01*
X1243635D01*
X1244651Y2230000D01*
X1243635Y2228984D01*
X1244651D01*
X1245667Y2227968D01*
Y2228984D02*
X1246175Y2229492D01*
X1246683D01*
X1246175Y2230000D01*
X1246683Y2230508D01*
X1246175D01*
X1245667Y2231016D01*
X1245159Y2230508D01*
X1244651D01*
X1245159Y2230000D01*
X1244651Y2229492D01*
X1245159D01*
X1245667Y2228984D01*
X1331000Y2227968D02*
X1332016Y2228984D01*
X1333032D01*
X1332016Y2230000D01*
X1333032Y2231016D01*
X1332016D01*
X1331000Y2232032D01*
X1329984Y2231016D01*
X1328968D01*
X1329984Y2230000D01*
X1328968Y2228984D01*
X1329984D01*
X1331000Y2227968D01*
Y2228984D02*
X1331508Y2229492D01*
X1332016D01*
X1331508Y2230000D01*
X1332016Y2230508D01*
X1331508D01*
X1331000Y2231016D01*
X1330492Y2230508D01*
X1329984D01*
X1330492Y2230000D01*
X1329984Y2229492D01*
X1330492D01*
X1331000Y2228984D01*
X1224333Y2227968D02*
X1225349Y2228984D01*
X1226365D01*
X1225349Y2230000D01*
X1226365Y2231016D01*
X1225349D01*
X1224333Y2232032D01*
X1223317Y2231016D01*
X1222301D01*
X1223317Y2230000D01*
X1222301Y2228984D01*
X1223317D01*
X1224333Y2227968D01*
Y2228984D02*
X1224841Y2229492D01*
X1225349D01*
X1224841Y2230000D01*
X1225349Y2230508D01*
X1224841D01*
X1224333Y2231016D01*
X1223825Y2230508D01*
X1223317D01*
X1223825Y2230000D01*
X1223317Y2229492D01*
X1223825D01*
X1224333Y2228984D01*
X1288333Y2227968D02*
X1289349Y2228984D01*
X1290365D01*
X1289349Y2230000D01*
X1290365Y2231016D01*
X1289349D01*
X1288333Y2232032D01*
X1287317Y2231016D01*
X1286301D01*
X1287317Y2230000D01*
X1286301Y2228984D01*
X1287317D01*
X1288333Y2227968D01*
Y2228984D02*
X1288841Y2229492D01*
X1289349D01*
X1288841Y2230000D01*
X1289349Y2230508D01*
X1288841D01*
X1288333Y2231016D01*
X1287825Y2230508D01*
X1287317D01*
X1287825Y2230000D01*
X1287317Y2229492D01*
X1287825D01*
X1288333Y2228984D01*
X1194000Y2219968D02*
X1195016Y2220984D01*
X1196032D01*
X1195016Y2222000D01*
X1196032Y2223016D01*
X1195016D01*
X1194000Y2224032D01*
X1192984Y2223016D01*
X1191968D01*
X1192984Y2222000D01*
X1191968Y2220984D01*
X1192984D01*
X1194000Y2219968D01*
Y2220984D02*
X1194508Y2221492D01*
X1195016D01*
X1194508Y2222000D01*
X1195016Y2222508D01*
X1194508D01*
X1194000Y2223016D01*
X1193492Y2222508D01*
X1192984D01*
X1193492Y2222000D01*
X1192984Y2221492D01*
X1193492D01*
X1194000Y2220984D01*
X1483000Y1955968D02*
X1484016Y1956984D01*
X1485032D01*
X1484016Y1958000D01*
X1485032Y1959016D01*
X1484016D01*
X1483000Y1960032D01*
X1481984Y1959016D01*
X1480968D01*
X1481984Y1958000D01*
X1480968Y1956984D01*
X1481984D01*
X1483000Y1955968D01*
Y1956984D02*
X1483508Y1957492D01*
X1484016D01*
X1483508Y1958000D01*
X1484016Y1958508D01*
X1483508D01*
X1483000Y1959016D01*
X1482492Y1958508D01*
X1481984D01*
X1482492Y1958000D01*
X1481984Y1957492D01*
X1482492D01*
X1483000Y1956984D01*
X1496000Y1955968D02*
X1497016Y1956984D01*
X1498032D01*
X1497016Y1958000D01*
X1498032Y1959016D01*
X1497016D01*
X1496000Y1960032D01*
X1494984Y1959016D01*
X1493968D01*
X1494984Y1958000D01*
X1493968Y1956984D01*
X1494984D01*
X1496000Y1955968D01*
Y1956984D02*
X1496508Y1957492D01*
X1497016D01*
X1496508Y1958000D01*
X1497016Y1958508D01*
X1496508D01*
X1496000Y1959016D01*
X1495492Y1958508D01*
X1494984D01*
X1495492Y1958000D01*
X1494984Y1957492D01*
X1495492D01*
X1496000Y1956984D01*
X1509000Y1955968D02*
X1510016Y1956984D01*
X1511032D01*
X1510016Y1958000D01*
X1511032Y1959016D01*
X1510016D01*
X1509000Y1960032D01*
X1507984Y1959016D01*
X1506968D01*
X1507984Y1958000D01*
X1506968Y1956984D01*
X1507984D01*
X1509000Y1955968D01*
Y1956984D02*
X1509508Y1957492D01*
X1510016D01*
X1509508Y1958000D01*
X1510016Y1958508D01*
X1509508D01*
X1509000Y1959016D01*
X1508492Y1958508D01*
X1507984D01*
X1508492Y1958000D01*
X1507984Y1957492D01*
X1508492D01*
X1509000Y1956984D01*
X1489500Y1945718D02*
X1490516Y1946734D01*
X1491532D01*
X1490516Y1947750D01*
X1491532Y1948766D01*
X1490516D01*
X1489500Y1949782D01*
X1488484Y1948766D01*
X1487468D01*
X1488484Y1947750D01*
X1487468Y1946734D01*
X1488484D01*
X1489500Y1945718D01*
Y1946734D02*
X1490008Y1947242D01*
X1490516D01*
X1490008Y1947750D01*
X1490516Y1948258D01*
X1490008D01*
X1489500Y1948766D01*
X1488992Y1948258D01*
X1488484D01*
X1488992Y1947750D01*
X1488484Y1947242D01*
X1488992D01*
X1489500Y1946734D01*
X1502500Y1945718D02*
X1503516Y1946734D01*
X1504532D01*
X1503516Y1947750D01*
X1504532Y1948766D01*
X1503516D01*
X1502500Y1949782D01*
X1501484Y1948766D01*
X1500468D01*
X1501484Y1947750D01*
X1500468Y1946734D01*
X1501484D01*
X1502500Y1945718D01*
Y1946734D02*
X1503008Y1947242D01*
X1503516D01*
X1503008Y1947750D01*
X1503516Y1948258D01*
X1503008D01*
X1502500Y1948766D01*
X1501992Y1948258D01*
X1501484D01*
X1501992Y1947750D01*
X1501484Y1947242D01*
X1501992D01*
X1502500Y1946734D01*
X1483000Y1935468D02*
X1484016Y1936484D01*
X1485032D01*
X1484016Y1937500D01*
X1485032Y1938516D01*
X1484016D01*
X1483000Y1939532D01*
X1481984Y1938516D01*
X1480968D01*
X1481984Y1937500D01*
X1480968Y1936484D01*
X1481984D01*
X1483000Y1935468D01*
Y1936484D02*
X1483508Y1936992D01*
X1484016D01*
X1483508Y1937500D01*
X1484016Y1938008D01*
X1483508D01*
X1483000Y1938516D01*
X1482492Y1938008D01*
X1481984D01*
X1482492Y1937500D01*
X1481984Y1936992D01*
X1482492D01*
X1483000Y1936484D01*
X1509000Y1935468D02*
X1510016Y1936484D01*
X1511032D01*
X1510016Y1937500D01*
X1511032Y1938516D01*
X1510016D01*
X1509000Y1939532D01*
X1507984Y1938516D01*
X1506968D01*
X1507984Y1937500D01*
X1506968Y1936484D01*
X1507984D01*
X1509000Y1935468D01*
Y1936484D02*
X1509508Y1936992D01*
X1510016D01*
X1509508Y1937500D01*
X1510016Y1938008D01*
X1509508D01*
X1509000Y1938516D01*
X1508492Y1938008D01*
X1507984D01*
X1508492Y1937500D01*
X1507984Y1936992D01*
X1508492D01*
X1509000Y1936484D01*
X1489500Y1925218D02*
X1490516Y1926234D01*
X1491532D01*
X1490516Y1927250D01*
X1491532Y1928266D01*
X1490516D01*
X1489500Y1929282D01*
X1488484Y1928266D01*
X1487468D01*
X1488484Y1927250D01*
X1487468Y1926234D01*
X1488484D01*
X1489500Y1925218D01*
Y1926234D02*
X1490008Y1926742D01*
X1490516D01*
X1490008Y1927250D01*
X1490516Y1927758D01*
X1490008D01*
X1489500Y1928266D01*
X1488992Y1927758D01*
X1488484D01*
X1488992Y1927250D01*
X1488484Y1926742D01*
X1488992D01*
X1489500Y1926234D01*
X1502500Y1925218D02*
X1503516Y1926234D01*
X1504532D01*
X1503516Y1927250D01*
X1504532Y1928266D01*
X1503516D01*
X1502500Y1929282D01*
X1501484Y1928266D01*
X1500468D01*
X1501484Y1927250D01*
X1500468Y1926234D01*
X1501484D01*
X1502500Y1925218D01*
Y1926234D02*
X1503008Y1926742D01*
X1503516D01*
X1503008Y1927250D01*
X1503516Y1927758D01*
X1503008D01*
X1502500Y1928266D01*
X1501992Y1927758D01*
X1501484D01*
X1501992Y1927250D01*
X1501484Y1926742D01*
X1501992D01*
X1502500Y1926234D01*
X1483000Y1914968D02*
X1484016Y1915984D01*
X1485032D01*
X1484016Y1917000D01*
X1485032Y1918016D01*
X1484016D01*
X1483000Y1919032D01*
X1481984Y1918016D01*
X1480968D01*
X1481984Y1917000D01*
X1480968Y1915984D01*
X1481984D01*
X1483000Y1914968D01*
Y1915984D02*
X1483508Y1916492D01*
X1484016D01*
X1483508Y1917000D01*
X1484016Y1917508D01*
X1483508D01*
X1483000Y1918016D01*
X1482492Y1917508D01*
X1481984D01*
X1482492Y1917000D01*
X1481984Y1916492D01*
X1482492D01*
X1483000Y1915984D01*
X1496000Y1914968D02*
X1497016Y1915984D01*
X1498032D01*
X1497016Y1917000D01*
X1498032Y1918016D01*
X1497016D01*
X1496000Y1919032D01*
X1494984Y1918016D01*
X1493968D01*
X1494984Y1917000D01*
X1493968Y1915984D01*
X1494984D01*
X1496000Y1914968D01*
Y1915984D02*
X1496508Y1916492D01*
X1497016D01*
X1496508Y1917000D01*
X1497016Y1917508D01*
X1496508D01*
X1496000Y1918016D01*
X1495492Y1917508D01*
X1494984D01*
X1495492Y1917000D01*
X1494984Y1916492D01*
X1495492D01*
X1496000Y1915984D01*
X1509000Y1914968D02*
X1510016Y1915984D01*
X1511032D01*
X1510016Y1917000D01*
X1511032Y1918016D01*
X1510016D01*
X1509000Y1919032D01*
X1507984Y1918016D01*
X1506968D01*
X1507984Y1917000D01*
X1506968Y1915984D01*
X1507984D01*
X1509000Y1914968D01*
Y1915984D02*
X1509508Y1916492D01*
X1510016D01*
X1509508Y1917000D01*
X1510016Y1917508D01*
X1509508D01*
X1509000Y1918016D01*
X1508492Y1917508D01*
X1507984D01*
X1508492Y1917000D01*
X1507984Y1916492D01*
X1508492D01*
X1509000Y1915984D01*
X1496000Y1935468D02*
X1497016Y1936484D01*
X1498032D01*
X1497016Y1937500D01*
X1498032Y1938516D01*
X1497016D01*
X1496000Y1939532D01*
X1494984Y1938516D01*
X1493968D01*
X1494984Y1937500D01*
X1493968Y1936484D01*
X1494984D01*
X1496000Y1935468D01*
Y1936484D02*
X1496508Y1936992D01*
X1497016D01*
X1496508Y1937500D01*
X1497016Y1938008D01*
X1496508D01*
X1496000Y1938516D01*
X1495492Y1938008D01*
X1494984D01*
X1495492Y1937500D01*
X1494984Y1936992D01*
X1495492D01*
X1496000Y1936484D01*
X1130000Y1985968D02*
X1131016Y1986984D01*
X1132032D01*
X1131016Y1988000D01*
X1132032Y1989016D01*
X1131016D01*
X1130000Y1990032D01*
X1128984Y1989016D01*
X1127968D01*
X1128984Y1988000D01*
X1127968Y1986984D01*
X1128984D01*
X1130000Y1985968D01*
Y1986984D02*
X1130508Y1987492D01*
X1131016D01*
X1130508Y1988000D01*
X1131016Y1988508D01*
X1130508D01*
X1130000Y1989016D01*
X1129492Y1988508D01*
X1128984D01*
X1129492Y1988000D01*
X1128984Y1987492D01*
X1129492D01*
X1130000Y1986984D01*
X1113000Y1981968D02*
X1114016Y1982984D01*
X1115032D01*
X1114016Y1984000D01*
X1115032Y1985016D01*
X1114016D01*
X1113000Y1986032D01*
X1111984Y1985016D01*
X1110968D01*
X1111984Y1984000D01*
X1110968Y1982984D01*
X1111984D01*
X1113000Y1981968D01*
Y1982984D02*
X1113508Y1983492D01*
X1114016D01*
X1113508Y1984000D01*
X1114016Y1984508D01*
X1113508D01*
X1113000Y1985016D01*
X1112492Y1984508D01*
X1111984D01*
X1112492Y1984000D01*
X1111984Y1983492D01*
X1112492D01*
X1113000Y1982984D01*
X1111000Y2221968D02*
X1112016Y2222984D01*
X1113032D01*
X1112016Y2224000D01*
X1113032Y2225016D01*
X1112016D01*
X1111000Y2226032D01*
X1109984Y2225016D01*
X1108968D01*
X1109984Y2224000D01*
X1108968Y2222984D01*
X1109984D01*
X1111000Y2221968D01*
Y2222984D02*
X1111508Y2223492D01*
X1112016D01*
X1111508Y2224000D01*
X1112016Y2224508D01*
X1111508D01*
X1111000Y2225016D01*
X1110492Y2224508D01*
X1109984D01*
X1110492Y2224000D01*
X1109984Y2223492D01*
X1110492D01*
X1111000Y2222984D01*
X1122500Y2179468D02*
X1123516Y2180484D01*
X1124532D01*
X1123516Y2181500D01*
X1124532Y2182516D01*
X1123516D01*
X1122500Y2183532D01*
X1121484Y2182516D01*
X1120468D01*
X1121484Y2181500D01*
X1120468Y2180484D01*
X1121484D01*
X1122500Y2179468D01*
Y2180484D02*
X1123008Y2180992D01*
X1123516D01*
X1123008Y2181500D01*
X1123516Y2182008D01*
X1123008D01*
X1122500Y2182516D01*
X1121992Y2182008D01*
X1121484D01*
X1121992Y2181500D01*
X1121484Y2180992D01*
X1121992D01*
X1122500Y2180484D01*
X1565000Y1183468D02*
X1566016Y1184484D01*
X1567032D01*
X1566016Y1185500D01*
X1567032Y1186516D01*
X1566016D01*
X1565000Y1187532D01*
X1563984Y1186516D01*
X1562968D01*
X1563984Y1185500D01*
X1562968Y1184484D01*
X1563984D01*
X1565000Y1183468D01*
Y1184484D02*
X1565508Y1184992D01*
X1566016D01*
X1565508Y1185500D01*
X1566016Y1186008D01*
X1565508D01*
X1565000Y1186516D01*
X1564492Y1186008D01*
X1563984D01*
X1564492Y1185500D01*
X1563984Y1184992D01*
X1564492D01*
X1565000Y1184484D01*
X1547000Y1183468D02*
X1548016Y1184484D01*
X1549032D01*
X1548016Y1185500D01*
X1549032Y1186516D01*
X1548016D01*
X1547000Y1187532D01*
X1545984Y1186516D01*
X1544968D01*
X1545984Y1185500D01*
X1544968Y1184484D01*
X1545984D01*
X1547000Y1183468D01*
Y1184484D02*
X1547508Y1184992D01*
X1548016D01*
X1547508Y1185500D01*
X1548016Y1186008D01*
X1547508D01*
X1547000Y1186516D01*
X1546492Y1186008D01*
X1545984D01*
X1546492Y1185500D01*
X1545984Y1184992D01*
X1546492D01*
X1547000Y1184484D01*
X1583000Y1183468D02*
X1584016Y1184484D01*
X1585032D01*
X1584016Y1185500D01*
X1585032Y1186516D01*
X1584016D01*
X1583000Y1187532D01*
X1581984Y1186516D01*
X1580968D01*
X1581984Y1185500D01*
X1580968Y1184484D01*
X1581984D01*
X1583000Y1183468D01*
Y1184484D02*
X1583508Y1184992D01*
X1584016D01*
X1583508Y1185500D01*
X1584016Y1186008D01*
X1583508D01*
X1583000Y1186516D01*
X1582492Y1186008D01*
X1581984D01*
X1582492Y1185500D01*
X1581984Y1184992D01*
X1582492D01*
X1583000Y1184484D01*
X1517000Y1256968D02*
X1518016Y1257984D01*
X1519032D01*
X1518016Y1259000D01*
X1519032Y1260016D01*
X1518016D01*
X1517000Y1261032D01*
X1515984Y1260016D01*
X1514968D01*
X1515984Y1259000D01*
X1514968Y1257984D01*
X1515984D01*
X1517000Y1256968D01*
Y1257984D02*
X1517508Y1258492D01*
X1518016D01*
X1517508Y1259000D01*
X1518016Y1259508D01*
X1517508D01*
X1517000Y1260016D01*
X1516492Y1259508D01*
X1515984D01*
X1516492Y1259000D01*
X1515984Y1258492D01*
X1516492D01*
X1517000Y1257984D01*
X1365500Y1183468D02*
X1366516Y1184484D01*
X1367532D01*
X1366516Y1185500D01*
X1367532Y1186516D01*
X1366516D01*
X1365500Y1187532D01*
X1364484Y1186516D01*
X1363468D01*
X1364484Y1185500D01*
X1363468Y1184484D01*
X1364484D01*
X1365500Y1183468D01*
Y1184484D02*
X1366008Y1184992D01*
X1366516D01*
X1366008Y1185500D01*
X1366516Y1186008D01*
X1366008D01*
X1365500Y1186516D01*
X1364992Y1186008D01*
X1364484D01*
X1364992Y1185500D01*
X1364484Y1184992D01*
X1364992D01*
X1365500Y1184484D01*
X1348000Y1183468D02*
X1349016Y1184484D01*
X1350032D01*
X1349016Y1185500D01*
X1350032Y1186516D01*
X1349016D01*
X1348000Y1187532D01*
X1346984Y1186516D01*
X1345968D01*
X1346984Y1185500D01*
X1345968Y1184484D01*
X1346984D01*
X1348000Y1183468D01*
Y1184484D02*
X1348508Y1184992D01*
X1349016D01*
X1348508Y1185500D01*
X1349016Y1186008D01*
X1348508D01*
X1348000Y1186516D01*
X1347492Y1186008D01*
X1346984D01*
X1347492Y1185500D01*
X1346984Y1184992D01*
X1347492D01*
X1348000Y1184484D01*
X1383000Y1183468D02*
X1384016Y1184484D01*
X1385032D01*
X1384016Y1185500D01*
X1385032Y1186516D01*
X1384016D01*
X1383000Y1187532D01*
X1381984Y1186516D01*
X1380968D01*
X1381984Y1185500D01*
X1380968Y1184484D01*
X1381984D01*
X1383000Y1183468D01*
Y1184484D02*
X1383508Y1184992D01*
X1384016D01*
X1383508Y1185500D01*
X1384016Y1186008D01*
X1383508D01*
X1383000Y1186516D01*
X1382492Y1186008D01*
X1381984D01*
X1382492Y1185500D01*
X1381984Y1184992D01*
X1382492D01*
X1383000Y1184484D01*
X1316000Y1256968D02*
X1317016Y1257984D01*
X1318032D01*
X1317016Y1259000D01*
X1318032Y1260016D01*
X1317016D01*
X1316000Y1261032D01*
X1314984Y1260016D01*
X1313968D01*
X1314984Y1259000D01*
X1313968Y1257984D01*
X1314984D01*
X1316000Y1256968D01*
Y1257984D02*
X1316508Y1258492D01*
X1317016D01*
X1316508Y1259000D01*
X1317016Y1259508D01*
X1316508D01*
X1316000Y1260016D01*
X1315492Y1259508D01*
X1314984D01*
X1315492Y1259000D01*
X1314984Y1258492D01*
X1315492D01*
X1316000Y1257984D01*
X1056000Y1269968D02*
X1057016Y1270984D01*
X1058032D01*
X1057016Y1272000D01*
X1058032Y1273016D01*
X1057016D01*
X1056000Y1274032D01*
X1054984Y1273016D01*
X1053968D01*
X1054984Y1272000D01*
X1053968Y1270984D01*
X1054984D01*
X1056000Y1269968D01*
Y1270984D02*
X1056508Y1271492D01*
X1057016D01*
X1056508Y1272000D01*
X1057016Y1272508D01*
X1056508D01*
X1056000Y1273016D01*
X1055492Y1272508D01*
X1054984D01*
X1055492Y1272000D01*
X1054984Y1271492D01*
X1055492D01*
X1056000Y1270984D01*
X965500Y1250468D02*
X966516Y1251484D01*
X967532D01*
X966516Y1252500D01*
X967532Y1253516D01*
X966516D01*
X965500Y1254532D01*
X964484Y1253516D01*
X963468D01*
X964484Y1252500D01*
X963468Y1251484D01*
X964484D01*
X965500Y1250468D01*
Y1251484D02*
X966008Y1251992D01*
X966516D01*
X966008Y1252500D01*
X966516Y1253008D01*
X966008D01*
X965500Y1253516D01*
X964992Y1253008D01*
X964484D01*
X964992Y1252500D01*
X964484Y1251992D01*
X964992D01*
X965500Y1251484D01*
X1031000Y1263968D02*
X1032016Y1264984D01*
X1033032D01*
X1032016Y1266000D01*
X1033032Y1267016D01*
X1032016D01*
X1031000Y1268032D01*
X1029984Y1267016D01*
X1028968D01*
X1029984Y1266000D01*
X1028968Y1264984D01*
X1029984D01*
X1031000Y1263968D01*
Y1264984D02*
X1031508Y1265492D01*
X1032016D01*
X1031508Y1266000D01*
X1032016Y1266508D01*
X1031508D01*
X1031000Y1267016D01*
X1030492Y1266508D01*
X1029984D01*
X1030492Y1266000D01*
X1029984Y1265492D01*
X1030492D01*
X1031000Y1264984D01*
X1120600Y1252368D02*
X1121616Y1253384D01*
X1122632D01*
X1121616Y1254400D01*
X1122632Y1255416D01*
X1121616D01*
X1120600Y1256432D01*
X1119584Y1255416D01*
X1118568D01*
X1119584Y1254400D01*
X1118568Y1253384D01*
X1119584D01*
X1120600Y1252368D01*
Y1253384D02*
X1121108Y1253892D01*
X1121616D01*
X1121108Y1254400D01*
X1121616Y1254908D01*
X1121108D01*
X1120600Y1255416D01*
X1120092Y1254908D01*
X1119584D01*
X1120092Y1254400D01*
X1119584Y1253892D01*
X1120092D01*
X1120600Y1253384D01*
X1146000Y1251968D02*
X1147016Y1252984D01*
X1148032D01*
X1147016Y1254000D01*
X1148032Y1255016D01*
X1147016D01*
X1146000Y1256032D01*
X1144984Y1255016D01*
X1143968D01*
X1144984Y1254000D01*
X1143968Y1252984D01*
X1144984D01*
X1146000Y1251968D01*
Y1252984D02*
X1146508Y1253492D01*
X1147016D01*
X1146508Y1254000D01*
X1147016Y1254508D01*
X1146508D01*
X1146000Y1255016D01*
X1145492Y1254508D01*
X1144984D01*
X1145492Y1254000D01*
X1144984Y1253492D01*
X1145492D01*
X1146000Y1252984D01*
X1158700Y1251668D02*
X1159716Y1252684D01*
X1160732D01*
X1159716Y1253700D01*
X1160732Y1254716D01*
X1159716D01*
X1158700Y1255732D01*
X1157684Y1254716D01*
X1156668D01*
X1157684Y1253700D01*
X1156668Y1252684D01*
X1157684D01*
X1158700Y1251668D01*
Y1252684D02*
X1159208Y1253192D01*
X1159716D01*
X1159208Y1253700D01*
X1159716Y1254208D01*
X1159208D01*
X1158700Y1254716D01*
X1158192Y1254208D01*
X1157684D01*
X1158192Y1253700D01*
X1157684Y1253192D01*
X1158192D01*
X1158700Y1252684D01*
X1067400Y1478568D02*
X1068416Y1479584D01*
X1069432D01*
X1068416Y1480600D01*
X1069432Y1481616D01*
X1068416D01*
X1067400Y1482632D01*
X1066384Y1481616D01*
X1065368D01*
X1066384Y1480600D01*
X1065368Y1479584D01*
X1066384D01*
X1067400Y1478568D01*
Y1479584D02*
X1067908Y1480092D01*
X1068416D01*
X1067908Y1480600D01*
X1068416Y1481108D01*
X1067908D01*
X1067400Y1481616D01*
X1066892Y1481108D01*
X1066384D01*
X1066892Y1480600D01*
X1066384Y1480092D01*
X1066892D01*
X1067400Y1479584D01*
X1109000Y1479968D02*
X1110016Y1480984D01*
X1111032D01*
X1110016Y1482000D01*
X1111032Y1483016D01*
X1110016D01*
X1109000Y1484032D01*
X1107984Y1483016D01*
X1106968D01*
X1107984Y1482000D01*
X1106968Y1480984D01*
X1107984D01*
X1109000Y1479968D01*
Y1480984D02*
X1109508Y1481492D01*
X1110016D01*
X1109508Y1482000D01*
X1110016Y1482508D01*
X1109508D01*
X1109000Y1483016D01*
X1108492Y1482508D01*
X1107984D01*
X1108492Y1482000D01*
X1107984Y1481492D01*
X1108492D01*
X1109000Y1480984D01*
X1150000Y1472968D02*
X1151016Y1473984D01*
X1152032D01*
X1151016Y1475000D01*
X1152032Y1476016D01*
X1151016D01*
X1150000Y1477032D01*
X1148984Y1476016D01*
X1147968D01*
X1148984Y1475000D01*
X1147968Y1473984D01*
X1148984D01*
X1150000Y1472968D01*
Y1473984D02*
X1150508Y1474492D01*
X1151016D01*
X1150508Y1475000D01*
X1151016Y1475508D01*
X1150508D01*
X1150000Y1476016D01*
X1149492Y1475508D01*
X1148984D01*
X1149492Y1475000D01*
X1148984Y1474492D01*
X1149492D01*
X1150000Y1473984D01*
X1198000Y1512968D02*
X1199016Y1513984D01*
X1200032D01*
X1199016Y1515000D01*
X1200032Y1516016D01*
X1199016D01*
X1198000Y1517032D01*
X1196984Y1516016D01*
X1195968D01*
X1196984Y1515000D01*
X1195968Y1513984D01*
X1196984D01*
X1198000Y1512968D01*
Y1513984D02*
X1198508Y1514492D01*
X1199016D01*
X1198508Y1515000D01*
X1199016Y1515508D01*
X1198508D01*
X1198000Y1516016D01*
X1197492Y1515508D01*
X1196984D01*
X1197492Y1515000D01*
X1196984Y1514492D01*
X1197492D01*
X1198000Y1513984D01*
Y1529968D02*
X1199016Y1530984D01*
X1200032D01*
X1199016Y1532000D01*
X1200032Y1533016D01*
X1199016D01*
X1198000Y1534032D01*
X1196984Y1533016D01*
X1195968D01*
X1196984Y1532000D01*
X1195968Y1530984D01*
X1196984D01*
X1198000Y1529968D01*
Y1530984D02*
X1198508Y1531492D01*
X1199016D01*
X1198508Y1532000D01*
X1199016Y1532508D01*
X1198508D01*
X1198000Y1533016D01*
X1197492Y1532508D01*
X1196984D01*
X1197492Y1532000D01*
X1196984Y1531492D01*
X1197492D01*
X1198000Y1530984D01*
Y1544968D02*
X1199016Y1545984D01*
X1200032D01*
X1199016Y1547000D01*
X1200032Y1548016D01*
X1199016D01*
X1198000Y1549032D01*
X1196984Y1548016D01*
X1195968D01*
X1196984Y1547000D01*
X1195968Y1545984D01*
X1196984D01*
X1198000Y1544968D01*
Y1545984D02*
X1198508Y1546492D01*
X1199016D01*
X1198508Y1547000D01*
X1199016Y1547508D01*
X1198508D01*
X1198000Y1548016D01*
X1197492Y1547508D01*
X1196984D01*
X1197492Y1547000D01*
X1196984Y1546492D01*
X1197492D01*
X1198000Y1545984D01*
Y1574968D02*
X1199016Y1575984D01*
X1200032D01*
X1199016Y1577000D01*
X1200032Y1578016D01*
X1199016D01*
X1198000Y1579032D01*
X1196984Y1578016D01*
X1195968D01*
X1196984Y1577000D01*
X1195968Y1575984D01*
X1196984D01*
X1198000Y1574968D01*
Y1575984D02*
X1198508Y1576492D01*
X1199016D01*
X1198508Y1577000D01*
X1199016Y1577508D01*
X1198508D01*
X1198000Y1578016D01*
X1197492Y1577508D01*
X1196984D01*
X1197492Y1577000D01*
X1196984Y1576492D01*
X1197492D01*
X1198000Y1575984D01*
Y1632968D02*
X1199016Y1633984D01*
X1200032D01*
X1199016Y1635000D01*
X1200032Y1636016D01*
X1199016D01*
X1198000Y1637032D01*
X1196984Y1636016D01*
X1195968D01*
X1196984Y1635000D01*
X1195968Y1633984D01*
X1196984D01*
X1198000Y1632968D01*
Y1633984D02*
X1198508Y1634492D01*
X1199016D01*
X1198508Y1635000D01*
X1199016Y1635508D01*
X1198508D01*
X1198000Y1636016D01*
X1197492Y1635508D01*
X1196984D01*
X1197492Y1635000D01*
X1196984Y1634492D01*
X1197492D01*
X1198000Y1633984D01*
X1117400Y1659368D02*
X1118416Y1660384D01*
X1119432D01*
X1118416Y1661400D01*
X1119432Y1662416D01*
X1118416D01*
X1117400Y1663432D01*
X1116384Y1662416D01*
X1115368D01*
X1116384Y1661400D01*
X1115368Y1660384D01*
X1116384D01*
X1117400Y1659368D01*
Y1660384D02*
X1117908Y1660892D01*
X1118416D01*
X1117908Y1661400D01*
X1118416Y1661908D01*
X1117908D01*
X1117400Y1662416D01*
X1116892Y1661908D01*
X1116384D01*
X1116892Y1661400D01*
X1116384Y1660892D01*
X1116892D01*
X1117400Y1660384D01*
X1045000Y1658968D02*
X1046016Y1659984D01*
X1047032D01*
X1046016Y1661000D01*
X1047032Y1662016D01*
X1046016D01*
X1045000Y1663032D01*
X1043984Y1662016D01*
X1042968D01*
X1043984Y1661000D01*
X1042968Y1659984D01*
X1043984D01*
X1045000Y1658968D01*
Y1659984D02*
X1045508Y1660492D01*
X1046016D01*
X1045508Y1661000D01*
X1046016Y1661508D01*
X1045508D01*
X1045000Y1662016D01*
X1044492Y1661508D01*
X1043984D01*
X1044492Y1661000D01*
X1043984Y1660492D01*
X1044492D01*
X1045000Y1659984D01*
X1010950Y1624918D02*
X1011966Y1625934D01*
X1012982D01*
X1011966Y1626950D01*
X1012982Y1627966D01*
X1011966D01*
X1010950Y1628982D01*
X1009934Y1627966D01*
X1008918D01*
X1009934Y1626950D01*
X1008918Y1625934D01*
X1009934D01*
X1010950Y1624918D01*
Y1625934D02*
X1011458Y1626442D01*
X1011966D01*
X1011458Y1626950D01*
X1011966Y1627458D01*
X1011458D01*
X1010950Y1627966D01*
X1010442Y1627458D01*
X1009934D01*
X1010442Y1626950D01*
X1009934Y1626442D01*
X1010442D01*
X1010950Y1625934D01*
X1012000Y1591968D02*
X1013016Y1592984D01*
X1014032D01*
X1013016Y1594000D01*
X1014032Y1595016D01*
X1013016D01*
X1012000Y1596032D01*
X1010984Y1595016D01*
X1009968D01*
X1010984Y1594000D01*
X1009968Y1592984D01*
X1010984D01*
X1012000Y1591968D01*
Y1592984D02*
X1012508Y1593492D01*
X1013016D01*
X1012508Y1594000D01*
X1013016Y1594508D01*
X1012508D01*
X1012000Y1595016D01*
X1011492Y1594508D01*
X1010984D01*
X1011492Y1594000D01*
X1010984Y1593492D01*
X1011492D01*
X1012000Y1592984D01*
X1014000Y1524968D02*
X1015016Y1525984D01*
X1016032D01*
X1015016Y1527000D01*
X1016032Y1528016D01*
X1015016D01*
X1014000Y1529032D01*
X1012984Y1528016D01*
X1011968D01*
X1012984Y1527000D01*
X1011968Y1525984D01*
X1012984D01*
X1014000Y1524968D01*
Y1525984D02*
X1014508Y1526492D01*
X1015016D01*
X1014508Y1527000D01*
X1015016Y1527508D01*
X1014508D01*
X1014000Y1528016D01*
X1013492Y1527508D01*
X1012984D01*
X1013492Y1527000D01*
X1012984Y1526492D01*
X1013492D01*
X1014000Y1525984D01*
Y1509968D02*
X1015016Y1510984D01*
X1016032D01*
X1015016Y1512000D01*
X1016032Y1513016D01*
X1015016D01*
X1014000Y1514032D01*
X1012984Y1513016D01*
X1011968D01*
X1012984Y1512000D01*
X1011968Y1510984D01*
X1012984D01*
X1014000Y1509968D01*
Y1510984D02*
X1014508Y1511492D01*
X1015016D01*
X1014508Y1512000D01*
X1015016Y1512508D01*
X1014508D01*
X1014000Y1513016D01*
X1013492Y1512508D01*
X1012984D01*
X1013492Y1512000D01*
X1012984Y1511492D01*
X1013492D01*
X1014000Y1510984D01*
X993500Y1470468D02*
X994516Y1471484D01*
X995532D01*
X994516Y1472500D01*
X995532Y1473516D01*
X994516D01*
X993500Y1474532D01*
X992484Y1473516D01*
X991468D01*
X992484Y1472500D01*
X991468Y1471484D01*
X992484D01*
X993500Y1470468D01*
Y1471484D02*
X994008Y1471992D01*
X994516D01*
X994008Y1472500D01*
X994516Y1473008D01*
X994008D01*
X993500Y1473516D01*
X992992Y1473008D01*
X992484D01*
X992992Y1472500D01*
X992484Y1471992D01*
X992992D01*
X993500Y1471484D01*
X918000Y1267968D02*
X919016Y1268984D01*
X920032D01*
X919016Y1270000D01*
X920032Y1271016D01*
X919016D01*
X918000Y1272032D01*
X916984Y1271016D01*
X915968D01*
X916984Y1270000D01*
X915968Y1268984D01*
X916984D01*
X918000Y1267968D01*
Y1268984D02*
X918508Y1269492D01*
X919016D01*
X918508Y1270000D01*
X919016Y1270508D01*
X918508D01*
X918000Y1271016D01*
X917492Y1270508D01*
X916984D01*
X917492Y1270000D01*
X916984Y1269492D01*
X917492D01*
X918000Y1268984D01*
X926000Y1275968D02*
X927016Y1276984D01*
X928032D01*
X927016Y1278000D01*
X928032Y1279016D01*
X927016D01*
X926000Y1280032D01*
X924984Y1279016D01*
X923968D01*
X924984Y1278000D01*
X923968Y1276984D01*
X924984D01*
X926000Y1275968D01*
Y1276984D02*
X926508Y1277492D01*
X927016D01*
X926508Y1278000D01*
X927016Y1278508D01*
X926508D01*
X926000Y1279016D01*
X925492Y1278508D01*
X924984D01*
X925492Y1278000D01*
X924984Y1277492D01*
X925492D01*
X926000Y1276984D01*
X1222000Y1305968D02*
X1223016Y1306984D01*
X1224032D01*
X1223016Y1308000D01*
X1224032Y1309016D01*
X1223016D01*
X1222000Y1310032D01*
X1220984Y1309016D01*
X1219968D01*
X1220984Y1308000D01*
X1219968Y1306984D01*
X1220984D01*
X1222000Y1305968D01*
Y1306984D02*
X1222508Y1307492D01*
X1223016D01*
X1222508Y1308000D01*
X1223016Y1308508D01*
X1222508D01*
X1222000Y1309016D01*
X1221492Y1308508D01*
X1220984D01*
X1221492Y1308000D01*
X1220984Y1307492D01*
X1221492D01*
X1222000Y1306984D01*
X1045000Y1444968D02*
X1046016Y1445984D01*
X1047032D01*
X1046016Y1447000D01*
X1047032Y1448016D01*
X1046016D01*
X1045000Y1449032D01*
X1043984Y1448016D01*
X1042968D01*
X1043984Y1447000D01*
X1042968Y1445984D01*
X1043984D01*
X1045000Y1444968D01*
Y1445984D02*
X1045508Y1446492D01*
X1046016D01*
X1045508Y1447000D01*
X1046016Y1447508D01*
X1045508D01*
X1045000Y1448016D01*
X1044492Y1447508D01*
X1043984D01*
X1044492Y1447000D01*
X1043984Y1446492D01*
X1044492D01*
X1045000Y1445984D01*
X1192500Y2094468D02*
X1193516Y2095484D01*
X1194532D01*
X1193516Y2096500D01*
X1194532Y2097516D01*
X1193516D01*
X1192500Y2098532D01*
X1191484Y2097516D01*
X1190468D01*
X1191484Y2096500D01*
X1190468Y2095484D01*
X1191484D01*
X1192500Y2094468D01*
Y2095484D02*
X1193008Y2095992D01*
X1193516D01*
X1193008Y2096500D01*
X1193516Y2097008D01*
X1193008D01*
X1192500Y2097516D01*
X1191992Y2097008D01*
X1191484D01*
X1191992Y2096500D01*
X1191484Y2095992D01*
X1191992D01*
X1192500Y2095484D01*
X1250500Y2094468D02*
X1251516Y2095484D01*
X1252532D01*
X1251516Y2096500D01*
X1252532Y2097516D01*
X1251516D01*
X1250500Y2098532D01*
X1249484Y2097516D01*
X1248468D01*
X1249484Y2096500D01*
X1248468Y2095484D01*
X1249484D01*
X1250500Y2094468D01*
Y2095484D02*
X1251008Y2095992D01*
X1251516D01*
X1251008Y2096500D01*
X1251516Y2097008D01*
X1251008D01*
X1250500Y2097516D01*
X1249992Y2097008D01*
X1249484D01*
X1249992Y2096500D01*
X1249484Y2095992D01*
X1249992D01*
X1250500Y2095484D01*
X1309500Y2094468D02*
X1310516Y2095484D01*
X1311532D01*
X1310516Y2096500D01*
X1311532Y2097516D01*
X1310516D01*
X1309500Y2098532D01*
X1308484Y2097516D01*
X1307468D01*
X1308484Y2096500D01*
X1307468Y2095484D01*
X1308484D01*
X1309500Y2094468D01*
Y2095484D02*
X1310008Y2095992D01*
X1310516D01*
X1310008Y2096500D01*
X1310516Y2097008D01*
X1310008D01*
X1309500Y2097516D01*
X1308992Y2097008D01*
X1308484D01*
X1308992Y2096500D01*
X1308484Y2095992D01*
X1308992D01*
X1309500Y2095484D01*
X822000Y1466968D02*
X823016Y1467984D01*
X824032D01*
X823016Y1469000D01*
X824032Y1470016D01*
X823016D01*
X822000Y1471032D01*
X820984Y1470016D01*
X819968D01*
X820984Y1469000D01*
X819968Y1467984D01*
X820984D01*
X822000Y1466968D01*
Y1467984D02*
X822508Y1468492D01*
X823016D01*
X822508Y1469000D01*
X823016Y1469508D01*
X822508D01*
X822000Y1470016D01*
X821492Y1469508D01*
X820984D01*
X821492Y1469000D01*
X820984Y1468492D01*
X821492D01*
X822000Y1467984D01*
X816000Y1502968D02*
X817016Y1503984D01*
X818032D01*
X817016Y1505000D01*
X818032Y1506016D01*
X817016D01*
X816000Y1507032D01*
X814984Y1506016D01*
X813968D01*
X814984Y1505000D01*
X813968Y1503984D01*
X814984D01*
X816000Y1502968D01*
Y1503984D02*
X816508Y1504492D01*
X817016D01*
X816508Y1505000D01*
X817016Y1505508D01*
X816508D01*
X816000Y1506016D01*
X815492Y1505508D01*
X814984D01*
X815492Y1505000D01*
X814984Y1504492D01*
X815492D01*
X816000Y1503984D01*
X974000Y1466968D02*
X975016Y1467984D01*
X976032D01*
X975016Y1469000D01*
X976032Y1470016D01*
X975016D01*
X974000Y1471032D01*
X972984Y1470016D01*
X971968D01*
X972984Y1469000D01*
X971968Y1467984D01*
X972984D01*
X974000Y1466968D01*
Y1467984D02*
X974508Y1468492D01*
X975016D01*
X974508Y1469000D01*
X975016Y1469508D01*
X974508D01*
X974000Y1470016D01*
X973492Y1469508D01*
X972984D01*
X973492Y1469000D01*
X972984Y1468492D01*
X973492D01*
X974000Y1467984D01*
X977000Y1493968D02*
X978016Y1494984D01*
X979032D01*
X978016Y1496000D01*
X979032Y1497016D01*
X978016D01*
X977000Y1498032D01*
X975984Y1497016D01*
X974968D01*
X975984Y1496000D01*
X974968Y1494984D01*
X975984D01*
X977000Y1493968D01*
Y1494984D02*
X977508Y1495492D01*
X978016D01*
X977508Y1496000D01*
X978016Y1496508D01*
X977508D01*
X977000Y1497016D01*
X976492Y1496508D01*
X975984D01*
X976492Y1496000D01*
X975984Y1495492D01*
X976492D01*
X977000Y1494984D01*
X935000Y1719968D02*
X936016Y1720984D01*
X937032D01*
X936016Y1722000D01*
X937032Y1723016D01*
X936016D01*
X935000Y1724032D01*
X933984Y1723016D01*
X932968D01*
X933984Y1722000D01*
X932968Y1720984D01*
X933984D01*
X935000Y1719968D01*
Y1720984D02*
X935508Y1721492D01*
X936016D01*
X935508Y1722000D01*
X936016Y1722508D01*
X935508D01*
X935000Y1723016D01*
X934492Y1722508D01*
X933984D01*
X934492Y1722000D01*
X933984Y1721492D01*
X934492D01*
X935000Y1720984D01*
X804000Y1643968D02*
X805016Y1644984D01*
X806032D01*
X805016Y1646000D01*
X806032Y1647016D01*
X805016D01*
X804000Y1648032D01*
X802984Y1647016D01*
X801968D01*
X802984Y1646000D01*
X801968Y1644984D01*
X802984D01*
X804000Y1643968D01*
Y1644984D02*
X804508Y1645492D01*
X805016D01*
X804508Y1646000D01*
X805016Y1646508D01*
X804508D01*
X804000Y1647016D01*
X803492Y1646508D01*
X802984D01*
X803492Y1646000D01*
X802984Y1645492D01*
X803492D01*
X804000Y1644984D01*
X814000Y1659968D02*
X815016Y1660984D01*
X816032D01*
X815016Y1662000D01*
X816032Y1663016D01*
X815016D01*
X814000Y1664032D01*
X812984Y1663016D01*
X811968D01*
X812984Y1662000D01*
X811968Y1660984D01*
X812984D01*
X814000Y1659968D01*
Y1660984D02*
X814508Y1661492D01*
X815016D01*
X814508Y1662000D01*
X815016Y1662508D01*
X814508D01*
X814000Y1663016D01*
X813492Y1662508D01*
X812984D01*
X813492Y1662000D01*
X812984Y1661492D01*
X813492D01*
X814000Y1660984D01*
X701000Y1643968D02*
X702016Y1644984D01*
X703032D01*
X702016Y1646000D01*
X703032Y1647016D01*
X702016D01*
X701000Y1648032D01*
X699984Y1647016D01*
X698968D01*
X699984Y1646000D01*
X698968Y1644984D01*
X699984D01*
X701000Y1643968D01*
Y1644984D02*
X701508Y1645492D01*
X702016D01*
X701508Y1646000D01*
X702016Y1646508D01*
X701508D01*
X701000Y1647016D01*
X700492Y1646508D01*
X699984D01*
X700492Y1646000D01*
X699984Y1645492D01*
X700492D01*
X701000Y1644984D01*
X900000Y2167968D02*
X901016Y2168984D01*
X902032D01*
X901016Y2170000D01*
X902032Y2171016D01*
X901016D01*
X900000Y2172032D01*
X898984Y2171016D01*
X897968D01*
X898984Y2170000D01*
X897968Y2168984D01*
X898984D01*
X900000Y2167968D01*
Y2168984D02*
X900508Y2169492D01*
X901016D01*
X900508Y2170000D01*
X901016Y2170508D01*
X900508D01*
X900000Y2171016D01*
X899492Y2170508D01*
X898984D01*
X899492Y2170000D01*
X898984Y2169492D01*
X899492D01*
X900000Y2168984D01*
X944000Y2140968D02*
X945016Y2141984D01*
X946032D01*
X945016Y2143000D01*
X946032Y2144016D01*
X945016D01*
X944000Y2145032D01*
X942984Y2144016D01*
X941968D01*
X942984Y2143000D01*
X941968Y2141984D01*
X942984D01*
X944000Y2140968D01*
Y2141984D02*
X944508Y2142492D01*
X945016D01*
X944508Y2143000D01*
X945016Y2143508D01*
X944508D01*
X944000Y2144016D01*
X943492Y2143508D01*
X942984D01*
X943492Y2143000D01*
X942984Y2142492D01*
X943492D01*
X944000Y2141984D01*
X1546000Y1670968D02*
X1547016Y1671984D01*
X1548032D01*
X1547016Y1673000D01*
X1548032Y1674016D01*
X1547016D01*
X1546000Y1675032D01*
X1544984Y1674016D01*
X1543968D01*
X1544984Y1673000D01*
X1543968Y1671984D01*
X1544984D01*
X1546000Y1670968D01*
Y1671984D02*
X1546508Y1672492D01*
X1547016D01*
X1546508Y1673000D01*
X1547016Y1673508D01*
X1546508D01*
X1546000Y1674016D01*
X1545492Y1673508D01*
X1544984D01*
X1545492Y1673000D01*
X1544984Y1672492D01*
X1545492D01*
X1546000Y1671984D01*
D133*
X1002281Y2138999D02*
G03*
X1002281Y2138999I-2032J0D01*
G01*
X1027282Y2139250D02*
G03*
X1027282Y2139250I-2032J0D01*
G01*
X1053032Y2139000D02*
G03*
X1053032Y2139000I-2032J0D01*
G01*
X1078532D02*
G03*
X1078532Y2139000I-2032J0D01*
G01*
X319332Y1610050D02*
G03*
X319332Y1610050I-2032J0D01*
G01*
X351332Y1682800D02*
G03*
X351332Y1682800I-2032J0D01*
G01*
X351332Y1647800D02*
G03*
X351332Y1647800I-2032J0D01*
G01*
Y1507800D02*
G03*
X351332Y1507800I-2032J0D01*
G01*
Y1612800D02*
G03*
X351332Y1612800I-2032J0D01*
G01*
Y1577800D02*
G03*
X351332Y1577800I-2032J0D01*
G01*
Y1542800D02*
G03*
X351332Y1542800I-2032J0D01*
G01*
X319332Y1633050D02*
G03*
X319332Y1633050I-2032J0D01*
G01*
Y1685550D02*
G03*
X319332Y1685550I-2032J0D01*
G01*
Y1662550D02*
G03*
X319332Y1662550I-2032J0D01*
G01*
Y1528050D02*
G03*
X319332Y1528050I-2032J0D01*
G01*
Y1505050D02*
G03*
X319332Y1505050I-2032J0D01*
G01*
Y1557550D02*
G03*
X319332Y1557550I-2032J0D01*
G01*
Y1580550D02*
G03*
X319332Y1580550I-2032J0D01*
G01*
D134*
X318316Y1610050D02*
G03*
X318316Y1610050I-1016J0D01*
G01*
X350316Y1682800D02*
G03*
X350316Y1682800I-1016J0D01*
G01*
X350316Y1647800D02*
G03*
X350316Y1647800I-1016J0D01*
G01*
Y1507800D02*
G03*
X350316Y1507800I-1016J0D01*
G01*
Y1612800D02*
G03*
X350316Y1612800I-1016J0D01*
G01*
Y1577800D02*
G03*
X350316Y1577800I-1016J0D01*
G01*
Y1542800D02*
G03*
X350316Y1542800I-1016J0D01*
G01*
X318316Y1633050D02*
G03*
X318316Y1633050I-1016J0D01*
G01*
Y1685550D02*
G03*
X318316Y1685550I-1016J0D01*
G01*
Y1662550D02*
G03*
X318316Y1662550I-1016J0D01*
G01*
Y1528050D02*
G03*
X318316Y1528050I-1016J0D01*
G01*
Y1505050D02*
G03*
X318316Y1505050I-1016J0D01*
G01*
Y1557550D02*
G03*
X318316Y1557550I-1016J0D01*
G01*
Y1580550D02*
G03*
X318316Y1580550I-1016J0D01*
G01*
M02*
