G04*
G04 #@! TF.GenerationSoftware,Altium Limited,Altium Designer,18.1.11 (251)*
G04*
G04 Layer_Color=8388736*
%FSLAX25Y25*%
%MOIN*%
G70*
G01*
G75*
%ADD21R,0.01968X0.06181*%
%ADD31R,0.05918X0.03556*%
%ADD32R,0.05721X0.03162*%
%ADD33R,0.07099X0.12611*%
%ADD34R,0.23635X0.25210*%
%ADD35R,0.12611X0.07099*%
%ADD36R,0.25210X0.23635*%
%ADD37R,0.02769X0.06981*%
%ADD38R,0.01784X0.03753*%
%ADD39R,0.03162X0.07099*%
%ADD40R,0.03753X0.01784*%
%ADD41R,0.15367X0.08674*%
%ADD42R,0.03556X0.05918*%
%ADD43R,0.03950X0.03950*%
%ADD44R,0.07887X0.06312*%
%ADD45R,0.04343X0.05918*%
%ADD46R,0.05918X0.04343*%
%ADD47C,0.05918*%
%ADD48C,0.00800*%
%ADD49C,0.24422*%
%ADD50C,0.20485*%
%ADD51C,0.12611*%
%ADD52C,0.03950*%
%ADD53C,0.07099*%
%ADD54C,0.08674*%
%ADD55C,0.04737*%
%ADD56C,0.05524*%
%ADD57C,0.05800*%
G36*
X211596Y170756D02*
X211647Y170746D01*
X211697Y170729D01*
X211744Y170705D01*
X211787Y170676D01*
X211827Y170642D01*
X211861Y170602D01*
X211891Y170559D01*
X211914Y170512D01*
X211930Y170462D01*
X211941Y170411D01*
X211944Y170358D01*
Y158931D01*
X211944Y158922D01*
X211944Y158913D01*
X211942Y158896D01*
X211941Y158879D01*
X211939Y158870D01*
X211938Y158861D01*
X211934Y158844D01*
X211930Y158827D01*
X211928Y158819D01*
X211925Y158810D01*
X211919Y158794D01*
X211914Y158778D01*
X211910Y158770D01*
X211906Y158761D01*
X211898Y158746D01*
X211891Y158731D01*
X211885Y158723D01*
X211881Y158715D01*
X211871Y158701D01*
X211861Y158687D01*
X211855Y158680D01*
X211850Y158673D01*
X209582Y155980D01*
Y152740D01*
X209578Y152688D01*
X209568Y152636D01*
X209552Y152587D01*
X209528Y152540D01*
X209499Y152496D01*
X209465Y152457D01*
X209425Y152422D01*
X209382Y152393D01*
X209334Y152370D01*
X209285Y152353D01*
X209233Y152343D01*
X209181Y152339D01*
X206819D01*
X206767Y152343D01*
X206715Y152353D01*
X206665Y152370D01*
X206618Y152393D01*
X206575Y152422D01*
X206535Y152457D01*
X206501Y152496D01*
X206472Y152540D01*
X206449Y152587D01*
X206432Y152636D01*
X206421Y152688D01*
X206418Y152740D01*
Y155980D01*
X204150Y158673D01*
X204145Y158680D01*
X204139Y158687D01*
X204129Y158701D01*
X204119Y158715D01*
X204115Y158723D01*
X204110Y158731D01*
X204102Y158746D01*
X204094Y158761D01*
X204090Y158770D01*
X204086Y158778D01*
X204081Y158794D01*
X204075Y158810D01*
X204072Y158819D01*
X204069Y158827D01*
X204066Y158844D01*
X204062Y158861D01*
X204061Y158870D01*
X204059Y158879D01*
X204058Y158896D01*
X204056Y158913D01*
X204056Y158922D01*
X204056Y158931D01*
Y170358D01*
X204059Y170411D01*
X204069Y170462D01*
X204086Y170512D01*
X204110Y170559D01*
X204139Y170602D01*
X204173Y170642D01*
X204213Y170676D01*
X204256Y170705D01*
X204303Y170729D01*
X204353Y170746D01*
X204404Y170756D01*
X204457Y170759D01*
X211543D01*
X211596Y170756D01*
D02*
G37*
D21*
X208000Y155831D02*
D03*
D31*
X213000Y483260D02*
D03*
Y490740D02*
D03*
X137000Y456760D02*
D03*
Y464240D02*
D03*
X228500Y313118D02*
D03*
Y305638D02*
D03*
X218500Y313118D02*
D03*
Y305638D02*
D03*
X151500Y309315D02*
D03*
Y301835D02*
D03*
X137500Y156760D02*
D03*
Y164240D02*
D03*
X211500Y187740D02*
D03*
Y180260D02*
D03*
D32*
X227752Y217213D02*
D03*
Y224693D02*
D03*
X219287Y220953D02*
D03*
D33*
X162445Y330716D02*
D03*
X180555D02*
D03*
D34*
X171500Y358984D02*
D03*
D35*
X184283Y192445D02*
D03*
Y210555D02*
D03*
D36*
X156016Y201500D02*
D03*
D37*
X213906Y155831D02*
D03*
X202095D02*
D03*
D38*
X225016Y376787D02*
D03*
X226984D02*
D03*
X228953D02*
D03*
X223047Y388992D02*
D03*
X225016D02*
D03*
X226984D02*
D03*
X228953D02*
D03*
X223047Y376787D02*
D03*
D39*
X231500Y291154D02*
D03*
X216500Y247453D02*
D03*
X221500D02*
D03*
X226500D02*
D03*
X231500D02*
D03*
X216500Y291154D02*
D03*
X221500D02*
D03*
X226500D02*
D03*
D40*
X241398Y376874D02*
D03*
Y374905D02*
D03*
Y372937D02*
D03*
X253603Y378842D02*
D03*
Y376874D02*
D03*
Y374905D02*
D03*
Y372937D02*
D03*
X241398Y378842D02*
D03*
D41*
X192500Y317000D02*
D03*
X169291Y241500D02*
D03*
D42*
X121740Y473000D02*
D03*
X114260D02*
D03*
X219760Y321878D02*
D03*
X227240D02*
D03*
D43*
X167453Y301575D02*
D03*
X161547D02*
D03*
X153453Y171500D02*
D03*
X147547D02*
D03*
D44*
X228500Y354390D02*
D03*
Y343366D02*
D03*
X219500D02*
D03*
Y354390D02*
D03*
X193000Y166512D02*
D03*
Y155488D02*
D03*
D45*
X219760Y332378D02*
D03*
X227240D02*
D03*
X227760Y207000D02*
D03*
X235240D02*
D03*
X227760Y195500D02*
D03*
X235240D02*
D03*
X184240Y221500D02*
D03*
X176760D02*
D03*
X184240Y181500D02*
D03*
X176760D02*
D03*
X229000Y396390D02*
D03*
X236480D02*
D03*
X234740Y369390D02*
D03*
X227260D02*
D03*
X244760Y386890D02*
D03*
X252240D02*
D03*
D46*
X232500Y231138D02*
D03*
Y238618D02*
D03*
X261500Y385760D02*
D03*
Y393240D02*
D03*
X192500Y330760D02*
D03*
Y338240D02*
D03*
X151000Y331020D02*
D03*
Y338500D02*
D03*
X209000Y303000D02*
D03*
Y295520D02*
D03*
X204500Y239713D02*
D03*
Y247193D02*
D03*
X198500Y303240D02*
D03*
Y295760D02*
D03*
X194000Y239713D02*
D03*
Y247193D02*
D03*
X261500Y368890D02*
D03*
Y361409D02*
D03*
D47*
X109142Y428890D02*
D03*
Y415110D02*
D03*
X109500Y245390D02*
D03*
Y231610D02*
D03*
X109142Y333949D02*
D03*
Y347728D02*
D03*
Y361508D02*
D03*
Y375287D02*
D03*
Y389067D02*
D03*
Y320169D02*
D03*
Y306390D02*
D03*
Y292610D02*
D03*
X109500Y165279D02*
D03*
Y151500D02*
D03*
X135941Y504500D02*
D03*
X149721D02*
D03*
X163500D02*
D03*
X177279D02*
D03*
X191059D02*
D03*
X122161D02*
D03*
X108382D02*
D03*
X94602D02*
D03*
X109500Y205780D02*
D03*
Y192000D02*
D03*
X236390Y504358D02*
D03*
X222610D02*
D03*
X109110Y61917D02*
D03*
X122890D02*
D03*
X159110D02*
D03*
X172890D02*
D03*
X166748Y126500D02*
D03*
X135252D02*
D03*
D48*
X78000Y422000D02*
D03*
X78358Y238500D02*
D03*
X78000Y382177D02*
D03*
Y299500D02*
D03*
X78358Y158390D02*
D03*
X184169Y535642D02*
D03*
X101492D02*
D03*
X78358Y198890D02*
D03*
X229500Y535500D02*
D03*
X116000Y30776D02*
D03*
X166000D02*
D03*
D49*
X67575Y531496D02*
D03*
Y19685D02*
D03*
X264425Y531496D02*
D03*
Y19685D02*
D03*
X236000Y485394D02*
D03*
X96000D02*
D03*
D50*
X66000Y450630D02*
D03*
Y90630D02*
D03*
X266000Y450630D02*
D03*
Y90630D02*
D03*
X66000Y270630D02*
D03*
X266000D02*
D03*
D51*
X196000Y485394D02*
D03*
X166000D02*
D03*
X236000Y65315D02*
D03*
X196000D02*
D03*
X136000D02*
D03*
X96000D02*
D03*
X136000Y485394D02*
D03*
D52*
X250248Y185000D02*
D03*
X218752D02*
D03*
D53*
X193500Y373500D02*
D03*
Y383500D02*
D03*
Y393500D02*
D03*
X200500Y197000D02*
D03*
Y207000D02*
D03*
Y217000D02*
D03*
X166000Y157000D02*
D03*
X156000D02*
D03*
D54*
X135000Y222055D02*
D03*
X121614D02*
D03*
X135000Y183000D02*
D03*
X121614D02*
D03*
X260000Y146000D02*
D03*
X273386D02*
D03*
X260000Y185055D02*
D03*
X273386D02*
D03*
X239055Y121500D02*
D03*
Y134886D02*
D03*
X200000Y121500D02*
D03*
Y134886D02*
D03*
X176445Y93849D02*
D03*
Y80463D02*
D03*
X215500Y93849D02*
D03*
Y80463D02*
D03*
D55*
X106933Y118000D02*
D03*
X71500D02*
D03*
X146567Y452000D02*
D03*
X182000D02*
D03*
X216500Y22284D02*
D03*
Y57717D02*
D03*
D56*
X157579Y86500D02*
D03*
X117421D02*
D03*
D57*
X184169Y247193D02*
D03*
X218500Y207000D02*
D03*
X222500Y396000D02*
D03*
X260713Y377650D02*
D03*
X209000Y386890D02*
D03*
X214059Y391390D02*
D03*
X204500Y381890D02*
D03*
X192478Y330738D02*
D03*
X198500Y295760D02*
D03*
M02*
