G04*
G04 #@! TF.GenerationSoftware,Altium Limited,Altium Designer,18.1.11 (251)*
G04*
G04 Layer_Physical_Order=1*
G04 Layer_Color=255*
%FSLAX25Y25*%
%MOIN*%
G70*
G01*
G75*
%ADD11C,0.00787*%
%ADD13C,0.03937*%
%ADD15R,0.05118X0.02756*%
%ADD16R,0.04921X0.02362*%
%ADD17R,0.06299X0.11811*%
%ADD18R,0.22835X0.24410*%
%ADD19R,0.11811X0.06299*%
%ADD20R,0.24410X0.22835*%
%ADD21R,0.01968X0.06181*%
%ADD22R,0.00984X0.02953*%
%ADD23R,0.02362X0.06299*%
%ADD24R,0.02953X0.00984*%
%ADD25R,0.14567X0.07874*%
%ADD26R,0.02756X0.05118*%
%ADD27R,0.03150X0.03150*%
%ADD28R,0.07087X0.05512*%
%ADD29R,0.03543X0.05118*%
%ADD30R,0.05118X0.03543*%
%ADD58C,0.11811*%
%ADD59C,0.07874*%
%ADD60C,0.01968*%
%ADD61C,0.05118*%
%ADD62C,0.23622*%
%ADD63C,0.19685*%
%ADD64C,0.11811*%
%ADD65C,0.03150*%
%ADD66C,0.06299*%
%ADD67C,0.07874*%
%ADD68C,0.03937*%
%ADD69C,0.04724*%
%ADD70C,0.05000*%
G36*
X284110Y551181D02*
Y291000D01*
X240399D01*
X239500Y291044D01*
X234171D01*
X233681Y291408D01*
Y295303D01*
X232000D01*
Y291154D01*
X231000D01*
Y295303D01*
X229319D01*
Y291000D01*
X228469D01*
Y295091D01*
X228307D01*
Y296752D01*
X229777Y298223D01*
X230169Y298809D01*
X230306Y299500D01*
Y303472D01*
X231847D01*
Y307803D01*
X225154D01*
Y303472D01*
X226694D01*
Y300248D01*
X225223Y298777D01*
X224831Y298191D01*
X224694Y297500D01*
Y295091D01*
X224532D01*
Y291000D01*
X223469D01*
Y295091D01*
X223306D01*
Y297500D01*
X223169Y298191D01*
X222777Y298777D01*
X220306Y301248D01*
Y303472D01*
X221847D01*
Y307803D01*
X217708D01*
X214991Y310520D01*
X215266Y310953D01*
X215607Y310953D01*
X221847D01*
Y315283D01*
X220306D01*
Y318531D01*
X221925D01*
Y325224D01*
X221566D01*
Y329031D01*
X222319D01*
Y335724D01*
X221566D01*
Y339823D01*
X223831D01*
Y339823D01*
X224169D01*
Y339823D01*
X225434D01*
Y335724D01*
X224681D01*
Y329031D01*
X225434D01*
Y325224D01*
X225075D01*
Y318531D01*
X226694D01*
Y315283D01*
X225154D01*
Y310953D01*
X231847D01*
Y315283D01*
X230307D01*
Y319437D01*
X230169Y320128D01*
X229777Y320714D01*
X229406Y321086D01*
Y325224D01*
X229047D01*
Y329031D01*
X229799D01*
Y335724D01*
X229047D01*
Y339823D01*
X232831D01*
Y346909D01*
X229704D01*
Y347390D01*
X229613Y347851D01*
X229352Y348241D01*
X229352Y348241D01*
X228352Y349241D01*
X227961Y349502D01*
X227500Y349594D01*
X227500Y349594D01*
X217702D01*
X217124Y350172D01*
X217315Y350634D01*
X219000D01*
Y353890D01*
X214957D01*
Y353160D01*
X214476Y352947D01*
X214204Y353164D01*
Y372891D01*
X216897Y375583D01*
X221768D01*
Y374524D01*
X225780D01*
Y372736D01*
X224701D01*
Y366043D01*
X229819D01*
Y372736D01*
X228189D01*
Y374311D01*
X228453D01*
Y376787D01*
X228953D01*
Y377287D01*
X230445D01*
Y379264D01*
X228784D01*
X228577Y379764D01*
X229015Y380201D01*
X232486D01*
X238534Y374152D01*
X238534Y374152D01*
X238925Y373891D01*
X239134Y373850D01*
Y371657D01*
X243661D01*
Y376069D01*
X243740Y376121D01*
X245612Y377993D01*
X245872Y378383D01*
X245964Y378844D01*
Y383543D01*
X247319D01*
Y390236D01*
X242201D01*
Y383543D01*
X243556D01*
Y380122D01*
X239134D01*
Y379839D01*
X238672Y379648D01*
X234079Y384241D01*
X233688Y384502D01*
X233227Y384594D01*
X233227Y384594D01*
X226500D01*
X226039Y384502D01*
X225649Y384241D01*
X225649Y384241D01*
X224649Y383241D01*
X224388Y382851D01*
X224296Y382390D01*
X224296Y382390D01*
Y381655D01*
X224158Y381445D01*
X223856Y381204D01*
X221497D01*
X221306Y381666D01*
X225769Y386129D01*
X226030Y386520D01*
X226071Y386728D01*
X230232D01*
Y391256D01*
X230157D01*
Y393043D01*
X231559D01*
Y399736D01*
X226441D01*
Y397204D01*
X225559D01*
X225372Y397658D01*
X224845Y398345D01*
X224158Y398871D01*
X223358Y399203D01*
X222500Y399316D01*
X221642Y399203D01*
X220842Y398871D01*
X220155Y398345D01*
X219629Y397658D01*
X219297Y396858D01*
X219184Y396000D01*
X219297Y395142D01*
X219629Y394342D01*
X220155Y393655D01*
X220834Y393134D01*
X220919Y393064D01*
X220826Y392594D01*
X217119D01*
X216931Y393048D01*
X216404Y393734D01*
X215717Y394261D01*
X214917Y394592D01*
X214059Y394706D01*
X213201Y394592D01*
X212401Y394261D01*
X211715Y393734D01*
X211188Y393048D01*
X210856Y392248D01*
X210743Y391390D01*
X210856Y390532D01*
X211034Y390103D01*
X210719Y389817D01*
X210629Y389773D01*
X209858Y390092D01*
X209000Y390206D01*
X208142Y390092D01*
X207342Y389761D01*
X206656Y389234D01*
X206129Y388548D01*
X205797Y387748D01*
X205684Y386890D01*
X205797Y386032D01*
X206087Y385332D01*
X205904Y385067D01*
X205729Y384939D01*
X205358Y385092D01*
X204500Y385206D01*
X203642Y385092D01*
X202842Y384761D01*
X202155Y384234D01*
X201629Y383548D01*
X201297Y382748D01*
X201184Y381890D01*
X201297Y381032D01*
X201629Y380232D01*
X202155Y379545D01*
X202842Y379018D01*
X203642Y378687D01*
X204500Y378574D01*
X205358Y378687D01*
X206158Y379018D01*
X206845Y379545D01*
X207372Y380232D01*
X207605Y380796D01*
X211550D01*
X211741Y380334D01*
X209149Y377741D01*
X208888Y377351D01*
X208796Y376890D01*
X208796Y376890D01*
Y352000D01*
X208796Y352000D01*
X208888Y351539D01*
X209149Y351148D01*
X215169Y345128D01*
Y339823D01*
X217954D01*
Y335724D01*
X217201D01*
Y329031D01*
X217954D01*
Y325224D01*
X217595D01*
Y321086D01*
X217223Y320714D01*
X216831Y320128D01*
X216694Y319437D01*
Y315283D01*
X215154D01*
Y311439D01*
X215154Y311065D01*
X214721Y310790D01*
X207234Y318277D01*
X206648Y318669D01*
X205957Y318806D01*
X200571D01*
Y321724D01*
X184429D01*
Y312276D01*
X200571D01*
Y315194D01*
X205209D01*
X215154Y305249D01*
Y303472D01*
X216694D01*
Y300500D01*
X216831Y299809D01*
X217223Y299223D01*
X219694Y296752D01*
Y295091D01*
X219532D01*
Y294383D01*
X219032Y294284D01*
X218907Y294584D01*
X218466Y295159D01*
X216159Y297465D01*
X215584Y297907D01*
X214913Y298185D01*
X214194Y298280D01*
X209591D01*
X209000Y298202D01*
X208410Y298280D01*
X201847D01*
Y298319D01*
X200565D01*
X200158Y298631D01*
X199358Y298963D01*
X198500Y299076D01*
X197642Y298963D01*
X196842Y298631D01*
X196435Y298319D01*
X195153D01*
Y293201D01*
X196435D01*
X196842Y292888D01*
X197642Y292557D01*
X198500Y292444D01*
X199358Y292557D01*
X199752Y292720D01*
X208410D01*
X209000Y292798D01*
X209591Y292720D01*
X213042D01*
X213720Y292042D01*
Y291544D01*
X213266Y291044D01*
X112565Y291044D01*
X112287Y291460D01*
X112402Y291737D01*
X112433Y291970D01*
X131465Y311003D01*
X131907Y311579D01*
X132185Y312249D01*
X132280Y312968D01*
Y460782D01*
X132958Y461460D01*
X140740D01*
X141460Y461555D01*
X142130Y461833D01*
X142706Y462275D01*
X151534Y471103D01*
X151975Y471678D01*
X152253Y472349D01*
X152348Y473068D01*
Y490873D01*
X152253Y491592D01*
X151975Y492263D01*
X151534Y492838D01*
X139232Y505140D01*
X139201Y505374D01*
X138864Y506188D01*
X138328Y506887D01*
X137629Y507423D01*
X136978Y507693D01*
X137077Y508193D01*
X148029D01*
X148128Y507693D01*
X147926Y507609D01*
X147182Y507038D01*
X146612Y506295D01*
X146253Y505429D01*
X146196Y505000D01*
X153244D01*
X153188Y505429D01*
X152829Y506295D01*
X152259Y507038D01*
X151515Y507609D01*
X151313Y507693D01*
X151412Y508193D01*
X161808D01*
X161908Y507693D01*
X161705Y507609D01*
X160962Y507038D01*
X160391Y506295D01*
X160033Y505429D01*
X159976Y505000D01*
X167024D01*
X166967Y505429D01*
X166609Y506295D01*
X166038Y507038D01*
X165295Y507609D01*
X165092Y507693D01*
X165192Y508193D01*
X169656D01*
X173988Y503860D01*
X174019Y503626D01*
X174356Y502812D01*
X174893Y502113D01*
X175592Y501577D01*
X176275Y501294D01*
X189744Y487825D01*
X189404Y486706D01*
X189275Y485394D01*
X189404Y484082D01*
X189719Y483044D01*
X180034Y473359D01*
X179593Y472783D01*
X179315Y472113D01*
X179220Y471394D01*
Y452000D01*
Y385000D01*
X179315Y384281D01*
X179593Y383610D01*
X180034Y383034D01*
X189534Y373535D01*
X189529Y373500D01*
X189664Y372472D01*
X190061Y371515D01*
X190692Y370692D01*
X190720Y370670D01*
Y352651D01*
X184379Y346310D01*
X183917Y346502D01*
Y358484D01*
X159083D01*
Y345779D01*
X171472D01*
X171472Y345280D01*
X170753Y345185D01*
X170083Y344907D01*
X169507Y344465D01*
X162451Y337409D01*
X158508D01*
Y333496D01*
X154347D01*
Y333579D01*
X152417D01*
X152113Y333705D01*
X151394Y333799D01*
X151000D01*
X150281Y333705D01*
X149977Y333579D01*
X147653D01*
Y328461D01*
X148720D01*
Y311480D01*
X148154D01*
Y307150D01*
X149795D01*
X150110Y306908D01*
X150781Y306630D01*
X151500Y306535D01*
X152219Y306630D01*
X152890Y306908D01*
X153205Y307150D01*
X154847D01*
Y311480D01*
X154280D01*
Y327937D01*
X158508D01*
Y324024D01*
X166382D01*
Y333478D01*
X172624Y339720D01*
X184500D01*
X185219Y339815D01*
X185890Y340093D01*
X186466Y340534D01*
X195466Y349535D01*
X195907Y350110D01*
X196185Y350781D01*
X196280Y351500D01*
Y370670D01*
X196308Y370692D01*
X196939Y371515D01*
X197336Y372472D01*
X197471Y373500D01*
X197336Y374528D01*
X196939Y375485D01*
X196308Y376308D01*
X195485Y376939D01*
X194528Y377336D01*
X193500Y377471D01*
X193465Y377466D01*
X191338Y379593D01*
X191621Y380017D01*
X192472Y379664D01*
X193500Y379529D01*
X194528Y379664D01*
X195485Y380061D01*
X196308Y380692D01*
X196939Y381515D01*
X197336Y382472D01*
X197471Y383500D01*
X197336Y384528D01*
X196939Y385486D01*
X196308Y386308D01*
X195485Y386939D01*
X194528Y387336D01*
X193500Y387471D01*
X192472Y387336D01*
X191515Y386939D01*
X190692Y386308D01*
X190061Y385486D01*
X189664Y384528D01*
X189529Y383500D01*
X189664Y382472D01*
X190017Y381621D01*
X189593Y381338D01*
X184780Y386151D01*
Y449220D01*
X202606D01*
X203326Y449315D01*
X203996Y449593D01*
X204572Y450035D01*
X229276Y474739D01*
X230263Y474134D01*
X232095Y473375D01*
X234023Y472912D01*
X236000Y472756D01*
X237977Y472912D01*
X239905Y473375D01*
X241737Y474134D01*
X243428Y475170D01*
X244936Y476458D01*
X246224Y477966D01*
X247260Y479657D01*
X248019Y481489D01*
X248482Y483417D01*
X248638Y485394D01*
X248482Y487371D01*
X248019Y489299D01*
X247260Y491131D01*
X246224Y492822D01*
X244936Y494330D01*
X243428Y495618D01*
X241737Y496654D01*
X239905Y497413D01*
X237977Y497875D01*
X236000Y498031D01*
X234023Y497875D01*
X232095Y497413D01*
X230263Y496654D01*
X228572Y495618D01*
X227064Y494330D01*
X225776Y492822D01*
X224740Y491131D01*
X223981Y489299D01*
X223518Y487371D01*
X223363Y485394D01*
X223518Y483417D01*
X223981Y481489D01*
X224740Y479657D01*
X225345Y478670D01*
X201455Y454780D01*
X184780D01*
Y470242D01*
X193650Y479112D01*
X194688Y478798D01*
X196000Y478668D01*
X197312Y478798D01*
X198574Y479180D01*
X199736Y479802D01*
X200756Y480638D01*
X201592Y481657D01*
X202214Y482820D01*
X202596Y484082D01*
X202725Y485394D01*
X202596Y486706D01*
X202214Y487967D01*
X201592Y489130D01*
X200756Y490149D01*
X199736Y490986D01*
X198574Y491607D01*
X197312Y491990D01*
X196000Y492119D01*
X194688Y491990D01*
X193731Y491700D01*
X180613Y504818D01*
X180540Y505374D01*
X180203Y506188D01*
X179666Y506887D01*
X178967Y507423D01*
X178153Y507760D01*
X177919Y507791D01*
X173452Y512258D01*
X173644Y512720D01*
X210317D01*
X219319Y503718D01*
X219350Y503485D01*
X219605Y502870D01*
Y501276D01*
X211234Y492906D01*
X209653D01*
Y488575D01*
X211295D01*
X211610Y488333D01*
X212281Y488055D01*
X213000Y487960D01*
X213719Y488055D01*
X214390Y488333D01*
X214705Y488575D01*
X216347D01*
Y490156D01*
X224350Y498159D01*
X224792Y498735D01*
X225069Y499405D01*
X225164Y500124D01*
Y501579D01*
X234515D01*
X234702Y501435D01*
X235516Y501098D01*
X236390Y500983D01*
X237263Y501098D01*
X238077Y501435D01*
X238776Y501972D01*
X239313Y502671D01*
X239650Y503485D01*
X239765Y504358D01*
X239650Y505232D01*
X239313Y506046D01*
X238776Y506745D01*
X238077Y507281D01*
X237263Y507619D01*
X236390Y507734D01*
X235516Y507619D01*
X234702Y507281D01*
X234515Y507138D01*
X224485D01*
X224298Y507281D01*
X223484Y507619D01*
X223250Y507649D01*
X213434Y517465D01*
X212858Y517907D01*
X212188Y518185D01*
X211469Y518280D01*
X105602D01*
X104883Y518185D01*
X104212Y517907D01*
X103637Y517465D01*
X93962Y507791D01*
X93729Y507760D01*
X92915Y507423D01*
X92216Y506887D01*
X91679Y506188D01*
X91342Y505374D01*
X91311Y505140D01*
X79664Y493493D01*
X79223Y492917D01*
X78945Y492247D01*
X78850Y491528D01*
Y472370D01*
X78945Y471651D01*
X79223Y470980D01*
X79664Y470404D01*
X97720Y452349D01*
Y328811D01*
X97815Y328092D01*
X98093Y327421D01*
X98535Y326846D01*
X105851Y319529D01*
X105881Y319296D01*
X106219Y318482D01*
X106755Y317783D01*
X107454Y317246D01*
X108268Y316909D01*
X109142Y316794D01*
X110015Y316909D01*
X110829Y317246D01*
X111528Y317783D01*
X112065Y318482D01*
X112402Y319296D01*
X112517Y320169D01*
X112402Y321043D01*
X112065Y321857D01*
X111528Y322556D01*
X110829Y323092D01*
X110015Y323430D01*
X109782Y323460D01*
X103280Y329962D01*
Y453500D01*
X103185Y454219D01*
X102907Y454890D01*
X102465Y455466D01*
X84410Y473521D01*
Y478832D01*
X84910Y478973D01*
X85604Y477840D01*
X86913Y476307D01*
X88447Y474997D01*
X90166Y473944D01*
X92029Y473172D01*
X93990Y472701D01*
X95500Y472582D01*
Y485394D01*
Y498205D01*
X93990Y498086D01*
X92459Y497719D01*
X92205Y498172D01*
X95242Y501209D01*
X95476Y501240D01*
X96290Y501577D01*
X96989Y502113D01*
X97526Y502812D01*
X97863Y503626D01*
X97893Y503860D01*
X106754Y512720D01*
X117164D01*
X117355Y512258D01*
X112294Y507198D01*
X111853Y506622D01*
X111756Y506390D01*
X111662Y506348D01*
X111192Y506335D01*
X110769Y506887D01*
X110070Y507423D01*
X109256Y507760D01*
X108382Y507875D01*
X107508Y507760D01*
X106694Y507423D01*
X105995Y506887D01*
X105459Y506188D01*
X105122Y505374D01*
X105007Y504500D01*
X105122Y503626D01*
X105459Y502812D01*
X105995Y502113D01*
X106694Y501577D01*
X107508Y501240D01*
X108382Y501125D01*
X109256Y501240D01*
X110070Y501577D01*
X110769Y502113D01*
X110980Y502389D01*
X111480Y502219D01*
Y473000D01*
X111575Y472281D01*
X111853Y471610D01*
X112094Y471295D01*
Y469654D01*
X116425D01*
Y471295D01*
X116667Y471610D01*
X116945Y472281D01*
X117040Y473000D01*
Y504081D01*
X118416Y505457D01*
X118880Y505214D01*
X118786Y504500D01*
X118901Y503626D01*
X119090Y503169D01*
Y473804D01*
X119055Y473719D01*
X118960Y473000D01*
X119055Y472281D01*
X119220Y471882D01*
Y320399D01*
X108502Y309681D01*
X108268Y309650D01*
X107454Y309313D01*
X106755Y308776D01*
X106219Y308077D01*
X105881Y307263D01*
X105766Y306390D01*
X105881Y305516D01*
X106219Y304702D01*
X106755Y304003D01*
X107454Y303467D01*
X108268Y303129D01*
X109142Y303014D01*
X110015Y303129D01*
X110829Y303467D01*
X111528Y304003D01*
X112065Y304702D01*
X112402Y305516D01*
X112433Y305750D01*
X123966Y317283D01*
X124407Y317858D01*
X124685Y318529D01*
X124780Y319248D01*
Y472740D01*
X124685Y473460D01*
X124650Y473545D01*
Y502246D01*
X125084Y502812D01*
X125422Y503626D01*
X125537Y504500D01*
X125422Y505374D01*
X125084Y506188D01*
X124548Y506887D01*
X123849Y507423D01*
X123198Y507693D01*
X123298Y508193D01*
X134805D01*
X134904Y507693D01*
X134253Y507423D01*
X133554Y506887D01*
X133018Y506188D01*
X132681Y505374D01*
X132566Y504500D01*
X132681Y503626D01*
X133018Y502812D01*
X133554Y502113D01*
X134253Y501577D01*
X135067Y501240D01*
X135301Y501209D01*
X146788Y489721D01*
Y474220D01*
X139589Y467020D01*
X131806D01*
X131087Y466925D01*
X130416Y466647D01*
X129841Y466206D01*
X127534Y463899D01*
X127093Y463324D01*
X126815Y462653D01*
X126720Y461934D01*
Y314120D01*
X108502Y295901D01*
X108268Y295871D01*
X107454Y295533D01*
X106755Y294997D01*
X106219Y294298D01*
X105881Y293484D01*
X105766Y292610D01*
X105881Y291737D01*
X105962Y291543D01*
X105634Y291026D01*
X105102Y291000D01*
X47890D01*
X47890Y551181D01*
X284110Y551181D01*
D02*
G37*
G36*
X132718Y251627D02*
X213266Y251627D01*
X214130D01*
X214532Y251390D01*
X214532Y251127D01*
Y249973D01*
X185947D01*
X185827Y250064D01*
X185028Y250396D01*
X184169Y250509D01*
X183311Y250396D01*
X182511Y250064D01*
X181825Y249537D01*
X181298Y248851D01*
X180966Y248051D01*
X180853Y247193D01*
X180966Y246335D01*
X181298Y245535D01*
X181825Y244848D01*
X182511Y244321D01*
X183311Y243990D01*
X184169Y243877D01*
X185028Y243990D01*
X185827Y244321D01*
X185947Y244413D01*
X214532D01*
Y243516D01*
X216431D01*
X216623Y243054D01*
X207535Y233965D01*
X207093Y233390D01*
X206815Y232719D01*
X206720Y232000D01*
Y231280D01*
X185151D01*
X177362Y239069D01*
Y246224D01*
X161221D01*
Y236776D01*
X171793D01*
X182035Y226535D01*
X182610Y226093D01*
X183281Y225815D01*
X184000Y225720D01*
X206720D01*
Y189740D01*
X206815Y189021D01*
X207093Y188350D01*
X207535Y187775D01*
X208154Y187155D01*
Y185575D01*
X209734D01*
X212171Y183138D01*
X212025Y182638D01*
X212000D01*
Y180760D01*
X215059D01*
Y182220D01*
X218752D01*
X219471Y182315D01*
X220142Y182593D01*
X220718Y183035D01*
X221159Y183610D01*
X221437Y184281D01*
X221532Y185000D01*
X221437Y185719D01*
X221159Y186390D01*
X220718Y186966D01*
X220142Y187407D01*
X219471Y187685D01*
X218752Y187780D01*
X215391D01*
X214846Y188325D01*
Y189906D01*
X213266D01*
X212280Y190892D01*
Y228500D01*
Y230849D01*
X223220Y241789D01*
X223720Y241582D01*
Y236668D01*
X223815Y235949D01*
X224093Y235278D01*
X224535Y234703D01*
X227084Y232153D01*
X227410Y231903D01*
X229153Y230159D01*
Y228579D01*
X228947Y228164D01*
X228255Y227473D01*
X227752D01*
X227033Y227378D01*
X226362Y227100D01*
X225790Y226661D01*
X224504D01*
Y222724D01*
X225790D01*
X226362Y222286D01*
X227033Y222008D01*
X227752Y221913D01*
X229406D01*
X230126Y222008D01*
X230796Y222286D01*
X231372Y222727D01*
X234072Y225427D01*
X234514Y226003D01*
X234791Y226673D01*
X234886Y227393D01*
Y228579D01*
X235846D01*
Y233697D01*
X233523D01*
X233446Y233729D01*
X231791Y235384D01*
X231982Y235846D01*
X232000D01*
Y238618D01*
Y241390D01*
X229280D01*
Y242819D01*
X229319Y243303D01*
X229780Y243303D01*
X231000D01*
Y247453D01*
X231500D01*
Y247953D01*
X233681D01*
Y251127D01*
X234171Y251627D01*
X239500D01*
Y147000D01*
X216847D01*
X216513Y147500D01*
X216590Y147686D01*
X216685Y148406D01*
Y155831D01*
X216590Y156550D01*
X216313Y157221D01*
X215871Y157796D01*
X215677Y157945D01*
Y159709D01*
X212134D01*
Y157945D01*
X211940Y157796D01*
X211498Y157221D01*
X211221Y156550D01*
X211126Y155831D01*
Y149557D01*
X209349Y147780D01*
X172500D01*
X171781Y147685D01*
X171110Y147407D01*
X170535Y146966D01*
X164783Y141214D01*
X164341Y140638D01*
X164063Y139968D01*
X163968Y139248D01*
Y128375D01*
X163825Y128188D01*
X163488Y127374D01*
X163373Y126500D01*
X163488Y125626D01*
X163825Y124812D01*
X164361Y124113D01*
X165060Y123577D01*
X165874Y123240D01*
X166476Y123161D01*
X170102Y119535D01*
X170678Y119093D01*
X171348Y118815D01*
X172068Y118720D01*
X190922D01*
X191274Y118365D01*
X191242Y114621D01*
X167500D01*
X166111Y114484D01*
X164775Y114079D01*
X163544Y113421D01*
X162465Y112535D01*
X152543Y102614D01*
X151658Y101535D01*
X151000Y100304D01*
X150595Y98968D01*
X150458Y97579D01*
Y86500D01*
X150595Y85111D01*
X151000Y83775D01*
X151658Y82544D01*
X152543Y81465D01*
X153623Y80579D01*
X154854Y79921D01*
X156190Y79516D01*
X157579Y79379D01*
X158968Y79516D01*
X160304Y79921D01*
X161535Y80579D01*
X162614Y81465D01*
X163499Y82544D01*
X164158Y83775D01*
X164563Y85111D01*
X164700Y86500D01*
Y94629D01*
X170450Y100379D01*
X173403D01*
X173528Y99879D01*
X172708Y99441D01*
X171689Y98605D01*
X170853Y97585D01*
X170231Y96423D01*
X169849Y95161D01*
X169720Y93849D01*
Y80463D01*
Y68643D01*
X161896D01*
X130225Y100313D01*
Y168714D01*
X139755Y178244D01*
X140592Y179264D01*
X141213Y180426D01*
X141596Y181688D01*
X141664Y182375D01*
X141725Y183000D01*
X141661Y183656D01*
X141596Y184312D01*
X141213Y185574D01*
X140592Y186736D01*
X139755Y187756D01*
X138736Y188592D01*
X137574Y189213D01*
X136312Y189596D01*
X135656Y189661D01*
X135000Y189725D01*
X135000Y189725D01*
X121614D01*
X120302Y189596D01*
X119041Y189213D01*
X117878Y188592D01*
X116859Y187756D01*
X116022Y186736D01*
X115401Y185574D01*
X115018Y184312D01*
X114889Y183000D01*
X115018Y181688D01*
X115401Y180426D01*
X116022Y179264D01*
X116859Y178244D01*
X117878Y177408D01*
X118733Y176951D01*
X118832Y176343D01*
X118745Y176256D01*
X117908Y175236D01*
X117287Y174074D01*
X116904Y172812D01*
X116775Y171500D01*
Y97528D01*
X116904Y96215D01*
X117287Y94954D01*
X117908Y93791D01*
X118745Y92772D01*
X140999Y70517D01*
X140663Y70147D01*
X140474Y70302D01*
X139736Y70907D01*
X138574Y71528D01*
X137312Y71911D01*
X136000Y72040D01*
X134688Y71911D01*
X133426Y71528D01*
X132264Y70907D01*
X131245Y70070D01*
X130408Y69051D01*
X129787Y67889D01*
X129404Y66627D01*
X129275Y65315D01*
X129404Y64003D01*
X129787Y62741D01*
X130408Y61579D01*
X131245Y60559D01*
X132264Y59723D01*
X133426Y59102D01*
X134688Y58719D01*
X136000Y58590D01*
X137312Y58719D01*
X138574Y59102D01*
X139736Y59723D01*
X140756Y60559D01*
X141592Y61579D01*
X142213Y62741D01*
X142596Y64003D01*
X142725Y65315D01*
X142596Y66627D01*
X142213Y67889D01*
X141592Y69051D01*
X140987Y69789D01*
X140832Y69978D01*
X141203Y70314D01*
X154355Y57162D01*
X155161Y56500D01*
X154982Y56000D01*
X106001Y56000D01*
Y59345D01*
X106475Y59505D01*
X106572Y59379D01*
X107315Y58808D01*
X108181Y58450D01*
X108610Y58393D01*
Y61917D01*
Y65441D01*
X108181Y65385D01*
X107315Y65026D01*
X106572Y64456D01*
X106475Y64329D01*
X106001Y64490D01*
Y114665D01*
X106433Y115008D01*
Y118000D01*
Y120992D01*
X106001Y121335D01*
Y149392D01*
X106501Y149561D01*
X106962Y148962D01*
X107705Y148391D01*
X108571Y148033D01*
X109000Y147976D01*
Y151500D01*
Y155024D01*
X108571Y154967D01*
X107705Y154609D01*
X106962Y154038D01*
X106501Y153439D01*
X106001Y153608D01*
Y163171D01*
X106501Y163341D01*
X106962Y162741D01*
X107705Y162171D01*
X108571Y161812D01*
X109000Y161756D01*
Y165279D01*
Y168803D01*
X108571Y168747D01*
X107705Y168388D01*
X106962Y167818D01*
X106501Y167218D01*
X106001Y167388D01*
Y185795D01*
X106430Y186052D01*
X106926Y185787D01*
X108188Y185404D01*
X109500Y185275D01*
X110812Y185404D01*
X112074Y185787D01*
X113236Y186408D01*
X114255Y187244D01*
X115092Y188264D01*
X115713Y189426D01*
X116096Y190688D01*
X116225Y192000D01*
Y207155D01*
X124400Y215330D01*
X135000D01*
X136312Y215459D01*
X137574Y215842D01*
X138736Y216463D01*
X139755Y217300D01*
X140592Y218319D01*
X141213Y219481D01*
X141596Y220743D01*
X141725Y222055D01*
X141596Y223367D01*
X141213Y224629D01*
X140592Y225792D01*
X139755Y226811D01*
X138736Y227647D01*
X137574Y228269D01*
X136312Y228651D01*
X135000Y228780D01*
X121614D01*
X120302Y228651D01*
X119041Y228269D01*
X117878Y227647D01*
X116859Y226811D01*
X106463Y216415D01*
X106001Y216607D01*
Y229502D01*
X106501Y229672D01*
X106962Y229072D01*
X107705Y228501D01*
X108571Y228143D01*
X109000Y228086D01*
Y231610D01*
Y235134D01*
X108571Y235078D01*
X107705Y234719D01*
X106962Y234149D01*
X106501Y233549D01*
X106001Y233719D01*
Y243785D01*
X106501Y243884D01*
X106577Y243702D01*
X107113Y243003D01*
X107812Y242467D01*
X108626Y242129D01*
X109500Y242014D01*
X110374Y242129D01*
X111188Y242467D01*
X111375Y242610D01*
X139459D01*
X167690Y214379D01*
X167498Y213917D01*
X156516D01*
Y201500D01*
Y189083D01*
X166998D01*
X167190Y188621D01*
X162927Y184358D01*
X152579D01*
X151859Y184264D01*
X151189Y183986D01*
X150613Y183544D01*
X145582Y178513D01*
X145140Y177937D01*
X144862Y177267D01*
X144768Y176547D01*
Y174280D01*
X144760D01*
X144040Y174185D01*
X143370Y173907D01*
X142794Y173466D01*
X135734Y166405D01*
X134153D01*
Y162075D01*
X135795D01*
X136110Y161833D01*
X136781Y161555D01*
X137500Y161460D01*
X138219Y161555D01*
X138890Y161833D01*
X139205Y162075D01*
X140847D01*
Y163655D01*
X145911Y168720D01*
X147547D01*
X148267Y168815D01*
X148937Y169093D01*
X148996Y169138D01*
X149909D01*
Y170051D01*
X149954Y170110D01*
X150232Y170781D01*
X150327Y171500D01*
Y175396D01*
X153730Y178799D01*
X164079D01*
X164798Y178894D01*
X165469Y179172D01*
X166044Y179613D01*
X174966Y188534D01*
X175407Y189110D01*
X175685Y189781D01*
X175780Y190500D01*
Y213000D01*
X175685Y213719D01*
X175407Y214390D01*
X174966Y214966D01*
X142576Y247355D01*
X142000Y247797D01*
X141330Y248075D01*
X140610Y248169D01*
X111375D01*
X111188Y248313D01*
X110374Y248650D01*
X109500Y248765D01*
X108626Y248650D01*
X107812Y248313D01*
X107113Y247777D01*
X106577Y247077D01*
X106501Y246895D01*
X106001Y246995D01*
Y251277D01*
X106501Y251623D01*
X106603Y251621D01*
X106686Y251627D01*
X132718D01*
D02*
G37*
%LPC*%
G36*
X264925Y544307D02*
Y531996D01*
X277237D01*
X277118Y533506D01*
X276647Y535467D01*
X275875Y537330D01*
X274822Y539049D01*
X273512Y540583D01*
X271979Y541892D01*
X270259Y542946D01*
X268396Y543718D01*
X266436Y544188D01*
X264925Y544307D01*
D02*
G37*
G36*
X68075D02*
Y531996D01*
X80386D01*
X80267Y533506D01*
X79796Y535467D01*
X79025Y537330D01*
X77971Y539049D01*
X76662Y540583D01*
X75128Y541892D01*
X73409Y542946D01*
X71546Y543718D01*
X69585Y544188D01*
X68075Y544307D01*
D02*
G37*
G36*
X263925D02*
X262415Y544188D01*
X260454Y543718D01*
X258591Y542946D01*
X256872Y541892D01*
X255338Y540583D01*
X254029Y539049D01*
X252975Y537330D01*
X252203Y535467D01*
X251733Y533506D01*
X251614Y531996D01*
X263925D01*
Y544307D01*
D02*
G37*
G36*
X67075D02*
X65565Y544188D01*
X63604Y543718D01*
X61741Y542946D01*
X60021Y541892D01*
X58488Y540583D01*
X57178Y539049D01*
X56125Y537330D01*
X55353Y535467D01*
X54882Y533506D01*
X54764Y531996D01*
X67075D01*
Y544307D01*
D02*
G37*
G36*
X184169Y542367D02*
X182857Y542238D01*
X181596Y541855D01*
X180433Y541234D01*
X179414Y540397D01*
X178577Y539378D01*
X177956Y538215D01*
X177573Y536954D01*
X177444Y535642D01*
X177573Y534330D01*
X177956Y533068D01*
X178577Y531905D01*
X179414Y530886D01*
X180433Y530050D01*
X181596Y529428D01*
X182857Y529046D01*
X184169Y528916D01*
X185481Y529046D01*
X186743Y529428D01*
X187906Y530050D01*
X188925Y530886D01*
X189761Y531905D01*
X190383Y533068D01*
X190765Y534330D01*
X190895Y535642D01*
X190765Y536954D01*
X190383Y538215D01*
X189761Y539378D01*
X188925Y540397D01*
X187906Y541234D01*
X186743Y541855D01*
X185481Y542238D01*
X184169Y542367D01*
D02*
G37*
G36*
X101492D02*
X100180Y542238D01*
X98918Y541855D01*
X97756Y541234D01*
X96737Y540397D01*
X95900Y539378D01*
X95279Y538215D01*
X94896Y536954D01*
X94767Y535642D01*
X94896Y534330D01*
X95279Y533068D01*
X95900Y531905D01*
X96737Y530886D01*
X97756Y530050D01*
X98918Y529428D01*
X100180Y529046D01*
X101492Y528916D01*
X102804Y529046D01*
X104066Y529428D01*
X105228Y530050D01*
X106248Y530886D01*
X107084Y531905D01*
X107705Y533068D01*
X108088Y534330D01*
X108217Y535642D01*
X108088Y536954D01*
X107705Y538215D01*
X107084Y539378D01*
X106248Y540397D01*
X105228Y541234D01*
X104066Y541855D01*
X102804Y542238D01*
X101492Y542367D01*
D02*
G37*
G36*
X229500Y542225D02*
X228188Y542096D01*
X226926Y541713D01*
X225764Y541092D01*
X224745Y540255D01*
X223908Y539236D01*
X223287Y538074D01*
X222904Y536812D01*
X222775Y535500D01*
X222904Y534188D01*
X223287Y532926D01*
X223908Y531764D01*
X224745Y530745D01*
X225764Y529908D01*
X226926Y529287D01*
X228188Y528904D01*
X229500Y528775D01*
X230812Y528904D01*
X232074Y529287D01*
X233236Y529908D01*
X234256Y530745D01*
X235092Y531764D01*
X235713Y532926D01*
X236096Y534188D01*
X236225Y535500D01*
X236096Y536812D01*
X235713Y538074D01*
X235092Y539236D01*
X234256Y540255D01*
X233236Y541092D01*
X232074Y541713D01*
X230812Y542096D01*
X229500Y542225D01*
D02*
G37*
G36*
X277237Y530996D02*
X264925D01*
Y518685D01*
X266436Y518804D01*
X268396Y519274D01*
X270259Y520046D01*
X271979Y521100D01*
X273512Y522409D01*
X274822Y523943D01*
X275875Y525662D01*
X276647Y527525D01*
X277118Y529486D01*
X277237Y530996D01*
D02*
G37*
G36*
X80386D02*
X68075D01*
Y518685D01*
X69585Y518804D01*
X71546Y519274D01*
X73409Y520046D01*
X75128Y521100D01*
X76662Y522409D01*
X77971Y523943D01*
X79025Y525662D01*
X79796Y527525D01*
X80267Y529486D01*
X80386Y530996D01*
D02*
G37*
G36*
X263925D02*
X251614D01*
X251733Y529486D01*
X252203Y527525D01*
X252975Y525662D01*
X254029Y523943D01*
X255338Y522409D01*
X256872Y521100D01*
X258591Y520046D01*
X260454Y519274D01*
X262415Y518804D01*
X263925Y518685D01*
Y530996D01*
D02*
G37*
G36*
X67075D02*
X54764D01*
X54882Y529486D01*
X55353Y527525D01*
X56125Y525662D01*
X57178Y523943D01*
X58488Y522409D01*
X60021Y521100D01*
X61741Y520046D01*
X63604Y519274D01*
X65565Y518804D01*
X67075Y518685D01*
Y530996D01*
D02*
G37*
G36*
X191559Y508024D02*
Y505000D01*
X194583D01*
X194527Y505429D01*
X194168Y506295D01*
X193597Y507038D01*
X192854Y507609D01*
X191988Y507967D01*
X191559Y508024D01*
D02*
G37*
G36*
X190559D02*
X190130Y507967D01*
X189264Y507609D01*
X188521Y507038D01*
X187950Y506295D01*
X187592Y505429D01*
X187535Y505000D01*
X190559D01*
Y508024D01*
D02*
G37*
G36*
X194583Y504000D02*
X191559D01*
Y500976D01*
X191988Y501033D01*
X192854Y501391D01*
X193597Y501962D01*
X194168Y502705D01*
X194527Y503571D01*
X194583Y504000D01*
D02*
G37*
G36*
X190559D02*
X187535D01*
X187592Y503571D01*
X187950Y502705D01*
X188521Y501962D01*
X189264Y501391D01*
X190130Y501033D01*
X190559Y500976D01*
Y504000D01*
D02*
G37*
G36*
X167024D02*
X164000D01*
Y500976D01*
X164429Y501033D01*
X165295Y501391D01*
X166038Y501962D01*
X166609Y502705D01*
X166967Y503571D01*
X167024Y504000D01*
D02*
G37*
G36*
X163000D02*
X159976D01*
X160033Y503571D01*
X160391Y502705D01*
X160962Y501962D01*
X161705Y501391D01*
X162571Y501033D01*
X163000Y500976D01*
Y504000D01*
D02*
G37*
G36*
X153244D02*
X150221D01*
Y500976D01*
X150650Y501033D01*
X151515Y501391D01*
X152259Y501962D01*
X152829Y502705D01*
X153188Y503571D01*
X153244Y504000D01*
D02*
G37*
G36*
X149221D02*
X146196D01*
X146253Y503571D01*
X146612Y502705D01*
X147182Y501962D01*
X147926Y501391D01*
X148791Y501033D01*
X149221Y500976D01*
Y504000D01*
D02*
G37*
G36*
X136500Y492283D02*
Y485894D01*
X142890D01*
X142806Y486747D01*
X142411Y488049D01*
X141770Y489249D01*
X140907Y490300D01*
X139855Y491163D01*
X138655Y491804D01*
X137354Y492199D01*
X136500Y492283D01*
D02*
G37*
G36*
X96500Y498205D02*
Y485894D01*
X108811D01*
X108693Y487404D01*
X108222Y489365D01*
X107450Y491228D01*
X106396Y492947D01*
X105087Y494481D01*
X103553Y495790D01*
X101834Y496844D01*
X99971Y497615D01*
X98010Y498086D01*
X96500Y498205D01*
D02*
G37*
G36*
X135500Y492283D02*
X134646Y492199D01*
X133345Y491804D01*
X132145Y491163D01*
X131094Y490300D01*
X130231Y489249D01*
X129589Y488049D01*
X129194Y486747D01*
X129110Y485894D01*
X135500D01*
Y492283D01*
D02*
G37*
G36*
X216559Y485638D02*
X213500D01*
Y483760D01*
X216559D01*
Y485638D01*
D02*
G37*
G36*
X212500D02*
X209441D01*
Y483760D01*
X212500D01*
Y485638D01*
D02*
G37*
G36*
X216559Y482760D02*
X213500D01*
Y480882D01*
X216559D01*
Y482760D01*
D02*
G37*
G36*
X212500D02*
X209441D01*
Y480882D01*
X212500D01*
Y482760D01*
D02*
G37*
G36*
X166000Y492119D02*
X164688Y491990D01*
X163426Y491607D01*
X162264Y490986D01*
X161245Y490149D01*
X160408Y489130D01*
X159787Y487967D01*
X159404Y486706D01*
X159275Y485394D01*
X159404Y484082D01*
X159787Y482820D01*
X160408Y481657D01*
X161245Y480638D01*
X162264Y479802D01*
X163426Y479180D01*
X164688Y478798D01*
X166000Y478668D01*
X167312Y478798D01*
X168574Y479180D01*
X169737Y479802D01*
X170756Y480638D01*
X171592Y481657D01*
X172213Y482820D01*
X172596Y484082D01*
X172725Y485394D01*
X172596Y486706D01*
X172213Y487967D01*
X171592Y489130D01*
X170756Y490149D01*
X169737Y490986D01*
X168574Y491607D01*
X167312Y491990D01*
X166000Y492119D01*
D02*
G37*
G36*
X135500Y484894D02*
X129110D01*
X129194Y484040D01*
X129589Y482738D01*
X130231Y481539D01*
X131094Y480487D01*
X132145Y479624D01*
X133345Y478983D01*
X134646Y478588D01*
X135500Y478504D01*
Y484894D01*
D02*
G37*
G36*
X142890D02*
X136500D01*
Y478504D01*
X137354Y478588D01*
X138655Y478983D01*
X139855Y479624D01*
X140907Y480487D01*
X141770Y481539D01*
X142411Y482738D01*
X142806Y484040D01*
X142890Y484894D01*
D02*
G37*
G36*
X108811D02*
X96500D01*
Y472582D01*
X98010Y472701D01*
X99971Y473172D01*
X101834Y473944D01*
X103553Y474997D01*
X105087Y476307D01*
X106396Y477840D01*
X107450Y479560D01*
X108222Y481423D01*
X108693Y483383D01*
X108811Y484894D01*
D02*
G37*
G36*
X140559Y459138D02*
X137500D01*
Y457260D01*
X140559D01*
Y459138D01*
D02*
G37*
G36*
X136500D02*
X133441D01*
Y457260D01*
X136500D01*
Y459138D01*
D02*
G37*
G36*
X140559Y456260D02*
X137500D01*
Y454382D01*
X140559D01*
Y456260D01*
D02*
G37*
G36*
X136500D02*
X133441D01*
Y454382D01*
X136500D01*
Y456260D01*
D02*
G37*
G36*
X147067Y454928D02*
Y452500D01*
X149495D01*
X149459Y452775D01*
X149160Y453497D01*
X148684Y454117D01*
X148064Y454593D01*
X147342Y454892D01*
X147067Y454928D01*
D02*
G37*
G36*
X146067D02*
X145792Y454892D01*
X145070Y454593D01*
X144450Y454117D01*
X143974Y453497D01*
X143675Y452775D01*
X143639Y452500D01*
X146067D01*
Y454928D01*
D02*
G37*
G36*
X66500Y461467D02*
Y451130D01*
X76837D01*
X76742Y452331D01*
X76344Y453991D01*
X75691Y455568D01*
X74799Y457023D01*
X73691Y458320D01*
X72393Y459429D01*
X70938Y460321D01*
X69361Y460974D01*
X67702Y461372D01*
X66500Y461467D01*
D02*
G37*
G36*
X65500D02*
X64299Y461372D01*
X62639Y460974D01*
X61063Y460321D01*
X59607Y459429D01*
X58310Y458320D01*
X57201Y457023D01*
X56309Y455568D01*
X55656Y453991D01*
X55258Y452331D01*
X55163Y451130D01*
X65500D01*
Y461467D01*
D02*
G37*
G36*
X266500D02*
Y451130D01*
X276837D01*
X276742Y452331D01*
X276344Y453991D01*
X275691Y455568D01*
X274799Y457023D01*
X273691Y458320D01*
X272393Y459429D01*
X270938Y460321D01*
X269361Y460974D01*
X267702Y461372D01*
X266500Y461467D01*
D02*
G37*
G36*
X265500D02*
X264299Y461372D01*
X262639Y460974D01*
X261063Y460321D01*
X259607Y459429D01*
X258310Y458320D01*
X257201Y457023D01*
X256310Y455568D01*
X255656Y453991D01*
X255258Y452331D01*
X255163Y451130D01*
X265500D01*
Y461467D01*
D02*
G37*
G36*
X149495Y451500D02*
X147067D01*
Y449072D01*
X147342Y449108D01*
X148064Y449407D01*
X148684Y449883D01*
X149160Y450503D01*
X149459Y451225D01*
X149495Y451500D01*
D02*
G37*
G36*
X146067D02*
X143639D01*
X143675Y451225D01*
X143974Y450503D01*
X144450Y449883D01*
X145070Y449407D01*
X145792Y449108D01*
X146067Y449072D01*
Y451500D01*
D02*
G37*
G36*
X276837Y450130D02*
X266500D01*
Y439793D01*
X267702Y439888D01*
X269361Y440286D01*
X270938Y440939D01*
X272393Y441831D01*
X273691Y442939D01*
X274799Y444237D01*
X275691Y445692D01*
X276344Y447269D01*
X276742Y448928D01*
X276837Y450130D01*
D02*
G37*
G36*
X76837Y450130D02*
X66500D01*
Y439793D01*
X67702Y439888D01*
X69361Y440286D01*
X70938Y440939D01*
X72393Y441831D01*
X73691Y442939D01*
X74799Y444237D01*
X75691Y445692D01*
X76344Y447269D01*
X76742Y448928D01*
X76837Y450130D01*
D02*
G37*
G36*
X65500D02*
X55163D01*
X55258Y448928D01*
X55656Y447269D01*
X56309Y445692D01*
X57201Y444237D01*
X58310Y442939D01*
X59607Y441831D01*
X61063Y440939D01*
X62639Y440286D01*
X64299Y439888D01*
X65500Y439793D01*
Y450130D01*
D02*
G37*
G36*
X265500Y450130D02*
X255163D01*
X255258Y448928D01*
X255656Y447269D01*
X256310Y445692D01*
X257201Y444237D01*
X258310Y442939D01*
X259607Y441831D01*
X261063Y440939D01*
X262639Y440286D01*
X264299Y439888D01*
X265500Y439793D01*
Y450130D01*
D02*
G37*
G36*
X109642Y432414D02*
Y429390D01*
X112666D01*
X112609Y429819D01*
X112250Y430685D01*
X111680Y431428D01*
X110937Y431999D01*
X110071Y432357D01*
X109642Y432414D01*
D02*
G37*
G36*
X108642D02*
X108213Y432357D01*
X107347Y431999D01*
X106603Y431428D01*
X106033Y430685D01*
X105674Y429819D01*
X105618Y429390D01*
X108642D01*
Y432414D01*
D02*
G37*
G36*
X112666Y428390D02*
X109642D01*
Y425366D01*
X110071Y425422D01*
X110937Y425781D01*
X111680Y426351D01*
X112250Y427095D01*
X112609Y427961D01*
X112666Y428390D01*
D02*
G37*
G36*
X108642D02*
X105618D01*
X105674Y427961D01*
X106033Y427095D01*
X106603Y426351D01*
X107347Y425781D01*
X108213Y425422D01*
X108642Y425366D01*
Y428390D01*
D02*
G37*
G36*
X78000Y428725D02*
X76688Y428596D01*
X75426Y428213D01*
X74264Y427592D01*
X73245Y426756D01*
X72408Y425736D01*
X71787Y424574D01*
X71404Y423312D01*
X71275Y422000D01*
X71404Y420688D01*
X71787Y419426D01*
X72408Y418264D01*
X73245Y417244D01*
X74264Y416408D01*
X75426Y415787D01*
X76688Y415404D01*
X78000Y415275D01*
X79312Y415404D01*
X80574Y415787D01*
X81736Y416408D01*
X82756Y417244D01*
X83592Y418264D01*
X84213Y419426D01*
X84596Y420688D01*
X84725Y422000D01*
X84596Y423312D01*
X84213Y424574D01*
X83592Y425736D01*
X82756Y426756D01*
X81736Y427592D01*
X80574Y428213D01*
X79312Y428596D01*
X78000Y428725D01*
D02*
G37*
G36*
X109142Y418486D02*
X108268Y418371D01*
X107454Y418033D01*
X106755Y417497D01*
X106219Y416798D01*
X105881Y415984D01*
X105766Y415110D01*
X105881Y414237D01*
X106219Y413423D01*
X106755Y412723D01*
X107454Y412187D01*
X108268Y411850D01*
X109142Y411735D01*
X110015Y411850D01*
X110829Y412187D01*
X111528Y412723D01*
X112065Y413423D01*
X112402Y414237D01*
X112517Y415110D01*
X112402Y415984D01*
X112065Y416798D01*
X111528Y417497D01*
X110829Y418033D01*
X110015Y418371D01*
X109142Y418486D01*
D02*
G37*
G36*
X239252Y399949D02*
X236980D01*
Y396890D01*
X239252D01*
Y399949D01*
D02*
G37*
G36*
X235980D02*
X233709D01*
Y396890D01*
X235980D01*
Y399949D01*
D02*
G37*
G36*
X194000Y397620D02*
Y394000D01*
X197620D01*
X197543Y394583D01*
X197125Y395593D01*
X196459Y396460D01*
X195593Y397125D01*
X194583Y397543D01*
X194000Y397620D01*
D02*
G37*
G36*
X193000D02*
X192417Y397543D01*
X191407Y397125D01*
X190541Y396460D01*
X189875Y395593D01*
X189457Y394583D01*
X189380Y394000D01*
X193000D01*
Y397620D01*
D02*
G37*
G36*
X265059Y396012D02*
X262000D01*
Y393740D01*
X265059D01*
Y396012D01*
D02*
G37*
G36*
X261000D02*
X257941D01*
Y393740D01*
X261000D01*
Y396012D01*
D02*
G37*
G36*
X239252Y395890D02*
X236980D01*
Y392831D01*
X239252D01*
Y395890D01*
D02*
G37*
G36*
X235980D02*
X233709D01*
Y392831D01*
X235980D01*
Y395890D01*
D02*
G37*
G36*
X265059Y392740D02*
X262000D01*
Y390469D01*
X265059D01*
Y392740D01*
D02*
G37*
G36*
X261000D02*
X257941D01*
Y390469D01*
X261000D01*
Y392740D01*
D02*
G37*
G36*
X109642Y392591D02*
Y389567D01*
X112666D01*
X112609Y389996D01*
X112250Y390862D01*
X111680Y391605D01*
X110937Y392176D01*
X110071Y392534D01*
X109642Y392591D01*
D02*
G37*
G36*
X108642D02*
X108213Y392534D01*
X107347Y392176D01*
X106603Y391605D01*
X106033Y390862D01*
X105674Y389996D01*
X105618Y389567D01*
X108642D01*
Y392591D01*
D02*
G37*
G36*
X197620Y393000D02*
X194000D01*
Y389380D01*
X194583Y389457D01*
X195593Y389875D01*
X196459Y390541D01*
X197125Y391407D01*
X197543Y392417D01*
X197620Y393000D01*
D02*
G37*
G36*
X193000D02*
X189380D01*
X189457Y392417D01*
X189875Y391407D01*
X190541Y390541D01*
X191407Y389875D01*
X192417Y389457D01*
X193000Y389380D01*
Y393000D01*
D02*
G37*
G36*
X255012Y390449D02*
X252740D01*
Y387390D01*
X255012D01*
Y390449D01*
D02*
G37*
G36*
X251740D02*
X249469D01*
Y387390D01*
X251740D01*
Y390449D01*
D02*
G37*
G36*
X108642Y388567D02*
X105618D01*
X105674Y388138D01*
X106033Y387272D01*
X106603Y386529D01*
X107347Y385958D01*
X108213Y385599D01*
X108642Y385543D01*
Y388567D01*
D02*
G37*
G36*
X112666D02*
X109642D01*
Y385543D01*
X110071Y385599D01*
X110937Y385958D01*
X111680Y386529D01*
X112250Y387272D01*
X112609Y388138D01*
X112666Y388567D01*
D02*
G37*
G36*
X255012Y386390D02*
X252740D01*
Y383331D01*
X255012D01*
Y386390D01*
D02*
G37*
G36*
X251740D02*
X249469D01*
Y383331D01*
X251740D01*
Y386390D01*
D02*
G37*
G36*
X256079Y380335D02*
X254102D01*
Y379343D01*
X256079D01*
Y380335D01*
D02*
G37*
G36*
X253102D02*
X251126D01*
Y379343D01*
X253102D01*
Y380335D01*
D02*
G37*
G36*
X256079Y378343D02*
X253603D01*
X251126D01*
Y377374D01*
X253603D01*
X256079D01*
Y378343D01*
D02*
G37*
G36*
X261500Y388540D02*
X260781Y388445D01*
X260477Y388319D01*
X258154D01*
Y383201D01*
X258720D01*
Y380264D01*
X258368Y379994D01*
X257841Y379308D01*
X257510Y378508D01*
X257397Y377650D01*
X257510Y376791D01*
X257609Y376552D01*
X257273Y376110D01*
X256079D01*
Y376374D01*
X253603D01*
X251126D01*
Y375382D01*
X251339D01*
Y371657D01*
X255866D01*
X255866Y371657D01*
Y371657D01*
X255866Y371657D01*
X256330Y371570D01*
X258154Y369746D01*
Y366331D01*
X264847D01*
Y371449D01*
X259857D01*
X258090Y373216D01*
X258255Y373758D01*
X258430Y373793D01*
X258820Y374054D01*
X259401Y374635D01*
X259855Y374447D01*
X260713Y374334D01*
X261571Y374447D01*
X262371Y374778D01*
X263057Y375305D01*
X263584Y375992D01*
X263915Y376791D01*
X263969Y377195D01*
X264185Y377717D01*
X264280Y378437D01*
Y383201D01*
X264846D01*
Y388319D01*
X262523D01*
X262219Y388445D01*
X261500Y388540D01*
D02*
G37*
G36*
X78000Y388902D02*
X76688Y388773D01*
X75426Y388390D01*
X74264Y387769D01*
X73245Y386933D01*
X72408Y385913D01*
X71787Y384751D01*
X71404Y383489D01*
X71275Y382177D01*
X71404Y380865D01*
X71787Y379604D01*
X72408Y378441D01*
X73245Y377422D01*
X74264Y376585D01*
X75426Y375964D01*
X76688Y375581D01*
X78000Y375452D01*
X79312Y375581D01*
X80574Y375964D01*
X81736Y376585D01*
X82756Y377422D01*
X83592Y378441D01*
X84213Y379604D01*
X84596Y380865D01*
X84725Y382177D01*
X84596Y383489D01*
X84213Y384751D01*
X83592Y385913D01*
X82756Y386933D01*
X81736Y387769D01*
X80574Y388390D01*
X79312Y388773D01*
X78000Y388902D01*
D02*
G37*
G36*
X230445Y376287D02*
X229453D01*
Y374311D01*
X230445D01*
Y376287D01*
D02*
G37*
G36*
X109142Y378663D02*
X108268Y378548D01*
X107454Y378210D01*
X106755Y377674D01*
X106219Y376975D01*
X105881Y376161D01*
X105766Y375287D01*
X105881Y374414D01*
X106219Y373600D01*
X106755Y372901D01*
X107454Y372364D01*
X108268Y372027D01*
X109142Y371912D01*
X110015Y372027D01*
X110829Y372364D01*
X111528Y372901D01*
X112065Y373600D01*
X112402Y374414D01*
X112517Y375287D01*
X112402Y376161D01*
X112065Y376975D01*
X111528Y377674D01*
X110829Y378210D01*
X110015Y378548D01*
X109142Y378663D01*
D02*
G37*
G36*
X237512Y372949D02*
X235240D01*
Y369890D01*
X237512D01*
Y372949D01*
D02*
G37*
G36*
X234240D02*
X231969D01*
Y369890D01*
X234240D01*
Y372949D01*
D02*
G37*
G36*
X237512Y368890D02*
X235240D01*
Y365831D01*
X237512D01*
Y368890D01*
D02*
G37*
G36*
X234240D02*
X231969D01*
Y365831D01*
X234240D01*
Y368890D01*
D02*
G37*
G36*
X265059Y364181D02*
X262000D01*
Y361909D01*
X265059D01*
Y364181D01*
D02*
G37*
G36*
X261000D02*
X257941D01*
Y361909D01*
X261000D01*
Y364181D01*
D02*
G37*
G36*
X183917Y372189D02*
X172000D01*
Y359484D01*
X183917D01*
Y372189D01*
D02*
G37*
G36*
X171000D02*
X159083D01*
Y359484D01*
X171000D01*
Y372189D01*
D02*
G37*
G36*
X265059Y360909D02*
X262000D01*
Y358638D01*
X265059D01*
Y360909D01*
D02*
G37*
G36*
X261000D02*
X257941D01*
Y358638D01*
X261000D01*
Y360909D01*
D02*
G37*
G36*
X109142Y364883D02*
X108268Y364768D01*
X107454Y364431D01*
X106755Y363895D01*
X106219Y363195D01*
X105881Y362382D01*
X105766Y361508D01*
X105881Y360634D01*
X106219Y359820D01*
X106755Y359121D01*
X107454Y358585D01*
X108268Y358248D01*
X109142Y358133D01*
X110015Y358248D01*
X110829Y358585D01*
X111528Y359121D01*
X112065Y359820D01*
X112402Y360634D01*
X112517Y361508D01*
X112402Y362382D01*
X112065Y363195D01*
X111528Y363895D01*
X110829Y364431D01*
X110015Y364768D01*
X109142Y364883D01*
D02*
G37*
G36*
X233043Y358146D02*
X229000D01*
Y354890D01*
X233043D01*
Y358146D01*
D02*
G37*
G36*
X219000D02*
X214957D01*
Y354890D01*
X219000D01*
Y358146D01*
D02*
G37*
G36*
X233043Y353890D02*
X229000D01*
Y350634D01*
X233043D01*
Y353890D01*
D02*
G37*
G36*
X228000Y358146D02*
X220000D01*
Y354390D01*
Y350634D01*
X228000D01*
Y354390D01*
Y358146D01*
D02*
G37*
G36*
X109142Y351104D02*
X108268Y350989D01*
X107454Y350652D01*
X106755Y350115D01*
X106219Y349416D01*
X105881Y348602D01*
X105766Y347728D01*
X105881Y346855D01*
X106219Y346041D01*
X106755Y345342D01*
X107454Y344805D01*
X108268Y344468D01*
X109142Y344353D01*
X110015Y344468D01*
X110829Y344805D01*
X111528Y345342D01*
X112065Y346041D01*
X112402Y346855D01*
X112517Y347728D01*
X112402Y348602D01*
X112065Y349416D01*
X111528Y350115D01*
X110829Y350652D01*
X110015Y350989D01*
X109142Y351104D01*
D02*
G37*
G36*
X154559Y341272D02*
X151500D01*
Y339000D01*
X154559D01*
Y341272D01*
D02*
G37*
G36*
X150500D02*
X147441D01*
Y339000D01*
X150500D01*
Y341272D01*
D02*
G37*
G36*
X196059Y341012D02*
X193000D01*
Y338740D01*
X196059D01*
Y341012D01*
D02*
G37*
G36*
X192000D02*
X188941D01*
Y338740D01*
X192000D01*
Y341012D01*
D02*
G37*
G36*
X154559Y338000D02*
X151500D01*
Y335728D01*
X154559D01*
Y338000D01*
D02*
G37*
G36*
X150500D02*
X147441D01*
Y335728D01*
X150500D01*
Y338000D01*
D02*
G37*
G36*
X196059Y337740D02*
X193000D01*
Y335469D01*
X196059D01*
Y337740D01*
D02*
G37*
G36*
X192000D02*
X188941D01*
Y335469D01*
X192000D01*
Y337740D01*
D02*
G37*
G36*
X109642Y337473D02*
Y334449D01*
X112666D01*
X112609Y334878D01*
X112250Y335744D01*
X111680Y336487D01*
X110937Y337058D01*
X110071Y337416D01*
X109642Y337473D01*
D02*
G37*
G36*
X108642D02*
X108213Y337416D01*
X107347Y337058D01*
X106603Y336487D01*
X106033Y335744D01*
X105674Y334878D01*
X105618Y334449D01*
X108642D01*
Y337473D01*
D02*
G37*
G36*
X112666Y333449D02*
X109642D01*
Y330425D01*
X110071Y330481D01*
X110937Y330840D01*
X111680Y331411D01*
X112250Y332154D01*
X112609Y333020D01*
X112666Y333449D01*
D02*
G37*
G36*
X108642D02*
X105618D01*
X105674Y333020D01*
X106033Y332154D01*
X106603Y331411D01*
X107347Y330840D01*
X108213Y330481D01*
X108642Y330425D01*
Y333449D01*
D02*
G37*
G36*
X184492Y337409D02*
X176618D01*
Y324024D01*
X184492D01*
Y327958D01*
X190701D01*
X190821Y327867D01*
X191620Y327535D01*
X192478Y327422D01*
X193336Y327535D01*
X194136Y327867D01*
X194572Y328201D01*
X195846D01*
Y333319D01*
X194515D01*
X194136Y333610D01*
X193336Y333941D01*
X192478Y334054D01*
X191620Y333941D01*
X190821Y333610D01*
X190701Y333518D01*
X184492D01*
Y337409D01*
D02*
G37*
G36*
X202059Y306012D02*
X199000D01*
Y303740D01*
X202059D01*
Y306012D01*
D02*
G37*
G36*
X198000D02*
X194941D01*
Y303740D01*
X198000D01*
Y306012D01*
D02*
G37*
G36*
X212559Y305772D02*
X209500D01*
Y303500D01*
X212559D01*
Y305772D01*
D02*
G37*
G36*
X208500D02*
X205441D01*
Y303500D01*
X208500D01*
Y305772D01*
D02*
G37*
G36*
X170028Y304150D02*
X167953D01*
Y302075D01*
X170028D01*
Y304150D01*
D02*
G37*
G36*
X166953D02*
X164878D01*
Y302075D01*
X166953D01*
Y304150D01*
D02*
G37*
G36*
X202059Y302740D02*
X199000D01*
Y300468D01*
X202059D01*
Y302740D01*
D02*
G37*
G36*
X198000D02*
X194941D01*
Y300468D01*
X198000D01*
Y302740D01*
D02*
G37*
G36*
X212559Y302500D02*
X209500D01*
Y300228D01*
X212559D01*
Y302500D01*
D02*
G37*
G36*
X208500D02*
X205441D01*
Y300228D01*
X208500D01*
Y302500D01*
D02*
G37*
G36*
X161287Y304614D02*
X151500D01*
X150781Y304520D01*
X150110Y304242D01*
X149795Y304000D01*
X148154D01*
Y299669D01*
X149795D01*
X150110Y299427D01*
X150781Y299150D01*
X151500Y299055D01*
X161287D01*
X162007Y299150D01*
X162159Y299213D01*
X163910D01*
Y300963D01*
X163972Y301115D01*
X164067Y301835D01*
X163972Y302554D01*
X163910Y302706D01*
Y303937D01*
X163075D01*
X162677Y304242D01*
X162007Y304520D01*
X161287Y304614D01*
D02*
G37*
G36*
X170028Y301075D02*
X167953D01*
Y299000D01*
X170028D01*
Y301075D01*
D02*
G37*
G36*
X166953D02*
X164878D01*
Y299000D01*
X166953D01*
Y301075D01*
D02*
G37*
G36*
X78000Y306225D02*
X76688Y306096D01*
X75426Y305713D01*
X74264Y305092D01*
X73245Y304256D01*
X72408Y303236D01*
X71787Y302074D01*
X71404Y300812D01*
X71275Y299500D01*
X71404Y298188D01*
X71787Y296926D01*
X72408Y295764D01*
X73245Y294744D01*
X74264Y293908D01*
X75426Y293287D01*
X76688Y292904D01*
X78000Y292775D01*
X79312Y292904D01*
X80574Y293287D01*
X81736Y293908D01*
X82756Y294744D01*
X83592Y295764D01*
X84213Y296926D01*
X84596Y298188D01*
X84725Y299500D01*
X84596Y300812D01*
X84213Y302074D01*
X83592Y303236D01*
X82756Y304256D01*
X81736Y305092D01*
X80574Y305713D01*
X79312Y306096D01*
X78000Y306225D01*
D02*
G37*
G36*
X233681Y246953D02*
X232000D01*
Y243303D01*
X233681D01*
Y246953D01*
D02*
G37*
G36*
X208059Y242484D02*
X205000D01*
Y240213D01*
X208059D01*
Y242484D01*
D02*
G37*
G36*
X197559D02*
X194500D01*
Y240213D01*
X197559D01*
Y242484D01*
D02*
G37*
G36*
X204000D02*
X200941D01*
Y240213D01*
X204000D01*
Y242484D01*
D02*
G37*
G36*
X193500D02*
X190441D01*
Y240213D01*
X193500D01*
Y242484D01*
D02*
G37*
G36*
X236059Y241390D02*
X233000D01*
Y239118D01*
X236059D01*
Y241390D01*
D02*
G37*
G36*
X208059Y239213D02*
X205000D01*
Y236941D01*
X208059D01*
Y239213D01*
D02*
G37*
G36*
X204000D02*
X200941D01*
Y236941D01*
X204000D01*
Y239213D01*
D02*
G37*
G36*
X197559D02*
X194500D01*
Y236941D01*
X197559D01*
Y239213D01*
D02*
G37*
G36*
X193500D02*
X190441D01*
Y236941D01*
X193500D01*
Y239213D01*
D02*
G37*
G36*
X236059Y238118D02*
X233000D01*
Y235846D01*
X236059D01*
Y238118D01*
D02*
G37*
G36*
X110000Y235134D02*
Y232110D01*
X113024D01*
X112967Y232539D01*
X112609Y233405D01*
X112038Y234149D01*
X111295Y234719D01*
X110429Y235078D01*
X110000Y235134D01*
D02*
G37*
G36*
X113024Y231110D02*
X110000D01*
Y228086D01*
X110429Y228143D01*
X111295Y228501D01*
X112038Y229072D01*
X112609Y229815D01*
X112967Y230681D01*
X113024Y231110D01*
D02*
G37*
G36*
X179532Y225059D02*
X177260D01*
Y222000D01*
X179532D01*
Y225059D01*
D02*
G37*
G36*
X176260D02*
X173988D01*
Y222000D01*
X176260D01*
Y225059D01*
D02*
G37*
G36*
X222748Y223134D02*
X219788D01*
Y221453D01*
X222748D01*
Y223134D01*
D02*
G37*
G36*
X218788D02*
X215827D01*
Y221453D01*
X218788D01*
Y223134D01*
D02*
G37*
G36*
X222748Y220453D02*
X219788D01*
Y218772D01*
X222748D01*
Y220453D01*
D02*
G37*
G36*
X218788D02*
X215827D01*
Y218772D01*
X218788D01*
Y220453D01*
D02*
G37*
G36*
X179532Y221000D02*
X177260D01*
Y217941D01*
X179532D01*
Y221000D01*
D02*
G37*
G36*
X176260D02*
X173988D01*
Y217941D01*
X176260D01*
Y221000D01*
D02*
G37*
G36*
X201000Y221120D02*
Y217500D01*
X204620D01*
X204543Y218083D01*
X204125Y219093D01*
X203460Y219959D01*
X202593Y220625D01*
X201583Y221043D01*
X201000Y221120D01*
D02*
G37*
G36*
X200000D02*
X199417Y221043D01*
X198407Y220625D01*
X197540Y219959D01*
X196875Y219093D01*
X196457Y218083D01*
X196380Y217500D01*
X200000D01*
Y221120D01*
D02*
G37*
G36*
X204620Y216500D02*
X201000D01*
Y212880D01*
X201583Y212957D01*
X202593Y213375D01*
X203460Y214040D01*
X204125Y214907D01*
X204543Y215917D01*
X204620Y216500D01*
D02*
G37*
G36*
X200000D02*
X196380D01*
X196457Y215917D01*
X196875Y214907D01*
X197540Y214040D01*
X198407Y213375D01*
X199417Y212957D01*
X200000Y212880D01*
Y216500D01*
D02*
G37*
G36*
X227740Y219981D02*
X227021Y219886D01*
X226350Y219608D01*
X225794Y219181D01*
X224504D01*
Y215244D01*
X224976D01*
Y209780D01*
X220278D01*
X220158Y209872D01*
X219358Y210203D01*
X218500Y210316D01*
X217642Y210203D01*
X216842Y209872D01*
X216155Y209345D01*
X215629Y208658D01*
X215297Y207858D01*
X215184Y207000D01*
X215297Y206142D01*
X215629Y205342D01*
X216155Y204655D01*
X216842Y204129D01*
X217642Y203797D01*
X218500Y203684D01*
X219358Y203797D01*
X220158Y204129D01*
X220278Y204220D01*
X224980D01*
Y195500D01*
X225075Y194781D01*
X225201Y194477D01*
Y192154D01*
X230319D01*
Y194477D01*
X230445Y194781D01*
X230539Y195500D01*
Y207000D01*
X230536Y207030D01*
Y215244D01*
X231000D01*
Y219181D01*
X229686D01*
X229130Y219608D01*
X228460Y219886D01*
X227740Y219981D01*
D02*
G37*
G36*
X238012Y210559D02*
X235740D01*
Y207500D01*
X238012D01*
Y210559D01*
D02*
G37*
G36*
X234740D02*
X232469D01*
Y207500D01*
X234740D01*
Y210559D01*
D02*
G37*
G36*
X238012Y206500D02*
X235740D01*
Y203441D01*
X238012D01*
Y206500D01*
D02*
G37*
G36*
X234740D02*
X232469D01*
Y203441D01*
X234740D01*
Y206500D01*
D02*
G37*
G36*
X186799Y224847D02*
X181681D01*
Y222523D01*
X181555Y222219D01*
X181460Y221500D01*
X181482Y221336D01*
Y214492D01*
X177591D01*
Y206618D01*
X184289D01*
X185873Y205034D01*
X186449Y204593D01*
X187119Y204315D01*
X187839Y204220D01*
X197670D01*
X197692Y204192D01*
X198514Y203561D01*
X199472Y203164D01*
X200500Y203029D01*
X201528Y203164D01*
X202485Y203561D01*
X203308Y204192D01*
X203939Y205014D01*
X204336Y205972D01*
X204471Y207000D01*
X204336Y208028D01*
X203939Y208985D01*
X203308Y209808D01*
X202485Y210439D01*
X201528Y210836D01*
X200500Y210971D01*
X199472Y210836D01*
X198514Y210439D01*
X197692Y209808D01*
X197670Y209780D01*
X190976D01*
Y214492D01*
X187041D01*
Y221478D01*
X186947Y222198D01*
X186799Y222554D01*
Y224847D01*
D02*
G37*
G36*
X155516Y213917D02*
X142811D01*
Y202000D01*
X155516D01*
Y213917D01*
D02*
G37*
G36*
X238012Y199059D02*
X235740D01*
Y196000D01*
X238012D01*
Y199059D01*
D02*
G37*
G36*
X234740D02*
X232469D01*
Y196000D01*
X234740D01*
Y199059D01*
D02*
G37*
G36*
X200500Y200971D02*
X199472Y200836D01*
X198514Y200439D01*
X197692Y199808D01*
X197670Y199780D01*
X191500D01*
X190781Y199685D01*
X190110Y199407D01*
X189534Y198966D01*
X186951Y196382D01*
X177591D01*
Y188508D01*
X181482D01*
Y181664D01*
X181460Y181500D01*
Y163461D01*
X181555Y162741D01*
X181833Y162071D01*
X182275Y161495D01*
X188669Y155100D01*
Y151945D01*
X197331D01*
Y152880D01*
X200323D01*
Y151953D01*
X203866D01*
Y153677D01*
X203889Y153694D01*
X204060Y153865D01*
X204502Y154441D01*
X204779Y155111D01*
X204874Y155831D01*
X204779Y156550D01*
X204502Y157221D01*
X204060Y157796D01*
X203866Y157945D01*
Y159709D01*
X200323D01*
Y158439D01*
X197331D01*
Y159031D01*
X192600D01*
X189338Y162294D01*
X189529Y162756D01*
X192500D01*
Y166012D01*
X188457D01*
Y163828D01*
X187995Y163637D01*
X187020Y164612D01*
Y181357D01*
X187041Y181522D01*
Y188508D01*
X190976D01*
Y192545D01*
X192651Y194220D01*
X197670D01*
X197692Y194192D01*
X198514Y193561D01*
X199472Y193164D01*
X200500Y193029D01*
X201528Y193164D01*
X202485Y193561D01*
X203308Y194192D01*
X203939Y195015D01*
X204336Y195972D01*
X204471Y197000D01*
X204336Y198028D01*
X203939Y198986D01*
X203308Y199808D01*
X202485Y200439D01*
X201528Y200836D01*
X200500Y200971D01*
D02*
G37*
G36*
X238012Y195000D02*
X235740D01*
Y191941D01*
X238012D01*
Y195000D01*
D02*
G37*
G36*
X234740D02*
X232469D01*
Y191941D01*
X234740D01*
Y195000D01*
D02*
G37*
G36*
X155516Y201000D02*
X142811D01*
Y189083D01*
X155516D01*
Y201000D01*
D02*
G37*
G36*
X179532Y185059D02*
X177260D01*
Y182000D01*
X179532D01*
Y185059D01*
D02*
G37*
G36*
X176260D02*
X173988D01*
Y182000D01*
X176260D01*
Y185059D01*
D02*
G37*
G36*
X211000Y182638D02*
X207941D01*
Y180760D01*
X211000D01*
Y182638D01*
D02*
G37*
G36*
X179532Y181000D02*
X177260D01*
Y177941D01*
X179532D01*
Y181000D01*
D02*
G37*
G36*
X176260D02*
X173988D01*
Y177941D01*
X176260D01*
Y181000D01*
D02*
G37*
G36*
X215059Y179760D02*
X212000D01*
Y177882D01*
X215059D01*
Y179760D01*
D02*
G37*
G36*
X211000D02*
X207941D01*
Y177882D01*
X211000D01*
Y179760D01*
D02*
G37*
G36*
X156028Y174075D02*
X153953D01*
Y172000D01*
X156028D01*
Y174075D01*
D02*
G37*
G36*
X152953D02*
X150878D01*
Y172000D01*
X152953D01*
Y174075D01*
D02*
G37*
G36*
X156028Y171000D02*
X153953D01*
Y168925D01*
X156028D01*
Y171000D01*
D02*
G37*
G36*
X152953D02*
X150878D01*
Y168925D01*
X152953D01*
Y171000D01*
D02*
G37*
G36*
X197543Y170268D02*
X193500D01*
Y167012D01*
X197543D01*
Y170268D01*
D02*
G37*
G36*
X192500D02*
X188457D01*
Y167012D01*
X192500D01*
Y170268D01*
D02*
G37*
G36*
X110000Y168803D02*
Y165779D01*
X113024D01*
X112967Y166209D01*
X112609Y167074D01*
X112038Y167818D01*
X111295Y168388D01*
X110429Y168747D01*
X110000Y168803D01*
D02*
G37*
G36*
X197543Y166012D02*
X193500D01*
Y162756D01*
X197543D01*
Y166012D01*
D02*
G37*
G36*
X113024Y164779D02*
X110000D01*
Y161756D01*
X110429Y161812D01*
X111295Y162171D01*
X112038Y162741D01*
X112609Y163485D01*
X112967Y164350D01*
X113024Y164779D01*
D02*
G37*
G36*
X166500Y161120D02*
Y157500D01*
X170120D01*
X170043Y158083D01*
X169625Y159093D01*
X168959Y159959D01*
X168093Y160625D01*
X167083Y161043D01*
X166500Y161120D01*
D02*
G37*
G36*
X165500D02*
X164917Y161043D01*
X163907Y160625D01*
X163040Y159959D01*
X162375Y159093D01*
X161957Y158083D01*
X161880Y157500D01*
X165500D01*
Y161120D01*
D02*
G37*
G36*
X209984Y157080D02*
X209353Y156331D01*
X209984D01*
Y157080D01*
D02*
G37*
G36*
X206016D02*
Y156331D01*
X206646D01*
X206016Y157080D01*
D02*
G37*
G36*
X156000Y160971D02*
X154972Y160836D01*
X154015Y160439D01*
X153192Y159808D01*
X153078Y159660D01*
X137620D01*
X136901Y159565D01*
X136230Y159287D01*
X135758Y158925D01*
X134153D01*
Y154595D01*
X135795D01*
X136110Y154353D01*
X136781Y154075D01*
X137500Y153980D01*
X138219Y154075D01*
X138281Y154100D01*
X153312D01*
X154015Y153561D01*
X154972Y153164D01*
X156000Y153029D01*
X157028Y153164D01*
X157985Y153561D01*
X158808Y154192D01*
X159439Y155015D01*
X159836Y155972D01*
X159971Y157000D01*
X159836Y158028D01*
X159439Y158985D01*
X158808Y159808D01*
X157985Y160439D01*
X157028Y160836D01*
X156000Y160971D01*
D02*
G37*
G36*
X170120Y156500D02*
X166500D01*
Y152880D01*
X167083Y152957D01*
X168093Y153375D01*
X168959Y154041D01*
X169625Y154907D01*
X170043Y155917D01*
X170120Y156500D01*
D02*
G37*
G36*
X165500D02*
X161880D01*
X161957Y155917D01*
X162375Y154907D01*
X163040Y154041D01*
X163907Y153375D01*
X164917Y152957D01*
X165500Y152880D01*
Y156500D01*
D02*
G37*
G36*
X110000Y155024D02*
Y152000D01*
X113024D01*
X112967Y152429D01*
X112609Y153295D01*
X112038Y154038D01*
X111295Y154609D01*
X110429Y154967D01*
X110000Y155024D01*
D02*
G37*
G36*
X209984Y155331D02*
X209181D01*
Y152740D01*
X208500D01*
Y151740D01*
X209984D01*
Y155331D01*
D02*
G37*
G36*
X206819D02*
X206016D01*
Y151740D01*
X207500D01*
Y152740D01*
X206819D01*
Y155331D01*
D02*
G37*
G36*
X113024Y151000D02*
X110000D01*
Y147976D01*
X110429Y148033D01*
X111295Y148391D01*
X112038Y148962D01*
X112609Y149705D01*
X112967Y150571D01*
X113024Y151000D01*
D02*
G37*
G36*
X135752Y130024D02*
Y127000D01*
X138776D01*
X138719Y127429D01*
X138361Y128295D01*
X137790Y129038D01*
X137047Y129609D01*
X136181Y129967D01*
X135752Y130024D01*
D02*
G37*
G36*
X134752D02*
X134323Y129967D01*
X133457Y129609D01*
X132714Y129038D01*
X132143Y128295D01*
X131784Y127429D01*
X131728Y127000D01*
X134752D01*
Y130024D01*
D02*
G37*
G36*
X138776Y126000D02*
X135752D01*
Y122976D01*
X136181Y123033D01*
X137047Y123391D01*
X137790Y123962D01*
X138361Y124705D01*
X138719Y125571D01*
X138776Y126000D01*
D02*
G37*
G36*
X134752D02*
X131728D01*
X131784Y125571D01*
X132143Y124705D01*
X132714Y123962D01*
X133457Y123391D01*
X134323Y123033D01*
X134752Y122976D01*
Y126000D01*
D02*
G37*
G36*
X107433Y120928D02*
Y118500D01*
X109861D01*
X109825Y118775D01*
X109526Y119497D01*
X109050Y120117D01*
X108430Y120593D01*
X107708Y120892D01*
X107433Y120928D01*
D02*
G37*
G36*
X109861Y117500D02*
X107433D01*
Y115072D01*
X107708Y115108D01*
X108430Y115407D01*
X109050Y115883D01*
X109526Y116503D01*
X109825Y117225D01*
X109861Y117500D01*
D02*
G37*
G36*
X117921Y89825D02*
Y87000D01*
X120747D01*
X120697Y87378D01*
X120358Y88196D01*
X119819Y88898D01*
X119117Y89437D01*
X118299Y89776D01*
X117921Y89825D01*
D02*
G37*
G36*
X116921D02*
X116544Y89776D01*
X115726Y89437D01*
X115023Y88898D01*
X114484Y88196D01*
X114146Y87378D01*
X114096Y87000D01*
X116921D01*
Y89825D01*
D02*
G37*
G36*
X120747Y86000D02*
X117921D01*
Y83175D01*
X118299Y83224D01*
X119117Y83563D01*
X119819Y84102D01*
X120358Y84804D01*
X120697Y85622D01*
X120747Y86000D01*
D02*
G37*
G36*
X116921D02*
X114096D01*
X114146Y85622D01*
X114484Y84804D01*
X115023Y84102D01*
X115726Y83563D01*
X116544Y83224D01*
X116921Y83175D01*
Y86000D01*
D02*
G37*
G36*
X109610Y65441D02*
Y62417D01*
X112634D01*
X112578Y62846D01*
X112219Y63712D01*
X111649Y64456D01*
X110905Y65026D01*
X110039Y65385D01*
X109610Y65441D01*
D02*
G37*
G36*
X123390D02*
Y62417D01*
X126414D01*
X126357Y62846D01*
X125999Y63712D01*
X125428Y64456D01*
X124685Y65026D01*
X123819Y65385D01*
X123390Y65441D01*
D02*
G37*
G36*
X122390D02*
X121961Y65385D01*
X121095Y65026D01*
X120351Y64456D01*
X119781Y63712D01*
X119422Y62846D01*
X119366Y62417D01*
X122390D01*
Y65441D01*
D02*
G37*
G36*
X126414Y61417D02*
X123390D01*
Y58393D01*
X123819Y58450D01*
X124685Y58808D01*
X125428Y59379D01*
X125999Y60122D01*
X126357Y60988D01*
X126414Y61417D01*
D02*
G37*
G36*
X112634D02*
X109610D01*
Y58393D01*
X110039Y58450D01*
X110905Y58808D01*
X111649Y59379D01*
X112219Y60122D01*
X112578Y60988D01*
X112634Y61417D01*
D02*
G37*
G36*
X122390D02*
X119366D01*
X119422Y60988D01*
X119781Y60122D01*
X120351Y59379D01*
X121095Y58808D01*
X121961Y58450D01*
X122390Y58393D01*
Y61417D01*
D02*
G37*
%LPD*%
D11*
X222500Y396000D02*
X228610D01*
X228953Y396342D01*
X209000Y386890D02*
X222488D01*
X222949Y387351D01*
Y388894D02*
X223047Y388992D01*
X222949Y387351D02*
Y388894D01*
X214059Y391390D02*
X221500D01*
X204500Y381890D02*
X204610Y382000D01*
X219936D01*
X222500Y392390D02*
X225627D01*
X226972Y389004D02*
X226984Y388992D01*
X225627Y392390D02*
X226972Y391044D01*
Y389004D02*
Y391044D01*
X219936Y382000D02*
X224917Y386981D01*
X210000Y376890D02*
X213110Y380000D01*
X224000D01*
X225016Y378984D01*
Y376787D02*
Y378984D01*
X224917Y386981D02*
Y388894D01*
X225016Y388992D01*
X221500Y391390D02*
X222500Y392390D01*
X217203Y348390D02*
X227500D01*
X213000Y352593D02*
Y373390D01*
Y352593D02*
X217203Y348390D01*
X210000Y352000D02*
Y376890D01*
X216272Y345728D02*
X217138D01*
X210000Y352000D02*
X216272Y345728D01*
X217138D02*
X219500Y343366D01*
X257969Y374905D02*
X260713Y377650D01*
X253603Y374905D02*
X257969D01*
X256665Y372937D02*
X260713Y368890D01*
X253603Y372937D02*
X256665D01*
X226984Y369665D02*
Y376787D01*
X161287Y301835D02*
X161547Y301575D01*
X260713Y368890D02*
X261500D01*
X225500Y381555D02*
Y382390D01*
Y381555D02*
X227083Y379972D01*
X225500Y382390D02*
X226500Y383390D01*
X241299Y376972D02*
X241398Y376874D01*
X239645Y376972D02*
X241299D01*
X233227Y383390D02*
X239645Y376972D01*
X226500Y383390D02*
X233227D01*
X228516Y381405D02*
X232984D01*
X241299Y375004D02*
X241398Y374905D01*
X239386Y375004D02*
X241299D01*
X232984Y381405D02*
X239386Y375004D01*
X244760Y378844D02*
Y386890D01*
X242888Y376972D02*
X244760Y378844D01*
X241496Y376972D02*
X242888D01*
X241398Y376874D02*
X241496Y376972D01*
X227083Y376886D02*
Y379972D01*
X228516Y381405D01*
X226984Y376787D02*
X227083Y376886D01*
X216398Y376787D02*
X223047D01*
X213000Y373390D02*
X216398Y376787D01*
X228500Y343366D02*
Y347390D01*
X227500Y348390D02*
X228500Y347390D01*
X228953Y388992D02*
Y396342D01*
X226984Y369665D02*
X227260Y369390D01*
X227740Y217201D02*
X227752Y217213D01*
D13*
X171250Y241250D02*
X184000Y228500D01*
X184169Y247193D02*
X216240D01*
X216500Y247453D01*
X211500Y187740D02*
X214240Y185000D01*
X209500Y189740D02*
X211500Y187740D01*
X218500Y207000D02*
X227760D01*
X209500Y189740D02*
Y228500D01*
X187839Y207000D02*
X200500D01*
X184283Y210555D02*
X187839Y207000D01*
X137620Y156880D02*
X155880D01*
X137500Y156760D02*
X137620Y156880D01*
X155880D02*
X156000Y157000D01*
X147547Y176547D02*
X152579Y181579D01*
X147547Y171500D02*
Y176547D01*
X152579Y181579D02*
X164079D01*
X260713Y377650D02*
X261500Y378437D01*
Y385760D01*
X177279Y504220D02*
Y504500D01*
X170807Y510972D02*
X177279Y504500D01*
X120000Y510972D02*
X170807D01*
X114260Y473000D02*
Y505232D01*
X120000Y510972D01*
X105602Y515500D02*
X211469D01*
X222610Y504358D01*
X94602Y504500D02*
X105602Y515500D01*
X121740Y473000D02*
X121870Y473130D01*
X121935Y504274D02*
X122161Y504500D01*
X121935Y503439D02*
Y504274D01*
X121870Y503373D02*
X121935Y503439D01*
X121870Y473130D02*
Y503373D01*
X122000Y319248D02*
Y472740D01*
X109142Y306390D02*
X122000Y319248D01*
X222610Y504358D02*
X236390D01*
X213000Y490740D02*
X222384Y500124D01*
Y504132D01*
X222610Y504358D01*
X173000Y190500D02*
Y213000D01*
X164079Y181579D02*
X173000Y190500D01*
X140610Y245390D02*
X173000Y213000D01*
X109500Y245390D02*
X140610D01*
X100500Y328811D02*
X109142Y320169D01*
Y292610D02*
X129500Y312968D01*
X54500Y118000D02*
X71500D01*
X216500Y6000D02*
Y22284D01*
X222610Y504358D02*
Y504358D01*
X196000Y485394D02*
Y485500D01*
X177279Y504220D02*
X196000Y485500D01*
X135941Y504500D02*
X149568Y490873D01*
Y473068D02*
Y490873D01*
X135941Y504500D02*
X135941D01*
X137000Y464240D02*
X140740D01*
X131806D02*
X137000D01*
X100500Y328811D02*
Y453500D01*
X81630Y491528D02*
X94602Y504500D01*
X81630Y472370D02*
Y491528D01*
Y472370D02*
X100500Y453500D01*
X129500Y461934D02*
X131806Y464240D01*
X129500Y312968D02*
Y461934D01*
X140740Y464240D02*
X149568Y473068D01*
X182000Y452000D02*
X202606D01*
X144760Y171500D02*
X147547D01*
X137500Y164240D02*
X144760Y171500D01*
X214240Y185000D02*
X218752D01*
X184000Y228500D02*
X209500D01*
X172068Y121500D02*
X200000D01*
X167068Y126500D02*
X172068Y121500D01*
X166748Y126500D02*
X167068D01*
X166748D02*
Y139248D01*
X172500Y145000D01*
X210500D01*
X213906Y148406D02*
Y155831D01*
X210500Y145000D02*
X213906Y148406D01*
X200000Y121500D02*
Y134886D01*
X182000Y385000D02*
Y452000D01*
Y385000D02*
X193500Y373500D01*
Y351500D02*
Y373500D01*
X182000Y471394D02*
X196000Y485394D01*
X182000Y452000D02*
Y471394D01*
X202606Y452000D02*
X236000Y485394D01*
X151500Y301835D02*
X161287D01*
X151303Y331020D02*
X151394D01*
X151500Y309315D02*
Y330823D01*
X151303Y331020D02*
X151500Y330823D01*
X151000Y331020D02*
X151303D01*
X171472Y342500D02*
X184500D01*
X162445Y333472D02*
X171472Y342500D01*
X184500D02*
X193500Y351500D01*
X162445Y330716D02*
Y333472D01*
X151697Y330716D02*
X162445D01*
X151394Y331020D02*
X151697Y330716D01*
X180555D02*
X180577Y330738D01*
X192478D01*
X192500Y330760D01*
X209591Y295500D02*
X214194D01*
X216500Y291154D02*
Y293194D01*
X214194Y295500D02*
X216500Y293194D01*
X199153Y295500D02*
X208410D01*
X199091Y295563D02*
X199153Y295500D01*
X198697Y295563D02*
X199091D01*
X198500Y295760D02*
X198697Y295563D01*
X191500Y197000D02*
X200500D01*
X187039Y192445D02*
X188221Y193626D01*
X184283Y192445D02*
X187039D01*
X188221Y193626D02*
Y193720D01*
X191500Y197000D01*
X184262Y192423D02*
X184283Y192445D01*
X209500Y228500D02*
Y232000D01*
X229406Y224693D02*
X232106Y227393D01*
Y230941D01*
X232303D02*
X232500Y231138D01*
X232106Y230941D02*
X232303D01*
X227752Y224693D02*
X229406D01*
X232106Y231138D02*
X232500D01*
X229126Y234119D02*
X232106Y231138D01*
X229050Y234119D02*
X229126D01*
X226500Y236668D02*
X229050Y234119D01*
X226500Y236668D02*
Y247453D01*
X209500Y232000D02*
X221500Y244000D01*
Y247453D01*
X192213Y155488D02*
X193000D01*
X184240Y163461D02*
X192213Y155488D01*
X184240Y163461D02*
Y181500D01*
X184262Y181522D02*
Y192423D01*
X184240Y181500D02*
X184262Y181522D01*
Y210577D02*
X184283Y210555D01*
X184262Y210577D02*
Y221478D01*
X184240Y221500D02*
X184262Y221478D01*
X227740Y217201D02*
X227756Y217185D01*
Y207004D02*
X227760Y207000D01*
X227756Y207004D02*
Y217185D01*
X227760Y195500D02*
Y207000D01*
X201923Y155659D02*
X202095Y155831D01*
X193171Y155659D02*
X201923D01*
X193000Y155488D02*
X193171Y155659D01*
D15*
X213000Y483260D02*
D03*
Y490740D02*
D03*
X137000Y456760D02*
D03*
Y464240D02*
D03*
X228500Y313118D02*
D03*
Y305638D02*
D03*
X218500Y313118D02*
D03*
Y305638D02*
D03*
X151500Y309315D02*
D03*
Y301835D02*
D03*
X137500Y156760D02*
D03*
Y164240D02*
D03*
X211500Y187740D02*
D03*
Y180260D02*
D03*
D16*
X227752Y217213D02*
D03*
Y224693D02*
D03*
X219287Y220953D02*
D03*
D17*
X162445Y330716D02*
D03*
X180555D02*
D03*
D18*
X171500Y358984D02*
D03*
D19*
X184283Y192445D02*
D03*
Y210555D02*
D03*
D20*
X156016Y201500D02*
D03*
D21*
X213906Y155831D02*
D03*
X208000D02*
D03*
X202095D02*
D03*
D22*
X225016Y376787D02*
D03*
X226984D02*
D03*
X228953D02*
D03*
X223047Y388992D02*
D03*
X225016D02*
D03*
X226984D02*
D03*
X228953D02*
D03*
X223047Y376787D02*
D03*
D23*
X231500Y291154D02*
D03*
X216500Y247453D02*
D03*
X221500D02*
D03*
X226500D02*
D03*
X231500D02*
D03*
X216500Y291154D02*
D03*
X221500D02*
D03*
X226500D02*
D03*
D24*
X241398Y376874D02*
D03*
Y374905D02*
D03*
Y372937D02*
D03*
X253603Y378842D02*
D03*
Y376874D02*
D03*
Y374905D02*
D03*
Y372937D02*
D03*
X241398Y378842D02*
D03*
D25*
X192500Y317000D02*
D03*
X169291Y241500D02*
D03*
D26*
X121740Y473000D02*
D03*
X114260D02*
D03*
X219760Y321878D02*
D03*
X227240D02*
D03*
D27*
X167453Y301575D02*
D03*
X161547D02*
D03*
X153453Y171500D02*
D03*
X147547D02*
D03*
D28*
X228500Y354390D02*
D03*
Y343366D02*
D03*
X219500D02*
D03*
Y354390D02*
D03*
X193000Y166512D02*
D03*
Y155488D02*
D03*
D29*
X219760Y332378D02*
D03*
X227240D02*
D03*
X227760Y207000D02*
D03*
X235240D02*
D03*
X227760Y195500D02*
D03*
X235240D02*
D03*
X184240Y221500D02*
D03*
X176760D02*
D03*
X184240Y181500D02*
D03*
X176760D02*
D03*
X229000Y396390D02*
D03*
X236480D02*
D03*
X234740Y369390D02*
D03*
X227260D02*
D03*
X244760Y386890D02*
D03*
X252240D02*
D03*
D30*
X232500Y231138D02*
D03*
Y238618D02*
D03*
X261500Y385760D02*
D03*
Y393240D02*
D03*
X192500Y330760D02*
D03*
Y338240D02*
D03*
X151000Y331020D02*
D03*
Y338500D02*
D03*
X209000Y303000D02*
D03*
Y295520D02*
D03*
X204500Y239713D02*
D03*
Y247193D02*
D03*
X198500Y303240D02*
D03*
Y295760D02*
D03*
X194000Y239713D02*
D03*
Y247193D02*
D03*
X261500Y368890D02*
D03*
Y361409D02*
D03*
D58*
X59000Y279761D02*
X66000Y272761D01*
Y270630D02*
Y272761D01*
X59000Y279761D02*
Y441499D01*
X66000Y448499D01*
Y450630D01*
X109500Y209941D02*
X121614Y222055D01*
X109500Y192000D02*
Y209941D01*
X54500Y118000D02*
Y259130D01*
Y102130D02*
Y118000D01*
X157579Y86500D02*
Y97579D01*
X167500Y107500D01*
X216500Y57717D02*
X216717Y57500D01*
X228185D02*
X236000Y65315D01*
X215500Y58716D02*
X216500Y57717D01*
X216717Y57500D02*
X228185D01*
X266000Y270630D02*
Y344000D01*
X54500Y259130D02*
X66000Y270630D01*
X54500Y102130D02*
X66000Y90630D01*
X266000Y270630D02*
X266000Y270630D01*
X216500Y6000D02*
X250740D01*
X82325D02*
X216500D01*
X54000Y34325D02*
X67575Y20750D01*
X54000Y78630D02*
X66000Y90630D01*
X54000Y34325D02*
Y78630D01*
X67575Y19685D02*
Y20750D01*
X68640Y19685D02*
X82325Y6000D01*
X250740D02*
X264425Y19685D01*
X67575D02*
X68640D01*
X264425Y20750D02*
X278000Y34325D01*
X266000Y90630D02*
X278000Y78630D01*
Y34325D02*
Y78630D01*
X264425Y19685D02*
Y20750D01*
X215500Y58716D02*
Y80463D01*
X96000Y65315D02*
X105713D01*
X109110Y61917D01*
X250169Y146000D02*
X260000D01*
X239055Y134886D02*
X250169Y146000D01*
X260000D02*
X273386D01*
X123500Y171500D02*
X135000Y183000D01*
X239055Y121500D02*
Y134886D01*
X123500Y97528D02*
X159110Y61917D01*
X123500Y97528D02*
Y171500D01*
X121614Y183000D02*
X135000D01*
X176445Y80463D02*
Y93849D01*
Y65472D02*
Y80463D01*
X121614Y222055D02*
X135000D01*
X201849Y107500D02*
X215500Y93849D01*
X167500Y107500D02*
X201849D01*
X215500Y80463D02*
Y93849D01*
X172890Y61917D02*
X176445Y65472D01*
X159110Y61917D02*
X172890D01*
D59*
X250303Y185055D02*
X260000D01*
X250248Y185000D02*
X250303Y185055D01*
X260000D02*
X273386D01*
D60*
X217319Y305638D02*
X218500D01*
X205957Y317000D02*
X217319Y305638D01*
X192500Y317000D02*
X205957D01*
X227240Y332378D02*
Y342106D01*
X228500Y343366D01*
X227240Y321878D02*
Y332378D01*
X219760D02*
Y343106D01*
X219500Y343366D02*
X219760Y343106D01*
Y321878D02*
Y332378D01*
X228500Y313118D02*
Y319437D01*
X227240Y320697D02*
X228500Y319437D01*
X227240Y320697D02*
Y321878D01*
X218500Y313118D02*
Y319437D01*
X219760Y320697D01*
Y321878D01*
X228500Y305638D02*
X228500Y305638D01*
X228500Y299500D02*
Y305638D01*
X226500Y291154D02*
Y297500D01*
X228500Y299500D01*
X218500Y300500D02*
Y305638D01*
X221500Y291154D02*
Y297500D01*
X218500Y300500D02*
X221500Y297500D01*
X262610Y94020D02*
X266000Y90630D01*
D61*
X109142Y428890D02*
D03*
Y415110D02*
D03*
X109500Y245390D02*
D03*
Y231610D02*
D03*
X109142Y333949D02*
D03*
Y347728D02*
D03*
Y361508D02*
D03*
Y375287D02*
D03*
Y389067D02*
D03*
Y320169D02*
D03*
Y306390D02*
D03*
Y292610D02*
D03*
X109500Y165279D02*
D03*
Y151500D02*
D03*
X135941Y504500D02*
D03*
X149721D02*
D03*
X163500D02*
D03*
X177279D02*
D03*
X191059D02*
D03*
X122161D02*
D03*
X108382D02*
D03*
X94602D02*
D03*
X109500Y205780D02*
D03*
Y192000D02*
D03*
X236390Y504358D02*
D03*
X222610D02*
D03*
X109110Y61917D02*
D03*
X122890D02*
D03*
X159110D02*
D03*
X172890D02*
D03*
X166748Y126500D02*
D03*
X135252D02*
D03*
D62*
X67575Y531496D02*
D03*
Y19685D02*
D03*
X264425Y531496D02*
D03*
Y19685D02*
D03*
X236000Y485394D02*
D03*
X96000D02*
D03*
D63*
X66000Y450630D02*
D03*
Y90630D02*
D03*
X266000Y450630D02*
D03*
Y90630D02*
D03*
X66000Y270630D02*
D03*
X266000D02*
D03*
D64*
X196000Y485394D02*
D03*
X166000D02*
D03*
X236000Y65315D02*
D03*
X196000D02*
D03*
X136000D02*
D03*
X96000D02*
D03*
X136000Y485394D02*
D03*
D65*
X250248Y185000D02*
D03*
X218752D02*
D03*
D66*
X193500Y373500D02*
D03*
Y383500D02*
D03*
Y393500D02*
D03*
X200500Y197000D02*
D03*
Y207000D02*
D03*
Y217000D02*
D03*
X166000Y157000D02*
D03*
X156000D02*
D03*
D67*
X135000Y222055D02*
D03*
X121614D02*
D03*
X135000Y183000D02*
D03*
X121614D02*
D03*
X260000Y146000D02*
D03*
X273386D02*
D03*
X260000Y185055D02*
D03*
X273386D02*
D03*
X239055Y121500D02*
D03*
Y134886D02*
D03*
X200000Y121500D02*
D03*
Y134886D02*
D03*
X176445Y93849D02*
D03*
Y80463D02*
D03*
X215500Y93849D02*
D03*
Y80463D02*
D03*
D68*
X106933Y118000D02*
D03*
X71500D02*
D03*
X146567Y452000D02*
D03*
X182000D02*
D03*
X216500Y22284D02*
D03*
Y57717D02*
D03*
D69*
X157579Y86500D02*
D03*
X117421D02*
D03*
D70*
X184169Y247193D02*
D03*
X218500Y207000D02*
D03*
X222500Y396000D02*
D03*
X260713Y377650D02*
D03*
X209000Y386890D02*
D03*
X214059Y391390D02*
D03*
X204500Y381890D02*
D03*
X192478Y330738D02*
D03*
X198500Y295760D02*
D03*
M02*
