M48
;Layer_Color=9474304
;FILE_FORMAT=2:5
INCH,LZ
;TYPE=PLATED
T1F00S00C0.01968
T2F00S00C0.02756
T3F00S00C0.02800
T4F00S00C0.03150
T5F00S00C0.03937
T6F00S00C0.04331
T7F00S00C0.06693
T8F00S00C0.09449
T9F00S00C0.13780
T10F00S00C0.16535
T11F00S00C0.19409
;TYPE=NON_PLATED
T12F00S00C0.11811
%
T01
X0218752Y0185
X0250248
T02
X00715Y0118
X0106933
X02165Y0057717
Y0022284
X0146567Y0452
X0182
T03
X02185Y0207
X0184169Y0247193
X01985Y029576
X0192478Y0330738
X02045Y038189
X0209Y038689
X0214059Y039139
X02225Y0396
X0260713Y037765
T04
X0117421Y00865
X0157579
T05
X010911Y0061917
X012289
X0135252Y01265
X01095Y01515
X0166748Y01265
X017289Y0061917
X015911
X01095Y0165279
Y0192
Y020578
Y023161
Y024539
X0109142Y029261
Y030639
Y0320169
Y0333949
Y0347728
Y0361508
Y0375287
Y0389067
Y041511
Y042889
X01635Y05045
X0177279
X0191059
X022261Y0504358
X023639
X0149721Y05045
X0135941
X0122161
X0108382
X0094602
T06
X0166Y0157
X02005Y0197
Y0207
Y0217
X0156Y0157
X01935Y03735
Y03835
Y03935
T07
X0176445Y0080463
Y0093849
X02155
Y0080463
X02Y01215
Y0134886
X0239055
Y01215
X026Y0146
X0273386
Y0185055
X026
X0135Y0183
X0121614
Y0222055
X0135
T08
X0096Y0065315
X0136
X0196
X0236
X0196Y0485394
X0166
X0136
T09
X0066Y009063
X0266
Y027063
X0066
Y045063
X0266
T10
X0067575Y0019685
X0264425
Y0531496
X0067575
T11
X0236Y0485394
X0096
T12
X0116Y0030776
X0166
X0078358Y015839
Y019889
Y02385
X0078Y02995
Y0382177
Y0422
X0184169Y0535642
X02295Y05355
X0101492Y0535642
M30
