G04*
G04 #@! TF.GenerationSoftware,Altium Limited,Altium Designer,18.1.11 (251)*
G04*
G04 Layer_Color=16711935*
%FSLAX25Y25*%
%MOIN*%
G70*
G01*
G75*
%ADD47C,0.05918*%
%ADD48C,0.00800*%
%ADD49C,0.24422*%
%ADD50C,0.20485*%
%ADD51C,0.12611*%
%ADD52C,0.03950*%
%ADD53C,0.07099*%
%ADD54C,0.08674*%
%ADD55C,0.04737*%
%ADD56C,0.05524*%
%ADD57C,0.05800*%
D47*
X109142Y428890D02*
D03*
Y415110D02*
D03*
X109500Y245390D02*
D03*
Y231610D02*
D03*
X109142Y333949D02*
D03*
Y347728D02*
D03*
Y361508D02*
D03*
Y375287D02*
D03*
Y389067D02*
D03*
Y320169D02*
D03*
Y306390D02*
D03*
Y292610D02*
D03*
X109500Y165279D02*
D03*
Y151500D02*
D03*
X135941Y504500D02*
D03*
X149721D02*
D03*
X163500D02*
D03*
X177279D02*
D03*
X191059D02*
D03*
X122161D02*
D03*
X108382D02*
D03*
X94602D02*
D03*
X109500Y205780D02*
D03*
Y192000D02*
D03*
X236390Y504358D02*
D03*
X222610D02*
D03*
X109110Y61917D02*
D03*
X122890D02*
D03*
X159110D02*
D03*
X172890D02*
D03*
X166748Y126500D02*
D03*
X135252D02*
D03*
D48*
X78000Y422000D02*
D03*
X78358Y238500D02*
D03*
X78000Y382177D02*
D03*
Y299500D02*
D03*
X78358Y158390D02*
D03*
X184169Y535642D02*
D03*
X101492D02*
D03*
X78358Y198890D02*
D03*
X229500Y535500D02*
D03*
X116000Y30776D02*
D03*
X166000D02*
D03*
D49*
X67575Y531496D02*
D03*
Y19685D02*
D03*
X264425Y531496D02*
D03*
Y19685D02*
D03*
X236000Y485394D02*
D03*
X96000D02*
D03*
D50*
X66000Y450630D02*
D03*
Y90630D02*
D03*
X266000Y450630D02*
D03*
Y90630D02*
D03*
X66000Y270630D02*
D03*
X266000D02*
D03*
D51*
X196000Y485394D02*
D03*
X166000D02*
D03*
X236000Y65315D02*
D03*
X196000D02*
D03*
X136000D02*
D03*
X96000D02*
D03*
X136000Y485394D02*
D03*
D52*
X250248Y185000D02*
D03*
X218752D02*
D03*
D53*
X193500Y373500D02*
D03*
Y383500D02*
D03*
Y393500D02*
D03*
X200500Y197000D02*
D03*
Y207000D02*
D03*
Y217000D02*
D03*
X166000Y157000D02*
D03*
X156000D02*
D03*
D54*
X135000Y222055D02*
D03*
X121614D02*
D03*
X135000Y183000D02*
D03*
X121614D02*
D03*
X260000Y146000D02*
D03*
X273386D02*
D03*
X260000Y185055D02*
D03*
X273386D02*
D03*
X239055Y121500D02*
D03*
Y134886D02*
D03*
X200000Y121500D02*
D03*
Y134886D02*
D03*
X176445Y93849D02*
D03*
Y80463D02*
D03*
X215500Y93849D02*
D03*
Y80463D02*
D03*
D55*
X106933Y118000D02*
D03*
X71500D02*
D03*
X146567Y452000D02*
D03*
X182000D02*
D03*
X216500Y22284D02*
D03*
Y57717D02*
D03*
D56*
X157579Y86500D02*
D03*
X117421D02*
D03*
D57*
X184169Y247193D02*
D03*
X218500Y207000D02*
D03*
X222500Y396000D02*
D03*
X260713Y377650D02*
D03*
X209000Y386890D02*
D03*
X214059Y391390D02*
D03*
X204500Y381890D02*
D03*
X192478Y330738D02*
D03*
X198500Y295760D02*
D03*
M02*
