G04*
G04 #@! TF.GenerationSoftware,Altium Limited,Altium Designer,18.1.11 (251)*
G04*
G04 Layer_Color=16711935*
%FSLAX25Y25*%
%MOIN*%
G70*
G01*
G75*
%ADD11C,0.00787*%
%ADD12C,0.01000*%
%ADD71C,0.00394*%
D11*
X47890Y0D02*
Y551181D01*
X284110Y551181D01*
Y0D02*
Y551181D01*
X47890Y0D02*
X284110Y0D01*
X47890Y39134D02*
X284110D01*
Y511575D01*
X47890D02*
X284110D01*
X47890Y39134D02*
Y511575D01*
D12*
X240016Y98189D02*
G03*
X240016Y98189I-3937J0D01*
G01*
D71*
X224288Y217016D02*
G03*
X224288Y217016I-787J0D01*
G01*
X162839Y338945D02*
G03*
X162839Y338945I-787J0D01*
G01*
X176842Y192051D02*
G03*
X176842Y192051I-787J0D01*
G01*
X215874Y162287D02*
G03*
X215874Y162287I-1969J0D01*
G01*
X229543Y385252D02*
G03*
X229543Y385252I-787J0D01*
G01*
X218488Y257492D02*
G03*
X218488Y257492I-1969J0D01*
G01*
X250650Y373134D02*
G03*
X250650Y373134I-787J0D01*
G01*
X226650Y214653D02*
Y227252D01*
X220351Y214653D02*
Y227252D01*
Y214653D02*
X226650D01*
X220351Y227252D02*
X226650D01*
X157720Y366898D02*
X185280D01*
X157720Y333039D02*
X185280D01*
Y366898D01*
X157720Y333039D02*
Y366898D01*
X148102Y187721D02*
Y215280D01*
X181961Y187721D02*
Y215280D01*
X148102D02*
X181961D01*
X148102Y187721D02*
X181961D01*
X217449Y157563D02*
Y167799D01*
X198551Y157563D02*
Y167799D01*
Y157563D02*
X217449D01*
X198551Y167799D02*
X217449D01*
X221669Y378953D02*
Y386827D01*
X230331Y378953D02*
Y386827D01*
X221669Y378953D02*
X230331D01*
X221669Y386827D02*
X230331D01*
X212189Y254343D02*
X235811D01*
X212189Y284264D02*
X235811D01*
X212189Y254343D02*
Y284264D01*
X235811Y254343D02*
Y284264D01*
X243563Y380221D02*
X251437D01*
X243563Y371559D02*
X251437D01*
X243563D02*
Y380221D01*
X251437Y371559D02*
Y380221D01*
X224957Y355768D02*
X232043D01*
X224957Y341988D02*
X232043D01*
Y355768D01*
X224957Y341988D02*
Y355768D01*
X215957Y341988D02*
X223043D01*
X215957Y355768D02*
X223043D01*
X215957Y341988D02*
Y355768D01*
X223043Y341988D02*
Y355768D01*
X189457Y167890D02*
X196543D01*
X189457Y154110D02*
X196543D01*
Y167890D01*
X189457Y154110D02*
Y167890D01*
M02*
