G04*
G04 #@! TF.GenerationSoftware,Altium Limited,Altium Designer,19.0.15 (446)*
G04*
G04 Layer_Physical_Order=1*
G04 Layer_Color=255*
%FSLAX25Y25*%
%MOIN*%
G70*
G01*
G75*
%ADD11C,0.01000*%
%ADD13P,0.04454X4X333.0*%
%ADD14P,0.04454X4X261.0*%
%ADD15P,0.04454X4X189.0*%
%ADD16P,0.04454X4X117.0*%
G04:AMPARAMS|DCode=17|XSize=53.15mil|YSize=47.24mil|CornerRadius=0mil|HoleSize=0mil|Usage=FLASHONLY|Rotation=198.000|XOffset=0mil|YOffset=0mil|HoleType=Round|Shape=Rectangle|*
%AMROTATEDRECTD17*
4,1,4,0.01797,0.03068,0.03257,-0.01425,-0.01797,-0.03068,-0.03257,0.01425,0.01797,0.03068,0.0*
%
%ADD17ROTATEDRECTD17*%

G04:AMPARAMS|DCode=18|XSize=53.15mil|YSize=47.24mil|CornerRadius=0mil|HoleSize=0mil|Usage=FLASHONLY|Rotation=126.000|XOffset=0mil|YOffset=0mil|HoleType=Round|Shape=Rectangle|*
%AMROTATEDRECTD18*
4,1,4,0.03473,-0.00762,-0.00349,-0.03538,-0.03473,0.00762,0.00349,0.03538,0.03473,-0.00762,0.0*
%
%ADD18ROTATEDRECTD18*%

%ADD19R,0.04724X0.05315*%
G04:AMPARAMS|DCode=20|XSize=53.15mil|YSize=47.24mil|CornerRadius=0mil|HoleSize=0mil|Usage=FLASHONLY|Rotation=54.000|XOffset=0mil|YOffset=0mil|HoleType=Round|Shape=Rectangle|*
%AMROTATEDRECTD20*
4,1,4,0.00349,-0.03538,-0.03473,-0.00762,-0.00349,0.03538,0.03473,0.00762,0.00349,-0.03538,0.0*
%
%ADD20ROTATEDRECTD20*%

G04:AMPARAMS|DCode=21|XSize=53.15mil|YSize=47.24mil|CornerRadius=0mil|HoleSize=0mil|Usage=FLASHONLY|Rotation=344.000|XOffset=0mil|YOffset=0mil|HoleType=Round|Shape=Rectangle|*
%AMROTATEDRECTD21*
4,1,4,-0.03206,-0.01538,-0.01903,0.03003,0.03206,0.01538,0.01903,-0.03003,-0.03206,-0.01538,0.0*
%
%ADD21ROTATEDRECTD21*%

%ADD22R,0.03150X0.03150*%
%ADD23R,0.03150X0.03150*%
%ADD24P,0.04454X4X370.6*%
%ADD25P,0.04454X4X333.0*%
%ADD26P,0.04454X4X333.0*%
%ADD27R,0.03150X0.03150*%
%ADD28R,0.03150X0.03150*%
%ADD47C,0.06890*%
G36*
X455187Y369203D02*
X460937Y368446D01*
X466626Y367315D01*
X472228Y365814D01*
X477720Y363949D01*
X483078Y361730D01*
X488280Y359165D01*
X493303Y356265D01*
X498125Y353043D01*
X502726Y349512D01*
X507087Y345688D01*
X511188Y341587D01*
X515012Y337226D01*
X518543Y332625D01*
X521765Y327803D01*
X524665Y322780D01*
X527230Y317578D01*
X529450Y312220D01*
X531314Y306728D01*
X532815Y301126D01*
X533946Y295437D01*
X534703Y289687D01*
X535083Y283900D01*
Y281000D01*
Y278100D01*
X534703Y272313D01*
X533946Y266563D01*
X532815Y260874D01*
X531314Y255272D01*
X529450Y249780D01*
X527230Y244422D01*
X524665Y239220D01*
X521765Y234197D01*
X518543Y229375D01*
X515012Y224774D01*
X511188Y220413D01*
X507087Y216312D01*
X502726Y212488D01*
X498125Y208957D01*
X493303Y205735D01*
X488280Y202835D01*
X483078Y200270D01*
X477720Y198050D01*
X472228Y196186D01*
X466626Y194685D01*
X460937Y193554D01*
X455187Y192797D01*
X451770Y192573D01*
X451653Y192633D01*
X451294Y193043D01*
X448190Y255650D01*
X448377Y256096D01*
X450664Y256330D01*
X450677Y256334D01*
X450691Y256333D01*
X450867Y256392D01*
X451044Y256447D01*
X451173Y256374D01*
X451483Y256122D01*
X451532Y255971D01*
X451532Y255971D01*
X453610Y249576D01*
X455221Y250100D01*
X455664Y249868D01*
X456837Y245963D01*
X455788Y245622D01*
X457379Y240724D01*
X462277Y242316D01*
X460685Y247213D01*
X460087Y247019D01*
X459644Y247251D01*
X458471Y251156D01*
X460567Y251836D01*
X458653Y257726D01*
X458498Y258202D01*
X458419Y258447D01*
X458419Y258448D01*
X458421Y258506D01*
X458477Y258669D01*
X458735Y259013D01*
X458773Y259039D01*
X458817Y259052D01*
X459890Y259630D01*
X459929Y259662D01*
X459975Y259681D01*
X461927Y260993D01*
X461963Y261028D01*
X462007Y261052D01*
X463822Y262548D01*
X463854Y262587D01*
X463896Y262615D01*
X464115Y262836D01*
X464136Y262867D01*
X464138Y262870D01*
X464169Y262894D01*
X464588Y263024D01*
X464762Y263020D01*
X464800Y263003D01*
X465107Y262780D01*
Y262780D01*
X470522Y258846D01*
X471857Y260683D01*
X474404Y258995D01*
X474404Y258995D01*
X475152Y258499D01*
X475241Y258007D01*
X474904Y257544D01*
X479070Y254517D01*
X482097Y258683D01*
X477931Y261710D01*
X477252Y260776D01*
X473957Y262960D01*
X473869Y263452D01*
X474821Y264764D01*
X469381Y268716D01*
D01*
X469146Y269114D01*
X469135Y269449D01*
X469145Y269476D01*
X469158Y269496D01*
X469170Y269510D01*
X469631Y270375D01*
X469645Y270423D01*
X469673Y270465D01*
X470571Y272639D01*
X470581Y272689D01*
X470605Y272733D01*
X471286Y274984D01*
X471291Y275034D01*
X471310Y275081D01*
X471642Y276758D01*
X471642Y276808D01*
X471657Y276856D01*
X471894Y277206D01*
X472024Y277310D01*
X472104Y277343D01*
X472260D01*
Y277343D01*
X478953D01*
Y279471D01*
X483362D01*
Y278425D01*
X488512D01*
Y283575D01*
X483362D01*
Y282529D01*
X478953D01*
Y284658D01*
X472228D01*
X471842Y284931D01*
X471698Y285144D01*
X471683Y285192D01*
Y285243D01*
X471306Y287139D01*
X471287Y287186D01*
X471282Y287236D01*
X470598Y289493D01*
X470574Y289537D01*
X470564Y289587D01*
X469662Y291765D01*
X469633Y291807D01*
X469619Y291856D01*
X469458Y292157D01*
X469447Y292170D01*
X469432Y292192D01*
X469422Y292217D01*
X469438Y292662D01*
X469500Y292819D01*
X469521Y292842D01*
X469617Y292912D01*
X469617Y292912D01*
X475032Y296846D01*
X473989Y298281D01*
X474067Y298775D01*
X477317Y301136D01*
X477931Y300290D01*
X482097Y303317D01*
X479070Y307483D01*
X474904Y304456D01*
X475311Y303896D01*
X475233Y303403D01*
X471983Y301042D01*
X470732Y302764D01*
X465292Y298811D01*
X464818Y298809D01*
X464600Y298877D01*
X464568Y298902D01*
X464546Y298936D01*
X463856Y299626D01*
X463814Y299654D01*
X463782Y299693D01*
X461959Y301189D01*
X461915Y301212D01*
X461879Y301248D01*
X459918Y302558D01*
X459872Y302577D01*
X459833Y302610D01*
X458339Y303408D01*
X458287Y303424D01*
X458241Y303454D01*
X457913Y303833D01*
X457887Y304019D01*
X457908Y304095D01*
X458037Y304542D01*
X459762Y310559D01*
X458357Y310962D01*
X458134Y311409D01*
X459567Y315150D01*
X460685Y314787D01*
X462277Y319684D01*
X457379Y321276D01*
X455788Y316378D01*
X456309Y316209D01*
X456524Y315758D01*
X455051Y311910D01*
X452730Y312575D01*
X451014Y306588D01*
X450903Y306201D01*
X450852Y306133D01*
X450798Y306081D01*
X450773Y306064D01*
X450323Y305909D01*
X450277Y305908D01*
X450232Y305922D01*
X448279Y306114D01*
X448229Y306109D01*
X448179Y306119D01*
X445821D01*
X445772Y306109D01*
X445721Y306114D01*
X443375Y305883D01*
X443326Y305869D01*
X443276D01*
X443116Y305837D01*
X443052Y305825D01*
X442637Y305988D01*
X442514Y306098D01*
X442507Y306112D01*
X442458Y306263D01*
X442458Y306263D01*
X440390Y312629D01*
X438759Y312099D01*
X438315Y312329D01*
X437177Y316042D01*
X438212Y316378D01*
X436621Y321276D01*
X431723Y319684D01*
X433315Y314787D01*
X433929Y314986D01*
X434372Y314756D01*
X435510Y311043D01*
X433433Y310368D01*
X435511Y303973D01*
X435511Y303973D01*
X435503Y303510D01*
X435266Y303192D01*
X435229Y303167D01*
X435185Y303154D01*
X434167Y302610D01*
X434128Y302577D01*
X434082Y302558D01*
X432121Y301248D01*
X432085Y301212D01*
X432041Y301189D01*
X430218Y299693D01*
X430186Y299654D01*
X430144Y299626D01*
X429454Y298936D01*
X429432Y298902D01*
X429400Y298877D01*
X429182Y298809D01*
X428708Y298811D01*
X428708Y298811D01*
X423268Y302764D01*
X422036Y301067D01*
X418776Y303413D01*
X418697Y303907D01*
X419096Y304456D01*
X414930Y307483D01*
X411903Y303317D01*
X416069Y300290D01*
X416690Y301145D01*
X419950Y298800D01*
X420029Y298306D01*
X418968Y296846D01*
X424383Y292912D01*
X424383Y292912D01*
X424479Y292842D01*
X424500Y292819D01*
X424562Y292662D01*
X424578Y292217D01*
X424568Y292192D01*
X424553Y292170D01*
X424542Y292157D01*
X424381Y291856D01*
X424367Y291807D01*
X424338Y291765D01*
X423436Y289587D01*
X423426Y289537D01*
X423403Y289493D01*
X422718Y287236D01*
X422713Y287186D01*
X422694Y287139D01*
X422317Y285243D01*
Y285192D01*
X422302Y285144D01*
X422095Y284837D01*
X421669Y284658D01*
X421669Y284658D01*
X421669Y284658D01*
X414945D01*
Y282529D01*
X410638Y282529D01*
Y283575D01*
X405488D01*
Y278425D01*
X410638D01*
Y279471D01*
X414945Y279471D01*
Y277343D01*
X421638D01*
Y277343D01*
X421950D01*
X422067Y277287D01*
X422338Y277055D01*
X422368Y276842D01*
X422358Y276736D01*
X422374Y276684D01*
X422375Y276630D01*
X422793Y274665D01*
X422814Y274615D01*
X422821Y274562D01*
X423599Y272167D01*
X423626Y272120D01*
X423638Y272067D01*
X424527Y270073D01*
X424546Y270046D01*
X424555Y270015D01*
X424648Y269899D01*
X424754Y269737D01*
X424688Y269443D01*
X424601Y269247D01*
X424024Y268828D01*
X418968Y265155D01*
X420219Y263433D01*
X416683Y260864D01*
X416069Y261710D01*
X411903Y258683D01*
X414930Y254517D01*
X419096Y257544D01*
X418481Y258389D01*
X422017Y260958D01*
X423268Y259237D01*
X428298Y262891D01*
X428682Y263171D01*
X428929Y263349D01*
X429057Y263373D01*
X429413Y263344D01*
X429561Y263191D01*
X429616Y263098D01*
X429659Y263066D01*
X429692Y263023D01*
X431212Y261656D01*
X431258Y261628D01*
X431295Y261589D01*
X433333Y260111D01*
X433382Y260088D01*
X433423Y260052D01*
X435605Y258796D01*
X435656Y258779D01*
X435700Y258748D01*
X438001Y257726D01*
X438215Y257273D01*
X430609Y233945D01*
X430595Y233832D01*
X430563Y233723D01*
X430572Y233636D01*
X430562Y233550D01*
X430593Y233440D01*
X430605Y233327D01*
X430646Y233251D01*
X430669Y233167D01*
X430740Y233078D01*
X430794Y232978D01*
X430862Y232923D01*
X430915Y232854D01*
X430968Y232825D01*
X431367Y232533D01*
X430919Y231451D01*
X430830Y230771D01*
X430422Y230809D01*
X430335Y230800D01*
X430249Y230810D01*
X430139Y230779D01*
X430070Y230772D01*
X429816Y230975D01*
X429756Y231033D01*
X429684Y231147D01*
X429728Y231253D01*
X425944Y232267D01*
X424930Y228483D01*
X425591Y228396D01*
X426751Y228549D01*
X427832Y228997D01*
X428682Y229649D01*
X428968Y229522D01*
X429122Y229384D01*
X418699Y197418D01*
X418268Y197125D01*
X418118Y197087D01*
X415280Y198050D01*
X409922Y200270D01*
X404720Y202835D01*
X399697Y205735D01*
X394875Y208957D01*
X390274Y212488D01*
X385913Y216312D01*
X381812Y220413D01*
X377988Y224774D01*
X374457Y229375D01*
X371235Y234197D01*
X368335Y239220D01*
X365770Y244422D01*
X363550Y249780D01*
X361686Y255272D01*
X360185Y260874D01*
X359054Y266563D01*
X358297Y272313D01*
X357917Y278100D01*
Y281000D01*
Y283900D01*
X358297Y289687D01*
X359054Y295437D01*
X360185Y301126D01*
X361686Y306728D01*
X363550Y312220D01*
X365770Y317578D01*
X368335Y322780D01*
X371235Y327803D01*
X374457Y332625D01*
X377988Y337226D01*
X381812Y341587D01*
X385913Y345688D01*
X390274Y349512D01*
X394875Y353043D01*
X399697Y356265D01*
X404720Y359165D01*
X409922Y361730D01*
X415280Y363949D01*
X420772Y365814D01*
X426374Y367315D01*
X432063Y368446D01*
X437813Y369203D01*
X443600Y369583D01*
X449400D01*
X455187Y369203D01*
D02*
G37*
G36*
X450132Y304907D02*
X450413Y304494D01*
X450097Y303390D01*
X453612Y302382D01*
X457128Y301374D01*
X457398Y302314D01*
X457858Y302509D01*
X459352Y301710D01*
X461312Y300400D01*
X463135Y298905D01*
X463825Y298215D01*
X463786Y297716D01*
X463002Y297147D01*
X465152Y294188D01*
X467302Y291229D01*
X468071Y291788D01*
X468558Y291676D01*
X468719Y291375D01*
X469622Y289197D01*
X470306Y286940D01*
X470683Y285044D01*
X470366Y284658D01*
X469398D01*
Y281000D01*
Y277343D01*
X470325D01*
X470642Y276956D01*
X470310Y275279D01*
X469629Y273028D01*
X468731Y270855D01*
X468270Y269990D01*
X467783Y269878D01*
X467091Y270380D01*
X464941Y267421D01*
X462791Y264462D01*
X463353Y264054D01*
X463393Y263556D01*
X463173Y263335D01*
X461359Y261839D01*
X459407Y260527D01*
X458334Y259950D01*
X457870Y260136D01*
X457614Y260924D01*
X454135Y259794D01*
X450657Y258664D01*
X450939Y257796D01*
X450733Y257443D01*
X450560Y257344D01*
X448273Y257110D01*
X447097Y257105D01*
X450287Y192761D01*
X449944Y192306D01*
X449813Y192244D01*
X449070Y192223D01*
X448242Y192208D01*
X447414Y192200D01*
X445252D01*
X441758Y192338D01*
X438273Y192612D01*
X434801Y193024D01*
X431348Y193571D01*
X427919Y194254D01*
X424520Y195071D01*
X421155Y196022D01*
X419829Y196453D01*
X419603Y196899D01*
X430328Y229794D01*
X430838Y229746D01*
X430919Y229131D01*
X431367Y228049D01*
X432080Y227121D01*
X433008Y226408D01*
X433624Y226153D01*
X434767Y230420D01*
X435910Y234687D01*
X435250Y234774D01*
X434090Y234622D01*
X433008Y234174D01*
X432080Y233461D01*
X432027Y233393D01*
X431578Y233629D01*
X439458Y257795D01*
X439613Y258270D01*
X439613D01*
X439137Y258424D01*
X438415Y258658D01*
X436114Y259679D01*
X433932Y260936D01*
X431894Y262414D01*
X430373Y263781D01*
X430407Y264423D01*
X430998Y264853D01*
X428848Y267812D01*
X426698Y270771D01*
X426053Y270302D01*
X425458Y270488D01*
X424569Y272483D01*
X423790Y274877D01*
X423372Y276842D01*
X423777Y277343D01*
X424500D01*
Y281000D01*
Y284658D01*
X423634D01*
X423317Y285044D01*
X423694Y286940D01*
X424378Y289197D01*
X425281Y291375D01*
X425442Y291676D01*
X425929Y291788D01*
X426698Y291229D01*
X428848Y294188D01*
X430998Y297147D01*
X430214Y297716D01*
X430175Y298215D01*
X430865Y298905D01*
X432688Y300400D01*
X434648Y301710D01*
X435666Y302255D01*
X436130Y302068D01*
X436385Y301281D01*
X439864Y302411D01*
X443342Y303541D01*
X443062Y304405D01*
X443314Y304837D01*
X443475Y304869D01*
X445821Y305100D01*
X448179D01*
X450132Y304907D01*
D02*
G37*
%LPC*%
G36*
X423671Y361130D02*
X421698Y360489D01*
X422339Y358516D01*
X424313Y359157D01*
X423671Y361130D01*
D02*
G37*
G36*
X470329D02*
X469687Y359157D01*
X471661Y358516D01*
X472302Y360489D01*
X470329Y361130D01*
D02*
G37*
G36*
X420747Y360180D02*
X418774Y359539D01*
X419415Y357566D01*
X421388Y358207D01*
X420747Y360180D01*
D02*
G37*
G36*
X473253D02*
X472612Y358207D01*
X474585Y357566D01*
X475226Y359539D01*
X473253Y360180D01*
D02*
G37*
G36*
X424622Y358206D02*
X422648Y357565D01*
X423289Y355592D01*
X425263Y356233D01*
X424622Y358206D01*
D02*
G37*
G36*
X469378Y358206D02*
X468737Y356233D01*
X470711Y355592D01*
X471352Y357565D01*
X469378Y358206D01*
D02*
G37*
G36*
X472303Y357256D02*
X471662Y355282D01*
X473635Y354641D01*
X474276Y356615D01*
X472303Y357256D01*
D02*
G37*
G36*
X421697Y357256D02*
X419724Y356615D01*
X420365Y354641D01*
X422338Y355282D01*
X421697Y357256D01*
D02*
G37*
G36*
X468504Y355514D02*
X466912Y350616D01*
X467907Y350293D01*
X465761Y343688D01*
X464766Y344011D01*
X463175Y339114D01*
X468073Y337522D01*
X469664Y342420D01*
X468670Y342743D01*
X470816Y349348D01*
X471810Y349025D01*
X473401Y353923D01*
X468504Y355514D01*
D02*
G37*
G36*
X425496Y355514D02*
X420599Y353923D01*
X422190Y349025D01*
X423184Y349348D01*
X425330Y342743D01*
X424336Y342420D01*
X425927Y337522D01*
X430825Y339114D01*
X429234Y344011D01*
X428239Y343688D01*
X426093Y350293D01*
X427088Y350616D01*
X425496Y355514D01*
D02*
G37*
G36*
X402220Y342539D02*
Y336150D01*
X408610D01*
X408526Y337003D01*
X408131Y338305D01*
X407490Y339505D01*
X406627Y340556D01*
X405576Y341419D01*
X404376Y342060D01*
X403074Y342455D01*
X402220Y342539D01*
D02*
G37*
G36*
X401221D02*
X400367Y342455D01*
X399065Y342060D01*
X397865Y341419D01*
X396814Y340556D01*
X395951Y339505D01*
X395310Y338305D01*
X394915Y337003D01*
X394831Y336150D01*
X401221D01*
Y342539D01*
D02*
G37*
G36*
X462941Y338395D02*
X461350Y333497D01*
X462344Y333174D01*
X460198Y326569D01*
X459204Y326892D01*
X457613Y321995D01*
X462510Y320403D01*
X464102Y325301D01*
X463107Y325624D01*
X465253Y332229D01*
X466248Y331906D01*
X467839Y336804D01*
X462941Y338395D01*
D02*
G37*
G36*
X512973Y332115D02*
X511294Y330895D01*
X512514Y329216D01*
X514192Y330436D01*
X512973Y332115D01*
D02*
G37*
G36*
X381027D02*
X379808Y330436D01*
X381486Y329216D01*
X382706Y330895D01*
X381027Y332115D01*
D02*
G37*
G36*
X408610Y335150D02*
X402220D01*
Y328760D01*
X403074Y328844D01*
X404376Y329239D01*
X405576Y329880D01*
X406627Y330743D01*
X407490Y331795D01*
X408131Y332994D01*
X408526Y334296D01*
X408610Y335150D01*
D02*
G37*
G36*
X401221D02*
X394831D01*
X394915Y334296D01*
X395310Y332994D01*
X395951Y331795D01*
X396814Y330743D01*
X397865Y329880D01*
X399065Y329239D01*
X400367Y328844D01*
X401221Y328760D01*
Y335150D01*
D02*
G37*
G36*
X510485Y330307D02*
X508807Y329088D01*
X510026Y327409D01*
X511705Y328629D01*
X510485Y330307D01*
D02*
G37*
G36*
X383515Y330307D02*
X382295Y328629D01*
X383974Y327409D01*
X385193Y329088D01*
X383515Y330307D01*
D02*
G37*
G36*
X514780Y329627D02*
X513101Y328407D01*
X514321Y326729D01*
X515999Y327948D01*
X514780Y329627D01*
D02*
G37*
G36*
X379220Y329627D02*
X378000Y327948D01*
X379679Y326729D01*
X380899Y328407D01*
X379220Y329627D01*
D02*
G37*
G36*
X512292Y327820D02*
X510614Y326600D01*
X511833Y324922D01*
X513512Y326141D01*
X512292Y327820D01*
D02*
G37*
G36*
X381708Y327820D02*
X380488Y326141D01*
X382167Y324922D01*
X383386Y326600D01*
X381708Y327820D01*
D02*
G37*
G36*
X508195Y328643D02*
X504029Y325617D01*
X504643Y324771D01*
X501063Y322170D01*
X501063Y322170D01*
X499025Y320689D01*
X498410Y321534D01*
X494244Y318508D01*
X497271Y314341D01*
X501437Y317368D01*
X500823Y318214D01*
X502861Y319695D01*
X506441Y322296D01*
X507056Y321450D01*
X511222Y324477D01*
X508195Y328643D01*
D02*
G37*
G36*
X431059Y338395D02*
X426161Y336803D01*
X427752Y331906D01*
X428747Y332229D01*
X430893Y325624D01*
X429899Y325301D01*
X431490Y320403D01*
X436387Y321995D01*
X434796Y326892D01*
X433802Y326569D01*
X431656Y333174D01*
X432650Y333497D01*
X431059Y338395D01*
D02*
G37*
G36*
X385805Y328643D02*
X382778Y324477D01*
X386944Y321450D01*
X387559Y322296D01*
X392047Y319035D01*
X392047Y319035D01*
X393177Y318214D01*
X392563Y317368D01*
X396729Y314341D01*
X399756Y318508D01*
X395590Y321534D01*
X394975Y320689D01*
X393845Y321510D01*
X393845Y321510D01*
X389357Y324771D01*
X389971Y325617D01*
X385805Y328643D01*
D02*
G37*
G36*
X493633Y318063D02*
X489466Y315036D01*
X490081Y314191D01*
X485639Y310963D01*
X484462Y310108D01*
X483848Y310954D01*
X479682Y307927D01*
X482709Y303761D01*
X486875Y306788D01*
X486260Y307634D01*
X487437Y308489D01*
X491879Y311716D01*
X492493Y310870D01*
X496660Y313897D01*
X493633Y318063D01*
D02*
G37*
G36*
X516543Y312870D02*
Y306480D01*
X522933D01*
X522849Y307334D01*
X522454Y308636D01*
X521813Y309835D01*
X520950Y310887D01*
X519898Y311750D01*
X518699Y312391D01*
X517397Y312786D01*
X516543Y312870D01*
D02*
G37*
G36*
X515543D02*
X514690Y312786D01*
X513388Y312391D01*
X512188Y311750D01*
X511137Y310887D01*
X510274Y309835D01*
X509633Y308636D01*
X509238Y307334D01*
X509154Y306480D01*
X515543D01*
Y312870D01*
D02*
G37*
G36*
X400367Y318063D02*
X397340Y313897D01*
X401507Y310870D01*
X402121Y311716D01*
X407740Y307634D01*
X407125Y306788D01*
X411291Y303761D01*
X414318Y307927D01*
X410152Y310954D01*
X409538Y310108D01*
X403919Y314191D01*
X404533Y315036D01*
X400367Y318063D01*
D02*
G37*
G36*
X522933Y305480D02*
X516543D01*
Y299091D01*
X517397Y299175D01*
X518699Y299570D01*
X519898Y300211D01*
X520950Y301074D01*
X521813Y302125D01*
X522454Y303325D01*
X522849Y304627D01*
X522933Y305480D01*
D02*
G37*
G36*
X515543D02*
X509154D01*
X509238Y304627D01*
X509633Y303325D01*
X510274Y302125D01*
X511137Y301074D01*
X512188Y300211D01*
X513388Y299570D01*
X514690Y299175D01*
X515543Y299091D01*
Y305480D01*
D02*
G37*
G36*
X404732Y283575D02*
X399583D01*
Y282529D01*
X392638D01*
Y283575D01*
X387488D01*
Y278425D01*
X392638D01*
Y279471D01*
X399583D01*
Y278425D01*
X404732D01*
Y283575D01*
D02*
G37*
G36*
X386732D02*
X381583D01*
Y282529D01*
X374638D01*
Y283575D01*
X369488D01*
Y278425D01*
X374638D01*
Y279471D01*
X381583D01*
Y278425D01*
X386732D01*
Y283575D01*
D02*
G37*
G36*
X527484D02*
X525410D01*
Y281500D01*
X527484D01*
Y283575D01*
D02*
G37*
G36*
X368732D02*
X366657D01*
Y281500D01*
X368732D01*
Y283575D01*
D02*
G37*
G36*
X365657D02*
X363583D01*
Y281500D01*
X365657D01*
Y283575D01*
D02*
G37*
G36*
X530559D02*
X528484D01*
Y281500D01*
X530559D01*
Y283575D01*
D02*
G37*
G36*
X528484Y280500D02*
Y278425D01*
X530559D01*
Y280500D01*
X528484D01*
D02*
G37*
G36*
X525410D02*
Y278425D01*
X527484D01*
Y280500D01*
X525410D01*
D02*
G37*
G36*
X494417Y283575D02*
X489268D01*
Y278425D01*
X494417D01*
Y279471D01*
X501362D01*
Y278425D01*
X506512D01*
Y283575D01*
X501362D01*
Y282529D01*
X494417D01*
Y283575D01*
D02*
G37*
G36*
X368732Y280500D02*
X366657D01*
Y278425D01*
X368732D01*
Y280500D01*
D02*
G37*
G36*
X365657D02*
X363583D01*
Y278425D01*
X365657D01*
Y280500D01*
D02*
G37*
G36*
X512417Y283575D02*
X507268D01*
Y278425D01*
X512417D01*
Y279471D01*
X519504D01*
Y278425D01*
X524654D01*
Y283575D01*
X519504D01*
Y282529D01*
X512417D01*
Y283575D01*
D02*
G37*
G36*
X379902Y263287D02*
Y256898D01*
X386291D01*
X386207Y257751D01*
X385812Y259053D01*
X385171Y260253D01*
X384308Y261304D01*
X383257Y262167D01*
X382057Y262808D01*
X380755Y263203D01*
X379902Y263287D01*
D02*
G37*
G36*
X378902D02*
X378048Y263203D01*
X376746Y262808D01*
X375547Y262167D01*
X374495Y261304D01*
X373632Y260253D01*
X372991Y259053D01*
X372596Y257751D01*
X372512Y256898D01*
X378902D01*
Y263287D01*
D02*
G37*
G36*
X411291Y258239D02*
X407125Y255212D01*
X407740Y254366D01*
X404083Y251710D01*
X402121Y250284D01*
X401507Y251130D01*
X397340Y248103D01*
X400367Y243937D01*
X404533Y246964D01*
X403919Y247809D01*
X405881Y249235D01*
X409538Y251891D01*
X410152Y251046D01*
X414318Y254073D01*
X411291Y258239D01*
D02*
G37*
G36*
X386291Y255898D02*
X379902D01*
Y249508D01*
X380755Y249592D01*
X382057Y249987D01*
X383257Y250628D01*
X384308Y251491D01*
X385171Y252543D01*
X385812Y253742D01*
X386207Y255044D01*
X386291Y255898D01*
D02*
G37*
G36*
X378902D02*
X372512D01*
X372596Y255044D01*
X372991Y253742D01*
X373632Y252543D01*
X374495Y251491D01*
X375547Y250628D01*
X376746Y249987D01*
X378048Y249592D01*
X378902Y249508D01*
Y255898D01*
D02*
G37*
G36*
X482709Y258239D02*
X479682Y254073D01*
X483848Y251046D01*
X484462Y251891D01*
X490081Y247809D01*
X489466Y246964D01*
X493633Y243937D01*
X496660Y248103D01*
X492493Y251130D01*
X491879Y250284D01*
X491120Y250836D01*
X486260Y254366D01*
X486875Y255212D01*
X482709Y258239D01*
D02*
G37*
G36*
X396729Y247659D02*
X392563Y244632D01*
X393177Y243786D01*
X387402Y239590D01*
X387402Y239590D01*
X385941Y238528D01*
X385326Y239374D01*
X381160Y236347D01*
X384187Y232181D01*
X388353Y235208D01*
X387739Y236054D01*
X389199Y237115D01*
X394975Y241311D01*
X395590Y240466D01*
X399756Y243493D01*
X396729Y247659D01*
D02*
G37*
G36*
X511781Y237126D02*
X510608Y235415D01*
X512319Y234242D01*
X513492Y235953D01*
X511781Y237126D01*
D02*
G37*
G36*
X425591Y237362D02*
X424430Y237210D01*
X423349Y236762D01*
X422420Y236049D01*
X421708Y235121D01*
X421453Y234505D01*
X425237Y233491D01*
X426251Y237276D01*
X425591Y237362D01*
D02*
G37*
G36*
X497271Y247659D02*
X494244Y243493D01*
X498410Y240466D01*
X498806Y241010D01*
X499300Y241087D01*
X504639Y237153D01*
X503999Y236219D01*
X508246Y233307D01*
X511158Y237554D01*
X506911Y240466D01*
X506573Y239973D01*
X506080Y239890D01*
X500812Y243772D01*
X501437Y244632D01*
X497271Y247659D01*
D02*
G37*
G36*
X380549Y235903D02*
X378870Y234683D01*
X380090Y233005D01*
X381768Y234224D01*
X380549Y235903D01*
D02*
G37*
G36*
X514317Y235387D02*
X513144Y233676D01*
X514855Y232503D01*
X516028Y234214D01*
X514317Y235387D01*
D02*
G37*
G36*
X427217Y237017D02*
X426203Y233233D01*
X429987Y232219D01*
X430074Y232879D01*
X429921Y234039D01*
X429473Y235121D01*
X428761Y236049D01*
X427832Y236762D01*
X427217Y237017D01*
D02*
G37*
G36*
X510042Y234590D02*
X508869Y232879D01*
X510580Y231706D01*
X511754Y233417D01*
X510042Y234590D01*
D02*
G37*
G36*
X378061Y234096D02*
X376382Y232876D01*
X377602Y231197D01*
X379281Y232417D01*
X378061Y234096D01*
D02*
G37*
G36*
X382356Y233415D02*
X380677Y232196D01*
X381897Y230517D01*
X383576Y231737D01*
X382356Y233415D01*
D02*
G37*
G36*
X512578Y232852D02*
X511405Y231140D01*
X513116Y229967D01*
X514290Y231678D01*
X512578Y232852D01*
D02*
G37*
G36*
X421194Y233540D02*
X421107Y232879D01*
X421260Y231719D01*
X421708Y230638D01*
X422420Y229709D01*
X423349Y228997D01*
X423964Y228742D01*
X424978Y232526D01*
X421194Y233540D01*
D02*
G37*
G36*
X379868Y231608D02*
X378190Y230388D01*
X379409Y228710D01*
X381088Y229929D01*
X379868Y231608D01*
D02*
G37*
G36*
X494169Y233279D02*
Y226890D01*
X500559D01*
X500475Y227744D01*
X500080Y229045D01*
X499439Y230245D01*
X498576Y231296D01*
X497524Y232159D01*
X496325Y232801D01*
X495023Y233195D01*
X494169Y233279D01*
D02*
G37*
G36*
X493169D02*
X492316Y233195D01*
X491014Y232801D01*
X489814Y232159D01*
X488763Y231296D01*
X487900Y230245D01*
X487259Y229045D01*
X486864Y227744D01*
X486780Y226890D01*
X493169D01*
Y233279D01*
D02*
G37*
G36*
X462510Y241597D02*
X457613Y240005D01*
X459204Y235108D01*
X460198Y235431D01*
X462344Y228826D01*
X461350Y228503D01*
X462941Y223605D01*
X467839Y225197D01*
X466248Y230094D01*
X465253Y229771D01*
X463107Y236376D01*
X464102Y236699D01*
X462510Y241597D01*
D02*
G37*
G36*
X500559Y225890D02*
X494169D01*
Y219500D01*
X495023Y219584D01*
X496325Y219979D01*
X497524Y220620D01*
X498576Y221483D01*
X499439Y222535D01*
X500080Y223734D01*
X500475Y225036D01*
X500559Y225890D01*
D02*
G37*
G36*
X493169D02*
X486780D01*
X486864Y225036D01*
X487259Y223734D01*
X487900Y222535D01*
X488763Y221483D01*
X489814Y220620D01*
X491014Y219979D01*
X492316Y219584D01*
X493169Y219500D01*
Y225890D01*
D02*
G37*
G36*
X468073Y224478D02*
X463175Y222886D01*
X464766Y217989D01*
X465761Y218312D01*
X467533Y212857D01*
X467907Y211707D01*
X466912Y211384D01*
X468504Y206486D01*
X473401Y208078D01*
X471810Y212975D01*
X470816Y212652D01*
X470442Y213802D01*
X470442Y213802D01*
X468670Y219257D01*
X469664Y219580D01*
X468073Y224478D01*
D02*
G37*
G36*
X473635Y207359D02*
X471662Y206717D01*
X472303Y204744D01*
X474276Y205385D01*
X473635Y207359D01*
D02*
G37*
G36*
X470711Y206409D02*
X468737Y205767D01*
X469378Y203794D01*
X471352Y204435D01*
X470711Y206409D01*
D02*
G37*
G36*
X474585Y204434D02*
X472612Y203793D01*
X473253Y201820D01*
X475226Y202461D01*
X474585Y204434D01*
D02*
G37*
G36*
X471661Y203484D02*
X469687Y202843D01*
X470329Y200870D01*
X472302Y201511D01*
X471661Y203484D01*
D02*
G37*
G36*
X443651Y302590D02*
X440648Y301614D01*
X441533Y298892D01*
X444536Y299868D01*
X443651Y302590D01*
D02*
G37*
G36*
X449821Y302429D02*
X449032Y299677D01*
X452067Y298807D01*
X452856Y301558D01*
X449821Y302429D01*
D02*
G37*
G36*
X453817Y301283D02*
X453028Y298532D01*
X456064Y297661D01*
X456852Y300413D01*
X453817Y301283D01*
D02*
G37*
G36*
X439697Y301306D02*
X436694Y300330D01*
X437579Y297608D01*
X440582Y298583D01*
X439697Y301306D01*
D02*
G37*
G36*
X462193Y296559D02*
X459877Y294877D01*
X461733Y292322D01*
X464049Y294005D01*
X462193Y296559D01*
D02*
G37*
G36*
X431807Y296559D02*
X429951Y294005D01*
X432267Y292322D01*
X434123Y294877D01*
X431807Y296559D01*
D02*
G37*
G36*
X464637Y293196D02*
X462321Y291513D01*
X464177Y288959D01*
X466493Y290641D01*
X464637Y293196D01*
D02*
G37*
G36*
X429363Y293196D02*
X427507Y290641D01*
X429823Y288959D01*
X431679Y291513D01*
X429363Y293196D01*
D02*
G37*
G36*
X468398Y284658D02*
X465535D01*
Y281500D01*
X468398D01*
Y284658D01*
D02*
G37*
G36*
X428362Y284658D02*
X425500D01*
Y281500D01*
X428362D01*
Y284658D01*
D02*
G37*
G36*
X468398Y280500D02*
X465535D01*
Y277343D01*
X468398D01*
Y280500D01*
D02*
G37*
G36*
X428362Y280500D02*
X425500D01*
Y277343D01*
X428362D01*
Y280500D01*
D02*
G37*
G36*
X429823Y273041D02*
X427507Y271359D01*
X429363Y268804D01*
X431679Y270486D01*
X429823Y273041D01*
D02*
G37*
G36*
X463967Y272650D02*
X462111Y270096D01*
X464426Y268413D01*
X466282Y270968D01*
X463967Y272650D01*
D02*
G37*
G36*
X432267Y269677D02*
X429951Y267995D01*
X431807Y265441D01*
X434123Y267123D01*
X432267Y269677D01*
D02*
G37*
G36*
X461523Y269287D02*
X459667Y266732D01*
X461982Y265050D01*
X463838Y267604D01*
X461523Y269287D01*
D02*
G37*
G36*
X456420Y264597D02*
X453417Y263621D01*
X454302Y260899D01*
X457305Y261875D01*
X456420Y264597D01*
D02*
G37*
G36*
X452466Y263312D02*
X449463Y262337D01*
X450348Y259615D01*
X453351Y260590D01*
X452466Y263312D01*
D02*
G37*
G36*
X436876Y234429D02*
X435862Y230645D01*
X439646Y229631D01*
X439733Y230291D01*
X439580Y231451D01*
X439132Y232533D01*
X438420Y233461D01*
X437492Y234174D01*
X436876Y234429D01*
D02*
G37*
G36*
X435603Y229679D02*
X434589Y225895D01*
X435250Y225808D01*
X436410Y225960D01*
X437492Y226408D01*
X438420Y227121D01*
X439132Y228049D01*
X439387Y228665D01*
X435603Y229679D01*
D02*
G37*
%LPD*%
D11*
X477439Y258817D02*
X478501Y258113D01*
X475249Y260269D02*
X477439Y258817D01*
X469951Y263781D02*
X475249Y260269D01*
X491091Y248966D02*
X493063Y247533D01*
X490221Y249598D02*
X491091Y248966D01*
X483278Y254642D02*
X490221Y249598D01*
X507570Y236892D02*
X507578Y236886D01*
X497841Y244062D02*
X507570Y236892D01*
X456049Y253904D02*
X459032Y243969D01*
X460857Y238352D02*
X464595Y226850D01*
X466419Y221233D02*
X468988Y213330D01*
X470157Y209731D01*
X388300Y238352D02*
X396159Y244062D01*
X384757Y235777D02*
X388300Y238352D01*
X404982Y250472D02*
X410722Y254642D01*
X400937Y247533D02*
X404982Y250472D01*
X418467Y260269D02*
X423838Y264172D01*
X416807Y259064D02*
X418467Y260269D01*
X415499Y258113D02*
X416807Y259064D01*
X390063Y281000D02*
X402157D01*
X408063Y281000D02*
X418307Y281000D01*
X415499Y303887D02*
X423631Y298036D01*
X400937Y314467D02*
X410722Y307358D01*
X392946Y320273D02*
X396159Y317938D01*
X386375Y325047D02*
X392946Y320273D01*
X423843Y352269D02*
X427581Y340767D01*
X429405Y335150D02*
X433143Y323648D01*
X434968Y318031D02*
X437579Y309511D01*
X437950Y308301D01*
X466419Y340767D02*
X470157Y352269D01*
X460857Y323648D02*
X464595Y335150D01*
X455319Y308335D02*
X459032Y318031D01*
X501962Y320932D02*
X507625Y325047D01*
X497841Y317938D02*
X501962Y320932D01*
X486538Y309726D02*
X493063Y314467D01*
X483278Y307358D02*
X486538Y309726D01*
X470162Y297828D02*
X478501Y303887D01*
X372063Y281000D02*
X384157D01*
X408063Y281000D02*
X408063Y281000D01*
X522079Y281000D02*
X522079Y281000D01*
X509842Y281000D02*
X522079D01*
X491843Y281000D02*
X503937D01*
X491843Y281000D02*
X491843Y281000D01*
X485937D02*
X485937Y281000D01*
X475591Y281000D02*
X485937D01*
X423631Y298036D02*
X423838Y297828D01*
D13*
X466419Y221233D02*
D03*
X464595Y226850D02*
D03*
X422018Y357886D02*
D03*
X423843Y352269D02*
D03*
X429405Y335150D02*
D03*
X427581Y340767D02*
D03*
X433143Y323648D02*
D03*
X434968Y318031D02*
D03*
D14*
X415499Y258113D02*
D03*
X410722Y254642D02*
D03*
X396159Y244062D02*
D03*
X400937Y247533D02*
D03*
X384757Y235777D02*
D03*
X379979Y232306D02*
D03*
X512403Y328518D02*
D03*
X507625Y325047D02*
D03*
X493063Y314467D02*
D03*
X497841Y317938D02*
D03*
X483278Y307358D02*
D03*
X478501Y303887D02*
D03*
D15*
X386375Y325047D02*
D03*
X381597Y328518D02*
D03*
X396159Y317938D02*
D03*
X400937Y314467D02*
D03*
X415499Y303887D02*
D03*
X410722Y307358D02*
D03*
X493063Y247533D02*
D03*
X497841Y244062D02*
D03*
X483278Y254642D02*
D03*
X478501Y258113D02*
D03*
D16*
X466419Y340767D02*
D03*
X464595Y335150D02*
D03*
X470157Y352269D02*
D03*
X471982Y357886D02*
D03*
X459032Y318031D02*
D03*
X460857Y323648D02*
D03*
D17*
X453981Y260269D02*
D03*
X456049Y253904D02*
D03*
X437950Y308301D02*
D03*
X440018Y301936D02*
D03*
D18*
X429253Y268106D02*
D03*
X423838Y264172D02*
D03*
X470162Y297828D02*
D03*
X464747Y293894D02*
D03*
D19*
X468898Y281000D02*
D03*
X475591Y281000D02*
D03*
X418307Y281000D02*
D03*
X425000Y281000D02*
D03*
D20*
X429253Y293894D02*
D03*
X423838Y297828D02*
D03*
X469951Y263781D02*
D03*
X464537Y267715D02*
D03*
D21*
X453475Y301901D02*
D03*
X455319Y308335D02*
D03*
D22*
X522079Y281000D02*
D03*
X402157Y281000D02*
D03*
X408063Y281000D02*
D03*
X390063Y281000D02*
D03*
X384157D02*
D03*
X366158D02*
D03*
X372063D02*
D03*
D23*
X527984D02*
D03*
D24*
X512449Y233547D02*
D03*
X507578Y236886D02*
D03*
D25*
X459032Y243969D02*
D03*
X460857Y238352D02*
D03*
D26*
X470157Y209731D02*
D03*
X471982Y204114D02*
D03*
D27*
X485937Y281000D02*
D03*
X491843Y281000D02*
D03*
D28*
X509842Y281000D02*
D03*
X503937Y281000D02*
D03*
D47*
X435250Y230291D02*
D03*
X425591Y232879D02*
D03*
M02*
