G04 Layer_Color=65535*
%FSLAX25Y25*%
%MOIN*%
G70*
G01*
G75*
%ADD26C,0.01000*%
%ADD29C,0.00394*%
%ADD30C,0.00591*%
G36*
X402784Y237554D02*
X401723Y236740D01*
X402137Y236200D01*
X403152Y236979D01*
X403419Y236632D01*
X402394Y235846D01*
X402823Y235288D01*
X403911Y236123D01*
X404171Y235784D01*
X402698Y234654D01*
X401070Y236776D01*
X402524Y237893D01*
X402784Y237554D01*
D02*
G37*
G36*
X409545Y237001D02*
X409577Y236997D01*
X409632Y236981D01*
X409695Y236957D01*
X409711Y236955D01*
X409748Y236925D01*
X409793Y236886D01*
X409844Y236838D01*
X409851Y236829D01*
X409858Y236820D01*
X409891Y236758D01*
X409929Y236671D01*
X409941Y236579D01*
X409939Y236563D01*
X409931Y236498D01*
X409911Y236410D01*
X409866Y236317D01*
X410556Y236004D01*
X410337Y235836D01*
X409697Y236159D01*
X409459Y235976D01*
X409852Y235464D01*
X409669Y235324D01*
X408750Y236522D01*
X408759Y236529D01*
X409225Y236887D01*
X409235Y236894D01*
X409271Y236922D01*
X409315Y236941D01*
X409367Y236967D01*
X409377Y236974D01*
X409411Y236986D01*
X409462Y236996D01*
X409528Y237003D01*
X409545Y237001D01*
D02*
G37*
G36*
X401110Y236270D02*
X400497Y235799D01*
X401866Y234016D01*
X401472Y233714D01*
X400104Y235497D01*
X399491Y235027D01*
X399231Y235366D01*
X400850Y236608D01*
X401110Y236270D01*
D02*
G37*
G36*
X406452Y233494D02*
X406465Y233476D01*
X406494Y233439D01*
X406517Y233370D01*
X406541Y233301D01*
X406539Y233285D01*
X406558Y233242D01*
X406566Y233175D01*
X406555Y233094D01*
X406553Y233078D01*
X406539Y233038D01*
X406515Y232976D01*
X406481Y232906D01*
X406472Y232899D01*
X406442Y232862D01*
X406394Y232811D01*
X406337Y232753D01*
X406319Y232738D01*
X406283Y232710D01*
X406221Y232678D01*
X406152Y232654D01*
X406136Y232656D01*
X406092Y232637D01*
X406025Y232629D01*
X405951Y232631D01*
X405935Y232633D01*
X405880Y232648D01*
X405815Y232657D01*
X405745Y232691D01*
X405738Y232700D01*
X405701Y232729D01*
X405650Y232777D01*
X405592Y232834D01*
X404981Y233630D01*
X405164Y233770D01*
X405754Y233002D01*
X405760Y232993D01*
X405782Y232965D01*
X405856Y232906D01*
X405863Y232897D01*
X405895Y232893D01*
X405974Y232866D01*
X405990Y232864D01*
X406015Y232869D01*
X406089Y232868D01*
X406099Y232874D01*
X406117Y232889D01*
X406160Y232907D01*
X406197Y232936D01*
X406206Y232943D01*
X406234Y232964D01*
X406281Y233015D01*
X406291Y233022D01*
X406295Y233054D01*
X406322Y233133D01*
X406324Y233149D01*
X406319Y233174D01*
X406313Y233257D01*
X406306Y233266D01*
X406301Y233292D01*
X406283Y233335D01*
X406247Y233381D01*
X405658Y234150D01*
X405841Y234290D01*
X406452Y233494D01*
D02*
G37*
G36*
X407541Y235332D02*
X406955Y234883D01*
X407229Y234527D01*
X407732Y234913D01*
X407858Y234748D01*
X407355Y234362D01*
X407748Y233850D01*
X407565Y233709D01*
X406646Y234908D01*
X407414Y235497D01*
X407541Y235332D01*
D02*
G37*
G36*
X408445Y236085D02*
X408462Y236083D01*
X408478Y236081D01*
X408557Y236054D01*
X408580Y236043D01*
X408626Y236020D01*
X408649Y236009D01*
X408694Y235970D01*
X408701Y235961D01*
X408714Y235943D01*
X408743Y235906D01*
X408778Y235860D01*
X408785Y235851D01*
X408822Y235822D01*
X408864Y235767D01*
X408913Y235703D01*
X408927Y235684D01*
X408962Y235639D01*
X409004Y235584D01*
X409044Y235513D01*
X409051Y235504D01*
X409072Y235476D01*
X409101Y235440D01*
X409122Y235412D01*
X409129Y235403D01*
X409127Y235387D01*
X409153Y235334D01*
X409157Y235309D01*
X409167Y235258D01*
X409174Y235249D01*
X409172Y235233D01*
X409168Y235143D01*
X409166Y235127D01*
X409155Y235104D01*
X409142Y235006D01*
X409133Y234999D01*
X409129Y234967D01*
X409099Y234930D01*
X409067Y234877D01*
X409058Y234870D01*
X409038Y234839D01*
X409008Y234802D01*
X408954Y234760D01*
X408944Y234753D01*
X408908Y234725D01*
X408855Y234699D01*
X408802Y234673D01*
X408793Y234666D01*
X408759Y234654D01*
X408667Y234642D01*
X408650Y234644D01*
X408618Y234648D01*
X408528Y234651D01*
X408512Y234654D01*
X408489Y234665D01*
X408417Y234683D01*
X408401Y234685D01*
X408378Y234696D01*
X408371Y234705D01*
X408348Y234716D01*
X408341Y234726D01*
X408317Y234737D01*
X408310Y234746D01*
X408280Y234766D01*
X408273Y234776D01*
X408259Y234794D01*
X408238Y234821D01*
X408194Y234860D01*
X408187Y234869D01*
X408152Y234915D01*
X408110Y234970D01*
X408053Y235043D01*
X408046Y235052D01*
X408039Y235061D01*
X408011Y235098D01*
X407969Y235153D01*
X407927Y235208D01*
X407920Y235217D01*
X407901Y235260D01*
X407880Y235288D01*
X407852Y235324D01*
X407845Y235334D01*
X407847Y235350D01*
X407821Y235402D01*
X407814Y235412D01*
X407816Y235428D01*
X407806Y235478D01*
X407799Y235488D01*
X407804Y235520D01*
X407805Y235594D01*
X407807Y235610D01*
X407811Y235642D01*
X407831Y235730D01*
X407833Y235746D01*
X407845Y235769D01*
X407867Y235816D01*
X407897Y235853D01*
X407906Y235860D01*
X407935Y235897D01*
X407965Y235934D01*
X408020Y235977D01*
X408029Y235984D01*
X408066Y236012D01*
X408109Y236031D01*
X408162Y236057D01*
X408171Y236064D01*
X408206Y236075D01*
X408249Y236094D01*
X408307Y236095D01*
X408323Y236093D01*
X408348Y236098D01*
X408445Y236085D01*
D02*
G37*
G36*
X413350Y238424D02*
X413945Y238881D01*
X414078Y238707D01*
X413310Y238117D01*
X412390Y239316D01*
X412564Y239449D01*
X413350Y238424D01*
D02*
G37*
G36*
X409092Y239561D02*
X408726Y239280D01*
X407596Y240753D01*
X408150Y238838D01*
X407811Y238578D01*
X406096Y239601D01*
X407226Y238129D01*
X406860Y237848D01*
X405232Y239970D01*
X405643Y240286D01*
X407592Y239224D01*
X407070Y241381D01*
X407464Y241683D01*
X409092Y239561D01*
D02*
G37*
G36*
X412681Y238274D02*
X412695Y238256D01*
X412723Y238219D01*
X412747Y238150D01*
X412771Y238081D01*
X412768Y238065D01*
X412787Y238021D01*
X412795Y237955D01*
X412784Y237874D01*
X412782Y237858D01*
X412769Y237818D01*
X412744Y237756D01*
X412710Y237686D01*
X412701Y237679D01*
X412672Y237642D01*
X412624Y237591D01*
X412567Y237532D01*
X412548Y237519D01*
X412512Y237490D01*
X412450Y237457D01*
X412381Y237434D01*
X412365Y237436D01*
X412321Y237417D01*
X412254Y237409D01*
X412181Y237411D01*
X412164Y237413D01*
X412109Y237428D01*
X412044Y237437D01*
X411975Y237471D01*
X411968Y237480D01*
X411931Y237509D01*
X411879Y237557D01*
X411821Y237614D01*
X411210Y238410D01*
X411393Y238550D01*
X411983Y237782D01*
X411990Y237773D01*
X412011Y237745D01*
X412085Y237686D01*
X412092Y237677D01*
X412125Y237673D01*
X412203Y237646D01*
X412220Y237644D01*
X412245Y237649D01*
X412319Y237647D01*
X412328Y237654D01*
X412346Y237668D01*
X412390Y237687D01*
X412426Y237716D01*
X412435Y237722D01*
X412463Y237743D01*
X412520Y237802D01*
X412529Y237809D01*
X412533Y237841D01*
X412551Y237913D01*
X412553Y237929D01*
X412548Y237954D01*
X412543Y238037D01*
X412536Y238047D01*
X412531Y238072D01*
X412512Y238115D01*
X412477Y238161D01*
X411887Y238930D01*
X412070Y239070D01*
X412681Y238274D01*
D02*
G37*
G36*
X411819Y236973D02*
X411636Y236833D01*
X411060Y237583D01*
X411051Y237576D01*
X411246Y236810D01*
X411091Y236691D01*
X410402Y237077D01*
X410393Y237070D01*
X410968Y236320D01*
X410785Y236180D01*
X409866Y237378D01*
X410039Y237512D01*
X410984Y237001D01*
X410725Y238038D01*
X410899Y238171D01*
X411819Y236973D01*
D02*
G37*
G36*
X406604Y237651D02*
X406174Y237321D01*
X405494Y237715D01*
X404790Y237175D01*
X404658Y237612D01*
X405088Y237942D01*
X404141Y238494D01*
X404756Y236234D01*
X404354Y235925D01*
X403631Y238742D01*
X404052Y239065D01*
X406604Y237651D01*
D02*
G37*
G36*
X403803Y232305D02*
X403787Y232307D01*
X403736Y232297D01*
X403677Y232280D01*
X403608Y232257D01*
X403592Y232259D01*
X403548Y232240D01*
X403486Y232207D01*
X403424Y232174D01*
X403415Y232167D01*
X403406Y232160D01*
X403365Y232100D01*
X403356Y232092D01*
X403354Y232076D01*
X403322Y232023D01*
X403311Y232000D01*
X403318Y231933D01*
X403326Y231924D01*
X403323Y231908D01*
X403356Y231846D01*
X403370Y231827D01*
X403407Y231798D01*
X403424Y231796D01*
X403479Y231780D01*
X403495Y231778D01*
X403553Y231779D01*
X403562Y231786D01*
X403587Y231791D01*
X403649Y231824D01*
X403659Y231831D01*
X403675Y231828D01*
X403718Y231847D01*
X403727Y231854D01*
X403746Y231869D01*
X403801Y231911D01*
X403819Y231925D01*
X403853Y231937D01*
X403915Y231969D01*
X403982Y231977D01*
X403998Y231975D01*
X404033Y231987D01*
X404090Y231988D01*
X404139Y231981D01*
X404155Y231979D01*
X404194Y231966D01*
X404241Y231943D01*
X404287Y231921D01*
X404294Y231911D01*
X404324Y231891D01*
X404362Y231861D01*
X404397Y231816D01*
X404404Y231806D01*
X404418Y231788D01*
X404437Y231745D01*
X404456Y231701D01*
X404482Y231591D01*
X404490Y231524D01*
X404481Y231459D01*
X404470Y231436D01*
X404457Y231397D01*
X404436Y231366D01*
X404404Y231313D01*
X404364Y231253D01*
X404316Y231201D01*
X404243Y231145D01*
X404234Y231138D01*
X404215Y231124D01*
X404197Y231110D01*
X404153Y231091D01*
X404064Y231037D01*
X403958Y230985D01*
X403949Y230978D01*
X403933Y230980D01*
X403866Y230973D01*
X403765Y230953D01*
X403650Y230952D01*
X403673Y231187D01*
X403689Y231185D01*
X403746Y231186D01*
X403813Y231193D01*
X403889Y231208D01*
X403907Y231222D01*
X403951Y231241D01*
X404022Y231281D01*
X404102Y231328D01*
X404111Y231335D01*
X404121Y231342D01*
X404159Y231386D01*
X404216Y231445D01*
X404248Y231498D01*
X404250Y231514D01*
X404256Y231563D01*
X404247Y231613D01*
X404214Y231675D01*
X404207Y231684D01*
X404177Y231705D01*
X404139Y231734D01*
X404091Y231741D01*
X404075Y231743D01*
X404042Y231747D01*
X403992Y231737D01*
X403932Y231721D01*
X403923Y231714D01*
X403904Y231700D01*
X403850Y231658D01*
X403840Y231650D01*
X403815Y231646D01*
X403753Y231613D01*
X403744Y231606D01*
X403700Y231587D01*
X403648Y231561D01*
X403588Y231544D01*
X403572Y231546D01*
X403530Y231543D01*
X403424Y231549D01*
X403408Y231551D01*
X403385Y231562D01*
X403329Y231578D01*
X403283Y231600D01*
X403276Y231610D01*
X403246Y231630D01*
X403208Y231660D01*
X403173Y231705D01*
X403159Y231724D01*
X403138Y231751D01*
X403105Y231813D01*
X403089Y231873D01*
X403091Y231889D01*
X403079Y231923D01*
X403078Y231981D01*
X403087Y232046D01*
X403089Y232062D01*
X403102Y232101D01*
X403125Y232148D01*
X403156Y232201D01*
X403159Y232217D01*
X403188Y232254D01*
X403236Y232306D01*
X403300Y232355D01*
X403309Y232362D01*
X403318Y232369D01*
X403373Y232411D01*
X403451Y232442D01*
X403538Y232480D01*
X403548Y232487D01*
X403564Y232485D01*
X403617Y232510D01*
X403692Y232525D01*
X403785Y232538D01*
X403803Y232305D01*
D02*
G37*
G36*
X507169Y263990D02*
X502054Y259771D01*
X500468Y260348D01*
X505531Y264525D01*
X505686Y264529D01*
X507169Y263990D01*
D02*
G37*
G36*
X509325Y263143D02*
X508146Y262194D01*
X508768Y261967D01*
X507830Y261175D01*
X507208Y261401D01*
X505461Y259971D01*
X505407Y259923D01*
X505373Y259880D01*
X505348Y259847D01*
X505331Y259816D01*
X505323Y259794D01*
X505317Y259778D01*
X505321Y259771D01*
X505319Y259765D01*
X505333Y259736D01*
X505361Y259713D01*
X505390Y259690D01*
X505431Y259669D01*
X505467Y259650D01*
X505494Y259640D01*
X505521Y259630D01*
X505527Y259629D01*
X505808Y259526D01*
X504876Y258750D01*
X504774Y258774D01*
X504680Y258803D01*
X504592Y258829D01*
X504520Y258849D01*
X504460Y258871D01*
X504409Y258883D01*
X504382Y258893D01*
X504371Y258897D01*
X504288Y258921D01*
X504213Y258948D01*
X504142Y258974D01*
X504081Y258990D01*
X504032Y259008D01*
X503989Y259024D01*
X503967Y259032D01*
X503956Y259035D01*
X503832Y259081D01*
X503720Y259128D01*
X503624Y259168D01*
X503547Y259209D01*
X503479Y259240D01*
X503434Y259268D01*
X503409Y259284D01*
X503398Y259288D01*
X503330Y259337D01*
X503273Y259382D01*
X503224Y259431D01*
X503188Y259468D01*
X503160Y259509D01*
X503144Y259533D01*
X503132Y259550D01*
X503128Y259557D01*
X503106Y259614D01*
X503102Y259671D01*
X503111Y259729D01*
X503124Y259780D01*
X503141Y259828D01*
X503161Y259864D01*
X503176Y259890D01*
X503180Y259900D01*
X503238Y259977D01*
X503302Y260052D01*
X503370Y260119D01*
X503435Y260181D01*
X503499Y260238D01*
X503549Y260275D01*
X503568Y260293D01*
X503584Y260305D01*
X503592Y260308D01*
X503594Y260314D01*
X507687Y263678D01*
X507837Y263685D01*
X509325Y263143D01*
D02*
G37*
G36*
X510809Y261224D02*
X506904Y258006D01*
X505323Y258581D01*
X509212Y261806D01*
X510809Y261224D01*
D02*
G37*
G36*
X517542Y258774D02*
X517192Y258480D01*
X518741Y258429D01*
X518789Y258442D01*
X518922Y258388D01*
X518980Y258361D01*
X519032Y258336D01*
X519071Y258309D01*
X519107Y258290D01*
X519127Y258277D01*
X519132Y258275D01*
X519186Y258237D01*
X519234Y258201D01*
X519275Y258161D01*
X519307Y258131D01*
X519328Y258105D01*
X519344Y258081D01*
X519352Y258072D01*
X519356Y258064D01*
X519380Y258013D01*
X519393Y257965D01*
X519403Y257925D01*
X519411Y257879D01*
X519412Y257848D01*
X519413Y257817D01*
X519412Y257799D01*
X519411Y257793D01*
X519404Y257741D01*
X519393Y257695D01*
X519379Y257658D01*
X519360Y257622D01*
X519348Y257589D01*
X519335Y257569D01*
X519324Y257555D01*
X519322Y257550D01*
X519392Y257592D01*
X519459Y257623D01*
X519530Y257651D01*
X519595Y257677D01*
X519656Y257692D01*
X519703Y257705D01*
X519731Y257714D01*
X519744Y257715D01*
X519835Y257731D01*
X519919Y257743D01*
X519996Y257752D01*
X520065Y257757D01*
X520120Y257756D01*
X520158Y257760D01*
X520190Y257761D01*
X520195Y257759D01*
X520286Y257757D01*
X520377Y257754D01*
X520453Y257745D01*
X520519Y257739D01*
X520577Y257730D01*
X520619Y257728D01*
X520642Y257725D01*
X520653Y257721D01*
X520802Y257692D01*
X520868Y257673D01*
X520930Y257657D01*
X520975Y257647D01*
X521013Y257633D01*
X521040Y257623D01*
X521046Y257621D01*
X521143Y257586D01*
X521226Y257543D01*
X521300Y257510D01*
X521366Y257474D01*
X521416Y257443D01*
X521456Y257417D01*
X521475Y257403D01*
X521484Y257394D01*
X521547Y257347D01*
X521602Y257296D01*
X521646Y257249D01*
X521679Y257207D01*
X521702Y257168D01*
X521721Y257136D01*
X521734Y257119D01*
X521737Y257112D01*
X521755Y257044D01*
X521753Y256971D01*
X521742Y256908D01*
X521726Y256846D01*
X521706Y256792D01*
X521691Y256749D01*
X521675Y256724D01*
X521673Y256718D01*
X521671Y256713D01*
X521616Y256629D01*
X521550Y256549D01*
X521472Y256467D01*
X521400Y256389D01*
X521327Y256323D01*
X521273Y256276D01*
X521247Y256254D01*
X521236Y256240D01*
X521221Y256233D01*
X521219Y256228D01*
X519059Y254452D01*
X518934Y254362D01*
X518805Y254293D01*
X518672Y254231D01*
X518547Y254191D01*
X518436Y254157D01*
X518394Y254142D01*
X518354Y254132D01*
X518321Y254126D01*
X518295Y254123D01*
X518281Y254116D01*
X518275Y254118D01*
X518109Y254099D01*
X517954Y254094D01*
X517815Y254101D01*
X517692Y254116D01*
X517639Y254123D01*
X517589Y254135D01*
X517549Y254143D01*
X517516Y254155D01*
X517487Y254160D01*
X517466Y254168D01*
X517455Y254171D01*
X517449Y254173D01*
X516735Y254433D01*
X519287Y256545D01*
X519365Y256608D01*
X519421Y256661D01*
X519463Y256708D01*
X519489Y256747D01*
X519507Y256778D01*
X519517Y256805D01*
X519515Y256817D01*
X519517Y256823D01*
X519513Y256861D01*
X519493Y256893D01*
X519463Y256928D01*
X519429Y256953D01*
X519393Y256972D01*
X519368Y256987D01*
X519347Y256995D01*
X519336Y256999D01*
X519264Y257019D01*
X519189Y257034D01*
X519124Y257039D01*
X519062Y257037D01*
X519005Y257034D01*
X518967Y257029D01*
X518941Y257026D01*
X518934Y257023D01*
X518864Y256999D01*
X518794Y256976D01*
X518728Y256945D01*
X518674Y256915D01*
X518626Y256884D01*
X518587Y256861D01*
X518563Y256845D01*
X518555Y256842D01*
X515972Y254711D01*
X514386Y255288D01*
X516931Y257396D01*
X517009Y257460D01*
X517067Y257518D01*
X517108Y257565D01*
X517135Y257604D01*
X517152Y257634D01*
X517162Y257662D01*
X517161Y257674D01*
X517163Y257680D01*
X517158Y257718D01*
X517134Y257752D01*
X517109Y257785D01*
X517075Y257810D01*
X517044Y257827D01*
X517014Y257844D01*
X516992Y257852D01*
X516987Y257854D01*
X516915Y257874D01*
X516846Y257887D01*
X516780Y257892D01*
X516718Y257891D01*
X516667Y257885D01*
X516629Y257880D01*
X516603Y257877D01*
X516596Y257874D01*
X516520Y257852D01*
X516448Y257823D01*
X516380Y257787D01*
X516317Y257748D01*
X516261Y257714D01*
X516221Y257685D01*
X516194Y257664D01*
X516185Y257656D01*
X513633Y255562D01*
X512042Y256141D01*
X515935Y259359D01*
X517542Y258774D01*
D02*
G37*
G36*
X512968Y260438D02*
X510435Y258345D01*
X510355Y258276D01*
X510295Y258212D01*
X510246Y258162D01*
X510218Y258117D01*
X510198Y258081D01*
X510190Y258060D01*
X510184Y258044D01*
X510183Y258038D01*
X510187Y258000D01*
X510206Y257968D01*
X510231Y257935D01*
X510259Y257912D01*
X510295Y257893D01*
X510320Y257878D01*
X510342Y257870D01*
X510347Y257868D01*
X510425Y257846D01*
X510494Y257833D01*
X510559Y257827D01*
X510621Y257829D01*
X510676Y257828D01*
X510714Y257832D01*
X510740Y257835D01*
X510747Y257839D01*
X510823Y257860D01*
X510896Y257895D01*
X510965Y257931D01*
X511030Y257975D01*
X511086Y258010D01*
X511126Y258038D01*
X511153Y258059D01*
X511162Y258068D01*
X513721Y260164D01*
X515307Y259587D01*
X511407Y256366D01*
X509826Y256942D01*
X510184Y257236D01*
X510043Y257200D01*
X509898Y257173D01*
X509768Y257153D01*
X509659Y257138D01*
X509615Y257135D01*
X509576Y257131D01*
X509545Y257130D01*
X509520Y257127D01*
X509507Y257125D01*
X509502Y257127D01*
X509343Y257130D01*
X509189Y257143D01*
X509044Y257165D01*
X508919Y257192D01*
X508860Y257201D01*
X508806Y257221D01*
X508761Y257231D01*
X508721Y257240D01*
X508694Y257250D01*
X508673Y257258D01*
X508656Y257263D01*
X508651Y257265D01*
X508553Y257301D01*
X508469Y257338D01*
X508392Y257378D01*
X508330Y257413D01*
X508280Y257443D01*
X508244Y257462D01*
X508227Y257481D01*
X508216Y257485D01*
X508159Y257530D01*
X508109Y257579D01*
X508072Y257629D01*
X508044Y257670D01*
X508021Y257709D01*
X508006Y257733D01*
X507996Y257755D01*
X507992Y257763D01*
X507972Y257825D01*
X507967Y257895D01*
X507972Y257960D01*
X507981Y258018D01*
X508001Y258072D01*
X508014Y258110D01*
X508030Y258135D01*
X508034Y258146D01*
X508089Y258230D01*
X508155Y258310D01*
X508228Y258394D01*
X508303Y258465D01*
X508370Y258532D01*
X508426Y258585D01*
X508450Y258601D01*
X508462Y258615D01*
X508476Y258622D01*
X508478Y258628D01*
X511331Y260973D01*
X511480Y260980D01*
X512968Y260438D01*
D02*
G37*
G36*
X502171Y265668D02*
X502226Y265666D01*
X502251Y265669D01*
X502268Y265663D01*
X502275Y265667D01*
X502281Y265665D01*
X502399Y265652D01*
X502500Y265628D01*
X502596Y265605D01*
X502672Y265578D01*
X502731Y265556D01*
X502778Y265533D01*
X502803Y265517D01*
X502814Y265513D01*
X502969Y265518D01*
X503851Y265197D01*
X500268Y260421D01*
X498438Y261087D01*
X499134Y261870D01*
X497948Y262301D01*
X496903Y261652D01*
X495099Y262302D01*
X500377Y265236D01*
X500497Y265296D01*
X500614Y265346D01*
X500717Y265394D01*
X500814Y265426D01*
X500894Y265458D01*
X500956Y265479D01*
X500996Y265488D01*
X501011Y265495D01*
X501134Y265530D01*
X501250Y265562D01*
X501358Y265590D01*
X501457Y265609D01*
X501543Y265627D01*
X501602Y265636D01*
X501627Y265639D01*
X501648Y265644D01*
X501655Y265647D01*
X501660Y265645D01*
X501781Y265656D01*
X501894Y265664D01*
X502000Y265669D01*
X502093Y265672D01*
X502171Y265668D01*
D02*
G37*
G36*
X404906Y233311D02*
X404321Y232862D01*
X404594Y232505D01*
X405097Y232891D01*
X405224Y232727D01*
X404721Y232340D01*
X405114Y231828D01*
X404931Y231688D01*
X404011Y232886D01*
X404780Y233476D01*
X404906Y233311D01*
D02*
G37*
G36*
X426557Y251233D02*
X401219Y231790D01*
X401079Y231973D01*
X426417Y251416D01*
X426557Y251233D01*
D02*
G37*
G36*
X395079Y234185D02*
X395102Y234174D01*
X395151Y234168D01*
X395206Y234152D01*
X395287Y234142D01*
X395373Y234106D01*
X395588Y234053D01*
X395831Y233963D01*
X396105Y233853D01*
X396392Y233725D01*
X396684Y233571D01*
X396691Y233562D01*
X396714Y233551D01*
X396761Y233528D01*
X396814Y233496D01*
X396882Y233447D01*
X396949Y233397D01*
X397040Y233335D01*
X397137Y233265D01*
X397346Y233106D01*
X397568Y232912D01*
X397801Y232684D01*
X398025Y232449D01*
X398032Y232440D01*
X398046Y232421D01*
X398081Y232376D01*
X398116Y232330D01*
X398165Y232266D01*
X398221Y232193D01*
X398291Y232101D01*
X398353Y232003D01*
X398496Y231779D01*
X398651Y231520D01*
X398795Y231238D01*
X398927Y230932D01*
X398934Y230923D01*
X398939Y230898D01*
X398958Y230854D01*
X398982Y230785D01*
X399006Y230716D01*
X399034Y230622D01*
X399087Y230401D01*
X399160Y230137D01*
X399211Y229842D01*
X399261Y229532D01*
X399283Y229200D01*
X399290Y229190D01*
X399286Y229158D01*
X399279Y229110D01*
X399287Y229043D01*
X399285Y228969D01*
X399272Y228872D01*
X399268Y228651D01*
X399241Y228383D01*
X399194Y228085D01*
X399128Y227773D01*
X399044Y227447D01*
X399035Y227440D01*
X399030Y227407D01*
X399017Y227368D01*
X398992Y227305D01*
X398966Y227227D01*
X398930Y227141D01*
X398891Y227039D01*
X398837Y226939D01*
X398722Y226691D01*
X398580Y226422D01*
X398414Y226164D01*
X398221Y225886D01*
X398212Y225879D01*
X398183Y225841D01*
X398142Y225781D01*
X398083Y225707D01*
X398014Y225625D01*
X397937Y225536D01*
X397764Y225345D01*
X397755Y225339D01*
X397725Y225301D01*
X397670Y225259D01*
X397604Y225194D01*
X397529Y225121D01*
X397437Y225051D01*
X397234Y224881D01*
X397216Y224867D01*
X397161Y224825D01*
X397072Y224771D01*
X396971Y224693D01*
X396836Y224604D01*
X396685Y224517D01*
X396524Y224423D01*
X396348Y224331D01*
X396329Y224317D01*
X396269Y224301D01*
X396173Y224256D01*
X396051Y224206D01*
X395904Y224151D01*
X395739Y224082D01*
X395371Y223975D01*
X395311Y224205D01*
X395320Y224212D01*
X395346Y224217D01*
X395396Y224226D01*
X395456Y224243D01*
X395534Y224274D01*
X395619Y224296D01*
X395723Y224331D01*
X395828Y224383D01*
X396062Y224476D01*
X396333Y224596D01*
X396599Y224742D01*
X396867Y224904D01*
X396876Y224911D01*
X396895Y224925D01*
X396931Y224954D01*
X396986Y224996D01*
X397041Y225038D01*
X397114Y225094D01*
X397196Y225157D01*
X397279Y225220D01*
X397466Y225393D01*
X397664Y225589D01*
X397865Y225801D01*
X398061Y226038D01*
X398070Y226045D01*
X398081Y226068D01*
X398111Y226106D01*
X398142Y226159D01*
X398183Y226220D01*
X398226Y226296D01*
X398340Y226470D01*
X398459Y226693D01*
X398583Y226948D01*
X398700Y227212D01*
X398805Y227511D01*
X398808Y227527D01*
X398819Y227550D01*
X398832Y227590D01*
X398848Y227645D01*
X398895Y227812D01*
X398938Y228020D01*
X398979Y228269D01*
X399018Y228560D01*
X399042Y228870D01*
X399043Y229190D01*
X399045Y229206D01*
X399040Y229232D01*
X399038Y229273D01*
X399030Y229340D01*
X399024Y229423D01*
X399019Y229506D01*
X398991Y229731D01*
X398951Y229992D01*
X398888Y230263D01*
X398804Y230562D01*
X398704Y230863D01*
X398697Y230872D01*
X398692Y230897D01*
X398673Y230941D01*
X398647Y230994D01*
X398617Y231072D01*
X398576Y231143D01*
X398532Y231239D01*
X398487Y231336D01*
X398360Y231558D01*
X398219Y231799D01*
X398045Y232043D01*
X397863Y232281D01*
X397856Y232290D01*
X397842Y232309D01*
X397814Y232345D01*
X397769Y232384D01*
X397720Y232448D01*
X397662Y232505D01*
X397590Y232580D01*
X397508Y232648D01*
X397324Y232813D01*
X397110Y232997D01*
X396871Y233177D01*
X396606Y233351D01*
X396599Y233360D01*
X396576Y233372D01*
X396529Y233394D01*
X396476Y233426D01*
X396406Y233460D01*
X396330Y233503D01*
X396135Y233586D01*
X395901Y233682D01*
X395635Y233783D01*
X395334Y233872D01*
X395015Y233947D01*
X395063Y234188D01*
X395079Y234185D01*
D02*
G37*
G36*
X394354Y236608D02*
X394384Y236588D01*
X394400Y236585D01*
X394407Y236576D01*
X394414Y236567D01*
X394403Y236544D01*
X394396Y236496D01*
X394397Y236438D01*
X394385Y236283D01*
X394373Y236071D01*
X394351Y235836D01*
X394331Y235559D01*
X394318Y235272D01*
X394293Y234963D01*
X394291Y234947D01*
X394289Y234931D01*
X394283Y234882D01*
X394284Y234825D01*
X394271Y234670D01*
X394260Y234458D01*
X394228Y234215D01*
X394217Y233945D01*
X394195Y233652D01*
X394171Y233343D01*
X394178Y233334D01*
X394166Y233311D01*
X394160Y233262D01*
X394161Y233204D01*
X394148Y233050D01*
X394137Y232838D01*
X394114Y232602D01*
X394094Y232325D01*
X394072Y232032D01*
X394048Y231723D01*
X394046Y231707D01*
X394043Y231690D01*
X394037Y231642D01*
X394038Y231584D01*
X394033Y231420D01*
X394014Y231217D01*
X393989Y230966D01*
X393969Y230689D01*
X393947Y230396D01*
X393923Y230086D01*
X393932Y230093D01*
X393957Y230098D01*
X393985Y230119D01*
X394035Y230129D01*
X394157Y230179D01*
X394306Y230250D01*
X394497Y230323D01*
X394696Y230404D01*
X394915Y230498D01*
X395149Y230591D01*
X395158Y230598D01*
X395183Y230603D01*
X395201Y230617D01*
X395254Y230643D01*
X395367Y230685D01*
X395532Y230754D01*
X395716Y230837D01*
X395915Y230918D01*
X396143Y231019D01*
X396377Y231112D01*
X396375Y231096D01*
X396359Y231040D01*
X396334Y230978D01*
X396317Y230906D01*
X396315Y230890D01*
X396301Y230850D01*
X396286Y230795D01*
X396277Y230730D01*
X396275Y230714D01*
X396262Y230675D01*
X396246Y230619D01*
X396226Y230531D01*
X396195Y230420D01*
X396155Y230302D01*
X396120Y230159D01*
X396075Y230008D01*
X395971Y229652D01*
X395869Y229254D01*
X395740Y228836D01*
X395625Y228398D01*
X395623Y228382D01*
X395609Y228343D01*
X395594Y228287D01*
X395574Y228200D01*
X395543Y228088D01*
X395503Y227970D01*
X395467Y227827D01*
X395423Y227677D01*
X395328Y227327D01*
X395226Y226930D01*
X395097Y226511D01*
X394982Y226074D01*
X394980Y226058D01*
X394966Y226018D01*
X394951Y225963D01*
X394931Y225875D01*
X394900Y225764D01*
X394860Y225646D01*
X394824Y225502D01*
X394780Y225352D01*
X394675Y224996D01*
X394573Y224598D01*
X394454Y224186D01*
X394338Y223749D01*
X394336Y223733D01*
X394323Y223693D01*
X394307Y223638D01*
X394287Y223550D01*
X394256Y223439D01*
X394216Y223321D01*
X394181Y223178D01*
X394137Y223027D01*
X394032Y222671D01*
X393930Y222273D01*
X393801Y221854D01*
X393686Y221417D01*
X393684Y221401D01*
X393680Y221369D01*
X393664Y221313D01*
X393647Y221241D01*
X393644Y221225D01*
X393633Y221202D01*
X393613Y221172D01*
X393597Y221174D01*
X393580Y221176D01*
X393573Y221185D01*
X393543Y221206D01*
X393531Y221240D01*
X393540Y221305D01*
X393542Y221321D01*
X393555Y221360D01*
X393578Y221407D01*
X393584Y221455D01*
X393588Y221487D01*
X393599Y221568D01*
X393607Y221691D01*
X393621Y221862D01*
X393647Y222056D01*
X393667Y222275D01*
X393690Y222510D01*
X393706Y222755D01*
X393710Y222787D01*
X393721Y222868D01*
X393729Y222990D01*
X393743Y223161D01*
X393759Y223348D01*
X393780Y223568D01*
X393826Y224038D01*
X393830Y224071D01*
X393841Y224152D01*
X393848Y224274D01*
X393863Y224445D01*
X393888Y224639D01*
X393909Y224858D01*
X393954Y225329D01*
X393959Y225361D01*
X393969Y225442D01*
X393977Y225565D01*
X393991Y225735D01*
X394008Y225922D01*
X394028Y226142D01*
X394074Y226612D01*
X394076Y226629D01*
X394080Y226661D01*
X394087Y226710D01*
X394086Y226767D01*
X394107Y226929D01*
X394131Y227107D01*
X394133Y227123D01*
X394137Y227155D01*
X394144Y227204D01*
X394143Y227261D01*
X394150Y227441D01*
X394150Y227630D01*
X394125Y227625D01*
X394056Y227602D01*
X393953Y227566D01*
X393815Y227518D01*
X393661Y227473D01*
X393479Y227406D01*
X393298Y227340D01*
X393100Y227275D01*
X393075Y227270D01*
X393006Y227246D01*
X392912Y227218D01*
X392774Y227170D01*
X392618Y227109D01*
X392446Y227049D01*
X392248Y226985D01*
X392050Y226920D01*
X392053Y226936D01*
X392066Y226976D01*
X392074Y227040D01*
X392103Y227135D01*
X392125Y227239D01*
X392159Y227366D01*
X392196Y227526D01*
X392233Y227685D01*
X392324Y228060D01*
X392419Y228467D01*
X392527Y228913D01*
X392635Y229359D01*
X392637Y229376D01*
X392650Y229415D01*
X392659Y229480D01*
X392678Y229568D01*
X392710Y229679D01*
X392743Y229806D01*
X392778Y229949D01*
X392809Y230118D01*
X392906Y230483D01*
X393001Y230890D01*
X393100Y231329D01*
X393208Y231776D01*
X393210Y231792D01*
X393223Y231831D01*
X393232Y231896D01*
X393252Y231984D01*
X393283Y232095D01*
X393316Y232222D01*
X393344Y232374D01*
X393382Y232534D01*
X393472Y232909D01*
X393567Y233315D01*
X393666Y233755D01*
X393774Y234201D01*
X393776Y234217D01*
X393789Y234257D01*
X393798Y234321D01*
X393818Y234409D01*
X393849Y234520D01*
X393882Y234647D01*
X393917Y234791D01*
X393948Y234959D01*
X394036Y235318D01*
X394140Y235732D01*
X394239Y236171D01*
X394347Y236617D01*
X394354Y236608D01*
D02*
G37*
G36*
X392634Y233850D02*
X392625Y233842D01*
X392599Y233838D01*
X392549Y233828D01*
X392496Y233802D01*
X392427Y233778D01*
X392333Y233749D01*
X392246Y233712D01*
X392142Y233676D01*
X391906Y233567D01*
X391651Y233444D01*
X391402Y233296D01*
X391140Y233125D01*
X391131Y233118D01*
X391113Y233104D01*
X391076Y233076D01*
X391031Y233041D01*
X390967Y232992D01*
X390903Y232943D01*
X390827Y232870D01*
X390745Y232807D01*
X390558Y232634D01*
X390375Y232436D01*
X390175Y232224D01*
X389986Y231978D01*
X389977Y231971D01*
X389966Y231948D01*
X389936Y231910D01*
X389914Y231864D01*
X389873Y231803D01*
X389823Y231736D01*
X389716Y231553D01*
X389606Y231337D01*
X389484Y231098D01*
X389365Y230818D01*
X389262Y230535D01*
X389253Y230528D01*
X389248Y230496D01*
X389235Y230457D01*
X389219Y230401D01*
X389182Y230242D01*
X389138Y230034D01*
X389097Y229784D01*
X389061Y229509D01*
X389046Y229207D01*
X389045Y228886D01*
X389052Y228877D01*
X389047Y228845D01*
X389050Y228803D01*
X389051Y228746D01*
X389056Y228663D01*
X389069Y228571D01*
X389099Y228361D01*
X389141Y228117D01*
X389194Y227839D01*
X389271Y227549D01*
X389365Y227257D01*
X389372Y227248D01*
X389377Y227223D01*
X389395Y227179D01*
X389422Y227126D01*
X389445Y227057D01*
X389485Y226986D01*
X389530Y226890D01*
X389575Y226794D01*
X389695Y226581D01*
X389836Y226340D01*
X389993Y226097D01*
X390176Y225859D01*
X390183Y225850D01*
X390197Y225832D01*
X390225Y225795D01*
X390269Y225757D01*
X390311Y225702D01*
X390376Y225636D01*
X390442Y225569D01*
X390523Y225501D01*
X390698Y225330D01*
X390912Y225146D01*
X391152Y224966D01*
X391400Y224794D01*
X391407Y224784D01*
X391431Y224773D01*
X391477Y224751D01*
X391523Y224728D01*
X391584Y224687D01*
X391660Y224644D01*
X391853Y224545D01*
X392087Y224448D01*
X392344Y224340D01*
X392619Y224247D01*
X392929Y224165D01*
X392881Y223924D01*
X392865Y223926D01*
X392842Y223938D01*
X392793Y223944D01*
X392731Y223969D01*
X392659Y223986D01*
X392564Y224015D01*
X392351Y224084D01*
X392108Y224174D01*
X391837Y224300D01*
X391559Y224435D01*
X391276Y224596D01*
X391269Y224605D01*
X391246Y224617D01*
X391208Y224646D01*
X391155Y224678D01*
X391088Y224728D01*
X391011Y224771D01*
X390930Y224839D01*
X390839Y224900D01*
X390639Y225066D01*
X390424Y225251D01*
X390198Y225470D01*
X389991Y225703D01*
X389984Y225712D01*
X389969Y225730D01*
X389941Y225767D01*
X389899Y225822D01*
X389857Y225877D01*
X389810Y225957D01*
X389747Y226039D01*
X389686Y226138D01*
X389550Y226353D01*
X389411Y226610D01*
X389274Y226883D01*
X389149Y227179D01*
X389142Y227188D01*
X389137Y227213D01*
X389118Y227257D01*
X389101Y227316D01*
X389070Y227395D01*
X389049Y227480D01*
X388986Y227694D01*
X388921Y227949D01*
X388877Y228234D01*
X388827Y228545D01*
X388805Y228877D01*
X388807Y228893D01*
X388802Y228918D01*
X388808Y228967D01*
X388801Y229034D01*
X388815Y229204D01*
X388829Y229433D01*
X388847Y229694D01*
X388894Y229992D01*
X388951Y230297D01*
X389033Y230607D01*
X389035Y230623D01*
X389046Y230646D01*
X389059Y230685D01*
X389084Y230748D01*
X389111Y230827D01*
X389138Y230905D01*
X389230Y231107D01*
X389336Y231348D01*
X389467Y231594D01*
X389616Y231854D01*
X389791Y232119D01*
X389800Y232126D01*
X389811Y232149D01*
X389841Y232186D01*
X389880Y232230D01*
X389930Y232298D01*
X389989Y232372D01*
X390055Y232437D01*
X390132Y232526D01*
X390305Y232717D01*
X390520Y232911D01*
X390753Y233119D01*
X391009Y233315D01*
X391018Y233322D01*
X391037Y233336D01*
X391073Y233364D01*
X391135Y233397D01*
X391199Y233446D01*
X391279Y233493D01*
X391369Y233547D01*
X391467Y233608D01*
X391697Y233726D01*
X391960Y233856D01*
X392254Y233965D01*
X392564Y234072D01*
X392634Y233850D01*
D02*
G37*
G36*
X422523Y246945D02*
X422539Y246943D01*
X422571Y246939D01*
X422627Y246923D01*
X422689Y246898D01*
X422705Y246896D01*
X422743Y246867D01*
X422796Y246835D01*
X422856Y246794D01*
X422664Y246647D01*
X422657Y246656D01*
X422641Y246658D01*
X422578Y246683D01*
X422572Y246692D01*
X422555Y246694D01*
X422484Y246712D01*
X422477Y246721D01*
X422451Y246716D01*
X422392Y246699D01*
X422382Y246692D01*
X422357Y246687D01*
X422295Y246654D01*
X422286Y246647D01*
X422284Y246631D01*
X422245Y246587D01*
X422227Y246573D01*
X422206Y246543D01*
X422195Y246519D01*
X422189Y246471D01*
X422187Y246455D01*
X422173Y246415D01*
X422171Y246399D01*
X422181Y246349D01*
X422186Y246323D01*
X422205Y246280D01*
X422212Y246270D01*
X422219Y246261D01*
X422231Y246227D01*
X422266Y246181D01*
X422273Y246172D01*
X422301Y246135D01*
X422336Y246090D01*
X422378Y246035D01*
X422392Y246017D01*
X422420Y245980D01*
X422455Y245934D01*
X422497Y245879D01*
X422504Y245870D01*
X422518Y245852D01*
X422577Y245795D01*
X422600Y245783D01*
X422637Y245754D01*
X422660Y245743D01*
X422700Y245729D01*
X422716Y245727D01*
X422764Y245721D01*
X422781Y245719D01*
X422824Y245738D01*
X422840Y245735D01*
X422891Y245745D01*
X422900Y245752D01*
X422909Y245759D01*
X422955Y245794D01*
X422964Y245801D01*
X422994Y245839D01*
X423023Y245876D01*
X423055Y245929D01*
X423057Y245945D01*
X423064Y245994D01*
X423072Y246059D01*
X423057Y246134D01*
X423249Y246282D01*
X423263Y246264D01*
X423282Y246220D01*
X423299Y246160D01*
X423314Y246084D01*
X423312Y246068D01*
X423315Y246027D01*
X423315Y245969D01*
X423298Y245897D01*
X423295Y245881D01*
X423275Y245851D01*
X423259Y245795D01*
X423218Y245735D01*
X423209Y245728D01*
X423189Y245698D01*
X423150Y245654D01*
X423095Y245611D01*
X423086Y245604D01*
X423050Y245576D01*
X422997Y245550D01*
X422944Y245524D01*
X422935Y245517D01*
X422900Y245505D01*
X422808Y245493D01*
X422792Y245495D01*
X422760Y245499D01*
X422670Y245503D01*
X422654Y245505D01*
X422631Y245516D01*
X422550Y245527D01*
X422543Y245536D01*
X422519Y245547D01*
X422512Y245557D01*
X422489Y245568D01*
X422473Y245570D01*
X422450Y245581D01*
X422443Y245590D01*
X422422Y245618D01*
X422415Y245627D01*
X422401Y245645D01*
X422371Y245666D01*
X422335Y245711D01*
X422329Y245721D01*
X422293Y245766D01*
X422251Y245821D01*
X422195Y245894D01*
X422188Y245903D01*
X422181Y245913D01*
X422153Y245949D01*
X422111Y246004D01*
X422069Y246059D01*
X422062Y246068D01*
X422034Y246105D01*
X422013Y246132D01*
X421994Y246176D01*
X421987Y246185D01*
X421989Y246201D01*
X421963Y246254D01*
X421956Y246263D01*
X421958Y246279D01*
X421939Y246323D01*
X421941Y246339D01*
X421936Y246364D01*
X421947Y246445D01*
X421949Y246461D01*
X421953Y246494D01*
X421973Y246582D01*
X421975Y246598D01*
X421986Y246621D01*
X422009Y246667D01*
X422039Y246704D01*
X422048Y246711D01*
X422077Y246749D01*
X422107Y246786D01*
X422162Y246828D01*
X422180Y246842D01*
X422217Y246870D01*
X422269Y246896D01*
X422338Y246920D01*
X422347Y246927D01*
X422398Y246937D01*
X422449Y246947D01*
X422523Y246945D01*
D02*
G37*
G36*
X418569Y246832D02*
X418166Y246523D01*
X415843Y247240D01*
X417050Y245667D01*
X416666Y245372D01*
X415038Y247495D01*
X415431Y247796D01*
X417742Y247114D01*
X416556Y248660D01*
X416940Y248955D01*
X418569Y246832D01*
D02*
G37*
G36*
X423642Y247702D02*
X423313Y247449D01*
X424113Y246407D01*
X423930Y246266D01*
X423130Y247309D01*
X422800Y247056D01*
X422681Y247212D01*
X423523Y247858D01*
X423642Y247702D01*
D02*
G37*
G36*
X421646Y246156D02*
X421060Y245707D01*
X421327Y245359D01*
X421830Y245745D01*
X421956Y245580D01*
X421453Y245194D01*
X421720Y244847D01*
X422305Y245296D01*
X422439Y245122D01*
X421670Y244533D01*
X420751Y245731D01*
X421519Y246321D01*
X421646Y246156D01*
D02*
G37*
G36*
X416410Y245176D02*
X415989Y244853D01*
X415300Y245240D01*
X414596Y244699D01*
X414473Y245143D01*
X414903Y245473D01*
X413947Y246018D01*
X414562Y243758D01*
X414160Y243449D01*
X413437Y246266D01*
X413858Y246589D01*
X416410Y245176D01*
D02*
G37*
G36*
X424519Y248491D02*
X424551Y248487D01*
X424607Y248471D01*
X424669Y248447D01*
X424685Y248445D01*
X424723Y248415D01*
X424767Y248376D01*
X424818Y248328D01*
X424825Y248319D01*
X424832Y248310D01*
X424865Y248248D01*
X424903Y248161D01*
X424916Y248069D01*
X424913Y248053D01*
X424914Y247995D01*
X424894Y247907D01*
X424849Y247815D01*
X425531Y247495D01*
X425320Y247333D01*
X424671Y247649D01*
X424442Y247473D01*
X424835Y246961D01*
X424652Y246821D01*
X423733Y248019D01*
X424199Y248377D01*
X424218Y248391D01*
X424245Y248412D01*
X424298Y248438D01*
X424351Y248464D01*
X424360Y248471D01*
X424394Y248483D01*
X424503Y248493D01*
X424519Y248491D01*
D02*
G37*
G36*
X426108Y249696D02*
X426124Y249694D01*
X426166Y249697D01*
X426222Y249681D01*
X426284Y249657D01*
X426300Y249655D01*
X426337Y249625D01*
X426391Y249593D01*
X426451Y249553D01*
X426250Y249398D01*
X426243Y249407D01*
X426227Y249410D01*
X426173Y249441D01*
X426166Y249450D01*
X426150Y249452D01*
X426079Y249470D01*
X426062Y249472D01*
X426046Y249474D01*
X425977Y249450D01*
X425968Y249444D01*
X425943Y249439D01*
X425881Y249406D01*
X425870Y249382D01*
X425840Y249345D01*
X425822Y249331D01*
X425792Y249294D01*
X425790Y249278D01*
X425784Y249229D01*
X425782Y249213D01*
X425768Y249174D01*
X425766Y249158D01*
X425767Y249100D01*
X425781Y249082D01*
X425800Y249038D01*
X425807Y249029D01*
X425805Y249013D01*
X425826Y248985D01*
X425852Y248933D01*
X425859Y248923D01*
X425887Y248887D01*
X425922Y248841D01*
X425964Y248786D01*
X425978Y248768D01*
X426006Y248731D01*
X426041Y248686D01*
X426083Y248631D01*
X426090Y248622D01*
X426113Y248610D01*
X426172Y248553D01*
X426186Y248535D01*
X426223Y248505D01*
X426246Y248494D01*
X426295Y248488D01*
X426311Y248486D01*
X426359Y248479D01*
X426375Y248477D01*
X426410Y248489D01*
X426419Y248496D01*
X426435Y248494D01*
X426486Y248504D01*
X426495Y248511D01*
X426504Y248518D01*
X426541Y248546D01*
X426559Y248560D01*
X426579Y248590D01*
X426618Y248634D01*
X426650Y248688D01*
X426652Y248704D01*
X426658Y248752D01*
X426658Y248810D01*
X426643Y248886D01*
X426844Y249040D01*
X426858Y249022D01*
X426868Y248971D01*
X426885Y248912D01*
X426900Y248836D01*
X426897Y248820D01*
X426900Y248778D01*
X426901Y248720D01*
X426892Y248656D01*
X426890Y248640D01*
X426870Y248609D01*
X426854Y248554D01*
X426813Y248494D01*
X426804Y248486D01*
X426775Y248449D01*
X426736Y248405D01*
X426681Y248363D01*
X426672Y248356D01*
X426645Y248335D01*
X426592Y248309D01*
X426539Y248283D01*
X426530Y248276D01*
X426495Y248264D01*
X426445Y248254D01*
X426394Y248244D01*
X426378Y248247D01*
X426346Y248251D01*
X426256Y248254D01*
X426249Y248264D01*
X426216Y248268D01*
X426145Y248286D01*
X426128Y248288D01*
X426105Y248299D01*
X426098Y248308D01*
X426084Y248326D01*
X426068Y248328D01*
X426045Y248340D01*
X426038Y248349D01*
X426017Y248376D01*
X426010Y248386D01*
X425987Y248397D01*
X425965Y248424D01*
X425921Y248463D01*
X425914Y248472D01*
X425879Y248518D01*
X425837Y248573D01*
X425781Y248646D01*
X425774Y248655D01*
X425767Y248664D01*
X425739Y248701D01*
X425697Y248756D01*
X425655Y248811D01*
X425647Y248820D01*
X425629Y248863D01*
X425608Y248891D01*
X425589Y248934D01*
X425582Y248943D01*
X425575Y248953D01*
X425549Y249005D01*
X425542Y249014D01*
X425544Y249031D01*
X425534Y249081D01*
X425536Y249097D01*
X425531Y249123D01*
X425533Y249197D01*
X425535Y249213D01*
X425539Y249245D01*
X425559Y249333D01*
X425561Y249349D01*
X425581Y249379D01*
X425604Y249426D01*
X425634Y249463D01*
X425643Y249470D01*
X425663Y249500D01*
X425702Y249544D01*
X425748Y249580D01*
X425766Y249593D01*
X425803Y249622D01*
X425855Y249647D01*
X425924Y249671D01*
X425933Y249678D01*
X425984Y249688D01*
X426035Y249698D01*
X426108Y249696D01*
D02*
G37*
G36*
X425265Y251970D02*
X424908Y251696D01*
X423778Y253169D01*
X424323Y251247D01*
X423993Y250995D01*
X422268Y252011D01*
X423399Y250538D01*
X423042Y250265D01*
X421414Y252387D01*
X421816Y252696D01*
X423774Y251640D01*
X423243Y253791D01*
X423636Y254092D01*
X425265Y251970D01*
D02*
G37*
G36*
X420970Y251639D02*
X420986Y251637D01*
X421058Y251620D01*
X421143Y251584D01*
X421261Y251543D01*
X421398Y251460D01*
X421549Y251358D01*
X421703Y251214D01*
X421860Y251029D01*
X421867Y251020D01*
X421881Y251001D01*
X421902Y250974D01*
X421923Y250946D01*
X421991Y250839D01*
X422055Y250699D01*
X422125Y250550D01*
X422185Y250377D01*
X422219Y250200D01*
X422212Y250020D01*
X422210Y250004D01*
X422194Y249949D01*
X422165Y249854D01*
X422118Y249745D01*
X422051Y249606D01*
X421941Y249464D01*
X421805Y249301D01*
X421629Y249151D01*
X421620Y249144D01*
X421611Y249137D01*
X421583Y249116D01*
X421547Y249088D01*
X421441Y249036D01*
X421308Y248963D01*
X421168Y248900D01*
X421005Y248847D01*
X420828Y248813D01*
X420648Y248820D01*
X420632Y248822D01*
X420560Y248840D01*
X420474Y248876D01*
X420356Y248916D01*
X420210Y248993D01*
X420059Y249095D01*
X419896Y249232D01*
X419737Y249400D01*
X419730Y249410D01*
X419716Y249428D01*
X419695Y249455D01*
X419667Y249492D01*
X419615Y249597D01*
X419542Y249730D01*
X419465Y249889D01*
X419412Y250052D01*
X419371Y250238D01*
X419378Y250418D01*
X419380Y250434D01*
X419398Y250506D01*
X419427Y250601D01*
X419474Y250710D01*
X419551Y250856D01*
X419660Y250998D01*
X419797Y251161D01*
X419972Y251310D01*
X419982Y251317D01*
X420000Y251331D01*
X420027Y251352D01*
X420064Y251380D01*
X420169Y251432D01*
X420302Y251505D01*
X420451Y251576D01*
X420622Y251619D01*
X420790Y251647D01*
X420970Y251639D01*
D02*
G37*
G36*
X419030Y250020D02*
X418426Y249557D01*
X419795Y247773D01*
X419401Y247471D01*
X418033Y249255D01*
X417420Y248784D01*
X417160Y249123D01*
X418770Y250358D01*
X419030Y250020D01*
D02*
G37*
G36*
X425951Y247817D02*
X425769Y247677D01*
X424849Y248875D01*
X425032Y249016D01*
X425951Y247817D01*
D02*
G37*
G36*
X420696Y244061D02*
X421281Y244510D01*
X421414Y244336D01*
X420646Y243746D01*
X419727Y244945D01*
X419909Y245085D01*
X420696Y244061D01*
D02*
G37*
G36*
X410135Y243486D02*
X410151Y243483D01*
X410184Y243479D01*
X410239Y243464D01*
X410302Y243439D01*
X410378Y243396D01*
X410462Y243344D01*
X410550Y243267D01*
X410644Y243164D01*
X410658Y243145D01*
X410686Y243109D01*
X410719Y243047D01*
X410757Y242960D01*
X410792Y242856D01*
X410817Y242730D01*
X410825Y242605D01*
X410815Y242467D01*
X410813Y242451D01*
X410800Y242411D01*
X410773Y242333D01*
X410728Y242240D01*
X410671Y242124D01*
X410588Y241987D01*
X410478Y241845D01*
X410351Y241689D01*
X410022Y242004D01*
X410032Y242011D01*
X410061Y242048D01*
X410100Y242092D01*
X410141Y242153D01*
X410243Y242304D01*
X410286Y242380D01*
X410313Y242459D01*
X410315Y242475D01*
X410317Y242491D01*
X410329Y242588D01*
X410305Y242715D01*
X410272Y242777D01*
X410239Y242839D01*
X410232Y242848D01*
X410225Y242857D01*
X410174Y242905D01*
X410099Y242964D01*
X410011Y242984D01*
X409995Y242986D01*
X409938Y242985D01*
X409860Y242954D01*
X409770Y242900D01*
X409240Y242493D01*
X410602Y240719D01*
X410208Y240417D01*
X408580Y242539D01*
X409531Y243269D01*
X409549Y243283D01*
X409586Y243311D01*
X409648Y243344D01*
X409728Y243391D01*
X409815Y243429D01*
X409919Y243465D01*
X410029Y243491D01*
X410135Y243486D01*
D02*
G37*
G36*
X415860Y241556D02*
X415843Y241558D01*
X415793Y241548D01*
X415733Y241532D01*
X415664Y241508D01*
X415648Y241510D01*
X415604Y241491D01*
X415552Y241465D01*
X415489Y241432D01*
X415480Y241425D01*
X415462Y241411D01*
X415421Y241351D01*
X415412Y241344D01*
X415410Y241327D01*
X415378Y241274D01*
X415367Y241251D01*
X415375Y241184D01*
X415382Y241175D01*
X415389Y241166D01*
X415422Y241104D01*
X415436Y241086D01*
X415473Y241056D01*
X415489Y241054D01*
X415535Y241031D01*
X415552Y241029D01*
X415609Y241030D01*
X415618Y241037D01*
X415644Y241042D01*
X415706Y241075D01*
X415715Y241082D01*
X415731Y241080D01*
X415775Y241098D01*
X415784Y241106D01*
X415802Y241120D01*
X415857Y241162D01*
X415875Y241176D01*
X415910Y241188D01*
X415972Y241221D01*
X416038Y241228D01*
X416054Y241226D01*
X416089Y241238D01*
X416147Y241239D01*
X416195Y241232D01*
X416211Y241230D01*
X416251Y241217D01*
X416297Y241194D01*
X416343Y241172D01*
X416350Y241162D01*
X416381Y241142D01*
X416418Y241112D01*
X416453Y241067D01*
X416460Y241058D01*
X416474Y241039D01*
X416493Y240996D01*
X416521Y240959D01*
X416548Y240849D01*
X416555Y240782D01*
X416547Y240717D01*
X416535Y240694D01*
X416522Y240655D01*
X416502Y240624D01*
X416470Y240571D01*
X416429Y240511D01*
X416372Y240452D01*
X416299Y240396D01*
X416290Y240389D01*
X416271Y240375D01*
X416253Y240361D01*
X416210Y240342D01*
X416120Y240288D01*
X416015Y240236D01*
X416006Y240229D01*
X415989Y240231D01*
X415922Y240224D01*
X415830Y240211D01*
X415715Y240210D01*
X415729Y240438D01*
X415745Y240436D01*
X415803Y240437D01*
X415878Y240452D01*
X415954Y240466D01*
X415973Y240480D01*
X416016Y240499D01*
X416078Y240532D01*
X416158Y240579D01*
X416168Y240586D01*
X416177Y240593D01*
X416216Y240637D01*
X416272Y240696D01*
X416304Y240749D01*
X416306Y240765D01*
X416313Y240814D01*
X416303Y240864D01*
X416270Y240926D01*
X416263Y240935D01*
X416242Y240963D01*
X416195Y240985D01*
X416156Y240999D01*
X416140Y241001D01*
X416108Y241005D01*
X416057Y240996D01*
X415988Y240972D01*
X415979Y240965D01*
X415961Y240951D01*
X415906Y240909D01*
X415897Y240901D01*
X415880Y240904D01*
X415819Y240871D01*
X415809Y240864D01*
X415766Y240845D01*
X415704Y240812D01*
X415644Y240795D01*
X415628Y240797D01*
X415596Y240801D01*
X415489Y240807D01*
X415473Y240809D01*
X415441Y240813D01*
X415395Y240836D01*
X415348Y240859D01*
X415341Y240868D01*
X415311Y240888D01*
X415274Y240918D01*
X415239Y240964D01*
X415225Y240982D01*
X415204Y241009D01*
X415171Y241071D01*
X415145Y241124D01*
X415147Y241140D01*
X415135Y241175D01*
X415134Y241232D01*
X415143Y241297D01*
X415145Y241313D01*
X415158Y241352D01*
X415181Y241399D01*
X415213Y241452D01*
X415215Y241468D01*
X415244Y241506D01*
X415292Y241557D01*
X415365Y241613D01*
X415375Y241620D01*
X415384Y241627D01*
X415429Y241662D01*
X415507Y241693D01*
X415595Y241731D01*
X415604Y241738D01*
X415620Y241736D01*
X415673Y241761D01*
X415749Y241776D01*
X415841Y241789D01*
X415860Y241556D01*
D02*
G37*
G36*
X415231Y239591D02*
X415039Y239444D01*
X414744Y239639D01*
X414286Y239288D01*
X414398Y238952D01*
X414206Y238805D01*
X413726Y240340D01*
X413872Y240453D01*
X415231Y239591D01*
D02*
G37*
G36*
X417893Y241634D02*
X417700Y241486D01*
X417406Y241681D01*
X416948Y241331D01*
X417060Y240995D01*
X416868Y240848D01*
X416388Y242383D01*
X416534Y242495D01*
X417893Y241634D01*
D02*
G37*
G36*
X419597Y244584D02*
X419011Y244134D01*
X419278Y243787D01*
X419781Y244173D01*
X419907Y244008D01*
X419404Y243622D01*
X419671Y243274D01*
X420257Y243724D01*
X420390Y243550D01*
X419622Y242960D01*
X418702Y244159D01*
X419470Y244748D01*
X419597Y244584D01*
D02*
G37*
G36*
X413904Y243253D02*
X413510Y242951D01*
X412815Y243856D01*
X411763Y243049D01*
X412458Y242144D01*
X412065Y241842D01*
X410437Y243964D01*
X410830Y244266D01*
X411504Y243388D01*
X412556Y244195D01*
X411882Y245073D01*
X412275Y245375D01*
X413904Y243253D01*
D02*
G37*
G36*
X418078Y243418D02*
X417493Y242969D01*
X417760Y242622D01*
X418263Y243008D01*
X418389Y242843D01*
X417886Y242457D01*
X418153Y242109D01*
X418738Y242559D01*
X418871Y242385D01*
X418103Y241795D01*
X417183Y242993D01*
X417952Y243583D01*
X418078Y243418D01*
D02*
G37*
%LPC*%
G36*
X409542Y236796D02*
X409501Y236793D01*
X409485Y236795D01*
X409425Y236778D01*
X409416Y236771D01*
X409400Y236774D01*
X409345Y236731D01*
X409052Y236507D01*
X409333Y236141D01*
X409616Y236358D01*
X409625Y236366D01*
X409644Y236380D01*
X409692Y236431D01*
X409701Y236438D01*
X409712Y236461D01*
X409716Y236493D01*
X409721Y236526D01*
X409723Y236542D01*
X409725Y236558D01*
X409715Y236609D01*
X409708Y236618D01*
X409703Y236643D01*
X409670Y236705D01*
X409663Y236714D01*
X409649Y236733D01*
X409596Y236764D01*
X409589Y236773D01*
X409573Y236775D01*
X409542Y236796D01*
D02*
G37*
G36*
X408268Y235862D02*
X408231Y235834D01*
X408206Y235829D01*
X408153Y235803D01*
X408142Y235780D01*
X408103Y235735D01*
X408085Y235721D01*
X408065Y235691D01*
X408053Y235668D01*
X408047Y235619D01*
X408045Y235603D01*
X408041Y235571D01*
X408039Y235555D01*
X408039Y235497D01*
X408044Y235472D01*
X408063Y235428D01*
X408070Y235419D01*
X408077Y235410D01*
X408098Y235383D01*
X408124Y235330D01*
X408131Y235321D01*
X408159Y235284D01*
X408194Y235238D01*
X408236Y235183D01*
X408250Y235165D01*
X408278Y235128D01*
X408314Y235083D01*
X408356Y235028D01*
X408363Y235019D01*
X408386Y235007D01*
X408435Y234943D01*
X408458Y234932D01*
X408495Y234903D01*
X408519Y234891D01*
X408567Y234885D01*
X408583Y234883D01*
X408623Y234869D01*
X408639Y234867D01*
X408682Y234886D01*
X408699Y234884D01*
X408749Y234894D01*
X408758Y234901D01*
X408767Y234908D01*
X408813Y234943D01*
X408822Y234950D01*
X408831Y234957D01*
X408877Y234992D01*
X408886Y234999D01*
X408888Y235015D01*
X408902Y235055D01*
X408911Y235062D01*
X408913Y235078D01*
X408934Y235108D01*
X408936Y235124D01*
X408933Y235166D01*
X408935Y235182D01*
X408925Y235232D01*
X408918Y235242D01*
X408920Y235258D01*
X408911Y235308D01*
X408904Y235317D01*
X408889Y235336D01*
X408869Y235363D01*
X408840Y235400D01*
X408833Y235409D01*
X408814Y235453D01*
X408779Y235498D01*
X408730Y235562D01*
X408716Y235581D01*
X408695Y235608D01*
X408653Y235663D01*
X408609Y235702D01*
X408602Y235711D01*
X408581Y235738D01*
X408560Y235766D01*
X408539Y235793D01*
X408532Y235802D01*
X408515Y235805D01*
X408469Y235827D01*
X408462Y235836D01*
X408446Y235838D01*
X408406Y235852D01*
X408390Y235854D01*
X408358Y235858D01*
X408342Y235860D01*
X408284Y235860D01*
X408268Y235862D01*
D02*
G37*
G36*
X501565Y264607D02*
X499199Y263109D01*
X499978Y262825D01*
X501565Y264607D01*
D02*
G37*
G36*
X424484Y248290D02*
X424459Y248285D01*
X424399Y248269D01*
X424390Y248262D01*
X424374Y248264D01*
X424319Y248222D01*
X424035Y248004D01*
X424316Y247638D01*
X424590Y247849D01*
X424600Y247856D01*
X424627Y247877D01*
X424675Y247928D01*
X424684Y247935D01*
X424686Y247951D01*
X424704Y248023D01*
X424706Y248039D01*
X424708Y248055D01*
X424698Y248106D01*
X424691Y248115D01*
X424686Y248140D01*
X424644Y248195D01*
X424637Y248204D01*
X424623Y248223D01*
X424570Y248254D01*
X424563Y248264D01*
X424547Y248266D01*
X424484Y248290D01*
D02*
G37*
G36*
X420807Y251151D02*
X420749Y251150D01*
X420666Y251145D01*
X420574Y251132D01*
X420471Y251097D01*
X420356Y251038D01*
X420239Y250962D01*
X420221Y250949D01*
X420184Y250920D01*
X420136Y250869D01*
X420070Y250804D01*
X420009Y250713D01*
X419948Y250623D01*
X419910Y250521D01*
X419886Y250401D01*
X419883Y250384D01*
X419886Y250343D01*
X419887Y250285D01*
X419909Y250200D01*
X419937Y250106D01*
X419987Y249984D01*
X420053Y249860D01*
X420142Y249725D01*
X420156Y249707D01*
X420191Y249661D01*
X420250Y249604D01*
X420322Y249529D01*
X420403Y249461D01*
X420517Y249388D01*
X420617Y249334D01*
X420735Y249294D01*
X420751Y249292D01*
X420783Y249287D01*
X420850Y249295D01*
X420933Y249301D01*
X421025Y249313D01*
X421129Y249349D01*
X421243Y249408D01*
X421369Y249490D01*
X421387Y249504D01*
X421424Y249532D01*
X421472Y249583D01*
X421531Y249658D01*
X421590Y249732D01*
X421652Y249823D01*
X421690Y249925D01*
X421704Y250038D01*
X421707Y250054D01*
X421704Y250095D01*
X421696Y250162D01*
X421674Y250247D01*
X421646Y250342D01*
X421596Y250463D01*
X421530Y250587D01*
X421441Y250722D01*
X421427Y250740D01*
X421392Y250786D01*
X421334Y250843D01*
X421261Y250918D01*
X421180Y250987D01*
X421073Y251050D01*
X420966Y251114D01*
X420855Y251145D01*
X420839Y251147D01*
X420807Y251151D01*
D02*
G37*
G36*
X413988Y240149D02*
X414215Y239495D01*
X414562Y239761D01*
X413988Y240149D01*
D02*
G37*
G36*
X416650Y242192D02*
X416877Y241537D01*
X417224Y241804D01*
X416650Y242192D01*
D02*
G37*
%LPD*%
D26*
X449170Y213398D02*
X447179Y213224D01*
X448174Y213311D01*
X448610Y208331D01*
X447701Y207248D01*
X446705Y207161D01*
X445622Y208070D01*
X451685Y207597D02*
X453677Y207771D01*
X452681Y207684D01*
X452158Y213659D01*
X451249Y212576D01*
D29*
X519579Y278500D02*
X519579Y283500D01*
X519579Y278500D02*
X530579Y278500D01*
X530579Y283500D01*
X519579Y283500D02*
X530579Y283500D01*
X531579Y278500D02*
X531579Y283500D01*
X513437Y278500D02*
X513437Y283500D01*
X501437Y283500D02*
X512437Y283500D01*
X512437Y278500D02*
X512437Y283500D01*
X501437Y278500D02*
X512437Y278500D01*
X501437Y278500D02*
X501437Y283500D01*
X483437Y283500D02*
X483437Y278500D01*
X494437D01*
X494437Y283500D02*
X494437Y278500D01*
X483437Y283500D02*
X494437D01*
X495437Y283500D02*
X495437Y278500D01*
X386928Y321555D02*
X389867Y325600D01*
X380967Y332066D02*
X389867Y325600D01*
X378029Y328021D02*
X380967Y332066D01*
X378029Y328021D02*
X386928Y321555D01*
X377220Y328608D02*
X380158Y332653D01*
X465153Y217042D02*
X469908Y218587D01*
X466200Y230000D02*
X469599Y219538D01*
X464844Y217993D02*
X469599Y219538D01*
X461444Y228455D02*
X464844Y217993D01*
X461444Y228455D02*
X466200Y230000D01*
X416052Y261605D02*
X418991Y257560D01*
X407153Y255140D02*
X416052Y261605D01*
X407153Y255140D02*
X410092Y251095D01*
X418991Y257560D01*
X406344Y254552D02*
X409283Y250507D01*
X391782Y243972D02*
X394721Y239927D01*
X395530Y240515D02*
X404429Y246980D01*
X392591Y244560D02*
X395530Y240515D01*
X392591Y244560D02*
X401490Y251025D01*
X404429Y246980D01*
X385310Y239270D02*
X388249Y235225D01*
X376411Y232804D02*
X385310Y239270D01*
X376411Y232804D02*
X379349Y228759D01*
X388249Y235225D01*
X375602Y232216D02*
X378540Y228171D01*
X391782Y318028D02*
X394721Y322073D01*
X392591Y317440D02*
X401490Y310975D01*
X392591Y317440D02*
X395530Y321485D01*
X404429Y315020D01*
X401490Y310975D02*
X404429Y315020D01*
X416052Y300395D02*
X418991Y304440D01*
X410092Y310905D02*
X418991Y304440D01*
X407153Y306860D02*
X410092Y310905D01*
X407153Y306860D02*
X416052Y300395D01*
X406344Y307448D02*
X409283Y311493D01*
X418530Y360532D02*
X423285Y362077D01*
X418839Y359581D02*
X422238Y349119D01*
X418839Y359581D02*
X423594Y361126D01*
X426993Y350664D01*
X422238Y349119D02*
X426993Y350664D01*
X427800Y332000D02*
X432556Y333545D01*
X429156Y344007D02*
X432556Y333545D01*
X424401Y342462D02*
X429156Y344007D01*
X424401Y342462D02*
X427800Y332000D01*
X424092Y343413D02*
X428848Y344958D01*
X429655Y326294D02*
X434410Y327839D01*
X429963Y325343D02*
X433363Y314881D01*
X429963Y325343D02*
X434719Y326888D01*
X438118Y316426D01*
X433363Y314881D02*
X438118Y316426D01*
X465153Y344958D02*
X469908Y343413D01*
X461444Y333545D02*
X464844Y344007D01*
X469599Y342462D01*
X466200Y332000D02*
X469599Y342462D01*
X461444Y333545D02*
X466200Y332000D01*
X467007Y350664D02*
X471762Y349119D01*
X475161Y359581D01*
X470406Y361126D02*
X475161Y359581D01*
X467007Y350664D02*
X470406Y361126D01*
X470715Y362077D02*
X475470Y360532D01*
X455882Y316426D02*
X460637Y314881D01*
X464037Y325343D01*
X459281Y326888D02*
X464037Y325343D01*
X455882Y316426D02*
X459281Y326888D01*
X459590Y327839D02*
X464346Y326294D01*
X513841Y332653D02*
X516780Y328608D01*
X504133Y325600D02*
X513032Y332066D01*
X515971Y328021D01*
X507072Y321555D02*
X515971Y328021D01*
X504133Y325600D02*
X507072Y321555D01*
X489571Y315020D02*
X492510Y310975D01*
X501409Y317440D01*
X498470Y321485D02*
X501409Y317440D01*
X489571Y315020D02*
X498470Y321485D01*
X499279Y322073D02*
X502218Y318028D01*
X484717Y311493D02*
X487656Y307448D01*
X475009Y304440D02*
X483908Y310905D01*
X486847Y306860D01*
X477948Y300395D02*
X486847Y306860D01*
X475009Y304440D02*
X477948Y300395D01*
X449048Y262508D02*
X453374Y249193D01*
X449048Y262508D02*
X456656Y264980D01*
X460982Y251665D01*
X453374Y249193D02*
X460982Y251665D01*
X418531Y265260D02*
X429857Y273489D01*
X434559Y267017D01*
X423233Y258788D02*
X434559Y267017D01*
X418531Y265260D02*
X423233Y258788D01*
X465244Y277000D02*
X479244D01*
X465244D02*
Y285000D01*
X479244D01*
Y277000D02*
Y285000D01*
X470767Y303212D02*
X475469Y296740D01*
X459441Y294983D02*
X470767Y303212D01*
X459441Y294983D02*
X464143Y288511D01*
X475469Y296740D01*
X414653Y277000D02*
X414654Y285000D01*
X414653Y277000D02*
X428653Y277000D01*
X428654Y285000D01*
X414654Y285000D02*
X428654Y285000D01*
X423233Y303212D02*
X434559Y294983D01*
X429857Y288511D02*
X434559Y294983D01*
X418531Y296740D02*
X429857Y288511D01*
X418531Y296740D02*
X423233Y303212D01*
X433017Y310539D02*
X440625Y313012D01*
X433017Y310539D02*
X437343Y297225D01*
X444952Y299697D01*
X440625Y313012D02*
X444952Y299697D01*
X456313Y297287D02*
X460172Y310744D01*
X448622Y299492D02*
X456313Y297287D01*
X448622Y299492D02*
X452481Y312949D01*
X460172Y310744D01*
X470556Y258398D02*
X475258Y264870D01*
X463932Y273099D02*
X475258Y264870D01*
X459230Y266627D02*
X463932Y273099D01*
X459230Y266627D02*
X470556Y258398D01*
X514000Y229452D02*
X516827Y233576D01*
X506930Y240362D02*
X516002Y234141D01*
X513175Y230018D02*
X516002Y234141D01*
X504103Y236238D02*
X513175Y230018D01*
X504103Y236238D02*
X506930Y240362D01*
X489571Y246980D02*
X492510Y251025D01*
X489571Y246980D02*
X498470Y240515D01*
X501409Y244560D01*
X492510Y251025D02*
X501409Y244560D01*
X499279Y239927D02*
X502218Y243972D01*
X484717Y250507D02*
X487656Y254552D01*
X477948Y261605D02*
X486847Y255140D01*
X483908Y251095D02*
X486847Y255140D01*
X475009Y257560D02*
X483908Y251095D01*
X475009Y257560D02*
X477948Y261605D01*
X455882Y245574D02*
X460637Y247119D01*
X455882Y245574D02*
X459281Y235112D01*
X464037Y236657D01*
X460637Y247119D02*
X464037Y236657D01*
X459590Y234161D02*
X464346Y235706D01*
X467007Y211336D02*
X471762Y212881D01*
X467007Y211336D02*
X470406Y200874D01*
X475161Y202419D01*
X471762Y212881D02*
X475161Y202419D01*
X470715Y199923D02*
X475470Y201468D01*
X398563Y278500D02*
Y283500D01*
X399563Y278500D02*
X410563Y278500D01*
X399563Y278500D02*
Y283500D01*
X410563Y283500D01*
Y278500D02*
Y283500D01*
X392563Y278500D02*
Y283500D01*
X381563D02*
X392563D01*
X381563Y278500D02*
Y283500D01*
Y278500D02*
X392563D01*
X380563D02*
Y283500D01*
X362563Y278500D02*
Y283500D01*
X363563Y278500D02*
X374563D01*
X363563D02*
Y283500D01*
X374563D01*
Y278500D02*
Y283500D01*
D30*
X432218Y363988D02*
X434842D01*
X433530D01*
Y360052D01*
X438778Y363332D02*
X438122Y363988D01*
X436810D01*
X436154Y363332D01*
Y362676D01*
X436810Y362020D01*
X438122D01*
X438778Y361364D01*
Y360708D01*
X438122Y360052D01*
X436810D01*
X436154Y360708D01*
X440090Y360052D02*
Y362676D01*
X441402Y363988D01*
X442713Y362676D01*
Y360052D01*
Y362020D01*
X440090D01*
X444025Y363988D02*
Y360052D01*
X446649D01*
X451897Y363988D02*
Y360052D01*
X454521D01*
X458456Y363988D02*
X455833D01*
Y360052D01*
X458456D01*
X455833Y362020D02*
X457144D01*
X459768Y363988D02*
Y360052D01*
X461736D01*
X462392Y360708D01*
Y363332D01*
X461736Y363988D01*
X459768D01*
X440090Y353912D02*
Y357848D01*
X442058D01*
X442713Y357192D01*
Y355880D01*
X442058Y355224D01*
X440090D01*
X441402D02*
X442713Y353912D01*
X446649Y357848D02*
X444025D01*
Y353912D01*
X446649D01*
X444025Y355880D02*
X445337D01*
X447961Y357848D02*
Y355224D01*
X449273Y353912D01*
X450585Y355224D01*
Y357848D01*
X451897Y357192D02*
X452553Y357848D01*
X453865D01*
X454521Y357192D01*
Y354568D01*
X453865Y353912D01*
X452553D01*
X451897Y354568D01*
Y357192D01*
X484805Y292856D02*
X484149Y293512D01*
X482837D01*
X482182Y292856D01*
Y292200D01*
X482837Y291544D01*
X484149D01*
X484805Y290888D01*
Y290232D01*
X484149Y289577D01*
X482837D01*
X482182Y290232D01*
X486117Y292200D02*
Y290232D01*
X486773Y289577D01*
X488741D01*
Y292200D01*
X490053Y289577D02*
Y292200D01*
X490709D01*
X491365Y291544D01*
Y289577D01*
Y291544D01*
X492021Y292200D01*
X492677Y291544D01*
Y289577D01*
X493989Y292200D02*
Y289577D01*
Y290888D01*
X494645Y291544D01*
X495301Y292200D01*
X495957D01*
X499892Y289577D02*
X498580D01*
X497924Y290232D01*
Y291544D01*
X498580Y292200D01*
X499892D01*
X500548Y291544D01*
Y290888D01*
X497924D01*
X503828Y289577D02*
X502516D01*
X501860Y290232D01*
Y291544D01*
X502516Y292200D01*
X503828D01*
X504484Y291544D01*
Y290888D01*
X501860D01*
X505796Y289577D02*
Y292200D01*
X507764D01*
X508420Y291544D01*
Y289577D01*
X513667Y293512D02*
Y289577D01*
Y290888D01*
X516291Y293512D01*
X514323Y291544D01*
X516291Y289577D01*
X518259Y292200D02*
X519571D01*
X520227Y291544D01*
Y289577D01*
X518259D01*
X517603Y290232D01*
X518259Y290888D01*
X520227D01*
X521539Y292200D02*
Y290232D01*
X522195Y289577D01*
X524163D01*
Y292200D01*
X525475D02*
Y289577D01*
Y290888D01*
X526131Y291544D01*
X526787Y292200D01*
X527443D01*
X522482Y276632D02*
Y272697D01*
X524449D01*
X525105Y273353D01*
Y275976D01*
X524449Y276632D01*
X522482D01*
X526417Y273353D02*
X527073Y272697D01*
X528385D01*
X529041Y273353D01*
Y275976D01*
X528385Y276632D01*
X527073D01*
X526417Y275976D01*
Y275320D01*
X527073Y274664D01*
X529041D01*
X504103Y276632D02*
Y272697D01*
X506070D01*
X506726Y273353D01*
Y275976D01*
X506070Y276632D01*
X504103D01*
X508038Y275976D02*
X508694Y276632D01*
X510006D01*
X510662Y275976D01*
Y275320D01*
X510006Y274664D01*
X510662Y274008D01*
Y273353D01*
X510006Y272697D01*
X508694D01*
X508038Y273353D01*
Y274008D01*
X508694Y274664D01*
X508038Y275320D01*
Y275976D01*
X508694Y274664D02*
X510006D01*
X486064Y276632D02*
Y272697D01*
X488032D01*
X488688Y273353D01*
Y275976D01*
X488032Y276632D01*
X486064D01*
X490000D02*
X492624D01*
Y275976D01*
X490000Y273353D01*
Y272697D01*
X373117Y320362D02*
Y316426D01*
X375085D01*
X375741Y317082D01*
Y319706D01*
X375085Y320362D01*
X373117D01*
X379677Y316426D02*
X377053D01*
X379677Y319050D01*
Y319706D01*
X379021Y320362D01*
X377709D01*
X377053Y319706D01*
X380989Y316426D02*
X382301D01*
X381645D01*
Y320362D01*
X380989Y319706D01*
X434646Y269291D02*
X432332Y272475D01*
X433924Y273632D01*
X434841Y273487D01*
X435612Y272426D01*
X435467Y271509D01*
X433875Y270353D01*
X434936Y271124D02*
X436768Y270834D01*
X437444Y272135D02*
X438360Y271990D01*
X439422Y272761D01*
X439567Y273678D01*
X438025Y275800D01*
X437108Y275945D01*
X436047Y275174D01*
X435902Y274258D01*
X436287Y273727D01*
X437204Y273582D01*
X438796Y274739D01*
X430315Y278740D02*
Y282676D01*
X432283D01*
X432939Y282020D01*
Y280708D01*
X432283Y280052D01*
X430315D01*
X431627D02*
X432939Y278740D01*
X434251Y282020D02*
X434907Y282676D01*
X436219D01*
X436874Y282020D01*
Y281364D01*
X436219Y280708D01*
X436874Y280052D01*
Y279396D01*
X436219Y278740D01*
X434907D01*
X434251Y279396D01*
Y280052D01*
X434907Y280708D01*
X434251Y281364D01*
Y282020D01*
X434907Y280708D02*
X436219D01*
X432418Y288986D02*
X434732Y292170D01*
X436324Y291013D01*
X436469Y290097D01*
X435698Y289036D01*
X434782Y288891D01*
X433190Y290047D01*
X434251Y289276D02*
X434541Y287444D01*
X437916Y289857D02*
X440039Y288314D01*
X439653Y287784D01*
X435988Y287203D01*
X435603Y286673D01*
X439567Y296595D02*
X443310Y297811D01*
X443918Y295939D01*
X443497Y295113D01*
X442249Y294707D01*
X441423Y295128D01*
X440815Y297000D01*
X441220Y295752D02*
X440378Y294099D01*
X445337Y291572D02*
X444308Y292617D01*
X442655Y293460D01*
X441407Y293054D01*
X440986Y292228D01*
X441391Y290980D01*
X442218Y290559D01*
X442842Y290761D01*
X443263Y291588D01*
X442655Y293460D01*
X450000Y297638D02*
X453783Y296553D01*
X453241Y294661D01*
X452429Y294212D01*
X451168Y294573D01*
X450719Y295385D01*
X451261Y297276D01*
X450900Y296015D02*
X449277Y295116D01*
X451975Y290248D02*
X452698Y292770D01*
X450807Y293312D01*
X451076Y291870D01*
X450895Y291240D01*
X450084Y290790D01*
X448822Y291151D01*
X448373Y291963D01*
X448734Y293224D01*
X449546Y293674D01*
X456496Y285630D02*
X454183Y288814D01*
X455775Y289971D01*
X456691Y289826D01*
X457462Y288764D01*
X457317Y287848D01*
X455725Y286691D01*
X456786Y287462D02*
X458619Y287172D01*
X461272Y289100D02*
X458959Y292284D01*
X458524Y289535D01*
X460646Y291078D01*
X457402Y279134D02*
Y283070D01*
X459369D01*
X460025Y282414D01*
Y281102D01*
X459369Y280446D01*
X457402D01*
X458713D02*
X460025Y279134D01*
X461337Y282414D02*
X461993Y283070D01*
X463305D01*
X463961Y282414D01*
Y281758D01*
X463305Y281102D01*
X462649D01*
X463305D01*
X463961Y280446D01*
Y279790D01*
X463305Y279134D01*
X461993D01*
X461337Y279790D01*
X454134Y273228D02*
X456447Y276412D01*
X458039Y275256D01*
X458184Y274340D01*
X457413Y273278D01*
X456497Y273133D01*
X454905Y274290D01*
X455966Y273519D02*
X456257Y271686D01*
X459441Y269373D02*
X457318Y270915D01*
X460983Y271495D01*
X461369Y272026D01*
X461223Y272942D01*
X460162Y273713D01*
X459246Y273568D01*
X448425Y270590D02*
X452168Y271807D01*
X452776Y269935D01*
X452355Y269109D01*
X451108Y268703D01*
X450281Y269124D01*
X449673Y270996D01*
X450078Y269748D02*
X449236Y268095D01*
X449641Y266847D02*
X450047Y265600D01*
X449844Y266224D01*
X453587Y267440D01*
X452761Y267861D01*
X372025Y242936D02*
Y239000D01*
X373993D01*
X374649Y239656D01*
Y242280D01*
X373993Y242936D01*
X372025D01*
X378585Y239000D02*
X375961D01*
X378585Y241624D01*
Y242280D01*
X377929Y242936D01*
X376617D01*
X375961Y242280D01*
X379897Y242936D02*
X382521D01*
Y242280D01*
X379897Y239656D01*
Y239000D01*
X389764Y255904D02*
Y251969D01*
X391732D01*
X392388Y252625D01*
Y255248D01*
X391732Y255904D01*
X389764D01*
X396323Y251969D02*
X393700D01*
X396323Y254592D01*
Y255248D01*
X395667Y255904D01*
X394356D01*
X393700Y255248D01*
X400259Y255904D02*
X398947Y255248D01*
X397635Y253936D01*
Y252625D01*
X398291Y251969D01*
X399603D01*
X400259Y252625D01*
Y253280D01*
X399603Y253936D01*
X397635D01*
X401575Y265747D02*
Y261811D01*
X403543D01*
X404199Y262467D01*
Y265091D01*
X403543Y265747D01*
X401575D01*
X408134Y261811D02*
X405511D01*
X408134Y264435D01*
Y265091D01*
X407478Y265747D01*
X406167D01*
X405511Y265091D01*
X412070Y265747D02*
X409446D01*
Y263779D01*
X410758Y264435D01*
X411414D01*
X412070Y263779D01*
Y262467D01*
X411414Y261811D01*
X410102D01*
X409446Y262467D01*
X363300Y290236D02*
Y286300D01*
X365268D01*
X365924Y286956D01*
Y289580D01*
X365268Y290236D01*
X363300D01*
X369860Y286300D02*
X367236D01*
X369860Y288924D01*
Y289580D01*
X369204Y290236D01*
X367892D01*
X367236Y289580D01*
X373139Y286300D02*
Y290236D01*
X371171Y288268D01*
X373795D01*
X381300Y290236D02*
Y286300D01*
X383268D01*
X383924Y286956D01*
Y289580D01*
X383268Y290236D01*
X381300D01*
X387860Y286300D02*
X385236D01*
X387860Y288924D01*
Y289580D01*
X387204Y290236D01*
X385892D01*
X385236Y289580D01*
X389172D02*
X389827Y290236D01*
X391139D01*
X391795Y289580D01*
Y288924D01*
X391139Y288268D01*
X390483D01*
X391139D01*
X391795Y287612D01*
Y286956D01*
X391139Y286300D01*
X389827D01*
X389172Y286956D01*
X399300Y290236D02*
Y286300D01*
X401268D01*
X401924Y286956D01*
Y289580D01*
X401268Y290236D01*
X399300D01*
X405860Y286300D02*
X403236D01*
X405860Y288924D01*
Y289580D01*
X405204Y290236D01*
X403892D01*
X403236Y289580D01*
X409795Y286300D02*
X407171D01*
X409795Y288924D01*
Y289580D01*
X409139Y290236D01*
X407827D01*
X407171Y289580D01*
X385827Y311022D02*
Y307087D01*
X387795D01*
X388451Y307743D01*
Y310366D01*
X387795Y311022D01*
X385827D01*
X392386Y307087D02*
X389762D01*
X392386Y309710D01*
Y310366D01*
X391730Y311022D01*
X390419D01*
X389762Y310366D01*
X393698D02*
X394354Y311022D01*
X395666D01*
X396322Y310366D01*
Y307743D01*
X395666Y307087D01*
X394354D01*
X393698Y307743D01*
Y310366D01*
X400476Y300741D02*
X400464Y296806D01*
X402432Y296799D01*
X403090Y297453D01*
X403098Y300077D01*
X402444Y300735D01*
X400476Y300741D01*
X404400Y296793D02*
X405712Y296789D01*
X405056Y296791D01*
X405068Y300727D01*
X404410Y300073D01*
X407682Y297439D02*
X408335Y296781D01*
X409647Y296777D01*
X410305Y297431D01*
X410313Y300055D01*
X409659Y300713D01*
X408348Y300717D01*
X407690Y300063D01*
X407688Y299407D01*
X408342Y298749D01*
X410309Y298743D01*
X407000Y354145D02*
Y350209D01*
X408968D01*
X409624Y350865D01*
Y353489D01*
X408968Y354145D01*
X407000D01*
X410936Y350209D02*
X412248D01*
X411592D01*
Y354145D01*
X410936Y353489D01*
X414216D02*
X414872Y354145D01*
X416183D01*
X416839Y353489D01*
Y352833D01*
X416183Y352177D01*
X416839Y351521D01*
Y350865D01*
X416183Y350209D01*
X414872D01*
X414216Y350865D01*
Y351521D01*
X414872Y352177D01*
X414216Y352833D01*
Y353489D01*
X414872Y352177D02*
X416183D01*
X413386Y337354D02*
Y333418D01*
X415354D01*
X416010Y334074D01*
Y336698D01*
X415354Y337354D01*
X413386D01*
X417322Y333418D02*
X418634D01*
X417978D01*
Y337354D01*
X417322Y336698D01*
X420601Y337354D02*
X423225D01*
Y336698D01*
X420601Y334074D01*
Y333418D01*
X419425Y321676D02*
Y317740D01*
X421393D01*
X422049Y318396D01*
Y321020D01*
X421393Y321676D01*
X419425D01*
X423361Y317740D02*
X424673D01*
X424017D01*
Y321676D01*
X423361Y321020D01*
X429264Y321676D02*
X427953Y321020D01*
X426641Y319708D01*
Y318396D01*
X427297Y317740D01*
X428609D01*
X429264Y318396D01*
Y319052D01*
X428609Y319708D01*
X426641D01*
X475258Y354878D02*
Y350942D01*
X477226D01*
X477882Y351598D01*
Y354222D01*
X477226Y354878D01*
X475258D01*
X479194Y350942D02*
X480506D01*
X479850D01*
Y354878D01*
X479194Y354222D01*
X485098Y354878D02*
X482474D01*
Y352910D01*
X483786Y353566D01*
X484442D01*
X485098Y352910D01*
Y351598D01*
X484442Y350942D01*
X483130D01*
X482474Y351598D01*
X470406Y337506D02*
Y333570D01*
X472374D01*
X473030Y334226D01*
Y336850D01*
X472374Y337506D01*
X470406D01*
X474342Y333570D02*
X475654D01*
X474998D01*
Y337506D01*
X474342Y336850D01*
X479589Y333570D02*
Y337506D01*
X477621Y335538D01*
X480245D01*
X465285Y322426D02*
Y318490D01*
X467253D01*
X467909Y319146D01*
Y321770D01*
X467253Y322426D01*
X465285D01*
X469221Y318490D02*
X470533D01*
X469877D01*
Y322426D01*
X469221Y321770D01*
X472501D02*
X473157Y322426D01*
X474469D01*
X475124Y321770D01*
Y321114D01*
X474469Y320458D01*
X473812D01*
X474469D01*
X475124Y319802D01*
Y319146D01*
X474469Y318490D01*
X473157D01*
X472501Y319146D01*
X498032Y334644D02*
Y330709D01*
X499999D01*
X500655Y331365D01*
Y333988D01*
X499999Y334644D01*
X498032D01*
X501967Y330709D02*
X503279D01*
X502623D01*
Y334644D01*
X501967Y333988D01*
X507871Y330709D02*
X505247D01*
X507871Y333332D01*
Y333988D01*
X507215Y334644D01*
X505903D01*
X505247Y333988D01*
X484925Y324208D02*
Y320273D01*
X486893D01*
X487549Y320929D01*
Y323552D01*
X486893Y324208D01*
X484925D01*
X488861Y320273D02*
X490173D01*
X489517D01*
Y324208D01*
X488861Y323552D01*
X492141Y320273D02*
X493453D01*
X492797D01*
Y324208D01*
X492141Y323552D01*
X467424Y312039D02*
Y308103D01*
X469392D01*
X470048Y308759D01*
Y311383D01*
X469392Y312039D01*
X467424D01*
X471359Y308103D02*
X472672D01*
X472015D01*
Y312039D01*
X471359Y311383D01*
X474639D02*
X475295Y312039D01*
X476607D01*
X477263Y311383D01*
Y308759D01*
X476607Y308103D01*
X475295D01*
X474639Y308759D01*
Y311383D01*
X504394Y229405D02*
X504502Y225471D01*
X506469Y225525D01*
X507107Y226198D01*
X507035Y228821D01*
X506362Y229459D01*
X504394Y229405D01*
X510952Y229584D02*
X509658Y228893D01*
X508383Y227546D01*
X508418Y226234D01*
X509092Y225596D01*
X510403Y225632D01*
X511041Y226306D01*
X511023Y226961D01*
X510350Y227599D01*
X508383Y227546D01*
X486847Y242638D02*
Y238702D01*
X488815D01*
X489471Y239358D01*
Y241982D01*
X488815Y242638D01*
X486847D01*
X493406D02*
X490782D01*
Y240670D01*
X492094Y241326D01*
X492750D01*
X493406Y240670D01*
Y239358D01*
X492750Y238702D01*
X491438D01*
X490782Y239358D01*
X472818Y253053D02*
Y249117D01*
X474786D01*
X475442Y249773D01*
Y252397D01*
X474786Y253053D01*
X472818D01*
X478722Y249117D02*
Y253053D01*
X476754Y251085D01*
X479378D01*
X478300Y208336D02*
Y204400D01*
X480268D01*
X480924Y205056D01*
Y207680D01*
X480268Y208336D01*
X478300D01*
X482236Y207680D02*
X482892Y208336D01*
X484204D01*
X484860Y207680D01*
Y207024D01*
X484204Y206368D01*
X483548D01*
X484204D01*
X484860Y205712D01*
Y205056D01*
X484204Y204400D01*
X482892D01*
X482236Y205056D01*
X472818Y225534D02*
Y221598D01*
X474786D01*
X475442Y222254D01*
Y224878D01*
X474786Y225534D01*
X472818D01*
X479378Y221598D02*
X476754D01*
X479378Y224222D01*
Y224878D01*
X478722Y225534D01*
X477410D01*
X476754Y224878D01*
X467182Y242638D02*
Y238702D01*
X469150D01*
X469806Y239358D01*
Y241982D01*
X469150Y242638D01*
X467182D01*
X471118Y238702D02*
X472430D01*
X471774D01*
Y242638D01*
X471118Y241982D01*
M02*
