G04*
G04 #@! TF.GenerationSoftware,Altium Limited,Altium Designer,19.0.15 (446)*
G04*
G04 Layer_Color=8421504*
%FSLAX25Y25*%
%MOIN*%
G70*
G01*
G75*
%ADD13P,0.04454X4X333.0*%
%ADD14P,0.04454X4X261.0*%
%ADD15P,0.04454X4X189.0*%
%ADD16P,0.04454X4X117.0*%
G04:AMPARAMS|DCode=17|XSize=53.15mil|YSize=47.24mil|CornerRadius=0mil|HoleSize=0mil|Usage=FLASHONLY|Rotation=198.000|XOffset=0mil|YOffset=0mil|HoleType=Round|Shape=Rectangle|*
%AMROTATEDRECTD17*
4,1,4,0.01797,0.03068,0.03257,-0.01425,-0.01797,-0.03068,-0.03257,0.01425,0.01797,0.03068,0.0*
%
%ADD17ROTATEDRECTD17*%

G04:AMPARAMS|DCode=18|XSize=53.15mil|YSize=47.24mil|CornerRadius=0mil|HoleSize=0mil|Usage=FLASHONLY|Rotation=126.000|XOffset=0mil|YOffset=0mil|HoleType=Round|Shape=Rectangle|*
%AMROTATEDRECTD18*
4,1,4,0.03473,-0.00762,-0.00349,-0.03538,-0.03473,0.00762,0.00349,0.03538,0.03473,-0.00762,0.0*
%
%ADD18ROTATEDRECTD18*%

%ADD19R,0.04724X0.05315*%
G04:AMPARAMS|DCode=20|XSize=53.15mil|YSize=47.24mil|CornerRadius=0mil|HoleSize=0mil|Usage=FLASHONLY|Rotation=54.000|XOffset=0mil|YOffset=0mil|HoleType=Round|Shape=Rectangle|*
%AMROTATEDRECTD20*
4,1,4,0.00349,-0.03538,-0.03473,-0.00762,-0.00349,0.03538,0.03473,0.00762,0.00349,-0.03538,0.0*
%
%ADD20ROTATEDRECTD20*%

G04:AMPARAMS|DCode=21|XSize=53.15mil|YSize=47.24mil|CornerRadius=0mil|HoleSize=0mil|Usage=FLASHONLY|Rotation=344.000|XOffset=0mil|YOffset=0mil|HoleType=Round|Shape=Rectangle|*
%AMROTATEDRECTD21*
4,1,4,-0.03206,-0.01538,-0.01903,0.03003,0.03206,0.01538,0.01903,-0.03003,-0.03206,-0.01538,0.0*
%
%ADD21ROTATEDRECTD21*%

%ADD22R,0.03150X0.03150*%
%ADD23R,0.03150X0.03150*%
%ADD24P,0.04454X4X370.6*%
%ADD25P,0.04454X4X333.0*%
%ADD26P,0.04454X4X333.0*%
%ADD27R,0.03150X0.03150*%
%ADD28R,0.03150X0.03150*%
D13*
X466419Y221233D02*
D03*
X464595Y226850D02*
D03*
X422018Y357886D02*
D03*
X423843Y352269D02*
D03*
X429405Y335150D02*
D03*
X427581Y340767D02*
D03*
X433143Y323648D02*
D03*
X434968Y318031D02*
D03*
D14*
X415499Y258113D02*
D03*
X410722Y254642D02*
D03*
X396159Y244062D02*
D03*
X400937Y247533D02*
D03*
X384757Y235777D02*
D03*
X379979Y232306D02*
D03*
X512403Y328518D02*
D03*
X507625Y325047D02*
D03*
X493063Y314467D02*
D03*
X497841Y317938D02*
D03*
X483278Y307358D02*
D03*
X478501Y303887D02*
D03*
D15*
X386375Y325047D02*
D03*
X381597Y328518D02*
D03*
X396159Y317938D02*
D03*
X400937Y314467D02*
D03*
X415499Y303887D02*
D03*
X410722Y307358D02*
D03*
X493063Y247533D02*
D03*
X497841Y244062D02*
D03*
X483278Y254642D02*
D03*
X478501Y258113D02*
D03*
D16*
X466419Y340767D02*
D03*
X464595Y335150D02*
D03*
X470157Y352269D02*
D03*
X471982Y357886D02*
D03*
X459032Y318031D02*
D03*
X460857Y323648D02*
D03*
D17*
X453981Y260269D02*
D03*
X456049Y253904D02*
D03*
X437950Y308301D02*
D03*
X440018Y301936D02*
D03*
D18*
X429253Y268106D02*
D03*
X423838Y264172D02*
D03*
X470162Y297828D02*
D03*
X464747Y293894D02*
D03*
D19*
X468898Y281000D02*
D03*
X475591Y281000D02*
D03*
X418307Y281000D02*
D03*
X425000Y281000D02*
D03*
D20*
X429253Y293894D02*
D03*
X423838Y297828D02*
D03*
X469951Y263781D02*
D03*
X464537Y267715D02*
D03*
D21*
X453475Y301901D02*
D03*
X455319Y308335D02*
D03*
D22*
X522079Y281000D02*
D03*
X402157Y281000D02*
D03*
X408063Y281000D02*
D03*
X390063Y281000D02*
D03*
X384157D02*
D03*
X366158D02*
D03*
X372063D02*
D03*
D23*
X527984D02*
D03*
D24*
X512449Y233547D02*
D03*
X507578Y236886D02*
D03*
D25*
X459032Y243969D02*
D03*
X460857Y238352D02*
D03*
D26*
X470157Y209731D02*
D03*
X471982Y204114D02*
D03*
D27*
X485937Y281000D02*
D03*
X491843Y281000D02*
D03*
D28*
X509842Y281000D02*
D03*
X503937Y281000D02*
D03*
M02*
