G04*
G04 #@! TF.GenerationSoftware,Altium Limited,Altium Designer,19.0.15 (446)*
G04*
G04 Layer_Color=65535*
%FSLAX25Y25*%
%MOIN*%
G70*
G01*
G75*
%ADD10C,0.00394*%
%ADD11C,0.01000*%
%ADD12C,0.00591*%
D10*
X465153Y217042D02*
X469908Y218587D01*
X466200Y230000D02*
X469599Y219538D01*
X464844Y217993D02*
X469599Y219538D01*
X461444Y228455D02*
X464844Y217993D01*
X461444Y228455D02*
X466200Y230000D01*
X416052Y261605D02*
X418991Y257560D01*
X407153Y255140D02*
X416052Y261605D01*
X407153Y255140D02*
X410092Y251095D01*
X418991Y257560D01*
X406344Y254552D02*
X409283Y250507D01*
X391782Y243972D02*
X394721Y239927D01*
X395530Y240515D02*
X404429Y246980D01*
X392591Y244560D02*
X395530Y240515D01*
X392591Y244560D02*
X401490Y251025D01*
X404429Y246980D01*
X385310Y239270D02*
X388249Y235225D01*
X376411Y232804D02*
X385310Y239270D01*
X376411Y232804D02*
X379349Y228759D01*
X388249Y235225D01*
X375602Y232216D02*
X378540Y228171D01*
X386928Y321555D02*
X389867Y325600D01*
X380967Y332066D02*
X389867Y325600D01*
X378029Y328021D02*
X380967Y332066D01*
X378029Y328021D02*
X386928Y321555D01*
X377220Y328608D02*
X380158Y332653D01*
X391782Y318028D02*
X394721Y322073D01*
X392591Y317440D02*
X401490Y310975D01*
X392591Y317440D02*
X395530Y321485D01*
X404429Y315020D01*
X401490Y310975D02*
X404429Y315020D01*
X416052Y300395D02*
X418991Y304440D01*
X410092Y310905D02*
X418991Y304440D01*
X407153Y306860D02*
X410092Y310905D01*
X407153Y306860D02*
X416052Y300395D01*
X406344Y307448D02*
X409283Y311493D01*
X418530Y360532D02*
X423285Y362077D01*
X418839Y359581D02*
X422238Y349119D01*
X418839Y359581D02*
X423594Y361126D01*
X426993Y350664D01*
X422238Y349119D02*
X426993Y350664D01*
X427800Y332000D02*
X432556Y333545D01*
X429156Y344007D02*
X432556Y333545D01*
X424401Y342462D02*
X429156Y344007D01*
X424401Y342462D02*
X427800Y332000D01*
X424092Y343413D02*
X428848Y344958D01*
X429655Y326294D02*
X434410Y327839D01*
X429963Y325343D02*
X433363Y314881D01*
X429963Y325343D02*
X434719Y326888D01*
X438118Y316426D01*
X433363Y314881D02*
X438118Y316426D01*
X465153Y344958D02*
X469908Y343413D01*
X461444Y333545D02*
X464844Y344007D01*
X469599Y342462D01*
X466200Y332000D02*
X469599Y342462D01*
X461444Y333545D02*
X466200Y332000D01*
X467007Y350664D02*
X471762Y349119D01*
X475161Y359581D01*
X470406Y361126D02*
X475161Y359581D01*
X467007Y350664D02*
X470406Y361126D01*
X470715Y362077D02*
X475470Y360532D01*
X455882Y316426D02*
X460637Y314881D01*
X464037Y325343D01*
X459281Y326888D02*
X464037Y325343D01*
X455882Y316426D02*
X459281Y326888D01*
X459590Y327839D02*
X464346Y326294D01*
X513841Y332653D02*
X516780Y328608D01*
X504133Y325600D02*
X513032Y332066D01*
X515971Y328021D01*
X507072Y321555D02*
X515971Y328021D01*
X504133Y325600D02*
X507072Y321555D01*
X489571Y315020D02*
X492510Y310975D01*
X501409Y317440D01*
X498470Y321485D02*
X501409Y317440D01*
X489571Y315020D02*
X498470Y321485D01*
X499279Y322073D02*
X502218Y318028D01*
X484717Y311493D02*
X487656Y307448D01*
X475009Y304440D02*
X483908Y310905D01*
X486847Y306860D01*
X477948Y300395D02*
X486847Y306860D01*
X475009Y304440D02*
X477948Y300395D01*
X449048Y262508D02*
X453374Y249193D01*
X449048Y262508D02*
X456656Y264980D01*
X460982Y251665D01*
X453374Y249193D02*
X460982Y251665D01*
X418531Y265260D02*
X429857Y273489D01*
X434559Y267017D01*
X423233Y258788D02*
X434559Y267017D01*
X418531Y265260D02*
X423233Y258788D01*
X465244Y277000D02*
X479244D01*
X465244D02*
Y285000D01*
X479244D01*
Y277000D02*
Y285000D01*
X470767Y303212D02*
X475469Y296740D01*
X459441Y294983D02*
X470767Y303212D01*
X459441Y294983D02*
X464143Y288511D01*
X475469Y296740D01*
X414653Y277000D02*
X414654Y285000D01*
X414653Y277000D02*
X428653Y277000D01*
X428654Y285000D01*
X414654Y285000D02*
X428654Y285000D01*
X423233Y303212D02*
X434559Y294983D01*
X429857Y288511D02*
X434559Y294983D01*
X418531Y296740D02*
X429857Y288511D01*
X418531Y296740D02*
X423233Y303212D01*
X433017Y310539D02*
X440625Y313012D01*
X433017Y310539D02*
X437343Y297225D01*
X444952Y299697D01*
X440625Y313012D02*
X444952Y299697D01*
X456313Y297287D02*
X460172Y310744D01*
X448622Y299492D02*
X456313Y297287D01*
X448622Y299492D02*
X452481Y312949D01*
X460172Y310744D01*
X519579Y278500D02*
X519579Y283500D01*
X519579Y278500D02*
X530579Y278500D01*
X530579Y283500D01*
X519579Y283500D02*
X530579Y283500D01*
X531579Y278500D02*
X531579Y283500D01*
X470556Y258398D02*
X475258Y264870D01*
X463932Y273099D02*
X475258Y264870D01*
X459230Y266627D02*
X463932Y273099D01*
X459230Y266627D02*
X470556Y258398D01*
X514000Y229452D02*
X516827Y233576D01*
X506930Y240362D02*
X516002Y234141D01*
X513175Y230018D02*
X516002Y234141D01*
X504103Y236238D02*
X513175Y230018D01*
X504103Y236238D02*
X506930Y240362D01*
X489571Y246980D02*
X492510Y251025D01*
X489571Y246980D02*
X498470Y240515D01*
X501409Y244560D01*
X492510Y251025D02*
X501409Y244560D01*
X499279Y239927D02*
X502218Y243972D01*
X484717Y250507D02*
X487656Y254552D01*
X477948Y261605D02*
X486847Y255140D01*
X483908Y251095D02*
X486847Y255140D01*
X475009Y257560D02*
X483908Y251095D01*
X475009Y257560D02*
X477948Y261605D01*
X455882Y245574D02*
X460637Y247119D01*
X455882Y245574D02*
X459281Y235112D01*
X464037Y236657D01*
X460637Y247119D02*
X464037Y236657D01*
X459590Y234161D02*
X464346Y235706D01*
X467007Y211336D02*
X471762Y212881D01*
X467007Y211336D02*
X470406Y200874D01*
X475161Y202419D01*
X471762Y212881D02*
X475161Y202419D01*
X470715Y199923D02*
X475470Y201468D01*
X483437Y283500D02*
X483437Y278500D01*
X494437D01*
X494437Y283500D02*
X494437Y278500D01*
X483437Y283500D02*
X494437D01*
X495437Y283500D02*
X495437Y278500D01*
X513437Y278500D02*
X513437Y283500D01*
X501437Y283500D02*
X512437Y283500D01*
X512437Y278500D02*
X512437Y283500D01*
X501437Y278500D02*
X512437Y278500D01*
X501437Y278500D02*
X501437Y283500D01*
X398563Y278500D02*
Y283500D01*
X399563Y278500D02*
X410563Y278500D01*
X399563Y278500D02*
Y283500D01*
X410563Y283500D01*
Y278500D02*
Y283500D01*
X392563Y278500D02*
Y283500D01*
X381563D02*
X392563D01*
X381563Y278500D02*
Y283500D01*
Y278500D02*
X392563D01*
X380563D02*
Y283500D01*
X362563Y278500D02*
Y283500D01*
X363563Y278500D02*
X374563D01*
X363563D02*
Y283500D01*
X374563D01*
Y278500D02*
Y283500D01*
D11*
X401722Y227448D02*
X399730Y227274D01*
X400726Y227361D01*
X401161Y222382D01*
X400253Y221299D01*
X399257Y221212D01*
X398174Y222120D01*
X404236Y221647D02*
X406228Y221822D01*
X405232Y221734D01*
X404709Y227710D01*
X403801Y226627D01*
D12*
X434646Y269291D02*
X432332Y272475D01*
X433924Y273632D01*
X434841Y273487D01*
X435612Y272426D01*
X435467Y271509D01*
X433875Y270353D01*
X434936Y271124D02*
X436768Y270834D01*
X437444Y272135D02*
X438360Y271990D01*
X439422Y272761D01*
X439567Y273678D01*
X438025Y275800D01*
X437108Y275945D01*
X436047Y275174D01*
X435902Y274258D01*
X436287Y273727D01*
X437204Y273582D01*
X438796Y274739D01*
X430315Y278740D02*
Y282676D01*
X432283D01*
X432939Y282020D01*
Y280708D01*
X432283Y280052D01*
X430315D01*
X431627D02*
X432939Y278740D01*
X434251Y282020D02*
X434907Y282676D01*
X436219D01*
X436874Y282020D01*
Y281364D01*
X436219Y280708D01*
X436874Y280052D01*
Y279396D01*
X436219Y278740D01*
X434907D01*
X434251Y279396D01*
Y280052D01*
X434907Y280708D01*
X434251Y281364D01*
Y282020D01*
X434907Y280708D02*
X436219D01*
X432418Y288986D02*
X434732Y292170D01*
X436324Y291013D01*
X436469Y290097D01*
X435698Y289036D01*
X434782Y288891D01*
X433190Y290047D01*
X434251Y289276D02*
X434541Y287444D01*
X437916Y289857D02*
X440039Y288314D01*
X439653Y287784D01*
X435988Y287203D01*
X435603Y286673D01*
X439567Y296595D02*
X443310Y297811D01*
X443918Y295939D01*
X443497Y295113D01*
X442249Y294707D01*
X441423Y295128D01*
X440815Y297000D01*
X441220Y295752D02*
X440378Y294099D01*
X445337Y291572D02*
X444308Y292617D01*
X442655Y293460D01*
X441407Y293054D01*
X440986Y292228D01*
X441391Y290980D01*
X442218Y290559D01*
X442842Y290761D01*
X443263Y291588D01*
X442655Y293460D01*
X450000Y297638D02*
X453783Y296553D01*
X453241Y294661D01*
X452429Y294212D01*
X451168Y294573D01*
X450719Y295385D01*
X451261Y297276D01*
X450900Y296015D02*
X449277Y295116D01*
X451975Y290248D02*
X452698Y292770D01*
X450807Y293312D01*
X451076Y291870D01*
X450895Y291240D01*
X450084Y290790D01*
X448822Y291151D01*
X448373Y291963D01*
X448734Y293224D01*
X449546Y293674D01*
X456496Y285630D02*
X454183Y288814D01*
X455775Y289971D01*
X456691Y289826D01*
X457462Y288764D01*
X457317Y287848D01*
X455725Y286691D01*
X456786Y287462D02*
X458619Y287172D01*
X461272Y289100D02*
X458959Y292284D01*
X458524Y289535D01*
X460646Y291078D01*
X457402Y279134D02*
Y283070D01*
X459369D01*
X460025Y282414D01*
Y281102D01*
X459369Y280446D01*
X457402D01*
X458713D02*
X460025Y279134D01*
X461337Y282414D02*
X461993Y283070D01*
X463305D01*
X463961Y282414D01*
Y281758D01*
X463305Y281102D01*
X462649D01*
X463305D01*
X463961Y280446D01*
Y279790D01*
X463305Y279134D01*
X461993D01*
X461337Y279790D01*
X454134Y273228D02*
X456447Y276412D01*
X458039Y275256D01*
X458184Y274340D01*
X457413Y273278D01*
X456497Y273133D01*
X454905Y274290D01*
X455966Y273519D02*
X456257Y271686D01*
X459441Y269373D02*
X457318Y270915D01*
X460983Y271495D01*
X461369Y272026D01*
X461223Y272942D01*
X460162Y273713D01*
X459246Y273568D01*
X448425Y270590D02*
X452168Y271807D01*
X452776Y269935D01*
X452355Y269109D01*
X451108Y268703D01*
X450281Y269124D01*
X449673Y270996D01*
X450078Y269748D02*
X449236Y268095D01*
X449641Y266847D02*
X450047Y265600D01*
X449844Y266224D01*
X453587Y267440D01*
X452761Y267861D01*
X372025Y242936D02*
Y239000D01*
X373993D01*
X374649Y239656D01*
Y242280D01*
X373993Y242936D01*
X372025D01*
X378585Y239000D02*
X375961D01*
X378585Y241624D01*
Y242280D01*
X377929Y242936D01*
X376617D01*
X375961Y242280D01*
X379897Y242936D02*
X382521D01*
Y242280D01*
X379897Y239656D01*
Y239000D01*
X389764Y255904D02*
Y251969D01*
X391732D01*
X392388Y252625D01*
Y255248D01*
X391732Y255904D01*
X389764D01*
X396323Y251969D02*
X393700D01*
X396323Y254592D01*
Y255248D01*
X395667Y255904D01*
X394356D01*
X393700Y255248D01*
X400259Y255904D02*
X398947Y255248D01*
X397635Y253936D01*
Y252625D01*
X398291Y251969D01*
X399603D01*
X400259Y252625D01*
Y253280D01*
X399603Y253936D01*
X397635D01*
X401575Y265747D02*
Y261811D01*
X403543D01*
X404199Y262467D01*
Y265091D01*
X403543Y265747D01*
X401575D01*
X408134Y261811D02*
X405511D01*
X408134Y264435D01*
Y265091D01*
X407478Y265747D01*
X406167D01*
X405511Y265091D01*
X412070Y265747D02*
X409446D01*
Y263779D01*
X410758Y264435D01*
X411414D01*
X412070Y263779D01*
Y262467D01*
X411414Y261811D01*
X410102D01*
X409446Y262467D01*
X363300Y290236D02*
Y286300D01*
X365268D01*
X365924Y286956D01*
Y289580D01*
X365268Y290236D01*
X363300D01*
X369860Y286300D02*
X367236D01*
X369860Y288924D01*
Y289580D01*
X369204Y290236D01*
X367892D01*
X367236Y289580D01*
X373139Y286300D02*
Y290236D01*
X371171Y288268D01*
X373795D01*
X381300Y290236D02*
Y286300D01*
X383268D01*
X383924Y286956D01*
Y289580D01*
X383268Y290236D01*
X381300D01*
X387860Y286300D02*
X385236D01*
X387860Y288924D01*
Y289580D01*
X387204Y290236D01*
X385892D01*
X385236Y289580D01*
X389172D02*
X389827Y290236D01*
X391139D01*
X391795Y289580D01*
Y288924D01*
X391139Y288268D01*
X390483D01*
X391139D01*
X391795Y287612D01*
Y286956D01*
X391139Y286300D01*
X389827D01*
X389172Y286956D01*
X399300Y290236D02*
Y286300D01*
X401268D01*
X401924Y286956D01*
Y289580D01*
X401268Y290236D01*
X399300D01*
X405860Y286300D02*
X403236D01*
X405860Y288924D01*
Y289580D01*
X405204Y290236D01*
X403892D01*
X403236Y289580D01*
X409795Y286300D02*
X407171D01*
X409795Y288924D01*
Y289580D01*
X409139Y290236D01*
X407827D01*
X407171Y289580D01*
X373762Y321676D02*
Y317740D01*
X375730D01*
X376386Y318396D01*
Y321020D01*
X375730Y321676D01*
X373762D01*
X380321Y317740D02*
X377697D01*
X380321Y320364D01*
Y321020D01*
X379665Y321676D01*
X378354D01*
X377697Y321020D01*
X381633Y317740D02*
X382945D01*
X382289D01*
Y321676D01*
X381633Y321020D01*
X385827Y311022D02*
Y307087D01*
X387795D01*
X388451Y307743D01*
Y310366D01*
X387795Y311022D01*
X385827D01*
X392386Y307087D02*
X389762D01*
X392386Y309710D01*
Y310366D01*
X391730Y311022D01*
X390419D01*
X389762Y310366D01*
X393698D02*
X394354Y311022D01*
X395666D01*
X396322Y310366D01*
Y307743D01*
X395666Y307087D01*
X394354D01*
X393698Y307743D01*
Y310366D01*
X400476Y300741D02*
X400464Y296806D01*
X402432Y296799D01*
X403090Y297453D01*
X403098Y300077D01*
X402444Y300735D01*
X400476Y300741D01*
X404400Y296793D02*
X405712Y296789D01*
X405056Y296791D01*
X405068Y300727D01*
X404410Y300073D01*
X407682Y297439D02*
X408335Y296781D01*
X409647Y296777D01*
X410305Y297431D01*
X410313Y300055D01*
X409659Y300713D01*
X408348Y300717D01*
X407690Y300063D01*
X407688Y299407D01*
X408342Y298749D01*
X410309Y298743D01*
X407000Y354145D02*
Y350209D01*
X408968D01*
X409624Y350865D01*
Y353489D01*
X408968Y354145D01*
X407000D01*
X410936Y350209D02*
X412248D01*
X411592D01*
Y354145D01*
X410936Y353489D01*
X414216D02*
X414872Y354145D01*
X416183D01*
X416839Y353489D01*
Y352833D01*
X416183Y352177D01*
X416839Y351521D01*
Y350865D01*
X416183Y350209D01*
X414872D01*
X414216Y350865D01*
Y351521D01*
X414872Y352177D01*
X414216Y352833D01*
Y353489D01*
X414872Y352177D02*
X416183D01*
X413386Y337354D02*
Y333418D01*
X415354D01*
X416010Y334074D01*
Y336698D01*
X415354Y337354D01*
X413386D01*
X417322Y333418D02*
X418634D01*
X417978D01*
Y337354D01*
X417322Y336698D01*
X420601Y337354D02*
X423225D01*
Y336698D01*
X420601Y334074D01*
Y333418D01*
X419425Y321676D02*
Y317740D01*
X421393D01*
X422049Y318396D01*
Y321020D01*
X421393Y321676D01*
X419425D01*
X423361Y317740D02*
X424673D01*
X424017D01*
Y321676D01*
X423361Y321020D01*
X429264Y321676D02*
X427953Y321020D01*
X426641Y319708D01*
Y318396D01*
X427297Y317740D01*
X428609D01*
X429264Y318396D01*
Y319052D01*
X428609Y319708D01*
X426641D01*
X454724Y358873D02*
Y354937D01*
X456692D01*
X457348Y355593D01*
Y358217D01*
X456692Y358873D01*
X454724D01*
X458660Y354937D02*
X459972D01*
X459316D01*
Y358873D01*
X458660Y358217D01*
X464564Y358873D02*
X461940D01*
Y356905D01*
X463252Y357561D01*
X463908D01*
X464564Y356905D01*
Y355593D01*
X463908Y354937D01*
X462596D01*
X461940Y355593D01*
X448819Y340873D02*
Y336937D01*
X450787D01*
X451443Y337593D01*
Y340217D01*
X450787Y340873D01*
X448819D01*
X452755Y336937D02*
X454067D01*
X453411D01*
Y340873D01*
X452755Y340217D01*
X458002Y336937D02*
Y340873D01*
X456034Y338905D01*
X458658D01*
X444882Y324873D02*
Y320937D01*
X446850D01*
X447506Y321593D01*
Y324217D01*
X446850Y324873D01*
X444882D01*
X448818Y320937D02*
X450130D01*
X449474D01*
Y324873D01*
X448818Y324217D01*
X452097D02*
X452753Y324873D01*
X454065D01*
X454721Y324217D01*
Y323561D01*
X454065Y322905D01*
X453409D01*
X454065D01*
X454721Y322249D01*
Y321593D01*
X454065Y320937D01*
X452753D01*
X452097Y321593D01*
X498032Y334644D02*
Y330709D01*
X499999D01*
X500655Y331365D01*
Y333988D01*
X499999Y334644D01*
X498032D01*
X501967Y330709D02*
X503279D01*
X502623D01*
Y334644D01*
X501967Y333988D01*
X507871Y330709D02*
X505247D01*
X507871Y333332D01*
Y333988D01*
X507215Y334644D01*
X505903D01*
X505247Y333988D01*
X485740Y325286D02*
Y321350D01*
X487708D01*
X488364Y322006D01*
Y324630D01*
X487708Y325286D01*
X485740D01*
X489676Y321350D02*
X490988D01*
X490332D01*
Y325286D01*
X489676Y324630D01*
X492956Y321350D02*
X494268D01*
X493612D01*
Y325286D01*
X492956Y324630D01*
X470472Y314959D02*
Y311024D01*
X472440D01*
X473096Y311680D01*
Y314303D01*
X472440Y314959D01*
X470472D01*
X474408Y311024D02*
X475720D01*
X475064D01*
Y314959D01*
X474408Y314303D01*
X477688D02*
X478344Y314959D01*
X479656D01*
X480312Y314303D01*
Y311680D01*
X479656Y311024D01*
X478344D01*
X477688Y311680D01*
Y314303D01*
X522300Y290236D02*
Y286300D01*
X524268D01*
X524924Y286956D01*
Y289580D01*
X524268Y290236D01*
X522300D01*
X526236Y286956D02*
X526892Y286300D01*
X528204D01*
X528860Y286956D01*
Y289580D01*
X528204Y290236D01*
X526892D01*
X526236Y289580D01*
Y288924D01*
X526892Y288268D01*
X528860D01*
X504200Y290236D02*
Y286300D01*
X506168D01*
X506824Y286956D01*
Y289580D01*
X506168Y290236D01*
X504200D01*
X508136Y289580D02*
X508792Y290236D01*
X510104D01*
X510760Y289580D01*
Y288924D01*
X510104Y288268D01*
X510760Y287612D01*
Y286956D01*
X510104Y286300D01*
X508792D01*
X508136Y286956D01*
Y287612D01*
X508792Y288268D01*
X508136Y288924D01*
Y289580D01*
X508792Y288268D02*
X510104D01*
X486200Y290236D02*
Y286300D01*
X488168D01*
X488824Y286956D01*
Y289580D01*
X488168Y290236D01*
X486200D01*
X490136D02*
X492760D01*
Y289580D01*
X490136Y286956D01*
Y286300D01*
X512196Y242821D02*
X512303Y238887D01*
X514270Y238941D01*
X514908Y239614D01*
X514836Y242237D01*
X514163Y242875D01*
X512196Y242821D01*
X518753Y243000D02*
X517459Y242309D01*
X516184Y240961D01*
X516219Y239650D01*
X516893Y239012D01*
X518204Y239048D01*
X518842Y239722D01*
X518824Y240377D01*
X518151Y241015D01*
X516184Y240961D01*
X497841Y253202D02*
Y249266D01*
X499809D01*
X500464Y249922D01*
Y252546D01*
X499809Y253202D01*
X497841D01*
X504400D02*
X501776D01*
Y251234D01*
X503088Y251890D01*
X503744D01*
X504400Y251234D01*
Y249922D01*
X503744Y249266D01*
X502432D01*
X501776Y249922D01*
X483278Y263709D02*
Y259774D01*
X485246D01*
X485902Y260430D01*
Y263053D01*
X485246Y263709D01*
X483278D01*
X489182Y259774D02*
Y263709D01*
X487214Y261741D01*
X489838D01*
X478300Y208336D02*
Y204400D01*
X480268D01*
X480924Y205056D01*
Y207680D01*
X480268Y208336D01*
X478300D01*
X482236Y207680D02*
X482892Y208336D01*
X484204D01*
X484860Y207680D01*
Y207024D01*
X484204Y206368D01*
X483548D01*
X484204D01*
X484860Y205712D01*
Y205056D01*
X484204Y204400D01*
X482892D01*
X482236Y205056D01*
X472818Y225534D02*
Y221598D01*
X474786D01*
X475442Y222254D01*
Y224878D01*
X474786Y225534D01*
X472818D01*
X479378Y221598D02*
X476754D01*
X479378Y224222D01*
Y224878D01*
X478722Y225534D01*
X477410D01*
X476754Y224878D01*
X467182Y242638D02*
Y238702D01*
X469150D01*
X469806Y239358D01*
Y241982D01*
X469150Y242638D01*
X467182D01*
X471118Y238702D02*
X472430D01*
X471774D01*
Y242638D01*
X471118Y241982D01*
M02*
