G04*
G04 #@! TF.GenerationSoftware,Altium Limited,Altium Designer,18.1.9 (240)*
G04*
G04 Layer_Color=65535*
%FSLAX25Y25*%
%MOIN*%
G70*
G01*
G75*
%ADD10C,0.00984*%
%ADD11C,0.00787*%
%ADD12C,0.01000*%
%ADD13C,0.00394*%
%ADD14R,0.01181X0.06299*%
%ADD15R,0.01575X0.20000*%
G36*
X123122Y211753D02*
X123222Y211746D01*
X123311Y211735D01*
X123353Y211732D01*
X123391Y211725D01*
X123425Y211718D01*
X123456Y211715D01*
X123484Y211708D01*
X123505Y211704D01*
X123522Y211701D01*
X123536Y211697D01*
X123543Y211694D01*
X123546D01*
X123632Y211670D01*
X123712Y211639D01*
X123781Y211608D01*
X123839Y211577D01*
X123891Y211549D01*
X123926Y211525D01*
X123939Y211518D01*
X123950Y211511D01*
X123953Y211504D01*
X123957D01*
X124012Y211445D01*
X124057Y211383D01*
X124091Y211318D01*
X124115Y211256D01*
X124136Y211197D01*
X124143Y211173D01*
X124146Y211152D01*
X124153Y211135D01*
Y211121D01*
X124157Y211114D01*
Y211111D01*
X124167Y211011D01*
Y210907D01*
X124160Y210807D01*
X124150Y210711D01*
X124143Y210666D01*
X124136Y210624D01*
X124129Y210590D01*
X124126Y210559D01*
X124119Y210531D01*
X124115Y210514D01*
X124112Y210500D01*
Y210497D01*
X123446Y207854D01*
X123425Y207788D01*
X123401Y207723D01*
X123374Y207664D01*
X123343Y207609D01*
X123308Y207554D01*
X123270Y207505D01*
X123236Y207461D01*
X123198Y207419D01*
X123163Y207381D01*
X123129Y207347D01*
X123101Y207319D01*
X123073Y207295D01*
X123049Y207278D01*
X123032Y207264D01*
X123022Y207257D01*
X123018Y207254D01*
X122953Y207212D01*
X122891Y207174D01*
X122825Y207143D01*
X122759Y207116D01*
X122697Y207091D01*
X122635Y207074D01*
X122573Y207057D01*
X122518Y207047D01*
X122466Y207036D01*
X122421Y207029D01*
X122377Y207023D01*
X122342Y207019D01*
X122314Y207016D01*
X121511D01*
X122273Y210058D01*
X122287Y210110D01*
X122297Y210155D01*
X122304Y210238D01*
X122308Y210310D01*
X122301Y210369D01*
X122290Y210410D01*
X122280Y210445D01*
X122270Y210462D01*
X122266Y210469D01*
X122249Y210493D01*
X122228Y210514D01*
X122176Y210548D01*
X122121Y210573D01*
X122066Y210590D01*
X122011Y210600D01*
X121990Y210604D01*
X121969D01*
X121952Y210607D01*
X121928D01*
X121835Y210600D01*
X121752Y210586D01*
X121680Y210562D01*
X121621Y210538D01*
X121573Y210514D01*
X121538Y210490D01*
X121524Y210483D01*
X121514Y210476D01*
X121511Y210469D01*
X121507D01*
X121452Y210414D01*
X121404Y210348D01*
X121362Y210279D01*
X121328Y210214D01*
X121304Y210152D01*
X121293Y210127D01*
X121286Y210103D01*
X121279Y210086D01*
X121276Y210072D01*
X121273Y210062D01*
Y210058D01*
X120510Y207016D01*
X118789D01*
X119551Y210055D01*
X119565Y210107D01*
X119575Y210152D01*
X119582Y210238D01*
Y210310D01*
X119575Y210366D01*
X119565Y210410D01*
X119554Y210445D01*
X119544Y210462D01*
X119541Y210469D01*
X119523Y210493D01*
X119499Y210514D01*
X119451Y210548D01*
X119396Y210573D01*
X119341Y210590D01*
X119289Y210600D01*
X119247Y210604D01*
X119230Y210607D01*
X119206D01*
X119120Y210600D01*
X119040Y210586D01*
X118968Y210562D01*
X118909Y210538D01*
X118864Y210514D01*
X118826Y210490D01*
X118816Y210483D01*
X118806Y210476D01*
X118802Y210469D01*
X118799D01*
X118744Y210414D01*
X118695Y210348D01*
X118654Y210279D01*
X118623Y210214D01*
X118599Y210152D01*
X118588Y210127D01*
X118581Y210103D01*
X118575Y210086D01*
X118571Y210072D01*
X118568Y210062D01*
Y210058D01*
X117798Y207016D01*
X116080D01*
X117233Y211628D01*
X118971D01*
X118837Y211066D01*
X118858D01*
X118909Y211128D01*
X118961Y211187D01*
X119013Y211242D01*
X119068Y211294D01*
X119120Y211338D01*
X119172Y211380D01*
X119223Y211421D01*
X119272Y211456D01*
X119316Y211483D01*
X119358Y211511D01*
X119396Y211532D01*
X119427Y211552D01*
X119454Y211566D01*
X119472Y211577D01*
X119485Y211580D01*
X119489Y211583D01*
X119558Y211614D01*
X119630Y211642D01*
X119703Y211663D01*
X119775Y211684D01*
X119917Y211715D01*
X119986Y211725D01*
X120048Y211735D01*
X120106Y211742D01*
X120162Y211746D01*
X120210Y211753D01*
X120251D01*
X120286Y211756D01*
X120331D01*
X120431Y211753D01*
X120524Y211749D01*
X120603Y211742D01*
X120676Y211735D01*
X120703Y211728D01*
X120731Y211725D01*
X120755Y211721D01*
X120776Y211718D01*
X120790Y211715D01*
X120800D01*
X120807Y211711D01*
X120810D01*
X120883Y211694D01*
X120948Y211673D01*
X121007Y211652D01*
X121055Y211632D01*
X121097Y211614D01*
X121124Y211597D01*
X121141Y211587D01*
X121148Y211583D01*
X121197Y211545D01*
X121238Y211508D01*
X121276Y211470D01*
X121307Y211435D01*
X121331Y211404D01*
X121348Y211380D01*
X121359Y211363D01*
X121362Y211356D01*
X121390Y211304D01*
X121414Y211249D01*
X121435Y211197D01*
X121452Y211149D01*
X121466Y211107D01*
X121473Y211073D01*
X121476Y211059D01*
X121479Y211049D01*
Y211045D01*
Y211042D01*
X121538Y211114D01*
X121597Y211176D01*
X121652Y211235D01*
X121704Y211283D01*
X121749Y211321D01*
X121783Y211352D01*
X121797Y211363D01*
X121807Y211369D01*
X121811Y211376D01*
X121814D01*
X121883Y211425D01*
X121952Y211470D01*
X122018Y211508D01*
X122076Y211539D01*
X122128Y211563D01*
X122149Y211573D01*
X122169Y211583D01*
X122183Y211590D01*
X122194Y211594D01*
X122201Y211597D01*
X122204D01*
X122276Y211625D01*
X122349Y211649D01*
X122415Y211670D01*
X122477Y211687D01*
X122528Y211697D01*
X122549Y211704D01*
X122566Y211708D01*
X122580Y211711D01*
X122590Y211715D01*
X122601D01*
X122677Y211728D01*
X122749Y211739D01*
X122818Y211746D01*
X122880Y211753D01*
X122935D01*
X122956Y211756D01*
X123011D01*
X123122Y211753D01*
D02*
G37*
G36*
X115232Y207009D02*
X113517D01*
X113652Y207564D01*
X113627D01*
X113579Y207502D01*
X113527Y207447D01*
X113472Y207395D01*
X113420Y207343D01*
X113369Y207298D01*
X113317Y207261D01*
X113265Y207223D01*
X113217Y207188D01*
X113172Y207160D01*
X113134Y207133D01*
X113096Y207112D01*
X113065Y207095D01*
X113037Y207081D01*
X113020Y207071D01*
X113006Y207067D01*
X113003Y207064D01*
X112934Y207036D01*
X112861Y207009D01*
X112720Y206967D01*
X112578Y206940D01*
X112513Y206929D01*
X112451Y206919D01*
X112392Y206912D01*
X112337Y206909D01*
X112292Y206902D01*
X112251D01*
X112216Y206898D01*
X112061D01*
X111961Y206905D01*
X111871Y206916D01*
X111830Y206919D01*
X111792Y206926D01*
X111757Y206929D01*
X111730Y206936D01*
X111702Y206943D01*
X111681Y206947D01*
X111664Y206950D01*
X111651Y206954D01*
X111644Y206957D01*
X111640D01*
X111561Y206985D01*
X111485Y207016D01*
X111419Y207050D01*
X111364Y207081D01*
X111316Y207112D01*
X111281Y207136D01*
X111271Y207143D01*
X111261Y207150D01*
X111257Y207157D01*
X111254D01*
X111195Y207209D01*
X111147Y207267D01*
X111109Y207330D01*
X111081Y207388D01*
X111061Y207443D01*
X111054Y207464D01*
X111047Y207485D01*
X111043Y207502D01*
X111040Y207516D01*
X111036Y207523D01*
Y207526D01*
X111026Y207623D01*
Y207726D01*
X111033Y207830D01*
X111043Y207926D01*
X111050Y207968D01*
X111057Y208009D01*
X111064Y208044D01*
X111067Y208078D01*
X111074Y208102D01*
X111078Y208120D01*
X111081Y208133D01*
Y208137D01*
X111954Y211628D01*
X113676D01*
X112913Y208578D01*
X112903Y208530D01*
X112892Y208482D01*
X112886Y208399D01*
Y208327D01*
X112892Y208268D01*
X112903Y208223D01*
X112913Y208192D01*
X112924Y208171D01*
X112927Y208165D01*
X112944Y208140D01*
X112965Y208120D01*
X113013Y208085D01*
X113068Y208061D01*
X113120Y208044D01*
X113172Y208033D01*
X113213Y208030D01*
X113227Y208027D01*
X113251D01*
X113341Y208033D01*
X113424Y208047D01*
X113493Y208071D01*
X113551Y208096D01*
X113600Y208120D01*
X113638Y208144D01*
X113648Y208151D01*
X113658Y208158D01*
X113662Y208165D01*
X113665D01*
X113724Y208223D01*
X113772Y208289D01*
X113810Y208358D01*
X113845Y208423D01*
X113865Y208485D01*
X113876Y208509D01*
X113883Y208534D01*
X113890Y208551D01*
X113893Y208568D01*
X113896Y208575D01*
Y208578D01*
X114666Y211628D01*
X116387D01*
X115232Y207009D01*
D02*
G37*
G36*
X110012D02*
X108297D01*
X109449Y211628D01*
X111174D01*
X110012Y207009D01*
D02*
G37*
G36*
X104395D02*
X102677D01*
X104205Y213101D01*
X105927D01*
X104395Y207009D01*
D02*
G37*
G36*
X102315D02*
X100328D01*
X100383Y208068D01*
X98903D01*
X98437Y207016D01*
X96457Y207009D01*
X99075Y211891D01*
X99134Y211990D01*
X99196Y212080D01*
X99258Y212163D01*
X99313Y212235D01*
X99341Y212266D01*
X99362Y212294D01*
X99386Y212318D01*
X99403Y212339D01*
X99417Y212356D01*
X99427Y212367D01*
X99434Y212373D01*
X99437Y212377D01*
X99517Y212456D01*
X99596Y212529D01*
X99672Y212594D01*
X99744Y212649D01*
X99807Y212691D01*
X99831Y212712D01*
X99855Y212725D01*
X99872Y212736D01*
X99886Y212746D01*
X99893Y212753D01*
X99896D01*
X99993Y212808D01*
X100090Y212860D01*
X100183Y212901D01*
X100266Y212939D01*
X100303Y212953D01*
X100338Y212967D01*
X100369Y212977D01*
X100397Y212988D01*
X100417Y212995D01*
X100431Y213001D01*
X100441Y213005D01*
X100445D01*
X100555Y213032D01*
X100662Y213057D01*
X100766Y213070D01*
X100862Y213084D01*
X100904Y213088D01*
X100942Y213094D01*
X100976D01*
X101004Y213098D01*
X101028Y213101D01*
X102087D01*
X102315Y207009D01*
D02*
G37*
G36*
X108097Y211628D02*
X108815D01*
X108556Y210593D01*
X107838D01*
X107290Y208396D01*
X107276Y208330D01*
Y208275D01*
X107279Y208227D01*
X107290Y208185D01*
X107304Y208154D01*
X107314Y208133D01*
X107324Y208120D01*
X107328Y208116D01*
X107366Y208089D01*
X107410Y208064D01*
X107462Y208051D01*
X107510Y208040D01*
X107555Y208037D01*
X107593Y208033D01*
X107918D01*
X107659Y207009D01*
X107562Y207002D01*
X107473Y206995D01*
X107386Y206988D01*
X107310Y206985D01*
X107276Y206981D01*
X107221D01*
X107196Y206978D01*
X107155D01*
X107065Y206974D01*
X106979Y206971D01*
X106900D01*
X106831Y206967D01*
X106479D01*
X106417Y206971D01*
X106358Y206974D01*
X106303Y206978D01*
X106251Y206981D01*
X106206Y206988D01*
X106165Y206992D01*
X106131Y206995D01*
X106096Y207002D01*
X106072Y207005D01*
X106051Y207009D01*
X106037D01*
X106027Y207012D01*
X106024D01*
X105930Y207033D01*
X105851Y207057D01*
X105782Y207085D01*
X105723Y207109D01*
X105678Y207133D01*
X105648Y207150D01*
X105627Y207164D01*
X105620Y207167D01*
X105565Y207212D01*
X105523Y207267D01*
X105489Y207323D01*
X105465Y207381D01*
X105447Y207433D01*
X105437Y207474D01*
X105434Y207488D01*
Y207502D01*
X105430Y207509D01*
Y207512D01*
X105427Y207609D01*
X105430Y207713D01*
X105440Y207813D01*
X105458Y207913D01*
X105465Y207958D01*
X105472Y207999D01*
X105482Y208037D01*
X105489Y208068D01*
X105492Y208096D01*
X105499Y208113D01*
X105503Y208126D01*
Y208130D01*
X106745Y213039D01*
X108466D01*
X108097Y211628D01*
D02*
G37*
G36*
X214030Y19648D02*
X214127D01*
X214244Y19638D01*
X214380Y19619D01*
X214535Y19599D01*
X214710Y19580D01*
X214894Y19551D01*
X215098Y19512D01*
X215312Y19473D01*
X215526Y19424D01*
X215982Y19298D01*
X216215Y19220D01*
X216448Y19133D01*
X216331Y18803D01*
X216322Y18813D01*
X216273Y18822D01*
X216215Y18842D01*
X216127Y18881D01*
X216021Y18910D01*
X215885Y18949D01*
X215739Y18997D01*
X215574Y19046D01*
X215399Y19085D01*
X215205Y19133D01*
X215011Y19172D01*
X214797Y19211D01*
X214351Y19279D01*
X214118Y19298D01*
X213884Y19308D01*
X213564D01*
X213428Y19298D01*
X213282D01*
X213117Y19288D01*
X212943Y19269D01*
X212748Y19250D01*
X212554Y19220D01*
X212341Y19191D01*
X211913Y19114D01*
X211476Y18997D01*
X211467D01*
X211428Y18978D01*
X211360Y18958D01*
X211282Y18929D01*
X211175Y18890D01*
X211059Y18852D01*
X210913Y18793D01*
X210768Y18735D01*
X210602Y18667D01*
X210428Y18589D01*
X210059Y18405D01*
X209680Y18191D01*
X209292Y17939D01*
X209282Y17929D01*
X209243Y17910D01*
X209194Y17871D01*
X209117Y17813D01*
X209030Y17745D01*
X208932Y17657D01*
X208816Y17560D01*
X208690Y17453D01*
X208554Y17337D01*
X208408Y17201D01*
X208262Y17055D01*
X208117Y16900D01*
X207961Y16735D01*
X207816Y16560D01*
X207524Y16181D01*
X207515Y16172D01*
X207495Y16133D01*
X207456Y16074D01*
X207398Y15997D01*
X207340Y15900D01*
X207272Y15793D01*
X207194Y15657D01*
X207107Y15511D01*
X207019Y15356D01*
X206922Y15181D01*
X206835Y14997D01*
X206738Y14803D01*
X206573Y14385D01*
X206417Y13948D01*
Y13938D01*
X206398Y13900D01*
X206388Y13832D01*
X206359Y13744D01*
X206340Y13637D01*
X206311Y13511D01*
X206282Y13365D01*
X206252Y13200D01*
X206214Y13026D01*
X206185Y12831D01*
X206165Y12637D01*
X206136Y12433D01*
X206107Y11996D01*
Y11540D01*
Y11530D01*
Y11482D01*
X206117Y11423D01*
X206126Y11336D01*
X206136Y11229D01*
X206146Y11093D01*
X206165Y10948D01*
X206185Y10792D01*
X206214Y10617D01*
X206243Y10423D01*
X206282Y10229D01*
X206330Y10025D01*
X206447Y9598D01*
X206592Y9151D01*
X206602Y9142D01*
X206612Y9103D01*
X206641Y9035D01*
X206670Y8957D01*
X206718Y8850D01*
X206767Y8734D01*
X206835Y8598D01*
X206913Y8452D01*
X206990Y8287D01*
X207087Y8122D01*
X207301Y7763D01*
X207544Y7384D01*
X207835Y7015D01*
X207563Y6772D01*
X207554Y6782D01*
X207524Y6821D01*
X207486Y6879D01*
X207427Y6957D01*
X207350Y7054D01*
X207272Y7170D01*
X207175Y7297D01*
X207078Y7442D01*
X206981Y7607D01*
X206874Y7782D01*
X206757Y7967D01*
X206650Y8161D01*
X206447Y8588D01*
X206262Y9035D01*
X206252Y9044D01*
X206243Y9093D01*
X206223Y9151D01*
X206185Y9248D01*
X206155Y9355D01*
X206117Y9481D01*
X206068Y9637D01*
X206029Y9802D01*
X205980Y9986D01*
X205932Y10171D01*
X205893Y10384D01*
X205854Y10598D01*
X205786Y11045D01*
X205767Y11287D01*
X205757Y11520D01*
Y11540D01*
Y11579D01*
Y11647D01*
Y11744D01*
Y11860D01*
X205767Y11996D01*
X205777Y12152D01*
X205786Y12317D01*
X205796Y12501D01*
X205825Y12705D01*
X205845Y12909D01*
X205883Y13132D01*
X205971Y13589D01*
X206087Y14055D01*
Y14064D01*
X206107Y14113D01*
X206126Y14181D01*
X206155Y14268D01*
X206194Y14375D01*
X206243Y14502D01*
X206301Y14647D01*
X206369Y14812D01*
X206447Y14987D01*
X206534Y15171D01*
X206728Y15560D01*
X206961Y15977D01*
X207233Y16385D01*
X207243Y16395D01*
X207272Y16434D01*
X207311Y16492D01*
X207379Y16570D01*
X207447Y16657D01*
X207544Y16774D01*
X207641Y16890D01*
X207767Y17026D01*
X207893Y17172D01*
X208029Y17317D01*
X208185Y17473D01*
X208350Y17628D01*
X208699Y17939D01*
X209078Y18240D01*
X209088Y18249D01*
X209127Y18269D01*
X209185Y18308D01*
X209262Y18356D01*
X209369Y18424D01*
X209486Y18492D01*
X209622Y18570D01*
X209767Y18657D01*
X209932Y18745D01*
X210107Y18832D01*
X210301Y18920D01*
X210496Y19017D01*
X210923Y19191D01*
X211370Y19337D01*
X211379D01*
X211428Y19356D01*
X211496Y19376D01*
X211583Y19395D01*
X211690Y19424D01*
X211826Y19454D01*
X211981Y19483D01*
X212146Y19512D01*
X212331Y19551D01*
X212525Y19580D01*
X212739Y19609D01*
X212952Y19628D01*
X213418Y19658D01*
X213962D01*
X214030Y19648D01*
D02*
G37*
G36*
X250229Y10579D02*
X249481D01*
Y12288D01*
X247491D01*
Y10579D01*
X246753D01*
Y14589D01*
X247491D01*
Y12928D01*
X249481D01*
Y14589D01*
X250229D01*
Y10579D01*
D02*
G37*
G36*
X245248Y14570D02*
X245384Y14550D01*
X245529Y14521D01*
X245685Y14463D01*
X245830Y14395D01*
X245957Y14298D01*
X245966Y14288D01*
X246005Y14249D01*
X246054Y14181D01*
X246112Y14084D01*
X246170Y13967D01*
X246219Y13822D01*
X246258Y13647D01*
X246267Y13443D01*
Y13433D01*
Y13414D01*
Y13385D01*
X246258Y13346D01*
X246248Y13229D01*
X246219Y13093D01*
X246161Y12938D01*
X246083Y12773D01*
X245986Y12618D01*
X245918Y12540D01*
X245840Y12462D01*
X245821Y12443D01*
X245792Y12424D01*
X245762Y12404D01*
X245714Y12375D01*
X245665Y12336D01*
X245597Y12297D01*
X245529Y12258D01*
X245442Y12220D01*
X245345Y12181D01*
X245238Y12132D01*
X245131Y12093D01*
X245005Y12055D01*
X244869Y12016D01*
X244723Y11987D01*
X244568Y11958D01*
X244471Y12628D01*
X244490D01*
X244549Y12647D01*
X244646Y12666D01*
X244753Y12695D01*
X244869Y12734D01*
X244995Y12783D01*
X245122Y12841D01*
X245228Y12909D01*
X245238Y12919D01*
X245267Y12948D01*
X245316Y12987D01*
X245364Y13055D01*
X245403Y13123D01*
X245452Y13210D01*
X245481Y13317D01*
X245491Y13424D01*
Y13433D01*
Y13463D01*
X245481Y13511D01*
X245471Y13569D01*
X245432Y13696D01*
X245403Y13754D01*
X245355Y13802D01*
X245345Y13812D01*
X245335Y13822D01*
X245306Y13841D01*
X245257Y13870D01*
X245209Y13890D01*
X245151Y13909D01*
X245073Y13919D01*
X244986Y13929D01*
X243986D01*
Y10579D01*
X243238D01*
Y14589D01*
X245141D01*
X245248Y14570D01*
D02*
G37*
G36*
X259046Y10579D02*
X258288D01*
X256181Y13550D01*
Y10579D01*
X255453D01*
Y14589D01*
X256191D01*
X258327Y11666D01*
Y14589D01*
X259046D01*
Y10579D01*
D02*
G37*
G36*
X271708D02*
X271038D01*
Y13356D01*
X269931Y10579D01*
X269309D01*
X268183Y13356D01*
Y10579D01*
X267503D01*
Y14589D01*
X268270D01*
X269630Y11540D01*
X270970Y14589D01*
X271708D01*
Y10579D01*
D02*
G37*
G36*
X241131D02*
X240441D01*
Y13356D01*
X239344Y10579D01*
X238713D01*
X237606Y13356D01*
Y10579D01*
X236907D01*
Y14589D01*
X237684D01*
X239033Y11540D01*
X240383Y14589D01*
X241131D01*
Y10579D01*
D02*
G37*
G36*
X262512Y13948D02*
X261366D01*
Y10579D01*
X260619D01*
Y13948D01*
X259463D01*
Y14589D01*
X262512D01*
Y13948D01*
D02*
G37*
G36*
X254967Y10579D02*
X254171D01*
X253705Y11666D01*
X252375D01*
X252627Y12307D01*
X253443D01*
X252802Y13822D01*
X251472Y10579D01*
X250714D01*
X252424Y14589D01*
X253220D01*
X254967Y10579D01*
D02*
G37*
G36*
X236421D02*
X235615D01*
X235159Y11666D01*
X233829Y11666D01*
X234072Y12307D01*
X234887Y12307D01*
X234266Y13822D01*
X232936Y10579D01*
X232168D01*
X233887Y14589D01*
X234683Y14589D01*
X236421Y10579D01*
D02*
G37*
G36*
X231790Y13948D02*
X229780D01*
Y12928D01*
X231702D01*
Y12268D01*
X229770D01*
Y11210D01*
X231829D01*
Y10579D01*
X229042D01*
Y14589D01*
X231790D01*
Y13948D01*
D02*
G37*
G36*
X228624D02*
X227469D01*
Y10579D01*
X226721D01*
Y13948D01*
X225566D01*
Y14589D01*
X228624D01*
Y13948D01*
D02*
G37*
G36*
X264969Y14608D02*
X265056Y14599D01*
X265153Y14589D01*
X265260Y14579D01*
X265367Y14550D01*
X265610Y14492D01*
X265862Y14395D01*
X265979Y14336D01*
X266095Y14268D01*
X266202Y14191D01*
X266299Y14094D01*
X266309Y14084D01*
X266318Y14074D01*
X266348Y14035D01*
X266377Y13997D01*
X266416Y13948D01*
X266454Y13880D01*
X266503Y13802D01*
X266551Y13705D01*
X266590Y13608D01*
X266639Y13492D01*
X266678Y13365D01*
X266717Y13229D01*
X266746Y13084D01*
X266775Y12919D01*
X266785Y12744D01*
X266794Y12560D01*
Y12550D01*
Y12521D01*
Y12462D01*
X266785Y12394D01*
X266775Y12317D01*
X266765Y12220D01*
X266755Y12113D01*
X266736Y11996D01*
X266678Y11754D01*
X266590Y11501D01*
X266532Y11375D01*
X266464Y11258D01*
X266387Y11152D01*
X266299Y11045D01*
X266289Y11035D01*
X266280Y11025D01*
X266250Y10996D01*
X266212Y10967D01*
X266153Y10928D01*
X266095Y10889D01*
X266018Y10841D01*
X265930Y10792D01*
X265833Y10744D01*
X265717Y10695D01*
X265600Y10656D01*
X265464Y10617D01*
X265318Y10588D01*
X265163Y10559D01*
X264988Y10549D01*
X264804Y10540D01*
X264716D01*
X264648Y10549D01*
X264561Y10559D01*
X264474Y10569D01*
X264367Y10579D01*
X264260Y10608D01*
X264027Y10666D01*
X263784Y10753D01*
X263658Y10812D01*
X263541Y10880D01*
X263435Y10957D01*
X263337Y11045D01*
X263328Y11054D01*
X263318Y11074D01*
X263289Y11103D01*
X263260Y11142D01*
X263221Y11190D01*
X263172Y11258D01*
X263124Y11336D01*
X263075Y11423D01*
X263027Y11530D01*
X262978Y11637D01*
X262930Y11763D01*
X262891Y11899D01*
X262852Y12045D01*
X262823Y12210D01*
X262794Y12375D01*
X262784Y12560D01*
Y12569D01*
Y12608D01*
Y12657D01*
X262794Y12725D01*
X262804Y12812D01*
X262813Y12909D01*
X262823Y13016D01*
X262852Y13132D01*
X262910Y13385D01*
X262998Y13637D01*
X263056Y13763D01*
X263124Y13880D01*
X263202Y13997D01*
X263289Y14094D01*
X263299Y14103D01*
X263318Y14113D01*
X263347Y14142D01*
X263386Y14171D01*
X263435Y14220D01*
X263503Y14259D01*
X263580Y14307D01*
X263668Y14356D01*
X263774Y14404D01*
X263881Y14453D01*
X264007Y14502D01*
X264143Y14540D01*
X264289Y14570D01*
X264454Y14599D01*
X264619Y14608D01*
X264804Y14618D01*
X264901D01*
X264969Y14608D01*
D02*
G37*
G36*
X272572Y8520D02*
X224663Y8520D01*
Y8860D01*
X272572Y8860D01*
Y8520D01*
D02*
G37*
G36*
X250598Y7277D02*
X250724Y7267D01*
X250860Y7229D01*
X250870D01*
X250889Y7219D01*
X250928Y7209D01*
X250977Y7190D01*
X251083Y7132D01*
X251200Y7064D01*
X251006Y6772D01*
X250996D01*
X250986Y6792D01*
X250928Y6821D01*
X250841Y6860D01*
X250734Y6899D01*
X250724D01*
X250705Y6908D01*
X250685D01*
X250646Y6918D01*
X250549Y6937D01*
X250452Y6957D01*
X250404D01*
X250345Y6947D01*
X250297Y6928D01*
X250287D01*
X250258Y6918D01*
X250181Y6869D01*
X250171Y6860D01*
X250151Y6850D01*
X250122Y6821D01*
X250093Y6772D01*
Y6763D01*
X250083Y6734D01*
X250074Y6685D01*
Y6627D01*
Y6617D01*
Y6598D01*
X250083Y6530D01*
Y6520D01*
X250103Y6500D01*
X250142Y6442D01*
X250151Y6432D01*
X250171Y6423D01*
X250200Y6394D01*
X250239Y6374D01*
X250248D01*
X250278Y6364D01*
X250326Y6355D01*
X250384Y6335D01*
X250394D01*
X250413Y6326D01*
X250452Y6316D01*
X250491Y6306D01*
X250676D01*
X250705Y6296D01*
X250744Y6287D01*
X250831Y6258D01*
X250918Y6219D01*
X250928D01*
X250938Y6209D01*
X250986Y6180D01*
X251054Y6132D01*
X251113Y6073D01*
X251122Y6054D01*
X251161Y6015D01*
X251200Y5947D01*
X251229Y5869D01*
X251239Y5850D01*
X251249Y5801D01*
X251258Y5733D01*
X251268Y5646D01*
Y5636D01*
Y5588D01*
X251258Y5529D01*
X251239Y5461D01*
X251219Y5384D01*
X251181Y5296D01*
X251132Y5219D01*
X251064Y5151D01*
X251054Y5141D01*
X251025Y5122D01*
X250986Y5102D01*
X250918Y5073D01*
X250831Y5034D01*
X250734Y5015D01*
X250608Y4995D01*
X250472Y4986D01*
X250375D01*
X250316Y4995D01*
X250239Y5005D01*
X250161Y5015D01*
X249996Y5063D01*
X249986D01*
X249957Y5083D01*
X249918Y5093D01*
X249870Y5122D01*
X249744Y5199D01*
X249608Y5296D01*
X249831Y5559D01*
X249841Y5549D01*
X249850Y5539D01*
X249879Y5520D01*
X249918Y5491D01*
X250015Y5432D01*
X250122Y5384D01*
X250132D01*
X250151Y5374D01*
X250181Y5364D01*
X250229D01*
X250336Y5345D01*
X250472Y5335D01*
X250549D01*
X250598Y5345D01*
X250705Y5364D01*
X250753Y5384D01*
X250802Y5413D01*
X250812D01*
X250821Y5432D01*
X250860Y5471D01*
X250899Y5549D01*
X250918Y5588D01*
Y5646D01*
Y5656D01*
Y5665D01*
X250909Y5714D01*
X250889Y5782D01*
X250851Y5840D01*
X250841Y5850D01*
X250802Y5889D01*
X250724Y5918D01*
X250627Y5957D01*
X250540D01*
X250482Y5966D01*
X250472D01*
X250433Y5976D01*
X250384D01*
X250336Y5986D01*
X250307D01*
X250278Y5996D01*
X250248Y6005D01*
X250151Y6025D01*
X250064Y6064D01*
X250044Y6073D01*
X249996Y6112D01*
X249938Y6161D01*
X249879Y6219D01*
X249870Y6238D01*
X249831Y6277D01*
X249792Y6335D01*
X249753Y6403D01*
Y6413D01*
Y6423D01*
X249744Y6471D01*
X249734Y6539D01*
X249724Y6627D01*
Y6636D01*
Y6656D01*
Y6685D01*
X249734Y6724D01*
X249744Y6811D01*
X249763Y6899D01*
Y6908D01*
X249773Y6918D01*
X249802Y6976D01*
X249850Y7044D01*
X249918Y7112D01*
X249928D01*
X249938Y7132D01*
X249986Y7161D01*
X250064Y7200D01*
X250151Y7238D01*
X250161D01*
X250171Y7248D01*
X250200Y7258D01*
X250239Y7267D01*
X250336Y7277D01*
X250472Y7287D01*
X250549D01*
X250598Y7277D01*
D02*
G37*
G36*
X227789Y7277D02*
X227925Y7267D01*
X228061Y7229D01*
X228071D01*
X228090Y7219D01*
X228129Y7209D01*
X228178Y7190D01*
X228284Y7132D01*
X228401Y7064D01*
X228207Y6772D01*
X228197D01*
X228187Y6792D01*
X228129Y6821D01*
X228051Y6860D01*
X227945Y6899D01*
X227935D01*
X227915Y6908D01*
X227886D01*
X227857Y6918D01*
X227760Y6937D01*
X227644Y6957D01*
X227595D01*
X227547Y6947D01*
X227498Y6928D01*
X227488D01*
X227459Y6918D01*
X227381Y6869D01*
X227372Y6860D01*
X227352Y6850D01*
X227323Y6821D01*
X227294Y6772D01*
X227284Y6763D01*
X227275Y6734D01*
X227265Y6685D01*
X227255Y6627D01*
Y6617D01*
Y6598D01*
X227265Y6568D01*
X227284Y6530D01*
X227294Y6520D01*
X227304Y6500D01*
X227343Y6442D01*
X227352Y6432D01*
X227372Y6423D01*
X227401Y6394D01*
X227440Y6374D01*
X227449D01*
X227479Y6364D01*
X227527Y6355D01*
X227585Y6335D01*
X227595D01*
X227624Y6326D01*
X227663Y6316D01*
X227702Y6306D01*
X227877D01*
X227906Y6296D01*
X227945Y6287D01*
X228032Y6258D01*
X228119Y6219D01*
X228129D01*
X228139Y6209D01*
X228187Y6180D01*
X228255Y6132D01*
X228313Y6073D01*
X228323Y6054D01*
X228362Y6015D01*
X228401Y5947D01*
X228430Y5869D01*
X228440Y5850D01*
X228450Y5801D01*
X228459Y5733D01*
X228469Y5646D01*
Y5636D01*
X228459Y5588D01*
X228450Y5529D01*
X228430Y5461D01*
X228411Y5384D01*
X228362Y5296D01*
X228313Y5219D01*
X228246Y5151D01*
X228236Y5141D01*
X228207Y5122D01*
X228168Y5102D01*
X228100Y5073D01*
X228022Y5034D01*
X227925Y5015D01*
X227809Y4995D01*
X227673Y4986D01*
X227576D01*
X227517Y4995D01*
X227440Y5005D01*
X227362Y5015D01*
X227197Y5063D01*
X227187D01*
X227158Y5083D01*
X227119Y5093D01*
X227071Y5122D01*
X226935Y5199D01*
X226789Y5296D01*
X227032Y5559D01*
X227042Y5549D01*
X227051Y5539D01*
X227080Y5520D01*
X227119Y5491D01*
X227207Y5432D01*
X227323Y5384D01*
X227333D01*
X227352Y5374D01*
X227381Y5364D01*
X227430D01*
X227537Y5345D01*
X227673Y5335D01*
X227750D01*
X227799Y5345D01*
X227906Y5364D01*
X227954Y5384D01*
X228003Y5413D01*
X228012D01*
X228022Y5432D01*
X228061Y5471D01*
X228100Y5549D01*
X228119Y5588D01*
Y5646D01*
Y5656D01*
Y5665D01*
X228110Y5714D01*
X228090Y5782D01*
X228042Y5840D01*
X228032Y5850D01*
X227983Y5889D01*
X227915Y5918D01*
X227828Y5957D01*
X227741D01*
X227682Y5966D01*
X227673D01*
X227634Y5976D01*
X227576D01*
X227517Y5986D01*
X227498D01*
X227440Y6005D01*
X227352Y6025D01*
X227265Y6064D01*
X227245Y6073D01*
X227197Y6112D01*
X227139Y6161D01*
X227071Y6219D01*
X227061Y6238D01*
X227032Y6277D01*
X226993Y6335D01*
X226954Y6403D01*
Y6413D01*
X226944Y6423D01*
X226935Y6471D01*
X226925Y6539D01*
X226915Y6627D01*
Y6636D01*
Y6656D01*
Y6685D01*
X226925Y6724D01*
X226935Y6811D01*
X226964Y6899D01*
Y6908D01*
X226974Y6918D01*
X227003Y6976D01*
X227051Y7044D01*
X227119Y7112D01*
X227139Y7132D01*
X227178Y7161D01*
X227255Y7200D01*
X227343Y7238D01*
X227352D01*
X227372Y7248D01*
X227401Y7258D01*
X227440Y7267D01*
X227537Y7277D01*
X227653Y7287D01*
X227741D01*
X227789Y7277D01*
D02*
G37*
G36*
X270202Y7277D02*
X270300Y7267D01*
X270397Y7238D01*
X270406D01*
X270416Y7229D01*
X270474Y7209D01*
X270552Y7161D01*
X270639Y7093D01*
X270659Y7083D01*
X270698Y7034D01*
X270746Y6976D01*
X270805Y6889D01*
Y6879D01*
X270814Y6869D01*
X270843Y6811D01*
X270882Y6724D01*
X270911Y6617D01*
X270533D01*
Y6627D01*
X270523Y6656D01*
X270503Y6695D01*
X270474Y6743D01*
X270465Y6753D01*
X270455Y6782D01*
X270426Y6821D01*
X270397Y6860D01*
X270387Y6869D01*
X270358Y6889D01*
X270309Y6908D01*
X270251Y6918D01*
X270241D01*
X270212Y6928D01*
X270164Y6947D01*
X270105Y6957D01*
X270096D01*
X270066Y6947D01*
X269999Y6928D01*
X269969D01*
X269931Y6918D01*
X269892Y6908D01*
Y6899D01*
X269872Y6889D01*
X269824Y6840D01*
X269814D01*
X269804Y6831D01*
X269756Y6782D01*
X269746Y6772D01*
X269736Y6763D01*
X269707Y6734D01*
X269688Y6695D01*
Y6685D01*
X269678Y6666D01*
X269668Y6598D01*
Y6588D01*
X269659Y6559D01*
X269649Y6500D01*
X269639Y6423D01*
Y6413D01*
Y6403D01*
Y6345D01*
X269630Y6258D01*
Y6151D01*
Y6141D01*
Y6122D01*
Y6093D01*
Y6054D01*
Y5957D01*
X269639Y5860D01*
Y5840D01*
X269649Y5801D01*
X269659Y5733D01*
X269668Y5675D01*
Y5665D01*
Y5646D01*
X269678Y5607D01*
X269688Y5568D01*
X269698Y5559D01*
X269707Y5539D01*
X269756Y5491D01*
X269765Y5481D01*
X269775Y5471D01*
X269824Y5423D01*
X269833D01*
X269843Y5413D01*
X269892Y5384D01*
X269901D01*
X269931Y5364D01*
X269999Y5345D01*
X270028D01*
X270066Y5335D01*
X270134D01*
X270193Y5345D01*
X270280Y5364D01*
X270358Y5413D01*
X270368D01*
X270377Y5432D01*
X270416Y5471D01*
X270474Y5549D01*
X270533Y5646D01*
X270911D01*
Y5636D01*
X270902Y5617D01*
X270892Y5588D01*
X270882Y5539D01*
X270843Y5442D01*
X270795Y5345D01*
Y5335D01*
X270785Y5325D01*
X270746Y5277D01*
X270688Y5209D01*
X270620Y5141D01*
X270601Y5131D01*
X270552Y5102D01*
X270474Y5063D01*
X270387Y5024D01*
X270377D01*
X270368Y5015D01*
X270309Y5005D01*
X270212Y4995D01*
X270105Y4986D01*
X270028D01*
X269950Y4995D01*
X269863Y5015D01*
X269843Y5024D01*
X269795Y5044D01*
X269727Y5073D01*
X269649Y5112D01*
X269639Y5122D01*
X269601Y5151D01*
X269552Y5199D01*
X269503Y5248D01*
X269494Y5258D01*
X269464Y5287D01*
X269435Y5335D01*
X269396Y5384D01*
Y5393D01*
X269387Y5403D01*
X269367Y5442D01*
Y5452D01*
Y5461D01*
X269358Y5491D01*
X269348Y5500D01*
X269329Y5539D01*
Y5549D01*
Y5559D01*
X269319Y5607D01*
Y5617D01*
X269309Y5656D01*
Y5714D01*
X269299Y5801D01*
Y5811D01*
Y5830D01*
Y5860D01*
Y5898D01*
X269290Y5947D01*
Y6005D01*
Y6151D01*
Y6161D01*
Y6180D01*
Y6219D01*
Y6258D01*
Y6364D01*
X269299Y6462D01*
Y6471D01*
Y6481D01*
X269309Y6539D01*
Y6607D01*
X269319Y6666D01*
Y6675D01*
Y6704D01*
X269329Y6743D01*
X269348Y6782D01*
X269358Y6792D01*
X269367Y6821D01*
X269396Y6889D01*
X269406Y6899D01*
X269426Y6937D01*
X269464Y6976D01*
X269503Y7034D01*
X269513Y7044D01*
X269542Y7083D01*
X269591Y7122D01*
X269649Y7170D01*
X269659D01*
X269668Y7180D01*
X269717Y7209D01*
X269785Y7238D01*
X269863Y7258D01*
X269872D01*
X269882Y7267D01*
X269940Y7277D01*
X270018Y7287D01*
X270164D01*
X270202Y7277D01*
D02*
G37*
G36*
X263415D02*
X263503Y7267D01*
X263609Y7238D01*
X263619D01*
X263638Y7229D01*
X263697Y7209D01*
X263774Y7161D01*
X263862Y7093D01*
X263881Y7083D01*
X263920Y7034D01*
X263969Y6976D01*
X264017Y6889D01*
Y6879D01*
X264027Y6869D01*
X264056Y6811D01*
X264085Y6724D01*
X264114Y6617D01*
X263755D01*
Y6627D01*
X263736Y6656D01*
X263716Y6695D01*
X263687Y6743D01*
X263677Y6753D01*
X263658Y6782D01*
X263638Y6821D01*
X263600Y6860D01*
X263590Y6869D01*
X263561Y6889D01*
X263522Y6908D01*
X263474Y6918D01*
X263464D01*
X263425Y6928D01*
X263376Y6947D01*
X263318Y6957D01*
X263308D01*
X263279Y6947D01*
X263240Y6937D01*
X263192Y6928D01*
X263163D01*
X263114Y6908D01*
X263105Y6899D01*
X263085Y6889D01*
X263027Y6840D01*
X263017D01*
X263007Y6831D01*
X262959Y6782D01*
X262949Y6772D01*
X262939Y6763D01*
X262920Y6734D01*
X262901Y6695D01*
Y6685D01*
X262891Y6666D01*
X262871Y6598D01*
Y6588D01*
X262862Y6559D01*
X262852Y6500D01*
Y6423D01*
Y6413D01*
Y6403D01*
Y6345D01*
Y6258D01*
Y6151D01*
Y6141D01*
Y6122D01*
Y6093D01*
Y6054D01*
Y5957D01*
Y5860D01*
Y5840D01*
Y5801D01*
X262862Y5733D01*
X262871Y5675D01*
Y5665D01*
X262881Y5646D01*
X262891Y5607D01*
X262901Y5568D01*
Y5559D01*
X262920Y5539D01*
X262959Y5491D01*
X262968Y5481D01*
X262978Y5471D01*
X263027Y5423D01*
X263036D01*
X263056Y5413D01*
X263114Y5384D01*
X263124D01*
X263134Y5364D01*
X263192Y5345D01*
X263231D01*
X263269Y5335D01*
X263347D01*
X263405Y5345D01*
X263483Y5364D01*
X263571Y5413D01*
X263580D01*
X263590Y5432D01*
X263638Y5471D01*
X263697Y5549D01*
X263755Y5646D01*
X264114D01*
Y5636D01*
X264105Y5617D01*
Y5588D01*
X264095Y5539D01*
X264056Y5442D01*
X264007Y5345D01*
Y5335D01*
X263998Y5325D01*
X263959Y5277D01*
X263901Y5209D01*
X263823Y5141D01*
X263804Y5131D01*
X263755Y5102D01*
X263677Y5063D01*
X263590Y5024D01*
X263580D01*
X263571Y5015D01*
X263512Y5005D01*
X263425Y4995D01*
X263318Y4986D01*
X263240D01*
X263153Y4995D01*
X263066Y5015D01*
X263046Y5024D01*
X262998Y5044D01*
X262939Y5073D01*
X262871Y5112D01*
X262862Y5122D01*
X262823Y5151D01*
X262765Y5199D01*
X262716Y5248D01*
X262706Y5258D01*
X262677Y5287D01*
X262638Y5335D01*
X262590Y5384D01*
Y5393D01*
Y5403D01*
X262570Y5442D01*
Y5452D01*
Y5461D01*
X262561Y5491D01*
X262551Y5500D01*
X262532Y5539D01*
Y5549D01*
Y5559D01*
X262522Y5607D01*
Y5617D01*
Y5656D01*
X262512Y5714D01*
Y5801D01*
Y5811D01*
Y5830D01*
Y5860D01*
Y5898D01*
Y5947D01*
Y6005D01*
Y6151D01*
Y6161D01*
Y6180D01*
Y6219D01*
Y6258D01*
Y6364D01*
Y6462D01*
Y6471D01*
Y6481D01*
Y6539D01*
Y6607D01*
X262522Y6666D01*
Y6675D01*
X262532Y6704D01*
X262561Y6782D01*
Y6792D01*
X262570Y6821D01*
X262590Y6889D01*
X262599Y6899D01*
X262629Y6937D01*
X262667Y6976D01*
X262716Y7034D01*
X262726Y7044D01*
X262765Y7083D01*
X262813Y7122D01*
X262871Y7170D01*
X262891Y7180D01*
X262930Y7209D01*
X262988Y7238D01*
X263066Y7258D01*
X263075D01*
X263085Y7267D01*
X263143Y7277D01*
X263221Y7287D01*
X263376D01*
X263415Y7277D01*
D02*
G37*
G36*
X242014Y5005D02*
X241665D01*
Y6423D01*
X241645D01*
X241179Y5335D01*
X240888D01*
X240422Y6423D01*
X240403D01*
Y5005D01*
X240063D01*
Y7267D01*
X240383D01*
X241043Y5801D01*
X241684Y7267D01*
X242014D01*
Y5005D01*
D02*
G37*
G36*
X244228Y5762D02*
Y5753D01*
Y5733D01*
Y5704D01*
X244218Y5665D01*
X244199Y5559D01*
X244160Y5452D01*
Y5442D01*
X244151Y5432D01*
X244121Y5374D01*
X244063Y5287D01*
X243986Y5199D01*
X243966Y5180D01*
X243917Y5141D01*
X243830Y5083D01*
X243733Y5034D01*
X243723D01*
X243704Y5024D01*
X243675Y5015D01*
X243636D01*
X243539Y4995D01*
X243413Y4986D01*
X243354D01*
X243306Y4995D01*
X243209Y5005D01*
X243102Y5034D01*
X243092D01*
X243082Y5044D01*
X243015Y5073D01*
X242937Y5131D01*
X242840Y5199D01*
Y5209D01*
X242820Y5219D01*
X242772Y5277D01*
X242713Y5355D01*
X242655Y5452D01*
Y5461D01*
X242646Y5481D01*
X242636Y5510D01*
X242626Y5549D01*
X242607Y5646D01*
X242597Y5762D01*
Y7267D01*
X242947D01*
Y5821D01*
Y5811D01*
Y5801D01*
Y5743D01*
X242956Y5675D01*
X242976Y5607D01*
X242985Y5597D01*
X243005Y5559D01*
X243034Y5500D01*
X243082Y5452D01*
X243092Y5442D01*
X243131Y5413D01*
X243170Y5384D01*
X243228Y5355D01*
X243238D01*
X243277Y5345D01*
X243335Y5335D01*
X243481D01*
X243539Y5345D01*
X243607Y5355D01*
X243626Y5364D01*
X243655Y5374D01*
X243704Y5413D01*
X243743Y5452D01*
X243752Y5461D01*
X243782Y5500D01*
X243811Y5549D01*
X243840Y5607D01*
X243849Y5627D01*
X243859Y5665D01*
X243869Y5733D01*
X243879Y5821D01*
Y7267D01*
X244228D01*
Y5762D01*
D02*
G37*
G36*
X232450Y5762D02*
Y5753D01*
Y5733D01*
Y5704D01*
X232440Y5665D01*
X232421Y5559D01*
X232382Y5452D01*
Y5442D01*
X232372Y5432D01*
X232343Y5374D01*
X232285Y5287D01*
X232207Y5199D01*
X232188Y5180D01*
X232139Y5141D01*
X232052Y5083D01*
X231955Y5034D01*
X231945D01*
X231926Y5024D01*
X231896Y5015D01*
X231858D01*
X231761Y4995D01*
X231634Y4986D01*
X231576D01*
X231528Y4995D01*
X231431Y5005D01*
X231324Y5034D01*
X231314D01*
X231304Y5044D01*
X231236Y5073D01*
X231159Y5131D01*
X231062Y5199D01*
Y5209D01*
X231042Y5219D01*
X230994Y5277D01*
X230935Y5355D01*
X230877Y5452D01*
Y5461D01*
X230867Y5481D01*
X230858Y5510D01*
X230848Y5549D01*
X230828Y5646D01*
X230819Y5762D01*
Y7267D01*
X231168D01*
Y5821D01*
Y5811D01*
Y5801D01*
Y5743D01*
X231178Y5675D01*
X231197Y5607D01*
X231207Y5597D01*
X231226Y5559D01*
X231256Y5500D01*
X231304Y5452D01*
X231314Y5442D01*
X231353Y5413D01*
X231392Y5384D01*
X231450Y5355D01*
X231460D01*
X231498Y5345D01*
X231557Y5335D01*
X231702D01*
X231761Y5345D01*
X231819Y5355D01*
X231829Y5364D01*
X231867Y5374D01*
X231916Y5413D01*
X231964Y5452D01*
X231974Y5461D01*
X232003Y5500D01*
X232032Y5549D01*
X232062Y5607D01*
X232071Y5627D01*
X232081Y5665D01*
X232091Y5733D01*
X232100Y5821D01*
Y7267D01*
X232450D01*
Y5762D01*
D02*
G37*
G36*
X268736Y5005D02*
X268387D01*
Y7267D01*
X268736D01*
Y5005D01*
D02*
G37*
G36*
X267338Y7248D02*
X267425Y7229D01*
X267435D01*
X267445Y7219D01*
X267493Y7209D01*
X267561Y7180D01*
X267629Y7132D01*
X267639D01*
X267649Y7112D01*
X267688Y7073D01*
X267746Y7005D01*
X267794Y6918D01*
Y6908D01*
X267804Y6899D01*
X267824Y6840D01*
X267843Y6753D01*
X267853Y6646D01*
Y6636D01*
Y6607D01*
X267843Y6559D01*
Y6510D01*
X267804Y6374D01*
X267775Y6306D01*
X267736Y6248D01*
Y6238D01*
X267717Y6219D01*
X267688Y6190D01*
X267658Y6161D01*
X267610Y6122D01*
X267552Y6083D01*
X267493Y6044D01*
X267416Y6005D01*
X267940Y5005D01*
X267542D01*
X267056Y5976D01*
X266629D01*
Y5005D01*
X266280D01*
Y7267D01*
X267251D01*
X267338Y7248D01*
D02*
G37*
G36*
X265881Y6976D02*
X265260D01*
Y5005D01*
X264911D01*
Y6976D01*
X264289D01*
Y7267D01*
X265881D01*
Y6976D01*
D02*
G37*
G36*
X262095Y6957D02*
X260988D01*
Y6306D01*
X261939D01*
Y5986D01*
X260988D01*
Y5335D01*
X262095D01*
Y5005D01*
X260638D01*
Y7267D01*
X262095D01*
Y6957D01*
D02*
G37*
G36*
X259046Y5335D02*
X260153D01*
Y5005D01*
X258706D01*
Y7267D01*
X259046D01*
Y5335D01*
D02*
G37*
G36*
X258220Y6957D02*
X257113D01*
Y6306D01*
X258065D01*
Y5986D01*
X257113D01*
Y5335D01*
X258220D01*
Y5005D01*
X256764D01*
Y7267D01*
X258220D01*
Y6957D01*
D02*
G37*
G36*
X255346D02*
X254239D01*
Y6306D01*
X255191D01*
Y5986D01*
X254239D01*
Y5335D01*
X255346D01*
Y5005D01*
X253899D01*
Y7267D01*
X255346D01*
Y6957D01*
D02*
G37*
G36*
X253501Y5005D02*
X253132D01*
X252958Y5510D01*
X252093D01*
X251919Y5005D01*
X251559D01*
X252394Y7267D01*
X252666D01*
X253501Y5005D01*
D02*
G37*
G36*
X248462D02*
X248102D01*
X247928Y5510D01*
X247063D01*
X246889Y5005D01*
X246530D01*
X247355Y7267D01*
X247636D01*
X248462Y5005D01*
D02*
G37*
G36*
X245160Y5335D02*
X246287D01*
Y5005D01*
X244830D01*
Y7267D01*
X245160D01*
Y5335D01*
D02*
G37*
G36*
X239004Y7248D02*
X239092Y7229D01*
X239101D01*
X239111Y7219D01*
X239160Y7209D01*
X239237Y7180D01*
X239315Y7132D01*
X239325D01*
X239334Y7112D01*
X239373Y7073D01*
X239422Y7005D01*
X239470Y6918D01*
Y6908D01*
X239480Y6899D01*
X239499Y6840D01*
X239519Y6753D01*
X239538Y6646D01*
Y6636D01*
Y6607D01*
X239529Y6559D01*
Y6510D01*
X239490Y6374D01*
X239461Y6306D01*
X239422Y6248D01*
Y6238D01*
X239402Y6219D01*
X239373Y6190D01*
X239344Y6161D01*
X239296Y6122D01*
X239237Y6083D01*
X239169Y6044D01*
X239092Y6005D01*
X239626Y5005D01*
X239208D01*
X238742Y5976D01*
X238295D01*
Y5005D01*
X237946D01*
Y7267D01*
X238927D01*
X239004Y7248D01*
D02*
G37*
G36*
X235421Y6957D02*
X234314D01*
Y6287D01*
X235266D01*
Y5976D01*
X234314D01*
Y5005D01*
X233975Y5005D01*
Y7267D01*
X235421Y7267D01*
Y6957D01*
D02*
G37*
G36*
X230440Y6957D02*
X229333D01*
Y6287D01*
X230285D01*
Y5976D01*
X229333D01*
Y5005D01*
X228993D01*
Y7267D01*
X230440D01*
Y6957D01*
D02*
G37*
G36*
X236742Y7277D02*
X236829Y7258D01*
X236849D01*
X236897Y7238D01*
X236965Y7209D01*
X237033Y7170D01*
X237052Y7161D01*
X237082Y7132D01*
X237140Y7093D01*
X237189Y7034D01*
X237198Y7025D01*
X237227Y6986D01*
X237266Y6937D01*
X237295Y6889D01*
X237305Y6879D01*
X237315Y6860D01*
X237324Y6821D01*
X237344Y6782D01*
Y6772D01*
X237353Y6753D01*
X237363Y6714D01*
X237373Y6666D01*
Y6656D01*
Y6617D01*
Y6549D01*
X237383Y6462D01*
Y6452D01*
Y6442D01*
Y6413D01*
X237392Y6374D01*
Y6277D01*
Y6151D01*
Y6141D01*
Y6112D01*
Y6073D01*
Y6025D01*
Y5918D01*
X237383Y5801D01*
Y5792D01*
Y5782D01*
Y5733D01*
X237373Y5665D01*
Y5607D01*
Y5597D01*
X237363Y5568D01*
X237353Y5529D01*
X237344Y5481D01*
Y5471D01*
X237334Y5452D01*
X237295Y5384D01*
X237286Y5374D01*
X237266Y5345D01*
X237237Y5296D01*
X237189Y5248D01*
X237179Y5238D01*
X237140Y5209D01*
X237091Y5161D01*
X237033Y5112D01*
X237014Y5102D01*
X236975Y5083D01*
X236907Y5044D01*
X236829Y5015D01*
X236810D01*
X236761Y5005D01*
X236674Y4995D01*
X236577Y4986D01*
X236499D01*
X236412Y4995D01*
X236324Y5015D01*
X236305Y5024D01*
X236256Y5044D01*
X236198Y5073D01*
X236130Y5112D01*
X236120Y5122D01*
X236082Y5151D01*
X236023Y5199D01*
X235975Y5248D01*
X235965Y5258D01*
X235936Y5287D01*
X235897Y5335D01*
X235868Y5384D01*
Y5393D01*
X235858Y5403D01*
X235848Y5442D01*
Y5452D01*
X235839Y5461D01*
X235819Y5491D01*
Y5500D01*
X235810Y5539D01*
Y5549D01*
X235800Y5559D01*
X235790Y5607D01*
Y5617D01*
Y5656D01*
Y5714D01*
X235781Y5801D01*
Y5811D01*
Y5830D01*
Y5860D01*
Y5898D01*
X235771Y5947D01*
Y6005D01*
Y6151D01*
Y6161D01*
Y6180D01*
Y6219D01*
Y6258D01*
Y6364D01*
X235781Y6462D01*
Y6471D01*
Y6481D01*
X235790Y6539D01*
Y6607D01*
Y6666D01*
Y6675D01*
X235800Y6704D01*
X235819Y6782D01*
Y6792D01*
X235829Y6821D01*
X235868Y6889D01*
X235878Y6899D01*
X235897Y6937D01*
X235926Y6976D01*
X235975Y7034D01*
X235984Y7044D01*
X236023Y7083D01*
X236072Y7122D01*
X236130Y7170D01*
X236150Y7180D01*
X236188Y7209D01*
X236247Y7238D01*
X236324Y7258D01*
X236334D01*
X236344Y7267D01*
X236402Y7277D01*
X236480Y7287D01*
X236664D01*
X236742Y7277D01*
D02*
G37*
G36*
X219536Y16977D02*
X219565Y16939D01*
X219613Y16890D01*
X219672Y16813D01*
X219740Y16725D01*
X219827Y16609D01*
X219924Y16482D01*
X220021Y16346D01*
X220128Y16191D01*
X220245Y16016D01*
X220351Y15832D01*
X220468Y15638D01*
X220584Y15434D01*
X220691Y15220D01*
X220895Y14773D01*
X220905Y14764D01*
X220915Y14715D01*
X220944Y14657D01*
X220973Y14560D01*
X221012Y14453D01*
X221060Y14317D01*
X221109Y14162D01*
X221157Y13997D01*
X221206Y13812D01*
X221254Y13608D01*
X221303Y13404D01*
X221352Y13181D01*
X221419Y12715D01*
X221449Y12472D01*
X221468Y12220D01*
Y12200D01*
Y12161D01*
Y12093D01*
X221478Y11996D01*
X221468Y11870D01*
Y11734D01*
Y11569D01*
X221458Y11394D01*
X221439Y11200D01*
X221419Y10996D01*
X221390Y10773D01*
X221361Y10549D01*
X221274Y10074D01*
X221216Y9831D01*
X221148Y9588D01*
Y9569D01*
X221128Y9530D01*
X221109Y9462D01*
X221080Y9365D01*
X221041Y9258D01*
X220983Y9122D01*
X220924Y8967D01*
X220866Y8802D01*
X220788Y8627D01*
X220701Y8433D01*
X220497Y8035D01*
X220264Y7617D01*
X219992Y7200D01*
X219982Y7190D01*
X219953Y7151D01*
X219914Y7093D01*
X219856Y7015D01*
X219778Y6928D01*
X219691Y6811D01*
X219584Y6695D01*
X219468Y6559D01*
X219332Y6413D01*
X219196Y6267D01*
X219040Y6112D01*
X218866Y5957D01*
X218691Y5792D01*
X218506Y5636D01*
X218108Y5335D01*
X218099Y5325D01*
X218060Y5306D01*
X218002Y5267D01*
X217914Y5209D01*
X217817Y5151D01*
X217691Y5073D01*
X217555Y4995D01*
X217390Y4908D01*
X217225Y4821D01*
X217040Y4724D01*
X216836Y4636D01*
X216632Y4549D01*
X216409Y4461D01*
X216186Y4374D01*
X215953Y4296D01*
X215710Y4228D01*
X215700D01*
X215690Y4219D01*
X215661D01*
X215623Y4209D01*
X215516Y4180D01*
X215380Y4151D01*
X215225Y4121D01*
X215050Y4083D01*
X214856Y4044D01*
X214661Y4015D01*
X214642D01*
X214613Y4005D01*
X214574D01*
X214467Y3995D01*
X214341Y3976D01*
X214176Y3966D01*
X214001Y3947D01*
X213807Y3937D01*
X213477D01*
X213409Y3947D01*
X213234D01*
X213127Y3956D01*
X212894Y3976D01*
X212632Y4005D01*
X212350Y4044D01*
X212059Y4092D01*
X212049D01*
X212020Y4102D01*
X211981Y4112D01*
X211933Y4121D01*
X211855Y4141D01*
X211777Y4160D01*
X211690Y4180D01*
X211583Y4209D01*
X211360Y4277D01*
X211107Y4355D01*
X210836Y4452D01*
X210564Y4558D01*
X210709Y4879D01*
X210719Y4869D01*
X210768Y4859D01*
X210836Y4830D01*
X210923Y4801D01*
X211030Y4762D01*
X211166Y4714D01*
X211311Y4665D01*
X211476Y4617D01*
X211661Y4558D01*
X211855Y4510D01*
X212059Y4461D01*
X212273Y4413D01*
X212729Y4345D01*
X212962Y4316D01*
X213195Y4296D01*
X213321D01*
X213409Y4287D01*
X213525D01*
X213661Y4296D01*
X213807D01*
X213972Y4306D01*
X214156Y4316D01*
X214351Y4335D01*
X214555Y4355D01*
X214768Y4374D01*
X215205Y4452D01*
X215652Y4558D01*
X215661D01*
X215710Y4578D01*
X215768Y4597D01*
X215856Y4626D01*
X215962Y4656D01*
X216089Y4704D01*
X216225Y4762D01*
X216380Y4821D01*
X216545Y4889D01*
X216720Y4966D01*
X217098Y5151D01*
X217487Y5374D01*
X217885Y5627D01*
X217895Y5636D01*
X217934Y5656D01*
X217992Y5694D01*
X218060Y5753D01*
X218157Y5821D01*
X218264Y5908D01*
X218380Y6005D01*
X218506Y6112D01*
X218652Y6238D01*
X218798Y6374D01*
X218943Y6520D01*
X219099Y6675D01*
X219254Y6850D01*
X219409Y7025D01*
X219701Y7413D01*
X219710Y7423D01*
X219740Y7462D01*
X219778Y7520D01*
X219827Y7598D01*
X219895Y7695D01*
X219963Y7811D01*
X220050Y7947D01*
X220138Y8103D01*
X220225Y8268D01*
X220322Y8442D01*
X220410Y8627D01*
X220507Y8831D01*
X220682Y9258D01*
X220759Y9481D01*
X220827Y9705D01*
Y9714D01*
X220847Y9763D01*
X220856Y9831D01*
X220885Y9918D01*
X220905Y10025D01*
X220934Y10161D01*
X220973Y10307D01*
X221002Y10472D01*
X221031Y10656D01*
X221060Y10851D01*
X221089Y11054D01*
X221109Y11258D01*
X221128Y11705D01*
X221138Y11928D01*
X221128Y12161D01*
Y12171D01*
Y12220D01*
X221118Y12288D01*
X221109Y12375D01*
X221099Y12482D01*
X221089Y12618D01*
X221070Y12763D01*
X221041Y12928D01*
X221012Y13103D01*
X220973Y13297D01*
X220934Y13501D01*
X220885Y13705D01*
X220759Y14142D01*
X220604Y14589D01*
X220594Y14599D01*
X220584Y14637D01*
X220555Y14705D01*
X220516Y14793D01*
X220468Y14890D01*
X220410Y15016D01*
X220342Y15152D01*
X220264Y15298D01*
X220167Y15463D01*
X220070Y15628D01*
X219963Y15812D01*
X219837Y15997D01*
X219710Y16181D01*
X219565Y16366D01*
X219419Y16560D01*
X219254Y16745D01*
X219526Y16987D01*
X219536Y16977D01*
D02*
G37*
G36*
X220895Y20531D02*
Y20522D01*
X220905Y20473D01*
X220915Y20463D01*
X220924Y20434D01*
X220915Y20425D01*
X220885Y20395D01*
X220847Y20347D01*
X220788Y20279D01*
X220720Y20201D01*
X220633Y20104D01*
X220536Y19988D01*
X220429Y19871D01*
X220312Y19735D01*
X220186Y19599D01*
X219914Y19288D01*
X219623Y18958D01*
X219322Y18619D01*
X219312Y18609D01*
X219283Y18580D01*
X219244Y18531D01*
X219186Y18463D01*
X219109Y18385D01*
X219021Y18288D01*
X218924Y18172D01*
X218817Y18055D01*
X218691Y17919D01*
X218565Y17784D01*
X218293Y17473D01*
X218002Y17143D01*
X217701Y16803D01*
X217691Y16793D01*
X217662Y16764D01*
X217623Y16715D01*
X217565Y16647D01*
X217487Y16570D01*
X217400Y16473D01*
X217302Y16356D01*
X217196Y16240D01*
X217079Y16104D01*
X216953Y15968D01*
X216671Y15657D01*
X216380Y15327D01*
X216069Y14987D01*
X216059Y14977D01*
X216030Y14948D01*
X215992Y14900D01*
X215933Y14832D01*
X215856Y14744D01*
X215768Y14647D01*
X215671Y14540D01*
X215555Y14414D01*
X215438Y14278D01*
X215312Y14132D01*
X215030Y13822D01*
X214739Y13492D01*
X214428Y13152D01*
X214438D01*
X214467Y13142D01*
X214525Y13123D01*
X214593Y13103D01*
X214681Y13084D01*
X214788Y13055D01*
X214904Y13026D01*
X215030Y12987D01*
X215166Y12948D01*
X215322Y12909D01*
X215642Y12822D01*
X215982Y12734D01*
X216341Y12637D01*
X216351D01*
X216380Y12628D01*
X216438Y12618D01*
X216506Y12598D01*
X216594Y12569D01*
X216691Y12550D01*
X216807Y12521D01*
X216943Y12482D01*
X217079Y12443D01*
X217234Y12404D01*
X217565Y12326D01*
X217914Y12229D01*
X218283Y12132D01*
X218273D01*
X218264Y12113D01*
X218205Y12064D01*
X218118Y12006D01*
X218031Y11938D01*
X218011Y11919D01*
X217963Y11880D01*
X217895Y11831D01*
X217817Y11763D01*
X217798Y11754D01*
X217749Y11715D01*
X217671Y11656D01*
X217565Y11579D01*
X217438Y11482D01*
X217283Y11365D01*
X217108Y11229D01*
X216904Y11084D01*
X216700Y10928D01*
X216467Y10753D01*
X216225Y10579D01*
X215982Y10384D01*
X215458Y9996D01*
X214914Y9588D01*
X214894Y9578D01*
X214846Y9540D01*
X214768Y9481D01*
X214671Y9404D01*
X214535Y9307D01*
X214380Y9190D01*
X214205Y9054D01*
X214011Y8908D01*
X213807Y8743D01*
X213574Y8578D01*
X213341Y8394D01*
X213088Y8209D01*
X212564Y7811D01*
X212020Y7403D01*
X212001Y7394D01*
X211952Y7355D01*
X211875Y7297D01*
X211768Y7219D01*
X211642Y7122D01*
X211486Y7005D01*
X211311Y6869D01*
X211117Y6724D01*
X210904Y6568D01*
X210680Y6394D01*
X210437Y6219D01*
X210185Y6025D01*
X209670Y5636D01*
X209136Y5228D01*
X209117Y5219D01*
X209068Y5180D01*
X208991Y5122D01*
X208884Y5044D01*
X208758Y4947D01*
X208602Y4830D01*
X208418Y4694D01*
X208224Y4549D01*
X208010Y4393D01*
X207787Y4219D01*
X207544Y4044D01*
X207291Y3859D01*
X206767Y3461D01*
X206223Y3063D01*
X206204Y3053D01*
X206165Y3015D01*
X206097Y2956D01*
X206019Y2888D01*
X206000Y2869D01*
X205961Y2850D01*
X205942Y2840D01*
X205913D01*
X205893Y2850D01*
X205883Y2869D01*
Y2879D01*
X205874Y2888D01*
Y2937D01*
Y2966D01*
X205883Y2995D01*
X205903Y3024D01*
X205942Y3053D01*
X205951D01*
X205961Y3063D01*
X206010Y3102D01*
X206078Y3150D01*
X206136Y3199D01*
X206146Y3209D01*
X206165Y3228D01*
X206204Y3267D01*
X206252Y3325D01*
X206311Y3384D01*
X206379Y3461D01*
X206466Y3549D01*
X206553Y3646D01*
X206757Y3859D01*
X206981Y4102D01*
X207223Y4355D01*
X207476Y4626D01*
X207486Y4636D01*
X207505Y4656D01*
X207544Y4694D01*
X207592Y4753D01*
X207651Y4811D01*
X207719Y4889D01*
X207796Y4976D01*
X207884Y5073D01*
X208078Y5287D01*
X208301Y5520D01*
X208544Y5782D01*
X208787Y6044D01*
X208796Y6054D01*
X208816Y6073D01*
X208855Y6112D01*
X208903Y6170D01*
X208962Y6229D01*
X209030Y6306D01*
X209107Y6394D01*
X209204Y6491D01*
X209399Y6704D01*
X209631Y6937D01*
X209864Y7200D01*
X210117Y7462D01*
X210127Y7471D01*
X210146Y7491D01*
X210185Y7530D01*
X210233Y7588D01*
X210292Y7646D01*
X210360Y7724D01*
X210437Y7811D01*
X210535Y7908D01*
X210729Y8122D01*
X210952Y8355D01*
X211195Y8617D01*
X211438Y8879D01*
X211447Y8889D01*
X211486Y8928D01*
X211535Y8976D01*
X211593Y9054D01*
X211671Y9132D01*
X211758Y9219D01*
X211952Y9423D01*
X211962Y9433D01*
X212001Y9472D01*
X212049Y9530D01*
X212117Y9598D01*
X212195Y9685D01*
X212273Y9792D01*
X212370Y9909D01*
X212457Y10025D01*
X212447D01*
X212418Y10035D01*
X212379Y10054D01*
X212321Y10074D01*
X212253Y10093D01*
X212166Y10122D01*
X212069Y10161D01*
X211962Y10190D01*
X211719Y10278D01*
X211457Y10365D01*
X211175Y10452D01*
X210884Y10549D01*
X210874D01*
X210845Y10559D01*
X210806Y10579D01*
X210748Y10598D01*
X210680Y10617D01*
X210602Y10647D01*
X210505Y10676D01*
X210399Y10715D01*
X210166Y10802D01*
X209894Y10889D01*
X209602Y10987D01*
X209301Y11093D01*
X209321Y11103D01*
X209369Y11152D01*
X209447Y11210D01*
X209554Y11297D01*
X209690Y11404D01*
X209845Y11530D01*
X210020Y11676D01*
X210224Y11841D01*
X210437Y12016D01*
X210661Y12200D01*
X210904Y12394D01*
X211156Y12598D01*
X211680Y13026D01*
X212224Y13463D01*
X212244Y13472D01*
X212292Y13511D01*
X212370Y13579D01*
X212476Y13666D01*
X212603Y13773D01*
X212758Y13900D01*
X212943Y14035D01*
X213137Y14200D01*
X213350Y14375D01*
X213574Y14560D01*
X213816Y14754D01*
X214059Y14958D01*
X214584Y15385D01*
X215127Y15822D01*
X215147Y15832D01*
X215195Y15880D01*
X215273Y15939D01*
X215380Y16026D01*
X215506Y16133D01*
X215661Y16259D01*
X215836Y16405D01*
X216030Y16560D01*
X216244Y16735D01*
X216467Y16919D01*
X216700Y17113D01*
X216953Y17317D01*
X217467Y17745D01*
X218002Y18182D01*
X218021Y18191D01*
X218070Y18230D01*
X218147Y18298D01*
X218254Y18385D01*
X218380Y18492D01*
X218536Y18619D01*
X218710Y18755D01*
X218905Y18920D01*
X219118Y19094D01*
X219341Y19279D01*
X219574Y19473D01*
X219827Y19677D01*
X220351Y20104D01*
X220895Y20541D01*
Y20531D01*
D02*
G37*
%LPC*%
G36*
X100593Y211773D02*
X99420Y209237D01*
X100452D01*
X100593Y211773D01*
D02*
G37*
G36*
X264804Y13967D02*
X264745D01*
X264707Y13958D01*
X264590Y13948D01*
X264454Y13929D01*
X264299Y13880D01*
X264153Y13822D01*
X263998Y13734D01*
X263872Y13618D01*
X263862Y13599D01*
X263823Y13550D01*
X263774Y13472D01*
X263716Y13356D01*
X263658Y13210D01*
X263609Y13035D01*
X263571Y12822D01*
X263561Y12579D01*
Y12569D01*
Y12550D01*
Y12511D01*
X263571Y12462D01*
Y12404D01*
X263580Y12346D01*
X263600Y12190D01*
X263638Y12016D01*
X263697Y11851D01*
X263765Y11676D01*
X263872Y11530D01*
X263891Y11511D01*
X263930Y11472D01*
X264007Y11423D01*
X264105Y11355D01*
X264241Y11287D01*
X264396Y11239D01*
X264590Y11200D01*
X264804Y11181D01*
X264862D01*
X264901Y11190D01*
X265017Y11200D01*
X265144Y11229D01*
X265299Y11268D01*
X265445Y11326D01*
X265590Y11414D01*
X265717Y11530D01*
X265726Y11550D01*
X265765Y11598D01*
X265814Y11676D01*
X265872Y11792D01*
X265920Y11948D01*
X265969Y12122D01*
X266008Y12336D01*
X266018Y12579D01*
Y12589D01*
Y12608D01*
Y12647D01*
Y12695D01*
X266008Y12754D01*
X265998Y12812D01*
X265979Y12967D01*
X265940Y13132D01*
X265891Y13307D01*
X265814Y13472D01*
X265717Y13618D01*
X265707Y13637D01*
X265658Y13676D01*
X265590Y13725D01*
X265493Y13793D01*
X265357Y13861D01*
X265202Y13909D01*
X265017Y13948D01*
X264804Y13967D01*
D02*
G37*
G36*
X267221Y6976D02*
X266629D01*
Y6287D01*
X267202D01*
X267260Y6296D01*
X267319Y6306D01*
X267328Y6316D01*
X267357Y6326D01*
X267435Y6384D01*
X267445Y6394D01*
X267464Y6423D01*
X267493Y6462D01*
X267503Y6500D01*
Y6510D01*
X267513Y6539D01*
X267523Y6588D01*
Y6646D01*
Y6666D01*
Y6695D01*
X267513Y6743D01*
X267493Y6792D01*
Y6802D01*
X267474Y6831D01*
X267455Y6869D01*
X267416Y6908D01*
X267406Y6918D01*
X267387Y6928D01*
X267348Y6937D01*
X267309Y6957D01*
X267299D01*
X267270Y6966D01*
X267221Y6976D01*
D02*
G37*
G36*
X252530Y6802D02*
X252200Y5821D01*
X252860D01*
X252530Y6802D01*
D02*
G37*
G36*
X247491D02*
X247170Y5821D01*
X247821D01*
X247491Y6802D01*
D02*
G37*
G36*
X238897Y6976D02*
X238295D01*
Y6287D01*
X238888D01*
X238936Y6296D01*
X238995Y6306D01*
X239004Y6316D01*
X239043Y6326D01*
X239072Y6355D01*
X239111Y6384D01*
X239121Y6394D01*
X239140Y6423D01*
X239160Y6462D01*
X239179Y6500D01*
X239189Y6510D01*
X239198Y6539D01*
X239208Y6588D01*
Y6646D01*
Y6666D01*
Y6695D01*
X239198Y6743D01*
X239179Y6792D01*
Y6802D01*
X239160Y6831D01*
X239130Y6869D01*
X239092Y6908D01*
X239082Y6918D01*
X239062Y6928D01*
X239033Y6937D01*
X238985Y6957D01*
X238975D01*
X238946Y6966D01*
X238897Y6976D01*
D02*
G37*
G36*
X236577Y6957D02*
X236567D01*
X236548Y6947D01*
X236509Y6937D01*
X236470Y6928D01*
X236441D01*
X236373Y6908D01*
X236363Y6899D01*
X236344Y6889D01*
X236285Y6840D01*
X236266Y6831D01*
X236237Y6782D01*
X236227Y6772D01*
X236217Y6763D01*
X236188Y6734D01*
X236169Y6695D01*
Y6685D01*
X236159Y6666D01*
X236130Y6598D01*
Y6588D01*
Y6559D01*
Y6500D01*
X236120Y6423D01*
Y6413D01*
Y6403D01*
Y6345D01*
X236111Y6258D01*
Y6151D01*
Y6141D01*
Y6122D01*
Y6093D01*
Y6054D01*
Y5957D01*
X236120Y5860D01*
Y5840D01*
X236130Y5801D01*
Y5733D01*
Y5675D01*
Y5665D01*
X236140Y5646D01*
X236159Y5607D01*
X236169Y5568D01*
X236179Y5559D01*
X236188Y5539D01*
X236237Y5491D01*
Y5481D01*
X236247Y5471D01*
X236285Y5423D01*
X236295D01*
X236315Y5413D01*
X236373Y5384D01*
X236383D01*
X236402Y5364D01*
X236431Y5355D01*
X236470Y5345D01*
X236509D01*
X236577Y5335D01*
X236664D01*
X236703Y5345D01*
X236713D01*
X236732Y5355D01*
X236790Y5384D01*
X236800D01*
X236820Y5393D01*
X236868Y5423D01*
X236878Y5432D01*
X236888Y5442D01*
X236926Y5491D01*
X236936Y5500D01*
X236946Y5510D01*
X236985Y5568D01*
X236994Y5578D01*
X237004Y5607D01*
X237033Y5675D01*
Y5685D01*
Y5724D01*
Y5782D01*
X237043Y5860D01*
Y5869D01*
Y5879D01*
X237052Y5937D01*
Y6034D01*
Y6151D01*
Y6161D01*
Y6180D01*
Y6209D01*
Y6248D01*
Y6335D01*
X237043Y6423D01*
Y6432D01*
Y6442D01*
Y6491D01*
X237033Y6549D01*
Y6598D01*
Y6607D01*
X237023Y6627D01*
X236985Y6695D01*
Y6704D01*
X236975Y6724D01*
X236955Y6753D01*
X236926Y6782D01*
Y6792D01*
X236917Y6802D01*
X236868Y6840D01*
X236858Y6850D01*
X236849Y6860D01*
X236790Y6908D01*
X236781D01*
X236761Y6918D01*
X236703Y6928D01*
X236693D01*
X236674Y6937D01*
X236625Y6947D01*
X236577Y6957D01*
D02*
G37*
%LPD*%
D10*
X209154Y63386D02*
G03*
X209154Y63386I-492J0D01*
G01*
X268209D02*
G03*
X268209Y63386I-492J0D01*
G01*
X150098D02*
G03*
X150098Y63386I-492J0D01*
G01*
X91043D02*
G03*
X91043Y63386I-492J0D01*
G01*
X226476Y77165D02*
G03*
X226476Y77165I-492J0D01*
G01*
X167421D02*
G03*
X167421Y77165I-492J0D01*
G01*
X108366D02*
G03*
X108366Y77165I-492J0D01*
G01*
X49311D02*
G03*
X49311Y77165I-492J0D01*
G01*
X43307Y7611D02*
Y11022D01*
X45013Y12728D01*
X46718Y11022D01*
Y7611D01*
Y10169D01*
X43307D01*
X48423Y7611D02*
Y11022D01*
X50982D01*
X51834Y10169D01*
Y7611D01*
X56951Y12728D02*
Y7611D01*
X54393D01*
X53540Y8464D01*
Y10169D01*
X54393Y11022D01*
X56951D01*
X58656D02*
Y7611D01*
Y9317D01*
X59509Y10169D01*
X60362Y11022D01*
X61215D01*
X66331Y7611D02*
X64626D01*
X63773Y8464D01*
Y10169D01*
X64626Y11022D01*
X66331D01*
X67184Y10169D01*
Y9317D01*
X63773D01*
X68889Y7611D02*
X70595D01*
X69742D01*
Y11022D01*
X68889D01*
X78269Y12728D02*
Y7611D01*
X80828D01*
X81681Y8464D01*
Y11875D01*
X80828Y12728D01*
X78269D01*
X83386Y7611D02*
X85092D01*
X84239D01*
Y11022D01*
X83386D01*
X87650D02*
X89355Y7611D01*
X91061Y11022D01*
X92766Y7611D02*
X94472D01*
X93619D01*
Y11022D01*
X92766D01*
X97030Y7611D02*
Y11022D01*
X99588D01*
X100441Y10169D01*
Y7611D01*
X102999Y11022D02*
X104705D01*
X105557Y10169D01*
Y7611D01*
X102999D01*
X102146Y8464D01*
X102999Y9317D01*
X105557D01*
X108968Y5906D02*
X109821D01*
X110674Y6758D01*
Y11022D01*
X108115D01*
X107263Y10169D01*
Y8464D01*
X108115Y7611D01*
X110674D01*
X112379Y11022D02*
Y7611D01*
Y9317D01*
X113232Y10169D01*
X114085Y11022D01*
X114937D01*
X118349D02*
X120054D01*
X120907Y10169D01*
Y7611D01*
X118349D01*
X117496Y8464D01*
X118349Y9317D01*
X120907D01*
X126023Y11022D02*
X123465D01*
X122612Y10169D01*
Y8464D01*
X123465Y7611D01*
X126023D01*
X127729D02*
X129434D01*
X128581D01*
Y11022D01*
X127729D01*
X132845D02*
X134551D01*
X135403Y10169D01*
Y7611D01*
X132845D01*
X131992Y8464D01*
X132845Y9317D01*
X135403D01*
D11*
X25052Y107471D02*
G03*
X25052Y107471I-394J0D01*
G01*
X279134Y208661D02*
G03*
X279134Y208661I-394J0D01*
G01*
X40551Y204724D02*
G03*
X40551Y204724I-394J0D01*
G01*
X245669Y37402D02*
G03*
X245669Y37402I-394J0D01*
G01*
X186614D02*
G03*
X186614Y37402I-394J0D01*
G01*
X127559D02*
G03*
X127559Y37402I-394J0D01*
G01*
X68504D02*
G03*
X68504Y37402I-394J0D01*
G01*
X198819Y57874D02*
Y60236D01*
X207480Y57874D02*
Y60236D01*
X198819Y57874D02*
X207480D01*
X198819Y60236D02*
X207480D01*
X254134Y200000D02*
X257677D01*
X254134Y189764D02*
X257677D01*
X195079Y200000D02*
X198622D01*
X195079Y189764D02*
X198622D01*
X136024Y200000D02*
X139567D01*
X136024Y189764D02*
X139567D01*
X76968Y200000D02*
X80512D01*
X76968Y189764D02*
X80512D01*
X257874Y60236D02*
X266535D01*
X257874Y57874D02*
X266535D01*
Y60236D01*
X257874Y57874D02*
Y60236D01*
X139764D02*
X148425D01*
X139764Y57874D02*
X148425D01*
Y60236D01*
X139764Y57874D02*
Y60236D01*
X80709D02*
X89370D01*
X80709Y57874D02*
X89370D01*
Y60236D01*
X80709Y57874D02*
Y60236D01*
X247047Y62992D02*
Y65158D01*
X228543Y62992D02*
Y65158D01*
X247047Y76575D02*
Y78740D01*
X228543Y76575D02*
Y78740D01*
Y62992D02*
X247047D01*
X228543Y78740D02*
X247047D01*
X187992Y62992D02*
Y65158D01*
X169488Y62992D02*
Y65158D01*
X187992Y76575D02*
Y78740D01*
X169488Y76575D02*
Y78740D01*
Y62992D02*
X187992D01*
X169488Y78740D02*
X187992D01*
X128937Y62992D02*
Y65158D01*
X110433Y62992D02*
Y65158D01*
X128937Y76575D02*
Y78740D01*
X110433Y76575D02*
Y78740D01*
Y62992D02*
X128937D01*
X110433Y78740D02*
X128937D01*
X69882Y62992D02*
Y65158D01*
X51378Y62992D02*
Y65158D01*
X69882Y76575D02*
Y78740D01*
X51378Y76575D02*
Y78740D01*
Y62992D02*
X69882D01*
X51378Y78740D02*
X69882D01*
X143175Y211055D02*
X142618Y211613D01*
X141502D01*
X140945Y211055D01*
Y210498D01*
X141502Y209940D01*
X142618D01*
X143175Y209383D01*
Y208825D01*
X142618Y208268D01*
X141502D01*
X140945Y208825D01*
X144290Y211613D02*
Y208268D01*
Y209940D01*
X144848Y210498D01*
X145963D01*
X146520Y209940D01*
Y208268D01*
X147636Y210498D02*
Y208825D01*
X148193Y208268D01*
X149866D01*
Y210498D01*
X151539Y211055D02*
Y210498D01*
X150981D01*
X152096D01*
X151539D01*
Y208825D01*
X152096Y208268D01*
X155999Y211613D02*
Y208268D01*
X154326D01*
X153769Y208825D01*
Y209940D01*
X154326Y210498D01*
X155999D01*
X157672Y208268D02*
X158787D01*
X159344Y208825D01*
Y209940D01*
X158787Y210498D01*
X157672D01*
X157114Y209940D01*
Y208825D01*
X157672Y208268D01*
X160460Y210498D02*
Y208825D01*
X161017Y208268D01*
X161575Y208825D01*
X162132Y208268D01*
X162690Y208825D01*
Y210498D01*
X163805Y208268D02*
Y210498D01*
X165478D01*
X166035Y209940D01*
Y208268D01*
X172726Y211055D02*
X172168Y211613D01*
X171053D01*
X170496Y211055D01*
Y208825D01*
X171053Y208268D01*
X172168D01*
X172726Y208825D01*
X173841Y208268D02*
X174956D01*
X174399D01*
Y210498D01*
X173841D01*
X176629D02*
Y208268D01*
Y209383D01*
X177187Y209940D01*
X177744Y210498D01*
X178302D01*
X182205D02*
X180532D01*
X179974Y209940D01*
Y208825D01*
X180532Y208268D01*
X182205D01*
X183320Y210498D02*
Y208825D01*
X183877Y208268D01*
X185550D01*
Y210498D01*
X186665Y208268D02*
X187780D01*
X187223D01*
Y210498D01*
X186665D01*
X190010Y211055D02*
Y210498D01*
X189453D01*
X190568D01*
X190010D01*
Y208825D01*
X190568Y208268D01*
X195586D02*
Y211613D01*
X197259D01*
X197816Y211055D01*
Y209940D01*
X197259Y209383D01*
X195586D01*
X196701D02*
X197816Y208268D01*
X201162Y211613D02*
X198932D01*
Y208268D01*
X201162D01*
X198932Y209940D02*
X200047D01*
X202277Y211613D02*
Y209383D01*
X203392Y208268D01*
X204507Y209383D01*
Y211613D01*
X208968Y211055D02*
X209525Y211613D01*
X210640D01*
X211198Y211055D01*
Y210498D01*
X210640Y209940D01*
X210083D01*
X210640D01*
X211198Y209383D01*
Y208825D01*
X210640Y208268D01*
X209525D01*
X208968Y208825D01*
X212313Y208268D02*
Y208825D01*
X212871D01*
Y208268D01*
X212313D01*
X215101Y211055D02*
X215658Y211613D01*
X216774D01*
X217331Y211055D01*
Y208825D01*
X216774Y208268D01*
X215658D01*
X215101Y208825D01*
Y211055D01*
X8794Y87031D02*
X8269Y86506D01*
Y85457D01*
X8794Y84932D01*
X9318D01*
X9843Y85457D01*
Y86506D01*
X10368Y87031D01*
X10892D01*
X11417Y86506D01*
Y85457D01*
X10892Y84932D01*
X8269Y90180D02*
Y88081D01*
X11417D01*
Y90180D01*
X9843Y88081D02*
Y89130D01*
X8269Y91229D02*
Y93328D01*
Y92279D01*
X11417D01*
Y94378D02*
X9318Y96477D01*
X11417Y97526D02*
X8269D01*
Y99101D01*
X8794Y99625D01*
X9843D01*
X10368Y99101D01*
Y97526D01*
Y98576D02*
X11417Y99625D01*
X8269Y102774D02*
Y100675D01*
X11417D01*
Y102774D01*
X9843Y100675D02*
Y101724D01*
X8794Y105922D02*
X8269Y105398D01*
Y104348D01*
X8794Y103823D01*
X9318D01*
X9843Y104348D01*
Y105398D01*
X10368Y105922D01*
X10892D01*
X11417Y105398D01*
Y104348D01*
X10892Y103823D01*
X8269Y109071D02*
Y106972D01*
X11417D01*
Y109071D01*
X9843Y106972D02*
Y108022D01*
X8269Y110121D02*
Y112220D01*
Y111170D01*
X11417D01*
X313779Y174803D02*
X309844D01*
X311156Y176115D01*
X309844Y177427D01*
X313779D01*
Y180707D02*
X309844D01*
X311812Y178739D01*
Y181363D01*
X212600Y51575D02*
X215880D01*
X216535Y52231D01*
Y53543D01*
X215880Y54199D01*
X212600D01*
X216535Y55510D02*
Y56823D01*
Y56166D01*
X212600D01*
X213256Y55510D01*
X217191Y58790D02*
Y61414D01*
X212600Y62726D02*
X216535D01*
Y65350D01*
X213256Y66662D02*
X212600Y67318D01*
Y68630D01*
X213256Y69286D01*
X213912D01*
X214568Y68630D01*
Y67974D01*
Y68630D01*
X215224Y69286D01*
X215880D01*
X216535Y68630D01*
Y67318D01*
X215880Y66662D01*
X313779Y31496D02*
X309844D01*
X311156Y32808D01*
X309844Y34120D01*
X313779D01*
Y38056D02*
Y35432D01*
X311156Y38056D01*
X310500D01*
X309844Y37400D01*
Y36088D01*
X310500Y35432D01*
X22833Y123109D02*
Y127044D01*
X24801D01*
X25457Y126388D01*
Y125076D01*
X24801Y124421D01*
X22833D01*
X24145D02*
X25457Y123109D01*
X26769D02*
X28081D01*
X27425D01*
Y127044D01*
X26769Y126388D01*
X30049D02*
X30705Y127044D01*
X32017D01*
X32672Y126388D01*
Y125733D01*
X32017Y125076D01*
X32672Y124421D01*
Y123765D01*
X32017Y123109D01*
X30705D01*
X30049Y123765D01*
Y124421D01*
X30705Y125076D01*
X30049Y125733D01*
Y126388D01*
X30705Y125076D02*
X32017D01*
X6911Y123103D02*
Y127039D01*
X8879D01*
X9535Y126383D01*
Y125071D01*
X8879Y124415D01*
X6911D01*
X8223D02*
X9535Y123103D01*
X10847D02*
X12159D01*
X11503D01*
Y127039D01*
X10847Y126383D01*
X14127Y127039D02*
X16750D01*
Y126383D01*
X14127Y123759D01*
Y123103D01*
X271655Y51575D02*
X274935D01*
X275590Y52231D01*
Y53543D01*
X274935Y54199D01*
X271655D01*
X275590Y55510D02*
Y56823D01*
Y56166D01*
X271655D01*
X272311Y55510D01*
X276247Y58790D02*
Y61414D01*
X271655Y62726D02*
X275590D01*
Y65350D01*
Y68630D02*
X271655D01*
X273623Y66662D01*
Y69286D01*
X153545Y51181D02*
X156824D01*
X157480Y51837D01*
Y53149D01*
X156824Y53805D01*
X153545D01*
X157480Y55117D02*
Y56429D01*
Y55773D01*
X153545D01*
X154200Y55117D01*
X158136Y58397D02*
Y61020D01*
X153545Y62332D02*
X157480D01*
Y64956D01*
Y68892D02*
Y66268D01*
X154857Y68892D01*
X154200D01*
X153545Y68236D01*
Y66924D01*
X154200Y66268D01*
X94489Y51181D02*
X97769D01*
X98425Y51837D01*
Y53149D01*
X97769Y53805D01*
X94489D01*
X98425Y55117D02*
Y56429D01*
Y55773D01*
X94489D01*
X95145Y55117D01*
X99081Y58397D02*
Y61020D01*
X94489Y62332D02*
X98425D01*
Y64956D01*
Y66268D02*
Y67580D01*
Y66924D01*
X94489D01*
X95145Y66268D01*
X247244Y43307D02*
Y47243D01*
X249212D01*
X249868Y46587D01*
Y45275D01*
X249212Y44619D01*
X247244D01*
X248556D02*
X249868Y43307D01*
X251180D02*
X252492D01*
X251836D01*
Y47243D01*
X251180Y46587D01*
X257083Y47243D02*
X255771Y46587D01*
X254460Y45275D01*
Y43963D01*
X255116Y43307D01*
X256428D01*
X257083Y43963D01*
Y44619D01*
X256428Y45275D01*
X254460D01*
X188583Y43307D02*
Y47243D01*
X190550D01*
X191207Y46587D01*
Y45275D01*
X190550Y44619D01*
X188583D01*
X189895D02*
X191207Y43307D01*
X192518D02*
X193830D01*
X193174D01*
Y47243D01*
X192518Y46587D01*
X198422Y47243D02*
X195798D01*
Y45275D01*
X197110Y45931D01*
X197766D01*
X198422Y45275D01*
Y43963D01*
X197766Y43307D01*
X196454D01*
X195798Y43963D01*
X129527Y43701D02*
Y47637D01*
X131495D01*
X132151Y46981D01*
Y45669D01*
X131495Y45013D01*
X129527D01*
X130839D02*
X132151Y43701D01*
X133463D02*
X134775D01*
X134119D01*
Y47637D01*
X133463Y46981D01*
X138711Y43701D02*
Y47637D01*
X136743Y45669D01*
X139367D01*
X70079Y43701D02*
Y47637D01*
X72047D01*
X72702Y46981D01*
Y45669D01*
X72047Y45013D01*
X70079D01*
X71391D02*
X72702Y43701D01*
X74014D02*
X75326D01*
X74670D01*
Y47637D01*
X74014Y46981D01*
X77294D02*
X77950Y47637D01*
X79262D01*
X79918Y46981D01*
Y46325D01*
X79262Y45669D01*
X78606D01*
X79262D01*
X79918Y45013D01*
Y44357D01*
X79262Y43701D01*
X77950D01*
X77294Y44357D01*
X28806Y86221D02*
Y90156D01*
X30774D01*
X31430Y89500D01*
Y88188D01*
X30774Y87532D01*
X28806D01*
X30118D02*
X31430Y86221D01*
X32742D02*
X34054D01*
X33398D01*
Y90156D01*
X32742Y89500D01*
X38645Y86221D02*
X36021D01*
X38645Y88844D01*
Y89500D01*
X37989Y90156D01*
X36677D01*
X36021Y89500D01*
X28877Y94685D02*
Y98621D01*
X30845D01*
X31501Y97965D01*
Y96653D01*
X30845Y95997D01*
X28877D01*
X30189D02*
X31501Y94685D01*
X32813D02*
X34125D01*
X33469D01*
Y98621D01*
X32813Y97965D01*
X36093Y94685D02*
X37405D01*
X36749D01*
Y98621D01*
X36093Y97965D01*
X219291Y34646D02*
X215356D01*
Y36614D01*
X216012Y37269D01*
X217323D01*
X217979Y36614D01*
Y34646D01*
Y35958D02*
X219291Y37269D01*
Y38581D02*
Y39893D01*
Y39237D01*
X215356D01*
X216012Y38581D01*
Y41861D02*
X215356Y42517D01*
Y43829D01*
X216012Y44485D01*
X218635D01*
X219291Y43829D01*
Y42517D01*
X218635Y41861D01*
X216012D01*
X160236Y34646D02*
X156300D01*
Y36614D01*
X156956Y37269D01*
X158268D01*
X158924Y36614D01*
Y34646D01*
Y35958D02*
X160236Y37269D01*
X159580Y38581D02*
X160236Y39237D01*
Y40549D01*
X159580Y41205D01*
X156956D01*
X156300Y40549D01*
Y39237D01*
X156956Y38581D01*
X157612D01*
X158268Y39237D01*
Y41205D01*
X101181Y34252D02*
X97245D01*
Y36220D01*
X97901Y36876D01*
X99213D01*
X99869Y36220D01*
Y34252D01*
Y35564D02*
X101181Y36876D01*
X97901Y38188D02*
X97245Y38844D01*
Y40156D01*
X97901Y40811D01*
X98557D01*
X99213Y40156D01*
X99869Y40811D01*
X100525D01*
X101181Y40156D01*
Y38844D01*
X100525Y38188D01*
X99869D01*
X99213Y38844D01*
X98557Y38188D01*
X97901D01*
X99213Y38844D02*
Y40156D01*
X42520Y34646D02*
X38584D01*
Y36614D01*
X39240Y37269D01*
X40552D01*
X41208Y36614D01*
Y34646D01*
Y35958D02*
X42520Y37269D01*
X38584Y38581D02*
Y41205D01*
X39240D01*
X41864Y38581D01*
X42520D01*
X255512Y211614D02*
Y215550D01*
X257480D01*
X258136Y214894D01*
Y213582D01*
X257480Y212926D01*
X255512D01*
X256824D02*
X258136Y211614D01*
X262071Y215550D02*
X260759Y214894D01*
X259448Y213582D01*
Y212270D01*
X260104Y211614D01*
X261415D01*
X262071Y212270D01*
Y212926D01*
X261415Y213582D01*
X259448D01*
X55118Y211614D02*
Y215550D01*
X57086D01*
X57742Y214894D01*
Y213582D01*
X57086Y212926D01*
X55118D01*
X56430D02*
X57742Y211614D01*
X61678Y215550D02*
X59054D01*
Y213582D01*
X60366Y214238D01*
X61022D01*
X61678Y213582D01*
Y212270D01*
X61022Y211614D01*
X59710D01*
X59054Y212270D01*
X267520Y195866D02*
Y199802D01*
X269488D01*
X270144Y199146D01*
Y197834D01*
X269488Y197178D01*
X267520D01*
X268832D02*
X270144Y195866D01*
X273423D02*
Y199802D01*
X271455Y197834D01*
X274079D01*
X208465Y195866D02*
Y199802D01*
X210433D01*
X211088Y199146D01*
Y197834D01*
X210433Y197178D01*
X208465D01*
X209776D02*
X211088Y195866D01*
X212400Y199146D02*
X213056Y199802D01*
X214368D01*
X215024Y199146D01*
Y198490D01*
X214368Y197834D01*
X213712D01*
X214368D01*
X215024Y197178D01*
Y196522D01*
X214368Y195866D01*
X213056D01*
X212400Y196522D01*
X149409Y195472D02*
Y199408D01*
X151377D01*
X152033Y198752D01*
Y197440D01*
X151377Y196784D01*
X149409D01*
X150721D02*
X152033Y195472D01*
X155969D02*
X153345D01*
X155969Y198096D01*
Y198752D01*
X155313Y199408D01*
X154001D01*
X153345Y198752D01*
X90354Y195866D02*
Y199802D01*
X92322D01*
X92978Y199146D01*
Y197834D01*
X92322Y197178D01*
X90354D01*
X91666D02*
X92978Y195866D01*
X94290D02*
X95602D01*
X94946D01*
Y199802D01*
X94290Y199146D01*
X5118Y169685D02*
X1182D01*
X2494Y170997D01*
X1182Y172309D01*
X5118D01*
X1838Y173621D02*
X1182Y174277D01*
Y175589D01*
X1838Y176245D01*
X2494D01*
X3150Y175589D01*
Y174933D01*
Y175589D01*
X3806Y176245D01*
X4462D01*
X5118Y175589D01*
Y174277D01*
X4462Y173621D01*
X5315Y37008D02*
X1379D01*
X2691Y38320D01*
X1379Y39632D01*
X5315D01*
Y40944D02*
Y42255D01*
Y41600D01*
X1379D01*
X2035Y40944D01*
X218790Y190131D02*
Y186195D01*
Y187507D01*
X221414Y190131D01*
X219446Y188163D01*
X221414Y186195D01*
X222726D02*
X224037D01*
X223381D01*
Y190131D01*
X222726Y189475D01*
X226005Y185539D02*
X228629D01*
X229941Y190131D02*
Y186195D01*
X232565D01*
X235845D02*
Y190131D01*
X233877Y188163D01*
X236501D01*
X159690Y190131D02*
Y186195D01*
Y187507D01*
X162314Y190131D01*
X160346Y188163D01*
X162314Y186195D01*
X163626D02*
X164937D01*
X164281D01*
Y190131D01*
X163626Y189475D01*
X166905Y185539D02*
X169529D01*
X170841Y190131D02*
Y186195D01*
X173465D01*
X174777Y189475D02*
X175433Y190131D01*
X176745D01*
X177401Y189475D01*
Y188819D01*
X176745Y188163D01*
X176089D01*
X176745D01*
X177401Y187507D01*
Y186851D01*
X176745Y186195D01*
X175433D01*
X174777Y186851D01*
X100690Y190131D02*
Y186195D01*
Y187507D01*
X103314Y190131D01*
X101346Y188163D01*
X103314Y186195D01*
X104625D02*
X105937D01*
X105281D01*
Y190131D01*
X104625Y189475D01*
X107905Y185539D02*
X110529D01*
X111841Y190131D02*
Y186195D01*
X114465D01*
X118401D02*
X115777D01*
X118401Y188819D01*
Y189475D01*
X117745Y190131D01*
X116433D01*
X115777Y189475D01*
X41590Y190131D02*
Y186195D01*
Y187507D01*
X44214Y190131D01*
X42246Y188163D01*
X44214Y186195D01*
X45526D02*
X46837D01*
X46181D01*
Y190131D01*
X45526Y189475D01*
X48805Y185539D02*
X51429D01*
X52741Y190131D02*
Y186195D01*
X55365D01*
X56677D02*
X57989D01*
X57333D01*
Y190131D01*
X56677Y189475D01*
X222441Y58266D02*
Y54331D01*
X224409D01*
X225065Y54987D01*
Y57610D01*
X224409Y58266D01*
X222441D01*
X226377Y57610D02*
X227033Y58266D01*
X228344D01*
X229000Y57610D01*
Y56954D01*
X228344Y56299D01*
X229000Y55643D01*
Y54987D01*
X228344Y54331D01*
X227033D01*
X226377Y54987D01*
Y55643D01*
X227033Y56299D01*
X226377Y56954D01*
Y57610D01*
X227033Y56299D02*
X228344D01*
X230312Y53675D02*
X232936D01*
X234248Y58266D02*
Y54331D01*
X236872D01*
X240152D02*
Y58266D01*
X238184Y56299D01*
X240808D01*
X163386Y58266D02*
Y54331D01*
X165354D01*
X166010Y54987D01*
Y57610D01*
X165354Y58266D01*
X163386D01*
X167322Y57610D02*
X167977Y58266D01*
X169289D01*
X169945Y57610D01*
Y56954D01*
X169289Y56299D01*
X169945Y55643D01*
Y54987D01*
X169289Y54331D01*
X167977D01*
X167322Y54987D01*
Y55643D01*
X167977Y56299D01*
X167322Y56954D01*
Y57610D01*
X167977Y56299D02*
X169289D01*
X171257Y53675D02*
X173881D01*
X175193Y58266D02*
Y54331D01*
X177817D01*
X179129Y57610D02*
X179785Y58266D01*
X181097D01*
X181753Y57610D01*
Y56954D01*
X181097Y56299D01*
X180441D01*
X181097D01*
X181753Y55643D01*
Y54987D01*
X181097Y54331D01*
X179785D01*
X179129Y54987D01*
X104331Y58266D02*
Y54331D01*
X106299D01*
X106955Y54987D01*
Y57610D01*
X106299Y58266D01*
X104331D01*
X108266Y57610D02*
X108922Y58266D01*
X110234D01*
X110890Y57610D01*
Y56954D01*
X110234Y56299D01*
X110890Y55643D01*
Y54987D01*
X110234Y54331D01*
X108922D01*
X108266Y54987D01*
Y55643D01*
X108922Y56299D01*
X108266Y56954D01*
Y57610D01*
X108922Y56299D02*
X110234D01*
X112202Y53675D02*
X114826D01*
X116138Y58266D02*
Y54331D01*
X118762D01*
X122697D02*
X120074D01*
X122697Y56954D01*
Y57610D01*
X122041Y58266D01*
X120730D01*
X120074Y57610D01*
X45276Y58266D02*
Y54331D01*
X47243D01*
X47899Y54987D01*
Y57610D01*
X47243Y58266D01*
X45276D01*
X49211Y57610D02*
X49867Y58266D01*
X51179D01*
X51835Y57610D01*
Y56954D01*
X51179Y56299D01*
X51835Y55643D01*
Y54987D01*
X51179Y54331D01*
X49867D01*
X49211Y54987D01*
Y55643D01*
X49867Y56299D01*
X49211Y56954D01*
Y57610D01*
X49867Y56299D02*
X51179D01*
X53147Y53675D02*
X55771D01*
X57083Y58266D02*
Y54331D01*
X59707D01*
X61019D02*
X62331D01*
X61674D01*
Y58266D01*
X61019Y57610D01*
X28806Y107479D02*
Y103543D01*
X30774D01*
X31430Y104199D01*
Y106823D01*
X30774Y107479D01*
X28806D01*
X32742D02*
X35366D01*
Y106823D01*
X32742Y104199D01*
Y103543D01*
X249213Y37794D02*
Y33858D01*
X251181D01*
X251836Y34514D01*
Y37138D01*
X251181Y37794D01*
X249213D01*
X255772D02*
X254460Y37138D01*
X253148Y35826D01*
Y34514D01*
X253804Y33858D01*
X255116D01*
X255772Y34514D01*
Y35170D01*
X255116Y35826D01*
X253148D01*
X190354Y37597D02*
Y33661D01*
X192322D01*
X192978Y34317D01*
Y36941D01*
X192322Y37597D01*
X190354D01*
X196914D02*
X194290D01*
Y35629D01*
X195602Y36285D01*
X196258D01*
X196914Y35629D01*
Y34317D01*
X196258Y33661D01*
X194946D01*
X194290Y34317D01*
X131496Y37794D02*
Y33858D01*
X133464D01*
X134120Y34514D01*
Y37138D01*
X133464Y37794D01*
X131496D01*
X137400Y33858D02*
Y37794D01*
X135432Y35826D01*
X138056D01*
X72047Y37794D02*
Y33858D01*
X74015D01*
X74671Y34514D01*
Y37138D01*
X74015Y37794D01*
X72047D01*
X75983Y37138D02*
X76639Y37794D01*
X77951D01*
X78607Y37138D01*
Y36482D01*
X77951Y35826D01*
X77295D01*
X77951D01*
X78607Y35170D01*
Y34514D01*
X77951Y33858D01*
X76639D01*
X75983Y34514D01*
X268701Y215550D02*
Y211614D01*
X270669D01*
X271325Y212270D01*
Y214894D01*
X270669Y215550D01*
X268701D01*
X275260Y211614D02*
X272637D01*
X275260Y214238D01*
Y214894D01*
X274604Y215550D01*
X273292D01*
X272637Y214894D01*
X38386Y215550D02*
Y211614D01*
X40354D01*
X41010Y212270D01*
Y214894D01*
X40354Y215550D01*
X38386D01*
X42322Y211614D02*
X43633D01*
X42977D01*
Y215550D01*
X42322Y214894D01*
D12*
X308071Y103347D02*
Y182087D01*
X280512D02*
X308071D01*
X280512Y103347D02*
Y182087D01*
Y103347D02*
X308071D01*
X210650Y51055D02*
Y67055D01*
X196150Y51055D02*
X210650D01*
X196150D02*
Y67055D01*
X210650D01*
X281142Y31102D02*
X307913D01*
Y100394D01*
X281142D02*
X307913D01*
X281142Y31102D02*
Y100394D01*
X218504Y85039D02*
X273622D01*
X218504D02*
Y184252D01*
X273622D01*
Y85039D02*
Y184252D01*
X159449Y85039D02*
X214567D01*
X159449D02*
Y184252D01*
X214567D01*
Y85039D02*
Y184252D01*
X100394Y85039D02*
X155512D01*
X100394D02*
Y184252D01*
X155512D01*
Y85039D02*
Y184252D01*
X41339Y85039D02*
X96457D01*
X41339D02*
Y184252D01*
X96457D01*
Y85039D02*
Y184252D01*
X33465Y36417D02*
Y81693D01*
X6890Y36417D02*
X33465D01*
X6890D02*
Y81693D01*
X33465D01*
Y130905D02*
Y176181D01*
X6890Y130905D02*
X33465D01*
X6890D02*
Y176181D01*
X33465D01*
X255205Y67055D02*
X269705D01*
X255205Y51055D02*
Y67055D01*
Y51055D02*
X269705D01*
Y67055D01*
X137094D02*
X151594D01*
X137094Y51055D02*
Y67055D01*
Y51055D02*
X151594D01*
Y67055D01*
X78039D02*
X92539D01*
X78039Y51055D02*
Y67055D01*
Y51055D02*
X92539D01*
Y67055D01*
X222441Y79291D02*
Y80709D01*
Y60866D02*
Y79291D01*
Y60866D02*
Y80866D01*
Y60866D02*
X224016D01*
X222441D02*
Y80866D01*
X224016D01*
Y60866D02*
Y80866D01*
Y60866D02*
X251295D01*
Y80866D01*
X224016D02*
X251295D01*
X163386Y79291D02*
Y80709D01*
Y60866D02*
Y79291D01*
Y60866D02*
Y80866D01*
Y60866D02*
X164961D01*
X163386D02*
Y80866D01*
X164961D01*
Y60866D02*
Y80866D01*
Y60866D02*
X192240D01*
Y80866D01*
X164961D02*
X192240D01*
X104331Y79291D02*
Y80709D01*
Y60866D02*
Y79291D01*
Y60866D02*
Y80866D01*
Y60866D02*
X105905D01*
X104331D02*
Y80866D01*
X105905D01*
Y60866D02*
Y80866D01*
Y60866D02*
X133185D01*
Y80866D01*
X105905D02*
X133185D01*
X45276Y79291D02*
Y80709D01*
Y60866D02*
Y79291D01*
Y60866D02*
Y80866D01*
Y60866D02*
X46850D01*
X45276D02*
Y80866D01*
X46850D01*
Y60866D02*
Y80866D01*
Y60866D02*
X74130D01*
Y80866D01*
X46850D02*
X74130D01*
X237204Y212597D02*
X235236D01*
X234252Y211613D01*
Y207677D01*
X235236Y206693D01*
X237204D01*
X238188Y207677D01*
Y211613D01*
X237204Y212597D01*
X240156D02*
Y207677D01*
X241140Y206693D01*
X243107D01*
X244091Y207677D01*
Y212597D01*
X246059D02*
X249995D01*
X248027D01*
Y206693D01*
X70472Y212597D02*
X72440D01*
X71456D01*
Y206693D01*
X70472D01*
X72440D01*
X75392D02*
Y212597D01*
X79328Y206693D01*
Y212597D01*
X224410Y29526D02*
Y25590D01*
X226377Y23622D01*
X228345Y25590D01*
Y29526D01*
X234249Y28542D02*
X233265Y29526D01*
X231297D01*
X230313Y28542D01*
Y24606D01*
X231297Y23622D01*
X233265D01*
X234249Y24606D01*
X236217Y29526D02*
Y24606D01*
X237201Y23622D01*
X239168D01*
X240152Y24606D01*
Y29526D01*
X251960D02*
X248024D01*
Y26574D01*
X249992D01*
X248024D01*
Y23622D01*
X253927Y29526D02*
Y23622D01*
X257863D01*
X259831Y29526D02*
X263767D01*
X261799D01*
Y23622D01*
X165354Y29526D02*
Y23622D01*
X168306D01*
X169290Y24606D01*
Y25590D01*
X168306Y26574D01*
X165354D01*
X168306D01*
X169290Y27558D01*
Y28542D01*
X168306Y29526D01*
X165354D01*
X171258Y23622D02*
Y29526D01*
X173226Y27558D01*
X175194Y29526D01*
Y23622D01*
X181097Y28542D02*
X180113Y29526D01*
X178146D01*
X177162Y28542D01*
Y27558D01*
X178146Y26574D01*
X180113D01*
X181097Y25590D01*
Y24606D01*
X180113Y23622D01*
X178146D01*
X177162Y24606D01*
X192904Y29526D02*
X188969D01*
Y26574D01*
X190937D01*
X188969D01*
Y23622D01*
X194872Y29526D02*
Y23622D01*
X198808D01*
X200776Y29526D02*
X204712D01*
X202744D01*
Y23622D01*
X106299Y29526D02*
X108267D01*
X107283D01*
Y23622D01*
X106299D01*
X108267D01*
X111219D02*
Y29526D01*
X113187Y27558D01*
X115155Y29526D01*
Y23622D01*
X117122Y29526D02*
Y23622D01*
X120074D01*
X121058Y24606D01*
Y28542D01*
X120074Y29526D01*
X117122D01*
X132865D02*
X128930D01*
Y26574D01*
X130898D01*
X128930D01*
Y23622D01*
X134833Y29526D02*
Y23622D01*
X138769D01*
X140737Y29526D02*
X144673D01*
X142705D01*
Y23622D01*
X47244Y29526D02*
Y23622D01*
X50196D01*
X51180Y24606D01*
Y25590D01*
X50196Y26574D01*
X47244D01*
X50196D01*
X51180Y27558D01*
Y28542D01*
X50196Y29526D01*
X47244D01*
X57083Y28542D02*
X56099Y29526D01*
X54132D01*
X53148Y28542D01*
Y27558D01*
X54132Y26574D01*
X56099D01*
X57083Y25590D01*
Y24606D01*
X56099Y23622D01*
X54132D01*
X53148Y24606D01*
X59051Y23622D02*
Y29526D01*
X62003D01*
X62987Y28542D01*
Y26574D01*
X62003Y25590D01*
X59051D01*
X64955Y29526D02*
Y23622D01*
X67907D01*
X68891Y24606D01*
Y28542D01*
X67907Y29526D01*
X64955D01*
X80698D02*
X76762D01*
Y26574D01*
X78730D01*
X76762D01*
Y23622D01*
X82666Y29526D02*
Y23622D01*
X86601D01*
X88569Y29526D02*
X92505D01*
X90537D01*
Y23622D01*
D13*
X22244Y114961D02*
X32874D01*
Y121260D01*
X22244D02*
X32874D01*
X22244Y114961D02*
Y121260D01*
X6299Y114961D02*
X16929D01*
Y121260D01*
X6299D02*
X16929D01*
X6299Y114961D02*
Y121260D01*
X265354Y188189D02*
Y201575D01*
X246457D02*
X265354D01*
X246457Y188189D02*
Y201575D01*
Y188189D02*
X265354D01*
X206299D02*
Y201575D01*
X187402D02*
X206299D01*
X187402Y188189D02*
Y201575D01*
Y188189D02*
X206299D01*
X147244D02*
Y201575D01*
X128347D02*
X147244D01*
X128347Y188189D02*
Y201575D01*
Y188189D02*
X147244D01*
X88189D02*
Y201575D01*
X69291D02*
X88189D01*
X69291Y188189D02*
Y201575D01*
Y188189D02*
X88189D01*
X234842Y42126D02*
X245472D01*
Y48425D01*
X234842D02*
X245472D01*
X234842Y42126D02*
Y48425D01*
X175787Y42126D02*
X186417D01*
Y48425D01*
X175787D02*
X186417D01*
X175787Y42126D02*
Y48425D01*
X116732Y42126D02*
X127362D01*
Y48425D01*
X116732D02*
X127362D01*
X116732Y42126D02*
Y48425D01*
X57677Y42126D02*
X68307D01*
Y48425D01*
X57677D02*
X68307D01*
X57677Y42126D02*
Y48425D01*
X13824Y91231D02*
X24454D01*
X13824Y84932D02*
Y91231D01*
Y84932D02*
X24454D01*
Y91231D01*
X13824Y99794D02*
X24454D01*
X13824Y93495D02*
Y99794D01*
Y93495D02*
X24454D01*
Y99794D01*
X227559Y34055D02*
Y44685D01*
X221260D02*
X227559D01*
X221260Y34055D02*
Y44685D01*
Y34055D02*
X227559D01*
X162205D02*
Y44685D01*
Y34055D02*
X168504D01*
Y44685D01*
X162205D02*
X168504D01*
X103150Y34055D02*
Y44685D01*
Y34055D02*
X109449D01*
Y44685D01*
X103150D02*
X109449D01*
X50394Y34055D02*
Y44685D01*
X44094D02*
X50394D01*
X44094Y34055D02*
Y44685D01*
Y34055D02*
X50394D01*
X254528Y209842D02*
X265158D01*
X254528Y203543D02*
Y209842D01*
Y203543D02*
X265158D01*
Y209842D01*
X54331Y203543D02*
X64961D01*
Y209842D01*
X54331D02*
X64961D01*
X54331Y203543D02*
Y209842D01*
X13635Y108652D02*
X27020D01*
Y102353D02*
Y108652D01*
X13635Y102353D02*
X27020D01*
X13635D02*
Y108652D01*
X25839Y102353D02*
Y108652D01*
X267717Y209842D02*
X281102D01*
Y203543D02*
Y209842D01*
X267717Y203543D02*
X281102D01*
X267717D02*
Y209842D01*
X279921Y203543D02*
Y209842D01*
X37795Y203543D02*
X51181D01*
X37795D02*
Y209842D01*
X51181D01*
Y203543D02*
Y209842D01*
X38976Y203543D02*
Y209842D01*
X234252Y38583D02*
X247638D01*
Y32283D02*
Y38583D01*
X234252Y32283D02*
X247638D01*
X234252D02*
Y38583D01*
X246457Y32283D02*
Y38583D01*
X175197D02*
X188583D01*
Y32283D02*
Y38583D01*
X175197Y32283D02*
X188583D01*
X175197D02*
Y38583D01*
X187401Y32283D02*
Y38583D01*
X116142D02*
X129527D01*
Y32283D02*
Y38583D01*
X116142Y32283D02*
X129527D01*
X116142D02*
Y38583D01*
X128346Y32283D02*
Y38583D01*
X57087D02*
X70472D01*
Y32283D02*
Y38583D01*
X57087Y32283D02*
X70472D01*
X57087D02*
Y38583D01*
X69291Y32283D02*
Y38583D01*
D14*
X26430Y105503D02*
D03*
X280512Y206693D02*
D03*
X38386Y206693D02*
D03*
X247047Y35433D02*
D03*
X187992D02*
D03*
X128937Y35433D02*
D03*
X69882Y35433D02*
D03*
D15*
X223228Y70866D02*
D03*
X164173D02*
D03*
X105118D02*
D03*
X46063D02*
D03*
M02*
