G04*
G04 #@! TF.GenerationSoftware,Altium Limited,Altium Designer,18.1.9 (240)*
G04*
G04 Layer_Color=8388736*
%FSLAX25Y25*%
%MOIN*%
G70*
G01*
G75*
%ADD22O,0.02375X0.03950*%
%ADD23R,0.03753X0.04737*%
%ADD24R,0.05131X0.11824*%
%ADD25R,0.04737X0.03753*%
%ADD26R,0.03950X0.03950*%
%ADD27R,0.10642X0.09068*%
%ADD28C,0.06706*%
%ADD29C,0.07099*%
%ADD30C,0.05131*%
%ADD31C,0.24422*%
%ADD32C,0.05918*%
%ADD33C,0.03162*%
%ADD34C,0.07887*%
D22*
X200591Y54724D02*
D03*
X203150D02*
D03*
X205709D02*
D03*
X200591Y63386D02*
D03*
X203150D02*
D03*
X205709D02*
D03*
X264764D02*
D03*
X262205D02*
D03*
X259646D02*
D03*
X264764Y54724D02*
D03*
X262205D02*
D03*
X259646D02*
D03*
X146653Y63386D02*
D03*
X144095D02*
D03*
X141535D02*
D03*
X146653Y54724D02*
D03*
X144095D02*
D03*
X141535D02*
D03*
X87598Y63386D02*
D03*
X85039D02*
D03*
X82480D02*
D03*
X87598Y54724D02*
D03*
X85039D02*
D03*
X82480D02*
D03*
D23*
X30413Y118110D02*
D03*
X24705D02*
D03*
X14469D02*
D03*
X8760D02*
D03*
X243012Y45276D02*
D03*
X237303D02*
D03*
X183957D02*
D03*
X178248D02*
D03*
X124901D02*
D03*
X119193D02*
D03*
X65846D02*
D03*
X60138D02*
D03*
X16284Y88082D02*
D03*
X21993D02*
D03*
X16284Y96645D02*
D03*
X21993D02*
D03*
X256988Y206693D02*
D03*
X262697D02*
D03*
X62500D02*
D03*
X56791D02*
D03*
D24*
X249410Y194882D02*
D03*
X262402D02*
D03*
X190354D02*
D03*
X203346D02*
D03*
X131299D02*
D03*
X144291D02*
D03*
X72244D02*
D03*
X85236D02*
D03*
D25*
X224409Y42224D02*
D03*
Y36516D02*
D03*
X165354D02*
D03*
Y42224D02*
D03*
X106299Y36516D02*
D03*
Y42224D02*
D03*
X47244D02*
D03*
Y36516D02*
D03*
D26*
X16587Y105503D02*
D03*
X22493D02*
D03*
X270669Y206693D02*
D03*
X276575D02*
D03*
X48228D02*
D03*
X42323D02*
D03*
X237205Y35433D02*
D03*
X243110D02*
D03*
X178150D02*
D03*
X184055D02*
D03*
X119095D02*
D03*
X125000D02*
D03*
X60039D02*
D03*
X65945D02*
D03*
D27*
X244094Y70866D02*
D03*
X231496D02*
D03*
X185039D02*
D03*
X172441D02*
D03*
X125984D02*
D03*
X113386D02*
D03*
X66929D02*
D03*
X54331D02*
D03*
D28*
X295276Y119095D02*
D03*
Y130905D02*
D03*
Y142717D02*
D03*
Y154528D02*
D03*
Y166339D02*
D03*
D29*
Y48031D02*
D03*
Y59842D02*
D03*
Y71653D02*
D03*
Y83465D02*
D03*
X231496Y153347D02*
D03*
Y173031D02*
D03*
X261024D02*
D03*
Y153347D02*
D03*
X172441D02*
D03*
Y173031D02*
D03*
X201969D02*
D03*
Y153347D02*
D03*
X113386D02*
D03*
Y173031D02*
D03*
X142913D02*
D03*
Y153347D02*
D03*
X54331D02*
D03*
Y173031D02*
D03*
X83858D02*
D03*
Y153347D02*
D03*
X19331Y65059D02*
D03*
Y53248D02*
D03*
Y159547D02*
D03*
Y147736D02*
D03*
X11614Y76870D02*
D03*
Y41437D02*
D03*
Y171358D02*
D03*
Y135925D02*
D03*
D30*
X261024Y94291D02*
D03*
X231496D02*
D03*
X201969D02*
D03*
X172441D02*
D03*
X142913D02*
D03*
X113386D02*
D03*
X83858D02*
D03*
X54331D02*
D03*
D31*
X299213Y15748D02*
D03*
X15748Y200787D02*
D03*
X299213D02*
D03*
X15748Y15748D02*
D03*
D32*
X302992Y107283D02*
D03*
Y178150D02*
D03*
D33*
X47244Y49213D02*
D03*
X106299D02*
D03*
X165354D02*
D03*
X246063Y55709D02*
D03*
X187008D02*
D03*
X127953D02*
D03*
X68898D02*
D03*
X224410Y49213D02*
D03*
X86221Y75590D02*
D03*
X145276D02*
D03*
X204331D02*
D03*
X263386D02*
D03*
D34*
X302992Y36220D02*
D03*
Y95276D02*
D03*
M02*
