G04*
G04 #@! TF.GenerationSoftware,Altium Limited,Altium Designer,18.1.9 (240)*
G04*
G04 Layer_Physical_Order=1*
G04 Layer_Color=255*
%FSLAX25Y25*%
%MOIN*%
G70*
G01*
G75*
%ADD12C,0.01000*%
%ADD16O,0.01575X0.03150*%
%ADD17R,0.02953X0.03937*%
%ADD18R,0.04331X0.11024*%
%ADD19R,0.03937X0.02953*%
%ADD20R,0.03150X0.03150*%
%ADD21R,0.09843X0.08268*%
%ADD35C,0.01575*%
%ADD36C,0.03937*%
%ADD37C,0.03150*%
%ADD38C,0.02362*%
%ADD39C,0.05906*%
%ADD40C,0.06299*%
%ADD41C,0.04331*%
%ADD42C,0.23622*%
%ADD43C,0.05118*%
%ADD44C,0.02362*%
%ADD45C,0.07087*%
G36*
X37008Y212598D02*
X39478Y209643D01*
X39748Y209268D01*
X39748D01*
X39748Y209268D01*
Y207193D01*
X42323D01*
Y206693D01*
X42823D01*
Y204118D01*
X44094D01*
Y185433D01*
X37008Y178347D01*
X11811Y178347D01*
X4331Y185827D01*
Y193979D01*
X4812Y194115D01*
X5352Y193234D01*
X6661Y191701D01*
X8195Y190391D01*
X9914Y189337D01*
X11777Y188566D01*
X13738Y188095D01*
X15248Y187976D01*
Y200787D01*
X15748D01*
Y201287D01*
X28559D01*
X28440Y202798D01*
X27970Y204759D01*
X27198Y206622D01*
X26144Y208341D01*
X24835Y209874D01*
X23301Y211184D01*
X21809Y212098D01*
X21950Y212598D01*
X37008D01*
Y212598D01*
D02*
G37*
G36*
X292806Y212473D02*
X292947Y211973D01*
X291659Y211184D01*
X290126Y209874D01*
X288816Y208341D01*
X287763Y206622D01*
X286991Y204759D01*
X286520Y202798D01*
X286401Y201287D01*
X299213D01*
Y200787D01*
X299713D01*
Y187976D01*
X301223Y188095D01*
X303184Y188566D01*
X305047Y189337D01*
X306766Y190391D01*
X308299Y191701D01*
X309609Y193234D01*
X310663Y194953D01*
X311434Y196816D01*
X311524Y197188D01*
X312024Y197129D01*
Y187614D01*
X306299Y181890D01*
X280512D01*
X274803Y187598D01*
X274803Y204118D01*
X276075D01*
Y206693D01*
X276575D01*
Y207193D01*
X279150D01*
Y208805D01*
X282552Y212473D01*
X292806D01*
D02*
G37*
G36*
X76772Y186705D02*
X57891Y167825D01*
X50778D01*
X48720Y169882D01*
X48720Y182972D01*
X68504Y202756D01*
X76772Y202756D01*
X76772Y186705D01*
D02*
G37*
G36*
X248355Y202294D02*
X247455Y201394D01*
X246244D01*
Y195382D01*
X249409D01*
X252575D01*
Y198045D01*
X253475Y198945D01*
X253937Y198754D01*
X253937Y186705D01*
X235047Y167815D01*
X227953D01*
X225886Y169882D01*
X225886Y182972D01*
X245669Y202756D01*
X248164D01*
X248355Y202294D01*
D02*
G37*
G36*
X194882Y186705D02*
X175992Y167815D01*
X168898D01*
X166831Y169882D01*
X166831Y182972D01*
X186614Y202756D01*
X194882Y202756D01*
X194882Y186705D01*
D02*
G37*
G36*
X135827D02*
X116937Y167815D01*
X109843D01*
X107087Y170571D01*
X107087Y182283D01*
X127559Y202756D01*
X135827Y202756D01*
X135827Y186705D01*
D02*
G37*
G36*
X82242Y202401D02*
Y201394D01*
X82071D01*
Y195382D01*
X85236D01*
X88402D01*
Y201394D01*
X88230D01*
Y202204D01*
X88730Y202411D01*
X90551Y200591D01*
Y187894D01*
X77756Y175098D01*
Y166929D01*
X68602Y157776D01*
X68602Y89862D01*
X59449Y80709D01*
Y76000D01*
X54831D01*
Y70866D01*
X54331D01*
Y70366D01*
X48409D01*
Y67598D01*
X47947Y67407D01*
X41732Y73622D01*
Y150252D01*
X37457Y154528D01*
X19831D01*
Y154575D01*
X11024Y145768D01*
X11024Y142126D01*
X7087Y138189D01*
Y133465D01*
X9350Y131201D01*
Y121079D01*
X9260D01*
Y118110D01*
Y115142D01*
X9350D01*
Y114469D01*
X7480Y112598D01*
X3150Y112598D01*
X787Y114961D01*
Y163779D01*
X3813Y166805D01*
X21384Y166805D01*
D01*
X58734Y166805D01*
X79724Y187795D01*
X79724Y200590D01*
X81742Y202608D01*
X82242Y202401D01*
D02*
G37*
G36*
X265551Y202756D02*
X267717Y200591D01*
Y187894D01*
X254921Y175098D01*
Y166929D01*
X235039Y147047D01*
Y146850D01*
X229134D01*
X225197Y150787D01*
Y153347D01*
Y156102D01*
X256890Y187795D01*
X256890Y200590D01*
X259055Y202756D01*
X265551Y202756D01*
D02*
G37*
G36*
X206496D02*
X208661Y200591D01*
Y187894D01*
X195866Y175098D01*
Y166929D01*
X175984Y147047D01*
Y146850D01*
X170079D01*
X166142Y150787D01*
Y153347D01*
Y156102D01*
X197835Y187795D01*
X197835Y200590D01*
X200000Y202756D01*
X206496Y202756D01*
D02*
G37*
G36*
X147441D02*
X149606Y200591D01*
Y187894D01*
X136811Y175098D01*
Y166929D01*
X116929Y147047D01*
Y146850D01*
X111024D01*
X107087Y150787D01*
Y153347D01*
Y156102D01*
X138779Y187795D01*
X138779Y200590D01*
X140945Y202756D01*
X147441Y202756D01*
D02*
G37*
G36*
X39665Y148917D02*
X39665Y114469D01*
X37795Y112598D01*
X31545Y112598D01*
X29823Y114321D01*
Y115142D01*
X29913D01*
Y118110D01*
Y121079D01*
X29709D01*
X16634Y134153D01*
X16634Y144010D01*
X17082Y144231D01*
X17238Y144112D01*
X18248Y143693D01*
X18831Y143617D01*
Y147736D01*
X19331D01*
Y148236D01*
X23450D01*
X23373Y148819D01*
X22955Y149829D01*
X22290Y150696D01*
X22644Y151049D01*
X24055Y152461D01*
X36122Y152461D01*
X39665Y148917D01*
D02*
G37*
G36*
X229464Y57591D02*
X229464Y43130D01*
X227967Y41634D01*
X227378Y41634D01*
Y41724D01*
X221178D01*
X221087Y41634D01*
X220586Y41634D01*
X219170Y43050D01*
Y57533D01*
X220967Y59330D01*
X227725D01*
X229464Y57591D01*
D02*
G37*
G36*
X170409D02*
X170409Y43130D01*
X168912Y41634D01*
X168323Y41634D01*
Y41724D01*
X165354D01*
X162123D01*
X162032Y41634D01*
X161531Y41634D01*
X160115Y43050D01*
Y57533D01*
X161912Y59330D01*
X168670D01*
X170409Y57591D01*
D02*
G37*
G36*
X111354D02*
X111354Y43130D01*
X109857Y41634D01*
X109268Y41634D01*
Y41724D01*
X106299D01*
X103068D01*
X102977Y41634D01*
X102476Y41634D01*
X101060Y43050D01*
Y57533D01*
X102857Y59330D01*
X109615D01*
X111354Y57591D01*
D02*
G37*
G36*
X52299D02*
X52299Y43130D01*
X50802Y41634D01*
X50213Y41634D01*
Y41724D01*
X44013D01*
X43922Y41634D01*
X43421Y41634D01*
X42004Y43050D01*
Y57533D01*
X43801Y59330D01*
X50560D01*
X52299Y57591D01*
D02*
G37*
G36*
X255118Y56693D02*
X257756D01*
X257981Y56237D01*
X257962Y56209D01*
X257823Y55512D01*
Y55224D01*
X259646D01*
Y54724D01*
X260146D01*
Y51912D01*
X260236Y51838D01*
Y50984D01*
X259646Y50394D01*
X241732D01*
X240551Y49213D01*
Y48244D01*
X240535D01*
Y42307D01*
X240321Y41896D01*
X238189Y39764D01*
X233465D01*
X231496Y41732D01*
Y56299D01*
X234646Y59449D01*
X252362D01*
X255118Y56693D01*
D02*
G37*
G36*
X196063D02*
X198700D01*
X198925Y56237D01*
X198907Y56209D01*
X198768Y55512D01*
Y55224D01*
X200591D01*
Y54724D01*
X201091D01*
Y51912D01*
X201181Y51838D01*
Y50984D01*
X200590Y50394D01*
X182677D01*
X181496Y49213D01*
Y48244D01*
X181480D01*
Y42307D01*
X181266Y41896D01*
X179134Y39764D01*
X174409D01*
X172441Y41732D01*
Y56299D01*
X175591Y59449D01*
X193307D01*
X196063Y56693D01*
D02*
G37*
G36*
X137008D02*
X139645D01*
X139870Y56237D01*
X139852Y56209D01*
X139713Y55512D01*
Y55224D01*
X141535D01*
Y54724D01*
X142035D01*
Y51912D01*
X142126Y51838D01*
Y50984D01*
X141535Y50394D01*
X123622D01*
X122441Y49213D01*
Y48244D01*
X122425D01*
Y42307D01*
X122211Y41896D01*
X120079Y39764D01*
X115354D01*
X113386Y41732D01*
Y56299D01*
X116535Y59449D01*
X134252D01*
X137008Y56693D01*
D02*
G37*
G36*
X77953D02*
X80590D01*
X80815Y56237D01*
X80797Y56209D01*
X80658Y55512D01*
Y55224D01*
X82480D01*
Y54724D01*
X82980D01*
Y51912D01*
X83071Y51838D01*
Y50984D01*
X82480Y50394D01*
X64567D01*
X63386Y49213D01*
Y48244D01*
X63370D01*
Y42307D01*
X63156Y41896D01*
X61024Y39764D01*
X56299D01*
X54331Y41732D01*
Y56299D01*
X57480Y59449D01*
X75197D01*
X77953Y56693D01*
D02*
G37*
G36*
X262205Y49213D02*
X265748Y45669D01*
Y35039D01*
X262598Y31890D01*
X242126Y31890D01*
Y32858D01*
X242610D01*
Y35433D01*
Y38008D01*
X242126D01*
Y42307D01*
X242512D01*
Y45276D01*
Y48244D01*
X242126D01*
Y49213D01*
X262205Y49213D01*
D02*
G37*
G36*
X203150D02*
X206693Y45669D01*
Y35039D01*
X203543Y31890D01*
X183071Y31890D01*
Y32858D01*
X183555D01*
Y35433D01*
Y38008D01*
X183071D01*
Y42307D01*
X183457D01*
Y45276D01*
Y48244D01*
X183071D01*
Y49213D01*
X203150Y49213D01*
D02*
G37*
G36*
X144095D02*
X147638Y45669D01*
Y35039D01*
X144488Y31890D01*
X124016Y31890D01*
Y32858D01*
X124500D01*
Y35433D01*
Y38008D01*
X124016D01*
Y42307D01*
X124402D01*
Y45276D01*
Y48244D01*
X124016D01*
Y49213D01*
X144095Y49213D01*
D02*
G37*
G36*
X85039D02*
X88583Y45669D01*
Y35039D01*
X85433Y31890D01*
X64961Y31890D01*
Y32858D01*
X65445D01*
Y35433D01*
Y38008D01*
X64961D01*
Y42307D01*
X65346D01*
Y45276D01*
Y48244D01*
X64961D01*
Y49213D01*
X85039Y49213D01*
D02*
G37*
%LPC*%
G36*
X41823Y206193D02*
X39748D01*
Y204118D01*
X41823D01*
Y206193D01*
D02*
G37*
G36*
X28559Y200287D02*
X16248D01*
Y187976D01*
X17758Y188095D01*
X19719Y188566D01*
X21582Y189337D01*
X23301Y190391D01*
X24835Y191701D01*
X26144Y193234D01*
X27198Y194953D01*
X27970Y196816D01*
X28440Y198777D01*
X28559Y200287D01*
D02*
G37*
G36*
X279150Y206193D02*
X277075D01*
Y204118D01*
X279150D01*
Y206193D01*
D02*
G37*
G36*
X298713Y200287D02*
X286401D01*
X286520Y198777D01*
X286991Y196816D01*
X287763Y194953D01*
X288816Y193234D01*
X290126Y191701D01*
X291659Y190391D01*
X293378Y189337D01*
X295241Y188566D01*
X297202Y188095D01*
X298713Y187976D01*
Y200287D01*
D02*
G37*
G36*
X75409Y201394D02*
X72744D01*
Y195382D01*
X75409D01*
Y201394D01*
D02*
G37*
G36*
X71744D02*
X69079D01*
Y195382D01*
X71744D01*
Y201394D01*
D02*
G37*
G36*
X75409Y194382D02*
X72744D01*
Y188370D01*
X75409D01*
Y194382D01*
D02*
G37*
G36*
X71744D02*
X69079D01*
Y188370D01*
X71744D01*
Y194382D01*
D02*
G37*
G36*
X54831Y177151D02*
Y173531D01*
X58450D01*
X58373Y174115D01*
X57955Y175124D01*
X57290Y175991D01*
X56423Y176656D01*
X55414Y177074D01*
X54831Y177151D01*
D02*
G37*
G36*
X53831D02*
X53247Y177074D01*
X52238Y176656D01*
X51371Y175991D01*
X50706Y175124D01*
X50288Y174115D01*
X50211Y173531D01*
X53831D01*
Y177151D01*
D02*
G37*
G36*
X58450Y172531D02*
X54831D01*
Y168912D01*
X55414Y168989D01*
X56423Y169407D01*
X57290Y170072D01*
X57955Y170939D01*
X58373Y171948D01*
X58450Y172531D01*
D02*
G37*
G36*
X53831D02*
X50211D01*
X50288Y171948D01*
X50706Y170939D01*
X51371Y170072D01*
X52238Y169407D01*
X53247Y168989D01*
X53831Y168912D01*
Y172531D01*
D02*
G37*
G36*
X252575Y194382D02*
X249909D01*
Y188370D01*
X252575D01*
Y194382D01*
D02*
G37*
G36*
X248909D02*
X246244D01*
Y188370D01*
X248909D01*
Y194382D01*
D02*
G37*
G36*
X231996Y177151D02*
Y173531D01*
X235616D01*
X235539Y174115D01*
X235121Y175124D01*
X234456Y175991D01*
X233589Y176656D01*
X232579Y177074D01*
X231996Y177151D01*
D02*
G37*
G36*
X230996Y177151D02*
X230413Y177074D01*
X229403Y176656D01*
X228537Y175991D01*
X227871Y175124D01*
X227453Y174115D01*
X227377Y173531D01*
X230996D01*
Y177151D01*
D02*
G37*
G36*
X235616Y172531D02*
X231996D01*
Y168912D01*
X232579Y168989D01*
X233589Y169407D01*
X234456Y170072D01*
X235121Y170939D01*
X235539Y171948D01*
X235616Y172531D01*
D02*
G37*
G36*
X230996D02*
X227377D01*
X227453Y171948D01*
X227871Y170939D01*
X228537Y170072D01*
X229403Y169407D01*
X230413Y168989D01*
X230996Y168912D01*
Y172531D01*
D02*
G37*
G36*
X193520Y201394D02*
X190854D01*
Y195382D01*
X193520D01*
Y201394D01*
D02*
G37*
G36*
X189854D02*
X187189D01*
Y195382D01*
X189854D01*
Y201394D01*
D02*
G37*
G36*
X193520Y194382D02*
X190854D01*
Y188370D01*
X193520D01*
Y194382D01*
D02*
G37*
G36*
X189854D02*
X187189D01*
Y188370D01*
X189854D01*
Y194382D01*
D02*
G37*
G36*
X172941Y177151D02*
Y173531D01*
X176560D01*
X176484Y174115D01*
X176066Y175124D01*
X175400Y175991D01*
X174534Y176656D01*
X173524Y177074D01*
X172941Y177151D01*
D02*
G37*
G36*
X171941Y177151D02*
X171358Y177074D01*
X170348Y176656D01*
X169481Y175991D01*
X168816Y175124D01*
X168398Y174115D01*
X168321Y173531D01*
X171941D01*
Y177151D01*
D02*
G37*
G36*
Y172531D02*
X168321D01*
X168398Y171948D01*
X168816Y170939D01*
X169481Y170072D01*
X170348Y169407D01*
X171358Y168989D01*
X171941Y168912D01*
Y172531D01*
D02*
G37*
G36*
X176560D02*
X172941D01*
Y168912D01*
X173524Y168989D01*
X174534Y169407D01*
X175400Y170072D01*
X176066Y170939D01*
X176484Y171948D01*
X176560Y172531D01*
D02*
G37*
G36*
X134465Y201394D02*
X131799D01*
Y195382D01*
X134465D01*
Y201394D01*
D02*
G37*
G36*
X130799D02*
X128134D01*
Y195382D01*
X130799D01*
Y201394D01*
D02*
G37*
G36*
X134465Y194382D02*
X131799D01*
Y188370D01*
X134465D01*
Y194382D01*
D02*
G37*
G36*
X130799D02*
X128134D01*
Y188370D01*
X130799D01*
Y194382D01*
D02*
G37*
G36*
X113886Y177151D02*
Y173531D01*
X117505D01*
X117429Y174115D01*
X117010Y175124D01*
X116345Y175991D01*
X115479Y176656D01*
X114469Y177074D01*
X113886Y177151D01*
D02*
G37*
G36*
X112886Y177151D02*
X112303Y177074D01*
X111293Y176656D01*
X110426Y175991D01*
X109761Y175124D01*
X109343Y174115D01*
X109266Y173531D01*
X112886D01*
Y177151D01*
D02*
G37*
G36*
Y172531D02*
X109266D01*
X109343Y171948D01*
X109761Y170939D01*
X110426Y170072D01*
X111293Y169407D01*
X112303Y168989D01*
X112886Y168912D01*
Y172531D01*
D02*
G37*
G36*
X117505D02*
X113886D01*
Y168912D01*
X114469Y168989D01*
X115479Y169407D01*
X116345Y170072D01*
X117010Y170939D01*
X117429Y171948D01*
X117505Y172531D01*
D02*
G37*
G36*
X88402Y194382D02*
X85736D01*
Y188370D01*
X88402D01*
Y194382D01*
D02*
G37*
G36*
X84736D02*
X82071D01*
Y188370D01*
X84736D01*
Y194382D01*
D02*
G37*
G36*
X19831Y163667D02*
Y160047D01*
X23450D01*
X23373Y160631D01*
X22955Y161640D01*
X22290Y162507D01*
X21423Y163172D01*
X20414Y163590D01*
X19831Y163667D01*
D01*
D02*
G37*
G36*
X18831D02*
X18248Y163590D01*
X17238Y163172D01*
X16371Y162507D01*
X15706Y161640D01*
X15288Y160631D01*
X15211Y160047D01*
X18831D01*
Y163667D01*
D02*
G37*
G36*
X23450Y159047D02*
X19831D01*
Y155428D01*
X20414Y155504D01*
X21423Y155923D01*
X22290Y156588D01*
X22955Y157455D01*
X23373Y158464D01*
X23450Y159047D01*
D02*
G37*
G36*
X18831D02*
X15211D01*
X15288Y158464D01*
X15706Y157455D01*
X16371Y156588D01*
X17238Y155923D01*
X18248Y155504D01*
X18831Y155428D01*
Y159047D01*
D02*
G37*
G36*
X54831Y157466D02*
Y153847D01*
X58450D01*
X58373Y154430D01*
X57955Y155439D01*
X57290Y156306D01*
X56423Y156971D01*
X55414Y157389D01*
X54831Y157466D01*
D02*
G37*
G36*
X53831Y157466D02*
X53247Y157389D01*
X52238Y156971D01*
X51371Y156306D01*
X50706Y155439D01*
X50288Y154430D01*
X50211Y153847D01*
X53831D01*
Y157466D01*
D02*
G37*
G36*
X58450Y152847D02*
X54831D01*
Y149227D01*
X55414Y149304D01*
X56423Y149722D01*
X57290Y150387D01*
X57955Y151254D01*
X58373Y152263D01*
X58450Y152847D01*
D02*
G37*
G36*
X53831D02*
X50211D01*
X50288Y152263D01*
X50706Y151254D01*
X51371Y150387D01*
X52238Y149722D01*
X53247Y149304D01*
X53831Y149227D01*
Y152847D01*
D02*
G37*
G36*
X8260Y121079D02*
X6284D01*
Y118610D01*
X8260D01*
Y121079D01*
D02*
G37*
G36*
Y117610D02*
X6284D01*
Y115142D01*
X8260D01*
Y117610D01*
D02*
G37*
G36*
X54831Y97418D02*
Y94791D01*
X57458D01*
X57415Y95118D01*
X57096Y95888D01*
X56588Y96549D01*
X55927Y97056D01*
X55157Y97375D01*
X54831Y97418D01*
D02*
G37*
G36*
X53831D02*
X53504Y97375D01*
X52734Y97056D01*
X52073Y96549D01*
X51566Y95888D01*
X51247Y95118D01*
X51204Y94791D01*
X53831D01*
Y97418D01*
D02*
G37*
G36*
X57458Y93791D02*
X54831D01*
Y91164D01*
X55157Y91207D01*
X55927Y91526D01*
X56588Y92034D01*
X57096Y92695D01*
X57415Y93465D01*
X57458Y93791D01*
D02*
G37*
G36*
X53831D02*
X51204D01*
X51247Y93465D01*
X51566Y92695D01*
X52073Y92034D01*
X52734Y91526D01*
X53504Y91207D01*
X53831Y91164D01*
Y93791D01*
D02*
G37*
G36*
Y76000D02*
X48409D01*
Y71366D01*
X53831D01*
Y76000D01*
D02*
G37*
G36*
X265567Y201394D02*
X262902D01*
Y195382D01*
X265567D01*
Y201394D01*
D02*
G37*
G36*
X261902D02*
X259236D01*
Y195382D01*
X261902D01*
Y201394D01*
D02*
G37*
G36*
X265567Y194382D02*
X262902D01*
Y188370D01*
X265567D01*
Y194382D01*
D02*
G37*
G36*
X261902D02*
X259236D01*
Y188370D01*
X261902D01*
Y194382D01*
D02*
G37*
G36*
X231996Y157466D02*
Y153846D01*
X235616D01*
X235539Y154430D01*
X235121Y155439D01*
X234456Y156306D01*
X233589Y156971D01*
X232579Y157389D01*
X231996Y157466D01*
D02*
G37*
G36*
X230996Y157466D02*
X230413Y157389D01*
X229403Y156971D01*
X228537Y156306D01*
X227871Y155439D01*
X227453Y154430D01*
X227377Y153846D01*
X230996D01*
Y157466D01*
D02*
G37*
G36*
X235616Y152846D02*
X231996D01*
Y149227D01*
X232579Y149304D01*
X233589Y149722D01*
X234456Y150387D01*
X235121Y151254D01*
X235539Y152263D01*
X235616Y152846D01*
D02*
G37*
G36*
X230996D02*
X227377D01*
X227453Y152263D01*
X227871Y151254D01*
X228537Y150387D01*
X229403Y149722D01*
X230413Y149304D01*
X230996Y149227D01*
Y152846D01*
D02*
G37*
G36*
X206512Y201394D02*
X203847D01*
Y195382D01*
X206512D01*
Y201394D01*
D02*
G37*
G36*
X202847D02*
X200181D01*
Y195382D01*
X202847D01*
Y201394D01*
D02*
G37*
G36*
X206512Y194382D02*
X203847D01*
Y188370D01*
X206512D01*
Y194382D01*
D02*
G37*
G36*
X202847D02*
X200181D01*
Y188370D01*
X202847D01*
Y194382D01*
D02*
G37*
G36*
X172941Y157466D02*
Y153847D01*
X176560D01*
X176484Y154430D01*
X176066Y155439D01*
X175400Y156306D01*
X174534Y156971D01*
X173524Y157389D01*
X172941Y157466D01*
D02*
G37*
G36*
X171941D02*
X171358Y157389D01*
X170348Y156971D01*
X169481Y156306D01*
X168816Y155439D01*
X168398Y154430D01*
X168321Y153847D01*
X171941D01*
Y157466D01*
D02*
G37*
G36*
X176560Y152847D02*
X172941D01*
Y149227D01*
X173524Y149304D01*
X174534Y149722D01*
X175400Y150387D01*
X176066Y151254D01*
X176484Y152263D01*
X176560Y152847D01*
D02*
G37*
G36*
X171941D02*
X168321D01*
X168398Y152263D01*
X168816Y151254D01*
X169481Y150387D01*
X170348Y149722D01*
X171358Y149304D01*
X171941Y149227D01*
Y152847D01*
D02*
G37*
G36*
X147457Y201394D02*
X144791D01*
Y195382D01*
X147457D01*
Y201394D01*
D02*
G37*
G36*
X143791D02*
X141126D01*
Y195382D01*
X143791D01*
Y201394D01*
D02*
G37*
G36*
X147457Y194382D02*
X144791D01*
Y188370D01*
X147457D01*
Y194382D01*
D02*
G37*
G36*
X143791D02*
X141126D01*
Y188370D01*
X143791D01*
Y194382D01*
D02*
G37*
G36*
X113886Y157466D02*
Y153847D01*
X117505D01*
X117429Y154430D01*
X117010Y155439D01*
X116345Y156306D01*
X115479Y156971D01*
X114469Y157389D01*
X113886Y157466D01*
D02*
G37*
G36*
X112886D02*
X112303Y157389D01*
X111293Y156971D01*
X110426Y156306D01*
X109761Y155439D01*
X109343Y154430D01*
X109266Y153847D01*
X112886D01*
Y157466D01*
D02*
G37*
G36*
X117505Y152847D02*
X113886D01*
Y149227D01*
X114469Y149304D01*
X115479Y149722D01*
X116345Y150387D01*
X117010Y151254D01*
X117429Y152263D01*
X117505Y152847D01*
D02*
G37*
G36*
X112886D02*
X109266D01*
X109343Y152263D01*
X109761Y151254D01*
X110426Y150387D01*
X111293Y149722D01*
X112303Y149304D01*
X112886Y149227D01*
Y152847D01*
D02*
G37*
G36*
X23450Y147236D02*
X19831D01*
Y143617D01*
X20414Y143693D01*
X21423Y144112D01*
X22290Y144777D01*
X22955Y145643D01*
X23373Y146653D01*
X23450Y147236D01*
D02*
G37*
G36*
X32890Y121079D02*
X30913D01*
Y118610D01*
X32890D01*
Y121079D01*
D02*
G37*
G36*
Y117610D02*
X30913D01*
Y115142D01*
X32890D01*
Y117610D01*
D02*
G37*
G36*
X224909Y51337D02*
Y49713D01*
X226534D01*
X226464Y50064D01*
X225982Y50785D01*
X225260Y51267D01*
X224909Y51337D01*
D02*
G37*
G36*
X223909D02*
X223558Y51267D01*
X222837Y50785D01*
X222355Y50064D01*
X222285Y49713D01*
X223909D01*
Y51337D01*
D02*
G37*
G36*
X226534Y48713D02*
X224909D01*
Y47088D01*
X225260Y47158D01*
X225982Y47640D01*
X226464Y48362D01*
X226534Y48713D01*
D02*
G37*
G36*
X223909D02*
X222285D01*
X222355Y48362D01*
X222837Y47640D01*
X223558Y47158D01*
X223909Y47088D01*
Y48713D01*
D02*
G37*
G36*
X227378Y44701D02*
X224909D01*
Y42724D01*
X227378D01*
Y44701D01*
D02*
G37*
G36*
X223909D02*
X221441D01*
Y42724D01*
X223909D01*
Y44701D01*
D02*
G37*
G36*
X165854Y51337D02*
Y49713D01*
X167479D01*
X167409Y50064D01*
X166927Y50785D01*
X166205Y51267D01*
X165854Y51337D01*
D02*
G37*
G36*
X164854D02*
X164503Y51267D01*
X163782Y50785D01*
X163300Y50064D01*
X163230Y49713D01*
X164854D01*
Y51337D01*
D02*
G37*
G36*
X167479Y48713D02*
X165854D01*
Y47088D01*
X166205Y47158D01*
X166927Y47640D01*
X167409Y48362D01*
X167479Y48713D01*
D02*
G37*
G36*
X164854D02*
X163230D01*
X163300Y48362D01*
X163782Y47640D01*
X164503Y47158D01*
X164854Y47088D01*
Y48713D01*
D02*
G37*
G36*
X168323Y44701D02*
X165854D01*
Y42724D01*
X168323D01*
Y44701D01*
D02*
G37*
G36*
X164854D02*
X162386D01*
Y42724D01*
X164854D01*
Y44701D01*
D02*
G37*
G36*
X106799Y51337D02*
Y49713D01*
X108424D01*
X108354Y50064D01*
X107872Y50785D01*
X107150Y51267D01*
X106799Y51337D01*
D02*
G37*
G36*
X105799D02*
X105448Y51267D01*
X104727Y50785D01*
X104245Y50064D01*
X104175Y49713D01*
X105799D01*
Y51337D01*
D02*
G37*
G36*
X108424Y48713D02*
X106799D01*
Y47088D01*
X107150Y47158D01*
X107872Y47640D01*
X108354Y48362D01*
X108424Y48713D01*
D02*
G37*
G36*
X105799D02*
X104175D01*
X104245Y48362D01*
X104727Y47640D01*
X105448Y47158D01*
X105799Y47088D01*
Y48713D01*
D02*
G37*
G36*
X109268Y44701D02*
X106799D01*
Y42724D01*
X109268D01*
Y44701D01*
D02*
G37*
G36*
X105799D02*
X103331D01*
Y42724D01*
X105799D01*
Y44701D01*
D02*
G37*
G36*
X47744Y51337D02*
Y49713D01*
X49369D01*
X49299Y50064D01*
X48817Y50785D01*
X48095Y51267D01*
X47744Y51337D01*
D02*
G37*
G36*
X46744D02*
X46393Y51267D01*
X45672Y50785D01*
X45189Y50064D01*
X45120Y49713D01*
X46744D01*
Y51337D01*
D02*
G37*
G36*
X49369Y48713D02*
X47744D01*
Y47088D01*
X48095Y47158D01*
X48817Y47640D01*
X49299Y48362D01*
X49369Y48713D01*
D02*
G37*
G36*
X46744D02*
X45120D01*
X45189Y48362D01*
X45672Y47640D01*
X46393Y47158D01*
X46744Y47088D01*
Y48713D01*
D02*
G37*
G36*
X50213Y44701D02*
X47744D01*
Y42724D01*
X50213D01*
Y44701D01*
D02*
G37*
G36*
X46744D02*
X44276D01*
Y42724D01*
X46744D01*
Y44701D01*
D02*
G37*
G36*
X246563Y57833D02*
Y56209D01*
X248187D01*
X248117Y56560D01*
X247636Y57281D01*
X246914Y57763D01*
X246563Y57833D01*
D02*
G37*
G36*
X245563D02*
X245212Y57763D01*
X244491Y57281D01*
X244008Y56560D01*
X243939Y56209D01*
X245563D01*
Y57833D01*
D02*
G37*
G36*
X248187Y55209D02*
X246563D01*
Y53584D01*
X246914Y53654D01*
X247636Y54136D01*
X248117Y54858D01*
X248187Y55209D01*
D02*
G37*
G36*
X245563D02*
X243939D01*
X244008Y54858D01*
X244491Y54136D01*
X245212Y53654D01*
X245563Y53584D01*
Y55209D01*
D02*
G37*
G36*
X259146Y54224D02*
X257823D01*
Y53937D01*
X257962Y53240D01*
X258357Y52648D01*
X258948Y52253D01*
X259146Y52214D01*
Y54224D01*
D02*
G37*
G36*
X239779Y48244D02*
X237803D01*
Y45776D01*
X239779D01*
Y48244D01*
D02*
G37*
G36*
X236803D02*
X234827D01*
Y45776D01*
X236803D01*
Y48244D01*
D02*
G37*
G36*
X239779Y44776D02*
X237803D01*
Y42307D01*
X239779D01*
Y44776D01*
D02*
G37*
G36*
X236803D02*
X234827D01*
Y42307D01*
X236803D01*
Y44776D01*
D02*
G37*
G36*
X187508Y57833D02*
Y56209D01*
X189132D01*
X189062Y56560D01*
X188580Y57281D01*
X187859Y57763D01*
X187508Y57833D01*
D02*
G37*
G36*
X186508D02*
X186157Y57763D01*
X185435Y57281D01*
X184953Y56560D01*
X184883Y56209D01*
X186508D01*
Y57833D01*
D02*
G37*
G36*
X189132Y55209D02*
X187508D01*
Y53584D01*
X187859Y53654D01*
X188580Y54136D01*
X189062Y54858D01*
X189132Y55209D01*
D02*
G37*
G36*
X186508D02*
X184883D01*
X184953Y54858D01*
X185435Y54136D01*
X186157Y53654D01*
X186508Y53584D01*
Y55209D01*
D02*
G37*
G36*
X200091Y54224D02*
X198768D01*
Y53937D01*
X198907Y53240D01*
X199302Y52648D01*
X199893Y52253D01*
X200091Y52214D01*
Y54224D01*
D02*
G37*
G36*
X180724Y48244D02*
X178748D01*
Y45776D01*
X180724D01*
Y48244D01*
D02*
G37*
G36*
X177748D02*
X175772D01*
Y45776D01*
X177748D01*
Y48244D01*
D02*
G37*
G36*
X180724Y44776D02*
X178748D01*
Y42307D01*
X180724D01*
Y44776D01*
D02*
G37*
G36*
X177748D02*
X175772D01*
Y42307D01*
X177748D01*
Y44776D01*
D02*
G37*
G36*
X128453Y57833D02*
Y56209D01*
X130077D01*
X130007Y56560D01*
X129525Y57281D01*
X128804Y57763D01*
X128453Y57833D01*
D02*
G37*
G36*
X127453D02*
X127102Y57763D01*
X126380Y57281D01*
X125898Y56560D01*
X125828Y56209D01*
X127453D01*
Y57833D01*
D02*
G37*
G36*
X130077Y55209D02*
X128453D01*
Y53584D01*
X128804Y53654D01*
X129525Y54136D01*
X130007Y54858D01*
X130077Y55209D01*
D02*
G37*
G36*
X127453D02*
X125828D01*
X125898Y54858D01*
X126380Y54136D01*
X127102Y53654D01*
X127453Y53584D01*
Y55209D01*
D02*
G37*
G36*
X141035Y54224D02*
X139713D01*
Y53937D01*
X139852Y53240D01*
X140247Y52648D01*
X140838Y52253D01*
X141035Y52214D01*
Y54224D01*
D02*
G37*
G36*
X121669Y48244D02*
X119693D01*
Y45776D01*
X121669D01*
Y48244D01*
D02*
G37*
G36*
X118693D02*
X116717D01*
Y45776D01*
X118693D01*
Y48244D01*
D02*
G37*
G36*
X121669Y44776D02*
X119693D01*
Y42307D01*
X121669D01*
Y44776D01*
D02*
G37*
G36*
X118693D02*
X116717D01*
Y42307D01*
X118693D01*
Y44776D01*
D02*
G37*
G36*
X69398Y57833D02*
Y56209D01*
X71022D01*
X70952Y56560D01*
X70470Y57281D01*
X69749Y57763D01*
X69398Y57833D01*
D02*
G37*
G36*
X68398D02*
X68047Y57763D01*
X67325Y57281D01*
X66843Y56560D01*
X66773Y56209D01*
X68398D01*
Y57833D01*
D02*
G37*
G36*
X71022Y55209D02*
X69398D01*
Y53584D01*
X69749Y53654D01*
X70470Y54136D01*
X70952Y54858D01*
X71022Y55209D01*
D02*
G37*
G36*
X68398D02*
X66773D01*
X66843Y54858D01*
X67325Y54136D01*
X68047Y53654D01*
X68398Y53584D01*
Y55209D01*
D02*
G37*
G36*
X81980Y54224D02*
X80658D01*
Y53937D01*
X80797Y53240D01*
X81192Y52648D01*
X81783Y52253D01*
X81980Y52214D01*
Y54224D01*
D02*
G37*
G36*
X62614Y48244D02*
X60638D01*
Y45776D01*
X62614D01*
Y48244D01*
D02*
G37*
G36*
X59638D02*
X57661D01*
Y45776D01*
X59638D01*
Y48244D01*
D02*
G37*
G36*
X62614Y44776D02*
X60638D01*
Y42307D01*
X62614D01*
Y44776D01*
D02*
G37*
G36*
X59638D02*
X57661D01*
Y42307D01*
X59638D01*
Y44776D01*
D02*
G37*
G36*
X245488Y48244D02*
X243512D01*
Y45776D01*
X245488D01*
Y48244D01*
D02*
G37*
G36*
Y44776D02*
X243512D01*
Y42307D01*
X245488D01*
Y44776D01*
D02*
G37*
G36*
X245685Y38008D02*
X243610D01*
Y35933D01*
X245685D01*
Y38008D01*
D02*
G37*
G36*
Y34933D02*
X243610D01*
Y32858D01*
X245685D01*
Y34933D01*
D02*
G37*
G36*
X186433Y48244D02*
X184457D01*
Y45776D01*
X186433D01*
Y48244D01*
D02*
G37*
G36*
Y44776D02*
X184457D01*
Y42307D01*
X186433D01*
Y44776D01*
D02*
G37*
G36*
X186630Y38008D02*
X184555D01*
Y35933D01*
X186630D01*
Y38008D01*
D02*
G37*
G36*
Y34933D02*
X184555D01*
Y32858D01*
X186630D01*
Y34933D01*
D02*
G37*
G36*
X127378Y48244D02*
X125402D01*
Y45776D01*
X127378D01*
Y48244D01*
D02*
G37*
G36*
Y44776D02*
X125402D01*
Y42307D01*
X127378D01*
Y44776D01*
D02*
G37*
G36*
X127575Y38008D02*
X125500D01*
Y35933D01*
X127575D01*
Y38008D01*
D02*
G37*
G36*
Y34933D02*
X125500D01*
Y32858D01*
X127575D01*
Y34933D01*
D02*
G37*
G36*
X68323Y48244D02*
X66346D01*
Y45776D01*
X68323D01*
Y48244D01*
D02*
G37*
G36*
Y44776D02*
X66346D01*
Y42307D01*
X68323D01*
Y44776D01*
D02*
G37*
G36*
X68520Y38008D02*
X66445D01*
Y35933D01*
X68520D01*
Y38008D01*
D02*
G37*
G36*
Y34933D02*
X66445D01*
Y32858D01*
X68520D01*
Y34933D01*
D02*
G37*
%LPD*%
D12*
X290512Y59842D02*
X295276D01*
X287795Y57126D02*
X290512Y59842D01*
Y71653D02*
X295276D01*
X283465Y64606D02*
X290512Y71653D01*
X285433Y83465D02*
X295276D01*
X278740Y76772D02*
X285433Y83465D01*
X278740Y58366D02*
Y76772D01*
X295276Y44094D02*
Y48031D01*
X269685Y18504D02*
X295276Y44094D01*
X85039Y46752D02*
Y54724D01*
X144095Y44685D02*
Y54724D01*
X203150Y45276D02*
Y54724D01*
X262205Y46850D02*
Y54724D01*
X85630Y34646D02*
X101772Y18504D01*
X269685D01*
X264173Y43799D02*
X278740Y58366D01*
X236122Y36516D02*
X237205Y35433D01*
X226378Y36516D02*
X236122D01*
X177067D02*
X178150Y35433D01*
X167323Y36516D02*
X177067D01*
X118012D02*
X119095Y35433D01*
X108268Y36516D02*
X118012D01*
X58957D02*
X60039Y35433D01*
X49213Y36516D02*
X58957D01*
X143898Y35433D02*
X156890Y22441D01*
X266142D01*
X287795Y44094D01*
Y57126D01*
X202756Y35433D02*
X211417Y26772D01*
X262795D01*
X283465Y47441D01*
Y64606D01*
X90551Y66339D02*
Y70866D01*
X87598Y63386D02*
X90551Y66339D01*
X264764Y54724D02*
Y57677D01*
X263386Y59055D02*
X264764Y57677D01*
X259449Y59055D02*
X263386Y59055D01*
X87598Y54724D02*
Y57677D01*
X86221Y59055D02*
X87598Y57677D01*
X82284Y59055D02*
X86221Y59055D01*
X146653Y54724D02*
Y57677D01*
X145276Y59055D02*
X146653Y57677D01*
X141339Y59055D02*
X145276Y59055D01*
X200394Y59055D02*
X204331Y59055D01*
X205709Y57677D01*
X16587Y102050D02*
Y105503D01*
Y102050D02*
X21993Y96645D01*
X262205Y63386D02*
Y70472D01*
X263386Y71653D01*
Y75590D01*
X203150Y63386D02*
Y70472D01*
X204331Y71653D01*
Y75590D01*
X144095Y63386D02*
Y70472D01*
X145276Y71653D01*
Y75590D01*
X86221Y71653D02*
Y75590D01*
X85039Y70472D02*
X86221Y71653D01*
X85039Y63386D02*
Y70472D01*
X264764Y63386D02*
X267717Y66339D01*
X259646Y63386D02*
Y70866D01*
X267717Y66339D02*
Y70866D01*
X205709Y63386D02*
X208661Y66339D01*
X200591Y63386D02*
Y70866D01*
X208661Y66339D02*
Y70866D01*
X146653Y63386D02*
X149606Y66339D01*
X141535Y63386D02*
Y70866D01*
X149606Y66339D02*
Y70866D01*
X205709Y54724D02*
Y57677D01*
X82480Y63386D02*
Y70866D01*
D16*
X200591Y54724D02*
D03*
X203150D02*
D03*
X205709D02*
D03*
X200591Y63386D02*
D03*
X203150D02*
D03*
X205709D02*
D03*
X264764D02*
D03*
X262205D02*
D03*
X259646D02*
D03*
X264764Y54724D02*
D03*
X262205D02*
D03*
X259646D02*
D03*
X146653Y63386D02*
D03*
X144095D02*
D03*
X141535D02*
D03*
X146653Y54724D02*
D03*
X144095D02*
D03*
X141535D02*
D03*
X87598Y63386D02*
D03*
X85039D02*
D03*
X82480D02*
D03*
X87598Y54724D02*
D03*
X85039D02*
D03*
X82480D02*
D03*
D17*
X30413Y118110D02*
D03*
X24705D02*
D03*
X14469D02*
D03*
X8760D02*
D03*
X243012Y45276D02*
D03*
X237303D02*
D03*
X183957D02*
D03*
X178248D02*
D03*
X124901D02*
D03*
X119193D02*
D03*
X65846D02*
D03*
X60138D02*
D03*
X16284Y88082D02*
D03*
X21993D02*
D03*
X16284Y96645D02*
D03*
X21993D02*
D03*
X256988Y206693D02*
D03*
X262697D02*
D03*
X62500D02*
D03*
X56791D02*
D03*
D18*
X249410Y194882D02*
D03*
X262402D02*
D03*
X190354D02*
D03*
X203346D02*
D03*
X131299D02*
D03*
X144291D02*
D03*
X72244D02*
D03*
X85236D02*
D03*
D19*
X224409Y42224D02*
D03*
Y36516D02*
D03*
X165354D02*
D03*
Y42224D02*
D03*
X106299Y36516D02*
D03*
Y42224D02*
D03*
X47244D02*
D03*
Y36516D02*
D03*
D20*
X16587Y105503D02*
D03*
X22493D02*
D03*
X270669Y206693D02*
D03*
X276575D02*
D03*
X48228D02*
D03*
X42323D02*
D03*
X237205Y35433D02*
D03*
X243110D02*
D03*
X178150D02*
D03*
X184055D02*
D03*
X119095D02*
D03*
X125000D02*
D03*
X60039D02*
D03*
X65945D02*
D03*
D21*
X244094Y70866D02*
D03*
X231496D02*
D03*
X185039D02*
D03*
X172441D02*
D03*
X125984D02*
D03*
X113386D02*
D03*
X66929D02*
D03*
X54331D02*
D03*
D35*
X19331Y53248D02*
X26378Y60295D01*
X251969Y63386D02*
X256299Y59055D01*
X259449D01*
X74803Y63386D02*
X79134Y59055D01*
X82284D01*
X133858Y63386D02*
X138189Y59055D01*
X141339D01*
X197244D02*
X200394D01*
X192913Y63386D02*
X197244Y59055D01*
X16284Y88082D02*
Y96645D01*
Y82370D02*
Y88082D01*
Y82370D02*
X26378Y72277D01*
Y60295D02*
Y72277D01*
X82480Y70866D02*
Y78937D01*
X86221Y82677D01*
X259646Y70866D02*
Y78937D01*
X263386Y82677D01*
X267717Y70866D02*
Y82677D01*
X263386D02*
X267717D01*
Y87795D01*
X200591Y70866D02*
Y78937D01*
X204331Y82677D01*
X208661Y70866D02*
Y82677D01*
X204331D02*
X208661D01*
Y87795D01*
X141535Y70866D02*
Y78937D01*
X145276Y82677D01*
X149606Y70866D02*
Y82677D01*
X145276D02*
X149606D01*
Y87795D01*
X90551Y82677D02*
Y87795D01*
X86221Y82677D02*
X90551D01*
Y70866D02*
Y82677D01*
D36*
X261024Y173031D02*
X267717Y166339D01*
Y158268D02*
Y166339D01*
X201969Y173031D02*
X208661Y166339D01*
Y160433D02*
Y166339D01*
X83858Y173031D02*
X90551Y166339D01*
Y160433D02*
Y166339D01*
X142913Y173031D02*
X149606Y166339D01*
Y160433D02*
Y166339D01*
X12500Y65059D02*
X19331D01*
X4331Y73228D02*
X12500Y65059D01*
X4331Y73228D02*
Y105118D01*
X17323Y118110D01*
X14961D02*
X17323D01*
X23248D01*
X249410Y199114D02*
X256394Y206098D01*
X249410Y194882D02*
Y199114D01*
X85236Y194882D02*
Y204921D01*
X83465Y206693D02*
X85236Y204921D01*
X62500Y206693D02*
X83465D01*
X231496Y70866D02*
Y94291D01*
X172441D02*
X172441Y94291D01*
Y70866D02*
Y94291D01*
X113386Y94291D02*
X113386Y94291D01*
Y70866D02*
Y94291D01*
D37*
X244488Y70866D02*
X251969Y63386D01*
X67323Y70866D02*
X74803Y63386D01*
X126378Y70866D02*
X133858Y63386D01*
X185039Y70866D02*
X185433D01*
X192913Y63386D01*
X267717Y94291D02*
Y158268D01*
X263386Y206693D02*
X270177D01*
X208661Y94291D02*
Y160433D01*
X149606Y94291D02*
Y160433D01*
X90551Y94291D02*
Y160433D01*
X261024Y87795D02*
Y94291D01*
X244094Y70866D02*
X261024Y87795D01*
X201969Y87795D02*
Y94291D01*
X185039Y70866D02*
X201969Y87795D01*
X142913D02*
Y94291D01*
X125984Y70866D02*
X142913Y87795D01*
X83858Y87795D02*
Y94291D01*
X66929Y70866D02*
X83858Y87795D01*
D38*
X48228Y206693D02*
X57087D01*
X267717Y87795D02*
Y94291D01*
X208661Y87795D02*
Y94291D01*
X149606Y87795D02*
Y94291D01*
X90551Y87795D02*
Y94291D01*
D39*
X295276Y119095D02*
D03*
Y130905D02*
D03*
Y142717D02*
D03*
Y154528D02*
D03*
Y166339D02*
D03*
D40*
Y48031D02*
D03*
Y59842D02*
D03*
Y71653D02*
D03*
Y83465D02*
D03*
X231496Y153347D02*
D03*
Y173031D02*
D03*
X261024D02*
D03*
Y153347D02*
D03*
X172441D02*
D03*
Y173031D02*
D03*
X201969D02*
D03*
Y153347D02*
D03*
X113386D02*
D03*
Y173031D02*
D03*
X142913D02*
D03*
Y153347D02*
D03*
X54331D02*
D03*
Y173031D02*
D03*
X83858D02*
D03*
Y153347D02*
D03*
X19331Y65059D02*
D03*
Y53248D02*
D03*
Y159547D02*
D03*
Y147736D02*
D03*
X11614Y76870D02*
D03*
Y41437D02*
D03*
Y171358D02*
D03*
Y135925D02*
D03*
D41*
X261024Y94291D02*
D03*
X231496D02*
D03*
X201969D02*
D03*
X172441D02*
D03*
X142913D02*
D03*
X113386D02*
D03*
X83858D02*
D03*
X54331D02*
D03*
D42*
X299213Y15748D02*
D03*
X15748Y200787D02*
D03*
X299213D02*
D03*
X15748Y15748D02*
D03*
D43*
X302992Y107283D02*
D03*
Y178150D02*
D03*
D44*
X47244Y49213D02*
D03*
X106299D02*
D03*
X165354D02*
D03*
X246063Y55709D02*
D03*
X187008D02*
D03*
X127953D02*
D03*
X68898D02*
D03*
X224410Y49213D02*
D03*
X86221Y75590D02*
D03*
X145276D02*
D03*
X204331D02*
D03*
X263386D02*
D03*
D45*
X302992Y36220D02*
D03*
Y95276D02*
D03*
M02*
