M48
;Layer_Color=9474304
;FILE_FORMAT=2:5
INCH,LZ
;TYPE=PLATED
T1F00S00C0.01575
T2F00S00C0.03000
T3F00S00C0.03937
T4F00S00C0.04173
T5F00S00C0.04528
T6F00S00C0.05118
T7F00S00C0.05197
T8F00S00C0.15748
%
T01
X022441Y0049213
X0246063Y0055709
X0263386Y007559
X0204331
X0187008Y0055709
X0165354Y0049213
X0127953Y0055709
X0106299Y0049213
X0068898Y0055709
X0047244Y0049213
X0086221Y007559
X0145276
T02
X0201969Y0094291
X0231496
X0261024
X0172441
X0142913
X0113386
X0083858
X0054331
T03
X0201969Y0153347
Y0173031
X0231496
Y0153347
X0261024
Y0173031
X0172441
Y0153347
X0142913
Y0173031
X0113386
Y0153347
X0083858
Y0173031
X0054331
Y0153347
T04
X0295276Y0048031
Y0059842
Y0071653
Y0083465
X0019331Y0065059
Y0053248
Y0147736
Y0159547
T05
X0295276Y0119095
Y0130905
Y0142717
Y0154528
Y0166339
T06
X0302992Y0107283
Y017815
T07
X0302992Y003622
Y0095276
X0011614Y007687
Y0041437
Y0135925
Y0171358
T08
X0015748Y0015748
X0299213
X0015748Y0200787
X0299213
M30
