G04*
G04 #@! TF.GenerationSoftware,Altium Limited,Altium Designer,18.1.9 (240)*
G04*
G04 Layer_Color=16711935*
%FSLAX25Y25*%
%MOIN*%
G70*
G01*
G75*
%ADD13C,0.00394*%
%ADD47R,0.02489X0.15512*%
D13*
X198819Y56299D02*
Y61811D01*
X207480Y56299D02*
Y61811D01*
X198819Y56299D02*
X207480D01*
X198819Y61811D02*
X207480D01*
X30807Y116240D02*
Y119980D01*
X24311Y116240D02*
Y119980D01*
Y116240D02*
X30807D01*
X24311Y119980D02*
X30807D01*
X14862Y116240D02*
Y119980D01*
X8366Y116240D02*
Y119980D01*
Y116240D02*
X14862D01*
X8366Y119980D02*
X14862D01*
X249213Y200197D02*
X262598D01*
X249213Y189567D02*
X262598D01*
X249213D02*
Y200197D01*
X262598Y189567D02*
Y200197D01*
X190157D02*
X203543D01*
X190157Y189567D02*
X203543D01*
X190157D02*
Y200197D01*
X203543Y189567D02*
Y200197D01*
X131102D02*
X144488D01*
X131102Y189567D02*
X144488D01*
X131102D02*
Y200197D01*
X144488Y189567D02*
Y200197D01*
X72047D02*
X85433D01*
X72047Y189567D02*
X85433D01*
X72047D02*
Y200197D01*
X85433Y189567D02*
Y200197D01*
X243406Y43406D02*
Y47146D01*
X236909Y43406D02*
Y47146D01*
Y43406D02*
X243406D01*
X236909Y47146D02*
X243406D01*
X184350Y43406D02*
Y47146D01*
X177854Y43406D02*
Y47146D01*
Y43406D02*
X184350D01*
X177854Y47146D02*
X184350D01*
X125295Y43406D02*
Y47146D01*
X118799Y43406D02*
Y47146D01*
Y43406D02*
X125295D01*
X118799Y47146D02*
X125295D01*
X66240Y43406D02*
Y47146D01*
X59744Y43406D02*
Y47146D01*
Y43406D02*
X66240D01*
X59744Y47146D02*
X66240D01*
X15891Y86212D02*
Y89952D01*
X22387Y86212D02*
Y89952D01*
X15891D02*
X22387D01*
X15891Y86212D02*
X22387D01*
X15891Y94775D02*
Y98515D01*
X22387Y94775D02*
Y98515D01*
X15891D02*
X22387D01*
X15891Y94775D02*
X22387D01*
X222539Y42618D02*
X226279D01*
X222539Y36122D02*
X226279D01*
Y42618D01*
X222539Y36122D02*
Y42618D01*
X163484Y36122D02*
X167224D01*
X163484Y42618D02*
X167224D01*
X163484Y36122D02*
Y42618D01*
X167224Y36122D02*
Y42618D01*
X104429Y36122D02*
X108169D01*
X104429Y42618D02*
X108169D01*
X104429Y36122D02*
Y42618D01*
X108169Y36122D02*
Y42618D01*
X45374D02*
X49114D01*
X45374Y36122D02*
X49114D01*
Y42618D01*
X45374Y36122D02*
Y42618D01*
X256594Y204823D02*
Y208563D01*
X263090Y204823D02*
Y208563D01*
X256594D02*
X263090D01*
X256594Y204823D02*
X263090D01*
X62894Y204823D02*
Y208563D01*
X56398Y204823D02*
Y208563D01*
Y204823D02*
X62894D01*
X56398Y208563D02*
X62894D01*
X257874Y61811D02*
X266535D01*
X257874Y56299D02*
X266535D01*
Y61811D01*
X257874Y56299D02*
Y61811D01*
X139764D02*
X148425D01*
X139764Y56299D02*
X148425D01*
Y61811D01*
X139764Y56299D02*
Y61811D01*
X80709D02*
X89370D01*
X80709Y56299D02*
X89370D01*
Y61811D01*
X80709Y56299D02*
Y61811D01*
X228543Y63110D02*
X247047D01*
X228543Y78622D02*
X247047D01*
Y63110D02*
Y78622D01*
X228543Y63110D02*
Y78622D01*
X169488Y63110D02*
X187992D01*
X169488Y78622D02*
X187992D01*
Y63110D02*
Y78622D01*
X169488Y63110D02*
Y78622D01*
X110433Y63110D02*
X128937D01*
X110433Y78622D02*
X128937D01*
Y63110D02*
Y78622D01*
X110433Y63110D02*
Y78622D01*
X51378Y63110D02*
X69882D01*
X51378Y78622D02*
X69882D01*
Y63110D02*
Y78622D01*
X51378Y63110D02*
Y78622D01*
D47*
X229788Y70866D02*
D03*
X170733D02*
D03*
X111677D02*
D03*
X52622D02*
D03*
M02*
