G04*
G04 #@! TF.GenerationSoftware,Altium Limited,Altium Designer,18.1.9 (240)*
G04*
G04 Layer_Color=8421504*
%FSLAX25Y25*%
%MOIN*%
G70*
G01*
G75*
%ADD16O,0.01575X0.03150*%
%ADD17R,0.02953X0.03937*%
%ADD18R,0.04331X0.11024*%
%ADD19R,0.03937X0.02953*%
%ADD20R,0.03150X0.03150*%
%ADD21R,0.09843X0.08268*%
D16*
X200591Y54724D02*
D03*
X203150D02*
D03*
X205709D02*
D03*
X200591Y63386D02*
D03*
X203150D02*
D03*
X205709D02*
D03*
X264764D02*
D03*
X262205D02*
D03*
X259646D02*
D03*
X264764Y54724D02*
D03*
X262205D02*
D03*
X259646D02*
D03*
X146653Y63386D02*
D03*
X144095D02*
D03*
X141535D02*
D03*
X146653Y54724D02*
D03*
X144095D02*
D03*
X141535D02*
D03*
X87598Y63386D02*
D03*
X85039D02*
D03*
X82480D02*
D03*
X87598Y54724D02*
D03*
X85039D02*
D03*
X82480D02*
D03*
D17*
X30413Y118110D02*
D03*
X24705D02*
D03*
X14469D02*
D03*
X8760D02*
D03*
X243012Y45276D02*
D03*
X237303D02*
D03*
X183957D02*
D03*
X178248D02*
D03*
X124901D02*
D03*
X119193D02*
D03*
X65846D02*
D03*
X60138D02*
D03*
X16284Y88082D02*
D03*
X21993D02*
D03*
X16284Y96645D02*
D03*
X21993D02*
D03*
X256988Y206693D02*
D03*
X262697D02*
D03*
X62500D02*
D03*
X56791D02*
D03*
D18*
X249410Y194882D02*
D03*
X262402D02*
D03*
X190354D02*
D03*
X203346D02*
D03*
X131299D02*
D03*
X144291D02*
D03*
X72244D02*
D03*
X85236D02*
D03*
D19*
X224409Y42224D02*
D03*
Y36516D02*
D03*
X165354D02*
D03*
Y42224D02*
D03*
X106299Y36516D02*
D03*
Y42224D02*
D03*
X47244D02*
D03*
Y36516D02*
D03*
D20*
X16587Y105503D02*
D03*
X22493D02*
D03*
X270669Y206693D02*
D03*
X276575D02*
D03*
X48228D02*
D03*
X42323D02*
D03*
X237205Y35433D02*
D03*
X243110D02*
D03*
X178150D02*
D03*
X184055D02*
D03*
X119095D02*
D03*
X125000D02*
D03*
X60039D02*
D03*
X65945D02*
D03*
D21*
X244094Y70866D02*
D03*
X231496D02*
D03*
X185039D02*
D03*
X172441D02*
D03*
X125984D02*
D03*
X113386D02*
D03*
X66929D02*
D03*
X54331D02*
D03*
M02*
