G04*
G04 #@! TF.GenerationSoftware,Altium Limited,Altium Designer,18.1.11 (251)*
G04*
G04 Layer_Color=32768*
%FSLAX25Y25*%
%MOIN*%
G70*
G01*
G75*
%ADD69C,0.00394*%
%ADD71C,0.00197*%
D69*
X470964Y311221D02*
Y315158D01*
X468996Y313189D02*
X472933D01*
X398300Y389828D02*
Y393372D01*
X396528Y391600D02*
X400072D01*
X389730Y381425D02*
Y384575D01*
X388156Y383000D02*
X391305D01*
X498819Y405315D02*
Y408858D01*
X497047Y407087D02*
X500591D01*
X467272Y397532D02*
Y401469D01*
X465303Y399500D02*
X469240D01*
X496068Y311568D02*
Y315308D01*
X494198Y313438D02*
X497939D01*
X472469Y326268D02*
Y330008D01*
X470598Y328138D02*
X474339D01*
X483669Y318869D02*
Y322806D01*
X481700Y320838D02*
X485637D01*
X393821Y350652D02*
Y354589D01*
X391852Y352621D02*
X395789D01*
X449328Y303300D02*
X452872D01*
X451100Y301528D02*
Y305072D01*
X436110Y303300D02*
X439653D01*
X437882Y301528D02*
Y305072D01*
X422892Y303300D02*
X426435D01*
X424664Y301528D02*
Y305072D01*
X409674Y303300D02*
X413217D01*
X411445Y301528D02*
Y305072D01*
X396456Y303300D02*
X399999D01*
X398227Y301528D02*
Y305072D01*
X383237Y303300D02*
X386781D01*
X385009Y301528D02*
Y305072D01*
X370019Y303300D02*
X373563D01*
X371791Y301528D02*
Y305072D01*
X356801Y303300D02*
X360344D01*
X358573Y301528D02*
Y305072D01*
X343583Y303300D02*
X347126D01*
X345355Y301528D02*
Y305072D01*
X330365Y303300D02*
X333908D01*
X332136Y301528D02*
Y305072D01*
X317146Y303300D02*
X320690D01*
X318918Y301528D02*
Y305072D01*
X303928Y303300D02*
X307472D01*
X305700Y301528D02*
Y305072D01*
X307157Y317917D02*
Y320083D01*
X306074Y319000D02*
X308239D01*
X320375Y317917D02*
Y320083D01*
X319292Y319000D02*
X321458D01*
X333593Y317917D02*
Y320083D01*
X332510Y319000D02*
X334676D01*
X346811Y317917D02*
Y320083D01*
X345729Y319000D02*
X347894D01*
X360029Y317917D02*
Y320083D01*
X358947Y319000D02*
X361112D01*
X373248Y317917D02*
Y320083D01*
X372165Y319000D02*
X374330D01*
X386466Y317917D02*
Y320083D01*
X385383Y319000D02*
X387548D01*
X399684Y317917D02*
Y320083D01*
X398601Y319000D02*
X400767D01*
X412902Y317917D02*
Y320083D01*
X411820Y319000D02*
X413985D01*
X426120Y317917D02*
Y320083D01*
X425038Y319000D02*
X427203D01*
X439338Y317917D02*
Y320083D01*
X438256Y319000D02*
X440421D01*
X452557Y317917D02*
Y320083D01*
X451474Y319000D02*
X453639D01*
D71*
X467028Y306496D02*
X474902D01*
X467028Y319882D02*
X474902D01*
X467028Y306496D02*
Y319882D01*
X474902Y306496D02*
Y319882D01*
X395544Y397309D02*
X401056D01*
X395544Y385891D02*
X401056D01*
Y397309D01*
X395544Y385891D02*
Y397309D01*
X384612Y380441D02*
X394848D01*
X384612Y385559D02*
X394848D01*
Y380441D02*
Y385559D01*
X384612Y380441D02*
Y385559D01*
X496063Y401378D02*
X501575D01*
X496063Y412795D02*
X501575D01*
X496063Y401378D02*
Y412795D01*
X501575Y401378D02*
Y412795D01*
X452705Y410327D02*
X481839D01*
X452705Y388673D02*
X481839D01*
X452705D02*
Y410327D01*
X481839Y388673D02*
Y410327D01*
X493116Y307532D02*
X499021D01*
X493116Y319343D02*
X499021D01*
X493116Y307532D02*
Y319343D01*
X499021Y307532D02*
Y319343D01*
X469516Y334043D02*
X475421D01*
X469516Y322232D02*
X475421D01*
Y334043D01*
X469516Y322232D02*
Y334043D01*
X475401Y327924D02*
X491936D01*
X475401Y313751D02*
X491936D01*
X475401D02*
Y327924D01*
X491936Y313751D02*
Y327924D01*
X374135Y366597D02*
X413506D01*
X374135Y338644D02*
X413506D01*
Y366597D01*
X374135Y338644D02*
Y366597D01*
X453856Y297591D02*
Y309009D01*
X448344Y297591D02*
Y309009D01*
X453856D01*
X448344Y297591D02*
X453856D01*
X440638D02*
Y309009D01*
X435126Y297591D02*
Y309009D01*
X440638D01*
X435126Y297591D02*
X440638D01*
X427420D02*
Y309009D01*
X421908Y297591D02*
Y309009D01*
X427420D01*
X421908Y297591D02*
X427420D01*
X414201D02*
Y309009D01*
X408689Y297591D02*
Y309009D01*
X414201D01*
X408689Y297591D02*
X414201D01*
X400983D02*
Y309009D01*
X395471Y297591D02*
Y309009D01*
X400983D01*
X395471Y297591D02*
X400983D01*
X387765D02*
Y309009D01*
X382253Y297591D02*
Y309009D01*
X387765D01*
X382253Y297591D02*
X387765D01*
X374547D02*
Y309009D01*
X369035Y297591D02*
Y309009D01*
X374547D01*
X369035Y297591D02*
X374547D01*
X361329D02*
Y309009D01*
X355817Y297591D02*
Y309009D01*
X361329D01*
X355817Y297591D02*
X361329D01*
X348110D02*
Y309009D01*
X342599Y297591D02*
Y309009D01*
X348110D01*
X342599Y297591D02*
X348110D01*
X334892D02*
Y309009D01*
X329380Y297591D02*
Y309009D01*
X334892D01*
X329380Y297591D02*
X334892D01*
X321674D02*
Y309009D01*
X316162Y297591D02*
Y309009D01*
X321674D01*
X316162Y297591D02*
X321674D01*
X308456D02*
Y309009D01*
X302944Y297591D02*
Y309009D01*
X308456D01*
X302944Y297591D02*
X308456D01*
X304007Y320575D02*
X310306D01*
X304007Y317425D02*
X310306D01*
X304007D02*
Y320575D01*
X310306Y317425D02*
Y320575D01*
X317225D02*
X323524D01*
X317225Y317425D02*
X323524D01*
X317225D02*
Y320575D01*
X323524Y317425D02*
Y320575D01*
X330443D02*
X336743D01*
X330443Y317425D02*
X336743D01*
X330443D02*
Y320575D01*
X336743Y317425D02*
Y320575D01*
X343662D02*
X349961D01*
X343662Y317425D02*
X349961D01*
X343662D02*
Y320575D01*
X349961Y317425D02*
Y320575D01*
X356880D02*
X363179D01*
X356880Y317425D02*
X363179D01*
X356880D02*
Y320575D01*
X363179Y317425D02*
Y320575D01*
X370098D02*
X376397D01*
X370098Y317425D02*
X376397D01*
X370098D02*
Y320575D01*
X376397Y317425D02*
Y320575D01*
X383316D02*
X389615D01*
X383316Y317425D02*
X389615D01*
X383316D02*
Y320575D01*
X389615Y317425D02*
Y320575D01*
X396534D02*
X402834D01*
X396534Y317425D02*
X402834D01*
X396534D02*
Y320575D01*
X402834Y317425D02*
Y320575D01*
X409753D02*
X416052D01*
X409753Y317425D02*
X416052D01*
X409753D02*
Y320575D01*
X416052Y317425D02*
Y320575D01*
X422971D02*
X429270D01*
X422971Y317425D02*
X429270D01*
X422971D02*
Y320575D01*
X429270Y317425D02*
Y320575D01*
X436189D02*
X442488D01*
X436189Y317425D02*
X442488D01*
X436189D02*
Y320575D01*
X442488Y317425D02*
Y320575D01*
X449407D02*
X455706D01*
X449407Y317425D02*
X455706D01*
X449407D02*
Y320575D01*
X455706Y317425D02*
Y320575D01*
M02*
