G04*
G04 #@! TF.GenerationSoftware,Altium Limited,Altium Designer,18.1.11 (251)*
G04*
G04 Layer_Physical_Order=2*
G04 Layer_Color=16711680*
%FSLAX25Y25*%
%MOIN*%
G70*
G01*
G75*
%ADD51C,0.01968*%
%ADD52C,0.01500*%
%ADD54C,0.02953*%
%ADD55C,0.05512*%
%ADD56C,0.05906*%
%ADD57C,0.16535*%
%ADD58C,0.05118*%
%ADD59C,0.04724*%
%ADD60C,0.02000*%
%ADD61C,0.03150*%
%ADD62C,0.03937*%
%ADD63C,0.01500*%
%ADD64R,0.02362X0.02362*%
%ADD65R,0.01600X0.02100*%
G36*
X533169Y165551D02*
X198524D01*
Y425394D01*
X305428D01*
X305548Y425127D01*
X305566Y424894D01*
X304928Y424404D01*
X304389Y423702D01*
X304050Y422884D01*
X303968Y422256D01*
X307326D01*
X310684D01*
X310602Y422884D01*
X310263Y423702D01*
X309724Y424404D01*
X309086Y424894D01*
X309104Y425127D01*
X309224Y425394D01*
X313128D01*
X313248Y425127D01*
X313266Y424894D01*
X312628Y424404D01*
X312089Y423702D01*
X311750Y422884D01*
X311668Y422256D01*
X315026D01*
X318384D01*
X318302Y422884D01*
X317963Y423702D01*
X317424Y424404D01*
X316786Y424894D01*
X316804Y425127D01*
X316924Y425394D01*
X321028D01*
X321148Y425127D01*
X321166Y424894D01*
X320528Y424404D01*
X319989Y423702D01*
X319650Y422884D01*
X319568Y422256D01*
X322926D01*
X326284D01*
X326202Y422884D01*
X325863Y423702D01*
X325324Y424404D01*
X324686Y424894D01*
X324704Y425127D01*
X324824Y425394D01*
X328766D01*
X328936Y424894D01*
X328428Y424504D01*
X327889Y423802D01*
X327550Y422984D01*
X327468Y422356D01*
X330826D01*
X334184D01*
X334102Y422984D01*
X333763Y423802D01*
X333224Y424504D01*
X332716Y424894D01*
X332886Y425394D01*
X336666D01*
X336836Y424894D01*
X336328Y424504D01*
X335789Y423802D01*
X335450Y422984D01*
X335368Y422356D01*
X338726D01*
X342084D01*
X342002Y422984D01*
X341663Y423802D01*
X341124Y424504D01*
X340616Y424894D01*
X340786Y425394D01*
X344728D01*
X344848Y425127D01*
X344866Y424894D01*
X344228Y424404D01*
X343689Y423702D01*
X343350Y422884D01*
X343268Y422256D01*
X346626D01*
X349984D01*
X349902Y422884D01*
X349563Y423702D01*
X349024Y424404D01*
X348386Y424894D01*
X348404Y425127D01*
X348524Y425394D01*
X352628D01*
X352748Y425127D01*
X352766Y424894D01*
X352128Y424404D01*
X351589Y423702D01*
X351250Y422884D01*
X351168Y422256D01*
X354526D01*
X357884D01*
X357802Y422884D01*
X357463Y423702D01*
X356924Y424404D01*
X356286Y424894D01*
X356304Y425127D01*
X356424Y425394D01*
X360528D01*
X360648Y425127D01*
X360666Y424894D01*
X360028Y424404D01*
X359489Y423702D01*
X359150Y422884D01*
X359068Y422256D01*
X362426D01*
X365784D01*
X365702Y422884D01*
X365363Y423702D01*
X364824Y424404D01*
X364186Y424894D01*
X364204Y425127D01*
X364324Y425394D01*
X368428D01*
X368548Y425127D01*
X368566Y424894D01*
X367928Y424404D01*
X367389Y423702D01*
X367050Y422884D01*
X366968Y422256D01*
X370326D01*
X373684D01*
X373602Y422884D01*
X373263Y423702D01*
X372724Y424404D01*
X372086Y424894D01*
X372104Y425127D01*
X372224Y425394D01*
X376328D01*
X376448Y425127D01*
X376466Y424894D01*
X375828Y424404D01*
X375289Y423702D01*
X374950Y422884D01*
X374868Y422256D01*
X378226D01*
X381584D01*
X381502Y422884D01*
X381163Y423702D01*
X380624Y424404D01*
X379986Y424894D01*
X380004Y425127D01*
X380124Y425394D01*
X384228D01*
X384348Y425127D01*
X384366Y424894D01*
X383728Y424404D01*
X383189Y423702D01*
X382850Y422884D01*
X382768Y422256D01*
X386126D01*
X389484D01*
X389402Y422884D01*
X389063Y423702D01*
X388524Y424404D01*
X387886Y424894D01*
X387904Y425127D01*
X388024Y425394D01*
X533169D01*
Y165551D01*
D02*
G37*
%LPC*%
G36*
X342084Y421856D02*
X338976D01*
Y418748D01*
X339604Y418831D01*
X340422Y419169D01*
X341124Y419708D01*
X341663Y420411D01*
X342002Y421229D01*
X342084Y421856D01*
D02*
G37*
G36*
X334184D02*
X331076D01*
Y418748D01*
X331704Y418831D01*
X332522Y419169D01*
X333224Y419708D01*
X333763Y420411D01*
X334102Y421229D01*
X334184Y421856D01*
D02*
G37*
G36*
X338476D02*
X335368D01*
X335450Y421229D01*
X335789Y420411D01*
X336328Y419708D01*
X337030Y419169D01*
X337848Y418831D01*
X338476Y418748D01*
Y421856D01*
D02*
G37*
G36*
X330576D02*
X327468D01*
X327550Y421229D01*
X327889Y420411D01*
X328428Y419708D01*
X329130Y419169D01*
X329948Y418831D01*
X330576Y418748D01*
Y421856D01*
D02*
G37*
G36*
X389484Y421756D02*
X386376D01*
Y418648D01*
X387004Y418731D01*
X387822Y419069D01*
X388524Y419608D01*
X389063Y420311D01*
X389402Y421129D01*
X389484Y421756D01*
D02*
G37*
G36*
X381584D02*
X378476D01*
Y418648D01*
X379104Y418731D01*
X379922Y419069D01*
X380624Y419608D01*
X381163Y420311D01*
X381502Y421129D01*
X381584Y421756D01*
D02*
G37*
G36*
X373684D02*
X370576D01*
Y418648D01*
X371204Y418731D01*
X372022Y419069D01*
X372724Y419608D01*
X373263Y420311D01*
X373602Y421129D01*
X373684Y421756D01*
D02*
G37*
G36*
X365784D02*
X362676D01*
Y418648D01*
X363304Y418731D01*
X364122Y419069D01*
X364824Y419608D01*
X365363Y420311D01*
X365702Y421129D01*
X365784Y421756D01*
D02*
G37*
G36*
X357884D02*
X354776D01*
Y418648D01*
X355404Y418731D01*
X356222Y419069D01*
X356924Y419608D01*
X357463Y420311D01*
X357802Y421129D01*
X357884Y421756D01*
D02*
G37*
G36*
X349984D02*
X346876D01*
Y418648D01*
X347504Y418731D01*
X348322Y419069D01*
X349024Y419608D01*
X349563Y420311D01*
X349902Y421129D01*
X349984Y421756D01*
D02*
G37*
G36*
X326284D02*
X323176D01*
Y418648D01*
X323804Y418731D01*
X324622Y419069D01*
X325324Y419608D01*
X325863Y420311D01*
X326202Y421129D01*
X326284Y421756D01*
D02*
G37*
G36*
X318384D02*
X315276D01*
Y418648D01*
X315904Y418731D01*
X316722Y419069D01*
X317424Y419608D01*
X317963Y420311D01*
X318302Y421129D01*
X318384Y421756D01*
D02*
G37*
G36*
X310684D02*
X307576D01*
Y418648D01*
X308204Y418731D01*
X309022Y419069D01*
X309724Y419608D01*
X310263Y420311D01*
X310602Y421129D01*
X310684Y421756D01*
D02*
G37*
G36*
X385876D02*
X382768D01*
X382850Y421129D01*
X383189Y420311D01*
X383728Y419608D01*
X384430Y419069D01*
X385248Y418731D01*
X385876Y418648D01*
Y421756D01*
D02*
G37*
G36*
X377976D02*
X374868D01*
X374950Y421129D01*
X375289Y420311D01*
X375828Y419608D01*
X376530Y419069D01*
X377348Y418731D01*
X377976Y418648D01*
Y421756D01*
D02*
G37*
G36*
X370076D02*
X366968D01*
X367050Y421129D01*
X367389Y420311D01*
X367928Y419608D01*
X368630Y419069D01*
X369448Y418731D01*
X370076Y418648D01*
Y421756D01*
D02*
G37*
G36*
X362176D02*
X359068D01*
X359150Y421129D01*
X359489Y420311D01*
X360028Y419608D01*
X360730Y419069D01*
X361548Y418731D01*
X362176Y418648D01*
Y421756D01*
D02*
G37*
G36*
X354276D02*
X351168D01*
X351250Y421129D01*
X351589Y420311D01*
X352128Y419608D01*
X352830Y419069D01*
X353648Y418731D01*
X354276Y418648D01*
Y421756D01*
D02*
G37*
G36*
X346376D02*
X343268D01*
X343350Y421129D01*
X343689Y420311D01*
X344228Y419608D01*
X344930Y419069D01*
X345748Y418731D01*
X346376Y418648D01*
Y421756D01*
D02*
G37*
G36*
X322676D02*
X319568D01*
X319650Y421129D01*
X319989Y420311D01*
X320528Y419608D01*
X321230Y419069D01*
X322048Y418731D01*
X322676Y418648D01*
Y421756D01*
D02*
G37*
G36*
X314776D02*
X311668D01*
X311750Y421129D01*
X312089Y420311D01*
X312628Y419608D01*
X313330Y419069D01*
X314148Y418731D01*
X314776Y418648D01*
Y421756D01*
D02*
G37*
G36*
X307076D02*
X303968D01*
X304050Y421129D01*
X304389Y420311D01*
X304928Y419608D01*
X305630Y419069D01*
X306448Y418731D01*
X307076Y418648D01*
Y421756D01*
D02*
G37*
G36*
X463394Y419952D02*
Y417921D01*
X465425D01*
X465402Y418093D01*
X465143Y418720D01*
X464730Y419258D01*
X464192Y419670D01*
X463566Y419930D01*
X463394Y419952D01*
D02*
G37*
G36*
X462394D02*
X462221Y419930D01*
X461595Y419670D01*
X461057Y419258D01*
X460645Y418720D01*
X460385Y418093D01*
X460362Y417921D01*
X462394D01*
Y419952D01*
D02*
G37*
G36*
X487029Y419161D02*
Y417721D01*
X488469D01*
X488413Y418002D01*
X487971Y418663D01*
X487310Y419105D01*
X487029Y419161D01*
D02*
G37*
G36*
X486029D02*
X485749Y419105D01*
X485087Y418663D01*
X484645Y418002D01*
X484589Y417721D01*
X486029D01*
Y419161D01*
D02*
G37*
G36*
X488469Y416721D02*
X487029D01*
Y415281D01*
X487310Y415337D01*
X487971Y415779D01*
X488413Y416441D01*
X488469Y416721D01*
D02*
G37*
G36*
X486029D02*
X484589D01*
X484645Y416441D01*
X485087Y415779D01*
X485749Y415337D01*
X486029Y415281D01*
Y416721D01*
D02*
G37*
G36*
X465425Y416921D02*
X463394D01*
Y414890D01*
X463566Y414913D01*
X464192Y415172D01*
X464730Y415585D01*
X465143Y416123D01*
X465402Y416749D01*
X465425Y416921D01*
D02*
G37*
G36*
X462394D02*
X460362D01*
X460385Y416749D01*
X460645Y416123D01*
X461057Y415585D01*
X461595Y415172D01*
X462221Y414913D01*
X462394Y414890D01*
Y416921D01*
D02*
G37*
G36*
X338976Y417665D02*
Y414556D01*
X342084D01*
X342002Y415184D01*
X341663Y416002D01*
X341124Y416704D01*
X340422Y417243D01*
X339604Y417582D01*
X338976Y417665D01*
D02*
G37*
G36*
X331076D02*
Y414556D01*
X334184D01*
X334102Y415184D01*
X333763Y416002D01*
X333224Y416704D01*
X332522Y417243D01*
X331704Y417582D01*
X331076Y417665D01*
D02*
G37*
G36*
X338476D02*
X337848Y417582D01*
X337030Y417243D01*
X336328Y416704D01*
X335789Y416002D01*
X335450Y415184D01*
X335368Y414556D01*
X338476D01*
Y417665D01*
D02*
G37*
G36*
X330576D02*
X329948Y417582D01*
X329130Y417243D01*
X328428Y416704D01*
X327889Y416002D01*
X327550Y415184D01*
X327468Y414556D01*
X330576D01*
Y417665D01*
D02*
G37*
G36*
X265445Y422048D02*
X264464Y421919D01*
X263551Y421541D01*
X262766Y420939D01*
X262164Y420154D01*
X261786Y419240D01*
X261657Y418260D01*
X261786Y417279D01*
X262164Y416366D01*
X262766Y415581D01*
X263551Y414979D01*
X264464Y414601D01*
X265445Y414471D01*
X266425Y414601D01*
X267339Y414979D01*
X268124Y415581D01*
X268726Y416366D01*
X269104Y417279D01*
X269233Y418260D01*
X269104Y419240D01*
X268726Y420154D01*
X268124Y420939D01*
X267339Y421541D01*
X266425Y421919D01*
X265445Y422048D01*
D02*
G37*
G36*
X255445D02*
X254464Y421919D01*
X253551Y421541D01*
X252766Y420939D01*
X252164Y420154D01*
X251786Y419240D01*
X251657Y418260D01*
X251786Y417279D01*
X252164Y416366D01*
X252766Y415581D01*
X253551Y414979D01*
X254464Y414601D01*
X255445Y414471D01*
X256425Y414601D01*
X257339Y414979D01*
X258124Y415581D01*
X258726Y416366D01*
X259104Y417279D01*
X259233Y418260D01*
X259104Y419240D01*
X258726Y420154D01*
X258124Y420939D01*
X257339Y421541D01*
X256425Y421919D01*
X255445Y422048D01*
D02*
G37*
G36*
X245445D02*
X244464Y421919D01*
X243551Y421541D01*
X242766Y420939D01*
X242164Y420154D01*
X241786Y419240D01*
X241657Y418260D01*
X241786Y417279D01*
X242164Y416366D01*
X242766Y415581D01*
X243551Y414979D01*
X244464Y414601D01*
X245445Y414471D01*
X246425Y414601D01*
X247339Y414979D01*
X248124Y415581D01*
X248726Y416366D01*
X249104Y417279D01*
X249233Y418260D01*
X249104Y419240D01*
X248726Y420154D01*
X248124Y420939D01*
X247339Y421541D01*
X246425Y421919D01*
X245445Y422048D01*
D02*
G37*
G36*
X386376Y417565D02*
Y414456D01*
X389484D01*
X389402Y415084D01*
X389063Y415902D01*
X388524Y416604D01*
X387822Y417143D01*
X387004Y417482D01*
X386376Y417565D01*
D02*
G37*
G36*
X378476D02*
Y414456D01*
X381584D01*
X381502Y415084D01*
X381163Y415902D01*
X380624Y416604D01*
X379922Y417143D01*
X379104Y417482D01*
X378476Y417565D01*
D02*
G37*
G36*
X370576D02*
Y414456D01*
X373684D01*
X373602Y415084D01*
X373263Y415902D01*
X372724Y416604D01*
X372022Y417143D01*
X371204Y417482D01*
X370576Y417565D01*
D02*
G37*
G36*
X362676D02*
Y414456D01*
X365784D01*
X365702Y415084D01*
X365363Y415902D01*
X364824Y416604D01*
X364122Y417143D01*
X363304Y417482D01*
X362676Y417565D01*
D02*
G37*
G36*
X354776D02*
Y414456D01*
X357884D01*
X357802Y415084D01*
X357463Y415902D01*
X356924Y416604D01*
X356222Y417143D01*
X355404Y417482D01*
X354776Y417565D01*
D02*
G37*
G36*
X346876D02*
Y414456D01*
X349984D01*
X349902Y415084D01*
X349563Y415902D01*
X349024Y416604D01*
X348322Y417143D01*
X347504Y417482D01*
X346876Y417565D01*
D02*
G37*
G36*
X323176D02*
Y414456D01*
X326284D01*
X326202Y415084D01*
X325863Y415902D01*
X325324Y416604D01*
X324622Y417143D01*
X323804Y417482D01*
X323176Y417565D01*
D02*
G37*
G36*
X315276D02*
Y414456D01*
X318384D01*
X318302Y415084D01*
X317963Y415902D01*
X317424Y416604D01*
X316722Y417143D01*
X315904Y417482D01*
X315276Y417565D01*
D02*
G37*
G36*
X307576D02*
Y414456D01*
X310684D01*
X310602Y415084D01*
X310263Y415902D01*
X309724Y416604D01*
X309022Y417143D01*
X308204Y417482D01*
X307576Y417565D01*
D02*
G37*
G36*
X385876D02*
X385248Y417482D01*
X384430Y417143D01*
X383728Y416604D01*
X383189Y415902D01*
X382850Y415084D01*
X382768Y414456D01*
X385876D01*
Y417565D01*
D02*
G37*
G36*
X377976D02*
X377348Y417482D01*
X376530Y417143D01*
X375828Y416604D01*
X375289Y415902D01*
X374950Y415084D01*
X374868Y414456D01*
X377976D01*
Y417565D01*
D02*
G37*
G36*
X370076D02*
X369448Y417482D01*
X368630Y417143D01*
X367928Y416604D01*
X367389Y415902D01*
X367050Y415084D01*
X366968Y414456D01*
X370076D01*
Y417565D01*
D02*
G37*
G36*
X362176D02*
X361548Y417482D01*
X360730Y417143D01*
X360028Y416604D01*
X359489Y415902D01*
X359150Y415084D01*
X359068Y414456D01*
X362176D01*
Y417565D01*
D02*
G37*
G36*
X354276D02*
X353648Y417482D01*
X352830Y417143D01*
X352128Y416604D01*
X351589Y415902D01*
X351250Y415084D01*
X351168Y414456D01*
X354276D01*
Y417565D01*
D02*
G37*
G36*
X346376D02*
X345748Y417482D01*
X344930Y417143D01*
X344228Y416604D01*
X343689Y415902D01*
X343350Y415084D01*
X343268Y414456D01*
X346376D01*
Y417565D01*
D02*
G37*
G36*
X322676D02*
X322048Y417482D01*
X321230Y417143D01*
X320528Y416604D01*
X319989Y415902D01*
X319650Y415084D01*
X319568Y414456D01*
X322676D01*
Y417565D01*
D02*
G37*
G36*
X314776D02*
X314148Y417482D01*
X313330Y417143D01*
X312628Y416604D01*
X312089Y415902D01*
X311750Y415084D01*
X311668Y414456D01*
X314776D01*
Y417565D01*
D02*
G37*
G36*
X307076D02*
X306448Y417482D01*
X305630Y417143D01*
X304928Y416604D01*
X304389Y415902D01*
X304050Y415084D01*
X303968Y414456D01*
X307076D01*
Y417565D01*
D02*
G37*
G36*
X342084Y414056D02*
X338976D01*
Y410948D01*
X339604Y411031D01*
X340422Y411369D01*
X341124Y411908D01*
X341663Y412611D01*
X342002Y413429D01*
X342084Y414056D01*
D02*
G37*
G36*
X334184D02*
X331076D01*
Y410948D01*
X331704Y411031D01*
X332522Y411369D01*
X333224Y411908D01*
X333763Y412611D01*
X334102Y413429D01*
X334184Y414056D01*
D02*
G37*
G36*
X338476D02*
X335368D01*
X335450Y413429D01*
X335789Y412611D01*
X336328Y411908D01*
X337030Y411369D01*
X337848Y411031D01*
X338476Y410948D01*
Y414056D01*
D02*
G37*
G36*
X330576D02*
X327468D01*
X327550Y413429D01*
X327889Y412611D01*
X328428Y411908D01*
X329130Y411369D01*
X329948Y411031D01*
X330576Y410948D01*
Y414056D01*
D02*
G37*
G36*
X389484Y413956D02*
X386376D01*
Y410848D01*
X387004Y410931D01*
X387822Y411269D01*
X388524Y411808D01*
X389063Y412511D01*
X389402Y413329D01*
X389484Y413956D01*
D02*
G37*
G36*
X381584D02*
X378476D01*
Y410848D01*
X379104Y410931D01*
X379922Y411269D01*
X380624Y411808D01*
X381163Y412511D01*
X381502Y413329D01*
X381584Y413956D01*
D02*
G37*
G36*
X373684D02*
X370576D01*
Y410848D01*
X371204Y410931D01*
X372022Y411269D01*
X372724Y411808D01*
X373263Y412511D01*
X373602Y413329D01*
X373684Y413956D01*
D02*
G37*
G36*
X365784D02*
X362676D01*
Y410848D01*
X363304Y410931D01*
X364122Y411269D01*
X364824Y411808D01*
X365363Y412511D01*
X365702Y413329D01*
X365784Y413956D01*
D02*
G37*
G36*
X357884D02*
X354776D01*
Y410848D01*
X355404Y410931D01*
X356222Y411269D01*
X356924Y411808D01*
X357463Y412511D01*
X357802Y413329D01*
X357884Y413956D01*
D02*
G37*
G36*
X349984D02*
X346876D01*
Y410848D01*
X347504Y410931D01*
X348322Y411269D01*
X349024Y411808D01*
X349563Y412511D01*
X349902Y413329D01*
X349984Y413956D01*
D02*
G37*
G36*
X326284D02*
X323176D01*
Y410848D01*
X323804Y410931D01*
X324622Y411269D01*
X325324Y411808D01*
X325863Y412511D01*
X326202Y413329D01*
X326284Y413956D01*
D02*
G37*
G36*
X318384D02*
X315276D01*
Y410848D01*
X315904Y410931D01*
X316722Y411269D01*
X317424Y411808D01*
X317963Y412511D01*
X318302Y413329D01*
X318384Y413956D01*
D02*
G37*
G36*
X310684D02*
X307576D01*
Y410848D01*
X308204Y410931D01*
X309022Y411269D01*
X309724Y411808D01*
X310263Y412511D01*
X310602Y413329D01*
X310684Y413956D01*
D02*
G37*
G36*
X385876D02*
X382768D01*
X382850Y413329D01*
X383189Y412511D01*
X383728Y411808D01*
X384430Y411269D01*
X385248Y410931D01*
X385876Y410848D01*
Y413956D01*
D02*
G37*
G36*
X377976D02*
X374868D01*
X374950Y413329D01*
X375289Y412511D01*
X375828Y411808D01*
X376530Y411269D01*
X377348Y410931D01*
X377976Y410848D01*
Y413956D01*
D02*
G37*
G36*
X370076D02*
X366968D01*
X367050Y413329D01*
X367389Y412511D01*
X367928Y411808D01*
X368630Y411269D01*
X369448Y410931D01*
X370076Y410848D01*
Y413956D01*
D02*
G37*
G36*
X362176D02*
X359068D01*
X359150Y413329D01*
X359489Y412511D01*
X360028Y411808D01*
X360730Y411269D01*
X361548Y410931D01*
X362176Y410848D01*
Y413956D01*
D02*
G37*
G36*
X354276D02*
X351168D01*
X351250Y413329D01*
X351589Y412511D01*
X352128Y411808D01*
X352830Y411269D01*
X353648Y410931D01*
X354276Y410848D01*
Y413956D01*
D02*
G37*
G36*
X346376D02*
X343268D01*
X343350Y413329D01*
X343689Y412511D01*
X344228Y411808D01*
X344930Y411269D01*
X345748Y410931D01*
X346376Y410848D01*
Y413956D01*
D02*
G37*
G36*
X322676D02*
X319568D01*
X319650Y413329D01*
X319989Y412511D01*
X320528Y411808D01*
X321230Y411269D01*
X322048Y410931D01*
X322676Y410848D01*
Y413956D01*
D02*
G37*
G36*
X314776D02*
X311668D01*
X311750Y413329D01*
X312089Y412511D01*
X312628Y411808D01*
X313330Y411269D01*
X314148Y410931D01*
X314776Y410848D01*
Y413956D01*
D02*
G37*
G36*
X307076D02*
X303968D01*
X304050Y413329D01*
X304389Y412511D01*
X304928Y411808D01*
X305630Y411269D01*
X306448Y410931D01*
X307076Y410848D01*
Y413956D01*
D02*
G37*
G36*
X518656Y419517D02*
Y410479D01*
X527694D01*
X527540Y412046D01*
X527010Y413793D01*
X526150Y415403D01*
X524991Y416814D01*
X523580Y417972D01*
X521970Y418833D01*
X520223Y419363D01*
X518656Y419517D01*
D02*
G37*
G36*
X213538Y419517D02*
Y410479D01*
X222576D01*
X222422Y412046D01*
X221892Y413793D01*
X221031Y415403D01*
X219873Y416814D01*
X218462Y417972D01*
X216852Y418833D01*
X215105Y419363D01*
X213538Y419517D01*
D02*
G37*
G36*
X213038D02*
X211472Y419363D01*
X209725Y418833D01*
X208115Y417972D01*
X206703Y416814D01*
X205545Y415403D01*
X204685Y413793D01*
X204155Y412046D01*
X204000Y410479D01*
X213038D01*
Y419517D01*
D02*
G37*
G36*
X518156D02*
X516590Y419363D01*
X514843Y418833D01*
X513233Y417972D01*
X511822Y416814D01*
X510663Y415403D01*
X509803Y413793D01*
X509273Y412046D01*
X509119Y410479D01*
X518156D01*
Y419517D01*
D02*
G37*
G36*
X486100Y408840D02*
Y407400D01*
X487540D01*
X487484Y407680D01*
X487042Y408342D01*
X486380Y408784D01*
X486100Y408840D01*
D02*
G37*
G36*
X485100D02*
X484820Y408784D01*
X484158Y408342D01*
X483716Y407680D01*
X483660Y407400D01*
X485100D01*
Y408840D01*
D02*
G37*
G36*
X487540Y406400D02*
X486100D01*
Y404960D01*
X486380Y405016D01*
X487042Y405458D01*
X487484Y406120D01*
X487540Y406400D01*
D02*
G37*
G36*
X485100D02*
X483660D01*
X483716Y406120D01*
X484158Y405458D01*
X484820Y405016D01*
X485100Y404960D01*
Y406400D01*
D02*
G37*
G36*
X386376Y405865D02*
Y402756D01*
X389484D01*
X389402Y403384D01*
X389063Y404202D01*
X388524Y404904D01*
X387822Y405443D01*
X387004Y405782D01*
X386376Y405865D01*
D02*
G37*
G36*
X378476D02*
Y402756D01*
X381584D01*
X381502Y403384D01*
X381163Y404202D01*
X380624Y404904D01*
X379922Y405443D01*
X379104Y405782D01*
X378476Y405865D01*
D02*
G37*
G36*
X370576D02*
Y402756D01*
X373684D01*
X373602Y403384D01*
X373263Y404202D01*
X372724Y404904D01*
X372022Y405443D01*
X371204Y405782D01*
X370576Y405865D01*
D02*
G37*
G36*
X362676D02*
Y402756D01*
X365784D01*
X365702Y403384D01*
X365363Y404202D01*
X364824Y404904D01*
X364122Y405443D01*
X363304Y405782D01*
X362676Y405865D01*
D02*
G37*
G36*
X354776D02*
Y402756D01*
X357884D01*
X357802Y403384D01*
X357463Y404202D01*
X356924Y404904D01*
X356222Y405443D01*
X355404Y405782D01*
X354776Y405865D01*
D02*
G37*
G36*
X346976D02*
Y402756D01*
X350084D01*
X350002Y403384D01*
X349663Y404202D01*
X349124Y404904D01*
X348422Y405443D01*
X347604Y405782D01*
X346976Y405865D01*
D02*
G37*
G36*
X339076D02*
Y402756D01*
X342184D01*
X342102Y403384D01*
X341763Y404202D01*
X341224Y404904D01*
X340522Y405443D01*
X339704Y405782D01*
X339076Y405865D01*
D02*
G37*
G36*
X331276D02*
Y402756D01*
X334384D01*
X334302Y403384D01*
X333963Y404202D01*
X333424Y404904D01*
X332722Y405443D01*
X331904Y405782D01*
X331276Y405865D01*
D02*
G37*
G36*
X323276D02*
Y402756D01*
X326384D01*
X326302Y403384D01*
X325963Y404202D01*
X325424Y404904D01*
X324722Y405443D01*
X323904Y405782D01*
X323276Y405865D01*
D02*
G37*
G36*
X315476D02*
Y402756D01*
X318584D01*
X318502Y403384D01*
X318163Y404202D01*
X317624Y404904D01*
X316922Y405443D01*
X316104Y405782D01*
X315476Y405865D01*
D02*
G37*
G36*
X307576D02*
Y402756D01*
X310684D01*
X310602Y403384D01*
X310263Y404202D01*
X309724Y404904D01*
X309022Y405443D01*
X308204Y405782D01*
X307576Y405865D01*
D02*
G37*
G36*
X385876D02*
X385248Y405782D01*
X384430Y405443D01*
X383728Y404904D01*
X383189Y404202D01*
X382850Y403384D01*
X382768Y402756D01*
X385876D01*
Y405865D01*
D02*
G37*
G36*
X377976D02*
X377348Y405782D01*
X376530Y405443D01*
X375828Y404904D01*
X375289Y404202D01*
X374950Y403384D01*
X374868Y402756D01*
X377976D01*
Y405865D01*
D02*
G37*
G36*
X370076D02*
X369448Y405782D01*
X368630Y405443D01*
X367928Y404904D01*
X367389Y404202D01*
X367050Y403384D01*
X366968Y402756D01*
X370076D01*
Y405865D01*
D02*
G37*
G36*
X362176D02*
X361548Y405782D01*
X360730Y405443D01*
X360028Y404904D01*
X359489Y404202D01*
X359150Y403384D01*
X359068Y402756D01*
X362176D01*
Y405865D01*
D02*
G37*
G36*
X354276D02*
X353648Y405782D01*
X352830Y405443D01*
X352128Y404904D01*
X351589Y404202D01*
X351250Y403384D01*
X351168Y402756D01*
X354276D01*
Y405865D01*
D02*
G37*
G36*
X346476D02*
X345848Y405782D01*
X345030Y405443D01*
X344328Y404904D01*
X343789Y404202D01*
X343450Y403384D01*
X343368Y402756D01*
X346476D01*
Y405865D01*
D02*
G37*
G36*
X338576D02*
X337948Y405782D01*
X337130Y405443D01*
X336428Y404904D01*
X335889Y404202D01*
X335550Y403384D01*
X335468Y402756D01*
X338576D01*
Y405865D01*
D02*
G37*
G36*
X330776D02*
X330148Y405782D01*
X329330Y405443D01*
X328628Y404904D01*
X328089Y404202D01*
X327750Y403384D01*
X327668Y402756D01*
X330776D01*
Y405865D01*
D02*
G37*
G36*
X322776D02*
X322148Y405782D01*
X321330Y405443D01*
X320628Y404904D01*
X320089Y404202D01*
X319750Y403384D01*
X319668Y402756D01*
X322776D01*
Y405865D01*
D02*
G37*
G36*
X314976D02*
X314348Y405782D01*
X313530Y405443D01*
X312828Y404904D01*
X312289Y404202D01*
X311950Y403384D01*
X311868Y402756D01*
X314976D01*
Y405865D01*
D02*
G37*
G36*
X307076D02*
X306448Y405782D01*
X305630Y405443D01*
X304928Y404904D01*
X304389Y404202D01*
X304050Y403384D01*
X303968Y402756D01*
X307076D01*
Y405865D01*
D02*
G37*
G36*
X527694Y409979D02*
X518656D01*
Y400941D01*
X520223Y401095D01*
X521970Y401625D01*
X523580Y402486D01*
X524991Y403644D01*
X526150Y405055D01*
X527010Y406665D01*
X527540Y408412D01*
X527694Y409979D01*
D02*
G37*
G36*
X222576D02*
X213538D01*
Y400941D01*
X215105Y401095D01*
X216852Y401625D01*
X218462Y402486D01*
X219873Y403644D01*
X221031Y405055D01*
X221892Y406665D01*
X222422Y408412D01*
X222576Y409979D01*
D02*
G37*
G36*
X213038D02*
X204000D01*
X204155Y408412D01*
X204685Y406665D01*
X205545Y405055D01*
X206703Y403644D01*
X208115Y402486D01*
X209725Y401625D01*
X211472Y401095D01*
X213038Y400941D01*
Y409979D01*
D02*
G37*
G36*
X518156D02*
X509119D01*
X509273Y408412D01*
X509803Y406665D01*
X510663Y405055D01*
X511822Y403644D01*
X513233Y402486D01*
X514843Y401625D01*
X516590Y401095D01*
X518156Y400941D01*
Y409979D01*
D02*
G37*
G36*
X385876Y402256D02*
X382768D01*
X382850Y401629D01*
X383189Y400811D01*
X383728Y400108D01*
X384430Y399569D01*
X385248Y399231D01*
X385876Y399148D01*
Y402256D01*
D02*
G37*
G36*
X377976D02*
X374868D01*
X374950Y401629D01*
X375289Y400811D01*
X375828Y400108D01*
X376530Y399569D01*
X377348Y399231D01*
X377976Y399148D01*
Y402256D01*
D02*
G37*
G36*
X370076D02*
X366968D01*
X367050Y401629D01*
X367389Y400811D01*
X367928Y400108D01*
X368630Y399569D01*
X369448Y399231D01*
X370076Y399148D01*
Y402256D01*
D02*
G37*
G36*
X362176D02*
X359068D01*
X359150Y401629D01*
X359489Y400811D01*
X360028Y400108D01*
X360730Y399569D01*
X361548Y399231D01*
X362176Y399148D01*
Y402256D01*
D02*
G37*
G36*
X354276D02*
X351168D01*
X351250Y401629D01*
X351589Y400811D01*
X352128Y400108D01*
X352830Y399569D01*
X353648Y399231D01*
X354276Y399148D01*
Y402256D01*
D02*
G37*
G36*
X346476D02*
X343368D01*
X343450Y401629D01*
X343789Y400811D01*
X344328Y400108D01*
X345030Y399569D01*
X345848Y399231D01*
X346476Y399148D01*
Y402256D01*
D02*
G37*
G36*
X338576D02*
X335468D01*
X335550Y401629D01*
X335889Y400811D01*
X336428Y400108D01*
X337130Y399569D01*
X337948Y399231D01*
X338576Y399148D01*
Y402256D01*
D02*
G37*
G36*
X330776D02*
X327668D01*
X327750Y401629D01*
X328089Y400811D01*
X328628Y400108D01*
X329330Y399569D01*
X330148Y399231D01*
X330776Y399148D01*
Y402256D01*
D02*
G37*
G36*
X322776D02*
X319668D01*
X319750Y401629D01*
X320089Y400811D01*
X320628Y400108D01*
X321330Y399569D01*
X322148Y399231D01*
X322776Y399148D01*
Y402256D01*
D02*
G37*
G36*
X314976D02*
X311868D01*
X311950Y401629D01*
X312289Y400811D01*
X312828Y400108D01*
X313530Y399569D01*
X314348Y399231D01*
X314976Y399148D01*
Y402256D01*
D02*
G37*
G36*
X307076D02*
X303968D01*
X304050Y401629D01*
X304389Y400811D01*
X304928Y400108D01*
X305630Y399569D01*
X306448Y399231D01*
X307076Y399148D01*
Y402256D01*
D02*
G37*
G36*
X389484D02*
X386376D01*
Y399148D01*
X387004Y399231D01*
X387822Y399569D01*
X388524Y400108D01*
X389063Y400811D01*
X389402Y401629D01*
X389484Y402256D01*
D02*
G37*
G36*
X381584D02*
X378476D01*
Y399148D01*
X379104Y399231D01*
X379922Y399569D01*
X380624Y400108D01*
X381163Y400811D01*
X381502Y401629D01*
X381584Y402256D01*
D02*
G37*
G36*
X373684D02*
X370576D01*
Y399148D01*
X371204Y399231D01*
X372022Y399569D01*
X372724Y400108D01*
X373263Y400811D01*
X373602Y401629D01*
X373684Y402256D01*
D02*
G37*
G36*
X365784D02*
X362676D01*
Y399148D01*
X363304Y399231D01*
X364122Y399569D01*
X364824Y400108D01*
X365363Y400811D01*
X365702Y401629D01*
X365784Y402256D01*
D02*
G37*
G36*
X357884D02*
X354776D01*
Y399148D01*
X355404Y399231D01*
X356222Y399569D01*
X356924Y400108D01*
X357463Y400811D01*
X357802Y401629D01*
X357884Y402256D01*
D02*
G37*
G36*
X350084D02*
X346976D01*
Y399148D01*
X347604Y399231D01*
X348422Y399569D01*
X349124Y400108D01*
X349663Y400811D01*
X350002Y401629D01*
X350084Y402256D01*
D02*
G37*
G36*
X342184D02*
X339076D01*
Y399148D01*
X339704Y399231D01*
X340522Y399569D01*
X341224Y400108D01*
X341763Y400811D01*
X342102Y401629D01*
X342184Y402256D01*
D02*
G37*
G36*
X334384D02*
X331276D01*
Y399148D01*
X331904Y399231D01*
X332722Y399569D01*
X333424Y400108D01*
X333963Y400811D01*
X334302Y401629D01*
X334384Y402256D01*
D02*
G37*
G36*
X326384D02*
X323276D01*
Y399148D01*
X323904Y399231D01*
X324722Y399569D01*
X325424Y400108D01*
X325963Y400811D01*
X326302Y401629D01*
X326384Y402256D01*
D02*
G37*
G36*
X318584D02*
X315476D01*
Y399148D01*
X316104Y399231D01*
X316922Y399569D01*
X317624Y400108D01*
X318163Y400811D01*
X318502Y401629D01*
X318584Y402256D01*
D02*
G37*
G36*
X310684D02*
X307576D01*
Y399148D01*
X308204Y399231D01*
X309022Y399569D01*
X309724Y400108D01*
X310263Y400811D01*
X310602Y401629D01*
X310684Y402256D01*
D02*
G37*
G36*
X428748Y399090D02*
Y396661D01*
X431176D01*
X431140Y396936D01*
X430841Y397658D01*
X430365Y398279D01*
X429745Y398754D01*
X429023Y399054D01*
X428748Y399090D01*
D02*
G37*
G36*
X427748D02*
X427473Y399054D01*
X426751Y398754D01*
X426131Y398279D01*
X425655Y397658D01*
X425356Y396936D01*
X425320Y396661D01*
X427748D01*
Y399090D01*
D02*
G37*
G36*
X386376Y397965D02*
Y394856D01*
X389484D01*
X389402Y395484D01*
X389063Y396302D01*
X388524Y397004D01*
X387822Y397543D01*
X387004Y397882D01*
X386376Y397965D01*
D02*
G37*
G36*
X378476D02*
Y394856D01*
X381584D01*
X381502Y395484D01*
X381163Y396302D01*
X380624Y397004D01*
X379922Y397543D01*
X379104Y397882D01*
X378476Y397965D01*
D02*
G37*
G36*
X370576D02*
Y394856D01*
X373684D01*
X373602Y395484D01*
X373263Y396302D01*
X372724Y397004D01*
X372022Y397543D01*
X371204Y397882D01*
X370576Y397965D01*
D02*
G37*
G36*
X362676D02*
Y394856D01*
X365784D01*
X365702Y395484D01*
X365363Y396302D01*
X364824Y397004D01*
X364122Y397543D01*
X363304Y397882D01*
X362676Y397965D01*
D02*
G37*
G36*
X354776D02*
Y394856D01*
X357884D01*
X357802Y395484D01*
X357463Y396302D01*
X356924Y397004D01*
X356222Y397543D01*
X355404Y397882D01*
X354776Y397965D01*
D02*
G37*
G36*
X346976D02*
Y394856D01*
X350084D01*
X350002Y395484D01*
X349663Y396302D01*
X349124Y397004D01*
X348422Y397543D01*
X347604Y397882D01*
X346976Y397965D01*
D02*
G37*
G36*
X339076D02*
Y394856D01*
X342184D01*
X342102Y395484D01*
X341763Y396302D01*
X341224Y397004D01*
X340522Y397543D01*
X339704Y397882D01*
X339076Y397965D01*
D02*
G37*
G36*
X331276D02*
Y394856D01*
X334384D01*
X334302Y395484D01*
X333963Y396302D01*
X333424Y397004D01*
X332722Y397543D01*
X331904Y397882D01*
X331276Y397965D01*
D02*
G37*
G36*
X323276D02*
Y394856D01*
X326384D01*
X326302Y395484D01*
X325963Y396302D01*
X325424Y397004D01*
X324722Y397543D01*
X323904Y397882D01*
X323276Y397965D01*
D02*
G37*
G36*
X315476D02*
Y394856D01*
X318584D01*
X318502Y395484D01*
X318163Y396302D01*
X317624Y397004D01*
X316922Y397543D01*
X316104Y397882D01*
X315476Y397965D01*
D02*
G37*
G36*
X307576D02*
Y394856D01*
X310684D01*
X310602Y395484D01*
X310263Y396302D01*
X309724Y397004D01*
X309022Y397543D01*
X308204Y397882D01*
X307576Y397965D01*
D02*
G37*
G36*
X330776D02*
X330148Y397882D01*
X329330Y397543D01*
X328628Y397004D01*
X328089Y396302D01*
X327750Y395484D01*
X327668Y394856D01*
X330776D01*
Y397965D01*
D02*
G37*
G36*
X322776D02*
X322148Y397882D01*
X321330Y397543D01*
X320628Y397004D01*
X320089Y396302D01*
X319750Y395484D01*
X319668Y394856D01*
X322776D01*
Y397965D01*
D02*
G37*
G36*
X314976D02*
X314348Y397882D01*
X313530Y397543D01*
X312828Y397004D01*
X312289Y396302D01*
X311950Y395484D01*
X311868Y394856D01*
X314976D01*
Y397965D01*
D02*
G37*
G36*
X307076D02*
X306448Y397882D01*
X305630Y397543D01*
X304928Y397004D01*
X304389Y396302D01*
X304050Y395484D01*
X303968Y394856D01*
X307076D01*
Y397965D01*
D02*
G37*
G36*
X385876D02*
X385248Y397882D01*
X384430Y397543D01*
X383728Y397004D01*
X383189Y396302D01*
X382850Y395484D01*
X382768Y394856D01*
X385876D01*
Y397965D01*
D02*
G37*
G36*
X377976D02*
X377348Y397882D01*
X376530Y397543D01*
X375828Y397004D01*
X375289Y396302D01*
X374950Y395484D01*
X374868Y394856D01*
X377976D01*
Y397965D01*
D02*
G37*
G36*
X370076D02*
X369448Y397882D01*
X368630Y397543D01*
X367928Y397004D01*
X367389Y396302D01*
X367050Y395484D01*
X366968Y394856D01*
X370076D01*
Y397965D01*
D02*
G37*
G36*
X362176D02*
X361548Y397882D01*
X360730Y397543D01*
X360028Y397004D01*
X359489Y396302D01*
X359150Y395484D01*
X359068Y394856D01*
X362176D01*
Y397965D01*
D02*
G37*
G36*
X354276D02*
X353648Y397882D01*
X352830Y397543D01*
X352128Y397004D01*
X351589Y396302D01*
X351250Y395484D01*
X351168Y394856D01*
X354276D01*
Y397965D01*
D02*
G37*
G36*
X346476D02*
X345848Y397882D01*
X345030Y397543D01*
X344328Y397004D01*
X343789Y396302D01*
X343450Y395484D01*
X343368Y394856D01*
X346476D01*
Y397965D01*
D02*
G37*
G36*
X338576D02*
X337948Y397882D01*
X337130Y397543D01*
X336428Y397004D01*
X335889Y396302D01*
X335550Y395484D01*
X335468Y394856D01*
X338576D01*
Y397965D01*
D02*
G37*
G36*
X431176Y395661D02*
X428748D01*
Y393233D01*
X429023Y393269D01*
X429745Y393568D01*
X430365Y394044D01*
X430841Y394664D01*
X431140Y395387D01*
X431176Y395661D01*
D02*
G37*
G36*
X427748D02*
X425320D01*
X425356Y395387D01*
X425655Y394664D01*
X426131Y394044D01*
X426751Y393568D01*
X427473Y393269D01*
X427748Y393233D01*
Y395661D01*
D02*
G37*
G36*
X463200Y393940D02*
Y392500D01*
X464640D01*
X464584Y392780D01*
X464142Y393442D01*
X463480Y393884D01*
X463200Y393940D01*
D02*
G37*
G36*
X462200D02*
X461920Y393884D01*
X461258Y393442D01*
X460816Y392780D01*
X460760Y392500D01*
X462200D01*
Y393940D01*
D02*
G37*
G36*
X472300Y393840D02*
Y392400D01*
X473740D01*
X473684Y392680D01*
X473242Y393342D01*
X472580Y393784D01*
X472300Y393840D01*
D02*
G37*
G36*
X471300D02*
X471020Y393784D01*
X470358Y393342D01*
X469916Y392680D01*
X469860Y392400D01*
X471300D01*
Y393840D01*
D02*
G37*
G36*
X385876Y394356D02*
X382768D01*
X382850Y393729D01*
X383189Y392911D01*
X383728Y392208D01*
X384430Y391669D01*
X385248Y391331D01*
X385876Y391248D01*
Y394356D01*
D02*
G37*
G36*
X377976D02*
X374868D01*
X374950Y393729D01*
X375289Y392911D01*
X375828Y392208D01*
X376530Y391669D01*
X377348Y391331D01*
X377976Y391248D01*
Y394356D01*
D02*
G37*
G36*
X370076D02*
X366968D01*
X367050Y393729D01*
X367389Y392911D01*
X367928Y392208D01*
X368630Y391669D01*
X369448Y391331D01*
X370076Y391248D01*
Y394356D01*
D02*
G37*
G36*
X362176D02*
X359068D01*
X359150Y393729D01*
X359489Y392911D01*
X360028Y392208D01*
X360730Y391669D01*
X361548Y391331D01*
X362176Y391248D01*
Y394356D01*
D02*
G37*
G36*
X354276D02*
X351168D01*
X351250Y393729D01*
X351589Y392911D01*
X352128Y392208D01*
X352830Y391669D01*
X353648Y391331D01*
X354276Y391248D01*
Y394356D01*
D02*
G37*
G36*
X346476D02*
X343368D01*
X343450Y393729D01*
X343789Y392911D01*
X344328Y392208D01*
X345030Y391669D01*
X345848Y391331D01*
X346476Y391248D01*
Y394356D01*
D02*
G37*
G36*
X338576D02*
X335468D01*
X335550Y393729D01*
X335889Y392911D01*
X336428Y392208D01*
X337130Y391669D01*
X337948Y391331D01*
X338576Y391248D01*
Y394356D01*
D02*
G37*
G36*
X330776D02*
X327668D01*
X327750Y393729D01*
X328089Y392911D01*
X328628Y392208D01*
X329330Y391669D01*
X330148Y391331D01*
X330776Y391248D01*
Y394356D01*
D02*
G37*
G36*
X322776D02*
X319668D01*
X319750Y393729D01*
X320089Y392911D01*
X320628Y392208D01*
X321330Y391669D01*
X322148Y391331D01*
X322776Y391248D01*
Y394356D01*
D02*
G37*
G36*
X314976D02*
X311868D01*
X311950Y393729D01*
X312289Y392911D01*
X312828Y392208D01*
X313530Y391669D01*
X314348Y391331D01*
X314976Y391248D01*
Y394356D01*
D02*
G37*
G36*
X307076D02*
X303968D01*
X304050Y393729D01*
X304389Y392911D01*
X304928Y392208D01*
X305630Y391669D01*
X306448Y391331D01*
X307076Y391248D01*
Y394356D01*
D02*
G37*
G36*
X389484D02*
X386376D01*
Y391248D01*
X387004Y391331D01*
X387822Y391669D01*
X388524Y392208D01*
X389063Y392911D01*
X389402Y393729D01*
X389484Y394356D01*
D02*
G37*
G36*
X381584D02*
X378476D01*
Y391248D01*
X379104Y391331D01*
X379922Y391669D01*
X380624Y392208D01*
X381163Y392911D01*
X381502Y393729D01*
X381584Y394356D01*
D02*
G37*
G36*
X373684D02*
X370576D01*
Y391248D01*
X371204Y391331D01*
X372022Y391669D01*
X372724Y392208D01*
X373263Y392911D01*
X373602Y393729D01*
X373684Y394356D01*
D02*
G37*
G36*
X365784D02*
X362676D01*
Y391248D01*
X363304Y391331D01*
X364122Y391669D01*
X364824Y392208D01*
X365363Y392911D01*
X365702Y393729D01*
X365784Y394356D01*
D02*
G37*
G36*
X357884D02*
X354776D01*
Y391248D01*
X355404Y391331D01*
X356222Y391669D01*
X356924Y392208D01*
X357463Y392911D01*
X357802Y393729D01*
X357884Y394356D01*
D02*
G37*
G36*
X350084D02*
X346976D01*
Y391248D01*
X347604Y391331D01*
X348422Y391669D01*
X349124Y392208D01*
X349663Y392911D01*
X350002Y393729D01*
X350084Y394356D01*
D02*
G37*
G36*
X342184D02*
X339076D01*
Y391248D01*
X339704Y391331D01*
X340522Y391669D01*
X341224Y392208D01*
X341763Y392911D01*
X342102Y393729D01*
X342184Y394356D01*
D02*
G37*
G36*
X334384D02*
X331276D01*
Y391248D01*
X331904Y391331D01*
X332722Y391669D01*
X333424Y392208D01*
X333963Y392911D01*
X334302Y393729D01*
X334384Y394356D01*
D02*
G37*
G36*
X326384D02*
X323276D01*
Y391248D01*
X323904Y391331D01*
X324722Y391669D01*
X325424Y392208D01*
X325963Y392911D01*
X326302Y393729D01*
X326384Y394356D01*
D02*
G37*
G36*
X318584D02*
X315476D01*
Y391248D01*
X316104Y391331D01*
X316922Y391669D01*
X317624Y392208D01*
X318163Y392911D01*
X318502Y393729D01*
X318584Y394356D01*
D02*
G37*
G36*
X310684D02*
X307576D01*
Y391248D01*
X308204Y391331D01*
X309022Y391669D01*
X309724Y392208D01*
X310263Y392911D01*
X310602Y393729D01*
X310684Y394356D01*
D02*
G37*
G36*
X514651Y394715D02*
Y391011D01*
X518355D01*
X518252Y391793D01*
X517854Y392754D01*
X517220Y393580D01*
X516394Y394213D01*
X515433Y394612D01*
X514651Y394715D01*
D02*
G37*
G36*
X514151D02*
X513369Y394612D01*
X512407Y394213D01*
X511582Y393580D01*
X510948Y392754D01*
X510550Y391793D01*
X510447Y391011D01*
X514151D01*
Y394715D01*
D02*
G37*
G36*
X464640Y391500D02*
X463200D01*
Y390060D01*
X463480Y390116D01*
X464142Y390558D01*
X464584Y391220D01*
X464640Y391500D01*
D02*
G37*
G36*
X462200D02*
X460760D01*
X460816Y391220D01*
X461258Y390558D01*
X461920Y390116D01*
X462200Y390060D01*
Y391500D01*
D02*
G37*
G36*
X473740Y391400D02*
X472300D01*
Y389960D01*
X472580Y390016D01*
X473242Y390458D01*
X473684Y391120D01*
X473740Y391400D01*
D02*
G37*
G36*
X471300D02*
X469860D01*
X469916Y391120D01*
X470358Y390458D01*
X471020Y390016D01*
X471300Y389960D01*
Y391400D01*
D02*
G37*
G36*
X518355Y390511D02*
X514651D01*
Y386807D01*
X515433Y386910D01*
X516394Y387308D01*
X517220Y387942D01*
X517854Y388767D01*
X518252Y389729D01*
X518355Y390511D01*
D02*
G37*
G36*
X504401Y394748D02*
X503369Y394612D01*
X502408Y394213D01*
X501582Y393580D01*
X500948Y392754D01*
X500550Y391793D01*
X500414Y390761D01*
X500550Y389729D01*
X500948Y388767D01*
X501582Y387942D01*
X502408Y387308D01*
X503369Y386910D01*
X504401Y386774D01*
X505280Y386890D01*
X524875Y367295D01*
Y323446D01*
X521052Y319622D01*
X506299D01*
X505333Y319430D01*
X504514Y318883D01*
X503967Y318064D01*
X503774Y317098D01*
X503967Y316131D01*
X504514Y315312D01*
X505333Y314765D01*
X506299Y314573D01*
X521082D01*
X521929Y314404D01*
X522895Y314596D01*
X523714Y315144D01*
X529185Y320615D01*
X529733Y321434D01*
X529925Y322400D01*
Y368340D01*
X529733Y369307D01*
X529185Y370126D01*
X512641Y386670D01*
X512924Y387094D01*
X513369Y386910D01*
X514151Y386807D01*
Y390511D01*
X510447D01*
X510550Y389729D01*
X510734Y389284D01*
X510310Y389001D01*
X508363Y390948D01*
X508252Y391793D01*
X507854Y392754D01*
X507220Y393580D01*
X506394Y394213D01*
X505433Y394612D01*
X504401Y394748D01*
D02*
G37*
G36*
X488590Y385307D02*
Y383276D01*
X490622D01*
X490599Y383448D01*
X490340Y384074D01*
X489927Y384612D01*
X489389Y385025D01*
X488763Y385284D01*
X488590Y385307D01*
D02*
G37*
G36*
X487591D02*
X487418Y385284D01*
X486792Y385025D01*
X486254Y384612D01*
X485842Y384074D01*
X485582Y383448D01*
X485559Y383276D01*
X487591D01*
Y385307D01*
D02*
G37*
G36*
X490622Y382276D02*
X488590D01*
Y380244D01*
X488763Y380267D01*
X489389Y380526D01*
X489927Y380939D01*
X490340Y381477D01*
X490599Y382103D01*
X490622Y382276D01*
D02*
G37*
G36*
X487591D02*
X485559D01*
X485582Y382103D01*
X485842Y381477D01*
X486254Y380939D01*
X486792Y380526D01*
X487418Y380267D01*
X487591Y380244D01*
Y382276D01*
D02*
G37*
G36*
X408100Y376240D02*
Y374800D01*
X409540D01*
X409484Y375080D01*
X409042Y375742D01*
X408380Y376184D01*
X408100Y376240D01*
D02*
G37*
G36*
X407100D02*
X406820Y376184D01*
X406158Y375742D01*
X405716Y375080D01*
X405660Y374800D01*
X407100D01*
Y376240D01*
D02*
G37*
G36*
X412795Y385504D02*
X412015Y385349D01*
X411353Y384907D01*
X410911Y384245D01*
X410756Y383465D01*
X410772Y383384D01*
Y374687D01*
X410756Y374606D01*
X410911Y373826D01*
X411353Y373164D01*
X412015Y372722D01*
X412795Y372567D01*
X413576Y372722D01*
X414237Y373164D01*
X414679Y373826D01*
X414834Y374606D01*
X414818Y374687D01*
Y383384D01*
X414834Y383465D01*
X414679Y384245D01*
X414237Y384907D01*
X413576Y385349D01*
X412795Y385504D01*
D02*
G37*
G36*
X409540Y373800D02*
X408100D01*
Y372360D01*
X408380Y372416D01*
X409042Y372858D01*
X409484Y373520D01*
X409540Y373800D01*
D02*
G37*
G36*
X407100D02*
X405660D01*
X405716Y373520D01*
X406158Y372858D01*
X406820Y372416D01*
X407100Y372360D01*
Y373800D01*
D02*
G37*
G36*
X415000Y391123D02*
X400700D01*
X399926Y390969D01*
X399269Y390531D01*
X387232Y378493D01*
X386555Y378358D01*
X385893Y377916D01*
X385451Y377255D01*
X385296Y376474D01*
X385451Y375694D01*
X385893Y375032D01*
X386555Y374590D01*
X387335Y374435D01*
X387745Y374517D01*
X388074Y374451D01*
X388848Y374605D01*
X389505Y375044D01*
X401538Y387077D01*
X414162D01*
X415877Y385362D01*
Y374181D01*
X415861Y374100D01*
X416016Y373320D01*
X416458Y372658D01*
X417120Y372216D01*
X417900Y372061D01*
X418680Y372216D01*
X419342Y372658D01*
X419784Y373320D01*
X419939Y374100D01*
X419923Y374181D01*
Y386200D01*
X419769Y386974D01*
X419331Y387631D01*
X416431Y390531D01*
X415774Y390969D01*
X415000Y391123D01*
D02*
G37*
G36*
X391320Y370760D02*
Y369321D01*
X392760D01*
X392704Y369601D01*
X392262Y370262D01*
X391601Y370704D01*
X391320Y370760D01*
D02*
G37*
G36*
X390320D02*
X390040Y370704D01*
X389378Y370262D01*
X388936Y369601D01*
X388881Y369321D01*
X390320D01*
Y370760D01*
D02*
G37*
G36*
X506378Y375245D02*
X505346Y375109D01*
X504385Y374711D01*
X503559Y374077D01*
X502925Y373252D01*
X502527Y372290D01*
X502391Y371258D01*
X502527Y370226D01*
X502925Y369265D01*
X503559Y368439D01*
X504385Y367806D01*
X505346Y367407D01*
X506378Y367271D01*
X507410Y367407D01*
X508371Y367806D01*
X509197Y368439D01*
X509831Y369265D01*
X510229Y370226D01*
X510365Y371258D01*
X510229Y372290D01*
X509831Y373252D01*
X509197Y374077D01*
X508371Y374711D01*
X507410Y375109D01*
X506378Y375245D01*
D02*
G37*
G36*
X392760Y368320D02*
X391320D01*
Y366881D01*
X391601Y366936D01*
X392262Y367378D01*
X392704Y368040D01*
X392760Y368320D01*
D02*
G37*
G36*
X390320D02*
X388881D01*
X388936Y368040D01*
X389378Y367378D01*
X390040Y366936D01*
X390320Y366881D01*
Y368320D01*
D02*
G37*
G36*
X372700Y365640D02*
Y364200D01*
X374140D01*
X374084Y364480D01*
X373642Y365142D01*
X372980Y365584D01*
X372700Y365640D01*
D02*
G37*
G36*
X371700D02*
X371420Y365584D01*
X370758Y365142D01*
X370316Y364480D01*
X370260Y364200D01*
X371700D01*
Y365640D01*
D02*
G37*
G36*
X374140Y363200D02*
X372700D01*
Y361760D01*
X372980Y361816D01*
X373642Y362258D01*
X374084Y362920D01*
X374140Y363200D01*
D02*
G37*
G36*
X371700D02*
X370260D01*
X370316Y362920D01*
X370758Y362258D01*
X371420Y361816D01*
X371700Y361760D01*
Y363200D01*
D02*
G37*
G36*
X506378Y365245D02*
X505346Y365109D01*
X504385Y364711D01*
X503559Y364077D01*
X502925Y363252D01*
X502527Y362290D01*
X502391Y361258D01*
X502527Y360226D01*
X502925Y359265D01*
X503559Y358439D01*
X504385Y357805D01*
X505346Y357407D01*
X506378Y357271D01*
X507410Y357407D01*
X508371Y357805D01*
X509197Y358439D01*
X509831Y359265D01*
X510229Y360226D01*
X510365Y361258D01*
X510229Y362290D01*
X509831Y363252D01*
X509197Y364077D01*
X508371Y364711D01*
X507410Y365109D01*
X506378Y365245D01*
D02*
G37*
G36*
Y355245D02*
X505346Y355109D01*
X504385Y354711D01*
X503559Y354077D01*
X502925Y353252D01*
X502527Y352290D01*
X502391Y351258D01*
X502527Y350226D01*
X502925Y349265D01*
X503559Y348439D01*
X504385Y347806D01*
X505346Y347407D01*
X506378Y347271D01*
X507410Y347407D01*
X508371Y347806D01*
X509197Y348439D01*
X509831Y349265D01*
X510229Y350226D01*
X510365Y351258D01*
X510229Y352290D01*
X509831Y353252D01*
X509197Y354077D01*
X508371Y354711D01*
X507410Y355109D01*
X506378Y355245D01*
D02*
G37*
G36*
X372700Y343199D02*
Y341759D01*
X374140D01*
X374084Y342039D01*
X373642Y342701D01*
X372980Y343143D01*
X372700Y343199D01*
D02*
G37*
G36*
X371700D02*
X371420Y343143D01*
X370758Y342701D01*
X370316Y342039D01*
X370260Y341759D01*
X371700D01*
Y343199D01*
D02*
G37*
G36*
X408500Y355823D02*
X316300D01*
X315526Y355669D01*
X314869Y355231D01*
X284790Y325151D01*
X284351Y324495D01*
X284197Y323721D01*
Y251673D01*
X284351Y250899D01*
X284790Y250243D01*
X307625Y227408D01*
X308281Y226970D01*
X309055Y226816D01*
X503204D01*
X503559Y226353D01*
X504385Y225719D01*
X505346Y225321D01*
X506378Y225185D01*
X507410Y225321D01*
X508371Y225719D01*
X509068Y226254D01*
X510363D01*
Y229157D01*
X510365Y229172D01*
X510363Y229186D01*
Y232093D01*
X510363Y232208D01*
X510363Y232208D01*
X510090Y232480D01*
X509976Y232480D01*
X508559Y232480D01*
X508371Y232624D01*
X507410Y233023D01*
X506378Y233158D01*
X505346Y233023D01*
X504385Y232624D01*
X503559Y231991D01*
X502925Y231165D01*
X502800Y230862D01*
X309893D01*
X288244Y252511D01*
Y322883D01*
X317138Y351777D01*
X407662D01*
X408322Y351116D01*
X408268Y350984D01*
X407579Y350295D01*
X409351Y348523D01*
X409144Y348023D01*
X317161D01*
X316387Y347869D01*
X315731Y347431D01*
X291581Y323281D01*
X291143Y322625D01*
X290989Y321850D01*
Y256398D01*
X291143Y255623D01*
X291581Y254967D01*
X309101Y237447D01*
X309757Y237009D01*
X310531Y236855D01*
X503173D01*
X503559Y236352D01*
X504385Y235719D01*
X505346Y235321D01*
X506378Y235185D01*
X507410Y235321D01*
X508371Y235719D01*
X509197Y236352D01*
X509831Y237178D01*
X510229Y238140D01*
X510365Y239172D01*
X510229Y240203D01*
X509831Y241165D01*
X509197Y241991D01*
X508371Y242624D01*
X507410Y243023D01*
X506378Y243159D01*
X505346Y243023D01*
X504385Y242624D01*
X503559Y241991D01*
X502925Y241165D01*
X502816Y240901D01*
X311369D01*
X295035Y257236D01*
Y321012D01*
X317999Y343977D01*
X409500D01*
X410274Y344131D01*
X410931Y344569D01*
X411369Y345226D01*
X411523Y346000D01*
X411511Y346062D01*
X411523Y346077D01*
Y346000D01*
X413439D01*
X413677Y345762D01*
Y343000D01*
X413831Y342226D01*
X414269Y341569D01*
X414926Y341131D01*
X415700Y340977D01*
X416474Y341131D01*
X417131Y341569D01*
X417569Y342226D01*
X417723Y343000D01*
Y346600D01*
X417569Y347374D01*
X417131Y348031D01*
X409931Y355231D01*
X409274Y355669D01*
X408500Y355823D01*
D02*
G37*
G36*
X374140Y340759D02*
X372700D01*
Y339319D01*
X372980Y339375D01*
X373642Y339817D01*
X374084Y340479D01*
X374140Y340759D01*
D02*
G37*
G36*
X371700D02*
X370260D01*
X370316Y340479D01*
X370758Y339817D01*
X371420Y339375D01*
X371700Y339319D01*
Y340759D01*
D02*
G37*
G36*
X506378Y345245D02*
X505346Y345109D01*
X504385Y344711D01*
X503559Y344077D01*
X502925Y343252D01*
X502527Y342290D01*
X502391Y341258D01*
X502527Y340226D01*
X502925Y339265D01*
X503559Y338439D01*
X504385Y337806D01*
X505346Y337407D01*
X506378Y337271D01*
X507410Y337407D01*
X508371Y337806D01*
X509197Y338439D01*
X509831Y339265D01*
X510229Y340226D01*
X510365Y341258D01*
X510229Y342290D01*
X509831Y343252D01*
X509197Y344077D01*
X508371Y344711D01*
X507410Y345109D01*
X506378Y345245D01*
D02*
G37*
G36*
X400200Y336840D02*
Y335400D01*
X401640D01*
X401584Y335680D01*
X401142Y336342D01*
X400480Y336784D01*
X400200Y336840D01*
D02*
G37*
G36*
X399200D02*
X398920Y336784D01*
X398258Y336342D01*
X397816Y335680D01*
X397760Y335400D01*
X399200D01*
Y336840D01*
D02*
G37*
G36*
X401640Y334400D02*
X400200D01*
Y332960D01*
X400480Y333016D01*
X401142Y333458D01*
X401584Y334120D01*
X401640Y334400D01*
D02*
G37*
G36*
X399200D02*
X397760D01*
X397816Y334120D01*
X398258Y333458D01*
X398920Y333016D01*
X399200Y332960D01*
Y334400D01*
D02*
G37*
G36*
X478268Y332978D02*
Y331538D01*
X479708D01*
X479653Y331818D01*
X479210Y332480D01*
X478549Y332922D01*
X478268Y332978D01*
D02*
G37*
G36*
X477269D02*
X476988Y332922D01*
X476327Y332480D01*
X475884Y331818D01*
X475829Y331538D01*
X477269D01*
Y332978D01*
D02*
G37*
G36*
X479708Y330538D02*
X478268D01*
Y329098D01*
X478549Y329154D01*
X479210Y329596D01*
X479653Y330257D01*
X479708Y330538D01*
D02*
G37*
G36*
X477269D02*
X475829D01*
X475884Y330257D01*
X476327Y329596D01*
X476988Y329154D01*
X477269Y329098D01*
Y330538D01*
D02*
G37*
G36*
X246050Y329358D02*
Y326250D01*
X249158D01*
X249076Y326878D01*
X248737Y327696D01*
X248198Y328398D01*
X247496Y328937D01*
X246678Y329276D01*
X246050Y329358D01*
D02*
G37*
G36*
X245550D02*
X244922Y329276D01*
X244104Y328937D01*
X243402Y328398D01*
X242863Y327696D01*
X242524Y326878D01*
X242442Y326250D01*
X245550D01*
Y329358D01*
D02*
G37*
G36*
X238150D02*
Y326250D01*
X241258D01*
X241176Y326878D01*
X240837Y327696D01*
X240298Y328398D01*
X239596Y328937D01*
X238778Y329276D01*
X238150Y329358D01*
D02*
G37*
G36*
X237650D02*
X237022Y329276D01*
X236204Y328937D01*
X235502Y328398D01*
X234963Y327696D01*
X234624Y326878D01*
X234542Y326250D01*
X237650D01*
Y329358D01*
D02*
G37*
G36*
X214350Y329058D02*
Y325950D01*
X217458D01*
X217376Y326578D01*
X217037Y327396D01*
X216498Y328098D01*
X215796Y328637D01*
X214978Y328976D01*
X214350Y329058D01*
D02*
G37*
G36*
X222150D02*
Y325950D01*
X225258D01*
X225176Y326578D01*
X224837Y327396D01*
X224298Y328098D01*
X223596Y328637D01*
X222778Y328976D01*
X222150Y329058D01*
D02*
G37*
G36*
X213850D02*
X213222Y328976D01*
X212404Y328637D01*
X211702Y328098D01*
X211163Y327396D01*
X210824Y326578D01*
X210742Y325950D01*
X213850D01*
Y329058D01*
D02*
G37*
G36*
X221650D02*
X221022Y328976D01*
X220204Y328637D01*
X219502Y328098D01*
X218963Y327396D01*
X218624Y326578D01*
X218542Y325950D01*
X221650D01*
Y329058D01*
D02*
G37*
G36*
X416378Y339481D02*
X405259D01*
X404869Y339403D01*
X404538Y339182D01*
X404317Y338852D01*
X404239Y338461D01*
Y326862D01*
X404317Y326471D01*
X404538Y326140D01*
X404869Y325920D01*
X405259Y325842D01*
X416378D01*
X416768Y325920D01*
X417099Y326140D01*
X417320Y326471D01*
X417398Y326862D01*
Y331319D01*
X420481D01*
Y335681D01*
X417398D01*
Y338461D01*
X417320Y338852D01*
X417099Y339182D01*
X416768Y339403D01*
X416378Y339481D01*
D02*
G37*
G36*
X249158Y325750D02*
X246050D01*
Y322642D01*
X246678Y322724D01*
X247496Y323063D01*
X248198Y323602D01*
X248737Y324304D01*
X249076Y325122D01*
X249158Y325750D01*
D02*
G37*
G36*
X245550D02*
X242442D01*
X242524Y325122D01*
X242863Y324304D01*
X243402Y323602D01*
X244104Y323063D01*
X244922Y322724D01*
X245550Y322642D01*
Y325750D01*
D02*
G37*
G36*
X241258D02*
X238150D01*
Y322642D01*
X238778Y322724D01*
X239596Y323063D01*
X240298Y323602D01*
X240837Y324304D01*
X241176Y325122D01*
X241258Y325750D01*
D02*
G37*
G36*
X237650D02*
X234542D01*
X234624Y325122D01*
X234963Y324304D01*
X235502Y323602D01*
X236204Y323063D01*
X237022Y322724D01*
X237650Y322642D01*
Y325750D01*
D02*
G37*
G36*
X225258Y325450D02*
X222150D01*
Y322342D01*
X222778Y322424D01*
X223596Y322763D01*
X224298Y323302D01*
X224837Y324004D01*
X225176Y324822D01*
X225258Y325450D01*
D02*
G37*
G36*
X217458D02*
X214350D01*
Y322342D01*
X214978Y322424D01*
X215796Y322763D01*
X216498Y323302D01*
X217037Y324004D01*
X217376Y324822D01*
X217458Y325450D01*
D02*
G37*
G36*
X221650D02*
X218542D01*
X218624Y324822D01*
X218963Y324004D01*
X219502Y323302D01*
X220204Y322763D01*
X221022Y322424D01*
X221650Y322342D01*
Y325450D01*
D02*
G37*
G36*
X213850D02*
X210742D01*
X210824Y324822D01*
X211163Y324004D01*
X211702Y323302D01*
X212404Y322763D01*
X213222Y322424D01*
X213850Y322342D01*
Y325450D01*
D02*
G37*
G36*
X484969Y322778D02*
Y321338D01*
X486408D01*
X486352Y321618D01*
X485910Y322280D01*
X485249Y322722D01*
X484969Y322778D01*
D02*
G37*
G36*
X483968D02*
X483688Y322722D01*
X483027Y322280D01*
X482584Y321618D01*
X482529Y321338D01*
X483968D01*
Y322778D01*
D02*
G37*
G36*
X486408Y320338D02*
X484969D01*
Y318898D01*
X485249Y318954D01*
X485910Y319396D01*
X486352Y320057D01*
X486408Y320338D01*
D02*
G37*
G36*
X483968D02*
X482529D01*
X482584Y320057D01*
X483027Y319396D01*
X483688Y318954D01*
X483968Y318898D01*
Y320338D01*
D02*
G37*
G36*
X246050Y321458D02*
Y318350D01*
X249158D01*
X249076Y318978D01*
X248737Y319796D01*
X248198Y320498D01*
X247496Y321037D01*
X246678Y321376D01*
X246050Y321458D01*
D02*
G37*
G36*
X245550D02*
X244922Y321376D01*
X244104Y321037D01*
X243402Y320498D01*
X242863Y319796D01*
X242524Y318978D01*
X242442Y318350D01*
X245550D01*
Y321458D01*
D02*
G37*
G36*
X238150D02*
Y318350D01*
X241258D01*
X241176Y318978D01*
X240837Y319796D01*
X240298Y320498D01*
X239596Y321037D01*
X238778Y321376D01*
X238150Y321458D01*
D02*
G37*
G36*
X237650D02*
X237022Y321376D01*
X236204Y321037D01*
X235502Y320498D01*
X234963Y319796D01*
X234624Y318978D01*
X234542Y318350D01*
X237650D01*
Y321458D01*
D02*
G37*
G36*
X214350Y321158D02*
Y318050D01*
X217458D01*
X217376Y318678D01*
X217037Y319496D01*
X216498Y320198D01*
X215796Y320737D01*
X214978Y321076D01*
X214350Y321158D01*
D02*
G37*
G36*
X222150D02*
Y318050D01*
X225258D01*
X225176Y318678D01*
X224837Y319496D01*
X224298Y320198D01*
X223596Y320737D01*
X222778Y321076D01*
X222150Y321158D01*
D02*
G37*
G36*
X213850D02*
X213222Y321076D01*
X212404Y320737D01*
X211702Y320198D01*
X211163Y319496D01*
X210824Y318678D01*
X210742Y318050D01*
X213850D01*
Y321158D01*
D02*
G37*
G36*
X221650D02*
X221022Y321076D01*
X220204Y320737D01*
X219502Y320198D01*
X218963Y319496D01*
X218624Y318678D01*
X218542Y318050D01*
X221650D01*
Y321158D01*
D02*
G37*
G36*
X249158Y317850D02*
X246050D01*
Y314742D01*
X246678Y314824D01*
X247496Y315163D01*
X248198Y315702D01*
X248737Y316404D01*
X249076Y317222D01*
X249158Y317850D01*
D02*
G37*
G36*
X245550D02*
X242442D01*
X242524Y317222D01*
X242863Y316404D01*
X243402Y315702D01*
X244104Y315163D01*
X244922Y314824D01*
X245550Y314742D01*
Y317850D01*
D02*
G37*
G36*
X241258D02*
X238150D01*
Y314742D01*
X238778Y314824D01*
X239596Y315163D01*
X240298Y315702D01*
X240837Y316404D01*
X241176Y317222D01*
X241258Y317850D01*
D02*
G37*
G36*
X237650D02*
X234542D01*
X234624Y317222D01*
X234963Y316404D01*
X235502Y315702D01*
X236204Y315163D01*
X237022Y314824D01*
X237650Y314742D01*
Y317850D01*
D02*
G37*
G36*
X225258Y317550D02*
X222150D01*
Y314442D01*
X222778Y314524D01*
X223596Y314863D01*
X224298Y315402D01*
X224837Y316104D01*
X225176Y316922D01*
X225258Y317550D01*
D02*
G37*
G36*
X217458D02*
X214350D01*
Y314442D01*
X214978Y314524D01*
X215796Y314863D01*
X216498Y315402D01*
X217037Y316104D01*
X217376Y316922D01*
X217458Y317550D01*
D02*
G37*
G36*
X221650D02*
X218542D01*
X218624Y316922D01*
X218963Y316104D01*
X219502Y315402D01*
X220204Y314863D01*
X221022Y314524D01*
X221650Y314442D01*
Y317550D01*
D02*
G37*
G36*
X213850D02*
X210742D01*
X210824Y316922D01*
X211163Y316104D01*
X211702Y315402D01*
X212404Y314863D01*
X213222Y314524D01*
X213850Y314442D01*
Y317550D01*
D02*
G37*
G36*
X454513Y314698D02*
Y313513D01*
X455698D01*
X455662Y313696D01*
X455275Y314275D01*
X454696Y314662D01*
X454513Y314698D01*
D02*
G37*
G36*
X453513D02*
X453331Y314662D01*
X452752Y314275D01*
X452365Y313696D01*
X452328Y313513D01*
X453513D01*
Y314698D01*
D02*
G37*
G36*
X441295D02*
Y313513D01*
X442480D01*
X442444Y313696D01*
X442057Y314275D01*
X441478Y314662D01*
X441295Y314698D01*
D02*
G37*
G36*
X440295D02*
X440112Y314662D01*
X439534Y314275D01*
X439147Y313696D01*
X439110Y313513D01*
X440295D01*
Y314698D01*
D02*
G37*
G36*
X428077D02*
Y313513D01*
X429262D01*
X429225Y313696D01*
X428839Y314275D01*
X428260Y314662D01*
X428077Y314698D01*
D02*
G37*
G36*
X427077D02*
X426894Y314662D01*
X426315Y314275D01*
X425928Y313696D01*
X425892Y313513D01*
X427077D01*
Y314698D01*
D02*
G37*
G36*
X414859D02*
Y313513D01*
X416044D01*
X416007Y313696D01*
X415621Y314275D01*
X415042Y314662D01*
X414859Y314698D01*
D02*
G37*
G36*
X413859D02*
X413676Y314662D01*
X413097Y314275D01*
X412710Y313696D01*
X412674Y313513D01*
X413859D01*
Y314698D01*
D02*
G37*
G36*
X401641D02*
Y313513D01*
X402825D01*
X402789Y313696D01*
X402402Y314275D01*
X401824Y314662D01*
X401641Y314698D01*
D02*
G37*
G36*
X400641D02*
X400458Y314662D01*
X399879Y314275D01*
X399492Y313696D01*
X399456Y313513D01*
X400641D01*
Y314698D01*
D02*
G37*
G36*
X388422D02*
Y313513D01*
X389607D01*
X389571Y313696D01*
X389184Y314275D01*
X388605Y314662D01*
X388422Y314698D01*
D02*
G37*
G36*
X387422D02*
X387240Y314662D01*
X386661Y314275D01*
X386274Y313696D01*
X386238Y313513D01*
X387422D01*
Y314698D01*
D02*
G37*
G36*
X375204D02*
Y313513D01*
X376389D01*
X376353Y313696D01*
X375966Y314275D01*
X375387Y314662D01*
X375204Y314698D01*
D02*
G37*
G36*
X374204D02*
X374022Y314662D01*
X373443Y314275D01*
X373056Y313696D01*
X373020Y313513D01*
X374204D01*
Y314698D01*
D02*
G37*
G36*
X361986D02*
Y313513D01*
X363171D01*
X363135Y313696D01*
X362748Y314275D01*
X362169Y314662D01*
X361986Y314698D01*
D02*
G37*
G36*
X360986D02*
X360803Y314662D01*
X360224Y314275D01*
X359838Y313696D01*
X359801Y313513D01*
X360986D01*
Y314698D01*
D02*
G37*
G36*
X348768D02*
Y313513D01*
X349953D01*
X349916Y313696D01*
X349530Y314275D01*
X348951Y314662D01*
X348768Y314698D01*
D02*
G37*
G36*
X347768D02*
X347585Y314662D01*
X347006Y314275D01*
X346620Y313696D01*
X346583Y313513D01*
X347768D01*
Y314698D01*
D02*
G37*
G36*
X335550D02*
Y313513D01*
X336735D01*
X336698Y313696D01*
X336311Y314275D01*
X335733Y314662D01*
X335550Y314698D01*
D02*
G37*
G36*
X334550D02*
X334367Y314662D01*
X333788Y314275D01*
X333401Y313696D01*
X333365Y313513D01*
X334550D01*
Y314698D01*
D02*
G37*
G36*
X322332D02*
Y313513D01*
X323516D01*
X323480Y313696D01*
X323093Y314275D01*
X322514Y314662D01*
X322332Y314698D01*
D02*
G37*
G36*
X321332D02*
X321149Y314662D01*
X320570Y314275D01*
X320183Y313696D01*
X320147Y313513D01*
X321332D01*
Y314698D01*
D02*
G37*
G36*
X309100Y314685D02*
Y313500D01*
X310285D01*
X310248Y313683D01*
X309862Y314262D01*
X309283Y314649D01*
X309100Y314685D01*
D02*
G37*
G36*
X308100D02*
X307917Y314649D01*
X307338Y314262D01*
X306951Y313683D01*
X306915Y313500D01*
X308100D01*
Y314685D01*
D02*
G37*
G36*
X477669Y312872D02*
Y311432D01*
X479108D01*
X479052Y311713D01*
X478610Y312374D01*
X477949Y312816D01*
X477669Y312872D01*
D02*
G37*
G36*
X476669D02*
X476388Y312816D01*
X475727Y312374D01*
X475284Y311713D01*
X475229Y311432D01*
X476669D01*
Y312872D01*
D02*
G37*
G36*
X455698Y312513D02*
X454513D01*
Y311329D01*
X454696Y311365D01*
X455275Y311752D01*
X455662Y312331D01*
X455698Y312513D01*
D02*
G37*
G36*
X453513D02*
X452328D01*
X452365Y312331D01*
X452752Y311752D01*
X453331Y311365D01*
X453513Y311329D01*
Y312513D01*
D02*
G37*
G36*
X442480D02*
X441295D01*
Y311329D01*
X441478Y311365D01*
X442057Y311752D01*
X442444Y312331D01*
X442480Y312513D01*
D02*
G37*
G36*
X440295D02*
X439110D01*
X439147Y312331D01*
X439534Y311752D01*
X440112Y311365D01*
X440295Y311329D01*
Y312513D01*
D02*
G37*
G36*
X429262D02*
X428077D01*
Y311329D01*
X428260Y311365D01*
X428839Y311752D01*
X429225Y312331D01*
X429262Y312513D01*
D02*
G37*
G36*
X427077D02*
X425892D01*
X425928Y312331D01*
X426315Y311752D01*
X426894Y311365D01*
X427077Y311329D01*
Y312513D01*
D02*
G37*
G36*
X416044D02*
X414859D01*
Y311329D01*
X415042Y311365D01*
X415621Y311752D01*
X416007Y312331D01*
X416044Y312513D01*
D02*
G37*
G36*
X413859D02*
X412674D01*
X412710Y312331D01*
X413097Y311752D01*
X413676Y311365D01*
X413859Y311329D01*
Y312513D01*
D02*
G37*
G36*
X402825D02*
X401641D01*
Y311329D01*
X401824Y311365D01*
X402402Y311752D01*
X402789Y312331D01*
X402825Y312513D01*
D02*
G37*
G36*
X400641D02*
X399456D01*
X399492Y312331D01*
X399879Y311752D01*
X400458Y311365D01*
X400641Y311329D01*
Y312513D01*
D02*
G37*
G36*
X389607D02*
X388422D01*
Y311329D01*
X388605Y311365D01*
X389184Y311752D01*
X389571Y312331D01*
X389607Y312513D01*
D02*
G37*
G36*
X387422D02*
X386238D01*
X386274Y312331D01*
X386661Y311752D01*
X387240Y311365D01*
X387422Y311329D01*
Y312513D01*
D02*
G37*
G36*
X376389D02*
X375204D01*
Y311329D01*
X375387Y311365D01*
X375966Y311752D01*
X376353Y312331D01*
X376389Y312513D01*
D02*
G37*
G36*
X374204D02*
X373020D01*
X373056Y312331D01*
X373443Y311752D01*
X374022Y311365D01*
X374204Y311329D01*
Y312513D01*
D02*
G37*
G36*
X363171D02*
X361986D01*
Y311329D01*
X362169Y311365D01*
X362748Y311752D01*
X363135Y312331D01*
X363171Y312513D01*
D02*
G37*
G36*
X360986D02*
X359801D01*
X359838Y312331D01*
X360224Y311752D01*
X360803Y311365D01*
X360986Y311329D01*
Y312513D01*
D02*
G37*
G36*
X349953D02*
X348768D01*
Y311329D01*
X348951Y311365D01*
X349530Y311752D01*
X349916Y312331D01*
X349953Y312513D01*
D02*
G37*
G36*
X347768D02*
X346583D01*
X346620Y312331D01*
X347006Y311752D01*
X347585Y311365D01*
X347768Y311329D01*
Y312513D01*
D02*
G37*
G36*
X336735D02*
X335550D01*
Y311329D01*
X335733Y311365D01*
X336311Y311752D01*
X336698Y312331D01*
X336735Y312513D01*
D02*
G37*
G36*
X334550D02*
X333365D01*
X333401Y312331D01*
X333788Y311752D01*
X334367Y311365D01*
X334550Y311329D01*
Y312513D01*
D02*
G37*
G36*
X323516D02*
X322332D01*
Y311329D01*
X322514Y311365D01*
X323093Y311752D01*
X323480Y312331D01*
X323516Y312513D01*
D02*
G37*
G36*
X321332D02*
X320147D01*
X320183Y312331D01*
X320570Y311752D01*
X321149Y311365D01*
X321332Y311329D01*
Y312513D01*
D02*
G37*
G36*
X310285Y312500D02*
X309100D01*
Y311315D01*
X309283Y311351D01*
X309862Y311738D01*
X310248Y312317D01*
X310285Y312500D01*
D02*
G37*
G36*
X308100D02*
X306915D01*
X306951Y312317D01*
X307338Y311738D01*
X307917Y311351D01*
X308100Y311315D01*
Y312500D01*
D02*
G37*
G36*
X491268Y312477D02*
Y311038D01*
X492708D01*
X492653Y311318D01*
X492210Y311980D01*
X491549Y312422D01*
X491268Y312477D01*
D02*
G37*
G36*
X490269D02*
X489988Y312422D01*
X489327Y311980D01*
X488884Y311318D01*
X488829Y311038D01*
X490269D01*
Y312477D01*
D02*
G37*
G36*
X246050Y313558D02*
Y310450D01*
X249158D01*
X249076Y311078D01*
X248737Y311896D01*
X248198Y312598D01*
X247496Y313137D01*
X246678Y313476D01*
X246050Y313558D01*
D02*
G37*
G36*
X245550D02*
X244922Y313476D01*
X244104Y313137D01*
X243402Y312598D01*
X242863Y311896D01*
X242524Y311078D01*
X242442Y310450D01*
X245550D01*
Y313558D01*
D02*
G37*
G36*
X238150D02*
Y310450D01*
X241258D01*
X241176Y311078D01*
X240837Y311896D01*
X240298Y312598D01*
X239596Y313137D01*
X238778Y313476D01*
X238150Y313558D01*
D02*
G37*
G36*
X237650D02*
X237022Y313476D01*
X236204Y313137D01*
X235502Y312598D01*
X234963Y311896D01*
X234624Y311078D01*
X234542Y310450D01*
X237650D01*
Y313558D01*
D02*
G37*
G36*
X214350Y313258D02*
Y310150D01*
X217458D01*
X217376Y310778D01*
X217037Y311596D01*
X216498Y312298D01*
X215796Y312837D01*
X214978Y313176D01*
X214350Y313258D01*
D02*
G37*
G36*
X222150D02*
Y310150D01*
X225258D01*
X225176Y310778D01*
X224837Y311596D01*
X224298Y312298D01*
X223596Y312837D01*
X222778Y313176D01*
X222150Y313258D01*
D02*
G37*
G36*
X213850D02*
X213222Y313176D01*
X212404Y312837D01*
X211702Y312298D01*
X211163Y311596D01*
X210824Y310778D01*
X210742Y310150D01*
X213850D01*
Y313258D01*
D02*
G37*
G36*
X221650D02*
X221022Y313176D01*
X220204Y312837D01*
X219502Y312298D01*
X218963Y311596D01*
X218624Y310778D01*
X218542Y310150D01*
X221650D01*
Y313258D01*
D02*
G37*
G36*
X479108Y310432D02*
X477669D01*
Y308993D01*
X477949Y309048D01*
X478610Y309490D01*
X479052Y310152D01*
X479108Y310432D01*
D02*
G37*
G36*
X476669D02*
X475229D01*
X475284Y310152D01*
X475727Y309490D01*
X476388Y309048D01*
X476669Y308993D01*
Y310432D01*
D02*
G37*
G36*
X492708Y310038D02*
X491268D01*
Y308598D01*
X491549Y308654D01*
X492210Y309096D01*
X492653Y309757D01*
X492708Y310038D01*
D02*
G37*
G36*
X490269D02*
X488829D01*
X488884Y309757D01*
X489327Y309096D01*
X489988Y308654D01*
X490269Y308598D01*
Y310038D01*
D02*
G37*
G36*
X249158Y309950D02*
X246050D01*
Y306842D01*
X246678Y306924D01*
X247496Y307263D01*
X248198Y307802D01*
X248737Y308504D01*
X249076Y309322D01*
X249158Y309950D01*
D02*
G37*
G36*
X245550D02*
X242442D01*
X242524Y309322D01*
X242863Y308504D01*
X243402Y307802D01*
X244104Y307263D01*
X244922Y306924D01*
X245550Y306842D01*
Y309950D01*
D02*
G37*
G36*
X241258D02*
X238150D01*
Y306842D01*
X238778Y306924D01*
X239596Y307263D01*
X240298Y307802D01*
X240837Y308504D01*
X241176Y309322D01*
X241258Y309950D01*
D02*
G37*
G36*
X237650D02*
X234542D01*
X234624Y309322D01*
X234963Y308504D01*
X235502Y307802D01*
X236204Y307263D01*
X237022Y306924D01*
X237650Y306842D01*
Y309950D01*
D02*
G37*
G36*
X225258Y309650D02*
X222150D01*
Y306542D01*
X222778Y306624D01*
X223596Y306963D01*
X224298Y307502D01*
X224837Y308204D01*
X225176Y309022D01*
X225258Y309650D01*
D02*
G37*
G36*
X217458D02*
X214350D01*
Y306542D01*
X214978Y306624D01*
X215796Y306963D01*
X216498Y307502D01*
X217037Y308204D01*
X217376Y309022D01*
X217458Y309650D01*
D02*
G37*
G36*
X221650D02*
X218542D01*
X218624Y309022D01*
X218963Y308204D01*
X219502Y307502D01*
X220204Y306963D01*
X221022Y306624D01*
X221650Y306542D01*
Y309650D01*
D02*
G37*
G36*
X213850D02*
X210742D01*
X210824Y309022D01*
X211163Y308204D01*
X211702Y307502D01*
X212404Y306963D01*
X213222Y306624D01*
X213850Y306542D01*
Y309650D01*
D02*
G37*
G36*
X246050Y305658D02*
Y302550D01*
X249158D01*
X249076Y303178D01*
X248737Y303996D01*
X248198Y304698D01*
X247496Y305237D01*
X246678Y305576D01*
X246050Y305658D01*
D02*
G37*
G36*
X245550D02*
X244922Y305576D01*
X244104Y305237D01*
X243402Y304698D01*
X242863Y303996D01*
X242524Y303178D01*
X242442Y302550D01*
X245550D01*
Y305658D01*
D02*
G37*
G36*
X238150D02*
Y302550D01*
X241258D01*
X241176Y303178D01*
X240837Y303996D01*
X240298Y304698D01*
X239596Y305237D01*
X238778Y305576D01*
X238150Y305658D01*
D02*
G37*
G36*
X237650D02*
X237022Y305576D01*
X236204Y305237D01*
X235502Y304698D01*
X234963Y303996D01*
X234624Y303178D01*
X234542Y302550D01*
X237650D01*
Y305658D01*
D02*
G37*
G36*
X214350Y305358D02*
Y302250D01*
X217458D01*
X217376Y302878D01*
X217037Y303696D01*
X216498Y304398D01*
X215796Y304937D01*
X214978Y305276D01*
X214350Y305358D01*
D02*
G37*
G36*
X222150D02*
Y302250D01*
X225258D01*
X225176Y302878D01*
X224837Y303696D01*
X224298Y304398D01*
X223596Y304937D01*
X222778Y305276D01*
X222150Y305358D01*
D02*
G37*
G36*
X213850D02*
X213222Y305276D01*
X212404Y304937D01*
X211702Y304398D01*
X211163Y303696D01*
X210824Y302878D01*
X210742Y302250D01*
X213850D01*
Y305358D01*
D02*
G37*
G36*
X221650D02*
X221022Y305276D01*
X220204Y304937D01*
X219502Y304398D01*
X218963Y303696D01*
X218624Y302878D01*
X218542Y302250D01*
X221650D01*
Y305358D01*
D02*
G37*
G36*
X249158Y302050D02*
X246050D01*
Y298942D01*
X246678Y299024D01*
X247496Y299363D01*
X248198Y299902D01*
X248737Y300604D01*
X249076Y301422D01*
X249158Y302050D01*
D02*
G37*
G36*
X245550D02*
X242442D01*
X242524Y301422D01*
X242863Y300604D01*
X243402Y299902D01*
X244104Y299363D01*
X244922Y299024D01*
X245550Y298942D01*
Y302050D01*
D02*
G37*
G36*
X241258D02*
X238150D01*
Y298942D01*
X238778Y299024D01*
X239596Y299363D01*
X240298Y299902D01*
X240837Y300604D01*
X241176Y301422D01*
X241258Y302050D01*
D02*
G37*
G36*
X237650D02*
X234542D01*
X234624Y301422D01*
X234963Y300604D01*
X235502Y299902D01*
X236204Y299363D01*
X237022Y299024D01*
X237650Y298942D01*
Y302050D01*
D02*
G37*
G36*
X225258Y301750D02*
X222150D01*
Y298642D01*
X222778Y298724D01*
X223596Y299063D01*
X224298Y299602D01*
X224837Y300304D01*
X225176Y301122D01*
X225258Y301750D01*
D02*
G37*
G36*
X217458D02*
X214350D01*
Y298642D01*
X214978Y298724D01*
X215796Y299063D01*
X216498Y299602D01*
X217037Y300304D01*
X217376Y301122D01*
X217458Y301750D01*
D02*
G37*
G36*
X221650D02*
X218542D01*
X218624Y301122D01*
X218963Y300304D01*
X219502Y299602D01*
X220204Y299063D01*
X221022Y298724D01*
X221650Y298642D01*
Y301750D01*
D02*
G37*
G36*
X213850D02*
X210742D01*
X210824Y301122D01*
X211163Y300304D01*
X211702Y299602D01*
X212404Y299063D01*
X213222Y298724D01*
X213850Y298642D01*
Y301750D01*
D02*
G37*
G36*
X246050Y297758D02*
Y294650D01*
X249158D01*
X249076Y295278D01*
X248737Y296096D01*
X248198Y296798D01*
X247496Y297337D01*
X246678Y297676D01*
X246050Y297758D01*
D02*
G37*
G36*
X245550D02*
X244922Y297676D01*
X244104Y297337D01*
X243402Y296798D01*
X242863Y296096D01*
X242524Y295278D01*
X242442Y294650D01*
X245550D01*
Y297758D01*
D02*
G37*
G36*
X238150D02*
Y294650D01*
X241258D01*
X241176Y295278D01*
X240837Y296096D01*
X240298Y296798D01*
X239596Y297337D01*
X238778Y297676D01*
X238150Y297758D01*
D02*
G37*
G36*
X237650D02*
X237022Y297676D01*
X236204Y297337D01*
X235502Y296798D01*
X234963Y296096D01*
X234624Y295278D01*
X234542Y294650D01*
X237650D01*
Y297758D01*
D02*
G37*
G36*
X214350Y297458D02*
Y294350D01*
X217458D01*
X217376Y294978D01*
X217037Y295796D01*
X216498Y296498D01*
X215796Y297037D01*
X214978Y297376D01*
X214350Y297458D01*
D02*
G37*
G36*
X222150D02*
Y294350D01*
X225258D01*
X225176Y294978D01*
X224837Y295796D01*
X224298Y296498D01*
X223596Y297037D01*
X222778Y297376D01*
X222150Y297458D01*
D02*
G37*
G36*
X213850D02*
X213222Y297376D01*
X212404Y297037D01*
X211702Y296498D01*
X211163Y295796D01*
X210824Y294978D01*
X210742Y294350D01*
X213850D01*
Y297458D01*
D02*
G37*
G36*
X221650D02*
X221022Y297376D01*
X220204Y297037D01*
X219502Y296498D01*
X218963Y295796D01*
X218624Y294978D01*
X218542Y294350D01*
X221650D01*
Y297458D01*
D02*
G37*
G36*
X249158Y294150D02*
X246050D01*
Y291042D01*
X246678Y291124D01*
X247496Y291463D01*
X248198Y292002D01*
X248737Y292704D01*
X249076Y293522D01*
X249158Y294150D01*
D02*
G37*
G36*
X245550D02*
X242442D01*
X242524Y293522D01*
X242863Y292704D01*
X243402Y292002D01*
X244104Y291463D01*
X244922Y291124D01*
X245550Y291042D01*
Y294150D01*
D02*
G37*
G36*
X241258D02*
X238150D01*
Y291042D01*
X238778Y291124D01*
X239596Y291463D01*
X240298Y292002D01*
X240837Y292704D01*
X241176Y293522D01*
X241258Y294150D01*
D02*
G37*
G36*
X237650D02*
X234542D01*
X234624Y293522D01*
X234963Y292704D01*
X235502Y292002D01*
X236204Y291463D01*
X237022Y291124D01*
X237650Y291042D01*
Y294150D01*
D02*
G37*
G36*
X225258Y293850D02*
X222150D01*
Y290742D01*
X222778Y290824D01*
X223596Y291163D01*
X224298Y291702D01*
X224837Y292404D01*
X225176Y293222D01*
X225258Y293850D01*
D02*
G37*
G36*
X217458D02*
X214350D01*
Y290742D01*
X214978Y290824D01*
X215796Y291163D01*
X216498Y291702D01*
X217037Y292404D01*
X217376Y293222D01*
X217458Y293850D01*
D02*
G37*
G36*
X221650D02*
X218542D01*
X218624Y293222D01*
X218963Y292404D01*
X219502Y291702D01*
X220204Y291163D01*
X221022Y290824D01*
X221650Y290742D01*
Y293850D01*
D02*
G37*
G36*
X213850D02*
X210742D01*
X210824Y293222D01*
X211163Y292404D01*
X211702Y291702D01*
X212404Y291163D01*
X213222Y290824D01*
X213850Y290742D01*
Y293850D01*
D02*
G37*
G36*
X246050Y289958D02*
Y286850D01*
X249158D01*
X249076Y287478D01*
X248737Y288296D01*
X248198Y288998D01*
X247496Y289537D01*
X246678Y289876D01*
X246050Y289958D01*
D02*
G37*
G36*
X245550D02*
X244922Y289876D01*
X244104Y289537D01*
X243402Y288998D01*
X242863Y288296D01*
X242524Y287478D01*
X242442Y286850D01*
X245550D01*
Y289958D01*
D02*
G37*
G36*
X238150D02*
Y286850D01*
X241258D01*
X241176Y287478D01*
X240837Y288296D01*
X240298Y288998D01*
X239596Y289537D01*
X238778Y289876D01*
X238150Y289958D01*
D02*
G37*
G36*
X237650D02*
X237022Y289876D01*
X236204Y289537D01*
X235502Y288998D01*
X234963Y288296D01*
X234624Y287478D01*
X234542Y286850D01*
X237650D01*
Y289958D01*
D02*
G37*
G36*
X214350Y289558D02*
Y286450D01*
X217458D01*
X217376Y287078D01*
X217037Y287896D01*
X216498Y288598D01*
X215796Y289137D01*
X214978Y289476D01*
X214350Y289558D01*
D02*
G37*
G36*
X222150D02*
Y286450D01*
X225258D01*
X225176Y287078D01*
X224837Y287896D01*
X224298Y288598D01*
X223596Y289137D01*
X222778Y289476D01*
X222150Y289558D01*
D02*
G37*
G36*
X213850D02*
X213222Y289476D01*
X212404Y289137D01*
X211702Y288598D01*
X211163Y287896D01*
X210824Y287078D01*
X210742Y286450D01*
X213850D01*
Y289558D01*
D02*
G37*
G36*
X221650D02*
X221022Y289476D01*
X220204Y289137D01*
X219502Y288598D01*
X218963Y287896D01*
X218624Y287078D01*
X218542Y286450D01*
X221650D01*
Y289558D01*
D02*
G37*
G36*
X509000Y293987D02*
X507968Y293851D01*
X507007Y293453D01*
X506181Y292819D01*
X505547Y291993D01*
X505149Y291032D01*
X505013Y290000D01*
X505149Y288968D01*
X505547Y288007D01*
X506181Y287181D01*
X507007Y286547D01*
X507968Y286149D01*
X509000Y286013D01*
X510032Y286149D01*
X510993Y286547D01*
X511819Y287181D01*
X512453Y288007D01*
X512851Y288968D01*
X512987Y290000D01*
X512851Y291032D01*
X512453Y291993D01*
X511819Y292819D01*
X510993Y293453D01*
X510032Y293851D01*
X509000Y293987D01*
D02*
G37*
G36*
X249158Y286350D02*
X246050D01*
Y283242D01*
X246678Y283324D01*
X247496Y283663D01*
X248198Y284202D01*
X248737Y284904D01*
X249076Y285722D01*
X249158Y286350D01*
D02*
G37*
G36*
X245550D02*
X242442D01*
X242524Y285722D01*
X242863Y284904D01*
X243402Y284202D01*
X244104Y283663D01*
X244922Y283324D01*
X245550Y283242D01*
Y286350D01*
D02*
G37*
G36*
X241258D02*
X238150D01*
Y283242D01*
X238778Y283324D01*
X239596Y283663D01*
X240298Y284202D01*
X240837Y284904D01*
X241176Y285722D01*
X241258Y286350D01*
D02*
G37*
G36*
X237650D02*
X234542D01*
X234624Y285722D01*
X234963Y284904D01*
X235502Y284202D01*
X236204Y283663D01*
X237022Y283324D01*
X237650Y283242D01*
Y286350D01*
D02*
G37*
G36*
X225258Y285950D02*
X222150D01*
Y282842D01*
X222778Y282924D01*
X223596Y283263D01*
X224298Y283802D01*
X224837Y284504D01*
X225176Y285322D01*
X225258Y285950D01*
D02*
G37*
G36*
X217458D02*
X214350D01*
Y282842D01*
X214978Y282924D01*
X215796Y283263D01*
X216498Y283802D01*
X217037Y284504D01*
X217376Y285322D01*
X217458Y285950D01*
D02*
G37*
G36*
X221650D02*
X218542D01*
X218624Y285322D01*
X218963Y284504D01*
X219502Y283802D01*
X220204Y283263D01*
X221022Y282924D01*
X221650Y282842D01*
Y285950D01*
D02*
G37*
G36*
X213850D02*
X210742D01*
X210824Y285322D01*
X211163Y284504D01*
X211702Y283802D01*
X212404Y283263D01*
X213222Y282924D01*
X213850Y282842D01*
Y285950D01*
D02*
G37*
G36*
X246050Y282058D02*
Y278950D01*
X249158D01*
X249076Y279578D01*
X248737Y280396D01*
X248198Y281098D01*
X247496Y281637D01*
X246678Y281976D01*
X246050Y282058D01*
D02*
G37*
G36*
X245550D02*
X244922Y281976D01*
X244104Y281637D01*
X243402Y281098D01*
X242863Y280396D01*
X242524Y279578D01*
X242442Y278950D01*
X245550D01*
Y282058D01*
D02*
G37*
G36*
X238150D02*
Y278950D01*
X241258D01*
X241176Y279578D01*
X240837Y280396D01*
X240298Y281098D01*
X239596Y281637D01*
X238778Y281976D01*
X238150Y282058D01*
D02*
G37*
G36*
X237650D02*
X237022Y281976D01*
X236204Y281637D01*
X235502Y281098D01*
X234963Y280396D01*
X234624Y279578D01*
X234542Y278950D01*
X237650D01*
Y282058D01*
D02*
G37*
G36*
X222050Y281658D02*
Y278550D01*
X225158D01*
X225076Y279178D01*
X224737Y279996D01*
X224198Y280698D01*
X223496Y281237D01*
X222678Y281576D01*
X222050Y281658D01*
D02*
G37*
G36*
X214250D02*
Y278550D01*
X217358D01*
X217276Y279178D01*
X216937Y279996D01*
X216398Y280698D01*
X215696Y281237D01*
X214878Y281576D01*
X214250Y281658D01*
D02*
G37*
G36*
X221550D02*
X220922Y281576D01*
X220104Y281237D01*
X219402Y280698D01*
X218863Y279996D01*
X218524Y279178D01*
X218442Y278550D01*
X221550D01*
Y281658D01*
D02*
G37*
G36*
X213750D02*
X213122Y281576D01*
X212304Y281237D01*
X211602Y280698D01*
X211063Y279996D01*
X210724Y279178D01*
X210642Y278550D01*
X213750D01*
Y281658D01*
D02*
G37*
G36*
X509000Y283987D02*
X507968Y283851D01*
X507007Y283453D01*
X506181Y282819D01*
X505547Y281993D01*
X505149Y281032D01*
X505013Y280000D01*
X505149Y278968D01*
X505547Y278007D01*
X506181Y277181D01*
X507007Y276547D01*
X507968Y276149D01*
X509000Y276013D01*
X510032Y276149D01*
X510993Y276547D01*
X511819Y277181D01*
X512453Y278007D01*
X512851Y278968D01*
X512987Y280000D01*
X512851Y281032D01*
X512453Y281993D01*
X511819Y282819D01*
X510993Y283453D01*
X510032Y283851D01*
X509000Y283987D01*
D02*
G37*
G36*
X249158Y278450D02*
X246050D01*
Y275342D01*
X246678Y275424D01*
X247496Y275763D01*
X248198Y276302D01*
X248737Y277004D01*
X249076Y277822D01*
X249158Y278450D01*
D02*
G37*
G36*
X245550D02*
X242442D01*
X242524Y277822D01*
X242863Y277004D01*
X243402Y276302D01*
X244104Y275763D01*
X244922Y275424D01*
X245550Y275342D01*
Y278450D01*
D02*
G37*
G36*
X241258D02*
X238150D01*
Y275342D01*
X238778Y275424D01*
X239596Y275763D01*
X240298Y276302D01*
X240837Y277004D01*
X241176Y277822D01*
X241258Y278450D01*
D02*
G37*
G36*
X237650D02*
X234542D01*
X234624Y277822D01*
X234963Y277004D01*
X235502Y276302D01*
X236204Y275763D01*
X237022Y275424D01*
X237650Y275342D01*
Y278450D01*
D02*
G37*
G36*
X412461Y282437D02*
X411532Y282315D01*
X410667Y281957D01*
X409923Y281386D01*
X409353Y280643D01*
X408994Y279777D01*
X408872Y278848D01*
X408994Y277919D01*
X409353Y277053D01*
X409923Y276309D01*
X410667Y275739D01*
X411532Y275380D01*
X412461Y275258D01*
X413390Y275380D01*
X414256Y275739D01*
X415000Y276309D01*
X415570Y277053D01*
X415929Y277919D01*
X416051Y278848D01*
X415929Y279777D01*
X415570Y280643D01*
X415000Y281386D01*
X414256Y281957D01*
X413390Y282315D01*
X412461Y282437D01*
D02*
G37*
G36*
X402461D02*
X401532Y282315D01*
X400667Y281957D01*
X399923Y281386D01*
X399353Y280643D01*
X398994Y279777D01*
X398872Y278848D01*
X398994Y277919D01*
X399353Y277053D01*
X399923Y276309D01*
X400667Y275739D01*
X401532Y275380D01*
X402461Y275258D01*
X403391Y275380D01*
X404256Y275739D01*
X405000Y276309D01*
X405570Y277053D01*
X405929Y277919D01*
X406051Y278848D01*
X405929Y279777D01*
X405570Y280643D01*
X405000Y281386D01*
X404256Y281957D01*
X403391Y282315D01*
X402461Y282437D01*
D02*
G37*
G36*
X392461D02*
X391532Y282315D01*
X390667Y281957D01*
X389923Y281386D01*
X389353Y280643D01*
X388994Y279777D01*
X388872Y278848D01*
X388994Y277919D01*
X389353Y277053D01*
X389923Y276309D01*
X390667Y275739D01*
X391532Y275380D01*
X392461Y275258D01*
X393390Y275380D01*
X394256Y275739D01*
X395000Y276309D01*
X395570Y277053D01*
X395929Y277919D01*
X396051Y278848D01*
X395929Y279777D01*
X395570Y280643D01*
X395000Y281386D01*
X394256Y281957D01*
X393390Y282315D01*
X392461Y282437D01*
D02*
G37*
G36*
X382461D02*
X381532Y282315D01*
X380666Y281957D01*
X379923Y281386D01*
X379353Y280643D01*
X378994Y279777D01*
X378872Y278848D01*
X378994Y277919D01*
X379353Y277053D01*
X379923Y276309D01*
X380666Y275739D01*
X381532Y275380D01*
X382461Y275258D01*
X383390Y275380D01*
X384256Y275739D01*
X385000Y276309D01*
X385570Y277053D01*
X385929Y277919D01*
X386051Y278848D01*
X385929Y279777D01*
X385570Y280643D01*
X385000Y281386D01*
X384256Y281957D01*
X383390Y282315D01*
X382461Y282437D01*
D02*
G37*
G36*
X372461D02*
X371532Y282315D01*
X370667Y281957D01*
X369923Y281386D01*
X369353Y280643D01*
X368994Y279777D01*
X368872Y278848D01*
X368994Y277919D01*
X369353Y277053D01*
X369923Y276309D01*
X370667Y275739D01*
X371532Y275380D01*
X372461Y275258D01*
X373391Y275380D01*
X374256Y275739D01*
X375000Y276309D01*
X375570Y277053D01*
X375929Y277919D01*
X376051Y278848D01*
X375929Y279777D01*
X375570Y280643D01*
X375000Y281386D01*
X374256Y281957D01*
X373391Y282315D01*
X372461Y282437D01*
D02*
G37*
G36*
X362461D02*
X361532Y282315D01*
X360666Y281957D01*
X359923Y281386D01*
X359353Y280643D01*
X358994Y279777D01*
X358872Y278848D01*
X358994Y277919D01*
X359353Y277053D01*
X359923Y276309D01*
X360666Y275739D01*
X361532Y275380D01*
X362461Y275258D01*
X363390Y275380D01*
X364256Y275739D01*
X365000Y276309D01*
X365570Y277053D01*
X365929Y277919D01*
X366051Y278848D01*
X365929Y279777D01*
X365570Y280643D01*
X365000Y281386D01*
X364256Y281957D01*
X363390Y282315D01*
X362461Y282437D01*
D02*
G37*
G36*
X225158Y278050D02*
X222050D01*
Y274942D01*
X222678Y275024D01*
X223496Y275363D01*
X224198Y275902D01*
X224737Y276604D01*
X225076Y277422D01*
X225158Y278050D01*
D02*
G37*
G36*
X217358D02*
X214250D01*
Y274942D01*
X214878Y275024D01*
X215696Y275363D01*
X216398Y275902D01*
X216937Y276604D01*
X217276Y277422D01*
X217358Y278050D01*
D02*
G37*
G36*
X221550D02*
X218442D01*
X218524Y277422D01*
X218863Y276604D01*
X219402Y275902D01*
X220104Y275363D01*
X220922Y275024D01*
X221550Y274942D01*
Y278050D01*
D02*
G37*
G36*
X213750D02*
X210642D01*
X210724Y277422D01*
X211063Y276604D01*
X211602Y275902D01*
X212304Y275363D01*
X213122Y275024D01*
X213750Y274942D01*
Y278050D01*
D02*
G37*
G36*
X246050Y274258D02*
Y271150D01*
X249158D01*
X249076Y271778D01*
X248737Y272596D01*
X248198Y273298D01*
X247496Y273837D01*
X246678Y274176D01*
X246050Y274258D01*
D02*
G37*
G36*
X245550D02*
X244922Y274176D01*
X244104Y273837D01*
X243402Y273298D01*
X242863Y272596D01*
X242524Y271778D01*
X242442Y271150D01*
X245550D01*
Y274258D01*
D02*
G37*
G36*
X238150D02*
Y271150D01*
X241258D01*
X241176Y271778D01*
X240837Y272596D01*
X240298Y273298D01*
X239596Y273837D01*
X238778Y274176D01*
X238150Y274258D01*
D02*
G37*
G36*
X237650D02*
X237022Y274176D01*
X236204Y273837D01*
X235502Y273298D01*
X234963Y272596D01*
X234624Y271778D01*
X234542Y271150D01*
X237650D01*
Y274258D01*
D02*
G37*
G36*
X222050Y273758D02*
Y270650D01*
X225158D01*
X225076Y271278D01*
X224737Y272096D01*
X224198Y272798D01*
X223496Y273337D01*
X222678Y273676D01*
X222050Y273758D01*
D02*
G37*
G36*
X214250D02*
Y270650D01*
X217358D01*
X217276Y271278D01*
X216937Y272096D01*
X216398Y272798D01*
X215696Y273337D01*
X214878Y273676D01*
X214250Y273758D01*
D02*
G37*
G36*
X221550D02*
X220922Y273676D01*
X220104Y273337D01*
X219402Y272798D01*
X218863Y272096D01*
X218524Y271278D01*
X218442Y270650D01*
X221550D01*
Y273758D01*
D02*
G37*
G36*
X213750D02*
X213122Y273676D01*
X212304Y273337D01*
X211602Y272798D01*
X211063Y272096D01*
X210724Y271278D01*
X210642Y270650D01*
X213750D01*
Y273758D01*
D02*
G37*
G36*
X249158Y270650D02*
X246050D01*
Y267542D01*
X246678Y267624D01*
X247496Y267963D01*
X248198Y268502D01*
X248737Y269204D01*
X249076Y270022D01*
X249158Y270650D01*
D02*
G37*
G36*
X245550D02*
X242442D01*
X242524Y270022D01*
X242863Y269204D01*
X243402Y268502D01*
X244104Y267963D01*
X244922Y267624D01*
X245550Y267542D01*
Y270650D01*
D02*
G37*
G36*
X241258D02*
X238150D01*
Y267542D01*
X238778Y267624D01*
X239596Y267963D01*
X240298Y268502D01*
X240837Y269204D01*
X241176Y270022D01*
X241258Y270650D01*
D02*
G37*
G36*
X237650D02*
X234542D01*
X234624Y270022D01*
X234963Y269204D01*
X235502Y268502D01*
X236204Y267963D01*
X237022Y267624D01*
X237650Y267542D01*
Y270650D01*
D02*
G37*
G36*
X225158Y270150D02*
X222050D01*
Y267042D01*
X222678Y267124D01*
X223496Y267463D01*
X224198Y268002D01*
X224737Y268704D01*
X225076Y269522D01*
X225158Y270150D01*
D02*
G37*
G36*
X217358D02*
X214250D01*
Y267042D01*
X214878Y267124D01*
X215696Y267463D01*
X216398Y268002D01*
X216937Y268704D01*
X217276Y269522D01*
X217358Y270150D01*
D02*
G37*
G36*
X221550D02*
X218442D01*
X218524Y269522D01*
X218863Y268704D01*
X219402Y268002D01*
X220104Y267463D01*
X220922Y267124D01*
X221550Y267042D01*
Y270150D01*
D02*
G37*
G36*
X213750D02*
X210642D01*
X210724Y269522D01*
X211063Y268704D01*
X211602Y268002D01*
X212304Y267463D01*
X213122Y267124D01*
X213750Y267042D01*
Y270150D01*
D02*
G37*
G36*
X509000Y273987D02*
X507968Y273851D01*
X507007Y273453D01*
X506181Y272819D01*
X505547Y271993D01*
X505149Y271032D01*
X505013Y270000D01*
X505149Y268968D01*
X505547Y268007D01*
X506181Y267181D01*
X507007Y266547D01*
X507968Y266149D01*
X509000Y266013D01*
X510032Y266149D01*
X510993Y266547D01*
X511819Y267181D01*
X512453Y268007D01*
X512851Y268968D01*
X512987Y270000D01*
X512851Y271032D01*
X512453Y271993D01*
X511819Y272819D01*
X510993Y273453D01*
X510032Y273851D01*
X509000Y273987D01*
D02*
G37*
G36*
X412461Y272437D02*
X411532Y272315D01*
X410667Y271956D01*
X409923Y271386D01*
X409353Y270642D01*
X408994Y269777D01*
X408872Y268848D01*
X408994Y267918D01*
X409353Y267053D01*
X409923Y266309D01*
X410667Y265739D01*
X411532Y265380D01*
X412461Y265258D01*
X413390Y265380D01*
X414256Y265739D01*
X415000Y266309D01*
X415570Y267053D01*
X415929Y267918D01*
X416051Y268848D01*
X415929Y269777D01*
X415570Y270642D01*
X415000Y271386D01*
X414256Y271956D01*
X413390Y272315D01*
X412461Y272437D01*
D02*
G37*
G36*
X402461D02*
X401532Y272315D01*
X400667Y271956D01*
X399923Y271386D01*
X399353Y270642D01*
X398994Y269777D01*
X398872Y268848D01*
X398994Y267918D01*
X399353Y267053D01*
X399923Y266309D01*
X400667Y265739D01*
X401532Y265380D01*
X402461Y265258D01*
X403391Y265380D01*
X404256Y265739D01*
X405000Y266309D01*
X405570Y267053D01*
X405929Y267918D01*
X406051Y268848D01*
X405929Y269777D01*
X405570Y270642D01*
X405000Y271386D01*
X404256Y271956D01*
X403391Y272315D01*
X402461Y272437D01*
D02*
G37*
G36*
X392461D02*
X391532Y272315D01*
X390667Y271956D01*
X389923Y271386D01*
X389353Y270642D01*
X388994Y269777D01*
X388872Y268848D01*
X388994Y267918D01*
X389353Y267053D01*
X389923Y266309D01*
X390667Y265739D01*
X391532Y265380D01*
X392461Y265258D01*
X393390Y265380D01*
X394256Y265739D01*
X395000Y266309D01*
X395570Y267053D01*
X395929Y267918D01*
X396051Y268848D01*
X395929Y269777D01*
X395570Y270642D01*
X395000Y271386D01*
X394256Y271956D01*
X393390Y272315D01*
X392461Y272437D01*
D02*
G37*
G36*
X382461D02*
X381532Y272315D01*
X380666Y271956D01*
X379923Y271386D01*
X379353Y270642D01*
X378994Y269777D01*
X378872Y268848D01*
X378994Y267918D01*
X379353Y267053D01*
X379923Y266309D01*
X380666Y265739D01*
X381532Y265380D01*
X382461Y265258D01*
X383390Y265380D01*
X384256Y265739D01*
X385000Y266309D01*
X385570Y267053D01*
X385929Y267918D01*
X386051Y268848D01*
X385929Y269777D01*
X385570Y270642D01*
X385000Y271386D01*
X384256Y271956D01*
X383390Y272315D01*
X382461Y272437D01*
D02*
G37*
G36*
X372461D02*
X371532Y272315D01*
X370667Y271956D01*
X369923Y271386D01*
X369353Y270642D01*
X368994Y269777D01*
X368872Y268848D01*
X368994Y267918D01*
X369353Y267053D01*
X369923Y266309D01*
X370667Y265739D01*
X371532Y265380D01*
X372461Y265258D01*
X373391Y265380D01*
X374256Y265739D01*
X375000Y266309D01*
X375570Y267053D01*
X375929Y267918D01*
X376051Y268848D01*
X375929Y269777D01*
X375570Y270642D01*
X375000Y271386D01*
X374256Y271956D01*
X373391Y272315D01*
X372461Y272437D01*
D02*
G37*
G36*
X362461D02*
X361532Y272315D01*
X360666Y271956D01*
X359923Y271386D01*
X359353Y270642D01*
X358994Y269777D01*
X358872Y268848D01*
X358994Y267918D01*
X359353Y267053D01*
X359923Y266309D01*
X360666Y265739D01*
X361532Y265380D01*
X362461Y265258D01*
X363390Y265380D01*
X364256Y265739D01*
X365000Y266309D01*
X365570Y267053D01*
X365929Y267918D01*
X366051Y268848D01*
X365929Y269777D01*
X365570Y270642D01*
X365000Y271386D01*
X364256Y271956D01*
X363390Y272315D01*
X362461Y272437D01*
D02*
G37*
G36*
X246050Y266258D02*
Y263150D01*
X249158D01*
X249076Y263778D01*
X248737Y264596D01*
X248198Y265298D01*
X247496Y265837D01*
X246678Y266176D01*
X246050Y266258D01*
D02*
G37*
G36*
X245550D02*
X244922Y266176D01*
X244104Y265837D01*
X243402Y265298D01*
X242863Y264596D01*
X242524Y263778D01*
X242442Y263150D01*
X245550D01*
Y266258D01*
D02*
G37*
G36*
X238150D02*
Y263150D01*
X241258D01*
X241176Y263778D01*
X240837Y264596D01*
X240298Y265298D01*
X239596Y265837D01*
X238778Y266176D01*
X238150Y266258D01*
D02*
G37*
G36*
X237650D02*
X237022Y266176D01*
X236204Y265837D01*
X235502Y265298D01*
X234963Y264596D01*
X234624Y263778D01*
X234542Y263150D01*
X237650D01*
Y266258D01*
D02*
G37*
G36*
X214350Y265858D02*
Y262750D01*
X217458D01*
X217376Y263378D01*
X217037Y264196D01*
X216498Y264898D01*
X215796Y265437D01*
X214978Y265776D01*
X214350Y265858D01*
D02*
G37*
G36*
X222150D02*
Y262750D01*
X225258D01*
X225176Y263378D01*
X224837Y264196D01*
X224298Y264898D01*
X223596Y265437D01*
X222778Y265776D01*
X222150Y265858D01*
D02*
G37*
G36*
X213850D02*
X213222Y265776D01*
X212404Y265437D01*
X211702Y264898D01*
X211163Y264196D01*
X210824Y263378D01*
X210742Y262750D01*
X213850D01*
Y265858D01*
D02*
G37*
G36*
X221650D02*
X221022Y265776D01*
X220204Y265437D01*
X219502Y264898D01*
X218963Y264196D01*
X218624Y263378D01*
X218542Y262750D01*
X221650D01*
Y265858D01*
D02*
G37*
G36*
X249158Y262650D02*
X246050D01*
Y259542D01*
X246678Y259624D01*
X247496Y259963D01*
X248198Y260502D01*
X248737Y261204D01*
X249076Y262022D01*
X249158Y262650D01*
D02*
G37*
G36*
X245550D02*
X242442D01*
X242524Y262022D01*
X242863Y261204D01*
X243402Y260502D01*
X244104Y259963D01*
X244922Y259624D01*
X245550Y259542D01*
Y262650D01*
D02*
G37*
G36*
X241258D02*
X238150D01*
Y259542D01*
X238778Y259624D01*
X239596Y259963D01*
X240298Y260502D01*
X240837Y261204D01*
X241176Y262022D01*
X241258Y262650D01*
D02*
G37*
G36*
X237650D02*
X234542D01*
X234624Y262022D01*
X234963Y261204D01*
X235502Y260502D01*
X236204Y259963D01*
X237022Y259624D01*
X237650Y259542D01*
Y262650D01*
D02*
G37*
G36*
X225258Y262250D02*
X222150D01*
Y259142D01*
X222778Y259224D01*
X223596Y259563D01*
X224298Y260102D01*
X224837Y260804D01*
X225176Y261622D01*
X225258Y262250D01*
D02*
G37*
G36*
X217458D02*
X214350D01*
Y259142D01*
X214978Y259224D01*
X215796Y259563D01*
X216498Y260102D01*
X217037Y260804D01*
X217376Y261622D01*
X217458Y262250D01*
D02*
G37*
G36*
X221650D02*
X218542D01*
X218624Y261622D01*
X218963Y260804D01*
X219502Y260102D01*
X220204Y259563D01*
X221022Y259224D01*
X221650Y259142D01*
Y262250D01*
D02*
G37*
G36*
X213850D02*
X210742D01*
X210824Y261622D01*
X211163Y260804D01*
X211702Y260102D01*
X212404Y259563D01*
X213222Y259224D01*
X213850Y259142D01*
Y262250D01*
D02*
G37*
G36*
X509000Y263987D02*
X507968Y263851D01*
X507007Y263453D01*
X506181Y262819D01*
X505547Y261993D01*
X505149Y261032D01*
X505013Y260000D01*
X505149Y258968D01*
X505547Y258007D01*
X506181Y257181D01*
X507007Y256547D01*
X507968Y256149D01*
X509000Y256013D01*
X510032Y256149D01*
X510993Y256547D01*
X511819Y257181D01*
X512453Y258007D01*
X512851Y258968D01*
X512987Y260000D01*
X512851Y261032D01*
X512453Y261993D01*
X511819Y262819D01*
X510993Y263453D01*
X510032Y263851D01*
X509000Y263987D01*
D02*
G37*
G36*
X246050Y258458D02*
Y255350D01*
X249158D01*
X249076Y255978D01*
X248737Y256796D01*
X248198Y257498D01*
X247496Y258037D01*
X246678Y258376D01*
X246050Y258458D01*
D02*
G37*
G36*
X245550D02*
X244922Y258376D01*
X244104Y258037D01*
X243402Y257498D01*
X242863Y256796D01*
X242524Y255978D01*
X242442Y255350D01*
X245550D01*
Y258458D01*
D02*
G37*
G36*
X238150D02*
Y255350D01*
X241258D01*
X241176Y255978D01*
X240837Y256796D01*
X240298Y257498D01*
X239596Y258037D01*
X238778Y258376D01*
X238150Y258458D01*
D02*
G37*
G36*
X237650D02*
X237022Y258376D01*
X236204Y258037D01*
X235502Y257498D01*
X234963Y256796D01*
X234624Y255978D01*
X234542Y255350D01*
X237650D01*
Y258458D01*
D02*
G37*
G36*
X214350Y257958D02*
Y254850D01*
X217458D01*
X217376Y255478D01*
X217037Y256296D01*
X216498Y256998D01*
X215796Y257537D01*
X214978Y257876D01*
X214350Y257958D01*
D02*
G37*
G36*
X222150D02*
Y254850D01*
X225258D01*
X225176Y255478D01*
X224837Y256296D01*
X224298Y256998D01*
X223596Y257537D01*
X222778Y257876D01*
X222150Y257958D01*
D02*
G37*
G36*
X213850D02*
X213222Y257876D01*
X212404Y257537D01*
X211702Y256998D01*
X211163Y256296D01*
X210824Y255478D01*
X210742Y254850D01*
X213850D01*
Y257958D01*
D02*
G37*
G36*
X221650D02*
X221022Y257876D01*
X220204Y257537D01*
X219502Y256998D01*
X218963Y256296D01*
X218624Y255478D01*
X218542Y254850D01*
X221650D01*
Y257958D01*
D02*
G37*
G36*
X249158Y254850D02*
X246050D01*
Y251742D01*
X246678Y251824D01*
X247496Y252163D01*
X248198Y252702D01*
X248737Y253404D01*
X249076Y254222D01*
X249158Y254850D01*
D02*
G37*
G36*
X245550D02*
X242442D01*
X242524Y254222D01*
X242863Y253404D01*
X243402Y252702D01*
X244104Y252163D01*
X244922Y251824D01*
X245550Y251742D01*
Y254850D01*
D02*
G37*
G36*
X241258D02*
X238150D01*
Y251742D01*
X238778Y251824D01*
X239596Y252163D01*
X240298Y252702D01*
X240837Y253404D01*
X241176Y254222D01*
X241258Y254850D01*
D02*
G37*
G36*
X237650D02*
X234542D01*
X234624Y254222D01*
X234963Y253404D01*
X235502Y252702D01*
X236204Y252163D01*
X237022Y251824D01*
X237650Y251742D01*
Y254850D01*
D02*
G37*
G36*
X225258Y254350D02*
X222150D01*
Y251242D01*
X222778Y251324D01*
X223596Y251663D01*
X224298Y252202D01*
X224837Y252904D01*
X225176Y253722D01*
X225258Y254350D01*
D02*
G37*
G36*
X217458D02*
X214350D01*
Y251242D01*
X214978Y251324D01*
X215796Y251663D01*
X216498Y252202D01*
X217037Y252904D01*
X217376Y253722D01*
X217458Y254350D01*
D02*
G37*
G36*
X221650D02*
X218542D01*
X218624Y253722D01*
X218963Y252904D01*
X219502Y252202D01*
X220204Y251663D01*
X221022Y251324D01*
X221650Y251242D01*
Y254350D01*
D02*
G37*
G36*
X213850D02*
X210742D01*
X210824Y253722D01*
X211163Y252904D01*
X211702Y252202D01*
X212404Y251663D01*
X213222Y251324D01*
X213850Y251242D01*
Y254350D01*
D02*
G37*
G36*
X246050Y250558D02*
Y247450D01*
X249158D01*
X249076Y248078D01*
X248737Y248896D01*
X248198Y249598D01*
X247496Y250137D01*
X246678Y250476D01*
X246050Y250558D01*
D02*
G37*
G36*
X245550D02*
X244922Y250476D01*
X244104Y250137D01*
X243402Y249598D01*
X242863Y248896D01*
X242524Y248078D01*
X242442Y247450D01*
X245550D01*
Y250558D01*
D02*
G37*
G36*
X238150D02*
Y247450D01*
X241258D01*
X241176Y248078D01*
X240837Y248896D01*
X240298Y249598D01*
X239596Y250137D01*
X238778Y250476D01*
X238150Y250558D01*
D02*
G37*
G36*
X237650D02*
X237022Y250476D01*
X236204Y250137D01*
X235502Y249598D01*
X234963Y248896D01*
X234624Y248078D01*
X234542Y247450D01*
X237650D01*
Y250558D01*
D02*
G37*
G36*
X214350Y250258D02*
Y247150D01*
X217458D01*
X217376Y247778D01*
X217037Y248596D01*
X216498Y249298D01*
X215796Y249837D01*
X214978Y250176D01*
X214350Y250258D01*
D02*
G37*
G36*
X222150D02*
Y247150D01*
X225258D01*
X225176Y247778D01*
X224837Y248596D01*
X224298Y249298D01*
X223596Y249837D01*
X222778Y250176D01*
X222150Y250258D01*
D02*
G37*
G36*
X213850D02*
X213222Y250176D01*
X212404Y249837D01*
X211702Y249298D01*
X211163Y248596D01*
X210824Y247778D01*
X210742Y247150D01*
X213850D01*
Y250258D01*
D02*
G37*
G36*
X221650D02*
X221022Y250176D01*
X220204Y249837D01*
X219502Y249298D01*
X218963Y248596D01*
X218624Y247778D01*
X218542Y247150D01*
X221650D01*
Y250258D01*
D02*
G37*
G36*
X249158Y246950D02*
X246050D01*
Y243842D01*
X246678Y243924D01*
X247496Y244263D01*
X248198Y244802D01*
X248737Y245504D01*
X249076Y246322D01*
X249158Y246950D01*
D02*
G37*
G36*
X245550D02*
X242442D01*
X242524Y246322D01*
X242863Y245504D01*
X243402Y244802D01*
X244104Y244263D01*
X244922Y243924D01*
X245550Y243842D01*
Y246950D01*
D02*
G37*
G36*
X241258D02*
X238150D01*
Y243842D01*
X238778Y243924D01*
X239596Y244263D01*
X240298Y244802D01*
X240837Y245504D01*
X241176Y246322D01*
X241258Y246950D01*
D02*
G37*
G36*
X237650D02*
X234542D01*
X234624Y246322D01*
X234963Y245504D01*
X235502Y244802D01*
X236204Y244263D01*
X237022Y243924D01*
X237650Y243842D01*
Y246950D01*
D02*
G37*
G36*
X225258Y246650D02*
X222150D01*
Y243542D01*
X222778Y243624D01*
X223596Y243963D01*
X224298Y244502D01*
X224837Y245204D01*
X225176Y246022D01*
X225258Y246650D01*
D02*
G37*
G36*
X217458D02*
X214350D01*
Y243542D01*
X214978Y243624D01*
X215796Y243963D01*
X216498Y244502D01*
X217037Y245204D01*
X217376Y246022D01*
X217458Y246650D01*
D02*
G37*
G36*
X221650D02*
X218542D01*
X218624Y246022D01*
X218963Y245204D01*
X219502Y244502D01*
X220204Y243963D01*
X221022Y243624D01*
X221650Y243542D01*
Y246650D01*
D02*
G37*
G36*
X213850D02*
X210742D01*
X210824Y246022D01*
X211163Y245204D01*
X211702Y244502D01*
X212404Y243963D01*
X213222Y243624D01*
X213850Y243542D01*
Y246650D01*
D02*
G37*
G36*
X506378Y223159D02*
X505346Y223023D01*
X504385Y222624D01*
X503559Y221991D01*
X502925Y221165D01*
X502527Y220203D01*
X502391Y219172D01*
X502527Y218140D01*
X502925Y217178D01*
X503559Y216353D01*
X504385Y215719D01*
X505346Y215321D01*
X506378Y215185D01*
X507410Y215321D01*
X508371Y215719D01*
X509197Y216353D01*
X509831Y217178D01*
X510229Y218140D01*
X510365Y219172D01*
X510229Y220203D01*
X509831Y221165D01*
X509197Y221991D01*
X508371Y222624D01*
X507410Y223023D01*
X506378Y223159D01*
D02*
G37*
G36*
Y213158D02*
X505346Y213023D01*
X504385Y212624D01*
X503559Y211991D01*
X502925Y211165D01*
X502527Y210204D01*
X502391Y209172D01*
X502527Y208140D01*
X502925Y207178D01*
X503559Y206352D01*
X504385Y205719D01*
X505346Y205321D01*
X506378Y205185D01*
X507410Y205321D01*
X508371Y205719D01*
X509197Y206352D01*
X509831Y207178D01*
X510229Y208140D01*
X510365Y209172D01*
X510229Y210204D01*
X509831Y211165D01*
X509197Y211991D01*
X508371Y212624D01*
X507410Y213023D01*
X506378Y213158D01*
D02*
G37*
G36*
X518656Y190005D02*
Y180967D01*
X527694D01*
X527540Y182534D01*
X527010Y184281D01*
X526150Y185891D01*
X524991Y187302D01*
X523580Y188460D01*
X521970Y189321D01*
X520223Y189851D01*
X518656Y190005D01*
D02*
G37*
G36*
X213538Y190005D02*
Y180967D01*
X222576D01*
X222422Y182534D01*
X221892Y184281D01*
X221031Y185891D01*
X219873Y187302D01*
X218462Y188460D01*
X216852Y189321D01*
X215105Y189851D01*
X213538Y190005D01*
D02*
G37*
G36*
X213038D02*
X211472Y189851D01*
X209725Y189321D01*
X208115Y188460D01*
X206703Y187302D01*
X205545Y185891D01*
X204685Y184281D01*
X204155Y182534D01*
X204000Y180967D01*
X213038D01*
Y190005D01*
D02*
G37*
G36*
X518156D02*
X516590Y189851D01*
X514843Y189321D01*
X513233Y188460D01*
X511822Y187302D01*
X510663Y185891D01*
X509803Y184281D01*
X509273Y182534D01*
X509119Y180967D01*
X518156D01*
Y190005D01*
D02*
G37*
G36*
X527694Y180467D02*
X518656D01*
Y171429D01*
X520223Y171584D01*
X521970Y172114D01*
X523580Y172974D01*
X524991Y174132D01*
X526150Y175543D01*
X527010Y177154D01*
X527540Y178901D01*
X527694Y180467D01*
D02*
G37*
G36*
X222576D02*
X213538D01*
Y171429D01*
X215105Y171584D01*
X216852Y172114D01*
X218462Y172974D01*
X219873Y174132D01*
X221031Y175543D01*
X221892Y177154D01*
X222422Y178901D01*
X222576Y180467D01*
D02*
G37*
G36*
X213038D02*
X204000D01*
X204155Y178901D01*
X204685Y177154D01*
X205545Y175543D01*
X206703Y174132D01*
X208115Y172974D01*
X209725Y172114D01*
X211472Y171584D01*
X213038Y171429D01*
Y180467D01*
D02*
G37*
G36*
X518156D02*
X509119D01*
X509273Y178901D01*
X509803Y177154D01*
X510663Y175543D01*
X511822Y174132D01*
X513233Y172974D01*
X514843Y172114D01*
X516590Y171584D01*
X518156Y171429D01*
Y180467D01*
D02*
G37*
%LPD*%
G36*
X416378Y335681D02*
X415200D01*
Y333500D01*
Y331319D01*
X416378D01*
Y326862D01*
X405259D01*
Y338461D01*
X416378D01*
Y335681D01*
D02*
G37*
%LPC*%
G36*
X408900Y335840D02*
Y334400D01*
X410340D01*
X410284Y334680D01*
X409842Y335342D01*
X409180Y335784D01*
X408900Y335840D01*
D02*
G37*
G36*
X407900D02*
X407620Y335784D01*
X406958Y335342D01*
X406516Y334680D01*
X406460Y334400D01*
X407900D01*
Y335840D01*
D02*
G37*
G36*
X414200Y335681D02*
X412519D01*
Y334000D01*
X414200D01*
Y335681D01*
D02*
G37*
G36*
X410340Y333400D02*
X408900D01*
Y331960D01*
X409180Y332016D01*
X409842Y332458D01*
X410284Y333120D01*
X410340Y333400D01*
D02*
G37*
G36*
X407900D02*
X406460D01*
X406516Y333120D01*
X406958Y332458D01*
X407620Y332016D01*
X407900Y331960D01*
Y333400D01*
D02*
G37*
G36*
X414200Y333000D02*
X412519D01*
Y331319D01*
X414200D01*
Y333000D01*
D02*
G37*
%LPD*%
D51*
X309055Y228839D02*
X506378D01*
X286221Y251673D02*
X309055Y228839D01*
X310531Y238878D02*
X506378D01*
X293012Y256398D02*
X310531Y238878D01*
X316300Y353800D02*
X408500D01*
X286221Y323721D02*
X316300Y353800D01*
X286221Y251673D02*
Y323721D01*
X293012Y321850D02*
X317161Y346000D01*
X293012Y256398D02*
Y321850D01*
X317161Y346000D02*
X409500D01*
X412795Y374606D02*
Y383465D01*
X408500Y353800D02*
X415700Y346600D01*
Y343000D02*
Y346600D01*
X400700Y389100D02*
X415000D01*
X388074Y376474D02*
X400700Y389100D01*
X415000D02*
X417900Y386200D01*
Y374100D02*
Y386200D01*
D52*
X418300Y336600D02*
X418400Y336700D01*
X418300Y333500D02*
Y336600D01*
Y330400D02*
X418700Y330000D01*
X418300Y330400D02*
Y333500D01*
D54*
X506299Y317098D02*
X521761D01*
X521929Y316929D01*
X527400Y322400D01*
Y368340D01*
X505011Y390729D02*
X527400Y368340D01*
D55*
X245445Y418260D02*
D03*
X255445D02*
D03*
X265445D02*
D03*
D56*
X514401Y390761D02*
D03*
X504401D02*
D03*
X509000Y260000D02*
D03*
Y270000D02*
D03*
Y280000D02*
D03*
Y290000D02*
D03*
X506378Y341258D02*
D03*
Y351258D02*
D03*
Y361258D02*
D03*
Y371258D02*
D03*
Y239172D02*
D03*
Y229172D02*
D03*
Y219172D02*
D03*
Y209172D02*
D03*
D57*
X213288Y180717D02*
D03*
X518406D02*
D03*
Y410229D02*
D03*
X213288D02*
D03*
D58*
X412461Y268848D02*
D03*
Y278848D02*
D03*
X402461D02*
D03*
Y268848D02*
D03*
X392461D02*
D03*
Y278848D02*
D03*
X382461D02*
D03*
Y268848D02*
D03*
X372461D02*
D03*
Y278848D02*
D03*
X362461D02*
D03*
Y268848D02*
D03*
D59*
X307326Y394606D02*
D03*
Y402506D02*
D03*
X315226D02*
D03*
Y394606D02*
D03*
X323026D02*
D03*
Y402506D02*
D03*
X331026D02*
D03*
Y394606D02*
D03*
X338826D02*
D03*
Y402506D02*
D03*
X346726D02*
D03*
Y394606D02*
D03*
X354526D02*
D03*
Y402506D02*
D03*
X362426D02*
D03*
Y394606D02*
D03*
X370326D02*
D03*
Y402506D02*
D03*
X378226D02*
D03*
Y394606D02*
D03*
X386126D02*
D03*
Y402506D02*
D03*
X237900Y326000D02*
D03*
X245800D02*
D03*
Y318100D02*
D03*
X237900D02*
D03*
Y310200D02*
D03*
X245800D02*
D03*
Y302300D02*
D03*
X237900D02*
D03*
Y294400D02*
D03*
X245800D02*
D03*
Y286600D02*
D03*
X237900D02*
D03*
Y278700D02*
D03*
X245800D02*
D03*
Y270900D02*
D03*
X237900D02*
D03*
Y262900D02*
D03*
X245800D02*
D03*
Y255100D02*
D03*
X237900D02*
D03*
Y247200D02*
D03*
X245800D02*
D03*
X386126Y422006D02*
D03*
X378226D02*
D03*
X362426D02*
D03*
X370326D02*
D03*
X354526D02*
D03*
X346626D02*
D03*
X330826Y422106D02*
D03*
X338726D02*
D03*
X322926Y422006D02*
D03*
X315026D02*
D03*
X307326D02*
D03*
Y414206D02*
D03*
X315026D02*
D03*
X322926D02*
D03*
X338726Y414306D02*
D03*
X330826D02*
D03*
X346626Y414206D02*
D03*
X354526D02*
D03*
X370326D02*
D03*
X362426D02*
D03*
X378226D02*
D03*
X386126D02*
D03*
X221900Y325700D02*
D03*
Y317800D02*
D03*
Y302000D02*
D03*
Y309900D02*
D03*
Y294100D02*
D03*
Y286200D02*
D03*
X221800Y270400D02*
D03*
Y278300D02*
D03*
X221900Y262500D02*
D03*
Y254600D02*
D03*
Y246900D02*
D03*
X214100D02*
D03*
Y254600D02*
D03*
Y262500D02*
D03*
X214000Y278300D02*
D03*
Y270400D02*
D03*
X214100Y286200D02*
D03*
Y294100D02*
D03*
Y309900D02*
D03*
Y302000D02*
D03*
Y317800D02*
D03*
Y325700D02*
D03*
D60*
X506299Y317098D02*
D03*
X412795Y383465D02*
D03*
Y374606D02*
D03*
X486529Y417221D02*
D03*
X387335Y376474D02*
D03*
X417900Y374100D02*
D03*
X407600Y374300D02*
D03*
X462700Y392000D02*
D03*
X471800Y391900D02*
D03*
X485600Y406900D02*
D03*
X490768Y310538D02*
D03*
X477169Y310932D02*
D03*
X477769Y331038D02*
D03*
X484469Y320838D02*
D03*
X399700Y334900D02*
D03*
X372200Y341259D02*
D03*
Y363700D02*
D03*
X408400Y333900D02*
D03*
X390821Y368821D02*
D03*
D61*
X462894Y417421D02*
D03*
X488091Y382776D02*
D03*
D62*
X428248Y396161D02*
D03*
D63*
X415700Y343000D02*
D03*
X409500Y346000D02*
D03*
X454013Y313013D02*
D03*
X440795D02*
D03*
X427577D02*
D03*
X414359D02*
D03*
X401141D02*
D03*
X387923D02*
D03*
X374704D02*
D03*
X361486D02*
D03*
X348268D02*
D03*
X335050D02*
D03*
X321832D02*
D03*
X308600Y313000D02*
D03*
D64*
X418300Y333500D02*
D03*
X414700D02*
D03*
D65*
X416500Y333550D02*
D03*
M02*
