G04*
G04 #@! TF.GenerationSoftware,Altium Limited,Altium Designer,18.1.11 (251)*
G04*
G04 Layer_Physical_Order=1*
G04 Layer_Color=255*
%FSLAX25Y25*%
%MOIN*%
G70*
G01*
G75*
%ADD10C,0.01000*%
%ADD17R,0.03740X0.04331*%
%ADD18R,0.05512X0.04921*%
%ADD19R,0.06496X0.05512*%
%ADD20R,0.05709X0.05118*%
%ADD21R,0.03543X0.03347*%
%ADD22R,0.03150X0.03150*%
%ADD23R,0.03150X0.03150*%
%ADD24R,0.04921X0.02362*%
%ADD25R,0.03937X0.04134*%
%ADD26R,0.03937X0.02362*%
%ADD27O,0.00984X0.04724*%
%ADD28R,0.03543X0.03740*%
%ADD29R,0.02284X0.02047*%
%ADD50C,0.02000*%
%ADD51C,0.01968*%
%ADD52C,0.01500*%
%ADD53C,0.01181*%
%ADD54C,0.02953*%
%ADD55C,0.05512*%
%ADD56C,0.05906*%
%ADD57C,0.16535*%
%ADD58C,0.05118*%
%ADD59C,0.04724*%
%ADD60C,0.02000*%
%ADD61C,0.03150*%
%ADD62C,0.03937*%
%ADD63C,0.01500*%
D10*
X412795Y372736D02*
Y374606D01*
X409569Y369510D02*
X412795Y372736D01*
X409569Y363841D02*
Y369510D01*
X409500Y341469D02*
X409569Y341400D01*
X409500Y341469D02*
Y346000D01*
D17*
X456693Y417421D02*
D03*
Y411909D02*
D03*
D18*
X488091Y395866D02*
D03*
Y389370D02*
D03*
D19*
X435335Y396161D02*
D03*
X444980D02*
D03*
D20*
X470964Y310039D02*
D03*
Y316339D02*
D03*
D21*
X398300Y394651D02*
D03*
Y388549D02*
D03*
X498819Y404035D02*
D03*
Y410138D02*
D03*
D22*
X392191Y383000D02*
D03*
X387270D02*
D03*
D23*
X498429Y417421D02*
D03*
X491929D02*
D03*
D24*
X456543Y407000D02*
D03*
Y402000D02*
D03*
Y397000D02*
D03*
Y392000D02*
D03*
X478000Y407000D02*
D03*
Y402000D02*
D03*
Y397000D02*
D03*
Y392000D02*
D03*
D25*
X496068Y310485D02*
D03*
Y316390D02*
D03*
X472469Y331091D02*
D03*
Y325185D02*
D03*
D26*
X478255Y317098D02*
D03*
Y324578D02*
D03*
X489082D02*
D03*
Y320838D02*
D03*
Y317098D02*
D03*
D27*
X411537Y363841D02*
D03*
X409569D02*
D03*
X407600D02*
D03*
X405631D02*
D03*
X403663D02*
D03*
X401694D02*
D03*
X399726D02*
D03*
X397758D02*
D03*
X395789D02*
D03*
X393821D02*
D03*
X391852D02*
D03*
X389883D02*
D03*
X387915D02*
D03*
X385946D02*
D03*
X383978D02*
D03*
X382010D02*
D03*
X380041D02*
D03*
X378072D02*
D03*
X376104D02*
D03*
X411537Y341400D02*
D03*
X409569D02*
D03*
X407600D02*
D03*
X405631D02*
D03*
X403663D02*
D03*
X401694D02*
D03*
X399726D02*
D03*
X397758D02*
D03*
X395789D02*
D03*
X393821D02*
D03*
X391852D02*
D03*
X389883D02*
D03*
X387915D02*
D03*
X385946D02*
D03*
X383978D02*
D03*
X382010D02*
D03*
X380041D02*
D03*
X378072D02*
D03*
X376104D02*
D03*
D28*
X451100Y306154D02*
D03*
Y300446D02*
D03*
X437882Y306154D02*
D03*
Y300446D02*
D03*
X424664Y306154D02*
D03*
Y300446D02*
D03*
X411445Y306154D02*
D03*
Y300446D02*
D03*
X398227Y306154D02*
D03*
Y300446D02*
D03*
X385009Y306154D02*
D03*
Y300446D02*
D03*
X371791Y306154D02*
D03*
Y300446D02*
D03*
X358573Y306154D02*
D03*
Y300446D02*
D03*
X345355Y306154D02*
D03*
Y300446D02*
D03*
X332136Y306154D02*
D03*
Y300446D02*
D03*
X318918Y306154D02*
D03*
Y300446D02*
D03*
X305700Y306154D02*
D03*
Y300446D02*
D03*
D29*
Y319000D02*
D03*
X308613D02*
D03*
X318918D02*
D03*
X321832D02*
D03*
X332136D02*
D03*
X335050D02*
D03*
X345355D02*
D03*
X348268D02*
D03*
X358573D02*
D03*
X361486D02*
D03*
X371791D02*
D03*
X374704D02*
D03*
X385009D02*
D03*
X387923D02*
D03*
X398227D02*
D03*
X401141D02*
D03*
X411445D02*
D03*
X414359D02*
D03*
X424664D02*
D03*
X427577D02*
D03*
X437882D02*
D03*
X440795D02*
D03*
X451100D02*
D03*
X454013D02*
D03*
D50*
X398109Y394291D02*
X409609D01*
X505900Y371000D02*
X517400D01*
X529000Y313941D02*
Y359400D01*
X509000Y293941D02*
X529000Y313941D01*
X509000Y290000D02*
Y293941D01*
X505900Y341000D02*
X513677D01*
X516900Y318081D02*
Y337776D01*
X513677Y341000D02*
X516900Y337776D01*
X525000Y315748D02*
Y355400D01*
X492441Y280000D02*
X509000D01*
X490158Y282283D02*
X492441Y280000D01*
X490158Y282283D02*
Y289370D01*
X493209Y292421D01*
X501673D01*
X525000Y315748D01*
X505900Y351000D02*
X513800D01*
X521100Y317557D02*
Y343700D01*
X499606Y296063D02*
X521100Y317557D01*
X491535Y296063D02*
X499606D01*
X490630Y270000D02*
X509000D01*
X486529Y274101D02*
X490630Y270000D01*
X486529Y274101D02*
Y291057D01*
X491535Y296063D01*
X498622Y299803D02*
X516900Y318081D01*
X490521Y299803D02*
X498622D01*
X483169Y292451D02*
X490521Y299803D01*
X483169Y266831D02*
Y292451D01*
X490000Y260000D02*
X509000D01*
X483169Y266831D02*
X490000Y260000D01*
X486982Y372700D02*
X505011Y390729D01*
X464400Y372700D02*
X486982D01*
X446865Y336600D02*
X466289Y317175D01*
X411600Y336600D02*
X446865D01*
X454800Y363100D02*
X464400Y372700D01*
X429100Y363100D02*
X454800D01*
X398044Y394356D02*
X398109Y394291D01*
X409609D02*
X412700Y391200D01*
X486729Y417421D02*
X491929D01*
X486529Y417221D02*
X486729Y417421D01*
X498740Y397000D02*
Y403949D01*
X471700Y392000D02*
X478000D01*
X390868Y363841D02*
Y368773D01*
X484469Y320738D02*
X484569Y320838D01*
X498429Y410572D02*
Y417421D01*
X371100Y383000D02*
X387270D01*
Y376539D02*
Y383000D01*
X412700Y383900D02*
Y391200D01*
X513800Y351000D02*
X521100Y343700D01*
X505900Y361000D02*
X519400D01*
X525000Y355400D01*
X517400Y371000D02*
X529000Y359400D01*
X456300Y358100D02*
X464700Y366500D01*
X429500Y358100D02*
X456300D01*
X403500Y373600D02*
Y376600D01*
X405900Y379000D02*
X439900D01*
X403500Y376600D02*
X405900Y379000D01*
X439900D02*
X447350Y386450D01*
Y395400D01*
Y400350D01*
X449000Y402000D01*
X456543D01*
Y392000D02*
X462700D01*
X471700D02*
X471800Y391900D01*
X485500Y407000D02*
X485600Y406900D01*
X478000Y407000D02*
X485500D01*
X490821Y310485D02*
X496068D01*
X471869Y310985D02*
X477116D01*
X477716Y331091D02*
X477769Y331038D01*
X472469Y331091D02*
X477716D01*
X484569Y320838D02*
X489082D01*
X503900Y343000D02*
X505900Y341000D01*
X465000Y343000D02*
X503900D01*
X460900Y347100D02*
X465000Y343000D01*
X429500Y347100D02*
X460900D01*
X464700Y366500D02*
X501400D01*
X504200Y359300D02*
X505900Y361000D01*
X466100Y359300D02*
X504200D01*
X461200Y354400D02*
X466100Y359300D01*
X501400Y366500D02*
X505900Y371000D01*
X429800Y354400D02*
X461200D01*
X429600Y350900D02*
X505900Y351000D01*
X398800Y335000D02*
X399600D01*
X395789Y338011D02*
X398800Y335000D01*
D51*
X299016Y209055D02*
X506378D01*
X287205Y220866D02*
X299016Y209055D01*
X300689Y218898D02*
X506378D01*
X292028Y227559D02*
X300689Y218898D01*
X292028Y227559D02*
Y366240D01*
X308787Y383000D02*
X371100D01*
X292028Y366240D02*
X308787Y383000D01*
X287205Y369488D02*
X306004Y388287D01*
X287205Y220866D02*
Y369488D01*
X306004Y388287D02*
X389075D01*
X456693Y417421D02*
X462894D01*
X456543Y407000D02*
X456618Y407075D01*
Y411835D01*
X456693Y411909D01*
X488091Y382776D02*
Y389370D01*
X428248Y396161D02*
X435335D01*
X470128Y317175D02*
X470964Y316339D01*
X466289Y317175D02*
X470128D01*
X389075Y388287D02*
X395143Y394356D01*
X398044D01*
D52*
X416800Y268375D02*
X437882Y289457D01*
X412461Y268375D02*
X416800D01*
X407185Y273099D02*
X412461Y278375D01*
X407185Y263287D02*
Y273099D01*
Y263287D02*
X410532Y259941D01*
X421654D01*
X424606Y292913D02*
Y300388D01*
X417126Y285433D02*
X424606Y292913D01*
X404823Y285433D02*
X417126D01*
X402461Y278375D02*
Y283072D01*
X404823Y285433D01*
X411445Y294685D02*
Y300446D01*
X397244Y273592D02*
X402461Y268375D01*
X397244Y273592D02*
Y285138D01*
X402106Y290000D01*
X406760D01*
X411445Y294685D01*
X398000Y294783D02*
Y300218D01*
X392461Y278375D02*
Y289245D01*
X398000Y294783D01*
X387335Y273502D02*
X392461Y268375D01*
X387335Y273502D02*
Y283334D01*
X385009Y285660D02*
X387335Y283334D01*
X345355Y306154D02*
Y319000D01*
X332136Y306154D02*
Y319000D01*
X318918Y306154D02*
Y319000D01*
X305700Y306154D02*
Y319000D01*
X451100Y289387D02*
Y300446D01*
X421654Y259941D02*
X451100Y289387D01*
X437882Y289457D02*
Y300446D01*
X372200Y363600D02*
X372441Y363841D01*
X399600Y335000D02*
X399700Y334900D01*
X395789Y338011D02*
Y341400D01*
X372441D02*
X375886D01*
X372441Y363841D02*
X376104D01*
X405631Y336668D02*
X408400Y333900D01*
X405631Y336668D02*
Y341400D01*
X390868Y363841D02*
X391852D01*
X389883D02*
X390868D01*
X393821D02*
X395789D01*
X391852D02*
X393821D01*
X387915D02*
X389883D01*
X385946D02*
X387915D01*
X454013Y313013D02*
Y319000D01*
X440795Y313013D02*
Y319000D01*
X427577Y313013D02*
Y319000D01*
X414359Y313013D02*
Y319000D01*
X401141Y313013D02*
Y319000D01*
X387923Y313013D02*
Y319000D01*
X374704Y313013D02*
Y319000D01*
X361486Y313013D02*
Y319000D01*
X348268Y313013D02*
Y319000D01*
X335050Y313013D02*
Y319000D01*
X321832Y313013D02*
Y319000D01*
X308600Y318987D02*
X308613Y319000D01*
X308600Y313000D02*
Y318987D01*
X318918Y284082D02*
Y300446D01*
X305700Y277300D02*
Y300446D01*
X358573Y306154D02*
Y319000D01*
X371791Y306154D02*
Y319000D01*
X385009Y306154D02*
Y319000D01*
X398227Y306154D02*
Y319000D01*
X424664Y306154D02*
Y319000D01*
X437882Y306154D02*
Y319000D01*
X451100Y306154D02*
Y319000D01*
X398000Y300218D02*
X398227Y300446D01*
X385009Y285660D02*
Y300446D01*
X371791Y294209D02*
Y300446D01*
Y294209D02*
X382461Y283539D01*
Y278375D02*
Y283539D01*
X358573Y292427D02*
Y300446D01*
Y292427D02*
X361000Y290000D01*
X369000D01*
X378000Y281000D01*
Y272837D02*
Y281000D01*
Y272837D02*
X382461Y268375D01*
X345355Y288646D02*
Y300446D01*
Y288646D02*
X347000Y287000D01*
X368000D01*
X372000Y283000D01*
Y279000D02*
Y283000D01*
Y279000D02*
X372461Y278539D01*
Y278375D02*
Y278539D01*
X332000Y300309D02*
X332136Y300446D01*
X332000Y287000D02*
Y300309D01*
Y287000D02*
X335000Y284000D01*
X365000D01*
X368000Y281000D01*
Y272837D02*
Y281000D01*
Y272837D02*
X372461Y268375D01*
X318918Y284082D02*
X324625Y278375D01*
X362461D01*
X305700Y277300D02*
X314625Y268375D01*
X362461D01*
D53*
X376673Y372342D02*
X380041Y368975D01*
X340453Y372342D02*
X376673D01*
X332136Y364026D02*
X340453Y372342D01*
X376739Y375787D02*
X382010Y370517D01*
X328248Y375787D02*
X376739D01*
X318918Y366458D02*
X328248Y375787D01*
X377756Y378445D02*
X383978Y372223D01*
X318996Y378445D02*
X377756D01*
X305700Y365149D02*
X318996Y378445D01*
X375787Y368898D02*
X378072Y366613D01*
X349311Y368898D02*
X375787D01*
X345355Y364941D02*
X349311Y368898D01*
X332136Y319000D02*
Y364026D01*
X345355Y319000D02*
Y364941D01*
X378072Y363841D02*
Y366613D01*
X318918Y319000D02*
Y366458D01*
X380041Y363841D02*
Y368975D01*
X305700Y319000D02*
Y365149D01*
X382010Y363841D02*
Y370517D01*
X383978Y363841D02*
Y372223D01*
X411445Y306154D02*
Y319000D01*
X424606Y300388D02*
X424664Y300446D01*
X378072Y332403D02*
Y341400D01*
X371397Y325728D02*
X378072Y332403D01*
X362400Y325728D02*
X371397D01*
X380041Y330730D02*
Y341400D01*
X371791Y322480D02*
X380041Y330730D01*
X371791Y319000D02*
Y322480D01*
X383461Y319000D02*
X385009D01*
X382010Y320451D02*
X383461Y319000D01*
X382010Y320451D02*
Y341400D01*
X409000Y336600D02*
X411600D01*
X407600Y338000D02*
X409000Y336600D01*
X428100Y348500D02*
X429500Y347100D01*
X407600Y348500D02*
X428100D01*
X403663Y344563D02*
X407600Y348500D01*
X415700Y342900D02*
Y343000D01*
X414200Y341400D02*
X415700Y342900D01*
X411537Y341400D02*
X414200D01*
X403663Y363841D02*
Y367437D01*
X398500Y372600D02*
X403663Y367437D01*
X398500Y372600D02*
Y374000D01*
X399227Y368773D02*
X401694Y366305D01*
X390868Y368773D02*
X399227D01*
X390821Y368821D02*
X390868Y368773D01*
X401694Y363841D02*
Y366305D01*
X387335Y376474D02*
X387335D01*
X387270Y376539D02*
X387335Y376474D01*
X417900Y373300D02*
Y374100D01*
X411537Y366937D02*
X417900Y373300D01*
X411537Y363841D02*
Y366937D01*
X406100Y358100D02*
X429500D01*
X397758Y349758D02*
X406100Y358100D01*
X417100Y363100D02*
X429100D01*
X414363Y360363D02*
X417100Y363100D01*
X403663Y360363D02*
X414363D01*
X403663D02*
Y363841D01*
X393821Y350520D02*
X403663Y360363D01*
X393821Y341400D02*
Y350520D01*
X403500Y370700D02*
Y373600D01*
Y370700D02*
X405631Y368568D01*
Y363841D02*
Y368568D01*
X407600Y363841D02*
Y374300D01*
Y338000D02*
Y341400D01*
X397758D02*
Y349758D01*
X406200Y354400D02*
X429800D01*
X399726Y347926D02*
X406200Y354400D01*
X399726Y341400D02*
Y347926D01*
X406300Y350800D02*
X428600D01*
X401694Y346195D02*
X406300Y350800D01*
X401694Y341400D02*
Y346195D01*
X403663Y341400D02*
Y344563D01*
X397758Y363841D02*
X399726D01*
X358573Y321900D02*
X362400Y325728D01*
X358573Y319000D02*
Y321900D01*
X396400Y325400D02*
X419900D01*
X387915Y333885D02*
X396400Y325400D01*
X387915Y333885D02*
Y341400D01*
X397900Y327900D02*
X428982D01*
X389883Y335916D02*
X397900Y327900D01*
X389883Y335916D02*
Y341400D01*
X394700Y323200D02*
X409000D01*
X385946Y331954D02*
X394700Y323200D01*
X385946Y331954D02*
Y341400D01*
X395400Y319000D02*
X398227D01*
X383978Y330422D02*
X395400Y319000D01*
X383978Y330422D02*
Y341400D01*
X409000Y323200D02*
X411445Y320755D01*
Y319000D02*
Y320755D01*
X419900Y325400D02*
X424664Y320636D01*
Y319000D02*
Y320636D01*
X428982Y327900D02*
X437882Y319000D01*
X439400Y330700D02*
X451100Y319000D01*
X398400Y330700D02*
X439400D01*
X391852Y337248D02*
X398400Y330700D01*
X391852Y337248D02*
Y341400D01*
D54*
X497081Y317098D02*
X506299D01*
X496221Y316238D02*
X497081Y317098D01*
X478000Y397000D02*
X498740D01*
X496068Y316390D02*
X496221Y316238D01*
X471869Y316891D02*
X472076Y317098D01*
X392191Y383000D02*
X398500D01*
X398300Y388549D02*
X398500Y388349D01*
Y383000D02*
Y388349D01*
Y374000D02*
Y383000D01*
X498740Y397000D02*
X505011Y390729D01*
X472076Y317098D02*
X478255D01*
X472469Y325185D02*
X473076Y324578D01*
X478255D01*
X489082D02*
X489222Y324438D01*
X493368D01*
X496068Y321738D01*
Y316390D02*
Y321738D01*
X495361Y317098D02*
X496068Y316390D01*
X489082Y317098D02*
X495361D01*
D55*
X245445Y418260D02*
D03*
X255445D02*
D03*
X265445D02*
D03*
D56*
X514401Y390761D02*
D03*
X504401D02*
D03*
X509000Y260000D02*
D03*
Y270000D02*
D03*
Y280000D02*
D03*
Y290000D02*
D03*
X506378Y341258D02*
D03*
Y351258D02*
D03*
Y361258D02*
D03*
Y371258D02*
D03*
Y239172D02*
D03*
Y229172D02*
D03*
Y219172D02*
D03*
Y209172D02*
D03*
D57*
X213288Y180717D02*
D03*
X518406D02*
D03*
Y410229D02*
D03*
X213288D02*
D03*
D58*
X412461Y268848D02*
D03*
Y278848D02*
D03*
X402461D02*
D03*
Y268848D02*
D03*
X392461D02*
D03*
Y278848D02*
D03*
X382461D02*
D03*
Y268848D02*
D03*
X372461D02*
D03*
Y278848D02*
D03*
X362461D02*
D03*
Y268848D02*
D03*
D59*
X307326Y394606D02*
D03*
Y402506D02*
D03*
X315226D02*
D03*
Y394606D02*
D03*
X323026D02*
D03*
Y402506D02*
D03*
X331026D02*
D03*
Y394606D02*
D03*
X338826D02*
D03*
Y402506D02*
D03*
X346726D02*
D03*
Y394606D02*
D03*
X354526D02*
D03*
Y402506D02*
D03*
X362426D02*
D03*
Y394606D02*
D03*
X370326D02*
D03*
Y402506D02*
D03*
X378226D02*
D03*
Y394606D02*
D03*
X386126D02*
D03*
Y402506D02*
D03*
X237900Y326000D02*
D03*
X245800D02*
D03*
Y318100D02*
D03*
X237900D02*
D03*
Y310200D02*
D03*
X245800D02*
D03*
Y302300D02*
D03*
X237900D02*
D03*
Y294400D02*
D03*
X245800D02*
D03*
Y286600D02*
D03*
X237900D02*
D03*
Y278700D02*
D03*
X245800D02*
D03*
Y270900D02*
D03*
X237900D02*
D03*
Y262900D02*
D03*
X245800D02*
D03*
Y255100D02*
D03*
X237900D02*
D03*
Y247200D02*
D03*
X245800D02*
D03*
X386126Y422006D02*
D03*
X378226D02*
D03*
X362426D02*
D03*
X370326D02*
D03*
X354526D02*
D03*
X346626D02*
D03*
X330826Y422106D02*
D03*
X338726D02*
D03*
X322926Y422006D02*
D03*
X315026D02*
D03*
X307326D02*
D03*
Y414206D02*
D03*
X315026D02*
D03*
X322926D02*
D03*
X338726Y414306D02*
D03*
X330826D02*
D03*
X346626Y414206D02*
D03*
X354526D02*
D03*
X370326D02*
D03*
X362426D02*
D03*
X378226D02*
D03*
X386126D02*
D03*
X221900Y325700D02*
D03*
Y317800D02*
D03*
Y302000D02*
D03*
Y309900D02*
D03*
Y294100D02*
D03*
Y286200D02*
D03*
X221800Y270400D02*
D03*
Y278300D02*
D03*
X221900Y262500D02*
D03*
Y254600D02*
D03*
Y246900D02*
D03*
X214100D02*
D03*
Y254600D02*
D03*
Y262500D02*
D03*
X214000Y278300D02*
D03*
Y270400D02*
D03*
X214100Y286200D02*
D03*
Y294100D02*
D03*
Y309900D02*
D03*
Y302000D02*
D03*
Y317800D02*
D03*
Y325700D02*
D03*
D60*
X506299Y317098D02*
D03*
X412795Y383465D02*
D03*
Y374606D02*
D03*
X486529Y417221D02*
D03*
X387335Y376474D02*
D03*
X417900Y374100D02*
D03*
X407600Y374300D02*
D03*
X462700Y392000D02*
D03*
X471800Y391900D02*
D03*
X485600Y406900D02*
D03*
X490768Y310538D02*
D03*
X477169Y310932D02*
D03*
X477769Y331038D02*
D03*
X484469Y320838D02*
D03*
X399700Y334900D02*
D03*
X372200Y341259D02*
D03*
Y363700D02*
D03*
X408400Y333900D02*
D03*
X390821Y368821D02*
D03*
D61*
X462894Y417421D02*
D03*
X488091Y382776D02*
D03*
D62*
X428248Y396161D02*
D03*
D63*
X415700Y343000D02*
D03*
X409500Y346000D02*
D03*
X454013Y313013D02*
D03*
X440795D02*
D03*
X427577D02*
D03*
X414359D02*
D03*
X401141D02*
D03*
X387923D02*
D03*
X374704D02*
D03*
X361486D02*
D03*
X348268D02*
D03*
X335050D02*
D03*
X321832D02*
D03*
X308600Y313000D02*
D03*
M02*
