G04*
G04 #@! TF.GenerationSoftware,Altium Limited,Altium Designer,18.1.11 (251)*
G04*
G04 Layer_Color=16711935*
%FSLAX25Y25*%
%MOIN*%
G70*
G01*
G75*
%ADD69C,0.00394*%
D69*
X473571Y393201D02*
G03*
X473571Y393201I-1969J0D01*
G01*
X411537Y357935D02*
G03*
X411537Y357935I-1969J0D01*
G01*
X468110Y308858D02*
X473819D01*
X468110Y317520D02*
X473819D01*
X468110Y308858D02*
Y317520D01*
X473819Y308858D02*
Y317520D01*
X396528Y394947D02*
X400072D01*
X396528Y388253D02*
X400072D01*
Y394947D01*
X396528Y388253D02*
Y394947D01*
X386482Y381425D02*
X392978D01*
X386482Y384575D02*
X392978D01*
Y381425D02*
Y384575D01*
X386482Y381425D02*
Y384575D01*
X497047Y403740D02*
X500591D01*
X497047Y410433D02*
X500591D01*
X497047Y403740D02*
Y410433D01*
X500591Y403740D02*
Y410433D01*
X459398Y409342D02*
X475146D01*
X459398Y389657D02*
X475146D01*
X459398D02*
Y409342D01*
X475146Y389657D02*
Y409342D01*
X494198Y309993D02*
X497939D01*
X494198Y316883D02*
X497939D01*
X494198Y309993D02*
Y316883D01*
X497939Y309993D02*
Y316883D01*
X470598Y331583D02*
X474339D01*
X470598Y324693D02*
X474339D01*
Y331583D01*
X470598Y324693D02*
Y331583D01*
X480224Y326842D02*
X487113D01*
X480224Y314834D02*
X487113D01*
X480224D02*
Y326842D01*
X487113Y314834D02*
Y326842D01*
X374529Y361479D02*
X413112D01*
X374529Y343762D02*
X413112D01*
Y361479D01*
X374529Y343762D02*
Y361479D01*
X452872Y299954D02*
Y306646D01*
X449328Y299954D02*
Y306646D01*
X452872D01*
X449328Y299954D02*
X452872D01*
X439653D02*
Y306646D01*
X436110Y299954D02*
Y306646D01*
X439653D01*
X436110Y299954D02*
X439653D01*
X426435D02*
Y306646D01*
X422892Y299954D02*
Y306646D01*
X426435D01*
X422892Y299954D02*
X426435D01*
X413217D02*
Y306646D01*
X409674Y299954D02*
Y306646D01*
X413217D01*
X409674Y299954D02*
X413217D01*
X399999D02*
Y306646D01*
X396456Y299954D02*
Y306646D01*
X399999D01*
X396456Y299954D02*
X399999D01*
X386781D02*
Y306646D01*
X383237Y299954D02*
Y306646D01*
X386781D01*
X383237Y299954D02*
X386781D01*
X373563D02*
Y306646D01*
X370019Y299954D02*
Y306646D01*
X373563D01*
X370019Y299954D02*
X373563D01*
X360344D02*
Y306646D01*
X356801Y299954D02*
Y306646D01*
X360344D01*
X356801Y299954D02*
X360344D01*
X347126D02*
Y306646D01*
X343583Y299954D02*
Y306646D01*
X347126D01*
X343583Y299954D02*
X347126D01*
X333908D02*
Y306646D01*
X330365Y299954D02*
Y306646D01*
X333908D01*
X330365Y299954D02*
X333908D01*
X320690D02*
Y306646D01*
X317146Y299954D02*
Y306646D01*
X320690D01*
X317146Y299954D02*
X320690D01*
X307472D02*
Y306646D01*
X303928Y299954D02*
Y306646D01*
X307472D01*
X303928Y299954D02*
X307472D01*
X305090Y320083D02*
X309224D01*
X305090Y317917D02*
X309224D01*
X305090D02*
Y320083D01*
X309224Y317917D02*
Y320083D01*
X318308D02*
X322442D01*
X318308Y317917D02*
X322442D01*
X318308D02*
Y320083D01*
X322442Y317917D02*
Y320083D01*
X331526D02*
X335660D01*
X331526Y317917D02*
X335660D01*
X331526D02*
Y320083D01*
X335660Y317917D02*
Y320083D01*
X344744D02*
X348878D01*
X344744Y317917D02*
X348878D01*
X344744D02*
Y320083D01*
X348878Y317917D02*
Y320083D01*
X357962D02*
X362096D01*
X357962Y317917D02*
X362096D01*
X357962D02*
Y320083D01*
X362096Y317917D02*
Y320083D01*
X371181D02*
X375314D01*
X371181Y317917D02*
X375314D01*
X371181D02*
Y320083D01*
X375314Y317917D02*
Y320083D01*
X384399D02*
X388533D01*
X384399Y317917D02*
X388533D01*
X384399D02*
Y320083D01*
X388533Y317917D02*
Y320083D01*
X397617D02*
X401751D01*
X397617Y317917D02*
X401751D01*
X397617D02*
Y320083D01*
X401751Y317917D02*
Y320083D01*
X410835D02*
X414969D01*
X410835Y317917D02*
X414969D01*
X410835D02*
Y320083D01*
X414969Y317917D02*
Y320083D01*
X424053D02*
X428187D01*
X424053Y317917D02*
X428187D01*
X424053D02*
Y320083D01*
X428187Y317917D02*
Y320083D01*
X437272D02*
X441405D01*
X437272Y317917D02*
X441405D01*
X437272D02*
Y320083D01*
X441405Y317917D02*
Y320083D01*
X450490D02*
X454624D01*
X450490Y317917D02*
X454624D01*
X450490D02*
Y320083D01*
X454624Y317917D02*
Y320083D01*
M02*
