M48
;Layer_Color=9474304
;FILE_FORMAT=2:5
INCH,LZ
;TYPE=PLATED
T1F00S00C0.01000
T2F00S00C0.01500
T3F00S00C0.01968
T4F00S00C0.02362
T5F00S00C0.03150
T6F00S00C0.03150
T7F00S00C0.04016
T8F00S00C0.04016
T9F00S00C0.04016
T10F00S00C0.04291
T11F00S00C0.15748
%
T01
X03086Y0313
X0321832Y0313013
X033505
X0348268
X0361486
X0374704
X0387923
X0401141
X0414359
X0427577
X0440795
X0454013
X04157Y0343
X04095Y0346
T02
X0477169Y0310932
X0490768Y0310538
X04084Y03339
X03997Y03349
X03722Y0341259
Y03637
X0390821Y0368821
X0387335Y0376474
X04076Y03743
X0412795Y0374606
X04179Y03741
X0412795Y0383465
X04627Y0392
X04718Y03919
X04856Y04069
X0486529Y0417221
X0477769Y0331038
X0484469Y0320838
X0506299Y0317098
T03
X0462894Y0417421
X0488091Y0382776
T04
X0428248Y0396161
T05
X02379Y02472
Y02551
Y02629
X02458
Y02551
Y02472
Y02709
Y02787
Y02866
Y02944
Y03023
Y03102
X02379
Y03023
Y02944
Y02866
Y02787
Y02709
Y03181
Y0326
X02458
Y03181
X0307326Y0394606
Y0402506
X0315226
X0323026
Y0394606
X0315226
X0331026
X0338826
Y0402506
X0331026
X0346726
X0354526
Y0394606
X0346726
X0362426
Y0402506
X0370326
Y0394606
X0378226
Y0402506
X0386126
Y0394606
T06
X02141Y02469
Y02546
X02219
Y02469
Y02625
X02141
X0214Y02704
X02218
Y02783
X0214
X02141Y02862
X02219
Y02941
X02141
Y0302
X02219
Y03099
X02141
Y03178
X02219
Y03257
X02141
X0307326Y0414206
Y0422006
X0315026
Y0414206
X0322926
Y0422006
X0330826Y0422106
Y0414306
X0338726
Y0422106
X0346626Y0422006
Y0414206
X0354526
Y0422006
X0362426
Y0414206
X0370326
Y0422006
X0378226
Y0414206
X0386126
Y0422006
T07
X0245445Y041826
X0255445
X0265445
T08
X0362461Y0268848
X0372461
X0382461
X0392461
X0402461
X0412461
Y0278848
X0402461
X0392461
X0382461
X0372461
X0362461
X0504401Y0390761
X0514401
T09
X0509Y026
Y027
Y028
Y029
T10
X0506378Y0209172
Y0219172
Y0229172
Y0239172
Y0341258
Y0351258
Y0361258
Y0371258
T11
X0518406Y0180717
X0213288
Y0410229
X0518406
M30
