G04*
G04 #@! TF.GenerationSoftware,Altium Limited,Altium Designer,18.1.11 (251)*
G04*
G04 Layer_Color=32896*
%FSLAX25Y25*%
%MOIN*%
G70*
G01*
G75*
%ADD13C,0.00787*%
%ADD16C,0.00591*%
G36*
X415351Y185519D02*
X414709Y185199D01*
X413426D01*
Y188173D01*
X410598D01*
Y185199D01*
X408673D01*
Y192809D01*
X410598D01*
Y189893D01*
X413426D01*
Y192809D01*
X415351D01*
Y185519D01*
D02*
G37*
G36*
X400188Y185198D02*
X398292D01*
Y190389D01*
X395114Y185198D01*
X393277D01*
Y192809D01*
X395201D01*
Y187735D01*
X398409Y192809D01*
X400188D01*
Y185198D01*
D02*
G37*
G36*
X432526Y185519D02*
X431884Y185199D01*
X430689D01*
Y190039D01*
X429289Y185199D01*
X427744D01*
X426373Y190039D01*
Y185199D01*
X424536D01*
Y192809D01*
X426344D01*
X428502Y187531D01*
X430631Y192809D01*
X432526D01*
Y185519D01*
D02*
G37*
G36*
X379163Y185198D02*
X377355D01*
Y190039D01*
X375926Y185198D01*
X374410D01*
X373010Y190039D01*
Y185198D01*
X371203D01*
Y192809D01*
X373040D01*
X375139Y187531D01*
X377326Y192809D01*
X379163D01*
Y185198D01*
D02*
G37*
G36*
X452296Y191060D02*
X450284D01*
Y185199D01*
X448360D01*
Y191060D01*
X446319D01*
Y192518D01*
Y192809D01*
X452296D01*
Y191060D01*
D02*
G37*
G36*
X446231Y185199D02*
X440778D01*
X440749Y185270D01*
Y186919D01*
X444336D01*
Y188144D01*
X440953D01*
Y189893D01*
X444307D01*
Y191060D01*
X440807D01*
Y192518D01*
Y192809D01*
X446231D01*
Y185199D01*
D02*
G37*
G36*
X440749Y185270D02*
Y185199D01*
X438912D01*
X436813Y190856D01*
X436054Y188814D01*
X437367D01*
X437891Y187094D01*
X435471D01*
X434684Y185199D01*
X432730D01*
X435879Y192809D01*
X437687D01*
X440749Y185270D01*
D02*
G37*
G36*
X421474Y185519D02*
X420833Y185199D01*
X419550D01*
Y191031D01*
X418121D01*
X417946Y191001D01*
X417800Y190972D01*
X417742Y190943D01*
X417713Y190914D01*
X417625Y190797D01*
X417596Y190652D01*
X417567Y190535D01*
Y190506D01*
Y190477D01*
X417596Y190331D01*
X417625Y190185D01*
X417742Y189981D01*
X417888Y189835D01*
X417917Y189777D01*
X417946D01*
X418092Y189689D01*
X418325Y189602D01*
X418762Y189456D01*
X418996Y189398D01*
X419171Y189368D01*
X419287Y189339D01*
X419346D01*
X419112Y187590D01*
X418442Y187706D01*
X417888Y187852D01*
X417421Y188027D01*
X417042Y188173D01*
X416750Y188348D01*
X416546Y188464D01*
X416430Y188552D01*
X416401Y188581D01*
X416109Y188873D01*
X415905Y189193D01*
X415759Y189514D01*
X415672Y189806D01*
X415584Y190097D01*
X415555Y190302D01*
Y190447D01*
Y190506D01*
X415584Y190885D01*
X415642Y191235D01*
X415759Y191526D01*
X415876Y191760D01*
X415992Y191964D01*
X416109Y192080D01*
X416167Y192168D01*
X416196Y192197D01*
X416459Y192401D01*
X416750Y192547D01*
X417071Y192664D01*
X417363Y192722D01*
X417625Y192780D01*
X417829Y192809D01*
X421474D01*
Y185519D01*
D02*
G37*
G36*
X408469Y185199D02*
X406661Y185344D01*
X406515Y185432D01*
X404474Y190856D01*
X403687Y188814D01*
X405028D01*
X405553Y187094D01*
X403133D01*
X402316Y185199D01*
X400392Y185198D01*
X403541Y192809D01*
X405378D01*
X408469Y185199D01*
D02*
G37*
G36*
X393189Y191060D02*
X391177D01*
Y185198D01*
X389253D01*
Y191060D01*
X387241D01*
Y192518D01*
Y192809D01*
X393189D01*
Y191060D01*
D02*
G37*
G36*
X384237Y192839D02*
X384820Y192722D01*
X385316Y192547D01*
X385724Y192372D01*
X386045Y192168D01*
X386278Y192022D01*
X386395Y191905D01*
X386453Y191847D01*
X386774Y191439D01*
X387007Y190972D01*
X387182Y190506D01*
X387299Y190039D01*
X387357Y189631D01*
X387386Y189310D01*
X387416Y189164D01*
Y189077D01*
Y189018D01*
Y188989D01*
X387095Y188960D01*
X387124Y188289D01*
X387066Y187735D01*
X386949Y187240D01*
X386803Y186831D01*
X386628Y186511D01*
X386482Y186277D01*
X386366Y186161D01*
X386337Y186102D01*
X385928Y185782D01*
X385491Y185548D01*
X385024Y185373D01*
X384587Y185257D01*
X384179Y185198D01*
X383858Y185169D01*
X383741Y185140D01*
X383566D01*
X382896Y185169D01*
X382312Y185286D01*
X381846Y185432D01*
X381438Y185636D01*
X381146Y185811D01*
X380913Y185957D01*
X380767Y186073D01*
X380738Y186102D01*
X380417Y186511D01*
X380184Y186977D01*
X380009Y187444D01*
X379892Y187910D01*
X379834Y188348D01*
X379776Y188669D01*
Y188814D01*
Y188902D01*
Y188960D01*
Y188989D01*
X379805Y189660D01*
X379921Y190214D01*
X380067Y190710D01*
X380242Y191118D01*
X380446Y191439D01*
X380592Y191672D01*
X380709Y191789D01*
X380738Y191847D01*
X381117Y192197D01*
X381583Y192430D01*
X382050Y192605D01*
X382488Y192751D01*
X382925Y192809D01*
X383246Y192839D01*
X383391Y192868D01*
X383566D01*
X384237Y192839D01*
D02*
G37*
G36*
X460928Y202403D02*
X461978Y201645D01*
X462444Y201266D01*
X462911Y200916D01*
X463319Y200595D01*
X463727Y200303D01*
X464077Y200012D01*
X464398Y199749D01*
X464689Y199545D01*
X464923Y199341D01*
X465098Y199195D01*
X465244Y199079D01*
X465331Y199020D01*
X465360Y198991D01*
X466293Y198233D01*
X467197Y197475D01*
X468043Y196804D01*
X468451Y196484D01*
X468830Y196163D01*
X469151Y195900D01*
X469472Y195638D01*
X469734Y195434D01*
X469968Y195230D01*
X470143Y195084D01*
X470288Y194967D01*
X470376Y194909D01*
X470405Y194880D01*
X471338Y194122D01*
X472242Y193363D01*
X473088Y192664D01*
X473496Y192343D01*
X473875Y192051D01*
X474196Y191760D01*
X474516Y191526D01*
X474779Y191293D01*
X475012Y191118D01*
X475187Y190972D01*
X475333Y190856D01*
X475420Y190797D01*
X475450Y190768D01*
X476412Y189981D01*
X477316Y189193D01*
X478220Y188464D01*
X478599Y188085D01*
X479007Y187765D01*
X479357Y187444D01*
X479678Y187152D01*
X479940Y186919D01*
X480173Y186686D01*
X480378Y186511D01*
X480523Y186394D01*
X480611Y186307D01*
X480640Y186277D01*
X480057Y186044D01*
X479503Y185840D01*
X479007Y185665D01*
X478570Y185490D01*
X478249Y185373D01*
X477986Y185286D01*
X477811Y185228D01*
X477753Y185199D01*
X476820Y184936D01*
X476383Y184819D01*
X475974Y184732D01*
X475654Y184644D01*
X475391Y184615D01*
X475216Y184557D01*
X475158D01*
X474808Y184615D01*
X475070Y184440D01*
X475304Y184265D01*
X475508Y184120D01*
X475683Y183974D01*
X475829Y183857D01*
X475916Y183770D01*
X475974Y183711D01*
X476004Y183682D01*
X476324Y183332D01*
X476587Y183041D01*
X476703Y182924D01*
X476791Y182837D01*
X476820Y182778D01*
X476849Y182749D01*
X477287Y182283D01*
X477666Y181874D01*
X478045Y181466D01*
X478336Y181116D01*
X478599Y180825D01*
X478803Y180591D01*
X478920Y180446D01*
X478978Y180387D01*
X479853Y179483D01*
X480261Y179046D01*
X480640Y178667D01*
X480961Y178317D01*
X481194Y178084D01*
X481340Y177909D01*
X481369Y177879D01*
X481398Y177850D01*
X481865Y177384D01*
X482273Y176917D01*
X482681Y176480D01*
X483031Y176130D01*
X483323Y175809D01*
X483556Y175547D01*
X483702Y175401D01*
X483760Y175343D01*
X484198Y174876D01*
X484606Y174439D01*
X484985Y174001D01*
X485335Y173651D01*
X485626Y173360D01*
X485830Y173126D01*
X485976Y172980D01*
X486035Y172922D01*
X486180Y172806D01*
X486326Y172689D01*
X486414Y172601D01*
X486472Y172572D01*
X486530Y172485D01*
X486589Y172397D01*
X486618Y172164D01*
X486589Y171989D01*
Y171960D01*
Y171931D01*
X486501Y171843D01*
X486414Y171785D01*
X486326Y171756D01*
X486239D01*
X486093Y171814D01*
X486035Y171843D01*
X485801Y171989D01*
X485626Y172077D01*
X485539Y172135D01*
X485510Y172164D01*
X484577Y172864D01*
X483731Y173535D01*
X482944Y174147D01*
X482594Y174439D01*
X482273Y174730D01*
X481981Y174963D01*
X481719Y175197D01*
X481515Y175372D01*
X481311Y175547D01*
X481165Y175692D01*
X481048Y175780D01*
X480990Y175838D01*
X480961Y175867D01*
X480028Y176567D01*
X479124Y177267D01*
X478249Y177909D01*
X477870Y178200D01*
X477491Y178463D01*
X477170Y178725D01*
X476849Y178958D01*
X476587Y179162D01*
X476354Y179337D01*
X476179Y179483D01*
X476033Y179571D01*
X475945Y179629D01*
X475916Y179658D01*
X474983Y180387D01*
X474050Y181058D01*
X473204Y181699D01*
X472796Y182020D01*
X472446Y182283D01*
X472096Y182545D01*
X471805Y182778D01*
X471542Y182982D01*
X471309Y183157D01*
X471105Y183303D01*
X470988Y183391D01*
X470901Y183449D01*
X470871Y183478D01*
X469763Y184207D01*
X468714Y184907D01*
X468247Y185228D01*
X467780Y185548D01*
X467343Y185840D01*
X466964Y186132D01*
X466614Y186365D01*
X466293Y186598D01*
X466002Y186802D01*
X465768Y186977D01*
X465593Y187123D01*
X465448Y187211D01*
X465360Y187269D01*
X465331Y187298D01*
X465185Y187415D01*
X465069Y187502D01*
X465010Y187560D01*
X464981Y187590D01*
X464894Y187677D01*
X464806Y187765D01*
X464602Y188027D01*
X464515Y188144D01*
X464427Y188260D01*
X464398Y188319D01*
X464369Y188348D01*
X465098Y188581D01*
X465768Y188785D01*
X466381Y188960D01*
X466906Y189106D01*
X467343Y189223D01*
X467547Y189281D01*
X467693Y189310D01*
X467810Y189368D01*
X467897D01*
X467955Y189398D01*
X467985D01*
X468597Y189543D01*
X469180Y189689D01*
X469705Y189835D01*
X470143Y189952D01*
X470521Y190039D01*
X470813Y190097D01*
X470930Y190127D01*
X471017Y190156D01*
X471076D01*
X470580Y190622D01*
X470084Y191118D01*
X469618Y191585D01*
X469180Y192022D01*
X468830Y192401D01*
X468539Y192722D01*
X468451Y192839D01*
X468364Y192926D01*
X468334Y192955D01*
X468305Y192984D01*
X467751Y193597D01*
X467256Y194151D01*
X466760Y194705D01*
X466323Y195171D01*
X465973Y195580D01*
X465681Y195900D01*
X465593Y196017D01*
X465506Y196104D01*
X465477Y196134D01*
X465448Y196163D01*
X464923Y196746D01*
X464427Y197329D01*
X463931Y197854D01*
X463523Y198321D01*
X463173Y198729D01*
X462882Y199050D01*
X462794Y199166D01*
X462707Y199254D01*
X462677Y199283D01*
X462648Y199312D01*
X462123Y199924D01*
X461599Y200508D01*
X461103Y201062D01*
X460665Y201557D01*
X460286Y201966D01*
X459995Y202286D01*
X459878Y202403D01*
X459791Y202490D01*
X459761Y202549D01*
X459732Y202578D01*
Y202724D01*
X459761Y202811D01*
X459791Y202840D01*
X459820Y202928D01*
Y203045D01*
Y203132D01*
Y203190D01*
X460928Y202403D01*
D02*
G37*
G36*
X453405Y182662D02*
X453871Y182516D01*
Y181612D01*
X369686Y181612D01*
Y182807D01*
X453405Y182662D01*
D02*
G37*
G36*
X386512Y180037D02*
X386628Y180008D01*
X386686D01*
X386861Y179950D01*
X386978Y179891D01*
X387095Y179833D01*
X387124Y179804D01*
X387241Y179717D01*
X387357Y179629D01*
X387445Y179542D01*
X387474Y179512D01*
X387561Y179396D01*
X387649Y179308D01*
X387678Y179250D01*
X387707Y179221D01*
X387766Y179046D01*
X387795Y178988D01*
Y178958D01*
X387824Y178813D01*
X387853Y178783D01*
Y178754D01*
X387882Y178638D01*
Y178492D01*
Y178404D01*
Y178346D01*
Y178171D01*
Y177996D01*
Y177850D01*
Y177821D01*
Y177792D01*
Y177530D01*
Y177325D01*
Y177209D01*
Y177150D01*
Y177005D01*
X387853Y176888D01*
Y176830D01*
Y176801D01*
X387824Y176684D01*
Y176655D01*
Y176626D01*
X387795Y176567D01*
Y176538D01*
Y176509D01*
X387766Y176480D01*
Y176451D01*
X387736Y176392D01*
Y176363D01*
Y176334D01*
X387620Y176188D01*
X387532Y176101D01*
X387474Y176042D01*
X387445Y176013D01*
X387357Y175926D01*
X387241Y175838D01*
X387153Y175751D01*
X387124Y175722D01*
X386978Y175634D01*
X386832Y175576D01*
X386716Y175517D01*
X386686D01*
X386512Y175488D01*
X386337Y175459D01*
X386162D01*
X385958Y175488D01*
X385783Y175517D01*
X385666Y175547D01*
X385608D01*
X385403Y175634D01*
X385228Y175722D01*
X385112Y175780D01*
X385054Y175809D01*
X384908Y175926D01*
X384762Y176072D01*
X384704Y176188D01*
X384675Y176217D01*
X384587Y176451D01*
X384500Y176684D01*
X384470Y176859D01*
X384441Y176888D01*
Y176917D01*
Y177209D01*
X385608D01*
X385724Y176975D01*
X385812Y176830D01*
X385870Y176771D01*
X385899Y176742D01*
X385987Y176684D01*
X386074Y176655D01*
X386278D01*
X386308Y176684D01*
X386337Y176713D01*
X386395Y176742D01*
X386453D01*
X386482Y176771D01*
X386541Y176830D01*
X386570Y176859D01*
Y176888D01*
X386599Y176917D01*
Y176975D01*
X386628Y177005D01*
X386657Y177209D01*
Y177267D01*
Y177296D01*
Y177471D01*
Y177617D01*
Y177734D01*
Y177792D01*
Y177967D01*
Y178113D01*
Y178200D01*
Y178229D01*
Y178346D01*
X386628Y178433D01*
Y178463D01*
X386599Y178579D01*
Y178608D01*
X386570Y178667D01*
X386512Y178725D01*
X386482Y178754D01*
X386395Y178813D01*
X386366Y178842D01*
X386308D01*
X386191Y178871D01*
X386074D01*
X386045Y178842D01*
X385958Y178813D01*
X385928D01*
X385899Y178783D01*
X385812Y178696D01*
X385783Y178667D01*
Y178638D01*
X385724Y178550D01*
X385695Y178433D01*
X385666Y178346D01*
Y178288D01*
X384441D01*
X384470Y178521D01*
X384500Y178725D01*
X384558Y178871D01*
X384577Y178949D01*
X384791Y178929D01*
Y179439D01*
X384733Y179367D01*
X384645Y179192D01*
X384616Y179133D01*
Y179075D01*
X384587Y178988D01*
X384577Y178949D01*
X383712Y179029D01*
Y175488D01*
X382458D01*
Y178929D01*
X381379D01*
Y180037D01*
X384791D01*
Y179439D01*
X384849Y179512D01*
X384937Y179600D01*
X384966Y179629D01*
X385170Y179804D01*
X385345Y179891D01*
X385491Y179950D01*
X385520Y179979D01*
X385549D01*
X385753Y180037D01*
X385958Y180066D01*
X386366D01*
X386512Y180037D01*
D02*
G37*
G36*
X474021Y201587D02*
X474779Y201499D01*
X475450Y201382D01*
X475770Y201324D01*
X476033Y201266D01*
X476266Y201207D01*
X476470Y201178D01*
X476645Y201120D01*
X476762Y201091D01*
X476820Y201062D01*
X476849D01*
X477637Y200799D01*
X478395Y200478D01*
X479065Y200158D01*
X479678Y199866D01*
X479940Y199720D01*
X480173Y199574D01*
X480378Y199458D01*
X480553Y199341D01*
X480698Y199254D01*
X480786Y199195D01*
X480844Y199166D01*
X480873Y199137D01*
X481573Y198583D01*
X482215Y197971D01*
X482798Y197358D01*
X483294Y196804D01*
X483702Y196279D01*
X483877Y196046D01*
X484023Y195871D01*
X484139Y195696D01*
X484227Y195580D01*
X484256Y195521D01*
X484285Y195492D01*
X484752Y194851D01*
X485131Y194209D01*
X485481Y193597D01*
X485743Y193013D01*
X485947Y192518D01*
X486035Y192284D01*
X486093Y192110D01*
X486151Y191964D01*
X486180Y191847D01*
X486210Y191789D01*
Y191760D01*
X486443Y190914D01*
X486618Y190068D01*
X486705Y189281D01*
X486793Y188581D01*
X486822Y188289D01*
Y187998D01*
X486851Y187765D01*
Y187560D01*
Y187386D01*
Y187269D01*
Y187181D01*
Y187152D01*
X486793Y186307D01*
X486676Y185519D01*
X486530Y184790D01*
X486355Y184149D01*
X486297Y183857D01*
X486210Y183624D01*
X486151Y183391D01*
X486064Y183216D01*
X486035Y183070D01*
X485976Y182953D01*
X485947Y182895D01*
Y182866D01*
X485626Y182020D01*
X485277Y181262D01*
X484897Y180591D01*
X484518Y180008D01*
X484373Y179746D01*
X484198Y179512D01*
X484052Y179337D01*
X483935Y179162D01*
X483848Y179046D01*
X483760Y178958D01*
X483731Y178900D01*
X483702Y178871D01*
X483119Y178754D01*
X482565Y179250D01*
X483089Y179950D01*
X483527Y180591D01*
X483906Y181175D01*
X484198Y181699D01*
X484431Y182137D01*
X484548Y182312D01*
X484606Y182457D01*
X484664Y182574D01*
X484723Y182662D01*
X484752Y182691D01*
Y182720D01*
X485014Y183595D01*
X485189Y184440D01*
X485364Y185199D01*
X485452Y185869D01*
X485510Y186161D01*
X485539Y186423D01*
Y186627D01*
X485568Y186831D01*
X485597Y186977D01*
Y187094D01*
Y187152D01*
Y187181D01*
Y187940D01*
X485539Y188698D01*
X485452Y189368D01*
X485364Y189981D01*
X485335Y190243D01*
X485277Y190477D01*
X485218Y190681D01*
X485189Y190856D01*
X485160Y191001D01*
X485131Y191118D01*
X485102Y191176D01*
Y191206D01*
X484839Y191964D01*
X484577Y192693D01*
X484285Y193305D01*
X484023Y193888D01*
X483789Y194326D01*
X483673Y194530D01*
X483585Y194676D01*
X483498Y194792D01*
X483469Y194880D01*
X483410Y194938D01*
Y194967D01*
X482856Y195667D01*
X482273Y196279D01*
X481719Y196804D01*
X481223Y197242D01*
X480815Y197621D01*
X480611Y197766D01*
X480465Y197883D01*
X480348Y197971D01*
X480261Y198029D01*
X480203Y198087D01*
X480173D01*
X479532Y198495D01*
X478861Y198875D01*
X478249Y199166D01*
X477666Y199429D01*
X477199Y199633D01*
X476995Y199691D01*
X476820Y199749D01*
X476674Y199808D01*
X476558Y199837D01*
X476499Y199866D01*
X476470D01*
X475712Y200070D01*
X474983Y200216D01*
X474283Y200303D01*
X473671Y200362D01*
X473379Y200391D01*
X473117Y200420D01*
X472359D01*
X471542Y200362D01*
X470755Y200274D01*
X469997Y200129D01*
X469326Y199953D01*
X469034Y199895D01*
X468743Y199808D01*
X468509Y199749D01*
X468305Y199662D01*
X468130Y199633D01*
X468014Y199574D01*
X467926Y199545D01*
X467897D01*
X467547Y200595D01*
X468451Y200916D01*
X469297Y201149D01*
X470113Y201353D01*
X470842Y201470D01*
X471134Y201499D01*
X471425Y201557D01*
X471688Y201587D01*
X471892D01*
X472067Y201616D01*
X473175D01*
X474021Y201587D01*
D02*
G37*
G36*
X426548Y179891D02*
X427044Y179746D01*
Y175488D01*
X425790D01*
Y176787D01*
X425469Y176042D01*
X424536D01*
X424245Y176719D01*
Y175488D01*
X422991D01*
Y180037D01*
X424099D01*
X425003Y177500D01*
X425936Y180037D01*
X426548Y179891D01*
D02*
G37*
G36*
X442645D02*
X443140Y179746D01*
Y177121D01*
X443111Y176859D01*
X443082Y176655D01*
X443053Y176509D01*
X443024Y176451D01*
X442907Y176246D01*
X442790Y176072D01*
X442674Y175955D01*
X442645Y175926D01*
X442440Y175751D01*
X442236Y175634D01*
X442120Y175576D01*
X442061Y175547D01*
X441828Y175488D01*
X441624Y175459D01*
X441391D01*
X441128Y175488D01*
X440924Y175517D01*
X440778Y175547D01*
X440720D01*
X440487Y175663D01*
X440312Y175780D01*
X440195Y175867D01*
X440166Y175897D01*
X440020Y176101D01*
X439903Y176276D01*
X439845Y176392D01*
X439816Y176451D01*
X439729Y176684D01*
X439699Y176917D01*
X439670Y177063D01*
Y177092D01*
Y177121D01*
Y180037D01*
X440895D01*
Y177209D01*
X440924Y177034D01*
X440953Y176975D01*
Y176946D01*
X441012Y176830D01*
X441041Y176801D01*
X441070D01*
X441157Y176713D01*
X441187Y176684D01*
X441216D01*
X441332Y176655D01*
X441478D01*
X441537Y176684D01*
X441595D01*
X441682Y176742D01*
X441711Y176801D01*
X441741D01*
X441828Y176888D01*
X441857Y176946D01*
X441886Y177034D01*
Y177121D01*
Y177180D01*
Y177209D01*
Y180037D01*
X442645Y179891D01*
D02*
G37*
G36*
X422116D02*
X422612Y179746D01*
Y177121D01*
X422582Y176859D01*
X422553Y176655D01*
X422524Y176509D01*
X422495Y176451D01*
X422378Y176246D01*
X422262Y176072D01*
X422145Y175955D01*
X422116Y175926D01*
X421912Y175751D01*
X421708Y175634D01*
X421591Y175576D01*
X421533Y175547D01*
X421299Y175488D01*
X421095Y175459D01*
X420862D01*
X420600Y175488D01*
X420396Y175517D01*
X420250Y175547D01*
X420191D01*
X419958Y175663D01*
X419783Y175780D01*
X419666Y175867D01*
X419637Y175897D01*
X419491Y176101D01*
X419346Y176276D01*
X419287Y176392D01*
X419258Y176451D01*
X419171Y176684D01*
X419142Y176917D01*
X419112Y177063D01*
Y177092D01*
Y177121D01*
Y180037D01*
X420366D01*
Y177209D01*
X420396Y177034D01*
X420425Y176975D01*
Y176946D01*
X420483Y176830D01*
X420512Y176801D01*
X420541Y176771D01*
X420629Y176713D01*
X420658Y176684D01*
X420687D01*
X420804Y176655D01*
X420950D01*
X421008Y176684D01*
X421066D01*
X421154Y176742D01*
X421183Y176801D01*
X421212D01*
X421299Y176888D01*
X421329Y176946D01*
X421358Y177034D01*
Y177121D01*
Y177180D01*
Y177209D01*
Y180037D01*
X422116Y179891D01*
D02*
G37*
G36*
X374673Y180037D02*
X374789Y180008D01*
X374848D01*
X375023Y179950D01*
X375198Y179862D01*
X375314Y179804D01*
X375372Y179775D01*
X375518Y179629D01*
X375577Y179571D01*
X375606Y179542D01*
X375781Y179337D01*
X375839Y179250D01*
X375868Y179221D01*
X375926Y179075D01*
X375956Y179017D01*
Y178988D01*
X376014Y178842D01*
Y178783D01*
Y178754D01*
X376043Y178638D01*
Y178521D01*
X376072Y178433D01*
Y178375D01*
Y178200D01*
Y177996D01*
Y177850D01*
Y177821D01*
Y177792D01*
Y177530D01*
Y177325D01*
Y177209D01*
Y177150D01*
X376043Y176975D01*
Y176888D01*
X376014Y176830D01*
Y176801D01*
X375985Y176684D01*
Y176655D01*
Y176626D01*
X375956Y176567D01*
Y176538D01*
Y176509D01*
X375926Y176480D01*
Y176451D01*
X375868Y176334D01*
X375839Y176305D01*
Y176276D01*
X375693Y176101D01*
X375635Y176042D01*
Y176013D01*
X375518Y175926D01*
X375402Y175809D01*
X375314Y175722D01*
X375285Y175692D01*
X375110Y175605D01*
X374964Y175576D01*
X374877Y175517D01*
X374848D01*
X374673Y175488D01*
X374498Y175459D01*
X374323D01*
X374089Y175488D01*
X373914Y175517D01*
X373798Y175547D01*
X373740D01*
X373565Y175634D01*
X373390Y175692D01*
X373273Y175751D01*
X373244Y175780D01*
X373098Y175926D01*
X372952Y176072D01*
X372894Y176188D01*
X372865Y176217D01*
X372748Y176451D01*
X372690Y176655D01*
X372631Y176859D01*
X372602Y176888D01*
Y176917D01*
Y177209D01*
X373798D01*
X373914Y176975D01*
X374002Y176830D01*
X374060Y176771D01*
X374089Y176742D01*
X374148Y176684D01*
X374235Y176655D01*
X374439D01*
X374498Y176684D01*
X374527Y176713D01*
X374585Y176742D01*
X374614Y176771D01*
X374673Y176830D01*
X374702Y176859D01*
X374731Y176888D01*
X374760D01*
Y176975D01*
Y177005D01*
X374789Y177209D01*
X374818Y177267D01*
Y177296D01*
Y177442D01*
Y177588D01*
Y177734D01*
Y177792D01*
Y177996D01*
Y178142D01*
Y178229D01*
Y178259D01*
X374789Y178433D01*
X374760Y178492D01*
Y178521D01*
Y178579D01*
Y178608D01*
X374731Y178638D01*
X374702Y178667D01*
X374643Y178725D01*
X374614Y178754D01*
X374556Y178813D01*
X374527Y178842D01*
X374468D01*
X374381Y178871D01*
X374264D01*
X374235Y178842D01*
X374206D01*
X374060Y178813D01*
X374031Y178783D01*
X373973Y178696D01*
X373944Y178667D01*
X373914Y178579D01*
X373885Y178463D01*
X373827Y178346D01*
Y178317D01*
Y178288D01*
X372602D01*
X372631Y178521D01*
X372661Y178725D01*
X372690Y178871D01*
X372719Y179017D01*
X372748Y179104D01*
X372777Y179162D01*
X372806Y179221D01*
X372923Y179396D01*
X373040Y179512D01*
X373127Y179600D01*
X373156Y179629D01*
X373331Y179775D01*
X373506Y179891D01*
X373623Y179921D01*
X373681Y179950D01*
X373914Y180008D01*
X374119Y180066D01*
X374527D01*
X374673Y180037D01*
D02*
G37*
G36*
X446348Y175488D02*
X445094D01*
Y177180D01*
X443432D01*
Y178317D01*
X445094D01*
Y178871D01*
X443169D01*
Y180037D01*
X446348D01*
Y175488D01*
D02*
G37*
G36*
X437658D02*
X436404D01*
Y177180D01*
X434742D01*
Y178317D01*
X436404D01*
Y178871D01*
X434480D01*
Y180037D01*
X437658D01*
Y175488D01*
D02*
G37*
G36*
X430718D02*
X429464D01*
Y177180D01*
X429202D01*
X428385Y175488D01*
X427161D01*
X428094Y177384D01*
X427890Y177471D01*
X427715Y177617D01*
X427598Y177734D01*
X427569Y177792D01*
X427423Y178084D01*
X427336Y178346D01*
X427306Y178463D01*
Y178550D01*
Y178608D01*
Y178638D01*
X427336Y178871D01*
X427394Y179075D01*
X427423Y179192D01*
X427452Y179250D01*
X427569Y179425D01*
X427685Y179600D01*
X427773Y179717D01*
X427831Y179746D01*
X427977Y179833D01*
X428152Y179891D01*
X428239Y179950D01*
X428298D01*
X428473Y180008D01*
X428648Y180037D01*
X430718D01*
Y175488D01*
D02*
G37*
G36*
X418238Y179891D02*
X418704Y179746D01*
Y175488D01*
X415759D01*
X415526Y176175D01*
Y176655D01*
X417509D01*
Y180037D01*
X418238Y179891D01*
D02*
G37*
G36*
X415526Y176175D02*
Y175488D01*
X414564D01*
X414272Y176363D01*
X412982Y176495D01*
X412930Y175488D01*
X411735D01*
X413280Y180037D01*
X414214D01*
X415526Y176175D01*
D02*
G37*
G36*
X406982Y175488D02*
X405786D01*
X405495Y176363D01*
X404205Y176495D01*
X404153Y175488D01*
X402958D01*
X404503Y180037D01*
X405436D01*
X406982Y175488D01*
D02*
G37*
G36*
X402433Y179891D02*
X402900Y179746D01*
Y175488D01*
X399721Y175488D01*
Y176655D01*
X401675Y176655D01*
Y177209D01*
X400013Y177209D01*
Y178346D01*
X401675Y178346D01*
Y178871D01*
X399721Y178871D01*
Y180037D01*
X402433Y179891D01*
D02*
G37*
G36*
X397417Y179891D02*
X397913Y179746D01*
Y175488D01*
X394735D01*
Y176655D01*
X396659D01*
Y177209D01*
X394997D01*
Y178346D01*
X396659D01*
Y178871D01*
X394735D01*
Y180037D01*
X397417Y179891D01*
D02*
G37*
G36*
X394035D02*
X394531Y179746D01*
Y175488D01*
X391352D01*
Y176655D01*
X393277D01*
Y180037D01*
X394035Y179891D01*
D02*
G37*
G36*
X390681D02*
X391148Y179746D01*
Y175488D01*
X387970D01*
Y176655D01*
X389894D01*
Y177209D01*
X388232D01*
Y178346D01*
X389894D01*
Y178871D01*
X387970D01*
Y180037D01*
X390681Y179891D01*
D02*
G37*
G36*
X380825D02*
X381321Y179746D01*
Y175488D01*
X380067D01*
Y177180D01*
X379834D01*
X378988Y175488D01*
X377793D01*
X378697Y177384D01*
X378522Y177471D01*
X378347Y177617D01*
X378230Y177734D01*
X378201Y177792D01*
X378055Y178084D01*
X377968Y178375D01*
X377939Y178492D01*
Y178579D01*
Y178638D01*
Y178667D01*
X377968Y178900D01*
X377997Y179075D01*
X378055Y179192D01*
X378084Y179250D01*
X378201Y179425D01*
X378289Y179600D01*
X378405Y179717D01*
X378434Y179746D01*
X378580Y179833D01*
X378755Y179891D01*
X378842Y179950D01*
X378901D01*
X379076Y180008D01*
X379251Y180037D01*
X379455D01*
X380825Y179891D01*
D02*
G37*
G36*
X377647Y175488D02*
X376393D01*
Y180037D01*
X377647D01*
Y175488D01*
D02*
G37*
G36*
X448797Y180037D02*
X448943Y180008D01*
X448972Y179979D01*
X449002D01*
X449206Y179891D01*
X449380Y179775D01*
X449497Y179687D01*
X449526Y179658D01*
X449672Y179512D01*
X449760Y179367D01*
X449818Y179279D01*
X449847Y179221D01*
X449905Y179017D01*
X449935Y178842D01*
X449964Y178696D01*
Y178667D01*
Y178638D01*
X449935Y178433D01*
X449905Y178259D01*
X449876Y178142D01*
Y178113D01*
X449789Y177967D01*
X449672Y177792D01*
X449614Y177704D01*
X449585Y177646D01*
X449439Y177530D01*
X449322Y177442D01*
X449206Y177384D01*
X449176Y177355D01*
X448972Y177296D01*
X448797Y177238D01*
X448681Y177209D01*
X448622D01*
X448418Y177180D01*
X448360Y177150D01*
X448098D01*
X448010Y177121D01*
X447952Y177063D01*
X447893Y177034D01*
X447835Y176946D01*
Y176917D01*
Y176830D01*
X447864Y176771D01*
X447893Y176713D01*
X447923D01*
X447981Y176655D01*
X448156Y176509D01*
X448127Y176538D01*
X448068Y176596D01*
X447981Y176655D01*
X448360D01*
X448506Y176684D01*
X448622D01*
X448768Y176713D01*
X448827D01*
X449002Y176801D01*
X449206Y176946D01*
X449380Y177034D01*
X449410Y177092D01*
X449439D01*
X450168Y176276D01*
X449993Y176101D01*
X449818Y175955D01*
X449672Y175838D01*
X449526Y175751D01*
X449410Y175692D01*
X449322Y175634D01*
X449293Y175605D01*
X449264D01*
X448914Y175517D01*
X448622Y175488D01*
X448477Y175459D01*
X448302D01*
X448010Y175488D01*
X447777Y175517D01*
X447573Y175576D01*
X447398Y175634D01*
X447252Y175692D01*
X447164Y175751D01*
X447106Y175809D01*
X447077D01*
X446931Y175955D01*
X446814Y176159D01*
X446727Y176334D01*
X446669Y176538D01*
X446639Y176713D01*
X446610Y176859D01*
Y176946D01*
Y176975D01*
Y177121D01*
X446639Y177238D01*
X446669Y177355D01*
X446698Y177384D01*
X446756Y177559D01*
X446844Y177704D01*
X446902Y177821D01*
X446931Y177850D01*
X447077Y177996D01*
X447223Y178084D01*
X447310Y178142D01*
X447368Y178171D01*
X447573Y178259D01*
X447777Y178317D01*
X447952Y178346D01*
X448243D01*
X448331Y178375D01*
X448360Y178404D01*
X448447Y178433D01*
X448564D01*
X448622Y178463D01*
X448681Y178550D01*
X448710Y178579D01*
Y178608D01*
Y178638D01*
X448681Y178696D01*
Y178725D01*
X448652Y178783D01*
X448535Y178842D01*
X448506D01*
X448447Y178871D01*
X448243D01*
X448098Y178842D01*
X447981Y178813D01*
X447952Y178783D01*
X447748Y178725D01*
X447514Y178638D01*
X447339Y178579D01*
X447310Y178550D01*
X447281D01*
X446727Y179454D01*
X447048Y179687D01*
X447310Y179833D01*
X447485Y179921D01*
X447514Y179950D01*
X447543D01*
X447806Y180008D01*
X448068Y180066D01*
X448593D01*
X448797Y180037D01*
D02*
G37*
G36*
X433138D02*
X433255Y180008D01*
X433313D01*
X433488Y179950D01*
X433605Y179891D01*
X433722Y179833D01*
X433751Y179804D01*
X433867Y179717D01*
X433984Y179629D01*
X434071Y179542D01*
X434101Y179512D01*
X434188Y179396D01*
X434246Y179308D01*
X434305Y179250D01*
Y179221D01*
X434392Y179046D01*
X434421Y178988D01*
Y178958D01*
X434451Y178813D01*
X434480Y178783D01*
Y178754D01*
Y178608D01*
Y178492D01*
X434509Y178375D01*
Y178346D01*
Y178171D01*
Y177996D01*
Y177850D01*
Y177821D01*
Y177792D01*
Y177530D01*
Y177355D01*
Y177209D01*
Y177180D01*
X434480Y177005D01*
Y176888D01*
Y176801D01*
Y176771D01*
X434451Y176684D01*
Y176655D01*
X434421Y176626D01*
Y176567D01*
Y176538D01*
Y176509D01*
X434363Y176421D01*
Y176392D01*
X434334D01*
Y176363D01*
X434305Y176334D01*
Y176305D01*
X434159Y176101D01*
X434130Y176042D01*
X434101Y176013D01*
X433867Y175809D01*
X433780Y175751D01*
X433751Y175722D01*
X433576Y175634D01*
X433430Y175576D01*
X433343Y175517D01*
X433313D01*
X433138Y175488D01*
X432964Y175459D01*
X432584D01*
X432409Y175488D01*
X432293Y175517D01*
X432264D01*
X432089Y175576D01*
X431943Y175634D01*
X431826Y175692D01*
X431797Y175722D01*
X431680Y175838D01*
X431564Y175926D01*
X431505Y175984D01*
X431476Y176013D01*
X431389Y176130D01*
X431330Y176217D01*
X431272Y176276D01*
Y176305D01*
X431185Y176451D01*
X431155Y176509D01*
Y176538D01*
X431097Y176713D01*
X431068Y176771D01*
Y176801D01*
Y176975D01*
Y177121D01*
Y177209D01*
Y177238D01*
X431039Y177413D01*
Y177617D01*
Y177734D01*
Y177792D01*
Y177967D01*
Y178142D01*
X431068Y178259D01*
Y178288D01*
Y178463D01*
Y178608D01*
Y178696D01*
Y178725D01*
X431126Y178900D01*
X431155Y178929D01*
Y178958D01*
X431214Y179133D01*
X431243Y179192D01*
Y179221D01*
X431389Y179425D01*
X431447Y179483D01*
X431476Y179512D01*
X431593Y179629D01*
X431680Y179717D01*
X431768Y179746D01*
X431797Y179775D01*
X431943Y179891D01*
X432118Y179950D01*
X432205Y180008D01*
X432264D01*
X432439Y180037D01*
X432614Y180066D01*
X432993D01*
X433138Y180037D01*
D02*
G37*
G36*
X409023D02*
X409169Y180008D01*
X409227Y179979D01*
X409431Y179891D01*
X409577Y179804D01*
X409694Y179717D01*
X409723Y179687D01*
X409898Y179542D01*
X410014Y179367D01*
X410073Y179279D01*
X410102Y179221D01*
X410160Y179017D01*
X410189Y178842D01*
Y178696D01*
Y178667D01*
Y178638D01*
X410160Y178433D01*
X410131Y178288D01*
X410102Y178171D01*
Y178113D01*
X410014Y177938D01*
X409927Y177821D01*
X409840Y177704D01*
X409810Y177675D01*
X409694Y177559D01*
X409577Y177442D01*
X409460Y177384D01*
X409431Y177355D01*
X409227Y177296D01*
X409052Y177238D01*
X408936Y177209D01*
X408877D01*
X408702Y177180D01*
X408644Y177150D01*
X408323D01*
X408236Y177121D01*
X408177Y177063D01*
X408148Y177034D01*
X408090Y176975D01*
Y176946D01*
Y176917D01*
Y176830D01*
X408119Y176771D01*
X408148Y176713D01*
X408177D01*
X408236Y176655D01*
X408411Y176509D01*
X408382Y176538D01*
X408323Y176596D01*
X408236Y176655D01*
X408615D01*
X408761Y176684D01*
X408877D01*
X409023Y176713D01*
X409052D01*
X409227Y176801D01*
X409460Y176946D01*
X409635Y177034D01*
X409665Y177092D01*
X409694D01*
X410394Y176276D01*
X410219Y176101D01*
X410073Y175955D01*
X409898Y175838D01*
X409781Y175751D01*
X409665Y175692D01*
X409577Y175634D01*
X409548Y175605D01*
X409519D01*
X409169Y175517D01*
X408877Y175488D01*
X408732Y175459D01*
X408557D01*
X408265Y175488D01*
X408003Y175517D01*
X407798Y175576D01*
X407623Y175634D01*
X407478Y175692D01*
X407390Y175751D01*
X407332Y175809D01*
X407303D01*
X407157Y175955D01*
X407040Y176130D01*
X406982Y176334D01*
X406924Y176509D01*
X406894Y176655D01*
X406865Y176801D01*
Y176888D01*
Y176917D01*
Y177092D01*
X406894Y177238D01*
X406924Y177355D01*
X406953Y177384D01*
X407011Y177559D01*
X407098Y177704D01*
X407157Y177821D01*
X407186Y177850D01*
X407332Y177996D01*
X407478Y178084D01*
X407565Y178142D01*
X407623Y178171D01*
X407828Y178259D01*
X408032Y178317D01*
X408207Y178346D01*
X408469D01*
X408586Y178375D01*
X408615Y178404D01*
X408702Y178433D01*
X408819D01*
X408877Y178463D01*
X408906Y178521D01*
X408936Y178550D01*
Y178608D01*
Y178638D01*
Y178696D01*
Y178725D01*
X408906Y178783D01*
X408790Y178842D01*
X408761D01*
X408673Y178871D01*
X408498D01*
X408352Y178842D01*
X408236Y178813D01*
X408207Y178783D01*
X408003Y178725D01*
X407769Y178638D01*
X407594Y178579D01*
X407565Y178550D01*
X407536D01*
X406982Y179454D01*
X407303Y179687D01*
X407565Y179833D01*
X407740Y179921D01*
X407769Y179950D01*
X407798D01*
X408061Y180008D01*
X408294Y180066D01*
X408819D01*
X409023Y180037D01*
D02*
G37*
G36*
X463319Y196279D02*
X462765Y195580D01*
X462269Y194880D01*
X461861Y194209D01*
X461540Y193626D01*
X461278Y193101D01*
X461161Y192897D01*
X461074Y192722D01*
X461015Y192576D01*
X460957Y192459D01*
X460928Y192401D01*
Y192372D01*
X460665Y191614D01*
X460461Y190885D01*
X460316Y190185D01*
X460199Y189573D01*
X460141Y189281D01*
X460111Y189018D01*
X460082Y188814D01*
Y188610D01*
X460053Y188464D01*
Y188348D01*
Y188289D01*
Y188260D01*
Y187502D01*
X460082Y186744D01*
X460141Y186073D01*
X460228Y185432D01*
X460286Y185169D01*
X460345Y184936D01*
X460374Y184703D01*
X460432Y184528D01*
X460461Y184382D01*
X460491Y184265D01*
X460520Y184207D01*
Y184178D01*
X460782Y183361D01*
X461103Y182574D01*
X461424Y181845D01*
X461773Y181204D01*
X461919Y180912D01*
X462065Y180650D01*
X462182Y180416D01*
X462298Y180212D01*
X462386Y180066D01*
X462473Y179950D01*
X462502Y179891D01*
X462532Y179862D01*
X463027Y179308D01*
X463523Y178783D01*
X464019Y178317D01*
X464515Y177938D01*
X464923Y177588D01*
X465244Y177355D01*
X465360Y177267D01*
X465448Y177209D01*
X465506Y177150D01*
X465535D01*
X466206Y176713D01*
X466906Y176305D01*
X467547Y175984D01*
X468130Y175751D01*
X468655Y175547D01*
X468859Y175459D01*
X469034Y175401D01*
X469180Y175343D01*
X469297Y175313D01*
X469355Y175284D01*
X469384D01*
X470143Y175109D01*
X470871Y174993D01*
X471571Y174905D01*
X472213Y174847D01*
X473525D01*
X474341Y174934D01*
X475158Y175051D01*
X475916Y175226D01*
X476616Y175430D01*
X476908Y175517D01*
X477199Y175605D01*
X477462Y175663D01*
X477666Y175751D01*
X477841Y175809D01*
X477957Y175867D01*
X478045Y175897D01*
X478074D01*
X478453Y174847D01*
X477899Y174613D01*
X477374Y174409D01*
X476908Y174234D01*
X476470Y174118D01*
X476120Y174001D01*
X475829Y173943D01*
X475654Y173914D01*
X475625Y173884D01*
X475595D01*
X475070Y173797D01*
X474546Y173768D01*
X474050Y173739D01*
X472913D01*
X472796Y173768D01*
X472650D01*
X472504Y173622D01*
X471980Y173651D01*
X471717D01*
X471455Y173680D01*
X471250Y173709D01*
X471076D01*
X470959Y173739D01*
X470930D01*
X470259Y173855D01*
X469938Y173914D01*
X469676Y173972D01*
X469443Y174030D01*
X469239Y174089D01*
X469122Y174118D01*
X469093D01*
X468247Y174380D01*
X467460Y174701D01*
X466731Y175051D01*
X466089Y175372D01*
X465798Y175517D01*
X465564Y175663D01*
X465331Y175780D01*
X465156Y175897D01*
X465010Y176013D01*
X464894Y176072D01*
X464835Y176101D01*
X464806Y176130D01*
X464077Y176655D01*
X463436Y177238D01*
X462852Y177763D01*
X462357Y178288D01*
X461978Y178754D01*
X461803Y178929D01*
X461686Y179104D01*
X461569Y179250D01*
X461482Y179337D01*
X461453Y179396D01*
X461424Y179425D01*
X460928Y180183D01*
X460520Y180912D01*
X460170Y181641D01*
X459878Y182283D01*
X459761Y182574D01*
X459674Y182866D01*
X459586Y183099D01*
X459499Y183303D01*
X459441Y183449D01*
X459412Y183595D01*
X459382Y183653D01*
Y183682D01*
X459149Y184557D01*
X459003Y185403D01*
X458887Y186190D01*
X458828Y186919D01*
Y187211D01*
Y187502D01*
Y187765D01*
Y187969D01*
Y188144D01*
Y188260D01*
Y188348D01*
Y188377D01*
X458916Y189252D01*
X459032Y190097D01*
X459207Y190856D01*
X459382Y191555D01*
X459470Y191847D01*
X459557Y192110D01*
X459645Y192343D01*
X459703Y192547D01*
X459761Y192722D01*
X459820Y192839D01*
X459849Y192897D01*
Y192926D01*
X460199Y193742D01*
X460636Y194501D01*
X461074Y195171D01*
X461482Y195784D01*
X461686Y196046D01*
X461861Y196309D01*
X462036Y196513D01*
X462182Y196688D01*
X462298Y196833D01*
X462386Y196921D01*
X462444Y196979D01*
X462473Y197008D01*
X463319Y196279D01*
D02*
G37*
%LPC*%
G36*
X383712Y191089D02*
X383566D01*
X383246Y191060D01*
X382983Y191001D01*
X382750Y190943D01*
X382546Y190856D01*
X382400Y190739D01*
X382312Y190681D01*
X382254Y190622D01*
X382225Y190593D01*
X382079Y190389D01*
X381963Y190127D01*
X381875Y189864D01*
X381817Y189631D01*
X381788Y189398D01*
X381758Y189193D01*
Y189077D01*
Y189018D01*
X381788Y188639D01*
X381817Y188289D01*
X381904Y188027D01*
X381992Y187794D01*
X382079Y187619D01*
X382138Y187473D01*
X382196Y187415D01*
X382225Y187385D01*
X382400Y187211D01*
X382604Y187094D01*
X382837Y186977D01*
X383071Y186919D01*
X383246Y186890D01*
X383421Y186861D01*
X383566D01*
X383887Y186890D01*
X384179Y186948D01*
X384412Y187036D01*
X384616Y187123D01*
X384762Y187211D01*
X384879Y187298D01*
X384937Y187356D01*
X384966Y187385D01*
X385112Y187619D01*
X385228Y187852D01*
X385287Y188144D01*
X385345Y188406D01*
X385374Y188639D01*
X385403Y188844D01*
Y188960D01*
Y189018D01*
X385374Y189398D01*
X385345Y189718D01*
X385258Y189981D01*
X385170Y190214D01*
X385112Y190389D01*
X385024Y190506D01*
X384995Y190564D01*
X384966Y190593D01*
X384762Y190768D01*
X384558Y190885D01*
X384325Y190972D01*
X384091Y191031D01*
X383887Y191060D01*
X383712Y191089D01*
D02*
G37*
G36*
X429464Y178929D02*
X428735D01*
X428706Y178900D01*
X428648Y178871D01*
X428619D01*
X428560Y178842D01*
X428531Y178813D01*
Y178783D01*
X428502Y178725D01*
Y178696D01*
Y178667D01*
Y178550D01*
X428531Y178521D01*
X428589Y178433D01*
X428619Y178404D01*
Y178375D01*
X428677Y178346D01*
X428706Y178317D01*
X428852D01*
X429464Y178203D01*
Y178929D01*
D02*
G37*
G36*
X413539Y177500D02*
X412843D01*
X413485Y177209D01*
X413539Y177500D01*
D02*
G37*
G36*
X404762D02*
X404066D01*
X404707Y177209D01*
X404762Y177500D01*
D02*
G37*
G36*
X380067Y178929D02*
X379338D01*
X379309Y178900D01*
X379251Y178871D01*
X379222D01*
X379192Y178813D01*
X379163Y178783D01*
X379134Y178725D01*
Y178696D01*
Y178667D01*
Y178550D01*
X379163Y178492D01*
Y178433D01*
X379192Y178404D01*
X379280Y178346D01*
X379309Y178317D01*
X379484D01*
X380067Y178205D01*
Y178929D01*
D02*
G37*
G36*
X432789Y178871D02*
X432701D01*
X432672Y178842D01*
X432584D01*
X432526Y178783D01*
X432497Y178754D01*
X432468Y178725D01*
X432439Y178696D01*
X432380Y178608D01*
X432351Y178579D01*
X432322Y178521D01*
Y178463D01*
Y178346D01*
Y178259D01*
Y178229D01*
X432293Y178084D01*
Y177938D01*
Y177821D01*
Y177792D01*
Y177588D01*
Y177442D01*
X432322Y177325D01*
Y177296D01*
Y177180D01*
Y177092D01*
Y177063D01*
Y177034D01*
Y176975D01*
X432351Y176946D01*
Y176917D01*
X432409Y176830D01*
X432439Y176801D01*
X432468Y176771D01*
X432497Y176742D01*
X432555D01*
X432584Y176713D01*
X432614D01*
X432643Y176684D01*
X432672Y176655D01*
X432876D01*
X432934Y176684D01*
X432964Y176713D01*
X433051Y176742D01*
X433080D01*
Y176771D01*
X433109Y176801D01*
X433168Y176888D01*
X433197Y176917D01*
X433226Y176975D01*
Y177005D01*
Y177063D01*
Y177121D01*
X433255Y177209D01*
Y177238D01*
Y177413D01*
Y177588D01*
Y177734D01*
Y177792D01*
Y177996D01*
Y178171D01*
Y178288D01*
Y178317D01*
X433226Y178433D01*
Y178492D01*
Y178521D01*
X433197Y178550D01*
Y178579D01*
X433138Y178667D01*
X433109Y178696D01*
X433080Y178754D01*
X433022Y178813D01*
X432993Y178842D01*
X432905D01*
X432789Y178871D01*
D02*
G37*
%LPD*%
D13*
X387500Y285598D02*
X419390D01*
X356102D02*
X387500D01*
Y262370D02*
X419390D01*
X356102D02*
X387500D01*
X419390D02*
Y285598D01*
X387500Y262370D02*
Y285598D01*
X356102Y262370D02*
Y285598D01*
X387500D02*
Y287862D01*
Y283335D02*
Y285598D01*
Y262370D02*
Y263551D01*
D16*
X509449Y384973D02*
X508793Y385629D01*
X507481D01*
X506825Y384973D01*
Y384317D01*
X507481Y383661D01*
X508137D01*
X507481D01*
X506825Y383005D01*
Y382349D01*
X507481Y381693D01*
X508793D01*
X509449Y382349D01*
X505513Y385629D02*
Y383005D01*
X504201Y381693D01*
X502889Y383005D01*
Y385629D01*
X501577Y384973D02*
X500921Y385629D01*
X499610D01*
X498953Y384973D01*
Y384317D01*
X499610Y383661D01*
X500265D01*
X499610D01*
X498953Y383005D01*
Y382349D01*
X499610Y381693D01*
X500921D01*
X501577Y382349D01*
X520112Y384874D02*
X520768Y385530D01*
X522080D01*
X522736Y384874D01*
Y382250D01*
X522080Y381594D01*
X520768D01*
X520112Y382250D01*
Y383562D01*
X521424D01*
X518800Y381594D02*
Y385530D01*
X516177Y381594D01*
Y385530D01*
X514865D02*
Y381594D01*
X512897D01*
X512241Y382250D01*
Y384874D01*
X512897Y385530D01*
X514865D01*
X264207Y410465D02*
X264863Y411121D01*
X266175D01*
X266831Y410465D01*
Y407841D01*
X266175Y407185D01*
X264863D01*
X264207Y407841D01*
X256791Y411121D02*
Y407185D01*
X254823D01*
X254168Y407841D01*
Y408497D01*
X254823Y409153D01*
X256791D01*
X254823D01*
X254168Y409809D01*
Y410465D01*
X254823Y411121D01*
X256791D01*
X246654Y406988D02*
Y409612D01*
X245342Y410924D01*
X244030Y409612D01*
Y406988D01*
Y408956D01*
X246654D01*
X498130Y388484D02*
Y392420D01*
X496162D01*
X495506Y391764D01*
Y390452D01*
X496162Y389796D01*
X498130D01*
X492226Y392420D02*
X493538D01*
X494194Y391764D01*
Y389140D01*
X493538Y388484D01*
X492226D01*
X491570Y389140D01*
Y391764D01*
X492226Y392420D01*
X490258D02*
Y388484D01*
X488946Y389796D01*
X487635Y388484D01*
Y392420D01*
X483699D02*
X486323D01*
Y388484D01*
X483699D01*
X486323Y390452D02*
X485011D01*
X482387Y388484D02*
Y392420D01*
X480419D01*
X479763Y391764D01*
Y390452D01*
X480419Y389796D01*
X482387D01*
X481075D02*
X479763Y388484D01*
X496819Y230314D02*
X497475Y230970D01*
X498786D01*
X499442Y230314D01*
Y227690D01*
X498786Y227034D01*
X497475D01*
X496819Y227690D01*
Y229002D01*
X498131D01*
X495507Y227034D02*
Y230970D01*
X493539D01*
X492883Y230314D01*
Y229002D01*
X493539Y228346D01*
X495507D01*
X491571Y230970D02*
X490259D01*
X490915D01*
Y227034D01*
X491571D01*
X490259D01*
X486323Y230970D02*
X487635D01*
X488291Y230314D01*
Y227690D01*
X487635Y227034D01*
X486323D01*
X485667Y227690D01*
Y230314D01*
X486323Y230970D01*
X484355Y226378D02*
X481732D01*
X480420Y227034D02*
X479108D01*
X479764D01*
Y230970D01*
X480420Y230314D01*
X497475Y220340D02*
X498131Y220996D01*
X499442D01*
X500098Y220340D01*
Y217716D01*
X499442Y217060D01*
X498131D01*
X497475Y217716D01*
Y219028D01*
X498786D01*
X496163Y217060D02*
Y220996D01*
X494195D01*
X493539Y220340D01*
Y219028D01*
X494195Y218372D01*
X496163D01*
X492227Y220996D02*
X490915D01*
X491571D01*
Y217060D01*
X492227D01*
X490915D01*
X486979Y220996D02*
X488291D01*
X488947Y220340D01*
Y217716D01*
X488291Y217060D01*
X486979D01*
X486323Y217716D01*
Y220340D01*
X486979Y220996D01*
X485011Y216404D02*
X482388D01*
X478452Y217060D02*
X481076D01*
X478452Y219684D01*
Y220340D01*
X479108Y220996D01*
X480420D01*
X481076Y220340D01*
X497475Y210366D02*
X498131Y211022D01*
X499442D01*
X500098Y210366D01*
Y207743D01*
X499442Y207087D01*
X498131D01*
X497475Y207743D01*
Y209054D01*
X498786D01*
X496163Y207087D02*
Y211022D01*
X494195D01*
X493539Y210366D01*
Y209054D01*
X494195Y208399D01*
X496163D01*
X492227Y211022D02*
X490915D01*
X491571D01*
Y207087D01*
X492227D01*
X490915D01*
X486979Y211022D02*
X488291D01*
X488947Y210366D01*
Y207743D01*
X488291Y207087D01*
X486979D01*
X486323Y207743D01*
Y210366D01*
X486979Y211022D01*
X485011Y206431D02*
X482388D01*
X481076Y210366D02*
X480420Y211022D01*
X479108D01*
X478452Y210366D01*
Y209710D01*
X479108Y209054D01*
X479764D01*
X479108D01*
X478452Y208399D01*
Y207743D01*
X479108Y207087D01*
X480420D01*
X481076Y207743D01*
X497475Y240288D02*
X498131Y240944D01*
X499442D01*
X500098Y240288D01*
Y237664D01*
X499442Y237008D01*
X498131D01*
X497475Y237664D01*
Y238976D01*
X498786D01*
X496163Y237008D02*
Y240944D01*
X494195D01*
X493539Y240288D01*
Y238976D01*
X494195Y238320D01*
X496163D01*
X492227Y240944D02*
X490915D01*
X491571D01*
Y237008D01*
X492227D01*
X490915D01*
X486979Y240944D02*
X488291D01*
X488947Y240288D01*
Y237664D01*
X488291Y237008D01*
X486979D01*
X486323Y237664D01*
Y240288D01*
X486979Y240944D01*
X485011Y236352D02*
X482388D01*
X481076Y240288D02*
X480420Y240944D01*
X479108D01*
X478452Y240288D01*
Y237664D01*
X479108Y237008D01*
X480420D01*
X481076Y237664D01*
Y240288D01*
X381398Y292026D02*
Y288090D01*
X379430D01*
X378774Y288747D01*
Y289403D01*
X379430Y290058D01*
X381398D01*
X379430D01*
X378774Y290714D01*
Y291370D01*
X379430Y292026D01*
X381398D01*
X375494D02*
X376806D01*
X377462Y291370D01*
Y288747D01*
X376806Y288090D01*
X375494D01*
X374838Y288747D01*
Y291370D01*
X375494Y292026D01*
X373526D02*
X370902D01*
X372214D01*
Y288090D01*
X369590Y292026D02*
X366967D01*
X368279D01*
Y288090D01*
X363687Y292026D02*
X364999D01*
X365655Y291370D01*
Y288747D01*
X364999Y288090D01*
X363687D01*
X363031Y288747D01*
Y291370D01*
X363687Y292026D01*
X361719Y288090D02*
Y292026D01*
X360407Y290714D01*
X359095Y292026D01*
Y288090D01*
X408760Y292026D02*
X406136D01*
X407448D01*
Y288090D01*
X402856Y292026D02*
X404168D01*
X404824Y291370D01*
Y288747D01*
X404168Y288090D01*
X402856D01*
X402200Y288747D01*
Y291370D01*
X402856Y292026D01*
X400888Y288090D02*
Y292026D01*
X398920D01*
X398265Y291370D01*
Y290058D01*
X398920Y289403D01*
X400888D01*
X501965Y268409D02*
Y272344D01*
X500653Y271033D01*
X499341Y272344D01*
Y268409D01*
X496062Y272344D02*
X497373D01*
X498029Y271689D01*
Y269065D01*
X497373Y268409D01*
X496062D01*
X495406Y269065D01*
Y271689D01*
X496062Y272344D01*
X491470Y271689D02*
X492126Y272344D01*
X493438D01*
X494094Y271689D01*
Y271033D01*
X493438Y270376D01*
X492126D01*
X491470Y269721D01*
Y269065D01*
X492126Y268409D01*
X493438D01*
X494094Y269065D01*
X490158Y272344D02*
X488846D01*
X489502D01*
Y268409D01*
X490158D01*
X488846D01*
X499030Y281289D02*
X499686Y281944D01*
X500998D01*
X501654Y281289D01*
Y280632D01*
X500998Y279977D01*
X499686D01*
X499030Y279321D01*
Y278665D01*
X499686Y278009D01*
X500998D01*
X501654Y278665D01*
X495094Y281289D02*
X495750Y281944D01*
X497062D01*
X497718Y281289D01*
Y278665D01*
X497062Y278009D01*
X495750D01*
X495094Y278665D01*
X493783Y281944D02*
Y278009D01*
X491159D01*
X489847Y281944D02*
Y278009D01*
Y279321D01*
X487223Y281944D01*
X489191Y279977D01*
X487223Y278009D01*
X502031Y258009D02*
Y261944D01*
X500719Y260632D01*
X499407Y261944D01*
Y258009D01*
X498095Y261944D02*
X496783D01*
X497439D01*
Y258009D01*
X498095D01*
X496783D01*
X492191Y261288D02*
X492847Y261944D01*
X494159D01*
X494815Y261288D01*
Y260632D01*
X494159Y259977D01*
X492847D01*
X492191Y259321D01*
Y258665D01*
X492847Y258009D01*
X494159D01*
X494815Y258665D01*
X488911Y261944D02*
X490224D01*
X490879Y261288D01*
Y258665D01*
X490224Y258009D01*
X488911D01*
X488256Y258665D01*
Y261288D01*
X488911Y261944D01*
X499345Y291469D02*
X500001Y292125D01*
X501312D01*
X501968Y291469D01*
Y288845D01*
X501312Y288189D01*
X500001D01*
X499345Y288845D01*
X495409Y291469D02*
X496065Y292125D01*
X497377D01*
X498033Y291469D01*
Y290813D01*
X497377Y290157D01*
X496065D01*
X495409Y289501D01*
Y288845D01*
X496065Y288189D01*
X497377D01*
X498033Y288845D01*
X498459Y373063D02*
X499115Y373719D01*
X500427D01*
X501083Y373063D01*
Y370439D01*
X500427Y369783D01*
X499115D01*
X498459Y370439D01*
X494523Y373063D02*
X495179Y373719D01*
X496491D01*
X497147Y373063D01*
Y372407D01*
X496491Y371751D01*
X495179D01*
X494523Y371095D01*
Y370439D01*
X495179Y369783D01*
X496491D01*
X497147Y370439D01*
X501145Y339603D02*
Y343539D01*
X499833Y342227D01*
X498521Y343539D01*
Y339603D01*
X497209Y343539D02*
X495897D01*
X496553D01*
Y339603D01*
X497209D01*
X495897D01*
X491305Y342883D02*
X491961Y343539D01*
X493273D01*
X493929Y342883D01*
Y342227D01*
X493273Y341571D01*
X491961D01*
X491305Y340915D01*
Y340259D01*
X491961Y339603D01*
X493273D01*
X493929Y340259D01*
X488026Y343539D02*
X489338D01*
X489994Y342883D01*
Y340259D01*
X489338Y339603D01*
X488026D01*
X487370Y340259D01*
Y342883D01*
X488026Y343539D01*
X498144Y362883D02*
X498800Y363539D01*
X500112D01*
X500768Y362883D01*
Y362227D01*
X500112Y361571D01*
X498800D01*
X498144Y360915D01*
Y360259D01*
X498800Y359603D01*
X500112D01*
X500768Y360259D01*
X494209Y362883D02*
X494865Y363539D01*
X496176D01*
X496832Y362883D01*
Y360259D01*
X496176Y359603D01*
X494865D01*
X494209Y360259D01*
X492897Y363539D02*
Y359603D01*
X490273D01*
X488961Y363539D02*
Y359603D01*
Y360915D01*
X486337Y363539D01*
X488305Y361571D01*
X486337Y359603D01*
X501079Y350003D02*
Y353939D01*
X499767Y352627D01*
X498455Y353939D01*
Y350003D01*
X495176Y353939D02*
X496488D01*
X497144Y353283D01*
Y350659D01*
X496488Y350003D01*
X495176D01*
X494520Y350659D01*
Y353283D01*
X495176Y353939D01*
X490584Y353283D02*
X491240Y353939D01*
X492552D01*
X493208Y353283D01*
Y352627D01*
X492552Y351971D01*
X491240D01*
X490584Y351315D01*
Y350659D01*
X491240Y350003D01*
X492552D01*
X493208Y350659D01*
X489272Y353939D02*
X487960D01*
X488616D01*
Y350003D01*
X489272D01*
X487960D01*
X431693Y331693D02*
Y335629D01*
X429725D01*
X429069Y334973D01*
Y333661D01*
X429725Y333005D01*
X431693D01*
X430381D02*
X429069Y331693D01*
X427757D02*
X426445D01*
X427101D01*
Y335629D01*
X427757Y334973D01*
X421854Y335629D02*
X424477D01*
Y333661D01*
X423166Y334317D01*
X422509D01*
X421854Y333661D01*
Y332349D01*
X422509Y331693D01*
X423821D01*
X424477Y332349D01*
M02*
