G04*
G04 #@! TF.GenerationSoftware,Altium Limited,Altium Designer,19.1.7 (138)*
G04*
G04 Layer_Color=8388736*
%FSLAX25Y25*%
%MOIN*%
G70*
G01*
G75*
%ADD25O,0.01784X0.05524*%
%ADD26R,0.04934X0.04737*%
%ADD27R,0.09068X0.12611*%
%ADD28R,0.03950X0.07099*%
%ADD29C,0.04737*%
%ADD30R,0.03162X0.06509*%
%ADD31R,0.03084X0.02847*%
%ADD32R,0.04343X0.04540*%
%ADD33C,0.04200*%
%ADD34C,0.17335*%
%ADD35C,0.05131*%
%ADD36C,0.04343*%
%ADD37C,0.03950*%
%ADD38C,0.02300*%
D25*
X192172Y167459D02*
D03*
X194141D02*
D03*
X196109D02*
D03*
X198078D02*
D03*
X200046D02*
D03*
X202015D02*
D03*
X203983D02*
D03*
X205952D02*
D03*
X207921D02*
D03*
X209889D02*
D03*
X211858D02*
D03*
X213826D02*
D03*
X215794D02*
D03*
X217763D02*
D03*
X219731D02*
D03*
X221700D02*
D03*
X223669D02*
D03*
X225637D02*
D03*
X227606D02*
D03*
X192172Y189900D02*
D03*
X194141D02*
D03*
X196109D02*
D03*
X198078D02*
D03*
X200046D02*
D03*
X202015D02*
D03*
X203983D02*
D03*
X205952D02*
D03*
X207921D02*
D03*
X209889D02*
D03*
X211858D02*
D03*
X213826D02*
D03*
X215794D02*
D03*
X217763D02*
D03*
X219731D02*
D03*
X221700D02*
D03*
X223669D02*
D03*
X225637D02*
D03*
X227606D02*
D03*
D26*
X213653Y208800D02*
D03*
X207747D02*
D03*
X217200Y161500D02*
D03*
X211295D02*
D03*
X225453Y208700D02*
D03*
X219547D02*
D03*
D27*
X287421Y51091D02*
D03*
X252579D02*
D03*
D28*
X277382Y62509D02*
D03*
X272461D02*
D03*
X267539D02*
D03*
X262618D02*
D03*
D29*
X188500Y226400D02*
D03*
X188700Y218000D02*
D03*
X188800Y209900D02*
D03*
X184300Y57200D02*
D03*
X194300D02*
D03*
X204300D02*
D03*
X214300D02*
D03*
D30*
X214500Y214872D02*
D03*
X219500D02*
D03*
X224500D02*
D03*
X229500D02*
D03*
X214500Y236328D02*
D03*
X219500D02*
D03*
X224500D02*
D03*
X229500D02*
D03*
D31*
X182211Y150300D02*
D03*
X179298D02*
D03*
X192429D02*
D03*
X189516D02*
D03*
X202648D02*
D03*
X199734D02*
D03*
X212266Y149900D02*
D03*
X209352D02*
D03*
X223084Y150300D02*
D03*
X220171D02*
D03*
X233302D02*
D03*
X230389D02*
D03*
X243520D02*
D03*
X240607D02*
D03*
X253738D02*
D03*
X250825D02*
D03*
X263957D02*
D03*
X261043D02*
D03*
X171993D02*
D03*
X169080D02*
D03*
X161775D02*
D03*
X158861D02*
D03*
X151557D02*
D03*
X148643D02*
D03*
D32*
X159564Y141254D02*
D03*
Y135546D02*
D03*
X260200Y141254D02*
D03*
Y135546D02*
D03*
X250136Y141254D02*
D03*
Y135546D02*
D03*
X240073Y141254D02*
D03*
Y135546D02*
D03*
X230009Y141254D02*
D03*
Y135546D02*
D03*
X219946Y141254D02*
D03*
Y135546D02*
D03*
X209282Y140854D02*
D03*
Y135146D02*
D03*
X199818Y141254D02*
D03*
Y135546D02*
D03*
X189755Y141254D02*
D03*
Y135546D02*
D03*
X179691Y141254D02*
D03*
Y135546D02*
D03*
X169627Y141254D02*
D03*
Y135546D02*
D03*
X149500Y141254D02*
D03*
Y135546D02*
D03*
D33*
X318000Y103700D02*
D03*
Y111600D02*
D03*
Y127400D02*
D03*
Y119500D02*
D03*
Y135300D02*
D03*
Y143200D02*
D03*
X318100Y159000D02*
D03*
Y151100D02*
D03*
X318000Y166900D02*
D03*
Y174800D02*
D03*
Y182500D02*
D03*
X310200D02*
D03*
Y174800D02*
D03*
Y166900D02*
D03*
X310300Y151100D02*
D03*
Y159000D02*
D03*
X310200Y143200D02*
D03*
Y135300D02*
D03*
Y119500D02*
D03*
Y127400D02*
D03*
Y111600D02*
D03*
Y103700D02*
D03*
X68700Y182719D02*
D03*
Y174819D02*
D03*
Y159019D02*
D03*
Y166919D02*
D03*
Y151119D02*
D03*
Y143219D02*
D03*
X68600Y127419D02*
D03*
Y135319D02*
D03*
X68700Y119519D02*
D03*
Y111619D02*
D03*
Y103919D02*
D03*
X60900D02*
D03*
Y111619D02*
D03*
Y119519D02*
D03*
X60800Y135319D02*
D03*
Y127419D02*
D03*
X60900Y143219D02*
D03*
Y151119D02*
D03*
Y166919D02*
D03*
Y159019D02*
D03*
Y174819D02*
D03*
Y182719D02*
D03*
D34*
X309300Y56900D02*
D03*
X68800Y57000D02*
D03*
X68700Y229400D02*
D03*
X309400D02*
D03*
D35*
Y210100D02*
D03*
X299400D02*
D03*
X236400Y100800D02*
D03*
Y90800D02*
D03*
X226400D02*
D03*
Y100800D02*
D03*
X216400D02*
D03*
Y90800D02*
D03*
X206400D02*
D03*
Y100800D02*
D03*
X196400D02*
D03*
Y90800D02*
D03*
X186400D02*
D03*
Y100800D02*
D03*
D36*
X300400Y103800D02*
D03*
X292500D02*
D03*
Y111700D02*
D03*
X300400D02*
D03*
Y119500D02*
D03*
X292500D02*
D03*
Y127500D02*
D03*
X300400D02*
D03*
Y135300D02*
D03*
X292500D02*
D03*
Y143200D02*
D03*
X300400D02*
D03*
Y151000D02*
D03*
X292500D02*
D03*
Y158900D02*
D03*
X300400D02*
D03*
Y166800D02*
D03*
X292500D02*
D03*
Y174700D02*
D03*
X300400D02*
D03*
Y182600D02*
D03*
X292500D02*
D03*
X88300Y103900D02*
D03*
X80400D02*
D03*
Y111800D02*
D03*
X88300D02*
D03*
Y119600D02*
D03*
X80400D02*
D03*
Y127600D02*
D03*
X88300D02*
D03*
Y135400D02*
D03*
X80400D02*
D03*
Y143300D02*
D03*
X88300D02*
D03*
Y151100D02*
D03*
X80400D02*
D03*
Y159000D02*
D03*
X88300D02*
D03*
Y166900D02*
D03*
X80400D02*
D03*
Y174800D02*
D03*
X88300D02*
D03*
Y182700D02*
D03*
X80400D02*
D03*
D37*
X184300Y57200D02*
D03*
D38*
X188900Y167500D02*
D03*
M02*
