G04*
G04 #@! TF.GenerationSoftware,Altium Limited,Altium Designer,19.1.8 (144)*
G04*
G04 Layer_Color=16711935*
%FSLAX25Y25*%
%MOIN*%
G70*
G01*
G75*
%ADD61C,0.00394*%
D61*
X227667Y208770D02*
G03*
X227667Y208770I-1969J0D01*
G01*
X230329Y254706D02*
G03*
X230329Y254706I-1969J0D01*
G01*
X293228Y227153D02*
Y233846D01*
X296772Y227153D02*
Y233846D01*
X293228Y227153D02*
X296772D01*
X293228Y233846D02*
X296772D01*
X190659Y212313D02*
X229242D01*
X190659Y194597D02*
X229242D01*
Y212313D01*
X190659Y194597D02*
Y212313D01*
X88981Y265952D02*
X128942D01*
Y245479D02*
Y265952D01*
X88981Y245479D02*
X128942D01*
X88981D02*
Y265952D01*
X214206Y231705D02*
Y235445D01*
X207316Y231705D02*
Y235445D01*
Y231705D02*
X214206D01*
X207316Y235445D02*
X214206D01*
X217754Y184405D02*
Y188145D01*
X210864Y184405D02*
Y188145D01*
Y184405D02*
X217754D01*
X210864Y188145D02*
X217754D01*
X212219Y242501D02*
Y258249D01*
X231904Y242501D02*
Y258249D01*
X212219Y242501D02*
X231904D01*
X212219Y258249D02*
X231904D01*
X226006Y231605D02*
Y235345D01*
X219116Y231605D02*
Y235345D01*
Y231605D02*
X226006D01*
X219116Y235345D02*
X226006D01*
X182883Y173993D02*
Y176158D01*
X178749Y173993D02*
Y176158D01*
Y173993D02*
X182883D01*
X178749Y176158D02*
X182883D01*
X193101Y173993D02*
Y176158D01*
X188967Y173993D02*
Y176158D01*
Y173993D02*
X193101D01*
X188967Y176158D02*
X193101D01*
X203319Y173993D02*
Y176158D01*
X199185Y173993D02*
Y176158D01*
Y173993D02*
X203319D01*
X199185Y176158D02*
X203319D01*
X212937Y173592D02*
Y175758D01*
X208804Y173592D02*
Y175758D01*
Y173592D02*
X212937D01*
X208804Y175758D02*
X212937D01*
X223756Y173993D02*
Y176158D01*
X219622Y173993D02*
Y176158D01*
Y173993D02*
X223756D01*
X219622Y176158D02*
X223756D01*
X233974Y173993D02*
Y176158D01*
X229840Y173993D02*
Y176158D01*
Y173993D02*
X233974D01*
X229840Y176158D02*
X233974D01*
X244192Y173993D02*
Y176158D01*
X240058Y173993D02*
Y176158D01*
Y173993D02*
X244192D01*
X240058Y176158D02*
X244192D01*
X254410Y173993D02*
Y176158D01*
X250276Y173993D02*
Y176158D01*
Y173993D02*
X254410D01*
X250276Y176158D02*
X254410D01*
X264628Y173993D02*
Y176158D01*
X260494Y173993D02*
Y176158D01*
Y173993D02*
X264628D01*
X260494Y176158D02*
X264628D01*
X172665Y173993D02*
Y176158D01*
X168531Y173993D02*
Y176158D01*
Y173993D02*
X172665D01*
X168531Y176158D02*
X172665D01*
X162447Y173993D02*
Y176158D01*
X158313Y173993D02*
Y176158D01*
Y173993D02*
X162447D01*
X158313Y176158D02*
X162447D01*
X161397Y159829D02*
Y166522D01*
X157853Y159829D02*
Y166522D01*
X161397D01*
X157853Y159829D02*
X161397D01*
X262033D02*
Y166522D01*
X258490Y159829D02*
Y166522D01*
X262033D01*
X258490Y159829D02*
X262033D01*
X251970D02*
Y166522D01*
X248426Y159829D02*
Y166522D01*
X251970D01*
X248426Y159829D02*
X251970D01*
X241906D02*
Y166522D01*
X238363Y159829D02*
Y166522D01*
X241906D01*
X238363Y159829D02*
X241906D01*
X231842D02*
Y166522D01*
X228299Y159829D02*
Y166522D01*
X231842D01*
X228299Y159829D02*
X231842D01*
X221779D02*
Y166522D01*
X218235Y159829D02*
Y166522D01*
X221779D01*
X218235Y159829D02*
X221779D01*
X211115Y159429D02*
Y166122D01*
X207572Y159429D02*
Y166122D01*
X211115D01*
X207572Y159429D02*
X211115D01*
X201651Y159829D02*
Y166522D01*
X198108Y159829D02*
Y166522D01*
X201651D01*
X198108Y159829D02*
X201651D01*
X191588D02*
Y166522D01*
X188044Y159829D02*
Y166522D01*
X191588D01*
X188044Y159829D02*
X191588D01*
X181524D02*
Y166522D01*
X177981Y159829D02*
Y166522D01*
X181524D01*
X177981Y159829D02*
X181524D01*
X171460D02*
Y166522D01*
X167917Y159829D02*
Y166522D01*
X171460D01*
X167917Y159829D02*
X171460D01*
X152228Y173993D02*
Y176158D01*
X148094Y173993D02*
Y176158D01*
Y173993D02*
X152228D01*
X148094Y176158D02*
X152228D01*
X151333Y159829D02*
Y166522D01*
X147790Y159829D02*
Y166522D01*
X151333D01*
X147790Y159829D02*
X151333D01*
M02*
