G04*
G04 #@! TF.GenerationSoftware,Altium Limited,Altium Designer,19.1.7 (138)*
G04*
G04 Layer_Color=16711935*
%FSLAX25Y25*%
%MOIN*%
G70*
G01*
G75*
%ADD58C,0.00394*%
D58*
X227606Y183994D02*
G03*
X227606Y183994I-1969J0D01*
G01*
X230268Y229931D02*
G03*
X230268Y229931I-1969J0D01*
G01*
X190598Y169821D02*
Y187538D01*
X229180Y169821D02*
Y187538D01*
X190598Y169821D02*
X229180D01*
X190598Y187538D02*
X229180D01*
X214145Y206930D02*
Y210670D01*
X207255Y206930D02*
Y210670D01*
Y206930D02*
X214145D01*
X207255Y210670D02*
X214145D01*
X217692Y159630D02*
Y163370D01*
X210802Y159630D02*
Y163370D01*
Y159630D02*
X217692D01*
X210802Y163370D02*
X217692D01*
X289980Y42823D02*
Y63296D01*
X250020D02*
X289980D01*
X250020Y42823D02*
Y63296D01*
Y42823D02*
X289980D01*
X212158Y217726D02*
Y233474D01*
X231842Y217726D02*
Y233474D01*
X212158Y217726D02*
X231842D01*
X212158Y233474D02*
X231842D01*
X225945Y206830D02*
Y210570D01*
X219055Y206830D02*
Y210570D01*
Y206830D02*
X225945D01*
X219055Y210570D02*
X225945D01*
X182822Y149217D02*
Y151383D01*
X178688Y149217D02*
Y151383D01*
Y149217D02*
X182822D01*
X178688Y151383D02*
X182822D01*
X193040Y149217D02*
Y151383D01*
X188906Y149217D02*
Y151383D01*
Y149217D02*
X193040D01*
X188906Y151383D02*
X193040D01*
X203258Y149217D02*
Y151383D01*
X199124Y149217D02*
Y151383D01*
Y149217D02*
X203258D01*
X199124Y151383D02*
X203258D01*
X212876Y148817D02*
Y150983D01*
X208742Y148817D02*
Y150983D01*
Y148817D02*
X212876D01*
X208742Y150983D02*
X212876D01*
X223694Y149217D02*
Y151383D01*
X219560Y149217D02*
Y151383D01*
Y149217D02*
X223694D01*
X219560Y151383D02*
X223694D01*
X233912Y149217D02*
Y151383D01*
X229779Y149217D02*
Y151383D01*
Y149217D02*
X233912D01*
X229779Y151383D02*
X233912D01*
X244131Y149217D02*
Y151383D01*
X239997Y149217D02*
Y151383D01*
Y149217D02*
X244131D01*
X239997Y151383D02*
X244131D01*
X254349Y149217D02*
Y151383D01*
X250215Y149217D02*
Y151383D01*
Y149217D02*
X254349D01*
X250215Y151383D02*
X254349D01*
X264567Y149217D02*
Y151383D01*
X260433Y149217D02*
Y151383D01*
Y149217D02*
X264567D01*
X260433Y151383D02*
X264567D01*
X172603Y149217D02*
Y151383D01*
X168470Y149217D02*
Y151383D01*
Y149217D02*
X172603D01*
X168470Y151383D02*
X172603D01*
X162385Y149217D02*
Y151383D01*
X158251Y149217D02*
Y151383D01*
Y149217D02*
X162385D01*
X158251Y151383D02*
X162385D01*
X161335Y135054D02*
Y141746D01*
X157792Y135054D02*
Y141746D01*
X161335D01*
X157792Y135054D02*
X161335D01*
X261972D02*
Y141746D01*
X258428Y135054D02*
Y141746D01*
X261972D01*
X258428Y135054D02*
X261972D01*
X251908D02*
Y141746D01*
X248365Y135054D02*
Y141746D01*
X251908D01*
X248365Y135054D02*
X251908D01*
X241844D02*
Y141746D01*
X238301Y135054D02*
Y141746D01*
X241844D01*
X238301Y135054D02*
X241844D01*
X231781D02*
Y141746D01*
X228238Y135054D02*
Y141746D01*
X231781D01*
X228238Y135054D02*
X231781D01*
X221717D02*
Y141746D01*
X218174Y135054D02*
Y141746D01*
X221717D01*
X218174Y135054D02*
X221717D01*
X211053Y134653D02*
Y141347D01*
X207510Y134653D02*
Y141347D01*
X211053D01*
X207510Y134653D02*
X211053D01*
X201590Y135054D02*
Y141746D01*
X198047Y135054D02*
Y141746D01*
X201590D01*
X198047Y135054D02*
X201590D01*
X191526D02*
Y141746D01*
X187983Y135054D02*
Y141746D01*
X191526D01*
X187983Y135054D02*
X191526D01*
X181463D02*
Y141746D01*
X177919Y135054D02*
Y141746D01*
X181463D01*
X177919Y135054D02*
X181463D01*
X171399D02*
Y141746D01*
X167856Y135054D02*
Y141746D01*
X171399D01*
X167856Y135054D02*
X171399D01*
X152167Y149217D02*
Y151383D01*
X148033Y149217D02*
Y151383D01*
Y149217D02*
X152167D01*
X148033Y151383D02*
X152167D01*
X151272Y135054D02*
Y141746D01*
X147728Y135054D02*
Y141746D01*
X151272D01*
X147728Y135054D02*
X151272D01*
M02*
