G04*
G04 #@! TF.GenerationSoftware,Altium Limited,Altium Designer,19.1.8 (144)*
G04*
G04 Layer_Color=32768*
%FSLAX25Y25*%
%MOIN*%
G70*
G01*
G75*
%ADD61C,0.00394*%
%ADD63C,0.00197*%
D61*
X293228Y230500D02*
X296772D01*
X295000Y228728D02*
Y232272D01*
X209950Y201486D02*
Y205423D01*
X207982Y203455D02*
X211919D01*
X106993Y251975D02*
X110930D01*
X108961Y250007D02*
Y253944D01*
X208891Y233575D02*
X212632D01*
X210761Y231705D02*
Y235445D01*
X212439Y186275D02*
X216179D01*
X214309Y184405D02*
Y188145D01*
X220093Y250375D02*
X224030D01*
X222061Y248407D02*
Y252344D01*
X220691Y233475D02*
X224431D01*
X222561Y231605D02*
Y235345D01*
X179733Y175075D02*
X181899D01*
X180816Y173993D02*
Y176158D01*
X189952Y175075D02*
X192117D01*
X191034Y173993D02*
Y176158D01*
X200170Y175075D02*
X202335D01*
X201252Y173993D02*
Y176158D01*
X209788Y174675D02*
X211953D01*
X210871Y173592D02*
Y175758D01*
X220606Y175075D02*
X222771D01*
X221689Y173993D02*
Y176158D01*
X230824Y175075D02*
X232990D01*
X231907Y173993D02*
Y176158D01*
X241042Y175075D02*
X243208D01*
X242125Y173993D02*
Y176158D01*
X251261Y175075D02*
X253426D01*
X252343Y173993D02*
Y176158D01*
X261479Y175075D02*
X263644D01*
X262561Y173993D02*
Y176158D01*
X169515Y175075D02*
X171680D01*
X170598Y173993D02*
Y176158D01*
X159297Y175075D02*
X161462D01*
X160380Y173993D02*
Y176158D01*
X157853Y163175D02*
X161397D01*
X159625Y161404D02*
Y164947D01*
X258490Y163175D02*
X262033D01*
X260261Y161404D02*
Y164947D01*
X248426Y163175D02*
X251970D01*
X250198Y161404D02*
Y164947D01*
X238363Y163175D02*
X241906D01*
X240134Y161404D02*
Y164947D01*
X228299Y163175D02*
X231842D01*
X230070Y161404D02*
Y164947D01*
X218235Y163175D02*
X221779D01*
X220007Y161404D02*
Y164947D01*
X207572Y162775D02*
X211115D01*
X209343Y161003D02*
Y164547D01*
X198108Y163175D02*
X201651D01*
X199880Y161404D02*
Y164947D01*
X188044Y163175D02*
X191588D01*
X189816Y161404D02*
Y164947D01*
X177981Y163175D02*
X181524D01*
X179752Y161404D02*
Y164947D01*
X167917Y163175D02*
X171460D01*
X169689Y161404D02*
Y164947D01*
X149079Y175075D02*
X151244D01*
X150161Y173993D02*
Y176158D01*
X147790Y163175D02*
X151333D01*
X149562Y161404D02*
Y164947D01*
D63*
X292244Y224791D02*
Y236209D01*
X297756Y224791D02*
Y236209D01*
X292244Y224791D02*
X297756D01*
X292244Y236209D02*
X297756D01*
X190265Y217431D02*
X229635D01*
X190265Y189478D02*
X229635D01*
Y217431D01*
X190265Y189478D02*
Y217431D01*
X87013Y266345D02*
X130910D01*
Y242723D02*
Y266345D01*
X87013Y242723D02*
X130910D01*
X87013D02*
Y266345D01*
X216667Y230622D02*
Y236528D01*
X204856Y230622D02*
Y236528D01*
Y230622D02*
X216667D01*
X204856Y236528D02*
X216667D01*
X220214Y183322D02*
Y189228D01*
X208403Y183322D02*
Y189228D01*
Y183322D02*
X220214D01*
X208403Y189228D02*
X220214D01*
X211235Y235808D02*
Y264942D01*
X232888Y235808D02*
Y264942D01*
X211235Y235808D02*
X232888D01*
X211235Y264942D02*
X232888D01*
X228467Y230522D02*
Y236428D01*
X216656Y230522D02*
Y236428D01*
Y230522D02*
X228467D01*
X216656Y236428D02*
X228467D01*
X183966Y173500D02*
Y176650D01*
X177666Y173500D02*
Y176650D01*
Y173500D02*
X183966D01*
X177666Y176650D02*
X183966D01*
X194184Y173500D02*
Y176650D01*
X187884Y173500D02*
Y176650D01*
Y173500D02*
X194184D01*
X187884Y176650D02*
X194184D01*
X204402Y173500D02*
Y176650D01*
X198103Y173500D02*
Y176650D01*
Y173500D02*
X204402D01*
X198103Y176650D02*
X204402D01*
X214020Y173100D02*
Y176250D01*
X207721Y173100D02*
Y176250D01*
Y173100D02*
X214020D01*
X207721Y176250D02*
X214020D01*
X224838Y173500D02*
Y176650D01*
X218539Y173500D02*
Y176650D01*
Y173500D02*
X224838D01*
X218539Y176650D02*
X224838D01*
X235056Y173500D02*
Y176650D01*
X228757Y173500D02*
Y176650D01*
Y173500D02*
X235056D01*
X228757Y176650D02*
X235056D01*
X245275Y173500D02*
Y176650D01*
X238976Y173500D02*
Y176650D01*
Y173500D02*
X245275D01*
X238976Y176650D02*
X245275D01*
X255493Y173500D02*
Y176650D01*
X249194Y173500D02*
Y176650D01*
Y173500D02*
X255493D01*
X249194Y176650D02*
X255493D01*
X265711Y173500D02*
Y176650D01*
X259412Y173500D02*
Y176650D01*
Y173500D02*
X265711D01*
X259412Y176650D02*
X265711D01*
X173747Y173500D02*
Y176650D01*
X167448Y173500D02*
Y176650D01*
Y173500D02*
X173747D01*
X167448Y176650D02*
X173747D01*
X163529Y173500D02*
Y176650D01*
X157230Y173500D02*
Y176650D01*
Y173500D02*
X163529D01*
X157230Y176650D02*
X163529D01*
X162381Y157466D02*
Y168884D01*
X156869Y157466D02*
Y168884D01*
X162381D01*
X156869Y157466D02*
X162381D01*
X263017D02*
Y168884D01*
X257505Y157466D02*
Y168884D01*
X263017D01*
X257505Y157466D02*
X263017D01*
X252954D02*
Y168884D01*
X247442Y157466D02*
Y168884D01*
X252954D01*
X247442Y157466D02*
X252954D01*
X242890D02*
Y168884D01*
X237378Y157466D02*
Y168884D01*
X242890D01*
X237378Y157466D02*
X242890D01*
X232826D02*
Y168884D01*
X227315Y157466D02*
Y168884D01*
X232826D01*
X227315Y157466D02*
X232826D01*
X222763D02*
Y168884D01*
X217251Y157466D02*
Y168884D01*
X222763D01*
X217251Y157466D02*
X222763D01*
X212099Y157067D02*
Y168484D01*
X206587Y157067D02*
Y168484D01*
X212099D01*
X206587Y157067D02*
X212099D01*
X202636Y157466D02*
Y168884D01*
X197124Y157466D02*
Y168884D01*
X202636D01*
X197124Y157466D02*
X202636D01*
X192572D02*
Y168884D01*
X187060Y157466D02*
Y168884D01*
X192572D01*
X187060Y157466D02*
X192572D01*
X182508D02*
Y168884D01*
X176997Y157466D02*
Y168884D01*
X182508D01*
X176997Y157466D02*
X182508D01*
X172445D02*
Y168884D01*
X166933Y157466D02*
Y168884D01*
X172445D01*
X166933Y157466D02*
X172445D01*
X153311Y173500D02*
Y176650D01*
X147012Y173500D02*
Y176650D01*
Y173500D02*
X153311D01*
X147012Y176650D02*
X153311D01*
X152317Y157466D02*
Y168884D01*
X146806Y157466D02*
Y168884D01*
X152317D01*
X146806Y157466D02*
X152317D01*
M02*
