M48
;Layer_Color=39423
;FILE_FORMAT=4:4
METRIC,LZ
;TYPE=PLATED
T1F00S00C0.2540
T2F00S00C0.3810
T3F00S00C0.7112
T4F00S00C0.8000
T5F00S00C0.8000
T6F00S00C1.0200
T7F00S00C1.0900
T8F00S00C4.0000
%
T01
X00411128Y00436563
X00437036Y00436817
X00479962Y00488379
X00543156Y00501333
X00548156Y00508191
X00553156Y00514795
X00558156Y00523431
X00384712Y00436309
T02
X0040554Y00382715
X00510442Y00386271
X00636172Y00382715
X00644046Y00435547
X00638458Y00454089
X0063033Y00468059
X00655984Y00476441
X00670462Y00435801
X00618646Y00435547
X00592738
X0056683Y00434277
X00540414
X00515014Y00435293
X00489106
X00463452Y00434785
X00470564Y00497269
X00463156Y00506921
X00455156Y00514795
X00447156Y00523431
X00479454Y00545529
X00525936Y00534099
X00551082Y00557467
X00564036Y00558483
X00589944Y00553657
X0058334Y00593027
X00557686Y00583629
X00515268Y00593281
X00544986Y00649923
X00583086Y00649415
X00646078Y00535623
X00683924Y00512509
X00610264Y00453581
X0056937Y00470345
X00551844Y00462471
T03
X0062525Y00540449
X006604Y0057404
X007493Y00532384
T04
X00142748Y00263906
X00162814
Y00283972
Y00303784
X00142748
Y00283972
Y00324104
Y00343916
X00162814
Y00324104
Y00363982
Y00383794
X00142748
Y00363982
X0080391Y00363728
Y0038354
X00823976
Y00363728
Y00343662
Y0032385
X0080391
Y00343662
Y0030353
Y00283718
Y00263652
X00823976
Y00283718
Y0030353
Y00403606
X0080391
Y00423672
X00823976
Y00443738
X0080391
Y00463804
X00823976
X00162814Y00464058
Y00443992
Y00423926
Y0040386
X00142748
Y00423926
Y00443992
Y00464058
T05
X00093218Y00263954
Y00283512
X0011303
Y00263954
Y00303578
X00093218
X00092964Y00323644
X00112776
Y0034371
X00092964
X00093218Y00363776
X0011303
Y00383842
X00093218
X00849122Y00383794
X00868934
X0086868Y00363728
X00848868
Y00343662
X0086868
Y00323596
X00848868
Y0030353
X0086868
Y00283464
X00848868
Y00263398
X0086868
X00868934Y0040386
X00849122
X00848868Y00423926
X0086868
Y00443992
Y0046355
X00848868
Y00443992
X0011303Y0044404
X00093218
Y00423974
X0011303
Y00403908
X00093218
Y00464106
X0011303
T06
X00473612Y00294323
X00499012
X00524412
X00549812
X00575212
X00600612
Y00319723
X00575212
X00549812
X00524412
X00499012
X00473612
X00835154Y0060477
X00860554
T07
X0041275Y00622046
X0043815
X0046355
X0048895
T08
X00094996Y00064262
X00866394
X00866394Y006604
X00094996
M30
