G04*
G04 #@! TF.GenerationSoftware,Altium Limited,Altium Designer,19.1.7 (138)*
G04*
G04 Layer_Physical_Order=2*
G04 Layer_Color=16711680*
%FSLAX25Y25*%
%MOIN*%
G70*
G01*
G75*
%ADD14C,0.00600*%
%ADD21C,0.03937*%
%ADD39C,0.01000*%
%ADD40C,0.02000*%
%ADD41C,0.02500*%
%ADD42C,0.01500*%
%ADD45C,0.01200*%
%ADD46C,0.03400*%
%ADD47C,0.16535*%
%ADD48C,0.04331*%
%ADD49C,0.03543*%
%ADD50C,0.03150*%
%ADD51C,0.01500*%
%ADD52C,0.02000*%
%ADD53R,0.02362X0.02362*%
%ADD54R,0.01600X0.02100*%
G36*
X323800Y44400D02*
X54300D01*
Y241900D01*
X323800D01*
Y44400D01*
D02*
G37*
%LPC*%
G36*
X215000Y233040D02*
Y231600D01*
X216440D01*
X216384Y231880D01*
X215942Y232542D01*
X215280Y232984D01*
X215000Y233040D01*
D02*
G37*
G36*
X214000D02*
X213720Y232984D01*
X213058Y232542D01*
X212616Y231880D01*
X212560Y231600D01*
X214000D01*
Y233040D01*
D02*
G37*
G36*
X230000Y232840D02*
Y231400D01*
X231440D01*
X231384Y231680D01*
X230942Y232342D01*
X230280Y232784D01*
X230000Y232840D01*
D02*
G37*
G36*
X229000D02*
X228720Y232784D01*
X228058Y232342D01*
X227616Y231680D01*
X227560Y231400D01*
X229000D01*
Y232840D01*
D02*
G37*
G36*
X309900Y238663D02*
Y229900D01*
X318663D01*
X318534Y231217D01*
X318004Y232964D01*
X317143Y234574D01*
X315985Y235985D01*
X314574Y237143D01*
X312964Y238004D01*
X311217Y238534D01*
X309900Y238663D01*
D02*
G37*
G36*
X69200D02*
Y229900D01*
X77963D01*
X77834Y231217D01*
X77304Y232964D01*
X76443Y234574D01*
X75285Y235985D01*
X73874Y237143D01*
X72264Y238004D01*
X70517Y238534D01*
X69200Y238663D01*
D02*
G37*
G36*
X308900D02*
X307583Y238534D01*
X305836Y238004D01*
X304226Y237143D01*
X302815Y235985D01*
X301657Y234574D01*
X300796Y232964D01*
X300266Y231217D01*
X300137Y229900D01*
X308900D01*
Y238663D01*
D02*
G37*
G36*
X68200D02*
X66883Y238534D01*
X65136Y238004D01*
X63526Y237143D01*
X62115Y235985D01*
X60957Y234574D01*
X60096Y232964D01*
X59566Y231217D01*
X59437Y229900D01*
X68200D01*
Y238663D01*
D02*
G37*
G36*
X216440Y230600D02*
X215000D01*
Y229160D01*
X215280Y229216D01*
X215942Y229658D01*
X216384Y230320D01*
X216440Y230600D01*
D02*
G37*
G36*
X214000D02*
X212560D01*
X212616Y230320D01*
X213058Y229658D01*
X213720Y229216D01*
X214000Y229160D01*
Y230600D01*
D02*
G37*
G36*
X231440Y230400D02*
X230000D01*
Y228960D01*
X230280Y229016D01*
X230942Y229458D01*
X231384Y230120D01*
X231440Y230400D01*
D02*
G37*
G36*
X229000D02*
X227560D01*
X227616Y230120D01*
X228058Y229458D01*
X228720Y229016D01*
X229000Y228960D01*
Y230400D01*
D02*
G37*
G36*
X318663Y228900D02*
X309900D01*
Y220137D01*
X311217Y220266D01*
X312964Y220796D01*
X314574Y221657D01*
X315985Y222815D01*
X317143Y224226D01*
X318004Y225836D01*
X318534Y227583D01*
X318663Y228900D01*
D02*
G37*
G36*
X77963D02*
X69200D01*
Y220137D01*
X70517Y220266D01*
X72264Y220796D01*
X73874Y221657D01*
X75285Y222815D01*
X76443Y224226D01*
X77304Y225836D01*
X77834Y227583D01*
X77963Y228900D01*
D02*
G37*
G36*
X308900D02*
X300137D01*
X300266Y227583D01*
X300796Y225836D01*
X301657Y224226D01*
X302815Y222815D01*
X304226Y221657D01*
X305836Y220796D01*
X307583Y220266D01*
X308900Y220137D01*
Y228900D01*
D02*
G37*
G36*
X68200D02*
X59437D01*
X59566Y227583D01*
X60096Y225836D01*
X60957Y224226D01*
X62115Y222815D01*
X63526Y221657D01*
X65136Y220796D01*
X66883Y220266D01*
X68200Y220137D01*
Y228900D01*
D02*
G37*
G36*
X299900Y213227D02*
Y210600D01*
X302527D01*
X302484Y210927D01*
X302165Y211697D01*
X301658Y212358D01*
X300996Y212865D01*
X300226Y213184D01*
X299900Y213227D01*
D02*
G37*
G36*
X298900D02*
X298574Y213184D01*
X297804Y212865D01*
X297143Y212358D01*
X296635Y211697D01*
X296316Y210927D01*
X296273Y210600D01*
X298900D01*
Y213227D01*
D02*
G37*
G36*
X203300Y210740D02*
Y209300D01*
X204740D01*
X204684Y209580D01*
X204242Y210242D01*
X203580Y210684D01*
X203300Y210740D01*
D02*
G37*
G36*
X202300D02*
X202020Y210684D01*
X201358Y210242D01*
X200916Y209580D01*
X200860Y209300D01*
X202300D01*
Y210740D01*
D02*
G37*
G36*
X230100Y210640D02*
Y209200D01*
X231540D01*
X231484Y209480D01*
X231042Y210142D01*
X230380Y210584D01*
X230100Y210640D01*
D02*
G37*
G36*
X229100D02*
X228820Y210584D01*
X228158Y210142D01*
X227716Y209480D01*
X227660Y209200D01*
X229100D01*
Y210640D01*
D02*
G37*
G36*
X302527Y209600D02*
X299900D01*
Y206973D01*
X300226Y207016D01*
X300996Y207335D01*
X301658Y207843D01*
X302165Y208504D01*
X302484Y209274D01*
X302527Y209600D01*
D02*
G37*
G36*
X298900D02*
X296273D01*
X296316Y209274D01*
X296635Y208504D01*
X297143Y207843D01*
X297804Y207335D01*
X298574Y207016D01*
X298900Y206973D01*
Y209600D01*
D02*
G37*
G36*
X309400Y213293D02*
X308574Y213184D01*
X307804Y212865D01*
X307142Y212358D01*
X306635Y211697D01*
X306316Y210927D01*
X306207Y210100D01*
X306316Y209274D01*
X306635Y208504D01*
X307142Y207843D01*
X307804Y207335D01*
X308574Y207016D01*
X309400Y206908D01*
X310226Y207016D01*
X310996Y207335D01*
X311658Y207843D01*
X312165Y208504D01*
X312484Y209274D01*
X312593Y210100D01*
X312484Y210927D01*
X312165Y211697D01*
X311658Y212358D01*
X310996Y212865D01*
X310226Y213184D01*
X309400Y213293D01*
D02*
G37*
G36*
X204740Y208300D02*
X203300D01*
Y206860D01*
X203580Y206916D01*
X204242Y207358D01*
X204684Y208020D01*
X204740Y208300D01*
D02*
G37*
G36*
X202300D02*
X200860D01*
X200916Y208020D01*
X201358Y207358D01*
X202020Y206916D01*
X202300Y206860D01*
Y208300D01*
D02*
G37*
G36*
X231540Y208200D02*
X230100D01*
Y206760D01*
X230380Y206816D01*
X231042Y207258D01*
X231484Y207920D01*
X231540Y208200D01*
D02*
G37*
G36*
X229100D02*
X227660D01*
X227716Y207920D01*
X228158Y207258D01*
X228820Y206816D01*
X229100Y206760D01*
Y208200D01*
D02*
G37*
G36*
X217400Y196640D02*
Y195200D01*
X218840D01*
X218784Y195480D01*
X218342Y196142D01*
X217680Y196584D01*
X217400Y196640D01*
D02*
G37*
G36*
X216400D02*
X216120Y196584D01*
X215458Y196142D01*
X215016Y195480D01*
X214960Y195200D01*
X216400D01*
Y196640D01*
D02*
G37*
G36*
X232700Y195140D02*
Y193700D01*
X234140D01*
X234084Y193980D01*
X233642Y194642D01*
X232980Y195084D01*
X232700Y195140D01*
D02*
G37*
G36*
X231700D02*
X231420Y195084D01*
X230758Y194642D01*
X230316Y193980D01*
X230260Y193700D01*
X231700D01*
Y195140D01*
D02*
G37*
G36*
X219500Y207039D02*
X218720Y206884D01*
X218058Y206442D01*
X217616Y205780D01*
X217461Y205000D01*
X217616Y204220D01*
X218058Y203558D01*
X218542Y203235D01*
X220216Y201561D01*
Y196029D01*
X220116Y195880D01*
X219961Y195100D01*
X220116Y194320D01*
X220558Y193658D01*
X221220Y193216D01*
X222000Y193061D01*
X222780Y193216D01*
X223442Y193658D01*
X223884Y194320D01*
X224039Y195100D01*
X223884Y195880D01*
X223784Y196029D01*
Y202300D01*
X223784Y202300D01*
X223649Y202983D01*
X223262Y203562D01*
X223262Y203562D01*
X221469Y205355D01*
X221384Y205780D01*
X220942Y206442D01*
X220280Y206884D01*
X219500Y207039D01*
D02*
G37*
G36*
X218840Y194200D02*
X217400D01*
Y192760D01*
X217680Y192816D01*
X218342Y193258D01*
X218784Y193920D01*
X218840Y194200D01*
D02*
G37*
G36*
X216400D02*
X214960D01*
X215016Y193920D01*
X215458Y193258D01*
X216120Y192816D01*
X216400Y192760D01*
Y194200D01*
D02*
G37*
G36*
X260000Y199639D02*
X259220Y199484D01*
X258558Y199042D01*
X258116Y198380D01*
X258081Y198204D01*
X251861Y191984D01*
X248300D01*
X248300Y191984D01*
X247617Y191849D01*
X247038Y191462D01*
X245496Y189919D01*
X245320Y189884D01*
X244658Y189442D01*
X244216Y188780D01*
X244061Y188000D01*
X244216Y187220D01*
X244658Y186558D01*
X245320Y186116D01*
X246100Y185961D01*
X246880Y186116D01*
X247542Y186558D01*
X247984Y187220D01*
X248019Y187396D01*
X249039Y188416D01*
X252600D01*
X253283Y188551D01*
X253862Y188938D01*
X260604Y195681D01*
X260780Y195716D01*
X261442Y196158D01*
X261884Y196820D01*
X262039Y197600D01*
X261884Y198380D01*
X261442Y199042D01*
X260780Y199484D01*
X260000Y199639D01*
D02*
G37*
G36*
X234140Y192700D02*
X232700D01*
Y191260D01*
X232980Y191316D01*
X233642Y191758D01*
X234084Y192420D01*
X234140Y192700D01*
D02*
G37*
G36*
X231700D02*
X230260D01*
X230316Y192420D01*
X230758Y191758D01*
X231420Y191316D01*
X231700Y191260D01*
Y192700D01*
D02*
G37*
G36*
X189200Y191940D02*
Y190500D01*
X190640D01*
X190584Y190780D01*
X190142Y191442D01*
X189480Y191884D01*
X189200Y191940D01*
D02*
G37*
G36*
X188200D02*
X187920Y191884D01*
X187258Y191442D01*
X186816Y190780D01*
X186760Y190500D01*
X188200D01*
Y191940D01*
D02*
G37*
G36*
X190640Y189500D02*
X189200D01*
Y188060D01*
X189480Y188116D01*
X190142Y188558D01*
X190584Y189220D01*
X190640Y189500D01*
D02*
G37*
G36*
X188200D02*
X186760D01*
X186816Y189220D01*
X187258Y188558D01*
X187920Y188116D01*
X188200Y188060D01*
Y189500D01*
D02*
G37*
G36*
X207500Y187440D02*
Y186000D01*
X208940D01*
X208884Y186280D01*
X208442Y186942D01*
X207780Y187384D01*
X207500Y187440D01*
D02*
G37*
G36*
X206500D02*
X206220Y187384D01*
X205558Y186942D01*
X205116Y186280D01*
X205060Y186000D01*
X206500D01*
Y187440D01*
D02*
G37*
G36*
X208940Y185000D02*
X207500D01*
Y183560D01*
X207780Y183616D01*
X208442Y184058D01*
X208884Y184720D01*
X208940Y185000D01*
D02*
G37*
G36*
X206500D02*
X205060D01*
X205116Y184720D01*
X205558Y184058D01*
X206220Y183616D01*
X206500Y183560D01*
Y185000D01*
D02*
G37*
G36*
X69200Y185376D02*
Y183219D01*
X71358D01*
X71330Y183424D01*
X71058Y184081D01*
X70626Y184645D01*
X70062Y185077D01*
X69405Y185349D01*
X69200Y185376D01*
D02*
G37*
G36*
X61400D02*
Y183219D01*
X63557D01*
X63530Y183424D01*
X63258Y184081D01*
X62826Y184645D01*
X62262Y185077D01*
X61605Y185349D01*
X61400Y185376D01*
D02*
G37*
G36*
X68200D02*
X67995Y185349D01*
X67338Y185077D01*
X66774Y184645D01*
X66342Y184081D01*
X66070Y183424D01*
X66043Y183219D01*
X68200D01*
Y185376D01*
D02*
G37*
G36*
X60400D02*
X60195Y185349D01*
X59538Y185077D01*
X58974Y184645D01*
X58542Y184081D01*
X58270Y183424D01*
X58242Y183219D01*
X60400D01*
Y185376D01*
D02*
G37*
G36*
X88800Y185430D02*
Y183200D01*
X91030D01*
X91000Y183424D01*
X90721Y184098D01*
X90277Y184677D01*
X89698Y185121D01*
X89024Y185400D01*
X88800Y185430D01*
D02*
G37*
G36*
X87800D02*
X87576Y185400D01*
X86902Y185121D01*
X86323Y184677D01*
X85879Y184098D01*
X85600Y183424D01*
X85570Y183200D01*
X87800D01*
Y185430D01*
D02*
G37*
G36*
X80900D02*
Y183200D01*
X83130D01*
X83100Y183424D01*
X82821Y184098D01*
X82377Y184677D01*
X81798Y185121D01*
X81124Y185400D01*
X80900Y185430D01*
D02*
G37*
G36*
X79900D02*
X79676Y185400D01*
X79002Y185121D01*
X78423Y184677D01*
X77979Y184098D01*
X77700Y183424D01*
X77670Y183200D01*
X79900D01*
Y185430D01*
D02*
G37*
G36*
X300900Y185330D02*
Y183100D01*
X303130D01*
X303100Y183324D01*
X302821Y183998D01*
X302377Y184577D01*
X301798Y185021D01*
X301123Y185300D01*
X300900Y185330D01*
D02*
G37*
G36*
X299900D02*
X299676Y185300D01*
X299002Y185021D01*
X298423Y184577D01*
X297979Y183998D01*
X297700Y183324D01*
X297670Y183100D01*
X299900D01*
Y185330D01*
D02*
G37*
G36*
X293000D02*
Y183100D01*
X295230D01*
X295200Y183324D01*
X294921Y183998D01*
X294477Y184577D01*
X293898Y185021D01*
X293224Y185300D01*
X293000Y185330D01*
D02*
G37*
G36*
X292000D02*
X291776Y185300D01*
X291102Y185021D01*
X290523Y184577D01*
X290079Y183998D01*
X289800Y183324D01*
X289770Y183100D01*
X292000D01*
Y185330D01*
D02*
G37*
G36*
X318500Y185158D02*
Y183000D01*
X320657D01*
X320631Y183205D01*
X320358Y183862D01*
X319926Y184426D01*
X319362Y184858D01*
X318705Y185131D01*
X318500Y185158D01*
D02*
G37*
G36*
X317500D02*
X317295Y185131D01*
X316638Y184858D01*
X316074Y184426D01*
X315642Y183862D01*
X315370Y183205D01*
X315342Y183000D01*
X317500D01*
Y185158D01*
D02*
G37*
G36*
X310700D02*
Y183000D01*
X312858D01*
X312830Y183205D01*
X312558Y183862D01*
X312126Y184426D01*
X311562Y184858D01*
X310905Y185131D01*
X310700Y185158D01*
D02*
G37*
G36*
X309700D02*
X309495Y185131D01*
X308838Y184858D01*
X308274Y184426D01*
X307842Y183862D01*
X307570Y183205D01*
X307542Y183000D01*
X309700D01*
Y185158D01*
D02*
G37*
G36*
X258126Y183113D02*
X257346Y182958D01*
X256973Y182708D01*
X248637Y182731D01*
X248634Y182731D01*
X248632Y182731D01*
X221108D01*
X221083Y182748D01*
X220400Y182884D01*
X219717Y182748D01*
X219138Y182362D01*
X218752Y181783D01*
X218616Y181100D01*
X218640Y180976D01*
X218215Y180551D01*
X217863Y180621D01*
X217180Y180485D01*
X216601Y180099D01*
X216214Y179520D01*
X216079Y178837D01*
X216214Y178154D01*
X216269Y178072D01*
X216034Y177631D01*
X215595D01*
X214970Y177507D01*
X214441Y177154D01*
X214087Y176624D01*
X214080Y176589D01*
X213946Y176388D01*
X213810Y175706D01*
X213838Y175567D01*
X213645Y175331D01*
X213020Y175207D01*
X212491Y174854D01*
X212137Y174324D01*
X212116Y174218D01*
X211996Y174038D01*
X211860Y173355D01*
X211996Y172673D01*
X212383Y172094D01*
X212962Y171707D01*
X213645Y171571D01*
X214327Y171707D01*
X214868Y172069D01*
X219280D01*
X219280Y158686D01*
X218780Y158535D01*
X218642Y158742D01*
X217980Y159184D01*
X217700Y159240D01*
Y157300D01*
Y155360D01*
X217980Y155416D01*
X218642Y155858D01*
X218984Y156370D01*
X219459Y156429D01*
X219562Y156404D01*
X219579Y156379D01*
X219910Y156158D01*
X220300Y156080D01*
X236800Y156080D01*
X237190Y156158D01*
X237521Y156379D01*
X237742Y156710D01*
X237820Y157100D01*
Y160719D01*
X238700D01*
Y162900D01*
Y165081D01*
X237820D01*
X237820Y172069D01*
X249284D01*
X249358Y171958D01*
X256786Y164530D01*
X256758Y164242D01*
X256316Y163580D01*
X256161Y162800D01*
X256316Y162020D01*
X256508Y161732D01*
X250696Y155919D01*
X250520Y155884D01*
X249858Y155442D01*
X249416Y154780D01*
X249261Y154000D01*
X249416Y153220D01*
X249858Y152558D01*
X250520Y152116D01*
X251300Y151961D01*
X252080Y152116D01*
X252742Y152558D01*
X253184Y153220D01*
X253219Y153396D01*
X259562Y159738D01*
X259562Y159738D01*
X259948Y160317D01*
X260005Y160604D01*
X260548Y160768D01*
X268358Y152958D01*
X269020Y152516D01*
X269800Y152361D01*
X270580Y152516D01*
X271242Y152958D01*
X271684Y153620D01*
X271699Y153694D01*
X272177Y153839D01*
X273158Y152858D01*
X273820Y152416D01*
X274600Y152261D01*
X275380Y152416D01*
X276042Y152858D01*
X276484Y153520D01*
X276568Y153941D01*
X277110Y154106D01*
X277858Y153358D01*
X278520Y152916D01*
X279300Y152761D01*
X280080Y152916D01*
X280742Y153358D01*
X281184Y154020D01*
X281251Y154358D01*
X281794Y154522D01*
X281959Y154357D01*
X282038Y154238D01*
X282617Y153851D01*
X282687Y153838D01*
X282720Y153816D01*
X283500Y153661D01*
X284280Y153816D01*
X284942Y154258D01*
X285384Y154920D01*
X285539Y155700D01*
X285384Y156480D01*
X284942Y157142D01*
X259568Y182516D01*
X258907Y182958D01*
X258126Y183113D01*
D02*
G37*
G36*
X71358Y182219D02*
X69200D01*
Y180061D01*
X69405Y180088D01*
X70062Y180360D01*
X70626Y180793D01*
X71058Y181357D01*
X71330Y182014D01*
X71358Y182219D01*
D02*
G37*
G36*
X63557D02*
X61400D01*
Y180061D01*
X61605Y180088D01*
X62262Y180360D01*
X62826Y180793D01*
X63258Y181357D01*
X63530Y182014D01*
X63557Y182219D01*
D02*
G37*
G36*
X68200D02*
X66043D01*
X66070Y182014D01*
X66342Y181357D01*
X66774Y180793D01*
X67338Y180360D01*
X67995Y180088D01*
X68200Y180061D01*
Y182219D01*
D02*
G37*
G36*
X60400D02*
X58242D01*
X58270Y182014D01*
X58542Y181357D01*
X58974Y180793D01*
X59538Y180360D01*
X60195Y180088D01*
X60400Y180061D01*
Y182219D01*
D02*
G37*
G36*
X91030Y182200D02*
X88800D01*
Y179970D01*
X89024Y180000D01*
X89698Y180279D01*
X90277Y180723D01*
X90721Y181302D01*
X91000Y181976D01*
X91030Y182200D01*
D02*
G37*
G36*
X87800D02*
X85570D01*
X85600Y181976D01*
X85879Y181302D01*
X86323Y180723D01*
X86902Y180279D01*
X87576Y180000D01*
X87800Y179970D01*
Y182200D01*
D02*
G37*
G36*
X83130D02*
X80900D01*
Y179970D01*
X81124Y180000D01*
X81798Y180279D01*
X82377Y180723D01*
X82821Y181302D01*
X83100Y181976D01*
X83130Y182200D01*
D02*
G37*
G36*
X79900D02*
X77670D01*
X77700Y181976D01*
X77979Y181302D01*
X78423Y180723D01*
X79002Y180279D01*
X79676Y180000D01*
X79900Y179970D01*
Y182200D01*
D02*
G37*
G36*
X303130Y182100D02*
X300900D01*
Y179870D01*
X301123Y179900D01*
X301798Y180179D01*
X302377Y180623D01*
X302821Y181202D01*
X303100Y181876D01*
X303130Y182100D01*
D02*
G37*
G36*
X299900D02*
X297670D01*
X297700Y181876D01*
X297979Y181202D01*
X298423Y180623D01*
X299002Y180179D01*
X299676Y179900D01*
X299900Y179870D01*
Y182100D01*
D02*
G37*
G36*
X295230D02*
X293000D01*
Y179870D01*
X293224Y179900D01*
X293898Y180179D01*
X294477Y180623D01*
X294921Y181202D01*
X295200Y181876D01*
X295230Y182100D01*
D02*
G37*
G36*
X292000D02*
X289770D01*
X289800Y181876D01*
X290079Y181202D01*
X290523Y180623D01*
X291102Y180179D01*
X291776Y179900D01*
X292000Y179870D01*
Y182100D01*
D02*
G37*
G36*
X320657Y182000D02*
X318500D01*
Y179842D01*
X318705Y179869D01*
X319362Y180142D01*
X319926Y180574D01*
X320358Y181138D01*
X320631Y181795D01*
X320657Y182000D01*
D02*
G37*
G36*
X317500D02*
X315342D01*
X315370Y181795D01*
X315642Y181138D01*
X316074Y180574D01*
X316638Y180142D01*
X317295Y179869D01*
X317500Y179842D01*
Y182000D01*
D02*
G37*
G36*
X312858D02*
X310700D01*
Y179842D01*
X310905Y179869D01*
X311562Y180142D01*
X312126Y180574D01*
X312558Y181138D01*
X312830Y181795D01*
X312858Y182000D01*
D02*
G37*
G36*
X309700D02*
X307542D01*
X307570Y181795D01*
X307842Y181138D01*
X308274Y180574D01*
X308838Y180142D01*
X309495Y179869D01*
X309700Y179842D01*
Y182000D01*
D02*
G37*
G36*
X210000Y178440D02*
Y177000D01*
X211440D01*
X211384Y177280D01*
X210942Y177942D01*
X210280Y178384D01*
X210000Y178440D01*
D02*
G37*
G36*
X209000D02*
X208720Y178384D01*
X208058Y177942D01*
X207616Y177280D01*
X207560Y177000D01*
X209000D01*
Y178440D01*
D02*
G37*
G36*
X69200Y177476D02*
Y175319D01*
X71358D01*
X71330Y175524D01*
X71058Y176181D01*
X70626Y176745D01*
X70062Y177177D01*
X69405Y177449D01*
X69200Y177476D01*
D02*
G37*
G36*
X61400D02*
Y175319D01*
X63557D01*
X63530Y175524D01*
X63258Y176181D01*
X62826Y176745D01*
X62262Y177177D01*
X61605Y177449D01*
X61400Y177476D01*
D02*
G37*
G36*
X68200D02*
X67995Y177449D01*
X67338Y177177D01*
X66774Y176745D01*
X66342Y176181D01*
X66070Y175524D01*
X66043Y175319D01*
X68200D01*
Y177476D01*
D02*
G37*
G36*
X60400D02*
X60195Y177449D01*
X59538Y177177D01*
X58974Y176745D01*
X58542Y176181D01*
X58270Y175524D01*
X58242Y175319D01*
X60400D01*
Y177476D01*
D02*
G37*
G36*
X318500Y177457D02*
Y175300D01*
X320657D01*
X320631Y175505D01*
X320358Y176162D01*
X319926Y176726D01*
X319362Y177158D01*
X318705Y177430D01*
X318500Y177457D01*
D02*
G37*
G36*
X317500D02*
X317295Y177430D01*
X316638Y177158D01*
X316074Y176726D01*
X315642Y176162D01*
X315370Y175505D01*
X315342Y175300D01*
X317500D01*
Y177457D01*
D02*
G37*
G36*
X310700D02*
Y175300D01*
X312858D01*
X312830Y175505D01*
X312558Y176162D01*
X312126Y176726D01*
X311562Y177158D01*
X310905Y177430D01*
X310700Y177457D01*
D02*
G37*
G36*
X309700D02*
X309495Y177430D01*
X308838Y177158D01*
X308274Y176726D01*
X307842Y176162D01*
X307570Y175505D01*
X307542Y175300D01*
X309700D01*
Y177457D01*
D02*
G37*
G36*
X88800Y177530D02*
Y175300D01*
X91030D01*
X91000Y175524D01*
X90721Y176198D01*
X90277Y176777D01*
X89698Y177221D01*
X89024Y177500D01*
X88800Y177530D01*
D02*
G37*
G36*
X87800D02*
X87576Y177500D01*
X86902Y177221D01*
X86323Y176777D01*
X85879Y176198D01*
X85600Y175524D01*
X85570Y175300D01*
X87800D01*
Y177530D01*
D02*
G37*
G36*
X80900D02*
Y175300D01*
X83130D01*
X83100Y175524D01*
X82821Y176198D01*
X82377Y176777D01*
X81798Y177221D01*
X81124Y177500D01*
X80900Y177530D01*
D02*
G37*
G36*
X79900D02*
X79676Y177500D01*
X79002Y177221D01*
X78423Y176777D01*
X77979Y176198D01*
X77700Y175524D01*
X77670Y175300D01*
X79900D01*
Y177530D01*
D02*
G37*
G36*
X300900Y177430D02*
Y175200D01*
X303130D01*
X303100Y175424D01*
X302821Y176098D01*
X302377Y176677D01*
X301798Y177121D01*
X301123Y177400D01*
X300900Y177430D01*
D02*
G37*
G36*
X299900D02*
X299676Y177400D01*
X299002Y177121D01*
X298423Y176677D01*
X297979Y176098D01*
X297700Y175424D01*
X297670Y175200D01*
X299900D01*
Y177430D01*
D02*
G37*
G36*
X293000D02*
Y175200D01*
X295230D01*
X295200Y175424D01*
X294921Y176098D01*
X294477Y176677D01*
X293898Y177121D01*
X293224Y177400D01*
X293000Y177430D01*
D02*
G37*
G36*
X292000D02*
X291776Y177400D01*
X291102Y177121D01*
X290523Y176677D01*
X290079Y176098D01*
X289800Y175424D01*
X289770Y175200D01*
X292000D01*
Y177430D01*
D02*
G37*
G36*
X254300Y188139D02*
X253520Y187984D01*
X252858Y187542D01*
X252416Y186880D01*
X252261Y186100D01*
X252416Y185320D01*
X252858Y184658D01*
X253520Y184216D01*
X254300Y184061D01*
X254852Y184171D01*
X259866D01*
X267192Y176846D01*
X267316Y176220D01*
X267758Y175558D01*
X268420Y175116D01*
X269200Y174961D01*
X269980Y175116D01*
X270642Y175558D01*
X271084Y176220D01*
X271239Y177000D01*
X271084Y177780D01*
X270642Y178442D01*
X269980Y178884D01*
X269354Y179008D01*
X261581Y186781D01*
X261085Y187113D01*
X260500Y187229D01*
X255951D01*
X255742Y187542D01*
X255080Y187984D01*
X254300Y188139D01*
D02*
G37*
G36*
X211440Y176000D02*
X210000D01*
Y174560D01*
X210280Y174616D01*
X210942Y175058D01*
X211384Y175720D01*
X211440Y176000D01*
D02*
G37*
G36*
X209000D02*
X207560D01*
X207616Y175720D01*
X208058Y175058D01*
X208720Y174616D01*
X209000Y174560D01*
Y176000D01*
D02*
G37*
G36*
X71358Y174319D02*
X69200D01*
Y172161D01*
X69405Y172188D01*
X70062Y172460D01*
X70626Y172893D01*
X71058Y173457D01*
X71330Y174114D01*
X71358Y174319D01*
D02*
G37*
G36*
X63557D02*
X61400D01*
Y172161D01*
X61605Y172188D01*
X62262Y172460D01*
X62826Y172893D01*
X63258Y173457D01*
X63530Y174114D01*
X63557Y174319D01*
D02*
G37*
G36*
X68200D02*
X66043D01*
X66070Y174114D01*
X66342Y173457D01*
X66774Y172893D01*
X67338Y172460D01*
X67995Y172188D01*
X68200Y172161D01*
Y174319D01*
D02*
G37*
G36*
X60400D02*
X58242D01*
X58270Y174114D01*
X58542Y173457D01*
X58974Y172893D01*
X59538Y172460D01*
X60195Y172188D01*
X60400Y172161D01*
Y174319D01*
D02*
G37*
G36*
X320657Y174300D02*
X318500D01*
Y172143D01*
X318705Y172169D01*
X319362Y172442D01*
X319926Y172874D01*
X320358Y173438D01*
X320631Y174095D01*
X320657Y174300D01*
D02*
G37*
G36*
X317500D02*
X315342D01*
X315370Y174095D01*
X315642Y173438D01*
X316074Y172874D01*
X316638Y172442D01*
X317295Y172169D01*
X317500Y172143D01*
Y174300D01*
D02*
G37*
G36*
X312858D02*
X310700D01*
Y172143D01*
X310905Y172169D01*
X311562Y172442D01*
X312126Y172874D01*
X312558Y173438D01*
X312830Y174095D01*
X312858Y174300D01*
D02*
G37*
G36*
X309700D02*
X307542D01*
X307570Y174095D01*
X307842Y173438D01*
X308274Y172874D01*
X308838Y172442D01*
X309495Y172169D01*
X309700Y172143D01*
Y174300D01*
D02*
G37*
G36*
X91030D02*
X88800D01*
Y172070D01*
X89024Y172100D01*
X89698Y172379D01*
X90277Y172823D01*
X90721Y173402D01*
X91000Y174076D01*
X91030Y174300D01*
D02*
G37*
G36*
X87800D02*
X85570D01*
X85600Y174076D01*
X85879Y173402D01*
X86323Y172823D01*
X86902Y172379D01*
X87576Y172100D01*
X87800Y172070D01*
Y174300D01*
D02*
G37*
G36*
X83130D02*
X80900D01*
Y172070D01*
X81124Y172100D01*
X81798Y172379D01*
X82377Y172823D01*
X82821Y173402D01*
X83100Y174076D01*
X83130Y174300D01*
D02*
G37*
G36*
X79900D02*
X77670D01*
X77700Y174076D01*
X77979Y173402D01*
X78423Y172823D01*
X79002Y172379D01*
X79676Y172100D01*
X79900Y172070D01*
Y174300D01*
D02*
G37*
G36*
X303130Y174200D02*
X300900D01*
Y171970D01*
X301123Y172000D01*
X301798Y172279D01*
X302377Y172723D01*
X302821Y173302D01*
X303100Y173976D01*
X303130Y174200D01*
D02*
G37*
G36*
X299900D02*
X297670D01*
X297700Y173976D01*
X297979Y173302D01*
X298423Y172723D01*
X299002Y172279D01*
X299676Y172000D01*
X299900Y171970D01*
Y174200D01*
D02*
G37*
G36*
X295230D02*
X293000D01*
Y171970D01*
X293224Y172000D01*
X293898Y172279D01*
X294477Y172723D01*
X294921Y173302D01*
X295200Y173976D01*
X295230Y174200D01*
D02*
G37*
G36*
X292000D02*
X289770D01*
X289800Y173976D01*
X290079Y173302D01*
X290523Y172723D01*
X291102Y172279D01*
X291776Y172000D01*
X292000Y171970D01*
Y174200D01*
D02*
G37*
G36*
X188900Y169284D02*
X188217Y169149D01*
X188062Y169045D01*
X188900Y168207D01*
X189738Y169045D01*
X189583Y169149D01*
X188900Y169284D01*
D02*
G37*
G36*
X69200Y169576D02*
Y167419D01*
X71358D01*
X71330Y167624D01*
X71058Y168280D01*
X70626Y168845D01*
X70062Y169277D01*
X69405Y169549D01*
X69200Y169576D01*
D02*
G37*
G36*
X61400D02*
Y167419D01*
X63557D01*
X63530Y167624D01*
X63258Y168280D01*
X62826Y168845D01*
X62262Y169277D01*
X61605Y169549D01*
X61400Y169576D01*
D02*
G37*
G36*
X68200D02*
X67995Y169549D01*
X67338Y169277D01*
X66774Y168845D01*
X66342Y168280D01*
X66070Y167624D01*
X66043Y167419D01*
X68200D01*
Y169576D01*
D02*
G37*
G36*
X60400D02*
X60195Y169549D01*
X59538Y169277D01*
X58974Y168845D01*
X58542Y168280D01*
X58270Y167624D01*
X58242Y167419D01*
X60400D01*
Y169576D01*
D02*
G37*
G36*
X318500Y169557D02*
Y167400D01*
X320657D01*
X320631Y167605D01*
X320358Y168262D01*
X319926Y168826D01*
X319362Y169258D01*
X318705Y169530D01*
X318500Y169557D01*
D02*
G37*
G36*
X317500D02*
X317295Y169530D01*
X316638Y169258D01*
X316074Y168826D01*
X315642Y168262D01*
X315370Y167605D01*
X315342Y167400D01*
X317500D01*
Y169557D01*
D02*
G37*
G36*
X310700D02*
Y167400D01*
X312858D01*
X312830Y167605D01*
X312558Y168262D01*
X312126Y168826D01*
X311562Y169258D01*
X310905Y169530D01*
X310700Y169557D01*
D02*
G37*
G36*
X309700D02*
X309495Y169530D01*
X308838Y169258D01*
X308274Y168826D01*
X307842Y168262D01*
X307570Y167605D01*
X307542Y167400D01*
X309700D01*
Y169557D01*
D02*
G37*
G36*
X88800Y169630D02*
Y167400D01*
X91030D01*
X91000Y167624D01*
X90721Y168298D01*
X90277Y168877D01*
X89698Y169321D01*
X89024Y169600D01*
X88800Y169630D01*
D02*
G37*
G36*
X87800D02*
X87576Y169600D01*
X86902Y169321D01*
X86323Y168877D01*
X85879Y168298D01*
X85600Y167624D01*
X85570Y167400D01*
X87800D01*
Y169630D01*
D02*
G37*
G36*
X80900D02*
Y167400D01*
X83130D01*
X83100Y167624D01*
X82821Y168298D01*
X82377Y168877D01*
X81798Y169321D01*
X81124Y169600D01*
X80900Y169630D01*
D02*
G37*
G36*
X79900D02*
X79676Y169600D01*
X79002Y169321D01*
X78423Y168877D01*
X77979Y168298D01*
X77700Y167624D01*
X77670Y167400D01*
X79900D01*
Y169630D01*
D02*
G37*
G36*
X300900Y169530D02*
Y167300D01*
X303130D01*
X303100Y167524D01*
X302821Y168198D01*
X302377Y168777D01*
X301798Y169221D01*
X301123Y169500D01*
X300900Y169530D01*
D02*
G37*
G36*
X299900D02*
X299676Y169500D01*
X299002Y169221D01*
X298423Y168777D01*
X297979Y168198D01*
X297700Y167524D01*
X297670Y167300D01*
X299900D01*
Y169530D01*
D02*
G37*
G36*
X293000D02*
Y167300D01*
X295230D01*
X295200Y167524D01*
X294921Y168198D01*
X294477Y168777D01*
X293898Y169221D01*
X293224Y169500D01*
X293000Y169530D01*
D02*
G37*
G36*
X292000D02*
X291776Y169500D01*
X291102Y169221D01*
X290523Y168777D01*
X290079Y168198D01*
X289800Y167524D01*
X289770Y167300D01*
X292000D01*
Y169530D01*
D02*
G37*
G36*
X190445Y168338D02*
X189607Y167500D01*
X190445Y166662D01*
X190549Y166817D01*
X190684Y167500D01*
X190549Y168183D01*
X190445Y168338D01*
D02*
G37*
G36*
X187355Y168338D02*
X187251Y168183D01*
X187116Y167500D01*
X187251Y166817D01*
X187355Y166662D01*
X188193Y167500D01*
X187355Y168338D01*
D02*
G37*
G36*
X188900Y166793D02*
X188062Y165955D01*
X188217Y165851D01*
X188900Y165716D01*
X189583Y165851D01*
X189738Y165955D01*
X188900Y166793D01*
D02*
G37*
G36*
X71358Y166419D02*
X69200D01*
Y164261D01*
X69405Y164288D01*
X70062Y164560D01*
X70626Y164993D01*
X71058Y165557D01*
X71330Y166214D01*
X71358Y166419D01*
D02*
G37*
G36*
X63557D02*
X61400D01*
Y164261D01*
X61605Y164288D01*
X62262Y164560D01*
X62826Y164993D01*
X63258Y165557D01*
X63530Y166214D01*
X63557Y166419D01*
D02*
G37*
G36*
X68200D02*
X66043D01*
X66070Y166214D01*
X66342Y165557D01*
X66774Y164993D01*
X67338Y164560D01*
X67995Y164288D01*
X68200Y164261D01*
Y166419D01*
D02*
G37*
G36*
X60400D02*
X58242D01*
X58270Y166214D01*
X58542Y165557D01*
X58974Y164993D01*
X59538Y164560D01*
X60195Y164288D01*
X60400Y164261D01*
Y166419D01*
D02*
G37*
G36*
X320657Y166400D02*
X318500D01*
Y164242D01*
X318705Y164269D01*
X319362Y164542D01*
X319926Y164974D01*
X320358Y165538D01*
X320631Y166195D01*
X320657Y166400D01*
D02*
G37*
G36*
X317500D02*
X315342D01*
X315370Y166195D01*
X315642Y165538D01*
X316074Y164974D01*
X316638Y164542D01*
X317295Y164269D01*
X317500Y164242D01*
Y166400D01*
D02*
G37*
G36*
X312858D02*
X310700D01*
Y164242D01*
X310905Y164269D01*
X311562Y164542D01*
X312126Y164974D01*
X312558Y165538D01*
X312830Y166195D01*
X312858Y166400D01*
D02*
G37*
G36*
X309700D02*
X307542D01*
X307570Y166195D01*
X307842Y165538D01*
X308274Y164974D01*
X308838Y164542D01*
X309495Y164269D01*
X309700Y164242D01*
Y166400D01*
D02*
G37*
G36*
X91030D02*
X88800D01*
Y164170D01*
X89024Y164200D01*
X89698Y164479D01*
X90277Y164923D01*
X90721Y165502D01*
X91000Y166176D01*
X91030Y166400D01*
D02*
G37*
G36*
X87800D02*
X85570D01*
X85600Y166176D01*
X85879Y165502D01*
X86323Y164923D01*
X86902Y164479D01*
X87576Y164200D01*
X87800Y164170D01*
Y166400D01*
D02*
G37*
G36*
X83130D02*
X80900D01*
Y164170D01*
X81124Y164200D01*
X81798Y164479D01*
X82377Y164923D01*
X82821Y165502D01*
X83100Y166176D01*
X83130Y166400D01*
D02*
G37*
G36*
X79900D02*
X77670D01*
X77700Y166176D01*
X77979Y165502D01*
X78423Y164923D01*
X79002Y164479D01*
X79676Y164200D01*
X79900Y164170D01*
Y166400D01*
D02*
G37*
G36*
X303130Y166300D02*
X300900D01*
Y164070D01*
X301123Y164100D01*
X301798Y164379D01*
X302377Y164823D01*
X302821Y165402D01*
X303100Y166076D01*
X303130Y166300D01*
D02*
G37*
G36*
X299900D02*
X297670D01*
X297700Y166076D01*
X297979Y165402D01*
X298423Y164823D01*
X299002Y164379D01*
X299676Y164100D01*
X299900Y164070D01*
Y166300D01*
D02*
G37*
G36*
X295230D02*
X293000D01*
Y164070D01*
X293224Y164100D01*
X293898Y164379D01*
X294477Y164823D01*
X294921Y165402D01*
X295200Y166076D01*
X295230Y166300D01*
D02*
G37*
G36*
X292000D02*
X289770D01*
X289800Y166076D01*
X290079Y165402D01*
X290523Y164823D01*
X291102Y164379D01*
X291776Y164100D01*
X292000Y164070D01*
Y166300D01*
D02*
G37*
G36*
X241381Y165081D02*
X239700D01*
Y163400D01*
X241381D01*
Y165081D01*
D02*
G37*
G36*
Y162400D02*
X239700D01*
Y160719D01*
X241381D01*
Y162400D01*
D02*
G37*
G36*
X69200Y161676D02*
Y159519D01*
X71358D01*
X71330Y159724D01*
X71058Y160380D01*
X70626Y160945D01*
X70062Y161377D01*
X69405Y161649D01*
X69200Y161676D01*
D02*
G37*
G36*
X61400D02*
Y159519D01*
X63557D01*
X63530Y159724D01*
X63258Y160380D01*
X62826Y160945D01*
X62262Y161377D01*
X61605Y161649D01*
X61400Y161676D01*
D02*
G37*
G36*
X68200D02*
X67995Y161649D01*
X67338Y161377D01*
X66774Y160945D01*
X66342Y160380D01*
X66070Y159724D01*
X66043Y159519D01*
X68200D01*
Y161676D01*
D02*
G37*
G36*
X60400D02*
X60195Y161649D01*
X59538Y161377D01*
X58974Y160945D01*
X58542Y160380D01*
X58270Y159724D01*
X58242Y159519D01*
X60400D01*
Y161676D01*
D02*
G37*
G36*
X318600Y161658D02*
Y159500D01*
X320758D01*
X320730Y159705D01*
X320458Y160362D01*
X320026Y160926D01*
X319462Y161358D01*
X318805Y161630D01*
X318600Y161658D01*
D02*
G37*
G36*
X317600D02*
X317395Y161630D01*
X316738Y161358D01*
X316174Y160926D01*
X315742Y160362D01*
X315470Y159705D01*
X315442Y159500D01*
X317600D01*
Y161658D01*
D02*
G37*
G36*
X310800D02*
Y159500D01*
X312958D01*
X312930Y159705D01*
X312658Y160362D01*
X312226Y160926D01*
X311662Y161358D01*
X311005Y161630D01*
X310800Y161658D01*
D02*
G37*
G36*
X309800D02*
X309595Y161630D01*
X308938Y161358D01*
X308374Y160926D01*
X307942Y160362D01*
X307669Y159705D01*
X307643Y159500D01*
X309800D01*
Y161658D01*
D02*
G37*
G36*
X88800Y161730D02*
Y159500D01*
X91030D01*
X91000Y159724D01*
X90721Y160398D01*
X90277Y160977D01*
X89698Y161421D01*
X89024Y161700D01*
X88800Y161730D01*
D02*
G37*
G36*
X87800D02*
X87576Y161700D01*
X86902Y161421D01*
X86323Y160977D01*
X85879Y160398D01*
X85600Y159724D01*
X85570Y159500D01*
X87800D01*
Y161730D01*
D02*
G37*
G36*
X80900D02*
Y159500D01*
X83130D01*
X83100Y159724D01*
X82821Y160398D01*
X82377Y160977D01*
X81798Y161421D01*
X81124Y161700D01*
X80900Y161730D01*
D02*
G37*
G36*
X79900D02*
X79676Y161700D01*
X79002Y161421D01*
X78423Y160977D01*
X77979Y160398D01*
X77700Y159724D01*
X77670Y159500D01*
X79900D01*
Y161730D01*
D02*
G37*
G36*
X300900Y161630D02*
Y159400D01*
X303130D01*
X303100Y159624D01*
X302821Y160298D01*
X302377Y160877D01*
X301798Y161321D01*
X301123Y161600D01*
X300900Y161630D01*
D02*
G37*
G36*
X299900D02*
X299676Y161600D01*
X299002Y161321D01*
X298423Y160877D01*
X297979Y160298D01*
X297700Y159624D01*
X297670Y159400D01*
X299900D01*
Y161630D01*
D02*
G37*
G36*
X293000D02*
Y159400D01*
X295230D01*
X295200Y159624D01*
X294921Y160298D01*
X294477Y160877D01*
X293898Y161321D01*
X293224Y161600D01*
X293000Y161630D01*
D02*
G37*
G36*
X292000D02*
X291776Y161600D01*
X291102Y161321D01*
X290523Y160877D01*
X290079Y160298D01*
X289800Y159624D01*
X289770Y159400D01*
X292000D01*
Y161630D01*
D02*
G37*
G36*
X216700Y159240D02*
X216420Y159184D01*
X215758Y158742D01*
X215316Y158080D01*
X215260Y157800D01*
X216700D01*
Y159240D01*
D02*
G37*
G36*
X71358Y158519D02*
X69200D01*
Y156361D01*
X69405Y156388D01*
X70062Y156660D01*
X70626Y157093D01*
X71058Y157657D01*
X71330Y158314D01*
X71358Y158519D01*
D02*
G37*
G36*
X63557D02*
X61400D01*
Y156361D01*
X61605Y156388D01*
X62262Y156660D01*
X62826Y157093D01*
X63258Y157657D01*
X63530Y158314D01*
X63557Y158519D01*
D02*
G37*
G36*
X68200D02*
X66043D01*
X66070Y158314D01*
X66342Y157657D01*
X66774Y157093D01*
X67338Y156660D01*
X67995Y156388D01*
X68200Y156361D01*
Y158519D01*
D02*
G37*
G36*
X60400D02*
X58242D01*
X58270Y158314D01*
X58542Y157657D01*
X58974Y157093D01*
X59538Y156660D01*
X60195Y156388D01*
X60400Y156361D01*
Y158519D01*
D02*
G37*
G36*
X320758Y158500D02*
X318600D01*
Y156342D01*
X318805Y156369D01*
X319462Y156642D01*
X320026Y157074D01*
X320458Y157638D01*
X320730Y158295D01*
X320758Y158500D01*
D02*
G37*
G36*
X317600D02*
X315442D01*
X315470Y158295D01*
X315742Y157638D01*
X316174Y157074D01*
X316738Y156642D01*
X317395Y156369D01*
X317600Y156342D01*
Y158500D01*
D02*
G37*
G36*
X312958D02*
X310800D01*
Y156342D01*
X311005Y156369D01*
X311662Y156642D01*
X312226Y157074D01*
X312658Y157638D01*
X312930Y158295D01*
X312958Y158500D01*
D02*
G37*
G36*
X309800D02*
X307643D01*
X307669Y158295D01*
X307942Y157638D01*
X308374Y157074D01*
X308938Y156642D01*
X309595Y156369D01*
X309800Y156342D01*
Y158500D01*
D02*
G37*
G36*
X91030D02*
X88800D01*
Y156270D01*
X89024Y156300D01*
X89698Y156579D01*
X90277Y157023D01*
X90721Y157602D01*
X91000Y158276D01*
X91030Y158500D01*
D02*
G37*
G36*
X87800D02*
X85570D01*
X85600Y158276D01*
X85879Y157602D01*
X86323Y157023D01*
X86902Y156579D01*
X87576Y156300D01*
X87800Y156270D01*
Y158500D01*
D02*
G37*
G36*
X83130D02*
X80900D01*
Y156270D01*
X81124Y156300D01*
X81798Y156579D01*
X82377Y157023D01*
X82821Y157602D01*
X83100Y158276D01*
X83130Y158500D01*
D02*
G37*
G36*
X79900D02*
X77670D01*
X77700Y158276D01*
X77979Y157602D01*
X78423Y157023D01*
X79002Y156579D01*
X79676Y156300D01*
X79900Y156270D01*
Y158500D01*
D02*
G37*
G36*
X303130Y158400D02*
X300900D01*
Y156170D01*
X301123Y156200D01*
X301798Y156479D01*
X302377Y156923D01*
X302821Y157502D01*
X303100Y158176D01*
X303130Y158400D01*
D02*
G37*
G36*
X299900D02*
X297670D01*
X297700Y158176D01*
X297979Y157502D01*
X298423Y156923D01*
X299002Y156479D01*
X299676Y156200D01*
X299900Y156170D01*
Y158400D01*
D02*
G37*
G36*
X295230D02*
X293000D01*
Y156170D01*
X293224Y156200D01*
X293898Y156479D01*
X294477Y156923D01*
X294921Y157502D01*
X295200Y158176D01*
X295230Y158400D01*
D02*
G37*
G36*
X292000D02*
X289770D01*
X289800Y158176D01*
X290079Y157502D01*
X290523Y156923D01*
X291102Y156479D01*
X291776Y156200D01*
X292000Y156170D01*
Y158400D01*
D02*
G37*
G36*
X248100Y161539D02*
X247320Y161384D01*
X246658Y160942D01*
X246335Y160458D01*
X241461Y155584D01*
X241129D01*
X240980Y155684D01*
X240200Y155839D01*
X239420Y155684D01*
X238758Y155242D01*
X238316Y154580D01*
X238161Y153800D01*
X238316Y153020D01*
X238758Y152358D01*
X239420Y151916D01*
X240200Y151761D01*
X240980Y151916D01*
X241129Y152016D01*
X242200D01*
X242883Y152152D01*
X243462Y152538D01*
X248455Y157531D01*
X248880Y157616D01*
X249542Y158058D01*
X249984Y158720D01*
X250139Y159500D01*
X249984Y160280D01*
X249542Y160942D01*
X248880Y161384D01*
X248100Y161539D01*
D02*
G37*
G36*
X216700Y156800D02*
X215260D01*
X215316Y156520D01*
X215758Y155858D01*
X216420Y155416D01*
X216700Y155360D01*
Y156800D01*
D02*
G37*
G36*
X69200Y153776D02*
Y151619D01*
X71358D01*
X71330Y151824D01*
X71058Y152480D01*
X70626Y153045D01*
X70062Y153477D01*
X69405Y153749D01*
X69200Y153776D01*
D02*
G37*
G36*
X61400D02*
Y151619D01*
X63557D01*
X63530Y151824D01*
X63258Y152480D01*
X62826Y153045D01*
X62262Y153477D01*
X61605Y153749D01*
X61400Y153776D01*
D02*
G37*
G36*
X68200D02*
X67995Y153749D01*
X67338Y153477D01*
X66774Y153045D01*
X66342Y152480D01*
X66070Y151824D01*
X66043Y151619D01*
X68200D01*
Y153776D01*
D02*
G37*
G36*
X60400D02*
X60195Y153749D01*
X59538Y153477D01*
X58974Y153045D01*
X58542Y152480D01*
X58270Y151824D01*
X58242Y151619D01*
X60400D01*
Y153776D01*
D02*
G37*
G36*
X318600Y153758D02*
Y151600D01*
X320758D01*
X320730Y151805D01*
X320458Y152462D01*
X320026Y153026D01*
X319462Y153458D01*
X318805Y153730D01*
X318600Y153758D01*
D02*
G37*
G36*
X317600D02*
X317395Y153730D01*
X316738Y153458D01*
X316174Y153026D01*
X315742Y152462D01*
X315470Y151805D01*
X315442Y151600D01*
X317600D01*
Y153758D01*
D02*
G37*
G36*
X310800D02*
Y151600D01*
X312958D01*
X312930Y151805D01*
X312658Y152462D01*
X312226Y153026D01*
X311662Y153458D01*
X311005Y153730D01*
X310800Y153758D01*
D02*
G37*
G36*
X309800D02*
X309595Y153730D01*
X308938Y153458D01*
X308374Y153026D01*
X307942Y152462D01*
X307669Y151805D01*
X307643Y151600D01*
X309800D01*
Y153758D01*
D02*
G37*
G36*
X88800Y153830D02*
Y151600D01*
X91030D01*
X91000Y151824D01*
X90721Y152498D01*
X90277Y153077D01*
X89698Y153521D01*
X89024Y153800D01*
X88800Y153830D01*
D02*
G37*
G36*
X87800D02*
X87576Y153800D01*
X86902Y153521D01*
X86323Y153077D01*
X85879Y152498D01*
X85600Y151824D01*
X85570Y151600D01*
X87800D01*
Y153830D01*
D02*
G37*
G36*
X80900D02*
Y151600D01*
X83130D01*
X83100Y151824D01*
X82821Y152498D01*
X82377Y153077D01*
X81798Y153521D01*
X81124Y153800D01*
X80900Y153830D01*
D02*
G37*
G36*
X79900D02*
X79676Y153800D01*
X79002Y153521D01*
X78423Y153077D01*
X77979Y152498D01*
X77700Y151824D01*
X77670Y151600D01*
X79900D01*
Y153830D01*
D02*
G37*
G36*
X300900Y153730D02*
Y151500D01*
X303130D01*
X303100Y151724D01*
X302821Y152398D01*
X302377Y152977D01*
X301798Y153421D01*
X301123Y153700D01*
X300900Y153730D01*
D02*
G37*
G36*
X299900D02*
X299676Y153700D01*
X299002Y153421D01*
X298423Y152977D01*
X297979Y152398D01*
X297700Y151724D01*
X297670Y151500D01*
X299900D01*
Y153730D01*
D02*
G37*
G36*
X293000D02*
Y151500D01*
X295230D01*
X295200Y151724D01*
X294921Y152398D01*
X294477Y152977D01*
X293898Y153421D01*
X293224Y153700D01*
X293000Y153730D01*
D02*
G37*
G36*
X292000D02*
X291776Y153700D01*
X291102Y153421D01*
X290523Y152977D01*
X290079Y152398D01*
X289800Y151724D01*
X289770Y151500D01*
X292000D01*
Y153730D01*
D02*
G37*
G36*
X71358Y150619D02*
X69200D01*
Y148461D01*
X69405Y148488D01*
X70062Y148760D01*
X70626Y149193D01*
X71058Y149757D01*
X71330Y150414D01*
X71358Y150619D01*
D02*
G37*
G36*
X63557D02*
X61400D01*
Y148461D01*
X61605Y148488D01*
X62262Y148760D01*
X62826Y149193D01*
X63258Y149757D01*
X63530Y150414D01*
X63557Y150619D01*
D02*
G37*
G36*
X68200D02*
X66043D01*
X66070Y150414D01*
X66342Y149757D01*
X66774Y149193D01*
X67338Y148760D01*
X67995Y148488D01*
X68200Y148461D01*
Y150619D01*
D02*
G37*
G36*
X60400D02*
X58242D01*
X58270Y150414D01*
X58542Y149757D01*
X58974Y149193D01*
X59538Y148760D01*
X60195Y148488D01*
X60400Y148461D01*
Y150619D01*
D02*
G37*
G36*
X320758Y150600D02*
X318600D01*
Y148442D01*
X318805Y148469D01*
X319462Y148742D01*
X320026Y149174D01*
X320458Y149738D01*
X320730Y150395D01*
X320758Y150600D01*
D02*
G37*
G36*
X317600D02*
X315442D01*
X315470Y150395D01*
X315742Y149738D01*
X316174Y149174D01*
X316738Y148742D01*
X317395Y148469D01*
X317600Y148442D01*
Y150600D01*
D02*
G37*
G36*
X312958D02*
X310800D01*
Y148442D01*
X311005Y148469D01*
X311662Y148742D01*
X312226Y149174D01*
X312658Y149738D01*
X312930Y150395D01*
X312958Y150600D01*
D02*
G37*
G36*
X309800D02*
X307643D01*
X307669Y150395D01*
X307942Y149738D01*
X308374Y149174D01*
X308938Y148742D01*
X309595Y148469D01*
X309800Y148442D01*
Y150600D01*
D02*
G37*
G36*
X91030D02*
X88800D01*
Y148370D01*
X89024Y148400D01*
X89698Y148679D01*
X90277Y149123D01*
X90721Y149702D01*
X91000Y150376D01*
X91030Y150600D01*
D02*
G37*
G36*
X87800D02*
X85570D01*
X85600Y150376D01*
X85879Y149702D01*
X86323Y149123D01*
X86902Y148679D01*
X87576Y148400D01*
X87800Y148370D01*
Y150600D01*
D02*
G37*
G36*
X83130D02*
X80900D01*
Y148370D01*
X81124Y148400D01*
X81798Y148679D01*
X82377Y149123D01*
X82821Y149702D01*
X83100Y150376D01*
X83130Y150600D01*
D02*
G37*
G36*
X79900D02*
X77670D01*
X77700Y150376D01*
X77979Y149702D01*
X78423Y149123D01*
X79002Y148679D01*
X79676Y148400D01*
X79900Y148370D01*
Y150600D01*
D02*
G37*
G36*
X303130Y150500D02*
X300900D01*
Y148270D01*
X301123Y148300D01*
X301798Y148579D01*
X302377Y149023D01*
X302821Y149602D01*
X303100Y150276D01*
X303130Y150500D01*
D02*
G37*
G36*
X299900D02*
X297670D01*
X297700Y150276D01*
X297979Y149602D01*
X298423Y149023D01*
X299002Y148579D01*
X299676Y148300D01*
X299900Y148270D01*
Y150500D01*
D02*
G37*
G36*
X295230D02*
X293000D01*
Y148270D01*
X293224Y148300D01*
X293898Y148579D01*
X294477Y149023D01*
X294921Y149602D01*
X295200Y150276D01*
X295230Y150500D01*
D02*
G37*
G36*
X292000D02*
X289770D01*
X289800Y150276D01*
X290079Y149602D01*
X290523Y149023D01*
X291102Y148579D01*
X291776Y148300D01*
X292000Y148270D01*
Y150500D01*
D02*
G37*
G36*
X172500Y148885D02*
Y147700D01*
X173685D01*
X173649Y147883D01*
X173262Y148462D01*
X172683Y148848D01*
X172500Y148885D01*
D02*
G37*
G36*
X171500D02*
X171317Y148848D01*
X170738Y148462D01*
X170352Y147883D01*
X170315Y147700D01*
X171500D01*
Y148885D01*
D02*
G37*
G36*
X162300Y148785D02*
Y147600D01*
X163485D01*
X163449Y147783D01*
X163062Y148362D01*
X162483Y148749D01*
X162300Y148785D01*
D02*
G37*
G36*
X161300D02*
X161117Y148749D01*
X160538Y148362D01*
X160152Y147783D01*
X160115Y147600D01*
X161300D01*
Y148785D01*
D02*
G37*
G36*
X151900Y148685D02*
Y147500D01*
X153085D01*
X153049Y147683D01*
X152662Y148262D01*
X152083Y148649D01*
X151900Y148685D01*
D02*
G37*
G36*
X150900D02*
X150717Y148649D01*
X150138Y148262D01*
X149751Y147683D01*
X149715Y147500D01*
X150900D01*
Y148685D01*
D02*
G37*
G36*
X264400Y148740D02*
Y147300D01*
X265840D01*
X265784Y147580D01*
X265342Y148242D01*
X264680Y148684D01*
X264400Y148740D01*
D02*
G37*
G36*
X263400D02*
X263120Y148684D01*
X262458Y148242D01*
X262016Y147580D01*
X261960Y147300D01*
X263400D01*
Y148740D01*
D02*
G37*
G36*
X254000Y148640D02*
Y147200D01*
X255440D01*
X255384Y147480D01*
X254942Y148142D01*
X254280Y148584D01*
X254000Y148640D01*
D02*
G37*
G36*
X253000D02*
X252720Y148584D01*
X252058Y148142D01*
X251616Y147480D01*
X251560Y147200D01*
X253000D01*
Y148640D01*
D02*
G37*
G36*
X244000D02*
Y147200D01*
X245440D01*
X245384Y147480D01*
X244942Y148142D01*
X244280Y148584D01*
X244000Y148640D01*
D02*
G37*
G36*
X243000D02*
X242720Y148584D01*
X242058Y148142D01*
X241616Y147480D01*
X241560Y147200D01*
X243000D01*
Y148640D01*
D02*
G37*
G36*
X233800D02*
Y147200D01*
X235240D01*
X235184Y147480D01*
X234742Y148142D01*
X234080Y148584D01*
X233800Y148640D01*
D02*
G37*
G36*
X232800D02*
X232520Y148584D01*
X231858Y148142D01*
X231416Y147480D01*
X231360Y147200D01*
X232800D01*
Y148640D01*
D02*
G37*
G36*
X203200Y148540D02*
Y147100D01*
X204640D01*
X204584Y147380D01*
X204142Y148042D01*
X203480Y148484D01*
X203200Y148540D01*
D02*
G37*
G36*
X202200D02*
X201920Y148484D01*
X201258Y148042D01*
X200816Y147380D01*
X200760Y147100D01*
X202200D01*
Y148540D01*
D02*
G37*
G36*
X193000D02*
Y147100D01*
X194440D01*
X194384Y147380D01*
X193942Y148042D01*
X193280Y148484D01*
X193000Y148540D01*
D02*
G37*
G36*
X192000D02*
X191720Y148484D01*
X191058Y148042D01*
X190616Y147380D01*
X190560Y147100D01*
X192000D01*
Y148540D01*
D02*
G37*
G36*
X182900Y148340D02*
Y146900D01*
X184340D01*
X184284Y147180D01*
X183842Y147842D01*
X183180Y148284D01*
X182900Y148340D01*
D02*
G37*
G36*
X181900D02*
X181620Y148284D01*
X180958Y147842D01*
X180516Y147180D01*
X180460Y146900D01*
X181900D01*
Y148340D01*
D02*
G37*
G36*
X223600Y148140D02*
Y146700D01*
X225040D01*
X224984Y146980D01*
X224542Y147642D01*
X223880Y148084D01*
X223600Y148140D01*
D02*
G37*
G36*
X222600D02*
X222320Y148084D01*
X221658Y147642D01*
X221216Y146980D01*
X221160Y146700D01*
X222600D01*
Y148140D01*
D02*
G37*
G36*
X213200D02*
Y146700D01*
X214640D01*
X214584Y146980D01*
X214142Y147642D01*
X213480Y148084D01*
X213200Y148140D01*
D02*
G37*
G36*
X212200D02*
X211920Y148084D01*
X211258Y147642D01*
X210816Y146980D01*
X210760Y146700D01*
X212200D01*
Y148140D01*
D02*
G37*
G36*
X173685Y146700D02*
X172500D01*
Y145515D01*
X172683Y145552D01*
X173262Y145938D01*
X173649Y146517D01*
X173685Y146700D01*
D02*
G37*
G36*
X171500D02*
X170315D01*
X170352Y146517D01*
X170738Y145938D01*
X171317Y145552D01*
X171500Y145515D01*
Y146700D01*
D02*
G37*
G36*
X163485Y146600D02*
X162300D01*
Y145415D01*
X162483Y145451D01*
X163062Y145838D01*
X163449Y146417D01*
X163485Y146600D01*
D02*
G37*
G36*
X161300D02*
X160115D01*
X160152Y146417D01*
X160538Y145838D01*
X161117Y145451D01*
X161300Y145415D01*
Y146600D01*
D02*
G37*
G36*
X153085Y146500D02*
X151900D01*
Y145315D01*
X152083Y145352D01*
X152662Y145738D01*
X153049Y146317D01*
X153085Y146500D01*
D02*
G37*
G36*
X150900D02*
X149715D01*
X149751Y146317D01*
X150138Y145738D01*
X150717Y145352D01*
X150900Y145315D01*
Y146500D01*
D02*
G37*
G36*
X265840Y146300D02*
X264400D01*
Y144860D01*
X264680Y144916D01*
X265342Y145358D01*
X265784Y146020D01*
X265840Y146300D01*
D02*
G37*
G36*
X263400D02*
X261960D01*
X262016Y146020D01*
X262458Y145358D01*
X263120Y144916D01*
X263400Y144860D01*
Y146300D01*
D02*
G37*
G36*
X255440Y146200D02*
X254000D01*
Y144760D01*
X254280Y144816D01*
X254942Y145258D01*
X255384Y145920D01*
X255440Y146200D01*
D02*
G37*
G36*
X253000D02*
X251560D01*
X251616Y145920D01*
X252058Y145258D01*
X252720Y144816D01*
X253000Y144760D01*
Y146200D01*
D02*
G37*
G36*
X245440D02*
X244000D01*
Y144760D01*
X244280Y144816D01*
X244942Y145258D01*
X245384Y145920D01*
X245440Y146200D01*
D02*
G37*
G36*
X243000D02*
X241560D01*
X241616Y145920D01*
X242058Y145258D01*
X242720Y144816D01*
X243000Y144760D01*
Y146200D01*
D02*
G37*
G36*
X235240D02*
X233800D01*
Y144760D01*
X234080Y144816D01*
X234742Y145258D01*
X235184Y145920D01*
X235240Y146200D01*
D02*
G37*
G36*
X232800D02*
X231360D01*
X231416Y145920D01*
X231858Y145258D01*
X232520Y144816D01*
X232800Y144760D01*
Y146200D01*
D02*
G37*
G36*
X204640Y146100D02*
X203200D01*
Y144660D01*
X203480Y144716D01*
X204142Y145158D01*
X204584Y145820D01*
X204640Y146100D01*
D02*
G37*
G36*
X202200D02*
X200760D01*
X200816Y145820D01*
X201258Y145158D01*
X201920Y144716D01*
X202200Y144660D01*
Y146100D01*
D02*
G37*
G36*
X194440D02*
X193000D01*
Y144660D01*
X193280Y144716D01*
X193942Y145158D01*
X194384Y145820D01*
X194440Y146100D01*
D02*
G37*
G36*
X192000D02*
X190560D01*
X190616Y145820D01*
X191058Y145158D01*
X191720Y144716D01*
X192000Y144660D01*
Y146100D01*
D02*
G37*
G36*
X184340Y145900D02*
X182900D01*
Y144460D01*
X183180Y144516D01*
X183842Y144958D01*
X184284Y145620D01*
X184340Y145900D01*
D02*
G37*
G36*
X181900D02*
X180460D01*
X180516Y145620D01*
X180958Y144958D01*
X181620Y144516D01*
X181900Y144460D01*
Y145900D01*
D02*
G37*
G36*
X225040Y145700D02*
X223600D01*
Y144260D01*
X223880Y144316D01*
X224542Y144758D01*
X224984Y145420D01*
X225040Y145700D01*
D02*
G37*
G36*
X222600D02*
X221160D01*
X221216Y145420D01*
X221658Y144758D01*
X222320Y144316D01*
X222600Y144260D01*
Y145700D01*
D02*
G37*
G36*
X214640D02*
X213200D01*
Y144260D01*
X213480Y144316D01*
X214142Y144758D01*
X214584Y145420D01*
X214640Y145700D01*
D02*
G37*
G36*
X212200D02*
X210760D01*
X210816Y145420D01*
X211258Y144758D01*
X211920Y144316D01*
X212200Y144260D01*
Y145700D01*
D02*
G37*
G36*
X88800Y146030D02*
Y143800D01*
X91030D01*
X91000Y144024D01*
X90721Y144698D01*
X90277Y145277D01*
X89698Y145721D01*
X89024Y146000D01*
X88800Y146030D01*
D02*
G37*
G36*
X87800D02*
X87576Y146000D01*
X86902Y145721D01*
X86323Y145277D01*
X85879Y144698D01*
X85600Y144024D01*
X85570Y143800D01*
X87800D01*
Y146030D01*
D02*
G37*
G36*
X80900D02*
Y143800D01*
X83130D01*
X83100Y144024D01*
X82821Y144698D01*
X82377Y145277D01*
X81798Y145721D01*
X81124Y146000D01*
X80900Y146030D01*
D02*
G37*
G36*
X79900D02*
X79676Y146000D01*
X79002Y145721D01*
X78423Y145277D01*
X77979Y144698D01*
X77700Y144024D01*
X77670Y143800D01*
X79900D01*
Y146030D01*
D02*
G37*
G36*
X69200Y145876D02*
Y143719D01*
X71358D01*
X71330Y143924D01*
X71058Y144580D01*
X70626Y145145D01*
X70062Y145577D01*
X69405Y145849D01*
X69200Y145876D01*
D02*
G37*
G36*
X61400D02*
Y143719D01*
X63557D01*
X63530Y143924D01*
X63258Y144580D01*
X62826Y145145D01*
X62262Y145577D01*
X61605Y145849D01*
X61400Y145876D01*
D02*
G37*
G36*
X68200D02*
X67995Y145849D01*
X67338Y145577D01*
X66774Y145145D01*
X66342Y144580D01*
X66070Y143924D01*
X66043Y143719D01*
X68200D01*
Y145876D01*
D02*
G37*
G36*
X60400D02*
X60195Y145849D01*
X59538Y145577D01*
X58974Y145145D01*
X58542Y144580D01*
X58270Y143924D01*
X58242Y143719D01*
X60400D01*
Y145876D01*
D02*
G37*
G36*
X318500Y145858D02*
Y143700D01*
X320657D01*
X320631Y143905D01*
X320358Y144562D01*
X319926Y145126D01*
X319362Y145558D01*
X318705Y145831D01*
X318500Y145858D01*
D02*
G37*
G36*
X317500D02*
X317295Y145831D01*
X316638Y145558D01*
X316074Y145126D01*
X315642Y144562D01*
X315370Y143905D01*
X315342Y143700D01*
X317500D01*
Y145858D01*
D02*
G37*
G36*
X310700D02*
Y143700D01*
X312858D01*
X312830Y143905D01*
X312558Y144562D01*
X312126Y145126D01*
X311562Y145558D01*
X310905Y145831D01*
X310700Y145858D01*
D02*
G37*
G36*
X309700D02*
X309495Y145831D01*
X308838Y145558D01*
X308274Y145126D01*
X307842Y144562D01*
X307570Y143905D01*
X307542Y143700D01*
X309700D01*
Y145858D01*
D02*
G37*
G36*
X300900Y145930D02*
Y143700D01*
X303130D01*
X303100Y143924D01*
X302821Y144598D01*
X302377Y145177D01*
X301798Y145621D01*
X301123Y145900D01*
X300900Y145930D01*
D02*
G37*
G36*
X299900D02*
X299676Y145900D01*
X299002Y145621D01*
X298423Y145177D01*
X297979Y144598D01*
X297700Y143924D01*
X297670Y143700D01*
X299900D01*
Y145930D01*
D02*
G37*
G36*
X293000D02*
Y143700D01*
X295230D01*
X295200Y143924D01*
X294921Y144598D01*
X294477Y145177D01*
X293898Y145621D01*
X293224Y145900D01*
X293000Y145930D01*
D02*
G37*
G36*
X292000D02*
X291776Y145900D01*
X291102Y145621D01*
X290523Y145177D01*
X290079Y144598D01*
X289800Y143924D01*
X289770Y143700D01*
X292000D01*
Y145930D01*
D02*
G37*
G36*
X91030Y142800D02*
X88800D01*
Y140570D01*
X89024Y140600D01*
X89698Y140879D01*
X90277Y141323D01*
X90721Y141902D01*
X91000Y142576D01*
X91030Y142800D01*
D02*
G37*
G36*
X87800D02*
X85570D01*
X85600Y142576D01*
X85879Y141902D01*
X86323Y141323D01*
X86902Y140879D01*
X87576Y140600D01*
X87800Y140570D01*
Y142800D01*
D02*
G37*
G36*
X83130D02*
X80900D01*
Y140570D01*
X81124Y140600D01*
X81798Y140879D01*
X82377Y141323D01*
X82821Y141902D01*
X83100Y142576D01*
X83130Y142800D01*
D02*
G37*
G36*
X79900D02*
X77670D01*
X77700Y142576D01*
X77979Y141902D01*
X78423Y141323D01*
X79002Y140879D01*
X79676Y140600D01*
X79900Y140570D01*
Y142800D01*
D02*
G37*
G36*
X71358Y142719D02*
X69200D01*
Y140561D01*
X69405Y140588D01*
X70062Y140860D01*
X70626Y141293D01*
X71058Y141857D01*
X71330Y142514D01*
X71358Y142719D01*
D02*
G37*
G36*
X63557D02*
X61400D01*
Y140561D01*
X61605Y140588D01*
X62262Y140860D01*
X62826Y141293D01*
X63258Y141857D01*
X63530Y142514D01*
X63557Y142719D01*
D02*
G37*
G36*
X68200D02*
X66043D01*
X66070Y142514D01*
X66342Y141857D01*
X66774Y141293D01*
X67338Y140860D01*
X67995Y140588D01*
X68200Y140561D01*
Y142719D01*
D02*
G37*
G36*
X60400D02*
X58242D01*
X58270Y142514D01*
X58542Y141857D01*
X58974Y141293D01*
X59538Y140860D01*
X60195Y140588D01*
X60400Y140561D01*
Y142719D01*
D02*
G37*
G36*
X320657Y142700D02*
X318500D01*
Y140542D01*
X318705Y140569D01*
X319362Y140842D01*
X319926Y141274D01*
X320358Y141838D01*
X320631Y142495D01*
X320657Y142700D01*
D02*
G37*
G36*
X317500D02*
X315342D01*
X315370Y142495D01*
X315642Y141838D01*
X316074Y141274D01*
X316638Y140842D01*
X317295Y140569D01*
X317500Y140542D01*
Y142700D01*
D02*
G37*
G36*
X312858D02*
X310700D01*
Y140542D01*
X310905Y140569D01*
X311562Y140842D01*
X312126Y141274D01*
X312558Y141838D01*
X312830Y142495D01*
X312858Y142700D01*
D02*
G37*
G36*
X309700D02*
X307542D01*
X307570Y142495D01*
X307842Y141838D01*
X308274Y141274D01*
X308838Y140842D01*
X309495Y140569D01*
X309700Y140542D01*
Y142700D01*
D02*
G37*
G36*
X303130D02*
X300900D01*
Y140470D01*
X301123Y140500D01*
X301798Y140779D01*
X302377Y141223D01*
X302821Y141802D01*
X303100Y142476D01*
X303130Y142700D01*
D02*
G37*
G36*
X299900D02*
X297670D01*
X297700Y142476D01*
X297979Y141802D01*
X298423Y141223D01*
X299002Y140779D01*
X299676Y140500D01*
X299900Y140470D01*
Y142700D01*
D02*
G37*
G36*
X295230D02*
X293000D01*
Y140470D01*
X293224Y140500D01*
X293898Y140779D01*
X294477Y141223D01*
X294921Y141802D01*
X295200Y142476D01*
X295230Y142700D01*
D02*
G37*
G36*
X292000D02*
X289770D01*
X289800Y142476D01*
X290079Y141802D01*
X290523Y141223D01*
X291102Y140779D01*
X291776Y140500D01*
X292000Y140470D01*
Y142700D01*
D02*
G37*
G36*
X88800Y138130D02*
Y135900D01*
X91030D01*
X91000Y136124D01*
X90721Y136798D01*
X90277Y137377D01*
X89698Y137821D01*
X89024Y138100D01*
X88800Y138130D01*
D02*
G37*
G36*
X87800D02*
X87576Y138100D01*
X86902Y137821D01*
X86323Y137377D01*
X85879Y136798D01*
X85600Y136124D01*
X85570Y135900D01*
X87800D01*
Y138130D01*
D02*
G37*
G36*
X80900D02*
Y135900D01*
X83130D01*
X83100Y136124D01*
X82821Y136798D01*
X82377Y137377D01*
X81798Y137821D01*
X81124Y138100D01*
X80900Y138130D01*
D02*
G37*
G36*
X79900D02*
X79676Y138100D01*
X79002Y137821D01*
X78423Y137377D01*
X77979Y136798D01*
X77700Y136124D01*
X77670Y135900D01*
X79900D01*
Y138130D01*
D02*
G37*
G36*
X69100Y137976D02*
Y135819D01*
X71258D01*
X71231Y136024D01*
X70959Y136680D01*
X70526Y137245D01*
X69962Y137677D01*
X69305Y137949D01*
X69100Y137976D01*
D02*
G37*
G36*
X61300D02*
Y135819D01*
X63458D01*
X63431Y136024D01*
X63159Y136680D01*
X62726Y137245D01*
X62162Y137677D01*
X61505Y137949D01*
X61300Y137976D01*
D02*
G37*
G36*
X68100D02*
X67895Y137949D01*
X67238Y137677D01*
X66674Y137245D01*
X66242Y136680D01*
X65970Y136024D01*
X65943Y135819D01*
X68100D01*
Y137976D01*
D02*
G37*
G36*
X60300D02*
X60095Y137949D01*
X59438Y137677D01*
X58874Y137245D01*
X58442Y136680D01*
X58170Y136024D01*
X58143Y135819D01*
X60300D01*
Y137976D01*
D02*
G37*
G36*
X318500Y137958D02*
Y135800D01*
X320657D01*
X320631Y136005D01*
X320358Y136662D01*
X319926Y137226D01*
X319362Y137658D01*
X318705Y137931D01*
X318500Y137958D01*
D02*
G37*
G36*
X317500D02*
X317295Y137931D01*
X316638Y137658D01*
X316074Y137226D01*
X315642Y136662D01*
X315370Y136005D01*
X315342Y135800D01*
X317500D01*
Y137958D01*
D02*
G37*
G36*
X310700D02*
Y135800D01*
X312858D01*
X312830Y136005D01*
X312558Y136662D01*
X312126Y137226D01*
X311562Y137658D01*
X310905Y137931D01*
X310700Y137958D01*
D02*
G37*
G36*
X309700D02*
X309495Y137931D01*
X308838Y137658D01*
X308274Y137226D01*
X307842Y136662D01*
X307570Y136005D01*
X307542Y135800D01*
X309700D01*
Y137958D01*
D02*
G37*
G36*
X300900Y138030D02*
Y135800D01*
X303130D01*
X303100Y136024D01*
X302821Y136698D01*
X302377Y137277D01*
X301798Y137721D01*
X301123Y138000D01*
X300900Y138030D01*
D02*
G37*
G36*
X299900D02*
X299676Y138000D01*
X299002Y137721D01*
X298423Y137277D01*
X297979Y136698D01*
X297700Y136024D01*
X297670Y135800D01*
X299900D01*
Y138030D01*
D02*
G37*
G36*
X293000D02*
Y135800D01*
X295230D01*
X295200Y136024D01*
X294921Y136698D01*
X294477Y137277D01*
X293898Y137721D01*
X293224Y138000D01*
X293000Y138030D01*
D02*
G37*
G36*
X292000D02*
X291776Y138000D01*
X291102Y137721D01*
X290523Y137277D01*
X290079Y136698D01*
X289800Y136024D01*
X289770Y135800D01*
X292000D01*
Y138030D01*
D02*
G37*
G36*
X91030Y134900D02*
X88800D01*
Y132670D01*
X89024Y132700D01*
X89698Y132979D01*
X90277Y133423D01*
X90721Y134002D01*
X91000Y134676D01*
X91030Y134900D01*
D02*
G37*
G36*
X87800D02*
X85570D01*
X85600Y134676D01*
X85879Y134002D01*
X86323Y133423D01*
X86902Y132979D01*
X87576Y132700D01*
X87800Y132670D01*
Y134900D01*
D02*
G37*
G36*
X83130D02*
X80900D01*
Y132670D01*
X81124Y132700D01*
X81798Y132979D01*
X82377Y133423D01*
X82821Y134002D01*
X83100Y134676D01*
X83130Y134900D01*
D02*
G37*
G36*
X79900D02*
X77670D01*
X77700Y134676D01*
X77979Y134002D01*
X78423Y133423D01*
X79002Y132979D01*
X79676Y132700D01*
X79900Y132670D01*
Y134900D01*
D02*
G37*
G36*
X71258Y134819D02*
X69100D01*
Y132661D01*
X69305Y132688D01*
X69962Y132960D01*
X70526Y133393D01*
X70959Y133957D01*
X71231Y134614D01*
X71258Y134819D01*
D02*
G37*
G36*
X63458D02*
X61300D01*
Y132661D01*
X61505Y132688D01*
X62162Y132960D01*
X62726Y133393D01*
X63159Y133957D01*
X63431Y134614D01*
X63458Y134819D01*
D02*
G37*
G36*
X68100D02*
X65943D01*
X65970Y134614D01*
X66242Y133957D01*
X66674Y133393D01*
X67238Y132960D01*
X67895Y132688D01*
X68100Y132661D01*
Y134819D01*
D02*
G37*
G36*
X60300D02*
X58143D01*
X58170Y134614D01*
X58442Y133957D01*
X58874Y133393D01*
X59438Y132960D01*
X60095Y132688D01*
X60300Y132661D01*
Y134819D01*
D02*
G37*
G36*
X320657Y134800D02*
X318500D01*
Y132642D01*
X318705Y132669D01*
X319362Y132942D01*
X319926Y133374D01*
X320358Y133938D01*
X320631Y134595D01*
X320657Y134800D01*
D02*
G37*
G36*
X317500D02*
X315342D01*
X315370Y134595D01*
X315642Y133938D01*
X316074Y133374D01*
X316638Y132942D01*
X317295Y132669D01*
X317500Y132642D01*
Y134800D01*
D02*
G37*
G36*
X312858D02*
X310700D01*
Y132642D01*
X310905Y132669D01*
X311562Y132942D01*
X312126Y133374D01*
X312558Y133938D01*
X312830Y134595D01*
X312858Y134800D01*
D02*
G37*
G36*
X309700D02*
X307542D01*
X307570Y134595D01*
X307842Y133938D01*
X308274Y133374D01*
X308838Y132942D01*
X309495Y132669D01*
X309700Y132642D01*
Y134800D01*
D02*
G37*
G36*
X303130D02*
X300900D01*
Y132570D01*
X301123Y132600D01*
X301798Y132879D01*
X302377Y133323D01*
X302821Y133902D01*
X303100Y134576D01*
X303130Y134800D01*
D02*
G37*
G36*
X299900D02*
X297670D01*
X297700Y134576D01*
X297979Y133902D01*
X298423Y133323D01*
X299002Y132879D01*
X299676Y132600D01*
X299900Y132570D01*
Y134800D01*
D02*
G37*
G36*
X295230D02*
X293000D01*
Y132570D01*
X293224Y132600D01*
X293898Y132879D01*
X294477Y133323D01*
X294921Y133902D01*
X295200Y134576D01*
X295230Y134800D01*
D02*
G37*
G36*
X292000D02*
X289770D01*
X289800Y134576D01*
X290079Y133902D01*
X290523Y133323D01*
X291102Y132879D01*
X291776Y132600D01*
X292000Y132570D01*
Y134800D01*
D02*
G37*
G36*
X88800Y130330D02*
Y128100D01*
X91030D01*
X91000Y128324D01*
X90721Y128998D01*
X90277Y129577D01*
X89698Y130021D01*
X89024Y130300D01*
X88800Y130330D01*
D02*
G37*
G36*
X87800D02*
X87576Y130300D01*
X86902Y130021D01*
X86323Y129577D01*
X85879Y128998D01*
X85600Y128324D01*
X85570Y128100D01*
X87800D01*
Y130330D01*
D02*
G37*
G36*
X80900D02*
Y128100D01*
X83130D01*
X83100Y128324D01*
X82821Y128998D01*
X82377Y129577D01*
X81798Y130021D01*
X81124Y130300D01*
X80900Y130330D01*
D02*
G37*
G36*
X79900D02*
X79676Y130300D01*
X79002Y130021D01*
X78423Y129577D01*
X77979Y128998D01*
X77700Y128324D01*
X77670Y128100D01*
X79900D01*
Y130330D01*
D02*
G37*
G36*
X300900Y130230D02*
Y128000D01*
X303130D01*
X303100Y128224D01*
X302821Y128898D01*
X302377Y129477D01*
X301798Y129921D01*
X301123Y130200D01*
X300900Y130230D01*
D02*
G37*
G36*
X299900D02*
X299676Y130200D01*
X299002Y129921D01*
X298423Y129477D01*
X297979Y128898D01*
X297700Y128224D01*
X297670Y128000D01*
X299900D01*
Y130230D01*
D02*
G37*
G36*
X293000D02*
Y128000D01*
X295230D01*
X295200Y128224D01*
X294921Y128898D01*
X294477Y129477D01*
X293898Y129921D01*
X293224Y130200D01*
X293000Y130230D01*
D02*
G37*
G36*
X292000D02*
X291776Y130200D01*
X291102Y129921D01*
X290523Y129477D01*
X290079Y128898D01*
X289800Y128224D01*
X289770Y128000D01*
X292000D01*
Y130230D01*
D02*
G37*
G36*
X69100Y130076D02*
Y127919D01*
X71258D01*
X71231Y128124D01*
X70959Y128780D01*
X70526Y129345D01*
X69962Y129777D01*
X69305Y130049D01*
X69100Y130076D01*
D02*
G37*
G36*
X61300D02*
Y127919D01*
X63458D01*
X63431Y128124D01*
X63159Y128780D01*
X62726Y129345D01*
X62162Y129777D01*
X61505Y130049D01*
X61300Y130076D01*
D02*
G37*
G36*
X68100D02*
X67895Y130049D01*
X67238Y129777D01*
X66674Y129345D01*
X66242Y128780D01*
X65970Y128124D01*
X65943Y127919D01*
X68100D01*
Y130076D01*
D02*
G37*
G36*
X60300D02*
X60095Y130049D01*
X59438Y129777D01*
X58874Y129345D01*
X58442Y128780D01*
X58170Y128124D01*
X58143Y127919D01*
X60300D01*
Y130076D01*
D02*
G37*
G36*
X318500Y130058D02*
Y127900D01*
X320657D01*
X320631Y128105D01*
X320358Y128762D01*
X319926Y129326D01*
X319362Y129758D01*
X318705Y130031D01*
X318500Y130058D01*
D02*
G37*
G36*
X317500D02*
X317295Y130031D01*
X316638Y129758D01*
X316074Y129326D01*
X315642Y128762D01*
X315370Y128105D01*
X315342Y127900D01*
X317500D01*
Y130058D01*
D02*
G37*
G36*
X310700D02*
Y127900D01*
X312858D01*
X312830Y128105D01*
X312558Y128762D01*
X312126Y129326D01*
X311562Y129758D01*
X310905Y130031D01*
X310700Y130058D01*
D02*
G37*
G36*
X309700D02*
X309495Y130031D01*
X308838Y129758D01*
X308274Y129326D01*
X307842Y128762D01*
X307570Y128105D01*
X307542Y127900D01*
X309700D01*
Y130058D01*
D02*
G37*
G36*
X91030Y127100D02*
X88800D01*
Y124870D01*
X89024Y124900D01*
X89698Y125179D01*
X90277Y125623D01*
X90721Y126202D01*
X91000Y126876D01*
X91030Y127100D01*
D02*
G37*
G36*
X87800D02*
X85570D01*
X85600Y126876D01*
X85879Y126202D01*
X86323Y125623D01*
X86902Y125179D01*
X87576Y124900D01*
X87800Y124870D01*
Y127100D01*
D02*
G37*
G36*
X83130D02*
X80900D01*
Y124870D01*
X81124Y124900D01*
X81798Y125179D01*
X82377Y125623D01*
X82821Y126202D01*
X83100Y126876D01*
X83130Y127100D01*
D02*
G37*
G36*
X79900D02*
X77670D01*
X77700Y126876D01*
X77979Y126202D01*
X78423Y125623D01*
X79002Y125179D01*
X79676Y124900D01*
X79900Y124870D01*
Y127100D01*
D02*
G37*
G36*
X303130Y127000D02*
X300900D01*
Y124770D01*
X301123Y124800D01*
X301798Y125079D01*
X302377Y125523D01*
X302821Y126102D01*
X303100Y126776D01*
X303130Y127000D01*
D02*
G37*
G36*
X299900D02*
X297670D01*
X297700Y126776D01*
X297979Y126102D01*
X298423Y125523D01*
X299002Y125079D01*
X299676Y124800D01*
X299900Y124770D01*
Y127000D01*
D02*
G37*
G36*
X295230D02*
X293000D01*
Y124770D01*
X293224Y124800D01*
X293898Y125079D01*
X294477Y125523D01*
X294921Y126102D01*
X295200Y126776D01*
X295230Y127000D01*
D02*
G37*
G36*
X292000D02*
X289770D01*
X289800Y126776D01*
X290079Y126102D01*
X290523Y125523D01*
X291102Y125079D01*
X291776Y124800D01*
X292000Y124770D01*
Y127000D01*
D02*
G37*
G36*
X71258Y126919D02*
X69100D01*
Y124761D01*
X69305Y124788D01*
X69962Y125060D01*
X70526Y125493D01*
X70959Y126057D01*
X71231Y126714D01*
X71258Y126919D01*
D02*
G37*
G36*
X63458D02*
X61300D01*
Y124761D01*
X61505Y124788D01*
X62162Y125060D01*
X62726Y125493D01*
X63159Y126057D01*
X63431Y126714D01*
X63458Y126919D01*
D02*
G37*
G36*
X68100D02*
X65943D01*
X65970Y126714D01*
X66242Y126057D01*
X66674Y125493D01*
X67238Y125060D01*
X67895Y124788D01*
X68100Y124761D01*
Y126919D01*
D02*
G37*
G36*
X60300D02*
X58143D01*
X58170Y126714D01*
X58442Y126057D01*
X58874Y125493D01*
X59438Y125060D01*
X60095Y124788D01*
X60300Y124761D01*
Y126919D01*
D02*
G37*
G36*
X320657Y126900D02*
X318500D01*
Y124742D01*
X318705Y124769D01*
X319362Y125042D01*
X319926Y125474D01*
X320358Y126038D01*
X320631Y126695D01*
X320657Y126900D01*
D02*
G37*
G36*
X317500D02*
X315342D01*
X315370Y126695D01*
X315642Y126038D01*
X316074Y125474D01*
X316638Y125042D01*
X317295Y124769D01*
X317500Y124742D01*
Y126900D01*
D02*
G37*
G36*
X312858D02*
X310700D01*
Y124742D01*
X310905Y124769D01*
X311562Y125042D01*
X312126Y125474D01*
X312558Y126038D01*
X312830Y126695D01*
X312858Y126900D01*
D02*
G37*
G36*
X309700D02*
X307542D01*
X307570Y126695D01*
X307842Y126038D01*
X308274Y125474D01*
X308838Y125042D01*
X309495Y124769D01*
X309700Y124742D01*
Y126900D01*
D02*
G37*
G36*
X88800Y122330D02*
Y120100D01*
X91030D01*
X91000Y120324D01*
X90721Y120998D01*
X90277Y121577D01*
X89698Y122021D01*
X89024Y122300D01*
X88800Y122330D01*
D02*
G37*
G36*
X87800D02*
X87576Y122300D01*
X86902Y122021D01*
X86323Y121577D01*
X85879Y120998D01*
X85600Y120324D01*
X85570Y120100D01*
X87800D01*
Y122330D01*
D02*
G37*
G36*
X80900D02*
Y120100D01*
X83130D01*
X83100Y120324D01*
X82821Y120998D01*
X82377Y121577D01*
X81798Y122021D01*
X81124Y122300D01*
X80900Y122330D01*
D02*
G37*
G36*
X79900D02*
X79676Y122300D01*
X79002Y122021D01*
X78423Y121577D01*
X77979Y120998D01*
X77700Y120324D01*
X77670Y120100D01*
X79900D01*
Y122330D01*
D02*
G37*
G36*
X69200Y122176D02*
Y120019D01*
X71358D01*
X71330Y120224D01*
X71058Y120880D01*
X70626Y121445D01*
X70062Y121877D01*
X69405Y122149D01*
X69200Y122176D01*
D02*
G37*
G36*
X61400D02*
Y120019D01*
X63557D01*
X63530Y120224D01*
X63258Y120880D01*
X62826Y121445D01*
X62262Y121877D01*
X61605Y122149D01*
X61400Y122176D01*
D02*
G37*
G36*
X68200D02*
X67995Y122149D01*
X67338Y121877D01*
X66774Y121445D01*
X66342Y120880D01*
X66070Y120224D01*
X66043Y120019D01*
X68200D01*
Y122176D01*
D02*
G37*
G36*
X60400D02*
X60195Y122149D01*
X59538Y121877D01*
X58974Y121445D01*
X58542Y120880D01*
X58270Y120224D01*
X58242Y120019D01*
X60400D01*
Y122176D01*
D02*
G37*
G36*
X318500Y122158D02*
Y120000D01*
X320657D01*
X320631Y120205D01*
X320358Y120862D01*
X319926Y121426D01*
X319362Y121858D01*
X318705Y122131D01*
X318500Y122158D01*
D02*
G37*
G36*
X317500D02*
X317295Y122131D01*
X316638Y121858D01*
X316074Y121426D01*
X315642Y120862D01*
X315370Y120205D01*
X315342Y120000D01*
X317500D01*
Y122158D01*
D02*
G37*
G36*
X310700D02*
Y120000D01*
X312858D01*
X312830Y120205D01*
X312558Y120862D01*
X312126Y121426D01*
X311562Y121858D01*
X310905Y122131D01*
X310700Y122158D01*
D02*
G37*
G36*
X309700D02*
X309495Y122131D01*
X308838Y121858D01*
X308274Y121426D01*
X307842Y120862D01*
X307570Y120205D01*
X307542Y120000D01*
X309700D01*
Y122158D01*
D02*
G37*
G36*
X300900Y122230D02*
Y120000D01*
X303130D01*
X303100Y120224D01*
X302821Y120898D01*
X302377Y121477D01*
X301798Y121921D01*
X301123Y122200D01*
X300900Y122230D01*
D02*
G37*
G36*
X299900D02*
X299676Y122200D01*
X299002Y121921D01*
X298423Y121477D01*
X297979Y120898D01*
X297700Y120224D01*
X297670Y120000D01*
X299900D01*
Y122230D01*
D02*
G37*
G36*
X293000D02*
Y120000D01*
X295230D01*
X295200Y120224D01*
X294921Y120898D01*
X294477Y121477D01*
X293898Y121921D01*
X293224Y122200D01*
X293000Y122230D01*
D02*
G37*
G36*
X292000D02*
X291776Y122200D01*
X291102Y121921D01*
X290523Y121477D01*
X290079Y120898D01*
X289800Y120224D01*
X289770Y120000D01*
X292000D01*
Y122230D01*
D02*
G37*
G36*
X91030Y119100D02*
X88800D01*
Y116870D01*
X89024Y116900D01*
X89698Y117179D01*
X90277Y117623D01*
X90721Y118202D01*
X91000Y118876D01*
X91030Y119100D01*
D02*
G37*
G36*
X87800D02*
X85570D01*
X85600Y118876D01*
X85879Y118202D01*
X86323Y117623D01*
X86902Y117179D01*
X87576Y116900D01*
X87800Y116870D01*
Y119100D01*
D02*
G37*
G36*
X83130D02*
X80900D01*
Y116870D01*
X81124Y116900D01*
X81798Y117179D01*
X82377Y117623D01*
X82821Y118202D01*
X83100Y118876D01*
X83130Y119100D01*
D02*
G37*
G36*
X79900D02*
X77670D01*
X77700Y118876D01*
X77979Y118202D01*
X78423Y117623D01*
X79002Y117179D01*
X79676Y116900D01*
X79900Y116870D01*
Y119100D01*
D02*
G37*
G36*
X71358Y119019D02*
X69200D01*
Y116861D01*
X69405Y116888D01*
X70062Y117160D01*
X70626Y117593D01*
X71058Y118157D01*
X71330Y118814D01*
X71358Y119019D01*
D02*
G37*
G36*
X63557D02*
X61400D01*
Y116861D01*
X61605Y116888D01*
X62262Y117160D01*
X62826Y117593D01*
X63258Y118157D01*
X63530Y118814D01*
X63557Y119019D01*
D02*
G37*
G36*
X68200D02*
X66043D01*
X66070Y118814D01*
X66342Y118157D01*
X66774Y117593D01*
X67338Y117160D01*
X67995Y116888D01*
X68200Y116861D01*
Y119019D01*
D02*
G37*
G36*
X60400D02*
X58242D01*
X58270Y118814D01*
X58542Y118157D01*
X58974Y117593D01*
X59538Y117160D01*
X60195Y116888D01*
X60400Y116861D01*
Y119019D01*
D02*
G37*
G36*
X320657Y119000D02*
X318500D01*
Y116842D01*
X318705Y116869D01*
X319362Y117142D01*
X319926Y117574D01*
X320358Y118138D01*
X320631Y118795D01*
X320657Y119000D01*
D02*
G37*
G36*
X317500D02*
X315342D01*
X315370Y118795D01*
X315642Y118138D01*
X316074Y117574D01*
X316638Y117142D01*
X317295Y116869D01*
X317500Y116842D01*
Y119000D01*
D02*
G37*
G36*
X312858D02*
X310700D01*
Y116842D01*
X310905Y116869D01*
X311562Y117142D01*
X312126Y117574D01*
X312558Y118138D01*
X312830Y118795D01*
X312858Y119000D01*
D02*
G37*
G36*
X309700D02*
X307542D01*
X307570Y118795D01*
X307842Y118138D01*
X308274Y117574D01*
X308838Y117142D01*
X309495Y116869D01*
X309700Y116842D01*
Y119000D01*
D02*
G37*
G36*
X303130D02*
X300900D01*
Y116770D01*
X301123Y116800D01*
X301798Y117079D01*
X302377Y117523D01*
X302821Y118102D01*
X303100Y118776D01*
X303130Y119000D01*
D02*
G37*
G36*
X299900D02*
X297670D01*
X297700Y118776D01*
X297979Y118102D01*
X298423Y117523D01*
X299002Y117079D01*
X299676Y116800D01*
X299900Y116770D01*
Y119000D01*
D02*
G37*
G36*
X295230D02*
X293000D01*
Y116770D01*
X293224Y116800D01*
X293898Y117079D01*
X294477Y117523D01*
X294921Y118102D01*
X295200Y118776D01*
X295230Y119000D01*
D02*
G37*
G36*
X292000D02*
X289770D01*
X289800Y118776D01*
X290079Y118102D01*
X290523Y117523D01*
X291102Y117079D01*
X291776Y116800D01*
X292000Y116770D01*
Y119000D01*
D02*
G37*
G36*
X88800Y114530D02*
Y112300D01*
X91030D01*
X91000Y112524D01*
X90721Y113198D01*
X90277Y113777D01*
X89698Y114221D01*
X89024Y114500D01*
X88800Y114530D01*
D02*
G37*
G36*
X87800D02*
X87576Y114500D01*
X86902Y114221D01*
X86323Y113777D01*
X85879Y113198D01*
X85600Y112524D01*
X85570Y112300D01*
X87800D01*
Y114530D01*
D02*
G37*
G36*
X80900D02*
Y112300D01*
X83130D01*
X83100Y112524D01*
X82821Y113198D01*
X82377Y113777D01*
X81798Y114221D01*
X81124Y114500D01*
X80900Y114530D01*
D02*
G37*
G36*
X79900D02*
X79676Y114500D01*
X79002Y114221D01*
X78423Y113777D01*
X77979Y113198D01*
X77700Y112524D01*
X77670Y112300D01*
X79900D01*
Y114530D01*
D02*
G37*
G36*
X300900Y114430D02*
Y112200D01*
X303130D01*
X303100Y112424D01*
X302821Y113098D01*
X302377Y113677D01*
X301798Y114121D01*
X301123Y114400D01*
X300900Y114430D01*
D02*
G37*
G36*
X299900D02*
X299676Y114400D01*
X299002Y114121D01*
X298423Y113677D01*
X297979Y113098D01*
X297700Y112424D01*
X297670Y112200D01*
X299900D01*
Y114430D01*
D02*
G37*
G36*
X293000D02*
Y112200D01*
X295230D01*
X295200Y112424D01*
X294921Y113098D01*
X294477Y113677D01*
X293898Y114121D01*
X293224Y114400D01*
X293000Y114430D01*
D02*
G37*
G36*
X292000D02*
X291776Y114400D01*
X291102Y114121D01*
X290523Y113677D01*
X290079Y113098D01*
X289800Y112424D01*
X289770Y112200D01*
X292000D01*
Y114430D01*
D02*
G37*
G36*
X69200Y114276D02*
Y112119D01*
X71358D01*
X71330Y112324D01*
X71058Y112980D01*
X70626Y113545D01*
X70062Y113977D01*
X69405Y114249D01*
X69200Y114276D01*
D02*
G37*
G36*
X61400D02*
Y112119D01*
X63557D01*
X63530Y112324D01*
X63258Y112980D01*
X62826Y113545D01*
X62262Y113977D01*
X61605Y114249D01*
X61400Y114276D01*
D02*
G37*
G36*
X68200D02*
X67995Y114249D01*
X67338Y113977D01*
X66774Y113545D01*
X66342Y112980D01*
X66070Y112324D01*
X66043Y112119D01*
X68200D01*
Y114276D01*
D02*
G37*
G36*
X60400D02*
X60195Y114249D01*
X59538Y113977D01*
X58974Y113545D01*
X58542Y112980D01*
X58270Y112324D01*
X58242Y112119D01*
X60400D01*
Y114276D01*
D02*
G37*
G36*
X318500Y114258D02*
Y112100D01*
X320657D01*
X320631Y112305D01*
X320358Y112962D01*
X319926Y113526D01*
X319362Y113958D01*
X318705Y114231D01*
X318500Y114258D01*
D02*
G37*
G36*
X317500D02*
X317295Y114231D01*
X316638Y113958D01*
X316074Y113526D01*
X315642Y112962D01*
X315370Y112305D01*
X315342Y112100D01*
X317500D01*
Y114258D01*
D02*
G37*
G36*
X310700D02*
Y112100D01*
X312858D01*
X312830Y112305D01*
X312558Y112962D01*
X312126Y113526D01*
X311562Y113958D01*
X310905Y114231D01*
X310700Y114258D01*
D02*
G37*
G36*
X309700D02*
X309495Y114231D01*
X308838Y113958D01*
X308274Y113526D01*
X307842Y112962D01*
X307570Y112305D01*
X307542Y112100D01*
X309700D01*
Y114258D01*
D02*
G37*
G36*
X91030Y111300D02*
X88800D01*
Y109070D01*
X89024Y109100D01*
X89698Y109379D01*
X90277Y109823D01*
X90721Y110402D01*
X91000Y111076D01*
X91030Y111300D01*
D02*
G37*
G36*
X87800D02*
X85570D01*
X85600Y111076D01*
X85879Y110402D01*
X86323Y109823D01*
X86902Y109379D01*
X87576Y109100D01*
X87800Y109070D01*
Y111300D01*
D02*
G37*
G36*
X83130D02*
X80900D01*
Y109070D01*
X81124Y109100D01*
X81798Y109379D01*
X82377Y109823D01*
X82821Y110402D01*
X83100Y111076D01*
X83130Y111300D01*
D02*
G37*
G36*
X79900D02*
X77670D01*
X77700Y111076D01*
X77979Y110402D01*
X78423Y109823D01*
X79002Y109379D01*
X79676Y109100D01*
X79900Y109070D01*
Y111300D01*
D02*
G37*
G36*
X303130Y111200D02*
X300900D01*
Y108970D01*
X301123Y109000D01*
X301798Y109279D01*
X302377Y109723D01*
X302821Y110302D01*
X303100Y110976D01*
X303130Y111200D01*
D02*
G37*
G36*
X299900D02*
X297670D01*
X297700Y110976D01*
X297979Y110302D01*
X298423Y109723D01*
X299002Y109279D01*
X299676Y109000D01*
X299900Y108970D01*
Y111200D01*
D02*
G37*
G36*
X295230D02*
X293000D01*
Y108970D01*
X293224Y109000D01*
X293898Y109279D01*
X294477Y109723D01*
X294921Y110302D01*
X295200Y110976D01*
X295230Y111200D01*
D02*
G37*
G36*
X292000D02*
X289770D01*
X289800Y110976D01*
X290079Y110302D01*
X290523Y109723D01*
X291102Y109279D01*
X291776Y109000D01*
X292000Y108970D01*
Y111200D01*
D02*
G37*
G36*
X71358Y111119D02*
X69200D01*
Y108961D01*
X69405Y108988D01*
X70062Y109260D01*
X70626Y109693D01*
X71058Y110257D01*
X71330Y110914D01*
X71358Y111119D01*
D02*
G37*
G36*
X63557D02*
X61400D01*
Y108961D01*
X61605Y108988D01*
X62262Y109260D01*
X62826Y109693D01*
X63258Y110257D01*
X63530Y110914D01*
X63557Y111119D01*
D02*
G37*
G36*
X68200D02*
X66043D01*
X66070Y110914D01*
X66342Y110257D01*
X66774Y109693D01*
X67338Y109260D01*
X67995Y108988D01*
X68200Y108961D01*
Y111119D01*
D02*
G37*
G36*
X60400D02*
X58242D01*
X58270Y110914D01*
X58542Y110257D01*
X58974Y109693D01*
X59538Y109260D01*
X60195Y108988D01*
X60400Y108961D01*
Y111119D01*
D02*
G37*
G36*
X320657Y111100D02*
X318500D01*
Y108942D01*
X318705Y108969D01*
X319362Y109242D01*
X319926Y109674D01*
X320358Y110238D01*
X320631Y110895D01*
X320657Y111100D01*
D02*
G37*
G36*
X317500D02*
X315342D01*
X315370Y110895D01*
X315642Y110238D01*
X316074Y109674D01*
X316638Y109242D01*
X317295Y108969D01*
X317500Y108942D01*
Y111100D01*
D02*
G37*
G36*
X312858D02*
X310700D01*
Y108942D01*
X310905Y108969D01*
X311562Y109242D01*
X312126Y109674D01*
X312558Y110238D01*
X312830Y110895D01*
X312858Y111100D01*
D02*
G37*
G36*
X309700D02*
X307542D01*
X307570Y110895D01*
X307842Y110238D01*
X308274Y109674D01*
X308838Y109242D01*
X309495Y108969D01*
X309700Y108942D01*
Y111100D01*
D02*
G37*
G36*
X61400Y106576D02*
Y104419D01*
X63557D01*
X63530Y104624D01*
X63258Y105280D01*
X62826Y105845D01*
X62262Y106277D01*
X61605Y106549D01*
X61400Y106576D01*
D02*
G37*
G36*
X60400D02*
X60195Y106549D01*
X59538Y106277D01*
X58974Y105845D01*
X58542Y105280D01*
X58270Y104624D01*
X58242Y104419D01*
X60400D01*
Y106576D01*
D02*
G37*
G36*
X88800Y106630D02*
Y104400D01*
X91030D01*
X91000Y104624D01*
X90721Y105298D01*
X90277Y105877D01*
X89698Y106321D01*
X89024Y106600D01*
X88800Y106630D01*
D02*
G37*
G36*
X87800D02*
X87576Y106600D01*
X86902Y106321D01*
X86323Y105877D01*
X85879Y105298D01*
X85600Y104624D01*
X85570Y104400D01*
X87800D01*
Y106630D01*
D02*
G37*
G36*
X80900D02*
Y104400D01*
X83130D01*
X83100Y104624D01*
X82821Y105298D01*
X82377Y105877D01*
X81798Y106321D01*
X81124Y106600D01*
X80900Y106630D01*
D02*
G37*
G36*
X79900D02*
X79676Y106600D01*
X79002Y106321D01*
X78423Y105877D01*
X77979Y105298D01*
X77700Y104624D01*
X77670Y104400D01*
X79900D01*
Y106630D01*
D02*
G37*
G36*
X300900Y106530D02*
Y104300D01*
X303130D01*
X303100Y104524D01*
X302821Y105198D01*
X302377Y105777D01*
X301798Y106221D01*
X301123Y106500D01*
X300900Y106530D01*
D02*
G37*
G36*
X299900D02*
X299676Y106500D01*
X299002Y106221D01*
X298423Y105777D01*
X297979Y105198D01*
X297700Y104524D01*
X297670Y104300D01*
X299900D01*
Y106530D01*
D02*
G37*
G36*
X293000D02*
Y104300D01*
X295230D01*
X295200Y104524D01*
X294921Y105198D01*
X294477Y105777D01*
X293898Y106221D01*
X293224Y106500D01*
X293000Y106530D01*
D02*
G37*
G36*
X292000D02*
X291776Y106500D01*
X291102Y106221D01*
X290523Y105777D01*
X290079Y105198D01*
X289800Y104524D01*
X289770Y104300D01*
X292000D01*
Y106530D01*
D02*
G37*
G36*
X318500Y106358D02*
Y104200D01*
X320657D01*
X320631Y104405D01*
X320358Y105062D01*
X319926Y105626D01*
X319362Y106058D01*
X318705Y106331D01*
X318500Y106358D01*
D02*
G37*
G36*
X317500D02*
X317295Y106331D01*
X316638Y106058D01*
X316074Y105626D01*
X315642Y105062D01*
X315370Y104405D01*
X315342Y104200D01*
X317500D01*
Y106358D01*
D02*
G37*
G36*
X310700D02*
Y104200D01*
X312858D01*
X312830Y104405D01*
X312558Y105062D01*
X312126Y105626D01*
X311562Y106058D01*
X310905Y106331D01*
X310700Y106358D01*
D02*
G37*
G36*
X309700D02*
X309495Y106331D01*
X308838Y106058D01*
X308274Y105626D01*
X307842Y105062D01*
X307570Y104405D01*
X307542Y104200D01*
X309700D01*
Y106358D01*
D02*
G37*
G36*
X200900Y129594D02*
X200022Y129420D01*
X199278Y128922D01*
X198781Y128178D01*
X198606Y127300D01*
Y103662D01*
X198158Y103441D01*
X197996Y103565D01*
X197226Y103884D01*
X196400Y103993D01*
X195574Y103884D01*
X194804Y103565D01*
X194142Y103058D01*
X193635Y102396D01*
X193316Y101626D01*
X193207Y100800D01*
X193316Y99974D01*
X193635Y99204D01*
X194142Y98542D01*
X194804Y98035D01*
X195574Y97716D01*
X196400Y97607D01*
X197226Y97716D01*
X197996Y98035D01*
X198158Y98159D01*
X198606Y97938D01*
Y96300D01*
X198781Y95422D01*
X199278Y94678D01*
X203215Y90741D01*
X203316Y89974D01*
X203635Y89204D01*
X204142Y88542D01*
X204804Y88035D01*
X205574Y87716D01*
X206400Y87607D01*
X207226Y87716D01*
X207996Y88035D01*
X208658Y88542D01*
X209165Y89204D01*
X209484Y89974D01*
X209593Y90800D01*
X209484Y91626D01*
X209165Y92396D01*
X208658Y93058D01*
X207996Y93565D01*
X207226Y93884D01*
X206459Y93985D01*
X203194Y97250D01*
Y98991D01*
X203399Y99090D01*
X203694Y99127D01*
X204142Y98542D01*
X204804Y98035D01*
X205574Y97716D01*
X206400Y97607D01*
X207226Y97716D01*
X207996Y98035D01*
X208658Y98542D01*
X209165Y99204D01*
X209484Y99974D01*
X209593Y100800D01*
X209484Y101626D01*
X209165Y102396D01*
X208658Y103058D01*
X207996Y103565D01*
X207226Y103884D01*
X206400Y103993D01*
X205574Y103884D01*
X204804Y103565D01*
X204142Y103058D01*
X203694Y102473D01*
X203399Y102510D01*
X203194Y102609D01*
Y127300D01*
X203019Y128178D01*
X202522Y128922D01*
X201778Y129420D01*
X200900Y129594D01*
D02*
G37*
G36*
X63557Y103419D02*
X61400D01*
Y101261D01*
X61605Y101288D01*
X62262Y101560D01*
X62826Y101993D01*
X63258Y102557D01*
X63530Y103214D01*
X63557Y103419D01*
D02*
G37*
G36*
X60400D02*
X58242D01*
X58270Y103214D01*
X58542Y102557D01*
X58974Y101993D01*
X59538Y101560D01*
X60195Y101288D01*
X60400Y101261D01*
Y103419D01*
D02*
G37*
G36*
X68700Y106642D02*
X67995Y106549D01*
X67338Y106277D01*
X66774Y105845D01*
X66342Y105280D01*
X66070Y104624D01*
X65977Y103919D01*
X66070Y103214D01*
X66342Y102557D01*
X66774Y101993D01*
X67338Y101560D01*
X67995Y101288D01*
X68700Y101196D01*
X69405Y101288D01*
X70062Y101560D01*
X70626Y101993D01*
X71058Y102557D01*
X71330Y103214D01*
X71423Y103919D01*
X71330Y104624D01*
X71058Y105280D01*
X70626Y105845D01*
X70062Y106277D01*
X69405Y106549D01*
X68700Y106642D01*
D02*
G37*
G36*
X91030Y103400D02*
X88800D01*
Y101170D01*
X89024Y101200D01*
X89698Y101479D01*
X90277Y101923D01*
X90721Y102502D01*
X91000Y103176D01*
X91030Y103400D01*
D02*
G37*
G36*
X87800D02*
X85570D01*
X85600Y103176D01*
X85879Y102502D01*
X86323Y101923D01*
X86902Y101479D01*
X87576Y101200D01*
X87800Y101170D01*
Y103400D01*
D02*
G37*
G36*
X83130D02*
X80900D01*
Y101170D01*
X81124Y101200D01*
X81798Y101479D01*
X82377Y101923D01*
X82821Y102502D01*
X83100Y103176D01*
X83130Y103400D01*
D02*
G37*
G36*
X79900D02*
X77670D01*
X77700Y103176D01*
X77979Y102502D01*
X78423Y101923D01*
X79002Y101479D01*
X79676Y101200D01*
X79900Y101170D01*
Y103400D01*
D02*
G37*
G36*
X303130Y103300D02*
X300900D01*
Y101070D01*
X301123Y101100D01*
X301798Y101379D01*
X302377Y101823D01*
X302821Y102402D01*
X303100Y103076D01*
X303130Y103300D01*
D02*
G37*
G36*
X299900D02*
X297670D01*
X297700Y103076D01*
X297979Y102402D01*
X298423Y101823D01*
X299002Y101379D01*
X299676Y101100D01*
X299900Y101070D01*
Y103300D01*
D02*
G37*
G36*
X295230D02*
X293000D01*
Y101070D01*
X293224Y101100D01*
X293898Y101379D01*
X294477Y101823D01*
X294921Y102402D01*
X295200Y103076D01*
X295230Y103300D01*
D02*
G37*
G36*
X292000D02*
X289770D01*
X289800Y103076D01*
X290079Y102402D01*
X290523Y101823D01*
X291102Y101379D01*
X291776Y101100D01*
X292000Y101070D01*
Y103300D01*
D02*
G37*
G36*
X320657Y103200D02*
X318500D01*
Y101042D01*
X318705Y101069D01*
X319362Y101341D01*
X319926Y101774D01*
X320358Y102338D01*
X320631Y102995D01*
X320657Y103200D01*
D02*
G37*
G36*
X317500D02*
X315342D01*
X315370Y102995D01*
X315642Y102338D01*
X316074Y101774D01*
X316638Y101341D01*
X317295Y101069D01*
X317500Y101042D01*
Y103200D01*
D02*
G37*
G36*
X312858D02*
X310700D01*
Y101042D01*
X310905Y101069D01*
X311562Y101341D01*
X312126Y101774D01*
X312558Y102338D01*
X312830Y102995D01*
X312858Y103200D01*
D02*
G37*
G36*
X309700D02*
X307542D01*
X307570Y102995D01*
X307842Y102338D01*
X308274Y101774D01*
X308838Y101341D01*
X309495Y101069D01*
X309700Y101042D01*
Y103200D01*
D02*
G37*
G36*
X236400Y103993D02*
X235574Y103884D01*
X234804Y103565D01*
X234142Y103058D01*
X233635Y102396D01*
X233316Y101626D01*
X233207Y100800D01*
X233316Y99974D01*
X233635Y99204D01*
X234142Y98542D01*
X234804Y98035D01*
X235574Y97716D01*
X236400Y97607D01*
X237226Y97716D01*
X237996Y98035D01*
X238657Y98542D01*
X239165Y99204D01*
X239484Y99974D01*
X239593Y100800D01*
X239484Y101626D01*
X239165Y102396D01*
X238657Y103058D01*
X237996Y103565D01*
X237226Y103884D01*
X236400Y103993D01*
D02*
G37*
G36*
X226400D02*
X225574Y103884D01*
X224804Y103565D01*
X224143Y103058D01*
X223635Y102396D01*
X223316Y101626D01*
X223207Y100800D01*
X223316Y99974D01*
X223635Y99204D01*
X224143Y98542D01*
X224804Y98035D01*
X225574Y97716D01*
X226400Y97607D01*
X227226Y97716D01*
X227996Y98035D01*
X228658Y98542D01*
X229165Y99204D01*
X229484Y99974D01*
X229593Y100800D01*
X229484Y101626D01*
X229165Y102396D01*
X228658Y103058D01*
X227996Y103565D01*
X227226Y103884D01*
X226400Y103993D01*
D02*
G37*
G36*
X216400D02*
X215574Y103884D01*
X214804Y103565D01*
X214142Y103058D01*
X213635Y102396D01*
X213316Y101626D01*
X213207Y100800D01*
X213316Y99974D01*
X213635Y99204D01*
X214142Y98542D01*
X214804Y98035D01*
X215574Y97716D01*
X216400Y97607D01*
X217226Y97716D01*
X217996Y98035D01*
X218657Y98542D01*
X219165Y99204D01*
X219484Y99974D01*
X219593Y100800D01*
X219484Y101626D01*
X219165Y102396D01*
X218657Y103058D01*
X217996Y103565D01*
X217226Y103884D01*
X216400Y103993D01*
D02*
G37*
G36*
X186400D02*
X185574Y103884D01*
X184804Y103565D01*
X184142Y103058D01*
X183635Y102396D01*
X183316Y101626D01*
X183207Y100800D01*
X183316Y99974D01*
X183635Y99204D01*
X184142Y98542D01*
X184804Y98035D01*
X185574Y97716D01*
X186400Y97607D01*
X187226Y97716D01*
X187996Y98035D01*
X188657Y98542D01*
X189165Y99204D01*
X189484Y99974D01*
X189593Y100800D01*
X189484Y101626D01*
X189165Y102396D01*
X188657Y103058D01*
X187996Y103565D01*
X187226Y103884D01*
X186400Y103993D01*
D02*
G37*
G36*
X250400Y128194D02*
X249522Y128019D01*
X248778Y127522D01*
X248281Y126778D01*
X248106Y125900D01*
Y105750D01*
X236340Y93985D01*
X235574Y93884D01*
X234804Y93565D01*
X234142Y93058D01*
X233635Y92396D01*
X233316Y91626D01*
X233207Y90800D01*
X233316Y89974D01*
X233635Y89204D01*
X234142Y88542D01*
X234804Y88035D01*
X235574Y87716D01*
X236400Y87607D01*
X237226Y87716D01*
X237996Y88035D01*
X238657Y88542D01*
X239165Y89204D01*
X239484Y89974D01*
X239585Y90741D01*
X252022Y103178D01*
X252519Y103922D01*
X252694Y104800D01*
Y125900D01*
X252519Y126778D01*
X252022Y127522D01*
X251278Y128019D01*
X250400Y128194D01*
D02*
G37*
G36*
X226400Y93993D02*
X225574Y93884D01*
X224804Y93565D01*
X224143Y93058D01*
X223635Y92396D01*
X223316Y91626D01*
X223207Y90800D01*
X223316Y89974D01*
X223635Y89204D01*
X224143Y88542D01*
X224804Y88035D01*
X225574Y87716D01*
X226400Y87607D01*
X227226Y87716D01*
X227996Y88035D01*
X228658Y88542D01*
X229165Y89204D01*
X229484Y89974D01*
X229593Y90800D01*
X229484Y91626D01*
X229165Y92396D01*
X228658Y93058D01*
X227996Y93565D01*
X227226Y93884D01*
X226400Y93993D01*
D02*
G37*
G36*
X216400D02*
X215574Y93884D01*
X214804Y93565D01*
X214142Y93058D01*
X213635Y92396D01*
X213316Y91626D01*
X213207Y90800D01*
X213316Y89974D01*
X213635Y89204D01*
X214142Y88542D01*
X214804Y88035D01*
X215574Y87716D01*
X216400Y87607D01*
X217226Y87716D01*
X217996Y88035D01*
X218657Y88542D01*
X219165Y89204D01*
X219484Y89974D01*
X219593Y90800D01*
X219484Y91626D01*
X219165Y92396D01*
X218657Y93058D01*
X217996Y93565D01*
X217226Y93884D01*
X216400Y93993D01*
D02*
G37*
G36*
X196400D02*
X195574Y93884D01*
X194804Y93565D01*
X194142Y93058D01*
X193635Y92396D01*
X193316Y91626D01*
X193207Y90800D01*
X193316Y89974D01*
X193635Y89204D01*
X194142Y88542D01*
X194804Y88035D01*
X195574Y87716D01*
X196400Y87607D01*
X197226Y87716D01*
X197996Y88035D01*
X198658Y88542D01*
X199165Y89204D01*
X199484Y89974D01*
X199593Y90800D01*
X199484Y91626D01*
X199165Y92396D01*
X198658Y93058D01*
X197996Y93565D01*
X197226Y93884D01*
X196400Y93993D01*
D02*
G37*
G36*
X159600Y128194D02*
X158722Y128019D01*
X157978Y127522D01*
X157481Y126778D01*
X157306Y125900D01*
Y117600D01*
X157481Y116722D01*
X157978Y115978D01*
X183215Y90741D01*
X183316Y89974D01*
X183635Y89204D01*
X184142Y88542D01*
X184804Y88035D01*
X185574Y87716D01*
X186400Y87607D01*
X187226Y87716D01*
X187996Y88035D01*
X188657Y88542D01*
X189165Y89204D01*
X189484Y89974D01*
X189593Y90800D01*
X189484Y91626D01*
X189165Y92396D01*
X188657Y93058D01*
X187996Y93565D01*
X187226Y93884D01*
X186460Y93985D01*
X161894Y118550D01*
Y125900D01*
X161720Y126778D01*
X161222Y127522D01*
X160478Y128019D01*
X159600Y128194D01*
D02*
G37*
G36*
X69300Y66263D02*
Y57500D01*
X78063D01*
X77934Y58817D01*
X77404Y60564D01*
X76543Y62174D01*
X75385Y63585D01*
X73974Y64743D01*
X72364Y65604D01*
X70617Y66134D01*
X69300Y66263D01*
D02*
G37*
G36*
X68300D02*
X66983Y66134D01*
X65236Y65604D01*
X63626Y64743D01*
X62215Y63585D01*
X61057Y62174D01*
X60196Y60564D01*
X59666Y58817D01*
X59537Y57500D01*
X68300D01*
Y66263D01*
D02*
G37*
G36*
X309800Y66163D02*
Y57400D01*
X318563D01*
X318434Y58717D01*
X317904Y60464D01*
X317043Y62074D01*
X315885Y63485D01*
X314474Y64643D01*
X312864Y65504D01*
X311117Y66034D01*
X309800Y66163D01*
D02*
G37*
G36*
X308800D02*
X307483Y66034D01*
X305736Y65504D01*
X304126Y64643D01*
X302715Y63485D01*
X301557Y62074D01*
X300696Y60464D01*
X300166Y58717D01*
X300037Y57400D01*
X308800D01*
Y66163D01*
D02*
G37*
G36*
X214300Y60373D02*
X213479Y60265D01*
X212714Y59948D01*
X212056Y59443D01*
X211552Y58786D01*
X211235Y58021D01*
X211127Y57200D01*
X211235Y56379D01*
X211552Y55614D01*
X212056Y54957D01*
X212714Y54452D01*
X213479Y54135D01*
X214300Y54027D01*
X215121Y54135D01*
X215886Y54452D01*
X216544Y54957D01*
X217048Y55614D01*
X217365Y56379D01*
X217473Y57200D01*
X217365Y58021D01*
X217048Y58786D01*
X216544Y59443D01*
X215886Y59948D01*
X215121Y60265D01*
X214300Y60373D01*
D02*
G37*
G36*
X204300D02*
X203479Y60265D01*
X202714Y59948D01*
X202057Y59443D01*
X201552Y58786D01*
X201235Y58021D01*
X201127Y57200D01*
X201235Y56379D01*
X201552Y55614D01*
X202057Y54957D01*
X202714Y54452D01*
X203479Y54135D01*
X204300Y54027D01*
X205121Y54135D01*
X205886Y54452D01*
X206543Y54957D01*
X207048Y55614D01*
X207365Y56379D01*
X207473Y57200D01*
X207365Y58021D01*
X207048Y58786D01*
X206543Y59443D01*
X205886Y59948D01*
X205121Y60265D01*
X204300Y60373D01*
D02*
G37*
G36*
X194300D02*
X193479Y60265D01*
X192714Y59948D01*
X192057Y59443D01*
X191552Y58786D01*
X191235Y58021D01*
X191127Y57200D01*
X191235Y56379D01*
X191552Y55614D01*
X192057Y54957D01*
X192714Y54452D01*
X193479Y54135D01*
X194300Y54027D01*
X195121Y54135D01*
X195886Y54452D01*
X196544Y54957D01*
X197048Y55614D01*
X197365Y56379D01*
X197473Y57200D01*
X197365Y58021D01*
X197048Y58786D01*
X196544Y59443D01*
X195886Y59948D01*
X195121Y60265D01*
X194300Y60373D01*
D02*
G37*
G36*
X184300D02*
X183479Y60265D01*
X182714Y59948D01*
X182056Y59443D01*
X181552Y58786D01*
X181235Y58021D01*
X181127Y57200D01*
X181235Y56379D01*
X181552Y55614D01*
X182056Y54957D01*
X182714Y54452D01*
X183479Y54135D01*
X184300Y54027D01*
X185121Y54135D01*
X185886Y54452D01*
X186544Y54957D01*
X187048Y55614D01*
X187365Y56379D01*
X187473Y57200D01*
X187365Y58021D01*
X187048Y58786D01*
X186544Y59443D01*
X185886Y59948D01*
X185121Y60265D01*
X184300Y60373D01*
D02*
G37*
G36*
X236500Y62984D02*
X235817Y62849D01*
X235238Y62462D01*
X234852Y61883D01*
X234716Y61200D01*
X234852Y60517D01*
X235074Y60184D01*
Y53966D01*
X234752Y53483D01*
X234616Y52800D01*
X234752Y52117D01*
X235138Y51538D01*
X235717Y51152D01*
X236400Y51016D01*
X237083Y51152D01*
X237662Y51538D01*
X238049Y52117D01*
X238184Y52800D01*
X238049Y53483D01*
X237725Y53966D01*
Y59914D01*
X237762Y59938D01*
X238148Y60517D01*
X238284Y61200D01*
X238148Y61883D01*
X237762Y62462D01*
X237183Y62849D01*
X236500Y62984D01*
D02*
G37*
G36*
X232400D02*
X231717Y62849D01*
X231138Y62462D01*
X230751Y61883D01*
X230616Y61200D01*
X230751Y60517D01*
X230985Y60168D01*
X231064Y51351D01*
X230751Y50883D01*
X230616Y50200D01*
X230751Y49517D01*
X231138Y48938D01*
X231717Y48551D01*
X232400Y48416D01*
X233083Y48551D01*
X233662Y48938D01*
X234049Y49517D01*
X234184Y50200D01*
X234049Y50883D01*
X233715Y51382D01*
X233638Y59922D01*
X233662Y59938D01*
X234049Y60517D01*
X234184Y61200D01*
X234049Y61883D01*
X233662Y62462D01*
X233083Y62849D01*
X232400Y62984D01*
D02*
G37*
G36*
X78063Y56500D02*
X69300D01*
Y47737D01*
X70617Y47866D01*
X72364Y48396D01*
X73974Y49257D01*
X75385Y50415D01*
X76543Y51826D01*
X77404Y53436D01*
X77934Y55183D01*
X78063Y56500D01*
D02*
G37*
G36*
X68300D02*
X59537D01*
X59666Y55183D01*
X60196Y53436D01*
X61057Y51826D01*
X62215Y50415D01*
X63626Y49257D01*
X65236Y48396D01*
X66983Y47866D01*
X68300Y47737D01*
Y56500D01*
D02*
G37*
G36*
X318563Y56400D02*
X309800D01*
Y47637D01*
X311117Y47766D01*
X312864Y48296D01*
X314474Y49157D01*
X315885Y50315D01*
X317043Y51726D01*
X317904Y53336D01*
X318434Y55083D01*
X318563Y56400D01*
D02*
G37*
G36*
X308800D02*
X300037D01*
X300166Y55083D01*
X300696Y53336D01*
X301557Y51726D01*
X302715Y50315D01*
X304126Y49157D01*
X305736Y48296D01*
X307483Y47766D01*
X308800Y47637D01*
Y56400D01*
D02*
G37*
G36*
X228200Y62984D02*
X227517Y62849D01*
X226938Y62462D01*
X226552Y61883D01*
X226416Y61200D01*
X226552Y60517D01*
X226874Y60034D01*
Y48966D01*
X226552Y48483D01*
X226416Y47800D01*
X226552Y47117D01*
X226938Y46538D01*
X227517Y46152D01*
X228200Y46016D01*
X228883Y46152D01*
X229462Y46538D01*
X229849Y47117D01*
X229984Y47800D01*
X229849Y48483D01*
X229525Y48966D01*
Y60034D01*
X229849Y60517D01*
X229984Y61200D01*
X229849Y61883D01*
X229462Y62462D01*
X228883Y62849D01*
X228200Y62984D01*
D02*
G37*
%LPD*%
G36*
X236800Y165081D02*
X233419D01*
Y160719D01*
X236800D01*
Y157100D01*
X220300Y157100D01*
X220300Y172074D01*
X236800D01*
X236800Y165081D01*
D02*
G37*
%LPC*%
G36*
X224600Y162340D02*
Y160900D01*
X226040D01*
X225984Y161180D01*
X225542Y161842D01*
X224880Y162284D01*
X224600Y162340D01*
D02*
G37*
G36*
X223600D02*
X223320Y162284D01*
X222658Y161842D01*
X222216Y161180D01*
X222160Y160900D01*
X223600D01*
Y162340D01*
D02*
G37*
G36*
X226040Y159900D02*
X224600D01*
Y158460D01*
X224880Y158516D01*
X225542Y158958D01*
X225984Y159620D01*
X226040Y159900D01*
D02*
G37*
G36*
X223600D02*
X222160D01*
X222216Y159620D01*
X222658Y158958D01*
X223320Y158516D01*
X223600Y158460D01*
Y159900D01*
D02*
G37*
%LPD*%
D14*
X232300Y61300D02*
X232301Y61199D01*
X232400Y50200D01*
X236400Y52800D02*
Y61400D01*
X228200Y61200D02*
Y61400D01*
Y48600D02*
Y61200D01*
X236400Y61400D02*
X236500Y61500D01*
D21*
X184300Y57200D02*
D03*
X194300D02*
D03*
X204300D02*
D03*
X214300D02*
D03*
D39*
X254300Y185900D02*
Y186100D01*
Y185900D02*
X254500Y185700D01*
X260500D01*
X269200Y177000D01*
X258200Y162800D02*
X258300Y162700D01*
X235600Y162900D02*
Y165800D01*
X232200Y162900D02*
X235600D01*
D40*
X258126Y181074D02*
X283500Y155700D01*
X253300Y175600D02*
X274600Y154300D01*
X250800Y173400D02*
X269800Y154400D01*
X255750Y178350D02*
X279300Y154800D01*
D41*
X200900Y96300D02*
Y127300D01*
Y96300D02*
X206400Y90800D01*
X250400Y104800D02*
Y125900D01*
X236400Y90800D02*
X250400Y104800D01*
X159600Y117600D02*
Y125900D01*
Y117600D02*
X186400Y90800D01*
D42*
X246100Y188000D02*
X248300Y190200D01*
X252600D01*
X260000Y197600D01*
X219400Y204900D02*
X222000Y202300D01*
Y195100D02*
Y202300D01*
X219400Y204900D02*
X219500Y205000D01*
X258300Y161000D02*
Y162700D01*
X251300Y154000D02*
X258300Y161000D01*
X247900Y159500D02*
X248100D01*
X242200Y153800D02*
X247900Y159500D01*
X240200Y153800D02*
X242200D01*
D45*
X213645Y173700D02*
X250800D01*
X215595Y176000D02*
X253300D01*
X217863Y178637D02*
X255700D01*
X248632Y181100D02*
X258126Y181074D01*
X220400Y181100D02*
X248632D01*
D46*
X318000Y103700D02*
D03*
Y111600D02*
D03*
Y127400D02*
D03*
Y119500D02*
D03*
Y135300D02*
D03*
Y143200D02*
D03*
X318100Y159000D02*
D03*
Y151100D02*
D03*
X318000Y166900D02*
D03*
Y174800D02*
D03*
Y182500D02*
D03*
X310200D02*
D03*
Y174800D02*
D03*
Y166900D02*
D03*
X310300Y151100D02*
D03*
Y159000D02*
D03*
X310200Y143200D02*
D03*
Y135300D02*
D03*
Y119500D02*
D03*
Y127400D02*
D03*
Y111600D02*
D03*
Y103700D02*
D03*
X68700Y182719D02*
D03*
Y174819D02*
D03*
Y159019D02*
D03*
Y166919D02*
D03*
Y151119D02*
D03*
Y143219D02*
D03*
X68600Y127419D02*
D03*
Y135319D02*
D03*
X68700Y119519D02*
D03*
Y111619D02*
D03*
Y103919D02*
D03*
X60900D02*
D03*
Y111619D02*
D03*
Y119519D02*
D03*
X60800Y135319D02*
D03*
Y127419D02*
D03*
X60900Y143219D02*
D03*
Y151119D02*
D03*
Y166919D02*
D03*
Y159019D02*
D03*
Y174819D02*
D03*
Y182719D02*
D03*
D47*
X309300Y56900D02*
D03*
X68800Y57000D02*
D03*
X68700Y229400D02*
D03*
X309400D02*
D03*
D48*
Y210100D02*
D03*
X299400D02*
D03*
X236400Y100800D02*
D03*
Y90800D02*
D03*
X226400D02*
D03*
Y100800D02*
D03*
X216400D02*
D03*
Y90800D02*
D03*
X206400D02*
D03*
Y100800D02*
D03*
X196400D02*
D03*
Y90800D02*
D03*
X186400D02*
D03*
Y100800D02*
D03*
D49*
X300400Y103800D02*
D03*
X292500D02*
D03*
Y111700D02*
D03*
X300400D02*
D03*
Y119500D02*
D03*
X292500D02*
D03*
Y127500D02*
D03*
X300400D02*
D03*
Y135300D02*
D03*
X292500D02*
D03*
Y143200D02*
D03*
X300400D02*
D03*
Y151000D02*
D03*
X292500D02*
D03*
Y158900D02*
D03*
X300400D02*
D03*
Y166800D02*
D03*
X292500D02*
D03*
Y174700D02*
D03*
X300400D02*
D03*
Y182600D02*
D03*
X292500D02*
D03*
X88300Y103900D02*
D03*
X80400D02*
D03*
Y111800D02*
D03*
X88300D02*
D03*
Y119600D02*
D03*
X80400D02*
D03*
Y127600D02*
D03*
X88300D02*
D03*
Y135400D02*
D03*
X80400D02*
D03*
Y143300D02*
D03*
X88300D02*
D03*
Y151100D02*
D03*
X80400D02*
D03*
Y159000D02*
D03*
X88300D02*
D03*
Y166900D02*
D03*
X80400D02*
D03*
Y174800D02*
D03*
X88300D02*
D03*
Y182700D02*
D03*
X80400D02*
D03*
D50*
X184300Y57200D02*
D03*
D51*
X283300Y155500D02*
D03*
X232400Y61200D02*
D03*
X228200D02*
D03*
X236500D02*
D03*
X220400Y181100D02*
D03*
X217863Y178837D02*
D03*
X215595Y175706D02*
D03*
X213645Y173355D02*
D03*
X172000Y147200D02*
D03*
X161800Y147100D02*
D03*
X151400Y147000D02*
D03*
X188900Y167500D02*
D03*
X228200Y47800D02*
D03*
X232400Y50200D02*
D03*
X236400Y52800D02*
D03*
X269800Y154400D02*
D03*
X274600Y154300D02*
D03*
X279300Y154800D02*
D03*
D52*
X250400Y125900D02*
D03*
X200900Y127300D02*
D03*
X159600Y125900D02*
D03*
X246100Y188000D02*
D03*
X260000Y197600D02*
D03*
X232200Y193200D02*
D03*
X182400Y146400D02*
D03*
X223100Y146200D02*
D03*
X253500Y146700D02*
D03*
X263900Y146800D02*
D03*
X243500Y146700D02*
D03*
X233300D02*
D03*
X212700Y146200D02*
D03*
X202700Y146600D02*
D03*
X192500D02*
D03*
X214500Y231100D02*
D03*
X229500Y230900D02*
D03*
X209500Y176500D02*
D03*
X216900Y194700D02*
D03*
X222000Y195100D02*
D03*
X219500Y205000D02*
D03*
X229600Y208700D02*
D03*
X202800Y208800D02*
D03*
X217200Y157300D02*
D03*
X240200Y153800D02*
D03*
X251300Y154000D02*
D03*
X248100Y159500D02*
D03*
X207000Y185500D02*
D03*
X254300Y186100D02*
D03*
X269200Y177000D02*
D03*
X258200Y162800D02*
D03*
X224100Y160400D02*
D03*
X188700Y190000D02*
D03*
D53*
X239200Y162900D02*
D03*
X235600D02*
D03*
D54*
X237400Y162950D02*
D03*
M02*
