G04*
G04 #@! TF.GenerationSoftware,Altium Limited,Altium Designer,19.1.7 (138)*
G04*
G04 Layer_Color=16711833*
%FSLAX25Y25*%
%MOIN*%
G70*
G01*
G75*
%ADD27C,0.04737*%
%ADD30C,0.05131*%
%ADD31C,0.04343*%
%ADD32C,0.04200*%
%ADD33C,0.17335*%
%ADD34C,0.03950*%
%ADD35C,0.02300*%
%ADD53R,0.03162X0.03162*%
%ADD54C,0.02800*%
D27*
X184300Y57200D02*
D03*
X194300D02*
D03*
X204300D02*
D03*
X214300D02*
D03*
D30*
X309400Y210100D02*
D03*
X299400D02*
D03*
X236400Y100800D02*
D03*
Y90800D02*
D03*
X226400D02*
D03*
Y100800D02*
D03*
X216400D02*
D03*
Y90800D02*
D03*
X206400D02*
D03*
Y100800D02*
D03*
X196400D02*
D03*
Y90800D02*
D03*
X186400D02*
D03*
Y100800D02*
D03*
D31*
X300400Y103800D02*
D03*
X292500D02*
D03*
Y111700D02*
D03*
X300400D02*
D03*
Y119500D02*
D03*
X292500D02*
D03*
Y127500D02*
D03*
X300400D02*
D03*
Y135300D02*
D03*
X292500D02*
D03*
Y143200D02*
D03*
X300400D02*
D03*
Y151000D02*
D03*
X292500D02*
D03*
Y158900D02*
D03*
X300400D02*
D03*
Y166800D02*
D03*
X292500D02*
D03*
Y174700D02*
D03*
X300400D02*
D03*
Y182600D02*
D03*
X292500D02*
D03*
X88300Y103900D02*
D03*
X80400D02*
D03*
Y111800D02*
D03*
X88300D02*
D03*
Y119600D02*
D03*
X80400D02*
D03*
Y127600D02*
D03*
X88300D02*
D03*
Y135400D02*
D03*
X80400D02*
D03*
Y143300D02*
D03*
X88300D02*
D03*
Y151100D02*
D03*
X80400D02*
D03*
Y159000D02*
D03*
X88300D02*
D03*
Y166900D02*
D03*
X80400D02*
D03*
Y174800D02*
D03*
X88300D02*
D03*
Y182700D02*
D03*
X80400D02*
D03*
D32*
X68700Y182719D02*
D03*
Y174819D02*
D03*
Y159019D02*
D03*
Y166919D02*
D03*
Y151119D02*
D03*
Y143219D02*
D03*
X68600Y127419D02*
D03*
Y135319D02*
D03*
X68700Y119519D02*
D03*
Y111619D02*
D03*
Y103919D02*
D03*
X60900D02*
D03*
Y111619D02*
D03*
Y119519D02*
D03*
X60800Y135319D02*
D03*
Y127419D02*
D03*
X60900Y143219D02*
D03*
Y151119D02*
D03*
Y166919D02*
D03*
Y159019D02*
D03*
Y174819D02*
D03*
Y182719D02*
D03*
X310200Y103700D02*
D03*
Y111600D02*
D03*
Y127400D02*
D03*
Y119500D02*
D03*
Y135300D02*
D03*
Y143200D02*
D03*
X310300Y159000D02*
D03*
Y151100D02*
D03*
X310200Y166900D02*
D03*
Y174800D02*
D03*
Y182500D02*
D03*
X318000D02*
D03*
Y174800D02*
D03*
Y166900D02*
D03*
X318100Y151100D02*
D03*
Y159000D02*
D03*
X318000Y143200D02*
D03*
Y135300D02*
D03*
Y119500D02*
D03*
Y127400D02*
D03*
Y111600D02*
D03*
Y103700D02*
D03*
D33*
X309300Y56900D02*
D03*
X68800Y57000D02*
D03*
X68700Y229400D02*
D03*
X309400D02*
D03*
D34*
X184300Y57200D02*
D03*
D35*
X283300Y155500D02*
D03*
X232400Y61200D02*
D03*
X228200D02*
D03*
X236500D02*
D03*
X220400Y181100D02*
D03*
X217863Y178837D02*
D03*
X215595Y175706D02*
D03*
X213645Y173355D02*
D03*
X172000Y147200D02*
D03*
X161800Y147100D02*
D03*
X151400Y147000D02*
D03*
X188900Y167500D02*
D03*
X228200Y47800D02*
D03*
X232400Y50200D02*
D03*
X236400Y52800D02*
D03*
X269800Y154400D02*
D03*
X274600Y154300D02*
D03*
X279300Y154800D02*
D03*
D53*
X239200Y162900D02*
D03*
X235600D02*
D03*
D54*
X250400Y125900D02*
D03*
X200900Y127300D02*
D03*
X159600Y125900D02*
D03*
X246100Y188000D02*
D03*
X260000Y197600D02*
D03*
X232200Y193200D02*
D03*
X182400Y146400D02*
D03*
X223100Y146200D02*
D03*
X253500Y146700D02*
D03*
X263900Y146800D02*
D03*
X243500Y146700D02*
D03*
X233300D02*
D03*
X212700Y146200D02*
D03*
X202700Y146600D02*
D03*
X192500D02*
D03*
X214500Y232500D02*
D03*
X229500Y232300D02*
D03*
X209500Y176500D02*
D03*
X216900Y194700D02*
D03*
X222000Y195100D02*
D03*
X219500Y205500D02*
D03*
X229600Y210000D02*
D03*
X202800Y210100D02*
D03*
X217200Y157300D02*
D03*
X240200Y153800D02*
D03*
X251300Y154000D02*
D03*
X248100Y159500D02*
D03*
X207000Y185500D02*
D03*
X254300Y186100D02*
D03*
X269200Y177000D02*
D03*
X258200Y162800D02*
D03*
X224100Y160400D02*
D03*
X188700Y190000D02*
D03*
M02*
