M48
;Layer_Color=39423
;FILE_FORMAT=2:5
INCH,LZ
;TYPE=PLATED
T1F00S00C0.01000
T2F00S00C0.01500
T3F00S00C0.02800
T4F00S00C0.03150
T5F00S00C0.03150
T6F00S00C0.04016
T7F00S00C0.04291
T8F00S00C0.15748
%
T01
X0161861Y0171875
X0172061Y0171975
X0188961Y0192275
X0213841Y0197375
X0215809Y0200075
X0217778Y0202675
X0219746Y0206075
X0151461Y0171775
T02
X0159661Y0150675
X0200961Y0152075
X0250461Y0150675
X0253561Y0171475
X0251361Y0178775
X0248161Y0184275
X0258261Y0187575
X0263961Y0171575
X0243561Y0171475
X0233361
X0223161Y0170975
X0212761
X0202761Y0171375
X0192561
X0182461Y0171175
X0185261Y0195775
X0182345Y0199575
X0179195Y0202675
X0176046Y0206075
X0188761Y0214775
X0207061Y0210275
X0216961Y0219475
X0222061Y0219875
X0232261Y0217975
X0229661Y0233475
X0219561Y0229775
X0202861Y0233575
X0214561Y0255875
X0229561Y0255675
X0254361Y0210875
X0269261Y0201775
X0240261Y0178575
X0224161Y0185175
X0217261Y0182075
T03
X0246161Y0212775
X026Y0226
X0295Y02096
T04
X00562Y01039
X00641
Y01118
Y01196
X00562
Y01118
Y01276
Y01354
X00641
Y01276
Y01433
Y01511
X00562
Y01433
X03165Y01432
Y0151
X03244
Y01432
Y01353
Y01275
X03165
Y01353
Y01195
Y01117
Y01038
X03244
Y01117
Y01195
Y01589
X03165
Y01668
X03244
Y01747
X03165
Y01826
X03244
X00641Y01827
Y01748
Y01669
Y0159
X00562
Y01669
Y01748
Y01827
T05
X00367Y0103919
Y0111619
X00445
Y0103919
Y0119519
X00367
X00366Y0127419
X00444
Y0135319
X00366
X00367Y0143219
X00445
Y0151119
X00367
X03343Y01511
X03421
X0342Y01432
X03342
Y01353
X0342
Y01274
X03342
Y01195
X0342
Y01116
X03342
Y01037
X0342
X03421Y0159
X03343
X03342Y01669
X0342
Y01748
Y01825
X03342
Y01748
X00445Y0174819
X00367
Y0166919
X00445
Y0159019
X00367
Y0182719
X00445
T06
X0186461Y0115875
X0196461
X0206461
X0216461
X0226461
X0236461
Y0125875
X0226461
X0216461
X0206461
X0196461
X0186461
X0328911Y0238129
X0338911
T07
X01625Y02449
X01725
X01825
X01925
T08
X00374Y00253
X03411
X03411Y026
X00374
M30
