G04*
G04 #@! TF.GenerationSoftware,Altium Limited,Altium Designer,19.1.8 (144)*
G04*
G04 Layer_Physical_Order=1*
G04 Layer_Color=255*
%FSLAX25Y25*%
%MOIN*%
G70*
G01*
G75*
%ADD10C,0.01000*%
%ADD16R,0.03543X0.03347*%
%ADD17R,0.03150X0.03150*%
%ADD18O,0.00984X0.04724*%
%ADD19R,0.03150X0.06299*%
%ADD20R,0.08268X0.11811*%
%ADD21R,0.04134X0.03937*%
%ADD22R,0.02362X0.05709*%
%ADD23R,0.02284X0.02047*%
%ADD24R,0.03543X0.03740*%
%ADD41C,0.02800*%
%ADD42C,0.01500*%
%ADD43C,0.03000*%
%ADD44C,0.02500*%
%ADD45C,0.02000*%
%ADD46C,0.01200*%
%ADD47C,0.03937*%
%ADD48C,0.03150*%
%ADD49C,0.03400*%
%ADD50C,0.16535*%
%ADD51C,0.04331*%
%ADD52C,0.03543*%
%ADD53C,0.03500*%
%ADD54C,0.01500*%
%ADD55C,0.02000*%
D10*
X210042Y187744D02*
X211510Y186275D01*
X217778Y202775D02*
X217778Y202675D01*
X217824Y192234D01*
X215809Y199675D02*
Y200075D01*
Y199675D02*
X215856Y199629D01*
X219793Y192234D02*
Y205975D01*
X215856Y192234D02*
Y199629D01*
X213841Y197375D02*
X213887Y197329D01*
Y192234D02*
Y197329D01*
X179195Y202575D02*
Y202675D01*
X215856Y192234D02*
X215861Y192240D01*
X101061Y245748D02*
X101579Y246267D01*
X250198Y160321D02*
X250461Y160057D01*
X159625Y160321D02*
X159661Y160285D01*
X216361Y175075D02*
X220232D01*
X214261Y177175D02*
X216361Y175075D01*
X210661Y177175D02*
X214261D01*
X207638Y175199D02*
X208772D01*
X206013Y176823D02*
X207638Y175199D01*
X206013Y176823D02*
Y192234D01*
X207982Y179855D02*
X210661Y177175D01*
X207982Y179855D02*
Y192234D01*
X204045Y182259D02*
Y192234D01*
X199796Y178009D02*
X204045Y182259D01*
X199796Y175075D02*
Y178009D01*
X193161Y181475D02*
X197761D01*
X189577Y177891D02*
X193161Y181475D01*
X189577Y175075D02*
Y177891D01*
X185161Y183175D02*
X196761D01*
X179754Y177768D02*
X185161Y183175D01*
X179754Y175470D02*
Y177768D01*
X169165Y166553D02*
Y175075D01*
X168661Y175673D02*
X169259Y175075D01*
X175961Y184975D02*
X195561D01*
X168661Y177675D02*
X175961Y184975D01*
X168661Y175673D02*
Y177675D01*
X219761Y214644D02*
X219793Y214675D01*
X191993Y192275D02*
X192093Y192375D01*
X231561Y218675D02*
X232261Y217975D01*
X225161Y218675D02*
X231561D01*
X223730Y217244D02*
X225161Y218675D01*
X223730Y214675D02*
Y217244D01*
X161836Y175075D02*
X161861Y175050D01*
X192491Y175075D02*
X192561Y175146D01*
X233361Y175073D02*
X233364Y175075D01*
X202709D02*
X202761Y175023D01*
X192093Y192375D02*
X192234Y192234D01*
X260261Y166030D02*
X260463Y166231D01*
X251287Y175075D02*
Y178300D01*
X250198Y166030D02*
X250245Y166077D01*
X221761Y218275D02*
X222061Y218575D01*
X240268Y175175D02*
Y178675D01*
X194234Y214675D02*
Y219748D01*
X232061Y181875D02*
X261754D01*
X230450Y180264D02*
X232061Y181875D01*
X230450Y175075D02*
Y180264D01*
X269161Y186575D02*
Y201675D01*
X261105Y178518D02*
X269161Y186575D01*
Y201675D02*
X269261Y201775D01*
X261754Y181875D02*
X265061Y185182D01*
X261561Y186775D02*
Y211775D01*
X259061Y184275D02*
X261561Y186775D01*
X248161Y184275D02*
X259061D01*
X194234Y219748D02*
X201961Y227475D01*
X206998Y210339D02*
X207061Y210275D01*
X200108Y214675D02*
Y218300D01*
X198139Y218453D02*
X203161Y223475D01*
X246061D01*
X198139Y214675D02*
Y218453D01*
X196171Y218785D02*
X202961Y225575D01*
X247761D01*
X196171Y214675D02*
Y218785D01*
X200108Y218300D02*
X203683Y221875D01*
X246061Y223475D02*
X258261Y211275D01*
X247761Y225575D02*
X261561Y211775D01*
X201961Y227475D02*
X250261D01*
X203683Y221875D02*
X243361D01*
X254361Y210875D01*
X250261Y227475D02*
X265061Y212675D01*
Y185182D02*
Y212675D01*
X261105Y175075D02*
Y178518D01*
X258261Y187575D02*
Y211275D01*
X221761Y187575D02*
Y192234D01*
Y187575D02*
X224161Y185175D01*
X194201Y190380D02*
Y192233D01*
X188761Y214775D02*
X188861D01*
X188961Y214875D01*
X189161Y214675D01*
X169165Y175075D02*
X169259D01*
X169141D02*
X169165D01*
X179359D02*
X179754Y175470D01*
X168061Y186675D02*
X194561D01*
X158961Y188375D02*
X193361D01*
X148261Y177675D02*
X158961Y188375D01*
X194561Y186675D02*
X196161Y188275D01*
X195561Y184975D02*
X198139Y187553D01*
X193361Y188375D02*
X194201Y189215D01*
Y192233D02*
X194202Y192234D01*
X159041Y177655D02*
X168061Y186675D01*
X194201Y189215D02*
Y190380D01*
X209950Y187934D02*
X210042Y187842D01*
Y187744D02*
Y187842D01*
X209950Y187934D02*
Y192234D01*
X196761Y183175D02*
X200108Y186522D01*
X197761Y181475D02*
X202076Y185790D01*
X158361Y174552D02*
X159565D01*
X159041Y175075D02*
Y177655D01*
X148261Y175599D02*
X149346D01*
X148461Y174552D02*
X149346D01*
X196161Y188275D02*
Y190366D01*
X198139Y187553D02*
Y192234D01*
X200108Y186522D02*
Y192234D01*
X202076Y185790D02*
Y192234D01*
X209896Y175075D02*
X210014D01*
X196161Y190366D02*
X196163Y190367D01*
Y192226D01*
X196171Y192234D01*
X194202Y190380D02*
Y192234D01*
X148261Y175599D02*
Y177675D01*
X189577Y166268D02*
Y175075D01*
Y166268D02*
X189816Y166030D01*
X169165Y166553D02*
X169689Y166030D01*
X158361Y167293D02*
Y174552D01*
Y167293D02*
X159625Y166030D01*
X148461Y167130D02*
Y174552D01*
Y167130D02*
X149562Y166030D01*
X158923Y175075D02*
X159041D01*
X148823D02*
X149346Y175599D01*
X148705Y175075D02*
X148823D01*
X260987D02*
X261105D01*
X260463Y174552D02*
X260987Y175075D01*
X260463Y166231D02*
Y174552D01*
X250245Y166077D02*
Y174552D01*
X240134Y166030D02*
Y174552D01*
X230070Y174696D02*
X230450Y175075D01*
X230070Y166030D02*
Y174696D01*
X220007Y174850D02*
X220232Y175075D01*
X220007Y166030D02*
Y174850D01*
X209943Y175005D02*
X210014Y175075D01*
X209343Y165629D02*
Y174605D01*
X199796Y175075D02*
X199880Y174991D01*
Y166030D02*
Y174991D01*
X179359Y175075D02*
X179752Y174682D01*
Y166030D02*
Y174682D01*
X159041Y175075D02*
X159565Y174552D01*
X148823Y175075D02*
X149346Y174552D01*
X260261Y160321D02*
X260761Y159821D01*
X226461Y115875D02*
Y116775D01*
X186461Y115875D02*
Y116175D01*
D16*
X295000Y227449D02*
D03*
Y233551D02*
D03*
D17*
Y215700D02*
D03*
Y222200D02*
D03*
D18*
X227667Y214675D02*
D03*
X225698D02*
D03*
X223730D02*
D03*
X221761D02*
D03*
X219793D02*
D03*
X217824D02*
D03*
X215856D02*
D03*
X213887D02*
D03*
X211919D02*
D03*
X209950D02*
D03*
X207982D02*
D03*
X206013D02*
D03*
X204045D02*
D03*
X202076D02*
D03*
X200108D02*
D03*
X198139D02*
D03*
X196171D02*
D03*
X194202D02*
D03*
X192234D02*
D03*
X227667Y192234D02*
D03*
X225698D02*
D03*
X223730D02*
D03*
X221761D02*
D03*
X219793D02*
D03*
X217824D02*
D03*
X215856D02*
D03*
X213887D02*
D03*
X211919D02*
D03*
X209950D02*
D03*
X207982D02*
D03*
X206013D02*
D03*
X204045D02*
D03*
X202076D02*
D03*
X200108D02*
D03*
X198139D02*
D03*
X196171D02*
D03*
X194202D02*
D03*
X192234D02*
D03*
D19*
X116343Y246267D02*
D03*
X111422D02*
D03*
X106501D02*
D03*
X101579D02*
D03*
D20*
X126383Y257684D02*
D03*
X91540D02*
D03*
D21*
X213714Y233575D02*
D03*
X207809D02*
D03*
X217261Y186275D02*
D03*
X211356D02*
D03*
X225514Y233475D02*
D03*
X219609D02*
D03*
D22*
X214561Y239647D02*
D03*
X219561D02*
D03*
X224561D02*
D03*
X229561D02*
D03*
X214561Y261104D02*
D03*
X219561D02*
D03*
X224561D02*
D03*
X229561D02*
D03*
D23*
X182273Y175075D02*
D03*
X179359D02*
D03*
X192491D02*
D03*
X189577D02*
D03*
X202709D02*
D03*
X199796D02*
D03*
X212327Y174675D02*
D03*
X209414D02*
D03*
X223145Y175075D02*
D03*
X220232D02*
D03*
X233364D02*
D03*
X230450D02*
D03*
X243582D02*
D03*
X240668D02*
D03*
X253800D02*
D03*
X250887D02*
D03*
X264018D02*
D03*
X261105D02*
D03*
X172055D02*
D03*
X169141D02*
D03*
X161836D02*
D03*
X158923D02*
D03*
X151618D02*
D03*
X148705D02*
D03*
D24*
X159625Y166030D02*
D03*
Y160321D02*
D03*
X260261Y166030D02*
D03*
Y160321D02*
D03*
X250198Y166030D02*
D03*
Y160321D02*
D03*
X240134Y166030D02*
D03*
Y160321D02*
D03*
X230070Y166030D02*
D03*
Y160321D02*
D03*
X220007Y166030D02*
D03*
Y160321D02*
D03*
X209343Y165629D02*
D03*
Y159921D02*
D03*
X199880Y166030D02*
D03*
Y160321D02*
D03*
X189816Y166030D02*
D03*
Y160321D02*
D03*
X179752Y166030D02*
D03*
Y160321D02*
D03*
X169689Y166030D02*
D03*
Y160321D02*
D03*
X149562Y166030D02*
D03*
Y160321D02*
D03*
D41*
X294900Y238098D02*
X328911D01*
X230361Y250575D02*
X260061D01*
X224661Y251175D02*
X233961D01*
X295000Y209600D02*
Y215700D01*
X260000Y226000D02*
Y228000D01*
X260061Y228061D01*
Y238098D01*
Y250575D01*
Y238098D02*
X294900D01*
X224561Y251175D02*
Y261104D01*
D42*
X211510Y182326D02*
Y186275D01*
X193000Y238000D02*
Y256300D01*
X212241Y198775D02*
X213841Y197175D01*
X190600Y258700D02*
X193000Y256300D01*
X154100Y258700D02*
X190600D01*
X134375Y238975D02*
X154100Y258700D01*
X106574Y228663D02*
X142263D01*
X158500Y244900D01*
X162500D01*
Y240000D02*
Y244900D01*
Y240000D02*
X176046Y226454D01*
Y206075D02*
Y226454D01*
X139575Y232075D02*
X158600Y251100D01*
X168100D01*
X172500Y246700D01*
Y244900D02*
Y246700D01*
Y243000D02*
Y244900D01*
Y243000D02*
X179195Y236305D01*
Y202675D02*
Y236305D01*
X109023Y232075D02*
X139575D01*
X182345Y199575D02*
Y252000D01*
X114172Y235275D02*
X136575D01*
X156000Y254700D01*
X179900D01*
X182000Y252600D01*
Y252000D02*
Y252600D01*
Y252000D02*
X182345D01*
X117097Y238975D02*
X134375D01*
X185888Y226907D02*
X192975Y233993D01*
Y238000D01*
X101061Y234175D02*
X106574Y228663D01*
X106361Y234737D02*
X109023Y232075D01*
X111872Y237575D02*
X114172Y235275D01*
X116343Y239729D02*
Y246267D01*
Y239729D02*
X117097Y238975D01*
X111422Y246267D02*
X111872Y245816D01*
Y237575D02*
Y245816D01*
X106361Y246126D02*
X106501Y246267D01*
X106361Y234737D02*
Y246126D01*
X185888Y203244D02*
Y226907D01*
Y203244D02*
X190357Y198775D01*
X212241D01*
X185261Y195775D02*
X185461Y195975D01*
X210761D01*
X211919Y194818D01*
Y192234D02*
Y194818D01*
X101061Y234175D02*
Y245748D01*
X214861Y178975D02*
X224661D01*
X211510Y182326D02*
X214861Y178975D01*
X264018Y171575D02*
Y175075D01*
X192561Y171375D02*
Y175146D01*
X151461Y171775D02*
X151618Y171932D01*
Y175075D01*
X161861Y171875D02*
Y175050D01*
X172055Y171982D02*
X172061Y171975D01*
X172055Y171982D02*
Y175075D01*
X182461Y171175D02*
Y174886D01*
X182273Y175075D02*
X182461Y174886D01*
X212761Y170975D02*
Y174241D01*
X223145Y171891D02*
Y175075D01*
Y171891D02*
X223161Y171875D01*
Y170975D02*
Y171875D01*
X253561Y171475D02*
X253800Y171714D01*
Y175075D01*
X243582Y171495D02*
Y175075D01*
X233361Y171475D02*
Y175073D01*
X202761Y171375D02*
Y175023D01*
X219461Y229675D02*
X219561Y229775D01*
X216961Y219475D02*
X216987D01*
X217824Y218638D01*
Y214675D02*
Y218638D01*
X217261Y182075D02*
Y186275D01*
D43*
X295000Y222200D02*
Y227449D01*
X294900Y238098D02*
X295000Y237998D01*
Y233551D02*
Y237998D01*
X244861Y209675D02*
Y211475D01*
Y193675D02*
Y209675D01*
Y211475D02*
X246161Y212775D01*
D44*
X219561Y128675D02*
Y160321D01*
X216461Y125575D02*
X219561Y128675D01*
X209343Y152993D02*
Y159921D01*
Y152993D02*
X211661Y150675D01*
Y120375D02*
Y150675D01*
Y120375D02*
X216461Y115575D01*
X199880Y153157D02*
Y160321D01*
Y153157D02*
X200961Y152075D01*
X231361Y139375D02*
X240134Y148148D01*
X231361Y121375D02*
Y139375D01*
X226461Y116475D02*
X231361Y121375D01*
X250461Y150675D02*
Y160057D01*
X169689Y153248D02*
X191561Y131375D01*
Y120475D02*
Y131375D01*
Y120475D02*
X196461Y115575D01*
X159661Y150675D02*
Y160285D01*
X149562Y148775D02*
X172761Y125575D01*
X149562Y148775D02*
Y160321D01*
X172761Y125575D02*
X186461D01*
X214561Y234622D02*
Y239647D01*
X219561Y233522D02*
Y239647D01*
X230070Y149784D02*
Y160321D01*
X226461Y146175D02*
X230070Y149784D01*
X240134Y148148D02*
Y160321D01*
X169689Y153248D02*
Y160321D01*
X260761Y136975D02*
Y159821D01*
X249361Y125575D02*
X260761Y136975D01*
X236461Y125575D02*
X249361D01*
X226461D02*
Y146175D01*
X189816Y148921D02*
Y160321D01*
Y148921D02*
X206461Y132275D01*
Y125575D02*
Y132275D01*
X179752Y150084D02*
Y160321D01*
Y150084D02*
X196461Y133375D01*
Y125575D02*
Y133375D01*
D45*
X224661Y178975D02*
X229761Y184075D01*
X219961Y210875D02*
X221161Y209675D01*
X244861D01*
X241561Y184075D02*
X244861Y187375D01*
X229761Y184075D02*
X241561D01*
X244861Y187375D02*
Y193675D01*
X206998Y210339D02*
Y214675D01*
X243561Y171475D02*
X243582Y171495D01*
X188961Y192275D02*
X191993D01*
X214561Y239647D02*
Y244575D01*
X213514Y233575D02*
X214561Y234622D01*
Y255875D02*
Y261104D01*
X229561Y255675D02*
Y261104D01*
X219561Y229775D02*
X219609Y229822D01*
Y233475D01*
X219561Y233522D02*
X219609Y233475D01*
X229561Y233575D02*
X229661Y233475D01*
X229561Y233575D02*
Y239647D01*
X225514Y233475D02*
X229661D01*
X202861Y233575D02*
X207809D01*
X206998Y214675D02*
X207982D01*
X206013D02*
X206998D01*
X204045D02*
X206013D01*
X209950D02*
X211061D01*
X207982D02*
X209950D01*
X202861D02*
X204045D01*
X189161D02*
X191361D01*
D46*
X219761Y210875D02*
Y214644D01*
X213887Y214675D02*
X215856D01*
X221761D02*
Y218275D01*
X222061Y218575D02*
Y219875D01*
D47*
X162500Y244900D02*
D03*
X172500D02*
D03*
X182500D02*
D03*
X192500D02*
D03*
D48*
D03*
D49*
X342000Y103700D02*
D03*
Y111600D02*
D03*
Y127400D02*
D03*
Y119500D02*
D03*
Y135300D02*
D03*
Y143200D02*
D03*
X342100Y159000D02*
D03*
Y151100D02*
D03*
X342000Y166900D02*
D03*
Y174800D02*
D03*
Y182500D02*
D03*
X334200D02*
D03*
Y174800D02*
D03*
Y166900D02*
D03*
X334300Y151100D02*
D03*
Y159000D02*
D03*
X334200Y143200D02*
D03*
Y135300D02*
D03*
Y119500D02*
D03*
Y127400D02*
D03*
Y111600D02*
D03*
Y103700D02*
D03*
X44500Y182719D02*
D03*
Y174819D02*
D03*
Y159019D02*
D03*
Y166919D02*
D03*
Y151119D02*
D03*
Y143219D02*
D03*
X44400Y127419D02*
D03*
Y135319D02*
D03*
X44500Y119519D02*
D03*
Y111619D02*
D03*
Y103919D02*
D03*
X36700D02*
D03*
Y111619D02*
D03*
Y119519D02*
D03*
X36600Y135319D02*
D03*
Y127419D02*
D03*
X36700Y143219D02*
D03*
Y151119D02*
D03*
Y166919D02*
D03*
Y159019D02*
D03*
Y174819D02*
D03*
Y182719D02*
D03*
D50*
X341100Y25300D02*
D03*
X37400D02*
D03*
Y260000D02*
D03*
X341100D02*
D03*
D51*
X328911Y238129D02*
D03*
X338911D02*
D03*
X236461Y125875D02*
D03*
Y115875D02*
D03*
X226461D02*
D03*
Y125875D02*
D03*
X216461D02*
D03*
Y115875D02*
D03*
X206461D02*
D03*
Y125875D02*
D03*
X196461D02*
D03*
Y115875D02*
D03*
X186461D02*
D03*
Y125875D02*
D03*
D52*
X324400Y103800D02*
D03*
X316500D02*
D03*
Y111700D02*
D03*
X324400D02*
D03*
Y119500D02*
D03*
X316500D02*
D03*
Y127500D02*
D03*
X324400D02*
D03*
Y135300D02*
D03*
X316500D02*
D03*
Y143200D02*
D03*
X324400D02*
D03*
Y151000D02*
D03*
X316500D02*
D03*
Y158900D02*
D03*
X324400D02*
D03*
Y166800D02*
D03*
X316500D02*
D03*
Y174700D02*
D03*
X324400D02*
D03*
Y182600D02*
D03*
X316500D02*
D03*
X64100Y103900D02*
D03*
X56200D02*
D03*
Y111800D02*
D03*
X64100D02*
D03*
Y119600D02*
D03*
X56200D02*
D03*
Y127600D02*
D03*
X64100D02*
D03*
Y135400D02*
D03*
X56200D02*
D03*
Y143300D02*
D03*
X64100D02*
D03*
Y151100D02*
D03*
X56200D02*
D03*
Y159000D02*
D03*
X64100D02*
D03*
Y166900D02*
D03*
X56200D02*
D03*
Y174800D02*
D03*
X64100D02*
D03*
Y182700D02*
D03*
X56200D02*
D03*
D53*
X295000Y209600D02*
D03*
X246161Y212775D02*
D03*
X260000Y226000D02*
D03*
D54*
X219746Y206075D02*
D03*
X215809Y200075D02*
D03*
X217778Y202675D02*
D03*
X213841Y197375D02*
D03*
X172061Y171975D02*
D03*
X161861Y171875D02*
D03*
X151461Y171775D02*
D03*
X188961Y192275D02*
D03*
D55*
X176046Y206075D02*
D03*
X179195Y202675D02*
D03*
X182345Y199575D02*
D03*
X185261Y195775D02*
D03*
X250461Y150675D02*
D03*
X200961Y152075D02*
D03*
X159661Y150675D02*
D03*
X232261Y217975D02*
D03*
X182461Y171175D02*
D03*
X223161Y170975D02*
D03*
X253561Y171475D02*
D03*
X263961Y171575D02*
D03*
X243561Y171475D02*
D03*
X233361D02*
D03*
X212761Y170975D02*
D03*
X202761Y171375D02*
D03*
X192561D02*
D03*
X214561Y255875D02*
D03*
X229561Y255675D02*
D03*
X216961Y219475D02*
D03*
X222061Y219875D02*
D03*
X219561Y229775D02*
D03*
X229661Y233475D02*
D03*
X202861Y233575D02*
D03*
X217261Y182075D02*
D03*
X240261Y178575D02*
D03*
X251361Y178775D02*
D03*
X248161Y184275D02*
D03*
X207061Y210275D02*
D03*
X254361Y210875D02*
D03*
X269261Y201775D02*
D03*
X258261Y187575D02*
D03*
X224161Y185175D02*
D03*
X188761Y214775D02*
D03*
M02*
