M48
;Layer_Color=37055
;FILE_FORMAT=2:5
INCH,LZ
;TYPE=PLATED
T1F00S00C0.01000
T2F00S00C0.01500
T3F00S00C0.03150
T4F00S00C0.03150
T5F00S00C0.04016
T6F00S00C0.04291
T7F00S00C0.15748
%
T01
X01514Y0147
X01618Y01471
X0172Y01472
X02698Y01544
X02746Y01543
X02793Y01548
X02833Y01555
X02365Y00612
X02324
X02282
Y00478
X02324Y00502
X02364Y00528
X0213645Y0173355
X0215595Y0175706
X0217863Y0178837
X02204Y01811
X01889Y01675
T02
X01596Y01259
X02009Y01273
X02027Y01466
X01925
X01824Y01464
X02127Y01462
X02231
X02333Y01467
X02435
X02535
X02513Y0154
X02402Y01538
X02639Y01468
X02504Y01259
X02481Y01595
X02582Y01628
X02692Y0177
X02543Y01861
X02461Y0188
X02322Y01932
X0222Y01951
X02169Y01947
X02195Y02055
X02296Y021
X02295Y02323
X02145Y02325
X02028Y02101
X0207Y01855
X02095Y01765
X02172Y01573
X02241Y01604
X01887Y019
X026Y01976
T03
X00804Y01039
X00883
Y01118
Y01196
X00804
Y01118
Y01276
Y01354
X00883
Y01276
Y01433
Y01511
X00804
Y01433
X02925Y01432
Y0151
X03004
Y01432
Y01353
Y01275
X02925
Y01353
Y01195
Y01117
Y01038
X03004
Y01117
Y01195
Y01589
X02925
Y01668
X03004
Y01747
X02925
Y01826
X03004
X00883Y01827
Y01748
Y01669
Y0159
X00804
Y01669
Y01748
Y01827
T04
X00609Y0103919
Y0111619
X00687
Y0103919
Y0119519
X00609
X00608Y0127419
X00686
Y0135319
X00608
X00609Y0143219
X00687
Y0151119
X00609
X03103Y01511
X03102Y01432
Y01353
Y01274
Y01195
Y01116
Y01037
X0318
Y01116
Y01195
Y01274
Y01353
Y01432
X03181Y01511
Y0159
X0318Y01669
Y01748
Y01825
X03102
Y01748
Y01669
X03103Y0159
X00687Y0159019
X00609
Y0166919
X00687
Y0174819
X00609
Y0182719
X00687
T05
X01864Y00908
X01964
X02064
X02164
X02264
X02364
Y01008
X02264
X02164
X02064
X01964
X01864
X02994Y02101
X03094
T06
X01843Y00572
X01943
X02043
X02143
T07
X00688Y0057
X03093Y00569
X03094Y02294
X00687
M30
