G04*
G04 #@! TF.GenerationSoftware,Altium Limited,Altium Designer,19.1.7 (138)*
G04*
G04 Layer_Physical_Order=1*
G04 Layer_Color=255*
%FSLAX25Y25*%
%MOIN*%
G70*
G01*
G75*
%ADD14R,0.02362X0.04921*%
%ADD15O,0.00984X0.04724*%
%ADD16R,0.04134X0.03937*%
%ADD17R,0.08268X0.11811*%
%ADD18R,0.03150X0.06299*%
%ADD19C,0.03937*%
%ADD20R,0.02284X0.02047*%
%ADD21R,0.03543X0.03740*%
%ADD36C,0.01000*%
%ADD37C,0.01500*%
%ADD38C,0.02000*%
%ADD39C,0.05000*%
%ADD40C,0.02500*%
%ADD41C,0.03000*%
%ADD42C,0.00600*%
%ADD43C,0.01200*%
%ADD44C,0.04331*%
%ADD45C,0.03543*%
%ADD46C,0.03400*%
%ADD47C,0.16535*%
%ADD48C,0.03150*%
%ADD49C,0.01500*%
%ADD50C,0.02000*%
D14*
X214500Y216172D02*
D03*
X219500D02*
D03*
X224500D02*
D03*
X229500D02*
D03*
X214500Y237628D02*
D03*
X219500D02*
D03*
X224500D02*
D03*
X229500D02*
D03*
D15*
X192172Y167459D02*
D03*
X194141D02*
D03*
X196109D02*
D03*
X198078D02*
D03*
X200046D02*
D03*
X202015D02*
D03*
X203983D02*
D03*
X205952D02*
D03*
X207921D02*
D03*
X209889D02*
D03*
X211858D02*
D03*
X213826D02*
D03*
X215794D02*
D03*
X217763D02*
D03*
X219731D02*
D03*
X221700D02*
D03*
X223669D02*
D03*
X225637D02*
D03*
X227606D02*
D03*
X192172Y189900D02*
D03*
X194141D02*
D03*
X196109D02*
D03*
X198078D02*
D03*
X200046D02*
D03*
X202015D02*
D03*
X203983D02*
D03*
X205952D02*
D03*
X207921D02*
D03*
X209889D02*
D03*
X211858D02*
D03*
X213826D02*
D03*
X215794D02*
D03*
X217763D02*
D03*
X219731D02*
D03*
X221700D02*
D03*
X223669D02*
D03*
X225637D02*
D03*
X227606D02*
D03*
D16*
X213653Y210100D02*
D03*
X207747D02*
D03*
X217200Y161500D02*
D03*
X211295D02*
D03*
X225453Y210000D02*
D03*
X219547D02*
D03*
D17*
X287421Y51091D02*
D03*
X252579D02*
D03*
D18*
X277382Y62509D02*
D03*
X272461D02*
D03*
X267539D02*
D03*
X262618D02*
D03*
D19*
X188500Y226400D02*
D03*
X188700Y218000D02*
D03*
X188800Y209900D02*
D03*
X184300Y57200D02*
D03*
X194300D02*
D03*
X204300D02*
D03*
X214300D02*
D03*
D20*
X182211Y150300D02*
D03*
X179298D02*
D03*
X192429D02*
D03*
X189516D02*
D03*
X202648D02*
D03*
X199734D02*
D03*
X212266Y149900D02*
D03*
X209352D02*
D03*
X223084Y150300D02*
D03*
X220171D02*
D03*
X233302D02*
D03*
X230389D02*
D03*
X243520D02*
D03*
X240607D02*
D03*
X253738D02*
D03*
X250825D02*
D03*
X263957D02*
D03*
X261043D02*
D03*
X171993D02*
D03*
X169080D02*
D03*
X161775D02*
D03*
X158861D02*
D03*
X151557D02*
D03*
X148643D02*
D03*
D21*
X159564Y141254D02*
D03*
Y135546D02*
D03*
X260200Y141254D02*
D03*
Y135546D02*
D03*
X250136Y141254D02*
D03*
Y135546D02*
D03*
X240073Y141254D02*
D03*
Y135546D02*
D03*
X230009Y141254D02*
D03*
Y135546D02*
D03*
X219946Y141254D02*
D03*
Y135546D02*
D03*
X209282Y140854D02*
D03*
Y135146D02*
D03*
X199818Y141254D02*
D03*
Y135546D02*
D03*
X189755Y141254D02*
D03*
Y135546D02*
D03*
X179691Y141254D02*
D03*
Y135546D02*
D03*
X169627Y141254D02*
D03*
Y135546D02*
D03*
X149500Y141254D02*
D03*
Y135546D02*
D03*
D36*
X201900Y202700D02*
X250200D01*
X194172Y194972D02*
X201900Y202700D01*
X250200D02*
X265000Y187900D01*
X209980Y162969D02*
X211449Y161500D01*
X220332Y171432D02*
Y181100D01*
X219731Y170832D02*
X220332Y171432D01*
X219731Y167459D02*
Y170832D01*
X215394Y175706D02*
X215794Y175305D01*
X215394Y175706D02*
Y175906D01*
X228200Y61400D02*
X228359Y61241D01*
X193800Y47700D02*
X228200D01*
X278800Y154400D02*
X278896Y154304D01*
X236500Y61500D02*
X236600D01*
X208500Y53000D02*
X236400D01*
X283300Y154800D02*
Y155500D01*
X272400Y71500D02*
X277182Y66718D01*
X238200Y71500D02*
X272400D01*
X228150Y61450D02*
X238200Y71500D01*
X277182Y65009D02*
Y66718D01*
X269700Y69300D02*
X272261Y66739D01*
X240500Y69300D02*
X269700D01*
X232400Y61200D02*
X240500Y69300D01*
X272261Y65009D02*
Y66739D01*
X265800Y67600D02*
X266928Y66473D01*
X242700Y67600D02*
X265800D01*
X236600Y61500D02*
X242700Y67600D01*
X266928Y65421D02*
Y66473D01*
Y65421D02*
X267339Y65009D01*
X250136Y135546D02*
X250400Y135282D01*
X159564Y135546D02*
X159600Y135509D01*
X216300Y150300D02*
X220171D01*
X214200Y152400D02*
X216300Y150300D01*
X210600Y152400D02*
X214200D01*
X207576Y150424D02*
X208711D01*
X205952Y152048D02*
X207576Y150424D01*
X205952Y152048D02*
Y167459D01*
X207921Y155079D02*
X210600Y152400D01*
X207921Y155079D02*
Y167459D01*
X203983Y157483D02*
Y167459D01*
X199734Y153234D02*
X203983Y157483D01*
X199734Y150300D02*
Y153234D01*
X193100Y156700D02*
X197700D01*
X189516Y153116D02*
X193100Y156700D01*
X189516Y150300D02*
Y153116D01*
X185100Y158400D02*
X196700D01*
X179692Y152992D02*
X185100Y158400D01*
X179692Y150694D02*
Y152992D01*
X169104Y141778D02*
Y150300D01*
X168600Y150898D02*
X169198Y150300D01*
X175900Y160200D02*
X195500D01*
X168600Y152900D02*
X175900Y160200D01*
X168600Y150898D02*
Y152900D01*
X219700Y189868D02*
X219731Y189900D01*
X219700Y186100D02*
Y189868D01*
X215794Y167459D02*
Y175305D01*
X213645Y173355D02*
Y173355D01*
Y173355D02*
X213826Y173174D01*
X191931Y167500D02*
X192032Y167600D01*
X231500Y193900D02*
X232200Y193200D01*
X225100Y193900D02*
X231500D01*
X223669Y192469D02*
X225100Y193900D01*
X223669Y189900D02*
Y192469D01*
X161775Y150300D02*
X161800Y150275D01*
X192429Y150300D02*
X192500Y150371D01*
X233300Y150298D02*
X233302Y150300D01*
X202648D02*
X202700Y150248D01*
X192032Y167600D02*
X192172Y167459D01*
X260200Y141254D02*
X260402Y141456D01*
X251225Y150300D02*
Y153525D01*
X250136Y141254D02*
X250183Y141301D01*
X211858Y167459D02*
Y170742D01*
X221700Y189900D02*
Y193500D01*
X222000Y193800D01*
Y195100D01*
X240207Y150400D02*
Y153900D01*
X194172Y189900D02*
Y194972D01*
X232000Y157100D02*
X261693D01*
X230389Y155489D02*
X232000Y157100D01*
X230389Y150300D02*
Y155489D01*
X269100Y161800D02*
Y176900D01*
X261043Y153743D02*
X269100Y161800D01*
Y176900D02*
X269200Y177000D01*
X261693Y157100D02*
X265000Y160407D01*
X261500Y162000D02*
Y187000D01*
X259000Y159500D02*
X261500Y162000D01*
X248100Y159500D02*
X259000D01*
X206936Y185564D02*
X207000Y185500D01*
X200046Y189900D02*
Y193525D01*
X198078Y193678D02*
X203100Y198700D01*
X246000D01*
X198078Y189900D02*
Y193678D01*
X196109Y194009D02*
X202900Y200800D01*
X247700D01*
X196109Y189900D02*
Y194009D01*
X200046Y193525D02*
X203621Y197100D01*
X246000Y198700D02*
X258200Y186500D01*
X247700Y200800D02*
X261500Y187000D01*
X203621Y197100D02*
X243300D01*
X254300Y186100D01*
X265000Y160407D02*
Y187900D01*
X261043Y150300D02*
Y153743D01*
X258200Y162800D02*
Y186500D01*
X221700Y162800D02*
Y167459D01*
Y162800D02*
X224100Y160400D01*
X194139Y165605D02*
Y167457D01*
X188700Y190000D02*
X188800D01*
X188900Y190100D01*
X189100Y189900D01*
X217863Y168459D02*
Y178837D01*
X169104Y150300D02*
X169198D01*
X169080D02*
X169104D01*
X179298D02*
X179692Y150694D01*
X168000Y161900D02*
X194500D01*
X158900Y163600D02*
X193300D01*
X148200Y152900D02*
X158900Y163600D01*
X194500Y161900D02*
X196100Y163500D01*
X195500Y160200D02*
X198078Y162778D01*
X193300Y163600D02*
X194139Y164439D01*
Y167457D02*
X194141Y167459D01*
X158980Y152880D02*
X168000Y161900D01*
X194139Y164439D02*
Y165605D01*
X209889Y163158D02*
X209980Y163067D01*
Y162969D02*
Y163067D01*
X209889Y163158D02*
Y167459D01*
X196700Y158400D02*
X200046Y161747D01*
X197700Y156700D02*
X202015Y161015D01*
X158300Y149776D02*
X159503D01*
X158980Y150300D02*
Y152880D01*
X148200Y150824D02*
X149285D01*
X148400Y149776D02*
X149285D01*
X196100Y163500D02*
Y165591D01*
X198078Y162778D02*
Y167459D01*
X200046Y161747D02*
Y167459D01*
X202015Y161015D02*
Y167459D01*
X209834Y150300D02*
X209952D01*
X196100Y165591D02*
X196102Y165592D01*
Y167451D01*
X196109Y167459D01*
X194141Y165605D02*
Y167459D01*
X148200Y150824D02*
Y152900D01*
X189516Y141493D02*
Y150300D01*
Y141493D02*
X189755Y141254D01*
X169104Y141778D02*
X169627Y141254D01*
X158300Y142518D02*
Y149776D01*
Y142518D02*
X159564Y141254D01*
X148400Y142354D02*
Y149776D01*
Y142354D02*
X149500Y141254D01*
X158861Y150300D02*
X158980D01*
X148761D02*
X149285Y150824D01*
X148643Y150300D02*
X148761D01*
X260925D02*
X261043D01*
X260402Y149776D02*
X260925Y150300D01*
X260402Y141456D02*
Y149776D01*
X250183Y141301D02*
Y149776D01*
X240073Y141254D02*
Y149776D01*
X230009Y149920D02*
X230389Y150300D01*
X230009Y141254D02*
Y149920D01*
X219946Y150075D02*
X220171Y150300D01*
X219946Y141254D02*
Y150075D01*
X209882Y150229D02*
X209952Y150300D01*
X209282Y140854D02*
Y149829D01*
X199734Y150300D02*
X199818Y150216D01*
Y141254D02*
Y150216D01*
X179298Y150300D02*
X179691Y149907D01*
Y141254D02*
Y149907D01*
X158980Y150300D02*
X159503Y149776D01*
X148761Y150300D02*
X149285Y149776D01*
X260200Y135546D02*
X260700Y135046D01*
X226400Y90800D02*
Y91700D01*
X186400Y90800D02*
Y91100D01*
X193800Y47700D02*
Y47800D01*
X184400Y57200D02*
X193800Y47800D01*
X184300Y57200D02*
X184400D01*
X200900Y50600D02*
X231469D01*
X194300Y57200D02*
X200900Y50600D01*
X204300Y57200D02*
X208500Y53000D01*
X238600Y57200D02*
X246409Y65009D01*
X262418D01*
X214300Y57200D02*
X238600D01*
X213826Y168459D02*
Y173174D01*
X269800Y154400D02*
X270200Y154000D01*
X274500Y154200D02*
X274600Y154300D01*
X278896Y153951D02*
Y154304D01*
D37*
X193000Y205700D02*
X219500D01*
Y209953D01*
Y205500D02*
Y205700D01*
Y209953D02*
X219547Y210000D01*
X188800Y209900D02*
X193000Y205700D01*
X211449Y157551D02*
Y161500D01*
X214800Y154200D02*
X224600D01*
X211449Y157551D02*
X214800Y154200D01*
X263957Y146800D02*
Y150300D01*
X192500Y146600D02*
Y150371D01*
X151400Y147000D02*
X151557Y147157D01*
Y150300D01*
X161800Y147100D02*
Y150275D01*
X171993Y147207D02*
X172000Y147200D01*
X171993Y147207D02*
Y150300D01*
X182400Y146400D02*
Y150111D01*
X182211Y150300D02*
X182400Y150111D01*
X212700Y146200D02*
Y149466D01*
X223084Y147116D02*
Y150300D01*
Y147116D02*
X223100Y147100D01*
Y146200D02*
Y147100D01*
X253500Y146700D02*
X253738Y146939D01*
Y150300D01*
X243520Y146720D02*
Y150300D01*
X233300Y146700D02*
Y150298D01*
X202700Y146600D02*
Y150248D01*
X209500Y173100D02*
X211858Y170742D01*
X209500Y173100D02*
Y176000D01*
X216900Y194700D02*
X216926D01*
X217763Y193863D01*
Y189900D02*
Y193863D01*
X217200Y157300D02*
Y161500D01*
D38*
X224500Y228600D02*
X232900D01*
X224500Y229700D02*
Y236328D01*
X190600Y228500D02*
X224500D01*
X188500Y226400D02*
X190600Y228500D01*
X279396Y104596D02*
Y154351D01*
X252700Y78000D02*
X278896Y104196D01*
X283300Y100200D02*
Y154800D01*
X257200Y74100D02*
X283300Y100200D01*
X249900Y82100D02*
X274500Y106700D01*
X207800Y82100D02*
X249900D01*
X194300Y68600D02*
X207800Y82100D01*
X213400Y78000D02*
X252700D01*
X204300Y68900D02*
X213400Y78000D01*
X219700Y74100D02*
X257200D01*
X214300Y68700D02*
X219700Y74100D01*
X200800Y85600D02*
X244700D01*
X184300Y69100D02*
X200800Y85600D01*
X184300Y57200D02*
Y69100D01*
X244700Y85600D02*
X270200Y111100D01*
Y154000D01*
X224600Y154200D02*
X229700Y159300D01*
X219900Y186100D02*
X221100Y184900D01*
X244800D01*
X241500Y159300D02*
X244800Y162600D01*
X229700Y159300D02*
X241500D01*
X244800Y162600D02*
Y168900D01*
X206936Y185564D02*
Y189900D01*
X243500Y146700D02*
X243520Y146720D01*
X188900Y167500D02*
X191931D01*
X214500Y214872D02*
Y219800D01*
X213500Y220800D02*
X214500Y219800D01*
X191500Y220800D02*
X213500D01*
X188700Y218000D02*
X191500Y220800D01*
X213453Y208800D02*
X214500Y209847D01*
Y232500D02*
Y237728D01*
X229500Y232300D02*
Y237728D01*
Y208800D02*
X229600Y208700D01*
X229500Y210100D02*
Y216172D01*
X225453Y210000D02*
X229600D01*
X202800Y210100D02*
X207747D01*
X206936Y189900D02*
X207921D01*
X205952D02*
X206936D01*
X203983D02*
X205952D01*
X209889D02*
X211000D01*
X207921D02*
X209889D01*
X202800D02*
X203983D01*
X189100D02*
X191300D01*
X194300Y57200D02*
Y68600D01*
X204300Y57200D02*
Y68900D01*
X214300Y57200D02*
Y68700D01*
X274500Y106700D02*
Y154200D01*
D39*
X255500Y227000D02*
X272650Y209850D01*
X230300Y227000D02*
X255500D01*
X272650Y209850D02*
X284100Y198400D01*
X306000D01*
X309400Y201800D01*
Y210100D01*
D40*
X219500Y103900D02*
Y135546D01*
X216400Y100800D02*
X219500Y103900D01*
X209282Y128218D02*
Y135146D01*
Y128218D02*
X211600Y125900D01*
Y95600D02*
Y125900D01*
Y95600D02*
X216400Y90800D01*
X199818Y128382D02*
Y135546D01*
Y128382D02*
X200900Y127300D01*
X231300Y114600D02*
X240073Y123373D01*
X231300Y96600D02*
Y114600D01*
X226400Y91700D02*
X231300Y96600D01*
X250400Y125900D02*
Y135282D01*
X169627Y128473D02*
X191500Y106600D01*
Y95700D02*
Y106600D01*
Y95700D02*
X196400Y90800D01*
X159600Y125900D02*
Y135509D01*
X149500Y124000D02*
X172700Y100800D01*
X149500Y124000D02*
Y135546D01*
X172700Y100800D02*
X186400D01*
X214500Y211147D02*
Y216172D01*
X219500Y210047D02*
Y216172D01*
X230009Y125009D02*
Y135546D01*
X226400Y121400D02*
X230009Y125009D01*
X240073Y123373D02*
Y135546D01*
X169627Y128473D02*
Y135546D01*
X260700Y112200D02*
Y135046D01*
X249300Y100800D02*
X260700Y112200D01*
X236400Y100800D02*
X249300D01*
X226400D02*
Y121400D01*
X189755Y124145D02*
Y135546D01*
Y124145D02*
X206400Y107500D01*
Y100800D02*
Y107500D01*
X179691Y125309D02*
Y135546D01*
Y125309D02*
X196400Y108600D01*
Y100800D02*
Y108600D01*
D41*
X244800Y184900D02*
Y186700D01*
Y168900D02*
Y184900D01*
Y186700D02*
X246100Y188000D01*
X260000Y197600D02*
X260400D01*
X272650Y209850D01*
D42*
X209500Y176000D02*
Y176500D01*
D43*
X213826Y189900D02*
X215794D01*
D44*
X309400Y210100D02*
D03*
X299400D02*
D03*
X236400Y100800D02*
D03*
Y90800D02*
D03*
X226400D02*
D03*
Y100800D02*
D03*
X216400D02*
D03*
Y90800D02*
D03*
X206400D02*
D03*
Y100800D02*
D03*
X196400D02*
D03*
Y90800D02*
D03*
X186400D02*
D03*
Y100800D02*
D03*
D45*
X300400Y103800D02*
D03*
X292500D02*
D03*
Y111700D02*
D03*
X300400D02*
D03*
Y119500D02*
D03*
X292500D02*
D03*
Y127500D02*
D03*
X300400D02*
D03*
Y135300D02*
D03*
X292500D02*
D03*
Y143200D02*
D03*
X300400D02*
D03*
Y151000D02*
D03*
X292500D02*
D03*
Y158900D02*
D03*
X300400D02*
D03*
Y166800D02*
D03*
X292500D02*
D03*
Y174700D02*
D03*
X300400D02*
D03*
Y182600D02*
D03*
X292500D02*
D03*
X88300Y103900D02*
D03*
X80400D02*
D03*
Y111800D02*
D03*
X88300D02*
D03*
Y119600D02*
D03*
X80400D02*
D03*
Y127600D02*
D03*
X88300D02*
D03*
Y135400D02*
D03*
X80400D02*
D03*
Y143300D02*
D03*
X88300D02*
D03*
Y151100D02*
D03*
X80400D02*
D03*
Y159000D02*
D03*
X88300D02*
D03*
Y166900D02*
D03*
X80400D02*
D03*
Y174800D02*
D03*
X88300D02*
D03*
Y182700D02*
D03*
X80400D02*
D03*
D46*
X68700Y182719D02*
D03*
Y174819D02*
D03*
Y159019D02*
D03*
Y166919D02*
D03*
Y151119D02*
D03*
Y143219D02*
D03*
X68600Y127419D02*
D03*
Y135319D02*
D03*
X68700Y119519D02*
D03*
Y111619D02*
D03*
Y103919D02*
D03*
X60900D02*
D03*
Y111619D02*
D03*
Y119519D02*
D03*
X60800Y135319D02*
D03*
Y127419D02*
D03*
X60900Y143219D02*
D03*
Y151119D02*
D03*
Y166919D02*
D03*
Y159019D02*
D03*
Y174819D02*
D03*
Y182719D02*
D03*
X310200Y103700D02*
D03*
Y111600D02*
D03*
Y127400D02*
D03*
Y119500D02*
D03*
Y135300D02*
D03*
Y143200D02*
D03*
X310300Y159000D02*
D03*
Y151100D02*
D03*
X310200Y166900D02*
D03*
Y174800D02*
D03*
Y182500D02*
D03*
X318000D02*
D03*
Y174800D02*
D03*
Y166900D02*
D03*
X318100Y151100D02*
D03*
Y159000D02*
D03*
X318000Y143200D02*
D03*
Y135300D02*
D03*
Y119500D02*
D03*
Y127400D02*
D03*
Y111600D02*
D03*
Y103700D02*
D03*
D47*
X309300Y56900D02*
D03*
X68800Y57000D02*
D03*
X68700Y229400D02*
D03*
X309400D02*
D03*
D48*
X184300Y57200D02*
D03*
D49*
X283300Y155500D02*
D03*
X232400Y61200D02*
D03*
X228200D02*
D03*
X236500D02*
D03*
X220400Y181100D02*
D03*
X217863Y178837D02*
D03*
X215595Y175706D02*
D03*
X213645Y173355D02*
D03*
X172000Y147200D02*
D03*
X161800Y147100D02*
D03*
X151400Y147000D02*
D03*
X188900Y167500D02*
D03*
X228200Y47800D02*
D03*
X232400Y50200D02*
D03*
X236400Y52800D02*
D03*
X269800Y154400D02*
D03*
X274600Y154300D02*
D03*
X279300Y154800D02*
D03*
D50*
X250400Y125900D02*
D03*
X200900Y127300D02*
D03*
X159600Y125900D02*
D03*
X246100Y188000D02*
D03*
X260000Y197600D02*
D03*
X232200Y193200D02*
D03*
X182400Y146400D02*
D03*
X223100Y146200D02*
D03*
X253500Y146700D02*
D03*
X263900Y146800D02*
D03*
X243500Y146700D02*
D03*
X233300D02*
D03*
X212700Y146200D02*
D03*
X202700Y146600D02*
D03*
X192500D02*
D03*
X214500Y232500D02*
D03*
X229500Y232300D02*
D03*
X209500Y176500D02*
D03*
X216900Y194700D02*
D03*
X222000Y195100D02*
D03*
X219500Y205500D02*
D03*
X229600Y210000D02*
D03*
X202800Y210100D02*
D03*
X217200Y157300D02*
D03*
X240200Y153800D02*
D03*
X251300Y154000D02*
D03*
X248100Y159500D02*
D03*
X207000Y185500D02*
D03*
X254300Y186100D02*
D03*
X269200Y177000D02*
D03*
X258200Y162800D02*
D03*
X224100Y160400D02*
D03*
X188700Y190000D02*
D03*
M02*
