G04 Layer_Color=8421504*
%FSLAX25Y25*%
%MOIN*%
G70*
G01*
G75*
%ADD10R,0.03740X0.04134*%
%ADD11R,0.03543X0.02756*%
%ADD12O,0.05512X0.01181*%
%ADD13R,0.03937X0.04331*%
%ADD14R,0.05709X0.02362*%
%ADD15O,0.02362X0.07480*%
%ADD16R,0.04331X0.03937*%
D10*
X657634Y1022689D02*
D03*
X663342D02*
D03*
X663146Y733500D02*
D03*
X668854D02*
D03*
X413634Y1132689D02*
D03*
X419342D02*
D03*
X412646Y812000D02*
D03*
X418354D02*
D03*
X719733Y741622D02*
D03*
X714024D02*
D03*
X714366Y1031311D02*
D03*
X708657D02*
D03*
X469488Y982689D02*
D03*
X475197D02*
D03*
X468000Y663500D02*
D03*
X473709D02*
D03*
X664122Y899378D02*
D03*
X669830D02*
D03*
X658512Y1182311D02*
D03*
X652803D02*
D03*
X468646Y1150500D02*
D03*
X474354D02*
D03*
X467146Y827000D02*
D03*
X472854D02*
D03*
D11*
X660000Y952594D02*
D03*
Y958500D02*
D03*
X414000Y1063500D02*
D03*
Y1069406D02*
D03*
X412500Y740547D02*
D03*
Y746453D02*
D03*
X719500Y810453D02*
D03*
Y804547D02*
D03*
X714000Y1100000D02*
D03*
Y1094094D02*
D03*
X469500Y1046906D02*
D03*
Y1041000D02*
D03*
X468000Y724406D02*
D03*
Y718500D02*
D03*
X664500Y829095D02*
D03*
Y835000D02*
D03*
X658500Y1118094D02*
D03*
Y1124000D02*
D03*
X468500Y1211000D02*
D03*
Y1205095D02*
D03*
X467000Y888406D02*
D03*
Y882500D02*
D03*
X665000Y664047D02*
D03*
Y669953D02*
D03*
D12*
X555500Y616780D02*
D03*
Y614811D02*
D03*
Y612843D02*
D03*
Y610874D02*
D03*
Y608906D02*
D03*
Y606937D02*
D03*
Y604969D02*
D03*
Y603000D02*
D03*
Y601032D02*
D03*
Y599063D02*
D03*
Y597095D02*
D03*
Y595126D02*
D03*
Y593158D02*
D03*
Y591189D02*
D03*
Y589221D02*
D03*
Y587252D02*
D03*
Y585284D02*
D03*
Y583315D02*
D03*
Y581346D02*
D03*
X578728Y616780D02*
D03*
Y614811D02*
D03*
Y612843D02*
D03*
Y610874D02*
D03*
Y608906D02*
D03*
Y606937D02*
D03*
Y604969D02*
D03*
Y603000D02*
D03*
Y601032D02*
D03*
Y599063D02*
D03*
Y597095D02*
D03*
Y595126D02*
D03*
Y593158D02*
D03*
Y591189D02*
D03*
Y589221D02*
D03*
Y587252D02*
D03*
Y585284D02*
D03*
Y583315D02*
D03*
Y581346D02*
D03*
D13*
X590854Y568700D02*
D03*
X585146D02*
D03*
X419342Y1123689D02*
D03*
X413634D02*
D03*
X418354Y801500D02*
D03*
X412646D02*
D03*
X714024Y750622D02*
D03*
X719733D02*
D03*
X708657Y1040311D02*
D03*
X714366D02*
D03*
X475197Y973689D02*
D03*
X469488D02*
D03*
X473685Y652878D02*
D03*
X467976D02*
D03*
X669830Y890378D02*
D03*
X664122D02*
D03*
X652803Y1191311D02*
D03*
X658512D02*
D03*
X474354Y1140000D02*
D03*
X468646D02*
D03*
X472854Y818000D02*
D03*
X467146D02*
D03*
X668854Y725000D02*
D03*
X663146D02*
D03*
X663342Y1013689D02*
D03*
X657634D02*
D03*
X590354Y556800D02*
D03*
X584646D02*
D03*
D14*
X578028Y557400D02*
D03*
Y562400D02*
D03*
Y567400D02*
D03*
Y572400D02*
D03*
X556572Y557400D02*
D03*
Y562400D02*
D03*
Y567400D02*
D03*
Y572400D02*
D03*
D15*
X413988Y1076988D02*
D03*
X418988D02*
D03*
X423988D02*
D03*
X428988D02*
D03*
X433988D02*
D03*
X438988D02*
D03*
X443988D02*
D03*
X448988D02*
D03*
X453988D02*
D03*
X458988D02*
D03*
X463988D02*
D03*
X468988D02*
D03*
X413988Y1114390D02*
D03*
X418988D02*
D03*
X423988D02*
D03*
X428988D02*
D03*
X433988D02*
D03*
X438988D02*
D03*
X443988D02*
D03*
X448988D02*
D03*
X453988D02*
D03*
X458988D02*
D03*
X463988D02*
D03*
X468988D02*
D03*
X412500Y754299D02*
D03*
X417500D02*
D03*
X422500D02*
D03*
X427500D02*
D03*
X432500D02*
D03*
X437500D02*
D03*
X442500D02*
D03*
X447500D02*
D03*
X452500D02*
D03*
X457500D02*
D03*
X462500D02*
D03*
X467500D02*
D03*
X412500Y791701D02*
D03*
X417500D02*
D03*
X422500D02*
D03*
X427500D02*
D03*
X432500D02*
D03*
X437500D02*
D03*
X442500D02*
D03*
X447500D02*
D03*
X452500D02*
D03*
X457500D02*
D03*
X462500D02*
D03*
X467500D02*
D03*
X719378Y797323D02*
D03*
X714378D02*
D03*
X709378D02*
D03*
X704378D02*
D03*
X699378D02*
D03*
X694378D02*
D03*
X689378D02*
D03*
X684378D02*
D03*
X679378D02*
D03*
X674378D02*
D03*
X669378D02*
D03*
X664378D02*
D03*
X719378Y759922D02*
D03*
X714378D02*
D03*
X709378D02*
D03*
X704378D02*
D03*
X699378D02*
D03*
X694378D02*
D03*
X689378D02*
D03*
X684378D02*
D03*
X679378D02*
D03*
X674378D02*
D03*
X669378D02*
D03*
X664378D02*
D03*
X714012Y1087012D02*
D03*
X709012D02*
D03*
X704012D02*
D03*
X699012D02*
D03*
X694012D02*
D03*
X689012D02*
D03*
X684012D02*
D03*
X679012D02*
D03*
X674012D02*
D03*
X669012D02*
D03*
X664012D02*
D03*
X659012D02*
D03*
X714012Y1049610D02*
D03*
X709012D02*
D03*
X704012D02*
D03*
X699012D02*
D03*
X694012D02*
D03*
X689012D02*
D03*
X684012D02*
D03*
X679012D02*
D03*
X674012D02*
D03*
X669012D02*
D03*
X664012D02*
D03*
X659012D02*
D03*
X469512Y1033512D02*
D03*
X464512D02*
D03*
X459512D02*
D03*
X454512D02*
D03*
X449512D02*
D03*
X444512D02*
D03*
X439512D02*
D03*
X434512D02*
D03*
X429512D02*
D03*
X424512D02*
D03*
X419512D02*
D03*
X414512D02*
D03*
X469512Y996110D02*
D03*
X464512D02*
D03*
X459512D02*
D03*
X454512D02*
D03*
X449512D02*
D03*
X444512D02*
D03*
X439512D02*
D03*
X434512D02*
D03*
X429512D02*
D03*
X424512D02*
D03*
X419512D02*
D03*
X414512D02*
D03*
X467876Y710726D02*
D03*
X462876D02*
D03*
X457876D02*
D03*
X452876D02*
D03*
X447876D02*
D03*
X442876D02*
D03*
X437876D02*
D03*
X432876D02*
D03*
X427876D02*
D03*
X422876D02*
D03*
X417876D02*
D03*
X412876D02*
D03*
X467876Y673324D02*
D03*
X462876D02*
D03*
X457876D02*
D03*
X452876D02*
D03*
X447876D02*
D03*
X442876D02*
D03*
X437876D02*
D03*
X432876D02*
D03*
X427876D02*
D03*
X422876D02*
D03*
X417876D02*
D03*
X412876D02*
D03*
X664354Y842799D02*
D03*
X669354D02*
D03*
X674354D02*
D03*
X679354D02*
D03*
X684354D02*
D03*
X689354D02*
D03*
X694354D02*
D03*
X699354D02*
D03*
X704354D02*
D03*
X709354D02*
D03*
X714354D02*
D03*
X719354D02*
D03*
X664354Y880201D02*
D03*
X669354D02*
D03*
X674354D02*
D03*
X679354D02*
D03*
X684354D02*
D03*
X689354D02*
D03*
X694354D02*
D03*
X699354D02*
D03*
X704354D02*
D03*
X709354D02*
D03*
X714354D02*
D03*
X719354D02*
D03*
X658488Y1131488D02*
D03*
X663488D02*
D03*
X668488D02*
D03*
X673488D02*
D03*
X678488D02*
D03*
X683488D02*
D03*
X688488D02*
D03*
X693488D02*
D03*
X698488D02*
D03*
X703488D02*
D03*
X708488D02*
D03*
X713488D02*
D03*
X658488Y1168890D02*
D03*
X663488D02*
D03*
X668488D02*
D03*
X673488D02*
D03*
X678488D02*
D03*
X683488D02*
D03*
X688488D02*
D03*
X693488D02*
D03*
X698488D02*
D03*
X703488D02*
D03*
X708488D02*
D03*
X713488D02*
D03*
X468512Y1197811D02*
D03*
X463512D02*
D03*
X458512D02*
D03*
X453512D02*
D03*
X448512D02*
D03*
X443512D02*
D03*
X438512D02*
D03*
X433512D02*
D03*
X428512D02*
D03*
X423512D02*
D03*
X418512D02*
D03*
X413512D02*
D03*
X468512Y1160410D02*
D03*
X463512D02*
D03*
X458512D02*
D03*
X453512D02*
D03*
X448512D02*
D03*
X443512D02*
D03*
X438512D02*
D03*
X433512D02*
D03*
X428512D02*
D03*
X423512D02*
D03*
X418512D02*
D03*
X413512D02*
D03*
X412000Y837799D02*
D03*
X417000D02*
D03*
X422000D02*
D03*
X427000D02*
D03*
X432000D02*
D03*
X437000D02*
D03*
X442000D02*
D03*
X447000D02*
D03*
X452000D02*
D03*
X457000D02*
D03*
X462000D02*
D03*
X467000D02*
D03*
X412000Y875201D02*
D03*
X417000D02*
D03*
X422000D02*
D03*
X427000D02*
D03*
X432000D02*
D03*
X437000D02*
D03*
X442000D02*
D03*
X447000D02*
D03*
X452000D02*
D03*
X457000D02*
D03*
X462000D02*
D03*
X467000D02*
D03*
X665000Y677299D02*
D03*
X670000D02*
D03*
X675000D02*
D03*
X680000D02*
D03*
X685000D02*
D03*
X690000D02*
D03*
X695000D02*
D03*
X700000D02*
D03*
X705000D02*
D03*
X710000D02*
D03*
X715000D02*
D03*
X720000D02*
D03*
X665000Y714701D02*
D03*
X670000D02*
D03*
X675000D02*
D03*
X680000D02*
D03*
X685000D02*
D03*
X690000D02*
D03*
X695000D02*
D03*
X700000D02*
D03*
X705000D02*
D03*
X710000D02*
D03*
X715000D02*
D03*
X720000D02*
D03*
X714988Y1004090D02*
D03*
X709988D02*
D03*
X704988D02*
D03*
X699988D02*
D03*
X694988D02*
D03*
X689988D02*
D03*
X684988D02*
D03*
X679988D02*
D03*
X674988D02*
D03*
X669988D02*
D03*
X664988D02*
D03*
X659988D02*
D03*
X714988Y966689D02*
D03*
X709988D02*
D03*
X704988D02*
D03*
X699988D02*
D03*
X694988D02*
D03*
X689988D02*
D03*
X684988D02*
D03*
X679988D02*
D03*
X674988D02*
D03*
X669988D02*
D03*
X664988D02*
D03*
X659988D02*
D03*
D16*
X549700Y561646D02*
D03*
Y567354D02*
D03*
M02*
