G04 Layer_Color=65535*
%FSLAX25Y25*%
%MOIN*%
G70*
G01*
G75*
%ADD17C,0.01000*%
%ADD23C,0.00500*%
%ADD33C,0.02362*%
%ADD34C,0.00984*%
%ADD35C,0.01102*%
%ADD36C,0.00787*%
G36*
X821476Y633504D02*
X821546Y633490D01*
X821560D01*
X821601Y633476D01*
X821671Y633448D01*
X821740Y633407D01*
X821754Y633393D01*
X821782Y633351D01*
X821823Y633296D01*
X821865Y633226D01*
X821879Y633212D01*
X821893Y633157D01*
X821907Y633087D01*
X821921Y632990D01*
Y632976D01*
Y632962D01*
X821907Y632865D01*
X821879Y632754D01*
X821823Y632643D01*
X821809Y632629D01*
X821754Y632574D01*
X821671Y632504D01*
X821546Y632449D01*
X822004Y631602D01*
X821643D01*
X821254Y632421D01*
X820866D01*
Y631602D01*
X820574D01*
Y633518D01*
X821407D01*
X821476Y633504D01*
D02*
G37*
G36*
X826681Y631880D02*
X827639D01*
Y631602D01*
X826404D01*
Y633518D01*
X826681D01*
Y631880D01*
D02*
G37*
G36*
X829485Y631602D02*
X829166D01*
X829027Y632019D01*
X828292D01*
X828153Y631602D01*
X827833D01*
X828541Y633518D01*
X828777D01*
X829485Y631602D01*
D02*
G37*
G36*
X819561Y633518D02*
X819630Y633504D01*
X819644D01*
X819686Y633490D01*
X819741Y633476D01*
X819797Y633434D01*
X819811Y633421D01*
X819852Y633407D01*
X819936Y633323D01*
X819950Y633309D01*
X819963Y633282D01*
X820019Y633198D01*
X820033Y633171D01*
X820061Y633101D01*
X820074Y633074D01*
X820102Y633004D01*
Y632990D01*
Y632962D01*
Y632907D01*
Y632837D01*
Y632824D01*
X820116Y632768D01*
Y632685D01*
Y632574D01*
Y632560D01*
Y632546D01*
Y632477D01*
Y632379D01*
X820102Y632282D01*
Y632268D01*
Y632227D01*
Y632171D01*
Y632116D01*
Y632102D01*
X820088Y632088D01*
X820061Y632005D01*
X820047Y631977D01*
X820019Y631921D01*
Y631908D01*
X820005Y631880D01*
X819936Y631797D01*
X819922Y631783D01*
X819894Y631769D01*
X819852Y631727D01*
X819797Y631685D01*
X819783D01*
X819755Y631658D01*
X819700Y631644D01*
X819630Y631616D01*
X819617D01*
X819575Y631602D01*
X819505Y631588D01*
X819353D01*
X819283Y631602D01*
X819214Y631616D01*
X819200D01*
X819158Y631630D01*
X819047Y631685D01*
X819034Y631699D01*
X819006Y631727D01*
X818909Y631797D01*
X818895Y631810D01*
X818881Y631838D01*
X818825Y631921D01*
X818811Y631935D01*
X818798Y631963D01*
Y631977D01*
X818784Y632005D01*
Y632019D01*
X818770Y632046D01*
Y632060D01*
Y632074D01*
X818756Y632116D01*
Y632130D01*
Y632157D01*
Y632213D01*
X818742Y632282D01*
Y632296D01*
Y632366D01*
X818728Y632449D01*
Y632574D01*
Y632588D01*
Y632602D01*
Y632671D01*
Y632754D01*
X818742Y632837D01*
Y632851D01*
X818756Y632907D01*
Y632949D01*
Y633004D01*
Y633018D01*
X818770Y633032D01*
X818784Y633101D01*
Y633115D01*
X818798Y633129D01*
X818825Y633198D01*
Y633212D01*
X818853Y633240D01*
X818909Y633323D01*
X818923Y633337D01*
X818950Y633365D01*
X818992Y633407D01*
X819047Y633434D01*
X819061Y633448D01*
X819089Y633462D01*
X819145Y633490D01*
X819214Y633504D01*
X819228D01*
X819283Y633518D01*
X819339Y633532D01*
X819492D01*
X819561Y633518D01*
D02*
G37*
G36*
X814231Y633254D02*
X813287D01*
Y632685D01*
X814092D01*
Y632421D01*
X813287D01*
Y631602D01*
X812996D01*
Y633518D01*
X814231D01*
Y633254D01*
D02*
G37*
G36*
X818437D02*
X817507D01*
Y632685D01*
X818312D01*
Y632421D01*
X817507D01*
Y631602D01*
X817215D01*
Y633518D01*
X818437D01*
Y633254D01*
D02*
G37*
G36*
X833746Y631602D02*
X833427D01*
X833288Y632019D01*
X832553D01*
X832414Y631602D01*
X832095D01*
X832802Y633518D01*
X833038D01*
X833746Y631602D01*
D02*
G37*
G36*
X841019Y633254D02*
X840076D01*
Y632699D01*
X840881D01*
Y632435D01*
X840076D01*
Y631880D01*
X841019D01*
Y631602D01*
X839784D01*
Y633518D01*
X841019D01*
Y633254D01*
D02*
G37*
G36*
X844226Y633268D02*
X843698D01*
Y631602D01*
X843407D01*
Y633268D01*
X842879D01*
Y633518D01*
X844226D01*
Y633268D01*
D02*
G37*
G36*
X845461Y633504D02*
X845530Y633490D01*
X845544D01*
X845586Y633476D01*
X845697Y633407D01*
X845711Y633393D01*
X845753Y633351D01*
X845794Y633296D01*
X845836Y633226D01*
X845850Y633212D01*
X845864Y633157D01*
X845877Y633087D01*
X845891Y632990D01*
Y632976D01*
Y632962D01*
X845877Y632865D01*
X845850Y632754D01*
X845794Y632643D01*
X845780Y632629D01*
X845725Y632574D01*
X845642Y632504D01*
X845530Y632449D01*
X845961Y631602D01*
X845628D01*
X845211Y632421D01*
X844850D01*
Y631602D01*
X844559D01*
Y633518D01*
X845378D01*
X845461Y633504D01*
D02*
G37*
G36*
X835301Y633254D02*
X834371D01*
Y632699D01*
X835176D01*
Y632435D01*
X834371D01*
Y631880D01*
X835301D01*
Y631602D01*
X834079D01*
Y633518D01*
X835301D01*
Y633254D01*
D02*
G37*
G36*
X837730D02*
X836800D01*
Y632699D01*
X837605D01*
Y632435D01*
X836800D01*
Y631880D01*
X837730D01*
Y631602D01*
X836508D01*
Y633518D01*
X837730D01*
Y633254D01*
D02*
G37*
G36*
X838438Y631880D02*
X839382D01*
Y631602D01*
X838146D01*
Y633518D01*
X838438D01*
Y631880D01*
D02*
G37*
G36*
X805001Y641735D02*
X805015Y641707D01*
X805056Y641665D01*
X805112Y641596D01*
X805167Y641526D01*
X805237Y641429D01*
X805320Y641318D01*
X805403Y641207D01*
X805598Y640930D01*
X805778Y640610D01*
X805972Y640249D01*
X806139Y639875D01*
Y639861D01*
X806153Y639833D01*
X806181Y639778D01*
X806208Y639694D01*
X806236Y639597D01*
X806278Y639486D01*
X806319Y639361D01*
X806361Y639208D01*
X806444Y638889D01*
X806528Y638528D01*
X806583Y638126D01*
X806625Y637709D01*
Y637696D01*
Y637654D01*
Y637598D01*
Y637515D01*
Y637418D01*
Y637293D01*
Y637154D01*
X806611Y637002D01*
X806583Y636668D01*
X806542Y636294D01*
X806458Y635891D01*
X806361Y635475D01*
Y635461D01*
X806347Y635433D01*
X806333Y635364D01*
X806306Y635294D01*
X806264Y635197D01*
X806222Y635086D01*
X806181Y634947D01*
X806125Y634808D01*
X805986Y634503D01*
X805820Y634170D01*
X805625Y633809D01*
X805389Y633462D01*
X805376Y633448D01*
X805362Y633421D01*
X805320Y633379D01*
X805265Y633309D01*
X805209Y633226D01*
X805126Y633129D01*
X804945Y632921D01*
X804709Y632671D01*
X804432Y632407D01*
X804126Y632130D01*
X803779Y631880D01*
X803765D01*
X803738Y631852D01*
X803682Y631824D01*
X803613Y631783D01*
X803530Y631727D01*
X803432Y631658D01*
X803308Y631588D01*
X803183Y631519D01*
X802877Y631366D01*
X802530Y631214D01*
X802155Y631061D01*
X801753Y630936D01*
X801739D01*
X801684Y630922D01*
X801586Y630894D01*
X801475Y630867D01*
X801336Y630839D01*
X801198Y630811D01*
X800865Y630756D01*
X800851D01*
X800795Y630742D01*
X800698D01*
X800587Y630728D01*
X800462Y630714D01*
X800309D01*
X799976Y630700D01*
X799865D01*
X799740Y630714D01*
X799574D01*
X799366Y630728D01*
X799157Y630756D01*
X798921Y630783D01*
X798672Y630825D01*
X798644D01*
X798560Y630853D01*
X798436Y630880D01*
X798269Y630922D01*
X798075Y630978D01*
X797866Y631047D01*
X797408Y631214D01*
X797519Y631505D01*
X797533D01*
X797561Y631491D01*
X797617Y631463D01*
X797700Y631436D01*
X797797Y631394D01*
X797908Y631366D01*
X798033Y631325D01*
X798172Y631283D01*
X798491Y631186D01*
X798852Y631103D01*
X799227Y631047D01*
X799629Y631005D01*
X800296D01*
X800601Y631033D01*
X800962Y631075D01*
X801336Y631130D01*
X801711Y631227D01*
X801725D01*
X801753Y631241D01*
X801808Y631255D01*
X801878Y631283D01*
X801975Y631311D01*
X802072Y631352D01*
X802322Y631450D01*
X802614Y631574D01*
X802933Y631727D01*
X803266Y631921D01*
X803599Y632130D01*
X803613Y632143D01*
X803641Y632157D01*
X803682Y632185D01*
X803752Y632241D01*
X803821Y632296D01*
X803918Y632366D01*
X804126Y632546D01*
X804362Y632768D01*
X804626Y633018D01*
X804890Y633309D01*
X805140Y633643D01*
X805153Y633656D01*
X805167Y633684D01*
X805209Y633740D01*
X805251Y633795D01*
X805306Y633879D01*
X805362Y633990D01*
X805431Y634101D01*
X805501Y634226D01*
X805653Y634517D01*
X805820Y634850D01*
X805959Y635197D01*
X806083Y635586D01*
Y635600D01*
X806097Y635627D01*
X806111Y635683D01*
X806125Y635766D01*
X806153Y635863D01*
X806181Y635974D01*
X806208Y636099D01*
X806236Y636238D01*
X806278Y636544D01*
X806319Y636904D01*
X806333Y637265D01*
Y637654D01*
Y637668D01*
Y637696D01*
Y637751D01*
X806319Y637834D01*
X806306Y637931D01*
Y638042D01*
X806278Y638167D01*
X806264Y638306D01*
X806208Y638612D01*
X806125Y638959D01*
X806028Y639333D01*
X805889Y639708D01*
Y639722D01*
X805875Y639750D01*
X805847Y639805D01*
X805820Y639875D01*
X805778Y639972D01*
X805723Y640069D01*
X805598Y640319D01*
X805445Y640596D01*
X805251Y640902D01*
X805015Y641221D01*
X804751Y641540D01*
X804987Y641749D01*
X805001Y641735D01*
D02*
G37*
G36*
X503353Y582424D02*
X503372D01*
X503416Y582419D01*
X503464Y582412D01*
X503515Y582401D01*
X503570Y582387D01*
X503623Y582369D01*
X503626D01*
X503630Y582366D01*
X503637Y582364D01*
X503647Y582359D01*
X503672Y582345D01*
X503704Y582329D01*
X503739Y582306D01*
X503776Y582278D01*
X503811Y582248D01*
X503843Y582211D01*
X503848Y582207D01*
X503857Y582193D01*
X503871Y582172D01*
X503889Y582142D01*
X503908Y582105D01*
X503928Y582059D01*
X503949Y582008D01*
X503965Y581950D01*
X503774Y581900D01*
Y581902D01*
X503771Y581904D01*
X503769Y581911D01*
X503767Y581920D01*
X503760Y581941D01*
X503751Y581969D01*
X503737Y582001D01*
X503721Y582031D01*
X503704Y582064D01*
X503684Y582091D01*
X503681Y582094D01*
X503674Y582103D01*
X503660Y582114D01*
X503644Y582131D01*
X503623Y582149D01*
X503596Y582167D01*
X503566Y582186D01*
X503531Y582202D01*
X503526Y582204D01*
X503515Y582209D01*
X503494Y582216D01*
X503466Y582225D01*
X503434Y582232D01*
X503397Y582239D01*
X503356Y582244D01*
X503312Y582246D01*
X503286D01*
X503275Y582244D01*
X503261D01*
X503226Y582241D01*
X503187Y582234D01*
X503143Y582228D01*
X503101Y582216D01*
X503060Y582200D01*
X503055Y582198D01*
X503041Y582193D01*
X503023Y582181D01*
X503000Y582170D01*
X502972Y582151D01*
X502942Y582133D01*
X502914Y582110D01*
X502889Y582084D01*
X502887Y582082D01*
X502877Y582073D01*
X502866Y582057D01*
X502852Y582038D01*
X502836Y582015D01*
X502820Y581987D01*
X502803Y581957D01*
X502787Y581925D01*
Y581923D01*
X502785Y581918D01*
X502783Y581911D01*
X502778Y581900D01*
X502773Y581886D01*
X502769Y581870D01*
X502762Y581851D01*
X502757Y581830D01*
X502746Y581782D01*
X502736Y581726D01*
X502730Y581669D01*
X502727Y581604D01*
Y581602D01*
Y581595D01*
Y581583D01*
X502730Y581569D01*
Y581551D01*
X502732Y581528D01*
X502734Y581505D01*
X502736Y581479D01*
X502746Y581421D01*
X502757Y581361D01*
X502776Y581301D01*
X502799Y581244D01*
Y581241D01*
X502803Y581237D01*
X502806Y581230D01*
X502813Y581220D01*
X502829Y581195D01*
X502854Y581163D01*
X502884Y581128D01*
X502921Y581093D01*
X502965Y581061D01*
X503014Y581031D01*
X503016D01*
X503021Y581029D01*
X503027Y581024D01*
X503039Y581019D01*
X503051Y581015D01*
X503067Y581010D01*
X503104Y580996D01*
X503150Y580985D01*
X503201Y580973D01*
X503256Y580964D01*
X503314Y580962D01*
X503337D01*
X503351Y580964D01*
X503365D01*
X503399Y580969D01*
X503441Y580973D01*
X503485Y580982D01*
X503533Y580996D01*
X503582Y581012D01*
X503584D01*
X503589Y581015D01*
X503593Y581017D01*
X503603Y581022D01*
X503628Y581033D01*
X503656Y581047D01*
X503688Y581063D01*
X503723Y581082D01*
X503755Y581103D01*
X503783Y581126D01*
Y581426D01*
X503312D01*
Y581615D01*
X503991D01*
Y581022D01*
X503989Y581019D01*
X503984Y581017D01*
X503975Y581010D01*
X503963Y581001D01*
X503949Y580992D01*
X503933Y580980D01*
X503912Y580966D01*
X503891Y580953D01*
X503843Y580922D01*
X503788Y580890D01*
X503730Y580860D01*
X503667Y580835D01*
X503665D01*
X503660Y580832D01*
X503651Y580830D01*
X503640Y580825D01*
X503623Y580821D01*
X503605Y580814D01*
X503584Y580809D01*
X503563Y580805D01*
X503513Y580793D01*
X503455Y580782D01*
X503393Y580775D01*
X503328Y580772D01*
X503305D01*
X503289Y580775D01*
X503268D01*
X503242Y580777D01*
X503215Y580782D01*
X503185Y580784D01*
X503118Y580798D01*
X503046Y580814D01*
X502972Y580839D01*
X502935Y580853D01*
X502898Y580872D01*
X502896Y580874D01*
X502889Y580876D01*
X502880Y580883D01*
X502866Y580890D01*
X502850Y580902D01*
X502834Y580913D01*
X502790Y580945D01*
X502743Y580987D01*
X502695Y581038D01*
X502649Y581096D01*
X502607Y581163D01*
Y581165D01*
X502602Y581172D01*
X502598Y581181D01*
X502591Y581197D01*
X502584Y581214D01*
X502577Y581237D01*
X502568Y581260D01*
X502559Y581287D01*
X502549Y581317D01*
X502540Y581352D01*
X502533Y581387D01*
X502526Y581424D01*
X502515Y581505D01*
X502510Y581590D01*
Y581592D01*
Y581602D01*
Y581613D01*
X502512Y581629D01*
Y581650D01*
X502515Y581675D01*
X502519Y581701D01*
X502522Y581731D01*
X502528Y581763D01*
X502533Y581798D01*
X502552Y581872D01*
X502575Y581948D01*
X502607Y582024D01*
X502609Y582027D01*
X502612Y582033D01*
X502616Y582043D01*
X502626Y582057D01*
X502635Y582075D01*
X502646Y582094D01*
X502679Y582137D01*
X502718Y582188D01*
X502767Y582237D01*
X502822Y582285D01*
X502854Y582306D01*
X502887Y582327D01*
X502889Y582329D01*
X502896Y582332D01*
X502905Y582336D01*
X502919Y582343D01*
X502937Y582350D01*
X502958Y582359D01*
X502981Y582369D01*
X503009Y582378D01*
X503039Y582387D01*
X503071Y582394D01*
X503106Y582403D01*
X503143Y582410D01*
X503224Y582422D01*
X503265Y582426D01*
X503339D01*
X503353Y582424D01*
D02*
G37*
G36*
X502156Y587396D02*
X502202Y587394D01*
X502248Y587389D01*
X502295Y587382D01*
X502334Y587375D01*
X502336D01*
X502341Y587373D01*
X502348D01*
X502357Y587368D01*
X502382Y587362D01*
X502415Y587350D01*
X502452Y587334D01*
X502491Y587313D01*
X502530Y587290D01*
X502567Y587260D01*
X502569Y587258D01*
X502572Y587255D01*
X502579Y587248D01*
X502588Y587241D01*
X502611Y587218D01*
X502639Y587186D01*
X502669Y587147D01*
X502701Y587101D01*
X502731Y587047D01*
X502757Y586987D01*
Y586985D01*
X502759Y586980D01*
X502764Y586971D01*
X502766Y586957D01*
X502773Y586941D01*
X502777Y586923D01*
X502782Y586902D01*
X502789Y586876D01*
X502796Y586851D01*
X502801Y586821D01*
X502812Y586756D01*
X502819Y586685D01*
X502821Y586606D01*
Y586604D01*
Y586599D01*
Y586588D01*
Y586576D01*
X502819Y586560D01*
Y586542D01*
X502817Y586498D01*
X502810Y586447D01*
X502803Y586394D01*
X502791Y586338D01*
X502777Y586283D01*
Y586280D01*
X502775Y586276D01*
X502773Y586269D01*
X502771Y586260D01*
X502761Y586234D01*
X502747Y586202D01*
X502734Y586165D01*
X502715Y586128D01*
X502692Y586089D01*
X502669Y586052D01*
X502667Y586047D01*
X502657Y586036D01*
X502643Y586019D01*
X502625Y585999D01*
X502604Y585976D01*
X502579Y585953D01*
X502553Y585927D01*
X502523Y585906D01*
X502519Y585904D01*
X502509Y585897D01*
X502493Y585888D01*
X502470Y585876D01*
X502443Y585862D01*
X502410Y585851D01*
X502373Y585837D01*
X502332Y585825D01*
X502327D01*
X502320Y585823D01*
X502313Y585821D01*
X502290Y585818D01*
X502258Y585814D01*
X502221Y585809D01*
X502177Y585805D01*
X502128Y585802D01*
X502075Y585800D01*
X501500D01*
Y587398D01*
X502114D01*
X502156Y587396D01*
D02*
G37*
G36*
X507118D02*
X507164Y587394D01*
X507210Y587389D01*
X507257Y587382D01*
X507296Y587375D01*
X507298D01*
X507303Y587373D01*
X507310D01*
X507319Y587368D01*
X507344Y587362D01*
X507377Y587350D01*
X507414Y587334D01*
X507453Y587313D01*
X507492Y587290D01*
X507529Y587260D01*
X507531Y587258D01*
X507534Y587255D01*
X507541Y587248D01*
X507550Y587241D01*
X507573Y587218D01*
X507601Y587186D01*
X507631Y587147D01*
X507663Y587101D01*
X507693Y587047D01*
X507719Y586987D01*
Y586985D01*
X507721Y586980D01*
X507725Y586971D01*
X507728Y586957D01*
X507735Y586941D01*
X507739Y586923D01*
X507744Y586902D01*
X507751Y586876D01*
X507758Y586851D01*
X507762Y586821D01*
X507774Y586756D01*
X507781Y586685D01*
X507783Y586606D01*
Y586604D01*
Y586599D01*
Y586588D01*
Y586576D01*
X507781Y586560D01*
Y586542D01*
X507779Y586498D01*
X507772Y586447D01*
X507765Y586394D01*
X507753Y586338D01*
X507739Y586283D01*
Y586280D01*
X507737Y586276D01*
X507735Y586269D01*
X507732Y586260D01*
X507723Y586234D01*
X507709Y586202D01*
X507695Y586165D01*
X507677Y586128D01*
X507654Y586089D01*
X507631Y586052D01*
X507628Y586047D01*
X507619Y586036D01*
X507605Y586019D01*
X507587Y585999D01*
X507566Y585976D01*
X507541Y585953D01*
X507515Y585927D01*
X507485Y585906D01*
X507481Y585904D01*
X507471Y585897D01*
X507455Y585888D01*
X507432Y585876D01*
X507404Y585862D01*
X507372Y585851D01*
X507335Y585837D01*
X507294Y585825D01*
X507289D01*
X507282Y585823D01*
X507275Y585821D01*
X507252Y585818D01*
X507220Y585814D01*
X507183Y585809D01*
X507139Y585805D01*
X507090Y585802D01*
X507037Y585800D01*
X506462D01*
Y587398D01*
X507076D01*
X507118Y587396D01*
D02*
G37*
G36*
X502395Y580800D02*
X502154D01*
X501967Y581285D01*
X501297D01*
X501124Y580800D01*
X500900D01*
X501510Y582399D01*
X501741D01*
X502395Y580800D01*
D02*
G37*
G36*
X506571Y582396D02*
X506617Y582394D01*
X506664Y582389D01*
X506710Y582382D01*
X506749Y582375D01*
X506751D01*
X506756Y582373D01*
X506763D01*
X506772Y582369D01*
X506797Y582362D01*
X506830Y582350D01*
X506867Y582334D01*
X506906Y582313D01*
X506945Y582290D01*
X506982Y582260D01*
X506985Y582258D01*
X506987Y582255D01*
X506994Y582248D01*
X507003Y582241D01*
X507026Y582218D01*
X507054Y582186D01*
X507084Y582147D01*
X507116Y582100D01*
X507146Y582047D01*
X507172Y581987D01*
Y581985D01*
X507174Y581980D01*
X507179Y581971D01*
X507181Y581957D01*
X507188Y581941D01*
X507192Y581923D01*
X507197Y581902D01*
X507204Y581877D01*
X507211Y581851D01*
X507215Y581821D01*
X507227Y581756D01*
X507234Y581685D01*
X507236Y581606D01*
Y581604D01*
Y581599D01*
Y581588D01*
Y581576D01*
X507234Y581560D01*
Y581541D01*
X507232Y581498D01*
X507225Y581447D01*
X507218Y581394D01*
X507206Y581338D01*
X507192Y581283D01*
Y581281D01*
X507190Y581276D01*
X507188Y581269D01*
X507186Y581260D01*
X507176Y581234D01*
X507162Y581202D01*
X507149Y581165D01*
X507130Y581128D01*
X507107Y581089D01*
X507084Y581052D01*
X507082Y581047D01*
X507072Y581036D01*
X507058Y581019D01*
X507040Y580999D01*
X507019Y580976D01*
X506994Y580953D01*
X506968Y580927D01*
X506938Y580906D01*
X506934Y580904D01*
X506924Y580897D01*
X506908Y580888D01*
X506885Y580876D01*
X506857Y580862D01*
X506825Y580851D01*
X506788Y580837D01*
X506747Y580825D01*
X506742D01*
X506735Y580823D01*
X506728Y580821D01*
X506705Y580819D01*
X506673Y580814D01*
X506636Y580809D01*
X506592Y580805D01*
X506543Y580802D01*
X506490Y580800D01*
X505915D01*
Y582399D01*
X506530D01*
X506571Y582396D01*
D02*
G37*
G36*
X505559Y580800D02*
X505340D01*
X504504Y582054D01*
Y580800D01*
X504300D01*
Y582399D01*
X504518D01*
X505356Y581142D01*
Y582399D01*
X505559D01*
Y580800D01*
D02*
G37*
G36*
X506106Y585800D02*
X505887D01*
X505051Y587054D01*
Y585800D01*
X504847D01*
Y587398D01*
X505064D01*
X505903Y586142D01*
Y587398D01*
X506106D01*
Y585800D01*
D02*
G37*
G36*
X493259Y585600D02*
X493040D01*
X492204Y586854D01*
Y585600D01*
X492000D01*
Y587198D01*
X492217D01*
X493056Y585942D01*
Y587198D01*
X493259D01*
Y585600D01*
D02*
G37*
G36*
X491053Y587224D02*
X491072D01*
X491116Y587219D01*
X491164Y587212D01*
X491215Y587201D01*
X491270Y587187D01*
X491324Y587169D01*
X491326D01*
X491330Y587166D01*
X491337Y587164D01*
X491347Y587159D01*
X491372Y587145D01*
X491404Y587129D01*
X491439Y587106D01*
X491476Y587078D01*
X491511Y587048D01*
X491543Y587011D01*
X491548Y587007D01*
X491557Y586993D01*
X491571Y586972D01*
X491589Y586942D01*
X491608Y586905D01*
X491628Y586859D01*
X491649Y586808D01*
X491665Y586750D01*
X491474Y586700D01*
Y586702D01*
X491471Y586704D01*
X491469Y586711D01*
X491467Y586720D01*
X491460Y586741D01*
X491451Y586769D01*
X491437Y586801D01*
X491421Y586831D01*
X491404Y586864D01*
X491384Y586891D01*
X491381Y586894D01*
X491374Y586903D01*
X491361Y586914D01*
X491344Y586931D01*
X491324Y586949D01*
X491296Y586968D01*
X491266Y586986D01*
X491231Y587002D01*
X491226Y587005D01*
X491215Y587009D01*
X491194Y587016D01*
X491166Y587025D01*
X491134Y587032D01*
X491097Y587039D01*
X491055Y587044D01*
X491012Y587046D01*
X490986D01*
X490975Y587044D01*
X490961D01*
X490926Y587041D01*
X490887Y587035D01*
X490843Y587028D01*
X490801Y587016D01*
X490760Y587000D01*
X490755Y586998D01*
X490741Y586993D01*
X490723Y586981D01*
X490700Y586970D01*
X490672Y586951D01*
X490642Y586933D01*
X490614Y586910D01*
X490589Y586884D01*
X490587Y586882D01*
X490577Y586873D01*
X490566Y586857D01*
X490552Y586838D01*
X490536Y586815D01*
X490520Y586787D01*
X490503Y586757D01*
X490487Y586725D01*
Y586723D01*
X490485Y586718D01*
X490483Y586711D01*
X490478Y586700D01*
X490473Y586686D01*
X490469Y586669D01*
X490462Y586651D01*
X490457Y586630D01*
X490446Y586582D01*
X490436Y586526D01*
X490429Y586469D01*
X490427Y586404D01*
Y586402D01*
Y586395D01*
Y586383D01*
X490429Y586369D01*
Y586351D01*
X490432Y586328D01*
X490434Y586305D01*
X490436Y586279D01*
X490446Y586221D01*
X490457Y586161D01*
X490476Y586101D01*
X490499Y586044D01*
Y586041D01*
X490503Y586037D01*
X490506Y586030D01*
X490513Y586020D01*
X490529Y585995D01*
X490554Y585963D01*
X490584Y585928D01*
X490621Y585893D01*
X490665Y585861D01*
X490714Y585831D01*
X490716D01*
X490721Y585829D01*
X490728Y585824D01*
X490739Y585819D01*
X490751Y585815D01*
X490767Y585810D01*
X490804Y585796D01*
X490850Y585785D01*
X490901Y585773D01*
X490956Y585764D01*
X491014Y585762D01*
X491037D01*
X491051Y585764D01*
X491065D01*
X491099Y585769D01*
X491141Y585773D01*
X491185Y585782D01*
X491233Y585796D01*
X491282Y585813D01*
X491284D01*
X491289Y585815D01*
X491293Y585817D01*
X491303Y585822D01*
X491328Y585833D01*
X491356Y585847D01*
X491388Y585863D01*
X491423Y585882D01*
X491455Y585903D01*
X491483Y585926D01*
Y586226D01*
X491012D01*
Y586415D01*
X491691D01*
Y585822D01*
X491688Y585819D01*
X491684Y585817D01*
X491675Y585810D01*
X491663Y585801D01*
X491649Y585792D01*
X491633Y585780D01*
X491612Y585766D01*
X491591Y585752D01*
X491543Y585722D01*
X491488Y585690D01*
X491430Y585660D01*
X491367Y585635D01*
X491365D01*
X491361Y585632D01*
X491351Y585630D01*
X491340Y585625D01*
X491324Y585621D01*
X491305Y585614D01*
X491284Y585609D01*
X491263Y585605D01*
X491213Y585593D01*
X491155Y585581D01*
X491092Y585575D01*
X491028Y585572D01*
X491005D01*
X490988Y585575D01*
X490968D01*
X490942Y585577D01*
X490915Y585581D01*
X490885Y585584D01*
X490818Y585598D01*
X490746Y585614D01*
X490672Y585639D01*
X490635Y585653D01*
X490598Y585672D01*
X490596Y585674D01*
X490589Y585676D01*
X490580Y585683D01*
X490566Y585690D01*
X490550Y585702D01*
X490533Y585713D01*
X490490Y585745D01*
X490443Y585787D01*
X490395Y585838D01*
X490349Y585896D01*
X490307Y585963D01*
Y585965D01*
X490303Y585972D01*
X490298Y585981D01*
X490291Y585997D01*
X490284Y586014D01*
X490277Y586037D01*
X490268Y586060D01*
X490259Y586087D01*
X490249Y586117D01*
X490240Y586152D01*
X490233Y586187D01*
X490226Y586224D01*
X490215Y586305D01*
X490210Y586390D01*
Y586392D01*
Y586402D01*
Y586413D01*
X490212Y586429D01*
Y586450D01*
X490215Y586476D01*
X490219Y586501D01*
X490222Y586531D01*
X490229Y586563D01*
X490233Y586598D01*
X490252Y586672D01*
X490275Y586748D01*
X490307Y586824D01*
X490309Y586827D01*
X490312Y586833D01*
X490316Y586843D01*
X490326Y586857D01*
X490335Y586875D01*
X490346Y586894D01*
X490379Y586938D01*
X490418Y586988D01*
X490466Y587037D01*
X490522Y587085D01*
X490554Y587106D01*
X490587Y587127D01*
X490589Y587129D01*
X490596Y587132D01*
X490605Y587136D01*
X490619Y587143D01*
X490637Y587150D01*
X490658Y587159D01*
X490681Y587169D01*
X490709Y587178D01*
X490739Y587187D01*
X490771Y587194D01*
X490806Y587203D01*
X490843Y587210D01*
X490924Y587222D01*
X490965Y587226D01*
X491039D01*
X491053Y587224D01*
D02*
G37*
G36*
X806139Y644733D02*
X806153Y644691D01*
X806167Y644677D01*
X806181Y644663D01*
X806167Y644649D01*
X806153Y644635D01*
X806111Y644594D01*
X806070Y644538D01*
X805931Y644386D01*
X805750Y644191D01*
X805542Y643955D01*
X805320Y643692D01*
X805070Y643414D01*
X804807Y643123D01*
X804793Y643109D01*
X804779Y643095D01*
X804737Y643053D01*
X804696Y642998D01*
X804557Y642845D01*
X804376Y642651D01*
X804182Y642415D01*
X803946Y642151D01*
X803696Y641873D01*
X803446Y641582D01*
X803432Y641568D01*
X803419Y641554D01*
X803377Y641512D01*
X803335Y641457D01*
X803196Y641304D01*
X803016Y641110D01*
X802808Y640874D01*
X802572Y640610D01*
X802322Y640333D01*
X802058Y640041D01*
X802044Y640027D01*
X802030Y640014D01*
X801989Y639972D01*
X801947Y639916D01*
X801808Y639764D01*
X801628Y639569D01*
X801420Y639333D01*
X801184Y639070D01*
X800934Y638792D01*
X800670Y638501D01*
X800684D01*
X800712Y638487D01*
X800754Y638473D01*
X800809Y638459D01*
X800879Y638445D01*
X800976Y638417D01*
X801184Y638362D01*
X801434Y638292D01*
X801697Y638223D01*
X801989Y638140D01*
X802294Y638056D01*
X802308D01*
X802336Y638042D01*
X802378D01*
X802433Y638015D01*
X802502Y638001D01*
X802600Y637973D01*
X802808Y637931D01*
X803044Y637862D01*
X803321Y637793D01*
X803627Y637709D01*
X803932Y637626D01*
X803918Y637612D01*
X803863Y637571D01*
X803793Y637529D01*
X803724Y637473D01*
X803710Y637460D01*
X803668Y637432D01*
X803613Y637376D01*
X803543Y637321D01*
X803530Y637307D01*
X803488Y637279D01*
X803419Y637224D01*
X803335Y637168D01*
X803224Y637085D01*
X803085Y636988D01*
X802933Y636877D01*
X802766Y636752D01*
X802586Y636613D01*
X802391Y636474D01*
X801975Y636155D01*
X801531Y635822D01*
X801073Y635475D01*
X801059Y635461D01*
X801017Y635433D01*
X800948Y635378D01*
X800865Y635322D01*
X800754Y635239D01*
X800629Y635142D01*
X800476Y635031D01*
X800309Y634906D01*
X800143Y634767D01*
X799949Y634628D01*
X799532Y634309D01*
X799088Y633976D01*
X798630Y633629D01*
X798616Y633615D01*
X798574Y633587D01*
X798505Y633545D01*
X798422Y633476D01*
X798311Y633393D01*
X798186Y633296D01*
X798033Y633184D01*
X797866Y633060D01*
X797686Y632921D01*
X797492Y632782D01*
X797089Y632477D01*
X796645Y632143D01*
X796187Y631797D01*
X796173Y631783D01*
X796132Y631755D01*
X796062Y631699D01*
X795979Y631644D01*
X795868Y631561D01*
X795729Y631450D01*
X795590Y631339D01*
X795424Y631214D01*
X795243Y631089D01*
X795049Y630936D01*
X794632Y630631D01*
X794188Y630298D01*
X793730Y629964D01*
X793716Y629951D01*
X793689Y629923D01*
X793633Y629867D01*
X793564Y629812D01*
X793550Y629798D01*
X793508Y629784D01*
X793467Y629770D01*
X793453Y629784D01*
X793439Y629798D01*
Y629812D01*
X793425Y629853D01*
X793439Y629895D01*
X793494Y629951D01*
X793508Y629964D01*
X793564Y629992D01*
X793605Y630034D01*
X793661Y630075D01*
Y630089D01*
X793689Y630103D01*
X793758Y630173D01*
X793869Y630298D01*
X794008Y630450D01*
X794174Y630631D01*
X794369Y630839D01*
X794577Y631061D01*
X794785Y631283D01*
Y631297D01*
X794813Y631311D01*
X794882Y631380D01*
X794993Y631505D01*
X795132Y631658D01*
X795299Y631838D01*
X795493Y632032D01*
X795687Y632255D01*
X795896Y632477D01*
Y632490D01*
X795923Y632504D01*
X795993Y632574D01*
X796104Y632699D01*
X796243Y632851D01*
X796409Y633032D01*
X796603Y633240D01*
X796812Y633462D01*
X797020Y633684D01*
Y633698D01*
X797048Y633712D01*
X797117Y633781D01*
X797228Y633906D01*
X797367Y634059D01*
X797533Y634239D01*
X797728Y634434D01*
X797936Y634656D01*
X798144Y634878D01*
X798158Y634892D01*
X798186Y634920D01*
X798227Y634961D01*
X798283Y635031D01*
X798408Y635169D01*
X798574Y635336D01*
X798588Y635350D01*
X798616Y635378D01*
X798658Y635419D01*
X798713Y635489D01*
X798852Y635655D01*
X799005Y635850D01*
X798991D01*
X798977Y635863D01*
X798894Y635891D01*
X798755Y635933D01*
X798588Y635988D01*
X798380Y636058D01*
X798158Y636141D01*
X797922Y636210D01*
X797672Y636294D01*
X797658D01*
X797644Y636307D01*
X797561Y636335D01*
X797436Y636377D01*
X797256Y636432D01*
X797061Y636502D01*
X796839Y636585D01*
X796590Y636668D01*
X796340Y636752D01*
X796354Y636766D01*
X796395Y636793D01*
X796465Y636849D01*
X796548Y636932D01*
X796659Y637015D01*
X796798Y637126D01*
X796950Y637251D01*
X797117Y637390D01*
X797297Y637529D01*
X797492Y637696D01*
X797908Y638029D01*
X798352Y638389D01*
X798810Y638764D01*
X798824Y638778D01*
X798866Y638806D01*
X798935Y638861D01*
X799019Y638931D01*
X799130Y639028D01*
X799268Y639125D01*
X799421Y639250D01*
X799588Y639389D01*
X799754Y639528D01*
X799949Y639680D01*
X800365Y640014D01*
X800809Y640374D01*
X801267Y640749D01*
X801281Y640763D01*
X801323Y640791D01*
X801392Y640846D01*
X801475Y640930D01*
X801586Y641013D01*
X801711Y641124D01*
X801864Y641249D01*
X802030Y641388D01*
X802211Y641526D01*
X802391Y641693D01*
X802808Y642026D01*
X803252Y642387D01*
X803696Y642762D01*
X803710Y642776D01*
X803752Y642803D01*
X803821Y642859D01*
X803904Y642928D01*
X804015Y643025D01*
X804154Y643123D01*
X804293Y643248D01*
X804459Y643386D01*
X804640Y643525D01*
X804834Y643678D01*
X805237Y644011D01*
X805681Y644372D01*
X806139Y644747D01*
Y644733D01*
D02*
G37*
G36*
X503900Y587424D02*
X503919D01*
X503963Y587419D01*
X504011Y587412D01*
X504062Y587401D01*
X504117Y587387D01*
X504170Y587368D01*
X504173D01*
X504177Y587366D01*
X504184Y587364D01*
X504193Y587359D01*
X504219Y587345D01*
X504251Y587329D01*
X504286Y587306D01*
X504323Y587278D01*
X504357Y587248D01*
X504390Y587211D01*
X504394Y587207D01*
X504404Y587193D01*
X504418Y587172D01*
X504436Y587142D01*
X504455Y587105D01*
X504475Y587059D01*
X504496Y587008D01*
X504512Y586950D01*
X504320Y586900D01*
Y586902D01*
X504318Y586904D01*
X504316Y586911D01*
X504314Y586920D01*
X504307Y586941D01*
X504297Y586969D01*
X504284Y587001D01*
X504267Y587031D01*
X504251Y587064D01*
X504230Y587091D01*
X504228Y587094D01*
X504221Y587103D01*
X504207Y587114D01*
X504191Y587131D01*
X504170Y587149D01*
X504143Y587168D01*
X504113Y587186D01*
X504078Y587202D01*
X504073Y587205D01*
X504062Y587209D01*
X504041Y587216D01*
X504013Y587225D01*
X503981Y587232D01*
X503944Y587239D01*
X503902Y587244D01*
X503859Y587246D01*
X503833D01*
X503822Y587244D01*
X503808D01*
X503773Y587241D01*
X503734Y587234D01*
X503690Y587228D01*
X503648Y587216D01*
X503607Y587200D01*
X503602Y587197D01*
X503588Y587193D01*
X503570Y587181D01*
X503547Y587170D01*
X503519Y587151D01*
X503489Y587133D01*
X503461Y587110D01*
X503436Y587084D01*
X503434Y587082D01*
X503424Y587073D01*
X503413Y587057D01*
X503399Y587038D01*
X503383Y587015D01*
X503367Y586987D01*
X503350Y586957D01*
X503334Y586925D01*
Y586923D01*
X503332Y586918D01*
X503330Y586911D01*
X503325Y586900D01*
X503320Y586886D01*
X503316Y586869D01*
X503309Y586851D01*
X503304Y586830D01*
X503293Y586782D01*
X503283Y586726D01*
X503276Y586669D01*
X503274Y586604D01*
Y586602D01*
Y586595D01*
Y586583D01*
X503276Y586569D01*
Y586551D01*
X503279Y586528D01*
X503281Y586505D01*
X503283Y586479D01*
X503293Y586421D01*
X503304Y586361D01*
X503323Y586301D01*
X503346Y586243D01*
Y586241D01*
X503350Y586237D01*
X503353Y586230D01*
X503360Y586220D01*
X503376Y586195D01*
X503401Y586163D01*
X503431Y586128D01*
X503468Y586093D01*
X503512Y586061D01*
X503560Y586031D01*
X503563D01*
X503568Y586029D01*
X503574Y586024D01*
X503586Y586019D01*
X503597Y586015D01*
X503614Y586010D01*
X503651Y585996D01*
X503697Y585985D01*
X503748Y585973D01*
X503803Y585964D01*
X503861Y585962D01*
X503884D01*
X503898Y585964D01*
X503912D01*
X503946Y585969D01*
X503988Y585973D01*
X504032Y585983D01*
X504080Y585996D01*
X504129Y586013D01*
X504131D01*
X504136Y586015D01*
X504140Y586017D01*
X504150Y586022D01*
X504175Y586033D01*
X504203Y586047D01*
X504235Y586063D01*
X504270Y586082D01*
X504302Y586103D01*
X504330Y586126D01*
Y586426D01*
X503859D01*
Y586615D01*
X504538D01*
Y586022D01*
X504535Y586019D01*
X504531Y586017D01*
X504522Y586010D01*
X504510Y586001D01*
X504496Y585992D01*
X504480Y585980D01*
X504459Y585966D01*
X504438Y585953D01*
X504390Y585922D01*
X504334Y585890D01*
X504277Y585860D01*
X504214Y585835D01*
X504212D01*
X504207Y585832D01*
X504198Y585830D01*
X504186Y585825D01*
X504170Y585821D01*
X504152Y585814D01*
X504131Y585809D01*
X504110Y585805D01*
X504060Y585793D01*
X504002Y585781D01*
X503939Y585775D01*
X503875Y585772D01*
X503852D01*
X503835Y585775D01*
X503815D01*
X503789Y585777D01*
X503761Y585781D01*
X503731Y585784D01*
X503664Y585798D01*
X503593Y585814D01*
X503519Y585839D01*
X503482Y585853D01*
X503445Y585872D01*
X503443Y585874D01*
X503436Y585876D01*
X503427Y585883D01*
X503413Y585890D01*
X503397Y585902D01*
X503380Y585913D01*
X503336Y585946D01*
X503290Y585987D01*
X503242Y586038D01*
X503195Y586096D01*
X503154Y586163D01*
Y586165D01*
X503149Y586172D01*
X503145Y586181D01*
X503138Y586197D01*
X503131Y586213D01*
X503124Y586237D01*
X503115Y586260D01*
X503105Y586287D01*
X503096Y586317D01*
X503087Y586352D01*
X503080Y586387D01*
X503073Y586424D01*
X503062Y586505D01*
X503057Y586590D01*
Y586592D01*
Y586602D01*
Y586613D01*
X503059Y586629D01*
Y586650D01*
X503062Y586676D01*
X503066Y586701D01*
X503068Y586731D01*
X503075Y586763D01*
X503080Y586798D01*
X503098Y586872D01*
X503122Y586948D01*
X503154Y587024D01*
X503156Y587027D01*
X503159Y587034D01*
X503163Y587043D01*
X503172Y587057D01*
X503182Y587075D01*
X503193Y587094D01*
X503226Y587138D01*
X503265Y587188D01*
X503313Y587237D01*
X503369Y587285D01*
X503401Y587306D01*
X503434Y587327D01*
X503436Y587329D01*
X503443Y587331D01*
X503452Y587336D01*
X503466Y587343D01*
X503484Y587350D01*
X503505Y587359D01*
X503528Y587368D01*
X503556Y587378D01*
X503586Y587387D01*
X503618Y587394D01*
X503653Y587403D01*
X503690Y587410D01*
X503771Y587422D01*
X503812Y587426D01*
X503886D01*
X503900Y587424D01*
D02*
G37*
G36*
X490095Y585600D02*
X489854D01*
X489667Y586085D01*
X488997D01*
X488824Y585600D01*
X488600D01*
X489210Y587198D01*
X489441D01*
X490095Y585600D01*
D02*
G37*
G36*
X494271Y587196D02*
X494317Y587194D01*
X494363Y587189D01*
X494410Y587182D01*
X494449Y587175D01*
X494451D01*
X494456Y587173D01*
X494463D01*
X494472Y587169D01*
X494497Y587162D01*
X494530Y587150D01*
X494567Y587134D01*
X494606Y587113D01*
X494645Y587090D01*
X494682Y587060D01*
X494685Y587058D01*
X494687Y587055D01*
X494694Y587048D01*
X494703Y587041D01*
X494726Y587018D01*
X494754Y586986D01*
X494784Y586947D01*
X494816Y586901D01*
X494846Y586847D01*
X494872Y586787D01*
Y586785D01*
X494874Y586780D01*
X494879Y586771D01*
X494881Y586757D01*
X494888Y586741D01*
X494892Y586723D01*
X494897Y586702D01*
X494904Y586677D01*
X494911Y586651D01*
X494915Y586621D01*
X494927Y586556D01*
X494934Y586485D01*
X494936Y586406D01*
Y586404D01*
Y586399D01*
Y586388D01*
Y586376D01*
X494934Y586360D01*
Y586341D01*
X494932Y586298D01*
X494925Y586247D01*
X494918Y586194D01*
X494906Y586138D01*
X494892Y586083D01*
Y586081D01*
X494890Y586076D01*
X494888Y586069D01*
X494885Y586060D01*
X494876Y586034D01*
X494862Y586002D01*
X494848Y585965D01*
X494830Y585928D01*
X494807Y585889D01*
X494784Y585852D01*
X494782Y585847D01*
X494772Y585836D01*
X494759Y585819D01*
X494740Y585799D01*
X494719Y585776D01*
X494694Y585752D01*
X494668Y585727D01*
X494638Y585706D01*
X494634Y585704D01*
X494625Y585697D01*
X494608Y585688D01*
X494585Y585676D01*
X494558Y585662D01*
X494525Y585651D01*
X494488Y585637D01*
X494447Y585625D01*
X494442D01*
X494435Y585623D01*
X494428Y585621D01*
X494405Y585618D01*
X494373Y585614D01*
X494336Y585609D01*
X494292Y585605D01*
X494243Y585602D01*
X494190Y585600D01*
X493615D01*
Y587198D01*
X494230D01*
X494271Y587196D01*
D02*
G37*
G36*
X812690Y639167D02*
X811705D01*
Y636321D01*
X811080D01*
Y639167D01*
X810095D01*
Y639708D01*
X812690D01*
Y639167D01*
D02*
G37*
G36*
X838438Y636321D02*
X837799D01*
X836009Y638834D01*
Y636321D01*
X835398D01*
Y639708D01*
X836023D01*
X837827Y637238D01*
Y639708D01*
X838438D01*
Y636321D01*
D02*
G37*
G36*
X843601Y639708D02*
X843782Y639680D01*
X843990Y639625D01*
X844198Y639555D01*
X844406Y639444D01*
X844573Y639292D01*
X844587Y639278D01*
X844642Y639208D01*
X844711Y639111D01*
X844795Y638973D01*
X844864Y638792D01*
X844934Y638570D01*
X844989Y638306D01*
X845003Y638001D01*
Y637987D01*
Y637959D01*
Y637918D01*
Y637862D01*
X844975Y637709D01*
X844948Y637529D01*
X844892Y637321D01*
X844823Y637099D01*
X844711Y636891D01*
X844573Y636710D01*
X844559Y636696D01*
X844489Y636641D01*
X844392Y636571D01*
X844254Y636502D01*
X844087Y636419D01*
X843865Y636349D01*
X843601Y636294D01*
X843310Y636280D01*
X843226D01*
X843171Y636294D01*
X843032Y636307D01*
X842852Y636335D01*
X842643Y636391D01*
X842435Y636460D01*
X842241Y636571D01*
X842060Y636710D01*
X842047Y636738D01*
X841991Y636793D01*
X841922Y636891D01*
X841852Y637043D01*
X841769Y637224D01*
X841686Y637446D01*
X841630Y637709D01*
X841602Y638001D01*
Y638015D01*
Y638042D01*
Y638084D01*
X841616Y638140D01*
X841630Y638292D01*
X841658Y638487D01*
X841713Y638695D01*
X841783Y638903D01*
X841894Y639111D01*
X842033Y639292D01*
X842047Y639306D01*
X842116Y639361D01*
X842213Y639431D01*
X842352Y639514D01*
X842532Y639597D01*
X842754Y639667D01*
X843018Y639722D01*
X843310Y639736D01*
X843448D01*
X843601Y639708D01*
D02*
G37*
G36*
X831401Y633504D02*
X831512Y633476D01*
X831526D01*
X831539Y633462D01*
X831609Y633448D01*
X831692Y633407D01*
X831789Y633337D01*
X831637Y633087D01*
X831623Y633101D01*
X831567Y633129D01*
X831484Y633171D01*
X831401Y633198D01*
X831387Y633212D01*
X831331Y633226D01*
X831248Y633240D01*
X831165Y633254D01*
X831123D01*
X831026Y633226D01*
X831012D01*
X830998Y633212D01*
X830929Y633184D01*
X830901Y633157D01*
X830887Y633129D01*
X830859Y633087D01*
Y633074D01*
Y633060D01*
X830845Y632976D01*
Y632949D01*
X830859Y632893D01*
X830873Y632879D01*
X830901Y632810D01*
X830915Y632796D01*
X830970Y632754D01*
X830984D01*
X831012Y632740D01*
X831054D01*
X831109Y632726D01*
X831123D01*
X831137Y632713D01*
X831192Y632699D01*
X831345D01*
X831401Y632685D01*
X831470Y632671D01*
X831553Y632629D01*
X831567Y632615D01*
X831623Y632602D01*
X831664Y632560D01*
X831720Y632504D01*
X831734Y632490D01*
X831761Y632449D01*
X831789Y632393D01*
X831817Y632324D01*
Y632310D01*
X831831Y632268D01*
X831845Y632213D01*
Y632143D01*
Y632130D01*
Y632102D01*
X831831Y632046D01*
Y631991D01*
X831775Y631852D01*
X831734Y631783D01*
X831678Y631727D01*
X831664D01*
X831650Y631699D01*
X831609Y631685D01*
X831553Y631658D01*
X831484Y631630D01*
X831401Y631616D01*
X831290Y631588D01*
X831095D01*
X831040Y631602D01*
X830915Y631616D01*
X830776Y631644D01*
X830762D01*
X830748Y631658D01*
X830665Y631699D01*
X830554Y631755D01*
X830443Y631852D01*
X830637Y632074D01*
X830651Y632060D01*
X830707Y632019D01*
X830790Y631963D01*
X830873Y631921D01*
X830901D01*
X830970Y631908D01*
X831067Y631894D01*
X831178Y631880D01*
X831206D01*
X831290Y631894D01*
X831373Y631908D01*
X831456Y631935D01*
X831470Y631949D01*
X831512Y631991D01*
X831539Y632046D01*
X831553Y632143D01*
Y632157D01*
Y632199D01*
X831526Y632255D01*
X831498Y632310D01*
X831484Y632324D01*
X831456Y632352D01*
X831387Y632379D01*
X831303Y632407D01*
X831165D01*
X831137Y632421D01*
X831054Y632435D01*
X831040D01*
X830984Y632449D01*
X830901Y632463D01*
X830832Y632490D01*
X830818Y632504D01*
X830776Y632532D01*
X830721Y632574D01*
X830679Y632629D01*
X830665Y632643D01*
X830637Y632671D01*
X830609Y632726D01*
X830582Y632782D01*
Y632796D01*
X830568Y632837D01*
X830554Y632907D01*
Y632976D01*
Y633004D01*
Y633060D01*
X830568Y633129D01*
X830582Y633212D01*
X830596Y633226D01*
X830609Y633268D01*
X830651Y633323D01*
X830707Y633393D01*
X830721Y633407D01*
X830762Y633434D01*
X830832Y633462D01*
X830901Y633490D01*
X830915Y633504D01*
X830984Y633518D01*
X831067Y633532D01*
X831290D01*
X831401Y633504D01*
D02*
G37*
G36*
X849889Y634573D02*
X809331D01*
Y634864D01*
X849889D01*
Y634573D01*
D02*
G37*
G36*
X815369Y639167D02*
X813676D01*
Y638306D01*
X815300D01*
Y637751D01*
X813648D01*
Y636863D01*
X815397D01*
Y636321D01*
X813037D01*
Y639708D01*
X815369D01*
Y639167D01*
D02*
G37*
G36*
X841366D02*
X840395D01*
Y636321D01*
X839770D01*
Y639167D01*
X838785D01*
Y639708D01*
X841366D01*
Y639167D01*
D02*
G37*
G36*
X823267Y636321D02*
X822684D01*
Y638667D01*
X821768Y636321D01*
X821227D01*
X820283Y638667D01*
Y636321D01*
X819700D01*
Y639708D01*
X820366D01*
X821504Y637140D01*
X822642Y639708D01*
X823267D01*
Y636321D01*
D02*
G37*
G36*
X834982D02*
X834315D01*
X833913Y637238D01*
X832789D01*
X833011Y637779D01*
X833691D01*
X833150Y639070D01*
X832025Y636321D01*
X831387D01*
X832830Y639708D01*
X833510D01*
X834982Y636321D01*
D02*
G37*
G36*
X849153D02*
X848584D01*
Y638667D01*
X847640Y636321D01*
X847113D01*
X846169Y638667D01*
Y636321D01*
X845600D01*
Y639708D01*
X846238D01*
X847404Y637140D01*
X848528Y639708D01*
X849153D01*
Y636321D01*
D02*
G37*
G36*
X819297D02*
X818603D01*
X818229Y637238D01*
X817090D01*
X817299Y637779D01*
X817992D01*
X817465Y639070D01*
X816327Y636321D01*
X815688D01*
X817132Y639708D01*
X817812D01*
X819297Y636321D01*
D02*
G37*
G36*
X812094Y633504D02*
X812218Y633476D01*
X812232D01*
X812246Y633462D01*
X812316Y633448D01*
X812399Y633407D01*
X812496Y633337D01*
X812343Y633087D01*
X812329Y633101D01*
X812274Y633129D01*
X812191Y633171D01*
X812107Y633198D01*
X812080Y633212D01*
X812024Y633226D01*
X811955Y633240D01*
X811858Y633254D01*
X811816D01*
X811733Y633226D01*
X811719D01*
X811705Y633212D01*
X811635Y633184D01*
X811608Y633157D01*
X811594Y633129D01*
X811566Y633087D01*
Y633074D01*
X811552Y633060D01*
X811538Y632976D01*
Y632949D01*
X811552Y632893D01*
X811566Y632879D01*
X811608Y632810D01*
X811622Y632796D01*
X811677Y632754D01*
X811691D01*
X811719Y632740D01*
X811760D01*
X811816Y632726D01*
X811830D01*
X811844Y632713D01*
X811899Y632699D01*
X812052D01*
X812107Y632685D01*
X812177Y632671D01*
X812260Y632629D01*
X812274Y632615D01*
X812329Y632602D01*
X812371Y632560D01*
X812427Y632504D01*
X812440Y632490D01*
X812468Y632449D01*
X812496Y632393D01*
X812524Y632324D01*
Y632310D01*
X812538Y632268D01*
X812552Y632213D01*
Y632143D01*
Y632130D01*
Y632102D01*
X812538Y632046D01*
X812524Y631991D01*
X812468Y631852D01*
X812427Y631783D01*
X812371Y631727D01*
X812357D01*
X812343Y631699D01*
X812302Y631685D01*
X812246Y631658D01*
X812177Y631630D01*
X812094Y631616D01*
X811996Y631588D01*
X811802D01*
X811747Y631602D01*
X811622Y631616D01*
X811483Y631644D01*
X811469D01*
X811455Y631658D01*
X811372Y631699D01*
X811261Y631755D01*
X811136Y631852D01*
X811344Y632074D01*
X811358Y632060D01*
X811413Y632019D01*
X811483Y631963D01*
X811580Y631921D01*
X811608D01*
X811677Y631908D01*
X811774Y631894D01*
X811885Y631880D01*
X811913D01*
X811996Y631894D01*
X812080Y631908D01*
X812163Y631935D01*
X812177Y631949D01*
X812218Y631991D01*
X812246Y632046D01*
X812260Y632143D01*
Y632157D01*
X812246Y632199D01*
X812232Y632255D01*
X812191Y632310D01*
X812177Y632324D01*
X812149Y632352D01*
X812094Y632379D01*
X812010Y632407D01*
X811871D01*
X811844Y632421D01*
X811802D01*
X811747Y632435D01*
X811733D01*
X811677Y632449D01*
X811608Y632463D01*
X811538Y632490D01*
X811524Y632504D01*
X811483Y632532D01*
X811427Y632574D01*
X811372Y632629D01*
X811358Y632643D01*
X811344Y632671D01*
X811302Y632726D01*
X811275Y632782D01*
Y632796D01*
X811261Y632837D01*
X811247Y632907D01*
X811233Y632976D01*
Y633004D01*
Y633060D01*
X811247Y633129D01*
X811275Y633212D01*
X811289Y633226D01*
X811316Y633268D01*
X811358Y633323D01*
X811413Y633393D01*
X811427Y633407D01*
X811469Y633434D01*
X811524Y633462D01*
X811594Y633490D01*
X811622Y633504D01*
X811677Y633518D01*
X811760Y633532D01*
X811983D01*
X812094Y633504D01*
D02*
G37*
G36*
X825890Y632241D02*
Y632213D01*
Y632157D01*
X825863Y632074D01*
X825835Y631977D01*
X825821Y631963D01*
X825807Y631908D01*
X825751Y631838D01*
X825682Y631769D01*
X825668Y631755D01*
X825626Y631713D01*
X825557Y631672D01*
X825474Y631630D01*
X825446D01*
X825391Y631616D01*
X825307Y631602D01*
X825210Y631588D01*
X825113D01*
X825030Y631602D01*
X824932Y631630D01*
X824919Y631644D01*
X824863Y631658D01*
X824794Y631713D01*
X824724Y631769D01*
X824710Y631783D01*
X824669Y631838D01*
X824613Y631894D01*
X824558Y631977D01*
Y632005D01*
X824544Y632060D01*
X824530Y632143D01*
X824516Y632241D01*
Y633518D01*
X824808D01*
Y632282D01*
Y632268D01*
Y632227D01*
X824835Y632116D01*
Y632102D01*
X824863Y632074D01*
X824891Y632032D01*
X824932Y631977D01*
X824946Y631963D01*
X824974Y631949D01*
X825044Y631894D01*
X825085D01*
X825141Y631880D01*
X825266D01*
X825363Y631894D01*
X825377D01*
X825404Y631921D01*
X825488Y631977D01*
X825502Y631991D01*
X825515Y632019D01*
X825571Y632116D01*
Y632130D01*
X825585Y632157D01*
X825599Y632213D01*
Y632282D01*
Y633518D01*
X825890D01*
Y632241D01*
D02*
G37*
G36*
X824016Y631602D02*
X823725D01*
Y632796D01*
X823711D01*
X823322Y631880D01*
X823073D01*
X822670Y632796D01*
X822656D01*
Y631602D01*
X822365D01*
Y633518D01*
X822642D01*
X823197Y632268D01*
X823739Y633518D01*
X824016D01*
Y631602D01*
D02*
G37*
G36*
X800420Y643983D02*
X800518D01*
X800629Y643969D01*
X800767Y643955D01*
X800906Y643928D01*
X801239Y643886D01*
X801600Y643803D01*
X801989Y643706D01*
X802378Y643567D01*
X802280Y643289D01*
X802267D01*
X802239Y643303D01*
X802183Y643331D01*
X802100Y643345D01*
X802017Y643386D01*
X801906Y643414D01*
X801781Y643456D01*
X801642Y643483D01*
X801336Y643567D01*
X800976Y643636D01*
X800601Y643678D01*
X800212Y643706D01*
X799824D01*
X799699Y643692D01*
X799560Y643678D01*
X799255Y643650D01*
X798908Y643608D01*
X798547Y643539D01*
X798172Y643442D01*
X798158D01*
X798130Y643428D01*
X798075Y643414D01*
X798005Y643386D01*
X797922Y643359D01*
X797811Y643317D01*
X797575Y643220D01*
X797284Y643095D01*
X796978Y642942D01*
X796659Y642762D01*
X796326Y642554D01*
X796312D01*
X796284Y642526D01*
X796243Y642498D01*
X796173Y642443D01*
X796104Y642387D01*
X796021Y642318D01*
X795812Y642137D01*
X795576Y641929D01*
X795327Y641665D01*
X795077Y641374D01*
X794827Y641054D01*
Y641041D01*
X794799Y641013D01*
X794771Y640971D01*
X794730Y640902D01*
X794674Y640819D01*
X794619Y640721D01*
X794549Y640610D01*
X794480Y640485D01*
X794327Y640208D01*
X794174Y639889D01*
X794022Y639542D01*
X793897Y639167D01*
Y639153D01*
X793883Y639125D01*
X793869Y639070D01*
X793855Y638986D01*
X793827Y638903D01*
X793800Y638792D01*
X793786Y638667D01*
X793758Y638528D01*
X793703Y638223D01*
X793661Y637876D01*
X793633Y637515D01*
Y637126D01*
Y637113D01*
Y637085D01*
Y637029D01*
X793647Y636960D01*
X793661Y636863D01*
Y636752D01*
X793675Y636627D01*
X793703Y636502D01*
X793744Y636197D01*
X793827Y635850D01*
X793911Y635489D01*
X794036Y635114D01*
Y635100D01*
X794050Y635072D01*
X794077Y635017D01*
X794105Y634947D01*
X794147Y634864D01*
X794188Y634753D01*
X794313Y634517D01*
X794452Y634239D01*
X794632Y633934D01*
X794855Y633615D01*
X795090Y633296D01*
X794855Y633087D01*
X794841Y633101D01*
X794827Y633129D01*
X794785Y633171D01*
X794743Y633240D01*
X794674Y633323D01*
X794605Y633421D01*
X794535Y633532D01*
X794452Y633656D01*
X794272Y633948D01*
X794091Y634281D01*
X793911Y634642D01*
X793758Y635017D01*
Y635031D01*
X793744Y635058D01*
X793716Y635114D01*
X793703Y635197D01*
X793661Y635280D01*
X793633Y635391D01*
X793591Y635516D01*
X793564Y635655D01*
X793480Y635974D01*
X793411Y636335D01*
X793356Y636710D01*
X793328Y637113D01*
Y637126D01*
Y637168D01*
Y637224D01*
Y637307D01*
Y637404D01*
X793342Y637515D01*
Y637654D01*
X793356Y637793D01*
X793383Y638126D01*
X793439Y638487D01*
X793522Y638875D01*
X793619Y639264D01*
Y639278D01*
X793633Y639306D01*
X793647Y639361D01*
X793675Y639444D01*
X793716Y639528D01*
X793744Y639639D01*
X793800Y639764D01*
X793855Y639902D01*
X793994Y640208D01*
X794147Y640541D01*
X794355Y640888D01*
X794577Y641235D01*
X794591Y641249D01*
X794605Y641277D01*
X794646Y641318D01*
X794702Y641388D01*
X794757Y641471D01*
X794841Y641554D01*
X795035Y641776D01*
X795257Y642026D01*
X795521Y642290D01*
X795826Y642554D01*
X796145Y642803D01*
X796159Y642817D01*
X796187Y642831D01*
X796243Y642859D01*
X796298Y642901D01*
X796381Y642956D01*
X796492Y643012D01*
X796603Y643081D01*
X796728Y643150D01*
X797020Y643303D01*
X797339Y643456D01*
X797700Y643608D01*
X798075Y643733D01*
X798089D01*
X798116Y643747D01*
X798172Y643761D01*
X798255Y643775D01*
X798352Y643803D01*
X798463Y643830D01*
X798588Y643858D01*
X798741Y643886D01*
X799060Y643928D01*
X799421Y643969D01*
X799810Y643997D01*
X800337D01*
X800420Y643983D01*
D02*
G37*
G36*
X846641Y631602D02*
X846349D01*
Y633518D01*
X846641D01*
Y631602D01*
D02*
G37*
G36*
X815924Y632241D02*
Y632213D01*
Y632157D01*
X815897Y632074D01*
X815869Y631977D01*
X815855Y631963D01*
X815841Y631908D01*
X815786Y631838D01*
X815716Y631769D01*
X815702Y631755D01*
X815661Y631713D01*
X815591Y631672D01*
X815508Y631630D01*
X815480D01*
X815425Y631616D01*
X815341Y631602D01*
X815230Y631588D01*
X815147D01*
X815064Y631602D01*
X814967Y631630D01*
X814953Y631644D01*
X814897Y631658D01*
X814828Y631713D01*
X814758Y631769D01*
X814745Y631783D01*
X814703Y631838D01*
X814647Y631894D01*
X814592Y631977D01*
Y632005D01*
X814578Y632060D01*
X814564Y632143D01*
X814550Y632241D01*
Y633518D01*
X814842D01*
Y632282D01*
Y632268D01*
Y632227D01*
X814869Y632116D01*
Y632102D01*
X814897Y632074D01*
X814953Y631977D01*
X814967Y631963D01*
X814994Y631949D01*
X815078Y631894D01*
X815119D01*
X815175Y631880D01*
X815341D01*
X815383Y631894D01*
X815397D01*
X815425Y631921D01*
X815508Y631977D01*
X815522Y631991D01*
X815550Y632019D01*
X815577Y632060D01*
X815605Y632116D01*
Y632130D01*
X815619Y632157D01*
X815633Y632213D01*
Y632282D01*
Y633518D01*
X815924D01*
Y632241D01*
D02*
G37*
G36*
X830970Y636321D02*
X830346D01*
Y637765D01*
X828666D01*
Y636321D01*
X828028D01*
Y639708D01*
X828666D01*
Y638306D01*
X830346D01*
Y639708D01*
X830970D01*
Y636321D01*
D02*
G37*
G36*
X847959Y633518D02*
X848043Y633490D01*
X848057D01*
X848112Y633462D01*
X848182Y633434D01*
X848251Y633379D01*
X848265Y633365D01*
X848306Y633323D01*
X848348Y633268D01*
X848390Y633184D01*
X848404Y633171D01*
X848417Y633115D01*
X848459Y633046D01*
X848487Y632962D01*
X848154D01*
Y632976D01*
X848140Y633004D01*
X848112Y633074D01*
Y633087D01*
X848098Y633101D01*
X848043Y633171D01*
X848029Y633184D01*
X848001Y633198D01*
X847918Y633226D01*
X847904D01*
X847876Y633240D01*
X847793Y633254D01*
X847765Y633240D01*
X847710Y633226D01*
X847682D01*
X847612Y633212D01*
X847599Y633198D01*
X847557Y633157D01*
X847543Y633143D01*
X847501Y633115D01*
X847488Y633087D01*
X847446Y633032D01*
Y633004D01*
X847432Y632949D01*
Y632935D01*
X847418Y632921D01*
Y632865D01*
X847404Y632796D01*
Y632782D01*
Y632726D01*
Y632657D01*
Y632574D01*
Y632546D01*
Y632490D01*
Y632407D01*
Y632324D01*
Y632310D01*
X847418Y632268D01*
Y632213D01*
X847432Y632171D01*
Y632143D01*
X847446Y632088D01*
X847460Y632060D01*
X847501Y632005D01*
X847515Y631991D01*
X847557Y631949D01*
X847571Y631935D01*
X847612Y631921D01*
X847626D01*
X847640Y631908D01*
X847710Y631880D01*
X847821D01*
X847862Y631894D01*
X847932Y631908D01*
X848001Y631935D01*
X848015Y631949D01*
X848057Y631991D01*
X848112Y632046D01*
X848154Y632143D01*
X848487D01*
X848473Y632116D01*
X848459Y632060D01*
X848417Y631977D01*
X848376Y631894D01*
X848362Y631880D01*
X848334Y631838D01*
X848293Y631783D01*
X848237Y631713D01*
X848223Y631699D01*
X848182Y631685D01*
X848112Y631644D01*
X848029Y631616D01*
X848015D01*
X847959Y631602D01*
X847876Y631588D01*
X847737D01*
X847668Y631602D01*
X847599Y631616D01*
X847585D01*
X847543Y631630D01*
X847488Y631658D01*
X847418Y631685D01*
X847404Y631699D01*
X847377Y631727D01*
X847279Y631797D01*
Y631810D01*
X847252Y631838D01*
X847196Y631921D01*
X847182Y631935D01*
X847168Y631963D01*
Y631977D01*
Y632005D01*
X847154Y632019D01*
X847141Y632046D01*
Y632060D01*
Y632074D01*
Y632116D01*
Y632130D01*
X847127Y632157D01*
X847113Y632213D01*
X847099Y632282D01*
Y632296D01*
Y632366D01*
Y632449D01*
Y632574D01*
Y632588D01*
Y632602D01*
Y632671D01*
Y632754D01*
Y632837D01*
Y632851D01*
X847113Y632907D01*
X847127Y632949D01*
X847141Y633004D01*
Y633018D01*
Y633032D01*
X847154Y633101D01*
Y633115D01*
X847168Y633129D01*
X847196Y633198D01*
X847210Y633212D01*
X847224Y633240D01*
X847279Y633323D01*
X847293Y633337D01*
X847321Y633365D01*
X847363Y633407D01*
X847418Y633434D01*
X847432Y633448D01*
X847474Y633462D01*
X847529Y633490D01*
X847599Y633504D01*
X847612D01*
X847654Y633518D01*
X847723Y633532D01*
X847876D01*
X847959Y633518D01*
D02*
G37*
G36*
X842213D02*
X842296Y633490D01*
X842324D01*
X842366Y633462D01*
X842435Y633434D01*
X842505Y633379D01*
X842519Y633365D01*
X842560Y633323D01*
X842602Y633268D01*
X842643Y633184D01*
X842657Y633171D01*
X842671Y633115D01*
X842699Y633046D01*
X842727Y632962D01*
X842421D01*
Y632976D01*
X842407Y633004D01*
X842366Y633074D01*
Y633087D01*
X842352Y633101D01*
X842282Y633171D01*
Y633184D01*
X842255Y633198D01*
X842185Y633226D01*
X842171D01*
X842144Y633240D01*
X842060Y633254D01*
X842047D01*
X842019Y633240D01*
X841949Y633226D01*
X841922D01*
X841880Y633212D01*
X841852Y633198D01*
X841811Y633157D01*
X841797Y633143D01*
X841741Y633115D01*
X841727Y633087D01*
X841700Y633032D01*
X841686Y633004D01*
X841672Y632949D01*
Y632935D01*
Y632921D01*
X841658Y632865D01*
Y632796D01*
Y632782D01*
Y632726D01*
Y632657D01*
Y632574D01*
Y632546D01*
Y632490D01*
Y632407D01*
Y632324D01*
Y632310D01*
Y632268D01*
Y632213D01*
X841672Y632171D01*
X841686Y632143D01*
X841700Y632088D01*
X841713Y632060D01*
X841741Y632005D01*
X841755D01*
X841769Y631991D01*
X841811Y631949D01*
X841825Y631935D01*
X841880Y631921D01*
X841894Y631908D01*
X841949Y631880D01*
X842074D01*
X842130Y631894D01*
X842199Y631908D01*
X842269Y631935D01*
X842282Y631949D01*
X842324Y631991D01*
X842380Y632046D01*
X842421Y632143D01*
X842727D01*
Y632116D01*
X842713Y632060D01*
X842685Y631977D01*
X842643Y631894D01*
X842630Y631880D01*
X842602Y631838D01*
X842546Y631783D01*
X842477Y631713D01*
X842463Y631699D01*
X842421Y631685D01*
X842366Y631644D01*
X842282Y631616D01*
X842269D01*
X842213Y631602D01*
X842144Y631588D01*
X841991D01*
X841908Y631602D01*
X841838Y631616D01*
X841825D01*
X841783Y631630D01*
X841672Y631685D01*
X841658Y631699D01*
X841630Y631727D01*
X841533Y631797D01*
X841519Y631810D01*
X841505Y631838D01*
X841436Y631921D01*
Y631935D01*
X841422Y631963D01*
Y631977D01*
X841408Y632005D01*
X841394Y632019D01*
X841380Y632046D01*
Y632060D01*
Y632074D01*
Y632116D01*
Y632130D01*
Y632157D01*
X841366Y632213D01*
Y632282D01*
Y632296D01*
Y632366D01*
Y632449D01*
Y632574D01*
Y632588D01*
Y632602D01*
Y632671D01*
Y632754D01*
Y632837D01*
Y632851D01*
Y632907D01*
Y632949D01*
X841380Y633004D01*
Y633018D01*
X841394Y633032D01*
X841408Y633101D01*
Y633115D01*
X841422Y633129D01*
X841436Y633198D01*
X841450Y633212D01*
X841464Y633240D01*
X841533Y633323D01*
X841547Y633337D01*
X841575Y633365D01*
X841672Y633434D01*
X841686Y633448D01*
X841713Y633462D01*
X841769Y633490D01*
X841838Y633504D01*
X841852D01*
X841908Y633518D01*
X841977Y633532D01*
X842144D01*
X842213Y633518D01*
D02*
G37*
G36*
X826765Y639694D02*
X826876Y639680D01*
X827001Y639653D01*
X827126Y639597D01*
X827250Y639542D01*
X827361Y639458D01*
X827375Y639444D01*
X827403Y639417D01*
X827445Y639361D01*
X827500Y639278D01*
X827542Y639181D01*
X827584Y639056D01*
X827611Y638917D01*
X827625Y638750D01*
Y638723D01*
Y638667D01*
X827611Y638570D01*
X827584Y638459D01*
X827542Y638320D01*
X827473Y638181D01*
X827389Y638042D01*
X827264Y637918D01*
X827250Y637904D01*
X827195Y637862D01*
X827112Y637807D01*
X827001Y637751D01*
X826848Y637668D01*
X826654Y637598D01*
X826432Y637543D01*
X826182Y637487D01*
X826098Y638056D01*
X826112D01*
X826168Y638070D01*
X826251Y638084D01*
X826334Y638112D01*
X826556Y638181D01*
X826654Y638237D01*
X826737Y638292D01*
X826751Y638306D01*
X826779Y638320D01*
X826806Y638362D01*
X826848Y638417D01*
X826931Y638556D01*
X826945Y638639D01*
X826959Y638736D01*
Y638750D01*
Y638764D01*
X826945Y638848D01*
X826917Y638959D01*
X826848Y639042D01*
X826834Y639056D01*
X826765Y639097D01*
X826667Y639139D01*
X826543Y639153D01*
X825682D01*
Y636321D01*
X825057D01*
Y639708D01*
X826667D01*
X826765Y639694D01*
D02*
G37*
%LPC*%
G36*
X821421Y633268D02*
X820866D01*
Y632685D01*
X821365D01*
X821463Y632699D01*
X821476D01*
X821504Y632713D01*
X821532Y632740D01*
X821560Y632768D01*
X821574Y632782D01*
X821587Y632796D01*
X821615Y632865D01*
Y632879D01*
X821629Y632907D01*
X821643Y632990D01*
Y633004D01*
Y633032D01*
X821615Y633115D01*
Y633129D01*
X821601Y633143D01*
X821587Y633184D01*
X821546Y633212D01*
X821518Y633226D01*
X821490Y633240D01*
X821449Y633254D01*
X821435D01*
X821421Y633268D01*
D02*
G37*
G36*
X828666Y633129D02*
X828375Y632282D01*
X828944D01*
X828666Y633129D01*
D02*
G37*
G36*
X819422Y633254D02*
X819394Y633240D01*
X819325Y633226D01*
X819297D01*
X819242Y633212D01*
X819214Y633198D01*
X819172Y633157D01*
X819158Y633143D01*
X819131Y633115D01*
X819117Y633087D01*
X819075Y633032D01*
X819061Y633004D01*
X819047Y632949D01*
Y632935D01*
Y632921D01*
Y632865D01*
X819034Y632796D01*
Y632782D01*
Y632726D01*
Y632657D01*
Y632574D01*
Y632546D01*
Y632490D01*
Y632407D01*
Y632324D01*
Y632310D01*
X819047Y632268D01*
Y632213D01*
Y632171D01*
X819061Y632143D01*
X819075Y632088D01*
X819089Y632060D01*
X819131Y632005D01*
X819145Y631991D01*
X819172Y631949D01*
X819186Y631935D01*
X819242Y631921D01*
X819269Y631908D01*
X819325Y631880D01*
X819533D01*
X819547Y631894D01*
X819603Y631921D01*
X819617D01*
X819630Y631935D01*
X819672Y631949D01*
X819686Y631963D01*
X819714Y632005D01*
Y632019D01*
X819728Y632032D01*
X819755Y632088D01*
Y632102D01*
X819769Y632116D01*
X819797Y632171D01*
Y632185D01*
Y632213D01*
Y632255D01*
Y632324D01*
Y632338D01*
X819811Y632393D01*
Y632477D01*
Y632574D01*
Y632602D01*
Y632643D01*
Y632726D01*
X819797Y632796D01*
Y632810D01*
Y632851D01*
Y632907D01*
Y632949D01*
Y632962D01*
X819783Y632976D01*
X819755Y633032D01*
Y633046D01*
X819741Y633060D01*
X819714Y633115D01*
X819700Y633129D01*
X819672Y633157D01*
X819658Y633171D01*
X819603Y633212D01*
X819589Y633226D01*
X819519D01*
X819492Y633240D01*
X819422Y633254D01*
D02*
G37*
G36*
X832913Y633129D02*
X832636Y632282D01*
X833191D01*
X832913Y633129D01*
D02*
G37*
G36*
X845392Y633268D02*
X844850D01*
Y632685D01*
X845350D01*
X845433Y632699D01*
X845447D01*
X845475Y632713D01*
X845544Y632768D01*
X845558Y632782D01*
X845572Y632796D01*
X845600Y632865D01*
Y632879D01*
X845614Y632907D01*
Y632990D01*
Y633004D01*
Y633032D01*
X845586Y633115D01*
Y633129D01*
X845572Y633143D01*
X845530Y633212D01*
X845517D01*
X845503Y633226D01*
X845419Y633254D01*
X845405D01*
X845392Y633268D01*
D02*
G37*
G36*
X502082Y587209D02*
X501713D01*
Y585989D01*
X502091D01*
X502107Y585992D01*
X502142Y585994D01*
X502181Y585996D01*
X502223Y586001D01*
X502265Y586008D01*
X502299Y586017D01*
X502304Y586019D01*
X502315Y586022D01*
X502332Y586029D01*
X502352Y586038D01*
X502376Y586052D01*
X502399Y586066D01*
X502422Y586082D01*
X502445Y586100D01*
X502447Y586105D01*
X502456Y586114D01*
X502470Y586130D01*
X502486Y586153D01*
X502505Y586184D01*
X502526Y586218D01*
X502544Y586257D01*
X502560Y586301D01*
Y586304D01*
X502563Y586308D01*
X502565Y586315D01*
X502567Y586324D01*
X502569Y586336D01*
X502574Y586352D01*
X502579Y586368D01*
X502583Y586387D01*
X502590Y586433D01*
X502597Y586486D01*
X502602Y586546D01*
X502604Y586611D01*
Y586613D01*
Y586622D01*
Y586634D01*
X502602Y586652D01*
Y586673D01*
X502600Y586696D01*
X502597Y586724D01*
X502595Y586752D01*
X502583Y586814D01*
X502569Y586879D01*
X502549Y586939D01*
X502535Y586969D01*
X502521Y586994D01*
Y586997D01*
X502516Y587001D01*
X502512Y587008D01*
X502507Y587017D01*
X502489Y587041D01*
X502466Y587068D01*
X502435Y587098D01*
X502401Y587128D01*
X502362Y587154D01*
X502320Y587174D01*
X502315Y587177D01*
X502304Y587179D01*
X502283Y587186D01*
X502253Y587193D01*
X502216Y587197D01*
X502170Y587205D01*
X502142Y587207D01*
X502112D01*
X502082Y587209D01*
D02*
G37*
G36*
X507044D02*
X506674D01*
Y585989D01*
X507053D01*
X507069Y585992D01*
X507104Y585994D01*
X507143Y585996D01*
X507185Y586001D01*
X507227Y586008D01*
X507261Y586017D01*
X507266Y586019D01*
X507277Y586022D01*
X507294Y586029D01*
X507314Y586038D01*
X507337Y586052D01*
X507361Y586066D01*
X507384Y586082D01*
X507407Y586100D01*
X507409Y586105D01*
X507418Y586114D01*
X507432Y586130D01*
X507448Y586153D01*
X507467Y586184D01*
X507487Y586218D01*
X507506Y586257D01*
X507522Y586301D01*
Y586304D01*
X507524Y586308D01*
X507527Y586315D01*
X507529Y586324D01*
X507531Y586336D01*
X507536Y586352D01*
X507541Y586368D01*
X507545Y586387D01*
X507552Y586433D01*
X507559Y586486D01*
X507564Y586546D01*
X507566Y586611D01*
Y586613D01*
Y586622D01*
Y586634D01*
X507564Y586652D01*
Y586673D01*
X507561Y586696D01*
X507559Y586724D01*
X507557Y586752D01*
X507545Y586814D01*
X507531Y586879D01*
X507511Y586939D01*
X507497Y586969D01*
X507483Y586994D01*
Y586997D01*
X507478Y587001D01*
X507474Y587008D01*
X507469Y587017D01*
X507451Y587041D01*
X507428Y587068D01*
X507397Y587098D01*
X507363Y587128D01*
X507324Y587154D01*
X507282Y587174D01*
X507277Y587177D01*
X507266Y587179D01*
X507245Y587186D01*
X507215Y587193D01*
X507178Y587197D01*
X507132Y587205D01*
X507104Y587207D01*
X507074D01*
X507044Y587209D01*
D02*
G37*
G36*
X501621Y582232D02*
Y582230D01*
X501618Y582225D01*
Y582216D01*
X501614Y582207D01*
X501612Y582191D01*
X501607Y582174D01*
X501598Y582135D01*
X501586Y582089D01*
X501570Y582038D01*
X501554Y581983D01*
X501533Y581925D01*
X501360Y581458D01*
X501900D01*
X501734Y581897D01*
Y581900D01*
X501732Y581907D01*
X501727Y581918D01*
X501722Y581932D01*
X501715Y581948D01*
X501709Y581969D01*
X501702Y581992D01*
X501692Y582015D01*
X501674Y582068D01*
X501655Y582124D01*
X501637Y582179D01*
X501621Y582232D01*
D02*
G37*
G36*
X506497Y582209D02*
X506128D01*
Y580989D01*
X506506D01*
X506523Y580992D01*
X506557Y580994D01*
X506597Y580996D01*
X506638Y581001D01*
X506680Y581008D01*
X506714Y581017D01*
X506719Y581019D01*
X506730Y581022D01*
X506747Y581029D01*
X506767Y581038D01*
X506790Y581052D01*
X506814Y581066D01*
X506837Y581082D01*
X506860Y581100D01*
X506862Y581105D01*
X506871Y581114D01*
X506885Y581130D01*
X506901Y581153D01*
X506920Y581183D01*
X506941Y581218D01*
X506959Y581257D01*
X506975Y581301D01*
Y581304D01*
X506978Y581308D01*
X506980Y581315D01*
X506982Y581324D01*
X506985Y581336D01*
X506989Y581352D01*
X506994Y581368D01*
X506998Y581387D01*
X507005Y581433D01*
X507012Y581486D01*
X507017Y581546D01*
X507019Y581611D01*
Y581613D01*
Y581622D01*
Y581634D01*
X507017Y581652D01*
Y581673D01*
X507015Y581696D01*
X507012Y581724D01*
X507010Y581752D01*
X506998Y581814D01*
X506985Y581879D01*
X506964Y581939D01*
X506950Y581969D01*
X506936Y581994D01*
Y581997D01*
X506931Y582001D01*
X506927Y582008D01*
X506922Y582017D01*
X506904Y582041D01*
X506881Y582068D01*
X506851Y582098D01*
X506816Y582128D01*
X506777Y582154D01*
X506735Y582174D01*
X506730Y582177D01*
X506719Y582179D01*
X506698Y582186D01*
X506668Y582193D01*
X506631Y582198D01*
X506585Y582204D01*
X506557Y582207D01*
X506527D01*
X506497Y582209D01*
D02*
G37*
G36*
X489321Y587032D02*
Y587030D01*
X489318Y587025D01*
Y587016D01*
X489314Y587007D01*
X489312Y586991D01*
X489307Y586974D01*
X489298Y586935D01*
X489286Y586889D01*
X489270Y586838D01*
X489254Y586783D01*
X489233Y586725D01*
X489060Y586258D01*
X489600D01*
X489434Y586697D01*
Y586700D01*
X489432Y586706D01*
X489427Y586718D01*
X489422Y586732D01*
X489415Y586748D01*
X489408Y586769D01*
X489402Y586792D01*
X489392Y586815D01*
X489374Y586868D01*
X489355Y586924D01*
X489337Y586979D01*
X489321Y587032D01*
D02*
G37*
G36*
X494197Y587009D02*
X493827D01*
Y585789D01*
X494206D01*
X494222Y585792D01*
X494257Y585794D01*
X494297Y585796D01*
X494338Y585801D01*
X494380Y585808D01*
X494414Y585817D01*
X494419Y585819D01*
X494430Y585822D01*
X494447Y585829D01*
X494467Y585838D01*
X494490Y585852D01*
X494514Y585866D01*
X494537Y585882D01*
X494560Y585900D01*
X494562Y585905D01*
X494571Y585914D01*
X494585Y585930D01*
X494601Y585953D01*
X494620Y585984D01*
X494641Y586018D01*
X494659Y586057D01*
X494675Y586101D01*
Y586104D01*
X494678Y586108D01*
X494680Y586115D01*
X494682Y586124D01*
X494685Y586136D01*
X494689Y586152D01*
X494694Y586168D01*
X494698Y586187D01*
X494705Y586233D01*
X494712Y586286D01*
X494717Y586346D01*
X494719Y586411D01*
Y586413D01*
Y586422D01*
Y586434D01*
X494717Y586452D01*
Y586473D01*
X494715Y586496D01*
X494712Y586524D01*
X494710Y586552D01*
X494698Y586614D01*
X494685Y586679D01*
X494664Y586739D01*
X494650Y586769D01*
X494636Y586794D01*
Y586797D01*
X494631Y586801D01*
X494627Y586808D01*
X494622Y586817D01*
X494604Y586840D01*
X494581Y586868D01*
X494551Y586898D01*
X494516Y586928D01*
X494477Y586954D01*
X494435Y586974D01*
X494430Y586977D01*
X494419Y586979D01*
X494398Y586986D01*
X494368Y586993D01*
X494331Y586998D01*
X494285Y587005D01*
X494257Y587007D01*
X494227D01*
X494197Y587009D01*
D02*
G37*
G36*
X843310Y639181D02*
X843226D01*
X843129Y639167D01*
X843018Y639139D01*
X842879Y639111D01*
X842754Y639056D01*
X842630Y638986D01*
X842519Y638889D01*
X842505Y638875D01*
X842477Y638834D01*
X842435Y638764D01*
X842394Y638667D01*
X842338Y638542D01*
X842296Y638403D01*
X842269Y638223D01*
X842255Y638015D01*
Y637987D01*
Y637918D01*
X842269Y637820D01*
X842282Y637682D01*
X842324Y637543D01*
X842366Y637390D01*
X842435Y637251D01*
X842519Y637126D01*
X842532Y637113D01*
X842574Y637085D01*
X842630Y637029D01*
X842713Y636974D01*
X842824Y636918D01*
X842963Y636863D01*
X843129Y636835D01*
X843310Y636821D01*
X843393D01*
X843490Y636835D01*
X843601Y636863D01*
X843726Y636891D01*
X843851Y636946D01*
X843976Y637029D01*
X844073Y637126D01*
X844087Y637140D01*
X844115Y637182D01*
X844156Y637251D01*
X844212Y637349D01*
X844254Y637473D01*
X844295Y637626D01*
X844323Y637807D01*
X844337Y638015D01*
Y638042D01*
Y638112D01*
X844323Y638209D01*
X844309Y638348D01*
X844267Y638487D01*
X844226Y638625D01*
X844156Y638764D01*
X844073Y638889D01*
X844059Y638903D01*
X844031Y638931D01*
X843962Y638986D01*
X843879Y639042D01*
X843782Y639083D01*
X843643Y639139D01*
X843490Y639167D01*
X843310Y639181D01*
D02*
G37*
%LPD*%
D17*
X670899Y1026098D02*
X669899Y1027098D01*
X667900D01*
X666900Y1026098D01*
Y1022100D01*
X667900Y1021100D01*
X669899D01*
X670899Y1022100D01*
X676897Y1021100D02*
X672898D01*
X676897Y1025099D01*
Y1026098D01*
X675897Y1027098D01*
X673898D01*
X672898Y1026098D01*
X678896Y1020100D02*
X682895D01*
X684894Y1021100D02*
X686894D01*
X685894D01*
Y1027098D01*
X684894Y1026098D01*
X655200Y946400D02*
X649202D01*
Y949399D01*
X650202Y950399D01*
X652201D01*
X653201Y949399D01*
Y946400D01*
Y948399D02*
X655200Y950399D01*
Y952398D02*
Y954397D01*
Y953398D01*
X649202D01*
X650202Y952398D01*
X656200Y957396D02*
Y961395D01*
X655200Y963395D02*
Y965394D01*
Y964394D01*
X649202D01*
X650202Y963395D01*
X641299Y736698D02*
X640299Y737698D01*
X638300D01*
X637300Y736698D01*
Y732700D01*
X638300Y731700D01*
X640299D01*
X641299Y732700D01*
X647297Y731700D02*
X643298D01*
X647297Y735699D01*
Y736698D01*
X646297Y737698D01*
X644298D01*
X643298Y736698D01*
X649296Y730700D02*
X653295D01*
X659293Y731700D02*
X655294D01*
X659293Y735699D01*
Y736698D01*
X658293Y737698D01*
X656294D01*
X655294Y736698D01*
X625900Y627200D02*
Y633198D01*
X628899D01*
X629899Y632198D01*
Y630199D01*
X628899Y629199D01*
X625900D01*
X635897Y633198D02*
X633897Y632198D01*
X631898Y630199D01*
Y628200D01*
X632898Y627200D01*
X634897D01*
X635897Y628200D01*
Y629199D01*
X634897Y630199D01*
X631898D01*
X561700Y626598D02*
Y621600D01*
X562700Y620600D01*
X564699D01*
X565699Y621600D01*
Y626598D01*
X570697Y620600D02*
Y626598D01*
X567698Y623599D01*
X571697D01*
X587899Y578098D02*
X586899Y579098D01*
X584900D01*
X583900Y578098D01*
Y574100D01*
X584900Y573100D01*
X586899D01*
X587899Y574100D01*
X589898Y578098D02*
X590898Y579098D01*
X592897D01*
X593897Y578098D01*
Y577099D01*
X592897Y576099D01*
X593897Y575099D01*
Y574100D01*
X592897Y573100D01*
X590898D01*
X589898Y574100D01*
Y575099D01*
X590898Y576099D01*
X589898Y577099D01*
Y578098D01*
X590898Y576099D02*
X592897D01*
X562000Y552098D02*
Y547100D01*
X563000Y546100D01*
X564999D01*
X565999Y547100D01*
Y552098D01*
X571997D02*
X567998D01*
Y549099D01*
X569997Y550099D01*
X570997D01*
X571997Y549099D01*
Y547100D01*
X570997Y546100D01*
X568998D01*
X567998Y547100D01*
X455500Y579000D02*
Y584998D01*
X458499D01*
X459499Y583998D01*
Y581999D01*
X458499Y580999D01*
X455500D01*
X465497Y584998D02*
X461498D01*
Y581999D01*
X463497Y582999D01*
X464497D01*
X465497Y581999D01*
Y580000D01*
X464497Y579000D01*
X462498D01*
X461498Y580000D01*
X525000Y1140000D02*
Y1145998D01*
X527999D01*
X528999Y1144998D01*
Y1142999D01*
X527999Y1141999D01*
X525000D01*
X533997Y1140000D02*
Y1145998D01*
X530998Y1142999D01*
X534997D01*
X536996Y1139000D02*
X540995D01*
X545993Y1140000D02*
Y1145998D01*
X542994Y1142999D01*
X546993D01*
X600000Y819000D02*
Y824998D01*
X602999D01*
X603999Y823998D01*
Y821999D01*
X602999Y820999D01*
X600000D01*
X608997Y819000D02*
Y824998D01*
X605998Y821999D01*
X609997D01*
X611996Y818000D02*
X615995D01*
X621993Y819000D02*
X617994D01*
X621993Y822999D01*
Y823998D01*
X620993Y824998D01*
X618994D01*
X617994Y823998D01*
X587000Y1110500D02*
Y1116498D01*
X589999D01*
X590999Y1115498D01*
Y1113499D01*
X589999Y1112499D01*
X587000D01*
X595997Y1110500D02*
Y1116498D01*
X592998Y1113499D01*
X596997D01*
X598996Y1109500D02*
X602995D01*
X604994Y1110500D02*
X606993D01*
X605994D01*
Y1116498D01*
X604994Y1115498D01*
X400990Y1087689D02*
X405988D01*
X406988Y1088688D01*
Y1090688D01*
X405988Y1091687D01*
X400990D01*
X401990Y1093687D02*
X400990Y1094687D01*
Y1096686D01*
X401990Y1097686D01*
X402989D01*
X403989Y1096686D01*
Y1095686D01*
Y1096686D01*
X404989Y1097686D01*
X405988D01*
X406988Y1096686D01*
Y1094687D01*
X405988Y1093687D01*
X407988Y1099685D02*
Y1103684D01*
X406988Y1108682D02*
X400990D01*
X403989Y1105683D01*
Y1109682D01*
X480298Y780500D02*
X475300D01*
X474300Y779500D01*
Y777501D01*
X475300Y776501D01*
X480298D01*
X479298Y774502D02*
X480298Y773502D01*
Y771503D01*
X479298Y770503D01*
X478299D01*
X477299Y771503D01*
Y772503D01*
Y771503D01*
X476299Y770503D01*
X475300D01*
X474300Y771503D01*
Y773502D01*
X475300Y774502D01*
X473300Y768504D02*
Y764505D01*
X479298Y762506D02*
X480298Y761506D01*
Y759507D01*
X479298Y758507D01*
X478299D01*
X477299Y759507D01*
Y760506D01*
Y759507D01*
X476299Y758507D01*
X475300D01*
X474300Y759507D01*
Y761506D01*
X475300Y762506D01*
X732376Y786622D02*
X727378D01*
X726378Y785623D01*
Y783623D01*
X727378Y782624D01*
X732376D01*
X731377Y780624D02*
X732376Y779625D01*
Y777625D01*
X731377Y776626D01*
X730377D01*
X729377Y777625D01*
Y778625D01*
Y777625D01*
X728378Y776626D01*
X727378D01*
X726378Y777625D01*
Y779625D01*
X727378Y780624D01*
X725379Y774626D02*
Y770628D01*
X726378Y764630D02*
Y768628D01*
X730377Y764630D01*
X731377D01*
X732376Y765629D01*
Y767628D01*
X731377Y768628D01*
X726698Y1075600D02*
X721700D01*
X720700Y1074600D01*
Y1072601D01*
X721700Y1071601D01*
X726698D01*
X725698Y1069602D02*
X726698Y1068602D01*
Y1066603D01*
X725698Y1065603D01*
X724699D01*
X723699Y1066603D01*
Y1067603D01*
Y1066603D01*
X722699Y1065603D01*
X721700D01*
X720700Y1066603D01*
Y1068602D01*
X721700Y1069602D01*
X719700Y1063604D02*
Y1059605D01*
X720700Y1057606D02*
Y1055606D01*
Y1056606D01*
X726698D01*
X725698Y1057606D01*
X483010Y1022311D02*
X478012D01*
X477012Y1021311D01*
Y1019312D01*
X478012Y1018312D01*
X483010D01*
X477012Y1012314D02*
Y1016313D01*
X481011Y1012314D01*
X482010D01*
X483010Y1013314D01*
Y1015314D01*
X482010Y1016313D01*
X476012Y1010315D02*
Y1006316D01*
X477012Y1001318D02*
X483010D01*
X480011Y1004317D01*
Y1000318D01*
X482998Y702700D02*
X478000D01*
X477000Y701700D01*
Y699701D01*
X478000Y698701D01*
X482998D01*
X477000Y692703D02*
Y696702D01*
X480999Y692703D01*
X481998D01*
X482998Y693703D01*
Y695702D01*
X481998Y696702D01*
X476000Y690704D02*
Y686705D01*
X481998Y684706D02*
X482998Y683706D01*
Y681707D01*
X481998Y680707D01*
X480999D01*
X479999Y681707D01*
Y682706D01*
Y681707D01*
X478999Y680707D01*
X478000D01*
X477000Y681707D01*
Y683706D01*
X478000Y684706D01*
X651102Y851300D02*
X656100D01*
X657100Y852300D01*
Y854299D01*
X656100Y855299D01*
X651102D01*
X657100Y861297D02*
Y857298D01*
X653101Y861297D01*
X652102D01*
X651102Y860297D01*
Y858298D01*
X652102Y857298D01*
X658100Y863296D02*
Y867295D01*
X657100Y873293D02*
Y869294D01*
X653101Y873293D01*
X652102D01*
X651102Y872293D01*
Y870294D01*
X652102Y869294D01*
X645602Y1139000D02*
X650600D01*
X651600Y1140000D01*
Y1141999D01*
X650600Y1142999D01*
X645602D01*
X651600Y1148997D02*
Y1144998D01*
X647601Y1148997D01*
X646602D01*
X645602Y1147997D01*
Y1145998D01*
X646602Y1144998D01*
X652600Y1150996D02*
Y1154995D01*
X651600Y1156994D02*
Y1158994D01*
Y1157994D01*
X645602D01*
X646602Y1156994D01*
X408400Y1052800D02*
X402402D01*
Y1055799D01*
X403402Y1056799D01*
X405401D01*
X406401Y1055799D01*
Y1052800D01*
Y1054799D02*
X408400Y1056799D01*
X403402Y1058798D02*
X402402Y1059798D01*
Y1061797D01*
X403402Y1062797D01*
X404401D01*
X405401Y1061797D01*
Y1060797D01*
Y1061797D01*
X406401Y1062797D01*
X407400D01*
X408400Y1061797D01*
Y1059798D01*
X407400Y1058798D01*
X409400Y1064796D02*
Y1068795D01*
X408400Y1073793D02*
X402402D01*
X405401Y1070794D01*
Y1074793D01*
X407700Y732100D02*
X401702D01*
Y735099D01*
X402702Y736099D01*
X404701D01*
X405701Y735099D01*
Y732100D01*
Y734099D02*
X407700Y736099D01*
X402702Y738098D02*
X401702Y739098D01*
Y741097D01*
X402702Y742097D01*
X403701D01*
X404701Y741097D01*
Y740097D01*
Y741097D01*
X405701Y742097D01*
X406700D01*
X407700Y741097D01*
Y739098D01*
X406700Y738098D01*
X408700Y744096D02*
Y748095D01*
X402702Y750094D02*
X401702Y751094D01*
Y753093D01*
X402702Y754093D01*
X403701D01*
X404701Y753093D01*
Y752094D01*
Y753093D01*
X405701Y754093D01*
X406700D01*
X407700Y753093D01*
Y751094D01*
X406700Y750094D01*
X723700Y820800D02*
X729698D01*
Y817801D01*
X728698Y816801D01*
X726699D01*
X725699Y817801D01*
Y820800D01*
Y818801D02*
X723700Y816801D01*
X728698Y814802D02*
X729698Y813802D01*
Y811803D01*
X728698Y810803D01*
X727699D01*
X726699Y811803D01*
Y812803D01*
Y811803D01*
X725699Y810803D01*
X724700D01*
X723700Y811803D01*
Y813802D01*
X724700Y814802D01*
X722700Y808804D02*
Y804805D01*
X723700Y798807D02*
Y802806D01*
X727699Y798807D01*
X728698D01*
X729698Y799807D01*
Y801806D01*
X728698Y802806D01*
X719200Y1107400D02*
X725198D01*
Y1104401D01*
X724198Y1103401D01*
X722199D01*
X721199Y1104401D01*
Y1107400D01*
Y1105401D02*
X719200Y1103401D01*
X724198Y1101402D02*
X725198Y1100402D01*
Y1098403D01*
X724198Y1097403D01*
X723199D01*
X722199Y1098403D01*
Y1099403D01*
Y1098403D01*
X721199Y1097403D01*
X720200D01*
X719200Y1098403D01*
Y1100402D01*
X720200Y1101402D01*
X718200Y1095404D02*
Y1091405D01*
X719200Y1089406D02*
Y1087407D01*
Y1088406D01*
X725198D01*
X724198Y1089406D01*
X474200Y1053900D02*
X480198D01*
Y1050901D01*
X479198Y1049901D01*
X477199D01*
X476199Y1050901D01*
Y1053900D01*
Y1051901D02*
X474200Y1049901D01*
Y1043903D02*
Y1047902D01*
X478199Y1043903D01*
X479198D01*
X480198Y1044903D01*
Y1046902D01*
X479198Y1047902D01*
X473200Y1041904D02*
Y1037905D01*
X474200Y1032907D02*
X480198D01*
X477199Y1035906D01*
Y1031907D01*
X454200Y727800D02*
Y733798D01*
X457199D01*
X458199Y732798D01*
Y730799D01*
X457199Y729799D01*
X454200D01*
X456199D02*
X458199Y727800D01*
X464197D02*
X460198D01*
X464197Y731799D01*
Y732798D01*
X463197Y733798D01*
X461198D01*
X460198Y732798D01*
X466196Y726800D02*
X470195D01*
X472194Y732798D02*
X473194Y733798D01*
X475193D01*
X476193Y732798D01*
Y731799D01*
X475193Y730799D01*
X474193D01*
X475193D01*
X476193Y729799D01*
Y728800D01*
X475193Y727800D01*
X473194D01*
X472194Y728800D01*
X659400Y821500D02*
X653402D01*
Y824499D01*
X654402Y825499D01*
X656401D01*
X657401Y824499D01*
Y821500D01*
Y823499D02*
X659400Y825499D01*
Y831497D02*
Y827498D01*
X655401Y831497D01*
X654402D01*
X653402Y830497D01*
Y828498D01*
X654402Y827498D01*
X660400Y833496D02*
Y837495D01*
X659400Y843493D02*
Y839494D01*
X655401Y843493D01*
X654402D01*
X653402Y842493D01*
Y840494D01*
X654402Y839494D01*
X652400Y1111200D02*
X646402D01*
Y1114199D01*
X647402Y1115199D01*
X649401D01*
X650401Y1114199D01*
Y1111200D01*
Y1113199D02*
X652400Y1115199D01*
Y1121197D02*
Y1117198D01*
X648401Y1121197D01*
X647402D01*
X646402Y1120197D01*
Y1118198D01*
X647402Y1117198D01*
X653400Y1123196D02*
Y1127195D01*
X652400Y1129194D02*
Y1131194D01*
Y1130194D01*
X646402D01*
X647402Y1129194D01*
X392299Y1136998D02*
X391299Y1137998D01*
X389300D01*
X388300Y1136998D01*
Y1133000D01*
X389300Y1132000D01*
X391299D01*
X392299Y1133000D01*
X398297Y1137998D02*
X396297Y1136998D01*
X394298Y1134999D01*
Y1133000D01*
X395298Y1132000D01*
X397297D01*
X398297Y1133000D01*
Y1133999D01*
X397297Y1134999D01*
X394298D01*
X400296Y1131000D02*
X404295D01*
X409293Y1132000D02*
Y1137998D01*
X406294Y1134999D01*
X410293D01*
X428999Y814698D02*
X427999Y815698D01*
X426000D01*
X425000Y814698D01*
Y810700D01*
X426000Y809700D01*
X427999D01*
X428999Y810700D01*
X434997Y815698D02*
X432997Y814698D01*
X430998Y812699D01*
Y810700D01*
X431998Y809700D01*
X433997D01*
X434997Y810700D01*
Y811699D01*
X433997Y812699D01*
X430998D01*
X436996Y808700D02*
X440995D01*
X442994Y814698D02*
X443994Y815698D01*
X445993D01*
X446993Y814698D01*
Y813699D01*
X445993Y812699D01*
X444993D01*
X445993D01*
X446993Y811699D01*
Y810700D01*
X445993Y809700D01*
X443994D01*
X442994Y810700D01*
X691599Y744398D02*
X690599Y745398D01*
X688600D01*
X687600Y744398D01*
Y740400D01*
X688600Y739400D01*
X690599D01*
X691599Y740400D01*
X697597Y745398D02*
X695597Y744398D01*
X693598Y742399D01*
Y740400D01*
X694598Y739400D01*
X696597D01*
X697597Y740400D01*
Y741399D01*
X696597Y742399D01*
X693598D01*
X699596Y738400D02*
X703595D01*
X709593Y739400D02*
X705594D01*
X709593Y743399D01*
Y744398D01*
X708593Y745398D01*
X706594D01*
X705594Y744398D01*
X722099Y1032598D02*
X721099Y1033598D01*
X719100D01*
X718100Y1032598D01*
Y1028600D01*
X719100Y1027600D01*
X721099D01*
X722099Y1028600D01*
X728097Y1033598D02*
X726097Y1032598D01*
X724098Y1030599D01*
Y1028600D01*
X725098Y1027600D01*
X727097D01*
X728097Y1028600D01*
Y1029599D01*
X727097Y1030599D01*
X724098D01*
X730096Y1026600D02*
X734095D01*
X736094Y1027600D02*
X738094D01*
X737094D01*
Y1033598D01*
X736094Y1032598D01*
X391699Y1126498D02*
X390699Y1127498D01*
X388700D01*
X387700Y1126498D01*
Y1122500D01*
X388700Y1121500D01*
X390699D01*
X391699Y1122500D01*
X397697Y1127498D02*
X393698D01*
Y1124499D01*
X395697Y1125499D01*
X396697D01*
X397697Y1124499D01*
Y1122500D01*
X396697Y1121500D01*
X394698D01*
X393698Y1122500D01*
X399696Y1120500D02*
X403695D01*
X408693Y1121500D02*
Y1127498D01*
X405694Y1124499D01*
X409693D01*
X429199Y803998D02*
X428199Y804998D01*
X426200D01*
X425200Y803998D01*
Y800000D01*
X426200Y799000D01*
X428199D01*
X429199Y800000D01*
X435197Y804998D02*
X431198D01*
Y801999D01*
X433197Y802999D01*
X434197D01*
X435197Y801999D01*
Y800000D01*
X434197Y799000D01*
X432198D01*
X431198Y800000D01*
X437196Y798000D02*
X441195D01*
X443194Y803998D02*
X444194Y804998D01*
X446193D01*
X447193Y803998D01*
Y802999D01*
X446193Y801999D01*
X445193D01*
X446193D01*
X447193Y800999D01*
Y800000D01*
X446193Y799000D01*
X444194D01*
X443194Y800000D01*
X727799Y753298D02*
X726799Y754298D01*
X724800D01*
X723800Y753298D01*
Y749300D01*
X724800Y748300D01*
X726799D01*
X727799Y749300D01*
X733797Y754298D02*
X729798D01*
Y751299D01*
X731797Y752299D01*
X732797D01*
X733797Y751299D01*
Y749300D01*
X732797Y748300D01*
X730798D01*
X729798Y749300D01*
X735796Y747300D02*
X739795D01*
X745793Y748300D02*
X741794D01*
X745793Y752299D01*
Y753298D01*
X744793Y754298D01*
X742794D01*
X741794Y753298D01*
X721599Y1042998D02*
X720599Y1043998D01*
X718600D01*
X717600Y1042998D01*
Y1039000D01*
X718600Y1038000D01*
X720599D01*
X721599Y1039000D01*
X727597Y1043998D02*
X723598D01*
Y1040999D01*
X725597Y1041999D01*
X726597D01*
X727597Y1040999D01*
Y1039000D01*
X726597Y1038000D01*
X724598D01*
X723598Y1039000D01*
X729596Y1037000D02*
X733595D01*
X735594Y1038000D02*
X737594D01*
X736594D01*
Y1043998D01*
X735594Y1042998D01*
X484699Y985998D02*
X483699Y986998D01*
X481700D01*
X480700Y985998D01*
Y982000D01*
X481700Y981000D01*
X483699D01*
X484699Y982000D01*
X489697Y981000D02*
Y986998D01*
X486698Y983999D01*
X490697D01*
X492696Y980000D02*
X496695D01*
X501693Y981000D02*
Y986998D01*
X498694Y983999D01*
X502693D01*
X484599Y666698D02*
X483599Y667698D01*
X481600D01*
X480600Y666698D01*
Y662700D01*
X481600Y661700D01*
X483599D01*
X484599Y662700D01*
X489597Y661700D02*
Y667698D01*
X486598Y664699D01*
X490597D01*
X492596Y660700D02*
X496595D01*
X498594Y666698D02*
X499594Y667698D01*
X501593D01*
X502593Y666698D01*
Y665699D01*
X501593Y664699D01*
X500594D01*
X501593D01*
X502593Y663699D01*
Y662700D01*
X501593Y661700D01*
X499594D01*
X498594Y662700D01*
X677499Y902198D02*
X676499Y903198D01*
X674500D01*
X673500Y902198D01*
Y898200D01*
X674500Y897200D01*
X676499D01*
X677499Y898200D01*
X682497Y897200D02*
Y903198D01*
X679498Y900199D01*
X683497D01*
X685496Y896200D02*
X689495D01*
X695493Y897200D02*
X691494D01*
X695493Y901199D01*
Y902198D01*
X694493Y903198D01*
X692494D01*
X691494Y902198D01*
X666599Y1183698D02*
X665599Y1184698D01*
X663600D01*
X662600Y1183698D01*
Y1179700D01*
X663600Y1178700D01*
X665599D01*
X666599Y1179700D01*
X671597Y1178700D02*
Y1184698D01*
X668598Y1181699D01*
X672597D01*
X674596Y1177700D02*
X678595D01*
X680594Y1178700D02*
X682593D01*
X681594D01*
Y1184698D01*
X680594Y1183698D01*
X484299Y975798D02*
X483299Y976798D01*
X481300D01*
X480300Y975798D01*
Y971800D01*
X481300Y970800D01*
X483299D01*
X484299Y971800D01*
X486298Y975798D02*
X487298Y976798D01*
X489297D01*
X490297Y975798D01*
Y974799D01*
X489297Y973799D01*
X488297D01*
X489297D01*
X490297Y972799D01*
Y971800D01*
X489297Y970800D01*
X487298D01*
X486298Y971800D01*
X492296Y969800D02*
X496295D01*
X501293Y970800D02*
Y976798D01*
X498294Y973799D01*
X502293D01*
X484799Y655198D02*
X483799Y656198D01*
X481800D01*
X480800Y655198D01*
Y651200D01*
X481800Y650200D01*
X483799D01*
X484799Y651200D01*
X486798Y655198D02*
X487798Y656198D01*
X489797D01*
X490797Y655198D01*
Y654199D01*
X489797Y653199D01*
X488797D01*
X489797D01*
X490797Y652199D01*
Y651200D01*
X489797Y650200D01*
X487798D01*
X486798Y651200D01*
X492796Y649200D02*
X496795D01*
X498794Y655198D02*
X499794Y656198D01*
X501793D01*
X502793Y655198D01*
Y654199D01*
X501793Y653199D01*
X500794D01*
X501793D01*
X502793Y652199D01*
Y651200D01*
X501793Y650200D01*
X499794D01*
X498794Y651200D01*
X677899Y891998D02*
X676899Y892998D01*
X674900D01*
X673900Y891998D01*
Y888000D01*
X674900Y887000D01*
X676899D01*
X677899Y888000D01*
X679898Y891998D02*
X680898Y892998D01*
X682897D01*
X683897Y891998D01*
Y890999D01*
X682897Y889999D01*
X681897D01*
X682897D01*
X683897Y888999D01*
Y888000D01*
X682897Y887000D01*
X680898D01*
X679898Y888000D01*
X685896Y886000D02*
X689895D01*
X695893Y887000D02*
X691894D01*
X695893Y890999D01*
Y891998D01*
X694893Y892998D01*
X692894D01*
X691894Y891998D01*
X666199Y1193398D02*
X665199Y1194398D01*
X663200D01*
X662200Y1193398D01*
Y1189400D01*
X663200Y1188400D01*
X665199D01*
X666199Y1189400D01*
X668198Y1193398D02*
X669198Y1194398D01*
X671197D01*
X672197Y1193398D01*
Y1192399D01*
X671197Y1191399D01*
X670197D01*
X671197D01*
X672197Y1190399D01*
Y1189400D01*
X671197Y1188400D01*
X669198D01*
X668198Y1189400D01*
X674196Y1187400D02*
X678195D01*
X680194Y1188400D02*
X682194D01*
X681194D01*
Y1194398D01*
X680194Y1193398D01*
X479498Y1192000D02*
X474500D01*
X473500Y1191000D01*
Y1189001D01*
X474500Y1188001D01*
X479498D01*
X473500Y1186002D02*
Y1184003D01*
Y1185002D01*
X479498D01*
X478498Y1186002D01*
X472500Y1181004D02*
Y1177005D01*
X473500Y1172007D02*
X479498D01*
X476499Y1175006D01*
Y1171007D01*
X479198Y870100D02*
X474200D01*
X473200Y869100D01*
Y867101D01*
X474200Y866101D01*
X479198D01*
X473200Y864102D02*
Y862103D01*
Y863102D01*
X479198D01*
X478198Y864102D01*
X472200Y859104D02*
Y855105D01*
X478198Y853106D02*
X479198Y852106D01*
Y850107D01*
X478198Y849107D01*
X477199D01*
X476199Y850107D01*
Y851106D01*
Y850107D01*
X475199Y849107D01*
X474200D01*
X473200Y850107D01*
Y852106D01*
X474200Y853106D01*
X652102Y682000D02*
X657100D01*
X658100Y683000D01*
Y684999D01*
X657100Y685999D01*
X652102D01*
X658100Y687998D02*
Y689997D01*
Y688998D01*
X652102D01*
X653102Y687998D01*
X659100Y692996D02*
Y696995D01*
X658100Y702993D02*
Y698994D01*
X654101Y702993D01*
X653102D01*
X652102Y701994D01*
Y699994D01*
X653102Y698994D01*
X647702Y974300D02*
X652700D01*
X653700Y975300D01*
Y977299D01*
X652700Y978299D01*
X647702D01*
X653700Y980298D02*
Y982297D01*
Y981298D01*
X647702D01*
X648702Y980298D01*
X654700Y985296D02*
Y989295D01*
X653700Y991294D02*
Y993294D01*
Y992294D01*
X647702D01*
X648702Y991294D01*
X463600Y1203600D02*
X457602D01*
Y1206599D01*
X458602Y1207599D01*
X460601D01*
X461601Y1206599D01*
Y1203600D01*
Y1205599D02*
X463600Y1207599D01*
Y1209598D02*
Y1211597D01*
Y1210598D01*
X457602D01*
X458602Y1209598D01*
X464600Y1214596D02*
Y1218595D01*
X463600Y1223594D02*
X457602D01*
X460601Y1220595D01*
Y1224593D01*
X463200Y881600D02*
X457202D01*
Y884599D01*
X458202Y885599D01*
X460201D01*
X461201Y884599D01*
Y881600D01*
Y883599D02*
X463200Y885599D01*
Y887598D02*
Y889597D01*
Y888598D01*
X457202D01*
X458202Y887598D01*
X464200Y892596D02*
Y896595D01*
X458202Y898594D02*
X457202Y899594D01*
Y901593D01*
X458202Y902593D01*
X459201D01*
X460201Y901593D01*
Y900594D01*
Y901593D01*
X461201Y902593D01*
X462200D01*
X463200Y901593D01*
Y899594D01*
X462200Y898594D01*
X658700Y653100D02*
X652702D01*
Y656099D01*
X653702Y657099D01*
X655701D01*
X656701Y656099D01*
Y653100D01*
Y655099D02*
X658700Y657099D01*
Y659098D02*
Y661097D01*
Y660098D01*
X652702D01*
X653702Y659098D01*
X659700Y664096D02*
Y668095D01*
X658700Y674093D02*
Y670094D01*
X654701Y674093D01*
X653702D01*
X652702Y673094D01*
Y671094D01*
X653702Y670094D01*
X483699Y1153098D02*
X482699Y1154098D01*
X480700D01*
X479700Y1153098D01*
Y1149100D01*
X480700Y1148100D01*
X482699D01*
X483699Y1149100D01*
X489697Y1148100D02*
X485698D01*
X489697Y1152099D01*
Y1153098D01*
X488697Y1154098D01*
X486698D01*
X485698Y1153098D01*
X491696Y1147100D02*
X495695D01*
X500693Y1148100D02*
Y1154098D01*
X497694Y1151099D01*
X501693D01*
X480299Y831398D02*
X479299Y832398D01*
X477300D01*
X476300Y831398D01*
Y827400D01*
X477300Y826400D01*
X479299D01*
X480299Y827400D01*
X486297Y826400D02*
X482298D01*
X486297Y830399D01*
Y831398D01*
X485297Y832398D01*
X483298D01*
X482298Y831398D01*
X488296Y825400D02*
X492295D01*
X494294Y831398D02*
X495294Y832398D01*
X497293D01*
X498293Y831398D01*
Y830399D01*
X497293Y829399D01*
X496293D01*
X497293D01*
X498293Y828399D01*
Y827400D01*
X497293Y826400D01*
X495294D01*
X494294Y827400D01*
X483499Y1141898D02*
X482499Y1142898D01*
X480500D01*
X479500Y1141898D01*
Y1137900D01*
X480500Y1136900D01*
X482499D01*
X483499Y1137900D01*
X485498Y1136900D02*
X487497D01*
X486498D01*
Y1142898D01*
X485498Y1141898D01*
X490496Y1135900D02*
X494495D01*
X499494Y1136900D02*
Y1142898D01*
X496494Y1139899D01*
X500493D01*
X479899Y819698D02*
X478899Y820698D01*
X476900D01*
X475900Y819698D01*
Y815700D01*
X476900Y814700D01*
X478899D01*
X479899Y815700D01*
X481898Y814700D02*
X483897D01*
X482898D01*
Y820698D01*
X481898Y819698D01*
X486896Y813700D02*
X490895D01*
X492895Y819698D02*
X493894Y820698D01*
X495893D01*
X496893Y819698D01*
Y818699D01*
X495893Y817699D01*
X494894D01*
X495893D01*
X496893Y816699D01*
Y815700D01*
X495893Y814700D01*
X493894D01*
X492895Y815700D01*
X641299Y727298D02*
X640299Y728298D01*
X638300D01*
X637300Y727298D01*
Y723300D01*
X638300Y722300D01*
X640299D01*
X641299Y723300D01*
X643298Y722300D02*
X645297D01*
X644298D01*
Y728298D01*
X643298Y727298D01*
X648296Y721300D02*
X652295D01*
X658293Y722300D02*
X654294D01*
X658293Y726299D01*
Y727298D01*
X657294Y728298D01*
X655294D01*
X654294Y727298D01*
X671799Y1016898D02*
X670799Y1017898D01*
X668800D01*
X667800Y1016898D01*
Y1012900D01*
X668800Y1011900D01*
X670799D01*
X671799Y1012900D01*
X673798Y1011900D02*
X675797D01*
X674798D01*
Y1017898D01*
X673798Y1016898D01*
X678796Y1010900D02*
X682795D01*
X684795Y1011900D02*
X686794D01*
X685794D01*
Y1017898D01*
X684795Y1016898D01*
X523000Y814500D02*
Y820498D01*
X525999D01*
X526999Y819498D01*
Y817499D01*
X525999Y816499D01*
X523000D01*
X531997Y814500D02*
Y820498D01*
X528998Y817499D01*
X532997D01*
X534996Y813500D02*
X538995D01*
X540994Y819498D02*
X541994Y820498D01*
X543993D01*
X544993Y819498D01*
Y818499D01*
X543993Y817499D01*
X542993D01*
X543993D01*
X544993Y816499D01*
Y815500D01*
X543993Y814500D01*
X541994D01*
X540994Y815500D01*
X586299Y551398D02*
X585299Y552398D01*
X583300D01*
X582300Y551398D01*
Y547400D01*
X583300Y546400D01*
X585299D01*
X586299Y547400D01*
X588298D02*
X589298Y546400D01*
X591297D01*
X592297Y547400D01*
Y551398D01*
X591297Y552398D01*
X589298D01*
X588298Y551398D01*
Y550399D01*
X589298Y549399D01*
X592297D01*
X537702Y564299D02*
X536702Y563299D01*
Y561300D01*
X537702Y560300D01*
X541700D01*
X542700Y561300D01*
Y563299D01*
X541700Y564299D01*
X536702Y566298D02*
Y570297D01*
X537702D01*
X541700Y566298D01*
X542700D01*
D23*
X453171Y627385D02*
X485848D01*
X453171Y588015D02*
Y627385D01*
Y588015D02*
X485848D01*
Y627385D01*
D33*
X571642Y583709D02*
G03*
X571642Y583709I-1181J0D01*
G01*
X566119Y570806D02*
G03*
X566119Y570806I-1181J0D01*
G01*
X415898Y1086240D02*
G03*
X415898Y1086240I-1181J0D01*
G01*
X414409Y763551D02*
G03*
X414409Y763551I-1181J0D01*
G01*
X719831Y788071D02*
G03*
X719831Y788071I-1181J0D01*
G01*
X714465Y1077760D02*
G03*
X714465Y1077760I-1181J0D01*
G01*
X469965Y1024260D02*
G03*
X469965Y1024260I-1181J0D01*
G01*
X468329Y701474D02*
G03*
X468329Y701474I-1181J0D01*
G01*
X666264Y852051D02*
G03*
X666264Y852051I-1181J0D01*
G01*
X660397Y1140740D02*
G03*
X660397Y1140740I-1181J0D01*
G01*
X468965Y1188559D02*
G03*
X468965Y1188559I-1181J0D01*
G01*
X467453Y865949D02*
G03*
X467453Y865949I-1181J0D01*
G01*
X666910Y686551D02*
G03*
X666910Y686551I-1181J0D01*
G01*
X661898Y975941D02*
G03*
X661898Y975941I-1181J0D01*
G01*
D34*
X579220Y578591D02*
G03*
X579220Y578591I-492J0D01*
G01*
X557064Y575746D02*
G03*
X557064Y575746I-492J0D01*
G01*
X411134Y1076988D02*
G03*
X411134Y1076988I-492J0D01*
G01*
X409646Y754299D02*
G03*
X409646Y754299I-492J0D01*
G01*
X723217Y797323D02*
G03*
X723217Y797323I-492J0D01*
G01*
X717851Y1087012D02*
G03*
X717851Y1087012I-492J0D01*
G01*
X473351Y1033512D02*
G03*
X473351Y1033512I-492J0D01*
G01*
X471715Y710726D02*
G03*
X471715Y710726I-492J0D01*
G01*
X661500Y842799D02*
G03*
X661500Y842799I-492J0D01*
G01*
X655634Y1131488D02*
G03*
X655634Y1131488I-492J0D01*
G01*
X472351Y1197811D02*
G03*
X472351Y1197811I-492J0D01*
G01*
X470839Y875201D02*
G03*
X470839Y875201I-492J0D01*
G01*
X662146Y677299D02*
G03*
X662146Y677299I-492J0D01*
G01*
X657134Y966689D02*
G03*
X657134Y966689I-492J0D01*
G01*
D35*
X476557Y622661D02*
G03*
X476557Y622661I-551J0D01*
G01*
D36*
X658622Y954760D02*
Y956335D01*
X661378Y954760D02*
Y956335D01*
X559831Y618354D02*
X574398D01*
X559831Y579772D02*
X574398D01*
X559831D02*
Y618354D01*
X574398Y579772D02*
Y618354D01*
X561001Y555057D02*
X573599D01*
X561001Y574743D02*
X573599D01*
Y555057D02*
Y574743D01*
X561001Y555057D02*
Y574743D01*
X412622Y1065665D02*
Y1067240D01*
X415378Y1065665D02*
Y1067240D01*
X411122Y742713D02*
Y744287D01*
X413878Y742713D02*
Y744287D01*
X720878Y806713D02*
Y808287D01*
X718122Y806713D02*
Y808287D01*
X715378Y1096260D02*
Y1097835D01*
X712622Y1096260D02*
Y1097835D01*
X470878Y1043165D02*
Y1044740D01*
X468122Y1043165D02*
Y1044740D01*
X469378Y720665D02*
Y722240D01*
X466622Y720665D02*
Y722240D01*
X663122Y831260D02*
Y832835D01*
X665878Y831260D02*
Y832835D01*
X657122Y1120260D02*
Y1121835D01*
X659878Y1120260D02*
Y1121835D01*
X469878Y1207260D02*
Y1208835D01*
X467122Y1207260D02*
Y1208835D01*
X468378Y884665D02*
Y886240D01*
X465622Y884665D02*
Y886240D01*
X663622Y666213D02*
Y667787D01*
X666378Y666213D02*
Y667787D01*
X410779Y1082303D02*
X472197D01*
X410779Y1109075D02*
X472197D01*
X410779Y1082303D02*
Y1109075D01*
X472197Y1082303D02*
Y1109075D01*
X409291Y759614D02*
X470709D01*
X409291Y786386D02*
X470709D01*
X409291Y759614D02*
Y786386D01*
X470709Y759614D02*
Y786386D01*
X661170Y792008D02*
X722587D01*
X661170Y765237D02*
X722587D01*
Y792008D01*
X661170Y765237D02*
Y792008D01*
X655803Y1081697D02*
X717221D01*
X655803Y1054925D02*
X717221D01*
Y1081697D01*
X655803Y1054925D02*
Y1081697D01*
X411303Y1028197D02*
X472721D01*
X411303Y1001425D02*
X472721D01*
Y1028197D01*
X411303Y1001425D02*
Y1028197D01*
X409667Y705411D02*
X471085D01*
X409667Y678639D02*
X471085D01*
Y705411D01*
X409667Y678639D02*
Y705411D01*
X661146Y848114D02*
X722563D01*
X661146Y874886D02*
X722563D01*
X661146Y848114D02*
Y874886D01*
X722563Y848114D02*
Y874886D01*
X655279Y1136803D02*
X716697D01*
X655279Y1163575D02*
X716697D01*
X655279Y1136803D02*
Y1163575D01*
X716697Y1136803D02*
Y1163575D01*
X410303Y1192496D02*
X471721D01*
X410303Y1165725D02*
X471721D01*
Y1192496D01*
X410303Y1165725D02*
Y1192496D01*
X408791Y843114D02*
Y869886D01*
X470209Y843114D02*
Y869886D01*
X408791Y843114D02*
X470209D01*
X408791Y869886D02*
X470209D01*
X661791Y682614D02*
X723209D01*
X661791Y709386D02*
X723209D01*
X661791Y682614D02*
Y709386D01*
X723209Y682614D02*
Y709386D01*
X718197Y972004D02*
Y998775D01*
X656779Y972004D02*
Y998775D01*
X718197D01*
X656779Y972004D02*
X718197D01*
M02*
