G04 Layer_Color=32768*
%FSLAX25Y25*%
%MOIN*%
G70*
G01*
G75*
%ADD51C,0.00394*%
%ADD52C,0.00197*%
D51*
X414000Y1064583D02*
Y1068323D01*
X412130Y1066453D02*
X415870D01*
X412500Y741630D02*
Y745370D01*
X410630Y743500D02*
X414370D01*
X719500Y805630D02*
Y809370D01*
X717630Y807500D02*
X721370D01*
X714000Y1095177D02*
Y1098917D01*
X712130Y1097047D02*
X715870D01*
X469500Y1042083D02*
Y1045823D01*
X467630Y1043953D02*
X471370D01*
X468000Y719583D02*
Y723323D01*
X466130Y721453D02*
X469870D01*
X664500Y830177D02*
Y833917D01*
X662630Y832047D02*
X666370D01*
X658500Y1119177D02*
Y1122917D01*
X656630Y1121047D02*
X660370D01*
X468500Y1206177D02*
Y1209917D01*
X466630Y1208047D02*
X470370D01*
X467000Y883583D02*
Y887323D01*
X465130Y885453D02*
X468870D01*
X665000Y665130D02*
Y668870D01*
X663130Y667000D02*
X666870D01*
X660000Y953677D02*
Y957417D01*
X658130Y955547D02*
X661870D01*
X660488Y1020917D02*
Y1024460D01*
X658716Y1022689D02*
X662260D01*
X666000Y731728D02*
Y735272D01*
X664228Y733500D02*
X667772D01*
X567114Y597095D02*
Y601032D01*
X565146Y599063D02*
X569083D01*
X588000Y566830D02*
Y570570D01*
X586130Y568700D02*
X589870D01*
X567300Y562931D02*
Y566868D01*
X565332Y564900D02*
X569269D01*
X414618Y1123689D02*
X418358D01*
X416488Y1121819D02*
Y1125559D01*
X413630Y801500D02*
X417370D01*
X415500Y799630D02*
Y803370D01*
X715008Y750622D02*
X718748D01*
X716878Y748752D02*
Y752492D01*
X709642Y1040311D02*
X713382D01*
X711512Y1038441D02*
Y1042181D01*
X470472Y973689D02*
X474212D01*
X472342Y971819D02*
Y975559D01*
X468960Y652878D02*
X472700D01*
X470830Y651008D02*
Y654748D01*
X665106Y890378D02*
X668846D01*
X666976Y888508D02*
Y892248D01*
X653788Y1191311D02*
X657528D01*
X655658Y1189441D02*
Y1193181D01*
X469630Y1140000D02*
X473370D01*
X471500Y1138130D02*
Y1141870D01*
X468130Y818000D02*
X471870D01*
X470000Y816130D02*
Y819870D01*
X664130Y725000D02*
X667870D01*
X666000Y723130D02*
Y726870D01*
X658618Y1013689D02*
X662358D01*
X660488Y1011819D02*
Y1015559D01*
X416488Y1130917D02*
Y1134460D01*
X414716Y1132689D02*
X418260D01*
X415500Y810228D02*
Y813772D01*
X413728Y812000D02*
X417272D01*
X716878Y739851D02*
Y743394D01*
X715107Y741622D02*
X718650D01*
X711512Y1029540D02*
Y1033083D01*
X709740Y1031311D02*
X713283D01*
X472342Y980917D02*
Y984460D01*
X470571Y982689D02*
X474114D01*
X470854Y661728D02*
Y665272D01*
X469083Y663500D02*
X472626D01*
X666976Y897606D02*
Y901149D01*
X665204Y899378D02*
X668748D01*
X655658Y1180540D02*
Y1184083D01*
X653886Y1182311D02*
X657429D01*
X471500Y1148728D02*
Y1152272D01*
X469728Y1150500D02*
X473272D01*
X470000Y825228D02*
Y828772D01*
X468228Y827000D02*
X471772D01*
X441488Y1093720D02*
Y1097657D01*
X439520Y1095689D02*
X443457D01*
X440000Y771032D02*
Y774969D01*
X438031Y773000D02*
X441968D01*
X691878Y776654D02*
Y780591D01*
X689910Y778622D02*
X693847D01*
X686512Y1066343D02*
Y1070280D01*
X684544Y1068311D02*
X688481D01*
X442012Y1012843D02*
Y1016780D01*
X440043Y1014811D02*
X443980D01*
X440376Y690057D02*
Y693994D01*
X438408Y692025D02*
X442345D01*
X691854Y859532D02*
Y863469D01*
X689886Y861500D02*
X693823D01*
X685988Y1148220D02*
Y1152157D01*
X684019Y1150189D02*
X687956D01*
X441012Y1177142D02*
Y1181079D01*
X439043Y1179110D02*
X442980D01*
X437532Y856500D02*
X441468D01*
X439500Y854531D02*
Y858468D01*
X692500Y694032D02*
Y697969D01*
X690531Y696000D02*
X694468D01*
X685519Y985390D02*
X689456D01*
X687488Y983421D02*
Y987358D01*
X587500Y554930D02*
Y558670D01*
X585630Y556800D02*
X589370D01*
X549700Y562630D02*
Y566370D01*
X547830Y564500D02*
X551570D01*
D52*
X411047Y1061138D02*
X416953D01*
X411047Y1071768D02*
X416953D01*
X411047Y1061138D02*
Y1071768D01*
X416953Y1061138D02*
Y1071768D01*
X409547Y738185D02*
X415453D01*
X409547Y748815D02*
X415453D01*
X409547Y738185D02*
Y748815D01*
X415453Y738185D02*
Y748815D01*
X716547Y812815D02*
X722453D01*
X716547Y802185D02*
X722453D01*
Y812815D01*
X716547Y802185D02*
Y812815D01*
X711047Y1102362D02*
X716953D01*
X711047Y1091732D02*
X716953D01*
Y1102362D01*
X711047Y1091732D02*
Y1102362D01*
X466547Y1049268D02*
X472453D01*
X466547Y1038638D02*
X472453D01*
Y1049268D01*
X466547Y1038638D02*
Y1049268D01*
X465047Y726768D02*
X470953D01*
X465047Y716138D02*
X470953D01*
Y726768D01*
X465047Y716138D02*
Y726768D01*
X661547Y826732D02*
X667453D01*
X661547Y837362D02*
X667453D01*
X661547Y826732D02*
Y837362D01*
X667453Y826732D02*
Y837362D01*
X655547Y1115732D02*
X661453D01*
X655547Y1126362D02*
X661453D01*
X655547Y1115732D02*
Y1126362D01*
X661453Y1115732D02*
Y1126362D01*
X465547Y1213362D02*
X471453D01*
X465547Y1202732D02*
X471453D01*
Y1213362D01*
X465547Y1202732D02*
Y1213362D01*
X464047Y890768D02*
X469953D01*
X464047Y880138D02*
X469953D01*
Y890768D01*
X464047Y880138D02*
Y890768D01*
X662047Y661685D02*
X667953D01*
X662047Y672315D02*
X667953D01*
X662047Y661685D02*
Y672315D01*
X667953Y661685D02*
Y672315D01*
X657047Y950232D02*
X662953D01*
X657047Y960862D02*
X662953D01*
X657047Y950232D02*
Y960862D01*
X662953Y950232D02*
Y960862D01*
X653795Y1026823D02*
X667181D01*
X653795Y1018555D02*
X667181D01*
X653795D02*
Y1026823D01*
X667181Y1018555D02*
Y1026823D01*
X659307Y737634D02*
X672693D01*
X659307Y729366D02*
X672693D01*
X659307D02*
Y737634D01*
X672693Y729366D02*
Y737634D01*
X551760Y619339D02*
X582469D01*
X551760Y578787D02*
X582469D01*
X551760D02*
Y619339D01*
X582469Y578787D02*
Y619339D01*
X581307Y564566D02*
X594693D01*
X581307Y572834D02*
X594693D01*
Y564566D02*
Y572834D01*
X581307Y564566D02*
Y572834D01*
X552733Y554073D02*
X581867D01*
X552733Y575727D02*
X581867D01*
Y554073D02*
Y575727D01*
X552733Y554073D02*
Y575727D01*
X423181Y1119555D02*
Y1127823D01*
X409795Y1119555D02*
Y1127823D01*
Y1119555D02*
X423181D01*
X409795Y1127823D02*
X423181D01*
X422193Y797366D02*
Y805634D01*
X408807Y797366D02*
Y805634D01*
Y797366D02*
X422193D01*
X408807Y805634D02*
X422193D01*
X710185Y746489D02*
Y754756D01*
X723571Y746489D02*
Y754756D01*
X710185D02*
X723571D01*
X710185Y746489D02*
X723571D01*
X704819Y1036177D02*
Y1044445D01*
X718205Y1036177D02*
Y1044445D01*
X704819D02*
X718205D01*
X704819Y1036177D02*
X718205D01*
X479035Y969555D02*
Y977823D01*
X465649Y969555D02*
Y977823D01*
Y969555D02*
X479035D01*
X465649Y977823D02*
X479035D01*
X477523Y648744D02*
Y657011D01*
X464137Y648744D02*
Y657011D01*
Y648744D02*
X477523D01*
X464137Y657011D02*
X477523D01*
X673669Y886244D02*
Y894511D01*
X660283Y886244D02*
Y894511D01*
Y886244D02*
X673669D01*
X660283Y894511D02*
X673669D01*
X648965Y1187177D02*
Y1195445D01*
X662351Y1187177D02*
Y1195445D01*
X648965D02*
X662351D01*
X648965Y1187177D02*
X662351D01*
X478193Y1135866D02*
Y1144134D01*
X464807Y1135866D02*
Y1144134D01*
Y1135866D02*
X478193D01*
X464807Y1144134D02*
X478193D01*
X476693Y813866D02*
Y822134D01*
X463307Y813866D02*
Y822134D01*
Y813866D02*
X476693D01*
X463307Y822134D02*
X476693D01*
X672693Y720866D02*
Y729134D01*
X659307Y720866D02*
Y729134D01*
Y720866D02*
X672693D01*
X659307Y729134D02*
X672693D01*
X667181Y1009555D02*
Y1017823D01*
X653795Y1009555D02*
Y1017823D01*
Y1009555D02*
X667181D01*
X653795Y1017823D02*
X667181D01*
X409795Y1136823D02*
X423181D01*
X409795Y1128555D02*
X423181D01*
X409795D02*
Y1136823D01*
X423181Y1128555D02*
Y1136823D01*
X408807Y816134D02*
X422193D01*
X408807Y807866D02*
X422193D01*
X408807D02*
Y816134D01*
X422193Y807866D02*
Y816134D01*
X710185Y737489D02*
X723571D01*
X710185Y745756D02*
X723571D01*
Y737489D02*
Y745756D01*
X710185Y737489D02*
Y745756D01*
X704819Y1027177D02*
X718205D01*
X704819Y1035445D02*
X718205D01*
Y1027177D02*
Y1035445D01*
X704819Y1027177D02*
Y1035445D01*
X465649Y986823D02*
X479035D01*
X465649Y978555D02*
X479035D01*
X465649D02*
Y986823D01*
X479035Y978555D02*
Y986823D01*
X464161Y667634D02*
X477547D01*
X464161Y659366D02*
X477547D01*
X464161D02*
Y667634D01*
X477547Y659366D02*
Y667634D01*
X660283Y903511D02*
X673669D01*
X660283Y895244D02*
X673669D01*
X660283D02*
Y903511D01*
X673669Y895244D02*
Y903511D01*
X648965Y1178177D02*
X662351D01*
X648965Y1186445D02*
X662351D01*
Y1178177D02*
Y1186445D01*
X648965Y1178177D02*
Y1186445D01*
X464807Y1154634D02*
X478193D01*
X464807Y1146366D02*
X478193D01*
X464807D02*
Y1154634D01*
X478193Y1146366D02*
Y1154634D01*
X463307Y831134D02*
X476693D01*
X463307Y822866D02*
X476693D01*
X463307D02*
Y831134D01*
X476693Y822866D02*
Y831134D01*
X409795Y1072362D02*
X473181D01*
X409795Y1119016D02*
X473181D01*
X409795Y1072362D02*
Y1119016D01*
X473181Y1072362D02*
Y1119016D01*
X408307Y749673D02*
X471693D01*
X408307Y796327D02*
X471693D01*
X408307Y749673D02*
Y796327D01*
X471693Y749673D02*
Y796327D01*
X660185Y801949D02*
X723571D01*
X660185Y755296D02*
X723571D01*
Y801949D01*
X660185Y755296D02*
Y801949D01*
X654819Y1091638D02*
X718205D01*
X654819Y1044984D02*
X718205D01*
Y1091638D01*
X654819Y1044984D02*
Y1091638D01*
X410319Y1038138D02*
X473705D01*
X410319Y991484D02*
X473705D01*
Y1038138D01*
X410319Y991484D02*
Y1038138D01*
X408683Y715352D02*
X472069D01*
X408683Y668698D02*
X472069D01*
Y715352D01*
X408683Y668698D02*
Y715352D01*
X660161Y838173D02*
X723547D01*
X660161Y884827D02*
X723547D01*
X660161Y838173D02*
Y884827D01*
X723547Y838173D02*
Y884827D01*
X654295Y1126862D02*
X717681D01*
X654295Y1173516D02*
X717681D01*
X654295Y1126862D02*
Y1173516D01*
X717681Y1126862D02*
Y1173516D01*
X409319Y1202437D02*
X472705D01*
X409319Y1155784D02*
X472705D01*
Y1202437D01*
X409319Y1155784D02*
Y1202437D01*
X407807Y833173D02*
Y879827D01*
X471193Y833173D02*
Y879827D01*
X407807Y833173D02*
X471193D01*
X407807Y879827D02*
X471193D01*
X660807Y672673D02*
X724193D01*
X660807Y719327D02*
X724193D01*
X660807Y672673D02*
Y719327D01*
X724193Y672673D02*
Y719327D01*
X719181Y962063D02*
Y1008716D01*
X655795Y962063D02*
Y1008716D01*
X719181D01*
X655795Y962063D02*
X719181D01*
X580807Y552666D02*
X594193D01*
X580807Y560934D02*
X594193D01*
Y552666D02*
Y560934D01*
X580807Y552666D02*
Y560934D01*
X545566Y557807D02*
X553834D01*
X545566Y571193D02*
X553834D01*
X545566Y557807D02*
Y571193D01*
X553834Y557807D02*
Y571193D01*
M02*
