M48
;Layer_Color=9474304
;FILE_FORMAT=2:5
INCH,LZ
;TYPE=PLATED
T1F00S00C0.01000
T2F00S00C0.01200
T3F00S00C0.04724
T4F00S00C0.05000
T5F00S00C0.05118
T6F00S00C0.05906
T7F00S00C0.10630
%
T01
X05454Y0561591
X0556572Y0554128
X05622Y05797
X05646Y05817
X0571Y05823
Y05852
X05686Y05926
X057275Y05974
X05727Y06001
X0572663Y0602937
X05728Y06057
Y06084
X05657Y05997
X05613Y05999
X05845Y05926
X05882Y05793
Y05758
X05948Y05687
X0590354Y0561346
X06138Y06173
X0668854Y07294
X0674378Y0754878
X0709622Y0750622
Y0741622
X071Y07076
X072Y06844
X0719354Y0849746
X0709354Y0873254
X066983Y0895
X0661023Y0797323
X04728Y08318
X04575Y07847
X04234Y08015
X04235Y0812
X0422Y08453
X0412Y08678
X0424512Y1003312
X0414512Y1026412
X0475197Y0987103
X0479511Y0973689
X0472488Y1076988
X06004Y10785
X05862Y10578
X05905Y09957
X0663342Y10181
X0669012Y1056588
X0659012Y1079688
X07031Y10402
X0702889Y1031311
X0704988Y0996912
X07098Y09731
X0714988Y0973688
X0713488Y1138612
X0703488Y1161812
X0648411Y1182311
X0648589Y1191311
X0474354Y1154454
X04746Y11358
X0458988Y1120488
X0423512Y1167588
X0413512Y1190488
T02
X048Y05978
X04955Y06135
X05388Y06082
X0537Y0606
X0541Y06045
X0548563Y0599063
X05432Y05843
X05329Y058728
X05555Y06195
X056995Y061795
X056815Y06155
X0572Y06145
X05785Y06203
X04675Y06477
X04386Y0648
X0436721Y06501
X04359Y06526
X0433546Y0654754
X04151Y06675
X04175Y06815
X0422876Y0684724
X04225Y07035
X0412876Y0703924
X0425Y07295
X0416953Y0746953
X0437364Y0744714
X0442122Y0741971
X0447357Y0739721
X0452364Y0739214
X046781Y074319
X0462864Y0722714
X0457626Y0720452
X0452876Y0718202
X0447876Y0716202
X0432364Y0767714
X0427364Y0768714
X0422364Y0769214
X0417512Y0769488
X0471228Y0754299
X0472Y0739
X0475406Y0724406
X04755Y07185
X0490906Y0724406
X05045Y07205
X052Y0706
X04955Y0688
X05Y06675
X04783Y06635
X04787Y06528
X04763Y06267
X05515Y0629
Y06335
X05525Y06395
X0557Y06385
X05594Y06405
X05616Y06309
X05746Y06514
X05437Y06515
X05955Y0685
Y0709
X0502815Y0750315
X06434Y07525
X0663146Y0737354
X0666Y07685
X0669378Y0766878
X06805Y077
X06527Y07787
X0717Y0746
X0715Y07215
X07255Y0715
X071Y0687
X0713Y0684
X0661047Y0669953
X0665Y0658
X0643Y0648
X06452Y08132
X06625Y08095
X0665796Y08048
X06695Y0792
X0674Y0789
X0694
X0699636Y0784786
X0704636Y0783786
X0709636Y0783286
X0714488Y0783012
X0711047Y0804547
X06945Y08065
X0689878Y0808
X0685Y08105
X068
X0679124Y0834298
X0674374Y0832048
X0669136Y0829786
X0659095Y0829095
X06605Y0835
X0684124Y0836298
X07095Y08275
X07145Y0825
X0724Y0815
X0727Y08155
X0695488Y0898012
X0693488Y0900012
X0691488Y0902012
X0688988Y0904012
X0655122Y0894878
X0632378
X0492406Y0888406
X0473906
X04735Y08825
X04703Y08223
X0472854Y08132
X049Y08225
X05205Y07935
Y079
X04675Y07965
X04625Y0797
X04615Y08225
X04425
X0446Y0818
X04215Y0818
X04205Y08325
X0412Y0832
X04215Y08635
X0417Y08815
X04333Y09763
X0436Y09746
X04383Y09726
X04398Y09704
X04195Y1005
X04675Y10166
X04645Y10455
X0459262Y1043238
X0454512Y1040988
X0449512Y1038988
X0448993Y1062507
X0454Y10625
X04615Y10626
X04565Y1072
X0443757Y1064757
X0439Y10675
X0420094Y1069406
X0419Y10925
X0424Y1092
X0429Y10915
X0434Y10905
X0408Y10565
X0477906Y1046906
X04805Y10405
X0496406Y1046906
X04955Y1029
Y102
X04745
X0472Y0978
X0496
X05045Y10625
X0491Y10685
X05955Y1051
Y10015
X06525Y10185
X06825Y10305
X06822Y10394
X07115Y1036
X07125Y10095
X072Y10035
X0704988Y0975512
X0653Y09585
X06515Y09545
X06365
X0659012Y1057988
X0664012Y1056488
X067Y1079
X0666Y10935
X0693848Y1074274
X0698848Y1073274
X0703848Y1072774
X07087Y10725
X0707094Y1094094
X07085Y1113
X0703Y1115
X07185Y1103
X0688848Y1097274
X068409Y1100017
X0678855Y1102267
X06736Y1102
X0658Y10995
X0663348Y1119274
X0668586Y1121536
X0673336Y1123786
X0678336Y1125786
X06545Y1124
X0645594Y1118094
X06335Y1115
X0655811Y1186811
X06832Y11935
X06857Y11915
X06877Y11895
X06897Y11875
X0708Y1161
X0622689Y1186811
X05988Y11009
X05215Y1101
X0468988Y1107488
X04715Y1145
X0503
X0499Y1179
X0498Y1211
X0476
X0477905Y1205095
X0427Y1188
X0419Y11895
X04185Y11545
X0424
X0424803Y1132689
Y1123689
X0463988Y1121512
Y1097488
X0462866Y1144866
X0446366
T03
X06185Y0556445
X05205Y07435
X06115Y0808185
X05215Y1068815
X06055Y1098185
T04
X06185Y057613
Y0595815
Y06155
X06115Y074913
Y0768815
X05205Y0763185
Y078287
Y0802555
X06115Y07885
X06055Y103913
Y1058815
Y10785
X05215Y10885
Y1108185
Y112787
T05
X04701Y0597858
Y0617543
T06
X0307512Y0734488
Y0749088
Y0762888
X03075Y077276
X0323248
X0323212Y0762888
Y0749088
Y0734488
X0338912
Y0749088
Y0762888
X0338996Y077276
X0354744
X0354712Y0762888
Y0749088
Y0734488
X0777256Y0731528
Y074137
Y0751213
Y0761055
Y0770898
Y078074
Y0721685
Y0711843
Y0702
X0793004
Y0711843
Y0721685
Y0731528
Y074137
Y0751213
Y0761055
Y0770898
Y078074
X0808752
Y0770898
Y0761055
Y0751213
Y074137
Y0731528
Y0721685
Y0711843
Y0702
X08245
Y0711843
Y0721685
Y0731528
Y074137
Y0751213
Y0761055
Y0770898
Y078074
X0824488Y0790612
Y0804412
Y0819012
X0808788
Y0804412
Y0790612
X0793088
Y0804412
Y0819012
X0777288
Y0804412
Y0790612
X0354744Y0792445
Y0782602
X0338996
Y0792445
Y0802287
Y081213
Y0821972
Y0831815
Y0841657
Y08515
X0323248
Y0841657
Y0831815
Y0821972
Y081213
Y0802287
Y0792445
Y0782602
X0354744Y0802287
Y081213
Y0821972
Y0831815
Y0841657
Y08515
X03075
Y0841657
Y0831815
Y0821972
Y081213
Y0802287
Y0792445
Y0782602
X0309Y10565
Y10711
Y10849
X03247
Y10711
Y10565
X03404
Y10711
Y10849
X03562
Y10711
Y10565
X0771468Y1060386
Y1050543
Y1040701
Y1030858
Y1021016
Y1011173
Y1001331
Y0991488
Y1070228
X07715Y10801
X07873
X0787216Y1070228
Y1060386
Y1050543
Y1040701
Y1030858
Y1021016
Y1011173
Y1001331
Y0991488
X0802964
Y1001331
Y1011173
Y1021016
Y1030858
Y1040701
Y1050543
Y1060386
Y1070228
X0803Y10801
X08187
X0818712Y1070228
Y1060386
Y1050543
Y1040701
Y1030858
Y1021016
Y1011173
Y1001331
Y0991488
X08187Y10939
Y11085
X0803
Y10939
X07873
Y11085
X07715
Y10939
X0356232Y1094772
Y1104614
Y1114457
Y1124299
Y1134142
Y1143984
Y1153827
Y1163669
Y1173512
X0340484
Y1163669
Y1153827
Y1143984
Y1134142
Y1124299
Y1114457
Y1104614
Y1094772
X0324736
Y1104614
Y1114457
Y1124299
Y1134142
Y1143984
Y1153827
Y1163669
Y1173512
X0308988
Y1163669
Y1153827
Y1143984
Y1134142
Y1124299
Y1114457
Y1104614
Y1094772
T07
X0319312Y0717988
X0812688Y0685512
Y0835512
X0319312Y0867988
X03208Y104
X08069Y0975
Y1125
X03208Y119
M30
