G04*
G04 #@! TF.GenerationSoftware,Altium Limited,Altium Designer,18.1.9 (240)*
G04*
G04 Layer_Color=16711935*
%FSLAX25Y25*%
%MOIN*%
G70*
G01*
G75*
%ADD20C,0.05131*%
%ADD21R,0.06496X0.06496*%
%ADD22C,0.06496*%
%ADD23C,0.07099*%
%ADD24C,0.24422*%
%ADD25C,0.16548*%
D20*
X162402Y136614D02*
D03*
X132874D02*
D03*
Y196653D02*
D03*
Y216339D02*
D03*
X162402D02*
D03*
Y196653D02*
D03*
X254921Y212598D02*
D03*
X274606D02*
D03*
Y242126D02*
D03*
X254921D02*
D03*
X194882D02*
D03*
Y212598D02*
D03*
X338779Y136614D02*
D03*
X309252D02*
D03*
Y196653D02*
D03*
Y216339D02*
D03*
X338779D02*
D03*
Y196653D02*
D03*
X209646Y173228D02*
D03*
X260216Y133071D02*
D03*
X266201Y164370D02*
D03*
X262264Y154528D02*
D03*
X253819Y179134D02*
D03*
X231299Y155512D02*
D03*
X234193Y122835D02*
D03*
X263779Y147638D02*
D03*
X285059Y122913D02*
D03*
X243189Y250000D02*
D03*
X241142Y195866D02*
D03*
X197835Y150591D02*
D03*
X226378Y195866D02*
D03*
X282480Y167323D02*
D03*
X232283Y133957D02*
D03*
X248031Y162402D02*
D03*
X232283Y142717D02*
D03*
X218504Y167323D02*
D03*
D21*
X194961Y263779D02*
D03*
X243189D02*
D03*
X291417D02*
D03*
D22*
X184961D02*
D03*
X233189D02*
D03*
X281417D02*
D03*
D23*
X306102Y110512D02*
D03*
X317913D02*
D03*
X253937Y110236D02*
D03*
X265748D02*
D03*
X152559Y110512D02*
D03*
X164370D02*
D03*
X202756Y110236D02*
D03*
X214567D02*
D03*
D24*
X354331Y97441D02*
D03*
X356299Y256890D02*
D03*
X117126D02*
D03*
Y97441D02*
D03*
D25*
X312008Y93504D02*
D03*
X259842Y93228D02*
D03*
X158465Y93504D02*
D03*
X208661Y93228D02*
D03*
M02*
