G04*
G04 #@! TF.GenerationSoftware,Altium Limited,Altium Designer,18.1.9 (240)*
G04*
G04 Layer_Color=65535*
%FSLAX25Y25*%
%MOIN*%
G70*
G01*
G75*
%ADD10C,0.02362*%
%ADD11C,0.00984*%
%ADD12C,0.00787*%
%ADD13C,0.01000*%
%ADD14C,0.00709*%
%ADD15C,0.00600*%
%ADD16R,0.07087X0.01181*%
%ADD17R,0.01181X0.07087*%
G36*
X363068Y238137D02*
X363207Y238129D01*
X363353Y238120D01*
X363517Y238111D01*
X363698Y238085D01*
X363880Y238068D01*
X364078Y238034D01*
X364484Y237956D01*
X364898Y237852D01*
X364907D01*
X364950Y237835D01*
X365010Y237818D01*
X365088Y237792D01*
X365183Y237757D01*
X365295Y237714D01*
X365424Y237663D01*
X365571Y237602D01*
X365726Y237533D01*
X365890Y237455D01*
X366236Y237283D01*
X366607Y237076D01*
X366969Y236834D01*
X366978Y236825D01*
X367012Y236800D01*
X367064Y236765D01*
X367133Y236705D01*
X367211Y236644D01*
X367314Y236558D01*
X367418Y236472D01*
X367539Y236359D01*
X367668Y236247D01*
X367798Y236126D01*
X367936Y235988D01*
X368074Y235842D01*
X368350Y235531D01*
X368618Y235194D01*
X368626Y235186D01*
X368643Y235151D01*
X368678Y235099D01*
X368721Y235030D01*
X368781Y234935D01*
X368842Y234832D01*
X368911Y234711D01*
X368989Y234582D01*
X369066Y234435D01*
X369144Y234280D01*
X369222Y234107D01*
X369308Y233934D01*
X369463Y233555D01*
X369593Y233158D01*
Y233149D01*
X369610Y233106D01*
X369627Y233046D01*
X369644Y232968D01*
X369670Y232873D01*
X369696Y232752D01*
X369722Y232614D01*
X369748Y232467D01*
X369782Y232303D01*
X369808Y232131D01*
X369834Y231941D01*
X369852Y231751D01*
X369878Y231337D01*
Y230854D01*
X369869Y230793D01*
Y230707D01*
X369860Y230603D01*
X369843Y230482D01*
X369826Y230344D01*
X369808Y230189D01*
X369782Y230025D01*
X369748Y229844D01*
X369713Y229654D01*
X369670Y229464D01*
X369558Y229058D01*
X369489Y228851D01*
X369411Y228644D01*
X369118Y228748D01*
X369127Y228756D01*
X369135Y228800D01*
X369153Y228851D01*
X369187Y228929D01*
X369213Y229024D01*
X369248Y229145D01*
X369291Y229274D01*
X369334Y229421D01*
X369368Y229576D01*
X369411Y229749D01*
X369446Y229921D01*
X369480Y230111D01*
X369541Y230508D01*
X369558Y230715D01*
X369567Y230923D01*
Y231207D01*
X369558Y231328D01*
Y231458D01*
X369549Y231604D01*
X369532Y231760D01*
X369515Y231932D01*
X369489Y232105D01*
X369463Y232295D01*
X369394Y232674D01*
X369291Y233063D01*
Y233071D01*
X369273Y233106D01*
X369256Y233166D01*
X369230Y233235D01*
X369196Y233330D01*
X369161Y233434D01*
X369109Y233563D01*
X369058Y233693D01*
X368997Y233840D01*
X368928Y233995D01*
X368764Y234323D01*
X368574Y234659D01*
X368350Y235004D01*
X368341Y235013D01*
X368324Y235048D01*
X368290Y235091D01*
X368238Y235160D01*
X368177Y235238D01*
X368100Y235324D01*
X368013Y235427D01*
X367918Y235540D01*
X367815Y235660D01*
X367694Y235790D01*
X367565Y235919D01*
X367427Y236049D01*
X367280Y236187D01*
X367125Y236316D01*
X366788Y236575D01*
X366779Y236584D01*
X366745Y236601D01*
X366693Y236636D01*
X366624Y236687D01*
X366538Y236739D01*
X366443Y236800D01*
X366322Y236869D01*
X366193Y236946D01*
X366054Y237024D01*
X365899Y237110D01*
X365735Y237188D01*
X365563Y237274D01*
X365191Y237421D01*
X364803Y237559D01*
X364794D01*
X364760Y237576D01*
X364700Y237585D01*
X364622Y237611D01*
X364527Y237628D01*
X364415Y237654D01*
X364285Y237680D01*
X364139Y237706D01*
X363983Y237740D01*
X363811Y237766D01*
X363638Y237783D01*
X363457Y237809D01*
X363068Y237835D01*
X362663D01*
X362654D01*
X362611D01*
X362559Y237826D01*
X362482Y237818D01*
X362387Y237809D01*
X362266Y237801D01*
X362136Y237783D01*
X361998Y237766D01*
X361843Y237740D01*
X361670Y237714D01*
X361498Y237680D01*
X361316Y237637D01*
X360937Y237533D01*
X360540Y237404D01*
X360531Y237395D01*
X360497Y237386D01*
X360436Y237361D01*
X360367Y237335D01*
X360272Y237292D01*
X360169Y237248D01*
X360048Y237188D01*
X359918Y237119D01*
X359772Y237050D01*
X359625Y236964D01*
X359306Y236774D01*
X358969Y236558D01*
X358641Y236299D01*
X358425Y236541D01*
X358434Y236549D01*
X358469Y236575D01*
X358520Y236610D01*
X358589Y236662D01*
X358676Y236731D01*
X358779Y236800D01*
X358892Y236886D01*
X359021Y236972D01*
X359168Y237058D01*
X359323Y237153D01*
X359487Y237257D01*
X359660Y237352D01*
X360039Y237533D01*
X360436Y237697D01*
X360445Y237706D01*
X360488Y237714D01*
X360540Y237732D01*
X360626Y237766D01*
X360721Y237792D01*
X360833Y237826D01*
X360971Y237870D01*
X361118Y237904D01*
X361282Y237947D01*
X361446Y237990D01*
X361636Y238025D01*
X361826Y238059D01*
X362223Y238120D01*
X362438Y238137D01*
X362646Y238146D01*
X362663D01*
X362697D01*
X362758D01*
X362844D01*
X362948D01*
X363068Y238137D01*
D02*
G37*
G36*
X355068Y238034D02*
X355094Y238016D01*
X355120Y237982D01*
Y237973D01*
X355129Y237965D01*
X355163Y237922D01*
X355206Y237861D01*
X355250Y237809D01*
X355258Y237801D01*
X355276Y237783D01*
X355310Y237749D01*
X355362Y237706D01*
X355414Y237654D01*
X355483Y237594D01*
X355560Y237516D01*
X355647Y237438D01*
X355837Y237257D01*
X356052Y237058D01*
X356277Y236843D01*
X356518Y236618D01*
X356527Y236610D01*
X356544Y236592D01*
X356579Y236558D01*
X356630Y236515D01*
X356682Y236463D01*
X356751Y236403D01*
X356829Y236333D01*
X356915Y236256D01*
X357105Y236083D01*
X357312Y235885D01*
X357545Y235669D01*
X357778Y235453D01*
X357787Y235445D01*
X357804Y235427D01*
X357839Y235393D01*
X357890Y235350D01*
X357942Y235298D01*
X358011Y235238D01*
X358089Y235169D01*
X358175Y235082D01*
X358365Y234910D01*
X358572Y234702D01*
X358805Y234495D01*
X359038Y234271D01*
X359047Y234262D01*
X359064Y234245D01*
X359099Y234211D01*
X359150Y234167D01*
X359202Y234116D01*
X359271Y234055D01*
X359349Y233986D01*
X359435Y233900D01*
X359625Y233727D01*
X359832Y233529D01*
X360065Y233313D01*
X360298Y233097D01*
X360307Y233089D01*
X360341Y233054D01*
X360384Y233011D01*
X360454Y232959D01*
X360523Y232890D01*
X360600Y232812D01*
X360782Y232640D01*
X360790Y232631D01*
X360825Y232597D01*
X360876Y232554D01*
X360937Y232493D01*
X361015Y232424D01*
X361109Y232355D01*
X361213Y232269D01*
X361316Y232191D01*
Y232200D01*
X361325Y232226D01*
X361342Y232260D01*
X361360Y232312D01*
X361377Y232372D01*
X361403Y232450D01*
X361437Y232536D01*
X361463Y232631D01*
X361541Y232847D01*
X361619Y233080D01*
X361696Y233330D01*
X361783Y233589D01*
Y233598D01*
X361791Y233624D01*
X361808Y233658D01*
X361826Y233710D01*
X361843Y233770D01*
X361869Y233840D01*
X361895Y233926D01*
X361929Y234021D01*
X362007Y234228D01*
X362085Y234470D01*
X362171Y234728D01*
X362266Y234996D01*
X362274Y234979D01*
X362318Y234935D01*
X362369Y234866D01*
X362447Y234771D01*
X362542Y234651D01*
X362654Y234513D01*
X362784Y234357D01*
X362930Y234176D01*
X363086Y233986D01*
X363250Y233788D01*
X363422Y233572D01*
X363603Y233348D01*
X363983Y232881D01*
X364371Y232398D01*
X364380Y232381D01*
X364415Y232338D01*
X364475Y232269D01*
X364553Y232174D01*
X364648Y232062D01*
X364760Y231924D01*
X364881Y231760D01*
X365027Y231587D01*
X365183Y231397D01*
X365347Y231199D01*
X365519Y230983D01*
X365701Y230767D01*
X366080Y230301D01*
X366469Y229818D01*
X366477Y229801D01*
X366520Y229757D01*
X366572Y229688D01*
X366650Y229593D01*
X366745Y229481D01*
X366857Y229343D01*
X366986Y229188D01*
X367125Y229015D01*
X367280Y228825D01*
X367444Y228627D01*
X367616Y228420D01*
X367798Y228195D01*
X368177Y227738D01*
X368566Y227263D01*
X368574Y227246D01*
X368609Y227203D01*
X368669Y227134D01*
X368747Y227039D01*
X368842Y226927D01*
X368954Y226789D01*
X369075Y226633D01*
X369222Y226461D01*
X369377Y226271D01*
X369541Y226073D01*
X369713Y225865D01*
X369895Y225641D01*
X370274Y225175D01*
X370663Y224692D01*
X370654D01*
X370646D01*
X370602Y224683D01*
X370594Y224674D01*
X370568Y224666D01*
X370559Y224674D01*
X370533Y224700D01*
X370490Y224735D01*
X370430Y224787D01*
X370361Y224847D01*
X370274Y224925D01*
X370171Y225011D01*
X370067Y225106D01*
X369947Y225209D01*
X369826Y225322D01*
X369549Y225563D01*
X369256Y225822D01*
X368954Y226090D01*
X368945Y226098D01*
X368919Y226124D01*
X368876Y226159D01*
X368816Y226210D01*
X368747Y226280D01*
X368661Y226357D01*
X368557Y226444D01*
X368454Y226538D01*
X368333Y226651D01*
X368212Y226763D01*
X367936Y227005D01*
X367642Y227263D01*
X367340Y227531D01*
X367332Y227540D01*
X367306Y227566D01*
X367263Y227600D01*
X367202Y227652D01*
X367133Y227721D01*
X367047Y227799D01*
X366943Y227885D01*
X366840Y227980D01*
X366719Y228083D01*
X366598Y228195D01*
X366322Y228446D01*
X366028Y228705D01*
X365726Y228981D01*
X365718Y228989D01*
X365692Y229015D01*
X365649Y229050D01*
X365588Y229102D01*
X365511Y229171D01*
X365424Y229248D01*
X365330Y229335D01*
X365217Y229438D01*
X365096Y229542D01*
X364967Y229654D01*
X364691Y229904D01*
X364397Y230163D01*
X364095Y230439D01*
Y230431D01*
X364087Y230405D01*
X364070Y230353D01*
X364052Y230293D01*
X364035Y230215D01*
X364009Y230120D01*
X363983Y230016D01*
X363949Y229904D01*
X363914Y229783D01*
X363880Y229645D01*
X363802Y229361D01*
X363724Y229058D01*
X363638Y228739D01*
Y228731D01*
X363629Y228705D01*
X363621Y228653D01*
X363603Y228592D01*
X363578Y228515D01*
X363560Y228429D01*
X363534Y228325D01*
X363500Y228204D01*
X363465Y228083D01*
X363431Y227945D01*
X363362Y227652D01*
X363276Y227341D01*
X363189Y227013D01*
Y227022D01*
X363172Y227030D01*
X363129Y227082D01*
X363077Y227160D01*
X363017Y227238D01*
X362999Y227255D01*
X362965Y227298D01*
X362922Y227358D01*
X362861Y227427D01*
X362853Y227445D01*
X362818Y227488D01*
X362766Y227557D01*
X362697Y227652D01*
X362611Y227764D01*
X362508Y227902D01*
X362387Y228057D01*
X362257Y228239D01*
X362119Y228420D01*
X361964Y228627D01*
X361808Y228843D01*
X361636Y229058D01*
X361291Y229524D01*
X360928Y230008D01*
X360919Y230025D01*
X360885Y230068D01*
X360833Y230137D01*
X360764Y230223D01*
X360678Y230344D01*
X360574Y230482D01*
X360454Y230638D01*
X360324Y230810D01*
X360177Y230992D01*
X360031Y231199D01*
X359867Y231406D01*
X359703Y231630D01*
X359349Y232096D01*
X358986Y232579D01*
X358978Y232597D01*
X358943Y232640D01*
X358892Y232709D01*
X358822Y232804D01*
X358736Y232916D01*
X358633Y233054D01*
X358512Y233209D01*
X358382Y233382D01*
X358244Y233572D01*
X358089Y233770D01*
X357934Y233986D01*
X357761Y234211D01*
X357416Y234668D01*
X357053Y235143D01*
X357045Y235160D01*
X357010Y235203D01*
X356958Y235272D01*
X356889Y235367D01*
X356803Y235479D01*
X356699Y235617D01*
X356579Y235781D01*
X356449Y235954D01*
X356311Y236144D01*
X356156Y236342D01*
X356000Y236558D01*
X355837Y236782D01*
X355483Y237248D01*
X355129Y237732D01*
X355120Y237749D01*
X355086Y237783D01*
X355034Y237844D01*
X354974Y237913D01*
X354956Y237930D01*
X354939Y237965D01*
X354930Y237982D01*
Y238008D01*
X354939Y238025D01*
X354956Y238034D01*
X354965D01*
X354974Y238042D01*
X355017D01*
X355043D01*
X355068Y238034D01*
D02*
G37*
G36*
X356743Y233745D02*
X356734Y233736D01*
X356725Y233693D01*
X356699Y233632D01*
X356674Y233555D01*
X356639Y233460D01*
X356596Y233339D01*
X356553Y233209D01*
X356510Y233063D01*
X356458Y232899D01*
X356415Y232726D01*
X356371Y232545D01*
X356328Y232355D01*
X356268Y231949D01*
X356242Y231742D01*
X356225Y231535D01*
Y231423D01*
X356216Y231345D01*
Y231242D01*
X356225Y231121D01*
Y230992D01*
X356233Y230845D01*
X356242Y230681D01*
X356259Y230508D01*
X356277Y230327D01*
X356294Y230137D01*
X356363Y229749D01*
X356458Y229352D01*
Y229343D01*
X356475Y229300D01*
X356492Y229248D01*
X356518Y229171D01*
X356544Y229076D01*
X356587Y228963D01*
X356639Y228843D01*
X356691Y228705D01*
X356751Y228558D01*
X356820Y228403D01*
X356984Y228066D01*
X357183Y227721D01*
X357407Y227367D01*
X357416Y227358D01*
X357433Y227324D01*
X357468Y227272D01*
X357519Y227212D01*
X357580Y227125D01*
X357657Y227030D01*
X357744Y226927D01*
X357839Y226815D01*
X357951Y226685D01*
X358072Y226556D01*
X358201Y226426D01*
X358339Y226288D01*
X358494Y226150D01*
X358650Y226012D01*
X358995Y225753D01*
X359004Y225745D01*
X359038Y225719D01*
X359090Y225684D01*
X359159Y225641D01*
X359245Y225581D01*
X359349Y225520D01*
X359470Y225443D01*
X359608Y225365D01*
X359754Y225287D01*
X359910Y225201D01*
X360074Y225123D01*
X360255Y225037D01*
X360635Y224882D01*
X360833Y224813D01*
X361032Y224752D01*
X361040D01*
X361084Y224735D01*
X361144Y224726D01*
X361222Y224700D01*
X361316Y224683D01*
X361437Y224657D01*
X361567Y224623D01*
X361714Y224597D01*
X361877Y224571D01*
X362050Y224545D01*
X362231Y224519D01*
X362413Y224502D01*
X362809Y224484D01*
X363008Y224476D01*
X363215Y224484D01*
X363224D01*
X363267D01*
X363327Y224493D01*
X363405Y224502D01*
X363500Y224510D01*
X363621Y224519D01*
X363750Y224536D01*
X363897Y224562D01*
X364052Y224588D01*
X364225Y224623D01*
X364406Y224657D01*
X364587Y224700D01*
X364976Y224813D01*
X365373Y224951D01*
X365381Y224959D01*
X365416Y224968D01*
X365476Y224994D01*
X365554Y225028D01*
X365640Y225071D01*
X365752Y225123D01*
X365873Y225184D01*
X366003Y225253D01*
X366149Y225339D01*
X366296Y225425D01*
X366460Y225520D01*
X366624Y225632D01*
X366788Y225745D01*
X366952Y225874D01*
X367125Y226003D01*
X367288Y226150D01*
X367504Y225908D01*
X367496Y225900D01*
X367461Y225874D01*
X367418Y225831D01*
X367349Y225779D01*
X367271Y225719D01*
X367168Y225641D01*
X367056Y225555D01*
X366935Y225468D01*
X366797Y225373D01*
X366641Y225270D01*
X366477Y225175D01*
X366305Y225071D01*
X366123Y224968D01*
X365934Y224873D01*
X365537Y224692D01*
X365528Y224683D01*
X365485Y224674D01*
X365433Y224648D01*
X365347Y224623D01*
X365252Y224588D01*
X365131Y224545D01*
X364993Y224502D01*
X364846Y224459D01*
X364682Y224415D01*
X364501Y224372D01*
X364320Y224329D01*
X364121Y224286D01*
X363707Y224226D01*
X363491Y224200D01*
X363267Y224183D01*
X363250D01*
X363215D01*
X363155D01*
X363068Y224174D01*
X362956Y224183D01*
X362835D01*
X362689D01*
X362533Y224191D01*
X362361Y224208D01*
X362179Y224226D01*
X361981Y224252D01*
X361783Y224277D01*
X361360Y224355D01*
X361144Y224407D01*
X360928Y224467D01*
X360911D01*
X360876Y224484D01*
X360816Y224502D01*
X360730Y224528D01*
X360635Y224562D01*
X360514Y224614D01*
X360376Y224666D01*
X360229Y224717D01*
X360074Y224787D01*
X359901Y224864D01*
X359547Y225045D01*
X359176Y225253D01*
X358805Y225494D01*
X358797Y225503D01*
X358762Y225529D01*
X358710Y225563D01*
X358641Y225615D01*
X358563Y225684D01*
X358460Y225762D01*
X358356Y225857D01*
X358236Y225960D01*
X358106Y226081D01*
X357977Y226202D01*
X357839Y226340D01*
X357701Y226495D01*
X357554Y226651D01*
X357416Y226815D01*
X357148Y227168D01*
X357140Y227177D01*
X357122Y227212D01*
X357088Y227263D01*
X357036Y227341D01*
X356984Y227427D01*
X356915Y227540D01*
X356846Y227660D01*
X356768Y227807D01*
X356691Y227954D01*
X356605Y228118D01*
X356527Y228299D01*
X356449Y228480D01*
X356371Y228679D01*
X356294Y228877D01*
X356225Y229084D01*
X356164Y229300D01*
Y229309D01*
X356156Y229317D01*
Y229343D01*
X356147Y229378D01*
X356121Y229473D01*
X356095Y229593D01*
X356069Y229732D01*
X356035Y229887D01*
X356000Y230060D01*
X355975Y230232D01*
Y230249D01*
X355966Y230275D01*
Y230310D01*
X355957Y230405D01*
X355940Y230517D01*
X355931Y230664D01*
X355914Y230819D01*
X355906Y230992D01*
Y231285D01*
X355914Y231345D01*
Y231501D01*
X355923Y231596D01*
X355940Y231803D01*
X355966Y232036D01*
X356000Y232286D01*
X356044Y232545D01*
Y232554D01*
X356052Y232579D01*
X356061Y232614D01*
X356069Y232657D01*
X356087Y232726D01*
X356104Y232795D01*
X356121Y232873D01*
X356147Y232968D01*
X356208Y233166D01*
X356277Y233391D01*
X356363Y233632D01*
X356458Y233874D01*
X356743Y233745D01*
D02*
G37*
G36*
X357347Y219237D02*
X357338Y219229D01*
X357330Y219220D01*
X357312Y219194D01*
X357286Y219160D01*
X357235Y219082D01*
X357191Y218979D01*
Y218970D01*
X357183Y218953D01*
X357174Y218927D01*
Y218884D01*
X357157Y218789D01*
X357148Y218668D01*
Y218599D01*
X357157Y218556D01*
X357174Y218461D01*
X357191Y218418D01*
X357217Y218374D01*
Y218366D01*
X357235Y218357D01*
X357269Y218323D01*
X357338Y218288D01*
X357373Y218271D01*
X357424D01*
X357433D01*
X357442D01*
X357485Y218280D01*
X357545Y218297D01*
X357597Y218340D01*
X357606Y218349D01*
X357640Y218392D01*
X357666Y218452D01*
X357701Y218530D01*
Y218607D01*
X357709Y218659D01*
Y218668D01*
X357718Y218702D01*
Y218754D01*
X357726Y218806D01*
Y218823D01*
X357744Y218875D01*
X357761Y218953D01*
X357796Y219030D01*
X357804Y219048D01*
X357839Y219091D01*
X357882Y219143D01*
X357934Y219203D01*
X357951Y219212D01*
X357985Y219237D01*
X358037Y219272D01*
X358098Y219306D01*
X358106D01*
X358115Y219315D01*
X358158Y219324D01*
X358218Y219332D01*
X358296Y219341D01*
X358305D01*
X358322D01*
X358348D01*
X358382Y219332D01*
X358460Y219324D01*
X358538Y219298D01*
X358546D01*
X358555Y219289D01*
X358607Y219263D01*
X358667Y219220D01*
X358728Y219160D01*
X358745Y219143D01*
X358771Y219108D01*
X358805Y219039D01*
X358840Y218961D01*
Y218953D01*
X358848Y218935D01*
X358857Y218910D01*
X358866Y218875D01*
X358874Y218789D01*
X358883Y218685D01*
Y218607D01*
X358874Y218564D01*
X358866Y218443D01*
X358831Y218323D01*
Y218314D01*
X358822Y218297D01*
X358814Y218262D01*
X358797Y218219D01*
X358745Y218124D01*
X358684Y218021D01*
X358425Y218193D01*
Y218202D01*
X358443Y218211D01*
X358469Y218262D01*
X358503Y218331D01*
X358538Y218426D01*
Y218435D01*
X358546Y218452D01*
Y218478D01*
X358555Y218504D01*
X358572Y218590D01*
X358589Y218694D01*
Y218737D01*
X358581Y218780D01*
X358563Y218823D01*
Y218832D01*
X358555Y218858D01*
X358512Y218927D01*
X358503Y218935D01*
X358494Y218953D01*
X358469Y218979D01*
X358425Y219005D01*
X358417Y219013D01*
X358391Y219022D01*
X358348Y219030D01*
X358296Y219039D01*
X358287D01*
X358270D01*
X358244Y219030D01*
X358210Y219013D01*
X358201Y219005D01*
X358184Y218996D01*
X358132Y218961D01*
X358123Y218953D01*
X358115Y218935D01*
X358089Y218910D01*
X358072Y218875D01*
Y218866D01*
X358063Y218841D01*
X358054Y218797D01*
X358037Y218746D01*
Y218737D01*
X358029Y218711D01*
X358020Y218676D01*
X358011Y218642D01*
Y218487D01*
X358003Y218461D01*
X357994Y218426D01*
X357968Y218349D01*
X357934Y218271D01*
Y218262D01*
X357925Y218254D01*
X357899Y218211D01*
X357856Y218150D01*
X357804Y218098D01*
X357787Y218090D01*
X357752Y218055D01*
X357692Y218021D01*
X357623Y217995D01*
X357606Y217986D01*
X357562Y217977D01*
X357502Y217969D01*
X357424Y217960D01*
X357416D01*
X357373Y217969D01*
X357321Y217977D01*
X357260Y217995D01*
X357191Y218012D01*
X357114Y218055D01*
X357045Y218098D01*
X356984Y218159D01*
X356976Y218167D01*
X356958Y218193D01*
X356941Y218228D01*
X356915Y218288D01*
X356881Y218357D01*
X356863Y218443D01*
X356846Y218547D01*
X356838Y218668D01*
Y218754D01*
X356846Y218806D01*
X356855Y218875D01*
X356863Y218944D01*
X356907Y219091D01*
Y219099D01*
X356924Y219125D01*
X356932Y219160D01*
X356958Y219203D01*
X357027Y219324D01*
X357114Y219453D01*
X357347Y219237D01*
D02*
G37*
G36*
X365373Y217822D02*
X364803D01*
Y218849D01*
X361808D01*
Y219514D01*
X364803D01*
Y220541D01*
X365373D01*
Y217822D01*
D02*
G37*
G36*
X358866Y216208D02*
X358589D01*
Y217192D01*
X357994D01*
Y216347D01*
X357718D01*
Y217192D01*
X356855D01*
Y217494D01*
X358866D01*
Y216208D01*
D02*
G37*
G36*
X365373Y215009D02*
X364803D01*
Y216795D01*
X363897D01*
Y215087D01*
X363310D01*
Y216804D01*
X362369D01*
Y214974D01*
X361808D01*
Y217451D01*
X365373D01*
Y215009D01*
D02*
G37*
G36*
X358866Y215561D02*
X357580D01*
X357571D01*
X357562D01*
X357511D01*
X357450Y215552D01*
X357390Y215535D01*
X357381Y215527D01*
X357347Y215509D01*
X357295Y215483D01*
X357252Y215440D01*
X357243Y215432D01*
X357217Y215397D01*
X357191Y215363D01*
X357166Y215311D01*
Y215302D01*
X357157Y215268D01*
X357148Y215216D01*
Y215087D01*
X357157Y215035D01*
X357166Y214983D01*
X357174Y214974D01*
X357183Y214940D01*
X357217Y214897D01*
X357252Y214854D01*
X357260Y214845D01*
X357295Y214819D01*
X357338Y214793D01*
X357390Y214767D01*
X357407Y214758D01*
X357442Y214750D01*
X357502Y214741D01*
X357580Y214733D01*
X358866D01*
Y214422D01*
X357528D01*
X357519D01*
X357502D01*
X357476D01*
X357442Y214431D01*
X357347Y214448D01*
X357252Y214482D01*
X357243D01*
X357235Y214491D01*
X357183Y214517D01*
X357105Y214569D01*
X357027Y214638D01*
X357010Y214655D01*
X356976Y214698D01*
X356924Y214776D01*
X356881Y214862D01*
Y214871D01*
X356872Y214888D01*
X356863Y214914D01*
Y214948D01*
X356846Y215035D01*
X356838Y215147D01*
Y215199D01*
X356846Y215242D01*
X356855Y215328D01*
X356881Y215423D01*
Y215432D01*
X356889Y215440D01*
X356915Y215501D01*
X356967Y215570D01*
X357027Y215656D01*
X357036D01*
X357045Y215673D01*
X357097Y215717D01*
X357166Y215768D01*
X357252Y215820D01*
X357260D01*
X357278Y215829D01*
X357304Y215837D01*
X357338Y215846D01*
X357424Y215863D01*
X357528Y215872D01*
X358866D01*
Y215561D01*
D02*
G37*
G36*
X365373Y213145D02*
Y212437D01*
X361808Y210892D01*
Y211609D01*
X362775Y212014D01*
Y213196D01*
X363345Y212981D01*
Y212256D01*
X364691Y212808D01*
X361808Y213990D01*
Y214672D01*
X365373Y213145D01*
D02*
G37*
G36*
X358866Y211781D02*
X358589D01*
Y212765D01*
X357994D01*
Y211919D01*
X357718D01*
Y212765D01*
X356855D01*
Y213067D01*
X358866D01*
Y211781D01*
D02*
G37*
G36*
X358149Y211462D02*
X358158D01*
X358167D01*
X358218Y211453D01*
X358279D01*
X358330D01*
X358339D01*
X358365Y211445D01*
X358434Y211427D01*
X358443D01*
X358469Y211419D01*
X358529Y211384D01*
X358538Y211376D01*
X358572Y211358D01*
X358607Y211332D01*
X358659Y211289D01*
X358667Y211281D01*
X358702Y211246D01*
X358736Y211203D01*
X358779Y211151D01*
X358788Y211134D01*
X358814Y211099D01*
X358840Y211048D01*
X358857Y210979D01*
Y210970D01*
X358866Y210961D01*
X358874Y210910D01*
X358883Y210841D01*
Y210677D01*
X358874Y210608D01*
X358857Y210530D01*
Y210513D01*
X358840Y210469D01*
X358814Y210409D01*
X358779Y210349D01*
X358771Y210331D01*
X358745Y210306D01*
X358710Y210254D01*
X358659Y210210D01*
X358650Y210202D01*
X358615Y210176D01*
X358572Y210141D01*
X358529Y210116D01*
X358520Y210107D01*
X358503Y210098D01*
X358469Y210090D01*
X358434Y210072D01*
X358425D01*
X358408Y210064D01*
X358374Y210055D01*
X358330Y210047D01*
X358322D01*
X358287D01*
X358227D01*
X358149Y210038D01*
X358141D01*
X358132D01*
X358106D01*
X358072Y210029D01*
X357985D01*
X357873D01*
X357864D01*
X357839D01*
X357804D01*
X357761D01*
X357666D01*
X357562Y210038D01*
X357554D01*
X357545D01*
X357502D01*
X357442Y210047D01*
X357390D01*
X357381D01*
X357355Y210055D01*
X357321Y210064D01*
X357278Y210072D01*
X357269D01*
X357252Y210081D01*
X357191Y210116D01*
X357183Y210124D01*
X357157Y210141D01*
X357114Y210167D01*
X357071Y210210D01*
X357062Y210219D01*
X357036Y210254D01*
X356993Y210297D01*
X356950Y210349D01*
X356941Y210366D01*
X356924Y210400D01*
X356889Y210461D01*
X356863Y210530D01*
Y210547D01*
X356855Y210590D01*
X356846Y210668D01*
X356838Y210754D01*
Y210823D01*
X356846Y210901D01*
X356863Y210979D01*
X356872Y210996D01*
X356889Y211039D01*
X356915Y211091D01*
X356950Y211151D01*
X356958Y211160D01*
X356984Y211194D01*
X357027Y211246D01*
X357071Y211289D01*
X357079Y211298D01*
X357105Y211324D01*
X357148Y211358D01*
X357191Y211384D01*
X357200D01*
X357209Y211393D01*
X357243Y211402D01*
X357252D01*
X357260Y211410D01*
X357286Y211427D01*
X357295D01*
X357330Y211436D01*
X357338D01*
X357347Y211445D01*
X357390Y211453D01*
X357399D01*
X357433D01*
X357485D01*
X357562Y211462D01*
X357571D01*
X357588D01*
X357614D01*
X357649D01*
X357692Y211471D01*
X357744D01*
X357873D01*
X357882D01*
X357899D01*
X357934D01*
X357968D01*
X358063D01*
X358149Y211462D01*
D02*
G37*
G36*
X358866Y208666D02*
X358848Y208597D01*
X358831Y208519D01*
Y208510D01*
X358822Y208502D01*
X358814Y208459D01*
X358788Y208390D01*
X358745Y208321D01*
Y208312D01*
X358728Y208303D01*
X358693Y208269D01*
X358633Y208226D01*
X358555Y208183D01*
X358546D01*
X358538Y208174D01*
X358486Y208157D01*
X358408Y208139D01*
X358313Y208122D01*
X358305D01*
X358279D01*
X358236Y208131D01*
X358192D01*
X358072Y208165D01*
X358011Y208191D01*
X357960Y208226D01*
X357951D01*
X357934Y208243D01*
X357908Y208269D01*
X357882Y208295D01*
X357847Y208338D01*
X357813Y208390D01*
X357778Y208450D01*
X357744Y208519D01*
X356855Y208044D01*
Y208416D01*
X357718Y208830D01*
Y209227D01*
X356855D01*
Y209537D01*
X358866D01*
Y208666D01*
D02*
G37*
G36*
X365373Y209770D02*
X362663Y208571D01*
X365373Y207371D01*
Y206707D01*
X361808D01*
Y207319D01*
X364277D01*
X361808Y208295D01*
Y208856D01*
X364277Y209839D01*
X361808D01*
Y210461D01*
X365373D01*
Y209770D01*
D02*
G37*
G36*
X358866Y207371D02*
X357562Y206784D01*
X358866Y206215D01*
Y205921D01*
X356855D01*
Y206232D01*
X358115D01*
Y206249D01*
X357148Y206664D01*
Y206923D01*
X358115Y207337D01*
Y207354D01*
X356855D01*
Y207656D01*
X358866D01*
Y207371D01*
D02*
G37*
G36*
Y205093D02*
X357580D01*
X357571D01*
X357562D01*
X357511D01*
X357450Y205084D01*
X357390Y205067D01*
X357381Y205058D01*
X357347Y205041D01*
X357295Y205015D01*
X357252Y204972D01*
X357243Y204963D01*
X357217Y204929D01*
X357191Y204894D01*
X357166Y204843D01*
Y204834D01*
X357157Y204800D01*
X357148Y204748D01*
Y204618D01*
X357157Y204567D01*
X357166Y204506D01*
X357174Y204489D01*
X357183Y204463D01*
X357217Y204420D01*
X357252Y204385D01*
X357260Y204377D01*
X357295Y204351D01*
X357338Y204325D01*
X357390Y204299D01*
X357407Y204290D01*
X357442Y204282D01*
X357502Y204273D01*
X357580Y204264D01*
X358866D01*
Y203954D01*
X357528D01*
X357519D01*
X357502D01*
X357476D01*
X357442Y203962D01*
X357347Y203980D01*
X357252Y204014D01*
X357243D01*
X357235Y204023D01*
X357183Y204049D01*
X357105Y204100D01*
X357027Y204170D01*
X357010Y204187D01*
X356976Y204230D01*
X356924Y204308D01*
X356881Y204394D01*
Y204402D01*
X356872Y204420D01*
X356863Y204446D01*
Y204480D01*
X356846Y204567D01*
X356838Y204679D01*
Y204731D01*
X356846Y204774D01*
X356855Y204860D01*
X356881Y204955D01*
Y204963D01*
X356889Y204972D01*
X356915Y205032D01*
X356967Y205102D01*
X357027Y205188D01*
X357036D01*
X357045Y205205D01*
X357097Y205248D01*
X357166Y205300D01*
X357252Y205352D01*
X357260D01*
X357278Y205361D01*
X357304Y205369D01*
X357338Y205378D01*
X357424Y205395D01*
X357528Y205404D01*
X358866D01*
Y205093D01*
D02*
G37*
G36*
X365373Y203143D02*
X365355Y203048D01*
X365338Y202927D01*
X365312Y202797D01*
X365260Y202659D01*
X365200Y202530D01*
X365114Y202418D01*
X365105Y202409D01*
X365071Y202375D01*
X365010Y202331D01*
X364924Y202279D01*
X364820Y202228D01*
X364691Y202185D01*
X364535Y202150D01*
X364354Y202141D01*
X364346D01*
X364328D01*
X364302D01*
X364268Y202150D01*
X364164Y202159D01*
X364044Y202185D01*
X363906Y202236D01*
X363759Y202305D01*
X363621Y202392D01*
X363552Y202452D01*
X363483Y202521D01*
X363465Y202538D01*
X363448Y202564D01*
X363431Y202590D01*
X363405Y202633D01*
X363370Y202677D01*
X363336Y202737D01*
X363301Y202797D01*
X363267Y202875D01*
X363232Y202961D01*
X363189Y203056D01*
X363155Y203151D01*
X363120Y203263D01*
X363086Y203384D01*
X363060Y203514D01*
X363034Y203652D01*
X363629Y203738D01*
Y203721D01*
X363647Y203669D01*
X363664Y203583D01*
X363690Y203488D01*
X363724Y203384D01*
X363767Y203272D01*
X363819Y203160D01*
X363880Y203065D01*
X363888Y203056D01*
X363914Y203030D01*
X363949Y202987D01*
X364009Y202944D01*
X364070Y202909D01*
X364147Y202866D01*
X364242Y202840D01*
X364337Y202832D01*
X364346D01*
X364371D01*
X364415Y202840D01*
X364467Y202849D01*
X364579Y202884D01*
X364630Y202909D01*
X364674Y202953D01*
X364682Y202961D01*
X364691Y202970D01*
X364708Y202996D01*
X364734Y203039D01*
X364751Y203082D01*
X364769Y203134D01*
X364777Y203203D01*
X364786Y203281D01*
Y204170D01*
X361808D01*
Y204834D01*
X365373D01*
Y203143D01*
D02*
G37*
G36*
X358866Y203125D02*
X357148D01*
Y202124D01*
X356855D01*
Y203419D01*
X358866D01*
Y203125D01*
D02*
G37*
G36*
Y201175D02*
Y200925D01*
X356855Y200191D01*
Y200510D01*
X357304Y200666D01*
Y201434D01*
X356855Y201589D01*
Y201908D01*
X358866Y201175D01*
D02*
G37*
G36*
X365373Y201054D02*
X363897D01*
Y199285D01*
X365373D01*
Y198620D01*
X361808D01*
Y199285D01*
X363327D01*
Y201054D01*
X361808D01*
Y201710D01*
X365373D01*
Y201054D01*
D02*
G37*
G36*
X357347Y198974D02*
X357338Y198966D01*
X357330Y198957D01*
X357312Y198931D01*
X357286Y198897D01*
X357235Y198810D01*
X357191Y198715D01*
Y198707D01*
X357183Y198689D01*
X357174Y198664D01*
Y198620D01*
X357157Y198526D01*
X357148Y198405D01*
Y198336D01*
X357157Y198293D01*
X357174Y198198D01*
X357191Y198154D01*
X357217Y198111D01*
Y198103D01*
X357235Y198094D01*
X357269Y198059D01*
X357338Y198025D01*
X357373Y198008D01*
X357424D01*
X357433D01*
X357442D01*
X357485Y198016D01*
X357545Y198034D01*
X357597Y198068D01*
X357606Y198077D01*
X357640Y198111D01*
X357666Y198180D01*
X357701Y198267D01*
Y198344D01*
X357709Y198396D01*
Y198405D01*
X357718Y198439D01*
Y198482D01*
X357726Y198526D01*
Y198551D01*
X357735Y198577D01*
X357744Y198603D01*
X357761Y198689D01*
X357796Y198767D01*
X357804Y198784D01*
X357839Y198828D01*
X357882Y198879D01*
X357934Y198931D01*
X357951Y198940D01*
X357985Y198974D01*
X358037Y199009D01*
X358098Y199043D01*
X358106D01*
X358115D01*
X358158Y199052D01*
X358218Y199061D01*
X358296Y199069D01*
X358305D01*
X358322D01*
X358348D01*
X358382Y199061D01*
X358460Y199052D01*
X358538Y199035D01*
X358546D01*
X358555Y199026D01*
X358607Y199000D01*
X358667Y198957D01*
X358728Y198897D01*
Y198888D01*
X358745Y198879D01*
X358771Y198836D01*
X358805Y198767D01*
X358840Y198689D01*
Y198681D01*
X358848Y198672D01*
X358857Y198646D01*
X358866Y198612D01*
X358874Y198526D01*
X358883Y198405D01*
Y198336D01*
X358874Y198293D01*
X358866Y198180D01*
X358831Y198059D01*
Y198051D01*
X358822Y198034D01*
X358814Y197999D01*
X358797Y197956D01*
X358745Y197861D01*
X358684Y197757D01*
X358425Y197930D01*
Y197939D01*
X358443Y197947D01*
X358469Y197999D01*
X358503Y198077D01*
X358538Y198172D01*
Y198180D01*
X358546Y198198D01*
Y198215D01*
X358555Y198249D01*
X358572Y198336D01*
X358589Y198422D01*
Y198465D01*
X358581Y198517D01*
X358563Y198560D01*
Y198569D01*
X358555Y198594D01*
X358512Y198664D01*
X358503Y198672D01*
X358494Y198689D01*
X358469Y198715D01*
X358425Y198741D01*
X358417D01*
X358391Y198750D01*
X358348Y198758D01*
X358296D01*
X358287D01*
X358270D01*
X358210Y198750D01*
X358201D01*
X358184Y198733D01*
X358132Y198698D01*
X358123Y198689D01*
X358115Y198672D01*
X358089Y198646D01*
X358072Y198612D01*
Y198603D01*
X358063Y198577D01*
X358054Y198534D01*
X358037Y198482D01*
Y198474D01*
X358029Y198457D01*
X358020Y198422D01*
X358011Y198387D01*
Y198223D01*
X358003Y198198D01*
X357994Y198163D01*
X357968Y198085D01*
X357934Y198008D01*
Y197999D01*
X357925Y197990D01*
X357899Y197947D01*
X357856Y197887D01*
X357804Y197835D01*
X357787Y197827D01*
X357752Y197792D01*
X357692Y197757D01*
X357623Y197731D01*
X357606Y197723D01*
X357562Y197714D01*
X357502Y197706D01*
X357424Y197697D01*
X357416D01*
X357373D01*
X357321Y197706D01*
X357260Y197723D01*
X357191Y197740D01*
X357114Y197775D01*
X357045Y197818D01*
X356984Y197878D01*
X356976Y197887D01*
X356958Y197913D01*
X356941Y197947D01*
X356915Y198008D01*
X356881Y198085D01*
X356863Y198172D01*
X356846Y198284D01*
X356838Y198405D01*
Y198491D01*
X356846Y198543D01*
X356855Y198612D01*
X356863Y198681D01*
X356907Y198828D01*
Y198836D01*
X356924Y198862D01*
X356932Y198897D01*
X356958Y198940D01*
X357027Y199052D01*
X357114Y199173D01*
X357347Y198974D01*
D02*
G37*
G36*
X365373Y196670D02*
Y195962D01*
X361808Y194409D01*
Y195117D01*
X362775Y195531D01*
Y196713D01*
X363345Y196489D01*
Y195764D01*
X364691Y196334D01*
X361808Y197516D01*
Y198189D01*
X365373Y196670D01*
D02*
G37*
G36*
X358866Y196696D02*
Y196454D01*
X356855Y195712D01*
Y196040D01*
X357304Y196195D01*
Y196964D01*
X356855Y197119D01*
Y197438D01*
X358866Y196696D01*
D02*
G37*
G36*
Y194072D02*
X358589D01*
Y195056D01*
X358011D01*
Y194211D01*
X357726D01*
Y195056D01*
X357148D01*
Y194072D01*
X356855D01*
Y195358D01*
X358866D01*
Y194072D01*
D02*
G37*
G36*
Y191518D02*
X358589D01*
Y192502D01*
X358011D01*
Y191656D01*
X357726D01*
Y192502D01*
X357148D01*
Y191518D01*
X356855D01*
Y192812D01*
X358866D01*
Y191518D01*
D02*
G37*
G36*
X365373Y193322D02*
X362775Y191423D01*
X365373D01*
Y190784D01*
X361808D01*
Y191457D01*
X364449Y193330D01*
X361808D01*
Y193977D01*
X365373D01*
Y193322D01*
D02*
G37*
G36*
X358866Y190784D02*
X357148D01*
Y189801D01*
X356855D01*
Y191086D01*
X358866D01*
Y190784D01*
D02*
G37*
G36*
Y188075D02*
X358589D01*
Y189058D01*
X358011D01*
Y188213D01*
X357726D01*
Y189058D01*
X357148D01*
Y188075D01*
X356855D01*
Y189369D01*
X358866D01*
Y188075D01*
D02*
G37*
G36*
X365373Y187704D02*
X364803D01*
Y188722D01*
X361808D01*
Y189386D01*
X364803D01*
Y190413D01*
X365373D01*
Y187704D01*
D02*
G37*
G36*
X358330Y187695D02*
X358339D01*
X358365Y187686D01*
X358434Y187660D01*
X358443D01*
X358469Y187652D01*
X358529Y187634D01*
X358538Y187626D01*
X358572Y187600D01*
X358607Y187565D01*
X358659Y187522D01*
X358667Y187514D01*
X358702Y187479D01*
X358736Y187436D01*
X358779Y187384D01*
X358788Y187367D01*
X358814Y187332D01*
X358840Y187281D01*
X358857Y187212D01*
Y187203D01*
X358866Y187194D01*
X358874Y187143D01*
X358883Y187074D01*
Y186935D01*
X358874Y186901D01*
X358866Y186823D01*
X358840Y186728D01*
Y186720D01*
X358831Y186702D01*
X358814Y186651D01*
X358771Y186582D01*
X358710Y186504D01*
X358702Y186487D01*
X358659Y186452D01*
X358607Y186409D01*
X358529Y186366D01*
X358520D01*
X358512Y186357D01*
X358460Y186331D01*
X358382Y186305D01*
X358287Y186279D01*
Y186599D01*
X358296D01*
X358322Y186616D01*
X358356Y186633D01*
X358400Y186659D01*
X358408Y186668D01*
X358434Y186685D01*
X358469Y186702D01*
X358503Y186737D01*
X358512Y186746D01*
X358529Y186771D01*
X358546Y186806D01*
X358555Y186849D01*
Y186858D01*
X358563Y186892D01*
X358581Y186935D01*
X358589Y186987D01*
Y186996D01*
X358581Y187022D01*
X358572Y187056D01*
X358563Y187099D01*
Y187125D01*
X358546Y187168D01*
X358538Y187177D01*
X358529Y187194D01*
X358486Y187246D01*
Y187255D01*
X358477Y187263D01*
X358434Y187306D01*
X358425Y187315D01*
X358417Y187324D01*
X358391Y187341D01*
X358356Y187358D01*
X358348D01*
X358330Y187367D01*
X358270Y187384D01*
X358261D01*
X358236Y187393D01*
X358184Y187401D01*
X358115D01*
X358106D01*
X358098D01*
X358046D01*
X357968D01*
X357873D01*
X357864D01*
X357847D01*
X357821D01*
X357787D01*
X357701D01*
X357614D01*
X357597D01*
X357562D01*
X357502Y187393D01*
X357450Y187384D01*
X357442D01*
X357424Y187375D01*
X357390Y187367D01*
X357355Y187358D01*
X357347D01*
X357330Y187341D01*
X357286Y187306D01*
X357278Y187298D01*
X357269Y187289D01*
X357226Y187246D01*
Y187238D01*
X357217Y187220D01*
X357191Y187168D01*
Y187160D01*
X357174Y187151D01*
X357157Y187099D01*
Y187065D01*
X357148Y187030D01*
Y186961D01*
X357157Y186909D01*
X357174Y186840D01*
X357217Y186763D01*
Y186754D01*
X357235Y186746D01*
X357269Y186702D01*
X357338Y186651D01*
X357424Y186599D01*
Y186279D01*
X357416D01*
X357399Y186288D01*
X357373D01*
X357330Y186297D01*
X357243Y186331D01*
X357157Y186374D01*
X357148D01*
X357140Y186383D01*
X357097Y186418D01*
X357036Y186469D01*
X356976Y186538D01*
X356967Y186556D01*
X356941Y186599D01*
X356907Y186668D01*
X356872Y186746D01*
Y186754D01*
X356863Y186763D01*
X356855Y186815D01*
X356846Y186892D01*
X356838Y186987D01*
Y187056D01*
X356846Y187134D01*
X356863Y187212D01*
X356872Y187229D01*
X356889Y187272D01*
X356915Y187324D01*
X356950Y187384D01*
X356958Y187393D01*
X356984Y187427D01*
X357027Y187479D01*
X357071Y187522D01*
X357079Y187531D01*
X357105Y187557D01*
X357148Y187591D01*
X357191Y187634D01*
X357200D01*
X357209D01*
X357243Y187652D01*
X357252D01*
X357260D01*
X357286Y187660D01*
X357295Y187669D01*
X357330Y187686D01*
X357338D01*
X357347D01*
X357390Y187695D01*
X357399D01*
X357433D01*
X357485Y187704D01*
X357562D01*
X357571D01*
X357588D01*
X357614D01*
X357649D01*
X357692D01*
X357744D01*
X357873D01*
X357882D01*
X357899D01*
X357934D01*
X357968D01*
X358063D01*
X358149D01*
X358158D01*
X358167D01*
X358218D01*
X358279D01*
X358330Y187695D01*
D02*
G37*
G36*
X358866Y184709D02*
X358607D01*
Y185261D01*
X356855D01*
Y185572D01*
X358607D01*
Y186124D01*
X358866D01*
Y184709D01*
D02*
G37*
G36*
X363716Y187453D02*
X363793Y187445D01*
X363880Y187436D01*
X363975Y187427D01*
X364078Y187401D01*
X364302Y187350D01*
X364527Y187272D01*
X364639Y187220D01*
X364743Y187160D01*
X364846Y187091D01*
X364932Y187013D01*
X364941Y187004D01*
X364950Y186987D01*
X364976Y186961D01*
X365002Y186927D01*
X365045Y186884D01*
X365079Y186823D01*
X365122Y186754D01*
X365165Y186677D01*
X365209Y186582D01*
X365252Y186487D01*
X365295Y186374D01*
X365330Y186254D01*
X365355Y186124D01*
X365381Y185977D01*
X365390Y185831D01*
X365399Y185667D01*
Y185581D01*
X365390Y185520D01*
X365381Y185442D01*
X365373Y185356D01*
X365364Y185261D01*
X365338Y185166D01*
X365286Y184950D01*
X365200Y184726D01*
X365148Y184623D01*
X365088Y184519D01*
X365019Y184424D01*
X364932Y184338D01*
X364924Y184329D01*
X364915Y184320D01*
X364881Y184295D01*
X364846Y184269D01*
X364803Y184234D01*
X364743Y184200D01*
X364674Y184157D01*
X364587Y184113D01*
X364501Y184079D01*
X364397Y184036D01*
X364285Y184001D01*
X364164Y183967D01*
X364035Y183941D01*
X363888Y183915D01*
X363733Y183906D01*
X363569Y183898D01*
X363560D01*
X363534D01*
X363483D01*
X363422Y183906D01*
X363353Y183915D01*
X363267Y183923D01*
X363172Y183932D01*
X363068Y183949D01*
X362853Y184001D01*
X362628Y184079D01*
X362516Y184131D01*
X362413Y184191D01*
X362318Y184260D01*
X362223Y184338D01*
X362214Y184346D01*
X362205Y184355D01*
X362179Y184381D01*
X362154Y184415D01*
X362119Y184467D01*
X362085Y184519D01*
X362041Y184588D01*
X361998Y184666D01*
X361955Y184752D01*
X361912Y184856D01*
X361877Y184959D01*
X361843Y185080D01*
X361817Y185209D01*
X361791Y185347D01*
X361783Y185503D01*
X361774Y185667D01*
Y185745D01*
X361783Y185805D01*
X361791Y185882D01*
X361800Y185960D01*
X361808Y186055D01*
X361834Y186150D01*
X361886Y186357D01*
X361964Y186573D01*
X362016Y186685D01*
X362076Y186789D01*
X362145Y186884D01*
X362223Y186970D01*
X362231Y186979D01*
X362249Y186987D01*
X362274Y187013D01*
X362309Y187039D01*
X362352Y187074D01*
X362413Y187117D01*
X362482Y187160D01*
X362559Y187203D01*
X362654Y187246D01*
X362749Y187289D01*
X362861Y187332D01*
X362982Y187367D01*
X363112Y187401D01*
X363258Y187427D01*
X363405Y187453D01*
X363569Y187462D01*
X363578D01*
X363612D01*
X363655D01*
X363716Y187453D01*
D02*
G37*
G36*
X358866Y183492D02*
X358848Y183414D01*
X358831Y183337D01*
Y183328D01*
X358822Y183319D01*
X358814Y183276D01*
X358788Y183216D01*
X358745Y183156D01*
Y183147D01*
X358728Y183138D01*
X358693Y183104D01*
X358633Y183052D01*
X358555Y183009D01*
X358546D01*
X358538Y183000D01*
X358486Y182983D01*
X358408Y182966D01*
X358313Y182957D01*
X358305D01*
X358279D01*
X358236Y182966D01*
X358192D01*
X358072Y183000D01*
X358011Y183026D01*
X357960Y183061D01*
X357951D01*
X357934Y183078D01*
X357908Y183104D01*
X357882Y183130D01*
X357847Y183173D01*
X357813Y183224D01*
X357778Y183276D01*
X357744Y183345D01*
X356855Y182879D01*
Y183233D01*
X357718Y183665D01*
Y184044D01*
X356855D01*
Y184355D01*
X358866D01*
Y183492D01*
D02*
G37*
G36*
Y182172D02*
X356855D01*
Y182482D01*
X358866D01*
Y182172D01*
D02*
G37*
G36*
X358149Y181671D02*
X358158D01*
X358167D01*
X358218Y181662D01*
X358279D01*
X358330Y181654D01*
X358339D01*
X358365D01*
X358400Y181645D01*
X358434Y181628D01*
X358443Y181619D01*
X358469Y181611D01*
X358529Y181585D01*
X358538Y181576D01*
X358572Y181559D01*
X358607Y181524D01*
X358659Y181490D01*
X358667Y181481D01*
X358702Y181455D01*
X358736Y181412D01*
X358779Y181360D01*
Y181352D01*
X358788Y181343D01*
X358814Y181300D01*
X358840Y181240D01*
X358857Y181171D01*
Y181162D01*
X358866Y181153D01*
X358874Y181102D01*
X358883Y181033D01*
Y180903D01*
X358874Y180868D01*
X358866Y180782D01*
X358840Y180696D01*
Y180687D01*
X358831Y180679D01*
X358814Y180627D01*
X358771Y180558D01*
X358710Y180480D01*
X358702Y180463D01*
X358659Y180428D01*
X358607Y180385D01*
X358529Y180333D01*
X358520D01*
X358512Y180325D01*
X358460Y180299D01*
X358382Y180264D01*
X358287Y180238D01*
Y180575D01*
X358296D01*
X358322Y180584D01*
X358356Y180601D01*
X358400Y180627D01*
X358408Y180635D01*
X358434Y180644D01*
X358469Y180670D01*
X358503Y180696D01*
X358512Y180704D01*
X358529Y180730D01*
X358546Y180774D01*
X358555Y180825D01*
Y180834D01*
X358563Y180860D01*
X358581Y180903D01*
X358589Y180955D01*
Y180963D01*
X358581Y180989D01*
X358563Y181050D01*
Y181076D01*
X358555Y181110D01*
X358546Y181145D01*
X358538D01*
X358529Y181162D01*
X358486Y181205D01*
Y181214D01*
X358477Y181222D01*
X358434Y181265D01*
X358425Y181274D01*
X358417Y181283D01*
X358391Y181309D01*
X358356Y181326D01*
X358348D01*
X358330Y181334D01*
X358270Y181343D01*
X358261D01*
X358236Y181352D01*
X358184Y181360D01*
X358115Y181369D01*
X358106D01*
X358098D01*
X358046D01*
X357968Y181378D01*
X357873D01*
X357864D01*
X357847D01*
X357821D01*
X357787D01*
X357701D01*
X357614Y181369D01*
X357597D01*
X357562Y181360D01*
X357502Y181352D01*
X357450Y181343D01*
X357442D01*
X357424D01*
X357390Y181334D01*
X357355Y181326D01*
X357347Y181317D01*
X357330Y181309D01*
X357286Y181265D01*
X357278Y181257D01*
X357269Y181248D01*
X357226Y181205D01*
Y181196D01*
X357217Y181188D01*
X357191Y181145D01*
Y181136D01*
X357174Y181110D01*
X357157Y181050D01*
Y181024D01*
X357148Y180989D01*
Y180929D01*
X357157Y180877D01*
X357174Y180799D01*
X357217Y180730D01*
Y180722D01*
X357235Y180713D01*
X357269Y180679D01*
X357338Y180627D01*
X357424Y180575D01*
Y180238D01*
X357416D01*
X357399Y180247D01*
X357373Y180256D01*
X357330Y180264D01*
X357243Y180299D01*
X357157Y180342D01*
X357148D01*
X357140Y180351D01*
X357097Y180385D01*
X357036Y180437D01*
X356976Y180497D01*
X356967Y180515D01*
X356941Y180558D01*
X356907Y180627D01*
X356872Y180704D01*
Y180713D01*
X356863Y180722D01*
X356855Y180774D01*
X356846Y180860D01*
X356838Y180955D01*
Y181024D01*
X356846Y181093D01*
X356863Y181171D01*
X356872Y181188D01*
X356889Y181231D01*
X356915Y181291D01*
X356950Y181360D01*
X356958Y181369D01*
X356984Y181404D01*
X357027Y181447D01*
X357071Y181490D01*
X357079Y181499D01*
X357105Y181524D01*
X357148Y181550D01*
X357191Y181585D01*
X357200D01*
X357209Y181593D01*
X357243Y181611D01*
X357252D01*
X357260D01*
X357286Y181619D01*
X357295Y181628D01*
X357330Y181645D01*
X357338D01*
X357347D01*
X357390Y181654D01*
X357399D01*
X357433Y181662D01*
X357485D01*
X357562Y181671D01*
X357571D01*
X357588D01*
X357614D01*
X357649D01*
X357692Y181680D01*
X357744D01*
X357873D01*
X357882D01*
X357899D01*
X357934D01*
X357968D01*
X358063D01*
X358149Y181671D01*
D02*
G37*
G36*
X365373Y182586D02*
X362663Y181378D01*
X365373Y180187D01*
Y179531D01*
X361808D01*
Y180126D01*
X364277D01*
X361808Y181110D01*
Y181662D01*
X364277Y182664D01*
X361808D01*
Y183268D01*
X365373D01*
Y182586D01*
D02*
G37*
G36*
X360281Y178763D02*
X359979D01*
Y221343D01*
X360281D01*
Y178763D01*
D02*
G37*
G36*
X103702Y240905D02*
X103794Y240896D01*
X103836Y240889D01*
X103876Y240882D01*
X103908Y240876D01*
X103938Y240873D01*
X103964Y240866D01*
X103980Y240863D01*
X103994Y240859D01*
X103997D01*
X106509Y240226D01*
X106572Y240207D01*
X106634Y240184D01*
X106690Y240158D01*
X106742Y240128D01*
X106795Y240095D01*
X106841Y240059D01*
X106883Y240026D01*
X106923Y239990D01*
X106959Y239957D01*
X106992Y239925D01*
X107018Y239898D01*
X107041Y239872D01*
X107057Y239849D01*
X107070Y239833D01*
X107077Y239823D01*
X107080Y239820D01*
X107119Y239757D01*
X107156Y239698D01*
X107185Y239636D01*
X107211Y239574D01*
X107234Y239515D01*
X107251Y239456D01*
X107267Y239397D01*
X107277Y239344D01*
X107287Y239295D01*
X107293Y239252D01*
X107300Y239210D01*
X107303Y239177D01*
X107306Y239151D01*
Y238386D01*
X104413Y239111D01*
X104364Y239124D01*
X104322Y239134D01*
X104243Y239141D01*
X104174Y239144D01*
X104118Y239137D01*
X104079Y239128D01*
X104046Y239118D01*
X104030Y239108D01*
X104023Y239105D01*
X104000Y239088D01*
X103980Y239069D01*
X103948Y239019D01*
X103925Y238967D01*
X103908Y238914D01*
X103899Y238862D01*
X103895Y238842D01*
Y238823D01*
X103892Y238806D01*
Y238783D01*
X103899Y238695D01*
X103912Y238616D01*
X103935Y238547D01*
X103957Y238491D01*
X103980Y238445D01*
X104003Y238412D01*
X104010Y238399D01*
X104016Y238390D01*
X104023Y238386D01*
Y238383D01*
X104076Y238331D01*
X104138Y238285D01*
X104203Y238245D01*
X104266Y238212D01*
X104325Y238190D01*
X104348Y238180D01*
X104371Y238173D01*
X104387Y238166D01*
X104400Y238163D01*
X104410Y238160D01*
X104413D01*
X107306Y237435D01*
Y235798D01*
X104417Y236523D01*
X104367Y236536D01*
X104325Y236546D01*
X104243Y236553D01*
X104174D01*
X104121Y236546D01*
X104079Y236536D01*
X104046Y236526D01*
X104030Y236517D01*
X104023Y236513D01*
X104000Y236497D01*
X103980Y236474D01*
X103948Y236428D01*
X103925Y236376D01*
X103908Y236323D01*
X103899Y236274D01*
X103895Y236235D01*
X103892Y236218D01*
Y236195D01*
X103899Y236113D01*
X103912Y236038D01*
X103935Y235969D01*
X103957Y235913D01*
X103980Y235871D01*
X104003Y235835D01*
X104010Y235825D01*
X104016Y235815D01*
X104023Y235811D01*
Y235808D01*
X104076Y235756D01*
X104138Y235710D01*
X104203Y235670D01*
X104266Y235641D01*
X104325Y235618D01*
X104348Y235608D01*
X104371Y235602D01*
X104387Y235595D01*
X104400Y235592D01*
X104410Y235589D01*
X104413D01*
X107306Y234857D01*
Y233224D01*
X102921Y234319D01*
Y235972D01*
X103456Y235844D01*
Y235864D01*
X103397Y235913D01*
X103341Y235962D01*
X103288Y236012D01*
X103239Y236064D01*
X103197Y236113D01*
X103157Y236162D01*
X103118Y236212D01*
X103085Y236258D01*
X103059Y236300D01*
X103033Y236340D01*
X103013Y236376D01*
X102993Y236405D01*
X102980Y236431D01*
X102970Y236448D01*
X102967Y236461D01*
X102964Y236464D01*
X102934Y236530D01*
X102908Y236599D01*
X102888Y236668D01*
X102868Y236736D01*
X102839Y236871D01*
X102829Y236936D01*
X102819Y236996D01*
X102813Y237051D01*
X102810Y237104D01*
X102803Y237150D01*
Y237189D01*
X102800Y237222D01*
Y237264D01*
X102803Y237360D01*
X102806Y237448D01*
X102813Y237524D01*
X102819Y237593D01*
X102826Y237619D01*
X102829Y237645D01*
X102832Y237668D01*
X102836Y237688D01*
X102839Y237701D01*
Y237711D01*
X102842Y237717D01*
Y237720D01*
X102859Y237789D01*
X102878Y237852D01*
X102898Y237907D01*
X102918Y237953D01*
X102934Y237993D01*
X102951Y238019D01*
X102960Y238035D01*
X102964Y238042D01*
X103000Y238088D01*
X103036Y238127D01*
X103072Y238163D01*
X103105Y238193D01*
X103134Y238216D01*
X103157Y238232D01*
X103174Y238242D01*
X103180Y238245D01*
X103229Y238271D01*
X103282Y238295D01*
X103331Y238314D01*
X103377Y238331D01*
X103416Y238344D01*
X103449Y238350D01*
X103462Y238353D01*
X103472Y238357D01*
X103475D01*
X103479D01*
X103410Y238412D01*
X103351Y238468D01*
X103295Y238521D01*
X103249Y238570D01*
X103213Y238613D01*
X103183Y238645D01*
X103174Y238658D01*
X103167Y238668D01*
X103160Y238672D01*
Y238675D01*
X103114Y238740D01*
X103072Y238806D01*
X103036Y238868D01*
X103006Y238924D01*
X102983Y238973D01*
X102973Y238993D01*
X102964Y239013D01*
X102957Y239026D01*
X102954Y239036D01*
X102951Y239042D01*
Y239046D01*
X102924Y239114D01*
X102901Y239183D01*
X102882Y239246D01*
X102865Y239305D01*
X102855Y239354D01*
X102849Y239374D01*
X102846Y239390D01*
X102842Y239403D01*
X102839Y239413D01*
Y239423D01*
X102826Y239495D01*
X102816Y239564D01*
X102810Y239629D01*
X102803Y239688D01*
Y239741D01*
X102800Y239761D01*
Y239813D01*
X102803Y239918D01*
X102810Y240013D01*
X102819Y240099D01*
X102823Y240138D01*
X102829Y240174D01*
X102836Y240207D01*
X102839Y240236D01*
X102846Y240262D01*
X102849Y240282D01*
X102852Y240299D01*
X102855Y240312D01*
X102859Y240318D01*
Y240321D01*
X102882Y240404D01*
X102911Y240479D01*
X102941Y240545D01*
X102970Y240600D01*
X102997Y240650D01*
X103019Y240682D01*
X103026Y240695D01*
X103033Y240705D01*
X103039Y240708D01*
Y240712D01*
X103095Y240764D01*
X103154Y240807D01*
X103216Y240840D01*
X103275Y240863D01*
X103331Y240882D01*
X103354Y240889D01*
X103374Y240892D01*
X103390Y240899D01*
X103403D01*
X103410Y240902D01*
X103413D01*
X103508Y240912D01*
X103606D01*
X103702Y240905D01*
D02*
G37*
G36*
X107313Y232417D02*
Y230786D01*
X106785Y230914D01*
Y230891D01*
X106844Y230846D01*
X106896Y230796D01*
X106946Y230744D01*
X106995Y230695D01*
X107037Y230645D01*
X107073Y230596D01*
X107110Y230547D01*
X107142Y230501D01*
X107169Y230458D01*
X107195Y230422D01*
X107214Y230386D01*
X107231Y230357D01*
X107244Y230331D01*
X107254Y230314D01*
X107257Y230301D01*
X107260Y230298D01*
X107287Y230232D01*
X107313Y230163D01*
X107352Y230029D01*
X107378Y229894D01*
X107388Y229832D01*
X107398Y229773D01*
X107405Y229717D01*
X107408Y229665D01*
X107415Y229622D01*
Y229583D01*
X107418Y229550D01*
Y229402D01*
X107411Y229307D01*
X107402Y229222D01*
X107398Y229183D01*
X107392Y229147D01*
X107388Y229114D01*
X107382Y229087D01*
X107375Y229061D01*
X107372Y229042D01*
X107369Y229025D01*
X107365Y229012D01*
X107362Y229006D01*
Y229002D01*
X107336Y228927D01*
X107306Y228855D01*
X107274Y228792D01*
X107244Y228740D01*
X107214Y228694D01*
X107192Y228661D01*
X107185Y228651D01*
X107178Y228641D01*
X107172Y228638D01*
Y228635D01*
X107123Y228579D01*
X107067Y228533D01*
X107008Y228497D01*
X106952Y228471D01*
X106900Y228451D01*
X106880Y228445D01*
X106860Y228438D01*
X106844Y228435D01*
X106831Y228432D01*
X106824Y228428D01*
X106821D01*
X106729Y228418D01*
X106631D01*
X106532Y228425D01*
X106440Y228435D01*
X106401Y228441D01*
X106362Y228448D01*
X106329Y228454D01*
X106296Y228458D01*
X106273Y228464D01*
X106257Y228468D01*
X106244Y228471D01*
X106240D01*
X102921Y229301D01*
Y230937D01*
X105821Y230212D01*
X105867Y230203D01*
X105912Y230193D01*
X105991Y230186D01*
X106060D01*
X106116Y230193D01*
X106158Y230203D01*
X106188Y230212D01*
X106208Y230222D01*
X106214Y230226D01*
X106237Y230242D01*
X106257Y230262D01*
X106290Y230308D01*
X106313Y230360D01*
X106329Y230409D01*
X106339Y230458D01*
X106342Y230498D01*
X106345Y230511D01*
Y230534D01*
X106339Y230619D01*
X106326Y230698D01*
X106303Y230764D01*
X106280Y230819D01*
X106257Y230865D01*
X106234Y230901D01*
X106227Y230911D01*
X106221Y230921D01*
X106214Y230924D01*
Y230928D01*
X106158Y230983D01*
X106096Y231029D01*
X106030Y231065D01*
X105968Y231098D01*
X105909Y231118D01*
X105886Y231128D01*
X105863Y231134D01*
X105847Y231141D01*
X105830Y231144D01*
X105824Y231147D01*
X105821D01*
X102921Y231879D01*
Y233516D01*
X107313Y232417D01*
D02*
G37*
G36*
Y227454D02*
Y225824D01*
X102921Y226919D01*
Y228559D01*
X107313Y227454D01*
D02*
G37*
G36*
X103905Y226070D02*
Y225388D01*
X105994Y224866D01*
X106057Y224853D01*
X106109D01*
X106155Y224856D01*
X106194Y224866D01*
X106224Y224879D01*
X106244Y224889D01*
X106257Y224899D01*
X106260Y224902D01*
X106286Y224938D01*
X106309Y224981D01*
X106322Y225030D01*
X106332Y225076D01*
X106335Y225119D01*
X106339Y225155D01*
Y225463D01*
X107313Y225217D01*
X107319Y225125D01*
X107326Y225040D01*
X107333Y224958D01*
X107336Y224886D01*
X107339Y224853D01*
Y224800D01*
X107343Y224778D01*
Y224738D01*
X107346Y224653D01*
X107349Y224571D01*
Y224496D01*
X107352Y224430D01*
Y224095D01*
X107349Y224036D01*
X107346Y223980D01*
X107343Y223928D01*
X107339Y223879D01*
X107333Y223836D01*
X107329Y223797D01*
X107326Y223764D01*
X107319Y223731D01*
X107316Y223708D01*
X107313Y223689D01*
Y223675D01*
X107310Y223666D01*
Y223662D01*
X107290Y223574D01*
X107267Y223498D01*
X107241Y223433D01*
X107218Y223377D01*
X107195Y223334D01*
X107178Y223305D01*
X107165Y223285D01*
X107162Y223279D01*
X107119Y223226D01*
X107067Y223187D01*
X107015Y223154D01*
X106959Y223131D01*
X106910Y223115D01*
X106870Y223105D01*
X106857Y223101D01*
X106844D01*
X106837Y223098D01*
X106834D01*
X106742Y223095D01*
X106644Y223098D01*
X106549Y223108D01*
X106454Y223124D01*
X106411Y223131D01*
X106372Y223138D01*
X106335Y223147D01*
X106306Y223154D01*
X106280Y223157D01*
X106263Y223164D01*
X106250Y223167D01*
X106247D01*
X101579Y224348D01*
Y225985D01*
X102921Y225634D01*
Y226316D01*
X103905Y226070D01*
D02*
G37*
G36*
X107313Y222114D02*
Y220481D01*
X101521Y221934D01*
Y223570D01*
X107313Y222114D01*
D02*
G37*
G36*
Y218247D02*
X106306Y218300D01*
Y216893D01*
X107306Y216450D01*
X107313Y214567D01*
X102672Y217056D01*
X102577Y217112D01*
X102491Y217171D01*
X102413Y217230D01*
X102344Y217283D01*
X102314Y217309D01*
X102288Y217329D01*
X102265Y217352D01*
X102245Y217368D01*
X102229Y217381D01*
X102219Y217391D01*
X102213Y217398D01*
X102209Y217401D01*
X102134Y217476D01*
X102065Y217552D01*
X102003Y217624D01*
X101950Y217693D01*
X101911Y217752D01*
X101891Y217775D01*
X101878Y217798D01*
X101868Y217814D01*
X101858Y217827D01*
X101852Y217834D01*
Y217837D01*
X101799Y217929D01*
X101750Y218021D01*
X101711Y218109D01*
X101675Y218188D01*
X101662Y218224D01*
X101648Y218257D01*
X101638Y218286D01*
X101629Y218313D01*
X101622Y218332D01*
X101616Y218345D01*
X101612Y218355D01*
Y218359D01*
X101586Y218464D01*
X101563Y218565D01*
X101550Y218664D01*
X101537Y218756D01*
X101534Y218795D01*
X101527Y218831D01*
Y218864D01*
X101524Y218890D01*
X101521Y218913D01*
Y219920D01*
X107313Y220136D01*
Y218247D01*
D02*
G37*
%LPC*%
G36*
X357968Y211168D02*
X357873D01*
X357864D01*
X357847D01*
X357821D01*
X357787D01*
X357701D01*
X357614Y211160D01*
X357597D01*
X357562Y211151D01*
X357502D01*
X357450D01*
X357442D01*
X357424Y211143D01*
X357390Y211125D01*
X357355Y211117D01*
X357347Y211108D01*
X357330Y211099D01*
X357286Y211056D01*
X357278D01*
X357269Y211048D01*
X357226Y211013D01*
Y211004D01*
X357217Y210987D01*
X357191Y210935D01*
Y210927D01*
X357174Y210910D01*
X357166Y210884D01*
X357157Y210849D01*
Y210815D01*
X357148Y210754D01*
Y210677D01*
X357157Y210642D01*
Y210633D01*
X357166Y210616D01*
X357191Y210564D01*
Y210556D01*
X357200Y210539D01*
X357226Y210495D01*
X357235Y210487D01*
X357243Y210478D01*
X357286Y210443D01*
X357295Y210435D01*
X357304Y210426D01*
X357355Y210392D01*
X357364Y210383D01*
X357390Y210374D01*
X357450Y210349D01*
X357459D01*
X357493D01*
X357545D01*
X357614Y210340D01*
X357623D01*
X357631D01*
X357683Y210331D01*
X357770D01*
X357873D01*
X357882D01*
X357899D01*
X357925D01*
X357960D01*
X358037D01*
X358115Y210340D01*
X358123D01*
X358132D01*
X358175D01*
X358227Y210349D01*
X358270D01*
X358279D01*
X358296Y210357D01*
X358356Y210392D01*
X358365D01*
X358382Y210400D01*
X358408Y210418D01*
X358434Y210443D01*
X358443D01*
X358451Y210452D01*
X358486Y210495D01*
X358494Y210504D01*
X358503Y210513D01*
X358546Y210564D01*
Y210573D01*
X358555Y210590D01*
X358563Y210642D01*
Y210651D01*
X358572Y210668D01*
X358581Y210711D01*
X358589Y210754D01*
Y210763D01*
X358581Y210780D01*
X358572Y210815D01*
X358563Y210849D01*
Y210875D01*
X358546Y210935D01*
X358538Y210944D01*
X358529Y210961D01*
X358486Y211013D01*
X358477Y211030D01*
X358434Y211056D01*
X358425Y211065D01*
X358417Y211073D01*
X358391Y211099D01*
X358356Y211117D01*
X358348D01*
X358330Y211125D01*
X358270Y211151D01*
X358261D01*
X358236D01*
X358184D01*
X358115Y211160D01*
X358106D01*
X358098D01*
X358046D01*
X357968Y211168D01*
D02*
G37*
G36*
X358607Y209227D02*
X357994D01*
Y208700D01*
X358003Y208657D01*
X358011Y208605D01*
X358020Y208597D01*
X358029Y208562D01*
X358054Y208536D01*
X358080Y208502D01*
X358089Y208493D01*
X358115Y208476D01*
X358149Y208459D01*
X358184Y208441D01*
X358192Y208433D01*
X358218Y208424D01*
X358261Y208416D01*
X358313D01*
X358330D01*
X358356D01*
X358400Y208424D01*
X358443Y208441D01*
X358451D01*
X358477Y208459D01*
X358512Y208485D01*
X358546Y208519D01*
X358555Y208528D01*
X358563Y208545D01*
X358572Y208571D01*
X358589Y208614D01*
Y208623D01*
X358598Y208648D01*
X358607Y208692D01*
Y209227D01*
D02*
G37*
G36*
X357580Y201339D02*
Y200761D01*
X358451Y201054D01*
X357580Y201339D01*
D02*
G37*
G36*
Y196869D02*
Y196282D01*
X358451Y196575D01*
X357580Y196869D01*
D02*
G37*
G36*
X363586Y186771D02*
X363578D01*
X363560D01*
X363526D01*
X363483Y186763D01*
X363431D01*
X363379Y186754D01*
X363241Y186737D01*
X363086Y186702D01*
X362939Y186651D01*
X362784Y186590D01*
X362654Y186495D01*
X362637Y186478D01*
X362602Y186443D01*
X362559Y186374D01*
X362499Y186288D01*
X362438Y186167D01*
X362395Y186029D01*
X362361Y185857D01*
X362344Y185667D01*
Y185615D01*
X362352Y185581D01*
X362361Y185477D01*
X362387Y185365D01*
X362421Y185227D01*
X362473Y185097D01*
X362551Y184968D01*
X362654Y184856D01*
X362671Y184847D01*
X362715Y184812D01*
X362784Y184769D01*
X362887Y184718D01*
X363025Y184674D01*
X363181Y184631D01*
X363370Y184597D01*
X363586Y184588D01*
X363595D01*
X363612D01*
X363647D01*
X363690D01*
X363742Y184597D01*
X363793Y184605D01*
X363931Y184623D01*
X364078Y184657D01*
X364233Y184700D01*
X364380Y184769D01*
X364510Y184856D01*
X364527Y184864D01*
X364561Y184907D01*
X364605Y184968D01*
X364665Y185054D01*
X364725Y185175D01*
X364769Y185313D01*
X364803Y185477D01*
X364820Y185667D01*
Y185719D01*
X364812Y185753D01*
X364803Y185857D01*
X364786Y185977D01*
X364743Y186116D01*
X364691Y186245D01*
X364613Y186383D01*
X364510Y186495D01*
X364492Y186504D01*
X364449Y186538D01*
X364380Y186582D01*
X364277Y186633D01*
X364147Y186685D01*
X363992Y186728D01*
X363802Y186763D01*
X363586Y186771D01*
D02*
G37*
G36*
X358607Y184044D02*
X357994D01*
Y183535D01*
X358003Y183483D01*
X358011Y183432D01*
X358020Y183423D01*
X358029Y183397D01*
X358080Y183328D01*
X358089Y183319D01*
X358115Y183302D01*
X358149Y183276D01*
X358184Y183268D01*
X358192D01*
X358218Y183259D01*
X358261Y183250D01*
X358313D01*
X358330D01*
X358356D01*
X358400Y183259D01*
X358443Y183276D01*
X358451D01*
X358477Y183294D01*
X358512Y183311D01*
X358546Y183345D01*
X358555Y183354D01*
X358563Y183371D01*
X358572Y183406D01*
X358589Y183440D01*
Y183449D01*
X358598Y183475D01*
X358607Y183518D01*
Y184044D01*
D02*
G37*
G36*
X102783Y218500D02*
X105194Y217385D01*
Y218365D01*
X102783Y218500D01*
D02*
G37*
%LPD*%
D10*
X212795Y142323D02*
G03*
X212795Y142323I-1181J0D01*
G01*
X272835D02*
G03*
X272835Y142323I-1181J0D01*
G01*
X263976Y180709D02*
G03*
X263976Y180709I-1181J0D01*
G01*
X228346Y182283D02*
G03*
X228346Y182283I-1181J0D01*
G01*
X242323Y142323D02*
G03*
X242323Y142323I-1181J0D01*
G01*
D11*
X207165Y133957D02*
G03*
X207165Y133957I-492J0D01*
G01*
X267205D02*
G03*
X267205Y133957I-492J0D01*
G01*
X258347Y172343D02*
G03*
X258347Y172343I-492J0D01*
G01*
X222716Y173917D02*
G03*
X222716Y173917I-492J0D01*
G01*
X236693Y133957D02*
G03*
X236693Y133957I-492J0D01*
G01*
X199114Y165945D02*
G03*
X199114Y165945I-492J0D01*
G01*
X163878Y238583D02*
G03*
X163878Y238583I-492J0D01*
G01*
X320374Y236811D02*
G03*
X320374Y236811I-492J0D01*
G01*
D12*
X359842Y131102D02*
G03*
X359842Y131102I-394J0D01*
G01*
X105709D02*
G03*
X105709Y131102I-394J0D01*
G01*
X236004Y122835D02*
G03*
X236004Y122835I-394J0D01*
G01*
X172835Y122835D02*
G03*
X172835Y122835I-394J0D01*
G01*
X229508Y118898D02*
G03*
X229508Y118898I-394J0D01*
G01*
X227362Y138386D02*
Y150984D01*
X207677Y138386D02*
Y150984D01*
X227362D01*
X207677Y138386D02*
X227362D01*
X287402D02*
Y150984D01*
X267717Y138386D02*
Y150984D01*
X287402D01*
X267717Y138386D02*
X287402D01*
X278543Y176772D02*
Y189370D01*
X258858Y176772D02*
Y189370D01*
X278543D01*
X258858Y176772D02*
X278543D01*
X242913Y178347D02*
Y190945D01*
X223228Y178347D02*
Y190945D01*
X242913D01*
X223228Y178347D02*
X242913D01*
X256890Y138386D02*
Y150984D01*
X237205Y138386D02*
Y150984D01*
X256890D01*
X237205Y138386D02*
X256890D01*
X177559Y164370D02*
X196063D01*
X177559Y180118D02*
X196063D01*
Y164370D02*
Y166535D01*
X177559Y164370D02*
Y166535D01*
X196063Y177953D02*
Y180118D01*
X177559Y177953D02*
Y180118D01*
X142323Y237008D02*
X160827D01*
X142323Y252756D02*
X160827D01*
Y237008D02*
Y239173D01*
X142323Y237008D02*
Y239173D01*
X160827Y250590D02*
Y252756D01*
X142323Y250590D02*
Y252756D01*
X298819Y235236D02*
X317323D01*
X298819Y250984D02*
X317323D01*
Y235236D02*
Y237402D01*
X298819Y235236D02*
Y237402D01*
X317323Y248819D02*
Y250984D01*
X298819Y248819D02*
Y250984D01*
X186614Y258858D02*
Y266732D01*
Y258858D02*
X198425D01*
Y266732D01*
X186614D02*
X198425D01*
X234862Y258898D02*
Y266772D01*
Y258898D02*
X246673D01*
Y266772D01*
X234862D02*
X246673D01*
X277874Y258898D02*
Y266772D01*
Y258898D02*
X289685D01*
Y266772D01*
X277874D02*
X289685D01*
X294488Y118110D02*
Y125984D01*
Y118110D02*
X306299D01*
Y125984D01*
X294488D02*
X306299D01*
X284252Y175984D02*
X292126D01*
X284252Y164173D02*
Y175984D01*
Y164173D02*
X292126D01*
Y175984D01*
X217303Y159449D02*
Y167323D01*
Y159449D02*
X229114D01*
Y167323D01*
X217303D02*
X229114D01*
X364961Y128740D02*
Y142913D01*
X357874D02*
X364961D01*
X357874Y128740D02*
Y142913D01*
Y128740D02*
X364961D01*
X103740D02*
X110827D01*
X103740D02*
Y142913D01*
X110827D01*
Y128740D02*
Y142913D01*
X233248Y117323D02*
Y124409D01*
X247421D01*
Y117323D02*
Y124409D01*
X233248Y117323D02*
X247421D01*
X170079Y117323D02*
Y124409D01*
X184252D01*
Y117323D02*
Y124409D01*
X170079Y117323D02*
X184252D01*
X217303Y124409D02*
X231476D01*
X217303Y117323D02*
Y124409D01*
Y117323D02*
X231476D01*
Y124409D01*
X118898Y235762D02*
Y231826D01*
Y233138D01*
X121521Y235762D01*
X119554Y233794D01*
X121521Y231826D01*
X122833D02*
X124145D01*
X123489D01*
Y235762D01*
X122833Y235106D01*
X131496Y254723D02*
Y250787D01*
X133464D01*
X134120Y251443D01*
Y254067D01*
X133464Y254723D01*
X131496D01*
X135432Y250787D02*
X136744D01*
X136088D01*
Y254723D01*
X135432Y254067D01*
X173031Y187991D02*
Y184055D01*
X174999D01*
X175655Y184711D01*
Y187335D01*
X174999Y187991D01*
X173031D01*
X179591Y184055D02*
X176967D01*
X179591Y186679D01*
Y187335D01*
X178935Y187991D01*
X177623D01*
X176967Y187335D01*
X324213Y250983D02*
Y247047D01*
X326181D01*
X326836Y247703D01*
Y250327D01*
X326181Y250983D01*
X324213D01*
X328148Y250327D02*
X328804Y250983D01*
X330116D01*
X330772Y250327D01*
Y249671D01*
X330116Y249015D01*
X329460D01*
X330116D01*
X330772Y248359D01*
Y247703D01*
X330116Y247047D01*
X328804D01*
X328148Y247703D01*
X177165Y253936D02*
Y250000D01*
Y251312D01*
X179789Y253936D01*
X177821Y251968D01*
X179789Y250000D01*
X183725D02*
X181101D01*
X183725Y252624D01*
Y253280D01*
X183069Y253936D01*
X181757D01*
X181101Y253280D01*
X337598Y235825D02*
Y231890D01*
Y233202D01*
X340222Y235825D01*
X338254Y233858D01*
X340222Y231890D01*
X341534Y235170D02*
X342190Y235825D01*
X343502D01*
X344158Y235170D01*
Y234514D01*
X343502Y233858D01*
X342846D01*
X343502D01*
X344158Y233202D01*
Y232546D01*
X343502Y231890D01*
X342190D01*
X341534Y232546D01*
X126634Y110701D02*
Y114637D01*
X127946Y113325D01*
X129258Y114637D01*
Y110701D01*
X130570D02*
X131881D01*
X131226D01*
Y114637D01*
X130570Y113981D01*
X176354Y110701D02*
Y114637D01*
X177666Y113325D01*
X178978Y114637D01*
Y110701D01*
X182914D02*
X180290D01*
X182914Y113325D01*
Y113981D01*
X182258Y114637D01*
X180946D01*
X180290Y113981D01*
X237528Y110701D02*
Y114637D01*
X238840Y113325D01*
X240151Y114637D01*
Y110701D01*
X241463Y113981D02*
X242119Y114637D01*
X243431D01*
X244087Y113981D01*
Y113325D01*
X243431Y112669D01*
X242775D01*
X243431D01*
X244087Y112013D01*
Y111357D01*
X243431Y110701D01*
X242119D01*
X241463Y111357D01*
X288189Y110512D02*
Y114448D01*
X289501Y113136D01*
X290813Y114448D01*
Y110512D01*
X294093D02*
Y114448D01*
X292125Y112480D01*
X294748D01*
X220604Y181462D02*
X217980D01*
X217324Y180806D01*
Y179495D01*
X217980Y178839D01*
X220604D01*
X221260Y179495D01*
Y180806D01*
X219948Y180150D02*
X221260Y181462D01*
Y180806D02*
X220604Y181462D01*
X221260Y182774D02*
Y184086D01*
Y183430D01*
X217324D01*
X217980Y182774D01*
X233990Y146718D02*
X231366D01*
X230710Y146062D01*
Y144750D01*
X231366Y144095D01*
X233990D01*
X234646Y144750D01*
Y146062D01*
X233334Y145406D02*
X234646Y146718D01*
Y146062D02*
X233990Y146718D01*
X234646Y150654D02*
Y148030D01*
X232022Y150654D01*
X231366D01*
X230710Y149998D01*
Y148686D01*
X231366Y148030D01*
X256234Y179789D02*
X253610D01*
X252954Y179133D01*
Y177821D01*
X253610Y177165D01*
X256234D01*
X256890Y177821D01*
Y179133D01*
X255578Y178477D02*
X256890Y179789D01*
Y179133D02*
X256234Y179789D01*
X253610Y181101D02*
X252954Y181757D01*
Y183069D01*
X253610Y183725D01*
X254266D01*
X254922Y183069D01*
Y182413D01*
Y183069D01*
X255578Y183725D01*
X256234D01*
X256890Y183069D01*
Y181757D01*
X256234Y181101D01*
X265092Y140419D02*
X262468D01*
X261812Y139763D01*
Y138451D01*
X262468Y137795D01*
X265092D01*
X265748Y138451D01*
Y139763D01*
X264436Y139107D02*
X265748Y140419D01*
Y139763D02*
X265092Y140419D01*
X265748Y143699D02*
X261812D01*
X263780Y141731D01*
Y144355D01*
X205053Y140872D02*
X202429D01*
X201773Y140216D01*
Y138904D01*
X202429Y138248D01*
X205053D01*
X205709Y138904D01*
Y140216D01*
X204397Y139560D02*
X205709Y140872D01*
Y140216D02*
X205053Y140872D01*
X201773Y144808D02*
Y142184D01*
X203741D01*
X203085Y143496D01*
Y144152D01*
X203741Y144808D01*
X205053D01*
X205709Y144152D01*
Y142840D01*
X205053Y142184D01*
X177165Y156496D02*
Y160432D01*
X179133D01*
X179789Y159776D01*
Y158464D01*
X179133Y157808D01*
X177165D01*
X178477D02*
X179789Y156496D01*
X183725D02*
X181101D01*
X183725Y159120D01*
Y159776D01*
X183069Y160432D01*
X181757D01*
X181101Y159776D01*
X174634Y200000D02*
Y203936D01*
X176602D01*
X177258Y203280D01*
Y201968D01*
X176602Y201312D01*
X174634D01*
X175946D02*
X177258Y200000D01*
X178570Y203280D02*
X179226Y203936D01*
X180537D01*
X181193Y203280D01*
Y202624D01*
X180537Y201968D01*
X179882D01*
X180537D01*
X181193Y201312D01*
Y200656D01*
X180537Y200000D01*
X179226D01*
X178570Y200656D01*
X176969Y141378D02*
Y145314D01*
X178936D01*
X179592Y144658D01*
Y143346D01*
X178936Y142690D01*
X176969D01*
X178280D02*
X179592Y141378D01*
X182872D02*
Y145314D01*
X180904Y143346D01*
X183528D01*
X108858Y162402D02*
X104922D01*
Y164369D01*
X105578Y165025D01*
X106890D01*
X107546Y164369D01*
Y162402D01*
Y163714D02*
X108858Y165025D01*
X104922Y168961D02*
Y166337D01*
X106890D01*
X106234Y167649D01*
Y168305D01*
X106890Y168961D01*
X108202D01*
X108858Y168305D01*
Y166993D01*
X108202Y166337D01*
X365354Y158949D02*
X361419D01*
Y160917D01*
X362074Y161573D01*
X363387D01*
X364042Y160917D01*
Y158949D01*
Y160261D02*
X365354Y161573D01*
X361419Y165508D02*
X362074Y164197D01*
X363387Y162885D01*
X364698D01*
X365354Y163540D01*
Y164852D01*
X364698Y165508D01*
X364042D01*
X363387Y164852D01*
Y162885D01*
X190551Y125984D02*
Y129920D01*
X192519D01*
X193175Y129264D01*
Y127952D01*
X192519Y127296D01*
X190551D01*
X191863D02*
X193175Y125984D01*
X194487Y129920D02*
X197111D01*
Y129264D01*
X194487Y126640D01*
Y125984D01*
X186811Y267717D02*
Y271652D01*
X188779D01*
X189435Y270996D01*
Y269684D01*
X188779Y269028D01*
X186811D01*
X188123D02*
X189435Y267717D01*
X190747Y270996D02*
X191403Y271652D01*
X192715D01*
X193371Y270996D01*
Y270340D01*
X192715Y269684D01*
X193371Y269028D01*
Y268373D01*
X192715Y267717D01*
X191403D01*
X190747Y268373D01*
Y269028D01*
X191403Y269684D01*
X190747Y270340D01*
Y270996D01*
X191403Y269684D02*
X192715D01*
X235039Y268110D02*
Y272046D01*
X237007D01*
X237663Y271390D01*
Y270078D01*
X237007Y269422D01*
X235039D01*
X236351D02*
X237663Y268110D01*
X238975Y268766D02*
X239631Y268110D01*
X240943D01*
X241599Y268766D01*
Y271390D01*
X240943Y272046D01*
X239631D01*
X238975Y271390D01*
Y270734D01*
X239631Y270078D01*
X241599D01*
X277953Y268110D02*
Y272046D01*
X279921D01*
X280577Y271390D01*
Y270078D01*
X279921Y269422D01*
X277953D01*
X279265D02*
X280577Y268110D01*
X281889D02*
X283200D01*
X282544D01*
Y272046D01*
X281889Y271390D01*
X285168D02*
X285824Y272046D01*
X287136D01*
X287792Y271390D01*
Y268766D01*
X287136Y268110D01*
X285824D01*
X285168Y268766D01*
Y271390D01*
X289685Y177953D02*
X285749D01*
Y179921D01*
X286405Y180577D01*
X287717D01*
X288373Y179921D01*
Y177953D01*
Y179265D02*
X289685Y180577D01*
Y181888D02*
Y183200D01*
Y182545D01*
X285749D01*
X286405Y181888D01*
X289685Y185168D02*
Y186480D01*
Y185824D01*
X285749D01*
X286405Y185168D01*
X307874Y120079D02*
Y124014D01*
X309842D01*
X310498Y123359D01*
Y122047D01*
X309842Y121391D01*
X307874D01*
X309186D02*
X310498Y120079D01*
X311810D02*
X313122D01*
X312466D01*
Y124014D01*
X311810Y123359D01*
X317713Y120079D02*
X315090D01*
X317713Y122703D01*
Y123359D01*
X317057Y124014D01*
X315745D01*
X315090Y123359D01*
X231102Y161811D02*
Y165747D01*
X233070D01*
X233726Y165091D01*
Y163779D01*
X233070Y163123D01*
X231102D01*
X232414D02*
X233726Y161811D01*
X235038D02*
X236350D01*
X235694D01*
Y165747D01*
X235038Y165091D01*
X238318D02*
X238974Y165747D01*
X240286D01*
X240942Y165091D01*
Y164435D01*
X240286Y163779D01*
X239630D01*
X240286D01*
X240942Y163123D01*
Y162467D01*
X240286Y161811D01*
X238974D01*
X238318Y162467D01*
X105316Y120866D02*
X109252D01*
Y122834D01*
X108596Y123490D01*
X105972D01*
X105316Y122834D01*
Y120866D01*
X109252Y126770D02*
X105316D01*
X107284Y124802D01*
Y127426D01*
X359056Y120472D02*
X362992D01*
Y122440D01*
X362336Y123096D01*
X359712D01*
X359056Y122440D01*
Y120472D01*
Y127032D02*
Y124408D01*
X361024D01*
X360368Y125720D01*
Y126376D01*
X361024Y127032D01*
X362336D01*
X362992Y126376D01*
Y125064D01*
X362336Y124408D01*
X174634Y129920D02*
Y125984D01*
X176602D01*
X177258Y126640D01*
Y129264D01*
X176602Y129920D01*
X174634D01*
X181193D02*
X179882Y129264D01*
X178570Y127952D01*
Y126640D01*
X179226Y125984D01*
X180537D01*
X181193Y126640D01*
Y127296D01*
X180537Y127952D01*
X178570D01*
X222047Y129920D02*
Y125984D01*
X224015D01*
X224671Y126640D01*
Y129264D01*
X224015Y129920D01*
X222047D01*
X225983D02*
X228607D01*
Y129264D01*
X225983Y126640D01*
Y125984D01*
X237402Y130314D02*
Y126378D01*
X239369D01*
X240025Y127034D01*
Y129658D01*
X239369Y130314D01*
X237402D01*
X241337Y129658D02*
X241993Y130314D01*
X243305D01*
X243961Y129658D01*
Y129002D01*
X243305Y128346D01*
X243961Y127690D01*
Y127034D01*
X243305Y126378D01*
X241993D01*
X241337Y127034D01*
Y127690D01*
X241993Y128346D01*
X241337Y129002D01*
Y129658D01*
X241993Y128346D02*
X243305D01*
X203937Y125984D02*
Y129920D01*
X205905D01*
X206561Y129264D01*
Y127952D01*
X205905Y127296D01*
X203937D01*
X205249D02*
X206561Y125984D01*
X207873D02*
X209185D01*
X208529D01*
Y129920D01*
X207873Y129264D01*
X213120Y125984D02*
Y129920D01*
X211153Y127952D01*
X213776D01*
X251969Y125984D02*
Y129920D01*
X253936D01*
X254592Y129264D01*
Y127952D01*
X253936Y127296D01*
X251969D01*
X253280D02*
X254592Y125984D01*
X255904D02*
X257216D01*
X256560D01*
Y129920D01*
X255904Y129264D01*
X261808Y129920D02*
X259184D01*
Y127952D01*
X260496Y128608D01*
X261152D01*
X261808Y127952D01*
Y126640D01*
X261152Y125984D01*
X259840D01*
X259184Y126640D01*
X271632Y125984D02*
Y129920D01*
X273599D01*
X274255Y129264D01*
Y127952D01*
X273599Y127296D01*
X271632D01*
X272943D02*
X274255Y125984D01*
X275567D02*
X276879D01*
X276223D01*
Y129920D01*
X275567Y129264D01*
D13*
X117126Y129921D02*
Y229331D01*
Y129921D02*
X170276D01*
Y229331D01*
X117126D02*
X170276D01*
X177071Y154591D02*
X189071D01*
Y146591D02*
Y154591D01*
X177071Y146591D02*
X189071D01*
X177071D02*
Y154591D01*
X184224Y115020D02*
X225224D01*
Y74803D02*
Y115020D01*
X184224Y74803D02*
Y115020D01*
X133634D02*
X174634D01*
Y74803D02*
Y115020D01*
X133634Y74803D02*
Y115020D01*
X245248D02*
X286248D01*
Y74803D02*
Y115020D01*
X245248Y74803D02*
Y115020D01*
X296232D02*
X337232D01*
Y74803D02*
Y115020D01*
X296232Y74803D02*
Y115020D01*
X176874Y197898D02*
X188874D01*
Y189898D02*
Y197898D01*
X176874Y189898D02*
X188874D01*
X176874D02*
Y197898D01*
X173311Y162244D02*
X200311D01*
X173311D02*
Y182244D01*
X200311D01*
Y162244D02*
Y182244D01*
X176874Y139827D02*
X188874D01*
Y131827D02*
Y139827D01*
X176874Y131827D02*
X188874D01*
X176874D02*
Y139827D01*
X138075Y234882D02*
X165075D01*
X138075D02*
Y254882D01*
X165075D01*
Y234882D02*
Y254882D01*
X294571Y233110D02*
X321571D01*
X294571D02*
Y253110D01*
X321571D01*
Y233110D02*
Y253110D01*
X294291Y230118D02*
X347441D01*
Y130709D02*
Y230118D01*
X294291Y130709D02*
X347441D01*
X294291D02*
Y230118D01*
X185827Y254724D02*
X285236D01*
X185827Y201575D02*
Y254724D01*
Y201575D02*
X285236D01*
Y254724D01*
X103740Y145866D02*
X110827D01*
Y159252D01*
X103740D02*
X110827D01*
X103740Y145866D02*
Y159252D01*
X357874Y144488D02*
X364961D01*
Y157874D01*
X357874D02*
X364961D01*
X357874Y144488D02*
Y157874D01*
X186221Y124409D02*
X199606D01*
Y117323D02*
Y124409D01*
X186221Y117323D02*
X199606D01*
X186221D02*
Y124409D01*
X268606Y116866D02*
Y124866D01*
Y116866D02*
X280606D01*
Y124866D01*
X268606D02*
X280606D01*
X250197Y124409D02*
X263583D01*
Y117323D02*
Y124409D01*
X250197Y117323D02*
X263583D01*
X250197D02*
Y124409D01*
X202067Y117323D02*
X215453D01*
X202067D02*
Y124409D01*
X215453D01*
Y117323D02*
Y124409D01*
X387402Y273622D02*
X389402Y267622D01*
X385402D02*
X387402Y273622D01*
X385402Y86709D02*
X387402Y80709D01*
X389402Y86709D01*
X387402Y190661D02*
Y273622D01*
Y80709D02*
Y160470D01*
X375016Y273622D02*
X388402D01*
X375016Y80709D02*
X388402D01*
X97244Y289370D02*
X103244Y291370D01*
X97244Y289370D02*
X103244Y287370D01*
X368016D02*
X374016Y289370D01*
X368016Y291370D02*
X374016Y289370D01*
X97244D02*
X218934D01*
X249126D02*
X374016D01*
X97244Y274622D02*
Y290370D01*
X374016Y274622D02*
Y290370D01*
D14*
X128949Y267080D02*
Y269179D01*
X129998Y270228D01*
X131048Y269179D01*
Y267080D01*
Y268654D01*
X128949D01*
X132097Y267080D02*
Y269179D01*
X133672D01*
X134196Y268654D01*
Y267080D01*
X137345Y270228D02*
Y267080D01*
X135771D01*
X135246Y267605D01*
Y268654D01*
X135771Y269179D01*
X137345D01*
X138395D02*
Y267080D01*
Y268129D01*
X138919Y268654D01*
X139444Y269179D01*
X139969D01*
X143117Y267080D02*
X142068D01*
X141543Y267605D01*
Y268654D01*
X142068Y269179D01*
X143117D01*
X143642Y268654D01*
Y268129D01*
X141543D01*
X144692Y267080D02*
X145741D01*
X145217D01*
Y269179D01*
X144692D01*
X128949Y264749D02*
Y261601D01*
X130523D01*
X131048Y262125D01*
Y264225D01*
X130523Y264749D01*
X128949D01*
X132097Y261601D02*
X133147D01*
X132622D01*
Y263700D01*
X132097D01*
X134721D02*
X135771Y261601D01*
X136820Y263700D01*
X137870Y261601D02*
X138919D01*
X138395D01*
Y263700D01*
X137870D01*
X140494Y261601D02*
Y263700D01*
X142068D01*
X142593Y263175D01*
Y261601D01*
X144167Y263700D02*
X145217D01*
X145741Y263175D01*
Y261601D01*
X144167D01*
X143642Y262125D01*
X144167Y262650D01*
X145741D01*
X147840Y260551D02*
X148365D01*
X148890Y261076D01*
Y263700D01*
X147316D01*
X146791Y263175D01*
Y262125D01*
X147316Y261601D01*
X148890D01*
X149939Y263700D02*
Y261601D01*
Y262650D01*
X150464Y263175D01*
X150989Y263700D01*
X151514D01*
X153613D02*
X154662D01*
X155187Y263175D01*
Y261601D01*
X153613D01*
X153088Y262125D01*
X153613Y262650D01*
X155187D01*
X158336Y263700D02*
X156761D01*
X156237Y263175D01*
Y262125D01*
X156761Y261601D01*
X158336D01*
X159385D02*
X160435D01*
X159910D01*
Y263700D01*
X159385D01*
X162534D02*
X163583D01*
X164108Y263175D01*
Y261601D01*
X162534D01*
X162009Y262125D01*
X162534Y262650D01*
X164108D01*
X309540Y270623D02*
X309015Y271147D01*
X307965D01*
X307440Y270623D01*
Y270098D01*
X307965Y269573D01*
X309015D01*
X309540Y269048D01*
Y268524D01*
X309015Y267999D01*
X307965D01*
X307440Y268524D01*
X310589Y271147D02*
Y267999D01*
Y269573D01*
X311114Y270098D01*
X312163D01*
X312688Y269573D01*
Y267999D01*
X313738Y270098D02*
Y268524D01*
X314262Y267999D01*
X315837D01*
Y270098D01*
X317411Y270623D02*
Y270098D01*
X316886D01*
X317936D01*
X317411D01*
Y268524D01*
X317936Y267999D01*
X321609Y271147D02*
Y267999D01*
X320035D01*
X319510Y268524D01*
Y269573D01*
X320035Y270098D01*
X321609D01*
X323183Y267999D02*
X324233D01*
X324758Y268524D01*
Y269573D01*
X324233Y270098D01*
X323183D01*
X322659Y269573D01*
Y268524D01*
X323183Y267999D01*
X325807Y270098D02*
Y268524D01*
X326332Y267999D01*
X326857Y268524D01*
X327382Y267999D01*
X327906Y268524D01*
Y270098D01*
X328956Y267999D02*
Y270098D01*
X330530D01*
X331055Y269573D01*
Y267999D01*
X307440Y262520D02*
Y265668D01*
X309015D01*
X309540Y265143D01*
Y264094D01*
X309015Y263569D01*
X307440D01*
X308490D02*
X309540Y262520D01*
X312163D02*
X311114D01*
X310589Y263045D01*
Y264094D01*
X311114Y264619D01*
X312163D01*
X312688Y264094D01*
Y263569D01*
X310589D01*
X313738Y264619D02*
X314787Y262520D01*
X315837Y264619D01*
X320035Y265143D02*
X320560Y265668D01*
X321609D01*
X322134Y265143D01*
Y264619D01*
X321609Y264094D01*
X321084D01*
X321609D01*
X322134Y263569D01*
Y263045D01*
X321609Y262520D01*
X320560D01*
X320035Y263045D01*
X323183Y262520D02*
Y263045D01*
X323708D01*
Y262520D01*
X323183D01*
X325807Y265143D02*
X326332Y265668D01*
X327382D01*
X327906Y265143D01*
Y263045D01*
X327382Y262520D01*
X326332D01*
X325807Y263045D01*
Y265143D01*
D15*
X391001Y165069D02*
X385002D01*
X388002Y162070D01*
Y166068D01*
X390001Y168068D02*
X391001Y169068D01*
Y171067D01*
X390001Y172066D01*
X386002D01*
X385002Y171067D01*
Y169068D01*
X386002Y168068D01*
X387002D01*
X388002Y169068D01*
Y172066D01*
X391001Y174066D02*
X390001D01*
Y175066D01*
X391001D01*
Y174066D01*
X386002Y179064D02*
X385002Y180064D01*
Y182063D01*
X386002Y183063D01*
X390001D01*
X391001Y182063D01*
Y180064D01*
X390001Y179064D01*
X386002D01*
Y185062D02*
X385002Y186062D01*
Y188061D01*
X386002Y189061D01*
X390001D01*
X391001Y188061D01*
Y186062D01*
X390001Y185062D01*
X386002D01*
X220534Y291769D02*
X224533D01*
Y290769D01*
X220534Y286771D01*
Y285771D01*
X226532Y290769D02*
X227532Y291769D01*
X229531D01*
X230531Y290769D01*
Y286771D01*
X229531Y285771D01*
X227532D01*
X226532Y286771D01*
Y290769D01*
X232530Y285771D02*
Y286771D01*
X233530D01*
Y285771D01*
X232530D01*
X237529Y290769D02*
X238528Y291769D01*
X240528D01*
X241528Y290769D01*
Y289770D01*
X240528Y288770D01*
X239528D01*
X240528D01*
X241528Y287770D01*
Y286771D01*
X240528Y285771D01*
X238528D01*
X237529Y286771D01*
X243527Y290769D02*
X244527Y291769D01*
X246526D01*
X247526Y290769D01*
Y286771D01*
X246526Y285771D01*
X244527D01*
X243527Y286771D01*
Y290769D01*
D16*
X361417Y129331D02*
D03*
X107283Y129331D02*
D03*
D17*
X233839Y120866D02*
D03*
X170669Y120866D02*
D03*
X230886Y120866D02*
D03*
M02*
