G04 Layer_Physical_Order=2*
G04 Layer_Color=16711680*
%FSLAX25Y25*%
%MOIN*%
G70*
G01*
G75*
%ADD19C,0.01000*%
%ADD21C,0.03937*%
%ADD24C,0.23622*%
%ADD25C,0.06299*%
%ADD26C,0.04331*%
%ADD27C,0.15748*%
G36*
X374016Y273622D02*
X374016Y80709D01*
X97244Y80709D01*
Y273622D01*
X374016Y273622D01*
D02*
G37*
%LPC*%
G36*
X159539Y113647D02*
X158956Y113570D01*
X157947Y113152D01*
X157080Y112487D01*
X156415Y111620D01*
X155997Y110611D01*
X155920Y110028D01*
X159539D01*
Y113647D01*
D02*
G37*
G36*
X234752Y112154D02*
Y109528D01*
X237379D01*
X237336Y109854D01*
X237017Y110624D01*
X236509Y111285D01*
X235848Y111793D01*
X235078Y112111D01*
X234752Y112154D01*
D02*
G37*
G36*
X310327Y113647D02*
X309743Y113570D01*
X308734Y113152D01*
X307867Y112487D01*
X307202Y111620D01*
X306784Y110611D01*
X306707Y110028D01*
X310327D01*
Y113647D01*
D02*
G37*
G36*
X160539D02*
Y110028D01*
X164159D01*
X164082Y110611D01*
X163664Y111620D01*
X162999Y112487D01*
X162132Y113152D01*
X161123Y113570D01*
X160539Y113647D01*
D02*
G37*
G36*
X233752Y108528D02*
X231125D01*
X231168Y108201D01*
X231487Y107431D01*
X231994Y106770D01*
X232656Y106263D01*
X233426Y105944D01*
X233752Y105901D01*
Y108528D01*
D02*
G37*
G36*
X314946Y109028D02*
X311327D01*
Y105408D01*
X311910Y105485D01*
X312919Y105903D01*
X313786Y106568D01*
X314451Y107435D01*
X314870Y108444D01*
X314946Y109028D01*
D02*
G37*
G36*
X233752Y112154D02*
X233426Y112111D01*
X232656Y111793D01*
X231994Y111285D01*
X231487Y110624D01*
X231168Y109854D01*
X231125Y109528D01*
X233752D01*
Y112154D01*
D02*
G37*
G36*
X237379Y108528D02*
X234752D01*
Y105901D01*
X235078Y105944D01*
X235848Y106263D01*
X236509Y106770D01*
X237017Y107431D01*
X237336Y108201D01*
X237379Y108528D01*
D02*
G37*
G36*
X311327Y113647D02*
Y110028D01*
X314946D01*
X314870Y110611D01*
X314451Y111620D01*
X313786Y112487D01*
X312919Y113152D01*
X311910Y113570D01*
X311327Y113647D01*
D02*
G37*
G36*
X201158Y133752D02*
X198531D01*
Y131125D01*
X198858Y131168D01*
X199628Y131487D01*
X200289Y131994D01*
X200796Y132656D01*
X201115Y133426D01*
X201158Y133752D01*
D02*
G37*
G36*
X197531D02*
X194905D01*
X194948Y133426D01*
X195267Y132656D01*
X195774Y131994D01*
X196435Y131487D01*
X197205Y131168D01*
X197531Y131125D01*
Y133752D01*
D02*
G37*
G36*
X309252Y139807D02*
X308426Y139698D01*
X307656Y139379D01*
X306994Y138872D01*
X306487Y138210D01*
X306168Y137441D01*
X306059Y136614D01*
X306168Y135788D01*
X306487Y135018D01*
X306994Y134357D01*
X307656Y133849D01*
X308426Y133530D01*
X309252Y133422D01*
X310078Y133530D01*
X310848Y133849D01*
X311509Y134357D01*
X312017Y135018D01*
X312336Y135788D01*
X312445Y136614D01*
X312336Y137441D01*
X312017Y138210D01*
X311509Y138872D01*
X310848Y139379D01*
X310078Y139698D01*
X309252Y139807D01*
D02*
G37*
G36*
X128740D02*
X127914Y139698D01*
X127144Y139379D01*
X126483Y138872D01*
X125975Y138210D01*
X125656Y137441D01*
X125548Y136614D01*
X125656Y135788D01*
X125975Y135018D01*
X126483Y134357D01*
X127144Y133849D01*
X127914Y133530D01*
X128740Y133422D01*
X129567Y133530D01*
X130336Y133849D01*
X130998Y134357D01*
X131505Y135018D01*
X131824Y135788D01*
X131933Y136614D01*
X131824Y137441D01*
X131505Y138210D01*
X130998Y138872D01*
X130336Y139379D01*
X129567Y139698D01*
X128740Y139807D01*
D02*
G37*
G36*
X292300Y120366D02*
X289673D01*
Y117739D01*
X290000Y117782D01*
X290770Y118101D01*
X291431Y118609D01*
X291938Y119270D01*
X292257Y120040D01*
X292300Y120366D01*
D02*
G37*
G36*
X288673D02*
X286046D01*
X286089Y120040D01*
X286408Y119270D01*
X286916Y118609D01*
X287577Y118101D01*
X288347Y117782D01*
X288673Y117739D01*
Y120366D01*
D02*
G37*
G36*
X289673Y123993D02*
Y121366D01*
X292300D01*
X292257Y121693D01*
X291938Y122462D01*
X291431Y123124D01*
X290770Y123631D01*
X290000Y123950D01*
X289673Y123993D01*
D02*
G37*
G36*
X288673D02*
X288347Y123950D01*
X287577Y123631D01*
X286916Y123124D01*
X286408Y122462D01*
X286089Y121693D01*
X286046Y121366D01*
X288673D01*
Y123993D01*
D02*
G37*
G36*
X356784Y96941D02*
X344472D01*
X344591Y95431D01*
X345062Y93470D01*
X345833Y91607D01*
X346887Y89887D01*
X348197Y88354D01*
X349730Y87045D01*
X351449Y85991D01*
X353312Y85219D01*
X355273Y84749D01*
X356784Y84630D01*
Y96941D01*
D02*
G37*
G36*
X126788D02*
X114476D01*
Y84630D01*
X115987Y84749D01*
X117947Y85219D01*
X119810Y85991D01*
X121530Y87045D01*
X123063Y88354D01*
X124373Y89887D01*
X125426Y91607D01*
X126198Y93470D01*
X126669Y95431D01*
X126788Y96941D01*
D02*
G37*
G36*
X113476Y110252D02*
X111966Y110133D01*
X110005Y109663D01*
X108142Y108891D01*
X106423Y107837D01*
X104890Y106528D01*
X103580Y104994D01*
X102526Y103275D01*
X101755Y101412D01*
X101284Y99451D01*
X101165Y97941D01*
X113476D01*
Y110252D01*
D02*
G37*
G36*
X370095Y96941D02*
X357784D01*
Y84630D01*
X359294Y84749D01*
X361255Y85219D01*
X363118Y85991D01*
X364837Y87045D01*
X366370Y88354D01*
X367680Y89887D01*
X368734Y91607D01*
X369505Y93470D01*
X369976Y95431D01*
X370095Y96941D01*
D02*
G37*
G36*
X265748Y101437D02*
X264008Y101265D01*
X262336Y100758D01*
X260794Y99934D01*
X259443Y98825D01*
X258334Y97474D01*
X257510Y95932D01*
X257002Y94259D01*
X256831Y92520D01*
X257002Y90780D01*
X257510Y89107D01*
X258334Y87566D01*
X259443Y86214D01*
X260794Y85106D01*
X262336Y84281D01*
X264008Y83774D01*
X265748Y83603D01*
X267488Y83774D01*
X269160Y84281D01*
X270702Y85106D01*
X272053Y86214D01*
X273162Y87566D01*
X273986Y89107D01*
X274494Y90780D01*
X274665Y92520D01*
X274494Y94259D01*
X273986Y95932D01*
X273162Y97474D01*
X272053Y98825D01*
X270702Y99934D01*
X269160Y100758D01*
X267488Y101265D01*
X265748Y101437D01*
D02*
G37*
G36*
X154134D02*
X152394Y101265D01*
X150722Y100758D01*
X149180Y99934D01*
X147829Y98825D01*
X146720Y97474D01*
X145896Y95932D01*
X145388Y94259D01*
X145217Y92520D01*
X145388Y90780D01*
X145896Y89107D01*
X146720Y87566D01*
X147829Y86214D01*
X149180Y85106D01*
X150722Y84281D01*
X152394Y83774D01*
X154134Y83603D01*
X155874Y83774D01*
X157546Y84281D01*
X159088Y85106D01*
X160439Y86214D01*
X161548Y87566D01*
X162372Y89107D01*
X162880Y90780D01*
X163051Y92520D01*
X162880Y94259D01*
X162372Y95932D01*
X161548Y97474D01*
X160439Y98825D01*
X159088Y99934D01*
X157546Y100758D01*
X155874Y101265D01*
X154134Y101437D01*
D02*
G37*
G36*
X113476Y96941D02*
X101165D01*
X101284Y95431D01*
X101755Y93470D01*
X102526Y91607D01*
X103580Y89887D01*
X104890Y88354D01*
X106423Y87045D01*
X108142Y85991D01*
X110005Y85219D01*
X111966Y84749D01*
X113476Y84630D01*
Y96941D01*
D02*
G37*
G36*
X316732Y101437D02*
X314993Y101265D01*
X313320Y100758D01*
X311778Y99934D01*
X310427Y98825D01*
X309318Y97474D01*
X308494Y95932D01*
X307987Y94259D01*
X307815Y92520D01*
X307987Y90780D01*
X308494Y89107D01*
X309318Y87566D01*
X310427Y86214D01*
X311778Y85106D01*
X313320Y84281D01*
X314993Y83774D01*
X316732Y83603D01*
X318472Y83774D01*
X320145Y84281D01*
X321686Y85106D01*
X323038Y86214D01*
X324147Y87566D01*
X324971Y89107D01*
X325478Y90780D01*
X325649Y92520D01*
X325478Y94259D01*
X324971Y95932D01*
X324147Y97474D01*
X323038Y98825D01*
X321686Y99934D01*
X320145Y100758D01*
X318472Y101265D01*
X316732Y101437D01*
D02*
G37*
G36*
X114476Y110252D02*
Y97941D01*
X126788D01*
X126669Y99451D01*
X126198Y101412D01*
X125426Y103275D01*
X124373Y104994D01*
X123063Y106528D01*
X121530Y107837D01*
X119810Y108891D01*
X117947Y109663D01*
X115987Y110133D01*
X114476Y110252D01*
D02*
G37*
G36*
X159539Y109028D02*
X155920D01*
X155997Y108444D01*
X156415Y107435D01*
X157080Y106568D01*
X157947Y105903D01*
X158956Y105485D01*
X159539Y105408D01*
Y109028D01*
D02*
G37*
G36*
X322638Y113713D02*
X321554Y113570D01*
X320545Y113152D01*
X319678Y112487D01*
X319013Y111620D01*
X318595Y110611D01*
X318452Y109528D01*
X318595Y108444D01*
X319013Y107435D01*
X319678Y106568D01*
X320545Y105903D01*
X321554Y105485D01*
X322638Y105342D01*
X323721Y105485D01*
X324730Y105903D01*
X325597Y106568D01*
X326262Y107435D01*
X326681Y108444D01*
X326823Y109528D01*
X326681Y110611D01*
X326262Y111620D01*
X325597Y112487D01*
X324730Y113152D01*
X323721Y113570D01*
X322638Y113713D01*
D02*
G37*
G36*
X310327Y109028D02*
X306707D01*
X306784Y108444D01*
X307202Y107435D01*
X307867Y106568D01*
X308734Y105903D01*
X309743Y105485D01*
X310327Y105408D01*
Y109028D01*
D02*
G37*
G36*
X164159D02*
X160539D01*
Y105408D01*
X161123Y105485D01*
X162132Y105903D01*
X162999Y106568D01*
X163664Y107435D01*
X164082Y108444D01*
X164159Y109028D01*
D02*
G37*
G36*
X357784Y110252D02*
Y97941D01*
X370095D01*
X369976Y99451D01*
X369505Y101412D01*
X368734Y103275D01*
X367680Y104994D01*
X366370Y106528D01*
X364837Y107837D01*
X363118Y108891D01*
X361255Y109663D01*
X359294Y110133D01*
X357784Y110252D01*
D02*
G37*
G36*
X356784D02*
X355273Y110133D01*
X353312Y109663D01*
X351449Y108891D01*
X349730Y107837D01*
X348197Y106528D01*
X346887Y104994D01*
X345833Y103275D01*
X345062Y101412D01*
X344591Y99451D01*
X344472Y97941D01*
X356784D01*
Y110252D01*
D02*
G37*
G36*
X271654Y113713D02*
X270570Y113570D01*
X269561Y113152D01*
X268694Y112487D01*
X268029Y111620D01*
X267611Y110611D01*
X267468Y109528D01*
X267611Y108444D01*
X268029Y107435D01*
X268694Y106568D01*
X269561Y105903D01*
X270570Y105485D01*
X271654Y105342D01*
X272737Y105485D01*
X273746Y105903D01*
X274613Y106568D01*
X275278Y107435D01*
X275696Y108444D01*
X275839Y109528D01*
X275696Y110611D01*
X275278Y111620D01*
X274613Y112487D01*
X273746Y113152D01*
X272737Y113570D01*
X271654Y113713D01*
D02*
G37*
G36*
X148228D02*
X147145Y113570D01*
X146136Y113152D01*
X145269Y112487D01*
X144604Y111620D01*
X144185Y110611D01*
X144043Y109528D01*
X144185Y108444D01*
X144604Y107435D01*
X145269Y106568D01*
X146136Y105903D01*
X147145Y105485D01*
X148228Y105342D01*
X149312Y105485D01*
X150321Y105903D01*
X151188Y106568D01*
X151853Y107435D01*
X152271Y108444D01*
X152414Y109528D01*
X152271Y110611D01*
X151853Y111620D01*
X151188Y112487D01*
X150321Y113152D01*
X149312Y113570D01*
X148228Y113713D01*
D02*
G37*
G36*
X114476Y269701D02*
Y257390D01*
X126788D01*
X126669Y258900D01*
X126198Y260861D01*
X125426Y262724D01*
X124373Y264443D01*
X123063Y265977D01*
X121530Y267286D01*
X119810Y268340D01*
X117947Y269111D01*
X115987Y269582D01*
X114476Y269701D01*
D02*
G37*
G36*
X113476D02*
X111966Y269582D01*
X110005Y269111D01*
X108142Y268340D01*
X106423Y267286D01*
X104890Y265977D01*
X103580Y264443D01*
X102526Y262724D01*
X101755Y260861D01*
X101284Y258900D01*
X101165Y257390D01*
X113476D01*
Y269701D01*
D02*
G37*
G36*
X158268Y219531D02*
X157441Y219422D01*
X156671Y219104D01*
X156010Y218596D01*
X155503Y217935D01*
X155184Y217165D01*
X155075Y216339D01*
X155184Y215512D01*
X155503Y214742D01*
X156010Y214081D01*
X156671Y213574D01*
X157441Y213255D01*
X158268Y213146D01*
X159094Y213255D01*
X159864Y213574D01*
X160525Y214081D01*
X161033Y214742D01*
X161352Y215512D01*
X161460Y216339D01*
X161352Y217165D01*
X161033Y217935D01*
X160525Y218596D01*
X159864Y219104D01*
X159094Y219422D01*
X158268Y219531D01*
D02*
G37*
G36*
X357784Y269701D02*
Y257390D01*
X370095D01*
X369976Y258900D01*
X369505Y260861D01*
X368734Y262724D01*
X367680Y264443D01*
X366370Y265977D01*
X364837Y267286D01*
X363118Y268340D01*
X361255Y269111D01*
X359294Y269582D01*
X357784Y269701D01*
D02*
G37*
G36*
X356784D02*
X355273Y269582D01*
X353312Y269111D01*
X351449Y268340D01*
X349730Y267286D01*
X348197Y265977D01*
X346887Y264443D01*
X345833Y262724D01*
X345062Y260861D01*
X344591Y258900D01*
X344472Y257390D01*
X356784D01*
Y269701D01*
D02*
G37*
G36*
X335630Y227397D02*
X281496Y227397D01*
X281106Y227320D01*
X280775Y227099D01*
X269948Y216272D01*
X269727Y215941D01*
X269650Y215551D01*
X269650Y210630D01*
X269727Y210240D01*
X269948Y209909D01*
X271917Y207941D01*
X272248Y207719D01*
X272638Y207642D01*
X276772D01*
X277162Y207719D01*
X277493Y207941D01*
X289005Y219453D01*
X307290D01*
X307459Y218953D01*
X306994Y218596D01*
X306487Y217935D01*
X306168Y217165D01*
X306059Y216339D01*
X306168Y215512D01*
X306487Y214742D01*
X306994Y214081D01*
X307656Y213574D01*
X307723Y213546D01*
Y199446D01*
X307656Y199418D01*
X306994Y198911D01*
X306487Y198250D01*
X306168Y197480D01*
X306059Y196653D01*
X306168Y195827D01*
X306487Y195057D01*
X306994Y194396D01*
X307656Y193889D01*
X307723Y193861D01*
Y178980D01*
X289111Y160368D01*
X252228D01*
X251088Y161508D01*
X251115Y161575D01*
X251224Y162402D01*
X251115Y163228D01*
X250796Y163998D01*
X250289Y164659D01*
X249628Y165166D01*
X248858Y165485D01*
X248031Y165594D01*
X247205Y165485D01*
X246435Y165166D01*
X245774Y164659D01*
X245774Y164659D01*
X244459Y165974D01*
X248215Y169730D01*
X270233D01*
X273322Y166641D01*
X273294Y166574D01*
X273185Y165748D01*
X273294Y164922D01*
X273613Y164152D01*
X274120Y163490D01*
X274782Y162983D01*
X275552Y162664D01*
X276378Y162555D01*
X277204Y162664D01*
X277974Y162983D01*
X278636Y163490D01*
X279143Y164152D01*
X279462Y164922D01*
X279571Y165748D01*
X279462Y166574D01*
X279143Y167344D01*
X278636Y168006D01*
X277974Y168513D01*
X277204Y168832D01*
X276378Y168941D01*
X275552Y168832D01*
X275485Y168804D01*
X271948Y172341D01*
X271451Y172673D01*
X270866Y172789D01*
X247581D01*
X246996Y172673D01*
X246500Y172341D01*
X229231Y155073D01*
X198854D01*
X198821Y155573D01*
X198858Y155578D01*
X199628Y155896D01*
X200289Y156404D01*
X200796Y157065D01*
X201115Y157835D01*
X201224Y158661D01*
X201115Y159488D01*
X200796Y160258D01*
X200289Y160919D01*
X199628Y161426D01*
X198858Y161745D01*
X198031Y161854D01*
X197205Y161745D01*
X196435Y161426D01*
X195774Y160919D01*
X195267Y160258D01*
X195239Y160191D01*
X188691D01*
X188106Y160074D01*
X187610Y159743D01*
X181944Y154077D01*
X181613Y153581D01*
X181496Y152996D01*
Y115891D01*
X181613Y115306D01*
X181944Y114810D01*
X188307Y108446D01*
X188804Y108115D01*
X189389Y107998D01*
X194961D01*
X195194Y107435D01*
X195859Y106568D01*
X196726Y105903D01*
X197736Y105485D01*
X198819Y105342D01*
X199902Y105485D01*
X200465Y105718D01*
X203919Y102265D01*
X204415Y101934D01*
X204499Y101917D01*
X204474Y101412D01*
X202985Y101265D01*
X201312Y100758D01*
X199770Y99934D01*
X198419Y98825D01*
X197310Y97474D01*
X196486Y95932D01*
X195979Y94259D01*
X195808Y92520D01*
X195979Y90780D01*
X196486Y89107D01*
X197310Y87566D01*
X198419Y86214D01*
X199770Y85106D01*
X201312Y84281D01*
X202985Y83774D01*
X204724Y83603D01*
X206464Y83774D01*
X208137Y84281D01*
X209678Y85106D01*
X211030Y86214D01*
X212139Y87566D01*
X212963Y89107D01*
X213470Y90780D01*
X213641Y92520D01*
X213470Y94259D01*
X212963Y95932D01*
X212139Y97474D01*
X211030Y98825D01*
X209678Y99934D01*
X208137Y100758D01*
X206464Y101265D01*
X205938Y101317D01*
X205963Y101817D01*
X245374D01*
X245959Y101934D01*
X246456Y102265D01*
X255582Y111391D01*
X256006Y111108D01*
X255800Y110611D01*
X255657Y109528D01*
X255800Y108444D01*
X256218Y107435D01*
X256883Y106568D01*
X257750Y105903D01*
X258759Y105485D01*
X259842Y105342D01*
X260926Y105485D01*
X261935Y105903D01*
X262802Y106568D01*
X263467Y107435D01*
X263885Y108444D01*
X264028Y109528D01*
X263885Y110611D01*
X263467Y111620D01*
X262802Y112487D01*
X261935Y113152D01*
X260926Y113570D01*
X259842Y113713D01*
X258759Y113570D01*
X258262Y113364D01*
X257979Y113788D01*
X261298Y117107D01*
X261630Y117604D01*
X261746Y118189D01*
Y130278D01*
X261813Y130306D01*
X262474Y130813D01*
X262982Y131474D01*
X263300Y132245D01*
X263409Y133071D01*
X263300Y133897D01*
X262982Y134667D01*
X262474Y135328D01*
X261813Y135836D01*
X261043Y136155D01*
X260216Y136264D01*
X259390Y136155D01*
X258620Y135836D01*
X257959Y135328D01*
X257452Y134667D01*
X257133Y133897D01*
X257024Y133071D01*
X257133Y132245D01*
X257452Y131474D01*
X257959Y130813D01*
X258620Y130306D01*
X258687Y130278D01*
Y118823D01*
X244741Y104876D01*
X210919D01*
X210886Y105376D01*
X211713Y105485D01*
X212723Y105903D01*
X213589Y106568D01*
X214255Y107435D01*
X214673Y108444D01*
X214815Y109528D01*
X214673Y110611D01*
X214255Y111620D01*
X213589Y112487D01*
X212723Y113152D01*
X211713Y113570D01*
X210630Y113713D01*
X209547Y113570D01*
X208537Y113152D01*
X208129Y112839D01*
X192474Y128494D01*
Y141403D01*
X194782D01*
X194839Y141339D01*
X194948Y140512D01*
X195267Y139742D01*
X195774Y139081D01*
X196435Y138574D01*
X197205Y138255D01*
X198031Y138146D01*
X198858Y138255D01*
X199628Y138574D01*
X200289Y139081D01*
X200796Y139742D01*
X201115Y140512D01*
X201224Y141339D01*
X201150Y141901D01*
X203389Y144140D01*
X261811D01*
X262396Y144256D01*
X262884Y144582D01*
X262953Y144554D01*
X263779Y144445D01*
X264606Y144554D01*
X265376Y144873D01*
X266037Y145380D01*
X266545Y146042D01*
X266863Y146811D01*
X266972Y147638D01*
X266863Y148464D01*
X266545Y149234D01*
X266037Y149895D01*
X265376Y150403D01*
X264606Y150722D01*
X263779Y150830D01*
X263055Y150735D01*
X262924Y151202D01*
X263090Y151444D01*
X263860Y151763D01*
X264521Y152270D01*
X265029Y152931D01*
X265348Y153701D01*
X265456Y154528D01*
X265348Y155354D01*
X265029Y156124D01*
X264521Y156785D01*
X264490Y156809D01*
X264660Y157309D01*
X289744D01*
X290329Y157426D01*
X290826Y157757D01*
X310333Y177265D01*
X310665Y177761D01*
X310781Y178347D01*
Y193861D01*
X310848Y193889D01*
X311509Y194396D01*
X312017Y195057D01*
X312336Y195827D01*
X312445Y196653D01*
X312336Y197480D01*
X312017Y198250D01*
X311509Y198911D01*
X310848Y199418D01*
X310781Y199446D01*
Y213546D01*
X310848Y213574D01*
X311509Y214081D01*
X312017Y214742D01*
X312336Y215512D01*
X312445Y216339D01*
X312336Y217165D01*
X312017Y217935D01*
X311509Y218596D01*
X311045Y218953D01*
X311214Y219453D01*
X328318D01*
X335893Y211877D01*
X336224Y211656D01*
X336614Y211579D01*
X340551Y211579D01*
X340941Y211656D01*
X341272Y211877D01*
X343241Y213846D01*
X343462Y214177D01*
X343539Y214567D01*
Y219488D01*
X343462Y219878D01*
X343241Y220209D01*
X336351Y227099D01*
X336020Y227320D01*
X335630Y227397D01*
D02*
G37*
G36*
X370095Y256390D02*
X357784D01*
Y244078D01*
X359294Y244197D01*
X361255Y244668D01*
X363118Y245440D01*
X364837Y246493D01*
X366370Y247803D01*
X367680Y249336D01*
X368734Y251056D01*
X369505Y252919D01*
X369976Y254879D01*
X370095Y256390D01*
D02*
G37*
G36*
X113476D02*
X101165D01*
X101284Y254879D01*
X101755Y252919D01*
X102526Y251056D01*
X103580Y249336D01*
X104890Y247803D01*
X106423Y246493D01*
X108142Y245440D01*
X110005Y244668D01*
X111966Y244197D01*
X113476Y244078D01*
Y256390D01*
D02*
G37*
G36*
X194882Y245319D02*
X194056Y245210D01*
X193839Y245120D01*
X130905D01*
X130131Y245018D01*
X129408Y244719D01*
X128788Y244243D01*
X112056Y227511D01*
X111580Y226891D01*
X111281Y226169D01*
X111179Y225394D01*
Y180079D01*
X111281Y179304D01*
X111580Y178582D01*
X112056Y177962D01*
X155836Y134182D01*
X156456Y133706D01*
X157178Y133407D01*
X157953Y133305D01*
X158728Y133407D01*
X158993Y133517D01*
X159094Y133530D01*
X159864Y133849D01*
X160525Y134357D01*
X161033Y135018D01*
X161352Y135788D01*
X161460Y136614D01*
X161352Y137441D01*
X161033Y138210D01*
X160525Y138872D01*
X159864Y139379D01*
X159094Y139698D01*
X158742Y139744D01*
X117167Y181319D01*
Y224153D01*
X132146Y239132D01*
X193839D01*
X194056Y239042D01*
X194882Y238933D01*
X195708Y239042D01*
X196478Y239361D01*
X197139Y239868D01*
X197647Y240530D01*
X197966Y241300D01*
X198074Y242126D01*
X197966Y242952D01*
X197647Y243722D01*
X197139Y244384D01*
X196478Y244891D01*
X195708Y245210D01*
X194882Y245319D01*
D02*
G37*
G36*
X274606D02*
X273780Y245210D01*
X273010Y244891D01*
X272349Y244384D01*
X271841Y243722D01*
X271814Y243655D01*
X257714D01*
X257686Y243722D01*
X257179Y244384D01*
X256518Y244891D01*
X255748Y245210D01*
X254921Y245319D01*
X254095Y245210D01*
X253325Y244891D01*
X252664Y244384D01*
X252156Y243722D01*
X251837Y242952D01*
X251729Y242126D01*
X251837Y241300D01*
X251865Y241233D01*
X246556Y235924D01*
X246225Y235428D01*
X246108Y234842D01*
Y199249D01*
X246041Y199222D01*
X245380Y198714D01*
X244873Y198053D01*
X244554Y197283D01*
X244445Y196457D01*
X244554Y195630D01*
X244582Y195563D01*
X238343Y189325D01*
X212438D01*
X212411Y189392D01*
X211903Y190053D01*
X211242Y190560D01*
X210472Y190879D01*
X209646Y190988D01*
X208819Y190879D01*
X208049Y190560D01*
X207388Y190053D01*
X206881Y189392D01*
X206562Y188622D01*
X206453Y187795D01*
X206562Y186969D01*
X206881Y186199D01*
X207388Y185538D01*
X208049Y185030D01*
X208819Y184711D01*
X209646Y184603D01*
X210472Y184711D01*
X211242Y185030D01*
X211903Y185538D01*
X212411Y186199D01*
X212438Y186266D01*
X238976D01*
X239562Y186382D01*
X240058Y186714D01*
X246744Y193401D01*
X246812Y193373D01*
X247638Y193264D01*
X248464Y193373D01*
X249234Y193692D01*
X249895Y194199D01*
X250403Y194860D01*
X250722Y195630D01*
X250831Y196457D01*
X250722Y197283D01*
X250403Y198053D01*
X249895Y198714D01*
X249234Y199222D01*
X249167Y199249D01*
Y234209D01*
X254028Y239070D01*
X254095Y239042D01*
X254921Y238933D01*
X255748Y239042D01*
X256518Y239361D01*
X257179Y239868D01*
X257686Y240530D01*
X257714Y240597D01*
X271814D01*
X271841Y240530D01*
X272349Y239868D01*
X273010Y239361D01*
X273780Y239042D01*
X274606Y238933D01*
X275433Y239042D01*
X276203Y239361D01*
X276864Y239868D01*
X277371Y240530D01*
X277690Y241300D01*
X277799Y242126D01*
X277690Y242952D01*
X277371Y243722D01*
X276864Y244384D01*
X276203Y244891D01*
X275433Y245210D01*
X274606Y245319D01*
D02*
G37*
G36*
X356784Y256390D02*
X344472D01*
X344591Y254879D01*
X345062Y252919D01*
X345833Y251056D01*
X346887Y249336D01*
X348197Y247803D01*
X349730Y246493D01*
X351449Y245440D01*
X353312Y244668D01*
X355273Y244197D01*
X356784Y244078D01*
Y256390D01*
D02*
G37*
G36*
X243189Y253193D02*
X242363Y253084D01*
X241593Y252765D01*
X240931Y252257D01*
X240424Y251596D01*
X240334Y251380D01*
X204547Y215593D01*
X195925D01*
X195708Y215682D01*
X194882Y215791D01*
X194056Y215682D01*
X193286Y215363D01*
X192624Y214856D01*
X192117Y214195D01*
X191798Y213425D01*
X191689Y212598D01*
X191798Y211772D01*
X192117Y211002D01*
X192624Y210341D01*
X193286Y209834D01*
X194056Y209515D01*
X194882Y209406D01*
X195708Y209515D01*
X195925Y209604D01*
X205787D01*
X206562Y209706D01*
X207284Y210005D01*
X207905Y210481D01*
X244569Y247145D01*
X244785Y247235D01*
X245446Y247743D01*
X245954Y248404D01*
X246273Y249174D01*
X246382Y250000D01*
X246273Y250826D01*
X245954Y251596D01*
X245446Y252257D01*
X244785Y252765D01*
X244015Y253084D01*
X243189Y253193D01*
D02*
G37*
G36*
X126788Y256390D02*
X114476D01*
Y244078D01*
X115987Y244197D01*
X117947Y244668D01*
X119810Y245440D01*
X121530Y246493D01*
X123063Y247803D01*
X124373Y249336D01*
X125426Y251056D01*
X126198Y252919D01*
X126669Y254879D01*
X126788Y256390D01*
D02*
G37*
G36*
X158268Y199846D02*
X157441Y199737D01*
X156671Y199418D01*
X156010Y198911D01*
X155503Y198250D01*
X155184Y197480D01*
X155075Y196653D01*
X155184Y195827D01*
X155503Y195057D01*
X156010Y194396D01*
X156671Y193889D01*
X157441Y193570D01*
X158268Y193461D01*
X159094Y193570D01*
X159551Y193759D01*
X180474Y172836D01*
X180970Y172504D01*
X181556Y172388D01*
X210987D01*
X211015Y172321D01*
X211522Y171660D01*
X212183Y171152D01*
X212953Y170833D01*
X213779Y170725D01*
X214606Y170833D01*
X215376Y171152D01*
X216037Y171660D01*
X216545Y172321D01*
X216863Y173091D01*
X216972Y173917D01*
X216863Y174744D01*
X216545Y175514D01*
X216037Y176175D01*
X215376Y176682D01*
X214606Y177001D01*
X213779Y177110D01*
X212953Y177001D01*
X212183Y176682D01*
X211522Y176175D01*
X211015Y175514D01*
X210987Y175447D01*
X182189D01*
X161405Y196231D01*
X161460Y196653D01*
X161352Y197480D01*
X161033Y198250D01*
X160525Y198911D01*
X159864Y199418D01*
X159094Y199737D01*
X158268Y199846D01*
D02*
G37*
G36*
X265701Y179815D02*
X263074D01*
X263117Y179489D01*
X263436Y178719D01*
X263943Y178057D01*
X264604Y177550D01*
X265374Y177231D01*
X265701Y177188D01*
Y179815D01*
D02*
G37*
G36*
X269328D02*
X266701D01*
Y177188D01*
X267027Y177231D01*
X267797Y177550D01*
X268458Y178057D01*
X268966Y178719D01*
X269285Y179489D01*
X269328Y179815D01*
D02*
G37*
G36*
X338779Y139807D02*
X337953Y139698D01*
X337183Y139379D01*
X336522Y138872D01*
X336015Y138210D01*
X335696Y137441D01*
X335587Y136614D01*
X335696Y135788D01*
X336015Y135018D01*
X336522Y134357D01*
X337183Y133849D01*
X337953Y133530D01*
X338779Y133422D01*
X339606Y133530D01*
X340376Y133849D01*
X341037Y134357D01*
X341545Y135018D01*
X341863Y135788D01*
X341972Y136614D01*
X341863Y137441D01*
X341545Y138210D01*
X341037Y138872D01*
X340376Y139379D01*
X339606Y139698D01*
X338779Y139807D01*
D02*
G37*
G36*
X197531Y137379D02*
X197205Y137336D01*
X196435Y137017D01*
X195774Y136510D01*
X195267Y135848D01*
X194948Y135078D01*
X194905Y134752D01*
X197531D01*
Y137379D01*
D02*
G37*
G36*
X198531D02*
Y134752D01*
X201158D01*
X201115Y135078D01*
X200796Y135848D01*
X200289Y136510D01*
X199628Y137017D01*
X198858Y137336D01*
X198531Y137379D01*
D02*
G37*
G36*
X265701Y183442D02*
X265374Y183399D01*
X264604Y183080D01*
X263943Y182572D01*
X263436Y181911D01*
X263117Y181141D01*
X263074Y180815D01*
X265701D01*
Y183442D01*
D02*
G37*
G36*
X128740Y219531D02*
X127914Y219422D01*
X127144Y219104D01*
X126483Y218596D01*
X125975Y217935D01*
X125656Y217165D01*
X125548Y216339D01*
X125656Y215512D01*
X125975Y214742D01*
X126483Y214081D01*
X127144Y213574D01*
X127408Y213464D01*
Y207677D01*
Y199528D01*
X127144Y199418D01*
X126483Y198911D01*
X125975Y198250D01*
X125656Y197480D01*
X125548Y196653D01*
X125656Y195827D01*
X125975Y195057D01*
X126483Y194396D01*
X127144Y193889D01*
X127914Y193570D01*
X128740Y193461D01*
X129567Y193570D01*
X130336Y193889D01*
X130998Y194396D01*
X131505Y195057D01*
X131824Y195827D01*
X131933Y196653D01*
X131824Y197480D01*
X131505Y198250D01*
X130998Y198911D01*
X130466Y199319D01*
Y206148D01*
X160784D01*
X172344Y194588D01*
X172840Y194256D01*
X173425Y194140D01*
X216105D01*
X216133Y194073D01*
X216640Y193412D01*
X217301Y192904D01*
X218071Y192585D01*
X218898Y192477D01*
X219724Y192585D01*
X220494Y192904D01*
X221155Y193412D01*
X221663Y194073D01*
X221982Y194843D01*
X222090Y195669D01*
X221982Y196496D01*
X221663Y197266D01*
X221155Y197927D01*
X220494Y198434D01*
X219724Y198753D01*
X218898Y198862D01*
X218071Y198753D01*
X217301Y198434D01*
X216640Y197927D01*
X216133Y197266D01*
X216105Y197199D01*
X174059D01*
X162499Y208759D01*
X162003Y209090D01*
X161417Y209207D01*
X130466D01*
Y213673D01*
X130998Y214081D01*
X131505Y214742D01*
X131824Y215512D01*
X131933Y216339D01*
X131824Y217165D01*
X131505Y217935D01*
X130998Y218596D01*
X130336Y219104D01*
X129567Y219422D01*
X128740Y219531D01*
D02*
G37*
G36*
X338779Y199846D02*
X337953Y199737D01*
X337183Y199418D01*
X336522Y198911D01*
X336015Y198250D01*
X335696Y197480D01*
X335587Y196653D01*
X335696Y195827D01*
X335723Y195760D01*
X281299Y141336D01*
X234092D01*
X234064Y141403D01*
X233557Y142064D01*
X232895Y142572D01*
X232125Y142891D01*
X231299Y142999D01*
X230473Y142891D01*
X229703Y142572D01*
X229042Y142064D01*
X228534Y141403D01*
X228215Y140633D01*
X228107Y139807D01*
X228215Y138980D01*
X228534Y138210D01*
X229042Y137549D01*
X229703Y137042D01*
X230473Y136723D01*
X231299Y136614D01*
X232125Y136723D01*
X232895Y137042D01*
X233557Y137549D01*
X234064Y138210D01*
X234092Y138277D01*
X281933D01*
X282518Y138394D01*
X283014Y138725D01*
X337886Y193597D01*
X337953Y193570D01*
X338779Y193461D01*
X339606Y193570D01*
X340376Y193889D01*
X341037Y194396D01*
X341545Y195057D01*
X341863Y195827D01*
X341972Y196653D01*
X341863Y197480D01*
X341545Y198250D01*
X341037Y198911D01*
X340376Y199418D01*
X339606Y199737D01*
X338779Y199846D01*
D02*
G37*
G36*
X266701Y183442D02*
Y180815D01*
X269328D01*
X269285Y181141D01*
X268966Y181911D01*
X268458Y182572D01*
X267797Y183080D01*
X267027Y183399D01*
X266701Y183442D01*
D02*
G37*
G36*
X254921Y215791D02*
X254095Y215682D01*
X253325Y215363D01*
X252664Y214856D01*
X252156Y214195D01*
X251837Y213425D01*
X251729Y212598D01*
X251837Y211772D01*
X252156Y211002D01*
X252664Y210341D01*
X253325Y209834D01*
X253392Y209806D01*
Y189801D01*
X253325Y189773D01*
X252664Y189265D01*
X252156Y188604D01*
X251837Y187834D01*
X251729Y187008D01*
X251837Y186181D01*
X252156Y185412D01*
X252664Y184750D01*
X253325Y184243D01*
X254095Y183924D01*
X254921Y183815D01*
X255748Y183924D01*
X256518Y184243D01*
X257179Y184750D01*
X257686Y185412D01*
X258005Y186181D01*
X258114Y187008D01*
X258005Y187834D01*
X257686Y188604D01*
X257179Y189265D01*
X256518Y189773D01*
X256451Y189801D01*
Y209806D01*
X256518Y209834D01*
X257179Y210341D01*
X257686Y211002D01*
X258005Y211772D01*
X258114Y212598D01*
X258005Y213425D01*
X257686Y214195D01*
X257179Y214856D01*
X256518Y215363D01*
X255748Y215682D01*
X254921Y215791D01*
D02*
G37*
%LPD*%
G36*
X342520Y219488D02*
Y214567D01*
X340551Y212598D01*
X336614Y212598D01*
X328740Y220472D01*
X288583Y220472D01*
X276772Y208661D01*
X272638D01*
X270669Y210630D01*
X270669Y215551D01*
X281496Y226378D01*
X335630Y226378D01*
X342520Y219488D01*
D02*
G37*
G36*
X262846Y145684D02*
X262801Y145698D01*
X262751Y145702D01*
X262696Y145693D01*
X262635Y145674D01*
X262570Y145642D01*
X262499Y145600D01*
X262423Y145546D01*
X262342Y145481D01*
X262165Y145316D01*
X261457Y146023D01*
X261546Y146114D01*
X261688Y146281D01*
X261742Y146357D01*
X261784Y146428D01*
X261815Y146494D01*
X261835Y146554D01*
X261843Y146609D01*
X261840Y146660D01*
X261826Y146704D01*
X262846Y145684D01*
D02*
G37*
%LPC*%
G36*
X274106Y215725D02*
X273780Y215682D01*
X273010Y215363D01*
X272349Y214856D01*
X271841Y214195D01*
X271522Y213425D01*
X271480Y213098D01*
X274106D01*
Y215725D01*
D02*
G37*
G36*
X275106D02*
Y213098D01*
X277733D01*
X277690Y213425D01*
X277371Y214195D01*
X276864Y214856D01*
X276203Y215363D01*
X275433Y215682D01*
X275106Y215725D01*
D02*
G37*
G36*
X274106Y212098D02*
X271480D01*
X271522Y211772D01*
X271841Y211002D01*
X272349Y210341D01*
X273010Y209834D01*
X273780Y209515D01*
X274106Y209472D01*
Y212098D01*
D02*
G37*
G36*
X277733D02*
X275106D01*
Y209472D01*
X275433Y209515D01*
X276203Y209834D01*
X276864Y210341D01*
X277371Y211002D01*
X277690Y211772D01*
X277733Y212098D01*
D02*
G37*
G36*
X338280Y219465D02*
X337953Y219422D01*
X337183Y219104D01*
X336522Y218596D01*
X336015Y217935D01*
X335696Y217165D01*
X335653Y216839D01*
X338280D01*
Y219465D01*
D02*
G37*
G36*
X339280D02*
Y216839D01*
X341906D01*
X341863Y217165D01*
X341545Y217935D01*
X341037Y218596D01*
X340376Y219104D01*
X339606Y219422D01*
X339280Y219465D01*
D02*
G37*
G36*
X341906Y215839D02*
X339280D01*
Y213212D01*
X339606Y213255D01*
X340376Y213574D01*
X341037Y214081D01*
X341545Y214742D01*
X341863Y215512D01*
X341906Y215839D01*
D02*
G37*
G36*
X338280D02*
X335653D01*
X335696Y215512D01*
X336015Y214742D01*
X336522Y214081D01*
X337183Y213574D01*
X337953Y213255D01*
X338280Y213212D01*
Y215839D01*
D02*
G37*
%LPD*%
G36*
X129447Y208987D02*
X129477Y208817D01*
X129527Y208667D01*
X129597Y208537D01*
X129687Y208427D01*
X129797Y208337D01*
X129927Y208267D01*
X130077Y208217D01*
X130247Y208187D01*
X130437Y208177D01*
Y207177D01*
X130247Y207167D01*
X130077Y207137D01*
X129927Y207087D01*
X129797Y207017D01*
X129687Y206927D01*
X129597Y206817D01*
X129527Y206687D01*
X129477Y206537D01*
X129447Y206367D01*
X129437Y206177D01*
X128437Y207677D01*
X129437Y209177D01*
X129447Y208987D01*
D02*
G37*
D19*
X158544Y196929D02*
X181556Y173917D01*
X128937Y196653D02*
Y207677D01*
X197638Y148425D02*
X198819Y149606D01*
X128937Y207677D02*
Y216360D01*
X205000Y103347D02*
X245374D01*
X198819Y109528D02*
X205000Y103347D01*
X238976Y187795D02*
X247638Y196457D01*
X209646Y187795D02*
X238976D01*
X209278Y109528D02*
X210551D01*
X190945Y127861D02*
X209278Y109528D01*
X189389D02*
X198819D01*
X183026Y115891D02*
X189389Y109528D01*
X270866Y171260D02*
X276378Y165748D01*
X247581Y171260D02*
X270866D01*
X229865Y153543D02*
X247581Y171260D01*
X309252Y178347D02*
Y196653D01*
X128937Y207677D02*
X161417D01*
X309252Y196653D02*
Y216339D01*
X254921Y242126D02*
X274606D01*
X248031Y162402D02*
X251594Y158839D01*
X289744D01*
X309252Y178347D01*
X257343Y149606D02*
X262264Y154528D01*
X261811Y145669D02*
X263779Y147638D01*
X254921Y187008D02*
Y212598D01*
X173425Y195669D02*
X218898D01*
X161417Y207677D02*
X173425Y195669D01*
X198819Y149606D02*
X257343D01*
X190945Y127861D02*
Y149082D01*
X195407Y153543D01*
X229865D01*
X183026Y115891D02*
Y152996D01*
X188691Y158661D01*
X198031D01*
X202756Y145669D02*
X261811D01*
X198425Y141339D02*
X202756Y145669D01*
X231299Y139807D02*
X281933D01*
X338779Y196653D01*
X245374Y103347D02*
X260216Y118189D01*
Y133071D01*
X181556Y173917D02*
X213779D01*
X247638Y196457D02*
Y234842D01*
X254921Y242126D01*
D21*
X114173Y180079D02*
Y225394D01*
Y180079D02*
X157953Y136299D01*
X114173Y225394D02*
X130905Y242126D01*
X194882D01*
Y212598D02*
X205787D01*
X243189Y250000D01*
D24*
X113976Y97441D02*
D03*
Y256890D02*
D03*
X357283D02*
D03*
Y97441D02*
D03*
D25*
X210630Y109528D02*
D03*
X198819D02*
D03*
X160039D02*
D03*
X148228D02*
D03*
X271654D02*
D03*
X259842D02*
D03*
X322638D02*
D03*
X310827D02*
D03*
D26*
X338779Y196653D02*
D03*
Y216339D02*
D03*
X309252D02*
D03*
Y196653D02*
D03*
Y136614D02*
D03*
X338779D02*
D03*
X194882Y212598D02*
D03*
Y242126D02*
D03*
X254921D02*
D03*
X274606D02*
D03*
Y212598D02*
D03*
X254921D02*
D03*
X158268Y196653D02*
D03*
Y216339D02*
D03*
X128740D02*
D03*
Y196653D02*
D03*
Y136614D02*
D03*
X158268D02*
D03*
X266201Y180315D02*
D03*
X248031Y162402D02*
D03*
X243189Y250000D02*
D03*
X263779Y147638D02*
D03*
X262264Y154528D02*
D03*
X260216Y133071D02*
D03*
X254921Y187008D02*
D03*
X276378Y165748D02*
D03*
X218898Y195669D02*
D03*
X247638Y196457D02*
D03*
X198031Y134252D02*
D03*
Y148425D02*
D03*
Y141339D02*
D03*
Y158661D02*
D03*
X213779Y173917D02*
D03*
X234252Y109028D02*
D03*
X231299Y139807D02*
D03*
X209646Y187795D02*
D03*
X289173Y120866D02*
D03*
D27*
X204724Y92520D02*
D03*
X154134D02*
D03*
X265748D02*
D03*
X316732D02*
D03*
M02*
