G04 Layer_Physical_Order=1*
G04 Layer_Color=255*
%FSLAX25Y25*%
%MOIN*%
G70*
G01*
G75*
%ADD10R,0.03150X0.03543*%
%ADD11O,0.02362X0.05709*%
%ADD12R,0.09842X0.08268*%
%ADD13R,0.03150X0.03740*%
%ADD14R,0.03740X0.03150*%
%ADD15R,0.03543X0.03740*%
%ADD16R,0.03740X0.03543*%
%ADD17R,0.03150X0.03150*%
%ADD18R,0.03150X0.03150*%
%ADD19C,0.01000*%
%ADD20C,0.03150*%
%ADD21C,0.03937*%
%ADD22C,0.02362*%
%ADD23C,0.02953*%
%ADD24C,0.23622*%
%ADD25C,0.06299*%
%ADD26C,0.04331*%
%ADD27C,0.15748*%
G36*
X215525Y137413D02*
X215564Y136950D01*
X215598Y136761D01*
X215642Y136602D01*
X215696Y136472D01*
X215760Y136370D01*
X215834Y136298D01*
X215917Y136254D01*
X216010Y136240D01*
X214029D01*
X214122Y136254D01*
X214206Y136298D01*
X214279Y136370D01*
X214343Y136472D01*
X214397Y136602D01*
X214441Y136761D01*
X214476Y136950D01*
X214500Y137167D01*
X214515Y137413D01*
X214520Y137688D01*
X215520D01*
X215525Y137413D01*
D02*
G37*
G36*
X186809Y136732D02*
X186839Y136647D01*
X186889Y136572D01*
X186959Y136507D01*
X187049Y136452D01*
X187159Y136407D01*
X187289Y136372D01*
X187439Y136347D01*
X187609Y136332D01*
X187799Y136327D01*
Y135327D01*
X187609Y135322D01*
X187439Y135307D01*
X187289Y135282D01*
X187159Y135247D01*
X187049Y135202D01*
X186959Y135147D01*
X186889Y135082D01*
X186839Y135007D01*
X186809Y134922D01*
X186799Y134827D01*
Y136827D01*
X186809Y136732D01*
D02*
G37*
G36*
X178949Y134067D02*
X178918Y134102D01*
X178823Y134134D01*
X178666Y134161D01*
X178445Y134185D01*
X177406Y134235D01*
X175799Y134252D01*
Y137402D01*
X176398Y137403D01*
X178918Y137551D01*
X178949Y137586D01*
Y134067D01*
D02*
G37*
G36*
X229753Y138291D02*
X229555Y138484D01*
X229167Y138809D01*
X228977Y138941D01*
X228790Y139053D01*
X228606Y139144D01*
X228423Y139215D01*
X228244Y139266D01*
X228067Y139297D01*
X227893Y139307D01*
Y140307D01*
X228067Y140317D01*
X228244Y140348D01*
X228423Y140398D01*
X228606Y140469D01*
X228790Y140561D01*
X228977Y140673D01*
X229167Y140805D01*
X229360Y140957D01*
X229555Y141130D01*
X229753Y141323D01*
Y138291D01*
D02*
G37*
G36*
X275564Y137413D02*
X275603Y136950D01*
X275638Y136761D01*
X275682Y136602D01*
X275736Y136472D01*
X275799Y136370D01*
X275873Y136298D01*
X275956Y136254D01*
X276049Y136240D01*
X274069D01*
X274162Y136254D01*
X274245Y136298D01*
X274319Y136370D01*
X274382Y136472D01*
X274436Y136602D01*
X274481Y136761D01*
X274515Y136950D01*
X274539Y137167D01*
X274554Y137413D01*
X274559Y137688D01*
X275559D01*
X275564Y137413D01*
D02*
G37*
G36*
X245052D02*
X245091Y136950D01*
X245126Y136761D01*
X245170Y136602D01*
X245224Y136472D01*
X245288Y136370D01*
X245361Y136298D01*
X245444Y136254D01*
X245538Y136240D01*
X243557D01*
X243650Y136254D01*
X243733Y136298D01*
X243807Y136370D01*
X243871Y136472D01*
X243925Y136602D01*
X243969Y136761D01*
X244003Y136950D01*
X244028Y137167D01*
X244042Y137413D01*
X244047Y137688D01*
X245047D01*
X245052Y137413D01*
D02*
G37*
G36*
X258670Y131555D02*
X258472Y131748D01*
X258085Y132073D01*
X257895Y132205D01*
X257707Y132317D01*
X257523Y132408D01*
X257341Y132480D01*
X257161Y132530D01*
X256985Y132561D01*
X256810Y132571D01*
Y133571D01*
X256985Y133581D01*
X257161Y133612D01*
X257341Y133662D01*
X257523Y133733D01*
X257707Y133825D01*
X257895Y133937D01*
X258085Y134069D01*
X258277Y134221D01*
X258472Y134394D01*
X258670Y134587D01*
Y131555D01*
D02*
G37*
G36*
X209186Y131450D02*
X208981Y131683D01*
X208745Y131892D01*
X208476Y132076D01*
X208174Y132235D01*
X207841Y132370D01*
X207475Y132481D01*
X207078Y132567D01*
X206648Y132628D01*
X206185Y132665D01*
X205691Y132677D01*
X205717Y135827D01*
X206229Y135835D01*
X207159Y135901D01*
X207578Y135959D01*
X208320Y136124D01*
X208645Y136231D01*
X208938Y136354D01*
X209200Y136495D01*
X209430Y136651D01*
X209186Y131450D01*
D02*
G37*
G36*
X280559Y130159D02*
X280910Y130229D01*
X281632Y130711D01*
X282114Y131432D01*
X282177Y131752D01*
X282677Y131703D01*
Y130709D01*
X287795Y125591D01*
X293701D01*
Y120079D01*
X289764Y116142D01*
X281496D01*
X279543Y118095D01*
Y120366D01*
X276969D01*
Y120866D01*
X276468D01*
Y123638D01*
X274000D01*
X268504Y129134D01*
X267323Y130315D01*
Y131507D01*
X267823Y131877D01*
X267922Y131847D01*
X268004Y131432D01*
X268487Y130711D01*
X269208Y130229D01*
X269559Y130159D01*
Y133957D01*
X270559D01*
Y130159D01*
X270910Y130229D01*
X271632Y130711D01*
X272114Y131432D01*
X272279Y132265D01*
X272815Y132260D01*
Y129921D01*
X277165D01*
Y131693D01*
X277278Y132260D01*
X277840D01*
X278005Y131432D01*
X278487Y130711D01*
X279208Y130229D01*
X279559Y130159D01*
Y133957D01*
X280559D01*
Y130159D01*
D02*
G37*
G36*
X237851Y136367D02*
X238000Y136239D01*
X238133Y136142D01*
X238250Y136075D01*
X238350Y136038D01*
X238435Y136032D01*
X238503Y136056D01*
X238555Y136110D01*
X238591Y136195D01*
X238611Y136310D01*
X238380Y133722D01*
X238383Y133851D01*
X238369Y133983D01*
X238339Y134117D01*
X238292Y134254D01*
X238229Y134394D01*
X238148Y134537D01*
X238052Y134683D01*
X237938Y134831D01*
X237808Y134982D01*
X237661Y135136D01*
X237686Y136525D01*
X237851Y136367D01*
D02*
G37*
G36*
X286236Y134862D02*
X286267Y134777D01*
X286317Y134702D01*
X286388Y134637D01*
X286479Y134582D01*
X286591Y134537D01*
X286722Y134502D01*
X286874Y134477D01*
X287046Y134462D01*
X287238Y134457D01*
Y133457D01*
X287046Y133452D01*
X286874Y133437D01*
X286722Y133412D01*
X286591Y133377D01*
X286479Y133332D01*
X286388Y133277D01*
X286317Y133212D01*
X286267Y133137D01*
X286236Y133052D01*
X286226Y132957D01*
Y134957D01*
X286236Y134862D01*
D02*
G37*
G36*
X255723Y133976D02*
X255753Y133891D01*
X255803Y133816D01*
X255873Y133751D01*
X255964Y133696D01*
X256075Y133651D01*
X256207Y133616D01*
X256360Y133591D01*
X256533Y133576D01*
X256726Y133571D01*
Y132571D01*
X256530Y132566D01*
X256354Y132551D01*
X256199Y132526D01*
X256064Y132491D01*
X255950Y132446D01*
X255856Y132391D01*
X255783Y132327D01*
X255730Y132252D01*
X255698Y132167D01*
X255686Y132072D01*
X255714Y134071D01*
X255723Y133976D01*
D02*
G37*
G36*
X198223Y139182D02*
X197938Y139151D01*
X197421Y139063D01*
X197189Y139005D01*
X196975Y138938D01*
X196779Y138863D01*
X196600Y138778D01*
X196440Y138684D01*
X196297Y138582D01*
X196171Y138470D01*
X195392Y139105D01*
X195512Y139239D01*
X195615Y139388D01*
X195703Y139552D01*
X195775Y139730D01*
X195832Y139922D01*
X195872Y140129D01*
X195898Y140351D01*
X195907Y140588D01*
X195901Y140838D01*
X195879Y141104D01*
X198223Y139182D01*
D02*
G37*
G36*
X260717Y153012D02*
X260520Y153205D01*
X260132Y153530D01*
X259942Y153662D01*
X259755Y153774D01*
X259570Y153865D01*
X259388Y153936D01*
X259209Y153987D01*
X259032Y154017D01*
X258858Y154028D01*
Y155028D01*
X259032Y155038D01*
X259209Y155068D01*
X259388Y155119D01*
X259570Y155190D01*
X259755Y155281D01*
X259942Y155393D01*
X260132Y155525D01*
X260324Y155678D01*
X260520Y155850D01*
X260717Y156043D01*
Y153012D01*
D02*
G37*
G36*
X359658Y152177D02*
X359626Y152213D01*
X359532Y152244D01*
X359374Y152272D01*
X359154Y152296D01*
X358114Y152346D01*
X356508Y152362D01*
Y155512D01*
X357106Y155516D01*
X359154Y155649D01*
X359374Y155699D01*
X359532Y155756D01*
X359626Y155821D01*
X359658Y155894D01*
Y152177D01*
D02*
G37*
G36*
X210917Y153116D02*
X210834Y153072D01*
X210760Y153000D01*
X210696Y152899D01*
X210642Y152768D01*
X210598Y152609D01*
X210564Y152420D01*
X210539Y152203D01*
X210525Y151957D01*
X210520Y151682D01*
X209520D01*
X209515Y151957D01*
X209476Y152420D01*
X209441Y152609D01*
X209397Y152768D01*
X209343Y152899D01*
X209279Y153000D01*
X209206Y153072D01*
X209122Y153116D01*
X209029Y153130D01*
X211010D01*
X210917Y153116D01*
D02*
G37*
G36*
X241258Y158406D02*
X241081Y158221D01*
X240807Y157892D01*
X240711Y157747D01*
X240642Y157615D01*
X240601Y157497D01*
X240586Y157392D01*
X240599Y157300D01*
X240638Y157221D01*
X240705Y157156D01*
X239242Y158226D01*
X239341Y158244D01*
X239444Y158275D01*
X239550Y158318D01*
X239660Y158373D01*
X239773Y158440D01*
X239890Y158519D01*
X240010Y158610D01*
X240262Y158828D01*
X240393Y158955D01*
X241258Y158406D01*
D02*
G37*
G36*
X199776Y159984D02*
X200163Y159659D01*
X200353Y159527D01*
X200541Y159415D01*
X200725Y159324D01*
X200907Y159253D01*
X201087Y159202D01*
X201263Y159172D01*
X201438Y159161D01*
Y158161D01*
X201263Y158151D01*
X201087Y158121D01*
X200907Y158070D01*
X200725Y157999D01*
X200541Y157907D01*
X200353Y157796D01*
X200163Y157664D01*
X199971Y157511D01*
X199776Y157339D01*
X199578Y157146D01*
Y160177D01*
X199776Y159984D01*
D02*
G37*
G36*
X255723Y155433D02*
X255753Y155348D01*
X255803Y155273D01*
X255873Y155208D01*
X255964Y155153D01*
X256075Y155108D01*
X256207Y155073D01*
X256360Y155048D01*
X256533Y155033D01*
X256726Y155028D01*
Y154028D01*
X256530Y154023D01*
X256354Y154008D01*
X256199Y153983D01*
X256064Y153948D01*
X255950Y153903D01*
X255856Y153848D01*
X255783Y153783D01*
X255730Y153709D01*
X255698Y153624D01*
X255686Y153529D01*
X255714Y155528D01*
X255723Y155433D01*
D02*
G37*
G36*
X109008Y147815D02*
X108977Y147721D01*
X108949Y147563D01*
X108925Y147343D01*
X108875Y146303D01*
X108858Y144697D01*
X105709D01*
X105707Y145296D01*
X105559Y147815D01*
X105524Y147847D01*
X109043D01*
X109008Y147815D01*
D02*
G37*
G36*
X363142Y146437D02*
X363110Y146343D01*
X363083Y146185D01*
X363059Y145965D01*
X363009Y144925D01*
X362992Y143319D01*
X359842D01*
X359841Y143918D01*
X359693Y146437D01*
X359658Y146469D01*
X363177D01*
X363142Y146437D01*
D02*
G37*
G36*
X199776Y142661D02*
X200163Y142336D01*
X200353Y142204D01*
X200541Y142093D01*
X200725Y142001D01*
X200907Y141930D01*
X201087Y141879D01*
X201263Y141849D01*
X201438Y141839D01*
Y140839D01*
X201263Y140828D01*
X201087Y140798D01*
X200907Y140747D01*
X200725Y140676D01*
X200541Y140585D01*
X200353Y140473D01*
X200163Y140341D01*
X199971Y140189D01*
X199776Y140016D01*
X199578Y139823D01*
Y142854D01*
X199776Y142661D01*
D02*
G37*
G36*
X187006Y151496D02*
X187036Y151410D01*
X187086Y151336D01*
X187156Y151271D01*
X187246Y151216D01*
X187356Y151171D01*
X187486Y151136D01*
X187636Y151110D01*
X187806Y151096D01*
X187996Y151091D01*
Y150091D01*
X187806Y150085D01*
X187636Y150071D01*
X187486Y150046D01*
X187356Y150011D01*
X187246Y149966D01*
X187156Y149910D01*
X187086Y149846D01*
X187036Y149771D01*
X187006Y149686D01*
X186996Y149591D01*
Y151591D01*
X187006Y151496D01*
D02*
G37*
G36*
X196485Y146909D02*
X196287Y147102D01*
X195900Y147427D01*
X195710Y147559D01*
X195522Y147671D01*
X195338Y147763D01*
X195156Y147834D01*
X194976Y147885D01*
X194800Y147915D01*
X194625Y147925D01*
Y148925D01*
X194800Y148935D01*
X194976Y148966D01*
X195156Y149017D01*
X195338Y149088D01*
X195522Y149179D01*
X195710Y149291D01*
X195900Y149423D01*
X196092Y149575D01*
X196287Y149748D01*
X196485Y149941D01*
Y146909D01*
D02*
G37*
G36*
X265524Y148961D02*
X265911Y148635D01*
X266101Y148503D01*
X266289Y148392D01*
X266473Y148300D01*
X266655Y148229D01*
X266835Y148178D01*
X267011Y148148D01*
X267186Y148138D01*
Y147138D01*
X267011Y147128D01*
X266835Y147097D01*
X266655Y147046D01*
X266473Y146975D01*
X266289Y146884D01*
X266101Y146772D01*
X265911Y146640D01*
X265719Y146488D01*
X265524Y146315D01*
X265326Y146122D01*
Y149153D01*
X265524Y148961D01*
D02*
G37*
G36*
X272171Y114305D02*
X272222Y114072D01*
X272307Y113826D01*
X272426Y113569D01*
X272580Y113300D01*
X272767Y113019D01*
X272989Y112726D01*
X273534Y112105D01*
X273858Y111777D01*
X269449D01*
X269773Y112105D01*
X270318Y112726D01*
X270540Y113019D01*
X270727Y113300D01*
X270881Y113569D01*
X271000Y113826D01*
X271085Y114072D01*
X271136Y114305D01*
X271153Y114527D01*
X272153D01*
X272171Y114305D01*
D02*
G37*
G36*
X260360D02*
X260411Y114072D01*
X260496Y113826D01*
X260615Y113569D01*
X260769Y113300D01*
X260956Y113019D01*
X261178Y112726D01*
X261723Y112105D01*
X262047Y111777D01*
X257638D01*
X257962Y112105D01*
X258507Y112726D01*
X258729Y113019D01*
X258916Y113300D01*
X259070Y113569D01*
X259189Y113826D01*
X259274Y114072D01*
X259326Y114305D01*
X259343Y114527D01*
X260343D01*
X260360Y114305D01*
D02*
G37*
G36*
X196267Y112720D02*
X196414Y112606D01*
X196563Y112514D01*
X196713Y112443D01*
X196865Y112392D01*
X197020Y112363D01*
X197175Y112354D01*
X197333Y112366D01*
X197492Y112399D01*
X197653Y112453D01*
X195854Y110590D01*
X195902Y110753D01*
X195930Y110915D01*
X195938Y111075D01*
X195925Y111233D01*
X195891Y111390D01*
X195837Y111545D01*
X195762Y111698D01*
X195667Y111849D01*
X195551Y111999D01*
X195414Y112146D01*
X196121Y112854D01*
X196267Y112720D01*
D02*
G37*
G36*
X272558Y119108D02*
X272474Y119077D01*
X272398Y119026D01*
X272334Y118955D01*
X272278Y118864D01*
X272234Y118753D01*
X272199Y118621D01*
X272174Y118470D01*
X272159Y118298D01*
X272153Y118106D01*
X271153D01*
X271149Y118297D01*
X271135Y118466D01*
X271111Y118616D01*
X271078Y118746D01*
X271036Y118857D01*
X270984Y118947D01*
X270922Y119017D01*
X270851Y119067D01*
X270771Y119097D01*
X270681Y119106D01*
X272654Y119118D01*
X272558Y119108D01*
D02*
G37*
G36*
X196673Y119108D02*
X196588Y119078D01*
X196513Y119027D01*
X196448Y118957D01*
X196393Y118866D01*
X196348Y118754D01*
X196313Y118623D01*
X196288Y118471D01*
X196273Y118299D01*
X196268Y118106D01*
X195268D01*
X195263Y118299D01*
X195248Y118471D01*
X195223Y118623D01*
X195188Y118754D01*
X195143Y118866D01*
X195088Y118957D01*
X195023Y119027D01*
X194948Y119078D01*
X194863Y119108D01*
X194768Y119118D01*
X196768D01*
X196673Y119108D01*
D02*
G37*
G36*
X237579Y119291D02*
X237246Y119260D01*
X236948Y119165D01*
X236685Y119008D01*
X236457Y118787D01*
X236265Y118504D01*
X236107Y118157D01*
X235984Y117748D01*
X235897Y117276D01*
X235844Y116740D01*
X235827Y116142D01*
X232677D01*
X232646Y116740D01*
X232551Y117276D01*
X232394Y117748D01*
X232173Y118157D01*
X231890Y118504D01*
X231543Y118787D01*
X231134Y119008D01*
X230661Y119165D01*
X230126Y119260D01*
X229528Y119291D01*
X234252Y122441D01*
X237579Y119291D01*
D02*
G37*
G36*
X342520Y138779D02*
X342913Y125591D01*
X324918Y104527D01*
X319685Y104527D01*
X317717Y106496D01*
Y114567D01*
X334646Y134843D01*
X334646Y138779D01*
X336614Y140748D01*
X340551D01*
X342520Y138779D01*
D02*
G37*
G36*
X132874Y146653D02*
Y139103D01*
X153240Y124935D01*
X153240Y106980D01*
X150591Y104331D01*
X145669Y104331D01*
X143398Y106602D01*
X143398Y121983D01*
X124697Y134720D01*
X124697Y138715D01*
X124697Y138715D01*
Y146653D01*
X118791Y152559D01*
X110055Y152559D01*
Y154913D01*
X107283D01*
X104512D01*
Y152559D01*
X102362D01*
X102362Y158465D01*
X104331Y160433D01*
X119095Y160433D01*
X132874Y146653D01*
D02*
G37*
G36*
X108930Y114239D02*
X109144Y113377D01*
X109502Y112588D01*
X110002Y111870D01*
X110646Y111224D01*
X111433Y110651D01*
X112362Y110149D01*
X113435Y109719D01*
X114650Y109362D01*
X116009Y109076D01*
X102585Y100562D01*
X105709Y112962D01*
X108858Y115172D01*
X108930Y114239D01*
D02*
G37*
G36*
X164203Y112251D02*
X163969Y112007D01*
X163586Y111539D01*
X163437Y111315D01*
X163316Y111098D01*
X163223Y110887D01*
X163158Y110684D01*
X163122Y110488D01*
X163114Y110298D01*
X163134Y110115D01*
X159514Y112633D01*
X159667Y112669D01*
X159831Y112728D01*
X160005Y112810D01*
X160189Y112914D01*
X160383Y113040D01*
X160588Y113189D01*
X161028Y113555D01*
X161508Y114011D01*
X164203Y112251D01*
D02*
G37*
G36*
X208040Y113555D02*
X208228Y113432D01*
X208454Y113314D01*
X208718Y113202D01*
X209020Y113095D01*
X209738Y112898D01*
X210154Y112807D01*
X211100Y112642D01*
X207526Y110060D01*
X207589Y110485D01*
X207643Y111255D01*
X207633Y111599D01*
X207599Y111916D01*
X207541Y112206D01*
X207459Y112468D01*
X207353Y112703D01*
X207222Y112911D01*
X207067Y113092D01*
X207890Y113683D01*
X208040Y113555D01*
D02*
G37*
G36*
X262995Y109035D02*
X263049Y108210D01*
X263099Y107846D01*
X263165Y107515D01*
X263247Y107216D01*
X263344Y106950D01*
X263457Y106716D01*
X263586Y106515D01*
X263731Y106346D01*
X263024Y105639D01*
X262855Y105784D01*
X262654Y105913D01*
X262420Y106026D01*
X262154Y106123D01*
X261855Y106205D01*
X261524Y106271D01*
X261160Y106322D01*
X260335Y106375D01*
X259874Y106378D01*
X262992Y109496D01*
X262995Y109035D01*
D02*
G37*
G36*
X206810Y119108D02*
X206726Y119078D01*
X206650Y119027D01*
X206586Y118957D01*
X206530Y118866D01*
X206486Y118754D01*
X206451Y118623D01*
X206425Y118471D01*
X206411Y118299D01*
X206405Y118106D01*
X205405D01*
X205400Y118299D01*
X205385Y118471D01*
X205361Y118623D01*
X205326Y118754D01*
X205280Y118866D01*
X205225Y118957D01*
X205160Y119027D01*
X205085Y119078D01*
X205000Y119108D01*
X204906Y119118D01*
X206906D01*
X206810Y119108D01*
D02*
G37*
G36*
X297588Y120201D02*
X297524Y120270D01*
X297443Y120307D01*
X297345Y120313D01*
X297230Y120288D01*
X297097Y120232D01*
X296947Y120144D01*
X296779Y120026D01*
X296595Y119876D01*
X296173Y119482D01*
X295762Y120484D01*
X295948Y120677D01*
X296244Y121029D01*
X296354Y121188D01*
X296438Y121335D01*
X296497Y121470D01*
X296531Y121595D01*
X296540Y121707D01*
X296523Y121809D01*
X296481Y121899D01*
X297588Y120201D01*
D02*
G37*
G36*
X252189Y119866D02*
X252179Y119961D01*
X252149Y120046D01*
X252098Y120121D01*
X252027Y120186D01*
X251936Y120241D01*
X251825Y120286D01*
X251694Y120321D01*
X251542Y120346D01*
X251370Y120361D01*
X251177Y120366D01*
Y121366D01*
X251370Y121371D01*
X251542Y121386D01*
X251694Y121411D01*
X251825Y121446D01*
X251936Y121491D01*
X252027Y121546D01*
X252098Y121611D01*
X252149Y121686D01*
X252179Y121771D01*
X252189Y121866D01*
Y119866D01*
D02*
G37*
G36*
X245439Y121771D02*
X245469Y121686D01*
X245520Y121611D01*
X245591Y121546D01*
X245682Y121491D01*
X245793Y121446D01*
X245925Y121411D01*
X246076Y121386D01*
X246249Y121371D01*
X246441Y121366D01*
Y120366D01*
X246249Y120361D01*
X246076Y120346D01*
X245925Y120321D01*
X245793Y120286D01*
X245682Y120241D01*
X245591Y120186D01*
X245520Y120121D01*
X245469Y120046D01*
X245439Y119961D01*
X245429Y119866D01*
Y121866D01*
X245439Y121771D01*
D02*
G37*
G36*
X298536Y124713D02*
X298552Y124541D01*
X298576Y124389D01*
X298611Y124258D01*
X298657Y124146D01*
X298711Y124055D01*
X298777Y123984D01*
X298851Y123934D01*
X298937Y123903D01*
X299031Y123893D01*
X297031D01*
X297127Y123903D01*
X297212Y123934D01*
X297287Y123984D01*
X297352Y124055D01*
X297407Y124146D01*
X297451Y124258D01*
X297486Y124389D01*
X297512Y124541D01*
X297527Y124713D01*
X297532Y124905D01*
X298532D01*
X298536Y124713D01*
D02*
G37*
G36*
X305026Y123610D02*
X304841Y123418D01*
X304548Y123068D01*
X304439Y122910D01*
X304356Y122763D01*
X304298Y122627D01*
X304265Y122503D01*
X304257Y122389D01*
X304275Y122287D01*
X304319Y122196D01*
X303200Y123905D01*
X303264Y123836D01*
X303346Y123797D01*
X303445Y123790D01*
X303560Y123813D01*
X303693Y123868D01*
X303843Y123955D01*
X304010Y124072D01*
X304194Y124221D01*
X304614Y124612D01*
X305026Y123610D01*
D02*
G37*
G36*
X271264Y123151D02*
X271609Y122861D01*
X271766Y122753D01*
X271913Y122669D01*
X272049Y122609D01*
X272175Y122573D01*
X272290Y122563D01*
X272395Y122576D01*
X272489Y122614D01*
X270693Y121605D01*
X270766Y121664D01*
X270807Y121742D01*
X270815Y121837D01*
X270792Y121951D01*
X270736Y122084D01*
X270648Y122234D01*
X270528Y122403D01*
X270375Y122590D01*
X269974Y123020D01*
X271075Y123333D01*
X271264Y123151D01*
D02*
G37*
G36*
X182270Y121771D02*
X182300Y121686D01*
X182351Y121611D01*
X182421Y121546D01*
X182512Y121491D01*
X182624Y121446D01*
X182755Y121411D01*
X182907Y121386D01*
X183079Y121371D01*
X183272Y121366D01*
Y120366D01*
X183079Y120361D01*
X182907Y120346D01*
X182755Y120321D01*
X182624Y120286D01*
X182512Y120241D01*
X182421Y120186D01*
X182351Y120121D01*
X182300Y120046D01*
X182270Y119961D01*
X182260Y119866D01*
Y121866D01*
X182270Y121771D01*
D02*
G37*
G36*
X240812Y122429D02*
X240494Y122097D01*
X239960Y121446D01*
X239743Y121127D01*
X239559Y120812D01*
X239409Y120502D01*
X239292Y120196D01*
X239208Y119894D01*
X239158Y119597D01*
X239142Y119303D01*
X236016Y122429D01*
X236309Y122446D01*
X236607Y122496D01*
X236909Y122579D01*
X237215Y122696D01*
X237525Y122846D01*
X237840Y123030D01*
X238159Y123247D01*
X238482Y123498D01*
X238810Y123782D01*
X239142Y124099D01*
X240812Y122429D01*
D02*
G37*
G36*
X260748Y119108D02*
X260663Y119078D01*
X260588Y119027D01*
X260523Y118957D01*
X260468Y118866D01*
X260422Y118754D01*
X260387Y118623D01*
X260363Y118471D01*
X260348Y118299D01*
X260343Y118106D01*
X259343D01*
X259337Y118299D01*
X259323Y118471D01*
X259297Y118623D01*
X259262Y118754D01*
X259218Y118866D01*
X259162Y118957D01*
X259098Y119027D01*
X259022Y119078D01*
X258938Y119108D01*
X258842Y119118D01*
X260842D01*
X260748Y119108D01*
D02*
G37*
G36*
X219296Y119866D02*
X219285Y119961D01*
X219255Y120046D01*
X219205Y120121D01*
X219134Y120186D01*
X219043Y120241D01*
X218931Y120286D01*
X218800Y120321D01*
X218648Y120346D01*
X218476Y120361D01*
X218284Y120366D01*
Y121366D01*
X218476Y121371D01*
X218648Y121386D01*
X218800Y121411D01*
X218931Y121446D01*
X219043Y121491D01*
X219134Y121546D01*
X219205Y121611D01*
X219255Y121686D01*
X219285Y121771D01*
X219296Y121866D01*
Y119866D01*
D02*
G37*
G36*
X213470Y121771D02*
X213501Y121686D01*
X213551Y121611D01*
X213622Y121546D01*
X213713Y121491D01*
X213825Y121446D01*
X213956Y121411D01*
X214108Y121386D01*
X214280Y121371D01*
X214472Y121366D01*
Y120366D01*
X214280Y120361D01*
X214108Y120346D01*
X213956Y120321D01*
X213825Y120286D01*
X213713Y120241D01*
X213622Y120186D01*
X213551Y120121D01*
X213501Y120046D01*
X213470Y119961D01*
X213460Y119866D01*
Y121866D01*
X213470Y121771D01*
D02*
G37*
G36*
X188213Y119866D02*
X188203Y119961D01*
X188172Y120046D01*
X188122Y120121D01*
X188051Y120186D01*
X187960Y120241D01*
X187849Y120286D01*
X187717Y120321D01*
X187565Y120346D01*
X187393Y120361D01*
X187201Y120366D01*
Y121366D01*
X187393Y121371D01*
X187565Y121386D01*
X187717Y121411D01*
X187849Y121446D01*
X187960Y121491D01*
X188051Y121546D01*
X188122Y121611D01*
X188172Y121686D01*
X188203Y121771D01*
X188213Y121866D01*
Y119866D01*
D02*
G37*
G36*
X277378Y194704D02*
X277409Y194619D01*
X277459Y194544D01*
X277530Y194479D01*
X277621Y194424D01*
X277732Y194379D01*
X277864Y194344D01*
X278016Y194319D01*
X278188Y194304D01*
X278380Y194299D01*
Y193299D01*
X278188Y193294D01*
X278016Y193279D01*
X277864Y193254D01*
X277732Y193219D01*
X277621Y193174D01*
X277530Y193119D01*
X277459Y193054D01*
X277409Y192979D01*
X277378Y192894D01*
X277368Y192799D01*
Y194799D01*
X277378Y194704D01*
D02*
G37*
G36*
X260034Y192799D02*
X260023Y192894D01*
X259993Y192979D01*
X259943Y193054D01*
X259872Y193119D01*
X259781Y193174D01*
X259669Y193219D01*
X259538Y193254D01*
X259386Y193279D01*
X259214Y193294D01*
X259022Y193299D01*
Y194299D01*
X259214Y194304D01*
X259386Y194319D01*
X259538Y194344D01*
X259669Y194379D01*
X259781Y194424D01*
X259872Y194479D01*
X259943Y194544D01*
X259993Y194619D01*
X260023Y194704D01*
X260034Y194799D01*
Y192799D01*
D02*
G37*
G36*
X240727Y192554D02*
X240654Y192614D01*
X240569Y192646D01*
X240470Y192651D01*
X240357Y192629D01*
X240231Y192579D01*
X240092Y192502D01*
X239939Y192398D01*
X239772Y192266D01*
X239593Y192107D01*
X239399Y191921D01*
X238733Y192668D01*
X238919Y192862D01*
X239213Y193211D01*
X239320Y193366D01*
X239400Y193509D01*
X239454Y193640D01*
X239481Y193757D01*
X239482Y193862D01*
X239456Y193955D01*
X239404Y194034D01*
X240727Y192554D01*
D02*
G37*
G36*
X186809Y194803D02*
X186839Y194718D01*
X186889Y194643D01*
X186959Y194578D01*
X187049Y194523D01*
X187159Y194478D01*
X187289Y194443D01*
X187439Y194418D01*
X187609Y194403D01*
X187799Y194398D01*
Y193398D01*
X187609Y193393D01*
X187439Y193378D01*
X187289Y193353D01*
X187159Y193318D01*
X187049Y193273D01*
X186959Y193218D01*
X186889Y193153D01*
X186839Y193078D01*
X186809Y192993D01*
X186799Y192898D01*
Y194898D01*
X186809Y194803D01*
D02*
G37*
G36*
X224404Y194669D02*
X224394Y194764D01*
X224363Y194849D01*
X224313Y194924D01*
X224242Y194989D01*
X224151Y195044D01*
X224039Y195089D01*
X223908Y195124D01*
X223756Y195149D01*
X223584Y195164D01*
X223392Y195169D01*
Y196169D01*
X223584Y196174D01*
X223756Y196189D01*
X223908Y196214D01*
X224039Y196249D01*
X224151Y196294D01*
X224242Y196349D01*
X224313Y196414D01*
X224363Y196489D01*
X224394Y196574D01*
X224404Y196669D01*
Y194669D01*
D02*
G37*
G36*
X220642Y196992D02*
X221030Y196667D01*
X221219Y196535D01*
X221407Y196423D01*
X221591Y196332D01*
X221773Y196261D01*
X221953Y196210D01*
X222130Y196179D01*
X222304Y196169D01*
Y195169D01*
X222130Y195159D01*
X221953Y195129D01*
X221773Y195078D01*
X221591Y195007D01*
X221407Y194915D01*
X221219Y194804D01*
X221030Y194672D01*
X220837Y194519D01*
X220642Y194346D01*
X220444Y194153D01*
Y197185D01*
X220642Y196992D01*
D02*
G37*
G36*
X340102Y194909D02*
X339777Y194522D01*
X339645Y194332D01*
X339533Y194144D01*
X339442Y193960D01*
X339371Y193778D01*
X339320Y193598D01*
X339290Y193422D01*
X339280Y193247D01*
X338280D01*
X338269Y193422D01*
X338239Y193598D01*
X338188Y193778D01*
X338117Y193960D01*
X338026Y194144D01*
X337914Y194332D01*
X337782Y194522D01*
X337629Y194714D01*
X337457Y194909D01*
X337264Y195107D01*
X340295D01*
X340102Y194909D01*
D02*
G37*
G36*
X211390Y189118D02*
X211778Y188793D01*
X211967Y188661D01*
X212155Y188549D01*
X212339Y188458D01*
X212522Y188387D01*
X212701Y188336D01*
X212878Y188305D01*
X213052Y188295D01*
Y187295D01*
X212878Y187285D01*
X212701Y187255D01*
X212522Y187204D01*
X212339Y187133D01*
X212155Y187041D01*
X211967Y186930D01*
X211778Y186798D01*
X211585Y186645D01*
X211390Y186472D01*
X211192Y186279D01*
Y189311D01*
X211390Y189118D01*
D02*
G37*
G36*
X266179Y178150D02*
X266081Y178142D01*
X265975Y178116D01*
X265861Y178073D01*
X265739Y178013D01*
X265609Y177934D01*
X265470Y177838D01*
X265323Y177725D01*
X265005Y177444D01*
X264834Y177278D01*
X263164Y178948D01*
X263330Y179119D01*
X263724Y179584D01*
X263820Y179723D01*
X263898Y179853D01*
X263959Y179975D01*
X264002Y180090D01*
X264028Y180195D01*
X264036Y180293D01*
X266179Y178150D01*
D02*
G37*
G36*
X182102Y178915D02*
X182150Y178377D01*
X182228Y177903D01*
X182339Y177492D01*
X182480Y177144D01*
X182653Y176860D01*
X182858Y176638D01*
X183095Y176480D01*
X183362Y176386D01*
X183661Y176354D01*
X177362D01*
X177661Y176386D01*
X177929Y176480D01*
X178165Y176638D01*
X178370Y176860D01*
X178543Y177144D01*
X178685Y177492D01*
X178795Y177903D01*
X178874Y178377D01*
X178921Y178915D01*
X178937Y179516D01*
X182087D01*
X182102Y178915D01*
D02*
G37*
G36*
X236075Y177392D02*
X236108Y176959D01*
X236138Y176783D01*
X236175Y176634D01*
X236221Y176512D01*
X236276Y176417D01*
X236338Y176350D01*
X236409Y176309D01*
X236489Y176295D01*
X234653D01*
X234733Y176309D01*
X234804Y176350D01*
X234866Y176417D01*
X234921Y176512D01*
X234966Y176634D01*
X235004Y176783D01*
X235033Y176959D01*
X235054Y177162D01*
X235071Y177649D01*
X236071D01*
X236075Y177392D01*
D02*
G37*
G36*
X268374Y180195D02*
X268399Y180090D01*
X268443Y179975D01*
X268503Y179853D01*
X268582Y179723D01*
X268678Y179584D01*
X268791Y179437D01*
X269071Y179119D01*
X269238Y178948D01*
X267568Y177278D01*
X267396Y177444D01*
X266932Y177838D01*
X266793Y177934D01*
X266663Y178013D01*
X266540Y178073D01*
X266426Y178116D01*
X266320Y178142D01*
X266222Y178150D01*
X268366Y180293D01*
X268374Y180195D01*
D02*
G37*
G36*
X256665Y188331D02*
X257053Y188006D01*
X257243Y187873D01*
X257430Y187762D01*
X257615Y187670D01*
X257797Y187599D01*
X257976Y187548D01*
X258153Y187518D01*
X258327Y187508D01*
Y186508D01*
X258153Y186498D01*
X257976Y186467D01*
X257797Y186416D01*
X257615Y186345D01*
X257430Y186254D01*
X257243Y186142D01*
X257053Y186010D01*
X256861Y185858D01*
X256665Y185685D01*
X256468Y185492D01*
Y188524D01*
X256665Y188331D01*
D02*
G37*
G36*
X209624Y185630D02*
X209348Y185627D01*
X208844Y185582D01*
X208616Y185541D01*
X208405Y185488D01*
X208209Y185422D01*
X208030Y185344D01*
X207868Y185253D01*
X207721Y185149D01*
X207591Y185033D01*
X206884Y185740D01*
X207000Y185871D01*
X207103Y186017D01*
X207194Y186180D01*
X207272Y186359D01*
X207338Y186554D01*
X207392Y186766D01*
X207433Y186993D01*
X207461Y187237D01*
X207477Y187497D01*
X207480Y187774D01*
X209624Y185630D01*
D02*
G37*
G36*
X254900Y184843D02*
X254623Y184839D01*
X254119Y184795D01*
X253892Y184754D01*
X253680Y184701D01*
X253485Y184635D01*
X253306Y184556D01*
X253143Y184465D01*
X252997Y184362D01*
X252866Y184246D01*
X252159Y184953D01*
X252275Y185083D01*
X252379Y185230D01*
X252470Y185393D01*
X252548Y185572D01*
X252614Y185767D01*
X252667Y185978D01*
X252708Y186206D01*
X252737Y186450D01*
X252753Y186710D01*
X252756Y186986D01*
X254900Y184843D01*
D02*
G37*
G36*
X188595Y260937D02*
X188563Y260991D01*
X188469Y261039D01*
X188311Y261082D01*
X188091Y261119D01*
X187807Y261150D01*
X186579Y261209D01*
X185445Y261221D01*
Y264370D01*
X186044Y264373D01*
X188311Y264509D01*
X188469Y264551D01*
X188563Y264599D01*
X188595Y264653D01*
Y260937D01*
D02*
G37*
G36*
X287725Y264419D02*
X287788Y264129D01*
X287892Y263825D01*
X288039Y263506D01*
X288227Y263171D01*
X288456Y262821D01*
X288728Y262457D01*
X289396Y261682D01*
X289792Y261272D01*
X288000Y258889D01*
X287590Y259285D01*
X286815Y259953D01*
X286450Y260225D01*
X286101Y260455D01*
X285766Y260643D01*
X285447Y260789D01*
X285142Y260893D01*
X284853Y260956D01*
X284579Y260977D01*
X287704Y264693D01*
X287725Y264419D01*
D02*
G37*
G36*
X165961Y244673D02*
X165208Y243892D01*
X164018Y242480D01*
X163582Y241849D01*
X163251Y241267D01*
X163025Y240735D01*
X162905Y240253D01*
X162890Y239821D01*
X162981Y239438D01*
X163177Y239105D01*
X158200Y245264D01*
X158479Y245014D01*
X158821Y244882D01*
X159223Y244867D01*
X159688Y244970D01*
X160214Y245190D01*
X160801Y245527D01*
X161451Y245981D01*
X162161Y246553D01*
X163768Y248047D01*
X165961Y244673D01*
D02*
G37*
G36*
X196476Y264599D02*
X196571Y264551D01*
X196728Y264509D01*
X196949Y264472D01*
X197232Y264441D01*
X198460Y264381D01*
X199594Y264370D01*
Y261221D01*
X198996Y261218D01*
X196728Y261082D01*
X196571Y261039D01*
X196476Y260991D01*
X196445Y260937D01*
Y264653D01*
X196476Y264599D01*
D02*
G37*
G36*
X279854Y260977D02*
X279823Y261030D01*
X279729Y261079D01*
X279571Y261121D01*
X279351Y261158D01*
X279067Y261189D01*
X277839Y261248D01*
X276705Y261260D01*
Y264409D01*
X277303Y264412D01*
X279571Y264548D01*
X279729Y264591D01*
X279823Y264639D01*
X279854Y264693D01*
Y260977D01*
D02*
G37*
G36*
X244724Y264639D02*
X244819Y264591D01*
X244976Y264548D01*
X245197Y264511D01*
X245480Y264480D01*
X246708Y264421D01*
X247842Y264409D01*
Y261260D01*
X247244Y261257D01*
X244976Y261121D01*
X244819Y261079D01*
X244724Y261030D01*
X244693Y260977D01*
Y264693D01*
X244724Y264639D01*
D02*
G37*
G36*
X236843Y260977D02*
X236811Y261030D01*
X236717Y261079D01*
X236559Y261121D01*
X236339Y261158D01*
X236055Y261189D01*
X234827Y261248D01*
X233693Y261260D01*
Y264409D01*
X234292Y264412D01*
X236559Y264548D01*
X236717Y264591D01*
X236811Y264639D01*
X236843Y264693D01*
Y260977D01*
D02*
G37*
G36*
X142371Y237032D02*
X142286Y237078D01*
X142188Y237099D01*
X142077Y237093D01*
X141955Y237060D01*
X141819Y237001D01*
X141672Y236916D01*
X141512Y236805D01*
X141339Y236667D01*
X140957Y236313D01*
X140053Y236823D01*
X140261Y237038D01*
X140586Y237419D01*
X140703Y237585D01*
X140790Y237734D01*
X140847Y237867D01*
X140874Y237984D01*
X140870Y238085D01*
X140836Y238169D01*
X140772Y238237D01*
X142371Y237032D01*
D02*
G37*
G36*
X129634Y219610D02*
X129643Y219450D01*
X129669Y219280D01*
X129713Y219101D01*
X129774Y218913D01*
X129853Y218715D01*
X129950Y218508D01*
X130196Y218064D01*
X130345Y217829D01*
X130512Y217584D01*
X127531Y218135D01*
X127740Y218285D01*
X127928Y218439D01*
X128093Y218597D01*
X128237Y218758D01*
X128358Y218922D01*
X128457Y219091D01*
X128535Y219263D01*
X128590Y219439D01*
X128623Y219618D01*
X128634Y219800D01*
X129634Y219610D01*
D02*
G37*
G36*
X185630Y214370D02*
X184957Y214339D01*
X184354Y214244D01*
X183823Y214087D01*
X183362Y213866D01*
X182973Y213583D01*
X182653Y213236D01*
X182405Y212827D01*
X182228Y212354D01*
X182122Y211819D01*
X182087Y211221D01*
X178937D01*
X178898Y211819D01*
X178779Y212354D01*
X178583Y212827D01*
X178307Y213236D01*
X177953Y213583D01*
X177520Y213866D01*
X177008Y214087D01*
X176417Y214244D01*
X175748Y214339D01*
X175000Y214370D01*
X180512Y218307D01*
X185630Y214370D01*
D02*
G37*
G36*
X275135Y197036D02*
X275472Y196754D01*
X275621Y196654D01*
X275755Y196582D01*
X275876Y196538D01*
X275982Y196521D01*
X276076Y196532D01*
X276155Y196571D01*
X276220Y196637D01*
X275034Y195021D01*
X275080Y195107D01*
X275100Y195204D01*
X275095Y195314D01*
X275065Y195435D01*
X275008Y195567D01*
X274927Y195712D01*
X274819Y195868D01*
X274687Y196035D01*
X274528Y196214D01*
X274344Y196405D01*
X274946Y197218D01*
X275135Y197036D01*
D02*
G37*
G36*
X309762Y219570D02*
X309793Y219394D01*
X309843Y219214D01*
X309914Y219032D01*
X310006Y218848D01*
X310118Y218660D01*
X310250Y218471D01*
X310402Y218278D01*
X310575Y218083D01*
X310768Y217885D01*
X307736D01*
X307929Y218083D01*
X308254Y218471D01*
X308386Y218660D01*
X308498Y218848D01*
X308589Y219032D01*
X308661Y219214D01*
X308711Y219394D01*
X308742Y219570D01*
X308752Y219745D01*
X309752D01*
X309762Y219570D01*
D02*
G37*
G36*
X310157Y237022D02*
X310072Y236991D01*
X309997Y236941D01*
X309932Y236870D01*
X309877Y236779D01*
X309832Y236667D01*
X309797Y236536D01*
X309772Y236384D01*
X309757Y236212D01*
X309752Y236020D01*
X308752D01*
X308747Y236212D01*
X308732Y236384D01*
X308707Y236536D01*
X308672Y236667D01*
X308627Y236779D01*
X308572Y236870D01*
X308507Y236941D01*
X308432Y236991D01*
X308347Y237022D01*
X308252Y237032D01*
X310252D01*
X310157Y237022D01*
D02*
G37*
G36*
X330231Y241530D02*
X330093Y241197D01*
X330075Y240799D01*
X330176Y240338D01*
X330396Y239813D01*
X330735Y239225D01*
X331193Y238572D01*
X331771Y237856D01*
X333284Y236232D01*
X329712Y234236D01*
X328939Y234981D01*
X327537Y236161D01*
X326909Y236596D01*
X326328Y236928D01*
X325795Y237156D01*
X325310Y237280D01*
X324874Y237301D01*
X324485Y237218D01*
X324145Y237032D01*
X330488Y241800D01*
X330231Y241530D01*
D02*
G37*
G36*
X162028Y236992D02*
X161693Y236874D01*
X161398Y236677D01*
X161142Y236400D01*
X160925Y236045D01*
X160748Y235610D01*
X160610Y235097D01*
X160512Y234505D01*
X160453Y233833D01*
X160433Y233083D01*
X156496D01*
X156476Y233833D01*
X156417Y234505D01*
X156319Y235097D01*
X156181Y235610D01*
X156004Y236045D01*
X155787Y236400D01*
X155532Y236677D01*
X155236Y236874D01*
X154902Y236992D01*
X154528Y237032D01*
X162402D01*
X162028Y236992D01*
D02*
G37*
G36*
X277098Y170045D02*
X277015Y170001D01*
X276941Y169929D01*
X276877Y169828D01*
X276823Y169697D01*
X276779Y169538D01*
X276745Y169350D01*
X276720Y169132D01*
X276713Y169003D01*
X276743Y168832D01*
X276796Y168654D01*
X276871Y168476D01*
X276966Y168298D01*
X277083Y168121D01*
X277221Y167944D01*
X277380Y167766D01*
X277560Y167590D01*
X277762Y167413D01*
X274741Y167165D01*
X274923Y167384D01*
X275230Y167806D01*
X275355Y168008D01*
X275461Y168204D01*
X275547Y168395D01*
X275614Y168581D01*
X275662Y168761D01*
X275691Y168935D01*
X275691Y168939D01*
X275657Y169350D01*
X275622Y169538D01*
X275578Y169697D01*
X275524Y169828D01*
X275460Y169929D01*
X275387Y170001D01*
X275304Y170045D01*
X275210Y170059D01*
X277191D01*
X277098Y170045D01*
D02*
G37*
G36*
X290045Y168622D02*
X290075Y168536D01*
X290126Y168462D01*
X290197Y168396D01*
X290288Y168342D01*
X290399Y168297D01*
X290531Y168262D01*
X290683Y168236D01*
X290855Y168221D01*
X291047Y168217D01*
Y167217D01*
X290855Y167211D01*
X290683Y167197D01*
X290531Y167172D01*
X290399Y167137D01*
X290288Y167092D01*
X290197Y167036D01*
X290126Y166972D01*
X290075Y166896D01*
X290045Y166812D01*
X290035Y166717D01*
Y168717D01*
X290045Y168622D01*
D02*
G37*
G36*
X241268Y167717D02*
X240268Y166217D01*
X240258Y166407D01*
X240228Y166577D01*
X240178Y166727D01*
X240108Y166857D01*
X240018Y166966D01*
X239908Y167057D01*
X239778Y167127D01*
X239628Y167176D01*
X239458Y167207D01*
X239268Y167217D01*
Y168217D01*
X239458Y168227D01*
X239628Y168256D01*
X239778Y168307D01*
X239908Y168377D01*
X240018Y168466D01*
X240108Y168577D01*
X240178Y168707D01*
X240228Y168857D01*
X240258Y169027D01*
X240268Y169217D01*
X241268Y167717D01*
D02*
G37*
G36*
X267039Y169951D02*
X266968Y169910D01*
X266905Y169843D01*
X266851Y169748D01*
X266805Y169626D01*
X266768Y169477D01*
X266738Y169301D01*
X266718Y169098D01*
X266701Y168611D01*
X265701D01*
X265697Y168868D01*
X265663Y169301D01*
X265634Y169477D01*
X265596Y169626D01*
X265550Y169748D01*
X265496Y169843D01*
X265434Y169910D01*
X265363Y169951D01*
X265283Y169964D01*
X267118D01*
X267039Y169951D01*
D02*
G37*
G36*
X226468Y171620D02*
X226385Y171576D01*
X226311Y171504D01*
X226247Y171402D01*
X226193Y171272D01*
X226149Y171113D01*
X226115Y170924D01*
X226091Y170707D01*
X226076Y170461D01*
X226071Y170186D01*
X225071D01*
X225066Y170461D01*
X225027Y170924D01*
X224992Y171113D01*
X224948Y171272D01*
X224894Y171402D01*
X224831Y171504D01*
X224757Y171576D01*
X224674Y171620D01*
X224580Y171634D01*
X226561D01*
X226468Y171620D01*
D02*
G37*
G36*
X241530Y171565D02*
X241475Y171465D01*
X241427Y171355D01*
X241385Y171236D01*
X241349Y171106D01*
X241320Y170966D01*
X241297Y170816D01*
X241271Y170485D01*
X241268Y170305D01*
X240268Y170105D01*
X240263Y170363D01*
X240223Y170793D01*
X240189Y170965D01*
X240144Y171108D01*
X240090Y171223D01*
X240026Y171309D01*
X239952Y171367D01*
X239869Y171396D01*
X239775Y171396D01*
X241592Y171654D01*
X241530Y171565D01*
D02*
G37*
G36*
X231530D02*
X231475Y171465D01*
X231427Y171355D01*
X231384Y171236D01*
X231349Y171106D01*
X231320Y170966D01*
X231297Y170816D01*
X231271Y170485D01*
X231268Y170305D01*
X230268Y170105D01*
X230263Y170363D01*
X230223Y170793D01*
X230189Y170965D01*
X230145Y171108D01*
X230090Y171223D01*
X230026Y171309D01*
X229952Y171367D01*
X229869Y171396D01*
X229775Y171396D01*
X231592Y171654D01*
X231530Y171565D01*
D02*
G37*
G36*
X246485Y160886D02*
X246287Y161079D01*
X245900Y161404D01*
X245710Y161536D01*
X245522Y161648D01*
X245338Y161739D01*
X245156Y161810D01*
X244976Y161861D01*
X244800Y161891D01*
X244625Y161902D01*
Y162902D01*
X244800Y162912D01*
X244976Y162942D01*
X245156Y162993D01*
X245338Y163064D01*
X245522Y163155D01*
X245710Y163267D01*
X245900Y163399D01*
X246092Y163552D01*
X246287Y163724D01*
X246485Y163917D01*
Y160886D01*
D02*
G37*
G36*
X256399Y158054D02*
X256214Y157862D01*
X255922Y157514D01*
X255814Y157358D01*
X255733Y157214D01*
X255677Y157082D01*
X255648Y156962D01*
X255644Y156854D01*
X255666Y156758D01*
X255714Y156674D01*
X254482Y158245D01*
X254550Y158181D01*
X254631Y158145D01*
X254727Y158136D01*
X254835Y158154D01*
X254958Y158200D01*
X255094Y158274D01*
X255243Y158375D01*
X255407Y158504D01*
X255584Y158660D01*
X255774Y158844D01*
X256399Y158054D01*
D02*
G37*
G36*
X270560Y158699D02*
X270592Y158170D01*
X270603Y158133D01*
X270614Y158111D01*
X270627Y158104D01*
X269491D01*
X269504Y158111D01*
X269515Y158133D01*
X269526Y158170D01*
X269534Y158221D01*
X269542Y158287D01*
X269556Y158574D01*
X269559Y158839D01*
X270559D01*
X270560Y158699D01*
D02*
G37*
G36*
X219296Y162386D02*
X219285Y162481D01*
X219255Y162566D01*
X219205Y162641D01*
X219134Y162706D01*
X219043Y162761D01*
X218931Y162806D01*
X218800Y162841D01*
X218648Y162866D01*
X218476Y162881D01*
X218284Y162886D01*
Y163886D01*
X218476Y163891D01*
X218648Y163906D01*
X218800Y163931D01*
X218931Y163966D01*
X219043Y164011D01*
X219134Y164066D01*
X219205Y164131D01*
X219255Y164206D01*
X219285Y164291D01*
X219296Y164386D01*
Y162386D01*
D02*
G37*
G36*
X287470Y166166D02*
X287405Y166233D01*
X287324Y166270D01*
X287225Y166276D01*
X287109Y166250D01*
X286976Y166194D01*
X286826Y166106D01*
X286659Y165988D01*
X286475Y165839D01*
X286055Y165447D01*
X285624Y166429D01*
X285811Y166623D01*
X286108Y166976D01*
X286218Y167135D01*
X286303Y167282D01*
X286362Y167418D01*
X286396Y167542D01*
X286403Y167654D01*
X286386Y167754D01*
X286343Y167843D01*
X287470Y166166D01*
D02*
G37*
G36*
X226076Y166052D02*
X226091Y165880D01*
X226116Y165728D01*
X226151Y165596D01*
X226196Y165485D01*
X226251Y165394D01*
X226316Y165323D01*
X226391Y165272D01*
X226476Y165242D01*
X226571Y165232D01*
X224571D01*
X224666Y165242D01*
X224751Y165272D01*
X224826Y165323D01*
X224891Y165394D01*
X224946Y165485D01*
X224991Y165596D01*
X225026Y165728D01*
X225051Y165880D01*
X225066Y166052D01*
X225071Y166244D01*
X226071D01*
X226076Y166052D01*
D02*
G37*
G36*
X183362Y168103D02*
X183095Y168008D01*
X182858Y167850D01*
X182653Y167628D01*
X182480Y167344D01*
X182339Y166996D01*
X182228Y166585D01*
X182150Y166111D01*
X182102Y165573D01*
X182087Y164973D01*
X178937D01*
X178921Y165573D01*
X178874Y166111D01*
X178795Y166585D01*
X178685Y166996D01*
X178543Y167344D01*
X178370Y167628D01*
X178165Y167850D01*
X177929Y168008D01*
X177661Y168103D01*
X177362Y168134D01*
X183661D01*
X183362Y168103D01*
D02*
G37*
G36*
X215524Y175240D02*
X215911Y174915D01*
X216101Y174783D01*
X216289Y174671D01*
X216473Y174580D01*
X216655Y174509D01*
X216835Y174458D01*
X217011Y174427D01*
X217186Y174417D01*
Y173417D01*
X217011Y173407D01*
X216835Y173377D01*
X216655Y173326D01*
X216473Y173255D01*
X216289Y173163D01*
X216101Y173052D01*
X215911Y172920D01*
X215719Y172767D01*
X215524Y172595D01*
X215326Y172402D01*
Y175433D01*
X215524Y175240D01*
D02*
G37*
G36*
X286343Y171343D02*
X286333Y171438D01*
X286302Y171522D01*
X286252Y171598D01*
X286181Y171662D01*
X286090Y171718D01*
X285979Y171763D01*
X285847Y171798D01*
X285695Y171823D01*
X285523Y171837D01*
X285331Y171843D01*
Y172843D01*
X285523Y172847D01*
X285695Y172863D01*
X285847Y172888D01*
X285979Y172923D01*
X286090Y172968D01*
X286181Y173022D01*
X286252Y173088D01*
X286302Y173162D01*
X286333Y173248D01*
X286343Y173343D01*
Y171343D01*
D02*
G37*
G36*
X224404Y172917D02*
X224394Y173012D01*
X224363Y173097D01*
X224313Y173172D01*
X224242Y173237D01*
X224151Y173292D01*
X224039Y173337D01*
X223908Y173372D01*
X223756Y173397D01*
X223584Y173412D01*
X223392Y173417D01*
Y174417D01*
X223584Y174422D01*
X223756Y174437D01*
X223908Y174462D01*
X224039Y174497D01*
X224151Y174542D01*
X224242Y174597D01*
X224313Y174662D01*
X224363Y174737D01*
X224394Y174822D01*
X224404Y174917D01*
Y172917D01*
D02*
G37*
G36*
X198727Y176169D02*
X198536Y175972D01*
X198234Y175614D01*
X198123Y175454D01*
X198038Y175307D01*
X197979Y175171D01*
X197947Y175049D01*
X197941Y174938D01*
X197961Y174840D01*
X198008Y174755D01*
X196802Y176354D01*
X196870Y176290D01*
X196954Y176256D01*
X197055Y176252D01*
X197172Y176279D01*
X197305Y176336D01*
X197455Y176423D01*
X197621Y176540D01*
X197803Y176687D01*
X198216Y177073D01*
X198727Y176169D01*
D02*
G37*
G36*
X226076Y177374D02*
X226115Y176910D01*
X226149Y176722D01*
X226193Y176563D01*
X226247Y176432D01*
X226311Y176331D01*
X226385Y176258D01*
X226468Y176215D01*
X226561Y176200D01*
X224580D01*
X224674Y176215D01*
X224757Y176258D01*
X224831Y176331D01*
X224894Y176432D01*
X224948Y176563D01*
X224992Y176722D01*
X225027Y176910D01*
X225051Y177127D01*
X225066Y177374D01*
X225071Y177649D01*
X226071D01*
X226076Y177374D01*
D02*
G37*
G36*
X277378Y173248D02*
X277409Y173162D01*
X277459Y173088D01*
X277530Y173022D01*
X277621Y172968D01*
X277732Y172923D01*
X277864Y172888D01*
X278016Y172863D01*
X278188Y172847D01*
X278380Y172843D01*
Y171843D01*
X278188Y171837D01*
X278016Y171823D01*
X277864Y171798D01*
X277732Y171763D01*
X277621Y171718D01*
X277530Y171662D01*
X277459Y171598D01*
X277409Y171522D01*
X277378Y171438D01*
X277368Y171343D01*
Y173343D01*
X277378Y173248D01*
D02*
G37*
%LPC*%
G36*
X292300Y120366D02*
X289673D01*
Y117739D01*
X290000Y117782D01*
X290770Y118101D01*
X291431Y118609D01*
X291938Y119270D01*
X292257Y120040D01*
X292300Y120366D01*
D02*
G37*
G36*
X288673D02*
X286046D01*
X286089Y120040D01*
X286408Y119270D01*
X286916Y118609D01*
X287577Y118101D01*
X288347Y117782D01*
X288673Y117739D01*
Y120366D01*
D02*
G37*
G36*
X289673Y123993D02*
Y121366D01*
X292300D01*
X292257Y121693D01*
X291938Y122462D01*
X291431Y123124D01*
X290770Y123631D01*
X290000Y123950D01*
X289673Y123993D01*
D02*
G37*
G36*
X279543Y123638D02*
X277468D01*
Y121366D01*
X279543D01*
Y123638D01*
D02*
G37*
G36*
X288673Y123993D02*
X288347Y123950D01*
X287577Y123631D01*
X286916Y123124D01*
X286408Y122462D01*
X286089Y121693D01*
X286046Y121366D01*
X288673D01*
Y123993D01*
D02*
G37*
G36*
X326757Y109028D02*
X323138D01*
Y105408D01*
X323721Y105485D01*
X324730Y105903D01*
X325597Y106568D01*
X326262Y107435D01*
X326681Y108444D01*
X326757Y109028D01*
D02*
G37*
G36*
X322138Y113647D02*
X321554Y113570D01*
X320545Y113152D01*
X319678Y112487D01*
X319013Y111620D01*
X318595Y110611D01*
X318518Y110028D01*
X322138D01*
Y113647D01*
D02*
G37*
G36*
Y109028D02*
X318518D01*
X318595Y108444D01*
X319013Y107435D01*
X319678Y106568D01*
X320545Y105903D01*
X321554Y105485D01*
X322138Y105408D01*
Y109028D01*
D02*
G37*
G36*
X341906Y136114D02*
X339280D01*
Y133487D01*
X339606Y133530D01*
X340376Y133849D01*
X341037Y134357D01*
X341545Y135018D01*
X341863Y135788D01*
X341906Y136114D01*
D02*
G37*
G36*
X323138Y113647D02*
Y110028D01*
X326757D01*
X326681Y110611D01*
X326262Y111620D01*
X325597Y112487D01*
X324730Y113152D01*
X323721Y113570D01*
X323138Y113647D01*
D02*
G37*
G36*
X338280Y136114D02*
X335653D01*
X335696Y135788D01*
X336015Y135018D01*
X336522Y134357D01*
X337183Y133849D01*
X337953Y133530D01*
X338280Y133487D01*
Y136114D01*
D02*
G37*
G36*
X339280Y139741D02*
Y137114D01*
X341906D01*
X341863Y137441D01*
X341545Y138210D01*
X341037Y138872D01*
X340376Y139379D01*
X339606Y139698D01*
X339280Y139741D01*
D02*
G37*
G36*
X338280D02*
X337953Y139698D01*
X337183Y139379D01*
X336522Y138872D01*
X336015Y138210D01*
X335696Y137441D01*
X335653Y137114D01*
X338280D01*
Y139741D01*
D02*
G37*
G36*
X106783Y158283D02*
X104512D01*
Y155913D01*
X106783D01*
Y158283D01*
D02*
G37*
G36*
X147728Y113647D02*
X147145Y113570D01*
X146136Y113152D01*
X145269Y112487D01*
X144604Y111620D01*
X144185Y110611D01*
X144109Y110028D01*
X147728D01*
Y113647D01*
D02*
G37*
G36*
X148728D02*
Y110028D01*
X152348D01*
X152271Y110611D01*
X151853Y111620D01*
X151188Y112487D01*
X150321Y113152D01*
X149312Y113570D01*
X148728Y113647D01*
D02*
G37*
G36*
X128240Y136114D02*
X125613D01*
X125656Y135788D01*
X125975Y135018D01*
X126483Y134357D01*
X127144Y133849D01*
X127914Y133530D01*
X128240Y133487D01*
Y136114D01*
D02*
G37*
G36*
X110055Y158283D02*
X107783D01*
Y155913D01*
X110055D01*
Y158283D01*
D02*
G37*
G36*
X152348Y109028D02*
X148728D01*
Y105408D01*
X149312Y105485D01*
X150321Y105903D01*
X151188Y106568D01*
X151853Y107435D01*
X152271Y108444D01*
X152348Y109028D01*
D02*
G37*
G36*
X147728D02*
X144109D01*
X144185Y108444D01*
X144604Y107435D01*
X145269Y106568D01*
X146136Y105903D01*
X147145Y105485D01*
X147728Y105408D01*
Y109028D01*
D02*
G37*
G36*
X128240Y139741D02*
X127914Y139698D01*
X127144Y139379D01*
X126483Y138872D01*
X125975Y138210D01*
X125656Y137441D01*
X125613Y137114D01*
X128240D01*
Y139741D01*
D02*
G37*
G36*
X131867Y136114D02*
X129240D01*
Y133487D01*
X129567Y133530D01*
X130336Y133849D01*
X130998Y134357D01*
X131505Y135018D01*
X131824Y135788D01*
X131867Y136114D01*
D02*
G37*
G36*
X129240Y139741D02*
Y137114D01*
X131867D01*
X131824Y137441D01*
X131505Y138210D01*
X130998Y138872D01*
X130336Y139379D01*
X129567Y139698D01*
X129240Y139741D01*
D02*
G37*
%LPD*%
D10*
X185433Y150591D02*
D03*
X180709D02*
D03*
X185236Y193898D02*
D03*
X180512D02*
D03*
X185236Y135827D02*
D03*
X180512D02*
D03*
X272244Y120866D02*
D03*
X276969D02*
D03*
D11*
X225020Y155413D02*
D03*
X220020D02*
D03*
X215020D02*
D03*
X210020D02*
D03*
X225020Y133957D02*
D03*
X220020D02*
D03*
X215020D02*
D03*
X210020D02*
D03*
X285059Y155413D02*
D03*
X280059D02*
D03*
X275059D02*
D03*
X270059D02*
D03*
X285059Y133957D02*
D03*
X280059D02*
D03*
X275059D02*
D03*
X270059D02*
D03*
X276201Y193799D02*
D03*
X271201D02*
D03*
X266201D02*
D03*
X261201D02*
D03*
X276201Y172343D02*
D03*
X271201D02*
D03*
X266201D02*
D03*
X261201D02*
D03*
X240571Y195374D02*
D03*
X235571D02*
D03*
X230571D02*
D03*
X225571D02*
D03*
X240571Y173917D02*
D03*
X235571D02*
D03*
X230571D02*
D03*
X225571D02*
D03*
X254547Y155413D02*
D03*
X249547D02*
D03*
X244547D02*
D03*
X239547D02*
D03*
X254547Y133957D02*
D03*
X249547D02*
D03*
X244547D02*
D03*
X239547D02*
D03*
D12*
X193110Y172244D02*
D03*
X180512D02*
D03*
X145669Y241142D02*
D03*
X158268D02*
D03*
X312992D02*
D03*
X325591D02*
D03*
D13*
X190157Y262795D02*
D03*
X194882D02*
D03*
X238405Y262835D02*
D03*
X243130D02*
D03*
X281417D02*
D03*
X286142D02*
D03*
X298031Y122047D02*
D03*
X302756D02*
D03*
X220847Y163386D02*
D03*
X225571D02*
D03*
D14*
X288189Y172441D02*
D03*
Y167717D02*
D03*
D15*
X107283Y149705D02*
D03*
Y155413D02*
D03*
X361417Y148327D02*
D03*
Y154035D02*
D03*
D16*
X195768Y120866D02*
D03*
X190059D02*
D03*
X259744Y120866D02*
D03*
X254035D02*
D03*
X205906D02*
D03*
X211614D02*
D03*
D17*
X361417Y133071D02*
D03*
Y139370D02*
D03*
X107283D02*
D03*
Y133071D02*
D03*
D18*
X243878Y120866D02*
D03*
X237579D02*
D03*
X180709Y120866D02*
D03*
X174409D02*
D03*
X227146Y120866D02*
D03*
X220847D02*
D03*
D19*
X360630Y133071D02*
X361417Y132283D01*
X354331Y97441D02*
X361417Y104527D01*
X129134Y216339D02*
Y225197D01*
X145374Y241437D01*
X146949D01*
X218898Y195669D02*
X225590D01*
X287618Y167717D02*
X295138D01*
X195768Y112500D02*
X198779Y109488D01*
X254646Y155512D02*
X255630Y154528D01*
X271654Y109528D02*
Y122047D01*
X266201Y168563D02*
Y172343D01*
X254547Y156909D02*
X266201Y168563D01*
X254547Y155413D02*
Y156909D01*
Y133957D02*
X255433Y133071D01*
X260216D01*
X195768Y112500D02*
Y120866D01*
X205906Y114961D02*
X210630Y110236D01*
X205906Y114961D02*
Y120866D01*
X234567Y187795D02*
X240571Y193799D01*
X209646Y187795D02*
X234567D01*
X270059Y155413D02*
X270315Y155669D01*
X185236Y193898D02*
X209646D01*
X285059Y152185D02*
Y155413D01*
X275059Y133957D02*
Y138248D01*
X239547Y155413D02*
Y157402D01*
X244547Y162402D01*
X248031D01*
X239547Y133957D02*
X239547Y133957D01*
X270059Y155413D02*
Y158839D01*
X272638Y161417D01*
X209646Y193898D02*
X221457Y205709D01*
X275059Y138248D02*
X277528Y140717D01*
X284417D01*
X265748Y205709D02*
X276201Y195256D01*
X221457Y205709D02*
X265748D01*
X244547Y133957D02*
Y142717D01*
X263779Y147638D02*
X280512D01*
X285059Y152185D01*
X185433Y150591D02*
X190354D01*
X254547Y155413D02*
X254646Y155512D01*
X255630Y154528D02*
X262264D01*
X244547Y143248D02*
X262264D01*
X244547Y142717D02*
Y143248D01*
X235823Y151441D02*
X244547Y142717D01*
X185236Y135827D02*
X192821D01*
X210020Y149232D02*
Y155413D01*
X252854Y193799D02*
X261201D01*
X239547Y133957D02*
X239547Y133957D01*
X215020Y133957D02*
Y138917D01*
X192821Y135827D02*
X197789Y140794D01*
X276201Y193799D02*
Y195256D01*
Y193799D02*
X291240D01*
X284417Y140717D02*
X302756Y159055D01*
Y182283D01*
X291240Y193799D02*
X302756Y182283D01*
X276201Y165925D02*
Y172343D01*
Y165925D02*
X276378Y165748D01*
X254921Y187008D02*
X292520D01*
X299213Y180315D01*
Y171791D02*
Y180315D01*
X235823Y151441D02*
Y159032D01*
X240768Y163976D01*
X225276Y172047D02*
X225571Y172343D01*
Y163386D02*
Y172343D01*
X192520Y148425D02*
X197638D01*
X198425Y141339D02*
X212598D01*
X215020Y138917D01*
X190354Y150591D02*
X192520Y148425D01*
X209842Y163386D02*
X220847D01*
X205118Y158661D02*
X209842Y163386D01*
X198031Y158661D02*
X205118D01*
X230768Y168839D02*
Y172343D01*
Y168839D02*
X231890Y167717D01*
X240768D01*
Y163976D02*
Y167717D01*
Y172343D01*
X213779Y173917D02*
X225571D01*
X235571Y172343D02*
Y173917D01*
X242520Y183465D02*
X252854Y193799D01*
X228346Y183465D02*
X242520D01*
X225571Y180689D02*
X228346Y183465D01*
X225571Y173917D02*
Y180689D01*
X235571Y173917D02*
Y177697D01*
X237795Y179921D01*
X247835D01*
X254921Y187008D01*
X272638Y161417D02*
X281319D01*
X287618Y167717D01*
X295138D02*
X299213Y171791D01*
X276201Y172343D02*
X288091D01*
X288189Y172441D01*
X285059Y133957D02*
X295571D01*
X298031Y131496D01*
Y122047D02*
Y131496D01*
X302756Y122047D02*
X338779Y158071D01*
Y196653D01*
X280315Y104331D02*
X298031Y122047D01*
X219445Y139807D02*
X231299D01*
X210020Y149232D02*
X219445Y139807D01*
X233697D02*
X239547Y133957D01*
X231299Y139807D02*
X233697D01*
X262264Y143248D02*
X265748Y139764D01*
X259842Y109528D02*
Y120768D01*
X259744Y120866D02*
X259842Y120768D01*
X265039Y104331D02*
X280315D01*
X259842Y109528D02*
X265039Y104331D01*
X180709Y120866D02*
X190059D01*
X211614Y120866D02*
X220847D01*
X243878D02*
X254035D01*
X196270Y174203D02*
Y174419D01*
X209646Y187795D01*
X309252Y216339D02*
Y237402D01*
X312992Y241142D01*
X265748Y127953D02*
Y139764D01*
Y127953D02*
X271654Y122047D01*
D20*
X180512Y135827D02*
Y193898D01*
X181299Y262795D02*
X189961D01*
X177362Y258858D02*
X181299Y262795D01*
X180512Y193898D02*
Y216339D01*
X194882Y255906D02*
Y262598D01*
X243189Y255906D02*
Y262520D01*
X281417Y255827D02*
Y262835D01*
X194882Y262795D02*
X202362D01*
X230807Y262835D02*
X238405D01*
X243130D02*
X250787D01*
X275098D02*
X281417D01*
X198031Y134252D02*
X209055D01*
X361417Y104527D02*
Y132283D01*
X148031Y123425D02*
X156890D01*
X169291Y135827D01*
X180512D01*
X160236Y110512D02*
X170590Y120866D01*
X174409D01*
X174409Y120866D01*
X234252Y109028D02*
Y120866D01*
X227146D02*
X234252D01*
X237579D01*
X107283Y101181D02*
Y133071D01*
X347244Y153937D02*
X361319D01*
X361417Y139370D02*
Y148327D01*
X107283Y139370D02*
Y149705D01*
D21*
X158465Y216339D02*
Y241142D01*
Y216339D02*
X180512D01*
X159646Y241142D02*
X177362Y258858D01*
X158465Y241142D02*
X159646D01*
X291240Y216634D02*
Y251181D01*
X243189Y250000D02*
Y255906D01*
X325591Y241142D02*
X338779Y227953D01*
Y216339D02*
Y227953D01*
X261811Y225394D02*
X274606Y212598D01*
X194685Y225394D02*
X261811D01*
X185630Y216339D02*
X194685Y225394D01*
X194882Y242126D02*
Y255906D01*
X202362Y262795D02*
X230768D01*
X230807Y262835D01*
X250787D02*
X275098D01*
X301181Y206693D02*
X338189D01*
X347244Y197638D01*
X281417Y213858D02*
Y255827D01*
Y213858D02*
X309252Y186024D01*
Y136614D02*
Y186024D01*
X347244Y145079D02*
Y153937D01*
Y197638D01*
X180512Y216339D02*
X185630D01*
X291240Y216634D02*
X301181Y206693D01*
X338779Y136614D02*
X347244Y145079D01*
D22*
X266201Y180315D02*
X271201Y175315D01*
Y172343D02*
Y175315D01*
X261201D02*
X266201Y180315D01*
X261201Y172343D02*
Y175315D01*
X249547Y129114D02*
Y133957D01*
X247716Y127284D02*
X249547Y129114D01*
X237579Y120866D02*
X243996Y127284D01*
X247716D01*
D23*
X291240Y251181D02*
Y257736D01*
X286142Y262835D02*
X291240Y257736D01*
D24*
X113976Y97441D02*
D03*
Y256890D02*
D03*
X357283D02*
D03*
Y97441D02*
D03*
D25*
X210630Y109528D02*
D03*
X198819D02*
D03*
X160039D02*
D03*
X148228D02*
D03*
X271654D02*
D03*
X259842D02*
D03*
X322638D02*
D03*
X310827D02*
D03*
D26*
X338779Y196653D02*
D03*
Y216339D02*
D03*
X309252D02*
D03*
Y196653D02*
D03*
Y136614D02*
D03*
X338779D02*
D03*
X194882Y212598D02*
D03*
Y242126D02*
D03*
X254921D02*
D03*
X274606D02*
D03*
Y212598D02*
D03*
X254921D02*
D03*
X158268Y196653D02*
D03*
Y216339D02*
D03*
X128740D02*
D03*
Y196653D02*
D03*
Y136614D02*
D03*
X158268D02*
D03*
X266201Y180315D02*
D03*
X248031Y162402D02*
D03*
X243189Y250000D02*
D03*
X263779Y147638D02*
D03*
X262264Y154528D02*
D03*
X260216Y133071D02*
D03*
X254921Y187008D02*
D03*
X276378Y165748D02*
D03*
X218898Y195669D02*
D03*
X247638Y196457D02*
D03*
X198031Y134252D02*
D03*
Y148425D02*
D03*
Y141339D02*
D03*
Y158661D02*
D03*
X213779Y173917D02*
D03*
X234252Y109028D02*
D03*
X231299Y139807D02*
D03*
X209646Y187795D02*
D03*
X289173Y120866D02*
D03*
D27*
X204724Y92520D02*
D03*
X154134D02*
D03*
X265748D02*
D03*
X316732D02*
D03*
M02*
