M48
;Layer_Color=9474304
;FILE_FORMAT=2:5
INCH,LZ
;TYPE=PLATED
T1F00S00C0.02800
T2F00S00C0.03000
T3F00S00C0.03937
T4F00S00C0.04173
T5F00S00C0.11811
;TYPE=NON_PLATED
T6F00S00C0.15748
%
T01
X0197835Y0150591
X0231299Y0155512
X0232283Y0142717
Y0133957
X0234193Y0122835
X0260216Y0133071
X0263779Y0147638
X0262264Y0154528
X0285059Y0122913
X028248Y0167323
X0266201Y016437
X0248031Y0162402
X0253819Y0179134
X0241142Y0195866
X0226378
X0218504Y0167323
X0209646Y0173228
X0243189Y025
T02
X0132874Y0136614
X0162402
X0309252
X0338779
Y0196653
Y0216339
X0309252
Y0196653
X0274606Y0212598
X0254921
Y0242126
X0274606
X0194882
Y0212598
X0162402Y0216339
Y0196653
X0132874
Y0216339
T03
X0184961Y0263779
X0194961
X0233189
X0243189
X0281417
X0291417
T04
X0152559Y0110512
X016437
X0202756Y0110236
X0214567
X0253937Y0110236
X0265748
X0306102Y0110512
X0317913
T05
X0158465Y0093504
X0208661Y0093228
X0259842Y0093228
X0312008Y0093504
T06
X0117126Y0097441
X0354331Y0097441
X0356299Y025689
X0117126
M30
