G04 Layer_Color=16711935*
%FSLAX25Y25*%
%MOIN*%
G70*
G01*
G75*
%ADD43C,0.24422*%
%ADD44C,0.07099*%
%ADD45C,0.05131*%
%ADD46C,0.16548*%
D43*
X113976Y97441D02*
D03*
Y256890D02*
D03*
X357283D02*
D03*
Y97441D02*
D03*
D44*
X210630Y109528D02*
D03*
X198819D02*
D03*
X160039D02*
D03*
X148228D02*
D03*
X271654D02*
D03*
X259842D02*
D03*
X322638D02*
D03*
X310827D02*
D03*
D45*
X338779Y196653D02*
D03*
Y216339D02*
D03*
X309252D02*
D03*
Y196653D02*
D03*
Y136614D02*
D03*
X338779D02*
D03*
X194882Y212598D02*
D03*
Y242126D02*
D03*
X254921D02*
D03*
X274606D02*
D03*
Y212598D02*
D03*
X254921D02*
D03*
X158268Y196653D02*
D03*
Y216339D02*
D03*
X128740D02*
D03*
Y196653D02*
D03*
Y136614D02*
D03*
X158268D02*
D03*
X266201Y180315D02*
D03*
X248031Y162402D02*
D03*
X243189Y250000D02*
D03*
X263779Y147638D02*
D03*
X262264Y154528D02*
D03*
X260216Y133071D02*
D03*
X254921Y187008D02*
D03*
X276378Y165748D02*
D03*
X218898Y195669D02*
D03*
X247638Y196457D02*
D03*
X198031Y134252D02*
D03*
Y148425D02*
D03*
Y141339D02*
D03*
Y158661D02*
D03*
X213779Y173917D02*
D03*
X234252Y109028D02*
D03*
X231299Y139807D02*
D03*
X209646Y187795D02*
D03*
X289173Y120866D02*
D03*
D46*
X204724Y92520D02*
D03*
X154134D02*
D03*
X265748D02*
D03*
X316732D02*
D03*
M02*
