G04*
G04 #@! TF.GenerationSoftware,Altium Limited,Altium Designer,18.1.9 (240)*
G04*
G04 Layer_Physical_Order=2*
G04 Layer_Color=16711680*
%FSLAX25Y25*%
%MOIN*%
G70*
G01*
G75*
%ADD13C,0.01000*%
%ADD41C,0.03937*%
%ADD42C,0.04331*%
%ADD43C,0.23622*%
%ADD44C,0.06299*%
%ADD45C,0.15748*%
G36*
X199776Y149748D02*
X200163Y149423D01*
X200353Y149291D01*
X200541Y149179D01*
X200725Y149088D01*
X200907Y149017D01*
X201087Y148966D01*
X201263Y148935D01*
X201438Y148925D01*
Y147925D01*
X201263Y147915D01*
X201087Y147885D01*
X200907Y147834D01*
X200725Y147763D01*
X200541Y147671D01*
X200353Y147559D01*
X200163Y147427D01*
X199971Y147275D01*
X199776Y147102D01*
X199578Y146909D01*
Y149941D01*
X199776Y149748D01*
D02*
G37*
G36*
X158778Y145161D02*
X158808Y144984D01*
X158859Y144805D01*
X158930Y144623D01*
X159022Y144438D01*
X159133Y144251D01*
X159265Y144061D01*
X159418Y143869D01*
X159590Y143673D01*
X159783Y143475D01*
X156752D01*
X156945Y143673D01*
X157270Y144061D01*
X157402Y144251D01*
X157514Y144438D01*
X157605Y144623D01*
X157676Y144805D01*
X157727Y144984D01*
X157758Y145161D01*
X157768Y145335D01*
X158768D01*
X158778Y145161D01*
D02*
G37*
G36*
X200929Y143136D02*
X200819Y143012D01*
X200717Y142871D01*
X200622Y142711D01*
X200536Y142533D01*
X200457Y142337D01*
X200386Y142122D01*
X200323Y141890D01*
X200221Y141369D01*
X200182Y141082D01*
X198331Y143483D01*
X198593Y143454D01*
X198841Y143441D01*
X199074Y143445D01*
X199294Y143466D01*
X199499Y143503D01*
X199691Y143556D01*
X199868Y143627D01*
X200032Y143713D01*
X200181Y143817D01*
X200317Y143937D01*
X200929Y143136D01*
D02*
G37*
G36*
X206955Y112584D02*
X207165Y112453D01*
X207397Y112354D01*
X207652Y112285D01*
X207928Y112247D01*
X208227Y112240D01*
X208548Y112263D01*
X208891Y112318D01*
X209256Y112403D01*
X209644Y112519D01*
X207620Y108602D01*
X207456Y109122D01*
X206617Y111312D01*
X206501Y111522D01*
X206392Y111688D01*
X206289Y111809D01*
X206768Y112745D01*
X206955Y112584D01*
D02*
G37*
G36*
X196570Y107323D02*
X196241Y107647D01*
X195620Y108192D01*
X195327Y108414D01*
X195047Y108601D01*
X194778Y108755D01*
X194520Y108874D01*
X194275Y108959D01*
X194041Y109011D01*
X193819Y109028D01*
Y110028D01*
X194041Y110045D01*
X194275Y110096D01*
X194520Y110181D01*
X194778Y110300D01*
X195047Y110454D01*
X195327Y110641D01*
X195620Y110863D01*
X196241Y111408D01*
X196570Y111732D01*
Y107323D01*
D02*
G37*
G36*
X201971Y109035D02*
X202025Y108210D01*
X202075Y107846D01*
X202141Y107515D01*
X202223Y107216D01*
X202321Y106950D01*
X202434Y106716D01*
X202563Y106515D01*
X202708Y106346D01*
X202000Y105639D01*
X201832Y105784D01*
X201630Y105913D01*
X201396Y106026D01*
X201130Y106123D01*
X200831Y106205D01*
X200500Y106271D01*
X200136Y106322D01*
X199312Y106375D01*
X198850Y106378D01*
X201968Y109496D01*
X201971Y109035D01*
D02*
G37*
G36*
X158768Y165020D02*
X158778Y164846D01*
X158808Y164669D01*
X158859Y164490D01*
X158930Y164308D01*
X159022Y164123D01*
X159133Y163936D01*
X159265Y163746D01*
X159418Y163554D01*
X159590Y163358D01*
X159783Y163161D01*
X156752D01*
X156945Y163358D01*
X157270Y163746D01*
X157402Y163936D01*
X157514Y164123D01*
X157605Y164308D01*
X157676Y164490D01*
X157727Y164669D01*
X157758Y164846D01*
X157768Y165020D01*
X158768D01*
D02*
G37*
G36*
X194625Y159161D02*
X194800Y159172D01*
X194976Y159202D01*
X195156Y159253D01*
X195338Y159324D01*
X195522Y159415D01*
X195710Y159527D01*
X195900Y159659D01*
X196092Y159811D01*
X196287Y159984D01*
X196485Y160177D01*
Y157146D01*
X196287Y157339D01*
X195900Y157664D01*
X195710Y157796D01*
X195522Y157907D01*
X195338Y157999D01*
X195156Y158070D01*
X194976Y158121D01*
X194800Y158151D01*
X194625Y158161D01*
Y159161D01*
D02*
G37*
G36*
X210373Y174417D02*
X210548Y174427D01*
X210724Y174458D01*
X210904Y174509D01*
X211086Y174580D01*
X211270Y174671D01*
X211458Y174783D01*
X211648Y174915D01*
X211840Y175067D01*
X212035Y175240D01*
X212233Y175433D01*
Y172402D01*
X212035Y172595D01*
X211648Y172920D01*
X211458Y173052D01*
X211270Y173163D01*
X211086Y173255D01*
X210904Y173326D01*
X210724Y173377D01*
X210548Y173407D01*
X210373Y173417D01*
Y174417D01*
D02*
G37*
G36*
X157768Y218248D02*
X157758Y218422D01*
X157727Y218598D01*
X157676Y218778D01*
X157605Y218960D01*
X157514Y219144D01*
X157402Y219332D01*
X157270Y219522D01*
X157118Y219714D01*
X156945Y219909D01*
X156752Y220107D01*
X159783D01*
X159590Y219909D01*
X159265Y219522D01*
X159133Y219332D01*
X159022Y219144D01*
X158930Y218960D01*
X158859Y218778D01*
X158808Y218598D01*
X158778Y218422D01*
X158768Y218248D01*
X157768D01*
D02*
G37*
G36*
X199890Y210821D02*
X199759Y210937D01*
X199613Y211040D01*
X199450Y211131D01*
X199271Y211209D01*
X199076Y211275D01*
X198864Y211329D01*
X198637Y211370D01*
X198393Y211398D01*
X198133Y211414D01*
X197856Y211417D01*
X200000Y213561D01*
X200003Y213285D01*
X200048Y212781D01*
X200089Y212553D01*
X200142Y212342D01*
X200208Y212146D01*
X200286Y211967D01*
X200377Y211805D01*
X200481Y211658D01*
X200597Y211528D01*
X199890Y210821D01*
D02*
G37*
G36*
X215492Y196169D02*
X215666Y196179D01*
X215843Y196210D01*
X216022Y196261D01*
X216204Y196332D01*
X216389Y196423D01*
X216576Y196535D01*
X216766Y196667D01*
X216958Y196819D01*
X217154Y196992D01*
X217351Y197185D01*
Y194153D01*
X217154Y194346D01*
X216766Y194672D01*
X216576Y194804D01*
X216389Y194915D01*
X216204Y195007D01*
X216022Y195078D01*
X215843Y195129D01*
X215666Y195159D01*
X215492Y195169D01*
Y196169D01*
D02*
G37*
G36*
X262398Y152399D02*
X262142Y152439D01*
X261900Y152461D01*
X261671Y152465D01*
X261455Y152451D01*
X261252Y152420D01*
X261062Y152370D01*
X260886Y152303D01*
X260723Y152217D01*
X260573Y152114D01*
X260436Y151992D01*
X259857Y152828D01*
X259965Y152948D01*
X260066Y153087D01*
X260161Y153245D01*
X260251Y153422D01*
X260334Y153618D01*
X260411Y153833D01*
X260547Y154320D01*
X260606Y154591D01*
X260659Y154882D01*
X262398Y152399D01*
D02*
G37*
G36*
X261862Y145684D02*
X261817Y145698D01*
X261767Y145702D01*
X261712Y145693D01*
X261651Y145674D01*
X261585Y145642D01*
X261515Y145600D01*
X261439Y145546D01*
X261358Y145481D01*
X261180Y145316D01*
X260473Y146023D01*
X260561Y146114D01*
X260703Y146281D01*
X260757Y146357D01*
X260800Y146428D01*
X260831Y146494D01*
X260851Y146554D01*
X260859Y146609D01*
X260856Y146660D01*
X260841Y146704D01*
X261862Y145684D01*
D02*
G37*
G36*
X333508Y145363D02*
X333655Y145259D01*
X333818Y145168D01*
X333997Y145090D01*
X334192Y145024D01*
X334403Y144970D01*
X334631Y144930D01*
X334875Y144901D01*
X335135Y144885D01*
X335411Y144882D01*
X333268Y142738D01*
X333264Y143015D01*
X333220Y143518D01*
X333179Y143746D01*
X333126Y143958D01*
X333060Y144153D01*
X332981Y144332D01*
X332891Y144495D01*
X332787Y144641D01*
X332671Y144771D01*
X333378Y145478D01*
X333508Y145363D01*
D02*
G37*
G36*
X233043Y141130D02*
X233431Y140805D01*
X233621Y140673D01*
X233808Y140561D01*
X233993Y140469D01*
X234175Y140398D01*
X234354Y140348D01*
X234531Y140317D01*
X234705Y140307D01*
Y139307D01*
X234531Y139297D01*
X234354Y139266D01*
X234175Y139215D01*
X233993Y139144D01*
X233808Y139053D01*
X233621Y138941D01*
X233431Y138809D01*
X233239Y138657D01*
X233043Y138484D01*
X232846Y138291D01*
Y141323D01*
X233043Y141130D01*
D02*
G37*
G36*
X261539Y131327D02*
X261214Y130939D01*
X261082Y130749D01*
X260970Y130562D01*
X260879Y130377D01*
X260808Y130195D01*
X260757Y130016D01*
X260727Y129839D01*
X260717Y129665D01*
X259717D01*
X259706Y129839D01*
X259676Y130016D01*
X259625Y130195D01*
X259554Y130377D01*
X259463Y130562D01*
X259351Y130749D01*
X259219Y130939D01*
X259067Y131131D01*
X258894Y131327D01*
X258701Y131525D01*
X261732D01*
X261539Y131327D01*
D02*
G37*
G36*
X324609Y113519D02*
X324691Y112224D01*
X324722Y112063D01*
X324758Y111935D01*
X324798Y111839D01*
X324843Y111777D01*
X320433D01*
X320478Y111839D01*
X320518Y111935D01*
X320553Y112063D01*
X320584Y112224D01*
X320610Y112417D01*
X320648Y112903D01*
X320669Y113876D01*
X324606D01*
X324609Y113519D01*
D02*
G37*
G36*
X250086Y159640D02*
X249956Y159756D01*
X249810Y159859D01*
X249647Y159950D01*
X249468Y160028D01*
X249273Y160094D01*
X249061Y160148D01*
X248833Y160189D01*
X248590Y160217D01*
X248329Y160233D01*
X248053Y160236D01*
X250197Y162380D01*
X250200Y162104D01*
X250244Y161600D01*
X250285Y161372D01*
X250339Y161161D01*
X250405Y160965D01*
X250483Y160786D01*
X250574Y160624D01*
X250678Y160477D01*
X250794Y160347D01*
X250086Y159640D01*
D02*
G37*
G36*
X274323Y168510D02*
X274453Y168394D01*
X274600Y168291D01*
X274763Y168200D01*
X274942Y168121D01*
X275137Y168055D01*
X275348Y168002D01*
X275576Y167961D01*
X275820Y167933D01*
X276080Y167917D01*
X276356Y167913D01*
X274213Y165770D01*
X274209Y166046D01*
X274165Y166550D01*
X274124Y166778D01*
X274071Y166989D01*
X274005Y167184D01*
X273926Y167363D01*
X273835Y167526D01*
X273732Y167673D01*
X273616Y167803D01*
X274323Y168510D01*
D02*
G37*
G36*
X255421Y190414D02*
X255431Y190240D01*
X255462Y190063D01*
X255513Y189884D01*
X255584Y189702D01*
X255675Y189517D01*
X255787Y189330D01*
X255919Y189140D01*
X256071Y188947D01*
X256244Y188752D01*
X256437Y188554D01*
X253405D01*
X253598Y188752D01*
X253924Y189140D01*
X254056Y189330D01*
X254167Y189517D01*
X254259Y189702D01*
X254330Y189884D01*
X254381Y190063D01*
X254411Y190240D01*
X254421Y190414D01*
X255421D01*
D02*
G37*
G36*
X332671Y160347D02*
X332787Y160477D01*
X332891Y160624D01*
X332981Y160786D01*
X333060Y160965D01*
X333126Y161161D01*
X333179Y161372D01*
X333220Y161600D01*
X333248Y161844D01*
X333264Y162104D01*
X333268Y162380D01*
X335411Y160236D01*
X335135Y160233D01*
X334631Y160189D01*
X334403Y160148D01*
X334192Y160094D01*
X333997Y160028D01*
X333818Y159950D01*
X333655Y159859D01*
X333508Y159756D01*
X333378Y159640D01*
X332671Y160347D01*
D02*
G37*
G36*
X335933Y165808D02*
X335943Y165633D01*
X335974Y165457D01*
X336024Y165277D01*
X336096Y165095D01*
X336187Y164911D01*
X336299Y164723D01*
X336431Y164533D01*
X336583Y164341D01*
X336756Y164146D01*
X336949Y163948D01*
X333917D01*
X334110Y164146D01*
X334435Y164533D01*
X334567Y164723D01*
X334679Y164911D01*
X334771Y165095D01*
X334842Y165277D01*
X334892Y165457D01*
X334923Y165633D01*
X334933Y165808D01*
X335933D01*
D02*
G37*
G36*
X334933Y219035D02*
X334923Y219209D01*
X334892Y219386D01*
X334842Y219565D01*
X334771Y219747D01*
X334679Y219932D01*
X334567Y220119D01*
X334435Y220309D01*
X334283Y220502D01*
X334110Y220697D01*
X333917Y220895D01*
X336949D01*
X336756Y220697D01*
X336431Y220309D01*
X336299Y220119D01*
X336187Y219932D01*
X336096Y219747D01*
X336024Y219565D01*
X335974Y219386D01*
X335943Y219209D01*
X335933Y219035D01*
X334933D01*
D02*
G37*
D13*
X260827Y145669D02*
X262795Y147638D01*
X202756Y145669D02*
X260827D01*
X198031Y148425D02*
X256161D01*
X262264Y154528D01*
X197638Y148425D02*
X198031D01*
X335433Y162402D02*
Y222441D01*
X294488Y150787D02*
X327362D01*
X283508Y139807D02*
X294488Y150787D01*
X231299Y139807D02*
X283508D01*
X327362Y150787D02*
X335433Y142717D01*
X331768Y158736D02*
X335433Y162402D01*
X289846Y158736D02*
X331768D01*
X289744Y158839D02*
X289846Y158736D01*
X197835Y213583D02*
X204724Y206693D01*
X250000D01*
X254921Y201772D01*
Y187008D02*
Y201772D01*
X158268Y141929D02*
Y150629D01*
X181556Y173917D01*
X158268Y161614D02*
Y221654D01*
X181556Y173917D02*
X213779D01*
X205000Y103347D02*
X245374D01*
X198819Y109528D02*
X205000Y103347D01*
X209278Y109528D02*
X210551D01*
X190945Y127861D02*
X209278Y109528D01*
X189389D02*
X198819D01*
X183026Y115891D02*
X189389Y109528D01*
X270866Y171260D02*
X276378Y165748D01*
X247581Y171260D02*
X270866D01*
X229865Y153543D02*
X247581Y171260D01*
X248031Y162402D02*
X251594Y158839D01*
X289744D01*
X158465Y195669D02*
X218898Y195669D01*
X190945Y127861D02*
Y149082D01*
X195407Y153543D01*
X229865D01*
X183026Y115891D02*
Y152996D01*
X188691Y158661D01*
X198031D01*
X198425Y141339D02*
X202756Y145669D01*
X245374Y103347D02*
X260216Y118189D01*
Y133071D01*
D41*
X322638Y109528D02*
Y125984D01*
X305906Y142717D02*
X322638Y125984D01*
D42*
X128740Y221654D02*
D03*
X158268D02*
D03*
Y161614D02*
D03*
Y141929D02*
D03*
X128740D02*
D03*
Y161614D02*
D03*
X305906Y162402D02*
D03*
Y142717D02*
D03*
X335433D02*
D03*
Y162402D02*
D03*
Y222441D02*
D03*
X305906D02*
D03*
X277559Y243110D02*
D03*
Y213583D02*
D03*
X217520D02*
D03*
X197835D02*
D03*
Y243110D02*
D03*
X217520D02*
D03*
X262795Y147638D02*
D03*
Y154528D02*
D03*
X266201Y180315D02*
D03*
X248031Y162402D02*
D03*
X260216Y133071D02*
D03*
X254921Y187008D02*
D03*
X276378Y165748D02*
D03*
X218898Y195669D02*
D03*
X198031Y134252D02*
D03*
Y148425D02*
D03*
Y141339D02*
D03*
Y158661D02*
D03*
X213779Y173917D02*
D03*
X234252Y109028D02*
D03*
X231299Y139807D02*
D03*
X289173Y120866D02*
D03*
D43*
X113976Y97441D02*
D03*
Y256890D02*
D03*
X357283D02*
D03*
Y97441D02*
D03*
D44*
X210630Y109528D02*
D03*
X198819D02*
D03*
X160039D02*
D03*
X148228D02*
D03*
X271654D02*
D03*
X259842D02*
D03*
X322638D02*
D03*
X310827D02*
D03*
D45*
X204724Y92520D02*
D03*
X154134D02*
D03*
X265748D02*
D03*
X316732D02*
D03*
M02*
