M48
;Layer_Color=9474304
;FILE_FORMAT=2:5
INCH,LZ
;TYPE=PLATED
T1F00S00C0.02800
T2F00S00C0.03000
T3F00S00C0.04173
T4F00S00C0.11811
;TYPE=NON_PLATED
T5F00S00C0.15748
%
T01
X0198031Y0134252
Y0141339
Y0148425
X0231299Y0139807
X0234252Y0109028
X0260216Y0133071
X0263779Y0147638
X0262264Y0154528
X0289173Y0120866
X0276378Y0165748
X0266201Y0180315
X0254921Y0187008
X0247638Y0196457
X0218898Y0195669
X0209646Y0187795
X0213779Y0173917
X0198031Y0158661
X0248031Y0162402
X0243189Y025
T02
X012874Y0136614
X0158268
X0309252
X0338779
Y0196653
Y0216339
X0309252
Y0196653
X0274606Y0212598
X0254921
Y0242126
X0274606
X0194882
Y0212598
X0158268Y0216339
Y0196653
X012874
Y0216339
T03
X0148228Y0109528
X0160039
X0198819
X021063
X0259842
X0271654
X0310827
X0322638
T04
X0154134Y009252
X0204724
X0265748
X0316732
T05
X0113976Y0097441
X0357283
Y025689
X0113976
M30
