G04*
G04 #@! TF.GenerationSoftware,Altium Limited,Altium Designer,18.1.9 (240)*
G04*
G04 Layer_Color=32768*
%FSLAX25Y25*%
%MOIN*%
G70*
G01*
G75*
%ADD33C,0.00394*%
%ADD35C,0.00197*%
D33*
X319291Y239173D02*
Y243110D01*
X317323Y241142D02*
X321260D01*
X153543Y239173D02*
Y243110D01*
X151575Y241142D02*
X155512D01*
X186221Y135827D02*
X189764D01*
X187992Y134055D02*
Y137598D01*
X191929Y170276D02*
Y174213D01*
X189961Y172244D02*
X193898D01*
X247047Y142717D02*
Y146653D01*
X245079Y144685D02*
X249016D01*
X233268Y176181D02*
Y180118D01*
X231299Y178150D02*
X235236D01*
X268701Y181102D02*
Y185039D01*
X266732Y183071D02*
X270669D01*
X277559Y142717D02*
Y146653D01*
X275591Y144685D02*
X279528D01*
X217520Y142717D02*
Y146653D01*
X215551Y144685D02*
X219488D01*
X186221Y193898D02*
X189764D01*
X187992Y192126D02*
Y195669D01*
X198622Y123031D02*
X202165D01*
X200394Y121260D02*
Y124803D01*
X215158Y123031D02*
X218701D01*
X216929Y121260D02*
Y124803D01*
X250197Y123031D02*
X253740D01*
X251969Y121260D02*
Y124803D01*
X265945Y123031D02*
X269488D01*
X267717Y121260D02*
Y124803D01*
X186221Y150591D02*
X189764D01*
X187992Y148819D02*
Y152362D01*
D35*
X177953Y256890D02*
X201969D01*
X177953D02*
Y270669D01*
X201969D01*
Y256890D02*
Y270669D01*
X189961Y261811D02*
Y265748D01*
X187992Y263779D02*
X191929D01*
X236221D02*
X240158D01*
X238189Y261811D02*
Y265748D01*
X250197Y256890D02*
Y270669D01*
X226181D02*
X250197D01*
X226181Y256890D02*
Y270669D01*
Y256890D02*
X250197D01*
X274410D02*
X298425D01*
X274410D02*
Y270669D01*
X298425D01*
Y256890D02*
Y270669D01*
X286417Y261811D02*
Y265748D01*
X284449Y263779D02*
X288386D01*
X307087Y232283D02*
X331496D01*
X307087Y250000D02*
X331496D01*
Y232283D02*
Y250000D01*
X307087Y232283D02*
Y250000D01*
X141339Y232283D02*
X165748D01*
X141339Y250000D02*
X165748D01*
Y232283D02*
Y250000D01*
X141339Y232283D02*
Y250000D01*
X183071Y133071D02*
Y138583D01*
X192913Y133071D02*
Y138583D01*
X183071D02*
X192913D01*
X183071Y133071D02*
X192913D01*
X179724Y181102D02*
X204134D01*
X179724Y163386D02*
X204134D01*
X179724D02*
Y181102D01*
X204134Y163386D02*
Y181102D01*
X236221Y130217D02*
X257874D01*
X236221Y159153D02*
X257874D01*
X236221Y130217D02*
Y159153D01*
X257874Y130217D02*
Y159153D01*
X222441Y163681D02*
X244094D01*
X222441Y192618D02*
X244094D01*
X222441Y163681D02*
Y192618D01*
X244094Y163681D02*
Y192618D01*
X257874Y168602D02*
X279528D01*
X257874Y197539D02*
X279528D01*
X257874Y168602D02*
Y197539D01*
X279528Y168602D02*
Y197539D01*
X266732Y130217D02*
X288386D01*
X266732Y159153D02*
X288386D01*
X266732Y130217D02*
Y159153D01*
X288386Y130217D02*
Y159153D01*
X206693Y159153D02*
X228346D01*
X206693Y130217D02*
X228346D01*
Y159153D01*
X206693Y130217D02*
Y159153D01*
X183071Y191142D02*
Y196653D01*
X192913Y191142D02*
Y196653D01*
X183071D02*
X192913D01*
X183071Y191142D02*
X192913D01*
X205315Y120276D02*
Y125787D01*
X195473Y120276D02*
Y125787D01*
Y120276D02*
X205315D01*
X195473Y125787D02*
X205315D01*
X212008Y120276D02*
Y125787D01*
X221850Y120276D02*
Y125787D01*
X212008D02*
X221850D01*
X212008Y120276D02*
X221850D01*
X256890Y120276D02*
Y125787D01*
X247047Y120276D02*
Y125787D01*
Y120276D02*
X256890D01*
X247047Y125787D02*
X256890D01*
X262795Y120276D02*
Y125787D01*
X272638Y120276D02*
Y125787D01*
X262795D02*
X272638D01*
X262795Y120276D02*
X272638D01*
X183071Y147835D02*
Y153347D01*
X192913Y147835D02*
Y153347D01*
X183071D02*
X192913D01*
X183071Y147835D02*
X192913D01*
M02*
