G04*
G04 #@! TF.GenerationSoftware,Altium Limited,Altium Designer,18.1.9 (240)*
G04*
G04 Layer_Color=32768*
%FSLAX25Y25*%
%MOIN*%
G70*
G01*
G75*
%ADD46C,0.00394*%
%ADD48C,0.00197*%
D46*
X183071Y148819D02*
Y152362D01*
X181299Y150591D02*
X184843D01*
X182874Y192126D02*
Y195669D01*
X181102Y193898D02*
X184646D01*
X215551Y144685D02*
X219488D01*
X217520Y142717D02*
Y146653D01*
X275591Y144685D02*
X279528D01*
X277559Y142717D02*
Y146653D01*
X266732Y183071D02*
X270669D01*
X268701Y181102D02*
Y185039D01*
X231102Y184646D02*
X235039D01*
X233071Y182677D02*
Y186614D01*
X245079Y144685D02*
X249016D01*
X247047Y142717D02*
Y146653D01*
X184843Y172244D02*
X188779D01*
X186811Y170276D02*
Y174213D01*
X182874Y134055D02*
Y137598D01*
X181102Y135827D02*
X184646D01*
X149606Y244882D02*
X153543D01*
X151575Y242913D02*
Y246850D01*
X306102Y243110D02*
X310039D01*
X308071Y241142D02*
Y245079D01*
X190650Y262795D02*
X194390D01*
X192520Y260925D02*
Y264665D01*
X238898Y262835D02*
X242638D01*
X240768Y260965D02*
Y264705D01*
X281909Y262835D02*
X285650D01*
X283780Y260965D02*
Y264705D01*
X298524Y122047D02*
X302264D01*
X300394Y120177D02*
Y123917D01*
X288189Y168209D02*
Y171949D01*
X286319Y170079D02*
X290059D01*
X221339Y163386D02*
X225079D01*
X223209Y161516D02*
Y165256D01*
X107283Y150787D02*
Y154331D01*
X105512Y152559D02*
X109055D01*
X361417Y149409D02*
Y152953D01*
X359646Y151181D02*
X363189D01*
X192913Y119095D02*
Y122638D01*
X191142Y120866D02*
X194685D01*
X272835D02*
X276378D01*
X274606Y119095D02*
Y122638D01*
X361417Y134252D02*
Y138189D01*
X359449Y136221D02*
X363386D01*
X105315D02*
X109252D01*
X107283Y134252D02*
Y138189D01*
X256890Y119095D02*
Y122638D01*
X255118Y120866D02*
X258661D01*
X240728Y118898D02*
Y122835D01*
X238760Y120866D02*
X242697D01*
X177559Y118898D02*
Y122835D01*
X175591Y120866D02*
X179528D01*
X208760Y119095D02*
Y122638D01*
X206988Y120866D02*
X210531D01*
X222028D02*
X225965D01*
X223996Y118898D02*
Y122835D01*
D48*
X178150Y147835D02*
X187992D01*
X178150Y153347D02*
X187992D01*
Y147835D02*
Y153347D01*
X178150Y147835D02*
Y153347D01*
X177953Y191142D02*
X187795D01*
X177953Y196653D02*
X187795D01*
Y191142D02*
Y196653D01*
X177953Y191142D02*
Y196653D01*
X228346Y130217D02*
Y159153D01*
X206693Y130217D02*
Y159153D01*
X228346D01*
X206693Y130217D02*
X228346D01*
X288386D02*
Y159153D01*
X266732Y130217D02*
Y159153D01*
X288386D01*
X266732Y130217D02*
X288386D01*
X279528Y168602D02*
Y197539D01*
X257874Y168602D02*
Y197539D01*
X279528D01*
X257874Y168602D02*
X279528D01*
X243898Y170177D02*
Y199114D01*
X222244Y170177D02*
Y199114D01*
X243898D01*
X222244Y170177D02*
X243898D01*
X257874Y130217D02*
Y159153D01*
X236221Y130217D02*
Y159153D01*
X257874D01*
X236221Y130217D02*
X257874D01*
X199016Y163386D02*
Y181102D01*
X174606Y163386D02*
Y181102D01*
Y163386D02*
X199016D01*
X174606Y181102D02*
X199016D01*
X177953Y133071D02*
X187795D01*
X177953Y138583D02*
X187795D01*
Y133071D02*
Y138583D01*
X177953Y133071D02*
Y138583D01*
X163779Y236024D02*
Y253740D01*
X139370Y236024D02*
Y253740D01*
Y236024D02*
X163779D01*
X139370Y253740D02*
X163779D01*
X320276Y234252D02*
Y251969D01*
X295866Y234252D02*
Y251969D01*
Y234252D02*
X320276D01*
X295866Y251969D02*
X320276D01*
X187598Y259842D02*
Y265748D01*
X197441Y259842D02*
Y265748D01*
X187598D02*
X197441D01*
X187598Y259842D02*
X197441D01*
X235846Y259882D02*
Y265787D01*
X245689Y259882D02*
Y265787D01*
X235846D02*
X245689D01*
X235846Y259882D02*
X245689D01*
X278858D02*
Y265787D01*
X288701Y259882D02*
Y265787D01*
X278858D02*
X288701D01*
X278858Y259882D02*
X288701D01*
X295472Y119095D02*
Y125000D01*
X305315Y119095D02*
Y125000D01*
X295472D02*
X305315D01*
X295472Y119095D02*
X305315D01*
X285236Y175000D02*
X291142D01*
X285236Y165157D02*
X291142D01*
Y175000D01*
X285236Y165157D02*
Y175000D01*
X218287Y160433D02*
Y166339D01*
X228130Y160433D02*
Y166339D01*
X218287D02*
X228130D01*
X218287Y160433D02*
X228130D01*
X104528Y146850D02*
X110039D01*
X104528Y158268D02*
X110039D01*
X104528Y146850D02*
Y158268D01*
X110039Y146850D02*
Y158268D01*
X358661Y145472D02*
X364173D01*
X358661Y156890D02*
X364173D01*
X358661Y145472D02*
Y156890D01*
X364173Y145472D02*
Y156890D01*
X187205Y118110D02*
X198622D01*
X187205Y123622D02*
X198622D01*
Y118110D02*
Y123622D01*
X187205Y118110D02*
Y123622D01*
X269685Y118110D02*
Y123622D01*
X279528Y118110D02*
Y123622D01*
X269685D02*
X279528D01*
X269685Y118110D02*
X279528D01*
X358661Y130315D02*
X364173D01*
X358661Y142126D02*
X364173D01*
X358661Y130315D02*
Y142126D01*
X364173Y130315D02*
Y142126D01*
X110039Y130315D02*
Y142126D01*
X104527Y130315D02*
Y142126D01*
X110039D01*
X104527Y130315D02*
X110039D01*
X251181Y118110D02*
X262598D01*
X251181Y123622D02*
X262598D01*
Y118110D02*
Y123622D01*
X251181Y118110D02*
Y123622D01*
X234823Y118110D02*
X246634D01*
X234823Y123622D02*
X246634D01*
Y118110D02*
Y123622D01*
X234823Y118110D02*
Y123622D01*
X171654Y118110D02*
X183465D01*
X171654Y123622D02*
X183465D01*
Y118110D02*
Y123622D01*
X171654Y118110D02*
Y123622D01*
X203051Y123622D02*
X214469D01*
X203051Y118110D02*
X214469D01*
X203051D02*
Y123622D01*
X214469Y118110D02*
Y123622D01*
X229902Y118110D02*
Y123622D01*
X218091Y118110D02*
Y123622D01*
Y118110D02*
X229902D01*
X218091Y123622D02*
X229902D01*
M02*
