G04*
G04 #@! TF.GenerationSoftware,Altium Limited,Altium Designer,18.1.9 (240)*
G04*
G04 Layer_Color=16711935*
%FSLAX25Y25*%
%MOIN*%
G70*
G01*
G75*
%ADD10C,0.00984*%
%ADD33C,0.00394*%
%ADD34R,0.02489X0.15512*%
D10*
X202658Y267913D02*
G03*
X202658Y267913I-492J0D01*
G01*
X250886D02*
G03*
X250886Y267913I-492J0D01*
G01*
X299114D02*
G03*
X299114Y267913I-492J0D01*
G01*
D33*
X242717Y140354D02*
G03*
X242717Y140354I-1969J0D01*
G01*
X228937Y173819D02*
G03*
X228937Y173819I-1969J0D01*
G01*
X264370Y178740D02*
G03*
X264370Y178740I-1969J0D01*
G01*
X273228Y140354D02*
G03*
X273228Y140354I-1969J0D01*
G01*
X225787Y149016D02*
G03*
X225787Y149016I-1969J0D01*
G01*
X179921Y258858D02*
X200000D01*
X179921D02*
Y268701D01*
X200000D01*
Y258858D02*
Y268701D01*
X248228Y258858D02*
Y268701D01*
X228150D02*
X248228D01*
X228150Y258858D02*
Y268701D01*
Y258858D02*
X248228D01*
X276378D02*
X296457D01*
X276378D02*
Y268701D01*
X296457D01*
Y258858D02*
Y268701D01*
X310039Y233386D02*
X328543D01*
X310039Y248898D02*
X328543D01*
Y233386D02*
Y248898D01*
X310039Y233386D02*
Y248898D01*
X144291Y233386D02*
X162795D01*
X144291Y248898D02*
X162795D01*
Y233386D02*
Y248898D01*
X144291Y233386D02*
Y248898D01*
X184843Y134055D02*
Y137598D01*
X191142Y134055D02*
Y137598D01*
X184843D02*
X191142D01*
X184843Y134055D02*
X191142D01*
X182677Y180000D02*
X201181D01*
X182677Y164488D02*
X201181D01*
X182677D02*
Y180000D01*
X201181Y164488D02*
Y180000D01*
X237205Y136811D02*
X256890D01*
X237205Y152559D02*
X256890D01*
X237205Y136811D02*
Y152559D01*
X256890Y136811D02*
Y152559D01*
X223425Y170276D02*
X243110D01*
X223425Y186024D02*
X243110D01*
X223425Y170276D02*
Y186024D01*
X243110Y170276D02*
Y186024D01*
X258858Y175197D02*
X278543D01*
X258858Y190945D02*
X278543D01*
X258858Y175197D02*
Y190945D01*
X278543Y175197D02*
Y190945D01*
X267717Y136811D02*
X287402D01*
X267717Y152559D02*
X287402D01*
X267717Y136811D02*
Y152559D01*
X287402Y136811D02*
Y152559D01*
X207677Y152559D02*
X227362D01*
X207677Y136811D02*
X227362D01*
Y152559D01*
X207677Y136811D02*
Y152559D01*
X184843Y192126D02*
Y195669D01*
X191142Y192126D02*
Y195669D01*
X184843D02*
X191142D01*
X184843Y192126D02*
X191142D01*
X203543Y121260D02*
Y124803D01*
X197244Y121260D02*
Y124803D01*
Y121260D02*
X203543D01*
X197244Y124803D02*
X203543D01*
X213779Y121260D02*
Y124803D01*
X220079Y121260D02*
Y124803D01*
X213779D02*
X220079D01*
X213779Y121260D02*
X220079D01*
X255118Y121260D02*
Y124803D01*
X248819Y121260D02*
Y124803D01*
Y121260D02*
X255118D01*
X248819Y124803D02*
X255118D01*
X264567Y121260D02*
Y124803D01*
X270866Y121260D02*
Y124803D01*
X264567D02*
X270866D01*
X264567Y121260D02*
X270866D01*
X184843Y148819D02*
Y152362D01*
X191142Y148819D02*
Y152362D01*
X184843D02*
X191142D01*
X184843Y148819D02*
X191142D01*
D34*
X311284Y241142D02*
D03*
X145536Y241142D02*
D03*
X199937Y172244D02*
D03*
M02*
