G04*
G04 #@! TF.GenerationSoftware,Altium Limited,Altium Designer,18.1.9 (240)*
G04*
G04 Layer_Physical_Order=2*
G04 Layer_Color=16711680*
%FSLAX25Y25*%
%MOIN*%
G70*
G01*
G75*
%ADD12C,0.01000*%
%ADD21R,0.06496X0.06496*%
%ADD22C,0.06496*%
%ADD28C,0.03937*%
%ADD29C,0.04331*%
%ADD30C,0.06299*%
%ADD31C,0.23622*%
%ADD32C,0.15748*%
G36*
X373031Y80709D02*
X100394D01*
Y273622D01*
X373031D01*
X373031Y80709D01*
D02*
G37*
%LPC*%
G36*
X295665Y268028D02*
X287169D01*
Y259531D01*
X295665D01*
Y268028D01*
D02*
G37*
G36*
X247437D02*
X238941D01*
Y259531D01*
X247437D01*
Y268028D01*
D02*
G37*
G36*
X199209D02*
X190713D01*
Y259531D01*
X199209D01*
Y268028D01*
D02*
G37*
G36*
X281417Y268064D02*
X280308Y267918D01*
X279275Y267490D01*
X278388Y266809D01*
X277707Y265922D01*
X277279Y264889D01*
X277133Y263779D01*
X277279Y262671D01*
X277707Y261637D01*
X278388Y260750D01*
X279275Y260069D01*
X280308Y259641D01*
X281417Y259495D01*
X282526Y259641D01*
X283560Y260069D01*
X284447Y260750D01*
X285128Y261637D01*
X285556Y262671D01*
X285702Y263779D01*
X285556Y264889D01*
X285128Y265922D01*
X284447Y266809D01*
X283560Y267490D01*
X282526Y267918D01*
X281417Y268064D01*
D02*
G37*
G36*
X233189D02*
X232080Y267918D01*
X231047Y267490D01*
X230159Y266809D01*
X229478Y265922D01*
X229050Y264889D01*
X228904Y263779D01*
X229050Y262671D01*
X229478Y261637D01*
X230159Y260750D01*
X231047Y260069D01*
X232080Y259641D01*
X233189Y259495D01*
X234298Y259641D01*
X235331Y260069D01*
X236219Y260750D01*
X236900Y261637D01*
X237328Y262671D01*
X237474Y263779D01*
X237328Y264889D01*
X236900Y265922D01*
X236219Y266809D01*
X235331Y267490D01*
X234298Y267918D01*
X233189Y268064D01*
D02*
G37*
G36*
X184961D02*
X183852Y267918D01*
X182818Y267490D01*
X181931Y266809D01*
X181250Y265922D01*
X180822Y264889D01*
X180676Y263779D01*
X180822Y262671D01*
X181250Y261637D01*
X181931Y260750D01*
X182818Y260069D01*
X183852Y259641D01*
X184961Y259495D01*
X186070Y259641D01*
X187103Y260069D01*
X187990Y260750D01*
X188671Y261637D01*
X189099Y262671D01*
X189245Y263779D01*
X189099Y264889D01*
X188671Y265922D01*
X187990Y266809D01*
X187103Y267490D01*
X186070Y267918D01*
X184961Y268064D01*
D02*
G37*
G36*
X356799Y269701D02*
Y257390D01*
X369110D01*
X368992Y258900D01*
X368521Y260861D01*
X367749Y262724D01*
X366696Y264443D01*
X365386Y265977D01*
X363853Y267286D01*
X362133Y268340D01*
X360270Y269111D01*
X358310Y269582D01*
X356799Y269701D01*
D02*
G37*
G36*
X355799D02*
X354289Y269582D01*
X352328Y269111D01*
X350465Y268340D01*
X348746Y267286D01*
X347212Y265977D01*
X345903Y264443D01*
X344849Y262724D01*
X344077Y260861D01*
X343607Y258900D01*
X343488Y257390D01*
X355799D01*
Y269701D01*
D02*
G37*
G36*
X117626D02*
Y257390D01*
X129937D01*
X129818Y258900D01*
X129348Y260861D01*
X128576Y262724D01*
X127522Y264443D01*
X126213Y265977D01*
X124679Y267286D01*
X122960Y268340D01*
X121097Y269111D01*
X119136Y269582D01*
X117626Y269701D01*
D02*
G37*
G36*
X116626D02*
X115116Y269582D01*
X113155Y269111D01*
X111292Y268340D01*
X109573Y267286D01*
X108039Y265977D01*
X106730Y264443D01*
X105676Y262724D01*
X104904Y260861D01*
X104434Y258900D01*
X104315Y257390D01*
X116626D01*
Y269701D01*
D02*
G37*
G36*
X369110Y256390D02*
X356799D01*
Y244078D01*
X358310Y244197D01*
X360270Y244668D01*
X362133Y245440D01*
X363853Y246493D01*
X365386Y247803D01*
X366696Y249336D01*
X367749Y251056D01*
X368521Y252919D01*
X368992Y254879D01*
X369110Y256390D01*
D02*
G37*
G36*
X355799D02*
X343488D01*
X343607Y254879D01*
X344077Y252919D01*
X344849Y251056D01*
X345903Y249336D01*
X347212Y247803D01*
X348746Y246493D01*
X350465Y245440D01*
X352328Y244668D01*
X354289Y244197D01*
X355799Y244078D01*
Y256390D01*
D02*
G37*
G36*
X129937D02*
X117626D01*
Y244078D01*
X119136Y244197D01*
X121097Y244668D01*
X122960Y245440D01*
X124679Y246493D01*
X126213Y247803D01*
X127522Y249336D01*
X128576Y251056D01*
X129348Y252919D01*
X129818Y254879D01*
X129937Y256390D01*
D02*
G37*
G36*
X116626D02*
X104315D01*
X104434Y254879D01*
X104904Y252919D01*
X105676Y251056D01*
X106730Y249336D01*
X108039Y247803D01*
X109573Y246493D01*
X111292Y245440D01*
X113155Y244668D01*
X115116Y244197D01*
X116626Y244078D01*
Y256390D01*
D02*
G37*
G36*
X274606Y245319D02*
X273780Y245210D01*
X273010Y244891D01*
X272349Y244384D01*
X271841Y243722D01*
X271814Y243655D01*
X257714D01*
X257686Y243722D01*
X257179Y244384D01*
X256518Y244891D01*
X255748Y245210D01*
X254921Y245319D01*
X254095Y245210D01*
X253325Y244891D01*
X252664Y244384D01*
X252156Y243722D01*
X251837Y242952D01*
X251729Y242126D01*
X251837Y241300D01*
X251865Y241233D01*
X240060Y229428D01*
X239729Y228932D01*
X239612Y228346D01*
Y198659D01*
X239545Y198631D01*
X238884Y198124D01*
X238377Y197462D01*
X238058Y196693D01*
X237949Y195866D01*
X238058Y195040D01*
X238086Y194973D01*
X217870Y174758D01*
X212438D01*
X212411Y174825D01*
X211903Y175486D01*
X211242Y175993D01*
X210472Y176312D01*
X209646Y176421D01*
X208819Y176312D01*
X208049Y175993D01*
X207388Y175486D01*
X206881Y174825D01*
X206562Y174055D01*
X206453Y173228D01*
X206562Y172402D01*
X206881Y171632D01*
X207388Y170971D01*
X208049Y170463D01*
X208819Y170144D01*
X209646Y170036D01*
X210472Y170144D01*
X211242Y170463D01*
X211903Y170971D01*
X212411Y171632D01*
X212438Y171699D01*
X218504D01*
X219089Y171815D01*
X219585Y172147D01*
X240248Y192810D01*
X240315Y192782D01*
X241142Y192674D01*
X241968Y192782D01*
X242738Y193101D01*
X243399Y193609D01*
X243907Y194270D01*
X244226Y195040D01*
X244334Y195866D01*
X244226Y196693D01*
X243907Y197462D01*
X243399Y198124D01*
X242738Y198631D01*
X242671Y198659D01*
Y227713D01*
X254028Y239070D01*
X254095Y239042D01*
X254921Y238933D01*
X255748Y239042D01*
X256518Y239361D01*
X257179Y239868D01*
X257686Y240530D01*
X257714Y240597D01*
X271814D01*
X271841Y240530D01*
X272349Y239868D01*
X273010Y239361D01*
X273780Y239042D01*
X274606Y238933D01*
X275433Y239042D01*
X276203Y239361D01*
X276864Y239868D01*
X277371Y240530D01*
X277690Y241300D01*
X277799Y242126D01*
X277690Y242952D01*
X277371Y243722D01*
X276864Y244384D01*
X276203Y244891D01*
X275433Y245210D01*
X274606Y245319D01*
D02*
G37*
G36*
X194882D02*
X194056Y245210D01*
X193839Y245120D01*
X130905D01*
X130131Y245018D01*
X129408Y244719D01*
X128788Y244243D01*
X117962Y233416D01*
X117486Y232796D01*
X117187Y232074D01*
X117085Y231299D01*
Y178937D01*
X117187Y178162D01*
X117486Y177440D01*
X117962Y176820D01*
X159547Y135234D01*
X159637Y135018D01*
X160144Y134357D01*
X160805Y133849D01*
X161575Y133530D01*
X162402Y133422D01*
X163228Y133530D01*
X163998Y133849D01*
X164659Y134357D01*
X165166Y135018D01*
X165485Y135788D01*
X165594Y136614D01*
X165485Y137441D01*
X165166Y138210D01*
X164659Y138872D01*
X163998Y139379D01*
X163781Y139469D01*
X123073Y180177D01*
Y230059D01*
X132146Y239132D01*
X193839D01*
X194056Y239042D01*
X194882Y238933D01*
X195708Y239042D01*
X196478Y239361D01*
X197139Y239868D01*
X197647Y240530D01*
X197966Y241300D01*
X198074Y242126D01*
X197966Y242952D01*
X197647Y243722D01*
X197139Y244384D01*
X196478Y244891D01*
X195708Y245210D01*
X194882Y245319D01*
D02*
G37*
G36*
X243189Y253193D02*
X242363Y253084D01*
X241593Y252765D01*
X240931Y252257D01*
X240424Y251596D01*
X240334Y251380D01*
X204547Y215593D01*
X195925D01*
X195708Y215682D01*
X194882Y215791D01*
X194056Y215682D01*
X193286Y215363D01*
X192624Y214856D01*
X192117Y214195D01*
X191798Y213425D01*
X191689Y212598D01*
X191798Y211772D01*
X192117Y211002D01*
X192624Y210341D01*
X193286Y209834D01*
X194056Y209515D01*
X194882Y209406D01*
X195708Y209515D01*
X195925Y209604D01*
X205787D01*
X206562Y209706D01*
X207284Y210005D01*
X207905Y210481D01*
X244569Y247145D01*
X244785Y247235D01*
X245446Y247743D01*
X245954Y248404D01*
X246273Y249174D01*
X246382Y250000D01*
X246273Y250826D01*
X245954Y251596D01*
X245446Y252257D01*
X244785Y252765D01*
X244015Y253084D01*
X243189Y253193D01*
D02*
G37*
G36*
X162402Y219531D02*
X161575Y219422D01*
X160805Y219104D01*
X160144Y218596D01*
X159637Y217935D01*
X159318Y217165D01*
X159209Y216339D01*
X159318Y215512D01*
X159637Y214742D01*
X160144Y214081D01*
X160805Y213574D01*
X161575Y213255D01*
X162402Y213146D01*
X163228Y213255D01*
X163998Y213574D01*
X164659Y214081D01*
X165166Y214742D01*
X165485Y215512D01*
X165594Y216339D01*
X165485Y217165D01*
X165166Y217935D01*
X164659Y218596D01*
X163998Y219104D01*
X163228Y219422D01*
X162402Y219531D01*
D02*
G37*
G36*
X335630Y227397D02*
X281496Y227397D01*
X281106Y227320D01*
X280775Y227099D01*
X269948Y216272D01*
X269727Y215941D01*
X269650Y215551D01*
X269650Y210630D01*
X269727Y210240D01*
X269948Y209909D01*
X271917Y207941D01*
X272248Y207719D01*
X272638Y207642D01*
X276772D01*
X277162Y207719D01*
X277493Y207941D01*
X289005Y219453D01*
X307290D01*
X307459Y218953D01*
X306994Y218596D01*
X306487Y217935D01*
X306168Y217165D01*
X306059Y216339D01*
X306168Y215512D01*
X306487Y214742D01*
X306994Y214081D01*
X307656Y213574D01*
X307723Y213546D01*
Y199446D01*
X307656Y199418D01*
X306994Y198911D01*
X306487Y198250D01*
X306168Y197480D01*
X306059Y196653D01*
X306168Y195827D01*
X306487Y195057D01*
X306994Y194396D01*
X307656Y193889D01*
X307723Y193861D01*
Y178980D01*
X289111Y160368D01*
X252228D01*
X251088Y161508D01*
X251115Y161575D01*
X251224Y162402D01*
X251115Y163228D01*
X250796Y163998D01*
X250289Y164659D01*
X249628Y165166D01*
X248858Y165485D01*
X248031Y165594D01*
X247205Y165485D01*
X246435Y165166D01*
X245774Y164659D01*
X245267Y163998D01*
X244948Y163228D01*
X244839Y162402D01*
X244948Y161575D01*
X245267Y160805D01*
X245774Y160144D01*
X246435Y159637D01*
X247205Y159318D01*
X248031Y159209D01*
X248858Y159318D01*
X248925Y159345D01*
X250513Y157757D01*
X251009Y157426D01*
X251594Y157309D01*
X259868D01*
X260038Y156809D01*
X260006Y156785D01*
X259499Y156124D01*
X259180Y155354D01*
X259071Y154528D01*
X259180Y153701D01*
X259208Y153634D01*
X256709Y151136D01*
X200956D01*
X200919Y151417D01*
X200600Y152187D01*
X200092Y152848D01*
X199431Y153356D01*
X198661Y153674D01*
X197835Y153783D01*
X197008Y153674D01*
X196238Y153356D01*
X195577Y152848D01*
X195070Y152187D01*
X194751Y151417D01*
X194642Y150591D01*
X194751Y149764D01*
X195070Y148994D01*
X195577Y148333D01*
X196238Y147826D01*
X197008Y147507D01*
X197835Y147398D01*
X198661Y147507D01*
X199431Y147826D01*
X199759Y148077D01*
X257343D01*
X257928Y148193D01*
X258424Y148525D01*
X261370Y151471D01*
X261437Y151444D01*
X262264Y151335D01*
X263090Y151444D01*
X263860Y151763D01*
X264521Y152270D01*
X265029Y152931D01*
X265348Y153701D01*
X265456Y154528D01*
X265348Y155354D01*
X265029Y156124D01*
X264521Y156785D01*
X264490Y156809D01*
X264660Y157309D01*
X289744D01*
X290329Y157426D01*
X290826Y157757D01*
X310333Y177265D01*
X310665Y177761D01*
X310781Y178347D01*
Y193861D01*
X310848Y193889D01*
X311509Y194396D01*
X312017Y195057D01*
X312336Y195827D01*
X312445Y196653D01*
X312336Y197480D01*
X312017Y198250D01*
X311509Y198911D01*
X310848Y199418D01*
X310781Y199446D01*
Y213546D01*
X310848Y213574D01*
X311509Y214081D01*
X312017Y214742D01*
X312336Y215512D01*
X312445Y216339D01*
X312336Y217165D01*
X312017Y217935D01*
X311509Y218596D01*
X311045Y218953D01*
X311214Y219453D01*
X328318D01*
X335893Y211877D01*
X336224Y211656D01*
X336614Y211579D01*
X340551Y211579D01*
X340941Y211656D01*
X341272Y211877D01*
X343241Y213846D01*
X343462Y214177D01*
X343539Y214567D01*
Y219488D01*
X343462Y219878D01*
X343241Y220209D01*
X336351Y227099D01*
X336020Y227320D01*
X335630Y227397D01*
D02*
G37*
G36*
X338779Y199846D02*
X337953Y199737D01*
X337183Y199418D01*
X336522Y198911D01*
X336015Y198250D01*
X335696Y197480D01*
X335587Y196653D01*
X335696Y195827D01*
X335723Y195760D01*
X280272Y140309D01*
X237106D01*
X236521Y140192D01*
X236025Y139861D01*
X233177Y137013D01*
X233110Y137041D01*
X232283Y137149D01*
X231457Y137041D01*
X230687Y136722D01*
X230026Y136214D01*
X229519Y135553D01*
X229200Y134783D01*
X229091Y133957D01*
X229200Y133130D01*
X229519Y132360D01*
X230026Y131699D01*
X230687Y131192D01*
X231457Y130873D01*
X232283Y130764D01*
X233110Y130873D01*
X233880Y131192D01*
X234541Y131699D01*
X235048Y132360D01*
X235367Y133130D01*
X235476Y133957D01*
X235367Y134783D01*
X235340Y134850D01*
X237740Y137250D01*
X280906D01*
X281491Y137367D01*
X281987Y137698D01*
X337886Y193597D01*
X337953Y193570D01*
X338779Y193461D01*
X339606Y193570D01*
X340376Y193889D01*
X341037Y194396D01*
X341545Y195057D01*
X341863Y195827D01*
X341972Y196653D01*
X341863Y197480D01*
X341545Y198250D01*
X341037Y198911D01*
X340376Y199418D01*
X339606Y199737D01*
X338779Y199846D01*
D02*
G37*
G36*
X132874Y223774D02*
X132289Y223657D01*
X131793Y223325D01*
X131461Y222829D01*
X131345Y222244D01*
Y219131D01*
X131278Y219104D01*
X130616Y218596D01*
X130109Y217935D01*
X129790Y217165D01*
X129681Y216339D01*
X129790Y215512D01*
X130109Y214742D01*
X130616Y214081D01*
X131278Y213574D01*
X131345Y213546D01*
Y207677D01*
Y199446D01*
X131278Y199418D01*
X130616Y198911D01*
X130109Y198250D01*
X129790Y197480D01*
X129681Y196653D01*
X129790Y195827D01*
X130109Y195057D01*
X130616Y194396D01*
X131278Y193889D01*
X132048Y193570D01*
X132874Y193461D01*
X133700Y193570D01*
X134470Y193889D01*
X135132Y194396D01*
X135639Y195057D01*
X135958Y195827D01*
X136067Y196653D01*
X135958Y197480D01*
X135639Y198250D01*
X135132Y198911D01*
X134470Y199418D01*
X134403Y199446D01*
Y206148D01*
X160784D01*
X172147Y194785D01*
X172643Y194453D01*
X173228Y194337D01*
X223585D01*
X223613Y194270D01*
X224120Y193609D01*
X224782Y193101D01*
X225552Y192782D01*
X226378Y192674D01*
X227204Y192782D01*
X227974Y193101D01*
X228636Y193609D01*
X229143Y194270D01*
X229462Y195040D01*
X229571Y195866D01*
X229462Y196693D01*
X229143Y197462D01*
X228636Y198124D01*
X227974Y198631D01*
X227204Y198950D01*
X226378Y199059D01*
X225552Y198950D01*
X224782Y198631D01*
X224120Y198124D01*
X223613Y197462D01*
X223585Y197396D01*
X173862D01*
X162499Y208759D01*
X162003Y209090D01*
X161417Y209207D01*
X134403D01*
Y213546D01*
X134470Y213574D01*
X135132Y214081D01*
X135639Y214742D01*
X135958Y215512D01*
X136067Y216339D01*
X135958Y217165D01*
X135639Y217935D01*
X135132Y218596D01*
X134470Y219104D01*
X134403Y219131D01*
Y222244D01*
X134287Y222829D01*
X133955Y223325D01*
X133459Y223657D01*
X132874Y223774D01*
D02*
G37*
G36*
X254921Y215791D02*
X254095Y215682D01*
X253325Y215363D01*
X252664Y214856D01*
X252156Y214195D01*
X251837Y213425D01*
X251729Y212598D01*
X251837Y211772D01*
X252156Y211002D01*
X252607Y210414D01*
X252406Y210113D01*
X252290Y209528D01*
X252313Y209409D01*
X252290Y209291D01*
Y181927D01*
X252223Y181899D01*
X251561Y181391D01*
X251054Y180730D01*
X250735Y179960D01*
X250626Y179134D01*
X250735Y178307D01*
X251054Y177538D01*
X251561Y176876D01*
X252223Y176369D01*
X252993Y176050D01*
X253819Y175941D01*
X254645Y176050D01*
X255415Y176369D01*
X256077Y176876D01*
X256584Y177538D01*
X256903Y178307D01*
X257012Y179134D01*
X256903Y179960D01*
X256584Y180730D01*
X256077Y181391D01*
X255415Y181899D01*
X255348Y181927D01*
Y208822D01*
X255350Y208824D01*
X255368Y208913D01*
X256003Y209548D01*
X256069Y209648D01*
X256518Y209834D01*
X257179Y210341D01*
X257686Y211002D01*
X258005Y211772D01*
X258114Y212598D01*
X258005Y213425D01*
X257686Y214195D01*
X257179Y214856D01*
X256518Y215363D01*
X255748Y215682D01*
X254921Y215791D01*
D02*
G37*
G36*
X266701Y167497D02*
Y164870D01*
X269328D01*
X269285Y165196D01*
X268966Y165966D01*
X268458Y166628D01*
X267797Y167135D01*
X267027Y167454D01*
X266701Y167497D01*
D02*
G37*
G36*
X265701D02*
X265374Y167454D01*
X264604Y167135D01*
X263943Y166628D01*
X263436Y165966D01*
X263117Y165196D01*
X263074Y164870D01*
X265701D01*
Y167497D01*
D02*
G37*
G36*
X276949Y174384D02*
X249176D01*
X248590Y174267D01*
X248094Y173936D01*
X237105Y162947D01*
X196850D01*
X196265Y162830D01*
X195769Y162499D01*
X189863Y156593D01*
X189532Y156097D01*
X189416Y155512D01*
Y145669D01*
X189532Y145084D01*
X189863Y144588D01*
X213038Y121414D01*
Y114094D01*
X212474Y113861D01*
X211607Y113196D01*
X210942Y112329D01*
X210524Y111319D01*
X210382Y110236D01*
X210524Y109153D01*
X210942Y108143D01*
X211607Y107277D01*
X212474Y106612D01*
X213484Y106193D01*
X214567Y106051D01*
X215650Y106193D01*
X216660Y106612D01*
X217527Y107277D01*
X218192Y108143D01*
X218610Y109153D01*
X218752Y110236D01*
X218610Y111319D01*
X218192Y112329D01*
X217527Y113196D01*
X216660Y113861D01*
X216096Y114094D01*
Y122047D01*
X215980Y122633D01*
X215648Y123129D01*
X192474Y146303D01*
Y154878D01*
X197484Y159888D01*
X237739D01*
X238324Y160004D01*
X238820Y160336D01*
X249809Y171325D01*
X276315D01*
X279424Y168216D01*
X279396Y168149D01*
X279288Y167323D01*
X279396Y166497D01*
X279715Y165726D01*
X280223Y165065D01*
X280884Y164558D01*
X281654Y164239D01*
X282480Y164130D01*
X283307Y164239D01*
X284077Y164558D01*
X284738Y165065D01*
X285245Y165726D01*
X285564Y166497D01*
X285673Y167323D01*
X285564Y168149D01*
X285245Y168919D01*
X284738Y169580D01*
X284077Y170088D01*
X283307Y170407D01*
X282480Y170516D01*
X281654Y170407D01*
X281587Y170379D01*
X278030Y173936D01*
X277534Y174267D01*
X276949Y174384D01*
D02*
G37*
G36*
X162402Y199846D02*
X161575Y199737D01*
X160805Y199418D01*
X160144Y198911D01*
X159637Y198250D01*
X159318Y197480D01*
X159209Y196653D01*
X159318Y195827D01*
X159637Y195057D01*
X160144Y194396D01*
X160805Y193889D01*
X161575Y193570D01*
X162402Y193461D01*
X163228Y193570D01*
X163295Y193597D01*
X190651Y166241D01*
X191147Y165910D01*
X191732Y165793D01*
X215711D01*
X215739Y165726D01*
X216246Y165065D01*
X216908Y164558D01*
X217678Y164239D01*
X218504Y164130D01*
X219330Y164239D01*
X220100Y164558D01*
X220761Y165065D01*
X221269Y165726D01*
X221588Y166497D01*
X221697Y167323D01*
X221588Y168149D01*
X221269Y168919D01*
X220761Y169580D01*
X220100Y170088D01*
X219330Y170407D01*
X218504Y170516D01*
X217678Y170407D01*
X216908Y170088D01*
X216246Y169580D01*
X215739Y168919D01*
X215711Y168852D01*
X192366D01*
X165458Y195760D01*
X165485Y195827D01*
X165594Y196653D01*
X165485Y197480D01*
X165166Y198250D01*
X164659Y198911D01*
X163998Y199418D01*
X163228Y199737D01*
X162402Y199846D01*
D02*
G37*
G36*
X269328Y163870D02*
X266701D01*
Y161243D01*
X267027Y161286D01*
X267797Y161605D01*
X268458Y162112D01*
X268966Y162774D01*
X269285Y163544D01*
X269328Y163870D01*
D02*
G37*
G36*
X265701D02*
X263074D01*
X263117Y163544D01*
X263436Y162774D01*
X263943Y162112D01*
X264604Y161605D01*
X265374Y161286D01*
X265701Y161243D01*
Y163870D01*
D02*
G37*
G36*
X231799Y158639D02*
Y156012D01*
X234426D01*
X234383Y156338D01*
X234064Y157108D01*
X233557Y157769D01*
X232895Y158277D01*
X232125Y158596D01*
X231799Y158639D01*
D02*
G37*
G36*
X230799D02*
X230473Y158596D01*
X229703Y158277D01*
X229042Y157769D01*
X228534Y157108D01*
X228215Y156338D01*
X228172Y156012D01*
X230799D01*
Y158639D01*
D02*
G37*
G36*
X234426Y155012D02*
X231799D01*
Y152385D01*
X232125Y152428D01*
X232895Y152747D01*
X233557Y153254D01*
X234064Y153916D01*
X234383Y154685D01*
X234426Y155012D01*
D02*
G37*
G36*
X230799D02*
X228172D01*
X228215Y154685D01*
X228534Y153916D01*
X229042Y153254D01*
X229703Y152747D01*
X230473Y152428D01*
X230799Y152385D01*
Y155012D01*
D02*
G37*
G36*
X263779Y150830D02*
X262953Y150722D01*
X262183Y150403D01*
X261522Y149895D01*
X261015Y149234D01*
X260696Y148464D01*
X260587Y147638D01*
X260595Y147575D01*
X260265Y147199D01*
X235236D01*
X234651Y147082D01*
X234155Y146751D01*
X233177Y145773D01*
X233110Y145800D01*
X232283Y145909D01*
X231457Y145800D01*
X230687Y145482D01*
X230026Y144974D01*
X229519Y144313D01*
X229200Y143543D01*
X229091Y142717D01*
X229200Y141890D01*
X229519Y141120D01*
X230026Y140459D01*
X230687Y139952D01*
X231457Y139633D01*
X232283Y139524D01*
X233110Y139633D01*
X233880Y139952D01*
X234541Y140459D01*
X235048Y141120D01*
X235367Y141890D01*
X235476Y142717D01*
X235367Y143543D01*
X235340Y143610D01*
X235870Y144140D01*
X261811D01*
X262396Y144256D01*
X262884Y144582D01*
X262953Y144554D01*
X263779Y144445D01*
X264606Y144554D01*
X265376Y144873D01*
X266037Y145380D01*
X266545Y146042D01*
X266863Y146811D01*
X266972Y147638D01*
X266863Y148464D01*
X266545Y149234D01*
X266037Y149895D01*
X265376Y150403D01*
X264606Y150722D01*
X263779Y150830D01*
D02*
G37*
G36*
X338779Y139807D02*
X337953Y139698D01*
X337183Y139379D01*
X336522Y138872D01*
X336015Y138210D01*
X335696Y137441D01*
X335587Y136614D01*
X335696Y135788D01*
X336015Y135018D01*
X336522Y134357D01*
X337183Y133849D01*
X337953Y133530D01*
X338779Y133422D01*
X339606Y133530D01*
X340376Y133849D01*
X341037Y134357D01*
X341545Y135018D01*
X341863Y135788D01*
X341972Y136614D01*
X341863Y137441D01*
X341545Y138210D01*
X341037Y138872D01*
X340376Y139379D01*
X339606Y139698D01*
X338779Y139807D01*
D02*
G37*
G36*
X309252D02*
X308426Y139698D01*
X307656Y139379D01*
X306994Y138872D01*
X306487Y138210D01*
X306168Y137441D01*
X306059Y136614D01*
X306168Y135788D01*
X306487Y135018D01*
X306994Y134357D01*
X307656Y133849D01*
X308426Y133530D01*
X309252Y133422D01*
X310078Y133530D01*
X310848Y133849D01*
X311509Y134357D01*
X312017Y135018D01*
X312336Y135788D01*
X312445Y136614D01*
X312336Y137441D01*
X312017Y138210D01*
X311509Y138872D01*
X310848Y139379D01*
X310078Y139698D01*
X309252Y139807D01*
D02*
G37*
G36*
X132874D02*
X132048Y139698D01*
X131278Y139379D01*
X130616Y138872D01*
X130109Y138210D01*
X129790Y137441D01*
X129681Y136614D01*
X129790Y135788D01*
X130109Y135018D01*
X130616Y134357D01*
X131278Y133849D01*
X132048Y133530D01*
X132874Y133422D01*
X133700Y133530D01*
X134470Y133849D01*
X135132Y134357D01*
X135639Y135018D01*
X135958Y135788D01*
X136067Y136614D01*
X135958Y137441D01*
X135639Y138210D01*
X135132Y138872D01*
X134470Y139379D01*
X133700Y139698D01*
X132874Y139807D01*
D02*
G37*
G36*
X260216Y136264D02*
X259390Y136155D01*
X258620Y135836D01*
X257959Y135328D01*
X257452Y134667D01*
X257133Y133897D01*
X257024Y133071D01*
X257133Y132245D01*
X257218Y132038D01*
X230055Y104876D01*
X213232D01*
X206800Y111308D01*
X206799Y111319D01*
X206381Y112329D01*
X205715Y113196D01*
X204849Y113861D01*
X203839Y114279D01*
X202756Y114422D01*
X201673Y114279D01*
X200663Y113861D01*
X199796Y113196D01*
X199131Y112329D01*
X198713Y111319D01*
X198571Y110236D01*
X198713Y109153D01*
X199131Y108143D01*
X199796Y107277D01*
X200663Y106612D01*
X201673Y106193D01*
X202756Y106051D01*
X203839Y106193D01*
X204849Y106612D01*
X205715Y107277D01*
X205828Y107423D01*
X206327Y107456D01*
X211517Y102265D01*
X211810Y102069D01*
X211594Y101612D01*
X210401Y101974D01*
X208661Y102145D01*
X206922Y101974D01*
X205249Y101467D01*
X203707Y100643D01*
X202356Y99534D01*
X201247Y98182D01*
X200423Y96641D01*
X199916Y94968D01*
X199744Y93228D01*
X199916Y91489D01*
X200423Y89816D01*
X201247Y88274D01*
X202356Y86923D01*
X203707Y85814D01*
X205249Y84990D01*
X206922Y84483D01*
X208661Y84311D01*
X210401Y84483D01*
X212074Y84990D01*
X213615Y85814D01*
X214967Y86923D01*
X216076Y88274D01*
X216900Y89816D01*
X217407Y91489D01*
X217578Y93228D01*
X217407Y94968D01*
X216900Y96641D01*
X216076Y98182D01*
X214967Y99534D01*
X213615Y100643D01*
X212237Y101379D01*
X212408Y101855D01*
X212598Y101817D01*
X230689D01*
X231274Y101934D01*
X231770Y102265D01*
X259481Y129975D01*
X260216Y129878D01*
X261043Y129987D01*
X261813Y130306D01*
X262474Y130813D01*
X262982Y131474D01*
X263300Y132245D01*
X263409Y133071D01*
X263300Y133897D01*
X262982Y134667D01*
X262474Y135328D01*
X261813Y135836D01*
X261043Y136155D01*
X260216Y136264D01*
D02*
G37*
G36*
X285559Y126040D02*
Y123413D01*
X288186D01*
X288143Y123740D01*
X287824Y124510D01*
X287317Y125171D01*
X286655Y125678D01*
X285885Y125997D01*
X285559Y126040D01*
D02*
G37*
G36*
X284559D02*
X284233Y125997D01*
X283463Y125678D01*
X282802Y125171D01*
X282294Y124510D01*
X281975Y123740D01*
X281932Y123413D01*
X284559D01*
Y126040D01*
D02*
G37*
G36*
X234693Y125961D02*
Y123335D01*
X237320D01*
X237277Y123661D01*
X236958Y124431D01*
X236451Y125092D01*
X235789Y125600D01*
X235019Y125918D01*
X234693Y125961D01*
D02*
G37*
G36*
X233693D02*
X233367Y125918D01*
X232597Y125600D01*
X231935Y125092D01*
X231428Y124431D01*
X231109Y123661D01*
X231066Y123335D01*
X233693D01*
Y125961D01*
D02*
G37*
G36*
X288186Y122413D02*
X285559D01*
Y119787D01*
X285885Y119829D01*
X286655Y120149D01*
X287317Y120656D01*
X287824Y121317D01*
X288143Y122087D01*
X288186Y122413D01*
D02*
G37*
G36*
X284559D02*
X281932D01*
X281975Y122087D01*
X282294Y121317D01*
X282802Y120656D01*
X283463Y120149D01*
X284233Y119829D01*
X284559Y119787D01*
Y122413D01*
D02*
G37*
G36*
X237320Y122335D02*
X234693D01*
Y119708D01*
X235019Y119751D01*
X235789Y120070D01*
X236451Y120577D01*
X236958Y121238D01*
X237277Y122008D01*
X237320Y122335D01*
D02*
G37*
G36*
X233693D02*
X231066D01*
X231109Y122008D01*
X231428Y121238D01*
X231935Y120577D01*
X232597Y120070D01*
X233367Y119751D01*
X233693Y119708D01*
Y122335D01*
D02*
G37*
G36*
X164870Y114631D02*
Y111012D01*
X168490D01*
X168413Y111595D01*
X167995Y112604D01*
X167330Y113471D01*
X166463Y114137D01*
X165453Y114555D01*
X164870Y114631D01*
D02*
G37*
G36*
X163870D02*
X163287Y114555D01*
X162277Y114137D01*
X161410Y113471D01*
X160745Y112604D01*
X160327Y111595D01*
X160250Y111012D01*
X163870D01*
Y114631D01*
D02*
G37*
G36*
X168490Y110012D02*
X164870D01*
Y106392D01*
X165453Y106469D01*
X166463Y106887D01*
X167330Y107552D01*
X167995Y108419D01*
X168413Y109429D01*
X168490Y110012D01*
D02*
G37*
G36*
X163870D02*
X160250D01*
X160327Y109429D01*
X160745Y108419D01*
X161410Y107552D01*
X162277Y106887D01*
X163287Y106469D01*
X163870Y106392D01*
Y110012D01*
D02*
G37*
G36*
X317913Y114697D02*
X316830Y114555D01*
X315821Y114137D01*
X314954Y113471D01*
X314289Y112604D01*
X313871Y111595D01*
X313728Y110512D01*
X313871Y109429D01*
X314289Y108419D01*
X314954Y107552D01*
X315821Y106887D01*
X316830Y106469D01*
X317913Y106326D01*
X318997Y106469D01*
X320006Y106887D01*
X320873Y107552D01*
X321538Y108419D01*
X321956Y109429D01*
X322099Y110512D01*
X321956Y111595D01*
X321538Y112604D01*
X320873Y113471D01*
X320006Y114137D01*
X318997Y114555D01*
X317913Y114697D01*
D02*
G37*
G36*
X306102D02*
X305019Y114555D01*
X304010Y114137D01*
X303143Y113471D01*
X302478Y112604D01*
X302060Y111595D01*
X301917Y110512D01*
X302060Y109429D01*
X302478Y108419D01*
X303143Y107552D01*
X304010Y106887D01*
X305019Y106469D01*
X306102Y106326D01*
X307186Y106469D01*
X308195Y106887D01*
X309062Y107552D01*
X309727Y108419D01*
X310145Y109429D01*
X310288Y110512D01*
X310145Y111595D01*
X309727Y112604D01*
X309062Y113471D01*
X308195Y114137D01*
X307186Y114555D01*
X306102Y114697D01*
D02*
G37*
G36*
X152559D02*
X151476Y114555D01*
X150466Y114137D01*
X149600Y113471D01*
X148934Y112604D01*
X148516Y111595D01*
X148374Y110512D01*
X148516Y109429D01*
X148934Y108419D01*
X149600Y107552D01*
X150466Y106887D01*
X151476Y106469D01*
X152559Y106326D01*
X153642Y106469D01*
X154652Y106887D01*
X155519Y107552D01*
X156184Y108419D01*
X156602Y109429D01*
X156745Y110512D01*
X156602Y111595D01*
X156184Y112604D01*
X155519Y113471D01*
X154652Y114137D01*
X153642Y114555D01*
X152559Y114697D01*
D02*
G37*
G36*
X265748Y114422D02*
X264665Y114279D01*
X263655Y113861D01*
X262789Y113196D01*
X262123Y112329D01*
X261705Y111319D01*
X261563Y110236D01*
X261705Y109153D01*
X262123Y108143D01*
X262789Y107277D01*
X263655Y106612D01*
X264665Y106193D01*
X265748Y106051D01*
X266831Y106193D01*
X267841Y106612D01*
X268708Y107277D01*
X269373Y108143D01*
X269791Y109153D01*
X269933Y110236D01*
X269791Y111319D01*
X269373Y112329D01*
X268708Y113196D01*
X267841Y113861D01*
X266831Y114279D01*
X265748Y114422D01*
D02*
G37*
G36*
X253937D02*
X252854Y114279D01*
X251844Y113861D01*
X250977Y113196D01*
X250312Y112329D01*
X249894Y111319D01*
X249752Y110236D01*
X249894Y109153D01*
X250312Y108143D01*
X250977Y107277D01*
X251844Y106612D01*
X252854Y106193D01*
X253937Y106051D01*
X255020Y106193D01*
X256030Y106612D01*
X256896Y107277D01*
X257562Y108143D01*
X257980Y109153D01*
X258122Y110236D01*
X257980Y111319D01*
X257562Y112329D01*
X256896Y113196D01*
X256030Y113861D01*
X255020Y114279D01*
X253937Y114422D01*
D02*
G37*
G36*
X117626Y110252D02*
Y97941D01*
X129937D01*
X129818Y99451D01*
X129348Y101412D01*
X128576Y103275D01*
X127522Y104994D01*
X126213Y106528D01*
X124679Y107837D01*
X122960Y108891D01*
X121097Y109663D01*
X119136Y110133D01*
X117626Y110252D01*
D02*
G37*
G36*
X116626D02*
X115116Y110133D01*
X113155Y109663D01*
X111292Y108891D01*
X109573Y107837D01*
X108039Y106528D01*
X106730Y104994D01*
X105676Y103275D01*
X104904Y101412D01*
X104434Y99451D01*
X104315Y97941D01*
X116626D01*
Y110252D01*
D02*
G37*
G36*
X354831Y110252D02*
Y97941D01*
X367142D01*
X367023Y99451D01*
X366552Y101412D01*
X365781Y103275D01*
X364727Y104994D01*
X363418Y106528D01*
X361884Y107837D01*
X360165Y108891D01*
X358302Y109663D01*
X356341Y110133D01*
X354831Y110252D01*
D02*
G37*
G36*
X353831D02*
X352320Y110133D01*
X350360Y109663D01*
X348497Y108891D01*
X346777Y107837D01*
X345244Y106528D01*
X343934Y104994D01*
X342881Y103275D01*
X342109Y101412D01*
X341638Y99451D01*
X341519Y97941D01*
X353831D01*
Y110252D01*
D02*
G37*
G36*
X129937Y96941D02*
X117626D01*
Y84630D01*
X119136Y84749D01*
X121097Y85219D01*
X122960Y85991D01*
X124679Y87045D01*
X126213Y88354D01*
X127522Y89887D01*
X128576Y91607D01*
X129348Y93470D01*
X129818Y95431D01*
X129937Y96941D01*
D02*
G37*
G36*
X116626D02*
X104315D01*
X104434Y95431D01*
X104904Y93470D01*
X105676Y91607D01*
X106730Y89887D01*
X108039Y88354D01*
X109573Y87045D01*
X111292Y85991D01*
X113155Y85219D01*
X115116Y84749D01*
X116626Y84630D01*
Y96941D01*
D02*
G37*
G36*
X367142Y96941D02*
X354831D01*
Y84630D01*
X356341Y84749D01*
X358302Y85219D01*
X360165Y85991D01*
X361884Y87045D01*
X363418Y88354D01*
X364727Y89887D01*
X365781Y91607D01*
X366552Y93470D01*
X367023Y95431D01*
X367142Y96941D01*
D02*
G37*
G36*
X353831D02*
X341519D01*
X341638Y95431D01*
X342109Y93470D01*
X342881Y91607D01*
X343934Y89887D01*
X345244Y88354D01*
X346777Y87045D01*
X348497Y85991D01*
X350360Y85219D01*
X352320Y84749D01*
X353831Y84630D01*
Y96941D01*
D02*
G37*
G36*
X312008Y102421D02*
X310268Y102250D01*
X308595Y101742D01*
X307054Y100918D01*
X305703Y99809D01*
X304594Y98458D01*
X303770Y96916D01*
X303262Y95244D01*
X303091Y93504D01*
X303262Y91764D01*
X303770Y90092D01*
X304594Y88550D01*
X305703Y87199D01*
X307054Y86090D01*
X308595Y85266D01*
X310268Y84758D01*
X312008Y84587D01*
X313748Y84758D01*
X315420Y85266D01*
X316962Y86090D01*
X318313Y87199D01*
X319422Y88550D01*
X320246Y90092D01*
X320754Y91764D01*
X320925Y93504D01*
X320754Y95244D01*
X320246Y96916D01*
X319422Y98458D01*
X318313Y99809D01*
X316962Y100918D01*
X315420Y101742D01*
X313748Y102250D01*
X312008Y102421D01*
D02*
G37*
G36*
X158465D02*
X156725Y102250D01*
X155052Y101742D01*
X153511Y100918D01*
X152159Y99809D01*
X151050Y98458D01*
X150226Y96916D01*
X149719Y95244D01*
X149548Y93504D01*
X149719Y91764D01*
X150226Y90092D01*
X151050Y88550D01*
X152159Y87199D01*
X153511Y86090D01*
X155052Y85266D01*
X156725Y84758D01*
X158465Y84587D01*
X160204Y84758D01*
X161877Y85266D01*
X163419Y86090D01*
X164770Y87199D01*
X165879Y88550D01*
X166703Y90092D01*
X167210Y91764D01*
X167382Y93504D01*
X167210Y95244D01*
X166703Y96916D01*
X165879Y98458D01*
X164770Y99809D01*
X163419Y100918D01*
X161877Y101742D01*
X160204Y102250D01*
X158465Y102421D01*
D02*
G37*
G36*
X259842Y102145D02*
X258103Y101974D01*
X256430Y101467D01*
X254889Y100643D01*
X253537Y99534D01*
X252428Y98182D01*
X251604Y96641D01*
X251097Y94968D01*
X250926Y93228D01*
X251097Y91489D01*
X251604Y89816D01*
X252428Y88274D01*
X253537Y86923D01*
X254889Y85814D01*
X256430Y84990D01*
X258103Y84483D01*
X259842Y84311D01*
X261582Y84483D01*
X263255Y84990D01*
X264796Y85814D01*
X266148Y86923D01*
X267257Y88274D01*
X268081Y89816D01*
X268588Y91489D01*
X268759Y93228D01*
X268588Y94968D01*
X268081Y96641D01*
X267257Y98182D01*
X266148Y99534D01*
X264796Y100643D01*
X263255Y101467D01*
X261582Y101974D01*
X259842Y102145D01*
D02*
G37*
%LPD*%
G36*
X342520Y219488D02*
Y214567D01*
X340551Y212598D01*
X336614Y212598D01*
X328740Y220472D01*
X288583Y220472D01*
X276772Y208661D01*
X272638D01*
X270669Y210630D01*
X270669Y215551D01*
X281496Y226378D01*
X335630Y226378D01*
X342520Y219488D01*
D02*
G37*
%LPC*%
G36*
X339280Y219465D02*
Y216839D01*
X341906D01*
X341863Y217165D01*
X341545Y217935D01*
X341037Y218596D01*
X340376Y219104D01*
X339606Y219422D01*
X339280Y219465D01*
D02*
G37*
G36*
X338280D02*
X337953Y219422D01*
X337183Y219104D01*
X336522Y218596D01*
X336015Y217935D01*
X335696Y217165D01*
X335653Y216839D01*
X338280D01*
Y219465D01*
D02*
G37*
G36*
Y215839D02*
X335653D01*
X335696Y215512D01*
X336015Y214742D01*
X336522Y214081D01*
X337183Y213574D01*
X337953Y213255D01*
X338280Y213212D01*
Y215839D01*
D02*
G37*
G36*
X341906D02*
X339280D01*
Y213212D01*
X339606Y213255D01*
X340376Y213574D01*
X341037Y214081D01*
X341545Y214742D01*
X341863Y215512D01*
X341906Y215839D01*
D02*
G37*
G36*
X275106Y215725D02*
Y213098D01*
X277733D01*
X277690Y213425D01*
X277371Y214195D01*
X276864Y214856D01*
X276203Y215363D01*
X275433Y215682D01*
X275106Y215725D01*
D02*
G37*
G36*
X274106D02*
X273780Y215682D01*
X273010Y215363D01*
X272349Y214856D01*
X271841Y214195D01*
X271522Y213425D01*
X271480Y213098D01*
X274106D01*
Y215725D01*
D02*
G37*
G36*
X277733Y212098D02*
X275106D01*
Y209472D01*
X275433Y209515D01*
X276203Y209834D01*
X276864Y210341D01*
X277371Y211002D01*
X277690Y211772D01*
X277733Y212098D01*
D02*
G37*
G36*
X274106D02*
X271480D01*
X271522Y211772D01*
X271841Y211002D01*
X272349Y210341D01*
X273010Y209834D01*
X273780Y209515D01*
X274106Y209472D01*
Y212098D01*
D02*
G37*
%LPD*%
D12*
X212598Y103347D02*
X230689D01*
X205709Y110236D02*
X212598Y103347D01*
X230689D02*
X261201Y133858D01*
X261102Y133957D02*
X261201Y133858D01*
X209646Y173228D02*
X218504D01*
X241142Y195866D01*
X260216Y133071D02*
X261102Y133957D01*
X202756Y110236D02*
X205709D01*
X257343Y149606D02*
X262264Y154528D01*
X198819Y149606D02*
X257343D01*
X197835Y150591D02*
X198819Y149606D01*
X261811Y145669D02*
X263779Y147638D01*
X235236Y145669D02*
X261811D01*
X232283Y142717D02*
X235236Y145669D01*
X237739Y161417D02*
X249176Y172854D01*
X196850Y161417D02*
X237739D01*
X190945Y155512D02*
X196850Y161417D01*
X276949Y172854D02*
X282480Y167323D01*
X249176Y172854D02*
X276949D01*
X289744Y158839D02*
X309252Y178347D01*
X251594Y158839D02*
X289744D01*
X248031Y162402D02*
X251594Y158839D01*
X253819Y179134D02*
Y209291D01*
X253937Y209409D01*
Y211614D02*
X254921Y210630D01*
X253819Y209528D02*
X253937Y209409D01*
X253819Y209528D02*
X254921Y210630D01*
X280906Y138779D02*
X338779Y196653D01*
X237106Y138779D02*
X280906D01*
X232283Y133957D02*
X237106Y138779D01*
X132874Y196653D02*
Y207677D01*
X162402Y196653D02*
X191732Y167323D01*
X218504D01*
X253937Y211614D02*
X254921Y212598D01*
X241142Y228346D02*
X254921Y242126D01*
X241142Y195866D02*
Y228346D01*
X254921Y242126D02*
X274606D01*
X309252Y196653D02*
Y216339D01*
X214567Y110236D02*
Y122047D01*
X190945Y145669D02*
X214567Y122047D01*
X190945Y145669D02*
Y155512D01*
X161417Y207677D02*
X173228Y195866D01*
X226378D01*
X132874Y207677D02*
Y216339D01*
Y207677D02*
X161417D01*
X309252Y178347D02*
Y196653D01*
X132874Y216339D02*
Y222244D01*
X214567Y110236D02*
X214567Y110236D01*
D21*
X194961Y263779D02*
D03*
X243189D02*
D03*
X291417D02*
D03*
D22*
X184961D02*
D03*
X233189D02*
D03*
X281417D02*
D03*
D28*
X205787Y212598D02*
X243189Y250000D01*
X194882Y212598D02*
X205787D01*
X130905Y242126D02*
X194882D01*
X120079Y231299D02*
X130905Y242126D01*
X120079Y178937D02*
Y231299D01*
Y178937D02*
X162402Y136614D01*
D29*
D03*
X132874D02*
D03*
Y196653D02*
D03*
Y216339D02*
D03*
X162402D02*
D03*
Y196653D02*
D03*
X254921Y212598D02*
D03*
X274606D02*
D03*
Y242126D02*
D03*
X254921D02*
D03*
X194882D02*
D03*
Y212598D02*
D03*
X338779Y136614D02*
D03*
X309252D02*
D03*
Y196653D02*
D03*
Y216339D02*
D03*
X338779D02*
D03*
Y196653D02*
D03*
X209646Y173228D02*
D03*
X260216Y133071D02*
D03*
X266201Y164370D02*
D03*
X262264Y154528D02*
D03*
X253819Y179134D02*
D03*
X231299Y155512D02*
D03*
X234193Y122835D02*
D03*
X263779Y147638D02*
D03*
X285059Y122913D02*
D03*
X243189Y250000D02*
D03*
X241142Y195866D02*
D03*
X197835Y150591D02*
D03*
X226378Y195866D02*
D03*
X282480Y167323D02*
D03*
X232283Y133957D02*
D03*
X248031Y162402D02*
D03*
X232283Y142717D02*
D03*
X218504Y167323D02*
D03*
D30*
X306102Y110512D02*
D03*
X317913D02*
D03*
X253937Y110236D02*
D03*
X265748D02*
D03*
X152559Y110512D02*
D03*
X164370D02*
D03*
X202756Y110236D02*
D03*
X214567D02*
D03*
D31*
X354331Y97441D02*
D03*
X356299Y256890D02*
D03*
X117126D02*
D03*
Y97441D02*
D03*
D32*
X312008Y93504D02*
D03*
X259842Y93228D02*
D03*
X158465Y93504D02*
D03*
X208661Y93228D02*
D03*
M02*
