G04*
G04 #@! TF.GenerationSoftware,Altium Limited,Altium Designer,18.1.9 (240)*
G04*
G04 Layer_Color=8421504*
%FSLAX25Y25*%
%MOIN*%
G70*
G01*
G75*
%ADD14R,0.09843X0.08268*%
%ADD15R,0.03150X0.03543*%
%ADD16O,0.02362X0.05709*%
D14*
X325591Y241142D02*
D03*
X312992D02*
D03*
X159843D02*
D03*
X147244D02*
D03*
X185630Y172244D02*
D03*
X198228D02*
D03*
D15*
X185630Y135827D02*
D03*
X190354D02*
D03*
X185630Y193898D02*
D03*
X190354D02*
D03*
X202756Y123031D02*
D03*
X198031D02*
D03*
X214567D02*
D03*
X219291D02*
D03*
X254331D02*
D03*
X249606D02*
D03*
X265354D02*
D03*
X270079D02*
D03*
X185630Y150591D02*
D03*
X190354D02*
D03*
D16*
X239547Y133957D02*
D03*
X244547D02*
D03*
X249547D02*
D03*
X254547D02*
D03*
X239547Y155413D02*
D03*
X244547D02*
D03*
X249547D02*
D03*
X254547D02*
D03*
X225768Y167421D02*
D03*
X230768D02*
D03*
X235768D02*
D03*
X240768D02*
D03*
X225768Y188878D02*
D03*
X230768D02*
D03*
X235768D02*
D03*
X240768D02*
D03*
X261201Y172343D02*
D03*
X266201D02*
D03*
X271201D02*
D03*
X276201D02*
D03*
X261201Y193799D02*
D03*
X266201D02*
D03*
X271201D02*
D03*
X276201D02*
D03*
X270059Y133957D02*
D03*
X275059D02*
D03*
X280059D02*
D03*
X285059D02*
D03*
X270059Y155413D02*
D03*
X275059D02*
D03*
X280059D02*
D03*
X285059D02*
D03*
X225020Y155413D02*
D03*
X220020D02*
D03*
X215020D02*
D03*
X210020D02*
D03*
X225020Y133957D02*
D03*
X220020D02*
D03*
X215020D02*
D03*
X210020D02*
D03*
M02*
