G04 Layer_Physical_Order=1*
G04 Layer_Color=255*
%FSLAX25Y25*%
%MOIN*%
G70*
G01*
G75*
%ADD10R,0.02362X0.02165*%
%ADD11R,0.02165X0.02362*%
%ADD12R,0.11000X0.03000*%
%ADD13C,0.01000*%
%ADD14C,0.00394*%
%ADD15C,0.00197*%
%ADD16C,0.05118*%
%ADD17C,0.02362*%
G36*
X1452000Y703500D02*
X1452000Y680500D01*
X1448000Y676500D01*
X1445000D01*
Y679000D01*
X1438500D01*
Y680000D01*
X1445000D01*
Y682000D01*
Y684000D01*
X1438500D01*
Y685000D01*
X1445000D01*
Y687349D01*
X1445441Y687584D01*
X1445649Y687445D01*
X1446500Y687276D01*
X1447351Y687445D01*
X1448073Y687927D01*
X1448555Y688649D01*
X1448724Y689500D01*
X1448555Y690351D01*
X1448073Y691073D01*
X1447351Y691555D01*
X1446500Y691724D01*
X1445649Y691555D01*
X1445441Y691416D01*
X1445000Y691651D01*
Y694000D01*
X1438500D01*
Y694500D01*
X1438000D01*
Y697000D01*
X1432029D01*
Y703367D01*
X1435633Y706971D01*
X1448530D01*
X1452000Y703500D01*
D02*
G37*
%LPC*%
G36*
X1445000Y697000D02*
X1439000D01*
Y695000D01*
X1445000D01*
Y697000D01*
D02*
G37*
%LPD*%
D10*
X1432327Y654000D02*
D03*
X1435673D02*
D03*
D11*
X1445000Y641673D02*
D03*
Y638327D02*
D03*
D12*
X1422516Y674500D02*
D03*
Y679500D02*
D03*
Y684500D02*
D03*
Y689500D02*
D03*
Y694500D02*
D03*
X1438500D02*
D03*
Y689500D02*
D03*
Y684500D02*
D03*
Y679500D02*
D03*
Y674500D02*
D03*
D13*
X1435000Y708500D02*
X1460000D01*
X1430500Y704000D02*
X1435000Y708500D01*
X1430500Y691000D02*
Y704000D01*
X1445000Y641673D02*
Y646000D01*
X1459827Y638327D02*
X1460000Y638500D01*
X1445000Y638327D02*
X1459827D01*
X1438500Y689500D02*
X1446500D01*
X1413000Y666500D02*
Y678000D01*
X1414500Y679500D01*
X1421000Y661000D02*
X1454000D01*
X1415500Y666500D02*
X1421000Y661000D01*
X1413000Y656000D02*
Y666500D01*
X1415500D01*
X1415000Y654000D02*
X1432327D01*
X1413000Y656000D02*
X1415000Y654000D01*
X1460000Y678500D02*
X1463000D01*
X1465000Y676500D01*
Y655500D02*
Y676500D01*
X1463500Y654000D02*
X1465000Y655500D01*
X1435673Y654000D02*
X1463500D01*
X1416000Y658500D02*
X1460000D01*
X1414000Y694500D02*
X1422516D01*
X1457000Y668500D02*
X1460000D01*
X1453000Y664500D02*
X1457000Y668500D01*
X1431500Y664500D02*
X1453000D01*
X1454000Y661000D02*
X1455500Y662500D01*
X1422516Y684500D02*
X1430500D01*
X1423500Y668000D02*
X1452000D01*
X1414500Y679500D02*
X1422516D01*
X1438500Y674500D02*
X1449500D01*
X1422516Y668984D02*
X1423500Y668000D01*
X1422516Y668984D02*
Y674500D01*
X1429000Y689500D02*
X1430500Y691000D01*
X1422516Y689500D02*
X1429000D01*
D14*
X1412000Y734000D02*
X1474000D01*
Y632000D02*
Y734000D01*
X1412000Y632000D02*
X1474000D01*
X1412000D02*
Y734000D01*
X1431933Y652917D02*
Y655083D01*
X1436067Y652917D02*
Y655083D01*
X1431933D02*
X1436067D01*
X1431933Y652917D02*
X1436067D01*
X1443917Y642067D02*
X1446083D01*
X1443917Y637933D02*
X1446083D01*
Y642067D01*
X1443917Y637933D02*
Y642067D01*
X1432917Y654000D02*
X1435083D01*
X1434000Y652917D02*
Y655083D01*
X1445000Y638917D02*
Y641083D01*
X1443917Y640000D02*
X1446083D01*
D15*
X1430457Y652228D02*
Y655772D01*
X1437543Y652228D02*
Y655772D01*
X1430457D02*
X1437543D01*
X1430457Y652228D02*
X1437543D01*
X1443228Y643543D02*
X1446772D01*
X1443228Y636457D02*
X1446772D01*
Y643543D01*
X1443228Y636457D02*
Y643543D01*
D16*
X1460000Y728500D02*
D03*
D03*
Y718500D02*
D03*
Y708500D02*
D03*
Y698500D02*
D03*
Y688500D02*
D03*
Y678500D02*
D03*
Y668500D02*
D03*
Y658500D02*
D03*
Y648500D02*
D03*
Y638500D02*
D03*
X1470000Y728500D02*
D03*
Y638500D02*
D03*
Y648500D02*
D03*
Y658500D02*
D03*
Y668500D02*
D03*
Y678500D02*
D03*
Y688500D02*
D03*
Y698500D02*
D03*
Y708500D02*
D03*
Y718500D02*
D03*
D17*
X1443500Y704500D02*
D03*
X1437500D02*
D03*
X1446000Y700500D02*
D03*
X1440500D02*
D03*
X1434500D02*
D03*
X1445000Y646000D02*
D03*
X1446500Y689500D02*
D03*
X1416000Y658500D02*
D03*
X1414000Y694500D02*
D03*
X1431500Y664500D02*
D03*
X1455500Y662500D02*
D03*
X1430500Y684500D02*
D03*
X1452000Y668000D02*
D03*
X1449500Y674500D02*
D03*
M02*
