M48
;Layer_Color=9474304
;FILE_FORMAT=2:5
INCH,LZ
;TYPE=PLATED
T1F00S00C0.01575
T2F00S00C0.03937
%
T01
X1416Y06585
X14315Y06645
X14305Y06845
X14345Y07005
X14405
X1446
X14435Y07045
X14375
X14465Y06895
X14495Y06745
X1452Y0668
X14555Y06625
X1445Y0646
X1414Y06945
T02
X146Y06385
X147
Y06485
Y06585
Y06685
Y06785
Y06885
Y06985
Y07085
Y07185
Y07285
X146
Y07185
Y07085
Y06985
Y06885
Y06785
Y06685
Y06585
Y06485
M30
