G04 Layer_Color=32896*
%FSLAX25Y25*%
%MOIN*%
G70*
G01*
G75*
%ADD19C,0.00591*%
D19*
X1458473Y639968D02*
X1461096D01*
Y638000D01*
X1459785Y638656D01*
X1459128D01*
X1458473Y638000D01*
Y636688D01*
X1459128Y636032D01*
X1460440D01*
X1461096Y636688D01*
X1457161Y639968D02*
Y637344D01*
X1455849Y636032D01*
X1454537Y637344D01*
Y639968D01*
X1467000Y649968D02*
Y646032D01*
X1465032D01*
X1464376Y646688D01*
Y649312D01*
X1465032Y649968D01*
X1467000D01*
X1463064D02*
Y646032D01*
X1461096D01*
X1460440Y646688D01*
Y647344D01*
X1461096Y648000D01*
X1463064D01*
X1461096D01*
X1460440Y648656D01*
Y649312D01*
X1461096Y649968D01*
X1463064D01*
X1456505Y649312D02*
X1457161Y649968D01*
X1458473D01*
X1459128Y649312D01*
Y646688D01*
X1458473Y646032D01*
X1457161D01*
X1456505Y646688D01*
Y648000D01*
X1457817D01*
X1455193Y646032D02*
Y649968D01*
X1453225D01*
X1452569Y649312D01*
Y648000D01*
X1453225Y647344D01*
X1455193D01*
X1453881D02*
X1452569Y646032D01*
X1448633Y646688D02*
Y649312D01*
X1449289Y649968D01*
X1450601D01*
X1451257Y649312D01*
Y646688D01*
X1450601Y646032D01*
X1449289D01*
X1449945Y647344D02*
X1448633Y646032D01*
X1449289D02*
X1448633Y646688D01*
X1467000Y656032D02*
Y659968D01*
X1465032D01*
X1464376Y659312D01*
Y658000D01*
X1465032Y657344D01*
X1467000D01*
X1465688D02*
X1464376Y656032D01*
X1460440Y659968D02*
X1463064D01*
Y656032D01*
X1460440D01*
X1463064Y658000D02*
X1461752D01*
X1456505Y659312D02*
X1457161Y659968D01*
X1458473D01*
X1459128Y659312D01*
Y658656D01*
X1458473Y658000D01*
X1457161D01*
X1456505Y657344D01*
Y656688D01*
X1457161Y656032D01*
X1458473D01*
X1459128Y656688D01*
X1452569Y659968D02*
X1455193D01*
Y656032D01*
X1452569D01*
X1455193Y658000D02*
X1453881D01*
X1451257Y659968D02*
X1448633D01*
X1449945D01*
Y656032D01*
X1463064Y669968D02*
X1460440D01*
X1461752D01*
Y666032D01*
X1459128Y669968D02*
Y666032D01*
X1457161D01*
X1456505Y666688D01*
Y669312D01*
X1457161Y669968D01*
X1459128D01*
X1453225D02*
X1454537D01*
X1455193Y669312D01*
Y666688D01*
X1454537Y666032D01*
X1453225D01*
X1452569Y666688D01*
Y669312D01*
X1453225Y669968D01*
X1465032Y676032D02*
Y679968D01*
X1463064D01*
X1462408Y679312D01*
Y678000D01*
X1463064Y677344D01*
X1465032D01*
X1463720D02*
X1462408Y676032D01*
X1461096Y679968D02*
X1458473D01*
X1459785D01*
Y676032D01*
X1454537Y679312D02*
X1455193Y679968D01*
X1456505D01*
X1457161Y679312D01*
Y676688D01*
X1456505Y676032D01*
X1455193D01*
X1454537Y676688D01*
X1453225Y679968D02*
Y676032D01*
Y677344D01*
X1450601Y679968D01*
X1452569Y678000D01*
X1450601Y676032D01*
X1463064Y689968D02*
X1460440D01*
X1461752D01*
Y686032D01*
X1456505Y689312D02*
X1457161Y689968D01*
X1458473D01*
X1459128Y689312D01*
Y686688D01*
X1458473Y686032D01*
X1457161D01*
X1456505Y686688D01*
X1455193Y689968D02*
Y686032D01*
Y687344D01*
X1452569Y689968D01*
X1454537Y688000D01*
X1452569Y686032D01*
X1463064Y699968D02*
X1460440D01*
X1461752D01*
Y696032D01*
X1459128D02*
Y699968D01*
X1457817Y698656D01*
X1456505Y699968D01*
Y696032D01*
X1452569Y699312D02*
X1453225Y699968D01*
X1454537D01*
X1455193Y699312D01*
Y698656D01*
X1454537Y698000D01*
X1453225D01*
X1452569Y697344D01*
Y696688D01*
X1453225Y696032D01*
X1454537D01*
X1455193Y696688D01*
X1462408Y709968D02*
X1459785D01*
X1461096D01*
Y706032D01*
X1458473Y709968D02*
Y706032D01*
X1456505D01*
X1455849Y706688D01*
Y709312D01*
X1456505Y709968D01*
X1458473D01*
X1454537D02*
X1453225D01*
X1453881D01*
Y706032D01*
X1454537D01*
X1453225D01*
X1467000Y716032D02*
Y718656D01*
X1465032D01*
X1464376Y718000D01*
Y716032D01*
X1463064Y719968D02*
X1460440D01*
X1461752D01*
Y716032D01*
X1459128D02*
Y719968D01*
X1457161D01*
X1456505Y719312D01*
Y718000D01*
X1457161Y717344D01*
X1459128D01*
X1457817D02*
X1456505Y716032D01*
X1452569Y719312D02*
X1453225Y719968D01*
X1454537D01*
X1455193Y719312D01*
Y718656D01*
X1454537Y718000D01*
X1453225D01*
X1452569Y717344D01*
Y716688D01*
X1453225Y716032D01*
X1454537D01*
X1455193Y716688D01*
X1451257Y719968D02*
X1448633D01*
X1449945D01*
Y716032D01*
X1441376Y639312D02*
X1442032Y639968D01*
X1443344D01*
X1444000Y639312D01*
Y636688D01*
X1443344Y636032D01*
X1442032D01*
X1441376Y636688D01*
Y638000D01*
X1442688D01*
X1440064Y636032D02*
Y639968D01*
X1437440Y636032D01*
Y639968D01*
X1436129D02*
Y636032D01*
X1434161D01*
X1433505Y636688D01*
Y639312D01*
X1434161Y639968D01*
X1436129D01*
X1441376Y649312D02*
X1442032Y649968D01*
X1443344D01*
X1444000Y649312D01*
Y646688D01*
X1443344Y646032D01*
X1442032D01*
X1441376Y646688D01*
Y648000D01*
X1442688D01*
X1440064Y646032D02*
Y649968D01*
X1437440Y646032D01*
Y649968D01*
X1436129D02*
Y646032D01*
X1434161D01*
X1433505Y646688D01*
Y649312D01*
X1434161Y649968D01*
X1436129D01*
X1441376Y659312D02*
X1442032Y659968D01*
X1443344D01*
X1444000Y659312D01*
Y656688D01*
X1443344Y656032D01*
X1442032D01*
X1441376Y656688D01*
Y658000D01*
X1442688D01*
X1440064Y656032D02*
Y659968D01*
X1437440Y656032D01*
Y659968D01*
X1436129D02*
Y656032D01*
X1434161D01*
X1433505Y656688D01*
Y659312D01*
X1434161Y659968D01*
X1436129D01*
X1441376Y669312D02*
X1442032Y669968D01*
X1443344D01*
X1444000Y669312D01*
Y666688D01*
X1443344Y666032D01*
X1442032D01*
X1441376Y666688D01*
Y668000D01*
X1442688D01*
X1440064Y666032D02*
Y669968D01*
X1437440Y666032D01*
Y669968D01*
X1436129D02*
Y666032D01*
X1434161D01*
X1433505Y666688D01*
Y669312D01*
X1434161Y669968D01*
X1436129D01*
X1441376Y679312D02*
X1442032Y679968D01*
X1443344D01*
X1444000Y679312D01*
Y676688D01*
X1443344Y676032D01*
X1442032D01*
X1441376Y676688D01*
Y678000D01*
X1442688D01*
X1440064Y676032D02*
Y679968D01*
X1437440Y676032D01*
Y679968D01*
X1436129D02*
Y676032D01*
X1434161D01*
X1433505Y676688D01*
Y679312D01*
X1434161Y679968D01*
X1436129D01*
X1441376Y689312D02*
X1442032Y689968D01*
X1443344D01*
X1444000Y689312D01*
Y686688D01*
X1443344Y686032D01*
X1442032D01*
X1441376Y686688D01*
Y688000D01*
X1442688D01*
X1440064Y686032D02*
Y689968D01*
X1437440Y686032D01*
Y689968D01*
X1436129D02*
Y686032D01*
X1434161D01*
X1433505Y686688D01*
Y689312D01*
X1434161Y689968D01*
X1436129D01*
X1441376Y699312D02*
X1442032Y699968D01*
X1443344D01*
X1444000Y699312D01*
Y696688D01*
X1443344Y696032D01*
X1442032D01*
X1441376Y696688D01*
Y698000D01*
X1442688D01*
X1440064Y696032D02*
Y699968D01*
X1437440Y696032D01*
Y699968D01*
X1436129D02*
Y696032D01*
X1434161D01*
X1433505Y696688D01*
Y699312D01*
X1434161Y699968D01*
X1436129D01*
X1441376Y709312D02*
X1442032Y709968D01*
X1443344D01*
X1444000Y709312D01*
Y706688D01*
X1443344Y706032D01*
X1442032D01*
X1441376Y706688D01*
Y708000D01*
X1442688D01*
X1440064Y706032D02*
Y709968D01*
X1437440Y706032D01*
Y709968D01*
X1436129D02*
Y706032D01*
X1434161D01*
X1433505Y706688D01*
Y709312D01*
X1434161Y709968D01*
X1436129D01*
X1441376Y719312D02*
X1442032Y719968D01*
X1443344D01*
X1444000Y719312D01*
Y716688D01*
X1443344Y716032D01*
X1442032D01*
X1441376Y716688D01*
Y718000D01*
X1442688D01*
X1440064Y716032D02*
Y719968D01*
X1437440Y716032D01*
Y719968D01*
X1436129D02*
Y716032D01*
X1434161D01*
X1433505Y716688D01*
Y719312D01*
X1434161Y719968D01*
X1436129D01*
X1442000Y726000D02*
Y729936D01*
X1439376Y726000D01*
Y729936D01*
X1435440Y729280D02*
X1436096Y729936D01*
X1437408D01*
X1438064Y729280D01*
Y726656D01*
X1437408Y726000D01*
X1436096D01*
X1435440Y726656D01*
X1467000Y729968D02*
Y727344D01*
X1465688Y726032D01*
X1464376Y727344D01*
Y729968D01*
X1463064D02*
X1460440D01*
X1461752D01*
Y726032D01*
X1459128D02*
Y729968D01*
X1457161D01*
X1456505Y729312D01*
Y728000D01*
X1457161Y727344D01*
X1459128D01*
X1457817D02*
X1456505Y726032D01*
X1452569Y729968D02*
X1455193D01*
Y726032D01*
X1452569D01*
X1455193Y728000D02*
X1453881D01*
X1448633Y729968D02*
X1451257D01*
Y728000D01*
X1449945D01*
X1451257D01*
Y726032D01*
M02*
