G04 Layer_Color=65535*
%FSLAX25Y25*%
%MOIN*%
G70*
G01*
G75*
%ADD13C,0.01000*%
%ADD14C,0.00394*%
%ADD17C,0.00787*%
%ADD18C,0.00197*%
%ADD19C,0.00591*%
G36*
X1442213Y717813D02*
X1441737D01*
X1441691Y717683D01*
X1442106D01*
X1442006Y717391D01*
X1441591D01*
X1441545Y717260D01*
X1442029D01*
X1441929Y716961D01*
X1441131D01*
X1441492Y718028D01*
X1441630Y718067D01*
X1442313Y718105D01*
X1442213Y717813D01*
D02*
G37*
G36*
X1442866Y718097D02*
X1442920Y718082D01*
X1442935Y718074D01*
X1442958Y718067D01*
X1442997Y718036D01*
X1443027Y717998D01*
X1443035Y717990D01*
X1443051Y717967D01*
X1443058Y717952D01*
X1443112Y718105D01*
X1443964D01*
X1443865Y717821D01*
X1443596D01*
X1443304Y716961D01*
X1442989D01*
X1443294Y717848D01*
X1443071Y717827D01*
X1443074Y717836D01*
Y717859D01*
Y717875D01*
Y717890D01*
X1443066Y717936D01*
X1443058Y717952D01*
X1443012Y717821D01*
X1443071Y717827D01*
X1443066Y717806D01*
Y717767D01*
X1443058Y717721D01*
X1443043Y717660D01*
X1442743D01*
Y717675D01*
Y717698D01*
Y717729D01*
Y717752D01*
Y717760D01*
X1442736Y717767D01*
X1442720Y717790D01*
Y717798D01*
X1442705D01*
X1442690Y717806D01*
X1442682Y717813D01*
X1442667D01*
X1442659Y717806D01*
X1442628Y717798D01*
X1442620D01*
Y717806D01*
X1442605Y717798D01*
X1442582Y717783D01*
X1442574Y717775D01*
X1442551Y717760D01*
X1442536Y717744D01*
X1442528Y717736D01*
X1442513Y717706D01*
Y717698D01*
X1442505Y717683D01*
X1442490Y717652D01*
Y717644D01*
X1442482Y717621D01*
X1442467Y717583D01*
X1442451Y717537D01*
Y717521D01*
X1442436Y717491D01*
X1442428Y717452D01*
X1442413Y717414D01*
Y717406D01*
X1442405Y717391D01*
X1442398Y717368D01*
X1442390Y717345D01*
Y717337D01*
Y717322D01*
Y717314D01*
Y717306D01*
X1442398Y717299D01*
X1442405Y717283D01*
X1442413Y717276D01*
X1442436Y717268D01*
X1442444D01*
Y717260D01*
X1442498D01*
X1442551Y717276D01*
X1442559Y717283D01*
X1442582Y717299D01*
X1442613Y717337D01*
X1442659Y717399D01*
X1442951D01*
X1442928Y717322D01*
Y717314D01*
X1442920Y717306D01*
X1442897Y717260D01*
X1442859Y717199D01*
X1442813Y717145D01*
X1442805Y717137D01*
X1442774Y717107D01*
X1442728Y717076D01*
X1442682Y717045D01*
X1442667Y717038D01*
X1442636Y717022D01*
X1442582Y716999D01*
X1442528Y716976D01*
X1442513D01*
X1442482Y716968D01*
X1442428Y716961D01*
X1442375Y716953D01*
X1442329D01*
X1442290Y716961D01*
X1442244Y716968D01*
X1442237Y716976D01*
X1442213Y716984D01*
X1442183Y716999D01*
X1442152Y717022D01*
X1442144Y717030D01*
X1442137Y717045D01*
X1442098Y717091D01*
Y717099D01*
X1442083Y717114D01*
X1442075Y717137D01*
X1442060Y717176D01*
Y717183D01*
Y717191D01*
X1442052Y717207D01*
Y717214D01*
Y717222D01*
Y717245D01*
Y717253D01*
X1442060Y717260D01*
X1442068Y717291D01*
Y717299D01*
Y717314D01*
X1442075Y717345D01*
X1442091Y717383D01*
X1442098Y717391D01*
X1442106Y717429D01*
X1442121Y717475D01*
X1442144Y717537D01*
Y717545D01*
X1442152Y717552D01*
X1442160Y717591D01*
X1442175Y717637D01*
X1442190Y717683D01*
X1442198Y717690D01*
X1442206Y717721D01*
X1442221Y717752D01*
X1442237Y717783D01*
Y717790D01*
X1442244Y717798D01*
X1442267Y717829D01*
Y717836D01*
X1442275Y717852D01*
X1442306Y717898D01*
X1442313Y717905D01*
X1442329Y717921D01*
X1442359Y717944D01*
X1442398Y717975D01*
X1442405Y717982D01*
X1442428Y717998D01*
X1442467Y718021D01*
X1442505Y718044D01*
X1442513Y718051D01*
X1442544Y718067D01*
X1442582Y718082D01*
X1442628Y718097D01*
X1442644D01*
X1442674Y718105D01*
X1442713Y718113D01*
X1442820D01*
X1442866Y718097D01*
D02*
G37*
G36*
X1440532Y717813D02*
X1440048D01*
X1440002Y717683D01*
X1440416D01*
X1440316Y717391D01*
X1439902D01*
X1439856Y717260D01*
X1440339D01*
X1440240Y716961D01*
X1439449D01*
X1439810Y718028D01*
X1439940Y718067D01*
X1440631Y718105D01*
X1440532Y717813D01*
D02*
G37*
G36*
X1440701Y717260D02*
X1441184D01*
X1441084Y716961D01*
X1440286D01*
X1440654Y718028D01*
X1440785Y718067D01*
X1440992Y718105D01*
X1440701Y717260D01*
D02*
G37*
G36*
X1444525Y718097D02*
X1444571Y718082D01*
X1444579D01*
X1444602Y718067D01*
X1444633Y718051D01*
X1444663Y718028D01*
X1444671Y718021D01*
X1444686Y717990D01*
X1444709Y717951D01*
X1444717Y717905D01*
Y717890D01*
X1444725Y717859D01*
X1444717Y717813D01*
X1444702Y717752D01*
Y717744D01*
X1444694Y717729D01*
X1444686Y717706D01*
X1444671Y717683D01*
X1444625Y717606D01*
X1444563Y717537D01*
X1444548Y717521D01*
X1444510Y717491D01*
X1444464Y717460D01*
X1444410Y717437D01*
X1444471Y716961D01*
X1444164D01*
X1444095Y717383D01*
X1444041D01*
X1443895Y716961D01*
X1443588D01*
X1443949Y718028D01*
X1444080Y718067D01*
X1444433Y718105D01*
X1444479D01*
X1444525Y718097D01*
D02*
G37*
G36*
X1434288Y717368D02*
X1434280Y717352D01*
X1434265Y717314D01*
X1434234Y717268D01*
X1434196Y717207D01*
X1434188Y717191D01*
X1434157Y717161D01*
X1434111Y717114D01*
X1434050Y717068D01*
X1434034Y717061D01*
X1434004Y717038D01*
X1433950Y717007D01*
X1433888Y716984D01*
X1433881D01*
X1433873Y716976D01*
X1433835Y716968D01*
X1433773Y716961D01*
X1433704Y716953D01*
X1433650D01*
X1433604Y716961D01*
X1433550Y716976D01*
X1433543Y716984D01*
X1433512Y716999D01*
X1433474Y717030D01*
X1433435Y717068D01*
X1433428Y717076D01*
X1433412Y717107D01*
X1433397Y717153D01*
X1433389Y717199D01*
Y717214D01*
X1433397Y717253D01*
X1433405Y717306D01*
X1433420Y717368D01*
X1433643Y718028D01*
X1433773Y718067D01*
X1433980Y718105D01*
X1433735Y717391D01*
Y717383D01*
X1433727Y717368D01*
X1433719Y717329D01*
X1433727Y717314D01*
X1433735Y717291D01*
X1433742Y717276D01*
X1433765Y717260D01*
X1433873D01*
X1433881Y717268D01*
X1433904Y717283D01*
X1433911Y717291D01*
X1433919Y717299D01*
X1433950Y717329D01*
X1433957Y717337D01*
X1433965Y717352D01*
X1433980Y717391D01*
X1434226Y718105D01*
X1434533D01*
X1434288Y717368D01*
D02*
G37*
G36*
X1433182Y716961D02*
X1432875D01*
X1432985Y717294D01*
X1432844Y717107D01*
X1432606D01*
X1432591Y717286D01*
X1432483Y716961D01*
X1432168D01*
X1432537Y718028D01*
X1432667Y718067D01*
X1432836Y718105D01*
X1432852Y717460D01*
X1433297Y718105D01*
X1433573D01*
X1433182Y716961D01*
D02*
G37*
G36*
X1444817D02*
X1444502D01*
X1444894Y718105D01*
X1445209D01*
X1444817Y716961D01*
D02*
G37*
G36*
X1429157Y717368D02*
X1429150Y717352D01*
X1429134Y717314D01*
X1429104Y717268D01*
X1429065Y717207D01*
X1429058Y717191D01*
X1429027Y717161D01*
X1428981Y717114D01*
X1428927Y717068D01*
X1428912Y717061D01*
X1428881Y717038D01*
X1428827Y717007D01*
X1428758Y716984D01*
X1428743Y716976D01*
X1428704Y716968D01*
X1428651Y716961D01*
X1428581Y716953D01*
X1428528D01*
X1428474Y716961D01*
X1428420Y716976D01*
X1428413Y716984D01*
X1428382Y716999D01*
X1428351Y717030D01*
X1428313Y717068D01*
X1428305Y717076D01*
X1428290Y717107D01*
X1428274Y717153D01*
X1428267Y717199D01*
Y717214D01*
Y717253D01*
X1428274Y717306D01*
X1428290Y717368D01*
X1428512Y718028D01*
X1428643Y718067D01*
X1428850Y718105D01*
X1428612Y717391D01*
Y717383D01*
X1428605Y717368D01*
X1428597Y717329D01*
Y717314D01*
X1428612Y717291D01*
X1428620Y717276D01*
X1428635Y717260D01*
X1428743D01*
X1428750Y717268D01*
X1428781Y717291D01*
X1428789D01*
X1428796Y717299D01*
X1428819Y717329D01*
X1428827Y717337D01*
X1428835Y717352D01*
X1428858Y717391D01*
X1429096Y718105D01*
X1429411D01*
X1429157Y717368D01*
D02*
G37*
G36*
X1439280Y717813D02*
X1438796D01*
X1438750Y717683D01*
X1439165D01*
X1439065Y717391D01*
X1438650D01*
X1438612Y717260D01*
X1439088D01*
X1438988Y716961D01*
X1438197D01*
X1438558Y718028D01*
X1438688Y718067D01*
X1439380Y718105D01*
X1439280Y717813D01*
D02*
G37*
G36*
X1431208Y718105D02*
X1431246Y718097D01*
X1431254D01*
X1431285Y718082D01*
X1431316Y718067D01*
X1431346Y718044D01*
X1431354Y718036D01*
X1431369Y718021D01*
X1431392Y717998D01*
X1431408Y717967D01*
X1431415Y717959D01*
X1431423Y717944D01*
X1431438Y717898D01*
Y717890D01*
X1431446Y717882D01*
Y717836D01*
Y717829D01*
Y717813D01*
X1431438Y717767D01*
Y717760D01*
X1431431Y717736D01*
X1431423Y717706D01*
X1431408Y717660D01*
Y717652D01*
X1431400Y717621D01*
X1431385Y717583D01*
X1431369Y717537D01*
Y717521D01*
X1431354Y717491D01*
X1431339Y717445D01*
X1431323Y717399D01*
Y717391D01*
X1431308Y717368D01*
X1431293Y717329D01*
X1431277Y717291D01*
Y717283D01*
X1431269Y717268D01*
X1431239Y717222D01*
Y717214D01*
X1431223Y717207D01*
X1431185Y717168D01*
X1431177Y717161D01*
X1431162Y717145D01*
X1431139Y717122D01*
X1431108Y717099D01*
X1431100Y717091D01*
X1431077Y717076D01*
X1431047Y717053D01*
X1431001Y717022D01*
X1430993Y717015D01*
X1430962Y717007D01*
X1430916Y716984D01*
X1430870Y716968D01*
X1430862D01*
X1430832Y716961D01*
X1430786Y716953D01*
X1430686D01*
X1430647Y716961D01*
X1430601Y716968D01*
X1430594Y716976D01*
X1430571Y716984D01*
X1430517Y717022D01*
X1430509Y717030D01*
X1430494Y717053D01*
X1430455Y717099D01*
Y717107D01*
X1430440Y717122D01*
X1430425Y717168D01*
Y717176D01*
Y717183D01*
Y717191D01*
Y717199D01*
X1430417Y717214D01*
Y717222D01*
X1430425Y717230D01*
Y717245D01*
Y717253D01*
Y717260D01*
X1430417Y717283D01*
Y717291D01*
X1430425Y717314D01*
X1430440Y717345D01*
X1430448Y717383D01*
X1430455Y717391D01*
X1430463Y717429D01*
X1430478Y717475D01*
X1430501Y717537D01*
Y717545D01*
X1430509Y717552D01*
X1430517Y717583D01*
X1430540Y717629D01*
X1430555Y717675D01*
X1430563Y717683D01*
X1430571Y717713D01*
X1430578Y717744D01*
X1430586Y717775D01*
X1430594Y717783D01*
X1430601Y717798D01*
X1430632Y717836D01*
X1430640Y717844D01*
X1430647Y717859D01*
X1430678Y717898D01*
X1430686Y717905D01*
X1430701Y717921D01*
X1430724Y717944D01*
X1430755Y717967D01*
X1430763Y717975D01*
X1430786Y717998D01*
X1430824Y718021D01*
X1430862Y718044D01*
X1430870Y718051D01*
X1430901Y718067D01*
X1430939Y718082D01*
X1430985Y718097D01*
X1431001D01*
X1431031Y718105D01*
X1431070Y718113D01*
X1431162D01*
X1431208Y718105D01*
D02*
G37*
G36*
X1428436Y717813D02*
X1427952D01*
X1427906Y717675D01*
X1428320D01*
X1428220Y717383D01*
X1427806D01*
X1427668Y716961D01*
X1427353D01*
X1427744Y718105D01*
X1428535D01*
X1428436Y717813D01*
D02*
G37*
G36*
X1426347Y723865D02*
X1426339Y723842D01*
X1426331Y723811D01*
X1426324Y723788D01*
Y723781D01*
Y723758D01*
X1426308Y723727D01*
X1426301Y723719D01*
X1426285Y723711D01*
X1426262Y723689D01*
X1426224Y723658D01*
X1426178Y723619D01*
X1426124Y723573D01*
X1425993Y723473D01*
X1425840Y723343D01*
X1425671Y723212D01*
X1425494Y723066D01*
X1425310Y722913D01*
X1425302Y722905D01*
X1425287Y722897D01*
X1425264Y722874D01*
X1425225Y722844D01*
X1425179Y722813D01*
X1425125Y722767D01*
X1425003Y722667D01*
X1424857Y722544D01*
X1424688Y722414D01*
X1424519Y722268D01*
X1424334Y722122D01*
X1424327Y722114D01*
X1424311Y722106D01*
X1424288Y722083D01*
X1424250Y722053D01*
X1424204Y722022D01*
X1424158Y721976D01*
X1424027Y721876D01*
X1423881Y721753D01*
X1423712Y721623D01*
X1423536Y721477D01*
X1423351Y721331D01*
X1423344Y721323D01*
X1423328Y721315D01*
X1423305Y721292D01*
X1423267Y721262D01*
X1423228Y721231D01*
X1423175Y721185D01*
X1423052Y721093D01*
X1422914Y720985D01*
X1422752Y720862D01*
X1422591Y720739D01*
X1422422Y720624D01*
X1422437D01*
X1422484Y720609D01*
X1422545Y720593D01*
X1422637Y720570D01*
X1422737Y720547D01*
X1422860Y720509D01*
X1422990Y720471D01*
X1423129Y720432D01*
X1423136D01*
X1423144Y720425D01*
X1423167D01*
X1423198Y720417D01*
X1423275Y720394D01*
X1423374Y720363D01*
X1423497Y720325D01*
X1423635Y720279D01*
X1423789Y720225D01*
X1423950Y720171D01*
X1423943Y720163D01*
X1423927Y720148D01*
X1423904Y720125D01*
X1423874Y720102D01*
X1423804Y720048D01*
X1423781Y720025D01*
X1423758Y720010D01*
X1423751Y720002D01*
X1423728Y719994D01*
X1423689Y719971D01*
X1423635Y719933D01*
X1423628Y719925D01*
X1423597Y719910D01*
X1423559Y719887D01*
X1423497Y719848D01*
X1423421Y719802D01*
X1423328Y719756D01*
X1423228Y719695D01*
X1423113Y719633D01*
X1422990Y719557D01*
X1422860Y719480D01*
X1422714Y719403D01*
X1422560Y719319D01*
X1422238Y719142D01*
X1421900Y718958D01*
X1421892Y718950D01*
X1421861Y718935D01*
X1421823Y718912D01*
X1421762Y718873D01*
X1421692Y718835D01*
X1421608Y718781D01*
X1421516Y718727D01*
X1421408Y718658D01*
X1421293Y718589D01*
X1421170Y718520D01*
X1420901Y718359D01*
X1420617Y718182D01*
X1420318Y718005D01*
X1420310Y717998D01*
X1420279Y717982D01*
X1420241Y717959D01*
X1420179Y717929D01*
X1420110Y717882D01*
X1420026Y717829D01*
X1419934Y717775D01*
X1419826Y717713D01*
X1419711Y717644D01*
X1419588Y717567D01*
X1419319Y717406D01*
X1419035Y717237D01*
X1418743Y717061D01*
X1418736Y717053D01*
X1418713Y717038D01*
X1418674Y717015D01*
X1418628Y716984D01*
X1418567Y716938D01*
X1418490Y716892D01*
X1418405Y716838D01*
X1418313Y716777D01*
X1418206Y716707D01*
X1418091Y716631D01*
X1417845Y716477D01*
X1417576Y716308D01*
X1417284Y716139D01*
X1417276D01*
X1417261Y716124D01*
X1417215Y716101D01*
X1417184Y716085D01*
X1417146Y716070D01*
X1417138D01*
X1417131Y716062D01*
X1417085Y716047D01*
X1417038D01*
X1417015Y716055D01*
X1417000Y716078D01*
Y716085D01*
Y716093D01*
X1417015Y716139D01*
X1417038Y716193D01*
X1417085Y716239D01*
X1417092D01*
X1417100Y716247D01*
X1417131Y716270D01*
X1417177Y716293D01*
X1417223Y716323D01*
X1417230D01*
X1417238Y716339D01*
X1417284Y716369D01*
X1417361Y716431D01*
X1417461Y716508D01*
X1417576Y716592D01*
X1417699Y716700D01*
X1417845Y716807D01*
X1417991Y716922D01*
X1417998Y716930D01*
X1418006Y716938D01*
X1418029Y716953D01*
X1418060Y716976D01*
X1418137Y717038D01*
X1418237Y717122D01*
X1418359Y717214D01*
X1418498Y717322D01*
X1418643Y717437D01*
X1418797Y717552D01*
X1418805Y717560D01*
X1418812Y717567D01*
X1418836Y717583D01*
X1418866Y717606D01*
X1418951Y717667D01*
X1419058Y717752D01*
X1419181Y717852D01*
X1419319Y717959D01*
X1419473Y718074D01*
X1419619Y718190D01*
X1419627D01*
X1419634Y718205D01*
X1419680Y718236D01*
X1419749Y718297D01*
X1419834Y718366D01*
X1419949Y718458D01*
X1420072Y718558D01*
X1420203Y718666D01*
X1420348Y718781D01*
X1420356Y718789D01*
X1420372Y718804D01*
X1420402Y718827D01*
X1420441Y718850D01*
X1420541Y718927D01*
X1420648Y719011D01*
X1420656Y719019D01*
X1420679Y719034D01*
X1420709Y719057D01*
X1420755Y719088D01*
X1420809Y719119D01*
X1420871Y719157D01*
X1420940Y719203D01*
X1421017Y719249D01*
X1420924Y719226D01*
X1420909D01*
X1420871Y719234D01*
X1420809Y719249D01*
X1420732Y719265D01*
X1420648Y719288D01*
X1420548Y719319D01*
X1420333Y719388D01*
X1420318Y719395D01*
X1420287Y719411D01*
X1420226Y719434D01*
X1420149Y719464D01*
X1420057Y719503D01*
X1419949Y719549D01*
X1419826Y719603D01*
X1419703Y719664D01*
X1419711Y719672D01*
X1419742Y719695D01*
X1419788Y719726D01*
X1419849Y719764D01*
X1419934Y719818D01*
X1420026Y719887D01*
X1420126Y719956D01*
X1420241Y720033D01*
X1420364Y720117D01*
X1420502Y720202D01*
X1420786Y720394D01*
X1421078Y720586D01*
X1421385Y720778D01*
X1421393Y720785D01*
X1421424Y720801D01*
X1421462Y720831D01*
X1421523Y720870D01*
X1421600Y720916D01*
X1421685Y720970D01*
X1421777Y721031D01*
X1421892Y721100D01*
X1422007Y721177D01*
X1422130Y721254D01*
X1422407Y721431D01*
X1422691Y721615D01*
X1422990Y721807D01*
X1422998Y721815D01*
X1423029Y721830D01*
X1423067Y721861D01*
X1423129Y721899D01*
X1423205Y721945D01*
X1423290Y721999D01*
X1423382Y722060D01*
X1423497Y722129D01*
X1423612Y722206D01*
X1423735Y722283D01*
X1424012Y722460D01*
X1424296Y722644D01*
X1424596Y722836D01*
X1424603Y722844D01*
X1424634Y722859D01*
X1424680Y722890D01*
X1424734Y722928D01*
X1424811Y722974D01*
X1424903Y723028D01*
X1425003Y723089D01*
X1425118Y723159D01*
X1425241Y723235D01*
X1425379Y723320D01*
X1425525Y723404D01*
X1425678Y723496D01*
X1426001Y723681D01*
X1426347Y723880D01*
Y723865D01*
D02*
G37*
G36*
X1425148Y722329D02*
X1425164Y722314D01*
X1425171Y722291D01*
X1425195Y722252D01*
X1425218Y722214D01*
X1425241Y722160D01*
X1425294Y722037D01*
X1425348Y721884D01*
X1425402Y721715D01*
X1425440Y721523D01*
X1425463Y721323D01*
Y721315D01*
Y721300D01*
Y721269D01*
Y721231D01*
X1425471Y721177D01*
X1425463Y721123D01*
Y721054D01*
Y720977D01*
X1425448Y720809D01*
X1425425Y720616D01*
X1425387Y720401D01*
X1425333Y720186D01*
Y720179D01*
X1425325Y720163D01*
X1425317Y720125D01*
X1425302Y720087D01*
X1425279Y720033D01*
X1425264Y719964D01*
X1425233Y719895D01*
X1425202Y719818D01*
X1425125Y719633D01*
X1425033Y719441D01*
X1424926Y719226D01*
X1424795Y719011D01*
X1424788Y719004D01*
X1424780Y718988D01*
X1424757Y718958D01*
X1424734Y718912D01*
X1424695Y718865D01*
X1424657Y718804D01*
X1424549Y718666D01*
X1424427Y718497D01*
X1424273Y718320D01*
X1424104Y718136D01*
X1423920Y717951D01*
X1423912Y717944D01*
X1423897Y717929D01*
X1423866Y717905D01*
X1423827Y717867D01*
X1423781Y717829D01*
X1423728Y717783D01*
X1423659Y717729D01*
X1423589Y717667D01*
X1423421Y717537D01*
X1423236Y717399D01*
X1423021Y717260D01*
X1422798Y717122D01*
X1422791D01*
X1422768Y717107D01*
X1422737Y717091D01*
X1422691Y717068D01*
X1422637Y717038D01*
X1422576Y717007D01*
X1422499Y716968D01*
X1422414Y716930D01*
X1422230Y716853D01*
X1422015Y716769D01*
X1421792Y716692D01*
X1421554Y716623D01*
X1421547D01*
X1421508Y716615D01*
X1421462Y716600D01*
X1421401Y716592D01*
X1421324Y716577D01*
X1421239Y716561D01*
X1421063Y716531D01*
X1421055D01*
X1421024Y716523D01*
X1420978D01*
X1420924Y716515D01*
X1420794Y716508D01*
X1420663Y716500D01*
X1420633Y716538D01*
X1420594D01*
X1420564Y716531D01*
X1420279D01*
X1420156Y716538D01*
X1420026Y716546D01*
X1419903Y716569D01*
X1419888D01*
X1419849Y716584D01*
X1419788Y716600D01*
X1419711Y716623D01*
X1419611Y716654D01*
X1419511Y716692D01*
X1419396Y716746D01*
X1419281Y716799D01*
X1419465Y717061D01*
X1419473D01*
X1419488Y717053D01*
X1419519Y717038D01*
X1419557Y717022D01*
X1419604Y717007D01*
X1419657Y716992D01*
X1419788Y716945D01*
X1419941Y716899D01*
X1420118Y716861D01*
X1420310Y716830D01*
X1420502Y716807D01*
X1420840D01*
X1421001Y716823D01*
X1421186Y716838D01*
X1421378Y716869D01*
X1421585Y716915D01*
X1421593D01*
X1421608Y716922D01*
X1421639Y716930D01*
X1421685Y716945D01*
X1421731Y716961D01*
X1421792Y716976D01*
X1421861Y716999D01*
X1421938Y717030D01*
X1422107Y717091D01*
X1422291Y717176D01*
X1422499Y717268D01*
X1422706Y717383D01*
X1422714D01*
X1422729Y717399D01*
X1422760Y717414D01*
X1422798Y717437D01*
X1422845Y717460D01*
X1422898Y717498D01*
X1423029Y717575D01*
X1423182Y717675D01*
X1423344Y717790D01*
X1423513Y717921D01*
X1423682Y718059D01*
X1423689Y718067D01*
X1423705Y718082D01*
X1423735Y718113D01*
X1423766Y718151D01*
X1423812Y718197D01*
X1423866Y718259D01*
X1423920Y718320D01*
X1423989Y718389D01*
X1424127Y718558D01*
X1424265Y718735D01*
X1424411Y718935D01*
X1424549Y719134D01*
Y719142D01*
X1424565Y719157D01*
X1424580Y719180D01*
X1424603Y719219D01*
X1424626Y719265D01*
X1424657Y719319D01*
X1424726Y719449D01*
X1424803Y719603D01*
X1424880Y719772D01*
X1424957Y719956D01*
X1425018Y720148D01*
Y720156D01*
X1425026Y720171D01*
X1425033Y720202D01*
X1425041Y720240D01*
X1425056Y720286D01*
X1425064Y720340D01*
X1425095Y720471D01*
X1425118Y720632D01*
X1425133Y720809D01*
X1425141Y720993D01*
Y721185D01*
Y721193D01*
Y721208D01*
Y721231D01*
X1425133Y721269D01*
X1425125Y721315D01*
X1425118Y721369D01*
X1425102Y721492D01*
X1425064Y721646D01*
X1425018Y721807D01*
X1424957Y721983D01*
X1424880Y722160D01*
X1425148Y722337D01*
Y722329D01*
D02*
G37*
G36*
X1430601Y717813D02*
X1430125D01*
X1430071Y717675D01*
X1430486D01*
X1430394Y717383D01*
X1429979D01*
X1429833Y716961D01*
X1429518D01*
X1429910Y718105D01*
X1430701D01*
X1430601Y717813D01*
D02*
G37*
G36*
X1435993Y716961D02*
X1435693D01*
X1435770Y717219D01*
X1435432Y717183D01*
X1435286Y716961D01*
X1435040D01*
X1435101Y717129D01*
X1435762Y718105D01*
X1435993D01*
Y716961D01*
D02*
G37*
G36*
X1438181D02*
X1437882D01*
X1437958Y717218D01*
X1437628Y717183D01*
X1437475Y716961D01*
X1437175D01*
X1437951Y718105D01*
X1438189D01*
X1438181Y716961D01*
D02*
G37*
G36*
X1432191Y718097D02*
X1432237Y718082D01*
X1432245D01*
X1432268Y718067D01*
X1432306Y718051D01*
X1432345Y718021D01*
X1432352Y718013D01*
X1432368Y717990D01*
X1432383Y717951D01*
X1432391Y717905D01*
Y717890D01*
Y717859D01*
Y717813D01*
X1432375Y717752D01*
Y717744D01*
X1432368Y717729D01*
X1432360Y717706D01*
X1432345Y717683D01*
X1432299Y717606D01*
X1432237Y717537D01*
X1432229D01*
X1432222Y717521D01*
X1432183Y717491D01*
X1432130Y717460D01*
X1432076Y717437D01*
X1432145Y716961D01*
X1431830D01*
X1431769Y717383D01*
X1431707D01*
X1431561Y716961D01*
X1431254D01*
X1431638Y718105D01*
X1432153D01*
X1432191Y718097D01*
D02*
G37*
G36*
X1434656Y717260D02*
X1435148D01*
X1435101Y717129D01*
X1434987Y716961D01*
X1434249D01*
X1434610Y718028D01*
X1434741Y718067D01*
X1434941Y718105D01*
X1434656Y717260D01*
D02*
G37*
G36*
X1431577Y719388D02*
X1431085D01*
X1431054Y719864D01*
X1430448D01*
X1430724Y720294D01*
X1431054D01*
X1431039Y720801D01*
X1430033Y719388D01*
X1429572D01*
X1429578Y719406D01*
X1429564Y719388D01*
X1428197D01*
X1428850Y721285D01*
X1430210D01*
X1430179Y721208D01*
X1430056Y720855D01*
X1429188D01*
X1429088Y720563D01*
X1429925D01*
X1429772Y720125D01*
X1428927D01*
X1428827Y719818D01*
X1429718D01*
X1429578Y719406D01*
X1430985Y721285D01*
X1431438D01*
X1431577Y719388D01*
D02*
G37*
G36*
X1433627D02*
X1433166D01*
X1433573Y720601D01*
X1432821Y719388D01*
X1432437D01*
X1432506Y720601D01*
X1432091Y719388D01*
X1431792D01*
X1431653Y719464D01*
X1432275Y721285D01*
X1432744D01*
X1432829Y719964D01*
X1433811Y721285D01*
X1434272D01*
X1433627Y719388D01*
D02*
G37*
G36*
X1443557Y721208D02*
X1443435Y720855D01*
X1442935D01*
X1442436Y719388D01*
X1441952D01*
X1442451Y720855D01*
X1441945D01*
X1442091Y721285D01*
X1443581D01*
X1443557Y721208D01*
D02*
G37*
G36*
X1428804D02*
X1428681Y720855D01*
X1428174D01*
X1427675Y719388D01*
X1427191D01*
X1427691Y720855D01*
X1427191D01*
X1427337Y721285D01*
X1428827D01*
X1428804Y721208D01*
D02*
G37*
G36*
X1439648Y719388D02*
X1439165D01*
X1439126Y719864D01*
X1438519D01*
X1438803Y720294D01*
X1439134D01*
X1439111Y720801D01*
X1438143Y719449D01*
X1438097Y719426D01*
X1437636Y719388D01*
X1439057Y721285D01*
X1439510D01*
X1439648Y719388D01*
D02*
G37*
G36*
X1437590D02*
X1437099D01*
X1437352Y720133D01*
X1436653D01*
X1436400Y719388D01*
X1436069D01*
X1435939Y719464D01*
X1436561Y721285D01*
X1437045D01*
X1436799Y720563D01*
X1437506D01*
X1437751Y721285D01*
X1438235D01*
X1437590Y719388D01*
D02*
G37*
G36*
X1423190Y723489D02*
X1423244D01*
X1423298Y723481D01*
X1423367Y723473D01*
X1423444Y723458D01*
X1423612Y723427D01*
X1423797Y723381D01*
X1423989Y723320D01*
X1424189Y723235D01*
X1424012Y722974D01*
X1424004D01*
X1423989Y722982D01*
X1423958Y722990D01*
X1423927Y723005D01*
X1423874Y723020D01*
X1423820Y723036D01*
X1423689Y723074D01*
X1423536Y723112D01*
X1423359Y723151D01*
X1423167Y723174D01*
X1422975Y723189D01*
X1422783D01*
X1422714Y723182D01*
X1422645D01*
X1422484Y723166D01*
X1422307Y723143D01*
X1422107Y723105D01*
X1421908Y723059D01*
X1421900D01*
X1421885Y723051D01*
X1421854Y723043D01*
X1421815Y723028D01*
X1421762Y723013D01*
X1421708Y722997D01*
X1421639Y722974D01*
X1421570Y722951D01*
X1421401Y722882D01*
X1421224Y722805D01*
X1421024Y722713D01*
X1420825Y722606D01*
X1420817D01*
X1420802Y722590D01*
X1420771Y722575D01*
X1420732Y722552D01*
X1420686Y722521D01*
X1420633Y722490D01*
X1420564Y722444D01*
X1420494Y722398D01*
X1420333Y722291D01*
X1420149Y722153D01*
X1419957Y721999D01*
X1419757Y721830D01*
X1419749Y721822D01*
X1419742Y721815D01*
X1419719Y721792D01*
X1419688Y721761D01*
X1419657Y721715D01*
X1419611Y721669D01*
X1419511Y721553D01*
X1419396Y721415D01*
X1419273Y721254D01*
X1419143Y721077D01*
X1419012Y720885D01*
Y720878D01*
X1418997Y720862D01*
X1418981Y720839D01*
X1418958Y720801D01*
X1418935Y720755D01*
X1418905Y720709D01*
X1418843Y720578D01*
X1418766Y720432D01*
X1418690Y720263D01*
X1418613Y720079D01*
X1418551Y719887D01*
Y719879D01*
X1418544Y719864D01*
X1418536Y719833D01*
X1418528Y719795D01*
X1418513Y719749D01*
X1418505Y719695D01*
X1418490Y719633D01*
X1418475Y719557D01*
X1418444Y719395D01*
X1418413Y719203D01*
X1418390Y718996D01*
X1418375Y718773D01*
Y718766D01*
Y718758D01*
X1418382Y718735D01*
Y718704D01*
X1418398Y718627D01*
X1418421Y718520D01*
X1418459Y718389D01*
X1418498Y718243D01*
X1418559Y718082D01*
X1418628Y717905D01*
X1418444Y717775D01*
X1418313Y717806D01*
Y717813D01*
X1418306Y717829D01*
X1418290Y717852D01*
X1418275Y717882D01*
X1418260Y717921D01*
X1418244Y717967D01*
X1418198Y718090D01*
X1418160Y718236D01*
X1418121Y718405D01*
X1418098Y718597D01*
X1418083Y718804D01*
Y718812D01*
Y718827D01*
Y718858D01*
Y718889D01*
Y718935D01*
Y718996D01*
Y719057D01*
X1418091Y719127D01*
X1418106Y719288D01*
X1418129Y719464D01*
X1418175Y719664D01*
X1418229Y719872D01*
Y719879D01*
X1418237Y719895D01*
X1418244Y719925D01*
X1418260Y719971D01*
X1418283Y720025D01*
X1418306Y720087D01*
X1418329Y720156D01*
X1418367Y720232D01*
X1418436Y720409D01*
X1418536Y720601D01*
X1418643Y720809D01*
X1418774Y721024D01*
X1418782Y721031D01*
X1418789Y721047D01*
X1418805Y721077D01*
X1418836Y721116D01*
X1418866Y721162D01*
X1418905Y721215D01*
X1419005Y721338D01*
X1419120Y721484D01*
X1419258Y721646D01*
X1419411Y721807D01*
X1419580Y721960D01*
X1419588Y721968D01*
X1419604Y721983D01*
X1419634Y722014D01*
X1419680Y722053D01*
X1419726Y722099D01*
X1419788Y722160D01*
X1419857Y722222D01*
X1419934Y722283D01*
X1420110Y722429D01*
X1420310Y722583D01*
X1420517Y722736D01*
X1420740Y722874D01*
X1420748Y722882D01*
X1420763Y722890D01*
X1420794Y722905D01*
X1420840Y722928D01*
X1420894Y722951D01*
X1420955Y722982D01*
X1421024Y723020D01*
X1421101Y723059D01*
X1421278Y723136D01*
X1421477Y723212D01*
X1421685Y723289D01*
X1421908Y723358D01*
X1421915D01*
X1421938Y723366D01*
X1421969Y723374D01*
X1422007Y723381D01*
X1422061Y723397D01*
X1422130Y723412D01*
X1422199Y723420D01*
X1422284Y723435D01*
X1422460Y723466D01*
X1422660Y723481D01*
X1422875Y723496D01*
X1423144D01*
X1423190Y723489D01*
D02*
G37*
G36*
X1441430Y719388D02*
X1440969D01*
X1440616Y720686D01*
X1440178Y719388D01*
X1439702D01*
X1440347Y721285D01*
X1440793D01*
X1441161Y720017D01*
X1441599Y721285D01*
X1442075D01*
X1441430Y719388D01*
D02*
G37*
G36*
X1446937D02*
X1446484D01*
X1446898Y720601D01*
X1446138Y719388D01*
X1445754D01*
X1445815Y720601D01*
X1445401Y719388D01*
X1444948D01*
X1445593Y721285D01*
X1446061D01*
X1446146Y719964D01*
X1447129Y721285D01*
X1447589D01*
X1446937Y719388D01*
D02*
G37*
G36*
X1435993Y721277D02*
X1436054Y721269D01*
X1436115Y721246D01*
X1436185Y721223D01*
X1436246Y721185D01*
X1436292Y721139D01*
X1436300Y721131D01*
X1436308Y721116D01*
X1436323Y721077D01*
X1436338Y721031D01*
X1436346Y720970D01*
X1436354Y720901D01*
X1436338Y720816D01*
X1436315Y720716D01*
X1436308Y720701D01*
X1436292Y720670D01*
X1436269Y720609D01*
X1436231Y720547D01*
X1436185Y720471D01*
X1436115Y720386D01*
X1436039Y720309D01*
X1435947Y720232D01*
X1435931Y720225D01*
X1435900Y720202D01*
X1435839Y720171D01*
X1435747Y720133D01*
X1435639Y720094D01*
X1435509Y720056D01*
X1435355Y720017D01*
X1435179Y719987D01*
X1435271Y720425D01*
X1435286D01*
X1435317Y720432D01*
X1435363Y720440D01*
X1435424Y720455D01*
X1435555Y720494D01*
X1435616Y720517D01*
X1435662Y720540D01*
X1435670D01*
X1435678Y720555D01*
X1435724Y720586D01*
X1435770Y720640D01*
X1435793Y720670D01*
X1435808Y720709D01*
X1435816Y720724D01*
X1435824Y720755D01*
Y720785D01*
X1435816Y720816D01*
X1435808Y720824D01*
X1435793Y720831D01*
X1435762Y720839D01*
X1435716Y720847D01*
X1435363D01*
X1434871Y719388D01*
X1434541D01*
X1434411Y719464D01*
X1435033Y721285D01*
X1435939D01*
X1435993Y721277D01*
D02*
G37*
G36*
X1437298Y718097D02*
X1437360Y718082D01*
X1437367D01*
X1437375Y718074D01*
X1437413Y718059D01*
X1437467Y718021D01*
X1437521Y717959D01*
X1437298Y717729D01*
X1437283Y717736D01*
X1437245Y717752D01*
X1437198Y717775D01*
X1437152Y717790D01*
X1437145D01*
X1437122Y717798D01*
X1437091Y717806D01*
X1437053Y717813D01*
X1437045D01*
X1437022Y717806D01*
X1437014Y717798D01*
X1436983Y717790D01*
X1436976Y717775D01*
X1436968Y717767D01*
X1436960Y717744D01*
Y717736D01*
X1436953Y717729D01*
X1436960Y717721D01*
Y717713D01*
X1436968Y717706D01*
X1436983Y717698D01*
X1437014Y717690D01*
X1437022D01*
X1437045Y717683D01*
X1437114D01*
X1437152Y717675D01*
X1437198Y717660D01*
X1437245Y717637D01*
X1437252Y717629D01*
X1437275Y717614D01*
X1437306Y717591D01*
X1437329Y717552D01*
X1437337Y717545D01*
X1437344Y717521D01*
X1437352Y717483D01*
Y717437D01*
Y717429D01*
Y717406D01*
X1437344Y717368D01*
X1437337Y717322D01*
Y717314D01*
X1437321Y717291D01*
X1437306Y717260D01*
X1437291Y717222D01*
X1437221Y717130D01*
X1437183Y717084D01*
X1437129Y717045D01*
X1437122D01*
X1437106Y717030D01*
X1437076Y717015D01*
X1437029Y716999D01*
X1436976Y716984D01*
X1436922Y716968D01*
X1436853Y716961D01*
X1436776Y716953D01*
X1436730D01*
X1436699Y716961D01*
X1436630Y716968D01*
X1436553Y716992D01*
X1436546D01*
X1436538Y716999D01*
X1436500Y717030D01*
X1436446Y717076D01*
X1436423Y717114D01*
X1436392Y717161D01*
X1436630Y717360D01*
X1436638D01*
X1436645Y717352D01*
X1436684Y717322D01*
X1436730Y717299D01*
X1436768Y717276D01*
X1436776D01*
X1436814Y717268D01*
X1436837D01*
X1436876Y717260D01*
X1436960D01*
X1436937Y717245D01*
X1436922Y717230D01*
X1436914Y717222D01*
X1436968Y717260D01*
X1436960D01*
X1436983Y717276D01*
X1436991D01*
X1436999Y717291D01*
X1437014Y717299D01*
X1437022Y717322D01*
Y717329D01*
Y717337D01*
Y717352D01*
X1437014Y717360D01*
X1436999Y717368D01*
X1436976Y717376D01*
X1436907D01*
X1436891Y717383D01*
X1436853Y717391D01*
X1436837D01*
X1436807Y717399D01*
X1436768Y717414D01*
X1436722Y717429D01*
X1436715Y717437D01*
X1436699Y717452D01*
X1436676Y717475D01*
X1436661Y717506D01*
X1436653Y717514D01*
X1436645Y717545D01*
X1436630Y717575D01*
X1436622Y717621D01*
Y717629D01*
Y717660D01*
X1436630Y717698D01*
X1436645Y717744D01*
Y717752D01*
X1436653Y717760D01*
X1436668Y717798D01*
X1436691Y717844D01*
X1436722Y717898D01*
X1436730Y717913D01*
X1436753Y717936D01*
X1436799Y717982D01*
X1436853Y718021D01*
X1436868Y718028D01*
X1436899Y718044D01*
X1436945Y718067D01*
X1436999Y718090D01*
X1437014Y718097D01*
X1437053Y718105D01*
X1437106Y718113D01*
X1437237D01*
X1437298Y718097D01*
D02*
G37*
G36*
X1427368D02*
X1427429Y718082D01*
X1427437D01*
X1427445Y718074D01*
X1427483Y718059D01*
X1427537Y718021D01*
X1427598Y717959D01*
X1427376Y717729D01*
X1427368D01*
X1427360Y717736D01*
X1427322Y717752D01*
X1427268Y717775D01*
X1427222Y717790D01*
X1427214D01*
X1427191Y717798D01*
X1427161Y717806D01*
X1427122Y717813D01*
X1427115D01*
X1427099Y717806D01*
X1427092Y717798D01*
X1427053Y717790D01*
X1427038Y717775D01*
Y717767D01*
X1427030Y717744D01*
X1427022Y717736D01*
X1427030Y717729D01*
X1427038Y717713D01*
X1427045Y717706D01*
X1427061Y717698D01*
X1427092Y717690D01*
X1427099D01*
X1427122Y717683D01*
X1427191D01*
X1427230Y717675D01*
X1427276Y717660D01*
X1427322Y717637D01*
X1427330Y717629D01*
X1427353Y717614D01*
X1427376Y717591D01*
X1427399Y717552D01*
X1427406Y717545D01*
X1427414Y717521D01*
X1427422Y717483D01*
X1427429Y717437D01*
Y717429D01*
Y717406D01*
X1427422Y717376D01*
X1427414Y717337D01*
Y717329D01*
X1427399Y717306D01*
X1427383Y717268D01*
X1427360Y717230D01*
X1427291Y717130D01*
X1427245Y717084D01*
X1427191Y717045D01*
X1427184D01*
X1427168Y717030D01*
X1427138Y717015D01*
X1427099Y716999D01*
X1427045Y716984D01*
X1426992Y716968D01*
X1426923Y716961D01*
X1426853Y716953D01*
X1426807D01*
X1426777Y716961D01*
X1426707Y716968D01*
X1426631Y716992D01*
X1426623D01*
X1426615Y716999D01*
X1426577Y717030D01*
X1426523Y717076D01*
X1426493Y717114D01*
X1426462Y717161D01*
X1426715Y717360D01*
X1426731Y717352D01*
X1426761Y717322D01*
X1426800Y717299D01*
X1426838Y717276D01*
X1426846D01*
X1426884Y717268D01*
X1426915D01*
X1426946Y717260D01*
X1427030D01*
X1427007Y717245D01*
X1426992Y717230D01*
X1426984Y717222D01*
X1427045Y717260D01*
X1427030D01*
X1427053Y717276D01*
X1427061D01*
X1427069Y717291D01*
X1427099Y717322D01*
Y717329D01*
Y717345D01*
X1427092Y717352D01*
X1427084Y717360D01*
X1427076Y717368D01*
X1427053Y717376D01*
X1426984D01*
X1426969Y717383D01*
X1426923Y717391D01*
X1426915D01*
X1426884Y717399D01*
X1426838Y717414D01*
X1426800Y717429D01*
X1426792Y717437D01*
X1426777Y717452D01*
X1426754Y717475D01*
X1426731Y717506D01*
X1426723Y717514D01*
X1426715Y717545D01*
X1426700Y717583D01*
X1426692Y717621D01*
Y717629D01*
Y717660D01*
X1426700Y717698D01*
X1426715Y717744D01*
Y717752D01*
X1426723Y717760D01*
X1426738Y717798D01*
X1426761Y717844D01*
X1426800Y717898D01*
X1426807Y717913D01*
X1426838Y717936D01*
X1426877Y717982D01*
X1426923Y718021D01*
X1426930Y718028D01*
X1426961Y718044D01*
X1427007Y718067D01*
X1427069Y718090D01*
X1427076D01*
X1427084Y718097D01*
X1427122Y718105D01*
X1427176Y718113D01*
X1427307D01*
X1427368Y718097D01*
D02*
G37*
G36*
X1445823D02*
X1445869Y718082D01*
X1445885Y718074D01*
X1445907Y718067D01*
X1445946Y718036D01*
X1445977Y717998D01*
X1445984Y717990D01*
X1446000Y717967D01*
X1446015Y717936D01*
X1446030Y717890D01*
Y717875D01*
Y717859D01*
Y717836D01*
Y717806D01*
Y717767D01*
X1446023Y717721D01*
X1446007Y717660D01*
X1445693D01*
Y717667D01*
Y717675D01*
Y717706D01*
Y717736D01*
Y717760D01*
Y717767D01*
X1445685Y717790D01*
X1445677Y717798D01*
X1445669D01*
X1445646Y717806D01*
X1445639Y717813D01*
X1445623D01*
X1445616Y717806D01*
X1445585Y717798D01*
X1445570D01*
Y717806D01*
X1445562Y717798D01*
X1445539Y717783D01*
X1445531Y717775D01*
X1445508Y717760D01*
X1445500D01*
X1445493Y717744D01*
Y717736D01*
X1445485Y717721D01*
Y717713D01*
X1445470Y717706D01*
X1445462Y717683D01*
X1445447Y717652D01*
Y717644D01*
X1445439Y717621D01*
X1445424Y717591D01*
X1445408Y717537D01*
X1445401Y717521D01*
X1445393Y717491D01*
X1445378Y717452D01*
X1445362Y717414D01*
Y717406D01*
Y717391D01*
X1445355Y717345D01*
Y717337D01*
X1445347Y717314D01*
X1445355Y717306D01*
X1445362Y717299D01*
X1445370Y717283D01*
X1445378Y717276D01*
X1445385Y717268D01*
X1445393D01*
X1445401Y717260D01*
X1445454D01*
X1445500Y717276D01*
X1445508Y717283D01*
X1445531Y717299D01*
X1445562Y717337D01*
X1445616Y717399D01*
X1445915D01*
X1445885Y717322D01*
Y717314D01*
X1445877Y717306D01*
X1445846Y717260D01*
X1445808Y717207D01*
X1445762Y717153D01*
X1445754Y717145D01*
X1445723Y717114D01*
X1445685Y717076D01*
X1445631Y717038D01*
X1445616Y717030D01*
X1445585Y717015D01*
X1445539Y716999D01*
X1445485Y716976D01*
X1445470D01*
X1445439Y716968D01*
X1445385Y716961D01*
X1445324Y716953D01*
X1445285D01*
X1445239Y716961D01*
X1445201Y716968D01*
X1445193Y716976D01*
X1445170Y716984D01*
X1445140Y716999D01*
X1445109Y717022D01*
X1445101Y717030D01*
X1445086Y717045D01*
X1445070Y717068D01*
X1445055Y717091D01*
Y717099D01*
X1445047Y717114D01*
X1445024Y717161D01*
Y717168D01*
Y717176D01*
X1445017Y717207D01*
Y717214D01*
Y717222D01*
Y717245D01*
Y717253D01*
Y717260D01*
X1445024Y717291D01*
Y717299D01*
Y717314D01*
X1445032Y717337D01*
X1445040Y717376D01*
X1445047Y717391D01*
X1445055Y717422D01*
X1445070Y717475D01*
X1445093Y717537D01*
Y717545D01*
X1445101Y717552D01*
X1445109Y717591D01*
X1445132Y717637D01*
X1445147Y717683D01*
X1445155Y717690D01*
X1445163Y717721D01*
X1445170Y717752D01*
X1445186Y717775D01*
Y717783D01*
X1445193Y717798D01*
X1445224Y717836D01*
X1445232Y717844D01*
X1445239Y717859D01*
X1445270Y717898D01*
X1445278Y717905D01*
X1445293Y717921D01*
X1445316Y717944D01*
X1445347Y717967D01*
X1445355Y717975D01*
X1445378Y717990D01*
X1445408Y718013D01*
X1445439Y718036D01*
X1445447D01*
X1445454Y718044D01*
X1445493Y718059D01*
X1445539Y718082D01*
X1445593Y718097D01*
X1445608D01*
X1445631Y718105D01*
X1445677Y718113D01*
X1445769D01*
X1445823Y718097D01*
D02*
G37*
G36*
X1447013Y718489D02*
X1425993D01*
X1426070Y718719D01*
X1426201Y718758D01*
X1447113Y718796D01*
X1447013Y718489D01*
D02*
G37*
G36*
X1444663Y721285D02*
X1444763Y721269D01*
X1444863Y721239D01*
X1444971Y721193D01*
X1445063Y721131D01*
X1445132Y721047D01*
X1445140Y721039D01*
X1445155Y721000D01*
X1445170Y720947D01*
X1445186Y720862D01*
X1445201Y720762D01*
X1445193Y720640D01*
X1445170Y720501D01*
X1445124Y720332D01*
Y720325D01*
X1445117Y720309D01*
X1445109Y720286D01*
X1445093Y720256D01*
X1445055Y720171D01*
X1445001Y720071D01*
X1444932Y719956D01*
X1444855Y719833D01*
X1444755Y719718D01*
X1444640Y719618D01*
X1444625Y719610D01*
X1444587Y719580D01*
X1444510Y719541D01*
X1444418Y719495D01*
X1444302Y719449D01*
X1444164Y719411D01*
X1444011Y719380D01*
X1443842Y719372D01*
X1443795D01*
X1443765Y719380D01*
X1443688Y719388D01*
X1443596Y719403D01*
X1443496Y719434D01*
X1443388Y719480D01*
X1443296Y719534D01*
X1443227Y719618D01*
X1443219Y719633D01*
X1443204Y719664D01*
X1443189Y719718D01*
X1443181Y719802D01*
X1443173Y719902D01*
X1443189Y720017D01*
X1443227Y720163D01*
X1443258Y720240D01*
X1443296Y720325D01*
X1443212Y720332D01*
Y720340D01*
X1443219Y720355D01*
X1443227Y720378D01*
X1443243Y720409D01*
X1443281Y720494D01*
X1443335Y720601D01*
X1443404Y720716D01*
X1443488Y720839D01*
X1443588Y720954D01*
X1443703Y721054D01*
X1443711D01*
X1443719Y721062D01*
X1443765Y721093D01*
X1443834Y721131D01*
X1443926Y721177D01*
X1444041Y721223D01*
X1444180Y721262D01*
X1444333Y721292D01*
X1444502Y721300D01*
X1444579D01*
X1444663Y721285D01*
D02*
G37*
%LPC*%
G36*
X1444372Y717821D02*
X1444195D01*
X1444135Y717646D01*
X1444279Y717675D01*
X1444333D01*
X1444341Y717683D01*
X1444364Y717698D01*
X1444372Y717706D01*
X1444379Y717713D01*
X1444387Y717721D01*
X1444402Y717752D01*
Y717760D01*
Y717767D01*
Y717783D01*
Y717790D01*
X1444395Y717806D01*
Y717813D01*
X1444379D01*
X1444372Y717821D01*
D02*
G37*
G36*
X1431024Y717813D02*
X1431016Y717806D01*
X1430993Y717798D01*
X1430978D01*
Y717806D01*
X1430962Y717798D01*
X1430947Y717783D01*
X1430939D01*
X1430931Y717775D01*
X1430916Y717767D01*
X1430893Y717744D01*
Y717736D01*
X1430885Y717721D01*
Y717713D01*
X1430878Y717698D01*
X1430862Y717667D01*
Y717660D01*
X1430847Y717629D01*
X1430832Y717591D01*
X1430809Y717537D01*
X1430801Y717521D01*
X1430793Y717491D01*
X1430778Y717445D01*
X1430763Y717399D01*
Y717391D01*
Y717376D01*
X1430755Y717360D01*
Y717345D01*
Y717337D01*
Y717322D01*
Y717314D01*
X1430770Y717291D01*
Y717283D01*
Y717276D01*
X1430786D01*
X1430801Y717268D01*
X1430809Y717260D01*
X1430878D01*
X1430885Y717268D01*
X1430893D01*
X1430901Y717276D01*
X1430908Y717283D01*
X1430924D01*
X1430931Y717299D01*
X1430939D01*
X1430947Y717306D01*
X1430970Y717329D01*
X1430978Y717337D01*
X1430985Y717345D01*
Y717352D01*
X1430993Y717360D01*
X1431001Y717383D01*
X1431008Y717414D01*
X1431016Y717422D01*
X1431024Y717452D01*
X1431039Y717491D01*
X1431054Y717537D01*
X1431062Y717545D01*
X1431070Y717575D01*
X1431077Y717614D01*
X1431093Y717652D01*
Y717660D01*
X1431100Y717683D01*
X1431108Y717706D01*
Y717721D01*
Y717736D01*
Y717744D01*
X1431093Y717767D01*
Y717775D01*
X1431085Y717783D01*
Y717790D01*
X1431070Y717798D01*
X1431054D01*
X1431047Y717806D01*
X1431024Y717813D01*
D02*
G37*
G36*
X1435885Y717468D02*
X1435713D01*
X1435701Y717391D01*
X1435885Y717468D01*
D02*
G37*
G36*
X1438082D02*
X1437903D01*
X1437890Y717391D01*
X1438082Y717468D01*
D02*
G37*
G36*
X1432037Y717821D02*
X1431861D01*
X1431800Y717646D01*
X1431953Y717675D01*
X1431999D01*
X1432007Y717683D01*
X1432022Y717690D01*
X1432030D01*
X1432037Y717698D01*
X1432053Y717721D01*
X1432061Y717729D01*
X1432076Y717752D01*
Y717760D01*
Y717767D01*
Y717783D01*
Y717790D01*
X1432061Y717806D01*
Y717813D01*
X1432045D01*
X1432037Y717821D01*
D02*
G37*
G36*
X1444356Y720862D02*
X1444318D01*
X1444272Y720855D01*
X1444218Y720847D01*
X1444156Y720831D01*
X1444087Y720809D01*
X1444026Y720778D01*
X1443964Y720732D01*
X1443957Y720724D01*
X1443941Y720709D01*
X1443911Y720678D01*
X1443880Y720640D01*
X1443834Y720586D01*
X1443795Y720517D01*
X1443757Y720432D01*
X1443719Y720340D01*
X1443711Y720325D01*
X1443703Y720294D01*
X1443688Y720248D01*
X1443680Y720186D01*
X1443665Y720117D01*
Y720048D01*
X1443673Y719987D01*
X1443688Y719933D01*
Y719925D01*
X1443703Y719910D01*
X1443726Y719895D01*
X1443749Y719872D01*
X1443795Y719841D01*
X1443849Y719825D01*
X1443911Y719810D01*
X1443995Y719802D01*
X1444034D01*
X1444072Y719810D01*
X1444126Y719818D01*
X1444187Y719833D01*
X1444249Y719856D01*
X1444310Y719887D01*
X1444372Y719933D01*
X1444379Y719941D01*
X1444402Y719956D01*
X1444425Y719987D01*
X1444464Y720033D01*
X1444502Y720087D01*
X1444548Y720163D01*
X1444587Y720240D01*
X1444625Y720340D01*
X1444633Y720355D01*
X1444640Y720386D01*
X1444648Y720432D01*
X1444663Y720494D01*
X1444671Y720555D01*
Y720616D01*
X1444663Y720678D01*
X1444648Y720732D01*
Y720739D01*
X1444633Y720755D01*
X1444617Y720770D01*
X1444587Y720801D01*
X1444548Y720824D01*
X1444494Y720839D01*
X1444433Y720855D01*
X1444356Y720862D01*
D02*
G37*
%LPD*%
D13*
X1445980Y670169D02*
G03*
X1445980Y670169I-394J0D01*
G01*
D14*
X1412000Y632000D02*
Y734000D01*
Y632000D02*
X1474000D01*
Y734000D01*
X1412000D02*
X1474000D01*
D17*
X1422358Y670169D02*
X1438500D01*
X1422358Y698831D02*
X1438500D01*
D18*
X1446968Y636457D02*
Y643543D01*
X1443032Y636457D02*
X1446968D01*
X1443032D02*
Y643543D01*
X1446968D01*
X1430457Y655969D02*
X1437543D01*
Y652032D02*
Y655969D01*
X1430457Y652032D02*
X1437543D01*
X1430457D02*
Y655969D01*
D19*
X1452124Y730936D02*
X1450812D01*
X1451468D01*
Y727656D01*
X1450812Y727000D01*
X1450156D01*
X1449500Y727656D01*
X1453436Y727000D02*
X1454748D01*
X1454092D01*
Y730936D01*
X1453436Y730280D01*
X1419824Y705736D02*
X1418512D01*
X1419168D01*
Y702456D01*
X1418512Y701800D01*
X1417856D01*
X1417200Y702456D01*
X1423760Y701800D02*
X1421136D01*
X1423760Y704424D01*
Y705080D01*
X1423104Y705736D01*
X1421792D01*
X1421136Y705080D01*
X1423000Y652000D02*
Y655936D01*
X1424968D01*
X1425624Y655280D01*
Y653968D01*
X1424968Y653312D01*
X1423000D01*
X1424312D02*
X1425624Y652000D01*
X1426936D02*
X1428248D01*
X1427592D01*
Y655936D01*
X1426936Y655280D01*
X1437000Y643500D02*
X1440936D01*
Y641532D01*
X1440280Y640876D01*
X1438968D01*
X1438312Y641532D01*
Y643500D01*
Y642188D02*
X1437000Y640876D01*
Y636940D02*
Y639564D01*
X1439624Y636940D01*
X1440280D01*
X1440936Y637596D01*
Y638908D01*
X1440280Y639564D01*
M02*
