M48
;Layer_Color=9474304
;FILE_FORMAT=2:5
INCH,LZ
;TYPE=PLATED
T1F00S00C0.01575
T2F00S00C0.03937
%
T01
X14535Y0666
X1466Y06655
X14715Y06795
Y0684625
Y068975
Y0694875
Y07
T02
X14165Y0638
X14265
Y0648
Y0658
Y0668
Y0678
Y0688
Y0698
Y0708
Y0718
Y0728
X14165
Y0718
Y0708
Y0698
Y0688
Y0678
Y0668
Y0658
Y0648
M30
