G04 Layer_Physical_Order=2*
G04 Layer_Color=16711680*
%FSLAX25Y25*%
%MOIN*%
G70*
G01*
G75*
%ADD13C,0.01000*%
%ADD14C,0.00394*%
%ADD15C,0.00197*%
%ADD16C,0.05118*%
%ADD17C,0.02362*%
G36*
X1473000Y731195D02*
X1472783Y731121D01*
X1472500Y731068D01*
X1471795Y731609D01*
X1470929Y731967D01*
X1470000Y732090D01*
X1469071Y731967D01*
X1468205Y731609D01*
X1467462Y731038D01*
X1466891Y730295D01*
X1466533Y729429D01*
X1466410Y728500D01*
X1466533Y727571D01*
X1466891Y726705D01*
X1467462Y725962D01*
X1468205Y725391D01*
X1469071Y725033D01*
X1470000Y724910D01*
X1470929Y725033D01*
X1471795Y725391D01*
X1472500Y725932D01*
X1472783Y725878D01*
X1473000Y725805D01*
Y721195D01*
X1472783Y721122D01*
X1472500Y721068D01*
X1471795Y721609D01*
X1470929Y721967D01*
X1470500Y722024D01*
Y718500D01*
Y714976D01*
X1470929Y715033D01*
X1471795Y715391D01*
X1472500Y715932D01*
X1472783Y715878D01*
X1473000Y715805D01*
Y711195D01*
X1472783Y711122D01*
X1472500Y711068D01*
X1471795Y711609D01*
X1470929Y711967D01*
X1470500Y712024D01*
Y708500D01*
Y704976D01*
X1470929Y705033D01*
X1471795Y705391D01*
X1472500Y705932D01*
X1472783Y705878D01*
X1473000Y705805D01*
Y701195D01*
X1472783Y701122D01*
X1472500Y701068D01*
X1471795Y701609D01*
X1470929Y701967D01*
X1470500Y702024D01*
Y698500D01*
Y694976D01*
X1470929Y695033D01*
X1471795Y695391D01*
X1472500Y695932D01*
X1472783Y695879D01*
X1473000Y695805D01*
Y691195D01*
X1472783Y691121D01*
X1472500Y691068D01*
X1471795Y691609D01*
X1470929Y691967D01*
X1470500Y692024D01*
Y688500D01*
Y684976D01*
X1470929Y685033D01*
X1471795Y685391D01*
X1472500Y685932D01*
X1472783Y685879D01*
X1473000Y685805D01*
Y681195D01*
X1472783Y681121D01*
X1472500Y681068D01*
X1471795Y681609D01*
X1470929Y681967D01*
X1470500Y682024D01*
Y678500D01*
Y674976D01*
X1470929Y675033D01*
X1471795Y675391D01*
X1472500Y675932D01*
X1472783Y675878D01*
X1473000Y675805D01*
Y671195D01*
X1472783Y671122D01*
X1472500Y671068D01*
X1471795Y671609D01*
X1470929Y671967D01*
X1470500Y672024D01*
Y668500D01*
Y664976D01*
X1470929Y665033D01*
X1471795Y665391D01*
X1472500Y665932D01*
X1472783Y665878D01*
X1473000Y665805D01*
Y661195D01*
X1472783Y661122D01*
X1472500Y661068D01*
X1471795Y661609D01*
X1470929Y661967D01*
X1470500Y662024D01*
Y658500D01*
Y654976D01*
X1470929Y655033D01*
X1471795Y655391D01*
X1472500Y655932D01*
X1472783Y655878D01*
X1473000Y655805D01*
Y651195D01*
X1472783Y651122D01*
X1472500Y651068D01*
X1471795Y651609D01*
X1470929Y651967D01*
X1470500Y652024D01*
Y648500D01*
Y644976D01*
X1470929Y645033D01*
X1471795Y645391D01*
X1472500Y645932D01*
X1472783Y645879D01*
X1473000Y645805D01*
Y641195D01*
X1472783Y641121D01*
X1472500Y641068D01*
X1471795Y641609D01*
X1470929Y641967D01*
X1470500Y642024D01*
Y638500D01*
Y634976D01*
X1470929Y635033D01*
X1471795Y635391D01*
X1472500Y635932D01*
X1472783Y635879D01*
X1473000Y635805D01*
Y633000D01*
X1413000D01*
Y658684D01*
X1413442Y658867D01*
X1413785Y658545D01*
X1413776Y658500D01*
X1413945Y657649D01*
X1414427Y656927D01*
X1415149Y656445D01*
X1416000Y656276D01*
X1416851Y656445D01*
X1417572Y656927D01*
X1418055Y657649D01*
X1418224Y658500D01*
X1418055Y659351D01*
X1417572Y660073D01*
X1416851Y660555D01*
X1416000Y660724D01*
X1415949Y660714D01*
X1415529Y661133D01*
Y692899D01*
X1415572Y692928D01*
X1416055Y693649D01*
X1416224Y694500D01*
X1416055Y695351D01*
X1415572Y696072D01*
X1414851Y696555D01*
X1414000Y696724D01*
X1413500Y696624D01*
X1413000Y697011D01*
Y733000D01*
X1473000D01*
Y731195D01*
D02*
G37*
%LPC*%
G36*
X1430500Y686724D02*
X1429649Y686555D01*
X1428928Y686072D01*
X1428445Y685351D01*
X1428276Y684500D01*
X1428445Y683649D01*
X1428928Y682928D01*
X1428971Y682899D01*
Y665500D01*
X1429087Y664915D01*
X1429296Y664602D01*
X1429276Y664500D01*
X1429445Y663649D01*
X1429928Y662927D01*
X1430649Y662445D01*
X1431500Y662276D01*
X1432351Y662445D01*
X1433072Y662927D01*
X1433555Y663649D01*
X1433724Y664500D01*
X1433555Y665351D01*
X1433072Y666073D01*
X1432351Y666555D01*
X1432029Y666618D01*
Y682899D01*
X1432073Y682928D01*
X1432555Y683649D01*
X1432724Y684500D01*
X1432555Y685351D01*
X1432073Y686072D01*
X1431351Y686555D01*
X1430500Y686724D01*
D02*
G37*
G36*
X1469500Y662024D02*
X1469071Y661967D01*
X1468205Y661609D01*
X1467462Y661038D01*
X1466891Y660295D01*
X1466533Y659429D01*
X1466476Y659000D01*
X1469500D01*
Y662024D01*
D02*
G37*
G36*
Y658000D02*
X1466476D01*
X1466533Y657571D01*
X1466891Y656705D01*
X1467462Y655962D01*
X1468205Y655391D01*
X1469071Y655033D01*
X1469500Y654976D01*
Y658000D01*
D02*
G37*
G36*
Y678000D02*
X1466476D01*
X1466533Y677571D01*
X1466891Y676705D01*
X1467462Y675962D01*
X1468205Y675391D01*
X1469071Y675033D01*
X1469500Y674976D01*
Y678000D01*
D02*
G37*
G36*
Y672024D02*
X1469071Y671967D01*
X1468205Y671609D01*
X1467462Y671038D01*
X1466891Y670295D01*
X1466533Y669429D01*
X1466476Y669000D01*
X1469500D01*
Y672024D01*
D02*
G37*
G36*
Y668000D02*
X1466476D01*
X1466533Y667571D01*
X1466891Y666705D01*
X1467462Y665962D01*
X1468205Y665391D01*
X1469071Y665033D01*
X1469500Y664976D01*
Y668000D01*
D02*
G37*
G36*
Y642024D02*
X1469071Y641967D01*
X1468205Y641609D01*
X1467462Y641038D01*
X1466891Y640295D01*
X1466533Y639429D01*
X1466476Y639000D01*
X1469500D01*
Y642024D01*
D02*
G37*
G36*
Y638000D02*
X1466476D01*
X1466533Y637571D01*
X1466891Y636705D01*
X1467462Y635962D01*
X1468205Y635391D01*
X1469071Y635033D01*
X1469500Y634976D01*
Y638000D01*
D02*
G37*
G36*
X1460000Y642090D02*
X1459071Y641967D01*
X1458205Y641609D01*
X1457462Y641038D01*
X1456891Y640295D01*
X1456533Y639429D01*
X1456410Y638500D01*
X1456533Y637571D01*
X1456891Y636705D01*
X1457462Y635962D01*
X1458205Y635391D01*
X1459071Y635033D01*
X1460000Y634910D01*
X1460929Y635033D01*
X1461795Y635391D01*
X1462538Y635962D01*
X1463109Y636705D01*
X1463467Y637571D01*
X1463590Y638500D01*
X1463467Y639429D01*
X1463109Y640295D01*
X1462538Y641038D01*
X1461795Y641609D01*
X1460929Y641967D01*
X1460000Y642090D01*
D02*
G37*
G36*
X1469500Y652024D02*
X1469071Y651967D01*
X1468205Y651609D01*
X1467462Y651038D01*
X1466891Y650295D01*
X1466533Y649429D01*
X1466476Y649000D01*
X1469500D01*
Y652024D01*
D02*
G37*
G36*
Y648000D02*
X1466476D01*
X1466533Y647571D01*
X1466891Y646705D01*
X1467462Y645962D01*
X1468205Y645391D01*
X1469071Y645033D01*
X1469500Y644976D01*
Y648000D01*
D02*
G37*
G36*
X1460000Y652090D02*
X1459071Y651967D01*
X1458205Y651609D01*
X1457462Y651038D01*
X1456891Y650295D01*
X1456533Y649429D01*
X1456410Y648500D01*
X1456533Y647571D01*
X1456891Y646705D01*
X1457462Y645962D01*
X1458205Y645391D01*
X1459071Y645033D01*
X1460000Y644910D01*
X1460929Y645033D01*
X1461795Y645391D01*
X1462538Y645962D01*
X1463109Y646705D01*
X1463467Y647571D01*
X1463590Y648500D01*
X1463467Y649429D01*
X1463109Y650295D01*
X1462538Y651038D01*
X1461795Y651609D01*
X1460929Y651967D01*
X1460000Y652090D01*
D02*
G37*
G36*
Y722090D02*
X1459071Y721967D01*
X1458205Y721609D01*
X1457462Y721038D01*
X1456891Y720295D01*
X1456533Y719429D01*
X1456410Y718500D01*
X1456533Y717571D01*
X1456891Y716705D01*
X1457462Y715962D01*
X1458205Y715391D01*
X1459071Y715033D01*
X1460000Y714910D01*
X1460929Y715033D01*
X1461795Y715391D01*
X1462538Y715962D01*
X1463109Y716705D01*
X1463467Y717571D01*
X1463590Y718500D01*
X1463467Y719429D01*
X1463109Y720295D01*
X1462538Y721038D01*
X1461795Y721609D01*
X1460929Y721967D01*
X1460000Y722090D01*
D02*
G37*
G36*
X1469500Y712024D02*
X1469071Y711967D01*
X1468205Y711609D01*
X1467462Y711038D01*
X1466891Y710295D01*
X1466533Y709429D01*
X1466476Y709000D01*
X1469500D01*
Y712024D01*
D02*
G37*
G36*
Y708000D02*
X1466476D01*
X1466533Y707571D01*
X1466891Y706705D01*
X1467462Y705962D01*
X1468205Y705391D01*
X1469071Y705033D01*
X1469500Y704976D01*
Y708000D01*
D02*
G37*
G36*
X1460000Y732090D02*
X1459071Y731967D01*
X1458205Y731609D01*
X1457462Y731038D01*
X1456891Y730295D01*
X1456781Y730029D01*
X1452000D01*
X1451415Y729913D01*
X1450919Y729581D01*
X1448419Y727081D01*
X1448087Y726585D01*
X1447971Y726000D01*
Y691671D01*
X1447530Y691435D01*
X1447351Y691555D01*
X1446500Y691724D01*
X1445649Y691555D01*
X1444928Y691073D01*
X1444445Y690351D01*
X1444276Y689500D01*
X1444445Y688649D01*
X1444928Y687927D01*
X1444971Y687899D01*
Y648218D01*
X1444149Y648055D01*
X1443427Y647573D01*
X1442945Y646851D01*
X1442776Y646000D01*
X1442945Y645149D01*
X1443427Y644427D01*
X1444149Y643945D01*
X1445000Y643776D01*
X1445851Y643945D01*
X1446572Y644427D01*
X1446755Y644700D01*
X1447081Y644919D01*
X1447581Y645419D01*
X1447913Y645915D01*
X1448029Y646500D01*
Y672329D01*
X1448470Y672565D01*
X1448649Y672445D01*
X1449500Y672276D01*
X1450351Y672445D01*
X1450971Y672859D01*
X1451471Y672692D01*
Y670119D01*
X1451149Y670055D01*
X1450428Y669572D01*
X1449945Y668851D01*
X1449776Y668000D01*
X1449945Y667149D01*
X1450428Y666428D01*
X1451149Y665945D01*
X1452000Y665776D01*
X1452851Y665945D01*
X1453471Y666359D01*
X1453971Y666192D01*
Y664101D01*
X1453928Y664073D01*
X1453445Y663351D01*
X1453276Y662500D01*
X1453445Y661649D01*
X1453928Y660927D01*
X1454649Y660445D01*
X1455500Y660276D01*
X1456351Y660445D01*
X1456464Y660521D01*
X1456840Y660171D01*
X1456533Y659429D01*
X1456410Y658500D01*
X1456533Y657571D01*
X1456891Y656705D01*
X1457462Y655962D01*
X1458205Y655391D01*
X1459071Y655033D01*
X1460000Y654910D01*
X1460929Y655033D01*
X1461795Y655391D01*
X1462538Y655962D01*
X1463109Y656705D01*
X1463467Y657571D01*
X1463590Y658500D01*
X1463467Y659429D01*
X1463109Y660295D01*
X1462538Y661038D01*
X1461795Y661609D01*
X1460929Y661967D01*
X1460000Y662090D01*
X1459071Y661967D01*
X1458205Y661609D01*
X1457984Y661439D01*
X1457866Y661496D01*
X1457576Y661756D01*
X1457724Y662500D01*
X1457555Y663351D01*
X1457073Y664073D01*
X1457029Y664101D01*
Y665787D01*
X1457529Y665910D01*
X1458205Y665391D01*
X1459071Y665033D01*
X1460000Y664910D01*
X1460929Y665033D01*
X1461795Y665391D01*
X1462538Y665962D01*
X1463109Y666705D01*
X1463467Y667571D01*
X1463590Y668500D01*
X1463467Y669429D01*
X1463109Y670295D01*
X1462538Y671038D01*
X1461795Y671609D01*
X1460929Y671967D01*
X1460000Y672090D01*
X1459071Y671967D01*
X1458205Y671609D01*
X1457529Y671090D01*
X1457029Y671213D01*
Y675786D01*
X1457529Y675910D01*
X1458205Y675391D01*
X1459071Y675033D01*
X1460000Y674910D01*
X1460929Y675033D01*
X1461795Y675391D01*
X1462538Y675962D01*
X1463109Y676705D01*
X1463467Y677571D01*
X1463590Y678500D01*
X1463467Y679429D01*
X1463109Y680295D01*
X1462538Y681038D01*
X1461795Y681609D01*
X1460929Y681967D01*
X1460000Y682090D01*
X1459071Y681967D01*
X1458205Y681609D01*
X1457529Y681090D01*
X1457029Y681214D01*
Y683366D01*
X1458805Y685143D01*
X1459071Y685033D01*
X1460000Y684910D01*
X1460929Y685033D01*
X1461795Y685391D01*
X1462538Y685962D01*
X1463109Y686705D01*
X1463467Y687571D01*
X1463590Y688500D01*
X1463467Y689429D01*
X1463109Y690295D01*
X1462538Y691038D01*
X1461795Y691609D01*
X1460929Y691967D01*
X1460000Y692090D01*
X1459071Y691967D01*
X1458205Y691609D01*
X1457462Y691038D01*
X1456891Y690295D01*
X1456533Y689429D01*
X1456410Y688500D01*
X1456533Y687571D01*
X1456643Y687305D01*
X1454991Y685654D01*
X1454529Y685846D01*
Y695366D01*
X1456133Y696971D01*
X1456781D01*
X1456891Y696705D01*
X1457462Y695962D01*
X1458205Y695391D01*
X1459071Y695033D01*
X1460000Y694910D01*
X1460929Y695033D01*
X1461795Y695391D01*
X1462538Y695962D01*
X1463109Y696705D01*
X1463467Y697571D01*
X1463590Y698500D01*
X1463467Y699429D01*
X1463109Y700295D01*
X1462538Y701038D01*
X1461795Y701609D01*
X1460929Y701967D01*
X1460000Y702090D01*
X1459071Y701967D01*
X1458205Y701609D01*
X1457462Y701038D01*
X1456891Y700295D01*
X1456781Y700029D01*
X1455500D01*
X1454915Y699913D01*
X1454419Y699581D01*
X1451919Y697081D01*
X1451587Y696585D01*
X1451529Y696295D01*
X1451029Y696345D01*
Y725366D01*
X1452633Y726971D01*
X1456781D01*
X1456891Y726705D01*
X1457462Y725962D01*
X1458205Y725391D01*
X1459071Y725033D01*
X1460000Y724910D01*
X1460929Y725033D01*
X1461795Y725391D01*
X1462538Y725962D01*
X1463109Y726705D01*
X1463467Y727571D01*
X1463590Y728500D01*
X1463467Y729429D01*
X1463109Y730295D01*
X1462538Y731038D01*
X1461795Y731609D01*
X1460929Y731967D01*
X1460000Y732090D01*
D02*
G37*
G36*
X1469500Y722024D02*
X1469071Y721967D01*
X1468205Y721609D01*
X1467462Y721038D01*
X1466891Y720295D01*
X1466533Y719429D01*
X1466476Y719000D01*
X1469500D01*
Y722024D01*
D02*
G37*
G36*
Y718000D02*
X1466476D01*
X1466533Y717571D01*
X1466891Y716705D01*
X1467462Y715962D01*
X1468205Y715391D01*
X1469071Y715033D01*
X1469500Y714976D01*
Y718000D01*
D02*
G37*
G36*
Y692024D02*
X1469071Y691967D01*
X1468205Y691609D01*
X1467462Y691038D01*
X1466891Y690295D01*
X1466533Y689429D01*
X1466476Y689000D01*
X1469500D01*
Y692024D01*
D02*
G37*
G36*
Y688000D02*
X1466476D01*
X1466533Y687571D01*
X1466891Y686705D01*
X1467462Y685962D01*
X1468205Y685391D01*
X1469071Y685033D01*
X1469500Y684976D01*
Y688000D01*
D02*
G37*
G36*
Y682024D02*
X1469071Y681967D01*
X1468205Y681609D01*
X1467462Y681038D01*
X1466891Y680295D01*
X1466533Y679429D01*
X1466476Y679000D01*
X1469500D01*
Y682024D01*
D02*
G37*
G36*
X1460000Y712090D02*
X1459071Y711967D01*
X1458205Y711609D01*
X1457462Y711038D01*
X1456891Y710295D01*
X1456533Y709429D01*
X1456410Y708500D01*
X1456533Y707571D01*
X1456891Y706705D01*
X1457462Y705962D01*
X1458205Y705391D01*
X1459071Y705033D01*
X1460000Y704910D01*
X1460929Y705033D01*
X1461795Y705391D01*
X1462538Y705962D01*
X1463109Y706705D01*
X1463467Y707571D01*
X1463590Y708500D01*
X1463467Y709429D01*
X1463109Y710295D01*
X1462538Y711038D01*
X1461795Y711609D01*
X1460929Y711967D01*
X1460000Y712090D01*
D02*
G37*
G36*
X1469500Y702024D02*
X1469071Y701967D01*
X1468205Y701609D01*
X1467462Y701038D01*
X1466891Y700295D01*
X1466533Y699429D01*
X1466476Y699000D01*
X1469500D01*
Y702024D01*
D02*
G37*
G36*
Y698000D02*
X1466476D01*
X1466533Y697571D01*
X1466891Y696705D01*
X1467462Y695962D01*
X1468205Y695391D01*
X1469071Y695033D01*
X1469500Y694976D01*
Y698000D01*
D02*
G37*
%LPD*%
D13*
X1445000Y646000D02*
X1446000D01*
X1446500Y646500D01*
Y689500D01*
X1414000Y660500D02*
X1416000Y658500D01*
X1414000Y660500D02*
Y694500D01*
X1430500Y665500D02*
Y684500D01*
Y665500D02*
X1431500Y664500D01*
X1455500Y662500D02*
Y684000D01*
X1453000Y669000D02*
Y696000D01*
X1452000Y668000D02*
X1453000Y669000D01*
Y696000D02*
X1455500Y698500D01*
Y684000D02*
X1460000Y688500D01*
X1449500Y674500D02*
Y726000D01*
X1455500Y698500D02*
X1460000D01*
X1452000Y728500D02*
X1460000D01*
X1449500Y726000D02*
X1452000Y728500D01*
D14*
X1412000Y734000D02*
X1474000D01*
Y632000D02*
Y734000D01*
X1412000Y632000D02*
X1474000D01*
X1412000D02*
Y734000D01*
X1431933Y652917D02*
Y655083D01*
X1436067Y652917D02*
Y655083D01*
X1431933D02*
X1436067D01*
X1431933Y652917D02*
X1436067D01*
X1443917Y642067D02*
X1446083D01*
X1443917Y637933D02*
X1446083D01*
Y642067D01*
X1443917Y637933D02*
Y642067D01*
X1432917Y654000D02*
X1435083D01*
X1434000Y652917D02*
Y655083D01*
X1445000Y638917D02*
Y641083D01*
X1443917Y640000D02*
X1446083D01*
D15*
X1430457Y652228D02*
Y655772D01*
X1437543Y652228D02*
Y655772D01*
X1430457D02*
X1437543D01*
X1430457Y652228D02*
X1437543D01*
X1443228Y643543D02*
X1446772D01*
X1443228Y636457D02*
X1446772D01*
Y643543D01*
X1443228Y636457D02*
Y643543D01*
D16*
X1460000Y728500D02*
D03*
D03*
Y718500D02*
D03*
Y708500D02*
D03*
Y698500D02*
D03*
Y688500D02*
D03*
Y678500D02*
D03*
Y668500D02*
D03*
Y658500D02*
D03*
Y648500D02*
D03*
Y638500D02*
D03*
X1470000Y728500D02*
D03*
Y638500D02*
D03*
Y648500D02*
D03*
Y658500D02*
D03*
Y668500D02*
D03*
Y678500D02*
D03*
Y688500D02*
D03*
Y698500D02*
D03*
Y708500D02*
D03*
Y718500D02*
D03*
D17*
X1443500Y704500D02*
D03*
X1437500D02*
D03*
X1446000Y700500D02*
D03*
X1440500D02*
D03*
X1434500D02*
D03*
X1445000Y646000D02*
D03*
X1446500Y689500D02*
D03*
X1416000Y658500D02*
D03*
X1414000Y694500D02*
D03*
X1431500Y664500D02*
D03*
X1455500Y662500D02*
D03*
X1430500Y684500D02*
D03*
X1452000Y668000D02*
D03*
X1449500Y674500D02*
D03*
M02*
