G04 Layer_Color=8421504*
%FSLAX25Y25*%
%MOIN*%
G70*
G01*
G75*
%ADD10R,0.02362X0.02165*%
%ADD11R,0.02165X0.02362*%
%ADD12R,0.11000X0.03000*%
%ADD14C,0.00394*%
%ADD15C,0.00197*%
D10*
X1432327Y654000D02*
D03*
X1435673D02*
D03*
D11*
X1445000Y641673D02*
D03*
Y638327D02*
D03*
D12*
X1422516Y674500D02*
D03*
Y679500D02*
D03*
Y684500D02*
D03*
Y689500D02*
D03*
Y694500D02*
D03*
X1438500D02*
D03*
Y689500D02*
D03*
Y684500D02*
D03*
Y679500D02*
D03*
Y674500D02*
D03*
D14*
X1412000Y734000D02*
X1474000D01*
Y632000D02*
Y734000D01*
X1412000Y632000D02*
X1474000D01*
X1412000D02*
Y734000D01*
X1431933Y652917D02*
Y655083D01*
X1436067Y652917D02*
Y655083D01*
X1431933D02*
X1436067D01*
X1431933Y652917D02*
X1436067D01*
X1443917Y642067D02*
X1446083D01*
X1443917Y637933D02*
X1446083D01*
Y642067D01*
X1443917Y637933D02*
Y642067D01*
X1432917Y654000D02*
X1435083D01*
X1434000Y652917D02*
Y655083D01*
X1445000Y638917D02*
Y641083D01*
X1443917Y640000D02*
X1446083D01*
D15*
X1430457Y652228D02*
Y655772D01*
X1437543Y652228D02*
Y655772D01*
X1430457D02*
X1437543D01*
X1430457Y652228D02*
X1437543D01*
X1443228Y643543D02*
X1446772D01*
X1443228Y636457D02*
X1446772D01*
Y643543D01*
X1443228Y636457D02*
Y643543D01*
M02*
