G04*
G04 #@! TF.GenerationSoftware,Altium Limited,Altium Designer,18.1.9 (240)*
G04*
G04 Layer_Color=16711935*
%FSLAX25Y25*%
%MOIN*%
G70*
G01*
G75*
%ADD12C,0.00787*%
%ADD13C,0.01000*%
%ADD16R,0.07087X0.01181*%
%ADD17R,0.01181X0.07087*%
G36*
X172441Y123622D02*
D01*
D02*
G37*
G36*
X229114Y118110D02*
D01*
D02*
G37*
G36*
X235610Y123622D02*
D01*
D02*
G37*
D12*
X359842Y131102D02*
G03*
X359842Y131102I-394J0D01*
G01*
X105709D02*
G03*
X105709Y131102I-394J0D01*
G01*
X236004Y122835D02*
G03*
X236004Y122835I-394J0D01*
G01*
X172835Y122835D02*
G03*
X172835Y122835I-394J0D01*
G01*
X229508Y118898D02*
G03*
X229508Y118898I-394J0D01*
G01*
X357874Y128740D02*
X364961D01*
X357874D02*
Y142913D01*
X364961D01*
Y128740D02*
Y142913D01*
X110827Y128740D02*
Y142913D01*
X103740D02*
X110827D01*
X103740Y128740D02*
Y142913D01*
Y128740D02*
X110827D01*
X233248Y117323D02*
X247421D01*
Y124409D01*
X233248D02*
X247421D01*
X233248Y117323D02*
Y124409D01*
X170079Y117323D02*
X184252D01*
Y124409D01*
X170079D02*
X184252D01*
X170079Y117323D02*
Y124409D01*
X231476Y117323D02*
Y124409D01*
X217303Y117323D02*
X231476D01*
X217303D02*
Y124409D01*
X231476D01*
D13*
X97244Y80709D02*
X373622D01*
X374016Y81102D01*
Y273622D01*
X97244D02*
X374016D01*
X97244Y80709D02*
Y273622D01*
D16*
X361417Y129331D02*
D03*
X107283Y129331D02*
D03*
D17*
X233839Y120866D02*
D03*
X170669Y120866D02*
D03*
X230886Y120866D02*
D03*
M02*
