G04*
G04 #@! TF.GenerationSoftware,Altium Limited,Altium Designer,18.1.9 (240)*
G04*
G04 Layer_Color=16711935*
%FSLAX25Y25*%
%MOIN*%
G70*
G01*
G75*
%ADD36C,0.05131*%
%ADD37C,0.24422*%
%ADD38C,0.07099*%
%ADD39C,0.16548*%
D36*
X128740Y221654D02*
D03*
X158268D02*
D03*
Y161614D02*
D03*
Y141929D02*
D03*
X128740D02*
D03*
Y161614D02*
D03*
X305906Y162402D02*
D03*
Y142717D02*
D03*
X335433D02*
D03*
Y162402D02*
D03*
Y222441D02*
D03*
X305906D02*
D03*
X277559Y243110D02*
D03*
Y213583D02*
D03*
X217520D02*
D03*
X197835D02*
D03*
Y243110D02*
D03*
X217520D02*
D03*
X262795Y147638D02*
D03*
Y154528D02*
D03*
X266201Y180315D02*
D03*
X248031Y162402D02*
D03*
X260216Y133071D02*
D03*
X254921Y187008D02*
D03*
X276378Y165748D02*
D03*
X218898Y195669D02*
D03*
X198031Y134252D02*
D03*
Y148425D02*
D03*
Y141339D02*
D03*
Y158661D02*
D03*
X213779Y173917D02*
D03*
X234252Y109028D02*
D03*
X231299Y139807D02*
D03*
X289173Y120866D02*
D03*
D37*
X113976Y97441D02*
D03*
Y256890D02*
D03*
X357283D02*
D03*
Y97441D02*
D03*
D38*
X210630Y109528D02*
D03*
X198819D02*
D03*
X160039D02*
D03*
X148228D02*
D03*
X271654D02*
D03*
X259842D02*
D03*
X322638D02*
D03*
X310827D02*
D03*
D39*
X204724Y92520D02*
D03*
X154134D02*
D03*
X265748D02*
D03*
X316732D02*
D03*
M02*
