M48
;Layer_Color=9474304
;FILE_FORMAT=2:5
INCH,LZ
;TYPE=PLATED
T1F00S00C0.02800
T2F00S00C0.03000
T3F00S00C0.04173
T4F00S00C0.11811
;TYPE=NON_PLATED
T5F00S00C0.15748
%
T01
X0198031Y0134252
Y0141339
Y0148425
X0231299Y0139807
X0234252Y0109028
X0260216Y0133071
X0262795Y0147638
Y0154528
X0289173Y0120866
X0276378Y0165748
X0266201Y0180315
X0254921Y0187008
X0248031Y0162402
X0213779Y0173917
X0218898Y0195669
X0198031Y0158661
T02
X012874Y0141929
X0158268
X0305906Y0142717
X0335433
Y0162402
Y0222441
X0305906
X0277559Y0213583
Y024311
X021752
X0197835
Y0213583
X021752
X0158268Y0221654
Y0161614
X0305906Y0162402
X012874Y0161614
Y0221654
T03
X0148228Y0109528
X0160039
X0198819
X021063
X0259842
X0271654
X0310827
X0322638
T04
X0154134Y009252
X0204724
X0265748
X0316732
T05
X0113976Y0097441
X0357283
Y025689
X0113976
M30
