G04*
G04 #@! TF.GenerationSoftware,Altium Limited,Altium Designer,18.1.9 (240)*
G04*
G04 Layer_Color=8388736*
%FSLAX25Y25*%
%MOIN*%
G70*
G01*
G75*
%ADD27R,0.03950X0.04343*%
%ADD28O,0.03162X0.06509*%
%ADD29R,0.10642X0.09068*%
%ADD30R,0.03950X0.04540*%
%ADD31R,0.04540X0.03950*%
%ADD32R,0.04343X0.04540*%
%ADD33R,0.04540X0.04343*%
%ADD34R,0.03950X0.03950*%
%ADD35R,0.03950X0.03950*%
%ADD36C,0.05131*%
%ADD37C,0.24422*%
%ADD38C,0.07099*%
%ADD39C,0.16548*%
D27*
X185433Y150591D02*
D03*
X180709D02*
D03*
X185236Y193898D02*
D03*
X180512D02*
D03*
X185236Y135827D02*
D03*
X180512D02*
D03*
X272244Y120866D02*
D03*
X276969D02*
D03*
D28*
X225020Y155413D02*
D03*
X220020D02*
D03*
X215020D02*
D03*
X210020D02*
D03*
X225020Y133957D02*
D03*
X220020D02*
D03*
X215020D02*
D03*
X210020D02*
D03*
X285059Y155413D02*
D03*
X280059D02*
D03*
X275059D02*
D03*
X270059D02*
D03*
X285059Y133957D02*
D03*
X280059D02*
D03*
X275059D02*
D03*
X270059D02*
D03*
X276201Y193799D02*
D03*
X271201D02*
D03*
X266201D02*
D03*
X261201D02*
D03*
X276201Y172343D02*
D03*
X271201D02*
D03*
X266201D02*
D03*
X261201D02*
D03*
X240571Y195374D02*
D03*
X235571D02*
D03*
X230571D02*
D03*
X225571D02*
D03*
X240571Y173917D02*
D03*
X235571D02*
D03*
X230571D02*
D03*
X225571D02*
D03*
X254547Y155413D02*
D03*
X249547D02*
D03*
X244547D02*
D03*
X239547D02*
D03*
X254547Y133957D02*
D03*
X249547D02*
D03*
X244547D02*
D03*
X239547D02*
D03*
D29*
X193110Y172244D02*
D03*
X180512D02*
D03*
X157874Y244882D02*
D03*
X145276D02*
D03*
X314370Y243110D02*
D03*
X301772D02*
D03*
D30*
X190157Y262795D02*
D03*
X194882D02*
D03*
X238405Y262835D02*
D03*
X243130D02*
D03*
X281417D02*
D03*
X286142D02*
D03*
X298031Y122047D02*
D03*
X302756D02*
D03*
X220847Y163386D02*
D03*
X225571D02*
D03*
D31*
X288189Y172441D02*
D03*
Y167717D02*
D03*
D32*
X107283Y149705D02*
D03*
Y155413D02*
D03*
X361417Y148327D02*
D03*
Y154035D02*
D03*
D33*
X195768Y120866D02*
D03*
X190059D02*
D03*
X259744Y120866D02*
D03*
X254035D02*
D03*
X205906D02*
D03*
X211614D02*
D03*
D34*
X361417Y133071D02*
D03*
Y139370D02*
D03*
X107283D02*
D03*
Y133071D02*
D03*
D35*
X243878Y120866D02*
D03*
X237579D02*
D03*
X180709Y120866D02*
D03*
X174409D02*
D03*
X227146Y120866D02*
D03*
X220847D02*
D03*
D36*
X128740Y221654D02*
D03*
X158268D02*
D03*
Y161614D02*
D03*
Y141929D02*
D03*
X128740D02*
D03*
Y161614D02*
D03*
X305906Y162402D02*
D03*
Y142717D02*
D03*
X335433D02*
D03*
Y162402D02*
D03*
Y222441D02*
D03*
X305906D02*
D03*
X277559Y243110D02*
D03*
Y213583D02*
D03*
X217520D02*
D03*
X197835D02*
D03*
Y243110D02*
D03*
X217520D02*
D03*
X262795Y147638D02*
D03*
Y154528D02*
D03*
X266201Y180315D02*
D03*
X248031Y162402D02*
D03*
X260216Y133071D02*
D03*
X254921Y187008D02*
D03*
X276378Y165748D02*
D03*
X218898Y195669D02*
D03*
X198031Y134252D02*
D03*
Y148425D02*
D03*
Y141339D02*
D03*
Y158661D02*
D03*
X213779Y173917D02*
D03*
X234252Y109028D02*
D03*
X231299Y139807D02*
D03*
X289173Y120866D02*
D03*
D37*
X113976Y97441D02*
D03*
Y256890D02*
D03*
X357283D02*
D03*
Y97441D02*
D03*
D38*
X210630Y109528D02*
D03*
X198819D02*
D03*
X160039D02*
D03*
X148228D02*
D03*
X271654D02*
D03*
X259842D02*
D03*
X322638D02*
D03*
X310827D02*
D03*
D39*
X204724Y92520D02*
D03*
X154134D02*
D03*
X265748D02*
D03*
X316732D02*
D03*
M02*
