G04*
G04 #@! TF.GenerationSoftware,Altium Limited,Altium Designer,18.1.9 (240)*
G04*
G04 Layer_Color=16711935*
%FSLAX25Y25*%
%MOIN*%
G70*
G01*
G75*
%ADD46C,0.00394*%
%ADD47R,0.02489X0.15512*%
D46*
X213189Y140354D02*
G03*
X213189Y140354I-1969J0D01*
G01*
X273228D02*
G03*
X273228Y140354I-1969J0D01*
G01*
X264370Y178740D02*
G03*
X264370Y178740I-1969J0D01*
G01*
X228740Y180315D02*
G03*
X228740Y180315I-1969J0D01*
G01*
X242717Y140354D02*
G03*
X242717Y140354I-1969J0D01*
G01*
X179921Y148819D02*
X186221D01*
X179921Y152362D02*
X186221D01*
Y148819D02*
Y152362D01*
X179921Y148819D02*
Y152362D01*
X179724Y192126D02*
X186024D01*
X179724Y195669D02*
X186024D01*
Y192126D02*
Y195669D01*
X179724Y192126D02*
Y195669D01*
X227362Y136811D02*
Y152559D01*
X207677Y136811D02*
Y152559D01*
X227362D01*
X207677Y136811D02*
X227362D01*
X287402D02*
Y152559D01*
X267717Y136811D02*
Y152559D01*
X287402D01*
X267717Y136811D02*
X287402D01*
X278543Y175197D02*
Y190945D01*
X258858Y175197D02*
Y190945D01*
X278543D01*
X258858Y175197D02*
X278543D01*
X242913Y176772D02*
Y192520D01*
X223228Y176772D02*
Y192520D01*
X242913D01*
X223228Y176772D02*
X242913D01*
X256890Y136811D02*
Y152559D01*
X237205Y136811D02*
Y152559D01*
X256890D01*
X237205Y136811D02*
X256890D01*
X196063Y164488D02*
Y180000D01*
X177559Y164488D02*
Y180000D01*
Y164488D02*
X196063D01*
X177559Y180000D02*
X196063D01*
X179724Y134055D02*
X186024D01*
X179724Y137598D02*
X186024D01*
Y134055D02*
Y137598D01*
X179724Y134055D02*
Y137598D01*
X160827Y237126D02*
Y252638D01*
X142323Y237126D02*
Y252638D01*
Y237126D02*
X160827D01*
X142323Y252638D02*
X160827D01*
X317323Y235354D02*
Y250866D01*
X298819Y235354D02*
Y250866D01*
Y235354D02*
X317323D01*
X298819Y250866D02*
X317323D01*
X189370Y260925D02*
Y264665D01*
X195669Y260925D02*
Y264665D01*
X189370D02*
X195669D01*
X189370Y260925D02*
X195669D01*
X237618Y260965D02*
Y264705D01*
X243917Y260965D02*
Y264705D01*
X237618D02*
X243917D01*
X237618Y260965D02*
X243917D01*
X280630D02*
Y264705D01*
X286929Y260965D02*
Y264705D01*
X280630D02*
X286929D01*
X280630Y260965D02*
X286929D01*
X297244Y120177D02*
Y123917D01*
X303543Y120177D02*
Y123917D01*
X297244D02*
X303543D01*
X297244Y120177D02*
X303543D01*
X286319Y173228D02*
X290059D01*
X286319Y166929D02*
X290059D01*
Y173228D01*
X286319Y166929D02*
Y173228D01*
X220059Y161516D02*
Y165256D01*
X226358Y161516D02*
Y165256D01*
X220059D02*
X226358D01*
X220059Y161516D02*
X226358D01*
X105512Y149213D02*
X109055D01*
X105512Y155905D02*
X109055D01*
X105512Y149213D02*
Y155905D01*
X109055Y149213D02*
Y155905D01*
X359646Y147835D02*
X363189D01*
X359646Y154528D02*
X363189D01*
X359646Y147835D02*
Y154528D01*
X363189Y147835D02*
Y154528D01*
X189567Y119095D02*
X196260D01*
X189567Y122638D02*
X196260D01*
Y119095D02*
Y122638D01*
X189567Y119095D02*
Y122638D01*
X271457Y119095D02*
Y122638D01*
X277756Y119095D02*
Y122638D01*
X271457D02*
X277756D01*
X271457Y119095D02*
X277756D01*
X253543Y119095D02*
X260236D01*
X253543Y122638D02*
X260236D01*
Y119095D02*
Y122638D01*
X253543Y119095D02*
Y122638D01*
X205413Y122638D02*
X212106D01*
X205413Y119095D02*
X212106D01*
X205413D02*
Y122638D01*
X212106Y119095D02*
Y122638D01*
D47*
X194819Y172244D02*
D03*
X159582Y244882D02*
D03*
X316078Y243110D02*
D03*
M02*
