%FSTAX23Y23*%
%MOIN*%
%SFA1B1*%

%IPPOS*%
%ADD11C,0.010000*%
%ADD12R,0.035433X0.027559*%
%ADD13R,0.060984X0.039370*%
%ADD14R,0.027559X0.035433*%
%ADD19C,0.050000*%
%LNpcb1-1*%
%LPD*%
G36*
X0147Y0165D02*
Y01533D01*
X01468Y01532*
X01465Y01531*
X01452Y01544*
X01447Y01547*
X01441Y01549*
X01428*
Y01563*
X01347*
Y01504*
X01428*
Y01518*
X01434*
X01439Y01513*
Y01335*
X0121*
Y01388*
X0121Y0139*
Y01402*
X01215Y01402*
X01215Y01398*
X01219Y01389*
X01225Y01382*
X01232Y01376*
X0124Y01373*
X01245Y01372*
Y01407*
Y01442*
X0124Y01441*
X01232Y01438*
X01225Y01432*
X01219Y01425*
X01215Y01416*
X01215Y01412*
X0121Y01412*
Y01445*
X01285Y0152*
Y01645*
X01305Y01665*
X01455*
X0147Y0165*
G37*
%LNpcb1-2*%
%LPC*%
G36*
X01428Y01642D02*
X01392D01*
Y01617*
X01428*
Y01642*
G37*
G36*
X01382D02*
X01347D01*
Y01617*
X01382*
Y01642*
G37*
G36*
X01428Y01607D02*
X01392D01*
Y01582*
X01428*
Y01607*
G37*
G36*
X01382D02*
X01347D01*
Y01582*
X01382*
Y01607*
G37*
G36*
X01428Y01484D02*
X01392D01*
Y0146*
X01428*
Y01484*
G37*
G36*
X01382D02*
X01347D01*
Y0146*
X01382*
Y01484*
G37*
G36*
X01428Y0145D02*
X01392D01*
Y01425*
X01428*
Y0145*
G37*
G36*
X01382D02*
X01347D01*
Y01425*
X01382*
Y0145*
G37*
G36*
X01255Y01442D02*
Y01412D01*
X01284*
X01284Y01416*
X0128Y01425*
X01274Y01432*
X01267Y01438*
X01259Y01441*
X01255Y01442*
G37*
G36*
X01428Y01405D02*
X01392D01*
Y01381*
X01428*
Y01405*
G37*
G36*
X01382D02*
X01347D01*
Y01381*
X01382*
Y01405*
G37*
G36*
X01284Y01402D02*
X01255D01*
Y01372*
X01259Y01373*
X01267Y01376*
X01274Y01382*
X0128Y01389*
X01284Y01398*
X01284Y01402*
G37*
G36*
X01428Y01371D02*
X01392D01*
Y01346*
X01428*
Y01371*
G37*
G36*
X01382D02*
X01347D01*
Y01346*
X01382*
Y01371*
G37*
%LNpcb1-3*%
%LPD*%
G54D11*
X0144Y0107D02*
Y01095D01*
X01405Y01035D02*
X0144Y0107D01*
X01395Y01035D02*
X01405D01*
X01075Y0176D02*
X011Y01785D01*
X01075Y01625D02*
Y0176D01*
X011Y01785D02*
X01385D01*
X01122Y01297D02*
X01132D01*
X0108Y01255D02*
X01122Y01297D01*
X0108Y0111D02*
Y01255D01*
X0106Y0144D02*
X01075Y01455D01*
X0102Y0119D02*
Y0149D01*
Y0119D02*
X0103Y0118D01*
X0102Y0149D02*
X01063Y01533D01*
X01075Y01455D02*
X01132D01*
X01063Y01533D02*
X01132D01*
X0141Y01235D02*
X01455Y0128D01*
Y0152*
X01441Y01533D02*
X01455Y0152D01*
X01387Y01533D02*
X01441D01*
X01277Y01297D02*
X01387D01*
X0125Y0127D02*
X01277Y01297D01*
X0108Y0111D02*
X01095Y01095D01*
X01087Y01612D02*
X01132D01*
X01075Y01625D02*
X01087Y01612D01*
X01385Y01785D02*
X01404Y01765D01*
Y0172D02*
Y01765D01*
X01132Y01376D02*
X01181D01*
X01195Y0139*
Y01625*
X0113Y01689D02*
X01195Y01625D01*
X0113Y01689D02*
Y01725D01*
X01245Y01555D02*
Y01585D01*
X0122Y0161D02*
X01245Y01585D01*
X0122Y0161D02*
Y01694D01*
X01189Y01725D02*
X0122Y01694D01*
X01265Y0169D02*
Y017D01*
X01285Y0172*
X01345*
X01404D02*
X0146D01*
X01495Y01685*
Y0124D02*
Y01685D01*
X0144Y01185D02*
X01495Y0124D01*
X0144Y01154D02*
Y01185D01*
G54D12*
X0144Y01154D03*
Y01095D03*
G54D13*
X01132Y01297D03*
X01387D03*
Y01376D03*
Y01455D03*
Y01533D03*
Y01612D03*
X01132D03*
Y01533D03*
Y01455D03*
Y01376D03*
G54D14*
X0113Y01725D03*
X01189D03*
X01404Y0172D03*
X01345D03*
G54D19*
X01395Y01035D03*
X0125Y01407D03*
X0106Y0144D03*
X0103Y0118D03*
X0141Y01235D03*
X0125Y0127D03*
X01095Y01095D03*
X01245Y01555D03*
X01265Y0169D03*
M02*