%FSTAX23Y23*%
%MOIN*%
%SFA1B1*%

%IPPOS*%
%ADD11C,0.010000*%
%ADD19C,0.050000*%
%ADD20R,0.060000X0.020000*%
%LNpcb1-1*%
%LPD*%
G36*
X01415Y01655D02*
Y0129D01*
X01278*
X01274Y01294*
X01267Y013*
X01262Y01302*
X012Y01365*
Y01387*
X0121*
Y014*
X01211Y01404*
X01215Y01405*
X01215Y01404*
X01215Y01398*
X01219Y01389*
X01225Y01382*
X01232Y01376*
X0124Y01373*
X01245Y01372*
Y01407*
Y01442*
X0124Y01441*
X01232Y01438*
X01225Y01432*
X01219Y01425*
X01215Y01416*
X01215Y0141*
X01215Y01409*
X01211Y0141*
X0121Y01414*
Y01427*
X012*
Y01435*
X0128Y01515*
Y01552*
X0128Y01555*
X0128Y01557*
Y01654*
X01282Y01656*
X01287Y01654*
Y01648*
X01322*
Y01663*
X01295*
X01293Y01668*
X013Y01675*
X01395*
X01415Y01655*
G37*
%LNpcb1-2*%
%LPC*%
G36*
X01367Y01663D02*
X01332D01*
Y01648*
X01367*
Y01663*
G37*
G36*
Y01638D02*
X01332D01*
Y01623*
X01367*
Y01638*
G37*
G36*
X01322D02*
X01287D01*
Y01623*
X01322*
Y01638*
G37*
G36*
X01367Y01584D02*
X01287D01*
Y01544*
X01367*
Y01584*
G37*
G36*
Y01506D02*
X01332D01*
Y01491*
X01367*
Y01506*
G37*
G36*
X01322D02*
X01287D01*
Y01491*
X01322*
Y01506*
G37*
G36*
X01367Y01481D02*
X01332D01*
Y01466*
X01367*
Y01481*
G37*
G36*
X01322D02*
X01287D01*
Y01466*
X01322*
Y01481*
G37*
G36*
X01367Y01427D02*
X01332D01*
Y01412*
X01367*
Y01427*
G37*
G36*
Y01402D02*
X01332D01*
Y01387*
X01367*
Y01402*
G37*
G36*
X01255Y01442D02*
Y01407D01*
Y01372*
X01259Y01373*
X01267Y01376*
X01274Y01382*
X0128Y01389*
X01282Y01394*
X01287Y01393*
Y01387*
X01322*
Y01407*
Y01427*
X01287*
Y01421*
X01282Y0142*
X0128Y01425*
X01274Y01432*
X01267Y01438*
X01259Y01441*
X01255Y01442*
G37*
G36*
X01367Y01348D02*
X01332D01*
Y01333*
X01367*
Y01348*
G37*
G36*
X01322D02*
X01287D01*
Y01333*
X01322*
Y01348*
G37*
G36*
X01367Y01323D02*
X01332D01*
Y01308*
X01367*
Y01323*
G37*
G36*
X01322D02*
X01287D01*
Y01308*
X01322*
Y01323*
G37*
%LNpcb1-3*%
%LPD*%
G54D11*
X01395Y01035D02*
Y01044D01*
X01347Y01092D02*
X01395Y01044D01*
X01327Y01092D02*
X01347D01*
X01091Y01328D02*
X0117D01*
X0106Y0136D02*
X01091Y01328D01*
X0106Y0136D02*
Y0144D01*
X01038Y01171D02*
X0117D01*
X0103Y0118D02*
X01038Y01171D01*
X01245Y01506D02*
Y01555D01*
X01225Y01486D02*
X01245Y01506D01*
X01327Y0125D02*
X01395D01*
X0141Y01235*
X0123Y0125D02*
X0125Y0127D01*
X0117Y0125D02*
X0123D01*
X01167Y01095D02*
X0117Y01092D01*
X01095Y01095D02*
X01167D01*
X0117Y01486D02*
X01225D01*
X0117Y01643D02*
X01218D01*
X01265Y0169*
G54D19*
X01395Y01035D03*
X0125Y01407D03*
X0106Y0144D03*
X0103Y0118D03*
X0141Y01235D03*
X0125Y0127D03*
X01095Y01095D03*
X01245Y01555D03*
X01265Y0169D03*
G54D20*
X01327Y01092D03*
Y01171D03*
Y0125D03*
Y01328D03*
Y01407D03*
Y01486D03*
Y01564D03*
Y01643D03*
Y01722D03*
Y01801D03*
X0117Y01092D03*
Y01171D03*
Y0125D03*
Y01328D03*
Y01407D03*
Y01486D03*
Y01564D03*
Y01643D03*
Y01722D03*
Y01801D03*
M02*