G04*
G04 #@! TF.GenerationSoftware,Altium Limited,Altium Designer,18.1.7 (191)*
G04*
G04 Layer_Color=65535*
%FSLAX25Y25*%
%MOIN*%
G70*
G01*
G75*
%ADD10C,0.00984*%
%ADD11C,0.02362*%
%ADD12C,0.00787*%
%ADD13C,0.00394*%
%ADD14C,0.01000*%
D10*
X64567Y65965D02*
G03*
X64567Y65965I-492J0D01*
G01*
D11*
X73622Y61024D02*
G03*
X73622Y61024I-1181J0D01*
G01*
D12*
X68504Y45276D02*
Y64961D01*
X81102Y45276D02*
Y64961D01*
X68504D02*
X81102D01*
X68504Y45276D02*
X81102D01*
X14041Y53673D02*
X13385Y54329D01*
X12073D01*
X11417Y53673D01*
Y51050D01*
X12073Y50394D01*
X13385D01*
X14041Y51050D01*
Y52362D01*
X12729D01*
X15353Y50394D02*
Y54329D01*
X17977Y50394D01*
Y54329D01*
X19289D02*
Y50394D01*
X21257D01*
X21913Y51050D01*
Y53673D01*
X21257Y54329D01*
X19289D01*
X10236Y29133D02*
X12860D01*
X11548Y30445D02*
Y27821D01*
X16796Y31101D02*
X14172D01*
Y29133D01*
X15484Y29789D01*
X16140D01*
X16796Y29133D01*
Y27821D01*
X16140Y27165D01*
X14828D01*
X14172Y27821D01*
X18108Y31101D02*
Y28477D01*
X19420Y27165D01*
X20731Y28477D01*
Y31101D01*
X24016Y16140D02*
X26640D01*
X25328D01*
Y12205D01*
X29919D02*
X28607D01*
X27951Y12861D01*
Y14173D01*
X28607Y14829D01*
X29919D01*
X30575Y14173D01*
Y13517D01*
X27951D01*
X32543Y14829D02*
X33855D01*
X34511Y14173D01*
Y12205D01*
X32543D01*
X31887Y12861D01*
X32543Y13517D01*
X34511D01*
X35823Y12205D02*
Y14829D01*
X36479D01*
X37135Y14173D01*
Y12205D01*
Y14173D01*
X37791Y14829D01*
X38447Y14173D01*
Y12205D01*
X43694D02*
Y16140D01*
X45662D01*
X46318Y15484D01*
Y14173D01*
X45662Y13517D01*
X43694D01*
X47630Y16140D02*
Y12205D01*
Y14173D01*
X48286Y14829D01*
X49598D01*
X50254Y14173D01*
Y12205D01*
X52222Y14829D02*
X53534D01*
X54190Y14173D01*
Y12205D01*
X52222D01*
X51566Y12861D01*
X52222Y13517D01*
X54190D01*
X55502Y12205D02*
Y14829D01*
X57469D01*
X58126Y14173D01*
Y12205D01*
X60093Y15484D02*
Y14829D01*
X59437D01*
X60749D01*
X60093D01*
Y12861D01*
X60749Y12205D01*
X63373D02*
X64685D01*
X65341Y12861D01*
Y14173D01*
X64685Y14829D01*
X63373D01*
X62717Y14173D01*
Y12861D01*
X63373Y12205D01*
X66653D02*
Y14829D01*
X67309D01*
X67965Y14173D01*
Y12205D01*
Y14173D01*
X68621Y14829D01*
X69277Y14173D01*
Y12205D01*
X77148Y16140D02*
X74524D01*
Y14173D01*
X75836Y14829D01*
X76492D01*
X77148Y14173D01*
Y12861D01*
X76492Y12205D01*
X75180D01*
X74524Y12861D01*
X81084Y16140D02*
X78460D01*
Y14173D01*
X79772Y14829D01*
X80428D01*
X81084Y14173D01*
Y12861D01*
X80428Y12205D01*
X79116D01*
X78460Y12861D01*
X85020Y16140D02*
X82396D01*
Y14173D01*
X83708Y14829D01*
X84364D01*
X85020Y14173D01*
Y12861D01*
X84364Y12205D01*
X83052D01*
X82396Y12861D01*
D13*
X97000Y34890D02*
X109000D01*
Y28890D02*
Y34890D01*
X97000Y28890D02*
X109000D01*
X97000D02*
Y34890D01*
X93402Y28890D02*
Y34890D01*
X81402D02*
X93402D01*
X81402Y28890D02*
Y34890D01*
Y28890D02*
X93402D01*
X49362Y52850D02*
X55362D01*
X49362Y40850D02*
Y52850D01*
Y40850D02*
X55362D01*
Y52850D01*
X55024Y33614D02*
Y39614D01*
Y33614D02*
X67024D01*
Y39614D01*
X55024D02*
X67024D01*
X49362Y66630D02*
X55362D01*
X49362Y54630D02*
Y66630D01*
Y54630D02*
X55362D01*
Y66630D01*
X95819Y56394D02*
X101819D01*
X95819Y44394D02*
Y56394D01*
Y44394D02*
X101819D01*
Y56394D01*
D14*
X68504Y74502D02*
Y69504D01*
X69504Y68504D01*
X71503D01*
X72503Y69504D01*
Y74502D01*
X74502Y68504D02*
X76501D01*
X75502D01*
Y74502D01*
X74502Y73502D01*
X100000Y26471D02*
Y20472D01*
X102999D01*
X103999Y21472D01*
Y25471D01*
X102999Y26471D01*
X100000D01*
X105998Y20472D02*
X107997D01*
X106998D01*
Y26471D01*
X105998Y25471D01*
X82677Y20472D02*
Y26471D01*
X85676D01*
X86676Y25471D01*
Y23471D01*
X85676Y22472D01*
X82677D01*
X84676D02*
X86676Y20472D01*
X92674D02*
X88675D01*
X92674Y24471D01*
Y25471D01*
X91674Y26471D01*
X89675D01*
X88675Y25471D01*
X46063Y41732D02*
X40065D01*
Y44731D01*
X41065Y45731D01*
X43064D01*
X44064Y44731D01*
Y41732D01*
Y43732D02*
X46063Y45731D01*
X41065Y47730D02*
X40065Y48730D01*
Y50729D01*
X41065Y51729D01*
X42064D01*
X43064Y50729D01*
Y49730D01*
Y50729D01*
X44064Y51729D01*
X45063D01*
X46063Y50729D01*
Y48730D01*
X45063Y47730D01*
X45669Y25591D02*
Y31589D01*
X48668D01*
X49668Y30589D01*
Y28590D01*
X48668Y27590D01*
X45669D01*
X47669D02*
X49668Y25591D01*
X51667D02*
X53667D01*
X52667D01*
Y31589D01*
X51667Y30589D01*
X41065Y60692D02*
X40065Y59692D01*
Y57693D01*
X41065Y56693D01*
X45063D01*
X46063Y57693D01*
Y59692D01*
X45063Y60692D01*
X46063Y66690D02*
Y62691D01*
X42064Y66690D01*
X41065D01*
X40065Y65690D01*
Y63691D01*
X41065Y62691D01*
X106025Y50062D02*
X105026Y49062D01*
Y47063D01*
X106025Y46063D01*
X110024D01*
X111024Y47063D01*
Y49062D01*
X110024Y50062D01*
X111024Y52061D02*
Y54060D01*
Y53061D01*
X105026D01*
X106025Y52061D01*
M02*
