G04*
G04 #@! TF.GenerationSoftware,Altium Limited,Altium Designer,18.1.7 (191)*
G04*
G04 Layer_Color=32896*
%FSLAX25Y25*%
%MOIN*%
G70*
G01*
G75*
%ADD12C,0.00787*%
D12*
X100132Y79264D02*
X100788Y79920D01*
X102100D01*
X102756Y79264D01*
Y76640D01*
X102100Y75984D01*
X100788D01*
X100132Y76640D01*
Y77952D01*
X101444D01*
X98820Y75984D02*
Y78608D01*
X97508Y79920D01*
X96196Y78608D01*
Y75984D01*
Y77952D01*
X98820D01*
X94884Y79920D02*
Y75984D01*
X92917D01*
X92261Y76640D01*
Y77296D01*
X92917Y77952D01*
X94884D01*
X92917D01*
X92261Y78608D01*
Y79264D01*
X92917Y79920D01*
X94884D01*
X88325D02*
X90949D01*
Y75984D01*
X88325D01*
X90949Y77952D02*
X89637D01*
X80453Y79264D02*
X81109Y79920D01*
X82421D01*
X83077Y79264D01*
Y78608D01*
X82421Y77952D01*
X81109D01*
X80453Y77296D01*
Y76640D01*
X81109Y75984D01*
X82421D01*
X83077Y76640D01*
X77174Y79920D02*
X78486D01*
X79141Y79264D01*
Y76640D01*
X78486Y75984D01*
X77174D01*
X76518Y76640D01*
Y79264D01*
X77174Y79920D01*
X75206Y75984D02*
Y78608D01*
X73894Y79920D01*
X72582Y78608D01*
Y75984D01*
Y77952D01*
X75206D01*
X71270Y75984D02*
Y79920D01*
X69302D01*
X68646Y79264D01*
Y77952D01*
X69302Y77296D01*
X71270D01*
X69958D02*
X68646Y75984D01*
X64710Y79920D02*
X67334D01*
Y75984D01*
X64710D01*
X67334Y77952D02*
X66022D01*
X60775Y79264D02*
X61431Y79920D01*
X62743D01*
X63398Y79264D01*
Y78608D01*
X62743Y77952D01*
X61431D01*
X60775Y77296D01*
Y76640D01*
X61431Y75984D01*
X62743D01*
X63398Y76640D01*
M02*
