G04*
G04 #@! TF.GenerationSoftware,Altium Limited,Altium Designer,18.1.7 (191)*
G04*
G04 Layer_Physical_Order=2*
G04 Layer_Color=16711680*
%FSLAX25Y25*%
%MOIN*%
G70*
G01*
G75*
%ADD30C,0.01181*%
%ADD31C,0.11811*%
%ADD32C,0.05000*%
G36*
X120079Y9843D02*
X3150D01*
Y83858D01*
X120079D01*
Y9843D01*
D02*
G37*
%LPC*%
G36*
X114673Y82473D02*
Y78059D01*
X119087D01*
X118983Y78848D01*
X118486Y80049D01*
X117694Y81080D01*
X116663Y81871D01*
X115462Y82369D01*
X114673Y82473D01*
D02*
G37*
G36*
X113673D02*
X112884Y82369D01*
X111683Y81871D01*
X110652Y81080D01*
X109861Y80049D01*
X109363Y78848D01*
X109259Y78059D01*
X113673D01*
Y82473D01*
D02*
G37*
G36*
X11130D02*
Y78059D01*
X15544D01*
X15440Y78848D01*
X14942Y80049D01*
X14151Y81080D01*
X13120Y81871D01*
X11919Y82369D01*
X11130Y82473D01*
D02*
G37*
G36*
X10130D02*
X9341Y82369D01*
X8140Y81871D01*
X7109Y81080D01*
X6318Y80049D01*
X5820Y78848D01*
X5716Y78059D01*
X10130D01*
Y82473D01*
D02*
G37*
G36*
X119087Y77059D02*
X114673D01*
Y72645D01*
X115462Y72749D01*
X116663Y73247D01*
X117694Y74038D01*
X118486Y75069D01*
X118983Y76270D01*
X119087Y77059D01*
D02*
G37*
G36*
X113673D02*
X109259D01*
X109363Y76270D01*
X109861Y75069D01*
X110652Y74038D01*
X111683Y73247D01*
X112884Y72749D01*
X113673Y72645D01*
Y77059D01*
D02*
G37*
G36*
X15544D02*
X11130D01*
Y72645D01*
X11919Y72749D01*
X13120Y73247D01*
X14151Y74038D01*
X14942Y75069D01*
X15440Y76270D01*
X15544Y77059D01*
D02*
G37*
G36*
X10130D02*
X5716D01*
X5820Y76270D01*
X6318Y75069D01*
X7109Y74038D01*
X8140Y73247D01*
X9341Y72749D01*
X10130Y72645D01*
Y77059D01*
D02*
G37*
G36*
X58374Y71968D02*
Y69004D01*
X61338D01*
X61284Y69418D01*
X60931Y70269D01*
X60370Y71000D01*
X59639Y71561D01*
X58788Y71914D01*
X58374Y71968D01*
D02*
G37*
G36*
X57374D02*
X56960Y71914D01*
X56109Y71561D01*
X55378Y71000D01*
X54817Y70269D01*
X54464Y69418D01*
X54410Y69004D01*
X57374D01*
Y71968D01*
D02*
G37*
G36*
X61338Y68004D02*
X58374D01*
Y65040D01*
X58788Y65094D01*
X59639Y65447D01*
X60370Y66008D01*
X60931Y66739D01*
X61284Y67590D01*
X61338Y68004D01*
D02*
G37*
G36*
X57374D02*
X54410D01*
X54464Y67590D01*
X54817Y66739D01*
X55378Y66008D01*
X56109Y65447D01*
X56960Y65094D01*
X57374Y65040D01*
Y68004D01*
D02*
G37*
G36*
X17429Y69488D02*
Y63098D01*
X23819D01*
X23735Y63952D01*
X23340Y65254D01*
X22699Y66453D01*
X21836Y67505D01*
X20784Y68368D01*
X19584Y69009D01*
X18283Y69404D01*
X17429Y69488D01*
D02*
G37*
G36*
X16429D02*
X15575Y69404D01*
X14274Y69009D01*
X13074Y68368D01*
X12023Y67505D01*
X11160Y66453D01*
X10518Y65254D01*
X10124Y63952D01*
X10040Y63098D01*
X16429D01*
Y69488D01*
D02*
G37*
G36*
X99240Y64882D02*
Y61917D01*
X102205D01*
X102150Y62331D01*
X101797Y63182D01*
X101236Y63914D01*
X100505Y64475D01*
X99654Y64827D01*
X99240Y64882D01*
D02*
G37*
G36*
X98240D02*
X97826Y64827D01*
X96975Y64475D01*
X96244Y63914D01*
X95683Y63182D01*
X95330Y62331D01*
X95276Y61917D01*
X98240D01*
Y64882D01*
D02*
G37*
G36*
X102205Y60917D02*
X99240D01*
Y57953D01*
X99654Y58007D01*
X100505Y58360D01*
X101236Y58921D01*
X101797Y59652D01*
X102150Y60504D01*
X102205Y60917D01*
D02*
G37*
G36*
X98240D02*
X95276D01*
X95330Y60504D01*
X95683Y59652D01*
X96244Y58921D01*
X96975Y58360D01*
X97826Y58007D01*
X98240Y57953D01*
Y60917D01*
D02*
G37*
G36*
X23819Y62098D02*
X17429D01*
Y55709D01*
X18283Y55793D01*
X19584Y56188D01*
X20784Y56829D01*
X21836Y57692D01*
X22699Y58743D01*
X23340Y59943D01*
X23735Y61245D01*
X23819Y62098D01*
D02*
G37*
G36*
X16429D02*
X10040D01*
X10124Y61245D01*
X10518Y59943D01*
X11160Y58743D01*
X12023Y57692D01*
X13074Y56829D01*
X14274Y56188D01*
X15575Y55793D01*
X16429Y55709D01*
Y62098D01*
D02*
G37*
G36*
X70473Y61148D02*
X69559Y61028D01*
X68707Y60675D01*
X67976Y60114D01*
X67415Y59383D01*
X67062Y58532D01*
X66942Y57618D01*
X67062Y56704D01*
X67415Y55853D01*
X67976Y55122D01*
X68707Y54561D01*
X69559Y54208D01*
X70473Y54088D01*
X71386Y54208D01*
X71530Y54268D01*
X74582Y51215D01*
X75108Y50864D01*
X75728Y50740D01*
X76411D01*
X76470Y50597D01*
X76739Y50247D01*
X76424Y49836D01*
X76351Y49867D01*
X75437Y49987D01*
X74523Y49867D01*
X73672Y49514D01*
X72941Y48953D01*
X72380Y48222D01*
X72027Y47370D01*
X71907Y46457D01*
X72027Y45543D01*
X72380Y44692D01*
X72941Y43960D01*
X73672Y43400D01*
X73815Y43340D01*
Y41069D01*
X62320Y29574D01*
X61778D01*
X61719Y29718D01*
X61158Y30449D01*
X60426Y31010D01*
X59575Y31363D01*
X58661Y31483D01*
X57748Y31363D01*
X56896Y31010D01*
X56165Y30449D01*
X55604Y29718D01*
X55251Y28866D01*
X55131Y27953D01*
X55251Y27039D01*
X55604Y26188D01*
X56165Y25457D01*
X56896Y24895D01*
X57748Y24543D01*
X58661Y24423D01*
X59575Y24543D01*
X60426Y24895D01*
X61158Y25457D01*
X61719Y26188D01*
X61778Y26331D01*
X62992D01*
X63613Y26454D01*
X64139Y26806D01*
X76584Y39251D01*
X76935Y39777D01*
X77059Y40398D01*
Y43340D01*
X77202Y43400D01*
X77933Y43960D01*
X78494Y44692D01*
X78847Y45543D01*
X78967Y46457D01*
X78847Y47370D01*
X78494Y48222D01*
X78226Y48572D01*
X78541Y48983D01*
X78614Y48952D01*
X79528Y48832D01*
X80441Y48952D01*
X81293Y49305D01*
X82024Y49866D01*
X82585Y50597D01*
X82938Y51449D01*
X83058Y52362D01*
X82938Y53276D01*
X82585Y54127D01*
X82024Y54858D01*
X81293Y55419D01*
X80441Y55772D01*
X79528Y55892D01*
X78614Y55772D01*
X77763Y55419D01*
X77031Y54858D01*
X76685Y54406D01*
X76057Y54337D01*
X76037Y54347D01*
X73823Y56561D01*
X73882Y56704D01*
X74003Y57618D01*
X73882Y58532D01*
X73530Y59383D01*
X72969Y60114D01*
X72237Y60675D01*
X71386Y61028D01*
X70473Y61148D01*
D02*
G37*
G36*
X16929Y48671D02*
X15575Y48538D01*
X14274Y48143D01*
X13074Y47502D01*
X12023Y46639D01*
X11160Y45587D01*
X10518Y44388D01*
X10124Y43086D01*
X9990Y41732D01*
X10124Y40379D01*
X10518Y39077D01*
X11160Y37877D01*
X12023Y36826D01*
X13074Y35963D01*
X14274Y35322D01*
X15575Y34927D01*
X16929Y34793D01*
X18283Y34927D01*
X19584Y35322D01*
X20784Y35963D01*
X21836Y36826D01*
X22699Y37877D01*
X23340Y39077D01*
X23735Y40379D01*
X23868Y41732D01*
X23735Y43086D01*
X23340Y44388D01*
X22699Y45587D01*
X21836Y46639D01*
X20784Y47502D01*
X19584Y48143D01*
X18283Y48538D01*
X16929Y48671D01*
D02*
G37*
G36*
X114279Y35354D02*
Y32390D01*
X117244D01*
X117189Y32803D01*
X116837Y33655D01*
X116276Y34386D01*
X115545Y34947D01*
X114693Y35300D01*
X114279Y35354D01*
D02*
G37*
G36*
X113279D02*
X112866Y35300D01*
X112014Y34947D01*
X111283Y34386D01*
X110722Y33655D01*
X110370Y32803D01*
X110315Y32390D01*
X113279D01*
Y35354D01*
D02*
G37*
G36*
X117244Y31390D02*
X114279D01*
Y28425D01*
X114693Y28480D01*
X115545Y28833D01*
X116276Y29394D01*
X116837Y30125D01*
X117189Y30976D01*
X117244Y31390D01*
D02*
G37*
G36*
X113279D02*
X110315D01*
X110370Y30976D01*
X110722Y30125D01*
X111283Y29394D01*
X112014Y28833D01*
X112866Y28480D01*
X113279Y28425D01*
Y31390D01*
D02*
G37*
G36*
X114673Y21056D02*
Y16642D01*
X119087D01*
X118983Y17431D01*
X118486Y18632D01*
X117694Y19663D01*
X116663Y20454D01*
X115462Y20952D01*
X114673Y21056D01*
D02*
G37*
G36*
X113673D02*
X112884Y20952D01*
X111683Y20454D01*
X110652Y19663D01*
X109861Y18632D01*
X109363Y17431D01*
X109259Y16642D01*
X113673D01*
Y21056D01*
D02*
G37*
G36*
X11130D02*
Y16642D01*
X15544D01*
X15440Y17431D01*
X14942Y18632D01*
X14151Y19663D01*
X13120Y20454D01*
X11919Y20952D01*
X11130Y21056D01*
D02*
G37*
G36*
X10130D02*
X9341Y20952D01*
X8140Y20454D01*
X7109Y19663D01*
X6318Y18632D01*
X5820Y17431D01*
X5716Y16642D01*
X10130D01*
Y21056D01*
D02*
G37*
G36*
X119087Y15642D02*
X114673D01*
Y11228D01*
X115462Y11332D01*
X116663Y11829D01*
X117694Y12621D01*
X118486Y13652D01*
X118983Y14853D01*
X119087Y15642D01*
D02*
G37*
G36*
X113673D02*
X109259D01*
X109363Y14853D01*
X109861Y13652D01*
X110652Y12621D01*
X111683Y11829D01*
X112884Y11332D01*
X113673Y11228D01*
Y15642D01*
D02*
G37*
G36*
X15544D02*
X11130D01*
Y11228D01*
X11919Y11332D01*
X13120Y11829D01*
X14151Y12621D01*
X14942Y13652D01*
X15440Y14853D01*
X15544Y15642D01*
D02*
G37*
G36*
X10130D02*
X5716D01*
X5820Y14853D01*
X6318Y13652D01*
X7109Y12621D01*
X8140Y11829D01*
X9341Y11332D01*
X10130Y11228D01*
Y15642D01*
D02*
G37*
%LPD*%
D30*
X75437Y40398D02*
Y46457D01*
X62992Y27953D02*
X75437Y40398D01*
X58661Y27953D02*
X62992D01*
X75728Y52362D02*
X79528D01*
X70473Y57618D02*
X75728Y52362D01*
D31*
X16929Y62598D02*
D03*
Y41732D02*
D03*
D32*
X57874Y68504D02*
D03*
X113779Y31890D02*
D03*
X98740Y61417D02*
D03*
X75437Y46457D02*
D03*
X58661Y27953D02*
D03*
X79528Y52362D02*
D03*
X70473Y57618D02*
D03*
M02*
