G04*
G04 #@! TF.GenerationSoftware,Altium Limited,Altium Designer,18.1.7 (191)*
G04*
G04 Layer_Color=32768*
%FSLAX25Y25*%
%MOIN*%
G70*
G01*
G75*
%ADD13C,0.00394*%
%ADD33C,0.00197*%
D13*
X72835Y55118D02*
X76772D01*
X74803Y53150D02*
Y57087D01*
X103000Y30020D02*
Y33760D01*
X101130Y31890D02*
X104870D01*
X85630D02*
X89173D01*
X87402Y30118D02*
Y33661D01*
X52362Y45079D02*
Y48622D01*
X50590Y46850D02*
X54134D01*
X59252Y36614D02*
X62795D01*
X61024Y34843D02*
Y38386D01*
X52362Y58760D02*
Y62500D01*
X50492Y60630D02*
X54232D01*
X98819Y48524D02*
Y52264D01*
X96949Y50394D02*
X100689D01*
D33*
X60335Y44291D02*
Y65945D01*
X89272Y44291D02*
Y65945D01*
X60335D02*
X89272D01*
X60335Y44291D02*
X89272D01*
X97095Y28937D02*
X108905D01*
X97095Y34843D02*
X108905D01*
Y28937D02*
Y34843D01*
X97095Y28937D02*
Y34843D01*
X93110Y29134D02*
Y34646D01*
X81693Y29134D02*
Y34646D01*
Y29134D02*
X93110D01*
X81693Y34646D02*
X93110D01*
X49606Y52559D02*
X55118D01*
X49606Y41142D02*
X55118D01*
Y52559D01*
X49606Y41142D02*
Y52559D01*
X55315Y33858D02*
Y39370D01*
X66732Y33858D02*
Y39370D01*
X55315D02*
X66732D01*
X55315Y33858D02*
X66732D01*
X49409Y66535D02*
X55315D01*
X49409Y54724D02*
X55315D01*
Y66535D01*
X49409Y54724D02*
Y66535D01*
X95866Y56299D02*
X101772D01*
X95866Y44488D02*
X101772D01*
Y56299D01*
X95866Y44488D02*
Y56299D01*
M02*
