G04*
G04 #@! TF.GenerationSoftware,Altium Limited,Altium Designer,19.1.5 (86)*
G04*
G04 Layer_Color=32768*
%FSLAX25Y25*%
%MOIN*%
G70*
G01*
G75*
%ADD46C,0.00394*%
%ADD47C,0.00197*%
D46*
X167717Y69685D02*
X171653D01*
X169685Y67716D02*
Y71653D01*
X61024Y79921D02*
Y83858D01*
X59055Y81890D02*
X62992D01*
X72441Y79921D02*
Y83858D01*
X70472Y81890D02*
X74409D01*
X68504Y55905D02*
Y59842D01*
X66535Y57874D02*
X70472D01*
X98032Y97539D02*
Y101476D01*
X96063Y99508D02*
X100000D01*
X86614Y97638D02*
Y101575D01*
X84646Y99606D02*
X88583D01*
X137008Y112205D02*
X140945D01*
X138977Y110236D02*
Y114173D01*
X164567Y53149D02*
Y57086D01*
X162598Y55118D02*
X166535D01*
X138976Y82677D02*
Y86614D01*
X137008Y84646D02*
X140945D01*
X137008Y98425D02*
X140945D01*
X138977Y96457D02*
Y100394D01*
X94488Y28740D02*
X98425D01*
X96457Y26772D02*
Y30709D01*
X164567Y43307D02*
Y47244D01*
X162598Y45276D02*
X166535D01*
X53150Y28740D02*
X57087D01*
X55118Y26772D02*
Y30709D01*
X66929Y28543D02*
X70866D01*
X68898Y26575D02*
Y30512D01*
X80709Y28740D02*
X84646D01*
X82677Y26772D02*
Y30709D01*
X135433Y57087D02*
Y61024D01*
X133465Y59055D02*
X137402D01*
X120473Y79134D02*
Y83071D01*
X118504Y81102D02*
X122441D01*
X105512Y46063D02*
Y50000D01*
X103543Y48031D02*
X107480D01*
D47*
X175000Y62598D02*
Y76772D01*
X164370Y62598D02*
Y76772D01*
X175000D01*
X164370Y62598D02*
X175000D01*
X57284Y88583D02*
X64764D01*
X57284Y75197D02*
X64764D01*
Y88583D01*
X57284Y75197D02*
Y88583D01*
X68701D02*
X76181D01*
X68701Y75197D02*
X76181D01*
Y88583D01*
X68701Y75197D02*
Y88583D01*
X61417Y45472D02*
X75591D01*
X61417Y70275D02*
X75591D01*
X61417Y45472D02*
Y70275D01*
X75591Y45472D02*
Y70275D01*
X94291Y106201D02*
X101772D01*
X94291Y92815D02*
X101772D01*
Y106201D01*
X94291Y92815D02*
Y106201D01*
X82874Y106299D02*
X90354D01*
X82874Y92913D02*
X90354D01*
Y106299D01*
X82874Y92913D02*
Y106299D01*
X132283Y108465D02*
Y115945D01*
X145669Y108465D02*
Y115945D01*
X132283D02*
X145669D01*
X132283Y108465D02*
X145669D01*
X157874Y51378D02*
X171260D01*
X157874Y58858D02*
X171260D01*
Y51378D02*
Y58858D01*
X157874Y51378D02*
Y58858D01*
X132283Y80906D02*
X145669D01*
X132283Y88386D02*
X145669D01*
Y80906D02*
Y88386D01*
X132283Y80906D02*
Y88386D01*
X132283Y94685D02*
Y102165D01*
X145669Y94685D02*
Y102165D01*
X132283D02*
X145669D01*
X132283Y94685D02*
X145669D01*
X92716Y22047D02*
Y35433D01*
X100197Y22047D02*
Y35433D01*
X92716Y22047D02*
X100197D01*
X92716Y35433D02*
X100197D01*
X157874Y49016D02*
X171260D01*
X157874Y41535D02*
X171260D01*
X157874D02*
Y49016D01*
X171260Y41535D02*
Y49016D01*
X58858Y22047D02*
Y35433D01*
X51378Y22047D02*
Y35433D01*
X58858D01*
X51378Y22047D02*
X58858D01*
X72638Y21850D02*
Y35236D01*
X65157Y21850D02*
Y35236D01*
X72638D01*
X65157Y21850D02*
X72638D01*
X78937Y22047D02*
Y35433D01*
X86417Y22047D02*
Y35433D01*
X78937Y22047D02*
X86417D01*
X78937Y35433D02*
X86417D01*
X127854Y52165D02*
X143012D01*
X127854Y65945D02*
X143012D01*
Y52165D02*
Y65945D01*
X127854Y52165D02*
Y65945D01*
X115157Y88189D02*
X125787D01*
X115157Y74016D02*
X125787D01*
Y88189D01*
X115157Y74016D02*
Y88189D01*
X100394Y39272D02*
X110630D01*
X100394Y56791D02*
X110630D01*
X100394Y39272D02*
Y56791D01*
X110630Y39272D02*
Y56791D01*
M02*
