G04*
G04 #@! TF.GenerationSoftware,Altium Limited,Altium Designer,19.1.5 (86)*
G04*
G04 Layer_Color=8388736*
%FSLAX25Y25*%
%MOIN*%
G70*
G01*
G75*
%ADD27R,0.06312X0.05524*%
%ADD28R,0.02375X0.04147*%
%ADD29R,0.06115X0.05524*%
%ADD30O,0.02572X0.06509*%
%ADD31R,0.06115X0.05328*%
%ADD32R,0.03950X0.03950*%
%ADD33R,0.05328X0.06312*%
%ADD34R,0.05524X0.06115*%
%ADD35R,0.05524X0.06312*%
%ADD36R,0.04343X0.03950*%
%ADD37R,0.02178X0.04147*%
%ADD38O,0.01784X0.03753*%
%ADD39C,0.07099*%
%ADD40C,0.00800*%
%ADD41C,0.03556*%
%ADD42C,0.24422*%
D27*
X57480Y87992D02*
D03*
Y81299D02*
D03*
D28*
X167126Y74114D02*
D03*
X172244D02*
D03*
Y65256D02*
D03*
X169685D02*
D03*
X167126D02*
D03*
D29*
X77165Y87992D02*
D03*
Y81299D02*
D03*
X66929Y87992D02*
D03*
Y81299D02*
D03*
X96457Y25394D02*
D03*
Y32087D02*
D03*
X68898Y32087D02*
D03*
Y25394D02*
D03*
X55118Y32087D02*
D03*
Y25394D02*
D03*
X82677D02*
D03*
Y32087D02*
D03*
D30*
X64665Y49213D02*
D03*
X67224D02*
D03*
X69783D02*
D03*
X72343D02*
D03*
X64665Y66536D02*
D03*
X67224D02*
D03*
X69783D02*
D03*
X72343D02*
D03*
D31*
X98032Y102953D02*
D03*
Y96063D02*
D03*
X86614Y103051D02*
D03*
Y96161D02*
D03*
D32*
X114370Y96850D02*
D03*
X108465D02*
D03*
X114370Y113386D02*
D03*
X108465D02*
D03*
D33*
X135433Y112205D02*
D03*
X142520D02*
D03*
D34*
X167913Y55118D02*
D03*
X161221D02*
D03*
X142323Y84646D02*
D03*
X135630D02*
D03*
X161221Y45276D02*
D03*
X167913D02*
D03*
D35*
X135630Y98425D02*
D03*
X142323D02*
D03*
D36*
X141142Y59055D02*
D03*
X129724Y55315D02*
D03*
Y62795D02*
D03*
D37*
X123031Y85433D02*
D03*
X120473D02*
D03*
X117913D02*
D03*
Y76772D02*
D03*
X123031D02*
D03*
D38*
X102559Y41929D02*
D03*
X104527D02*
D03*
X106496D02*
D03*
X108465D02*
D03*
X102559Y54134D02*
D03*
X104527D02*
D03*
X106496D02*
D03*
X108465D02*
D03*
D39*
X44961Y45866D02*
D03*
Y57677D02*
D03*
Y69488D02*
D03*
Y81299D02*
D03*
X131890Y35118D02*
D03*
X143701D02*
D03*
D40*
X27953Y72835D02*
D03*
Y54331D02*
D03*
X137795Y18110D02*
D03*
D41*
X62205Y75197D02*
D03*
X72835Y74803D02*
D03*
X80709Y62992D02*
D03*
X59055Y42126D02*
D03*
X96457Y45276D02*
D03*
X148819Y62205D02*
D03*
X159843Y62205D02*
D03*
X118110Y55512D02*
D03*
X96457Y51181D02*
D03*
X108268Y86221D02*
D03*
X110630Y27953D02*
D03*
X89370Y28740D02*
D03*
X46063Y27559D02*
D03*
X62205Y28740D02*
D03*
D42*
X24803Y112992D02*
D03*
X171653D02*
D03*
Y14961D02*
D03*
X24409Y15748D02*
D03*
M02*
