G04 Layer_Color=8388736*
%FSLAX25Y25*%
%MOIN*%
G70*
G01*
G75*
%ADD29R,0.05328X0.06312*%
%ADD30R,0.05524X0.06115*%
%ADD31R,0.05524X0.06312*%
%ADD32R,0.06115X0.05524*%
%ADD33R,0.04343X0.03950*%
%ADD34R,0.02178X0.04147*%
%ADD35O,0.01784X0.03753*%
%ADD36O,0.02572X0.06509*%
%ADD37C,0.00800*%
%ADD38C,0.07099*%
%ADD39C,0.24422*%
%ADD40C,0.03556*%
D29*
X135433Y112205D02*
D03*
X142520D02*
D03*
D30*
X65354Y102362D02*
D03*
X58662D02*
D03*
X142323Y84646D02*
D03*
X135630D02*
D03*
X58662Y88583D02*
D03*
X65354D02*
D03*
D31*
X135630Y98425D02*
D03*
X142323D02*
D03*
D32*
X102362Y32087D02*
D03*
Y25394D02*
D03*
X55118Y32087D02*
D03*
Y25394D02*
D03*
X68898Y31890D02*
D03*
Y25197D02*
D03*
X82677Y25394D02*
D03*
Y32087D02*
D03*
D33*
X153347Y56299D02*
D03*
X141929Y52559D02*
D03*
Y60039D02*
D03*
D34*
X117913Y103543D02*
D03*
X115354D02*
D03*
X112795D02*
D03*
Y94882D02*
D03*
X117913D02*
D03*
D35*
X98228Y48228D02*
D03*
X100197D02*
D03*
X102165D02*
D03*
X104134D02*
D03*
X98228Y60433D02*
D03*
X100197D02*
D03*
X102165D02*
D03*
X104134D02*
D03*
D36*
X66831Y66536D02*
D03*
X64272D02*
D03*
X61713D02*
D03*
X59154D02*
D03*
X66831Y49213D02*
D03*
X64272D02*
D03*
X61713D02*
D03*
X59154D02*
D03*
D37*
X18110Y54331D02*
D03*
Y72835D02*
D03*
X137795Y18110D02*
D03*
D38*
X35118Y81299D02*
D03*
Y69488D02*
D03*
Y57677D02*
D03*
Y45866D02*
D03*
X131890Y35118D02*
D03*
X143701D02*
D03*
D39*
X15748Y118110D02*
D03*
X177165D02*
D03*
Y15748D02*
D03*
X15748D02*
D03*
D40*
X94488Y40157D02*
D03*
X68504Y76378D02*
D03*
X111417Y59842D02*
D03*
X150394Y76378D02*
D03*
X129921Y59842D02*
D03*
X88583D02*
D03*
X50787Y42520D02*
D03*
X88583Y48031D02*
D03*
X77953Y47638D02*
D03*
X106299Y83465D02*
D03*
X125984Y92913D02*
D03*
X46850Y25591D02*
D03*
X61811Y25197D02*
D03*
X125984Y84646D02*
D03*
X125591Y101181D02*
D03*
X106299Y92126D02*
D03*
Y75984D02*
D03*
M02*
