G04*
G04 #@! TF.GenerationSoftware,Altium Limited,Altium Designer,18.1.9 (240)*
G04*
G04 Layer_Physical_Order=1*
G04 Layer_Color=255*
%FSLAX25Y25*%
%MOIN*%
G70*
G01*
G75*
%ADD13C,0.01000*%
%ADD15R,0.04528X0.05512*%
%ADD16R,0.04724X0.05315*%
%ADD17R,0.04724X0.05512*%
%ADD18R,0.05315X0.04724*%
%ADD19R,0.03543X0.03150*%
%ADD20R,0.01378X0.03347*%
%ADD21O,0.00984X0.02953*%
%ADD22O,0.01772X0.05709*%
%ADD35C,0.01968*%
%ADD36C,0.01575*%
%ADD37C,0.01181*%
%ADD38C,0.06299*%
%ADD39C,0.02756*%
%ADD40C,0.23622*%
D13*
X118110Y94488D02*
Y95669D01*
X107087Y99213D02*
X114567D01*
X98228Y90354D02*
X107087Y99213D01*
X98228Y60433D02*
Y90354D01*
X112795Y88780D02*
X141732Y59842D01*
X112795Y88780D02*
Y94882D01*
X114567Y99213D02*
X118110Y95669D01*
X125984Y52756D02*
X143701Y35039D01*
X143701D01*
X103543Y52756D02*
X125984D01*
X135433Y79921D02*
Y85039D01*
X153347Y56299D02*
Y62008D01*
X135433Y79921D02*
X153347Y62008D01*
X135630Y98425D02*
X136024D01*
X57480Y49213D02*
X59154D01*
X50787Y42520D02*
X57480Y49213D01*
X98228Y43898D02*
Y48228D01*
X94488Y40157D02*
X98228Y43898D01*
X65354Y88583D02*
Y102362D01*
X65354Y88583D02*
X65748Y88189D01*
X120946Y112205D02*
X135433D01*
X115354Y103543D02*
Y106613D01*
X120946Y112205D01*
X112795Y103543D02*
X112992D01*
X104134Y60433D02*
X110827D01*
X111417Y59842D01*
X64173Y62706D02*
Y66437D01*
X64272Y66536D01*
X64173Y62706D02*
X65068Y61811D01*
X142520Y78740D02*
Y84252D01*
X124803Y54724D02*
X129921Y59842D01*
X100197Y60433D02*
X100394Y60630D01*
X101969D01*
X100197Y40748D02*
X102362Y38583D01*
X100197Y40748D02*
Y48228D01*
X50878Y59752D02*
X61333D01*
X41339Y69291D02*
X50878Y59752D01*
X88583Y59842D02*
X88976Y60236D01*
X98032D02*
X98228Y60433D01*
X88976Y60236D02*
X98032D01*
X64272Y36122D02*
Y49213D01*
Y36122D02*
X68504Y31890D01*
X68898D01*
X82677D01*
X66831Y66536D02*
Y70768D01*
X72441Y76378D01*
Y81102D01*
X65748Y87795D02*
X72441Y81102D01*
X65748Y87795D02*
Y88189D01*
X142520Y78740D02*
X144882Y76378D01*
X150394D01*
X100197Y48228D02*
Y50591D01*
X61333Y59752D02*
X68329Y52756D01*
X98032D02*
X100197Y50591D01*
X68329Y52756D02*
X98032D01*
X102165Y48228D02*
Y51378D01*
X103543Y52756D01*
X61713Y66536D02*
Y73524D01*
X64567Y76378D01*
X68504D01*
X35039Y69291D02*
X41339D01*
X102362Y31890D02*
Y38583D01*
X81890Y54724D02*
X124803D01*
X65068Y61811D02*
X74803D01*
X81890Y54724D01*
X142520Y84252D02*
Y112205D01*
D15*
X135433D02*
D03*
X142520D02*
D03*
D16*
X65354Y102362D02*
D03*
X58662D02*
D03*
X142323Y84646D02*
D03*
X135630D02*
D03*
X58662Y88583D02*
D03*
X65354D02*
D03*
D17*
X135630Y98425D02*
D03*
X142323D02*
D03*
D18*
X102362Y32087D02*
D03*
Y25394D02*
D03*
X55118Y32087D02*
D03*
Y25394D02*
D03*
X68898Y31890D02*
D03*
Y25197D02*
D03*
X82677Y25394D02*
D03*
Y32087D02*
D03*
D19*
X153347Y56299D02*
D03*
X141929Y52559D02*
D03*
Y60039D02*
D03*
D20*
X117913Y103543D02*
D03*
X115354D02*
D03*
X112795D02*
D03*
Y94882D02*
D03*
X117913D02*
D03*
D21*
X98228Y48228D02*
D03*
X100197D02*
D03*
X102165D02*
D03*
X104134D02*
D03*
X98228Y60433D02*
D03*
X100197D02*
D03*
X102165D02*
D03*
X104134D02*
D03*
D22*
X66831Y66536D02*
D03*
X64272D02*
D03*
X61713D02*
D03*
X59154D02*
D03*
X66831Y49213D02*
D03*
X64272D02*
D03*
X61713D02*
D03*
X59154D02*
D03*
D35*
X41024Y23543D02*
Y39685D01*
Y23543D02*
X45276Y19291D01*
X35039Y45669D02*
X41024Y39685D01*
X82677Y25591D02*
X87008D01*
X27559Y53150D02*
X35039Y45669D01*
X76378Y19291D02*
X82677Y25591D01*
X35039Y45669D02*
Y46063D01*
X45276Y19291D02*
X76378D01*
X53150Y66535D02*
X59055D01*
X87008Y25591D02*
X88583Y27165D01*
Y48031D01*
X27559Y53150D02*
Y70866D01*
X32283Y75590D01*
X44094D01*
X53150Y66535D01*
D36*
X59154Y66536D02*
Y88090D01*
D37*
X61713Y49213D02*
X61811Y49311D01*
Y53171D01*
X57108Y57874D02*
X61811Y53171D01*
X61713Y38484D02*
Y49213D01*
X55118Y31890D02*
X61713Y38484D01*
X35039Y57874D02*
X57108D01*
D38*
X35118Y45866D02*
D03*
Y57677D02*
D03*
Y69488D02*
D03*
Y81299D02*
D03*
X131890Y35118D02*
D03*
X143701D02*
D03*
D39*
X106299Y83465D02*
D03*
Y75984D02*
D03*
Y92126D02*
D03*
X94488Y40157D02*
D03*
X68504Y76378D02*
D03*
X111417Y59842D02*
D03*
X150394Y76378D02*
D03*
X129921Y59842D02*
D03*
X88583D02*
D03*
X50787Y42520D02*
D03*
X88583Y48031D02*
D03*
X77953Y47638D02*
D03*
X125984Y92913D02*
D03*
X46850Y25591D02*
D03*
X61811Y25197D02*
D03*
X125984Y84646D02*
D03*
Y101181D02*
D03*
D40*
X15748Y118110D02*
D03*
X177165D02*
D03*
Y15748D02*
D03*
X15748D02*
D03*
M02*
