G04 Layer_Physical_Order=1*
G04 Layer_Color=255*
%FSLAX25Y25*%
%MOIN*%
G70*
G01*
G75*
%ADD10R,0.04528X0.05512*%
%ADD11R,0.04724X0.05315*%
%ADD12R,0.04724X0.05512*%
%ADD13R,0.05315X0.04724*%
%ADD14R,0.03543X0.03150*%
%ADD15R,0.01378X0.03347*%
%ADD16O,0.00984X0.02953*%
%ADD17O,0.01772X0.05709*%
%ADD18C,0.01000*%
%ADD19C,0.01575*%
%ADD20C,0.01181*%
%ADD21C,0.01968*%
%ADD22C,0.06299*%
%ADD23C,0.23622*%
%ADD24C,0.02756*%
G36*
X167279Y130448D02*
X169095Y128065D01*
X168079Y127197D01*
X166769Y125664D01*
X165715Y123944D01*
X164944Y122081D01*
X164473Y120121D01*
X164354Y118610D01*
X177165D01*
Y118110D01*
X177665D01*
Y105299D01*
X179176Y105418D01*
X181136Y105889D01*
X182999Y106660D01*
X184640Y107665D01*
X188159Y103047D01*
Y24622D01*
X187587Y23871D01*
X187087Y23857D01*
X186252Y24835D01*
X184719Y26144D01*
X182999Y27198D01*
X181136Y27970D01*
X179176Y28440D01*
X177665Y28559D01*
Y15748D01*
X177165D01*
Y15248D01*
X164354D01*
X164473Y13738D01*
X164944Y11777D01*
X165715Y9914D01*
X166769Y8195D01*
X168079Y6661D01*
X169612Y5352D01*
X171331Y4298D01*
X171972Y4033D01*
X172102Y3550D01*
X171599Y2889D01*
X21119D01*
X20663Y3488D01*
X20793Y3971D01*
X21582Y4298D01*
X23301Y5352D01*
X24835Y6661D01*
X26144Y8195D01*
X27198Y9914D01*
X27970Y11777D01*
X28440Y13738D01*
X28559Y15248D01*
X15748D01*
Y15748D01*
X15248D01*
Y28559D01*
X13738Y28440D01*
X11777Y27970D01*
X9914Y27198D01*
X8195Y26144D01*
X6661Y24835D01*
X5723Y23736D01*
X5223Y23750D01*
X3119Y26511D01*
Y103047D01*
X7054Y108211D01*
X7551Y108264D01*
X8195Y107714D01*
X9914Y106660D01*
X11777Y105889D01*
X13738Y105418D01*
X15248Y105299D01*
Y118110D01*
X15748D01*
Y118610D01*
X28559D01*
X28440Y120121D01*
X27970Y122081D01*
X27198Y123944D01*
X26144Y125664D01*
X24835Y127197D01*
X23301Y128507D01*
X23086Y128638D01*
X22994Y129130D01*
X23999Y130449D01*
X167279D01*
Y130448D01*
D02*
G37*
%LPC*%
G36*
X18110Y79774D02*
X16757Y79640D01*
X15455Y79245D01*
X14255Y78604D01*
X13204Y77741D01*
X12341Y76690D01*
X11699Y75490D01*
X11305Y74188D01*
X11171Y72835D01*
X11305Y71481D01*
X11699Y70179D01*
X12341Y68980D01*
X13204Y67928D01*
X14255Y67065D01*
X15455Y66424D01*
X16757Y66029D01*
X18110Y65896D01*
X19464Y66029D01*
X20766Y66424D01*
X21965Y67065D01*
X23017Y67928D01*
X23880Y68980D01*
X24521Y70179D01*
X24916Y71481D01*
X25049Y72835D01*
X24916Y74188D01*
X24521Y75490D01*
X23880Y76690D01*
X23017Y77741D01*
X21965Y78604D01*
X20766Y79245D01*
X19464Y79640D01*
X18110Y79774D01*
D02*
G37*
G36*
X145783Y115961D02*
X139256D01*
Y108449D01*
X140990D01*
Y102181D01*
X136130D01*
Y98425D01*
Y94669D01*
X140990D01*
Y88303D01*
X132268D01*
Y80988D01*
X133904D01*
Y79921D01*
X134020Y79336D01*
X134352Y78840D01*
X151817Y61374D01*
Y58874D01*
X150575D01*
Y53724D01*
X156118D01*
Y58874D01*
X154876D01*
Y62008D01*
X154760Y62593D01*
X154428Y63089D01*
X137029Y80488D01*
X137123Y80988D01*
X140990D01*
Y78740D01*
X141107Y78155D01*
X141438Y77659D01*
X143800Y75296D01*
X144297Y74965D01*
X144882Y74849D01*
X148556D01*
X148679Y74664D01*
X149466Y74138D01*
X150394Y73953D01*
X151321Y74138D01*
X152108Y74664D01*
X152634Y75450D01*
X152818Y76378D01*
X152634Y77306D01*
X152108Y78092D01*
X151321Y78618D01*
X150394Y78803D01*
X149466Y78618D01*
X148679Y78092D01*
X148556Y77907D01*
X145515D01*
X144049Y79374D01*
Y80988D01*
X145685D01*
Y88303D01*
X144049D01*
Y94669D01*
X145685D01*
Y102181D01*
X144049D01*
Y108449D01*
X145783D01*
Y115961D01*
D02*
G37*
G36*
X144701Y52059D02*
X142429D01*
Y49984D01*
X144701D01*
Y52059D01*
D02*
G37*
G36*
X141429Y55134D02*
X139157D01*
Y53059D01*
X141429D01*
Y55134D01*
D02*
G37*
G36*
X144701D02*
X142429D01*
Y53059D01*
X144701D01*
Y55134D01*
D02*
G37*
G36*
X34618Y85419D02*
X34035Y85342D01*
X33026Y84924D01*
X32159Y84259D01*
X31494Y83392D01*
X31075Y82383D01*
X30999Y81799D01*
X34618D01*
Y85419D01*
D02*
G37*
G36*
X106020Y24894D02*
X102862D01*
Y22031D01*
X106020D01*
Y24894D01*
D02*
G37*
G36*
X125484Y86971D02*
X125056Y86886D01*
X124270Y86360D01*
X123744Y85574D01*
X123659Y85146D01*
X125484D01*
Y86971D01*
D02*
G37*
G36*
X128309Y84146D02*
X126484D01*
Y82321D01*
X126912Y82406D01*
X127699Y82931D01*
X128224Y83718D01*
X128309Y84146D01*
D02*
G37*
G36*
X35618Y85419D02*
Y81799D01*
X39238D01*
X39161Y82383D01*
X38743Y83392D01*
X38078Y84259D01*
X37211Y84924D01*
X36202Y85342D01*
X35618Y85419D01*
D02*
G37*
G36*
X125484Y84146D02*
X123659D01*
X123744Y83718D01*
X124270Y82931D01*
X125056Y82406D01*
X125484Y82321D01*
Y84146D01*
D02*
G37*
G36*
X132390Y39238D02*
Y35618D01*
X136010D01*
X135933Y36202D01*
X135515Y37211D01*
X134849Y38078D01*
X133983Y38743D01*
X132973Y39161D01*
X132390Y39238D01*
D02*
G37*
G36*
X77453Y47138D02*
X75628D01*
X75713Y46710D01*
X76238Y45923D01*
X77025Y45398D01*
X77453Y45313D01*
Y47138D01*
D02*
G37*
G36*
X131390Y39238D02*
X130807Y39161D01*
X129797Y38743D01*
X128930Y38078D01*
X128265Y37211D01*
X127847Y36202D01*
X127770Y35618D01*
X131390D01*
Y39238D01*
D02*
G37*
G36*
Y34618D02*
X127770D01*
X127847Y34035D01*
X128265Y33026D01*
X128930Y32159D01*
X129797Y31494D01*
X130807Y31075D01*
X131390Y30999D01*
Y34618D01*
D02*
G37*
G36*
X136010D02*
X132390D01*
Y30999D01*
X132973Y31075D01*
X133983Y31494D01*
X134849Y32159D01*
X135515Y33026D01*
X135933Y34035D01*
X136010Y34618D01*
D02*
G37*
G36*
X80278Y47138D02*
X78453D01*
Y45313D01*
X78881Y45398D01*
X79667Y45923D01*
X80193Y46710D01*
X80278Y47138D01*
D02*
G37*
G36*
X78453Y49963D02*
Y48138D01*
X80278D01*
X80193Y48566D01*
X79667Y49352D01*
X78881Y49878D01*
X78453Y49963D01*
D02*
G37*
G36*
X141429Y52059D02*
X139157D01*
Y49984D01*
X141429D01*
Y52059D01*
D02*
G37*
G36*
X77453Y49963D02*
X77025Y49878D01*
X76238Y49352D01*
X75713Y48566D01*
X75628Y48138D01*
X77453D01*
Y49963D01*
D02*
G37*
G36*
X68754Y48713D02*
X67331D01*
Y45421D01*
X67567Y45468D01*
X68190Y45884D01*
X68607Y46508D01*
X68754Y47244D01*
Y48713D01*
D02*
G37*
G36*
X105655Y47728D02*
X104634D01*
Y45822D01*
X104716Y45838D01*
X105210Y46168D01*
X105539Y46662D01*
X105655Y47244D01*
Y47728D01*
D02*
G37*
G36*
X125091Y100681D02*
X123266D01*
X123351Y100253D01*
X123876Y99467D01*
X124663Y98941D01*
X125091Y98856D01*
Y100681D01*
D02*
G37*
G36*
X16248Y28559D02*
Y16248D01*
X28559D01*
X28440Y17758D01*
X27970Y19719D01*
X27198Y21582D01*
X26144Y23301D01*
X24835Y24835D01*
X23301Y26144D01*
X21582Y27198D01*
X19719Y27970D01*
X17758Y28440D01*
X16248Y28559D01*
D02*
G37*
G36*
X127916Y100681D02*
X126091D01*
Y98856D01*
X126518Y98941D01*
X127305Y99467D01*
X127831Y100253D01*
X127916Y100681D01*
D02*
G37*
G36*
X135130Y102181D02*
X132268D01*
Y98925D01*
X135130D01*
Y102181D01*
D02*
G37*
G36*
X176665Y28559D02*
X175155Y28440D01*
X173194Y27970D01*
X171331Y27198D01*
X169612Y26144D01*
X168079Y24835D01*
X166769Y23301D01*
X165715Y21582D01*
X164944Y19719D01*
X164473Y17758D01*
X164354Y16248D01*
X176665D01*
Y28559D01*
D02*
G37*
G36*
X126484Y95239D02*
Y93413D01*
X128309D01*
X128224Y93841D01*
X127699Y94628D01*
X126912Y95153D01*
X126484Y95239D01*
D02*
G37*
G36*
X135130Y97925D02*
X132268D01*
Y94669D01*
X135130D01*
Y97925D01*
D02*
G37*
G36*
X125484Y95239D02*
X125056Y95153D01*
X124270Y94628D01*
X123744Y93841D01*
X123659Y93413D01*
X125484D01*
Y95239D01*
D02*
G37*
G36*
X58161Y101862D02*
X55299D01*
Y98705D01*
X58161D01*
Y101862D01*
D02*
G37*
G36*
X137795Y25049D02*
X136442Y24916D01*
X135140Y24521D01*
X133940Y23880D01*
X132889Y23017D01*
X132026Y21965D01*
X131385Y20766D01*
X130990Y19464D01*
X130856Y18110D01*
X130990Y16757D01*
X131385Y15455D01*
X132026Y14255D01*
X132889Y13204D01*
X133940Y12341D01*
X135140Y11699D01*
X136442Y11305D01*
X137795Y11171D01*
X139149Y11305D01*
X140451Y11699D01*
X141650Y12341D01*
X142702Y13204D01*
X143565Y14255D01*
X144206Y15455D01*
X144601Y16757D01*
X144734Y18110D01*
X144601Y19464D01*
X144206Y20766D01*
X143565Y21965D01*
X142702Y23017D01*
X141650Y23880D01*
X140451Y24521D01*
X139149Y24916D01*
X137795Y25049D01*
D02*
G37*
G36*
X176665Y117610D02*
X164354D01*
X164473Y116100D01*
X164944Y114139D01*
X165715Y112276D01*
X166769Y110557D01*
X168079Y109023D01*
X169612Y107714D01*
X171331Y106660D01*
X173194Y105889D01*
X175155Y105418D01*
X176665Y105299D01*
Y117610D01*
D02*
G37*
G36*
X125484Y92413D02*
X123659D01*
X123744Y91986D01*
X124270Y91199D01*
X125056Y90673D01*
X125484Y90588D01*
Y92413D01*
D02*
G37*
G36*
X138697Y115961D02*
X132169D01*
Y113734D01*
X120946D01*
X120361Y113618D01*
X119865Y113286D01*
X114273Y107694D01*
X113941Y107198D01*
X113825Y106613D01*
Y106217D01*
X111106D01*
Y105073D01*
X107480D01*
X106895Y104956D01*
X106399Y104625D01*
X97147Y95373D01*
X96815Y94877D01*
X96699Y94291D01*
Y61766D01*
X89985D01*
X89511Y62082D01*
X88583Y62267D01*
X87655Y62082D01*
X86868Y61557D01*
X86343Y60770D01*
X86158Y59842D01*
X86343Y58915D01*
X86868Y58128D01*
X87655Y57603D01*
X88583Y57418D01*
X89511Y57603D01*
X90297Y58128D01*
X90684Y58707D01*
X96930D01*
X97153Y58373D01*
X97646Y58043D01*
X98228Y57928D01*
X98811Y58043D01*
X99213Y58312D01*
X99615Y58043D01*
X100197Y57928D01*
X100779Y58043D01*
X101181Y58312D01*
X101583Y58043D01*
X102165Y57928D01*
X102748Y58043D01*
X103150Y58312D01*
X103552Y58043D01*
X104134Y57928D01*
X104716Y58043D01*
X105210Y58373D01*
X105539Y58867D01*
X105547Y58904D01*
X109185D01*
X109703Y58128D01*
X110489Y57603D01*
X111417Y57418D01*
X112345Y57603D01*
X113132Y58128D01*
X113657Y58915D01*
X113842Y59842D01*
X113657Y60770D01*
X113132Y61557D01*
X112345Y62082D01*
X111417Y62267D01*
X110489Y62082D01*
X110310Y61962D01*
X105547D01*
X105539Y62000D01*
X105210Y62493D01*
X104716Y62823D01*
X104349Y62896D01*
X104161Y63415D01*
X116436Y75690D01*
X116548Y75858D01*
X117186Y75926D01*
X130439Y62674D01*
X130192Y62213D01*
X129921Y62267D01*
X128993Y62082D01*
X128207Y61557D01*
X127681Y60770D01*
X127497Y59842D01*
X127540Y59624D01*
X124170Y56254D01*
X82523D01*
X75885Y62893D01*
X75388Y63224D01*
X74803Y63340D01*
X68810D01*
X68574Y63781D01*
X68607Y63831D01*
X68754Y64567D01*
Y68504D01*
X68607Y69240D01*
X68360Y69609D01*
Y70134D01*
X73522Y75296D01*
X73854Y75793D01*
X73970Y76378D01*
Y81102D01*
X73854Y81688D01*
X73522Y82184D01*
X68717Y86990D01*
Y92240D01*
X66884D01*
Y98705D01*
X68717D01*
Y106020D01*
X59162D01*
Y102362D01*
Y98705D01*
X63825D01*
Y92240D01*
X55299D01*
Y84925D01*
X57331D01*
Y69008D01*
X57242Y68559D01*
X53988D01*
X45525Y77021D01*
X44869Y77460D01*
X44094Y77614D01*
X37953D01*
X37783Y78114D01*
X38078Y78340D01*
X38743Y79207D01*
X39161Y80216D01*
X39238Y80799D01*
X35118D01*
Y81299D01*
D01*
Y80799D01*
X30999D01*
X31075Y80216D01*
X31494Y79207D01*
X32159Y78340D01*
X32453Y78114D01*
X32284Y77614D01*
X32283D01*
X31509Y77460D01*
X30853Y77021D01*
X26129Y72297D01*
X25690Y71640D01*
X25536Y70866D01*
Y54490D01*
X25036Y54465D01*
X25015Y54680D01*
X24916Y55685D01*
X24521Y56986D01*
X23880Y58186D01*
X23017Y59237D01*
X21965Y60100D01*
X20766Y60742D01*
X19464Y61136D01*
X18110Y61270D01*
X16757Y61136D01*
X15455Y60742D01*
X14255Y60100D01*
X13204Y59237D01*
X12341Y58186D01*
X11699Y56986D01*
X11305Y55685D01*
X11171Y54331D01*
X11305Y52977D01*
X11699Y51675D01*
X12341Y50476D01*
X13204Y49424D01*
X14255Y48561D01*
X15455Y47920D01*
X16757Y47525D01*
X18110Y47392D01*
X19464Y47525D01*
X20766Y47920D01*
X21965Y48561D01*
X23017Y49424D01*
X23880Y50476D01*
X24521Y51675D01*
X24916Y52977D01*
X25015Y53982D01*
X25036Y54197D01*
X25536Y54172D01*
Y53150D01*
X25690Y52375D01*
X26129Y51719D01*
X31055Y46793D01*
X30933Y45866D01*
X31075Y44783D01*
X31494Y43774D01*
X32159Y42907D01*
X33026Y42242D01*
X34035Y41824D01*
X35118Y41681D01*
X36045Y41803D01*
X39001Y38847D01*
Y23543D01*
X39155Y22769D01*
X39593Y22113D01*
X43845Y17861D01*
X44501Y17422D01*
X45276Y17268D01*
X76378D01*
X77152Y17422D01*
X77808Y17861D01*
X81979Y22031D01*
X86335D01*
Y23567D01*
X87008D01*
X87782Y23721D01*
X88438Y24160D01*
X90013Y25735D01*
X90452Y26391D01*
X90606Y27165D01*
Y46779D01*
X90823Y47104D01*
X91007Y48031D01*
X90823Y48959D01*
X90297Y49746D01*
X89511Y50271D01*
X88583Y50456D01*
X87655Y50271D01*
X86868Y49746D01*
X86343Y48959D01*
X86158Y48031D01*
X86343Y47104D01*
X86560Y46779D01*
Y35856D01*
X86335Y35449D01*
X79020D01*
Y33419D01*
X72555D01*
Y35252D01*
X67305D01*
X65801Y36756D01*
Y45109D01*
X66301Y45427D01*
X66331Y45421D01*
Y49213D01*
X66831D01*
Y49712D01*
X68754D01*
Y51181D01*
X68791Y51227D01*
X97103D01*
X97352Y50933D01*
X97266Y50364D01*
X97153Y50288D01*
X96823Y49795D01*
X96707Y49213D01*
Y48269D01*
X96699Y48228D01*
Y44531D01*
X94706Y42539D01*
X94488Y42582D01*
X93560Y42397D01*
X92774Y41872D01*
X92248Y41085D01*
X92064Y40157D01*
X92248Y39230D01*
X92774Y38443D01*
X93560Y37918D01*
X94488Y37733D01*
X95416Y37918D01*
X96203Y38443D01*
X96728Y39230D01*
X96913Y40157D01*
X96869Y40376D01*
X98205Y41712D01*
X98667Y41521D01*
Y40748D01*
X98784Y40163D01*
X99115Y39667D01*
X100833Y37949D01*
Y35449D01*
X98705D01*
Y28725D01*
Y25894D01*
X102362D01*
X106020D01*
Y28725D01*
Y35449D01*
X103892D01*
Y38583D01*
X103775Y39168D01*
X103444Y39664D01*
X101726Y41382D01*
Y45416D01*
X102113Y45733D01*
X102165Y45723D01*
X102748Y45838D01*
X103150Y46107D01*
X103552Y45838D01*
X103634Y45822D01*
Y46977D01*
X103687Y47244D01*
Y48188D01*
X103695Y48228D01*
X104134D01*
Y48728D01*
X105655D01*
Y49213D01*
X105539Y49795D01*
X105210Y50288D01*
X104821Y50548D01*
X104668Y50907D01*
X104629Y51145D01*
X104686Y51227D01*
X125351D01*
X139868Y36709D01*
X139658Y36202D01*
X139515Y35118D01*
X139658Y34035D01*
X140076Y33026D01*
X140741Y32159D01*
X141608Y31494D01*
X142618Y31075D01*
X143701Y30933D01*
X144784Y31075D01*
X145794Y31494D01*
X146660Y32159D01*
X147326Y33026D01*
X147744Y34035D01*
X147886Y35118D01*
X147744Y36202D01*
X147326Y37211D01*
X146660Y38078D01*
X145794Y38743D01*
X144784Y39161D01*
X143701Y39304D01*
X142618Y39161D01*
X141999Y38905D01*
X127066Y53837D01*
X126898Y53949D01*
X126830Y54588D01*
X129703Y57461D01*
X129921Y57418D01*
X130849Y57603D01*
X131636Y58128D01*
X132161Y58915D01*
X132346Y59842D01*
X132292Y60114D01*
X132753Y60360D01*
X134352Y58761D01*
X134848Y58429D01*
X135433Y58313D01*
X139157D01*
Y57464D01*
X144701D01*
Y62614D01*
X139157D01*
Y61372D01*
X136067D01*
X119443Y77996D01*
Y92209D01*
X119602D01*
Y97555D01*
X116884D01*
Y100870D01*
X119602D01*
Y106217D01*
X117774D01*
X117583Y106678D01*
X121580Y110675D01*
X132169D01*
Y108449D01*
X138697D01*
Y115961D01*
D02*
G37*
G36*
X126484Y86971D02*
Y85146D01*
X128309D01*
X128224Y85574D01*
X127699Y86360D01*
X126912Y86886D01*
X126484Y86971D01*
D02*
G37*
G36*
X101862Y24894D02*
X98705D01*
Y22031D01*
X101862D01*
Y24894D01*
D02*
G37*
G36*
X126091Y103506D02*
Y101681D01*
X127916D01*
X127831Y102109D01*
X127305Y102895D01*
X126518Y103421D01*
X126091Y103506D01*
D02*
G37*
G36*
X125091D02*
X124663Y103421D01*
X123876Y102895D01*
X123351Y102109D01*
X123266Y101681D01*
X125091D01*
Y103506D01*
D02*
G37*
G36*
X58161Y106020D02*
X55299D01*
Y102862D01*
X58161D01*
Y106020D01*
D02*
G37*
G36*
X128309Y92413D02*
X126484D01*
Y90588D01*
X126912Y90673D01*
X127699Y91199D01*
X128224Y91986D01*
X128309Y92413D01*
D02*
G37*
G36*
X28559Y117610D02*
X16248D01*
Y105299D01*
X17758Y105418D01*
X19719Y105889D01*
X21582Y106660D01*
X23301Y107714D01*
X24835Y109023D01*
X26144Y110557D01*
X27198Y112276D01*
X27970Y114139D01*
X28440Y116100D01*
X28559Y117610D01*
D02*
G37*
%LPD*%
G36*
X111106Y100870D02*
X113825D01*
Y97555D01*
X113295D01*
Y94882D01*
Y92209D01*
X113825D01*
Y77405D01*
X101084Y64664D01*
X100752Y64168D01*
X100636Y63583D01*
Y63245D01*
X100250Y62928D01*
X100197Y62939D01*
X100144Y62928D01*
X99758Y63245D01*
Y93658D01*
X108114Y102014D01*
X111106D01*
Y100870D01*
D02*
G37*
G36*
X31247Y70986D02*
X31075Y70572D01*
X30933Y69488D01*
X31075Y68405D01*
X31494Y67396D01*
X32159Y66529D01*
X33026Y65864D01*
X34035Y65446D01*
X35118Y65303D01*
X36202Y65446D01*
X37211Y65864D01*
X38078Y66529D01*
X38743Y67396D01*
X38895Y67762D01*
X40705D01*
X48509Y59958D01*
X48318Y59496D01*
X38857D01*
X38743Y59770D01*
X38078Y60637D01*
X37211Y61302D01*
X36202Y61720D01*
X35118Y61863D01*
X34035Y61720D01*
X33026Y61302D01*
X32159Y60637D01*
X31494Y59770D01*
X31075Y58760D01*
X30933Y57677D01*
X31075Y56594D01*
X31494Y55585D01*
X32159Y54718D01*
X33026Y54053D01*
X34035Y53635D01*
X35118Y53492D01*
X36202Y53635D01*
X37211Y54053D01*
X38078Y54718D01*
X38743Y55585D01*
X39020Y56252D01*
X56436D01*
X59103Y53585D01*
X58923Y53058D01*
X58418Y52957D01*
X57794Y52541D01*
X57377Y51917D01*
X57231Y51181D01*
Y50692D01*
X56895Y50625D01*
X56399Y50294D01*
X51006Y44901D01*
X50787Y44944D01*
X49860Y44760D01*
X49073Y44234D01*
X48547Y43448D01*
X48363Y42520D01*
X48547Y41592D01*
X49073Y40805D01*
X49860Y40280D01*
X50787Y40095D01*
X51715Y40280D01*
X52502Y40805D01*
X53027Y41592D01*
X53212Y42520D01*
X53168Y42738D01*
X56912Y46481D01*
X57485Y46347D01*
X57794Y45884D01*
X58418Y45468D01*
X59154Y45321D01*
X59591Y45408D01*
X60091Y45047D01*
Y39156D01*
X56384Y35449D01*
X51460D01*
Y28725D01*
Y25894D01*
X55118D01*
X58776D01*
Y28725D01*
Y33254D01*
X62280Y36759D01*
X62742Y36567D01*
Y36122D01*
X62859Y35537D01*
X63190Y35041D01*
X65240Y32991D01*
Y28528D01*
Y25697D01*
X68898D01*
X72555D01*
Y28528D01*
Y30360D01*
X79020D01*
Y28725D01*
Y24794D01*
X75540Y21315D01*
X46114D01*
X43047Y24381D01*
Y39685D01*
X42893Y40459D01*
X42454Y41115D01*
X39051Y44518D01*
X39161Y44783D01*
X39304Y45866D01*
X39161Y46949D01*
X38743Y47959D01*
X38078Y48826D01*
X37211Y49491D01*
X36202Y49909D01*
X35118Y50052D01*
X34035Y49909D01*
X33770Y49799D01*
X29582Y53988D01*
Y70028D01*
X30823Y71269D01*
X31247Y70986D01*
D02*
G37*
%LPC*%
G36*
X108624Y91626D02*
X106799D01*
Y89801D01*
X107227Y89886D01*
X108014Y90412D01*
X108539Y91198D01*
X108624Y91626D01*
D02*
G37*
G36*
X105799D02*
X103974D01*
X104059Y91198D01*
X104585Y90412D01*
X105371Y89886D01*
X105799Y89801D01*
Y91626D01*
D02*
G37*
G36*
X106799Y85790D02*
Y83965D01*
X108624D01*
X108539Y84392D01*
X108014Y85179D01*
X107227Y85704D01*
X106799Y85790D01*
D02*
G37*
G36*
X112295Y94382D02*
X111106D01*
Y92209D01*
X112295D01*
Y94382D01*
D02*
G37*
G36*
Y97555D02*
X111106D01*
Y95382D01*
X112295D01*
Y97555D01*
D02*
G37*
G36*
X106799Y94451D02*
Y92626D01*
X108624D01*
X108539Y93054D01*
X108014Y93840D01*
X107227Y94366D01*
X106799Y94451D01*
D02*
G37*
G36*
X105799D02*
X105371Y94366D01*
X104585Y93840D01*
X104059Y93054D01*
X103974Y92626D01*
X105799D01*
Y94451D01*
D02*
G37*
G36*
Y85790D02*
X105371Y85704D01*
X104585Y85179D01*
X104059Y84392D01*
X103974Y83965D01*
X105799D01*
Y85790D01*
D02*
G37*
G36*
X108624Y75484D02*
X106799D01*
Y73659D01*
X107227Y73744D01*
X108014Y74270D01*
X108539Y75056D01*
X108624Y75484D01*
D02*
G37*
G36*
X105799D02*
X103974D01*
X104059Y75056D01*
X104585Y74270D01*
X105371Y73744D01*
X105799Y73659D01*
Y75484D01*
D02*
G37*
G36*
Y78309D02*
X105371Y78224D01*
X104585Y77699D01*
X104059Y76912D01*
X103974Y76484D01*
X105799D01*
Y78309D01*
D02*
G37*
G36*
X108624Y82965D02*
X106799D01*
Y81139D01*
X107227Y81225D01*
X108014Y81750D01*
X108539Y82537D01*
X108624Y82965D01*
D02*
G37*
G36*
X105799D02*
X103974D01*
X104059Y82537D01*
X104585Y81750D01*
X105371Y81225D01*
X105799Y81139D01*
Y82965D01*
D02*
G37*
G36*
X106799Y78309D02*
Y76484D01*
X108624D01*
X108539Y76912D01*
X108014Y77699D01*
X107227Y78224D01*
X106799Y78309D01*
D02*
G37*
G36*
X68398Y24697D02*
X65240D01*
Y21835D01*
X68398D01*
Y24697D01*
D02*
G37*
G36*
X58776Y24894D02*
X55618D01*
Y22031D01*
X58776D01*
Y24894D01*
D02*
G37*
G36*
X72555Y24697D02*
X69398D01*
Y21835D01*
X72555D01*
Y24697D01*
D02*
G37*
G36*
X62311Y27522D02*
Y25697D01*
X64136D01*
X64051Y26125D01*
X63525Y26911D01*
X62739Y27437D01*
X62311Y27522D01*
D02*
G37*
G36*
X54618Y24894D02*
X51460D01*
Y22031D01*
X54618D01*
Y24894D01*
D02*
G37*
G36*
X49176Y25091D02*
X47350D01*
Y23266D01*
X47778Y23351D01*
X48565Y23876D01*
X49090Y24663D01*
X49176Y25091D01*
D02*
G37*
G36*
X61311Y27522D02*
X60883Y27437D01*
X60097Y26911D01*
X59571Y26125D01*
X59486Y25697D01*
X61311D01*
Y27522D01*
D02*
G37*
G36*
X46350Y25091D02*
X44525D01*
X44610Y24663D01*
X45136Y23876D01*
X45923Y23351D01*
X46350Y23266D01*
Y25091D01*
D02*
G37*
G36*
X61311Y24697D02*
X59486D01*
X59571Y24269D01*
X60097Y23482D01*
X60883Y22957D01*
X61311Y22872D01*
Y24697D01*
D02*
G37*
G36*
X64136D02*
X62311D01*
Y22872D01*
X62739Y22957D01*
X63525Y23482D01*
X64051Y24269D01*
X64136Y24697D01*
D02*
G37*
G36*
X46350Y27916D02*
X45923Y27830D01*
X45136Y27305D01*
X44610Y26518D01*
X44525Y26091D01*
X46350D01*
Y27916D01*
D02*
G37*
G36*
X47350D02*
Y26091D01*
X49176D01*
X49090Y26518D01*
X48565Y27305D01*
X47778Y27830D01*
X47350Y27916D01*
D02*
G37*
%LPD*%
D10*
X135433Y112205D02*
D03*
X142520D02*
D03*
D11*
X65354Y102362D02*
D03*
X58662D02*
D03*
X142323Y84646D02*
D03*
X135630D02*
D03*
X58662Y88583D02*
D03*
X65354D02*
D03*
D12*
X135630Y98425D02*
D03*
X142323D02*
D03*
D13*
X102362Y32087D02*
D03*
Y25394D02*
D03*
X55118Y32087D02*
D03*
Y25394D02*
D03*
X68898Y31890D02*
D03*
Y25197D02*
D03*
X82677Y25394D02*
D03*
Y32087D02*
D03*
D14*
X153347Y56299D02*
D03*
X141929Y52559D02*
D03*
Y60039D02*
D03*
D15*
X117913Y103543D02*
D03*
X115354D02*
D03*
X112795D02*
D03*
Y94882D02*
D03*
X117913D02*
D03*
D16*
X98228Y48228D02*
D03*
X100197D02*
D03*
X102165D02*
D03*
X104134D02*
D03*
X98228Y60433D02*
D03*
X100197D02*
D03*
X102165D02*
D03*
X104134D02*
D03*
D17*
X66831Y66536D02*
D03*
X64272D02*
D03*
X61713D02*
D03*
X59154D02*
D03*
X66831Y49213D02*
D03*
X64272D02*
D03*
X61713D02*
D03*
X59154D02*
D03*
D18*
X135433Y59842D02*
X142126D01*
X117913Y77362D02*
X135433Y59842D01*
X117913Y77362D02*
Y94882D01*
X125984Y52756D02*
X143701Y35039D01*
X143701D01*
X103543Y52756D02*
X125984D01*
X135433Y79921D02*
Y85039D01*
X153347Y56299D02*
Y62008D01*
X135433Y79921D02*
X153347Y62008D01*
X135630Y98425D02*
X136024D01*
X57480Y49213D02*
X59154D01*
X50787Y42520D02*
X57480Y49213D01*
X98228Y43898D02*
Y48228D01*
X94488Y40157D02*
X98228Y43898D01*
X65354Y88583D02*
Y102362D01*
X65354Y88583D02*
X65748Y88189D01*
X120946Y112205D02*
X135433D01*
X115354Y103543D02*
Y106613D01*
X120946Y112205D01*
X112795Y103543D02*
X112992D01*
X104134Y60433D02*
X110827D01*
X111417Y59842D01*
X64173Y62706D02*
Y66437D01*
X64272Y66536D01*
X64173Y62706D02*
X65068Y61811D01*
X142520Y78740D02*
Y84252D01*
X124803Y54724D02*
X129921Y59842D01*
X115354Y76772D02*
Y103543D01*
X102165Y60433D02*
Y63583D01*
X115354Y76772D01*
X100197Y60433D02*
X100394Y60630D01*
X101969D01*
X100197Y40748D02*
X102362Y38583D01*
X100197Y40748D02*
Y48228D01*
X50878Y59752D02*
X61333D01*
X41339Y69291D02*
X50878Y59752D01*
X88583Y59842D02*
X88976Y60236D01*
X98032D02*
X98228Y60433D01*
X88976Y60236D02*
X98032D01*
X64272Y36122D02*
Y49213D01*
Y36122D02*
X68504Y31890D01*
X68898D01*
X82677D01*
X66831Y66536D02*
Y70768D01*
X72441Y76378D01*
Y81102D01*
X65748Y87795D02*
X72441Y81102D01*
X65748Y87795D02*
Y88189D01*
X142520Y78740D02*
X144882Y76378D01*
X150394D01*
X100197Y48228D02*
Y50591D01*
X61333Y59752D02*
X68329Y52756D01*
X98032D02*
X100197Y50591D01*
X68329Y52756D02*
X98032D01*
X102165Y48228D02*
Y51378D01*
X103543Y52756D01*
X98228Y60433D02*
Y94291D01*
X107480Y103543D01*
X112795D01*
X61713Y66536D02*
Y73524D01*
X64567Y76378D01*
X68504D01*
X35039Y69291D02*
X41339D01*
X102362Y31890D02*
Y38583D01*
X81890Y54724D02*
X124803D01*
X65068Y61811D02*
X74803D01*
X81890Y54724D01*
X142520Y84252D02*
Y112205D01*
D19*
X59154Y66536D02*
Y88090D01*
D20*
X61713Y49213D02*
X61811Y49311D01*
Y53171D01*
X57108Y57874D02*
X61811Y53171D01*
X61713Y38484D02*
Y49213D01*
X55118Y31890D02*
X61713Y38484D01*
X35039Y57874D02*
X57108D01*
D21*
X45276Y19291D02*
X76378D01*
X41024Y23543D02*
Y39685D01*
Y23543D02*
X45276Y19291D01*
X53150Y66535D02*
X59055D01*
X87008Y25591D02*
X88583Y27165D01*
Y48031D01*
X35039Y45669D02*
X41024Y39685D01*
X27559Y53150D02*
Y70866D01*
X32283Y75590D01*
X44094D01*
X53150Y66535D01*
X35039Y45669D02*
Y46063D01*
X27559Y53150D02*
X35039Y45669D01*
X76378Y19291D02*
X82677Y25591D01*
X87008D01*
D22*
X35118Y81299D02*
D03*
Y69488D02*
D03*
Y57677D02*
D03*
Y45866D02*
D03*
X131890Y35118D02*
D03*
X143701D02*
D03*
D23*
X15748Y118110D02*
D03*
X177165D02*
D03*
Y15748D02*
D03*
X15748D02*
D03*
D24*
X94488Y40157D02*
D03*
X68504Y76378D02*
D03*
X111417Y59842D02*
D03*
X150394Y76378D02*
D03*
X129921Y59842D02*
D03*
X88583D02*
D03*
X50787Y42520D02*
D03*
X88583Y48031D02*
D03*
X77953Y47638D02*
D03*
X106299Y83465D02*
D03*
X125984Y92913D02*
D03*
X46850Y25591D02*
D03*
X61811Y25197D02*
D03*
X125984Y84646D02*
D03*
X125591Y101181D02*
D03*
X106299Y92126D02*
D03*
Y75984D02*
D03*
M02*
