M48
;Layer_Color=9474304
;FILE_FORMAT=2:5
INCH,LZ
;TYPE=PLATED
T1F00S00C0.01968
T2F00S00C0.04016
T3F00S00C0.15748
;TYPE=NON_PLATED
T4F00S00C0.11811
%
T01
X0046063Y0027559
X0062205Y002874
X0059055Y0042126
X0062205Y0075197
X0072835Y0074803
X0080709Y0062992
X0096457Y0051181
Y0045276
X008937Y002874
X011063Y0027953
X011811Y0055512
X0148819Y0062205
X0108268Y0086221
X0159843Y0062205
T02
X0044961Y0045866
Y0057677
Y0069488
Y0081299
X013189Y0035118
X0143701
T03
X0024409Y0015748
X0024803Y0112992
X0171653
Y0014961
T04
X0027953Y0054331
Y0072835
X0137795Y001811
M30
