G04 Layer_Color=8388736*
%FSLAX25Y25*%
%MOIN*%
G70*
G01*
G75*
%ADD34R,0.06312X0.05524*%
%ADD35O,0.02572X0.06509*%
%ADD36R,0.02375X0.04147*%
%ADD37R,0.06115X0.05524*%
%ADD38R,0.03950X0.03950*%
%ADD39R,0.06115X0.05328*%
%ADD40R,0.05524X0.06312*%
%ADD41R,0.05524X0.06115*%
%ADD42R,0.05328X0.06312*%
%ADD43R,0.02178X0.04147*%
%ADD44O,0.01784X0.03753*%
%ADD45R,0.04343X0.03950*%
%ADD46C,0.00800*%
%ADD47C,0.07099*%
%ADD48C,0.03556*%
%ADD49C,0.24422*%
D34*
X57480Y81299D02*
D03*
Y87992D02*
D03*
D35*
X72343Y66536D02*
D03*
X69783D02*
D03*
X67224D02*
D03*
X64665D02*
D03*
X72343Y49213D02*
D03*
X69783D02*
D03*
X67224D02*
D03*
X64665D02*
D03*
D36*
X167126Y65256D02*
D03*
X169685D02*
D03*
X172244D02*
D03*
Y74114D02*
D03*
X167126D02*
D03*
D37*
X77165Y81299D02*
D03*
Y87992D02*
D03*
X66929Y81299D02*
D03*
Y87992D02*
D03*
X82677Y32087D02*
D03*
Y25394D02*
D03*
X55118D02*
D03*
Y32087D02*
D03*
X68898Y25394D02*
D03*
Y32087D02*
D03*
X96457Y32087D02*
D03*
Y25394D02*
D03*
D38*
X108465Y96850D02*
D03*
X114370D02*
D03*
X108465Y113386D02*
D03*
X114370D02*
D03*
D39*
X98032Y96063D02*
D03*
Y102953D02*
D03*
X86614Y96161D02*
D03*
Y103051D02*
D03*
D40*
X142323Y98425D02*
D03*
X135630D02*
D03*
D41*
X135630Y84646D02*
D03*
X142323D02*
D03*
X167913Y45276D02*
D03*
X161221D02*
D03*
X161221Y55118D02*
D03*
X167913D02*
D03*
D42*
X142520Y112205D02*
D03*
X135433D02*
D03*
D43*
X123031Y81102D02*
D03*
X120472D02*
D03*
X117913D02*
D03*
Y72441D02*
D03*
X123031D02*
D03*
D44*
X108465Y54134D02*
D03*
X106496D02*
D03*
X104527D02*
D03*
X102559D02*
D03*
X108465Y41929D02*
D03*
X106496D02*
D03*
X104527D02*
D03*
X102559D02*
D03*
D45*
X129724Y62795D02*
D03*
Y55315D02*
D03*
X141142Y59055D02*
D03*
D46*
X137795Y18110D02*
D03*
X27953Y54331D02*
D03*
Y72835D02*
D03*
D47*
X143701Y35118D02*
D03*
X131890D02*
D03*
X44961Y81299D02*
D03*
Y69488D02*
D03*
Y57677D02*
D03*
Y45866D02*
D03*
D48*
X62205Y28740D02*
D03*
X46063Y27559D02*
D03*
X89370Y28740D02*
D03*
X110630Y27953D02*
D03*
X108268Y86221D02*
D03*
X96457Y51181D02*
D03*
X159843Y62205D02*
D03*
X96457Y45276D02*
D03*
X59055Y42126D02*
D03*
X80709Y62992D02*
D03*
X72835Y74803D02*
D03*
X62205Y75197D02*
D03*
X124016Y59449D02*
D03*
X114567Y48031D02*
D03*
X119291Y55118D02*
D03*
D49*
X24409Y15748D02*
D03*
X171653Y14961D02*
D03*
Y112992D02*
D03*
X24803D02*
D03*
M02*
