G04 Layer_Color=16711935*
%FSLAX25Y25*%
%MOIN*%
G70*
G01*
G75*
%ADD32C,0.00394*%
D32*
X67913Y55315D02*
G03*
X67913Y55315I-1969J0D01*
G01*
X106102Y46457D02*
G03*
X106102Y46457I-1575J0D01*
G01*
X54823Y80512D02*
Y88779D01*
X60138Y80512D02*
Y88779D01*
X54823Y80512D02*
X60138D01*
X54823Y88779D02*
X60138D01*
X74606Y51772D02*
Y63976D01*
X62402Y51772D02*
Y63976D01*
X74606D01*
X62402Y51772D02*
X74606D01*
X165453Y66929D02*
X173917D01*
X165453Y72441D02*
X173917D01*
X165453Y66929D02*
Y72441D01*
X173917Y66929D02*
Y72441D01*
X74508Y80315D02*
Y88976D01*
X79823Y80315D02*
Y88976D01*
X74508Y80315D02*
X79823D01*
X74508Y88976D02*
X79823D01*
X64272Y80315D02*
Y88976D01*
X69587Y80315D02*
Y88976D01*
X64272Y80315D02*
X69587D01*
X64272Y88976D02*
X69587D01*
X95374Y95177D02*
Y103839D01*
X100689Y95177D02*
Y103839D01*
X95374Y95177D02*
X100689D01*
X95374Y103839D02*
X100689D01*
X83957Y95276D02*
Y103937D01*
X89272Y95276D02*
Y103937D01*
X83957Y95276D02*
X89272D01*
X83957Y103937D02*
X89272D01*
X134843Y95768D02*
X143110D01*
X134843Y101083D02*
X143110D01*
Y95768D02*
Y101083D01*
X134843Y95768D02*
Y101083D01*
X80020Y33071D02*
X85335D01*
X80020Y24409D02*
X85335D01*
Y33071D01*
X80020Y24409D02*
Y33071D01*
X52461Y24409D02*
X57776D01*
X52461Y33071D02*
X57776D01*
X52461Y24409D02*
Y33071D01*
X57776Y24409D02*
Y33071D01*
X134646Y81988D02*
Y87303D01*
X143307Y81988D02*
Y87303D01*
X134646D02*
X143307D01*
X134646Y81988D02*
X143307D01*
X168898Y42618D02*
Y47933D01*
X160236Y42618D02*
Y47933D01*
Y42618D02*
X168898D01*
X160236Y47933D02*
X168898D01*
X134685Y109449D02*
X143268D01*
X134685Y114961D02*
X143268D01*
Y109449D02*
Y114961D01*
X134685Y109449D02*
Y114961D01*
X160236Y52461D02*
Y57775D01*
X168898Y52461D02*
Y57775D01*
X160236D02*
X168898D01*
X160236Y52461D02*
X168898D01*
X116240Y79528D02*
X124705D01*
X116240Y74016D02*
X124705D01*
Y79528D01*
X116240Y74016D02*
Y79528D01*
X109646Y43307D02*
Y52756D01*
X101378Y43307D02*
Y52756D01*
X109646D01*
X101378Y43307D02*
X109646D01*
X132677Y53071D02*
Y65039D01*
X138189Y53071D02*
Y65039D01*
X132677D02*
X138189D01*
X132677Y53071D02*
X138189D01*
X66240Y24409D02*
X71555D01*
X66240Y33071D02*
X71555D01*
X66240Y24409D02*
Y33071D01*
X71555Y24409D02*
Y33071D01*
X93799Y33071D02*
X99114D01*
X93799Y24409D02*
X99114D01*
Y33071D01*
X93799Y24409D02*
Y33071D01*
M02*
