G04*
G04 #@! TF.GenerationSoftware,Altium Limited,Altium Designer,19.1.5 (86)*
G04*
G04 Layer_Physical_Order=2*
G04 Layer_Color=16711680*
%FSLAX25Y25*%
%MOIN*%
G70*
G01*
G75*
%ADD12C,0.00787*%
%ADD13C,0.01000*%
%ADD46C,0.06299*%
%ADD47C,0.02756*%
%ADD48C,0.23622*%
G36*
X164368Y124131D02*
X164257Y123485D01*
X164100Y123389D01*
X162567Y122079D01*
X161257Y120545D01*
X160204Y118826D01*
X159432Y116963D01*
X158961Y115002D01*
X158842Y113492D01*
X171653D01*
Y112992D01*
X172153D01*
Y100181D01*
X173664Y100300D01*
X175625Y100770D01*
X177488Y101542D01*
X179207Y102596D01*
X179877Y103168D01*
X180374Y103112D01*
X183858Y98425D01*
Y24357D01*
X182521Y22558D01*
X181951Y22630D01*
X180740Y24047D01*
X179207Y25357D01*
X177488Y26411D01*
X175625Y27182D01*
X173664Y27653D01*
X172153Y27772D01*
Y14961D01*
X171653D01*
Y14461D01*
X158842D01*
X158961Y12950D01*
X159432Y10990D01*
X160204Y9127D01*
X161257Y7407D01*
X162567Y5874D01*
X164100Y4564D01*
X164510Y4313D01*
X164374Y3832D01*
X30621D01*
X30565Y3909D01*
X30695Y4575D01*
X31963Y5352D01*
X33496Y6661D01*
X34806Y8195D01*
X35859Y9914D01*
X36631Y11777D01*
X37102Y13738D01*
X37221Y15248D01*
X24409D01*
Y15748D01*
X23910D01*
Y28559D01*
X22399Y28440D01*
X20438Y27970D01*
X18575Y27198D01*
X16856Y26144D01*
X15323Y24835D01*
X15067Y24535D01*
X14567Y24552D01*
X13386Y26142D01*
Y98425D01*
X16564Y102701D01*
X17061Y102757D01*
X17250Y102596D01*
X18969Y101542D01*
X20832Y100770D01*
X22793Y100300D01*
X24303Y100181D01*
Y112992D01*
X24803D01*
Y113492D01*
X37614D01*
X37496Y115002D01*
X37025Y116963D01*
X36253Y118826D01*
X35199Y120545D01*
X33890Y122079D01*
X32357Y123389D01*
X32271Y123832D01*
X32622Y124304D01*
X164226D01*
X164368Y124131D01*
D02*
G37*
%LPC*%
G36*
X171153Y112492D02*
X158842D01*
X158961Y110982D01*
X159432Y109021D01*
X160204Y107158D01*
X161257Y105439D01*
X162567Y103905D01*
X164100Y102596D01*
X165820Y101542D01*
X167683Y100770D01*
X169643Y100300D01*
X171153Y100181D01*
Y112492D01*
D02*
G37*
G36*
X37614D02*
X25303D01*
Y100181D01*
X26813Y100300D01*
X28774Y100770D01*
X30637Y101542D01*
X32357Y102596D01*
X33890Y103905D01*
X35199Y105439D01*
X36253Y107158D01*
X37025Y109021D01*
X37496Y110982D01*
X37614Y112492D01*
D02*
G37*
G36*
X45461Y85419D02*
Y81799D01*
X49080D01*
X49004Y82383D01*
X48585Y83392D01*
X47920Y84259D01*
X47054Y84924D01*
X46044Y85342D01*
X45461Y85419D01*
D02*
G37*
G36*
X44461D02*
X43878Y85342D01*
X42868Y84924D01*
X42001Y84259D01*
X41336Y83392D01*
X40918Y82383D01*
X40841Y81799D01*
X44461D01*
Y85419D01*
D02*
G37*
G36*
X49080Y80799D02*
X45461D01*
Y77180D01*
X46044Y77256D01*
X47054Y77675D01*
X47920Y78340D01*
X48585Y79207D01*
X49004Y80216D01*
X49080Y80799D01*
D02*
G37*
G36*
X44461D02*
X40841D01*
X40918Y80216D01*
X41336Y79207D01*
X42001Y78340D01*
X42868Y77675D01*
X43878Y77256D01*
X44461Y77180D01*
Y80799D01*
D02*
G37*
G36*
X27953Y79774D02*
X26599Y79640D01*
X25297Y79245D01*
X24098Y78604D01*
X23046Y77741D01*
X22183Y76690D01*
X21542Y75490D01*
X21147Y74188D01*
X21014Y72835D01*
X21147Y71481D01*
X21542Y70179D01*
X22183Y68980D01*
X23046Y67928D01*
X24098Y67065D01*
X25297Y66424D01*
X26599Y66029D01*
X27953Y65896D01*
X29307Y66029D01*
X30608Y66424D01*
X31808Y67065D01*
X32859Y67928D01*
X33722Y68980D01*
X34363Y70179D01*
X34758Y71481D01*
X34892Y72835D01*
X34758Y74188D01*
X34363Y75490D01*
X33722Y76690D01*
X32859Y77741D01*
X31808Y78604D01*
X30608Y79245D01*
X29307Y79640D01*
X27953Y79774D01*
D02*
G37*
G36*
X44961Y73674D02*
X43878Y73531D01*
X42868Y73113D01*
X42001Y72448D01*
X41336Y71581D01*
X40918Y70572D01*
X40775Y69488D01*
X40918Y68405D01*
X41336Y67396D01*
X42001Y66529D01*
X42868Y65864D01*
X43878Y65446D01*
X44961Y65303D01*
X46044Y65446D01*
X47054Y65864D01*
X47920Y66529D01*
X48585Y67396D01*
X49004Y68405D01*
X49146Y69488D01*
X49004Y70572D01*
X48585Y71581D01*
X47920Y72448D01*
X47054Y73113D01*
X46044Y73531D01*
X44961Y73674D01*
D02*
G37*
G36*
X159843Y64629D02*
X158915Y64445D01*
X158128Y63919D01*
X158004Y63734D01*
X150657D01*
X150533Y63919D01*
X149747Y64445D01*
X148819Y64629D01*
X147891Y64445D01*
X147105Y63919D01*
X146579Y63133D01*
X146394Y62205D01*
X146579Y61277D01*
X147105Y60490D01*
X147891Y59965D01*
X148819Y59780D01*
X149747Y59965D01*
X150533Y60490D01*
X150657Y60675D01*
X158004D01*
X158128Y60490D01*
X158915Y59965D01*
X159843Y59780D01*
X160770Y59965D01*
X161557Y60490D01*
X162083Y61277D01*
X162267Y62205D01*
X162083Y63133D01*
X161557Y63919D01*
X160770Y64445D01*
X159843Y64629D01*
D02*
G37*
G36*
X72835Y77228D02*
X71907Y77043D01*
X71120Y76518D01*
X70595Y75731D01*
X70410Y74803D01*
X70595Y73875D01*
X71120Y73089D01*
X71305Y72965D01*
Y70866D01*
X71422Y70281D01*
X71753Y69785D01*
X78328Y63210D01*
X78284Y62992D01*
X78469Y62064D01*
X78994Y61278D01*
X79781Y60752D01*
X80709Y60568D01*
X81637Y60752D01*
X82423Y61278D01*
X82949Y62064D01*
X83133Y62992D01*
X82949Y63920D01*
X82423Y64706D01*
X81637Y65232D01*
X80709Y65417D01*
X80490Y65373D01*
X74364Y71500D01*
Y72965D01*
X74549Y73089D01*
X75075Y73875D01*
X75259Y74803D01*
X75075Y75731D01*
X74549Y76518D01*
X73763Y77043D01*
X72835Y77228D01*
D02*
G37*
G36*
X44961Y61863D02*
X43878Y61720D01*
X42868Y61302D01*
X42001Y60637D01*
X41336Y59770D01*
X40918Y58760D01*
X40775Y57677D01*
X40918Y56594D01*
X41336Y55585D01*
X42001Y54718D01*
X42868Y54053D01*
X43878Y53635D01*
X44961Y53492D01*
X46044Y53635D01*
X47054Y54053D01*
X47920Y54718D01*
X48585Y55585D01*
X49004Y56594D01*
X49146Y57677D01*
X49004Y58760D01*
X48585Y59770D01*
X47920Y60637D01*
X47054Y61302D01*
X46044Y61720D01*
X44961Y61863D01*
D02*
G37*
G36*
X108268Y88645D02*
X107340Y88460D01*
X106553Y87935D01*
X106028Y87148D01*
X105843Y86221D01*
X106028Y85293D01*
X106553Y84506D01*
X106738Y84382D01*
Y74803D01*
X106855Y74218D01*
X107186Y73722D01*
X116581Y64327D01*
Y57350D01*
X116396Y57226D01*
X115870Y56440D01*
X115686Y55512D01*
X115870Y54584D01*
X116396Y53797D01*
X117182Y53272D01*
X118110Y53087D01*
X119038Y53272D01*
X119825Y53797D01*
X120350Y54584D01*
X120535Y55512D01*
X120350Y56440D01*
X119825Y57226D01*
X119640Y57350D01*
Y64961D01*
X119523Y65546D01*
X119192Y66042D01*
X109797Y75437D01*
Y84382D01*
X109982Y84506D01*
X110508Y85293D01*
X110692Y86221D01*
X110508Y87148D01*
X109982Y87935D01*
X109196Y88460D01*
X108268Y88645D01*
D02*
G37*
G36*
X62205Y77621D02*
X61277Y77437D01*
X60490Y76911D01*
X59965Y76125D01*
X59780Y75197D01*
X59965Y74269D01*
X60490Y73482D01*
X60784Y73286D01*
Y46457D01*
X60892Y45913D01*
X61200Y45452D01*
X62497Y44155D01*
X62289Y43655D01*
X60893D01*
X60769Y43840D01*
X59983Y44366D01*
X59055Y44550D01*
X58127Y44366D01*
X57341Y43840D01*
X56815Y43054D01*
X56631Y42126D01*
X56815Y41198D01*
X57341Y40412D01*
X58127Y39886D01*
X59055Y39701D01*
X59983Y39886D01*
X60769Y40412D01*
X60893Y40597D01*
X93307D01*
X93892Y40713D01*
X94389Y41045D01*
X96238Y42895D01*
X96457Y42851D01*
X97385Y43036D01*
X98171Y43561D01*
X98697Y44348D01*
X98881Y45276D01*
X98697Y46203D01*
X98171Y46990D01*
X97385Y47516D01*
X96457Y47700D01*
X95529Y47516D01*
X95466Y47473D01*
X95147Y47862D01*
X96111Y48825D01*
X96457Y48757D01*
X97385Y48941D01*
X98171Y49467D01*
X98697Y50253D01*
X98881Y51181D01*
X98697Y52109D01*
X98171Y52895D01*
X97385Y53421D01*
X96457Y53606D01*
X95529Y53421D01*
X94742Y52895D01*
X94217Y52109D01*
X94032Y51181D01*
X94101Y50835D01*
X89569Y46303D01*
X64368D01*
X63626Y47045D01*
Y73286D01*
X63919Y73482D01*
X64445Y74269D01*
X64629Y75197D01*
X64445Y76125D01*
X63919Y76911D01*
X63133Y77437D01*
X62205Y77621D01*
D02*
G37*
G36*
X27953Y61270D02*
X26599Y61136D01*
X25297Y60742D01*
X24098Y60100D01*
X23046Y59237D01*
X22183Y58186D01*
X21542Y56986D01*
X21147Y55685D01*
X21014Y54331D01*
X21147Y52977D01*
X21542Y51675D01*
X22183Y50476D01*
X23046Y49424D01*
X24098Y48561D01*
X25297Y47920D01*
X26599Y47525D01*
X27953Y47392D01*
X29307Y47525D01*
X30608Y47920D01*
X31808Y48561D01*
X32859Y49424D01*
X33722Y50476D01*
X34363Y51675D01*
X34758Y52977D01*
X34892Y54331D01*
X34758Y55685D01*
X34363Y56986D01*
X33722Y58186D01*
X32859Y59237D01*
X31808Y60100D01*
X30608Y60742D01*
X29307Y61136D01*
X27953Y61270D01*
D02*
G37*
G36*
X44961Y50052D02*
X43878Y49909D01*
X42868Y49491D01*
X42001Y48826D01*
X41336Y47959D01*
X40918Y46949D01*
X40775Y45866D01*
X40918Y44783D01*
X41336Y43774D01*
X42001Y42907D01*
X42868Y42242D01*
X43878Y41824D01*
X44961Y41681D01*
X46044Y41824D01*
X47054Y42242D01*
X47920Y42907D01*
X48585Y43774D01*
X49004Y44783D01*
X49146Y45866D01*
X49004Y46949D01*
X48585Y47959D01*
X47920Y48826D01*
X47054Y49491D01*
X46044Y49909D01*
X44961Y50052D01*
D02*
G37*
G36*
X132390Y39238D02*
Y35618D01*
X136010D01*
X135933Y36202D01*
X135515Y37211D01*
X134849Y38078D01*
X133983Y38743D01*
X132973Y39161D01*
X132390Y39238D01*
D02*
G37*
G36*
X131390D02*
X130807Y39161D01*
X129797Y38743D01*
X128930Y38078D01*
X128265Y37211D01*
X127847Y36202D01*
X127770Y35618D01*
X131390D01*
Y39238D01*
D02*
G37*
G36*
X136010Y34618D02*
X132390D01*
Y30999D01*
X132973Y31075D01*
X133983Y31494D01*
X134849Y32159D01*
X135515Y33026D01*
X135933Y34035D01*
X136010Y34618D01*
D02*
G37*
G36*
X131390D02*
X127770D01*
X127847Y34035D01*
X128265Y33026D01*
X128930Y32159D01*
X129797Y31494D01*
X130807Y31075D01*
X131390Y30999D01*
Y34618D01*
D02*
G37*
G36*
X143701Y39304D02*
X142618Y39161D01*
X141608Y38743D01*
X140741Y38078D01*
X140076Y37211D01*
X139658Y36202D01*
X139515Y35118D01*
X139658Y34035D01*
X140076Y33026D01*
X140741Y32159D01*
X141608Y31494D01*
X142618Y31075D01*
X143701Y30933D01*
X144784Y31075D01*
X145794Y31494D01*
X146660Y32159D01*
X147326Y33026D01*
X147744Y34035D01*
X147886Y35118D01*
X147744Y36202D01*
X147326Y37211D01*
X146660Y38078D01*
X145794Y38743D01*
X144784Y39161D01*
X143701Y39304D01*
D02*
G37*
G36*
X89870Y31065D02*
Y29240D01*
X91695D01*
X91610Y29668D01*
X91084Y30455D01*
X90298Y30980D01*
X89870Y31065D01*
D02*
G37*
G36*
X88870D02*
X88442Y30980D01*
X87656Y30455D01*
X87130Y29668D01*
X87045Y29240D01*
X88870D01*
Y31065D01*
D02*
G37*
G36*
X62705D02*
Y29240D01*
X64530D01*
X64445Y29668D01*
X63919Y30455D01*
X63133Y30980D01*
X62705Y31065D01*
D02*
G37*
G36*
X61705D02*
X61277Y30980D01*
X60490Y30455D01*
X59965Y29668D01*
X59880Y29240D01*
X61705D01*
Y31065D01*
D02*
G37*
G36*
X111130Y30278D02*
Y28453D01*
X112955D01*
X112870Y28881D01*
X112344Y29667D01*
X111558Y30193D01*
X111130Y30278D01*
D02*
G37*
G36*
X110130D02*
X109702Y30193D01*
X108915Y29667D01*
X108390Y28881D01*
X108305Y28453D01*
X110130D01*
Y30278D01*
D02*
G37*
G36*
X46563Y29884D02*
Y28059D01*
X48388D01*
X48303Y28487D01*
X47777Y29274D01*
X46991Y29799D01*
X46563Y29884D01*
D02*
G37*
G36*
X45563D02*
X45135Y29799D01*
X44349Y29274D01*
X43823Y28487D01*
X43738Y28059D01*
X45563D01*
Y29884D01*
D02*
G37*
G36*
X91695Y28240D02*
X89870D01*
Y26415D01*
X90298Y26500D01*
X91084Y27026D01*
X91610Y27812D01*
X91695Y28240D01*
D02*
G37*
G36*
X88870D02*
X87045D01*
X87130Y27812D01*
X87656Y27026D01*
X88442Y26500D01*
X88870Y26415D01*
Y28240D01*
D02*
G37*
G36*
X64530D02*
X62705D01*
Y26415D01*
X63133Y26500D01*
X63919Y27026D01*
X64445Y27812D01*
X64530Y28240D01*
D02*
G37*
G36*
X61705D02*
X59880D01*
X59965Y27812D01*
X60490Y27026D01*
X61277Y26500D01*
X61705Y26415D01*
Y28240D01*
D02*
G37*
G36*
X112955Y27453D02*
X111130D01*
Y25628D01*
X111558Y25713D01*
X112344Y26238D01*
X112870Y27025D01*
X112955Y27453D01*
D02*
G37*
G36*
X110130D02*
X108305D01*
X108390Y27025D01*
X108915Y26238D01*
X109702Y25713D01*
X110130Y25628D01*
Y27453D01*
D02*
G37*
G36*
X48388Y27059D02*
X46563D01*
Y25234D01*
X46991Y25319D01*
X47777Y25845D01*
X48303Y26631D01*
X48388Y27059D01*
D02*
G37*
G36*
X45563D02*
X43738D01*
X43823Y26631D01*
X44349Y25845D01*
X45135Y25319D01*
X45563Y25234D01*
Y27059D01*
D02*
G37*
G36*
X24909Y28559D02*
Y16248D01*
X37221D01*
X37102Y17758D01*
X36631Y19719D01*
X35859Y21582D01*
X34806Y23301D01*
X33496Y24835D01*
X31963Y26144D01*
X30244Y27198D01*
X28381Y27970D01*
X26420Y28440D01*
X24909Y28559D01*
D02*
G37*
G36*
X171153Y27772D02*
X169643Y27653D01*
X167683Y27182D01*
X165820Y26411D01*
X164100Y25357D01*
X162567Y24047D01*
X161257Y22514D01*
X160204Y20795D01*
X159432Y18932D01*
X158961Y16971D01*
X158842Y15461D01*
X171153D01*
Y27772D01*
D02*
G37*
G36*
X137795Y25049D02*
X136442Y24916D01*
X135140Y24521D01*
X133940Y23880D01*
X132889Y23017D01*
X132026Y21965D01*
X131385Y20766D01*
X130990Y19464D01*
X130856Y18110D01*
X130990Y16757D01*
X131385Y15455D01*
X132026Y14255D01*
X132889Y13204D01*
X133940Y12341D01*
X135140Y11699D01*
X136442Y11305D01*
X137795Y11171D01*
X139149Y11305D01*
X140451Y11699D01*
X141650Y12341D01*
X142702Y13204D01*
X143565Y14255D01*
X144206Y15455D01*
X144601Y16757D01*
X144734Y18110D01*
X144601Y19464D01*
X144206Y20766D01*
X143565Y21965D01*
X142702Y23017D01*
X141650Y23880D01*
X140451Y24521D01*
X139149Y24916D01*
X137795Y25049D01*
D02*
G37*
%LPD*%
D12*
X62205Y46457D02*
Y75197D01*
Y46457D02*
X63779Y44882D01*
X90158D01*
X96457Y51181D01*
D13*
X72835Y70866D02*
Y74803D01*
Y70866D02*
X80709Y62992D01*
X59055Y42126D02*
X93307D01*
X96457Y45276D01*
X148819Y62205D02*
X149213D01*
X149213Y62205D01*
X159843D01*
X118110Y55512D02*
Y64961D01*
X108268Y74803D02*
X118110Y64961D01*
X108268Y74803D02*
Y86221D01*
X108253Y86207D02*
X108268Y86221D01*
D46*
X44961Y45866D02*
D03*
Y57677D02*
D03*
Y69488D02*
D03*
Y81299D02*
D03*
X131890Y35118D02*
D03*
X143701D02*
D03*
D47*
X62205Y75197D02*
D03*
X72835Y74803D02*
D03*
X80709Y62992D02*
D03*
X59055Y42126D02*
D03*
X96457Y45276D02*
D03*
X148819Y62205D02*
D03*
X159843Y62205D02*
D03*
X118110Y55512D02*
D03*
X96457Y51181D02*
D03*
X108268Y86221D02*
D03*
X110630Y27953D02*
D03*
X89370Y28740D02*
D03*
X46063Y27559D02*
D03*
X62205Y28740D02*
D03*
D48*
X24803Y112992D02*
D03*
X171653D02*
D03*
Y14961D02*
D03*
X24409Y15748D02*
D03*
M02*
