G04 Layer_Color=16711935*
%FSLAX25Y25*%
%MOIN*%
G70*
G01*
G75*
%ADD41C,0.00394*%
D41*
X101772Y52756D02*
G03*
X101772Y52756I-1575J0D01*
G01*
X62402Y55315D02*
G03*
X62402Y55315I-1969J0D01*
G01*
X134685Y109449D02*
Y114961D01*
X143268Y109449D02*
Y114961D01*
X134685D02*
X143268D01*
X134685Y109449D02*
X143268D01*
X57677Y99705D02*
X66338D01*
X57677Y105020D02*
X66338D01*
Y99705D02*
Y105020D01*
X57677Y99705D02*
Y105020D01*
X134646Y81988D02*
X143307D01*
X134646Y87303D02*
X143307D01*
Y81988D02*
Y87303D01*
X134646Y81988D02*
Y87303D01*
X134843Y95768D02*
Y101083D01*
X143110Y95768D02*
Y101083D01*
X134843D02*
X143110D01*
X134843Y95768D02*
X143110D01*
X105020Y24409D02*
Y33071D01*
X99705Y24409D02*
Y33071D01*
X105020D01*
X99705Y24409D02*
X105020D01*
X57677Y91240D02*
X66338D01*
X57677Y85925D02*
X66338D01*
X57677D02*
Y91240D01*
X66338Y85925D02*
Y91240D01*
X57776Y24409D02*
Y33071D01*
X52461Y24409D02*
Y33071D01*
X57776D01*
X52461Y24409D02*
X57776D01*
X71555Y24213D02*
Y32874D01*
X66240Y24213D02*
Y32874D01*
X71555D01*
X66240Y24213D02*
X71555D01*
X80020Y24409D02*
Y33071D01*
X85335Y24409D02*
Y33071D01*
X80020Y24409D02*
X85335D01*
X80020Y33071D02*
X85335D01*
X144882Y50315D02*
X150394D01*
X144882Y62283D02*
X150394D01*
Y50315D02*
Y62283D01*
X144882Y50315D02*
Y62283D01*
X111122Y101969D02*
X119587D01*
X111122Y96457D02*
X119587D01*
Y101969D01*
X111122Y96457D02*
Y101969D01*
X97047Y49606D02*
X105315D01*
X97047Y59055D02*
X105315D01*
X97047Y49606D02*
Y59055D01*
X105315Y49606D02*
Y59055D01*
X69094Y51772D02*
Y63976D01*
X56890Y51772D02*
Y63976D01*
X69094D01*
X56890Y51772D02*
X69094D01*
M02*
