G04 Layer_Color=8421504*
%FSLAX25Y25*%
%MOIN*%
G70*
G01*
G75*
%ADD10R,0.05512X0.04724*%
%ADD11O,0.01772X0.05709*%
%ADD12R,0.01575X0.03347*%
%ADD13R,0.05315X0.04724*%
%ADD14R,0.03150X0.03150*%
%ADD15R,0.05315X0.04528*%
%ADD16R,0.04724X0.05512*%
%ADD17R,0.04724X0.05315*%
%ADD18R,0.04528X0.05512*%
%ADD19R,0.01378X0.03347*%
%ADD20O,0.00984X0.02953*%
%ADD21R,0.03543X0.03150*%
D10*
X57480Y81299D02*
D03*
Y87992D02*
D03*
D11*
X72343Y66536D02*
D03*
X69783D02*
D03*
X67224D02*
D03*
X64665D02*
D03*
X72343Y49213D02*
D03*
X69783D02*
D03*
X67224D02*
D03*
X64665D02*
D03*
D12*
X167126Y65256D02*
D03*
X169685D02*
D03*
X172244D02*
D03*
Y74114D02*
D03*
X167126D02*
D03*
D13*
X77165Y81299D02*
D03*
Y87992D02*
D03*
X66929Y81299D02*
D03*
Y87992D02*
D03*
X82677Y32087D02*
D03*
Y25394D02*
D03*
X55118D02*
D03*
Y32087D02*
D03*
X68898Y25394D02*
D03*
Y32087D02*
D03*
X96457Y32087D02*
D03*
Y25394D02*
D03*
D14*
X108465Y96850D02*
D03*
X114370D02*
D03*
X108465Y113386D02*
D03*
X114370D02*
D03*
D15*
X98032Y96063D02*
D03*
Y102953D02*
D03*
X86614Y96161D02*
D03*
Y103051D02*
D03*
D16*
X142323Y98425D02*
D03*
X135630D02*
D03*
D17*
X135630Y84646D02*
D03*
X142323D02*
D03*
X167913Y45276D02*
D03*
X161221D02*
D03*
X161221Y55118D02*
D03*
X167913D02*
D03*
D18*
X142520Y112205D02*
D03*
X135433D02*
D03*
D19*
X123031Y81102D02*
D03*
X120472D02*
D03*
X117913D02*
D03*
Y72441D02*
D03*
X123031D02*
D03*
D20*
X108465Y54134D02*
D03*
X106496D02*
D03*
X104527D02*
D03*
X102559D02*
D03*
X108465Y41929D02*
D03*
X106496D02*
D03*
X104527D02*
D03*
X102559D02*
D03*
D21*
X129724Y62795D02*
D03*
Y55315D02*
D03*
X141142Y59055D02*
D03*
M02*
