M48
;Layer_Color=9474304
;FILE_FORMAT=2:5
INCH,LZ
;TYPE=PLATED
T1F00S00C0.01968
T2F00S00C0.04016
T3F00S00C0.15748
;TYPE=NON_PLATED
T4F00S00C0.11811
%
T01
X004685Y0025591
X0061811Y0025197
X0050787Y004252
X0077953Y0047638
X0088583Y0048031
Y0059842
X0111417
X0129921
X0125984Y0084646
Y0092913
X0125591Y0101181
X0106299Y0092126
Y0083465
Y0075984
X0068504Y0076378
X0094488Y0040157
X0150394Y0076378
T02
X0035118Y0045866
Y0057677
Y0069488
Y0081299
X013189Y0035118
X0143701
T03
X0015748Y0015748
Y011811
X0177165
Y0015748
T04
X001811Y0054331
Y0072835
X0137795Y001811
M30
