G04*
G04 #@! TF.GenerationSoftware,Altium Limited,Altium Designer,19.1.5 (86)*
G04*
G04 Layer_Color=8421504*
%FSLAX25Y25*%
%MOIN*%
G70*
G01*
G75*
%ADD15R,0.05512X0.04724*%
%ADD16R,0.01575X0.03347*%
%ADD17R,0.05315X0.04724*%
%ADD18O,0.01772X0.05709*%
%ADD19R,0.05315X0.04528*%
%ADD20R,0.03150X0.03150*%
%ADD21R,0.04528X0.05512*%
%ADD22R,0.04724X0.05315*%
%ADD23R,0.04724X0.05512*%
%ADD24R,0.03543X0.03150*%
%ADD25R,0.01378X0.03347*%
%ADD26O,0.00984X0.02953*%
D15*
X57480Y87992D02*
D03*
Y81299D02*
D03*
D16*
X167126Y74114D02*
D03*
X172244D02*
D03*
Y65256D02*
D03*
X169685D02*
D03*
X167126D02*
D03*
D17*
X77165Y87992D02*
D03*
Y81299D02*
D03*
X66929Y87992D02*
D03*
Y81299D02*
D03*
X96457Y25394D02*
D03*
Y32087D02*
D03*
X68898Y32087D02*
D03*
Y25394D02*
D03*
X55118Y32087D02*
D03*
Y25394D02*
D03*
X82677D02*
D03*
Y32087D02*
D03*
D18*
X64665Y49213D02*
D03*
X67224D02*
D03*
X69783D02*
D03*
X72343D02*
D03*
X64665Y66536D02*
D03*
X67224D02*
D03*
X69783D02*
D03*
X72343D02*
D03*
D19*
X98032Y102953D02*
D03*
Y96063D02*
D03*
X86614Y103051D02*
D03*
Y96161D02*
D03*
D20*
X114370Y96850D02*
D03*
X108465D02*
D03*
X114370Y113386D02*
D03*
X108465D02*
D03*
D21*
X135433Y112205D02*
D03*
X142520D02*
D03*
D22*
X167913Y55118D02*
D03*
X161221D02*
D03*
X142323Y84646D02*
D03*
X135630D02*
D03*
X161221Y45276D02*
D03*
X167913D02*
D03*
D23*
X135630Y98425D02*
D03*
X142323D02*
D03*
D24*
X141142Y59055D02*
D03*
X129724Y55315D02*
D03*
Y62795D02*
D03*
D25*
X123031Y85433D02*
D03*
X120473D02*
D03*
X117913D02*
D03*
Y76772D02*
D03*
X123031D02*
D03*
D26*
X102559Y41929D02*
D03*
X104527D02*
D03*
X106496D02*
D03*
X108465D02*
D03*
X102559Y54134D02*
D03*
X104527D02*
D03*
X106496D02*
D03*
X108465D02*
D03*
M02*
