G04*
G04 #@! TF.GenerationSoftware,Altium Limited,Altium Designer,18.1.9 (240)*
G04*
G04 Layer_Color=65535*
%FSLAX25Y25*%
%MOIN*%
G70*
G01*
G75*
%ADD10C,0.00984*%
%ADD11C,0.02362*%
%ADD12C,0.00787*%
%ADD13C,0.01000*%
%ADD14C,0.00600*%
G36*
X68474Y129497D02*
X68576D01*
X68693Y129482D01*
X68839Y129468D01*
X68984Y129438D01*
X69334Y129395D01*
X69713Y129307D01*
X70122Y129205D01*
X70530Y129059D01*
X70428Y128768D01*
X70413D01*
X70384Y128782D01*
X70326Y128812D01*
X70238Y128826D01*
X70151Y128870D01*
X70034Y128899D01*
X69903Y128943D01*
X69757Y128972D01*
X69436Y129059D01*
X69057Y129132D01*
X68664Y129176D01*
X68255Y129205D01*
X67847D01*
X67716Y129191D01*
X67570Y129176D01*
X67249Y129147D01*
X66885Y129103D01*
X66506Y129030D01*
X66112Y128928D01*
X66097D01*
X66068Y128914D01*
X66010Y128899D01*
X65937Y128870D01*
X65850Y128841D01*
X65733Y128797D01*
X65485Y128695D01*
X65179Y128564D01*
X64858Y128403D01*
X64523Y128214D01*
X64173Y127995D01*
X64158D01*
X64129Y127966D01*
X64085Y127937D01*
X64012Y127878D01*
X63940Y127820D01*
X63852Y127747D01*
X63633Y127558D01*
X63386Y127339D01*
X63123Y127062D01*
X62861Y126756D01*
X62598Y126420D01*
Y126406D01*
X62569Y126377D01*
X62540Y126333D01*
X62496Y126260D01*
X62438Y126173D01*
X62380Y126071D01*
X62307Y125954D01*
X62234Y125823D01*
X62073Y125531D01*
X61913Y125196D01*
X61753Y124831D01*
X61621Y124438D01*
Y124423D01*
X61607Y124394D01*
X61592Y124336D01*
X61578Y124248D01*
X61549Y124161D01*
X61519Y124044D01*
X61505Y123913D01*
X61476Y123767D01*
X61417Y123446D01*
X61374Y123082D01*
X61344Y122703D01*
Y122294D01*
Y122280D01*
Y122251D01*
Y122192D01*
X61359Y122119D01*
X61374Y122017D01*
Y121901D01*
X61388Y121769D01*
X61417Y121638D01*
X61461Y121318D01*
X61549Y120953D01*
X61636Y120574D01*
X61767Y120180D01*
Y120166D01*
X61782Y120136D01*
X61811Y120078D01*
X61840Y120005D01*
X61884Y119918D01*
X61928Y119801D01*
X62059Y119553D01*
X62205Y119262D01*
X62394Y118941D01*
X62627Y118606D01*
X62875Y118270D01*
X62627Y118052D01*
X62613Y118066D01*
X62598Y118095D01*
X62555Y118139D01*
X62511Y118212D01*
X62438Y118299D01*
X62365Y118402D01*
X62292Y118518D01*
X62205Y118649D01*
X62015Y118956D01*
X61826Y119305D01*
X61636Y119685D01*
X61476Y120078D01*
Y120093D01*
X61461Y120122D01*
X61432Y120180D01*
X61417Y120268D01*
X61374Y120355D01*
X61344Y120472D01*
X61301Y120603D01*
X61272Y120749D01*
X61184Y121084D01*
X61111Y121463D01*
X61053Y121857D01*
X61024Y122280D01*
Y122294D01*
Y122338D01*
Y122396D01*
Y122484D01*
Y122586D01*
X61038Y122703D01*
Y122848D01*
X61053Y122994D01*
X61082Y123344D01*
X61140Y123723D01*
X61228Y124131D01*
X61330Y124540D01*
Y124554D01*
X61344Y124583D01*
X61359Y124642D01*
X61388Y124729D01*
X61432Y124817D01*
X61461Y124933D01*
X61519Y125065D01*
X61578Y125210D01*
X61724Y125531D01*
X61884Y125881D01*
X62103Y126245D01*
X62336Y126610D01*
X62350Y126625D01*
X62365Y126654D01*
X62409Y126698D01*
X62467Y126770D01*
X62525Y126858D01*
X62613Y126945D01*
X62817Y127179D01*
X63050Y127441D01*
X63327Y127718D01*
X63648Y127995D01*
X63983Y128258D01*
X63998Y128272D01*
X64027Y128287D01*
X64085Y128316D01*
X64144Y128360D01*
X64231Y128418D01*
X64348Y128476D01*
X64464Y128549D01*
X64596Y128622D01*
X64902Y128782D01*
X65237Y128943D01*
X65616Y129103D01*
X66010Y129234D01*
X66025D01*
X66054Y129249D01*
X66112Y129264D01*
X66199Y129278D01*
X66302Y129307D01*
X66418Y129337D01*
X66549Y129366D01*
X66710Y129395D01*
X67045Y129438D01*
X67424Y129482D01*
X67832Y129511D01*
X68387D01*
X68474Y129497D01*
D02*
G37*
G36*
X100565Y121449D02*
X99909D01*
Y122965D01*
X98144D01*
Y121449D01*
X97474D01*
Y125006D01*
X98144D01*
Y123534D01*
X99909D01*
Y125006D01*
X100565D01*
Y121449D01*
D02*
G37*
G36*
X96147Y124992D02*
X96263Y124977D01*
X96395Y124948D01*
X96526Y124890D01*
X96657Y124831D01*
X96774Y124744D01*
X96788Y124729D01*
X96817Y124700D01*
X96861Y124642D01*
X96920Y124554D01*
X96963Y124452D01*
X97007Y124321D01*
X97036Y124175D01*
X97051Y124000D01*
Y123971D01*
Y123913D01*
X97036Y123811D01*
X97007Y123694D01*
X96963Y123548D01*
X96890Y123402D01*
X96803Y123257D01*
X96672Y123125D01*
X96657Y123111D01*
X96599Y123067D01*
X96511Y123009D01*
X96395Y122950D01*
X96234Y122863D01*
X96030Y122790D01*
X95797Y122732D01*
X95534Y122673D01*
X95447Y123271D01*
X95462D01*
X95520Y123286D01*
X95607Y123300D01*
X95695Y123329D01*
X95928Y123402D01*
X96030Y123461D01*
X96118Y123519D01*
X96132Y123534D01*
X96161Y123548D01*
X96191Y123592D01*
X96234Y123650D01*
X96322Y123796D01*
X96336Y123883D01*
X96351Y123986D01*
Y124000D01*
Y124015D01*
X96336Y124102D01*
X96307Y124219D01*
X96234Y124306D01*
X96220Y124321D01*
X96147Y124365D01*
X96045Y124408D01*
X95914Y124423D01*
X95010D01*
Y121449D01*
X94353D01*
Y125006D01*
X96045D01*
X96147Y124992D01*
D02*
G37*
G36*
X108409Y121449D02*
X107738D01*
X105857Y124088D01*
Y121449D01*
X105216D01*
Y125006D01*
X105872D01*
X107767Y122411D01*
Y125006D01*
X108409D01*
Y121449D01*
D02*
G37*
G36*
X119664D02*
X119067D01*
Y123913D01*
X118075Y121449D01*
X117521D01*
X116530Y123913D01*
Y121449D01*
X115932D01*
Y125006D01*
X116603D01*
X117827Y122309D01*
X119008Y125006D01*
X119664D01*
Y121449D01*
D02*
G37*
G36*
X92473D02*
X91860D01*
Y123913D01*
X90898Y121449D01*
X90329D01*
X89338Y123913D01*
Y121449D01*
X88726D01*
Y125006D01*
X89425D01*
X90621Y122309D01*
X91817Y125006D01*
X92473D01*
Y121449D01*
D02*
G37*
G36*
X111485Y124438D02*
X110464D01*
Y121449D01*
X109808D01*
Y124438D01*
X108773D01*
Y125006D01*
X111485D01*
Y124438D01*
D02*
G37*
G36*
X104778Y121449D02*
X104078D01*
X103656Y122411D01*
X102475D01*
X102708Y122980D01*
X103422D01*
X102854Y124336D01*
X101673Y121449D01*
X101002D01*
X102518Y125006D01*
X103233D01*
X104778Y121449D01*
D02*
G37*
G36*
X88303D02*
X87574D01*
X87180Y122411D01*
X85985D01*
X86203Y122980D01*
X86932D01*
X86378Y124336D01*
X85183Y121449D01*
X84512D01*
X86028Y125006D01*
X86743D01*
X88303Y121449D01*
D02*
G37*
G36*
X84177Y124438D02*
X82398D01*
Y123534D01*
X84104D01*
Y122950D01*
X82369D01*
Y122017D01*
X84206D01*
Y121449D01*
X81727D01*
Y125006D01*
X84177D01*
Y124438D01*
D02*
G37*
G36*
X81363D02*
X80327D01*
Y121449D01*
X79671D01*
Y124438D01*
X78636D01*
Y125006D01*
X81363D01*
Y124438D01*
D02*
G37*
G36*
X113832Y125006D02*
X114022Y124977D01*
X114241Y124919D01*
X114459Y124846D01*
X114678Y124729D01*
X114853Y124569D01*
X114868Y124554D01*
X114926Y124481D01*
X114999Y124379D01*
X115086Y124233D01*
X115159Y124044D01*
X115232Y123811D01*
X115290Y123534D01*
X115305Y123213D01*
Y123198D01*
Y123169D01*
Y123125D01*
Y123067D01*
X115276Y122907D01*
X115247Y122717D01*
X115188Y122499D01*
X115115Y122265D01*
X114999Y122046D01*
X114853Y121857D01*
X114838Y121842D01*
X114766Y121784D01*
X114663Y121711D01*
X114518Y121638D01*
X114343Y121551D01*
X114109Y121478D01*
X113832Y121420D01*
X113526Y121405D01*
X113439D01*
X113380Y121420D01*
X113235Y121434D01*
X113045Y121463D01*
X112826Y121522D01*
X112608Y121595D01*
X112404Y121711D01*
X112214Y121857D01*
X112199Y121886D01*
X112141Y121944D01*
X112068Y122046D01*
X111995Y122207D01*
X111908Y122396D01*
X111820Y122630D01*
X111762Y122907D01*
X111733Y123213D01*
Y123227D01*
Y123257D01*
Y123300D01*
X111747Y123359D01*
X111762Y123519D01*
X111791Y123723D01*
X111849Y123942D01*
X111922Y124161D01*
X112039Y124379D01*
X112185Y124569D01*
X112199Y124583D01*
X112272Y124642D01*
X112374Y124715D01*
X112520Y124802D01*
X112710Y124890D01*
X112943Y124962D01*
X113220Y125021D01*
X113526Y125035D01*
X113672D01*
X113832Y125006D01*
D02*
G37*
G36*
X120437Y119612D02*
X77834D01*
Y119918D01*
X120437D01*
Y119612D01*
D02*
G37*
G36*
X101017Y118489D02*
X101133Y118460D01*
X101148D01*
X101162Y118445D01*
X101235Y118431D01*
X101323Y118387D01*
X101425Y118314D01*
X101264Y118052D01*
X101250Y118066D01*
X101191Y118095D01*
X101104Y118139D01*
X101017Y118168D01*
X101002Y118183D01*
X100944Y118197D01*
X100856Y118212D01*
X100769Y118227D01*
X100725D01*
X100623Y118197D01*
X100608D01*
X100594Y118183D01*
X100521Y118154D01*
X100492Y118124D01*
X100477Y118095D01*
X100448Y118052D01*
Y118037D01*
Y118022D01*
X100433Y117935D01*
Y117906D01*
X100448Y117847D01*
X100462Y117833D01*
X100492Y117760D01*
X100506Y117745D01*
X100565Y117702D01*
X100579D01*
X100608Y117687D01*
X100652D01*
X100710Y117673D01*
X100725D01*
X100740Y117658D01*
X100798Y117643D01*
X100958D01*
X101017Y117629D01*
X101090Y117614D01*
X101177Y117570D01*
X101191Y117556D01*
X101250Y117541D01*
X101294Y117498D01*
X101352Y117439D01*
X101366Y117425D01*
X101396Y117381D01*
X101425Y117323D01*
X101454Y117250D01*
Y117235D01*
X101469Y117191D01*
X101483Y117133D01*
Y117060D01*
Y117045D01*
Y117016D01*
X101469Y116958D01*
Y116900D01*
X101410Y116754D01*
X101366Y116681D01*
X101308Y116623D01*
X101294D01*
X101279Y116594D01*
X101235Y116579D01*
X101177Y116550D01*
X101104Y116521D01*
X101017Y116506D01*
X100900Y116477D01*
X100696D01*
X100637Y116491D01*
X100506Y116506D01*
X100361Y116535D01*
X100346D01*
X100331Y116550D01*
X100244Y116594D01*
X100127Y116652D01*
X100011Y116754D01*
X100215Y116987D01*
X100229Y116973D01*
X100288Y116929D01*
X100375Y116871D01*
X100462Y116827D01*
X100492D01*
X100565Y116812D01*
X100667Y116798D01*
X100783Y116783D01*
X100812D01*
X100900Y116798D01*
X100987Y116812D01*
X101075Y116841D01*
X101090Y116856D01*
X101133Y116900D01*
X101162Y116958D01*
X101177Y117060D01*
Y117075D01*
Y117118D01*
X101148Y117177D01*
X101119Y117235D01*
X101104Y117250D01*
X101075Y117279D01*
X101002Y117308D01*
X100915Y117337D01*
X100769D01*
X100740Y117352D01*
X100652Y117366D01*
X100637D01*
X100579Y117381D01*
X100492Y117395D01*
X100419Y117425D01*
X100404Y117439D01*
X100361Y117468D01*
X100302Y117512D01*
X100258Y117570D01*
X100244Y117585D01*
X100215Y117614D01*
X100186Y117673D01*
X100156Y117731D01*
Y117745D01*
X100142Y117789D01*
X100127Y117862D01*
Y117935D01*
Y117964D01*
Y118022D01*
X100142Y118095D01*
X100156Y118183D01*
X100171Y118197D01*
X100186Y118241D01*
X100229Y118299D01*
X100288Y118372D01*
X100302Y118387D01*
X100346Y118416D01*
X100419Y118445D01*
X100492Y118474D01*
X100506Y118489D01*
X100579Y118503D01*
X100667Y118518D01*
X100900D01*
X101017Y118489D01*
D02*
G37*
G36*
X80736D02*
X80867Y118460D01*
X80882D01*
X80896Y118445D01*
X80969Y118431D01*
X81056Y118387D01*
X81159Y118314D01*
X80998Y118052D01*
X80984Y118066D01*
X80925Y118095D01*
X80838Y118139D01*
X80750Y118168D01*
X80721Y118183D01*
X80663Y118197D01*
X80590Y118212D01*
X80488Y118227D01*
X80444D01*
X80357Y118197D01*
X80342D01*
X80327Y118183D01*
X80255Y118154D01*
X80225Y118124D01*
X80211Y118095D01*
X80182Y118052D01*
Y118037D01*
X80167Y118022D01*
X80153Y117935D01*
Y117906D01*
X80167Y117847D01*
X80182Y117833D01*
X80225Y117760D01*
X80240Y117745D01*
X80298Y117702D01*
X80313D01*
X80342Y117687D01*
X80386D01*
X80444Y117673D01*
X80459D01*
X80473Y117658D01*
X80532Y117643D01*
X80692D01*
X80750Y117629D01*
X80823Y117614D01*
X80911Y117570D01*
X80925Y117556D01*
X80984Y117541D01*
X81027Y117498D01*
X81086Y117439D01*
X81100Y117425D01*
X81129Y117381D01*
X81159Y117323D01*
X81188Y117250D01*
Y117235D01*
X81202Y117191D01*
X81217Y117133D01*
Y117060D01*
Y117045D01*
Y117016D01*
X81202Y116958D01*
X81188Y116900D01*
X81129Y116754D01*
X81086Y116681D01*
X81027Y116623D01*
X81013D01*
X80998Y116594D01*
X80954Y116579D01*
X80896Y116550D01*
X80823Y116521D01*
X80736Y116506D01*
X80634Y116477D01*
X80430D01*
X80371Y116491D01*
X80240Y116506D01*
X80094Y116535D01*
X80080D01*
X80065Y116550D01*
X79978Y116594D01*
X79861Y116652D01*
X79730Y116754D01*
X79949Y116987D01*
X79963Y116973D01*
X80021Y116929D01*
X80094Y116871D01*
X80196Y116827D01*
X80225D01*
X80298Y116812D01*
X80400Y116798D01*
X80517Y116783D01*
X80546D01*
X80634Y116798D01*
X80721Y116812D01*
X80809Y116841D01*
X80823Y116856D01*
X80867Y116900D01*
X80896Y116958D01*
X80911Y117060D01*
Y117075D01*
X80896Y117118D01*
X80882Y117177D01*
X80838Y117235D01*
X80823Y117250D01*
X80794Y117279D01*
X80736Y117308D01*
X80648Y117337D01*
X80502D01*
X80473Y117352D01*
X80430D01*
X80371Y117366D01*
X80357D01*
X80298Y117381D01*
X80225Y117395D01*
X80153Y117425D01*
X80138Y117439D01*
X80094Y117468D01*
X80036Y117512D01*
X79978Y117570D01*
X79963Y117585D01*
X79949Y117614D01*
X79905Y117673D01*
X79876Y117731D01*
Y117745D01*
X79861Y117789D01*
X79846Y117862D01*
X79832Y117935D01*
Y117964D01*
Y118022D01*
X79846Y118095D01*
X79876Y118183D01*
X79890Y118197D01*
X79919Y118241D01*
X79963Y118299D01*
X80021Y118372D01*
X80036Y118387D01*
X80080Y118416D01*
X80138Y118445D01*
X80211Y118474D01*
X80240Y118489D01*
X80298Y118503D01*
X80386Y118518D01*
X80619D01*
X80736Y118489D01*
D02*
G37*
G36*
X118411Y118503D02*
X118498Y118474D01*
X118513D01*
X118571Y118445D01*
X118644Y118416D01*
X118717Y118358D01*
X118731Y118343D01*
X118775Y118299D01*
X118819Y118241D01*
X118862Y118154D01*
X118877Y118139D01*
X118892Y118081D01*
X118935Y118008D01*
X118965Y117920D01*
X118615D01*
Y117935D01*
X118600Y117964D01*
X118571Y118037D01*
Y118052D01*
X118556Y118066D01*
X118498Y118139D01*
X118483Y118154D01*
X118454Y118168D01*
X118367Y118197D01*
X118352D01*
X118323Y118212D01*
X118236Y118227D01*
X118206Y118212D01*
X118148Y118197D01*
X118119D01*
X118046Y118183D01*
X118031Y118168D01*
X117988Y118124D01*
X117973Y118110D01*
X117929Y118081D01*
X117915Y118052D01*
X117871Y117993D01*
Y117964D01*
X117857Y117906D01*
Y117891D01*
X117842Y117877D01*
Y117818D01*
X117827Y117745D01*
Y117731D01*
Y117673D01*
Y117600D01*
Y117512D01*
Y117483D01*
Y117425D01*
Y117337D01*
Y117250D01*
Y117235D01*
X117842Y117191D01*
Y117133D01*
X117857Y117089D01*
Y117060D01*
X117871Y117002D01*
X117886Y116973D01*
X117929Y116914D01*
X117944Y116900D01*
X117988Y116856D01*
X118002Y116841D01*
X118046Y116827D01*
X118061D01*
X118075Y116812D01*
X118148Y116783D01*
X118265D01*
X118308Y116798D01*
X118381Y116812D01*
X118454Y116841D01*
X118469Y116856D01*
X118513Y116900D01*
X118571Y116958D01*
X118615Y117060D01*
X118965D01*
X118950Y117031D01*
X118935Y116973D01*
X118892Y116885D01*
X118848Y116798D01*
X118833Y116783D01*
X118804Y116739D01*
X118760Y116681D01*
X118702Y116608D01*
X118687Y116594D01*
X118644Y116579D01*
X118571Y116535D01*
X118483Y116506D01*
X118469D01*
X118411Y116491D01*
X118323Y116477D01*
X118177D01*
X118104Y116491D01*
X118031Y116506D01*
X118017D01*
X117973Y116521D01*
X117915Y116550D01*
X117842Y116579D01*
X117827Y116594D01*
X117798Y116623D01*
X117696Y116696D01*
Y116710D01*
X117667Y116739D01*
X117609Y116827D01*
X117594Y116841D01*
X117579Y116871D01*
Y116885D01*
Y116914D01*
X117565Y116929D01*
X117550Y116958D01*
Y116973D01*
Y116987D01*
Y117031D01*
Y117045D01*
X117536Y117075D01*
X117521Y117133D01*
X117507Y117206D01*
Y117220D01*
Y117293D01*
Y117381D01*
Y117512D01*
Y117527D01*
Y117541D01*
Y117614D01*
Y117702D01*
Y117789D01*
Y117804D01*
X117521Y117862D01*
X117536Y117906D01*
X117550Y117964D01*
Y117979D01*
Y117993D01*
X117565Y118066D01*
Y118081D01*
X117579Y118095D01*
X117609Y118168D01*
X117623Y118183D01*
X117638Y118212D01*
X117696Y118299D01*
X117711Y118314D01*
X117740Y118343D01*
X117784Y118387D01*
X117842Y118416D01*
X117857Y118431D01*
X117900Y118445D01*
X117958Y118474D01*
X118031Y118489D01*
X118046D01*
X118090Y118503D01*
X118163Y118518D01*
X118323D01*
X118411Y118503D01*
D02*
G37*
G36*
X112374D02*
X112462Y118474D01*
X112491D01*
X112535Y118445D01*
X112608Y118416D01*
X112681Y118358D01*
X112695Y118343D01*
X112739Y118299D01*
X112783Y118241D01*
X112826Y118154D01*
X112841Y118139D01*
X112856Y118081D01*
X112885Y118008D01*
X112914Y117920D01*
X112593D01*
Y117935D01*
X112578Y117964D01*
X112535Y118037D01*
Y118052D01*
X112520Y118066D01*
X112447Y118139D01*
Y118154D01*
X112418Y118168D01*
X112345Y118197D01*
X112331D01*
X112302Y118212D01*
X112214Y118227D01*
X112199D01*
X112170Y118212D01*
X112097Y118197D01*
X112068D01*
X112024Y118183D01*
X111995Y118168D01*
X111952Y118124D01*
X111937Y118110D01*
X111879Y118081D01*
X111864Y118052D01*
X111835Y117993D01*
X111820Y117964D01*
X111806Y117906D01*
Y117891D01*
Y117877D01*
X111791Y117818D01*
Y117745D01*
Y117731D01*
Y117673D01*
Y117600D01*
Y117512D01*
Y117483D01*
Y117425D01*
Y117337D01*
Y117250D01*
Y117235D01*
Y117191D01*
Y117133D01*
X111806Y117089D01*
X111820Y117060D01*
X111835Y117002D01*
X111849Y116973D01*
X111879Y116914D01*
X111893D01*
X111908Y116900D01*
X111952Y116856D01*
X111966Y116841D01*
X112024Y116827D01*
X112039Y116812D01*
X112097Y116783D01*
X112229D01*
X112287Y116798D01*
X112360Y116812D01*
X112433Y116841D01*
X112447Y116856D01*
X112491Y116900D01*
X112549Y116958D01*
X112593Y117060D01*
X112914D01*
Y117031D01*
X112899Y116973D01*
X112870Y116885D01*
X112826Y116798D01*
X112812Y116783D01*
X112783Y116739D01*
X112724Y116681D01*
X112651Y116608D01*
X112637Y116594D01*
X112593Y116579D01*
X112535Y116535D01*
X112447Y116506D01*
X112433D01*
X112374Y116491D01*
X112302Y116477D01*
X112141D01*
X112054Y116491D01*
X111981Y116506D01*
X111966D01*
X111922Y116521D01*
X111806Y116579D01*
X111791Y116594D01*
X111762Y116623D01*
X111660Y116696D01*
X111645Y116710D01*
X111631Y116739D01*
X111558Y116827D01*
Y116841D01*
X111543Y116871D01*
Y116885D01*
X111529Y116914D01*
X111514Y116929D01*
X111500Y116958D01*
Y116973D01*
Y116987D01*
Y117031D01*
Y117045D01*
Y117075D01*
X111485Y117133D01*
Y117206D01*
Y117220D01*
Y117293D01*
Y117381D01*
Y117512D01*
Y117527D01*
Y117541D01*
Y117614D01*
Y117702D01*
Y117789D01*
Y117804D01*
Y117862D01*
Y117906D01*
X111500Y117964D01*
Y117979D01*
X111514Y117993D01*
X111529Y118066D01*
Y118081D01*
X111543Y118095D01*
X111558Y118168D01*
X111573Y118183D01*
X111587Y118212D01*
X111660Y118299D01*
X111674Y118314D01*
X111704Y118343D01*
X111806Y118416D01*
X111820Y118431D01*
X111849Y118445D01*
X111908Y118474D01*
X111981Y118489D01*
X111995D01*
X112054Y118503D01*
X112127Y118518D01*
X112302D01*
X112374Y118503D01*
D02*
G37*
G36*
X93260Y116491D02*
X92954D01*
Y117745D01*
X92939D01*
X92531Y116783D01*
X92269D01*
X91846Y117745D01*
X91831D01*
Y116491D01*
X91525D01*
Y118503D01*
X91817D01*
X92400Y117191D01*
X92968Y118503D01*
X93260D01*
Y116491D01*
D02*
G37*
G36*
X95228Y117162D02*
Y117133D01*
Y117075D01*
X95199Y116987D01*
X95170Y116885D01*
X95155Y116871D01*
X95141Y116812D01*
X95082Y116739D01*
X95010Y116666D01*
X94995Y116652D01*
X94951Y116608D01*
X94878Y116564D01*
X94791Y116521D01*
X94762D01*
X94703Y116506D01*
X94616Y116491D01*
X94514Y116477D01*
X94412D01*
X94324Y116491D01*
X94222Y116521D01*
X94208Y116535D01*
X94149Y116550D01*
X94077Y116608D01*
X94004Y116666D01*
X93989Y116681D01*
X93945Y116739D01*
X93887Y116798D01*
X93829Y116885D01*
Y116914D01*
X93814Y116973D01*
X93800Y117060D01*
X93785Y117162D01*
Y118503D01*
X94091D01*
Y117206D01*
Y117191D01*
Y117148D01*
X94120Y117031D01*
Y117016D01*
X94149Y116987D01*
X94178Y116944D01*
X94222Y116885D01*
X94237Y116871D01*
X94266Y116856D01*
X94339Y116798D01*
X94383D01*
X94441Y116783D01*
X94572D01*
X94674Y116798D01*
X94689D01*
X94718Y116827D01*
X94806Y116885D01*
X94820Y116900D01*
X94835Y116929D01*
X94893Y117031D01*
Y117045D01*
X94907Y117075D01*
X94922Y117133D01*
Y117206D01*
Y118503D01*
X95228D01*
Y117162D01*
D02*
G37*
G36*
X84760D02*
Y117133D01*
Y117075D01*
X84731Y116987D01*
X84702Y116885D01*
X84687Y116871D01*
X84672Y116812D01*
X84614Y116739D01*
X84541Y116666D01*
X84527Y116652D01*
X84483Y116608D01*
X84410Y116564D01*
X84323Y116521D01*
X84293D01*
X84235Y116506D01*
X84148Y116491D01*
X84031Y116477D01*
X83943D01*
X83856Y116491D01*
X83754Y116521D01*
X83739Y116535D01*
X83681Y116550D01*
X83608Y116608D01*
X83535Y116666D01*
X83521Y116681D01*
X83477Y116739D01*
X83419Y116798D01*
X83360Y116885D01*
Y116914D01*
X83346Y116973D01*
X83331Y117060D01*
X83316Y117162D01*
Y118503D01*
X83623D01*
Y117206D01*
Y117191D01*
Y117148D01*
X83652Y117031D01*
Y117016D01*
X83681Y116987D01*
X83739Y116885D01*
X83754Y116871D01*
X83783Y116856D01*
X83871Y116798D01*
X83914D01*
X83973Y116783D01*
X84148D01*
X84191Y116798D01*
X84206D01*
X84235Y116827D01*
X84323Y116885D01*
X84337Y116900D01*
X84366Y116929D01*
X84395Y116973D01*
X84425Y117031D01*
Y117045D01*
X84439Y117075D01*
X84454Y117133D01*
Y117206D01*
Y118503D01*
X84760D01*
Y117162D01*
D02*
G37*
G36*
X117025Y116491D02*
X116719D01*
Y118503D01*
X117025D01*
Y116491D01*
D02*
G37*
G36*
X115786Y118489D02*
X115859Y118474D01*
X115874D01*
X115917Y118460D01*
X116034Y118387D01*
X116049Y118372D01*
X116092Y118329D01*
X116136Y118270D01*
X116180Y118197D01*
X116194Y118183D01*
X116209Y118124D01*
X116224Y118052D01*
X116238Y117949D01*
Y117935D01*
Y117920D01*
X116224Y117818D01*
X116194Y117702D01*
X116136Y117585D01*
X116121Y117570D01*
X116063Y117512D01*
X115976Y117439D01*
X115859Y117381D01*
X116311Y116491D01*
X115961D01*
X115524Y117352D01*
X115145D01*
Y116491D01*
X114838D01*
Y118503D01*
X115699D01*
X115786Y118489D01*
D02*
G37*
G36*
X114488Y118241D02*
X113934D01*
Y116491D01*
X113628D01*
Y118241D01*
X113074D01*
Y118503D01*
X114488D01*
Y118241D01*
D02*
G37*
G36*
X111120Y118227D02*
X110129D01*
Y117643D01*
X110975D01*
Y117366D01*
X110129D01*
Y116783D01*
X111120D01*
Y116491D01*
X109823D01*
Y118503D01*
X111120D01*
Y118227D01*
D02*
G37*
G36*
X108409Y116783D02*
X109400D01*
Y116491D01*
X108102D01*
Y118503D01*
X108409D01*
Y116783D01*
D02*
G37*
G36*
X107665Y118227D02*
X106688D01*
Y117643D01*
X107534D01*
Y117366D01*
X106688D01*
Y116783D01*
X107665D01*
Y116491D01*
X106382D01*
Y118503D01*
X107665D01*
Y118227D01*
D02*
G37*
G36*
X105113D02*
X104137D01*
Y117643D01*
X104982D01*
Y117366D01*
X104137D01*
Y116783D01*
X105113D01*
Y116491D01*
X103831D01*
Y118503D01*
X105113D01*
Y118227D01*
D02*
G37*
G36*
X103481Y116491D02*
X103145D01*
X102999Y116929D01*
X102227D01*
X102081Y116491D01*
X101746D01*
X102489Y118503D01*
X102737D01*
X103481Y116491D01*
D02*
G37*
G36*
X99005D02*
X98669D01*
X98523Y116929D01*
X97751D01*
X97605Y116491D01*
X97269D01*
X98013Y118503D01*
X98261D01*
X99005Y116491D01*
D02*
G37*
G36*
X96059Y116783D02*
X97065D01*
Y116491D01*
X95768D01*
Y118503D01*
X96059D01*
Y116783D01*
D02*
G37*
G36*
X90592Y118489D02*
X90665Y118474D01*
X90679D01*
X90723Y118460D01*
X90796Y118431D01*
X90869Y118387D01*
X90883Y118372D01*
X90913Y118329D01*
X90956Y118270D01*
X91000Y118197D01*
X91015Y118183D01*
X91029Y118124D01*
X91044Y118052D01*
X91058Y117949D01*
Y117935D01*
Y117920D01*
X91044Y117818D01*
X91015Y117702D01*
X90956Y117585D01*
X90942Y117570D01*
X90883Y117512D01*
X90796Y117439D01*
X90665Y117381D01*
X91146Y116491D01*
X90767D01*
X90359Y117352D01*
X89950D01*
Y116491D01*
X89644D01*
Y118503D01*
X90519D01*
X90592Y118489D01*
D02*
G37*
G36*
X87399Y118227D02*
X86422D01*
Y117629D01*
X87268D01*
Y117352D01*
X86422D01*
Y116491D01*
X86116D01*
Y118503D01*
X87399D01*
Y118227D01*
D02*
G37*
G36*
X82981D02*
X81990D01*
Y117629D01*
X82835D01*
Y117352D01*
X81990D01*
Y116491D01*
X81683D01*
Y118503D01*
X82981D01*
Y118227D01*
D02*
G37*
G36*
X88580Y118503D02*
X88653Y118489D01*
X88667D01*
X88711Y118474D01*
X88769Y118460D01*
X88828Y118416D01*
X88842Y118402D01*
X88886Y118387D01*
X88973Y118299D01*
X88988Y118285D01*
X89003Y118256D01*
X89061Y118168D01*
X89075Y118139D01*
X89105Y118066D01*
X89119Y118037D01*
X89148Y117964D01*
Y117949D01*
Y117920D01*
Y117862D01*
Y117789D01*
Y117774D01*
X89163Y117716D01*
Y117629D01*
Y117512D01*
Y117498D01*
Y117483D01*
Y117410D01*
Y117308D01*
X89148Y117206D01*
Y117191D01*
Y117148D01*
Y117089D01*
Y117031D01*
Y117016D01*
X89134Y117002D01*
X89105Y116914D01*
X89090Y116885D01*
X89061Y116827D01*
Y116812D01*
X89046Y116783D01*
X88973Y116696D01*
X88959Y116681D01*
X88930Y116666D01*
X88886Y116623D01*
X88828Y116579D01*
X88813D01*
X88784Y116550D01*
X88726Y116535D01*
X88653Y116506D01*
X88638D01*
X88594Y116491D01*
X88521Y116477D01*
X88361D01*
X88288Y116491D01*
X88215Y116506D01*
X88201D01*
X88157Y116521D01*
X88040Y116579D01*
X88026Y116594D01*
X87997Y116623D01*
X87895Y116696D01*
X87880Y116710D01*
X87865Y116739D01*
X87807Y116827D01*
X87792Y116841D01*
X87778Y116871D01*
Y116885D01*
X87763Y116914D01*
Y116929D01*
X87749Y116958D01*
Y116973D01*
Y116987D01*
X87734Y117031D01*
Y117045D01*
Y117075D01*
Y117133D01*
X87720Y117206D01*
Y117220D01*
Y117293D01*
X87705Y117381D01*
Y117512D01*
Y117527D01*
Y117541D01*
Y117614D01*
Y117702D01*
X87720Y117789D01*
Y117804D01*
X87734Y117862D01*
Y117906D01*
Y117964D01*
Y117979D01*
X87749Y117993D01*
X87763Y118066D01*
Y118081D01*
X87778Y118095D01*
X87807Y118168D01*
Y118183D01*
X87836Y118212D01*
X87895Y118299D01*
X87909Y118314D01*
X87938Y118343D01*
X87982Y118387D01*
X88040Y118416D01*
X88055Y118431D01*
X88084Y118445D01*
X88142Y118474D01*
X88215Y118489D01*
X88230D01*
X88288Y118503D01*
X88346Y118518D01*
X88507D01*
X88580Y118503D01*
D02*
G37*
G36*
X73285Y127135D02*
X73300Y127106D01*
X73344Y127062D01*
X73402Y126989D01*
X73460Y126916D01*
X73533Y126814D01*
X73621Y126698D01*
X73708Y126581D01*
X73912Y126289D01*
X74102Y125954D01*
X74306Y125575D01*
X74481Y125181D01*
Y125167D01*
X74496Y125137D01*
X74525Y125079D01*
X74554Y124992D01*
X74583Y124890D01*
X74627Y124773D01*
X74670Y124642D01*
X74714Y124481D01*
X74802Y124146D01*
X74889Y123767D01*
X74948Y123344D01*
X74991Y122907D01*
Y122892D01*
Y122848D01*
Y122790D01*
Y122703D01*
Y122600D01*
Y122469D01*
Y122324D01*
X74977Y122163D01*
X74948Y121813D01*
X74904Y121420D01*
X74816Y120997D01*
X74714Y120559D01*
Y120545D01*
X74700Y120516D01*
X74685Y120443D01*
X74656Y120370D01*
X74612Y120268D01*
X74568Y120151D01*
X74525Y120005D01*
X74466Y119860D01*
X74321Y119539D01*
X74146Y119189D01*
X73941Y118810D01*
X73694Y118445D01*
X73679Y118431D01*
X73664Y118402D01*
X73621Y118358D01*
X73562Y118285D01*
X73504Y118197D01*
X73417Y118095D01*
X73227Y117877D01*
X72979Y117614D01*
X72688Y117337D01*
X72367Y117045D01*
X72002Y116783D01*
X71988D01*
X71959Y116754D01*
X71900Y116725D01*
X71827Y116681D01*
X71740Y116623D01*
X71638Y116550D01*
X71507Y116477D01*
X71375Y116404D01*
X71055Y116244D01*
X70690Y116083D01*
X70297Y115923D01*
X69874Y115792D01*
X69859D01*
X69801Y115777D01*
X69699Y115748D01*
X69582Y115719D01*
X69436Y115690D01*
X69291Y115660D01*
X68941Y115602D01*
X68926D01*
X68868Y115587D01*
X68766D01*
X68649Y115573D01*
X68518Y115558D01*
X68357D01*
X68007Y115544D01*
X67891D01*
X67760Y115558D01*
X67585D01*
X67366Y115573D01*
X67147Y115602D01*
X66899Y115631D01*
X66637Y115675D01*
X66608D01*
X66520Y115704D01*
X66389Y115733D01*
X66214Y115777D01*
X66010Y115835D01*
X65791Y115908D01*
X65310Y116083D01*
X65427Y116389D01*
X65441D01*
X65470Y116375D01*
X65529Y116346D01*
X65616Y116316D01*
X65718Y116273D01*
X65835Y116244D01*
X65966Y116200D01*
X66112Y116156D01*
X66447Y116054D01*
X66826Y115967D01*
X67220Y115908D01*
X67643Y115865D01*
X68343D01*
X68664Y115894D01*
X69043Y115937D01*
X69436Y115996D01*
X69830Y116098D01*
X69845D01*
X69874Y116112D01*
X69932Y116127D01*
X70005Y116156D01*
X70107Y116185D01*
X70209Y116229D01*
X70472Y116331D01*
X70778Y116462D01*
X71113Y116623D01*
X71463Y116827D01*
X71813Y117045D01*
X71827Y117060D01*
X71857Y117075D01*
X71900Y117104D01*
X71973Y117162D01*
X72046Y117220D01*
X72148Y117293D01*
X72367Y117483D01*
X72615Y117716D01*
X72892Y117979D01*
X73169Y118285D01*
X73431Y118635D01*
X73446Y118649D01*
X73460Y118678D01*
X73504Y118737D01*
X73548Y118795D01*
X73606Y118883D01*
X73664Y118999D01*
X73737Y119116D01*
X73810Y119247D01*
X73971Y119553D01*
X74146Y119903D01*
X74291Y120268D01*
X74423Y120676D01*
Y120691D01*
X74437Y120720D01*
X74452Y120778D01*
X74466Y120865D01*
X74496Y120968D01*
X74525Y121084D01*
X74554Y121215D01*
X74583Y121361D01*
X74627Y121682D01*
X74670Y122061D01*
X74685Y122440D01*
Y122848D01*
Y122863D01*
Y122892D01*
Y122950D01*
X74670Y123038D01*
X74656Y123140D01*
Y123257D01*
X74627Y123388D01*
X74612Y123534D01*
X74554Y123854D01*
X74466Y124219D01*
X74364Y124613D01*
X74218Y125006D01*
Y125021D01*
X74204Y125050D01*
X74175Y125108D01*
X74146Y125181D01*
X74102Y125283D01*
X74044Y125385D01*
X73912Y125648D01*
X73752Y125939D01*
X73548Y126260D01*
X73300Y126595D01*
X73023Y126931D01*
X73271Y127149D01*
X73285Y127135D01*
D02*
G37*
G36*
X74481Y130284D02*
X74496Y130240D01*
X74510Y130226D01*
X74525Y130211D01*
X74510Y130197D01*
X74496Y130182D01*
X74452Y130138D01*
X74408Y130080D01*
X74262Y129920D01*
X74073Y129716D01*
X73854Y129468D01*
X73621Y129191D01*
X73358Y128899D01*
X73081Y128593D01*
X73067Y128578D01*
X73052Y128564D01*
X73008Y128520D01*
X72965Y128462D01*
X72819Y128301D01*
X72629Y128097D01*
X72425Y127849D01*
X72177Y127572D01*
X71915Y127281D01*
X71652Y126974D01*
X71638Y126960D01*
X71623Y126945D01*
X71579Y126902D01*
X71536Y126843D01*
X71390Y126683D01*
X71201Y126479D01*
X70982Y126231D01*
X70734Y125954D01*
X70472Y125662D01*
X70194Y125356D01*
X70180Y125342D01*
X70165Y125327D01*
X70122Y125283D01*
X70078Y125225D01*
X69932Y125065D01*
X69743Y124860D01*
X69524Y124613D01*
X69276Y124336D01*
X69014Y124044D01*
X68736Y123738D01*
X68751D01*
X68780Y123723D01*
X68824Y123709D01*
X68882Y123694D01*
X68955Y123679D01*
X69057Y123650D01*
X69276Y123592D01*
X69538Y123519D01*
X69815Y123446D01*
X70122Y123359D01*
X70442Y123271D01*
X70457D01*
X70486Y123257D01*
X70530D01*
X70588Y123227D01*
X70661Y123213D01*
X70763Y123184D01*
X70982Y123140D01*
X71230Y123067D01*
X71521Y122994D01*
X71842Y122907D01*
X72163Y122819D01*
X72148Y122805D01*
X72090Y122761D01*
X72017Y122717D01*
X71944Y122659D01*
X71930Y122644D01*
X71886Y122615D01*
X71827Y122557D01*
X71754Y122499D01*
X71740Y122484D01*
X71696Y122455D01*
X71623Y122396D01*
X71536Y122338D01*
X71419Y122251D01*
X71273Y122149D01*
X71113Y122032D01*
X70938Y121901D01*
X70749Y121755D01*
X70544Y121609D01*
X70107Y121274D01*
X69640Y120924D01*
X69159Y120559D01*
X69145Y120545D01*
X69101Y120516D01*
X69028Y120457D01*
X68941Y120399D01*
X68824Y120311D01*
X68693Y120209D01*
X68532Y120093D01*
X68357Y119962D01*
X68182Y119816D01*
X67978Y119670D01*
X67541Y119335D01*
X67074Y118985D01*
X66593Y118620D01*
X66579Y118606D01*
X66535Y118576D01*
X66462Y118533D01*
X66374Y118460D01*
X66258Y118372D01*
X66127Y118270D01*
X65966Y118154D01*
X65791Y118022D01*
X65602Y117877D01*
X65398Y117731D01*
X64975Y117410D01*
X64508Y117060D01*
X64027Y116696D01*
X64012Y116681D01*
X63969Y116652D01*
X63896Y116594D01*
X63808Y116535D01*
X63692Y116448D01*
X63546Y116331D01*
X63400Y116215D01*
X63225Y116083D01*
X63036Y115952D01*
X62831Y115792D01*
X62394Y115471D01*
X61928Y115121D01*
X61446Y114771D01*
X61432Y114757D01*
X61403Y114727D01*
X61344Y114669D01*
X61272Y114611D01*
X61257Y114596D01*
X61213Y114582D01*
X61169Y114567D01*
X61155Y114582D01*
X61140Y114596D01*
Y114611D01*
X61126Y114654D01*
X61140Y114698D01*
X61199Y114757D01*
X61213Y114771D01*
X61272Y114800D01*
X61315Y114844D01*
X61374Y114888D01*
Y114902D01*
X61403Y114917D01*
X61476Y114990D01*
X61592Y115121D01*
X61738Y115281D01*
X61913Y115471D01*
X62117Y115690D01*
X62336Y115923D01*
X62555Y116156D01*
Y116171D01*
X62584Y116185D01*
X62657Y116258D01*
X62773Y116389D01*
X62919Y116550D01*
X63094Y116739D01*
X63298Y116944D01*
X63502Y117177D01*
X63721Y117410D01*
Y117425D01*
X63750Y117439D01*
X63823Y117512D01*
X63940Y117643D01*
X64085Y117804D01*
X64260Y117993D01*
X64464Y118212D01*
X64683Y118445D01*
X64902Y118678D01*
Y118693D01*
X64931Y118708D01*
X65004Y118781D01*
X65121Y118912D01*
X65266Y119072D01*
X65441Y119262D01*
X65645Y119466D01*
X65864Y119699D01*
X66083Y119932D01*
X66097Y119947D01*
X66127Y119976D01*
X66170Y120020D01*
X66229Y120093D01*
X66360Y120239D01*
X66535Y120413D01*
X66549Y120428D01*
X66579Y120457D01*
X66622Y120501D01*
X66681Y120574D01*
X66826Y120749D01*
X66987Y120953D01*
X66972D01*
X66958Y120968D01*
X66870Y120997D01*
X66724Y121040D01*
X66549Y121099D01*
X66331Y121172D01*
X66097Y121259D01*
X65850Y121332D01*
X65587Y121420D01*
X65573D01*
X65558Y121434D01*
X65470Y121463D01*
X65339Y121507D01*
X65150Y121565D01*
X64946Y121638D01*
X64712Y121726D01*
X64450Y121813D01*
X64188Y121901D01*
X64202Y121915D01*
X64246Y121944D01*
X64319Y122003D01*
X64406Y122090D01*
X64523Y122178D01*
X64669Y122294D01*
X64829Y122425D01*
X65004Y122571D01*
X65193Y122717D01*
X65398Y122892D01*
X65835Y123242D01*
X66302Y123621D01*
X66783Y124015D01*
X66797Y124029D01*
X66841Y124058D01*
X66914Y124117D01*
X67001Y124190D01*
X67118Y124292D01*
X67264Y124394D01*
X67424Y124525D01*
X67599Y124671D01*
X67774Y124817D01*
X67978Y124977D01*
X68416Y125327D01*
X68882Y125706D01*
X69363Y126100D01*
X69378Y126114D01*
X69422Y126144D01*
X69495Y126202D01*
X69582Y126289D01*
X69699Y126377D01*
X69830Y126493D01*
X69990Y126625D01*
X70165Y126770D01*
X70355Y126916D01*
X70544Y127091D01*
X70982Y127441D01*
X71448Y127820D01*
X71915Y128214D01*
X71930Y128228D01*
X71973Y128258D01*
X72046Y128316D01*
X72134Y128389D01*
X72250Y128491D01*
X72396Y128593D01*
X72542Y128724D01*
X72717Y128870D01*
X72906Y129016D01*
X73110Y129176D01*
X73533Y129526D01*
X74000Y129905D01*
X74481Y130299D01*
Y130284D01*
D02*
G37*
G36*
X185585Y53949D02*
X185680Y53938D01*
X185763Y53922D01*
X185824Y53910D01*
X185852Y53905D01*
X185868D01*
X185880Y53899D01*
X185885D01*
X188399Y53267D01*
X188521Y53222D01*
X188632Y53167D01*
X188732Y53100D01*
X188815Y53028D01*
X188882Y52961D01*
X188932Y52906D01*
X188949Y52884D01*
X188960Y52873D01*
X188965Y52861D01*
X188971Y52856D01*
X189049Y52734D01*
X189104Y52612D01*
X189143Y52490D01*
X189171Y52384D01*
X189187Y52290D01*
X189193Y52251D01*
Y52218D01*
X189198Y52190D01*
Y51424D01*
X186296Y52151D01*
X186201Y52173D01*
X186124Y52179D01*
X186057D01*
X186002Y52173D01*
X185963Y52162D01*
X185929Y52151D01*
X185913Y52146D01*
X185907Y52140D01*
X185863Y52107D01*
X185835Y52057D01*
X185813Y52007D01*
X185796Y51951D01*
X185785Y51901D01*
X185780Y51863D01*
Y51824D01*
X185785Y51735D01*
X185802Y51657D01*
X185818Y51585D01*
X185841Y51530D01*
X185868Y51480D01*
X185885Y51446D01*
X185902Y51424D01*
X185907Y51419D01*
X185963Y51363D01*
X186024Y51319D01*
X186085Y51280D01*
X186151Y51252D01*
X186207Y51224D01*
X186251Y51208D01*
X186285Y51202D01*
X186290Y51196D01*
X186296D01*
X189198Y50469D01*
Y48832D01*
X186301Y49554D01*
X186207Y49576D01*
X186129Y49587D01*
X186057D01*
X186002Y49582D01*
X185963Y49570D01*
X185929Y49559D01*
X185913Y49554D01*
X185907Y49548D01*
X185863Y49509D01*
X185835Y49465D01*
X185813Y49409D01*
X185796Y49354D01*
X185785Y49304D01*
X185780Y49265D01*
Y49226D01*
X185785Y49143D01*
X185802Y49065D01*
X185818Y48999D01*
X185841Y48943D01*
X185868Y48899D01*
X185885Y48866D01*
X185902Y48843D01*
X185907Y48838D01*
X185963Y48782D01*
X186024Y48738D01*
X186085Y48699D01*
X186151Y48671D01*
X186207Y48649D01*
X186251Y48632D01*
X186285Y48627D01*
X186290Y48621D01*
X186296D01*
X189198Y47889D01*
Y46251D01*
X184803Y47350D01*
Y49004D01*
X185336Y48877D01*
Y48893D01*
X185219Y48993D01*
X185119Y49093D01*
X185036Y49198D01*
X184969Y49293D01*
X184914Y49376D01*
X184892Y49409D01*
X184875Y49437D01*
X184864Y49465D01*
X184853Y49482D01*
X184847Y49493D01*
Y49498D01*
X184792Y49631D01*
X184753Y49770D01*
X184720Y49903D01*
X184703Y50031D01*
X184692Y50086D01*
Y50137D01*
X184686Y50181D01*
X184681Y50220D01*
Y50392D01*
X184686Y50481D01*
X184692Y50558D01*
X184703Y50625D01*
X184708Y50680D01*
X184720Y50719D01*
X184725Y50741D01*
Y50753D01*
X184742Y50825D01*
X184758Y50886D01*
X184781Y50941D01*
X184803Y50991D01*
X184819Y51030D01*
X184836Y51058D01*
X184842Y51074D01*
X184847Y51080D01*
X184880Y51124D01*
X184919Y51163D01*
X184953Y51202D01*
X184986Y51230D01*
X185019Y51252D01*
X185041Y51269D01*
X185058Y51274D01*
X185064Y51280D01*
X185163Y51330D01*
X185213Y51352D01*
X185263Y51369D01*
X185302Y51380D01*
X185336Y51391D01*
X185358Y51396D01*
X185363D01*
X185297Y51452D01*
X185236Y51507D01*
X185180Y51557D01*
X185130Y51607D01*
X185091Y51652D01*
X185064Y51685D01*
X185047Y51707D01*
X185041Y51713D01*
X184992Y51779D01*
X184953Y51846D01*
X184919Y51907D01*
X184886Y51962D01*
X184864Y52012D01*
X184847Y52051D01*
X184842Y52073D01*
X184836Y52084D01*
X184786Y52223D01*
X184764Y52284D01*
X184747Y52345D01*
X184736Y52390D01*
X184725Y52429D01*
X184720Y52456D01*
Y52462D01*
X184697Y52601D01*
X184692Y52667D01*
X184686Y52728D01*
X184681Y52778D01*
Y52956D01*
X184692Y53050D01*
X184697Y53139D01*
X184708Y53217D01*
X184720Y53278D01*
X184731Y53322D01*
X184736Y53350D01*
X184742Y53361D01*
X184764Y53444D01*
X184792Y53516D01*
X184825Y53589D01*
X184853Y53644D01*
X184880Y53689D01*
X184903Y53727D01*
X184919Y53750D01*
X184925Y53755D01*
X184980Y53805D01*
X185041Y53849D01*
X185102Y53883D01*
X185158Y53905D01*
X185213Y53922D01*
X185258Y53938D01*
X185286Y53944D01*
X185291D01*
X185297D01*
X185391Y53955D01*
X185491D01*
X185585Y53949D01*
D02*
G37*
G36*
X189204Y45441D02*
Y43810D01*
X188677Y43937D01*
Y43915D01*
X188788Y43815D01*
X188882Y43715D01*
X188965Y43615D01*
X189032Y43521D01*
X189082Y43438D01*
X189104Y43404D01*
X189121Y43377D01*
X189132Y43349D01*
X189143Y43332D01*
X189148Y43321D01*
Y43316D01*
X189204Y43182D01*
X189243Y43049D01*
X189270Y42916D01*
X189287Y42794D01*
X189298Y42738D01*
Y42688D01*
X189304Y42638D01*
X189309Y42605D01*
Y42422D01*
X189304Y42328D01*
X189293Y42239D01*
X189282Y42167D01*
X189270Y42106D01*
X189265Y42061D01*
X189254Y42033D01*
Y42022D01*
X189226Y41945D01*
X189198Y41873D01*
X189165Y41811D01*
X189132Y41756D01*
X189104Y41717D01*
X189082Y41684D01*
X189065Y41662D01*
X189060Y41656D01*
X189010Y41601D01*
X188954Y41551D01*
X188899Y41517D01*
X188843Y41490D01*
X188788Y41467D01*
X188749Y41456D01*
X188721Y41445D01*
X188710D01*
X188616Y41434D01*
X188521D01*
X188427Y41440D01*
X188333Y41451D01*
X188255Y41467D01*
X188188Y41478D01*
X188166Y41484D01*
X188149D01*
X188138Y41490D01*
X188133D01*
X184803Y42322D01*
Y43959D01*
X187711Y43232D01*
X187805Y43216D01*
X187883Y43205D01*
X187950D01*
X188005Y43216D01*
X188049Y43221D01*
X188077Y43232D01*
X188100Y43238D01*
X188105Y43243D01*
X188149Y43282D01*
X188183Y43327D01*
X188205Y43377D01*
X188222Y43432D01*
X188233Y43477D01*
X188238Y43515D01*
Y43554D01*
X188233Y43643D01*
X188216Y43721D01*
X188194Y43787D01*
X188172Y43843D01*
X188149Y43887D01*
X188127Y43920D01*
X188111Y43943D01*
X188105Y43948D01*
X188049Y44004D01*
X187988Y44048D01*
X187922Y44087D01*
X187855Y44120D01*
X187800Y44142D01*
X187755Y44159D01*
X187722Y44165D01*
X187716Y44170D01*
X187711D01*
X184803Y44903D01*
Y46540D01*
X189204Y45441D01*
D02*
G37*
G36*
Y40474D02*
Y38837D01*
X184803Y39936D01*
Y41578D01*
X189204Y40474D01*
D02*
G37*
G36*
X185791Y39086D02*
Y38398D01*
X187883Y37876D01*
X187944Y37865D01*
X188000D01*
X188044D01*
X188083Y37876D01*
X188111Y37888D01*
X188133Y37899D01*
X188144Y37904D01*
X188149Y37910D01*
X188177Y37949D01*
X188199Y37988D01*
X188210Y38037D01*
X188222Y38087D01*
X188227Y38132D01*
Y38476D01*
X189204Y38232D01*
X189209Y38137D01*
X189215Y38049D01*
X189221Y37971D01*
X189226Y37899D01*
Y37838D01*
X189232Y37788D01*
Y37749D01*
X189237Y37666D01*
Y37505D01*
X189243Y37438D01*
Y37166D01*
X189237Y37044D01*
X189232Y36939D01*
X189221Y36844D01*
X189215Y36772D01*
X189204Y36717D01*
X189198Y36683D01*
Y36672D01*
X189176Y36583D01*
X189154Y36506D01*
X189126Y36439D01*
X189104Y36384D01*
X189082Y36339D01*
X189065Y36311D01*
X189054Y36289D01*
X189049Y36284D01*
X189004Y36234D01*
X188954Y36195D01*
X188899Y36162D01*
X188849Y36139D01*
X188799Y36123D01*
X188760Y36112D01*
X188732Y36106D01*
X188721D01*
X188632Y36101D01*
X188532Y36106D01*
X188438Y36117D01*
X188344Y36134D01*
X188260Y36145D01*
X188199Y36162D01*
X188172Y36167D01*
X188155D01*
X188144Y36173D01*
X188138D01*
X183460Y37355D01*
Y38998D01*
X184803Y38642D01*
Y39331D01*
X185791Y39086D01*
D02*
G37*
G36*
X189204Y35124D02*
Y33481D01*
X183399Y34941D01*
Y36578D01*
X189204Y35124D01*
D02*
G37*
G36*
Y31244D02*
X188194Y31300D01*
Y29890D01*
X189198Y29446D01*
X189204Y27559D01*
X184553Y30051D01*
X184459Y30106D01*
X184375Y30168D01*
X184292Y30229D01*
X184226Y30279D01*
X184170Y30329D01*
X184126Y30362D01*
X184104Y30384D01*
X184092Y30395D01*
X184015Y30473D01*
X183948Y30551D01*
X183887Y30623D01*
X183832Y30689D01*
X183793Y30750D01*
X183759Y30795D01*
X183737Y30823D01*
X183732Y30834D01*
X183676Y30928D01*
X183632Y31017D01*
X183587Y31106D01*
X183554Y31189D01*
X183526Y31255D01*
X183510Y31311D01*
X183504Y31328D01*
X183499Y31344D01*
X183493Y31350D01*
Y31355D01*
X183465Y31461D01*
X183443Y31566D01*
X183426Y31666D01*
X183415Y31755D01*
X183404Y31833D01*
Y31894D01*
X183399Y31916D01*
Y32920D01*
X189204Y33137D01*
Y31244D01*
D02*
G37*
%LPC*%
G36*
X113526Y124452D02*
X113439D01*
X113337Y124438D01*
X113220Y124408D01*
X113074Y124379D01*
X112943Y124321D01*
X112812Y124248D01*
X112695Y124146D01*
X112681Y124131D01*
X112651Y124088D01*
X112608Y124015D01*
X112564Y123913D01*
X112506Y123782D01*
X112462Y123636D01*
X112433Y123446D01*
X112418Y123227D01*
Y123198D01*
Y123125D01*
X112433Y123023D01*
X112447Y122878D01*
X112491Y122732D01*
X112535Y122571D01*
X112608Y122425D01*
X112695Y122294D01*
X112710Y122280D01*
X112753Y122251D01*
X112812Y122192D01*
X112899Y122134D01*
X113016Y122076D01*
X113162Y122017D01*
X113337Y121988D01*
X113526Y121974D01*
X113614D01*
X113716Y121988D01*
X113832Y122017D01*
X113964Y122046D01*
X114095Y122105D01*
X114226Y122192D01*
X114328Y122294D01*
X114343Y122309D01*
X114372Y122353D01*
X114416Y122425D01*
X114474Y122528D01*
X114518Y122659D01*
X114561Y122819D01*
X114591Y123009D01*
X114605Y123227D01*
Y123257D01*
Y123329D01*
X114591Y123432D01*
X114576Y123577D01*
X114532Y123723D01*
X114488Y123869D01*
X114416Y124015D01*
X114328Y124146D01*
X114313Y124161D01*
X114284Y124190D01*
X114211Y124248D01*
X114124Y124306D01*
X114022Y124350D01*
X113876Y124408D01*
X113716Y124438D01*
X113526Y124452D01*
D02*
G37*
G36*
X115713Y118241D02*
X115145D01*
Y117629D01*
X115670D01*
X115757Y117643D01*
X115771D01*
X115801Y117658D01*
X115874Y117716D01*
X115888Y117731D01*
X115903Y117745D01*
X115932Y117818D01*
Y117833D01*
X115946Y117862D01*
Y117949D01*
Y117964D01*
Y117993D01*
X115917Y118081D01*
Y118095D01*
X115903Y118110D01*
X115859Y118183D01*
X115844D01*
X115830Y118197D01*
X115742Y118227D01*
X115728D01*
X115713Y118241D01*
D02*
G37*
G36*
X102606Y118095D02*
X102314Y117206D01*
X102897D01*
X102606Y118095D01*
D02*
G37*
G36*
X98144D02*
X97838Y117206D01*
X98436D01*
X98144Y118095D01*
D02*
G37*
G36*
X90534Y118241D02*
X89950D01*
Y117629D01*
X90475D01*
X90577Y117643D01*
X90592D01*
X90621Y117658D01*
X90650Y117687D01*
X90679Y117716D01*
X90694Y117731D01*
X90709Y117745D01*
X90738Y117818D01*
Y117833D01*
X90752Y117862D01*
X90767Y117949D01*
Y117964D01*
Y117993D01*
X90738Y118081D01*
Y118095D01*
X90723Y118110D01*
X90709Y118154D01*
X90665Y118183D01*
X90636Y118197D01*
X90606Y118212D01*
X90563Y118227D01*
X90548D01*
X90534Y118241D01*
D02*
G37*
G36*
X88434Y118227D02*
X88405Y118212D01*
X88332Y118197D01*
X88303D01*
X88244Y118183D01*
X88215Y118168D01*
X88172Y118124D01*
X88157Y118110D01*
X88128Y118081D01*
X88113Y118052D01*
X88069Y117993D01*
X88055Y117964D01*
X88040Y117906D01*
Y117891D01*
Y117877D01*
Y117818D01*
X88026Y117745D01*
Y117731D01*
Y117673D01*
Y117600D01*
Y117512D01*
Y117483D01*
Y117425D01*
Y117337D01*
Y117250D01*
Y117235D01*
X88040Y117191D01*
Y117133D01*
Y117089D01*
X88055Y117060D01*
X88069Y117002D01*
X88084Y116973D01*
X88128Y116914D01*
X88142Y116900D01*
X88172Y116856D01*
X88186Y116841D01*
X88244Y116827D01*
X88274Y116812D01*
X88332Y116783D01*
X88551D01*
X88565Y116798D01*
X88624Y116827D01*
X88638D01*
X88653Y116841D01*
X88696Y116856D01*
X88711Y116871D01*
X88740Y116914D01*
Y116929D01*
X88755Y116944D01*
X88784Y117002D01*
Y117016D01*
X88798Y117031D01*
X88828Y117089D01*
Y117104D01*
Y117133D01*
Y117177D01*
Y117250D01*
Y117264D01*
X88842Y117323D01*
Y117410D01*
Y117512D01*
Y117541D01*
Y117585D01*
Y117673D01*
X88828Y117745D01*
Y117760D01*
Y117804D01*
Y117862D01*
Y117906D01*
Y117920D01*
X88813Y117935D01*
X88784Y117993D01*
Y118008D01*
X88769Y118022D01*
X88740Y118081D01*
X88726Y118095D01*
X88696Y118124D01*
X88682Y118139D01*
X88624Y118183D01*
X88609Y118197D01*
X88536D01*
X88507Y118212D01*
X88434Y118227D01*
D02*
G37*
G36*
X184664Y31500D02*
X187084Y30378D01*
Y31361D01*
X184664Y31500D01*
D02*
G37*
%LPD*%
D10*
X142421Y63779D02*
G03*
X142421Y63779I-492J0D01*
G01*
X121260Y103543D02*
G03*
X121260Y103543I-492J0D01*
G01*
X96063Y48228D02*
G03*
X96063Y48228I-492J0D01*
G01*
X56595Y49213D02*
G03*
X56595Y49213I-492J0D01*
G01*
X170276Y94682D02*
Y90746D01*
X172243D01*
X172899Y91402D01*
Y92058D01*
X172243Y92714D01*
X170276D01*
X172243D01*
X172899Y93370D01*
Y94026D01*
X172243Y94682D01*
X170276D01*
X176835Y94026D02*
X176179Y94682D01*
X174867D01*
X174211Y94026D01*
Y93370D01*
X174867Y92714D01*
X176179D01*
X176835Y92058D01*
Y91402D01*
X176179Y90746D01*
X174867D01*
X174211Y91402D01*
X178147Y90746D02*
Y94682D01*
X180115D01*
X180771Y94026D01*
Y92714D01*
X180115Y92058D01*
X178147D01*
X182083Y94682D02*
Y90746D01*
X184051D01*
X184707Y91402D01*
Y94026D01*
X184051Y94682D01*
X182083D01*
X170276Y83661D02*
Y87597D01*
X172243D01*
X172899Y86941D01*
Y85629D01*
X172243Y84973D01*
X170276D01*
X171588D02*
X172899Y83661D01*
X176835Y87597D02*
X174211D01*
Y83661D01*
X176835D01*
X174211Y85629D02*
X175523D01*
X178147Y87597D02*
Y84973D01*
X179459Y83661D01*
X180771Y84973D01*
Y87597D01*
X182083Y86941D02*
X182739Y87597D01*
X184051D01*
X184707Y86941D01*
Y84317D01*
X184051Y83661D01*
X182739D01*
X182083Y84317D01*
Y86941D01*
D11*
X62008Y57284D02*
G03*
X62008Y57284I-1181J0D01*
G01*
D12*
X150394Y50394D02*
Y53150D01*
X146457Y50394D02*
X150394D01*
Y59449D02*
Y62205D01*
X146457D02*
X150394D01*
X119685Y98032D02*
Y100394D01*
X111023Y98032D02*
Y100394D01*
X119685D01*
X111023Y98032D02*
X119685D01*
X97047Y51181D02*
X105315D01*
X97047Y57480D02*
X105315D01*
X97047Y51181D02*
Y57480D01*
X105315Y51181D02*
Y57480D01*
X69094Y53347D02*
Y62401D01*
X56890Y53347D02*
Y62401D01*
X69094D01*
X56890Y53347D02*
X69094D01*
X28871Y5905D02*
X27559D01*
Y4921D01*
X28215D01*
X27559D01*
Y3937D01*
X29855Y5249D02*
X30511D01*
X30839Y4921D01*
Y3937D01*
X29855D01*
X29527Y4265D01*
X29855Y4593D01*
X30839D01*
X31495Y5249D02*
Y3937D01*
Y4593D01*
X31823Y4921D01*
X32151Y5249D01*
X32479D01*
X33791D02*
X34447D01*
X34775Y4921D01*
Y3937D01*
X33791D01*
X33463Y4265D01*
X33791Y4593D01*
X34775D01*
X35430Y5249D02*
X36742D01*
X35430Y3937D01*
X36742D01*
X39366Y5905D02*
Y3937D01*
X40350D01*
X40678Y4265D01*
Y4593D01*
X40350Y4921D01*
X39366D01*
X40350D01*
X40678Y5249D01*
Y5577D01*
X40350Y5905D01*
X39366D01*
X41662Y3937D02*
X42318D01*
X42646Y4265D01*
Y4921D01*
X42318Y5249D01*
X41662D01*
X41334Y4921D01*
Y4265D01*
X41662Y3937D01*
X43302Y5249D02*
Y3937D01*
Y4593D01*
X43630Y4921D01*
X43958Y5249D01*
X44286D01*
X45926Y3281D02*
X46254D01*
X46582Y3609D01*
Y5249D01*
X45598D01*
X45270Y4921D01*
Y4265D01*
X45598Y3937D01*
X46582D01*
X47238Y5905D02*
Y3937D01*
Y4921D01*
X47566Y5249D01*
X48222D01*
X48550Y4921D01*
Y3937D01*
X50189D02*
X49534D01*
X49205Y4265D01*
Y4921D01*
X49534Y5249D01*
X50189D01*
X50517Y4921D01*
Y4593D01*
X49205D01*
X51173Y3937D02*
X51829D01*
X51501D01*
Y5249D01*
X51173D01*
D13*
X192913Y140732D02*
Y142732D01*
X0Y140732D02*
Y142732D01*
X186913Y139732D02*
X192913Y141732D01*
X186913Y143732D02*
X192913Y141732D01*
X0D02*
X6000Y139732D01*
X0Y141732D02*
X6000Y143732D01*
X116551Y141732D02*
X192913D01*
X0D02*
X76363D01*
X199787Y133858D02*
X201787D01*
X199787Y0D02*
X201787D01*
X200787Y133858D02*
X202787Y127858D01*
X198787D02*
X200787Y133858D01*
Y0D02*
X202787Y6000D01*
X198787D02*
X200787Y0D01*
Y87023D02*
Y133858D01*
Y0D02*
Y46835D01*
X34314Y104423D02*
X32314D01*
X33314D01*
Y99425D01*
X32314Y98425D01*
X31315D01*
X30315Y99425D01*
X36313Y98425D02*
X38312D01*
X37313D01*
Y104423D01*
X36313Y103424D01*
X152621Y100668D02*
X151621Y101667D01*
X149622D01*
X148622Y100668D01*
Y96669D01*
X149622Y95669D01*
X151621D01*
X152621Y96669D01*
X154620Y95669D02*
X156620D01*
X155620D01*
Y101667D01*
X154620Y100668D01*
X79921Y20079D02*
X85919D01*
Y17080D01*
X84920Y16080D01*
X82920D01*
X81921Y17080D01*
Y20079D01*
Y18079D02*
X79921Y16080D01*
Y14081D02*
Y12081D01*
Y13081D01*
X85919D01*
X84920Y14081D01*
X65748Y19882D02*
X71746D01*
Y16883D01*
X70746Y15883D01*
X68747D01*
X67747Y16883D01*
Y19882D01*
Y17882D02*
X65748Y15883D01*
Y9885D02*
Y13884D01*
X69747Y9885D01*
X70746D01*
X71746Y10885D01*
Y12884D01*
X70746Y13884D01*
X148031Y81496D02*
Y87494D01*
X151031D01*
X152030Y86494D01*
Y84495D01*
X151031Y83495D01*
X148031D01*
X150031D02*
X152030Y81496D01*
X157029D02*
Y87494D01*
X154030Y84495D01*
X158028D01*
X71457Y85433D02*
Y91431D01*
X74456D01*
X75455Y90431D01*
Y88432D01*
X74456Y87432D01*
X71457D01*
X73456D02*
X75455Y85433D01*
X81454Y91431D02*
X77455D01*
Y88432D01*
X79454Y89432D01*
X80454D01*
X81454Y88432D01*
Y86433D01*
X80454Y85433D01*
X78454D01*
X77455Y86433D01*
X148425Y109449D02*
Y115447D01*
X151424D01*
X152424Y114447D01*
Y112448D01*
X151424Y111448D01*
X148425D01*
X150425D02*
X152424Y109449D01*
X158422Y115447D02*
X156423Y114447D01*
X154423Y112448D01*
Y110449D01*
X155423Y109449D01*
X157422D01*
X158422Y110449D01*
Y111448D01*
X157422Y112448D01*
X154423D01*
X71457Y99213D02*
Y105211D01*
X74456D01*
X75455Y104211D01*
Y102212D01*
X74456Y101212D01*
X71457D01*
X73456D02*
X75455Y99213D01*
X77455Y104211D02*
X78454Y105211D01*
X80454D01*
X81454Y104211D01*
Y103211D01*
X80454Y102212D01*
X81454Y101212D01*
Y100212D01*
X80454Y99213D01*
X78454D01*
X77455Y100212D01*
Y101212D01*
X78454Y102212D01*
X77455Y103211D01*
Y104211D01*
X78454Y102212D02*
X80454D01*
X56502Y71653D02*
X61500D01*
X62500Y72653D01*
Y74653D01*
X61500Y75652D01*
X56502D01*
X62500Y77652D02*
Y79651D01*
Y78651D01*
X56502D01*
X57502Y77652D01*
X119778Y90158D02*
X114779D01*
X113779Y89158D01*
Y87159D01*
X114779Y86159D01*
X119778D01*
X113779Y80161D02*
Y84159D01*
X117778Y80161D01*
X118778D01*
X119778Y81160D01*
Y83160D01*
X118778Y84159D01*
X97151Y64567D02*
X102150D01*
X103150Y65567D01*
Y67566D01*
X102150Y68566D01*
X97151D01*
X98151Y70565D02*
X97151Y71565D01*
Y73564D01*
X98151Y74564D01*
X99151D01*
X100151Y73564D01*
Y72564D01*
Y73564D01*
X101150Y74564D01*
X102150D01*
X103150Y73564D01*
Y71565D01*
X102150Y70565D01*
X150849Y65960D02*
Y69959D01*
X149849Y70959D01*
X147850D01*
X146850Y69959D01*
Y65960D01*
X147850Y64961D01*
X149849D01*
X148850Y66960D02*
X150849Y64961D01*
X149849D02*
X150849Y65960D01*
X152848Y64961D02*
X154848D01*
X153848D01*
Y70959D01*
X152848Y69959D01*
X51968Y20079D02*
X57967D01*
Y17080D01*
X56967Y16080D01*
X54967D01*
X53968Y17080D01*
Y20079D01*
Y18079D02*
X51968Y16080D01*
X56967Y14081D02*
X57967Y13081D01*
Y11082D01*
X56967Y10082D01*
X55967D01*
X54967Y11082D01*
Y12081D01*
Y11082D01*
X53968Y10082D01*
X52968D01*
X51968Y11082D01*
Y13081D01*
X52968Y14081D01*
X99606Y19882D02*
X105604D01*
Y16883D01*
X104605Y15883D01*
X102605D01*
X101606Y16883D01*
Y19882D01*
Y17883D02*
X99606Y15883D01*
X105604Y13884D02*
Y9885D01*
X104605D01*
X100606Y13884D01*
X99606D01*
X124471Y46549D02*
X122472D01*
X123471D01*
Y41551D01*
X122472Y40551D01*
X121472D01*
X120472Y41551D01*
X130469Y40551D02*
X126470D01*
X130469Y44550D01*
Y45550D01*
X129470Y46549D01*
X127470D01*
X126470Y45550D01*
D14*
X80362Y138133D02*
Y144131D01*
X77363Y141132D01*
X81361D01*
X83361Y139133D02*
X84360Y138133D01*
X86360D01*
X87359Y139133D01*
Y143132D01*
X86360Y144131D01*
X84360D01*
X83361Y143132D01*
Y142132D01*
X84360Y141132D01*
X87359D01*
X97356Y138133D02*
X95357Y140133D01*
Y142132D01*
X97356Y144131D01*
X100355Y138133D02*
Y142132D01*
X101355D01*
X102355Y141132D01*
Y138133D01*
Y141132D01*
X103354Y142132D01*
X104354Y141132D01*
Y138133D01*
X106353D02*
Y142132D01*
X107353D01*
X108353Y141132D01*
Y138133D01*
Y141132D01*
X109352Y142132D01*
X110352Y141132D01*
Y138133D01*
X112351D02*
X114351Y140133D01*
Y142132D01*
X112351Y144131D01*
X199388Y47835D02*
X198388Y48835D01*
Y50834D01*
X199388Y51834D01*
X200388D01*
X201387Y50834D01*
Y49834D01*
Y50834D01*
X202387Y51834D01*
X203387D01*
X204386Y50834D01*
Y48835D01*
X203387Y47835D01*
X204386Y56832D02*
X198388D01*
X201387Y53833D01*
Y57832D01*
X204386Y67829D02*
X202387Y65829D01*
X200388D01*
X198388Y67829D01*
X204386Y70828D02*
X200388D01*
Y71827D01*
X201387Y72827D01*
X204386D01*
X201387D01*
X200388Y73827D01*
X201387Y74826D01*
X204386D01*
Y76826D02*
X200388D01*
Y77825D01*
X201387Y78825D01*
X204386D01*
X201387D01*
X200388Y79825D01*
X201387Y80825D01*
X204386D01*
Y82824D02*
X202387Y84823D01*
X200388D01*
X198388Y82824D01*
M02*
