G04*
G04 #@! TF.GenerationSoftware,Altium Limited,Altium Designer,18.1.9 (240)*
G04*
G04 Layer_Color=8388736*
%FSLAX25Y25*%
%MOIN*%
G70*
G01*
G75*
%ADD23R,0.05328X0.06312*%
%ADD24R,0.05524X0.06115*%
%ADD25R,0.05524X0.06312*%
%ADD26R,0.06115X0.05524*%
%ADD27R,0.04343X0.03950*%
%ADD28R,0.02178X0.04147*%
%ADD29O,0.01784X0.03753*%
%ADD30O,0.02572X0.06509*%
%ADD31C,0.07099*%
%ADD32C,0.00800*%
%ADD33C,0.03556*%
%ADD34C,0.24422*%
D23*
X135433Y112205D02*
D03*
X142520D02*
D03*
D24*
X65354Y102362D02*
D03*
X58662D02*
D03*
X142323Y84646D02*
D03*
X135630D02*
D03*
X58662Y88583D02*
D03*
X65354D02*
D03*
D25*
X135630Y98425D02*
D03*
X142323D02*
D03*
D26*
X102362Y32087D02*
D03*
Y25394D02*
D03*
X55118Y32087D02*
D03*
Y25394D02*
D03*
X68898Y31890D02*
D03*
Y25197D02*
D03*
X82677Y25394D02*
D03*
Y32087D02*
D03*
D27*
X153347Y56299D02*
D03*
X141929Y52559D02*
D03*
Y60039D02*
D03*
D28*
X117913Y103543D02*
D03*
X115354D02*
D03*
X112795D02*
D03*
Y94882D02*
D03*
X117913D02*
D03*
D29*
X98228Y48228D02*
D03*
X100197D02*
D03*
X102165D02*
D03*
X104134D02*
D03*
X98228Y60433D02*
D03*
X100197D02*
D03*
X102165D02*
D03*
X104134D02*
D03*
D30*
X66831Y66536D02*
D03*
X64272D02*
D03*
X61713D02*
D03*
X59154D02*
D03*
X66831Y49213D02*
D03*
X64272D02*
D03*
X61713D02*
D03*
X59154D02*
D03*
D31*
X35118Y45866D02*
D03*
Y57677D02*
D03*
Y69488D02*
D03*
Y81299D02*
D03*
X131890Y35118D02*
D03*
X143701D02*
D03*
D32*
X18110Y72835D02*
D03*
Y54331D02*
D03*
X137795Y18110D02*
D03*
D33*
X106299Y83465D02*
D03*
Y75984D02*
D03*
Y92126D02*
D03*
X94488Y40157D02*
D03*
X68504Y76378D02*
D03*
X111417Y59842D02*
D03*
X150394Y76378D02*
D03*
X129921Y59842D02*
D03*
X88583D02*
D03*
X50787Y42520D02*
D03*
X88583Y48031D02*
D03*
X77953Y47638D02*
D03*
X125984Y92913D02*
D03*
X46850Y25591D02*
D03*
X61811Y25197D02*
D03*
X125984Y84646D02*
D03*
Y101181D02*
D03*
D34*
X15748Y118110D02*
D03*
X177165D02*
D03*
Y15748D02*
D03*
X15748D02*
D03*
M02*
