G04*
G04 #@! TF.GenerationSoftware,Altium Limited,Altium Designer,19.0.12 (326)*
G04*
G04 Layer_Color=32896*
%FSLAX25Y25*%
%MOIN*%
G70*
G01*
G75*
%ADD11C,0.00394*%
D11*
X137271Y161089D02*
X137599Y161417D01*
X138255D01*
X138583Y161089D01*
Y159777D01*
X138255Y159449D01*
X137599D01*
X137271Y159777D01*
X136287Y159449D02*
X135631D01*
X135303Y159777D01*
Y160433D01*
X135631Y160761D01*
X136287D01*
X136615Y160433D01*
Y159777D01*
X136287Y159449D01*
X134647D02*
Y160761D01*
X133663D01*
X133335Y160433D01*
Y159449D01*
X132679D02*
Y160761D01*
X131695D01*
X131367Y160433D01*
Y159449D01*
X129727D02*
X130383D01*
X130711Y159777D01*
Y160433D01*
X130383Y160761D01*
X129727D01*
X129399Y160433D01*
Y160105D01*
X130711D01*
X127431Y160761D02*
X128415D01*
X128743Y160433D01*
Y159777D01*
X128415Y159449D01*
X127431D01*
X126447Y161089D02*
Y160761D01*
X126776D01*
X126120D01*
X126447D01*
Y159777D01*
X126120Y159449D01*
X124808D02*
X124152D01*
X123824Y159777D01*
Y160433D01*
X124152Y160761D01*
X124808D01*
X125136Y160433D01*
Y159777D01*
X124808Y159449D01*
X123168Y160761D02*
Y159449D01*
Y160105D01*
X122840Y160433D01*
X122512Y160761D01*
X122184D01*
X121200Y159121D02*
X119888D01*
X119232Y159449D02*
X118576D01*
X118904D01*
Y161417D01*
X119232Y161089D01*
X117592D02*
X117264Y161417D01*
X116608D01*
X116280Y161089D01*
Y159777D01*
X116608Y159449D01*
X117264D01*
X117592Y159777D01*
Y161089D01*
X115624Y160761D02*
X114312Y159449D01*
X114968Y160105D01*
X114312Y160761D01*
X115624Y159449D01*
X112345D02*
X113656D01*
X112345Y160761D01*
Y161089D01*
X112672Y161417D01*
X113329D01*
X113656Y161089D01*
M02*
