;PTH Drill file created by EasyEDA 
M48
;Holesize 1 = 0.067 INCH
T01C0.067
;Holesize 2 = 0.035 INCH
T02C0.035
;Holesize 3 = 0.038 INCH
T03C0.038
;Holesize 4 = 0.028 INCH
T04C0.028
;Holesize 5 = 0.051 INCH
T05C0.051
INCH,00.0000
%
G05
G90
T01
X001700Y044900
X001700Y042932
X001700Y040900
X001700Y038900
X001700Y036900
X011900Y025700
X013868Y025700
X022400Y025700
X024368Y025700
X032800Y025700
X034768Y025700
X001600Y029700
X001600Y027732
X001600Y025700
T02
X011600Y040900
X011600Y043900
X014000Y040900
X014000Y043900
X019400Y033100
X019400Y036100
X008900Y033100
X008900Y036100
X030000Y033100
X030000Y036100
X006600Y033100
X006600Y036100
X017200Y033100
X017200Y036100
X027900Y033100
X027900Y036100
X017600Y042200
X017600Y039200
X022500Y042200
X022500Y039200
T03
X007800Y040900
X007800Y039900
X030000Y029900
X030000Y028900
X019400Y029900
X019400Y028900
X008900Y029900
X008900Y028900
T04
X013900Y033800
X013900Y030800
X024400Y033800
X024400Y030800
X034800Y033855
X034800Y030855
X011900Y033800
X011900Y030800
X022400Y033800
X022400Y030800
X032800Y033855
X032800Y030855
T05
X011850Y036100
X013850Y036100
X012850Y036100
X022450Y036100
X024450Y036100
X023450Y036100
X032850Y036055
X034850Y036055
X033850Y036055
X016650Y043900
X018650Y043900
X017650Y043900
X021550Y043900
X023550Y043900
X022550Y043900
M30
