G04 Layer_Color=65535*
%FSLAX25Y25*%
%MOIN*%
G70*
G01*
G75*
%ADD25C,0.00984*%
%ADD26C,0.02362*%
%ADD27C,0.01000*%
%ADD28C,0.00787*%
%ADD29C,0.00394*%
%ADD30C,0.00591*%
%ADD31C,0.00600*%
G36*
X133721Y153233D02*
Y153190D01*
Y153148D01*
Y153105D01*
Y153063D01*
Y153020D01*
Y152978D01*
Y152936D01*
Y152893D01*
Y152851D01*
Y152808D01*
Y152766D01*
Y152723D01*
Y152681D01*
Y152638D01*
Y152596D01*
Y152554D01*
Y152511D01*
Y152469D01*
Y152426D01*
Y152384D01*
Y152341D01*
Y152299D01*
Y152257D01*
Y152214D01*
Y152172D01*
Y152129D01*
Y152087D01*
Y152044D01*
Y152002D01*
Y151959D01*
Y151917D01*
Y151875D01*
Y151832D01*
Y151790D01*
Y151747D01*
Y151705D01*
Y151662D01*
Y151620D01*
Y151577D01*
Y151535D01*
Y151493D01*
Y151450D01*
Y151408D01*
Y151365D01*
Y151323D01*
Y151280D01*
Y151238D01*
Y151196D01*
Y151153D01*
Y151111D01*
Y151068D01*
Y151026D01*
Y150983D01*
Y150941D01*
Y150898D01*
Y150856D01*
Y150814D01*
X133763D01*
Y150771D01*
X135164D01*
Y150729D01*
X133551D01*
Y150771D01*
Y150814D01*
Y150856D01*
Y150898D01*
Y150941D01*
Y150983D01*
Y151026D01*
Y151068D01*
Y151111D01*
Y151153D01*
Y151196D01*
Y151238D01*
Y151280D01*
Y151323D01*
Y151365D01*
Y151408D01*
Y151450D01*
Y151493D01*
Y151535D01*
Y151577D01*
Y151620D01*
Y151662D01*
Y151705D01*
Y151747D01*
Y151790D01*
Y151832D01*
Y151875D01*
Y151917D01*
Y151959D01*
Y152002D01*
Y152044D01*
Y152087D01*
Y152129D01*
Y152172D01*
Y152214D01*
Y152257D01*
Y152299D01*
Y152341D01*
Y152384D01*
Y152426D01*
Y152469D01*
Y152511D01*
Y152554D01*
Y152596D01*
Y152638D01*
Y152681D01*
Y152723D01*
Y152766D01*
Y152808D01*
Y152851D01*
Y152893D01*
Y152936D01*
Y152978D01*
Y153020D01*
Y153063D01*
Y153105D01*
Y153148D01*
Y153190D01*
Y153233D01*
Y153275D01*
X133721D01*
Y153233D01*
D02*
G37*
G36*
X136862D02*
Y153190D01*
Y153148D01*
Y153105D01*
X136946D01*
Y153063D01*
Y153020D01*
Y152978D01*
Y152936D01*
Y152893D01*
Y152851D01*
X137031D01*
Y152808D01*
Y152766D01*
Y152723D01*
Y152681D01*
Y152638D01*
Y152596D01*
Y152554D01*
X137116D01*
Y152511D01*
Y152469D01*
Y152426D01*
Y152384D01*
Y152341D01*
Y152299D01*
X137201D01*
Y152257D01*
Y152214D01*
Y152172D01*
Y152129D01*
Y152087D01*
Y152044D01*
X137286D01*
Y152002D01*
Y151959D01*
Y151917D01*
Y151875D01*
X137371D01*
Y151832D01*
X137413D01*
Y151790D01*
X137371D01*
Y151747D01*
Y151705D01*
Y151662D01*
Y151620D01*
Y151577D01*
X137498D01*
Y151535D01*
Y151493D01*
X137456D01*
Y151450D01*
Y151408D01*
Y151365D01*
Y151323D01*
X137583D01*
Y151280D01*
Y151238D01*
X137540D01*
Y151196D01*
Y151153D01*
X137668D01*
Y151111D01*
Y151068D01*
Y151026D01*
Y150983D01*
Y150941D01*
Y150898D01*
Y150856D01*
X137753D01*
Y150814D01*
Y150771D01*
Y150729D01*
X137583D01*
Y150771D01*
Y150814D01*
Y150856D01*
Y150898D01*
X137498D01*
Y150941D01*
Y150983D01*
Y151026D01*
Y151068D01*
Y151111D01*
Y151153D01*
X137413D01*
Y151196D01*
X137371D01*
Y151238D01*
X137286D01*
Y151280D01*
Y151323D01*
X136055D01*
Y151280D01*
Y151238D01*
Y151196D01*
Y151153D01*
X135970D01*
Y151111D01*
Y151068D01*
Y151026D01*
Y150983D01*
Y150941D01*
Y150898D01*
X135885D01*
Y150856D01*
X135843D01*
Y150814D01*
X135885D01*
Y150771D01*
Y150729D01*
X135673D01*
Y150771D01*
X135716D01*
Y150814D01*
Y150856D01*
X135801D01*
Y150898D01*
Y150941D01*
Y150983D01*
Y151026D01*
Y151068D01*
Y151111D01*
Y151153D01*
X135885D01*
Y151196D01*
Y151238D01*
Y151280D01*
Y151323D01*
X135970D01*
Y151365D01*
Y151408D01*
Y151450D01*
Y151493D01*
Y151535D01*
Y151577D01*
X136055D01*
Y151620D01*
Y151662D01*
Y151705D01*
Y151747D01*
Y151790D01*
Y151832D01*
Y151875D01*
X136140D01*
Y151917D01*
Y151959D01*
Y152002D01*
Y152044D01*
Y152087D01*
Y152129D01*
X136225D01*
Y152172D01*
Y152214D01*
Y152257D01*
Y152299D01*
X136310D01*
Y152341D01*
Y152384D01*
Y152426D01*
Y152469D01*
Y152511D01*
Y152554D01*
X136395D01*
Y152596D01*
X136437D01*
Y152638D01*
Y152681D01*
Y152723D01*
Y152766D01*
X136395D01*
Y152808D01*
Y152851D01*
X136522D01*
Y152893D01*
Y152936D01*
Y152978D01*
X136479D01*
Y153020D01*
X136607D01*
Y153063D01*
Y153105D01*
Y153148D01*
Y153190D01*
Y153233D01*
Y153275D01*
X136862D01*
Y153233D01*
D02*
G37*
G36*
X143100D02*
Y153190D01*
Y153148D01*
Y153105D01*
Y153063D01*
Y153020D01*
X143185D01*
Y152978D01*
Y152936D01*
Y152893D01*
Y152851D01*
Y152808D01*
Y152766D01*
X143270D01*
Y152723D01*
Y152681D01*
Y152638D01*
Y152596D01*
Y152554D01*
X143397D01*
Y152511D01*
X143355D01*
Y152469D01*
Y152426D01*
Y152384D01*
Y152341D01*
Y152299D01*
X143482D01*
Y152257D01*
Y152214D01*
X143440D01*
Y152172D01*
Y152129D01*
Y152087D01*
Y152044D01*
X143567D01*
Y152002D01*
Y151959D01*
Y151917D01*
Y151875D01*
Y151832D01*
Y151790D01*
Y151747D01*
X143652D01*
Y151705D01*
Y151662D01*
Y151620D01*
Y151577D01*
X143737D01*
Y151535D01*
Y151493D01*
Y151450D01*
Y151408D01*
Y151365D01*
Y151323D01*
X143822D01*
Y151280D01*
Y151238D01*
Y151196D01*
Y151153D01*
Y151111D01*
Y151068D01*
X143906D01*
Y151026D01*
Y150983D01*
Y150941D01*
Y150898D01*
Y150856D01*
Y150814D01*
X143949D01*
Y150771D01*
X144034D01*
Y150729D01*
X143822D01*
Y150771D01*
Y150814D01*
Y150856D01*
Y150898D01*
X143737D01*
Y150941D01*
Y150983D01*
Y151026D01*
Y151068D01*
Y151111D01*
Y151153D01*
X143652D01*
Y151196D01*
X143609D01*
Y151238D01*
X143567D01*
Y151280D01*
X143525D01*
Y151323D01*
X142294D01*
Y151280D01*
Y151238D01*
Y151196D01*
Y151153D01*
X142209D01*
Y151111D01*
Y151068D01*
Y151026D01*
Y150983D01*
X142124D01*
Y150941D01*
Y150898D01*
Y150856D01*
Y150814D01*
Y150771D01*
Y150729D01*
X141954D01*
Y150771D01*
Y150814D01*
Y150856D01*
X142039D01*
Y150898D01*
Y150941D01*
Y150983D01*
Y151026D01*
Y151068D01*
Y151111D01*
Y151153D01*
X142124D01*
Y151196D01*
Y151238D01*
Y151280D01*
Y151323D01*
Y151365D01*
Y151408D01*
X142209D01*
Y151450D01*
Y151493D01*
Y151535D01*
Y151577D01*
X142294D01*
Y151620D01*
X142336D01*
Y151662D01*
Y151705D01*
Y151747D01*
X142294D01*
Y151790D01*
Y151832D01*
X142336D01*
Y151875D01*
X142421D01*
Y151917D01*
Y151959D01*
Y152002D01*
Y152044D01*
X142379D01*
Y152087D01*
Y152129D01*
X142506D01*
Y152172D01*
Y152214D01*
Y152257D01*
Y152299D01*
Y152341D01*
X142464D01*
Y152384D01*
X142591D01*
Y152426D01*
Y152469D01*
Y152511D01*
Y152554D01*
X142676D01*
Y152596D01*
Y152638D01*
Y152681D01*
Y152723D01*
Y152766D01*
Y152808D01*
Y152851D01*
X142761D01*
Y152893D01*
Y152936D01*
Y152978D01*
Y153020D01*
Y153063D01*
Y153105D01*
X142845D01*
Y153148D01*
Y153190D01*
Y153233D01*
Y153275D01*
X143100D01*
Y153233D01*
D02*
G37*
G36*
X114538D02*
X113180D01*
Y153190D01*
X113095D01*
Y153148D01*
Y153105D01*
Y153063D01*
Y153020D01*
Y152978D01*
Y152936D01*
Y152893D01*
Y152851D01*
Y152808D01*
Y152766D01*
Y152723D01*
Y152681D01*
Y152638D01*
Y152596D01*
Y152554D01*
Y152511D01*
Y152469D01*
Y152426D01*
Y152384D01*
Y152341D01*
Y152299D01*
Y152257D01*
Y152214D01*
Y152172D01*
Y152129D01*
Y152087D01*
Y152044D01*
X114368D01*
Y152002D01*
Y151959D01*
X114283D01*
Y151917D01*
X114241D01*
Y151875D01*
X113095D01*
Y151832D01*
Y151790D01*
Y151747D01*
Y151705D01*
Y151662D01*
Y151620D01*
Y151577D01*
Y151535D01*
Y151493D01*
Y151450D01*
Y151408D01*
Y151365D01*
Y151323D01*
Y151280D01*
Y151238D01*
Y151196D01*
Y151153D01*
Y151111D01*
Y151068D01*
Y151026D01*
Y150983D01*
Y150941D01*
Y150898D01*
Y150856D01*
Y150814D01*
Y150771D01*
Y150729D01*
X112925D01*
Y150771D01*
Y150814D01*
Y150856D01*
Y150898D01*
Y150941D01*
Y150983D01*
Y151026D01*
Y151068D01*
Y151111D01*
Y151153D01*
Y151196D01*
Y151238D01*
Y151280D01*
Y151323D01*
Y151365D01*
Y151408D01*
Y151450D01*
Y151493D01*
Y151535D01*
Y151577D01*
Y151620D01*
Y151662D01*
Y151705D01*
Y151747D01*
Y151790D01*
Y151832D01*
Y151875D01*
Y151917D01*
Y151959D01*
Y152002D01*
Y152044D01*
Y152087D01*
Y152129D01*
Y152172D01*
Y152214D01*
Y152257D01*
Y152299D01*
Y152341D01*
Y152384D01*
Y152426D01*
Y152469D01*
Y152511D01*
Y152554D01*
Y152596D01*
Y152638D01*
Y152681D01*
Y152723D01*
Y152766D01*
Y152808D01*
Y152851D01*
Y152893D01*
Y152936D01*
Y152978D01*
Y153020D01*
Y153063D01*
Y153105D01*
Y153148D01*
Y153190D01*
Y153233D01*
Y153275D01*
X114538D01*
Y153233D01*
D02*
G37*
G36*
X121074D02*
X119716D01*
Y153190D01*
X119588D01*
Y153148D01*
Y153105D01*
Y153063D01*
Y153020D01*
Y152978D01*
Y152936D01*
Y152893D01*
Y152851D01*
Y152808D01*
Y152766D01*
Y152723D01*
Y152681D01*
Y152638D01*
Y152596D01*
Y152554D01*
Y152511D01*
Y152469D01*
Y152426D01*
Y152384D01*
Y152341D01*
Y152299D01*
Y152257D01*
Y152214D01*
Y152172D01*
Y152129D01*
Y152087D01*
Y152044D01*
X120777D01*
Y152002D01*
Y151959D01*
Y151917D01*
Y151875D01*
X119588D01*
Y151832D01*
Y151790D01*
Y151747D01*
Y151705D01*
Y151662D01*
Y151620D01*
Y151577D01*
Y151535D01*
Y151493D01*
Y151450D01*
Y151408D01*
Y151365D01*
Y151323D01*
Y151280D01*
Y151238D01*
Y151196D01*
Y151153D01*
Y151111D01*
Y151068D01*
Y151026D01*
Y150983D01*
Y150941D01*
Y150898D01*
Y150856D01*
Y150814D01*
Y150771D01*
X119631D01*
Y150729D01*
X119419D01*
Y150771D01*
X119461D01*
Y150814D01*
Y150856D01*
Y150898D01*
Y150941D01*
Y150983D01*
Y151026D01*
Y151068D01*
Y151111D01*
Y151153D01*
Y151196D01*
Y151238D01*
Y151280D01*
Y151323D01*
Y151365D01*
Y151408D01*
Y151450D01*
Y151493D01*
Y151535D01*
Y151577D01*
Y151620D01*
Y151662D01*
Y151705D01*
Y151747D01*
Y151790D01*
Y151832D01*
Y151875D01*
Y151917D01*
Y151959D01*
Y152002D01*
Y152044D01*
Y152087D01*
Y152129D01*
Y152172D01*
Y152214D01*
Y152257D01*
Y152299D01*
Y152341D01*
Y152384D01*
Y152426D01*
Y152469D01*
Y152511D01*
Y152554D01*
Y152596D01*
Y152638D01*
Y152681D01*
Y152723D01*
Y152766D01*
Y152808D01*
Y152851D01*
Y152893D01*
Y152936D01*
Y152978D01*
Y153020D01*
Y153063D01*
Y153105D01*
Y153148D01*
Y153190D01*
Y153233D01*
X119419D01*
Y153275D01*
X121074D01*
Y153233D01*
D02*
G37*
G36*
X125870D02*
X125912D01*
Y153190D01*
X126039D01*
Y153148D01*
X126082D01*
Y153105D01*
X126124D01*
Y153063D01*
X126167D01*
Y153020D01*
X126209D01*
Y152978D01*
Y152936D01*
Y152893D01*
Y152851D01*
X126294D01*
Y152808D01*
Y152766D01*
Y152723D01*
Y152681D01*
Y152638D01*
Y152596D01*
Y152554D01*
Y152511D01*
Y152469D01*
X126336D01*
Y152426D01*
X126209D01*
Y152384D01*
Y152341D01*
Y152299D01*
Y152257D01*
Y152214D01*
X126167D01*
Y152172D01*
X126124D01*
Y152129D01*
X126082D01*
Y152087D01*
X126039D01*
Y152044D01*
X125870D01*
Y152002D01*
Y151959D01*
X125785D01*
Y151917D01*
Y151875D01*
Y151832D01*
Y151790D01*
Y151747D01*
Y151705D01*
Y151662D01*
Y151620D01*
Y151577D01*
X125870D01*
Y151535D01*
Y151493D01*
Y151450D01*
Y151408D01*
X125954D01*
Y151365D01*
Y151323D01*
Y151280D01*
Y151238D01*
X126039D01*
Y151196D01*
Y151153D01*
Y151111D01*
Y151068D01*
X126124D01*
Y151026D01*
Y150983D01*
Y150941D01*
Y150898D01*
Y150856D01*
X126209D01*
Y150814D01*
Y150771D01*
X126251D01*
Y150729D01*
X126039D01*
Y150771D01*
Y150814D01*
Y150856D01*
Y150898D01*
X125954D01*
Y150941D01*
Y150983D01*
Y151026D01*
Y151068D01*
X125870D01*
Y151111D01*
Y151153D01*
Y151196D01*
Y151238D01*
X125785D01*
Y151280D01*
Y151323D01*
Y151365D01*
Y151408D01*
X125742D01*
Y151450D01*
X125700D01*
Y151493D01*
Y151535D01*
Y151577D01*
Y151620D01*
X125615D01*
Y151662D01*
Y151705D01*
Y151747D01*
Y151790D01*
X125487D01*
Y151832D01*
Y151875D01*
X125403D01*
Y151917D01*
Y151959D01*
X124809D01*
Y151917D01*
Y151875D01*
X124681D01*
Y151832D01*
Y151790D01*
Y151747D01*
Y151705D01*
Y151662D01*
Y151620D01*
Y151577D01*
Y151535D01*
Y151493D01*
Y151450D01*
Y151408D01*
Y151365D01*
Y151323D01*
Y151280D01*
Y151238D01*
Y151196D01*
Y151153D01*
Y151111D01*
Y151068D01*
Y151026D01*
Y150983D01*
Y150941D01*
Y150898D01*
Y150856D01*
Y150814D01*
Y150771D01*
X124724D01*
Y150729D01*
X124511D01*
Y150771D01*
X124554D01*
Y150814D01*
Y150856D01*
Y150898D01*
Y150941D01*
Y150983D01*
Y151026D01*
Y151068D01*
Y151111D01*
Y151153D01*
Y151196D01*
Y151238D01*
Y151280D01*
Y151323D01*
Y151365D01*
Y151408D01*
Y151450D01*
Y151493D01*
Y151535D01*
Y151577D01*
Y151620D01*
Y151662D01*
Y151705D01*
Y151747D01*
Y151790D01*
Y151832D01*
Y151875D01*
Y151917D01*
Y151959D01*
Y152002D01*
Y152044D01*
Y152087D01*
Y152129D01*
Y152172D01*
Y152214D01*
Y152257D01*
Y152299D01*
Y152341D01*
Y152384D01*
Y152426D01*
Y152469D01*
Y152511D01*
Y152554D01*
Y152596D01*
Y152638D01*
Y152681D01*
Y152723D01*
Y152766D01*
Y152808D01*
Y152851D01*
Y152893D01*
Y152936D01*
Y152978D01*
Y153020D01*
Y153063D01*
Y153105D01*
Y153148D01*
Y153190D01*
Y153233D01*
X124511D01*
Y153275D01*
X125870D01*
Y153233D01*
D02*
G37*
G36*
X146411D02*
X145180D01*
Y153190D01*
X145095D01*
Y153148D01*
X145010D01*
Y153105D01*
X144967D01*
Y153063D01*
Y153020D01*
Y152978D01*
Y152936D01*
Y152893D01*
Y152851D01*
Y152808D01*
Y152766D01*
Y152723D01*
Y152681D01*
Y152638D01*
Y152596D01*
Y152554D01*
Y152511D01*
Y152469D01*
Y152426D01*
Y152384D01*
Y152341D01*
Y152299D01*
Y152257D01*
Y152214D01*
Y152172D01*
Y152129D01*
X146241D01*
Y152087D01*
Y152044D01*
Y152002D01*
Y151959D01*
X145095D01*
Y151917D01*
Y151875D01*
X144967D01*
Y151832D01*
Y151790D01*
Y151747D01*
Y151705D01*
Y151662D01*
Y151620D01*
Y151577D01*
Y151535D01*
Y151493D01*
Y151450D01*
Y151408D01*
Y151365D01*
Y151323D01*
Y151280D01*
Y151238D01*
Y151196D01*
Y151153D01*
Y151111D01*
Y151068D01*
Y151026D01*
Y150983D01*
Y150941D01*
Y150898D01*
Y150856D01*
X145095D01*
Y150814D01*
X145137D01*
Y150771D01*
X146411D01*
Y150729D01*
X144798D01*
Y150771D01*
Y150814D01*
Y150856D01*
Y150898D01*
Y150941D01*
Y150983D01*
Y151026D01*
Y151068D01*
Y151111D01*
Y151153D01*
Y151196D01*
Y151238D01*
Y151280D01*
Y151323D01*
Y151365D01*
Y151408D01*
Y151450D01*
Y151493D01*
Y151535D01*
Y151577D01*
Y151620D01*
Y151662D01*
Y151705D01*
Y151747D01*
Y151790D01*
Y151832D01*
Y151875D01*
Y151917D01*
Y151959D01*
Y152002D01*
Y152044D01*
Y152087D01*
Y152129D01*
Y152172D01*
Y152214D01*
Y152257D01*
Y152299D01*
Y152341D01*
Y152384D01*
Y152426D01*
Y152469D01*
Y152511D01*
Y152554D01*
Y152596D01*
Y152638D01*
Y152681D01*
Y152723D01*
Y152766D01*
Y152808D01*
Y152851D01*
Y152893D01*
Y152936D01*
Y152978D01*
Y153020D01*
Y153063D01*
Y153105D01*
Y153148D01*
Y153190D01*
Y153233D01*
Y153275D01*
X146411D01*
Y153233D01*
D02*
G37*
G36*
X160204D02*
X159440D01*
Y153190D01*
X159355D01*
Y153148D01*
Y153105D01*
Y153063D01*
Y153020D01*
Y152978D01*
Y152936D01*
Y152893D01*
Y152851D01*
Y152808D01*
Y152766D01*
Y152723D01*
Y152681D01*
Y152638D01*
Y152596D01*
Y152554D01*
Y152511D01*
Y152469D01*
Y152426D01*
Y152384D01*
Y152341D01*
Y152299D01*
Y152257D01*
Y152214D01*
Y152172D01*
Y152129D01*
Y152087D01*
Y152044D01*
Y152002D01*
Y151959D01*
Y151917D01*
Y151875D01*
Y151832D01*
Y151790D01*
Y151747D01*
Y151705D01*
Y151662D01*
Y151620D01*
Y151577D01*
Y151535D01*
Y151493D01*
Y151450D01*
Y151408D01*
Y151365D01*
Y151323D01*
Y151280D01*
Y151238D01*
Y151196D01*
Y151153D01*
Y151111D01*
Y151068D01*
Y151026D01*
Y150983D01*
Y150941D01*
Y150898D01*
Y150856D01*
Y150814D01*
Y150771D01*
Y150729D01*
X159185D01*
Y150771D01*
Y150814D01*
Y150856D01*
Y150898D01*
Y150941D01*
Y150983D01*
Y151026D01*
Y151068D01*
Y151111D01*
Y151153D01*
Y151196D01*
Y151238D01*
Y151280D01*
Y151323D01*
Y151365D01*
Y151408D01*
Y151450D01*
Y151493D01*
Y151535D01*
Y151577D01*
Y151620D01*
Y151662D01*
Y151705D01*
Y151747D01*
Y151790D01*
Y151832D01*
Y151875D01*
Y151917D01*
Y151959D01*
Y152002D01*
Y152044D01*
Y152087D01*
Y152129D01*
Y152172D01*
Y152214D01*
Y152257D01*
Y152299D01*
Y152341D01*
Y152384D01*
Y152426D01*
Y152469D01*
Y152511D01*
Y152554D01*
Y152596D01*
Y152638D01*
Y152681D01*
Y152723D01*
Y152766D01*
Y152808D01*
Y152851D01*
Y152893D01*
Y152936D01*
Y152978D01*
Y153020D01*
Y153063D01*
Y153105D01*
Y153148D01*
Y153190D01*
X159100D01*
Y153233D01*
X158379D01*
Y153275D01*
X160204D01*
Y153233D01*
D02*
G37*
G36*
X162410D02*
Y153190D01*
X162580D01*
Y153148D01*
X162623D01*
Y153105D01*
X162665D01*
Y153063D01*
Y153020D01*
Y152978D01*
Y152936D01*
X162750D01*
Y152893D01*
Y152851D01*
Y152808D01*
Y152766D01*
Y152723D01*
Y152681D01*
Y152638D01*
Y152596D01*
Y152554D01*
Y152511D01*
Y152469D01*
Y152426D01*
Y152384D01*
Y152341D01*
X162665D01*
Y152299D01*
Y152257D01*
Y152214D01*
Y152172D01*
Y152129D01*
X162580D01*
Y152087D01*
Y152044D01*
X162410D01*
Y152002D01*
Y151959D01*
X162198D01*
Y151917D01*
Y151875D01*
Y151832D01*
Y151790D01*
Y151747D01*
Y151705D01*
X162241D01*
Y151662D01*
X162326D01*
Y151620D01*
Y151577D01*
Y151535D01*
Y151493D01*
X162410D01*
Y151450D01*
Y151408D01*
Y151365D01*
Y151323D01*
X162495D01*
Y151280D01*
Y151238D01*
Y151196D01*
Y151153D01*
X162580D01*
Y151111D01*
Y151068D01*
Y151026D01*
Y150983D01*
X162623D01*
Y150941D01*
X162665D01*
Y150898D01*
Y150856D01*
Y150814D01*
X162707D01*
Y150771D01*
X162792D01*
Y150729D01*
X162580D01*
Y150771D01*
Y150814D01*
X162495D01*
Y150856D01*
Y150898D01*
Y150941D01*
Y150983D01*
X162410D01*
Y151026D01*
Y151068D01*
Y151111D01*
Y151153D01*
X162326D01*
Y151196D01*
Y151238D01*
Y151280D01*
Y151323D01*
X162241D01*
Y151365D01*
Y151408D01*
Y151450D01*
Y151493D01*
Y151535D01*
X162156D01*
Y151577D01*
Y151620D01*
Y151662D01*
Y151705D01*
X162028D01*
Y151747D01*
X162071D01*
Y151790D01*
Y151832D01*
Y151875D01*
X161944D01*
Y151917D01*
Y151959D01*
X161265D01*
Y151917D01*
Y151875D01*
X161137D01*
Y151832D01*
Y151790D01*
Y151747D01*
Y151705D01*
Y151662D01*
X161265D01*
Y151620D01*
X161222D01*
Y151577D01*
Y151535D01*
Y151493D01*
Y151450D01*
Y151408D01*
Y151365D01*
Y151323D01*
Y151280D01*
Y151238D01*
Y151196D01*
Y151153D01*
Y151111D01*
Y151068D01*
Y151026D01*
Y150983D01*
Y150941D01*
Y150898D01*
Y150856D01*
Y150814D01*
Y150771D01*
X161265D01*
Y150729D01*
X160968D01*
Y150771D01*
Y150814D01*
Y150856D01*
Y150898D01*
Y150941D01*
Y150983D01*
Y151026D01*
Y151068D01*
Y151111D01*
Y151153D01*
Y151196D01*
Y151238D01*
Y151280D01*
Y151323D01*
Y151365D01*
Y151408D01*
Y151450D01*
Y151493D01*
Y151535D01*
Y151577D01*
Y151620D01*
Y151662D01*
Y151705D01*
Y151747D01*
Y151790D01*
Y151832D01*
Y151875D01*
Y151917D01*
Y151959D01*
Y152002D01*
Y152044D01*
Y152087D01*
Y152129D01*
Y152172D01*
Y152214D01*
Y152257D01*
Y152299D01*
Y152341D01*
Y152384D01*
Y152426D01*
Y152469D01*
Y152511D01*
Y152554D01*
Y152596D01*
Y152638D01*
Y152681D01*
Y152723D01*
Y152766D01*
Y152808D01*
Y152851D01*
Y152893D01*
Y152936D01*
Y152978D01*
Y153020D01*
Y153063D01*
Y153105D01*
Y153148D01*
Y153190D01*
Y153233D01*
Y153275D01*
X162410D01*
Y153233D01*
D02*
G37*
G36*
X163938D02*
Y153190D01*
X163896D01*
Y153148D01*
Y153105D01*
Y153063D01*
Y153020D01*
Y152978D01*
Y152936D01*
Y152893D01*
Y152851D01*
Y152808D01*
Y152766D01*
Y152723D01*
Y152681D01*
Y152638D01*
Y152596D01*
Y152554D01*
Y152511D01*
Y152469D01*
Y152426D01*
Y152384D01*
Y152341D01*
Y152299D01*
Y152257D01*
Y152214D01*
Y152172D01*
Y152129D01*
Y152087D01*
Y152044D01*
Y152002D01*
Y151959D01*
Y151917D01*
Y151875D01*
Y151832D01*
Y151790D01*
Y151747D01*
Y151705D01*
Y151662D01*
Y151620D01*
Y151577D01*
Y151535D01*
Y151493D01*
Y151450D01*
Y151408D01*
Y151365D01*
Y151323D01*
Y151280D01*
Y151238D01*
Y151196D01*
Y151153D01*
Y151111D01*
Y151068D01*
Y151026D01*
Y150983D01*
Y150941D01*
Y150898D01*
Y150856D01*
Y150814D01*
X163938D01*
Y150771D01*
Y150729D01*
X163726D01*
Y150771D01*
X163768D01*
Y150814D01*
Y150856D01*
Y150898D01*
Y150941D01*
Y150983D01*
Y151026D01*
Y151068D01*
Y151111D01*
Y151153D01*
Y151196D01*
Y151238D01*
Y151280D01*
Y151323D01*
Y151365D01*
Y151408D01*
Y151450D01*
Y151493D01*
Y151535D01*
Y151577D01*
Y151620D01*
Y151662D01*
Y151705D01*
Y151747D01*
Y151790D01*
Y151832D01*
Y151875D01*
Y151917D01*
Y151959D01*
Y152002D01*
Y152044D01*
Y152087D01*
Y152129D01*
Y152172D01*
Y152214D01*
Y152257D01*
Y152299D01*
Y152341D01*
Y152384D01*
Y152426D01*
Y152469D01*
Y152511D01*
Y152554D01*
Y152596D01*
Y152638D01*
Y152681D01*
Y152723D01*
Y152766D01*
Y152808D01*
Y152851D01*
Y152893D01*
Y152936D01*
Y152978D01*
Y153020D01*
Y153063D01*
Y153105D01*
Y153148D01*
Y153190D01*
Y153233D01*
X163726D01*
Y153275D01*
X163938D01*
Y153233D01*
D02*
G37*
G36*
X150188D02*
X148830D01*
Y153190D01*
X148745D01*
Y153148D01*
Y153105D01*
Y153063D01*
Y153020D01*
Y152978D01*
Y152936D01*
Y152893D01*
Y152851D01*
Y152808D01*
Y152766D01*
Y152723D01*
Y152681D01*
Y152638D01*
Y152596D01*
Y152554D01*
Y152511D01*
Y152469D01*
Y152426D01*
Y152384D01*
Y152341D01*
Y152299D01*
Y152257D01*
Y152214D01*
Y152172D01*
Y152129D01*
X149891D01*
Y152087D01*
X149933D01*
Y152044D01*
Y152002D01*
X149891D01*
Y151959D01*
X148745D01*
Y151917D01*
Y151875D01*
Y151832D01*
Y151790D01*
Y151747D01*
Y151705D01*
Y151662D01*
Y151620D01*
Y151577D01*
Y151535D01*
Y151493D01*
Y151450D01*
Y151408D01*
Y151365D01*
Y151323D01*
Y151280D01*
Y151238D01*
Y151196D01*
Y151153D01*
Y151111D01*
Y151068D01*
Y151026D01*
Y150983D01*
Y150941D01*
Y150898D01*
Y150856D01*
Y150814D01*
X148787D01*
Y150771D01*
X150188D01*
Y150729D01*
X148575D01*
Y150771D01*
Y150814D01*
Y150856D01*
Y150898D01*
Y150941D01*
Y150983D01*
Y151026D01*
Y151068D01*
Y151111D01*
Y151153D01*
Y151196D01*
Y151238D01*
Y151280D01*
Y151323D01*
Y151365D01*
Y151408D01*
Y151450D01*
Y151493D01*
Y151535D01*
Y151577D01*
Y151620D01*
Y151662D01*
Y151705D01*
Y151747D01*
Y151790D01*
Y151832D01*
Y151875D01*
Y151917D01*
Y151959D01*
Y152002D01*
Y152044D01*
Y152087D01*
Y152129D01*
Y152172D01*
Y152214D01*
Y152257D01*
Y152299D01*
Y152341D01*
Y152384D01*
Y152426D01*
Y152469D01*
Y152511D01*
Y152554D01*
Y152596D01*
Y152638D01*
Y152681D01*
Y152723D01*
Y152766D01*
Y152808D01*
Y152851D01*
Y152893D01*
Y152936D01*
Y152978D01*
Y153020D01*
Y153063D01*
Y153105D01*
Y153148D01*
Y153190D01*
Y153233D01*
Y153275D01*
X150188D01*
Y153233D01*
D02*
G37*
G36*
X151249D02*
Y153190D01*
Y153148D01*
Y153105D01*
Y153063D01*
Y153020D01*
Y152978D01*
Y152936D01*
Y152893D01*
Y152851D01*
Y152808D01*
Y152766D01*
Y152723D01*
Y152681D01*
Y152638D01*
Y152596D01*
Y152554D01*
Y152511D01*
Y152469D01*
Y152426D01*
Y152384D01*
Y152341D01*
Y152299D01*
Y152257D01*
Y152214D01*
Y152172D01*
Y152129D01*
Y152087D01*
Y152044D01*
Y152002D01*
Y151959D01*
Y151917D01*
Y151875D01*
Y151832D01*
Y151790D01*
Y151747D01*
Y151705D01*
Y151662D01*
Y151620D01*
Y151577D01*
Y151535D01*
Y151493D01*
Y151450D01*
Y151408D01*
Y151365D01*
Y151323D01*
Y151280D01*
Y151238D01*
Y151196D01*
Y151153D01*
Y151111D01*
Y151068D01*
Y151026D01*
Y150983D01*
Y150941D01*
Y150898D01*
Y150856D01*
X151333D01*
Y150814D01*
X151376D01*
Y150771D01*
X152692D01*
Y150729D01*
X151079D01*
Y150771D01*
Y150814D01*
Y150856D01*
Y150898D01*
Y150941D01*
Y150983D01*
Y151026D01*
Y151068D01*
Y151111D01*
Y151153D01*
Y151196D01*
Y151238D01*
Y151280D01*
Y151323D01*
Y151365D01*
Y151408D01*
Y151450D01*
Y151493D01*
Y151535D01*
Y151577D01*
Y151620D01*
Y151662D01*
Y151705D01*
Y151747D01*
Y151790D01*
Y151832D01*
Y151875D01*
Y151917D01*
Y151959D01*
Y152002D01*
Y152044D01*
Y152087D01*
Y152129D01*
Y152172D01*
Y152214D01*
Y152257D01*
Y152299D01*
Y152341D01*
Y152384D01*
Y152426D01*
Y152469D01*
Y152511D01*
Y152554D01*
Y152596D01*
Y152638D01*
Y152681D01*
Y152723D01*
Y152766D01*
Y152808D01*
Y152851D01*
Y152893D01*
Y152936D01*
Y152978D01*
Y153020D01*
Y153063D01*
Y153105D01*
Y153148D01*
Y153190D01*
Y153233D01*
Y153275D01*
X151249D01*
Y153233D01*
D02*
G37*
G36*
X155111D02*
X153838D01*
Y153190D01*
X153710D01*
Y153148D01*
Y153105D01*
Y153063D01*
Y153020D01*
Y152978D01*
Y152936D01*
Y152893D01*
Y152851D01*
Y152808D01*
Y152766D01*
Y152723D01*
Y152681D01*
Y152638D01*
Y152596D01*
Y152554D01*
Y152511D01*
Y152469D01*
Y152426D01*
Y152384D01*
Y152341D01*
Y152299D01*
Y152257D01*
Y152214D01*
Y152172D01*
X153753D01*
Y152129D01*
X154899D01*
Y152087D01*
Y152044D01*
Y152002D01*
Y151959D01*
X153753D01*
Y151917D01*
X153710D01*
Y151875D01*
Y151832D01*
Y151790D01*
Y151747D01*
Y151705D01*
Y151662D01*
Y151620D01*
Y151577D01*
Y151535D01*
Y151493D01*
Y151450D01*
Y151408D01*
Y151365D01*
Y151323D01*
Y151280D01*
Y151238D01*
Y151196D01*
Y151153D01*
Y151111D01*
Y151068D01*
Y151026D01*
Y150983D01*
Y150941D01*
Y150898D01*
Y150856D01*
Y150814D01*
X153795D01*
Y150771D01*
X155196D01*
Y150729D01*
X153540D01*
Y150771D01*
X153583D01*
Y150814D01*
Y150856D01*
Y150898D01*
Y150941D01*
Y150983D01*
Y151026D01*
Y151068D01*
Y151111D01*
Y151153D01*
Y151196D01*
Y151238D01*
Y151280D01*
Y151323D01*
Y151365D01*
Y151408D01*
Y151450D01*
Y151493D01*
Y151535D01*
Y151577D01*
Y151620D01*
Y151662D01*
Y151705D01*
Y151747D01*
Y151790D01*
Y151832D01*
Y151875D01*
Y151917D01*
Y151959D01*
Y152002D01*
Y152044D01*
Y152087D01*
Y152129D01*
Y152172D01*
Y152214D01*
Y152257D01*
Y152299D01*
Y152341D01*
Y152384D01*
Y152426D01*
Y152469D01*
Y152511D01*
Y152554D01*
Y152596D01*
Y152638D01*
Y152681D01*
Y152723D01*
Y152766D01*
Y152808D01*
Y152851D01*
Y152893D01*
Y152936D01*
Y152978D01*
Y153020D01*
Y153063D01*
Y153105D01*
Y153148D01*
Y153190D01*
Y153233D01*
X153540D01*
Y153275D01*
X155111D01*
Y153233D01*
D02*
G37*
G36*
X122856Y153317D02*
Y153275D01*
X123111D01*
Y153233D01*
Y153190D01*
X123196D01*
Y153148D01*
Y153105D01*
X123281D01*
Y153063D01*
Y153020D01*
X123365D01*
Y152978D01*
Y152936D01*
X123450D01*
Y152893D01*
Y152851D01*
Y152808D01*
Y152766D01*
Y152723D01*
Y152681D01*
X123535D01*
Y152638D01*
Y152596D01*
Y152554D01*
Y152511D01*
Y152469D01*
Y152426D01*
Y152384D01*
Y152341D01*
Y152299D01*
Y152257D01*
Y152214D01*
Y152172D01*
Y152129D01*
Y152087D01*
Y152044D01*
Y152002D01*
Y151959D01*
Y151917D01*
Y151875D01*
Y151832D01*
Y151790D01*
Y151747D01*
Y151705D01*
Y151662D01*
Y151620D01*
Y151577D01*
Y151535D01*
Y151493D01*
Y151450D01*
Y151408D01*
Y151365D01*
Y151323D01*
X123450D01*
Y151280D01*
Y151238D01*
Y151196D01*
Y151153D01*
Y151111D01*
Y151068D01*
X123365D01*
Y151026D01*
Y150983D01*
X123281D01*
Y150941D01*
Y150898D01*
X123196D01*
Y150856D01*
Y150814D01*
X123026D01*
Y150771D01*
Y150729D01*
X122814D01*
Y150686D01*
X122771D01*
Y150644D01*
X122389D01*
Y150686D01*
X122347D01*
Y150729D01*
X122177D01*
Y150771D01*
Y150814D01*
X122007D01*
Y150856D01*
Y150898D01*
X121923D01*
Y150941D01*
Y150983D01*
X121838D01*
Y151026D01*
Y151068D01*
Y151111D01*
Y151153D01*
X121753D01*
Y151196D01*
Y151238D01*
Y151280D01*
Y151323D01*
Y151365D01*
Y151408D01*
X121710D01*
Y151450D01*
X121668D01*
Y151493D01*
Y151535D01*
Y151577D01*
Y151620D01*
Y151662D01*
Y151705D01*
Y151747D01*
Y151790D01*
Y151832D01*
Y151875D01*
Y151917D01*
Y151959D01*
Y152002D01*
Y152044D01*
Y152087D01*
Y152129D01*
Y152172D01*
Y152214D01*
Y152257D01*
Y152299D01*
Y152341D01*
Y152384D01*
Y152426D01*
Y152469D01*
Y152511D01*
Y152554D01*
X121753D01*
Y152596D01*
Y152638D01*
Y152681D01*
Y152723D01*
Y152766D01*
Y152808D01*
Y152851D01*
Y152893D01*
Y152936D01*
X121838D01*
Y152978D01*
Y153020D01*
X121923D01*
Y153063D01*
Y153105D01*
X122007D01*
Y153148D01*
Y153190D01*
X122092D01*
Y153233D01*
Y153275D01*
X122347D01*
Y153317D01*
X122389D01*
Y153360D01*
X122856D01*
Y153317D01*
D02*
G37*
G36*
X203278Y217263D02*
Y217255D01*
X203263Y217240D01*
X203247Y217217D01*
X203232Y217186D01*
X203178Y217094D01*
X203117Y216994D01*
X203048Y216879D01*
X202971Y216764D01*
X202902Y216656D01*
X202833Y216572D01*
X202825Y216564D01*
X202802Y216541D01*
X202771Y216503D01*
X202725Y216457D01*
X202671Y216410D01*
X202610Y216357D01*
X202533Y216303D01*
X202449Y216257D01*
X202441Y216249D01*
X202410Y216242D01*
X202364Y216218D01*
X202295Y216203D01*
X202218Y216180D01*
X202126Y216157D01*
X202026Y216149D01*
X201911Y216142D01*
X201857D01*
X201788Y216149D01*
X201704Y216157D01*
X201604Y216172D01*
X201481Y216188D01*
X201350Y216218D01*
X201212Y216257D01*
X201297Y216986D01*
X201304D01*
X201327Y216979D01*
X201358Y216971D01*
X201404Y216964D01*
X201458Y216948D01*
X201519Y216940D01*
X201642Y216933D01*
X201665D01*
X201688Y216940D01*
X201719D01*
X201804Y216971D01*
X201850Y216994D01*
X201903Y217017D01*
X201965Y217056D01*
X202026Y217102D01*
X202088Y217156D01*
X202149Y217225D01*
X202211Y217301D01*
X202272Y217394D01*
X202333Y217501D01*
X202387Y217624D01*
X201750Y221280D01*
X202733D01*
X202979Y219452D01*
Y219444D01*
X202986Y219421D01*
Y219383D01*
X202994Y219337D01*
X203002Y219283D01*
X203009Y219214D01*
X203025Y219068D01*
X203048Y218906D01*
X203063Y218745D01*
X203079Y218599D01*
X203086Y218530D01*
Y218484D01*
X203094Y218499D01*
X203109Y218530D01*
X203125Y218576D01*
X203140Y218622D01*
X203163Y218684D01*
X203194Y218753D01*
X203224Y218830D01*
X203301Y219006D01*
X203393Y219206D01*
X203493Y219421D01*
X203616Y219652D01*
X204492Y221280D01*
X205536D01*
X203278Y217263D01*
D02*
G37*
G36*
X191789Y217624D02*
X190829D01*
X189462Y221019D01*
X188755Y217624D01*
X187795D01*
X188840Y222670D01*
X189807D01*
X191174Y219290D01*
X191873Y222670D01*
X192841D01*
X191789Y217624D01*
D02*
G37*
G36*
X212287Y221364D02*
X212364Y221356D01*
X212471Y221341D01*
X212586Y221303D01*
X212702Y221257D01*
X212817Y221195D01*
X212924Y221103D01*
X212940Y221088D01*
X212970Y221057D01*
X213009Y220995D01*
X213063Y220919D01*
X213109Y220819D01*
X213155Y220704D01*
X213185Y220565D01*
X213193Y220412D01*
Y220404D01*
Y220373D01*
X213185Y220320D01*
X213178Y220251D01*
X213162Y220151D01*
X213139Y220020D01*
X213109Y219866D01*
X213093Y219782D01*
X213070Y219682D01*
X212625Y217624D01*
X211649D01*
X212095Y219690D01*
Y219698D01*
X212103Y219713D01*
Y219736D01*
X212110Y219767D01*
X212125Y219844D01*
X212141Y219936D01*
X212156Y220028D01*
X212179Y220120D01*
X212187Y220189D01*
X212195Y220220D01*
Y220243D01*
Y220251D01*
Y220274D01*
X212187Y220312D01*
X212179Y220350D01*
X212164Y220404D01*
X212149Y220450D01*
X212118Y220504D01*
X212079Y220550D01*
X212072Y220558D01*
X212056Y220565D01*
X212033Y220588D01*
X211995Y220612D01*
X211949Y220627D01*
X211895Y220650D01*
X211834Y220658D01*
X211757Y220665D01*
X211719D01*
X211672Y220658D01*
X211611Y220642D01*
X211542Y220619D01*
X211457Y220588D01*
X211365Y220542D01*
X211265Y220481D01*
X211250Y220473D01*
X211219Y220450D01*
X211173Y220404D01*
X211112Y220350D01*
X211043Y220281D01*
X210974Y220197D01*
X210897Y220105D01*
X210835Y219997D01*
X210828Y219989D01*
X210820Y219951D01*
X210797Y219897D01*
X210782Y219851D01*
X210766Y219805D01*
X210743Y219751D01*
X210728Y219690D01*
X210705Y219621D01*
X210682Y219536D01*
X210659Y219444D01*
X210636Y219352D01*
X210613Y219237D01*
X210582Y219122D01*
X210275Y217624D01*
X209299D01*
X210060Y221280D01*
X210989D01*
X210897Y220796D01*
X210904D01*
X210912Y220811D01*
X210958Y220850D01*
X211027Y220903D01*
X211112Y220965D01*
X211212Y221042D01*
X211327Y221111D01*
X211442Y221180D01*
X211557Y221234D01*
X211573Y221241D01*
X211611Y221257D01*
X211672Y221280D01*
X211757Y221303D01*
X211857Y221326D01*
X211964Y221349D01*
X212087Y221364D01*
X212210Y221372D01*
X212256D01*
X212287Y221364D01*
D02*
G37*
G36*
X194876D02*
X194961Y221349D01*
X195068Y221326D01*
X195176Y221287D01*
X195291Y221241D01*
X195406Y221172D01*
X195422Y221164D01*
X195452Y221134D01*
X195514Y221095D01*
X195575Y221034D01*
X195652Y220957D01*
X195729Y220865D01*
X195806Y220750D01*
X195875Y220627D01*
X196005Y221280D01*
X196919D01*
X196343Y218215D01*
Y218208D01*
X196335Y218185D01*
X196328Y218146D01*
X196320Y218100D01*
X196305Y218039D01*
X196289Y217970D01*
X196251Y217816D01*
X196213Y217647D01*
X196167Y217478D01*
X196128Y217317D01*
X196105Y217248D01*
X196082Y217186D01*
X196074Y217171D01*
X196067Y217132D01*
X196044Y217079D01*
X196013Y217010D01*
X195975Y216925D01*
X195928Y216841D01*
X195882Y216764D01*
X195829Y216687D01*
X195821Y216679D01*
X195806Y216656D01*
X195775Y216626D01*
X195736Y216580D01*
X195683Y216533D01*
X195621Y216480D01*
X195552Y216426D01*
X195475Y216380D01*
X195468Y216372D01*
X195437Y216357D01*
X195391Y216341D01*
X195337Y216311D01*
X195260Y216280D01*
X195176Y216257D01*
X195084Y216226D01*
X194976Y216203D01*
X194961D01*
X194922Y216196D01*
X194869Y216188D01*
X194792Y216172D01*
X194692Y216165D01*
X194584Y216149D01*
X194469Y216142D01*
X194270D01*
X194216Y216149D01*
X194154D01*
X194078Y216157D01*
X194001Y216165D01*
X193909Y216172D01*
X193717Y216211D01*
X193525Y216257D01*
X193340Y216318D01*
X193248Y216364D01*
X193171Y216410D01*
X193164D01*
X193156Y216426D01*
X193110Y216464D01*
X193048Y216526D01*
X192979Y216618D01*
X192903Y216741D01*
X192872Y216810D01*
X192841Y216894D01*
X192818Y216979D01*
X192795Y217079D01*
X192787Y217179D01*
X192780Y217294D01*
Y217301D01*
Y217332D01*
X192787Y217378D01*
X192795Y217432D01*
X193839Y217286D01*
Y217278D01*
Y217263D01*
Y217232D01*
X193847Y217194D01*
X193862Y217117D01*
X193870Y217079D01*
X193886Y217048D01*
X193893Y217033D01*
X193924Y217002D01*
X193978Y216956D01*
X194054Y216910D01*
X194062D01*
X194078Y216902D01*
X194101Y216894D01*
X194139Y216879D01*
X194185Y216871D01*
X194239Y216856D01*
X194300Y216848D01*
X194423D01*
X194485Y216856D01*
X194561Y216864D01*
X194646Y216879D01*
X194730Y216902D01*
X194823Y216933D01*
X194899Y216979D01*
X194907Y216986D01*
X194922Y216994D01*
X194953Y217017D01*
X194984Y217056D01*
X195022Y217094D01*
X195068Y217148D01*
X195107Y217209D01*
X195145Y217286D01*
Y217294D01*
X195153Y217317D01*
X195168Y217348D01*
X195183Y217409D01*
X195206Y217486D01*
X195229Y217586D01*
X195260Y217708D01*
X195291Y217862D01*
X195329Y218031D01*
X195322Y218023D01*
X195306Y218016D01*
X195276Y217993D01*
X195237Y217962D01*
X195191Y217931D01*
X195130Y217900D01*
X195061Y217862D01*
X194991Y217824D01*
X194823Y217739D01*
X194631Y217678D01*
X194431Y217624D01*
X194323Y217616D01*
X194216Y217609D01*
X194162D01*
X194124Y217616D01*
X194078Y217624D01*
X194031Y217632D01*
X193901Y217655D01*
X193763Y217701D01*
X193617Y217770D01*
X193540Y217808D01*
X193471Y217862D01*
X193402Y217916D01*
X193333Y217985D01*
Y217993D01*
X193317Y218000D01*
X193302Y218023D01*
X193279Y218054D01*
X193256Y218092D01*
X193225Y218146D01*
X193194Y218200D01*
X193164Y218269D01*
X193133Y218338D01*
X193102Y218423D01*
X193071Y218515D01*
X193048Y218615D01*
X193025Y218722D01*
X193010Y218837D01*
X193002Y218968D01*
X192995Y219098D01*
Y219106D01*
Y219129D01*
Y219160D01*
X193002Y219206D01*
Y219268D01*
X193010Y219329D01*
X193018Y219406D01*
X193025Y219490D01*
X193048Y219674D01*
X193095Y219866D01*
X193148Y220074D01*
X193225Y220281D01*
Y220289D01*
X193233Y220304D01*
X193248Y220335D01*
X193271Y220373D01*
X193294Y220412D01*
X193317Y220466D01*
X193394Y220588D01*
X193486Y220719D01*
X193601Y220850D01*
X193732Y220980D01*
X193878Y221095D01*
X193886D01*
X193901Y221111D01*
X193924Y221118D01*
X193955Y221141D01*
X194039Y221180D01*
X194147Y221234D01*
X194277Y221287D01*
X194423Y221326D01*
X194584Y221356D01*
X194746Y221372D01*
X194807D01*
X194876Y221364D01*
D02*
G37*
G36*
X207633D02*
X207694Y221356D01*
X207756Y221349D01*
X207909Y221318D01*
X208078Y221272D01*
X208255Y221195D01*
X208347Y221149D01*
X208431Y221088D01*
X208516Y221026D01*
X208593Y220949D01*
X208600Y220942D01*
X208608Y220934D01*
X208631Y220903D01*
X208654Y220873D01*
X208685Y220834D01*
X208716Y220780D01*
X208754Y220719D01*
X208792Y220650D01*
X208831Y220573D01*
X208869Y220481D01*
X208900Y220389D01*
X208931Y220289D01*
X208954Y220174D01*
X208977Y220051D01*
X208984Y219928D01*
X208992Y219790D01*
Y219782D01*
Y219774D01*
Y219728D01*
Y219659D01*
X208984Y219575D01*
X208977Y219475D01*
X208961Y219367D01*
X208923Y219145D01*
X206442D01*
Y219137D01*
Y219114D01*
X206435Y219083D01*
Y219052D01*
Y219045D01*
Y219037D01*
Y218991D01*
X206442Y218922D01*
X206458Y218837D01*
X206488Y218745D01*
X206519Y218645D01*
X206573Y218553D01*
X206642Y218461D01*
X206650Y218453D01*
X206680Y218430D01*
X206727Y218392D01*
X206788Y218354D01*
X206865Y218307D01*
X206949Y218277D01*
X207049Y218246D01*
X207157Y218238D01*
X207203D01*
X207241Y218246D01*
X207326Y218269D01*
X207441Y218300D01*
X207564Y218361D01*
X207625Y218400D01*
X207694Y218453D01*
X207756Y218507D01*
X207817Y218576D01*
X207878Y218653D01*
X207932Y218745D01*
X208815Y218599D01*
Y218592D01*
X208800Y218576D01*
X208792Y218546D01*
X208769Y218515D01*
X208739Y218469D01*
X208708Y218415D01*
X208631Y218300D01*
X208531Y218169D01*
X208408Y218031D01*
X208270Y217908D01*
X208117Y217793D01*
X208109D01*
X208094Y217785D01*
X208070Y217770D01*
X208040Y217755D01*
X208001Y217731D01*
X207955Y217708D01*
X207832Y217662D01*
X207694Y217616D01*
X207525Y217570D01*
X207349Y217540D01*
X207149Y217532D01*
X207080D01*
X207026Y217540D01*
X206965Y217547D01*
X206888Y217555D01*
X206811Y217570D01*
X206727Y217593D01*
X206535Y217647D01*
X206435Y217685D01*
X206335Y217724D01*
X206235Y217778D01*
X206135Y217839D01*
X206043Y217908D01*
X205951Y217993D01*
X205943Y218000D01*
X205928Y218016D01*
X205905Y218039D01*
X205882Y218077D01*
X205843Y218123D01*
X205805Y218185D01*
X205767Y218246D01*
X205720Y218323D01*
X205674Y218407D01*
X205636Y218499D01*
X205597Y218607D01*
X205559Y218714D01*
X205536Y218837D01*
X205513Y218960D01*
X205498Y219098D01*
X205490Y219237D01*
Y219245D01*
Y219268D01*
Y219314D01*
X205498Y219367D01*
X205505Y219429D01*
X205513Y219506D01*
X205528Y219590D01*
X205544Y219690D01*
X205590Y219897D01*
X205667Y220120D01*
X205713Y220235D01*
X205767Y220350D01*
X205836Y220466D01*
X205905Y220573D01*
X205912Y220581D01*
X205928Y220612D01*
X205966Y220650D01*
X206012Y220696D01*
X206066Y220757D01*
X206143Y220827D01*
X206227Y220896D01*
X206319Y220972D01*
X206427Y221049D01*
X206550Y221118D01*
X206680Y221187D01*
X206826Y221249D01*
X206988Y221295D01*
X207157Y221341D01*
X207333Y221364D01*
X207525Y221372D01*
X207587D01*
X207633Y221364D01*
D02*
G37*
G36*
X200275Y217624D02*
X199354D01*
X199453Y218092D01*
X199446Y218085D01*
X199431Y218069D01*
X199400Y218039D01*
X199354Y218008D01*
X199308Y217962D01*
X199246Y217916D01*
X199177Y217862D01*
X199093Y217816D01*
X199008Y217762D01*
X198916Y217708D01*
X198709Y217616D01*
X198601Y217586D01*
X198486Y217555D01*
X198363Y217540D01*
X198240Y217532D01*
X198202D01*
X198171Y217540D01*
X198094Y217547D01*
X198002Y217563D01*
X197902Y217593D01*
X197787Y217639D01*
X197687Y217701D01*
X197587Y217785D01*
X197580Y217801D01*
X197549Y217831D01*
X197518Y217893D01*
X197472Y217970D01*
X197434Y218069D01*
X197395Y218192D01*
X197365Y218331D01*
X197357Y218484D01*
Y218492D01*
Y218523D01*
X197365Y218576D01*
X197372Y218653D01*
X197388Y218753D01*
X197411Y218883D01*
X197426Y218960D01*
X197441Y219045D01*
X197457Y219137D01*
X197480Y219237D01*
X197941Y221280D01*
X198931D01*
X198447Y219106D01*
Y219098D01*
Y219091D01*
X198432Y219045D01*
X198417Y218976D01*
X198401Y218899D01*
X198386Y218814D01*
X198371Y218738D01*
X198363Y218668D01*
X198355Y218622D01*
Y218615D01*
Y218599D01*
X198363Y218569D01*
X198371Y218530D01*
X198401Y218438D01*
X198424Y218392D01*
X198463Y218346D01*
X198470Y218338D01*
X198486Y218331D01*
X198509Y218315D01*
X198540Y218292D01*
X198624Y218254D01*
X198670Y218246D01*
X198732Y218238D01*
X198778D01*
X198801Y218246D01*
X198878Y218261D01*
X198962Y218285D01*
X198970D01*
X198985Y218292D01*
X199008Y218307D01*
X199039Y218323D01*
X199108Y218369D01*
X199200Y218438D01*
X199208Y218446D01*
X199223Y218461D01*
X199246Y218477D01*
X199277Y218507D01*
X199346Y218584D01*
X199415Y218684D01*
X199423Y218691D01*
X199431Y218707D01*
X199453Y218738D01*
X199477Y218784D01*
X199507Y218830D01*
X199538Y218891D01*
X199569Y218960D01*
X199599Y219037D01*
Y219045D01*
X199607Y219068D01*
X199622Y219106D01*
X199638Y219160D01*
X199653Y219229D01*
X199676Y219314D01*
X199699Y219413D01*
X199722Y219529D01*
X200122Y221280D01*
X201097D01*
X200275Y217624D01*
D02*
G37*
G36*
X199538Y227511D02*
X199599Y227503D01*
X199684Y227496D01*
X199768Y227481D01*
X199861Y227465D01*
X200068Y227411D01*
X200175Y227373D01*
X200275Y227327D01*
X200383Y227273D01*
X200483Y227219D01*
X200575Y227143D01*
X200667Y227066D01*
X200675Y227058D01*
X200690Y227043D01*
X200705Y227020D01*
X200736Y226981D01*
X200775Y226943D01*
X200813Y226889D01*
X200851Y226820D01*
X200897Y226751D01*
X200936Y226666D01*
X200974Y226574D01*
X201013Y226482D01*
X201051Y226375D01*
X201082Y226259D01*
X201097Y226136D01*
X201112Y226006D01*
X201120Y225868D01*
Y225860D01*
Y225829D01*
Y225783D01*
X201112Y225722D01*
X201105Y225645D01*
X201089Y225553D01*
X201074Y225453D01*
X201051Y225338D01*
X201020Y225223D01*
X200982Y225100D01*
X200936Y224969D01*
X200882Y224839D01*
X200813Y224708D01*
X200736Y224577D01*
X200652Y224447D01*
X200552Y224324D01*
X200544Y224316D01*
X200529Y224293D01*
X200490Y224263D01*
X200452Y224224D01*
X200391Y224178D01*
X200321Y224117D01*
X200245Y224063D01*
X200152Y224001D01*
X200045Y223940D01*
X199930Y223886D01*
X199807Y223833D01*
X199669Y223779D01*
X199523Y223740D01*
X199369Y223710D01*
X199208Y223687D01*
X199031Y223679D01*
X198947D01*
X198901Y223687D01*
X198847D01*
X198724Y223702D01*
X198586Y223725D01*
X198432Y223763D01*
X198271Y223809D01*
X198117Y223879D01*
X198109D01*
X198102Y223886D01*
X198056Y223917D01*
X197979Y223963D01*
X197895Y224032D01*
X197795Y224109D01*
X197703Y224209D01*
X197610Y224332D01*
X197526Y224462D01*
Y224470D01*
X197518Y224478D01*
X197511Y224501D01*
X197495Y224531D01*
X197464Y224608D01*
X197434Y224708D01*
X197395Y224831D01*
X197365Y224969D01*
X197342Y225123D01*
X197334Y225284D01*
Y225299D01*
Y225330D01*
X197342Y225384D01*
Y225453D01*
X197349Y225537D01*
X197365Y225637D01*
X197380Y225752D01*
X197403Y225868D01*
X197434Y225998D01*
X197472Y226129D01*
X197518Y226267D01*
X197572Y226405D01*
X197641Y226536D01*
X197718Y226666D01*
X197802Y226797D01*
X197902Y226912D01*
X197910Y226920D01*
X197925Y226935D01*
X197964Y226966D01*
X198002Y227004D01*
X198063Y227050D01*
X198133Y227104D01*
X198209Y227158D01*
X198301Y227219D01*
X198401Y227273D01*
X198517Y227327D01*
X198639Y227381D01*
X198778Y227427D01*
X198916Y227465D01*
X199069Y227496D01*
X199231Y227511D01*
X199400Y227519D01*
X199477D01*
X199538Y227511D01*
D02*
G37*
G36*
X203332Y227918D02*
X202349D01*
X202533Y228817D01*
X203516D01*
X203332Y227918D01*
D02*
G37*
G36*
X103801Y168893D02*
Y168851D01*
Y168808D01*
Y168766D01*
X103716D01*
Y168723D01*
Y168681D01*
X103631D01*
Y168638D01*
Y168596D01*
X103546D01*
Y168553D01*
Y168511D01*
X103461D01*
Y168469D01*
Y168426D01*
X103376D01*
Y168384D01*
Y168341D01*
X103291D01*
Y168299D01*
Y168256D01*
X103164D01*
Y168214D01*
Y168172D01*
Y168129D01*
Y168087D01*
Y168044D01*
X103122D01*
Y168002D01*
X103079D01*
Y167959D01*
X102994D01*
Y167917D01*
Y167875D01*
X102909D01*
Y167832D01*
Y167790D01*
X102824D01*
Y167747D01*
Y167705D01*
X102740D01*
Y167662D01*
Y167620D01*
X102655D01*
Y167577D01*
Y167535D01*
X102570D01*
Y167492D01*
Y167450D01*
X102485D01*
Y167408D01*
Y167365D01*
X102443D01*
Y167323D01*
X102400D01*
Y167280D01*
X102358D01*
Y167238D01*
X102273D01*
Y167195D01*
Y167153D01*
Y167111D01*
Y167068D01*
X102230D01*
Y167026D01*
X102188D01*
Y166983D01*
X102103D01*
Y166941D01*
Y166898D01*
X102018D01*
Y166856D01*
Y166814D01*
X101933D01*
Y166771D01*
Y166729D01*
X101848D01*
Y166686D01*
Y166644D01*
X101763D01*
Y166601D01*
Y166559D01*
X101679D01*
Y166516D01*
X101636D01*
Y166474D01*
Y166431D01*
X101679D01*
Y166389D01*
X101636D01*
Y166347D01*
X101594D01*
Y166304D01*
X101551D01*
Y166262D01*
X101509D01*
Y166219D01*
X101466D01*
Y166177D01*
X101424D01*
Y166134D01*
X101382D01*
Y166092D01*
X101339D01*
Y166050D01*
X101297D01*
Y166007D01*
X101212D01*
Y165965D01*
Y165922D01*
X101127D01*
Y165880D01*
Y165837D01*
X101042D01*
Y165795D01*
Y165752D01*
X101000D01*
Y165710D01*
X100957D01*
Y165668D01*
X100915D01*
Y165625D01*
X100830D01*
Y165583D01*
Y165540D01*
X100872D01*
Y165498D01*
X100830D01*
Y165455D01*
X100787D01*
Y165413D01*
X100745D01*
Y165371D01*
X100703D01*
Y165328D01*
X100660D01*
Y165286D01*
X100618D01*
Y165243D01*
X100575D01*
Y165201D01*
X100533D01*
Y165158D01*
X100490D01*
Y165116D01*
X100448D01*
Y165073D01*
X100405D01*
Y165031D01*
X100363D01*
Y164989D01*
X100321D01*
Y164946D01*
X100278D01*
Y164904D01*
X100236D01*
Y164861D01*
X100193D01*
Y164819D01*
X100151D01*
Y164776D01*
Y164734D01*
X100023D01*
Y164691D01*
Y164649D01*
X100066D01*
Y164607D01*
Y164564D01*
X99981D01*
Y164522D01*
Y164479D01*
X99896D01*
Y164437D01*
Y164394D01*
X99811D01*
Y164352D01*
X99769D01*
Y164310D01*
X99726D01*
Y164267D01*
X99684D01*
Y164225D01*
X99642D01*
Y164182D01*
X99599D01*
Y164140D01*
X99557D01*
Y164097D01*
X99514D01*
Y164055D01*
X99472D01*
Y164012D01*
X99429D01*
Y163970D01*
Y163927D01*
X99344D01*
Y163885D01*
Y163843D01*
Y163800D01*
Y163758D01*
X99260D01*
Y163715D01*
Y163673D01*
X99175D01*
Y163630D01*
Y163588D01*
X99090D01*
Y163546D01*
Y163503D01*
X99005D01*
Y163461D01*
Y163418D01*
X98920D01*
Y163376D01*
Y163333D01*
X98835D01*
Y163291D01*
X98793D01*
Y163249D01*
X98750D01*
Y163206D01*
X98708D01*
Y163164D01*
Y163121D01*
X98623D01*
Y163079D01*
Y163036D01*
X98538D01*
Y162994D01*
Y162951D01*
Y162909D01*
Y162866D01*
X98453D01*
Y162824D01*
Y162782D01*
X98368D01*
Y162739D01*
Y162697D01*
X98283D01*
Y162654D01*
Y162612D01*
X98199D01*
Y162569D01*
Y162527D01*
X98114D01*
Y162485D01*
Y162442D01*
X98029D01*
Y162400D01*
Y162357D01*
X97944D01*
Y162315D01*
X97901D01*
Y162272D01*
Y162230D01*
X97817D01*
Y162188D01*
Y162145D01*
Y162103D01*
Y162060D01*
X97732D01*
Y162018D01*
Y161975D01*
X97647D01*
Y161933D01*
Y161890D01*
X97562D01*
Y161848D01*
Y161805D01*
X97477D01*
Y161763D01*
Y161721D01*
X97392D01*
Y161678D01*
Y161636D01*
X97307D01*
Y161593D01*
Y161551D01*
X97222D01*
Y161509D01*
Y161466D01*
X97180D01*
Y161424D01*
X97137D01*
Y161381D01*
X97095D01*
Y161339D01*
X97010D01*
Y161296D01*
Y161254D01*
Y161211D01*
Y161169D01*
X96925D01*
Y161126D01*
Y161084D01*
X96841D01*
Y161042D01*
Y160999D01*
X96756D01*
Y160957D01*
Y160914D01*
X96671D01*
Y160872D01*
Y160829D01*
X96586D01*
Y160787D01*
Y160745D01*
X96459D01*
Y160702D01*
Y160660D01*
Y160617D01*
Y160575D01*
Y160532D01*
X96586D01*
Y160490D01*
Y160448D01*
X96925D01*
Y160405D01*
Y160363D01*
X97265D01*
Y160320D01*
X97307D01*
Y160278D01*
X97647D01*
Y160235D01*
Y160193D01*
X97689D01*
Y160150D01*
X97901D01*
Y160108D01*
X97944D01*
Y160065D01*
X98283D01*
Y160023D01*
Y159981D01*
X98623D01*
Y159938D01*
X98665D01*
Y159896D01*
X99005D01*
Y159853D01*
Y159811D01*
X99344D01*
Y159768D01*
Y159726D01*
X99599D01*
Y159684D01*
X99642D01*
Y159641D01*
X99981D01*
Y159599D01*
Y159556D01*
X100321D01*
Y159514D01*
Y159471D01*
X100575D01*
Y159429D01*
X100618D01*
Y159386D01*
X100915D01*
Y159344D01*
X100957D01*
Y159302D01*
Y159259D01*
Y159217D01*
X100872D01*
Y159174D01*
Y159132D01*
X100787D01*
Y159089D01*
Y159047D01*
X100703D01*
Y159004D01*
Y158962D01*
X100660D01*
Y158920D01*
X100490D01*
Y158877D01*
Y158835D01*
X100405D01*
Y158792D01*
Y158750D01*
X100321D01*
Y158707D01*
Y158665D01*
X100151D01*
Y158623D01*
Y158580D01*
X100066D01*
Y158538D01*
Y158495D01*
X99981D01*
Y158453D01*
Y158410D01*
X99811D01*
Y158368D01*
Y158326D01*
X99726D01*
Y158283D01*
X99684D01*
Y158241D01*
X99642D01*
Y158198D01*
X99599D01*
Y158156D01*
X99514D01*
Y158113D01*
X99429D01*
Y158071D01*
Y158028D01*
X99344D01*
Y157986D01*
Y157943D01*
X99260D01*
Y157901D01*
Y157859D01*
X99090D01*
Y157816D01*
Y157774D01*
X99005D01*
Y157731D01*
X98962D01*
Y157689D01*
X98920D01*
Y157646D01*
X98878D01*
Y157604D01*
X98750D01*
Y157562D01*
X98708D01*
Y157519D01*
X98665D01*
Y157477D01*
X98623D01*
Y157434D01*
X98580D01*
Y157392D01*
X98538D01*
Y157349D01*
X98411D01*
Y157307D01*
X98368D01*
Y157264D01*
X98326D01*
Y157222D01*
X98283D01*
Y157180D01*
X98241D01*
Y157137D01*
X98199D01*
Y157095D01*
X98156D01*
Y157052D01*
X98029D01*
Y157010D01*
X97986D01*
Y156967D01*
X97944D01*
Y156925D01*
X97901D01*
Y156883D01*
X97817D01*
Y156840D01*
Y156798D01*
X97647D01*
Y156755D01*
Y156713D01*
X97562D01*
Y156670D01*
Y156628D01*
X97477D01*
Y156585D01*
Y156543D01*
X97307D01*
Y156500D01*
Y156458D01*
X97265D01*
Y156416D01*
X97222D01*
Y156373D01*
X97180D01*
Y156331D01*
X97137D01*
Y156288D01*
X97095D01*
Y156246D01*
X96925D01*
Y156203D01*
Y156161D01*
X96841D01*
Y156119D01*
Y156076D01*
X96756D01*
Y156034D01*
Y155991D01*
X96586D01*
Y155949D01*
Y155906D01*
X96501D01*
Y155864D01*
Y155822D01*
X96416D01*
Y155779D01*
Y155737D01*
X96246D01*
Y155694D01*
X96204D01*
Y155652D01*
Y155609D01*
X96119D01*
Y155567D01*
Y155524D01*
X96034D01*
Y155482D01*
Y155439D01*
X95864D01*
Y155397D01*
Y155355D01*
X95779D01*
Y155312D01*
Y155270D01*
X95695D01*
Y155227D01*
Y155185D01*
X95525D01*
Y155142D01*
X95482D01*
Y155100D01*
X95440D01*
Y155058D01*
X95398D01*
Y155015D01*
X95355D01*
Y154973D01*
X95313D01*
Y154930D01*
X95185D01*
Y154888D01*
X95143D01*
Y154845D01*
X95100D01*
Y154803D01*
X95058D01*
Y154761D01*
Y154718D01*
X94973D01*
Y154676D01*
Y154633D01*
X94888D01*
Y154591D01*
Y154548D01*
X94718D01*
Y154506D01*
X94676D01*
Y154463D01*
X94634D01*
Y154421D01*
X94591D01*
Y154378D01*
X94549D01*
Y154336D01*
X94506D01*
Y154294D01*
X94336D01*
Y154251D01*
Y154209D01*
X94252D01*
Y154166D01*
Y154124D01*
X94082D01*
Y154081D01*
Y154039D01*
X93997D01*
Y153997D01*
Y153954D01*
X93954D01*
Y153912D01*
X93912D01*
Y153869D01*
X93870D01*
Y153827D01*
X93827D01*
Y153784D01*
X93785D01*
Y153742D01*
X93615D01*
Y153700D01*
Y153657D01*
X93530D01*
Y153615D01*
Y153572D01*
X93445D01*
Y153530D01*
Y153487D01*
X93275D01*
Y153445D01*
Y153402D01*
X93191D01*
Y153360D01*
Y153317D01*
X93106D01*
Y153275D01*
Y153233D01*
X92936D01*
Y153190D01*
Y153148D01*
X92893D01*
Y153105D01*
X92809D01*
Y153063D01*
Y153020D01*
X92724D01*
Y152978D01*
Y152936D01*
X92554D01*
Y152893D01*
Y152851D01*
X92469D01*
Y152808D01*
Y152766D01*
X92384D01*
Y152723D01*
Y152681D01*
X92215D01*
Y152638D01*
Y152596D01*
X92130D01*
Y152554D01*
Y152511D01*
X92045D01*
Y152469D01*
X92002D01*
Y152426D01*
X91875D01*
Y152384D01*
X91833D01*
Y152341D01*
X91790D01*
Y152299D01*
X91748D01*
Y152257D01*
Y152214D01*
X91663D01*
Y152172D01*
Y152129D01*
X91493D01*
Y152087D01*
Y152044D01*
X91408D01*
Y152002D01*
X91366D01*
Y151959D01*
X91323D01*
Y151917D01*
X91281D01*
Y151875D01*
X91154D01*
Y151832D01*
X91111D01*
Y151790D01*
X91069D01*
Y151747D01*
X91026D01*
Y151705D01*
X90941D01*
Y151662D01*
Y151620D01*
X90772D01*
Y151577D01*
Y151535D01*
X90729D01*
Y151493D01*
X90687D01*
Y151450D01*
X90644D01*
Y151408D01*
X90602D01*
Y151365D01*
X90559D01*
Y151323D01*
X90432D01*
Y151280D01*
X90390D01*
Y151238D01*
X90347D01*
Y151196D01*
X90305D01*
Y151153D01*
X90220D01*
Y151111D01*
Y151068D01*
X90050D01*
Y151026D01*
Y150983D01*
X89965D01*
Y150941D01*
Y150898D01*
X89880D01*
Y150856D01*
Y150814D01*
X89710D01*
Y150771D01*
Y150729D01*
X89626D01*
Y150686D01*
Y150644D01*
X89583D01*
Y150601D01*
X89541D01*
Y150559D01*
X89498D01*
Y150516D01*
X89329D01*
Y150474D01*
Y150432D01*
X89244D01*
Y150389D01*
Y150347D01*
X89159D01*
Y150304D01*
Y150262D01*
X88989D01*
Y150219D01*
Y150177D01*
X88904D01*
Y150135D01*
Y150092D01*
X88819D01*
Y150050D01*
Y150007D01*
X88649D01*
Y149965D01*
X88607D01*
Y149922D01*
X88565D01*
Y149880D01*
X88522D01*
Y149837D01*
X88480D01*
Y149795D01*
X88437D01*
Y149753D01*
Y149710D01*
X88268D01*
Y149668D01*
Y149625D01*
X88183D01*
Y149583D01*
Y149540D01*
X88098D01*
Y149498D01*
Y149455D01*
X87928D01*
Y149413D01*
X87886D01*
Y149371D01*
X87843D01*
Y149328D01*
X87801D01*
Y149286D01*
X87758D01*
Y149243D01*
X87716D01*
Y149201D01*
X87546D01*
Y149158D01*
Y149116D01*
X87461D01*
Y149074D01*
Y149031D01*
X87419D01*
Y148989D01*
X87376D01*
Y148946D01*
X87249D01*
Y148904D01*
X87207D01*
Y148861D01*
X87164D01*
Y148819D01*
X87122D01*
Y148776D01*
X87079D01*
Y148734D01*
X87037D01*
Y148692D01*
X86994D01*
Y148649D01*
X86825D01*
Y148607D01*
Y148564D01*
X86740D01*
Y148522D01*
Y148479D01*
X86655D01*
Y148437D01*
Y148395D01*
X86485D01*
Y148352D01*
Y148310D01*
X86400D01*
Y148267D01*
Y148225D01*
X86358D01*
Y148182D01*
X86315D01*
Y148140D01*
X86273D01*
Y148097D01*
X86230D01*
Y148055D01*
X86188D01*
Y148012D01*
X86103D01*
Y148055D01*
Y148097D01*
X86188D01*
Y148140D01*
Y148182D01*
X86273D01*
Y148225D01*
Y148267D01*
X86358D01*
Y148310D01*
Y148352D01*
X86400D01*
Y148395D01*
X86443D01*
Y148437D01*
X86485D01*
Y148479D01*
X86528D01*
Y148522D01*
X86570D01*
Y148564D01*
X86655D01*
Y148607D01*
Y148649D01*
X86740D01*
Y148692D01*
Y148734D01*
X86825D01*
Y148776D01*
Y148819D01*
X86910D01*
Y148861D01*
Y148904D01*
X86994D01*
Y148946D01*
Y148989D01*
X87079D01*
Y149031D01*
Y149074D01*
X87164D01*
Y149116D01*
Y149158D01*
X87249D01*
Y149201D01*
Y149243D01*
X87376D01*
Y149286D01*
Y149328D01*
Y149371D01*
Y149413D01*
Y149455D01*
X87419D01*
Y149498D01*
X87461D01*
Y149540D01*
X87546D01*
Y149583D01*
Y149625D01*
X87631D01*
Y149668D01*
Y149710D01*
X87716D01*
Y149753D01*
Y149795D01*
X87801D01*
Y149837D01*
Y149880D01*
X87886D01*
Y149922D01*
Y149965D01*
X87971D01*
Y150007D01*
Y150050D01*
X88055D01*
Y150092D01*
Y150135D01*
X88098D01*
Y150177D01*
X88140D01*
Y150219D01*
X88183D01*
Y150262D01*
X88225D01*
Y150304D01*
X88268D01*
Y150347D01*
X88352D01*
Y150389D01*
Y150432D01*
X88437D01*
Y150474D01*
Y150516D01*
Y150559D01*
Y150601D01*
X88522D01*
Y150644D01*
Y150686D01*
X88607D01*
Y150729D01*
Y150771D01*
X88692D01*
Y150814D01*
Y150856D01*
X88777D01*
Y150898D01*
Y150941D01*
X88819D01*
Y150983D01*
X88862D01*
Y151026D01*
X88904D01*
Y151068D01*
X88947D01*
Y151111D01*
X88989D01*
Y151153D01*
X89031D01*
Y151196D01*
X89074D01*
Y151238D01*
X89116D01*
Y151280D01*
X89159D01*
Y151323D01*
X89244D01*
Y151365D01*
Y151408D01*
X89329D01*
Y151450D01*
Y151493D01*
X89413D01*
Y151535D01*
Y151577D01*
X89498D01*
Y151620D01*
Y151662D01*
X89583D01*
Y151705D01*
Y151747D01*
X89668D01*
Y151790D01*
X89710D01*
Y151832D01*
Y151875D01*
X89668D01*
Y151917D01*
X89710D01*
Y151959D01*
X89753D01*
Y152002D01*
X89795D01*
Y152044D01*
X89838D01*
Y152087D01*
X89880D01*
Y152129D01*
X89923D01*
Y152172D01*
X89965D01*
Y152214D01*
X90008D01*
Y152257D01*
X90050D01*
Y152299D01*
X90092D01*
Y152341D01*
X90135D01*
Y152384D01*
X90220D01*
Y152426D01*
Y152469D01*
X90305D01*
Y152511D01*
Y152554D01*
X90347D01*
Y152596D01*
X90390D01*
Y152638D01*
X90432D01*
Y152681D01*
X90474D01*
Y152723D01*
X90517D01*
Y152766D01*
X90559D01*
Y152808D01*
X90602D01*
Y152851D01*
X90644D01*
Y152893D01*
X90687D01*
Y152936D01*
X90729D01*
Y152978D01*
X90772D01*
Y153020D01*
X90814D01*
Y153063D01*
X90856D01*
Y153105D01*
X90941D01*
Y153148D01*
Y153190D01*
Y153233D01*
Y153275D01*
X90984D01*
Y153317D01*
X91026D01*
Y153360D01*
X91069D01*
Y153402D01*
X91111D01*
Y153445D01*
X91154D01*
Y153487D01*
X91196D01*
Y153530D01*
Y153572D01*
X91281D01*
Y153615D01*
Y153657D01*
X91366D01*
Y153700D01*
Y153742D01*
X91451D01*
Y153784D01*
X91493D01*
Y153827D01*
X91536D01*
Y153869D01*
X91578D01*
Y153912D01*
X91620D01*
Y153954D01*
X91663D01*
Y153997D01*
X91705D01*
Y154039D01*
X91748D01*
Y154081D01*
X91790D01*
Y154124D01*
X91833D01*
Y154166D01*
X91875D01*
Y154209D01*
X91917D01*
Y154251D01*
X91960D01*
Y154294D01*
X92002D01*
Y154336D01*
Y154378D01*
X92087D01*
Y154421D01*
Y154463D01*
X92215D01*
Y154506D01*
Y154548D01*
X92172D01*
Y154591D01*
Y154633D01*
X92257D01*
Y154676D01*
Y154718D01*
X92342D01*
Y154761D01*
Y154803D01*
X92427D01*
Y154845D01*
X92469D01*
Y154888D01*
X92512D01*
Y154930D01*
X92554D01*
Y154973D01*
X92597D01*
Y155015D01*
X92639D01*
Y155058D01*
X92681D01*
Y155100D01*
X92724D01*
Y155142D01*
Y155185D01*
X92809D01*
Y155227D01*
Y155270D01*
X92893D01*
Y155312D01*
Y155355D01*
X92978D01*
Y155397D01*
Y155439D01*
X93063D01*
Y155482D01*
Y155524D01*
X93148D01*
Y155567D01*
Y155609D01*
X93233D01*
Y155652D01*
Y155694D01*
X93318D01*
Y155737D01*
X93360D01*
Y155779D01*
X93403D01*
Y155822D01*
X93445D01*
Y155864D01*
X93530D01*
Y155906D01*
Y155949D01*
Y155991D01*
Y156034D01*
Y156076D01*
X93615D01*
Y156119D01*
Y156161D01*
X93700D01*
Y156203D01*
Y156246D01*
X93785D01*
Y156288D01*
Y156331D01*
X93870D01*
Y156373D01*
Y156416D01*
X93954D01*
Y156458D01*
Y156500D01*
X94082D01*
Y156543D01*
Y156585D01*
Y156628D01*
Y156670D01*
Y156713D01*
Y156755D01*
Y156798D01*
Y156840D01*
Y156883D01*
X93785D01*
Y156925D01*
Y156967D01*
X93530D01*
Y157010D01*
Y157052D01*
X93275D01*
Y157095D01*
X93233D01*
Y157137D01*
X93106D01*
Y157180D01*
X93063D01*
Y157222D01*
X92809D01*
Y157264D01*
Y157307D01*
X92766D01*
Y157349D01*
X92427D01*
Y157392D01*
Y157434D01*
X92172D01*
Y157477D01*
Y157519D01*
X91917D01*
Y157562D01*
Y157604D01*
X91748D01*
Y157646D01*
X91705D01*
Y157689D01*
X91451D01*
Y157731D01*
Y157774D01*
X91196D01*
Y157816D01*
Y157859D01*
X90941D01*
Y157901D01*
Y157943D01*
X90687D01*
Y157986D01*
X90644D01*
Y158028D01*
X90390D01*
Y158071D01*
Y158113D01*
X90474D01*
Y158156D01*
Y158198D01*
X90559D01*
Y158241D01*
Y158283D01*
X90729D01*
Y158326D01*
Y158368D01*
X90814D01*
Y158410D01*
X90856D01*
Y158453D01*
X90899D01*
Y158495D01*
X90941D01*
Y158538D01*
Y158580D01*
X91026D01*
Y158623D01*
Y158665D01*
X91111D01*
Y158707D01*
Y158750D01*
X91281D01*
Y158792D01*
Y158835D01*
X91366D01*
Y158877D01*
Y158920D01*
X91451D01*
Y158962D01*
Y159004D01*
X91536D01*
Y159047D01*
Y159089D01*
X91705D01*
Y159132D01*
X91748D01*
Y159174D01*
X91790D01*
Y159217D01*
X91833D01*
Y159259D01*
X91875D01*
Y159302D01*
X91917D01*
Y159344D01*
Y159386D01*
X92002D01*
Y159429D01*
Y159471D01*
X92087D01*
Y159514D01*
Y159556D01*
X92257D01*
Y159599D01*
X92299D01*
Y159641D01*
X92342D01*
Y159684D01*
X92384D01*
Y159726D01*
X92427D01*
Y159768D01*
X92469D01*
Y159811D01*
X92512D01*
Y159853D01*
X92554D01*
Y159896D01*
X92681D01*
Y159938D01*
X92724D01*
Y159981D01*
X92809D01*
Y160023D01*
Y160065D01*
X92851D01*
Y160108D01*
X92893D01*
Y160150D01*
X92936D01*
Y160193D01*
X92978D01*
Y160235D01*
X93021D01*
Y160278D01*
X93063D01*
Y160320D01*
X93106D01*
Y160363D01*
X93233D01*
Y160405D01*
X93275D01*
Y160448D01*
X93318D01*
Y160490D01*
X93360D01*
Y160532D01*
X93403D01*
Y160575D01*
X93445D01*
Y160617D01*
X93530D01*
Y160660D01*
Y160702D01*
X93700D01*
Y160745D01*
Y160787D01*
X93785D01*
Y160829D01*
Y160872D01*
X93870D01*
Y160914D01*
Y160957D01*
X93912D01*
Y160999D01*
X93954D01*
Y161042D01*
X93997D01*
Y161084D01*
X94124D01*
Y161126D01*
X94167D01*
Y161169D01*
X94209D01*
Y161211D01*
X94252D01*
Y161254D01*
X94336D01*
Y161296D01*
Y161339D01*
X94421D01*
Y161381D01*
Y161424D01*
X94506D01*
Y161466D01*
Y161509D01*
X94676D01*
Y161551D01*
Y161593D01*
X94761D01*
Y161636D01*
Y161678D01*
X94846D01*
Y161721D01*
Y161763D01*
X94931D01*
Y161805D01*
Y161848D01*
X94973D01*
Y161890D01*
X95143D01*
Y161933D01*
Y161975D01*
X95228D01*
Y162018D01*
Y162060D01*
X95313D01*
Y162103D01*
Y162145D01*
X95398D01*
Y162188D01*
Y162230D01*
X95567D01*
Y162272D01*
Y162315D01*
X95652D01*
Y162357D01*
Y162400D01*
X95737D01*
Y162442D01*
Y162485D01*
X95822D01*
Y162527D01*
Y162569D01*
X95907D01*
Y162612D01*
X95949D01*
Y162654D01*
X96077D01*
Y162697D01*
X96119D01*
Y162739D01*
Y162782D01*
X96204D01*
Y162824D01*
Y162866D01*
X96289D01*
Y162909D01*
Y162951D01*
X96374D01*
Y162994D01*
Y163036D01*
X96543D01*
Y163079D01*
Y163121D01*
X96628D01*
Y163164D01*
Y163206D01*
X96713D01*
Y163249D01*
X96756D01*
Y163291D01*
X96798D01*
Y163333D01*
X96841D01*
Y163376D01*
X96883D01*
Y163418D01*
X96925D01*
Y163461D01*
X97053D01*
Y163503D01*
X97095D01*
Y163546D01*
Y163588D01*
X97180D01*
Y163630D01*
Y163673D01*
X97265D01*
Y163715D01*
Y163758D01*
X97350D01*
Y163800D01*
Y163843D01*
X97519D01*
Y163885D01*
X97562D01*
Y163927D01*
X97604D01*
Y163970D01*
X97647D01*
Y164012D01*
X97689D01*
Y164055D01*
X97732D01*
Y164097D01*
X97774D01*
Y164140D01*
X97817D01*
Y164182D01*
X97986D01*
Y164225D01*
Y164267D01*
X98029D01*
Y164310D01*
X98071D01*
Y164352D01*
X98114D01*
Y164394D01*
X98156D01*
Y164437D01*
X98199D01*
Y164479D01*
X98241D01*
Y164522D01*
X98283D01*
Y164564D01*
X98326D01*
Y164607D01*
X98368D01*
Y164649D01*
X98496D01*
Y164691D01*
X98538D01*
Y164734D01*
X98623D01*
Y164776D01*
Y164819D01*
X98708D01*
Y164861D01*
Y164904D01*
X98793D01*
Y164946D01*
Y164989D01*
X98962D01*
Y165031D01*
Y165073D01*
X99047D01*
Y165116D01*
Y165158D01*
X99090D01*
Y165201D01*
X99132D01*
Y165243D01*
X99175D01*
Y165286D01*
X99217D01*
Y165328D01*
X99260D01*
Y165371D01*
X99302D01*
Y165413D01*
X99344D01*
Y165455D01*
X99514D01*
Y165498D01*
Y165540D01*
X99599D01*
Y165583D01*
Y165625D01*
X99684D01*
Y165668D01*
Y165710D01*
X99769D01*
Y165752D01*
Y165795D01*
X99939D01*
Y165837D01*
Y165880D01*
X100023D01*
Y165922D01*
Y165965D01*
X100108D01*
Y166007D01*
Y166050D01*
X100151D01*
Y166092D01*
X100236D01*
Y166134D01*
Y166177D01*
X100321D01*
Y166219D01*
Y166262D01*
X100490D01*
Y166304D01*
Y166347D01*
X100575D01*
Y166389D01*
Y166431D01*
X100660D01*
Y166474D01*
Y166516D01*
X100745D01*
Y166559D01*
Y166601D01*
X100915D01*
Y166644D01*
Y166686D01*
X101000D01*
Y166729D01*
X101042D01*
Y166771D01*
X101084D01*
Y166814D01*
X101127D01*
Y166856D01*
Y166898D01*
X101212D01*
Y166941D01*
Y166983D01*
X101297D01*
Y167026D01*
Y167068D01*
X101466D01*
Y167111D01*
Y167153D01*
X101551D01*
Y167195D01*
Y167238D01*
X101636D01*
Y167280D01*
Y167323D01*
X101721D01*
Y167365D01*
Y167408D01*
X101891D01*
Y167450D01*
X101933D01*
Y167492D01*
X101976D01*
Y167535D01*
X102018D01*
Y167577D01*
X102061D01*
Y167620D01*
X102103D01*
Y167662D01*
X102146D01*
Y167705D01*
X102188D01*
Y167747D01*
Y167790D01*
X102358D01*
Y167832D01*
Y167875D01*
X102443D01*
Y167917D01*
X102485D01*
Y167959D01*
X102527D01*
Y168002D01*
X102570D01*
Y168044D01*
X102612D01*
Y168087D01*
X102655D01*
Y168129D01*
X102697D01*
Y168172D01*
X102740D01*
Y168214D01*
X102909D01*
Y168256D01*
Y168299D01*
X102994D01*
Y168341D01*
Y168384D01*
X103037D01*
Y168426D01*
X103079D01*
Y168469D01*
X103122D01*
Y168511D01*
X103164D01*
Y168553D01*
X103207D01*
Y168596D01*
X103334D01*
Y168638D01*
X103376D01*
Y168681D01*
X103419D01*
Y168723D01*
X103461D01*
Y168766D01*
X103504D01*
Y168808D01*
X103546D01*
Y168851D01*
X103588D01*
Y168893D01*
X103631D01*
Y168936D01*
X103801D01*
Y168893D01*
D02*
G37*
G36*
X102740Y165116D02*
X102782D01*
Y165073D01*
X102824D01*
Y165031D01*
Y164989D01*
X102909D01*
Y164946D01*
X102952D01*
Y164904D01*
X102994D01*
Y164861D01*
X103037D01*
Y164819D01*
X103079D01*
Y164776D01*
Y164734D01*
Y164691D01*
Y164649D01*
X103164D01*
Y164607D01*
X103207D01*
Y164564D01*
X103249D01*
Y164522D01*
X103291D01*
Y164479D01*
X103334D01*
Y164437D01*
X103376D01*
Y164394D01*
X103334D01*
Y164352D01*
Y164310D01*
X103376D01*
Y164267D01*
X103461D01*
Y164225D01*
Y164182D01*
X103546D01*
Y164140D01*
Y164097D01*
X103504D01*
Y164055D01*
X103546D01*
Y164012D01*
X103631D01*
Y163970D01*
Y163927D01*
Y163885D01*
Y163843D01*
X103716D01*
Y163800D01*
Y163758D01*
X103801D01*
Y163715D01*
Y163673D01*
Y163630D01*
Y163588D01*
X103885D01*
Y163546D01*
Y163503D01*
Y163461D01*
Y163418D01*
Y163376D01*
X103970D01*
Y163333D01*
Y163291D01*
Y163249D01*
Y163206D01*
X104055D01*
Y163164D01*
Y163121D01*
Y163079D01*
Y163036D01*
X104140D01*
Y162994D01*
Y162951D01*
Y162909D01*
Y162866D01*
X104225D01*
Y162824D01*
X104268D01*
Y162782D01*
X104225D01*
Y162739D01*
Y162697D01*
X104268D01*
Y162654D01*
X104352D01*
Y162612D01*
Y162569D01*
X104310D01*
Y162527D01*
X104352D01*
Y162485D01*
X104437D01*
Y162442D01*
Y162400D01*
Y162357D01*
Y162315D01*
Y162272D01*
Y162230D01*
X104522D01*
Y162188D01*
Y162145D01*
Y162103D01*
Y162060D01*
Y162018D01*
Y161975D01*
X104607D01*
Y161933D01*
Y161890D01*
Y161848D01*
Y161805D01*
Y161763D01*
Y161721D01*
Y161678D01*
X104692D01*
Y161636D01*
Y161593D01*
Y161551D01*
Y161509D01*
Y161466D01*
Y161424D01*
X104777D01*
Y161381D01*
Y161339D01*
Y161296D01*
Y161254D01*
Y161211D01*
Y161169D01*
Y161126D01*
Y161084D01*
X104862D01*
Y161042D01*
Y160999D01*
Y160957D01*
Y160914D01*
Y160872D01*
Y160829D01*
Y160787D01*
Y160745D01*
Y160702D01*
Y160660D01*
Y160617D01*
X104946D01*
Y160575D01*
Y160532D01*
Y160490D01*
Y160448D01*
Y160405D01*
Y160363D01*
Y160320D01*
Y160278D01*
Y160235D01*
Y160193D01*
Y160150D01*
Y160108D01*
Y160065D01*
Y160023D01*
Y159981D01*
X105074D01*
Y159938D01*
X105031D01*
Y159896D01*
Y159853D01*
Y159811D01*
Y159768D01*
Y159726D01*
Y159684D01*
Y159641D01*
Y159599D01*
Y159556D01*
Y159514D01*
Y159471D01*
Y159429D01*
Y159386D01*
Y159344D01*
Y159302D01*
Y159259D01*
Y159217D01*
Y159174D01*
Y159132D01*
Y159089D01*
Y159047D01*
Y159004D01*
Y158962D01*
Y158920D01*
Y158877D01*
Y158835D01*
Y158792D01*
Y158750D01*
Y158707D01*
Y158665D01*
Y158623D01*
Y158580D01*
Y158538D01*
Y158495D01*
Y158453D01*
Y158410D01*
Y158368D01*
Y158326D01*
Y158283D01*
Y158241D01*
Y158198D01*
Y158156D01*
Y158113D01*
Y158071D01*
Y158028D01*
Y157986D01*
Y157943D01*
Y157901D01*
Y157859D01*
X104946D01*
Y157816D01*
Y157774D01*
Y157731D01*
Y157689D01*
Y157646D01*
Y157604D01*
Y157562D01*
Y157519D01*
Y157477D01*
Y157434D01*
Y157392D01*
Y157349D01*
Y157307D01*
Y157264D01*
Y157222D01*
X104862D01*
Y157180D01*
Y157137D01*
Y157095D01*
Y157052D01*
Y157010D01*
Y156967D01*
Y156925D01*
Y156883D01*
Y156840D01*
Y156798D01*
X104777D01*
Y156755D01*
Y156713D01*
Y156670D01*
Y156628D01*
Y156585D01*
Y156543D01*
Y156500D01*
Y156458D01*
Y156416D01*
X104692D01*
Y156373D01*
Y156331D01*
Y156288D01*
Y156246D01*
Y156203D01*
Y156161D01*
X104607D01*
Y156119D01*
Y156076D01*
Y156034D01*
Y155991D01*
Y155949D01*
Y155906D01*
X104522D01*
Y155864D01*
Y155822D01*
Y155779D01*
Y155737D01*
Y155694D01*
Y155652D01*
X104437D01*
Y155609D01*
Y155567D01*
Y155524D01*
Y155482D01*
Y155439D01*
Y155397D01*
Y155355D01*
X104310D01*
Y155312D01*
Y155270D01*
X104352D01*
Y155227D01*
Y155185D01*
X104225D01*
Y155142D01*
Y155100D01*
Y155058D01*
X104268D01*
Y155015D01*
X104140D01*
Y154973D01*
Y154930D01*
Y154888D01*
Y154845D01*
X104098D01*
Y154803D01*
X104055D01*
Y154761D01*
Y154718D01*
Y154676D01*
Y154633D01*
X103970D01*
Y154591D01*
Y154548D01*
Y154506D01*
Y154463D01*
X103885D01*
Y154421D01*
Y154378D01*
Y154336D01*
Y154294D01*
X103801D01*
Y154251D01*
Y154209D01*
Y154166D01*
Y154124D01*
X103716D01*
Y154081D01*
Y154039D01*
Y153997D01*
Y153954D01*
Y153912D01*
X103631D01*
Y153869D01*
Y153827D01*
X103546D01*
Y153784D01*
Y153742D01*
Y153700D01*
Y153657D01*
X103461D01*
Y153615D01*
Y153572D01*
X103334D01*
Y153530D01*
Y153487D01*
Y153445D01*
X103376D01*
Y153402D01*
X103291D01*
Y153360D01*
Y153317D01*
X103207D01*
Y153275D01*
Y153233D01*
X103079D01*
Y153190D01*
Y153148D01*
Y153105D01*
Y153063D01*
Y153020D01*
X102994D01*
Y152978D01*
Y152936D01*
X102909D01*
Y152893D01*
Y152851D01*
X102824D01*
Y152808D01*
Y152766D01*
X102740D01*
Y152723D01*
Y152681D01*
X102612D01*
Y152638D01*
Y152596D01*
X102655D01*
Y152554D01*
Y152511D01*
X102570D01*
Y152469D01*
Y152426D01*
X102485D01*
Y152384D01*
Y152341D01*
X102400D01*
Y152299D01*
Y152257D01*
X102358D01*
Y152214D01*
X102315D01*
Y152172D01*
X102273D01*
Y152129D01*
X102230D01*
Y152087D01*
X102188D01*
Y152044D01*
X102103D01*
Y152002D01*
Y151959D01*
X102018D01*
Y151917D01*
Y151875D01*
X101933D01*
Y151832D01*
Y151790D01*
X101763D01*
Y151747D01*
Y151705D01*
X101679D01*
Y151662D01*
Y151620D01*
X101594D01*
Y151577D01*
Y151535D01*
X101509D01*
Y151493D01*
Y151450D01*
X101466D01*
Y151408D01*
X101424D01*
Y151365D01*
X101382D01*
Y151323D01*
X101212D01*
Y151280D01*
Y151238D01*
X101127D01*
Y151196D01*
Y151153D01*
X101042D01*
Y151111D01*
Y151068D01*
X100872D01*
Y151026D01*
Y150983D01*
X100787D01*
Y150941D01*
Y150898D01*
X100618D01*
Y150856D01*
X100575D01*
Y150814D01*
X100448D01*
Y150771D01*
X100405D01*
Y150729D01*
X100363D01*
Y150686D01*
X100321D01*
Y150644D01*
X100193D01*
Y150601D01*
X100151D01*
Y150559D01*
Y150516D01*
X99981D01*
Y150474D01*
X99939D01*
Y150432D01*
X99811D01*
Y150389D01*
X99769D01*
Y150347D01*
X99599D01*
Y150304D01*
Y150262D01*
X99429D01*
Y150219D01*
Y150177D01*
X99260D01*
Y150135D01*
Y150092D01*
X99005D01*
Y150050D01*
Y150007D01*
X98750D01*
Y149965D01*
X98708D01*
Y149922D01*
X98580D01*
Y149880D01*
X98538D01*
Y149837D01*
X98199D01*
Y149795D01*
Y149753D01*
X98156D01*
Y149710D01*
X97901D01*
Y149668D01*
Y149625D01*
X97562D01*
Y149583D01*
Y149540D01*
X97010D01*
Y149498D01*
Y149455D01*
X96331D01*
Y149413D01*
X96289D01*
Y149371D01*
X94676D01*
Y149413D01*
Y149455D01*
X93954D01*
Y149498D01*
Y149540D01*
X93530D01*
Y149583D01*
Y149625D01*
X93106D01*
Y149668D01*
X93063D01*
Y149710D01*
X92809D01*
Y149753D01*
Y149795D01*
X92766D01*
Y149837D01*
X92554D01*
Y149880D01*
X92512D01*
Y149922D01*
X92257D01*
Y149965D01*
Y150007D01*
X92002D01*
Y150050D01*
Y150092D01*
X91917D01*
Y150135D01*
Y150177D01*
Y150219D01*
Y150262D01*
X92002D01*
Y150304D01*
Y150347D01*
X92172D01*
Y150304D01*
X92215D01*
Y150262D01*
X92469D01*
Y150219D01*
Y150177D01*
X92724D01*
Y150135D01*
Y150092D01*
X92766D01*
Y150050D01*
X93021D01*
Y150007D01*
Y149965D01*
X93275D01*
Y149922D01*
Y149880D01*
X93700D01*
Y149837D01*
X93742D01*
Y149795D01*
X94252D01*
Y149753D01*
Y149710D01*
X96713D01*
Y149753D01*
X96756D01*
Y149795D01*
X97265D01*
Y149837D01*
Y149880D01*
X97689D01*
Y149922D01*
X97732D01*
Y149965D01*
X98071D01*
Y150007D01*
Y150050D01*
X98326D01*
Y150092D01*
Y150135D01*
X98368D01*
Y150177D01*
X98623D01*
Y150219D01*
Y150262D01*
X98878D01*
Y150304D01*
Y150347D01*
X99047D01*
Y150389D01*
Y150432D01*
X99302D01*
Y150474D01*
X99344D01*
Y150516D01*
X99514D01*
Y150559D01*
Y150601D01*
X99684D01*
Y150644D01*
Y150686D01*
X99854D01*
Y150729D01*
Y150771D01*
X100023D01*
Y150814D01*
Y150856D01*
X100108D01*
Y150898D01*
Y150941D01*
X100236D01*
Y150983D01*
X100321D01*
Y151026D01*
Y151068D01*
X100490D01*
Y151111D01*
Y151153D01*
X100575D01*
Y151196D01*
Y151238D01*
X100745D01*
Y151280D01*
Y151323D01*
X100830D01*
Y151365D01*
Y151408D01*
X101000D01*
Y151450D01*
X101042D01*
Y151493D01*
X101084D01*
Y151535D01*
X101127D01*
Y151577D01*
X101169D01*
Y151620D01*
X101212D01*
Y151662D01*
X101254D01*
Y151705D01*
X101297D01*
Y151747D01*
X101424D01*
Y151790D01*
X101466D01*
Y151832D01*
X101509D01*
Y151875D01*
X101551D01*
Y151917D01*
X101594D01*
Y151959D01*
X101636D01*
Y152002D01*
X101679D01*
Y152044D01*
X101721D01*
Y152087D01*
X101763D01*
Y152129D01*
X101806D01*
Y152172D01*
X101848D01*
Y152214D01*
X101891D01*
Y152257D01*
X101933D01*
Y152299D01*
X101976D01*
Y152341D01*
X102018D01*
Y152384D01*
X102103D01*
Y152426D01*
Y152469D01*
X102146D01*
Y152511D01*
X102188D01*
Y152554D01*
X102230D01*
Y152596D01*
X102273D01*
Y152638D01*
X102315D01*
Y152681D01*
X102358D01*
Y152723D01*
X102400D01*
Y152766D01*
X102443D01*
Y152808D01*
X102485D01*
Y152851D01*
X102527D01*
Y152893D01*
X102570D01*
Y152936D01*
X102655D01*
Y152978D01*
Y153020D01*
Y153063D01*
Y153105D01*
X102697D01*
Y153148D01*
X102740D01*
Y153190D01*
X102782D01*
Y153233D01*
X102824D01*
Y153275D01*
X102867D01*
Y153317D01*
X102909D01*
Y153360D01*
X102994D01*
Y153402D01*
Y153445D01*
Y153487D01*
Y153530D01*
Y153572D01*
X103079D01*
Y153615D01*
Y153657D01*
X103207D01*
Y153700D01*
Y153742D01*
X103164D01*
Y153784D01*
Y153827D01*
X103249D01*
Y153869D01*
Y153912D01*
X103376D01*
Y153954D01*
Y153997D01*
Y154039D01*
Y154081D01*
X103419D01*
Y154124D01*
Y154166D01*
X103546D01*
Y154209D01*
Y154251D01*
Y154294D01*
Y154336D01*
Y154378D01*
X103631D01*
Y154421D01*
Y154463D01*
Y154506D01*
Y154548D01*
X103716D01*
Y154591D01*
Y154633D01*
Y154676D01*
Y154718D01*
X103801D01*
Y154761D01*
Y154803D01*
Y154845D01*
Y154888D01*
X103885D01*
Y154930D01*
Y154973D01*
Y155015D01*
Y155058D01*
X103970D01*
Y155100D01*
Y155142D01*
Y155185D01*
Y155227D01*
Y155270D01*
X104098D01*
Y155312D01*
Y155355D01*
Y155397D01*
Y155439D01*
X104055D01*
Y155482D01*
Y155524D01*
X104183D01*
Y155567D01*
Y155609D01*
Y155652D01*
X104140D01*
Y155694D01*
X104268D01*
Y155737D01*
Y155779D01*
Y155822D01*
Y155864D01*
Y155906D01*
Y155949D01*
X104310D01*
Y155991D01*
X104352D01*
Y156034D01*
Y156076D01*
Y156119D01*
Y156161D01*
Y156203D01*
Y156246D01*
X104437D01*
Y156288D01*
Y156331D01*
Y156373D01*
Y156416D01*
Y156458D01*
Y156500D01*
Y156543D01*
Y156585D01*
X104522D01*
Y156628D01*
Y156670D01*
Y156713D01*
Y156755D01*
Y156798D01*
Y156840D01*
Y156883D01*
Y156925D01*
Y156967D01*
X104607D01*
Y157010D01*
Y157052D01*
Y157095D01*
Y157137D01*
Y157180D01*
Y157222D01*
Y157264D01*
Y157307D01*
Y157349D01*
Y157392D01*
Y157434D01*
Y157477D01*
X104692D01*
Y157519D01*
Y157562D01*
Y157604D01*
Y157646D01*
Y157689D01*
Y157731D01*
Y157774D01*
Y157816D01*
Y157859D01*
Y157901D01*
Y157943D01*
Y157986D01*
Y158028D01*
Y158071D01*
Y158113D01*
Y158156D01*
Y158198D01*
Y158241D01*
Y158283D01*
Y158326D01*
Y158368D01*
X104777D01*
Y158410D01*
Y158453D01*
Y158495D01*
Y158538D01*
Y158580D01*
Y158623D01*
Y158665D01*
Y158707D01*
Y158750D01*
Y158792D01*
Y158835D01*
Y158877D01*
Y158920D01*
Y158962D01*
Y159004D01*
Y159047D01*
Y159089D01*
Y159132D01*
Y159174D01*
Y159217D01*
Y159259D01*
Y159302D01*
Y159344D01*
Y159386D01*
Y159429D01*
Y159471D01*
X104692D01*
Y159514D01*
Y159556D01*
Y159599D01*
Y159641D01*
Y159684D01*
Y159726D01*
Y159768D01*
Y159811D01*
Y159853D01*
Y159896D01*
Y159938D01*
Y159981D01*
Y160023D01*
Y160065D01*
Y160108D01*
Y160150D01*
Y160193D01*
Y160235D01*
Y160278D01*
Y160320D01*
Y160363D01*
X104607D01*
Y160405D01*
Y160448D01*
Y160490D01*
Y160532D01*
Y160575D01*
Y160617D01*
Y160660D01*
Y160702D01*
Y160745D01*
Y160787D01*
Y160829D01*
Y160872D01*
Y160914D01*
X104522D01*
Y160957D01*
Y160999D01*
Y161042D01*
Y161084D01*
Y161126D01*
Y161169D01*
Y161211D01*
Y161254D01*
X104437D01*
Y161296D01*
Y161339D01*
Y161381D01*
Y161424D01*
Y161466D01*
Y161509D01*
Y161551D01*
X104352D01*
Y161593D01*
Y161636D01*
Y161678D01*
Y161721D01*
Y161763D01*
Y161805D01*
Y161848D01*
Y161890D01*
X104268D01*
Y161933D01*
Y161975D01*
Y162018D01*
Y162060D01*
Y162103D01*
Y162145D01*
X104183D01*
Y162188D01*
X104140D01*
Y162230D01*
X104183D01*
Y162272D01*
Y162315D01*
X104140D01*
Y162357D01*
X104055D01*
Y162400D01*
X104098D01*
Y162442D01*
Y162485D01*
Y162527D01*
Y162569D01*
Y162612D01*
X103970D01*
Y162654D01*
Y162697D01*
Y162739D01*
Y162782D01*
X103885D01*
Y162824D01*
Y162866D01*
Y162909D01*
Y162951D01*
X103801D01*
Y162994D01*
Y163036D01*
Y163079D01*
Y163121D01*
X103716D01*
Y163164D01*
Y163206D01*
Y163249D01*
Y163291D01*
Y163333D01*
X103631D01*
Y163376D01*
Y163418D01*
Y163461D01*
Y163503D01*
X103546D01*
Y163546D01*
Y163588D01*
Y163630D01*
Y163673D01*
X103461D01*
Y163715D01*
X103419D01*
Y163758D01*
X103376D01*
Y163800D01*
Y163843D01*
Y163885D01*
Y163927D01*
X103291D01*
Y163970D01*
X103249D01*
Y164012D01*
X103207D01*
Y164055D01*
X103164D01*
Y164097D01*
Y164140D01*
X103207D01*
Y164182D01*
X103164D01*
Y164225D01*
X103079D01*
Y164267D01*
Y164310D01*
X102994D01*
Y164352D01*
Y164394D01*
Y164437D01*
Y164479D01*
X102909D01*
Y164522D01*
Y164564D01*
X102824D01*
Y164607D01*
Y164649D01*
X102740D01*
Y164691D01*
Y164734D01*
Y164776D01*
Y164819D01*
X102697D01*
Y164861D01*
X102612D01*
Y164904D01*
X102570D01*
Y164946D01*
X102527D01*
Y164989D01*
X102612D01*
Y165031D01*
Y165073D01*
X102697D01*
Y165116D01*
Y165158D01*
X102740D01*
Y165116D01*
D02*
G37*
G36*
X194554Y227012D02*
X194561D01*
X194569Y227027D01*
X194615Y227058D01*
X194677Y227104D01*
X194761Y227158D01*
X194853Y227227D01*
X194961Y227289D01*
X195076Y227350D01*
X195183Y227396D01*
X195199Y227404D01*
X195237Y227419D01*
X195291Y227434D01*
X195368Y227457D01*
X195468Y227481D01*
X195567Y227503D01*
X195683Y227511D01*
X195806Y227519D01*
X195882D01*
X195959Y227503D01*
X196067Y227488D01*
X196174Y227457D01*
X196297Y227411D01*
X196412Y227342D01*
X196512Y227258D01*
X196520Y227242D01*
X196551Y227212D01*
X196597Y227150D01*
X196643Y227073D01*
X196689Y226981D01*
X196735Y226866D01*
X196765Y226728D01*
X196773Y226582D01*
Y226574D01*
Y226543D01*
X196765Y226490D01*
X196758Y226413D01*
X196750Y226321D01*
X196735Y226198D01*
X196704Y226060D01*
X196673Y225898D01*
X196213Y223771D01*
X195237D01*
X195706Y225944D01*
Y225952D01*
Y225960D01*
X195713Y225998D01*
X195729Y226060D01*
X195744Y226136D01*
X195752Y226213D01*
X195767Y226282D01*
X195775Y226351D01*
X195782Y226398D01*
Y226405D01*
Y226428D01*
X195775Y226459D01*
X195767Y226505D01*
X195752Y226551D01*
X195736Y226605D01*
X195706Y226651D01*
X195667Y226697D01*
X195660Y226705D01*
X195644Y226712D01*
X195621Y226735D01*
X195583Y226759D01*
X195537Y226774D01*
X195483Y226797D01*
X195422Y226805D01*
X195352Y226812D01*
X195306D01*
X195260Y226805D01*
X195199Y226789D01*
X195122Y226766D01*
X195045Y226735D01*
X194953Y226697D01*
X194869Y226636D01*
X194853Y226628D01*
X194815Y226597D01*
X194761Y226543D01*
X194700Y226482D01*
X194623Y226398D01*
X194546Y226305D01*
X194469Y226198D01*
X194408Y226075D01*
Y226067D01*
X194392Y226037D01*
X194377Y225983D01*
X194362Y225944D01*
X194346Y225898D01*
X194331Y225845D01*
X194316Y225783D01*
X194293Y225714D01*
X194277Y225637D01*
X194254Y225545D01*
X194231Y225445D01*
X194200Y225338D01*
X194177Y225215D01*
X193878Y223771D01*
X192903D01*
X193947Y228817D01*
X194930D01*
X194554Y227012D01*
D02*
G37*
G36*
X202464Y223771D02*
X201489D01*
X202249Y227427D01*
X203224D01*
X202464Y223771D01*
D02*
G37*
G36*
X190898Y226835D02*
X192557Y223771D01*
X191382D01*
X190138Y226175D01*
X189147Y225299D01*
X188824Y223771D01*
X187795D01*
X188840Y228817D01*
X189877D01*
X189431Y226659D01*
X191766Y228817D01*
X193156D01*
X190898Y226835D01*
D02*
G37*
G36*
X117127Y153233D02*
Y153190D01*
X117084D01*
Y153148D01*
Y153105D01*
Y153063D01*
Y153020D01*
Y152978D01*
Y152936D01*
Y152893D01*
Y152851D01*
Y152808D01*
Y152766D01*
Y152723D01*
Y152681D01*
Y152638D01*
Y152596D01*
Y152554D01*
Y152511D01*
Y152469D01*
Y152426D01*
Y152384D01*
Y152341D01*
Y152299D01*
Y152257D01*
Y152214D01*
Y152172D01*
Y152129D01*
Y152087D01*
Y152044D01*
Y152002D01*
Y151959D01*
Y151917D01*
Y151875D01*
Y151832D01*
Y151790D01*
Y151747D01*
Y151705D01*
Y151662D01*
Y151620D01*
Y151577D01*
Y151535D01*
Y151493D01*
Y151450D01*
Y151408D01*
Y151365D01*
Y151323D01*
X117127D01*
Y151280D01*
Y151238D01*
X116999D01*
Y151196D01*
Y151153D01*
X117042D01*
Y151111D01*
Y151068D01*
X116915D01*
Y151026D01*
Y150983D01*
Y150941D01*
Y150898D01*
X116787D01*
Y150856D01*
X116745D01*
Y150814D01*
X116702D01*
Y150771D01*
X116660D01*
Y150729D01*
X116448D01*
Y150686D01*
X116405D01*
Y150644D01*
X116023D01*
Y150686D01*
X115981D01*
Y150729D01*
X115769D01*
Y150771D01*
Y150814D01*
X115684D01*
Y150856D01*
X115641D01*
Y150898D01*
X115599D01*
Y150941D01*
X115557D01*
Y150983D01*
X115514D01*
Y151026D01*
X115472D01*
Y151068D01*
X115429D01*
Y151111D01*
Y151153D01*
Y151196D01*
Y151238D01*
X115344D01*
Y151280D01*
Y151323D01*
Y151365D01*
Y151408D01*
Y151450D01*
Y151493D01*
Y151535D01*
Y151577D01*
Y151620D01*
Y151662D01*
Y151705D01*
Y151747D01*
Y151790D01*
Y151832D01*
Y151875D01*
Y151917D01*
Y151959D01*
Y152002D01*
Y152044D01*
Y152087D01*
Y152129D01*
Y152172D01*
Y152214D01*
Y152257D01*
Y152299D01*
Y152341D01*
Y152384D01*
Y152426D01*
Y152469D01*
Y152511D01*
Y152554D01*
Y152596D01*
Y152638D01*
Y152681D01*
Y152723D01*
Y152766D01*
Y152808D01*
Y152851D01*
Y152893D01*
Y152936D01*
Y152978D01*
Y153020D01*
Y153063D01*
Y153105D01*
Y153148D01*
Y153190D01*
Y153233D01*
Y153275D01*
X115514D01*
Y153233D01*
Y153190D01*
Y153148D01*
Y153105D01*
Y153063D01*
Y153020D01*
Y152978D01*
Y152936D01*
Y152893D01*
Y152851D01*
Y152808D01*
Y152766D01*
Y152723D01*
Y152681D01*
Y152638D01*
Y152596D01*
Y152554D01*
Y152511D01*
Y152469D01*
Y152426D01*
Y152384D01*
Y152341D01*
Y152299D01*
Y152257D01*
Y152214D01*
Y152172D01*
Y152129D01*
Y152087D01*
Y152044D01*
Y152002D01*
Y151959D01*
Y151917D01*
Y151875D01*
Y151832D01*
Y151790D01*
Y151747D01*
Y151705D01*
Y151662D01*
Y151620D01*
Y151577D01*
Y151535D01*
Y151493D01*
Y151450D01*
Y151408D01*
Y151365D01*
Y151323D01*
Y151280D01*
Y151238D01*
X115599D01*
Y151196D01*
Y151153D01*
Y151111D01*
Y151068D01*
X115684D01*
Y151026D01*
Y150983D01*
X115769D01*
Y150941D01*
Y150898D01*
X115811D01*
Y150856D01*
X115981D01*
Y150814D01*
Y150771D01*
X116448D01*
Y150814D01*
X116490D01*
Y150856D01*
X116618D01*
Y150898D01*
X116660D01*
Y150941D01*
X116702D01*
Y150983D01*
X116745D01*
Y151026D01*
Y151068D01*
X116830D01*
Y151111D01*
Y151153D01*
X116957D01*
Y151196D01*
Y151238D01*
Y151280D01*
Y151323D01*
Y151365D01*
Y151408D01*
Y151450D01*
Y151493D01*
Y151535D01*
Y151577D01*
Y151620D01*
Y151662D01*
Y151705D01*
Y151747D01*
Y151790D01*
Y151832D01*
Y151875D01*
Y151917D01*
Y151959D01*
Y152002D01*
Y152044D01*
Y152087D01*
Y152129D01*
Y152172D01*
Y152214D01*
Y152257D01*
Y152299D01*
Y152341D01*
Y152384D01*
Y152426D01*
Y152469D01*
Y152511D01*
Y152554D01*
Y152596D01*
Y152638D01*
Y152681D01*
Y152723D01*
Y152766D01*
Y152808D01*
Y152851D01*
Y152893D01*
Y152936D01*
Y152978D01*
Y153020D01*
Y153063D01*
Y153105D01*
Y153148D01*
Y153190D01*
Y153233D01*
X116915D01*
Y153275D01*
X117127D01*
Y153233D01*
D02*
G37*
G36*
X143991Y162188D02*
Y162145D01*
Y162103D01*
Y162060D01*
Y162018D01*
Y161975D01*
X144076D01*
Y161933D01*
Y161890D01*
Y161848D01*
Y161805D01*
Y161763D01*
X144161D01*
Y161721D01*
Y161678D01*
Y161636D01*
Y161593D01*
X144289D01*
Y161551D01*
X144246D01*
Y161509D01*
Y161466D01*
Y161424D01*
Y161381D01*
Y161339D01*
X144373D01*
Y161296D01*
Y161254D01*
X144331D01*
Y161211D01*
Y161169D01*
X144458D01*
Y161126D01*
Y161084D01*
Y161042D01*
Y160999D01*
Y160957D01*
X144543D01*
Y160914D01*
Y160872D01*
Y160829D01*
Y160787D01*
Y160745D01*
Y160702D01*
X144628D01*
Y160660D01*
Y160617D01*
Y160575D01*
Y160532D01*
X144713D01*
Y160490D01*
Y160448D01*
Y160405D01*
Y160363D01*
X144798D01*
Y160320D01*
Y160278D01*
Y160235D01*
Y160193D01*
X144840D01*
Y160150D01*
X144883D01*
Y160108D01*
Y160065D01*
Y160023D01*
Y159981D01*
Y159938D01*
Y159896D01*
X144967D01*
Y159853D01*
Y159811D01*
Y159768D01*
Y159726D01*
X145095D01*
Y159684D01*
X145052D01*
Y159641D01*
Y159599D01*
Y159556D01*
X145180D01*
Y159514D01*
Y159471D01*
X145137D01*
Y159429D01*
Y159386D01*
Y159344D01*
Y159302D01*
X145180D01*
Y159259D01*
X145265D01*
Y159217D01*
Y159174D01*
Y159132D01*
Y159089D01*
X145350D01*
Y159047D01*
Y159004D01*
Y158962D01*
Y158920D01*
X145434D01*
Y158877D01*
Y158835D01*
Y158792D01*
Y158750D01*
Y158707D01*
Y158665D01*
X145519D01*
Y158623D01*
Y158580D01*
Y158538D01*
Y158495D01*
Y158453D01*
X145604D01*
Y158410D01*
Y158368D01*
Y158326D01*
Y158283D01*
X145689D01*
Y158241D01*
Y158198D01*
Y158156D01*
Y158113D01*
X145774D01*
Y158071D01*
Y158028D01*
Y157986D01*
Y157943D01*
Y157901D01*
Y157859D01*
X145859D01*
Y157816D01*
Y157774D01*
Y157731D01*
Y157689D01*
X145901D01*
Y157646D01*
X145986D01*
Y157604D01*
Y157562D01*
Y157519D01*
X145137D01*
Y157562D01*
Y157604D01*
X145095D01*
Y157646D01*
Y157689D01*
Y157731D01*
Y157774D01*
Y157816D01*
Y157859D01*
X145010D01*
Y157901D01*
X144967D01*
Y157943D01*
X145010D01*
Y157986D01*
Y158028D01*
X144925D01*
Y158071D01*
X144883D01*
Y158113D01*
X144925D01*
Y158156D01*
Y158198D01*
X144883D01*
Y158241D01*
X144798D01*
Y158283D01*
Y158326D01*
Y158368D01*
Y158410D01*
Y158453D01*
Y158495D01*
X144713D01*
Y158538D01*
Y158580D01*
Y158623D01*
Y158665D01*
X144628D01*
Y158707D01*
Y158750D01*
X144543D01*
Y158792D01*
Y158835D01*
X143015D01*
Y158877D01*
Y158920D01*
X143100D01*
Y158962D01*
Y159004D01*
Y159047D01*
Y159089D01*
X143185D01*
Y159132D01*
X143228D01*
Y159174D01*
Y159217D01*
Y159259D01*
Y159302D01*
X143185D01*
Y159344D01*
X143228D01*
Y159386D01*
X143270D01*
Y159429D01*
X143312D01*
Y159471D01*
X144289D01*
Y159514D01*
Y159556D01*
Y159599D01*
Y159641D01*
Y159684D01*
Y159726D01*
X144204D01*
Y159768D01*
X144161D01*
Y159811D01*
X144204D01*
Y159853D01*
Y159896D01*
Y159938D01*
Y159981D01*
Y160023D01*
X144076D01*
Y160065D01*
X144119D01*
Y160108D01*
Y160150D01*
Y160193D01*
X143991D01*
Y160235D01*
Y160278D01*
X144034D01*
Y160320D01*
X143991D01*
Y160363D01*
X143906D01*
Y160405D01*
Y160448D01*
Y160490D01*
Y160532D01*
Y160575D01*
Y160617D01*
X143864D01*
Y160660D01*
X143822D01*
Y160702D01*
Y160745D01*
Y160787D01*
Y160829D01*
X143737D01*
Y160872D01*
Y160914D01*
Y160957D01*
Y160999D01*
X143652D01*
Y161042D01*
Y161084D01*
Y161126D01*
Y161169D01*
Y161211D01*
Y161254D01*
X143567D01*
Y161296D01*
Y161339D01*
X143397D01*
Y161296D01*
X143355D01*
Y161254D01*
X143270D01*
Y161211D01*
Y161169D01*
Y161126D01*
Y161084D01*
Y161042D01*
Y160999D01*
X143185D01*
Y160957D01*
Y160914D01*
Y160872D01*
Y160829D01*
X143100D01*
Y160787D01*
Y160745D01*
Y160702D01*
Y160660D01*
X143058D01*
Y160617D01*
X143015D01*
Y160575D01*
Y160532D01*
Y160490D01*
Y160448D01*
Y160405D01*
Y160363D01*
X142930D01*
Y160320D01*
Y160278D01*
Y160235D01*
Y160193D01*
X142845D01*
Y160150D01*
Y160108D01*
Y160065D01*
Y160023D01*
Y159981D01*
Y159938D01*
X142761D01*
Y159896D01*
Y159853D01*
Y159811D01*
Y159768D01*
Y159726D01*
X142633D01*
Y159684D01*
Y159641D01*
Y159599D01*
Y159556D01*
X142676D01*
Y159514D01*
Y159471D01*
X142548D01*
Y159429D01*
Y159386D01*
X142591D01*
Y159344D01*
Y159302D01*
X142464D01*
Y159259D01*
Y159217D01*
Y159174D01*
Y159132D01*
Y159089D01*
X142506D01*
Y159047D01*
X142379D01*
Y159004D01*
Y158962D01*
Y158920D01*
Y158877D01*
Y158835D01*
X142294D01*
Y158792D01*
Y158750D01*
Y158707D01*
Y158665D01*
Y158623D01*
Y158580D01*
X142209D01*
Y158538D01*
Y158495D01*
Y158453D01*
Y158410D01*
X142124D01*
Y158368D01*
Y158326D01*
Y158283D01*
Y158241D01*
X142039D01*
Y158198D01*
Y158156D01*
Y158113D01*
Y158071D01*
Y158028D01*
Y157986D01*
Y157943D01*
X141954D01*
Y157901D01*
Y157859D01*
Y157816D01*
Y157774D01*
Y157731D01*
Y157689D01*
X141869D01*
Y157646D01*
Y157604D01*
Y157562D01*
Y157519D01*
X141021D01*
Y157562D01*
X141063D01*
Y157604D01*
Y157646D01*
X141105D01*
Y157689D01*
X141148D01*
Y157731D01*
Y157774D01*
Y157816D01*
Y157859D01*
X141233D01*
Y157901D01*
Y157943D01*
Y157986D01*
Y158028D01*
Y158071D01*
Y158113D01*
X141318D01*
Y158156D01*
Y158198D01*
Y158241D01*
Y158283D01*
X141403D01*
Y158326D01*
Y158368D01*
Y158410D01*
Y158453D01*
Y158495D01*
Y158538D01*
Y158580D01*
X141530D01*
Y158623D01*
Y158665D01*
X141487D01*
Y158707D01*
Y158750D01*
X141615D01*
Y158792D01*
Y158835D01*
Y158877D01*
X141572D01*
Y158920D01*
X141700D01*
Y158962D01*
Y159004D01*
Y159047D01*
Y159089D01*
Y159132D01*
Y159174D01*
X141785D01*
Y159217D01*
Y159259D01*
Y159302D01*
Y159344D01*
Y159386D01*
X141869D01*
Y159429D01*
Y159471D01*
Y159514D01*
Y159556D01*
X141954D01*
Y159599D01*
Y159641D01*
Y159684D01*
Y159726D01*
Y159768D01*
Y159811D01*
X142039D01*
Y159853D01*
Y159896D01*
Y159938D01*
Y159981D01*
X142124D01*
Y160023D01*
Y160065D01*
Y160108D01*
Y160150D01*
X142209D01*
Y160193D01*
Y160235D01*
Y160278D01*
Y160320D01*
Y160363D01*
Y160405D01*
Y160448D01*
X142294D01*
Y160490D01*
X142336D01*
Y160532D01*
X142294D01*
Y160575D01*
Y160617D01*
X142421D01*
Y160660D01*
Y160702D01*
Y160745D01*
X142379D01*
Y160787D01*
X142506D01*
Y160829D01*
Y160872D01*
Y160914D01*
Y160957D01*
Y160999D01*
X142464D01*
Y161042D01*
X142506D01*
Y161084D01*
X142591D01*
Y161126D01*
Y161169D01*
Y161211D01*
Y161254D01*
X142676D01*
Y161296D01*
Y161339D01*
Y161381D01*
Y161424D01*
X142761D01*
Y161466D01*
Y161509D01*
Y161551D01*
Y161593D01*
Y161636D01*
Y161678D01*
X142845D01*
Y161721D01*
Y161763D01*
Y161805D01*
Y161848D01*
Y161890D01*
X142930D01*
Y161933D01*
Y161975D01*
Y162018D01*
Y162060D01*
Y162103D01*
Y162145D01*
X143015D01*
Y162188D01*
Y162230D01*
X143991D01*
Y162188D01*
D02*
G37*
G36*
X155365D02*
Y162145D01*
X155323D01*
Y162103D01*
Y162060D01*
Y162018D01*
Y161975D01*
Y161933D01*
Y161890D01*
Y161848D01*
Y161805D01*
Y161763D01*
Y161721D01*
Y161678D01*
X155365D01*
Y161636D01*
X153922D01*
Y161593D01*
Y161551D01*
Y161509D01*
Y161466D01*
Y161424D01*
Y161381D01*
Y161339D01*
Y161296D01*
Y161254D01*
Y161211D01*
Y161169D01*
Y161126D01*
Y161084D01*
Y161042D01*
Y160999D01*
Y160957D01*
Y160914D01*
Y160872D01*
Y160829D01*
Y160787D01*
Y160745D01*
Y160702D01*
Y160660D01*
Y160617D01*
Y160575D01*
Y160532D01*
Y160490D01*
Y160448D01*
Y160405D01*
Y160363D01*
Y160320D01*
Y160278D01*
Y160235D01*
Y160193D01*
Y160150D01*
Y160108D01*
Y160065D01*
Y160023D01*
Y159981D01*
Y159938D01*
Y159896D01*
Y159853D01*
Y159811D01*
Y159768D01*
Y159726D01*
Y159684D01*
Y159641D01*
Y159599D01*
Y159556D01*
Y159514D01*
Y159471D01*
Y159429D01*
Y159386D01*
Y159344D01*
Y159302D01*
Y159259D01*
Y159217D01*
Y159174D01*
Y159132D01*
Y159089D01*
Y159047D01*
Y159004D01*
Y158962D01*
Y158920D01*
Y158877D01*
Y158835D01*
Y158792D01*
Y158750D01*
Y158707D01*
Y158665D01*
Y158623D01*
Y158580D01*
Y158538D01*
Y158495D01*
Y158453D01*
Y158410D01*
Y158368D01*
Y158326D01*
Y158283D01*
Y158241D01*
Y158198D01*
Y158156D01*
Y158113D01*
Y158071D01*
Y158028D01*
Y157986D01*
Y157943D01*
Y157901D01*
Y157859D01*
Y157816D01*
Y157774D01*
Y157731D01*
Y157689D01*
Y157646D01*
Y157604D01*
Y157562D01*
Y157519D01*
X153116D01*
Y157562D01*
Y157604D01*
Y157646D01*
Y157689D01*
Y157731D01*
Y157774D01*
Y157816D01*
Y157859D01*
Y157901D01*
Y157943D01*
Y157986D01*
Y158028D01*
Y158071D01*
Y158113D01*
Y158156D01*
Y158198D01*
Y158241D01*
Y158283D01*
Y158326D01*
Y158368D01*
Y158410D01*
Y158453D01*
Y158495D01*
Y158538D01*
Y158580D01*
Y158623D01*
Y158665D01*
Y158707D01*
Y158750D01*
Y158792D01*
Y158835D01*
Y158877D01*
Y158920D01*
Y158962D01*
Y159004D01*
Y159047D01*
Y159089D01*
Y159132D01*
Y159174D01*
Y159217D01*
Y159259D01*
Y159302D01*
Y159344D01*
Y159386D01*
Y159429D01*
Y159471D01*
Y159514D01*
Y159556D01*
Y159599D01*
Y159641D01*
Y159684D01*
Y159726D01*
Y159768D01*
Y159811D01*
Y159853D01*
Y159896D01*
Y159938D01*
Y159981D01*
Y160023D01*
Y160065D01*
Y160108D01*
Y160150D01*
Y160193D01*
Y160235D01*
Y160278D01*
Y160320D01*
Y160363D01*
Y160405D01*
Y160448D01*
Y160490D01*
Y160532D01*
Y160575D01*
Y160617D01*
Y160660D01*
Y160702D01*
Y160745D01*
Y160787D01*
Y160829D01*
Y160872D01*
Y160914D01*
Y160957D01*
Y160999D01*
Y161042D01*
Y161084D01*
Y161126D01*
Y161169D01*
Y161211D01*
Y161254D01*
Y161296D01*
Y161339D01*
Y161381D01*
Y161424D01*
Y161466D01*
Y161509D01*
Y161551D01*
X153031D01*
Y161593D01*
X152989D01*
Y161636D01*
X151673D01*
Y161678D01*
Y161721D01*
X151716D01*
Y161763D01*
Y161805D01*
Y161848D01*
Y161890D01*
Y161933D01*
Y161975D01*
Y162018D01*
Y162060D01*
Y162103D01*
Y162145D01*
X151673D01*
Y162188D01*
Y162230D01*
X155365D01*
Y162188D01*
D02*
G37*
G36*
X129095D02*
Y162145D01*
Y162103D01*
Y162060D01*
Y162018D01*
Y161975D01*
Y161933D01*
Y161890D01*
Y161848D01*
Y161805D01*
Y161763D01*
Y161721D01*
Y161678D01*
Y161636D01*
Y161593D01*
Y161551D01*
Y161509D01*
Y161466D01*
Y161424D01*
Y161381D01*
Y161339D01*
Y161296D01*
Y161254D01*
Y161211D01*
Y161169D01*
Y161126D01*
Y161084D01*
Y161042D01*
Y160999D01*
Y160957D01*
Y160914D01*
Y160872D01*
Y160829D01*
Y160787D01*
Y160745D01*
Y160702D01*
Y160660D01*
Y160617D01*
Y160575D01*
Y160532D01*
Y160490D01*
Y160448D01*
Y160405D01*
Y160363D01*
Y160320D01*
Y160278D01*
Y160235D01*
Y160193D01*
Y160150D01*
Y160108D01*
Y160065D01*
Y160023D01*
Y159981D01*
Y159938D01*
Y159896D01*
Y159853D01*
Y159811D01*
Y159768D01*
Y159726D01*
Y159684D01*
Y159641D01*
Y159599D01*
Y159556D01*
Y159514D01*
Y159471D01*
Y159429D01*
Y159386D01*
Y159344D01*
Y159302D01*
Y159259D01*
Y159217D01*
Y159174D01*
Y159132D01*
Y159089D01*
Y159047D01*
Y159004D01*
Y158962D01*
Y158920D01*
Y158877D01*
Y158835D01*
Y158792D01*
Y158750D01*
Y158707D01*
Y158665D01*
Y158623D01*
Y158580D01*
Y158538D01*
Y158495D01*
Y158453D01*
Y158410D01*
Y158368D01*
Y158326D01*
Y158283D01*
Y158241D01*
Y158198D01*
Y158156D01*
Y158113D01*
Y158071D01*
Y158028D01*
Y157986D01*
Y157943D01*
Y157901D01*
Y157859D01*
Y157816D01*
Y157774D01*
Y157731D01*
Y157689D01*
Y157646D01*
Y157604D01*
Y157562D01*
Y157519D01*
X128374D01*
Y157562D01*
Y157604D01*
Y157646D01*
Y157689D01*
Y157731D01*
Y157774D01*
Y157816D01*
Y157859D01*
Y157901D01*
Y157943D01*
Y157986D01*
Y158028D01*
Y158071D01*
Y158113D01*
Y158156D01*
Y158198D01*
Y158241D01*
Y158283D01*
Y158326D01*
Y158368D01*
Y158410D01*
Y158453D01*
Y158495D01*
Y158538D01*
Y158580D01*
Y158623D01*
Y158665D01*
Y158707D01*
Y158750D01*
Y158792D01*
Y158835D01*
Y158877D01*
Y158920D01*
Y158962D01*
Y159004D01*
Y159047D01*
Y159089D01*
Y159132D01*
Y159174D01*
Y159217D01*
Y159259D01*
Y159302D01*
Y159344D01*
Y159386D01*
Y159429D01*
Y159471D01*
Y159514D01*
Y159556D01*
Y159599D01*
Y159641D01*
Y159684D01*
Y159726D01*
Y159768D01*
Y159811D01*
Y159853D01*
Y159896D01*
Y159938D01*
Y159981D01*
Y160023D01*
Y160065D01*
Y160108D01*
Y160150D01*
Y160193D01*
Y160235D01*
Y160278D01*
Y160320D01*
Y160363D01*
Y160405D01*
Y160448D01*
Y160490D01*
Y160532D01*
Y160575D01*
Y160617D01*
Y160660D01*
Y160702D01*
Y160745D01*
X128204D01*
Y160702D01*
X128161D01*
Y160660D01*
Y160617D01*
X128204D01*
Y160575D01*
X128161D01*
Y160532D01*
X128076D01*
Y160490D01*
Y160448D01*
X128119D01*
Y160405D01*
Y160363D01*
X127991D01*
Y160320D01*
Y160278D01*
Y160235D01*
Y160193D01*
Y160150D01*
X128034D01*
Y160108D01*
X127907D01*
Y160065D01*
Y160023D01*
Y159981D01*
Y159938D01*
Y159896D01*
Y159853D01*
X127864D01*
Y159811D01*
X127822D01*
Y159768D01*
Y159726D01*
Y159684D01*
Y159641D01*
X127737D01*
Y159599D01*
Y159556D01*
Y159514D01*
Y159471D01*
Y159429D01*
Y159386D01*
X127652D01*
Y159344D01*
Y159302D01*
Y159259D01*
Y159217D01*
X127567D01*
Y159174D01*
Y159132D01*
Y159089D01*
Y159047D01*
Y159004D01*
Y158962D01*
Y158920D01*
X127482D01*
Y158877D01*
Y158835D01*
Y158792D01*
Y158750D01*
X127397D01*
Y158707D01*
Y158665D01*
Y158623D01*
Y158580D01*
Y158538D01*
Y158495D01*
X127270D01*
Y158453D01*
Y158410D01*
Y158368D01*
Y158326D01*
Y158283D01*
X127312D01*
Y158241D01*
X127228D01*
Y158198D01*
X127185D01*
Y158156D01*
Y158113D01*
X127228D01*
Y158071D01*
X127185D01*
Y158028D01*
X127100D01*
Y157986D01*
Y157943D01*
Y157901D01*
Y157859D01*
Y157816D01*
Y157774D01*
X127015D01*
Y157731D01*
Y157689D01*
Y157646D01*
Y157604D01*
X126973D01*
Y157562D01*
X126930D01*
Y157519D01*
X126209D01*
Y157562D01*
X126251D01*
Y157604D01*
Y157646D01*
Y157689D01*
X126124D01*
Y157731D01*
Y157774D01*
X126167D01*
Y157816D01*
Y157859D01*
Y157901D01*
Y157943D01*
X126039D01*
Y157986D01*
Y158028D01*
Y158071D01*
Y158113D01*
X125997D01*
Y158156D01*
X125954D01*
Y158198D01*
Y158241D01*
Y158283D01*
Y158326D01*
Y158368D01*
Y158410D01*
X125870D01*
Y158453D01*
Y158495D01*
Y158538D01*
Y158580D01*
X125785D01*
Y158623D01*
Y158665D01*
Y158707D01*
Y158750D01*
Y158792D01*
Y158835D01*
X125700D01*
Y158877D01*
Y158920D01*
Y158962D01*
Y159004D01*
Y159047D01*
X125615D01*
Y159089D01*
Y159132D01*
Y159174D01*
Y159217D01*
Y159259D01*
Y159302D01*
X125530D01*
Y159344D01*
Y159386D01*
Y159429D01*
Y159471D01*
X125403D01*
Y159514D01*
Y159556D01*
X125445D01*
Y159599D01*
Y159641D01*
Y159684D01*
Y159726D01*
X125360D01*
Y159768D01*
X125318D01*
Y159811D01*
X125360D01*
Y159853D01*
Y159896D01*
X125318D01*
Y159938D01*
X125233D01*
Y159981D01*
Y160023D01*
Y160065D01*
Y160108D01*
Y160150D01*
Y160193D01*
X125148D01*
Y160235D01*
Y160278D01*
Y160320D01*
Y160363D01*
X125063D01*
Y160405D01*
Y160448D01*
Y160490D01*
Y160532D01*
Y160575D01*
Y160617D01*
X125021D01*
Y160660D01*
X124978D01*
Y160702D01*
X124936D01*
Y160745D01*
X124809D01*
Y160702D01*
X124766D01*
Y160660D01*
Y160617D01*
Y160575D01*
Y160532D01*
Y160490D01*
Y160448D01*
Y160405D01*
Y160363D01*
Y160320D01*
Y160278D01*
Y160235D01*
Y160193D01*
Y160150D01*
Y160108D01*
Y160065D01*
Y160023D01*
Y159981D01*
Y159938D01*
Y159896D01*
Y159853D01*
Y159811D01*
Y159768D01*
Y159726D01*
Y159684D01*
Y159641D01*
Y159599D01*
Y159556D01*
Y159514D01*
Y159471D01*
Y159429D01*
Y159386D01*
Y159344D01*
Y159302D01*
Y159259D01*
Y159217D01*
Y159174D01*
Y159132D01*
Y159089D01*
Y159047D01*
Y159004D01*
Y158962D01*
Y158920D01*
Y158877D01*
Y158835D01*
Y158792D01*
Y158750D01*
Y158707D01*
Y158665D01*
Y158623D01*
Y158580D01*
Y158538D01*
Y158495D01*
Y158453D01*
Y158410D01*
Y158368D01*
Y158326D01*
Y158283D01*
Y158241D01*
Y158198D01*
Y158156D01*
Y158113D01*
Y158071D01*
Y158028D01*
Y157986D01*
Y157943D01*
Y157901D01*
Y157859D01*
Y157816D01*
Y157774D01*
Y157731D01*
Y157689D01*
Y157646D01*
Y157604D01*
X124809D01*
Y157562D01*
Y157519D01*
X124087D01*
Y157562D01*
Y157604D01*
Y157646D01*
Y157689D01*
Y157731D01*
Y157774D01*
Y157816D01*
Y157859D01*
Y157901D01*
Y157943D01*
Y157986D01*
Y158028D01*
Y158071D01*
Y158113D01*
Y158156D01*
Y158198D01*
Y158241D01*
Y158283D01*
Y158326D01*
Y158368D01*
Y158410D01*
Y158453D01*
Y158495D01*
Y158538D01*
Y158580D01*
Y158623D01*
Y158665D01*
Y158707D01*
Y158750D01*
Y158792D01*
Y158835D01*
Y158877D01*
Y158920D01*
Y158962D01*
Y159004D01*
Y159047D01*
Y159089D01*
Y159132D01*
Y159174D01*
Y159217D01*
Y159259D01*
Y159302D01*
Y159344D01*
Y159386D01*
Y159429D01*
Y159471D01*
Y159514D01*
Y159556D01*
Y159599D01*
Y159641D01*
Y159684D01*
Y159726D01*
Y159768D01*
Y159811D01*
Y159853D01*
Y159896D01*
Y159938D01*
Y159981D01*
Y160023D01*
Y160065D01*
Y160108D01*
Y160150D01*
Y160193D01*
Y160235D01*
Y160278D01*
Y160320D01*
Y160363D01*
Y160405D01*
Y160448D01*
Y160490D01*
Y160532D01*
Y160575D01*
Y160617D01*
Y160660D01*
Y160702D01*
Y160745D01*
Y160787D01*
Y160829D01*
Y160872D01*
Y160914D01*
Y160957D01*
Y160999D01*
Y161042D01*
Y161084D01*
Y161126D01*
Y161169D01*
Y161211D01*
Y161254D01*
Y161296D01*
Y161339D01*
Y161381D01*
Y161424D01*
Y161466D01*
Y161509D01*
Y161551D01*
Y161593D01*
Y161636D01*
Y161678D01*
Y161721D01*
Y161763D01*
Y161805D01*
Y161848D01*
Y161890D01*
Y161933D01*
Y161975D01*
Y162018D01*
Y162060D01*
Y162103D01*
Y162145D01*
Y162188D01*
Y162230D01*
X124978D01*
Y162188D01*
Y162145D01*
Y162103D01*
Y162060D01*
X125063D01*
Y162018D01*
Y161975D01*
Y161933D01*
Y161890D01*
X125148D01*
Y161848D01*
Y161805D01*
Y161763D01*
Y161721D01*
Y161678D01*
Y161636D01*
Y161593D01*
X125233D01*
Y161551D01*
Y161509D01*
Y161466D01*
Y161424D01*
X125318D01*
Y161381D01*
Y161339D01*
Y161296D01*
Y161254D01*
X125403D01*
Y161211D01*
Y161169D01*
Y161126D01*
Y161084D01*
X125487D01*
Y161042D01*
X125530D01*
Y160999D01*
X125487D01*
Y160957D01*
Y160914D01*
Y160872D01*
Y160829D01*
Y160787D01*
X125615D01*
Y160745D01*
Y160702D01*
X125572D01*
Y160660D01*
Y160617D01*
X125700D01*
Y160575D01*
Y160532D01*
Y160490D01*
Y160448D01*
X125785D01*
Y160405D01*
Y160363D01*
Y160320D01*
Y160278D01*
X125870D01*
Y160235D01*
Y160193D01*
Y160150D01*
Y160108D01*
Y160065D01*
Y160023D01*
Y159981D01*
X125954D01*
Y159938D01*
Y159896D01*
Y159853D01*
Y159811D01*
X126039D01*
Y159768D01*
Y159726D01*
Y159684D01*
Y159641D01*
X126124D01*
Y159599D01*
Y159556D01*
Y159514D01*
Y159471D01*
X126209D01*
Y159429D01*
Y159386D01*
Y159344D01*
Y159302D01*
Y159259D01*
Y159217D01*
Y159174D01*
X126294D01*
Y159132D01*
Y159089D01*
Y159047D01*
Y159004D01*
X126421D01*
Y158962D01*
Y158920D01*
X126379D01*
Y158877D01*
Y158835D01*
X126506D01*
Y158792D01*
Y158750D01*
X126464D01*
Y158707D01*
Y158665D01*
X126761D01*
Y158707D01*
Y158750D01*
Y158792D01*
Y158835D01*
X126846D01*
Y158877D01*
Y158920D01*
Y158962D01*
Y159004D01*
X126930D01*
Y159047D01*
Y159089D01*
Y159132D01*
Y159174D01*
Y159217D01*
Y159259D01*
X127015D01*
Y159302D01*
X127058D01*
Y159344D01*
Y159386D01*
X127015D01*
Y159429D01*
X127058D01*
Y159471D01*
X127143D01*
Y159514D01*
Y159556D01*
X127100D01*
Y159599D01*
X127143D01*
Y159641D01*
X127228D01*
Y159684D01*
Y159726D01*
Y159768D01*
Y159811D01*
X127312D01*
Y159853D01*
Y159896D01*
Y159938D01*
Y159981D01*
Y160023D01*
Y160065D01*
X127397D01*
Y160108D01*
Y160150D01*
Y160193D01*
Y160235D01*
Y160278D01*
X127482D01*
Y160320D01*
Y160363D01*
Y160405D01*
Y160448D01*
X127567D01*
Y160490D01*
Y160532D01*
Y160575D01*
Y160617D01*
X127652D01*
Y160660D01*
Y160702D01*
Y160745D01*
Y160787D01*
Y160829D01*
Y160872D01*
X127737D01*
Y160914D01*
Y160957D01*
Y160999D01*
Y161042D01*
Y161084D01*
X127864D01*
Y161126D01*
X127822D01*
Y161169D01*
Y161211D01*
Y161254D01*
X127949D01*
Y161296D01*
Y161339D01*
Y161381D01*
Y161424D01*
Y161466D01*
X127907D01*
Y161509D01*
X128034D01*
Y161551D01*
Y161593D01*
Y161636D01*
X127991D01*
Y161678D01*
X128119D01*
Y161721D01*
Y161763D01*
Y161805D01*
Y161848D01*
Y161890D01*
X128204D01*
Y161933D01*
Y161975D01*
Y162018D01*
Y162060D01*
X128289D01*
Y162103D01*
Y162145D01*
Y162188D01*
Y162230D01*
X129095D01*
Y162188D01*
D02*
G37*
G36*
X113816D02*
Y162145D01*
Y162103D01*
Y162060D01*
Y162018D01*
Y161975D01*
Y161933D01*
Y161890D01*
Y161848D01*
Y161805D01*
Y161763D01*
Y161721D01*
Y161678D01*
Y161636D01*
X112501D01*
Y161593D01*
Y161551D01*
X112373D01*
Y161509D01*
Y161466D01*
Y161424D01*
Y161381D01*
Y161339D01*
X112458D01*
Y161296D01*
Y161254D01*
Y161211D01*
Y161169D01*
Y161126D01*
Y161084D01*
Y161042D01*
Y160999D01*
Y160957D01*
Y160914D01*
Y160872D01*
Y160829D01*
Y160787D01*
Y160745D01*
Y160702D01*
Y160660D01*
Y160617D01*
Y160575D01*
Y160532D01*
Y160490D01*
Y160448D01*
Y160405D01*
Y160363D01*
Y160320D01*
Y160278D01*
Y160235D01*
Y160193D01*
Y160150D01*
Y160108D01*
Y160065D01*
Y160023D01*
Y159981D01*
Y159938D01*
Y159896D01*
Y159853D01*
Y159811D01*
Y159768D01*
Y159726D01*
Y159684D01*
Y159641D01*
Y159599D01*
Y159556D01*
Y159514D01*
Y159471D01*
Y159429D01*
Y159386D01*
Y159344D01*
Y159302D01*
Y159259D01*
Y159217D01*
Y159174D01*
Y159132D01*
Y159089D01*
Y159047D01*
Y159004D01*
Y158962D01*
Y158920D01*
Y158877D01*
Y158835D01*
Y158792D01*
Y158750D01*
Y158707D01*
Y158665D01*
Y158623D01*
Y158580D01*
Y158538D01*
Y158495D01*
Y158453D01*
Y158410D01*
Y158368D01*
Y158326D01*
Y158283D01*
Y158241D01*
Y158198D01*
Y158156D01*
Y158113D01*
Y158071D01*
Y158028D01*
Y157986D01*
Y157943D01*
Y157901D01*
Y157859D01*
Y157816D01*
Y157774D01*
Y157731D01*
Y157689D01*
Y157646D01*
Y157604D01*
Y157562D01*
Y157519D01*
X111567D01*
Y157562D01*
Y157604D01*
Y157646D01*
Y157689D01*
Y157731D01*
Y157774D01*
Y157816D01*
Y157859D01*
Y157901D01*
Y157943D01*
Y157986D01*
Y158028D01*
Y158071D01*
Y158113D01*
Y158156D01*
Y158198D01*
Y158241D01*
Y158283D01*
Y158326D01*
Y158368D01*
Y158410D01*
Y158453D01*
Y158495D01*
Y158538D01*
Y158580D01*
Y158623D01*
Y158665D01*
Y158707D01*
Y158750D01*
Y158792D01*
Y158835D01*
Y158877D01*
Y158920D01*
Y158962D01*
Y159004D01*
Y159047D01*
Y159089D01*
Y159132D01*
Y159174D01*
Y159217D01*
Y159259D01*
Y159302D01*
Y159344D01*
Y159386D01*
Y159429D01*
Y159471D01*
Y159514D01*
Y159556D01*
Y159599D01*
Y159641D01*
Y159684D01*
Y159726D01*
Y159768D01*
Y159811D01*
Y159853D01*
Y159896D01*
Y159938D01*
Y159981D01*
Y160023D01*
Y160065D01*
Y160108D01*
Y160150D01*
Y160193D01*
Y160235D01*
Y160278D01*
Y160320D01*
Y160363D01*
Y160405D01*
Y160448D01*
Y160490D01*
Y160532D01*
Y160575D01*
Y160617D01*
Y160660D01*
Y160702D01*
Y160745D01*
Y160787D01*
Y160829D01*
Y160872D01*
Y160914D01*
Y160957D01*
Y160999D01*
Y161042D01*
Y161084D01*
Y161126D01*
Y161169D01*
Y161211D01*
Y161254D01*
Y161296D01*
Y161339D01*
Y161381D01*
Y161424D01*
Y161466D01*
Y161509D01*
Y161551D01*
Y161593D01*
Y161636D01*
X110251D01*
Y161678D01*
Y161721D01*
Y161763D01*
Y161805D01*
Y161848D01*
Y161890D01*
Y161933D01*
Y161975D01*
Y162018D01*
Y162060D01*
Y162103D01*
Y162145D01*
Y162188D01*
Y162230D01*
X113816D01*
Y162188D01*
D02*
G37*
G36*
X117721D02*
Y162145D01*
Y162103D01*
Y162060D01*
Y162018D01*
Y161975D01*
Y161933D01*
Y161890D01*
Y161848D01*
Y161805D01*
Y161763D01*
Y161721D01*
Y161678D01*
Y161636D01*
X115217D01*
Y161593D01*
Y161551D01*
Y161509D01*
Y161466D01*
Y161424D01*
Y161381D01*
Y161339D01*
Y161296D01*
Y161254D01*
Y161211D01*
Y161169D01*
Y161126D01*
Y161084D01*
Y161042D01*
Y160999D01*
Y160957D01*
Y160914D01*
Y160872D01*
Y160829D01*
Y160787D01*
Y160745D01*
Y160702D01*
Y160660D01*
Y160617D01*
Y160575D01*
Y160532D01*
Y160490D01*
Y160448D01*
Y160405D01*
Y160363D01*
Y160320D01*
Y160278D01*
X117551D01*
Y160235D01*
Y160193D01*
Y160150D01*
Y160108D01*
Y160065D01*
Y160023D01*
Y159981D01*
Y159938D01*
Y159896D01*
Y159853D01*
Y159811D01*
Y159768D01*
Y159726D01*
Y159684D01*
Y159641D01*
Y159599D01*
Y159556D01*
X115217D01*
Y159514D01*
Y159471D01*
Y159429D01*
Y159386D01*
Y159344D01*
Y159302D01*
Y159259D01*
Y159217D01*
Y159174D01*
Y159132D01*
Y159089D01*
Y159047D01*
Y159004D01*
Y158962D01*
Y158920D01*
Y158877D01*
Y158835D01*
Y158792D01*
Y158750D01*
Y158707D01*
Y158665D01*
Y158623D01*
Y158580D01*
Y158538D01*
Y158495D01*
Y158453D01*
Y158410D01*
Y158368D01*
Y158326D01*
Y158283D01*
Y158241D01*
Y158198D01*
Y158156D01*
Y158113D01*
X117721D01*
Y158071D01*
Y158028D01*
Y157986D01*
Y157943D01*
Y157901D01*
Y157859D01*
Y157816D01*
Y157774D01*
Y157731D01*
Y157689D01*
Y157646D01*
Y157604D01*
Y157562D01*
Y157519D01*
X114453D01*
Y157562D01*
Y157604D01*
Y157646D01*
Y157689D01*
Y157731D01*
Y157774D01*
Y157816D01*
Y157859D01*
Y157901D01*
Y157943D01*
Y157986D01*
Y158028D01*
Y158071D01*
Y158113D01*
Y158156D01*
Y158198D01*
Y158241D01*
Y158283D01*
Y158326D01*
Y158368D01*
Y158410D01*
Y158453D01*
Y158495D01*
Y158538D01*
Y158580D01*
Y158623D01*
Y158665D01*
Y158707D01*
Y158750D01*
Y158792D01*
Y158835D01*
Y158877D01*
Y158920D01*
Y158962D01*
Y159004D01*
Y159047D01*
Y159089D01*
Y159132D01*
Y159174D01*
Y159217D01*
Y159259D01*
Y159302D01*
Y159344D01*
Y159386D01*
Y159429D01*
Y159471D01*
Y159514D01*
Y159556D01*
Y159599D01*
Y159641D01*
Y159684D01*
Y159726D01*
Y159768D01*
Y159811D01*
Y159853D01*
Y159896D01*
Y159938D01*
Y159981D01*
Y160023D01*
Y160065D01*
Y160108D01*
Y160150D01*
Y160193D01*
Y160235D01*
Y160278D01*
Y160320D01*
Y160363D01*
Y160405D01*
Y160448D01*
Y160490D01*
Y160532D01*
Y160575D01*
Y160617D01*
Y160660D01*
Y160702D01*
Y160745D01*
Y160787D01*
Y160829D01*
Y160872D01*
Y160914D01*
Y160957D01*
Y160999D01*
Y161042D01*
Y161084D01*
Y161126D01*
Y161169D01*
Y161211D01*
Y161254D01*
Y161296D01*
Y161339D01*
Y161381D01*
Y161424D01*
Y161466D01*
Y161509D01*
Y161551D01*
Y161593D01*
Y161636D01*
Y161678D01*
Y161721D01*
Y161763D01*
Y161805D01*
Y161848D01*
Y161890D01*
Y161933D01*
Y161975D01*
Y162018D01*
Y162060D01*
Y162103D01*
Y162145D01*
Y162188D01*
Y162230D01*
X117721D01*
Y162188D01*
D02*
G37*
G36*
X121328D02*
Y162145D01*
X121286D01*
Y162103D01*
Y162060D01*
Y162018D01*
Y161975D01*
X121413D01*
Y161933D01*
Y161890D01*
Y161848D01*
X121371D01*
Y161805D01*
X121413D01*
Y161763D01*
X121498D01*
Y161721D01*
Y161678D01*
Y161636D01*
Y161593D01*
X121583D01*
Y161551D01*
Y161509D01*
Y161466D01*
Y161424D01*
Y161381D01*
Y161339D01*
X121668D01*
Y161296D01*
Y161254D01*
Y161211D01*
Y161169D01*
X121753D01*
Y161126D01*
Y161084D01*
Y161042D01*
Y160999D01*
Y160957D01*
X121838D01*
Y160914D01*
Y160872D01*
Y160829D01*
Y160787D01*
X121923D01*
Y160745D01*
Y160702D01*
Y160660D01*
Y160617D01*
Y160575D01*
Y160532D01*
X122007D01*
Y160490D01*
Y160448D01*
Y160405D01*
Y160363D01*
X122092D01*
Y160320D01*
X122135D01*
Y160278D01*
X122092D01*
Y160235D01*
Y160193D01*
X122135D01*
Y160150D01*
X122220D01*
Y160108D01*
X122177D01*
Y160065D01*
Y160023D01*
Y159981D01*
Y159938D01*
X122220D01*
Y159896D01*
X122304D01*
Y159853D01*
Y159811D01*
Y159768D01*
Y159726D01*
X122389D01*
Y159684D01*
Y159641D01*
Y159599D01*
Y159556D01*
X122474D01*
Y159514D01*
Y159471D01*
Y159429D01*
Y159386D01*
Y159344D01*
Y159302D01*
Y159259D01*
X122559D01*
Y159217D01*
Y159174D01*
Y159132D01*
Y159089D01*
X122644D01*
Y159047D01*
Y159004D01*
Y158962D01*
Y158920D01*
X122729D01*
Y158877D01*
Y158835D01*
Y158792D01*
Y158750D01*
Y158707D01*
Y158665D01*
X122814D01*
Y158623D01*
Y158580D01*
Y158538D01*
Y158495D01*
X122856D01*
Y158453D01*
X122941D01*
Y158410D01*
X122899D01*
Y158368D01*
Y158326D01*
Y158283D01*
X123026D01*
Y158241D01*
X122984D01*
Y158198D01*
Y158156D01*
Y158113D01*
X123111D01*
Y158071D01*
Y158028D01*
X123068D01*
Y157986D01*
Y157943D01*
Y157901D01*
Y157859D01*
X123196D01*
Y157816D01*
Y157774D01*
Y157731D01*
Y157689D01*
X123238D01*
Y157646D01*
X123281D01*
Y157604D01*
Y157562D01*
Y157519D01*
X122474D01*
Y157562D01*
X122432D01*
Y157604D01*
X122389D01*
Y157646D01*
Y157689D01*
Y157731D01*
Y157774D01*
Y157816D01*
Y157859D01*
X122304D01*
Y157901D01*
Y157943D01*
Y157986D01*
Y158028D01*
X122220D01*
Y158071D01*
Y158113D01*
Y158156D01*
Y158198D01*
Y158241D01*
X122135D01*
Y158283D01*
Y158326D01*
Y158368D01*
Y158410D01*
Y158453D01*
Y158495D01*
X122007D01*
Y158538D01*
X122050D01*
Y158580D01*
Y158623D01*
Y158665D01*
X121923D01*
Y158707D01*
Y158750D01*
X121838D01*
Y158792D01*
Y158835D01*
X120310D01*
Y158877D01*
Y158920D01*
X120395D01*
Y158962D01*
X120437D01*
Y159004D01*
Y159047D01*
Y159089D01*
X120522D01*
Y159132D01*
Y159174D01*
Y159217D01*
Y159259D01*
Y159302D01*
Y159344D01*
Y159386D01*
X120564D01*
Y159429D01*
X120607D01*
Y159471D01*
X121583D01*
Y159514D01*
Y159556D01*
Y159599D01*
Y159641D01*
Y159684D01*
Y159726D01*
X121498D01*
Y159768D01*
Y159811D01*
Y159853D01*
Y159896D01*
Y159938D01*
Y159981D01*
Y160023D01*
X121413D01*
Y160065D01*
Y160108D01*
Y160150D01*
Y160193D01*
X121328D01*
Y160235D01*
Y160278D01*
Y160320D01*
Y160363D01*
X121244D01*
Y160405D01*
Y160448D01*
Y160490D01*
Y160532D01*
Y160575D01*
Y160617D01*
X121201D01*
Y160660D01*
X121116D01*
Y160702D01*
X121159D01*
Y160745D01*
Y160787D01*
Y160829D01*
X121031D01*
Y160872D01*
Y160914D01*
X121074D01*
Y160957D01*
Y160999D01*
Y161042D01*
Y161084D01*
X120947D01*
Y161126D01*
Y161169D01*
Y161211D01*
Y161254D01*
X120861D01*
Y161296D01*
Y161339D01*
X120692D01*
Y161296D01*
Y161254D01*
X120607D01*
Y161211D01*
Y161169D01*
Y161126D01*
Y161084D01*
Y161042D01*
Y160999D01*
X120480D01*
Y160957D01*
Y160914D01*
X120522D01*
Y160872D01*
Y160829D01*
X120395D01*
Y160787D01*
Y160745D01*
Y160702D01*
X120437D01*
Y160660D01*
X120352D01*
Y160617D01*
X120310D01*
Y160575D01*
Y160532D01*
Y160490D01*
Y160448D01*
Y160405D01*
Y160363D01*
X120225D01*
Y160320D01*
Y160278D01*
Y160235D01*
Y160193D01*
X120140D01*
Y160150D01*
Y160108D01*
Y160065D01*
Y160023D01*
Y159981D01*
Y159938D01*
X120055D01*
Y159896D01*
Y159853D01*
Y159811D01*
Y159768D01*
Y159726D01*
X119970D01*
Y159684D01*
Y159641D01*
Y159599D01*
Y159556D01*
Y159514D01*
Y159471D01*
X119885D01*
Y159429D01*
Y159386D01*
Y159344D01*
Y159302D01*
X119801D01*
Y159259D01*
Y159217D01*
Y159174D01*
Y159132D01*
Y159089D01*
Y159047D01*
X119716D01*
Y159004D01*
X119673D01*
Y158962D01*
X119716D01*
Y158920D01*
Y158877D01*
Y158835D01*
X119588D01*
Y158792D01*
Y158750D01*
Y158707D01*
Y158665D01*
X119631D01*
Y158623D01*
Y158580D01*
X119503D01*
Y158538D01*
Y158495D01*
Y158453D01*
X119546D01*
Y158410D01*
X119419D01*
Y158368D01*
Y158326D01*
Y158283D01*
Y158241D01*
X119334D01*
Y158198D01*
Y158156D01*
Y158113D01*
Y158071D01*
Y158028D01*
Y157986D01*
Y157943D01*
X119249D01*
Y157901D01*
Y157859D01*
Y157816D01*
Y157774D01*
X119164D01*
Y157731D01*
Y157689D01*
Y157646D01*
Y157604D01*
Y157562D01*
Y157519D01*
X118358D01*
Y157562D01*
Y157604D01*
Y157646D01*
X118400D01*
Y157689D01*
X118442D01*
Y157731D01*
Y157774D01*
Y157816D01*
Y157859D01*
X118570D01*
Y157901D01*
Y157943D01*
Y157986D01*
Y158028D01*
X118527D01*
Y158071D01*
Y158113D01*
X118655D01*
Y158156D01*
Y158198D01*
Y158241D01*
X118612D01*
Y158283D01*
X118740D01*
Y158326D01*
Y158368D01*
Y158410D01*
Y158453D01*
Y158495D01*
Y158538D01*
Y158580D01*
X118824D01*
Y158623D01*
Y158665D01*
Y158707D01*
Y158750D01*
X118909D01*
Y158792D01*
Y158835D01*
Y158877D01*
Y158920D01*
X118994D01*
Y158962D01*
Y159004D01*
Y159047D01*
Y159089D01*
Y159132D01*
Y159174D01*
X119079D01*
Y159217D01*
Y159259D01*
Y159302D01*
Y159344D01*
Y159386D01*
X119164D01*
Y159429D01*
Y159471D01*
Y159514D01*
Y159556D01*
X119249D01*
Y159599D01*
Y159641D01*
Y159684D01*
Y159726D01*
Y159768D01*
Y159811D01*
X119376D01*
Y159853D01*
Y159896D01*
X119334D01*
Y159938D01*
Y159981D01*
X119461D01*
Y160023D01*
Y160065D01*
Y160108D01*
X119419D01*
Y160150D01*
X119503D01*
Y160193D01*
X119546D01*
Y160235D01*
Y160278D01*
Y160320D01*
Y160363D01*
Y160405D01*
Y160448D01*
X119631D01*
Y160490D01*
Y160532D01*
Y160575D01*
Y160617D01*
X119716D01*
Y160660D01*
Y160702D01*
Y160745D01*
Y160787D01*
Y160829D01*
Y160872D01*
X119801D01*
Y160914D01*
Y160957D01*
Y160999D01*
Y161042D01*
Y161084D01*
X119885D01*
Y161126D01*
Y161169D01*
Y161211D01*
Y161254D01*
X119970D01*
Y161296D01*
Y161339D01*
Y161381D01*
Y161424D01*
X120055D01*
Y161466D01*
Y161509D01*
Y161551D01*
Y161593D01*
Y161636D01*
Y161678D01*
X120140D01*
Y161721D01*
Y161763D01*
Y161805D01*
Y161848D01*
X120183D01*
Y161890D01*
X120267D01*
Y161933D01*
Y161975D01*
Y162018D01*
Y162060D01*
X120225D01*
Y162103D01*
Y162145D01*
X120310D01*
Y162188D01*
Y162230D01*
X121328D01*
Y162188D01*
D02*
G37*
G36*
X166612D02*
Y162145D01*
Y162103D01*
Y162060D01*
Y162018D01*
Y161975D01*
Y161933D01*
Y161890D01*
Y161848D01*
Y161805D01*
Y161763D01*
Y161721D01*
Y161678D01*
Y161636D01*
Y161593D01*
Y161551D01*
Y161509D01*
Y161466D01*
Y161424D01*
Y161381D01*
Y161339D01*
Y161296D01*
Y161254D01*
Y161211D01*
Y161169D01*
Y161126D01*
Y161084D01*
Y161042D01*
Y160999D01*
Y160957D01*
Y160914D01*
Y160872D01*
Y160829D01*
Y160787D01*
Y160745D01*
Y160702D01*
Y160660D01*
Y160617D01*
Y160575D01*
Y160532D01*
Y160490D01*
Y160448D01*
Y160405D01*
Y160363D01*
Y160320D01*
Y160278D01*
Y160235D01*
Y160193D01*
Y160150D01*
Y160108D01*
Y160065D01*
Y160023D01*
Y159981D01*
Y159938D01*
Y159896D01*
Y159853D01*
Y159811D01*
Y159768D01*
Y159726D01*
Y159684D01*
Y159641D01*
Y159599D01*
Y159556D01*
Y159514D01*
Y159471D01*
Y159429D01*
Y159386D01*
Y159344D01*
Y159302D01*
Y159259D01*
Y159217D01*
Y159174D01*
Y159132D01*
Y159089D01*
Y159047D01*
Y159004D01*
Y158962D01*
Y158920D01*
Y158877D01*
Y158835D01*
Y158792D01*
Y158750D01*
Y158707D01*
Y158665D01*
Y158623D01*
Y158580D01*
Y158538D01*
Y158495D01*
Y158453D01*
Y158410D01*
Y158368D01*
Y158326D01*
Y158283D01*
Y158241D01*
Y158198D01*
Y158156D01*
Y158113D01*
Y158071D01*
Y158028D01*
Y157986D01*
Y157943D01*
Y157901D01*
Y157859D01*
Y157816D01*
Y157774D01*
Y157731D01*
Y157689D01*
Y157646D01*
Y157604D01*
Y157562D01*
Y157519D01*
X165806D01*
Y157562D01*
Y157604D01*
Y157646D01*
Y157689D01*
Y157731D01*
Y157774D01*
Y157816D01*
Y157859D01*
Y157901D01*
Y157943D01*
Y157986D01*
Y158028D01*
Y158071D01*
Y158113D01*
Y158156D01*
Y158198D01*
Y158241D01*
Y158283D01*
Y158326D01*
Y158368D01*
Y158410D01*
Y158453D01*
Y158495D01*
Y158538D01*
Y158580D01*
Y158623D01*
Y158665D01*
Y158707D01*
Y158750D01*
Y158792D01*
Y158835D01*
Y158877D01*
Y158920D01*
Y158962D01*
Y159004D01*
Y159047D01*
Y159089D01*
Y159132D01*
Y159174D01*
Y159217D01*
Y159259D01*
Y159302D01*
Y159344D01*
Y159386D01*
Y159429D01*
Y159471D01*
Y159514D01*
Y159556D01*
Y159599D01*
Y159641D01*
Y159684D01*
Y159726D01*
Y159768D01*
Y159811D01*
Y159853D01*
Y159896D01*
Y159938D01*
Y159981D01*
Y160023D01*
Y160065D01*
Y160108D01*
Y160150D01*
Y160193D01*
Y160235D01*
Y160278D01*
Y160320D01*
Y160363D01*
Y160405D01*
Y160448D01*
Y160490D01*
Y160532D01*
Y160575D01*
Y160617D01*
Y160660D01*
Y160702D01*
Y160745D01*
X165636D01*
Y160702D01*
X165593D01*
Y160660D01*
Y160617D01*
X165636D01*
Y160575D01*
X165593D01*
Y160532D01*
X165508D01*
Y160490D01*
Y160448D01*
Y160405D01*
Y160363D01*
X165551D01*
Y160320D01*
Y160278D01*
X165424D01*
Y160235D01*
Y160193D01*
Y160150D01*
Y160108D01*
X165339D01*
Y160065D01*
Y160023D01*
Y159981D01*
Y159938D01*
Y159896D01*
Y159853D01*
X165296D01*
Y159811D01*
X165254D01*
Y159768D01*
Y159726D01*
Y159684D01*
Y159641D01*
X165169D01*
Y159599D01*
Y159556D01*
Y159514D01*
Y159471D01*
Y159429D01*
Y159386D01*
X165084D01*
Y159344D01*
Y159302D01*
Y159259D01*
Y159217D01*
X164999D01*
Y159174D01*
Y159132D01*
Y159089D01*
Y159047D01*
Y159004D01*
Y158962D01*
Y158920D01*
X164914D01*
Y158877D01*
Y158835D01*
Y158792D01*
Y158750D01*
X164830D01*
Y158707D01*
X164787D01*
Y158665D01*
Y158623D01*
Y158580D01*
X164830D01*
Y158538D01*
Y158495D01*
X164702D01*
Y158453D01*
Y158410D01*
Y158368D01*
Y158326D01*
Y158283D01*
X164745D01*
Y158241D01*
X164660D01*
Y158198D01*
X164617D01*
Y158156D01*
Y158113D01*
X164660D01*
Y158071D01*
X164617D01*
Y158028D01*
X164532D01*
Y157986D01*
Y157943D01*
Y157901D01*
Y157859D01*
Y157816D01*
Y157774D01*
X164447D01*
Y157731D01*
Y157689D01*
Y157646D01*
Y157604D01*
X164405D01*
Y157562D01*
X164363D01*
Y157519D01*
X163641D01*
Y157562D01*
Y157604D01*
X163684D01*
Y157646D01*
Y157689D01*
X163556D01*
Y157731D01*
Y157774D01*
X163599D01*
Y157816D01*
Y157859D01*
Y157901D01*
X163556D01*
Y157943D01*
X163471D01*
Y157986D01*
Y158028D01*
Y158071D01*
Y158113D01*
X163429D01*
Y158156D01*
X163386D01*
Y158198D01*
Y158241D01*
Y158283D01*
Y158326D01*
Y158368D01*
Y158410D01*
X163302D01*
Y158453D01*
Y158495D01*
Y158538D01*
Y158580D01*
X163217D01*
Y158623D01*
Y158665D01*
Y158707D01*
Y158750D01*
Y158792D01*
Y158835D01*
X163132D01*
Y158877D01*
Y158920D01*
Y158962D01*
Y159004D01*
Y159047D01*
X163047D01*
Y159089D01*
Y159132D01*
Y159174D01*
Y159217D01*
Y159259D01*
Y159302D01*
X162962D01*
Y159344D01*
Y159386D01*
Y159429D01*
Y159471D01*
X162835D01*
Y159514D01*
Y159556D01*
X162877D01*
Y159599D01*
Y159641D01*
Y159684D01*
Y159726D01*
X162792D01*
Y159768D01*
X162750D01*
Y159811D01*
X162792D01*
Y159853D01*
Y159896D01*
X162750D01*
Y159938D01*
X162665D01*
Y159981D01*
Y160023D01*
Y160065D01*
Y160108D01*
Y160150D01*
Y160193D01*
X162580D01*
Y160235D01*
Y160278D01*
Y160320D01*
Y160363D01*
X162495D01*
Y160405D01*
Y160448D01*
Y160490D01*
Y160532D01*
Y160575D01*
Y160617D01*
X162453D01*
Y160660D01*
X162410D01*
Y160702D01*
Y160745D01*
Y160787D01*
Y160829D01*
X162241D01*
Y160787D01*
X162198D01*
Y160745D01*
Y160702D01*
Y160660D01*
Y160617D01*
Y160575D01*
Y160532D01*
Y160490D01*
Y160448D01*
Y160405D01*
Y160363D01*
Y160320D01*
Y160278D01*
Y160235D01*
Y160193D01*
Y160150D01*
Y160108D01*
Y160065D01*
Y160023D01*
Y159981D01*
Y159938D01*
Y159896D01*
Y159853D01*
Y159811D01*
Y159768D01*
Y159726D01*
Y159684D01*
Y159641D01*
Y159599D01*
Y159556D01*
Y159514D01*
Y159471D01*
Y159429D01*
Y159386D01*
Y159344D01*
Y159302D01*
Y159259D01*
Y159217D01*
Y159174D01*
Y159132D01*
Y159089D01*
Y159047D01*
Y159004D01*
Y158962D01*
Y158920D01*
Y158877D01*
Y158835D01*
Y158792D01*
Y158750D01*
Y158707D01*
Y158665D01*
Y158623D01*
Y158580D01*
Y158538D01*
Y158495D01*
Y158453D01*
Y158410D01*
Y158368D01*
Y158326D01*
Y158283D01*
Y158241D01*
Y158198D01*
Y158156D01*
Y158113D01*
Y158071D01*
Y158028D01*
Y157986D01*
Y157943D01*
Y157901D01*
Y157859D01*
Y157816D01*
Y157774D01*
Y157731D01*
Y157689D01*
Y157646D01*
Y157604D01*
X162241D01*
Y157562D01*
Y157519D01*
X161519D01*
Y157562D01*
Y157604D01*
Y157646D01*
Y157689D01*
Y157731D01*
Y157774D01*
Y157816D01*
Y157859D01*
Y157901D01*
Y157943D01*
Y157986D01*
Y158028D01*
Y158071D01*
Y158113D01*
Y158156D01*
Y158198D01*
Y158241D01*
Y158283D01*
Y158326D01*
Y158368D01*
Y158410D01*
Y158453D01*
Y158495D01*
Y158538D01*
Y158580D01*
Y158623D01*
Y158665D01*
Y158707D01*
Y158750D01*
Y158792D01*
Y158835D01*
Y158877D01*
Y158920D01*
Y158962D01*
Y159004D01*
Y159047D01*
Y159089D01*
Y159132D01*
Y159174D01*
Y159217D01*
Y159259D01*
Y159302D01*
Y159344D01*
Y159386D01*
Y159429D01*
Y159471D01*
Y159514D01*
Y159556D01*
Y159599D01*
Y159641D01*
Y159684D01*
Y159726D01*
Y159768D01*
Y159811D01*
Y159853D01*
Y159896D01*
Y159938D01*
Y159981D01*
Y160023D01*
Y160065D01*
Y160108D01*
Y160150D01*
Y160193D01*
Y160235D01*
Y160278D01*
Y160320D01*
Y160363D01*
Y160405D01*
Y160448D01*
Y160490D01*
Y160532D01*
Y160575D01*
Y160617D01*
Y160660D01*
Y160702D01*
Y160745D01*
Y160787D01*
Y160829D01*
Y160872D01*
Y160914D01*
Y160957D01*
Y160999D01*
Y161042D01*
Y161084D01*
Y161126D01*
Y161169D01*
Y161211D01*
Y161254D01*
Y161296D01*
Y161339D01*
Y161381D01*
Y161424D01*
Y161466D01*
Y161509D01*
Y161551D01*
Y161593D01*
Y161636D01*
Y161678D01*
Y161721D01*
Y161763D01*
Y161805D01*
Y161848D01*
Y161890D01*
Y161933D01*
Y161975D01*
Y162018D01*
Y162060D01*
Y162103D01*
Y162145D01*
Y162188D01*
Y162230D01*
X162410D01*
Y162188D01*
Y162145D01*
Y162103D01*
Y162060D01*
X162495D01*
Y162018D01*
Y161975D01*
Y161933D01*
Y161890D01*
X162580D01*
Y161848D01*
Y161805D01*
Y161763D01*
Y161721D01*
Y161678D01*
X162665D01*
Y161636D01*
Y161593D01*
Y161551D01*
Y161509D01*
Y161466D01*
Y161424D01*
X162750D01*
Y161381D01*
Y161339D01*
Y161296D01*
Y161254D01*
X162835D01*
Y161211D01*
Y161169D01*
Y161126D01*
Y161084D01*
X162920D01*
Y161042D01*
X162962D01*
Y160999D01*
X162920D01*
Y160957D01*
Y160914D01*
Y160872D01*
Y160829D01*
Y160787D01*
X163047D01*
Y160745D01*
Y160702D01*
X163005D01*
Y160660D01*
Y160617D01*
X163132D01*
Y160575D01*
Y160532D01*
Y160490D01*
Y160448D01*
X163217D01*
Y160405D01*
Y160363D01*
Y160320D01*
Y160278D01*
X163302D01*
Y160235D01*
Y160193D01*
Y160150D01*
Y160108D01*
Y160065D01*
Y160023D01*
Y159981D01*
X163386D01*
Y159938D01*
Y159896D01*
Y159853D01*
Y159811D01*
X163471D01*
Y159768D01*
Y159726D01*
Y159684D01*
Y159641D01*
X163556D01*
Y159599D01*
Y159556D01*
Y159514D01*
Y159471D01*
X163641D01*
Y159429D01*
Y159386D01*
Y159344D01*
Y159302D01*
Y159259D01*
X163726D01*
Y159217D01*
Y159174D01*
Y159132D01*
Y159089D01*
Y159047D01*
Y159004D01*
X163853D01*
Y158962D01*
X163811D01*
Y158920D01*
Y158877D01*
Y158835D01*
X163938D01*
Y158792D01*
Y158750D01*
X163896D01*
Y158707D01*
Y158665D01*
X164193D01*
Y158707D01*
Y158750D01*
Y158792D01*
Y158835D01*
X164278D01*
Y158877D01*
Y158920D01*
Y158962D01*
Y159004D01*
X164363D01*
Y159047D01*
Y159089D01*
Y159132D01*
Y159174D01*
X164447D01*
Y159217D01*
X164490D01*
Y159259D01*
Y159302D01*
Y159344D01*
Y159386D01*
X164447D01*
Y159429D01*
Y159471D01*
X164575D01*
Y159514D01*
Y159556D01*
X164532D01*
Y159599D01*
X164575D01*
Y159641D01*
X164660D01*
Y159684D01*
Y159726D01*
Y159768D01*
Y159811D01*
X164745D01*
Y159853D01*
Y159896D01*
Y159938D01*
Y159981D01*
Y160023D01*
Y160065D01*
X164830D01*
Y160108D01*
Y160150D01*
Y160193D01*
Y160235D01*
Y160278D01*
X164914D01*
Y160320D01*
Y160363D01*
Y160405D01*
Y160448D01*
X164999D01*
Y160490D01*
Y160532D01*
Y160575D01*
Y160617D01*
X165084D01*
Y160660D01*
Y160702D01*
Y160745D01*
Y160787D01*
Y160829D01*
Y160872D01*
X165169D01*
Y160914D01*
Y160957D01*
Y160999D01*
Y161042D01*
Y161084D01*
X165254D01*
Y161126D01*
Y161169D01*
Y161211D01*
Y161254D01*
X165381D01*
Y161296D01*
Y161339D01*
X165339D01*
Y161381D01*
Y161424D01*
X165466D01*
Y161466D01*
Y161509D01*
Y161551D01*
Y161593D01*
Y161636D01*
X165424D01*
Y161678D01*
X165551D01*
Y161721D01*
Y161763D01*
Y161805D01*
Y161848D01*
Y161890D01*
X165636D01*
Y161933D01*
Y161975D01*
Y162018D01*
Y162060D01*
X165721D01*
Y162103D01*
Y162145D01*
Y162188D01*
Y162230D01*
X166612D01*
Y162188D01*
D02*
G37*
G36*
X96501Y168426D02*
Y168384D01*
X97010D01*
Y168341D01*
X97053D01*
Y168299D01*
X97477D01*
Y168256D01*
Y168214D01*
X97901D01*
Y168172D01*
X97944D01*
Y168129D01*
X98283D01*
Y168087D01*
Y168044D01*
X98538D01*
Y168002D01*
Y167959D01*
X98708D01*
Y167917D01*
Y167875D01*
X98878D01*
Y167832D01*
Y167790D01*
Y167747D01*
Y167705D01*
X98835D01*
Y167662D01*
X98793D01*
Y167620D01*
X98623D01*
Y167662D01*
X98580D01*
Y167705D01*
X98368D01*
Y167747D01*
X98326D01*
Y167790D01*
X98071D01*
Y167832D01*
Y167875D01*
X97732D01*
Y167917D01*
Y167959D01*
X97265D01*
Y168002D01*
Y168044D01*
X96756D01*
Y168087D01*
X96713D01*
Y168129D01*
X94252D01*
Y168087D01*
Y168044D01*
X93742D01*
Y168002D01*
X93700D01*
Y167959D01*
X93275D01*
Y167917D01*
Y167875D01*
X93021D01*
Y167832D01*
X92978D01*
Y167790D01*
X92639D01*
Y167747D01*
Y167705D01*
X92384D01*
Y167662D01*
Y167620D01*
X92215D01*
Y167577D01*
Y167535D01*
X91960D01*
Y167492D01*
X91917D01*
Y167450D01*
X91790D01*
Y167408D01*
X91748D01*
Y167365D01*
X91620D01*
Y167323D01*
X91578D01*
Y167280D01*
Y167238D01*
X91323D01*
Y167195D01*
X91281D01*
Y167153D01*
X91238D01*
Y167111D01*
X91196D01*
Y167068D01*
X91026D01*
Y167026D01*
Y166983D01*
X90856D01*
Y166941D01*
Y166898D01*
X90687D01*
Y166856D01*
Y166814D01*
X90602D01*
Y166771D01*
Y166729D01*
X90432D01*
Y166686D01*
Y166644D01*
X90347D01*
Y166601D01*
X90305D01*
Y166559D01*
X90177D01*
Y166516D01*
X90135D01*
Y166474D01*
Y166431D01*
X90050D01*
Y166389D01*
Y166347D01*
X89880D01*
Y166304D01*
Y166262D01*
X89795D01*
Y166219D01*
Y166177D01*
X89710D01*
Y166134D01*
Y166092D01*
X89626D01*
Y166050D01*
X89583D01*
Y166007D01*
X89541D01*
Y165965D01*
X89498D01*
Y165922D01*
X89371D01*
Y165880D01*
X89329D01*
Y165837D01*
X89286D01*
Y165795D01*
X89244D01*
Y165752D01*
X89201D01*
Y165710D01*
X89159D01*
Y165668D01*
Y165625D01*
X89074D01*
Y165583D01*
Y165540D01*
X88989D01*
Y165498D01*
Y165455D01*
X88904D01*
Y165413D01*
Y165371D01*
X88819D01*
Y165328D01*
X88777D01*
Y165286D01*
X88734D01*
Y165243D01*
X88692D01*
Y165201D01*
X88649D01*
Y165158D01*
X88607D01*
Y165116D01*
X88522D01*
Y165073D01*
Y165031D01*
Y164989D01*
Y164946D01*
X88480D01*
Y164904D01*
X88437D01*
Y164861D01*
X88395D01*
Y164819D01*
X88352D01*
Y164776D01*
Y164734D01*
X88268D01*
Y164691D01*
Y164649D01*
X88140D01*
Y164607D01*
Y164564D01*
X88183D01*
Y164522D01*
Y164479D01*
X88098D01*
Y164437D01*
Y164394D01*
X88013D01*
Y164352D01*
Y164310D01*
X87886D01*
Y164267D01*
Y164225D01*
Y164182D01*
Y164140D01*
X87843D01*
Y164097D01*
Y164055D01*
X87716D01*
Y164012D01*
Y163970D01*
Y163927D01*
Y163885D01*
Y163843D01*
X87631D01*
Y163800D01*
Y163758D01*
X87546D01*
Y163715D01*
Y163673D01*
Y163630D01*
Y163588D01*
X87461D01*
Y163546D01*
Y163503D01*
Y163461D01*
Y163418D01*
X87376D01*
Y163376D01*
X87334D01*
Y163333D01*
X87376D01*
Y163291D01*
Y163249D01*
X87291D01*
Y163206D01*
X87249D01*
Y163164D01*
Y163121D01*
X87291D01*
Y163079D01*
X87249D01*
Y163036D01*
X87164D01*
Y162994D01*
Y162951D01*
Y162909D01*
Y162866D01*
X87079D01*
Y162824D01*
Y162782D01*
Y162739D01*
Y162697D01*
X86994D01*
Y162654D01*
Y162612D01*
Y162569D01*
Y162527D01*
X86910D01*
Y162485D01*
Y162442D01*
Y162400D01*
Y162357D01*
Y162315D01*
Y162272D01*
Y162230D01*
X86825D01*
Y162188D01*
Y162145D01*
Y162103D01*
Y162060D01*
Y162018D01*
Y161975D01*
X86740D01*
Y161933D01*
Y161890D01*
Y161848D01*
Y161805D01*
X86655D01*
Y161763D01*
Y161721D01*
Y161678D01*
Y161636D01*
Y161593D01*
Y161551D01*
X86570D01*
Y161509D01*
Y161466D01*
Y161424D01*
Y161381D01*
Y161339D01*
Y161296D01*
Y161254D01*
Y161211D01*
Y161169D01*
Y161126D01*
Y161084D01*
X86443D01*
Y161042D01*
Y160999D01*
Y160957D01*
Y160914D01*
Y160872D01*
Y160829D01*
Y160787D01*
Y160745D01*
X86485D01*
Y160702D01*
Y160660D01*
X86400D01*
Y160617D01*
X86358D01*
Y160575D01*
Y160532D01*
Y160490D01*
Y160448D01*
Y160405D01*
Y160363D01*
Y160320D01*
Y160278D01*
Y160235D01*
X86400D01*
Y160193D01*
X86273D01*
Y160150D01*
Y160108D01*
Y160065D01*
Y160023D01*
Y159981D01*
Y159938D01*
Y159896D01*
Y159853D01*
Y159811D01*
Y159768D01*
Y159726D01*
Y159684D01*
Y159641D01*
Y159599D01*
Y159556D01*
Y159514D01*
Y159471D01*
Y159429D01*
Y159386D01*
Y159344D01*
Y159302D01*
Y159259D01*
Y159217D01*
Y159174D01*
Y159132D01*
Y159089D01*
Y159047D01*
Y159004D01*
Y158962D01*
Y158920D01*
Y158877D01*
Y158835D01*
Y158792D01*
Y158750D01*
Y158707D01*
Y158665D01*
Y158623D01*
Y158580D01*
Y158538D01*
Y158495D01*
Y158453D01*
Y158410D01*
Y158368D01*
Y158326D01*
Y158283D01*
Y158241D01*
Y158198D01*
Y158156D01*
Y158113D01*
Y158071D01*
Y158028D01*
Y157986D01*
Y157943D01*
Y157901D01*
Y157859D01*
Y157816D01*
Y157774D01*
X86358D01*
Y157731D01*
X86400D01*
Y157689D01*
X86358D01*
Y157646D01*
Y157604D01*
Y157562D01*
Y157519D01*
Y157477D01*
Y157434D01*
Y157392D01*
Y157349D01*
Y157307D01*
Y157264D01*
Y157222D01*
X86485D01*
Y157180D01*
Y157137D01*
X86443D01*
Y157095D01*
Y157052D01*
Y157010D01*
Y156967D01*
Y156925D01*
Y156883D01*
Y156840D01*
Y156798D01*
X86485D01*
Y156755D01*
X86570D01*
Y156713D01*
Y156670D01*
Y156628D01*
Y156585D01*
Y156543D01*
Y156500D01*
Y156458D01*
Y156416D01*
X86655D01*
Y156373D01*
Y156331D01*
Y156288D01*
Y156246D01*
Y156203D01*
Y156161D01*
Y156119D01*
Y156076D01*
X86740D01*
Y156034D01*
Y155991D01*
Y155949D01*
Y155906D01*
Y155864D01*
X86825D01*
Y155822D01*
Y155779D01*
Y155737D01*
Y155694D01*
Y155652D01*
Y155609D01*
X86910D01*
Y155567D01*
Y155524D01*
Y155482D01*
Y155439D01*
Y155397D01*
Y155355D01*
X86994D01*
Y155312D01*
Y155270D01*
Y155227D01*
Y155185D01*
X87037D01*
Y155142D01*
X87079D01*
Y155100D01*
Y155058D01*
Y155015D01*
Y154973D01*
X87207D01*
Y154930D01*
X87164D01*
Y154888D01*
Y154845D01*
Y154803D01*
X87291D01*
Y154761D01*
Y154718D01*
X87249D01*
Y154676D01*
Y154633D01*
X87376D01*
Y154591D01*
Y154548D01*
Y154506D01*
Y154463D01*
X87461D01*
Y154421D01*
Y154378D01*
Y154336D01*
Y154294D01*
Y154251D01*
X87546D01*
Y154209D01*
Y154166D01*
Y154124D01*
Y154081D01*
X87631D01*
Y154039D01*
X87673D01*
Y153997D01*
X87716D01*
Y153954D01*
Y153912D01*
Y153869D01*
Y153827D01*
X87801D01*
Y153784D01*
X87843D01*
Y153742D01*
X87886D01*
Y153700D01*
Y153657D01*
Y153615D01*
Y153572D01*
X87971D01*
Y153530D01*
X88013D01*
Y153487D01*
X88055D01*
Y153445D01*
X88098D01*
Y153402D01*
Y153360D01*
X88183D01*
Y153317D01*
Y153275D01*
X88140D01*
Y153233D01*
Y153190D01*
X88268D01*
Y153148D01*
Y153105D01*
X88352D01*
Y153063D01*
Y153020D01*
X88268D01*
Y152978D01*
Y152936D01*
X88183D01*
Y152893D01*
Y152851D01*
X88098D01*
Y152893D01*
Y152936D01*
Y152978D01*
Y153020D01*
X88013D01*
Y153063D01*
X87971D01*
Y153105D01*
X87928D01*
Y153148D01*
X87886D01*
Y153190D01*
Y153233D01*
X87801D01*
Y153275D01*
Y153317D01*
X87843D01*
Y153360D01*
X87801D01*
Y153402D01*
X87716D01*
Y153445D01*
Y153487D01*
X87631D01*
Y153530D01*
Y153572D01*
X87546D01*
Y153615D01*
Y153657D01*
Y153700D01*
Y153742D01*
X87461D01*
Y153784D01*
X87419D01*
Y153827D01*
X87376D01*
Y153869D01*
Y153912D01*
Y153954D01*
Y153997D01*
Y154039D01*
X87291D01*
Y154081D01*
Y154124D01*
Y154166D01*
Y154209D01*
X87207D01*
Y154251D01*
Y154294D01*
Y154336D01*
Y154378D01*
X87079D01*
Y154421D01*
Y154463D01*
X87122D01*
Y154506D01*
Y154548D01*
X86994D01*
Y154591D01*
Y154633D01*
X86910D01*
Y154676D01*
Y154718D01*
Y154761D01*
Y154803D01*
Y154845D01*
Y154888D01*
Y154930D01*
X86825D01*
Y154973D01*
Y155015D01*
Y155058D01*
Y155100D01*
X86740D01*
Y155142D01*
Y155185D01*
Y155227D01*
Y155270D01*
X86655D01*
Y155312D01*
Y155355D01*
Y155397D01*
Y155439D01*
Y155482D01*
Y155524D01*
X86570D01*
Y155567D01*
Y155609D01*
Y155652D01*
Y155694D01*
Y155737D01*
X86485D01*
Y155779D01*
Y155822D01*
Y155864D01*
Y155906D01*
Y155949D01*
Y155991D01*
X86400D01*
Y156034D01*
Y156076D01*
Y156119D01*
Y156161D01*
Y156203D01*
Y156246D01*
X86315D01*
Y156288D01*
X86273D01*
Y156331D01*
X86315D01*
Y156373D01*
Y156416D01*
Y156458D01*
Y156500D01*
Y156543D01*
Y156585D01*
Y156628D01*
X86188D01*
Y156670D01*
X86230D01*
Y156713D01*
Y156755D01*
Y156798D01*
Y156840D01*
Y156883D01*
Y156925D01*
Y156967D01*
X86103D01*
Y157010D01*
Y157052D01*
Y157095D01*
X86146D01*
Y157137D01*
Y157180D01*
Y157222D01*
Y157264D01*
Y157307D01*
Y157349D01*
Y157392D01*
Y157434D01*
X86103D01*
Y157477D01*
Y157519D01*
X86018D01*
Y157562D01*
Y157604D01*
Y157646D01*
Y157689D01*
Y157731D01*
Y157774D01*
Y157816D01*
Y157859D01*
Y157901D01*
Y157943D01*
Y157986D01*
Y158028D01*
X85891D01*
Y158071D01*
Y158113D01*
Y158156D01*
Y158198D01*
Y158241D01*
Y158283D01*
Y158326D01*
Y158368D01*
Y158410D01*
Y158453D01*
Y158495D01*
Y158538D01*
Y158580D01*
Y158623D01*
Y158665D01*
Y158707D01*
Y158750D01*
Y158792D01*
Y158835D01*
Y158877D01*
Y158920D01*
Y158962D01*
Y159004D01*
Y159047D01*
Y159089D01*
Y159132D01*
Y159174D01*
Y159217D01*
Y159259D01*
Y159302D01*
Y159344D01*
Y159386D01*
Y159429D01*
Y159471D01*
Y159514D01*
Y159556D01*
Y159599D01*
Y159641D01*
Y159684D01*
Y159726D01*
Y159768D01*
Y159811D01*
X86018D01*
Y159853D01*
Y159896D01*
Y159938D01*
Y159981D01*
Y160023D01*
Y160065D01*
Y160108D01*
Y160150D01*
Y160193D01*
Y160235D01*
Y160278D01*
Y160320D01*
Y160363D01*
X86103D01*
Y160405D01*
X86146D01*
Y160448D01*
Y160490D01*
Y160532D01*
Y160575D01*
Y160617D01*
Y160660D01*
Y160702D01*
Y160745D01*
Y160787D01*
X86103D01*
Y160829D01*
Y160872D01*
X86188D01*
Y160914D01*
X86230D01*
Y160957D01*
Y160999D01*
Y161042D01*
Y161084D01*
Y161126D01*
Y161169D01*
X86188D01*
Y161211D01*
Y161254D01*
X86315D01*
Y161296D01*
Y161339D01*
Y161381D01*
Y161424D01*
Y161466D01*
Y161509D01*
Y161551D01*
X86273D01*
Y161593D01*
X86400D01*
Y161636D01*
Y161678D01*
Y161721D01*
Y161763D01*
Y161805D01*
Y161848D01*
Y161890D01*
X86485D01*
Y161933D01*
Y161975D01*
Y162018D01*
Y162060D01*
Y162103D01*
Y162145D01*
X86570D01*
Y162188D01*
Y162230D01*
Y162272D01*
Y162315D01*
X86655D01*
Y162357D01*
Y162400D01*
Y162442D01*
Y162485D01*
Y162527D01*
Y162569D01*
X86740D01*
Y162612D01*
Y162654D01*
Y162697D01*
Y162739D01*
Y162782D01*
X86825D01*
Y162824D01*
Y162866D01*
Y162909D01*
Y162951D01*
Y162994D01*
Y163036D01*
X86910D01*
Y163079D01*
Y163121D01*
Y163164D01*
Y163206D01*
X86994D01*
Y163249D01*
Y163291D01*
X87122D01*
Y163333D01*
Y163376D01*
Y163418D01*
X87079D01*
Y163461D01*
X87164D01*
Y163503D01*
X87207D01*
Y163546D01*
Y163588D01*
Y163630D01*
Y163673D01*
X87291D01*
Y163715D01*
Y163758D01*
Y163800D01*
Y163843D01*
X87334D01*
Y163885D01*
X87376D01*
Y163927D01*
X87461D01*
Y163970D01*
Y164012D01*
Y164055D01*
Y164097D01*
X87546D01*
Y164140D01*
Y164182D01*
Y164225D01*
Y164267D01*
X87589D01*
Y164310D01*
X87631D01*
Y164352D01*
Y164394D01*
X87716D01*
Y164437D01*
Y164479D01*
X87801D01*
Y164522D01*
Y164564D01*
Y164607D01*
Y164649D01*
X87886D01*
Y164691D01*
Y164734D01*
X87971D01*
Y164776D01*
Y164819D01*
X88098D01*
Y164861D01*
Y164904D01*
Y164946D01*
Y164989D01*
X88140D01*
Y165031D01*
Y165073D01*
X88225D01*
Y165116D01*
X88268D01*
Y165158D01*
X88310D01*
Y165201D01*
X88352D01*
Y165243D01*
Y165286D01*
X88437D01*
Y165328D01*
Y165371D01*
X88522D01*
Y165413D01*
Y165455D01*
X88607D01*
Y165498D01*
Y165540D01*
X88692D01*
Y165583D01*
Y165625D01*
X88777D01*
Y165668D01*
Y165710D01*
X88862D01*
Y165752D01*
Y165795D01*
X88947D01*
Y165837D01*
Y165880D01*
X89031D01*
Y165922D01*
Y165965D01*
X89116D01*
Y166007D01*
X89159D01*
Y166050D01*
Y166092D01*
X89244D01*
Y166134D01*
Y166177D01*
X89329D01*
Y166219D01*
Y166262D01*
X89413D01*
Y166304D01*
Y166347D01*
X89583D01*
Y166389D01*
Y166431D01*
X89668D01*
Y166474D01*
Y166516D01*
X89753D01*
Y166559D01*
Y166601D01*
X89838D01*
Y166644D01*
Y166686D01*
X90008D01*
Y166729D01*
X90050D01*
Y166771D01*
X90092D01*
Y166814D01*
X90135D01*
Y166856D01*
X90220D01*
Y166898D01*
X90305D01*
Y166941D01*
Y166983D01*
X90390D01*
Y167026D01*
Y167068D01*
X90559D01*
Y167111D01*
Y167153D01*
X90729D01*
Y167195D01*
X90772D01*
Y167238D01*
X90941D01*
Y167280D01*
Y167323D01*
X91026D01*
Y167365D01*
Y167408D01*
X91196D01*
Y167450D01*
Y167492D01*
X91366D01*
Y167535D01*
Y167577D01*
X91620D01*
Y167620D01*
Y167662D01*
X91790D01*
Y167705D01*
X91833D01*
Y167747D01*
Y167790D01*
X92002D01*
Y167832D01*
Y167875D01*
X92257D01*
Y167917D01*
X92299D01*
Y167959D01*
X92512D01*
Y168002D01*
X92554D01*
Y168044D01*
X92809D01*
Y168087D01*
Y168129D01*
X93063D01*
Y168172D01*
Y168214D01*
X93488D01*
Y168256D01*
X93530D01*
Y168299D01*
X93954D01*
Y168341D01*
Y168384D01*
X94591D01*
Y168426D01*
Y168469D01*
X96501D01*
Y168426D01*
D02*
G37*
G36*
X103885Y168978D02*
Y168936D01*
X103801D01*
Y168978D01*
Y169020D01*
X103885D01*
Y168978D01*
D02*
G37*
G36*
X104268Y169360D02*
Y169317D01*
X104183D01*
Y169275D01*
Y169233D01*
X104098D01*
Y169190D01*
Y169148D01*
X104013D01*
Y169105D01*
Y169063D01*
X103970D01*
Y169020D01*
X103885D01*
Y169063D01*
Y169105D01*
X103928D01*
Y169148D01*
X103970D01*
Y169190D01*
X104013D01*
Y169233D01*
X104055D01*
Y169275D01*
X104098D01*
Y169317D01*
X104140D01*
Y169360D01*
X104183D01*
Y169402D01*
X104268D01*
Y169360D01*
D02*
G37*
G36*
X151079Y162188D02*
Y162145D01*
X151037D01*
Y162103D01*
Y162060D01*
Y162018D01*
Y161975D01*
Y161933D01*
Y161890D01*
Y161848D01*
Y161805D01*
Y161763D01*
Y161721D01*
Y161678D01*
Y161636D01*
Y161593D01*
Y161551D01*
Y161509D01*
Y161466D01*
Y161424D01*
Y161381D01*
Y161339D01*
Y161296D01*
Y161254D01*
Y161211D01*
Y161169D01*
Y161126D01*
Y161084D01*
Y161042D01*
Y160999D01*
Y160957D01*
Y160914D01*
Y160872D01*
Y160829D01*
Y160787D01*
Y160745D01*
Y160702D01*
Y160660D01*
Y160617D01*
Y160575D01*
Y160532D01*
Y160490D01*
Y160448D01*
Y160405D01*
Y160363D01*
Y160320D01*
Y160278D01*
Y160235D01*
Y160193D01*
Y160150D01*
Y160108D01*
Y160065D01*
Y160023D01*
Y159981D01*
Y159938D01*
Y159896D01*
Y159853D01*
Y159811D01*
Y159768D01*
Y159726D01*
Y159684D01*
Y159641D01*
Y159599D01*
Y159556D01*
Y159514D01*
Y159471D01*
Y159429D01*
Y159386D01*
Y159344D01*
Y159302D01*
Y159259D01*
Y159217D01*
Y159174D01*
Y159132D01*
Y159089D01*
Y159047D01*
Y159004D01*
Y158962D01*
Y158920D01*
Y158877D01*
Y158835D01*
Y158792D01*
Y158750D01*
Y158707D01*
Y158665D01*
Y158623D01*
Y158580D01*
Y158538D01*
Y158495D01*
Y158453D01*
Y158410D01*
Y158368D01*
Y158326D01*
Y158283D01*
Y158241D01*
Y158198D01*
Y158156D01*
Y158113D01*
Y158071D01*
Y158028D01*
Y157986D01*
Y157943D01*
Y157901D01*
Y157859D01*
Y157816D01*
Y157774D01*
Y157731D01*
Y157689D01*
Y157646D01*
Y157604D01*
Y157562D01*
X151079D01*
Y157519D01*
X150145D01*
Y157562D01*
Y157604D01*
X150060D01*
Y157646D01*
X150103D01*
Y157689D01*
Y157731D01*
Y157774D01*
X149976D01*
Y157816D01*
Y157859D01*
X149891D01*
Y157901D01*
Y157943D01*
Y157986D01*
Y158028D01*
X149806D01*
Y158071D01*
Y158113D01*
X149721D01*
Y158156D01*
Y158198D01*
X149678D01*
Y158241D01*
X149636D01*
Y158283D01*
Y158326D01*
Y158368D01*
Y158410D01*
X149551D01*
Y158453D01*
X149509D01*
Y158495D01*
X149466D01*
Y158538D01*
Y158580D01*
Y158623D01*
Y158665D01*
X149381D01*
Y158707D01*
X149339D01*
Y158750D01*
X149296D01*
Y158792D01*
X149254D01*
Y158835D01*
X149212D01*
Y158877D01*
X149169D01*
Y158920D01*
X149212D01*
Y158962D01*
Y159004D01*
X149169D01*
Y159047D01*
X149084D01*
Y159089D01*
Y159132D01*
X148999D01*
Y159174D01*
Y159217D01*
Y159259D01*
Y159302D01*
X148915D01*
Y159344D01*
Y159386D01*
X148830D01*
Y159429D01*
Y159471D01*
X148745D01*
Y159514D01*
Y159556D01*
Y159599D01*
Y159641D01*
X148660D01*
Y159684D01*
X148617D01*
Y159726D01*
X148575D01*
Y159768D01*
Y159811D01*
Y159853D01*
Y159896D01*
Y159938D01*
X148448D01*
Y159981D01*
Y160023D01*
X148363D01*
Y160065D01*
Y160108D01*
X148278D01*
Y160150D01*
Y160193D01*
X148320D01*
Y160235D01*
Y160278D01*
X148193D01*
Y160320D01*
Y160363D01*
X148108D01*
Y160405D01*
Y160448D01*
Y160490D01*
Y160532D01*
X148023D01*
Y160575D01*
Y160617D01*
X147938D01*
Y160660D01*
Y160702D01*
Y160745D01*
Y160787D01*
Y160829D01*
X147853D01*
Y160872D01*
X147811D01*
Y160914D01*
X147769D01*
Y160957D01*
X147726D01*
Y160999D01*
X147471D01*
Y160957D01*
Y160914D01*
Y160872D01*
Y160829D01*
Y160787D01*
Y160745D01*
Y160702D01*
Y160660D01*
Y160617D01*
Y160575D01*
Y160532D01*
Y160490D01*
Y160448D01*
Y160405D01*
Y160363D01*
Y160320D01*
Y160278D01*
Y160235D01*
Y160193D01*
Y160150D01*
Y160108D01*
Y160065D01*
Y160023D01*
Y159981D01*
Y159938D01*
Y159896D01*
Y159853D01*
Y159811D01*
Y159768D01*
Y159726D01*
Y159684D01*
Y159641D01*
Y159599D01*
Y159556D01*
Y159514D01*
Y159471D01*
Y159429D01*
Y159386D01*
Y159344D01*
Y159302D01*
Y159259D01*
Y159217D01*
Y159174D01*
Y159132D01*
Y159089D01*
Y159047D01*
Y159004D01*
Y158962D01*
Y158920D01*
Y158877D01*
Y158835D01*
Y158792D01*
Y158750D01*
Y158707D01*
Y158665D01*
Y158623D01*
Y158580D01*
Y158538D01*
Y158495D01*
Y158453D01*
Y158410D01*
Y158368D01*
Y158326D01*
Y158283D01*
Y158241D01*
Y158198D01*
Y158156D01*
Y158113D01*
Y158071D01*
Y158028D01*
Y157986D01*
Y157943D01*
Y157901D01*
Y157859D01*
Y157816D01*
Y157774D01*
Y157731D01*
Y157689D01*
Y157646D01*
Y157604D01*
Y157562D01*
Y157519D01*
X146792D01*
Y157562D01*
Y157604D01*
Y157646D01*
Y157689D01*
Y157731D01*
Y157774D01*
Y157816D01*
Y157859D01*
Y157901D01*
Y157943D01*
Y157986D01*
Y158028D01*
Y158071D01*
Y158113D01*
Y158156D01*
Y158198D01*
Y158241D01*
Y158283D01*
Y158326D01*
Y158368D01*
Y158410D01*
Y158453D01*
Y158495D01*
Y158538D01*
Y158580D01*
Y158623D01*
Y158665D01*
Y158707D01*
Y158750D01*
Y158792D01*
Y158835D01*
Y158877D01*
Y158920D01*
Y158962D01*
Y159004D01*
Y159047D01*
Y159089D01*
Y159132D01*
Y159174D01*
Y159217D01*
Y159259D01*
Y159302D01*
Y159344D01*
Y159386D01*
Y159429D01*
Y159471D01*
Y159514D01*
Y159556D01*
Y159599D01*
Y159641D01*
Y159684D01*
Y159726D01*
Y159768D01*
Y159811D01*
Y159853D01*
Y159896D01*
Y159938D01*
Y159981D01*
Y160023D01*
Y160065D01*
Y160108D01*
Y160150D01*
Y160193D01*
Y160235D01*
Y160278D01*
Y160320D01*
Y160363D01*
Y160405D01*
Y160448D01*
Y160490D01*
Y160532D01*
Y160575D01*
Y160617D01*
Y160660D01*
Y160702D01*
Y160745D01*
Y160787D01*
Y160829D01*
Y160872D01*
Y160914D01*
Y160957D01*
Y160999D01*
Y161042D01*
Y161084D01*
Y161126D01*
Y161169D01*
Y161211D01*
Y161254D01*
Y161296D01*
Y161339D01*
Y161381D01*
Y161424D01*
Y161466D01*
Y161509D01*
Y161551D01*
Y161593D01*
Y161636D01*
Y161678D01*
Y161721D01*
Y161763D01*
Y161805D01*
Y161848D01*
Y161890D01*
Y161933D01*
Y161975D01*
Y162018D01*
Y162060D01*
Y162103D01*
Y162145D01*
Y162188D01*
Y162230D01*
X147684D01*
Y162188D01*
Y162145D01*
X147641D01*
Y162103D01*
Y162060D01*
X147769D01*
Y162018D01*
Y161975D01*
X147853D01*
Y161933D01*
Y161890D01*
X147938D01*
Y161848D01*
Y161805D01*
Y161763D01*
Y161721D01*
Y161678D01*
X148023D01*
Y161636D01*
X148066D01*
Y161593D01*
X148108D01*
Y161551D01*
Y161509D01*
Y161466D01*
Y161424D01*
X148193D01*
Y161381D01*
X148235D01*
Y161339D01*
X148278D01*
Y161296D01*
X148320D01*
Y161254D01*
X148363D01*
Y161211D01*
Y161169D01*
Y161126D01*
Y161084D01*
X148448D01*
Y161042D01*
X148490D01*
Y160999D01*
X148532D01*
Y160957D01*
X148575D01*
Y160914D01*
Y160872D01*
X148660D01*
Y160829D01*
Y160787D01*
X148617D01*
Y160745D01*
X148660D01*
Y160702D01*
X148745D01*
Y160660D01*
Y160617D01*
X148830D01*
Y160575D01*
Y160532D01*
Y160490D01*
Y160448D01*
X148915D01*
Y160405D01*
Y160363D01*
X148999D01*
Y160320D01*
X149042D01*
Y160278D01*
X149084D01*
Y160235D01*
Y160193D01*
Y160150D01*
Y160108D01*
Y160065D01*
X149212D01*
Y160023D01*
Y159981D01*
X149254D01*
Y159938D01*
Y159896D01*
Y159853D01*
Y159811D01*
X149381D01*
Y159768D01*
Y159726D01*
X149466D01*
Y159684D01*
Y159641D01*
X149551D01*
Y159599D01*
Y159556D01*
Y159514D01*
Y159471D01*
X149636D01*
Y159429D01*
Y159386D01*
X149721D01*
Y159344D01*
Y159302D01*
X149763D01*
Y159259D01*
X149806D01*
Y159217D01*
Y159174D01*
Y159132D01*
Y159089D01*
X149891D01*
Y159047D01*
X149933D01*
Y159004D01*
X149976D01*
Y158962D01*
Y158920D01*
Y158877D01*
Y158835D01*
X150273D01*
Y158877D01*
Y158920D01*
Y158962D01*
Y159004D01*
Y159047D01*
Y159089D01*
Y159132D01*
Y159174D01*
Y159217D01*
Y159259D01*
Y159302D01*
Y159344D01*
Y159386D01*
Y159429D01*
Y159471D01*
Y159514D01*
Y159556D01*
Y159599D01*
Y159641D01*
Y159684D01*
Y159726D01*
Y159768D01*
Y159811D01*
Y159853D01*
Y159896D01*
Y159938D01*
Y159981D01*
Y160023D01*
Y160065D01*
Y160108D01*
Y160150D01*
Y160193D01*
Y160235D01*
Y160278D01*
Y160320D01*
Y160363D01*
Y160405D01*
Y160448D01*
Y160490D01*
Y160532D01*
Y160575D01*
Y160617D01*
Y160660D01*
Y160702D01*
Y160745D01*
Y160787D01*
Y160829D01*
Y160872D01*
Y160914D01*
Y160957D01*
Y160999D01*
Y161042D01*
Y161084D01*
Y161126D01*
Y161169D01*
Y161211D01*
Y161254D01*
Y161296D01*
Y161339D01*
Y161381D01*
Y161424D01*
Y161466D01*
Y161509D01*
Y161551D01*
Y161593D01*
Y161636D01*
Y161678D01*
Y161721D01*
Y161763D01*
Y161805D01*
Y161848D01*
Y161890D01*
Y161933D01*
Y161975D01*
Y162018D01*
Y162060D01*
Y162103D01*
Y162145D01*
Y162188D01*
Y162230D01*
X151079D01*
Y162188D01*
D02*
G37*
G36*
X134527D02*
X134570D01*
Y162145D01*
X134824D01*
Y162103D01*
Y162060D01*
X134994D01*
Y162018D01*
Y161975D01*
X135079D01*
Y161933D01*
Y161890D01*
X135164D01*
Y161848D01*
Y161805D01*
Y161763D01*
Y161721D01*
Y161678D01*
X135249D01*
Y161636D01*
Y161593D01*
Y161551D01*
Y161509D01*
X135334D01*
Y161466D01*
Y161424D01*
Y161381D01*
Y161339D01*
Y161296D01*
Y161254D01*
X135418D01*
Y161211D01*
Y161169D01*
Y161126D01*
Y161084D01*
Y161042D01*
Y160999D01*
Y160957D01*
Y160914D01*
Y160872D01*
Y160829D01*
Y160787D01*
Y160745D01*
Y160702D01*
Y160660D01*
X135376D01*
Y160617D01*
X135334D01*
Y160575D01*
Y160532D01*
Y160490D01*
Y160448D01*
Y160405D01*
Y160363D01*
X135249D01*
Y160320D01*
Y160278D01*
Y160235D01*
Y160193D01*
X135164D01*
Y160150D01*
Y160108D01*
Y160065D01*
Y160023D01*
X135079D01*
Y159981D01*
Y159938D01*
X134994D01*
Y159896D01*
Y159853D01*
X134952D01*
Y159811D01*
X134909D01*
Y159768D01*
X134867D01*
Y159726D01*
X134824D01*
Y159684D01*
X134782D01*
Y159641D01*
X134655D01*
Y159599D01*
X134612D01*
Y159556D01*
X134442D01*
Y159514D01*
Y159471D01*
X134273D01*
Y159429D01*
Y159386D01*
X134018D01*
Y159344D01*
Y159302D01*
X133678D01*
Y159259D01*
X133636D01*
Y159217D01*
X133466D01*
Y159259D01*
Y159302D01*
Y159344D01*
Y159386D01*
Y159429D01*
Y159471D01*
X133381D01*
Y159514D01*
Y159556D01*
Y159599D01*
Y159641D01*
Y159684D01*
Y159726D01*
Y159768D01*
Y159811D01*
Y159853D01*
Y159896D01*
X133636D01*
Y159938D01*
Y159981D01*
X133891D01*
Y160023D01*
Y160065D01*
X134060D01*
Y160108D01*
Y160150D01*
X134103D01*
Y160193D01*
X134145D01*
Y160235D01*
X134188D01*
Y160278D01*
X134358D01*
Y160320D01*
Y160363D01*
X134442D01*
Y160405D01*
Y160448D01*
Y160490D01*
Y160532D01*
X134527D01*
Y160575D01*
Y160617D01*
Y160660D01*
Y160702D01*
Y160745D01*
Y160787D01*
Y160829D01*
Y160872D01*
Y160914D01*
Y160957D01*
Y160999D01*
Y161042D01*
Y161084D01*
Y161126D01*
Y161169D01*
Y161211D01*
Y161254D01*
Y161296D01*
Y161339D01*
X134442D01*
Y161381D01*
Y161424D01*
X134358D01*
Y161466D01*
Y161509D01*
X134315D01*
Y161551D01*
X134060D01*
Y161593D01*
Y161636D01*
X132660D01*
Y161593D01*
Y161551D01*
Y161509D01*
Y161466D01*
Y161424D01*
Y161381D01*
Y161339D01*
Y161296D01*
Y161254D01*
Y161211D01*
Y161169D01*
Y161126D01*
Y161084D01*
Y161042D01*
Y160999D01*
Y160957D01*
Y160914D01*
Y160872D01*
Y160829D01*
Y160787D01*
Y160745D01*
Y160702D01*
Y160660D01*
Y160617D01*
Y160575D01*
Y160532D01*
Y160490D01*
Y160448D01*
Y160405D01*
Y160363D01*
Y160320D01*
Y160278D01*
Y160235D01*
Y160193D01*
Y160150D01*
Y160108D01*
Y160065D01*
Y160023D01*
Y159981D01*
Y159938D01*
Y159896D01*
Y159853D01*
Y159811D01*
Y159768D01*
Y159726D01*
Y159684D01*
Y159641D01*
Y159599D01*
Y159556D01*
Y159514D01*
Y159471D01*
Y159429D01*
Y159386D01*
Y159344D01*
Y159302D01*
Y159259D01*
Y159217D01*
Y159174D01*
Y159132D01*
Y159089D01*
Y159047D01*
Y159004D01*
Y158962D01*
Y158920D01*
Y158877D01*
Y158835D01*
Y158792D01*
Y158750D01*
Y158707D01*
Y158665D01*
Y158623D01*
Y158580D01*
Y158538D01*
Y158495D01*
Y158453D01*
Y158410D01*
Y158368D01*
Y158326D01*
Y158283D01*
Y158241D01*
Y158198D01*
Y158156D01*
Y158113D01*
Y158071D01*
Y158028D01*
Y157986D01*
Y157943D01*
Y157901D01*
Y157859D01*
Y157816D01*
Y157774D01*
Y157731D01*
Y157689D01*
Y157646D01*
Y157604D01*
Y157562D01*
Y157519D01*
X131853D01*
Y157562D01*
Y157604D01*
Y157646D01*
Y157689D01*
Y157731D01*
Y157774D01*
Y157816D01*
Y157859D01*
Y157901D01*
Y157943D01*
Y157986D01*
Y158028D01*
Y158071D01*
Y158113D01*
Y158156D01*
Y158198D01*
Y158241D01*
Y158283D01*
Y158326D01*
Y158368D01*
Y158410D01*
Y158453D01*
Y158495D01*
Y158538D01*
Y158580D01*
Y158623D01*
Y158665D01*
Y158707D01*
Y158750D01*
Y158792D01*
Y158835D01*
Y158877D01*
Y158920D01*
Y158962D01*
Y159004D01*
Y159047D01*
Y159089D01*
Y159132D01*
Y159174D01*
Y159217D01*
Y159259D01*
Y159302D01*
Y159344D01*
Y159386D01*
Y159429D01*
Y159471D01*
Y159514D01*
Y159556D01*
Y159599D01*
Y159641D01*
Y159684D01*
Y159726D01*
Y159768D01*
Y159811D01*
Y159853D01*
Y159896D01*
Y159938D01*
Y159981D01*
Y160023D01*
Y160065D01*
Y160108D01*
Y160150D01*
Y160193D01*
Y160235D01*
Y160278D01*
Y160320D01*
Y160363D01*
Y160405D01*
Y160448D01*
Y160490D01*
Y160532D01*
Y160575D01*
Y160617D01*
Y160660D01*
Y160702D01*
Y160745D01*
Y160787D01*
Y160829D01*
Y160872D01*
Y160914D01*
Y160957D01*
Y160999D01*
Y161042D01*
Y161084D01*
Y161126D01*
Y161169D01*
Y161211D01*
Y161254D01*
Y161296D01*
Y161339D01*
Y161381D01*
Y161424D01*
Y161466D01*
Y161509D01*
Y161551D01*
Y161593D01*
Y161636D01*
Y161678D01*
Y161721D01*
Y161763D01*
Y161805D01*
Y161848D01*
Y161890D01*
Y161933D01*
Y161975D01*
Y162018D01*
Y162060D01*
Y162103D01*
Y162145D01*
Y162188D01*
Y162230D01*
X134527D01*
Y162188D01*
D02*
G37*
G36*
X140257D02*
Y162145D01*
Y162103D01*
Y162060D01*
Y162018D01*
Y161975D01*
Y161933D01*
Y161890D01*
Y161848D01*
Y161805D01*
Y161763D01*
Y161721D01*
Y161678D01*
Y161636D01*
Y161593D01*
Y161551D01*
Y161509D01*
Y161466D01*
Y161424D01*
Y161381D01*
Y161339D01*
Y161296D01*
Y161254D01*
Y161211D01*
Y161169D01*
Y161126D01*
Y161084D01*
Y161042D01*
Y160999D01*
Y160957D01*
Y160914D01*
Y160872D01*
Y160829D01*
Y160787D01*
Y160745D01*
Y160702D01*
Y160660D01*
Y160617D01*
Y160575D01*
Y160532D01*
Y160490D01*
Y160448D01*
Y160405D01*
Y160363D01*
Y160320D01*
Y160278D01*
Y160235D01*
Y160193D01*
Y160150D01*
Y160108D01*
Y160065D01*
Y160023D01*
Y159981D01*
Y159938D01*
Y159896D01*
Y159853D01*
Y159811D01*
Y159768D01*
Y159726D01*
Y159684D01*
Y159641D01*
Y159599D01*
Y159556D01*
Y159514D01*
Y159471D01*
Y159429D01*
Y159386D01*
Y159344D01*
Y159302D01*
Y159259D01*
Y159217D01*
Y159174D01*
Y159132D01*
Y159089D01*
Y159047D01*
Y159004D01*
Y158962D01*
Y158920D01*
Y158877D01*
Y158835D01*
Y158792D01*
Y158750D01*
Y158707D01*
Y158665D01*
Y158623D01*
Y158580D01*
Y158538D01*
Y158495D01*
Y158453D01*
Y158410D01*
Y158368D01*
Y158326D01*
Y158283D01*
Y158241D01*
Y158198D01*
Y158156D01*
Y158113D01*
Y158071D01*
Y158028D01*
Y157986D01*
Y157943D01*
Y157901D01*
Y157859D01*
Y157816D01*
Y157774D01*
Y157731D01*
Y157689D01*
Y157646D01*
Y157604D01*
Y157562D01*
Y157519D01*
X139450D01*
Y157562D01*
Y157604D01*
Y157646D01*
Y157689D01*
Y157731D01*
Y157774D01*
Y157816D01*
Y157859D01*
Y157901D01*
Y157943D01*
Y157986D01*
Y158028D01*
Y158071D01*
Y158113D01*
Y158156D01*
Y158198D01*
Y158241D01*
Y158283D01*
Y158326D01*
Y158368D01*
Y158410D01*
Y158453D01*
Y158495D01*
Y158538D01*
Y158580D01*
Y158623D01*
Y158665D01*
Y158707D01*
Y158750D01*
Y158792D01*
Y158835D01*
Y158877D01*
Y158920D01*
Y158962D01*
Y159004D01*
Y159047D01*
Y159089D01*
Y159132D01*
Y159174D01*
Y159217D01*
Y159259D01*
Y159302D01*
Y159344D01*
Y159386D01*
Y159429D01*
Y159471D01*
Y159514D01*
Y159556D01*
X136946D01*
Y159514D01*
Y159471D01*
Y159429D01*
Y159386D01*
Y159344D01*
Y159302D01*
Y159259D01*
Y159217D01*
Y159174D01*
Y159132D01*
Y159089D01*
Y159047D01*
Y159004D01*
Y158962D01*
Y158920D01*
Y158877D01*
Y158835D01*
Y158792D01*
Y158750D01*
Y158707D01*
Y158665D01*
Y158623D01*
Y158580D01*
Y158538D01*
Y158495D01*
Y158453D01*
Y158410D01*
Y158368D01*
Y158326D01*
Y158283D01*
Y158241D01*
Y158198D01*
Y158156D01*
Y158113D01*
Y158071D01*
Y158028D01*
Y157986D01*
Y157943D01*
Y157901D01*
Y157859D01*
Y157816D01*
Y157774D01*
Y157731D01*
Y157689D01*
Y157646D01*
Y157604D01*
Y157562D01*
Y157519D01*
X136140D01*
Y157562D01*
Y157604D01*
Y157646D01*
Y157689D01*
Y157731D01*
Y157774D01*
Y157816D01*
Y157859D01*
Y157901D01*
Y157943D01*
Y157986D01*
Y158028D01*
Y158071D01*
Y158113D01*
Y158156D01*
Y158198D01*
Y158241D01*
Y158283D01*
Y158326D01*
Y158368D01*
Y158410D01*
Y158453D01*
Y158495D01*
Y158538D01*
Y158580D01*
Y158623D01*
Y158665D01*
Y158707D01*
Y158750D01*
Y158792D01*
Y158835D01*
Y158877D01*
Y158920D01*
Y158962D01*
Y159004D01*
Y159047D01*
Y159089D01*
Y159132D01*
Y159174D01*
Y159217D01*
Y159259D01*
Y159302D01*
Y159344D01*
Y159386D01*
Y159429D01*
Y159471D01*
Y159514D01*
Y159556D01*
Y159599D01*
Y159641D01*
Y159684D01*
Y159726D01*
Y159768D01*
Y159811D01*
Y159853D01*
Y159896D01*
Y159938D01*
Y159981D01*
Y160023D01*
Y160065D01*
Y160108D01*
Y160150D01*
Y160193D01*
Y160235D01*
Y160278D01*
Y160320D01*
Y160363D01*
Y160405D01*
Y160448D01*
Y160490D01*
Y160532D01*
Y160575D01*
Y160617D01*
Y160660D01*
Y160702D01*
Y160745D01*
Y160787D01*
Y160829D01*
Y160872D01*
Y160914D01*
Y160957D01*
Y160999D01*
Y161042D01*
Y161084D01*
Y161126D01*
Y161169D01*
Y161211D01*
Y161254D01*
Y161296D01*
Y161339D01*
Y161381D01*
Y161424D01*
Y161466D01*
Y161509D01*
Y161551D01*
Y161593D01*
Y161636D01*
Y161678D01*
Y161721D01*
Y161763D01*
Y161805D01*
Y161848D01*
Y161890D01*
Y161933D01*
Y161975D01*
Y162018D01*
Y162060D01*
Y162103D01*
Y162145D01*
Y162188D01*
Y162230D01*
X136946D01*
Y162188D01*
Y162145D01*
Y162103D01*
Y162060D01*
Y162018D01*
Y161975D01*
Y161933D01*
Y161890D01*
Y161848D01*
Y161805D01*
Y161763D01*
Y161721D01*
Y161678D01*
Y161636D01*
Y161593D01*
Y161551D01*
Y161509D01*
Y161466D01*
Y161424D01*
Y161381D01*
Y161339D01*
Y161296D01*
Y161254D01*
Y161211D01*
Y161169D01*
Y161126D01*
Y161084D01*
Y161042D01*
Y160999D01*
Y160957D01*
Y160914D01*
Y160872D01*
Y160829D01*
Y160787D01*
Y160745D01*
Y160702D01*
Y160660D01*
Y160617D01*
Y160575D01*
Y160532D01*
Y160490D01*
Y160448D01*
Y160405D01*
Y160363D01*
Y160320D01*
Y160278D01*
X139450D01*
Y160320D01*
Y160363D01*
Y160405D01*
Y160448D01*
Y160490D01*
Y160532D01*
Y160575D01*
Y160617D01*
Y160660D01*
Y160702D01*
Y160745D01*
Y160787D01*
Y160829D01*
Y160872D01*
Y160914D01*
Y160957D01*
Y160999D01*
Y161042D01*
Y161084D01*
Y161126D01*
Y161169D01*
Y161211D01*
Y161254D01*
Y161296D01*
Y161339D01*
Y161381D01*
Y161424D01*
Y161466D01*
Y161509D01*
Y161551D01*
Y161593D01*
Y161636D01*
Y161678D01*
Y161721D01*
Y161763D01*
Y161805D01*
Y161848D01*
Y161890D01*
Y161933D01*
Y161975D01*
Y162018D01*
Y162060D01*
Y162103D01*
Y162145D01*
Y162188D01*
Y162230D01*
X140257D01*
Y162188D01*
D02*
G37*
G36*
X132490Y153233D02*
Y153190D01*
X132448D01*
Y153148D01*
Y153105D01*
Y153063D01*
Y153020D01*
Y152978D01*
Y152936D01*
Y152893D01*
Y152851D01*
Y152808D01*
Y152766D01*
Y152723D01*
Y152681D01*
Y152638D01*
Y152596D01*
Y152554D01*
Y152511D01*
Y152469D01*
Y152426D01*
Y152384D01*
Y152341D01*
Y152299D01*
Y152257D01*
Y152214D01*
Y152172D01*
Y152129D01*
Y152087D01*
Y152044D01*
Y152002D01*
Y151959D01*
Y151917D01*
Y151875D01*
Y151832D01*
Y151790D01*
Y151747D01*
Y151705D01*
Y151662D01*
Y151620D01*
Y151577D01*
Y151535D01*
Y151493D01*
Y151450D01*
X132490D01*
Y151408D01*
Y151365D01*
Y151323D01*
X132363D01*
Y151280D01*
Y151238D01*
Y151196D01*
Y151153D01*
X132405D01*
Y151111D01*
Y151068D01*
X132320D01*
Y151026D01*
Y150983D01*
X132236D01*
Y150941D01*
Y150898D01*
X132151D01*
Y150856D01*
Y150814D01*
X132066D01*
Y150771D01*
X132023D01*
Y150729D01*
X131811D01*
Y150686D01*
X131769D01*
Y150644D01*
X131387D01*
Y150686D01*
X131302D01*
Y150729D01*
X131132D01*
Y150771D01*
Y150814D01*
X130962D01*
Y150856D01*
X130920D01*
Y150898D01*
X130877D01*
Y150941D01*
X130835D01*
Y150983D01*
X130792D01*
Y151026D01*
Y151068D01*
Y151111D01*
Y151153D01*
X130708D01*
Y151196D01*
Y151238D01*
Y151280D01*
Y151323D01*
Y151365D01*
Y151408D01*
Y151450D01*
Y151493D01*
Y151535D01*
Y151577D01*
Y151620D01*
Y151662D01*
Y151705D01*
Y151747D01*
Y151790D01*
Y151832D01*
Y151875D01*
Y151917D01*
Y151959D01*
Y152002D01*
Y152044D01*
Y152087D01*
Y152129D01*
Y152172D01*
Y152214D01*
Y152257D01*
Y152299D01*
Y152341D01*
Y152384D01*
Y152426D01*
Y152469D01*
Y152511D01*
Y152554D01*
Y152596D01*
Y152638D01*
Y152681D01*
Y152723D01*
Y152766D01*
Y152808D01*
Y152851D01*
Y152893D01*
Y152936D01*
Y152978D01*
Y153020D01*
Y153063D01*
Y153105D01*
Y153148D01*
Y153190D01*
Y153233D01*
Y153275D01*
X130877D01*
Y153233D01*
Y153190D01*
Y153148D01*
Y153105D01*
Y153063D01*
Y153020D01*
Y152978D01*
Y152936D01*
Y152893D01*
Y152851D01*
Y152808D01*
Y152766D01*
Y152723D01*
Y152681D01*
Y152638D01*
Y152596D01*
Y152554D01*
Y152511D01*
Y152469D01*
Y152426D01*
Y152384D01*
Y152341D01*
Y152299D01*
Y152257D01*
Y152214D01*
Y152172D01*
Y152129D01*
Y152087D01*
Y152044D01*
Y152002D01*
Y151959D01*
Y151917D01*
Y151875D01*
Y151832D01*
Y151790D01*
Y151747D01*
Y151705D01*
Y151662D01*
Y151620D01*
Y151577D01*
Y151535D01*
Y151493D01*
Y151450D01*
Y151408D01*
Y151365D01*
Y151323D01*
Y151280D01*
Y151238D01*
Y151196D01*
Y151153D01*
X130962D01*
Y151111D01*
Y151068D01*
X131047D01*
Y151026D01*
Y150983D01*
X131132D01*
Y150941D01*
Y150898D01*
X131175D01*
Y150856D01*
X131259D01*
Y150814D01*
X131302D01*
Y150771D01*
X131811D01*
Y150814D01*
X131853D01*
Y150856D01*
X131981D01*
Y150898D01*
X132023D01*
Y150941D01*
X132066D01*
Y150983D01*
X132108D01*
Y151026D01*
X132151D01*
Y151068D01*
X132236D01*
Y151111D01*
Y151153D01*
X132193D01*
Y151196D01*
X132236D01*
Y151238D01*
X132320D01*
Y151280D01*
Y151323D01*
Y151365D01*
Y151408D01*
Y151450D01*
Y151493D01*
Y151535D01*
Y151577D01*
Y151620D01*
Y151662D01*
Y151705D01*
Y151747D01*
Y151790D01*
Y151832D01*
Y151875D01*
Y151917D01*
Y151959D01*
Y152002D01*
Y152044D01*
Y152087D01*
Y152129D01*
Y152172D01*
Y152214D01*
Y152257D01*
Y152299D01*
Y152341D01*
Y152384D01*
Y152426D01*
Y152469D01*
Y152511D01*
Y152554D01*
Y152596D01*
Y152638D01*
Y152681D01*
Y152723D01*
Y152766D01*
Y152808D01*
Y152851D01*
Y152893D01*
Y152936D01*
Y152978D01*
Y153020D01*
Y153063D01*
Y153105D01*
Y153148D01*
Y153190D01*
Y153233D01*
X132278D01*
Y153275D01*
X132490D01*
Y153233D01*
D02*
G37*
G36*
X166188Y153317D02*
Y153275D01*
X166357D01*
Y153233D01*
Y153190D01*
X166527D01*
Y153148D01*
Y153105D01*
X166612D01*
Y153063D01*
Y153020D01*
X166697D01*
Y152978D01*
Y152936D01*
Y152893D01*
Y152851D01*
X166782D01*
Y152808D01*
Y152766D01*
Y152723D01*
Y152681D01*
X166612D01*
Y152723D01*
Y152766D01*
Y152808D01*
Y152851D01*
X166527D01*
Y152893D01*
X166485D01*
Y152936D01*
X166442D01*
Y152978D01*
X166400D01*
Y153020D01*
X166357D01*
Y153063D01*
X166315D01*
Y153105D01*
X166272D01*
Y153148D01*
X166230D01*
Y153190D01*
X166188D01*
Y153233D01*
X165636D01*
Y153190D01*
X165551D01*
Y153148D01*
X165508D01*
Y153105D01*
X165466D01*
Y153063D01*
X165424D01*
Y153020D01*
X165381D01*
Y152978D01*
X165339D01*
Y152936D01*
X165254D01*
Y152893D01*
Y152851D01*
Y152808D01*
Y152766D01*
X165169D01*
Y152723D01*
Y152681D01*
Y152638D01*
Y152596D01*
Y152554D01*
Y152511D01*
Y152469D01*
Y152426D01*
Y152384D01*
Y152341D01*
Y152299D01*
Y152257D01*
Y152214D01*
Y152172D01*
Y152129D01*
Y152087D01*
Y152044D01*
Y152002D01*
Y151959D01*
Y151917D01*
Y151875D01*
Y151832D01*
Y151790D01*
Y151747D01*
Y151705D01*
Y151662D01*
Y151620D01*
Y151577D01*
Y151535D01*
Y151493D01*
Y151450D01*
Y151408D01*
Y151365D01*
Y151323D01*
Y151280D01*
Y151238D01*
X165254D01*
Y151196D01*
Y151153D01*
Y151111D01*
Y151068D01*
X165339D01*
Y151026D01*
X165381D01*
Y150983D01*
X165424D01*
Y150941D01*
X165466D01*
Y150898D01*
Y150856D01*
X165636D01*
Y150814D01*
X165678D01*
Y150771D01*
X166188D01*
Y150814D01*
X166230D01*
Y150856D01*
X166315D01*
Y150898D01*
Y150941D01*
X166357D01*
Y150983D01*
X166400D01*
Y151026D01*
X166442D01*
Y151068D01*
X166485D01*
Y151111D01*
X166527D01*
Y151153D01*
X166612D01*
Y151196D01*
Y151238D01*
Y151280D01*
Y151323D01*
X166782D01*
Y151280D01*
Y151238D01*
X166697D01*
Y151196D01*
Y151153D01*
Y151111D01*
Y151068D01*
X166612D01*
Y151026D01*
Y150983D01*
Y150941D01*
Y150898D01*
X166442D01*
Y150856D01*
Y150814D01*
X166357D01*
Y150771D01*
Y150729D01*
X166145D01*
Y150686D01*
X166060D01*
Y150644D01*
X165721D01*
Y150686D01*
X165678D01*
Y150729D01*
X165424D01*
Y150771D01*
Y150814D01*
X165339D01*
Y150856D01*
Y150898D01*
X165254D01*
Y150941D01*
Y150983D01*
X165169D01*
Y151026D01*
Y151068D01*
X165084D01*
Y151111D01*
Y151153D01*
Y151196D01*
Y151238D01*
X164999D01*
Y151280D01*
Y151323D01*
Y151365D01*
Y151408D01*
Y151450D01*
Y151493D01*
Y151535D01*
Y151577D01*
Y151620D01*
Y151662D01*
Y151705D01*
Y151747D01*
Y151790D01*
Y151832D01*
Y151875D01*
Y151917D01*
Y151959D01*
Y152002D01*
Y152044D01*
Y152087D01*
Y152129D01*
Y152172D01*
Y152214D01*
Y152257D01*
Y152299D01*
Y152341D01*
Y152384D01*
Y152426D01*
Y152469D01*
Y152511D01*
Y152554D01*
Y152596D01*
Y152638D01*
Y152681D01*
Y152723D01*
Y152766D01*
X165084D01*
Y152808D01*
Y152851D01*
Y152893D01*
Y152936D01*
X165169D01*
Y152978D01*
Y153020D01*
Y153063D01*
Y153105D01*
X165339D01*
Y153148D01*
Y153190D01*
X165424D01*
Y153233D01*
Y153275D01*
X165678D01*
Y153317D01*
X165721D01*
Y153360D01*
X166188D01*
Y153317D01*
D02*
G37*
G36*
X129604Y153233D02*
Y153190D01*
Y153148D01*
Y153105D01*
Y153063D01*
Y153020D01*
Y152978D01*
Y152936D01*
Y152893D01*
Y152851D01*
Y152808D01*
Y152766D01*
Y152723D01*
Y152681D01*
Y152638D01*
Y152596D01*
Y152554D01*
Y152511D01*
Y152469D01*
Y152426D01*
Y152384D01*
Y152341D01*
Y152299D01*
Y152257D01*
Y152214D01*
Y152172D01*
Y152129D01*
Y152087D01*
Y152044D01*
Y152002D01*
Y151959D01*
Y151917D01*
Y151875D01*
Y151832D01*
Y151790D01*
Y151747D01*
Y151705D01*
Y151662D01*
Y151620D01*
Y151577D01*
Y151535D01*
Y151493D01*
Y151450D01*
Y151408D01*
Y151365D01*
Y151323D01*
Y151280D01*
Y151238D01*
Y151196D01*
Y151153D01*
Y151111D01*
Y151068D01*
Y151026D01*
Y150983D01*
Y150941D01*
Y150898D01*
Y150856D01*
Y150814D01*
Y150771D01*
Y150729D01*
X129434D01*
Y150771D01*
Y150814D01*
Y150856D01*
Y150898D01*
Y150941D01*
Y150983D01*
Y151026D01*
Y151068D01*
Y151111D01*
Y151153D01*
Y151196D01*
Y151238D01*
Y151280D01*
Y151323D01*
Y151365D01*
Y151408D01*
Y151450D01*
Y151493D01*
Y151535D01*
Y151577D01*
Y151620D01*
Y151662D01*
Y151705D01*
Y151747D01*
Y151790D01*
Y151832D01*
Y151875D01*
Y151917D01*
Y151959D01*
Y152002D01*
Y152044D01*
Y152087D01*
Y152129D01*
Y152172D01*
Y152214D01*
Y152257D01*
Y152299D01*
Y152341D01*
Y152384D01*
Y152426D01*
Y152469D01*
Y152511D01*
Y152554D01*
Y152596D01*
Y152638D01*
Y152681D01*
X129180D01*
Y152638D01*
Y152596D01*
Y152554D01*
Y152511D01*
Y152469D01*
Y152426D01*
X129095D01*
Y152384D01*
Y152341D01*
Y152299D01*
Y152257D01*
Y152214D01*
X128968D01*
Y152172D01*
Y152129D01*
X129010D01*
Y152087D01*
Y152044D01*
X128883D01*
Y152002D01*
Y151959D01*
Y151917D01*
X128925D01*
Y151875D01*
X128798D01*
Y151832D01*
Y151790D01*
Y151747D01*
Y151705D01*
Y151662D01*
Y151620D01*
X128713D01*
Y151577D01*
Y151535D01*
Y151493D01*
Y151450D01*
X128671D01*
Y151408D01*
X128628D01*
Y151365D01*
Y151323D01*
Y151280D01*
Y151238D01*
X128543D01*
Y151196D01*
Y151153D01*
X128374D01*
Y151196D01*
Y151238D01*
X128289D01*
Y151280D01*
Y151323D01*
Y151365D01*
Y151408D01*
X128246D01*
Y151450D01*
X128204D01*
Y151493D01*
Y151535D01*
Y151577D01*
Y151620D01*
X128119D01*
Y151662D01*
Y151705D01*
Y151747D01*
Y151790D01*
X128034D01*
Y151832D01*
Y151875D01*
Y151917D01*
Y151959D01*
X127907D01*
Y152002D01*
Y152044D01*
X127949D01*
Y152087D01*
Y152129D01*
Y152172D01*
Y152214D01*
X127864D01*
Y152257D01*
X127822D01*
Y152299D01*
Y152341D01*
X127864D01*
Y152384D01*
X127822D01*
Y152426D01*
X127737D01*
Y152469D01*
Y152511D01*
Y152554D01*
Y152596D01*
X127652D01*
Y152638D01*
Y152681D01*
X127482D01*
Y152638D01*
Y152596D01*
Y152554D01*
Y152511D01*
Y152469D01*
Y152426D01*
Y152384D01*
Y152341D01*
Y152299D01*
Y152257D01*
Y152214D01*
Y152172D01*
Y152129D01*
Y152087D01*
Y152044D01*
Y152002D01*
Y151959D01*
Y151917D01*
Y151875D01*
Y151832D01*
Y151790D01*
Y151747D01*
Y151705D01*
Y151662D01*
Y151620D01*
Y151577D01*
Y151535D01*
Y151493D01*
Y151450D01*
Y151408D01*
Y151365D01*
Y151323D01*
Y151280D01*
Y151238D01*
Y151196D01*
Y151153D01*
Y151111D01*
Y151068D01*
Y151026D01*
Y150983D01*
Y150941D01*
Y150898D01*
Y150856D01*
Y150814D01*
Y150771D01*
Y150729D01*
X127312D01*
Y150771D01*
Y150814D01*
Y150856D01*
Y150898D01*
Y150941D01*
Y150983D01*
Y151026D01*
Y151068D01*
Y151111D01*
Y151153D01*
Y151196D01*
Y151238D01*
Y151280D01*
Y151323D01*
Y151365D01*
Y151408D01*
Y151450D01*
Y151493D01*
Y151535D01*
Y151577D01*
Y151620D01*
Y151662D01*
Y151705D01*
Y151747D01*
Y151790D01*
Y151832D01*
Y151875D01*
Y151917D01*
Y151959D01*
Y152002D01*
Y152044D01*
Y152087D01*
Y152129D01*
Y152172D01*
Y152214D01*
Y152257D01*
Y152299D01*
Y152341D01*
Y152384D01*
Y152426D01*
Y152469D01*
Y152511D01*
Y152554D01*
Y152596D01*
Y152638D01*
Y152681D01*
Y152723D01*
Y152766D01*
Y152808D01*
Y152851D01*
Y152893D01*
Y152936D01*
Y152978D01*
Y153020D01*
Y153063D01*
Y153105D01*
Y153148D01*
Y153190D01*
Y153233D01*
Y153275D01*
X127567D01*
Y153233D01*
Y153190D01*
Y153148D01*
Y153105D01*
X127652D01*
Y153063D01*
Y153020D01*
Y152978D01*
Y152936D01*
X127737D01*
Y152893D01*
Y152851D01*
Y152808D01*
Y152766D01*
Y152723D01*
Y152681D01*
X127822D01*
Y152638D01*
Y152596D01*
Y152554D01*
Y152511D01*
Y152469D01*
X127907D01*
Y152426D01*
Y152384D01*
Y152341D01*
Y152299D01*
X127991D01*
Y152257D01*
Y152214D01*
Y152172D01*
Y152129D01*
X128119D01*
Y152087D01*
Y152044D01*
X128076D01*
Y152002D01*
Y151959D01*
X128204D01*
Y151917D01*
Y151875D01*
Y151832D01*
X128161D01*
Y151790D01*
X128204D01*
Y151747D01*
X128289D01*
Y151705D01*
Y151662D01*
Y151620D01*
Y151577D01*
Y151535D01*
Y151493D01*
X128374D01*
Y151450D01*
Y151408D01*
X128543D01*
Y151450D01*
Y151493D01*
Y151535D01*
Y151577D01*
X128628D01*
Y151620D01*
Y151662D01*
Y151705D01*
Y151747D01*
X128713D01*
Y151790D01*
X128755D01*
Y151832D01*
Y151875D01*
X128713D01*
Y151917D01*
Y151959D01*
X128840D01*
Y152002D01*
Y152044D01*
X128798D01*
Y152087D01*
X128840D01*
Y152129D01*
X128925D01*
Y152172D01*
Y152214D01*
Y152257D01*
Y152299D01*
Y152341D01*
Y152384D01*
X129010D01*
Y152426D01*
Y152469D01*
Y152511D01*
Y152554D01*
X129095D01*
Y152596D01*
Y152638D01*
Y152681D01*
Y152723D01*
Y152766D01*
X129180D01*
Y152808D01*
Y152851D01*
Y152893D01*
Y152936D01*
X129265D01*
Y152978D01*
Y153020D01*
Y153063D01*
Y153105D01*
Y153148D01*
Y153190D01*
X129350D01*
Y153233D01*
Y153275D01*
X129604D01*
Y153233D01*
D02*
G37*
G36*
X157148Y153317D02*
X157190D01*
Y153275D01*
X157318D01*
Y153233D01*
Y153190D01*
X157487D01*
Y153148D01*
X157530D01*
Y153105D01*
X157572D01*
Y153063D01*
Y153020D01*
Y152978D01*
Y152936D01*
X157657D01*
Y152893D01*
X157700D01*
Y152851D01*
X157742D01*
Y152808D01*
Y152766D01*
Y152723D01*
Y152681D01*
X157572D01*
Y152723D01*
Y152766D01*
Y152808D01*
Y152851D01*
X157487D01*
Y152893D01*
Y152936D01*
X157403D01*
Y152978D01*
Y153020D01*
X157318D01*
Y153063D01*
Y153105D01*
X157233D01*
Y153148D01*
Y153190D01*
X157190D01*
Y153233D01*
X156554D01*
Y153190D01*
X156511D01*
Y153148D01*
X156469D01*
Y153105D01*
X156426D01*
Y153063D01*
Y153020D01*
X156342D01*
Y152978D01*
Y152936D01*
X156214D01*
Y152893D01*
Y152851D01*
X156257D01*
Y152808D01*
Y152766D01*
X156129D01*
Y152723D01*
Y152681D01*
Y152638D01*
Y152596D01*
Y152554D01*
Y152511D01*
Y152469D01*
Y152426D01*
Y152384D01*
Y152341D01*
Y152299D01*
Y152257D01*
Y152214D01*
Y152172D01*
Y152129D01*
Y152087D01*
Y152044D01*
Y152002D01*
Y151959D01*
Y151917D01*
Y151875D01*
Y151832D01*
Y151790D01*
Y151747D01*
Y151705D01*
Y151662D01*
Y151620D01*
Y151577D01*
Y151535D01*
Y151493D01*
Y151450D01*
Y151408D01*
Y151365D01*
Y151323D01*
Y151280D01*
Y151238D01*
X156257D01*
Y151196D01*
Y151153D01*
X156214D01*
Y151111D01*
Y151068D01*
X156342D01*
Y151026D01*
Y150983D01*
X156384D01*
Y150941D01*
X156426D01*
Y150898D01*
X156469D01*
Y150856D01*
X156596D01*
Y150814D01*
X156639D01*
Y150771D01*
X157105D01*
Y150814D01*
Y150856D01*
X157275D01*
Y150898D01*
X157318D01*
Y150941D01*
X157360D01*
Y150983D01*
X157403D01*
Y151026D01*
Y151068D01*
X157487D01*
Y151111D01*
Y151153D01*
Y151196D01*
Y151238D01*
X157572D01*
Y151280D01*
Y151323D01*
X157784D01*
Y151280D01*
X157742D01*
Y151238D01*
X157657D01*
Y151196D01*
Y151153D01*
Y151111D01*
Y151068D01*
X157615D01*
Y151026D01*
X157572D01*
Y150983D01*
X157530D01*
Y150941D01*
X157487D01*
Y150898D01*
X157445D01*
Y150856D01*
X157403D01*
Y150814D01*
X157360D01*
Y150771D01*
X157318D01*
Y150729D01*
X157105D01*
Y150686D01*
X157063D01*
Y150644D01*
X156681D01*
Y150686D01*
X156639D01*
Y150729D01*
X156426D01*
Y150771D01*
X156384D01*
Y150814D01*
X156342D01*
Y150856D01*
X156299D01*
Y150898D01*
X156214D01*
Y150941D01*
Y150983D01*
X156129D01*
Y151026D01*
Y151068D01*
X156044D01*
Y151111D01*
X156087D01*
Y151153D01*
Y151196D01*
Y151238D01*
X155959D01*
Y151280D01*
Y151323D01*
X156002D01*
Y151365D01*
Y151408D01*
Y151450D01*
Y151493D01*
Y151535D01*
Y151577D01*
Y151620D01*
Y151662D01*
Y151705D01*
Y151747D01*
Y151790D01*
Y151832D01*
Y151875D01*
Y151917D01*
Y151959D01*
Y152002D01*
Y152044D01*
Y152087D01*
Y152129D01*
Y152172D01*
Y152214D01*
Y152257D01*
Y152299D01*
Y152341D01*
Y152384D01*
Y152426D01*
Y152469D01*
Y152511D01*
Y152554D01*
Y152596D01*
Y152638D01*
Y152681D01*
X155959D01*
Y152723D01*
X156002D01*
Y152766D01*
X156087D01*
Y152808D01*
Y152851D01*
X156044D01*
Y152893D01*
X156087D01*
Y152936D01*
X156172D01*
Y152978D01*
Y153020D01*
Y153063D01*
Y153105D01*
X156214D01*
Y153148D01*
Y153190D01*
X156384D01*
Y153233D01*
X156426D01*
Y153275D01*
X156554D01*
Y153317D01*
X156596D01*
Y153360D01*
X157148D01*
Y153317D01*
D02*
G37*
G36*
X167588Y155227D02*
Y155185D01*
Y155142D01*
Y155100D01*
Y155058D01*
Y155015D01*
X109063D01*
Y155058D01*
Y155100D01*
Y155142D01*
Y155185D01*
Y155227D01*
Y155270D01*
X167588D01*
Y155227D01*
D02*
G37*
G36*
X158591Y162272D02*
Y162230D01*
X159100D01*
Y162188D01*
Y162145D01*
X159270D01*
Y162103D01*
X159312D01*
Y162060D01*
X159525D01*
Y162018D01*
X159567D01*
Y161975D01*
X159652D01*
Y161933D01*
Y161890D01*
X159822D01*
Y161848D01*
Y161805D01*
X159864D01*
Y161763D01*
X159906D01*
Y161721D01*
X159949D01*
Y161678D01*
X159991D01*
Y161636D01*
X160034D01*
Y161593D01*
X160076D01*
Y161551D01*
Y161509D01*
Y161466D01*
Y161424D01*
X160161D01*
Y161381D01*
X160204D01*
Y161339D01*
X160246D01*
Y161296D01*
Y161254D01*
Y161211D01*
Y161169D01*
X160331D01*
Y161126D01*
Y161084D01*
Y161042D01*
Y160999D01*
Y160957D01*
Y160914D01*
Y160872D01*
X160458D01*
Y160829D01*
X160416D01*
Y160787D01*
Y160745D01*
Y160702D01*
Y160660D01*
Y160617D01*
Y160575D01*
Y160532D01*
X160543D01*
Y160490D01*
Y160448D01*
X160501D01*
Y160405D01*
Y160363D01*
Y160320D01*
Y160278D01*
Y160235D01*
Y160193D01*
Y160150D01*
Y160108D01*
Y160065D01*
Y160023D01*
Y159981D01*
Y159938D01*
Y159896D01*
Y159853D01*
Y159811D01*
Y159768D01*
Y159726D01*
Y159684D01*
Y159641D01*
Y159599D01*
Y159556D01*
Y159514D01*
Y159471D01*
Y159429D01*
Y159386D01*
Y159344D01*
Y159302D01*
X160543D01*
Y159259D01*
Y159217D01*
X160416D01*
Y159174D01*
Y159132D01*
Y159089D01*
Y159047D01*
Y159004D01*
Y158962D01*
Y158920D01*
X160458D01*
Y158877D01*
X160416D01*
Y158835D01*
X160331D01*
Y158792D01*
Y158750D01*
Y158707D01*
Y158665D01*
Y158623D01*
Y158580D01*
X160246D01*
Y158538D01*
Y158495D01*
Y158453D01*
Y158410D01*
X160204D01*
Y158368D01*
X160161D01*
Y158326D01*
X160076D01*
Y158283D01*
Y158241D01*
Y158198D01*
Y158156D01*
Y158113D01*
X159991D01*
Y158071D01*
Y158028D01*
X159906D01*
Y157986D01*
Y157943D01*
X159822D01*
Y157901D01*
Y157859D01*
X159652D01*
Y157816D01*
Y157774D01*
X159567D01*
Y157731D01*
Y157689D01*
X159312D01*
Y157646D01*
X159270D01*
Y157604D01*
X159015D01*
Y157562D01*
Y157519D01*
X158591D01*
Y157477D01*
Y157434D01*
X157827D01*
Y157477D01*
Y157519D01*
X157318D01*
Y157562D01*
X157275D01*
Y157604D01*
X157020D01*
Y157646D01*
Y157689D01*
X156851D01*
Y157731D01*
Y157774D01*
X156681D01*
Y157816D01*
Y157859D01*
X156596D01*
Y157901D01*
Y157943D01*
X156511D01*
Y157986D01*
Y158028D01*
X156426D01*
Y158071D01*
Y158113D01*
X156342D01*
Y158156D01*
X156299D01*
Y158198D01*
Y158241D01*
X156214D01*
Y158283D01*
Y158326D01*
X156172D01*
Y158368D01*
Y158410D01*
Y158453D01*
Y158495D01*
X156044D01*
Y158538D01*
X156087D01*
Y158580D01*
Y158623D01*
Y158665D01*
X155959D01*
Y158707D01*
Y158750D01*
X156002D01*
Y158792D01*
Y158835D01*
Y158877D01*
Y158920D01*
X155875D01*
Y158962D01*
Y159004D01*
Y159047D01*
Y159089D01*
Y159132D01*
Y159174D01*
Y159217D01*
X155790D01*
Y159259D01*
Y159302D01*
Y159344D01*
Y159386D01*
Y159429D01*
Y159471D01*
Y159514D01*
Y159556D01*
Y159599D01*
Y159641D01*
Y159684D01*
Y159726D01*
Y159768D01*
Y159811D01*
Y159853D01*
Y159896D01*
Y159938D01*
Y159981D01*
Y160023D01*
Y160065D01*
Y160108D01*
Y160150D01*
Y160193D01*
Y160235D01*
Y160278D01*
Y160320D01*
Y160363D01*
Y160405D01*
Y160448D01*
Y160490D01*
Y160532D01*
Y160575D01*
Y160617D01*
X155875D01*
Y160660D01*
Y160702D01*
Y160745D01*
Y160787D01*
Y160829D01*
Y160872D01*
Y160914D01*
Y160957D01*
X155959D01*
Y160999D01*
X156002D01*
Y161042D01*
Y161084D01*
X155959D01*
Y161126D01*
Y161169D01*
X156087D01*
Y161211D01*
Y161254D01*
Y161296D01*
Y161339D01*
X156129D01*
Y161381D01*
Y161424D01*
X156257D01*
Y161466D01*
Y161509D01*
Y161551D01*
Y161593D01*
X156299D01*
Y161636D01*
X156342D01*
Y161678D01*
X156384D01*
Y161721D01*
X156426D01*
Y161763D01*
X156469D01*
Y161805D01*
X156511D01*
Y161848D01*
Y161890D01*
X156681D01*
Y161933D01*
Y161975D01*
X156766D01*
Y162018D01*
Y162060D01*
X157020D01*
Y162103D01*
X157063D01*
Y162145D01*
X157190D01*
Y162188D01*
X157233D01*
Y162230D01*
X157742D01*
Y162272D01*
Y162315D01*
X158591D01*
Y162272D01*
D02*
G37*
G36*
X140724Y153317D02*
X140766D01*
Y153275D01*
X140978D01*
Y153233D01*
Y153190D01*
X141063D01*
Y153148D01*
Y153105D01*
Y153063D01*
Y153020D01*
X140978D01*
Y153063D01*
X140936D01*
Y153105D01*
X140893D01*
Y153148D01*
X140851D01*
Y153190D01*
X140808D01*
Y153233D01*
X140129D01*
Y153190D01*
X140087D01*
Y153148D01*
X139960D01*
Y153105D01*
X139875D01*
Y153063D01*
Y153020D01*
Y152978D01*
Y152936D01*
X139790D01*
Y152893D01*
Y152851D01*
Y152808D01*
Y152766D01*
Y152723D01*
Y152681D01*
Y152638D01*
Y152596D01*
Y152554D01*
Y152511D01*
Y152469D01*
Y152426D01*
Y152384D01*
Y152341D01*
Y152299D01*
X139917D01*
Y152257D01*
Y152214D01*
X140087D01*
Y152172D01*
Y152129D01*
X140511D01*
Y152087D01*
X140554D01*
Y152044D01*
X140893D01*
Y152002D01*
Y151959D01*
X141063D01*
Y151917D01*
Y151875D01*
X141148D01*
Y151832D01*
Y151790D01*
X141190D01*
Y151747D01*
X141233D01*
Y151705D01*
Y151662D01*
Y151620D01*
Y151577D01*
X141318D01*
Y151535D01*
Y151493D01*
Y151450D01*
Y151408D01*
Y151365D01*
Y151323D01*
Y151280D01*
Y151238D01*
Y151196D01*
Y151153D01*
X141233D01*
Y151111D01*
Y151068D01*
Y151026D01*
Y150983D01*
X141148D01*
Y150941D01*
Y150898D01*
X141063D01*
Y150856D01*
Y150814D01*
X140936D01*
Y150771D01*
X140893D01*
Y150729D01*
X140681D01*
Y150686D01*
X140639D01*
Y150644D01*
X140129D01*
Y150686D01*
X140087D01*
Y150729D01*
X139875D01*
Y150771D01*
Y150814D01*
X139705D01*
Y150856D01*
Y150898D01*
X139620D01*
Y150941D01*
Y150983D01*
Y151026D01*
Y151068D01*
X139705D01*
Y151026D01*
X139747D01*
Y150983D01*
X139790D01*
Y150941D01*
X139832D01*
Y150898D01*
X139875D01*
Y150856D01*
X140002D01*
Y150814D01*
X140044D01*
Y150771D01*
X140724D01*
Y150814D01*
X140766D01*
Y150856D01*
X140893D01*
Y150898D01*
X140936D01*
Y150941D01*
X141021D01*
Y150983D01*
X141063D01*
Y151026D01*
Y151068D01*
Y151111D01*
Y151153D01*
X141148D01*
Y151196D01*
Y151238D01*
Y151280D01*
Y151323D01*
Y151365D01*
Y151408D01*
Y151450D01*
Y151493D01*
Y151535D01*
Y151577D01*
Y151620D01*
X141063D01*
Y151662D01*
Y151705D01*
Y151747D01*
Y151790D01*
X140978D01*
Y151832D01*
X140936D01*
Y151875D01*
X140596D01*
Y151917D01*
Y151959D01*
X140172D01*
Y152002D01*
X140129D01*
Y152044D01*
X139875D01*
Y152087D01*
Y152129D01*
X139790D01*
Y152172D01*
Y152214D01*
X139705D01*
Y152257D01*
Y152299D01*
X139663D01*
Y152341D01*
X139620D01*
Y152384D01*
Y152426D01*
Y152469D01*
Y152511D01*
Y152554D01*
Y152596D01*
Y152638D01*
Y152681D01*
Y152723D01*
Y152766D01*
Y152808D01*
Y152851D01*
Y152893D01*
Y152936D01*
X139705D01*
Y152978D01*
Y153020D01*
Y153063D01*
Y153105D01*
X139790D01*
Y153148D01*
Y153190D01*
X139960D01*
Y153233D01*
Y153275D01*
X140129D01*
Y153317D01*
X140172D01*
Y153360D01*
X140724D01*
Y153317D01*
D02*
G37*
G36*
X111397D02*
X111440D01*
Y153275D01*
X111567D01*
Y153233D01*
X111610D01*
Y153190D01*
X111779D01*
Y153148D01*
Y153105D01*
Y153063D01*
X111737D01*
Y153020D01*
X111652D01*
Y153063D01*
Y153105D01*
X111567D01*
Y153148D01*
X111482D01*
Y153190D01*
X111440D01*
Y153233D01*
X110761D01*
Y153190D01*
X110676D01*
Y153148D01*
Y153105D01*
X110591D01*
Y153063D01*
Y153020D01*
X110506D01*
Y152978D01*
Y152936D01*
Y152893D01*
Y152851D01*
X110421D01*
Y152808D01*
Y152766D01*
Y152723D01*
Y152681D01*
Y152638D01*
Y152596D01*
Y152554D01*
Y152511D01*
Y152469D01*
Y152426D01*
Y152384D01*
X110506D01*
Y152341D01*
Y152299D01*
X110591D01*
Y152257D01*
Y152214D01*
X110761D01*
Y152172D01*
X110803D01*
Y152129D01*
X111228D01*
Y152087D01*
Y152044D01*
X111567D01*
Y152002D01*
X111610D01*
Y151959D01*
X111652D01*
Y151917D01*
X111695D01*
Y151875D01*
X111737D01*
Y151832D01*
X111779D01*
Y151790D01*
X111822D01*
Y151747D01*
X111864D01*
Y151705D01*
Y151662D01*
X111949D01*
Y151620D01*
X111907D01*
Y151577D01*
Y151535D01*
Y151493D01*
Y151450D01*
Y151408D01*
Y151365D01*
Y151323D01*
Y151280D01*
Y151238D01*
Y151196D01*
Y151153D01*
X111949D01*
Y151111D01*
Y151068D01*
X111864D01*
Y151026D01*
Y150983D01*
X111779D01*
Y150941D01*
Y150898D01*
X111695D01*
Y150856D01*
X111652D01*
Y150814D01*
X111610D01*
Y150771D01*
X111567D01*
Y150729D01*
X111355D01*
Y150686D01*
X111312D01*
Y150644D01*
X110761D01*
Y150686D01*
X110718D01*
Y150729D01*
X110506D01*
Y150771D01*
X110464D01*
Y150814D01*
X110294D01*
Y150856D01*
Y150898D01*
X110251D01*
Y150941D01*
Y150983D01*
Y151026D01*
Y151068D01*
X110336D01*
Y151026D01*
Y150983D01*
X110379D01*
Y150941D01*
X110506D01*
Y150898D01*
X110549D01*
Y150856D01*
X110676D01*
Y150814D01*
X110718D01*
Y150771D01*
X111355D01*
Y150814D01*
X111397D01*
Y150856D01*
X111525D01*
Y150898D01*
X111567D01*
Y150941D01*
X111610D01*
Y150983D01*
X111652D01*
Y151026D01*
Y151068D01*
X111779D01*
Y151111D01*
Y151153D01*
Y151196D01*
Y151238D01*
Y151280D01*
Y151323D01*
Y151365D01*
Y151408D01*
Y151450D01*
Y151493D01*
Y151535D01*
Y151577D01*
Y151620D01*
Y151662D01*
X111737D01*
Y151705D01*
X111652D01*
Y151747D01*
Y151790D01*
X111567D01*
Y151832D01*
Y151875D01*
X111312D01*
Y151917D01*
X111270D01*
Y151959D01*
X110761D01*
Y152002D01*
Y152044D01*
X110591D01*
Y152087D01*
Y152129D01*
X110421D01*
Y152172D01*
X110379D01*
Y152214D01*
X110336D01*
Y152257D01*
Y152299D01*
Y152341D01*
Y152384D01*
Y152426D01*
Y152469D01*
Y152511D01*
X110251D01*
Y152554D01*
Y152596D01*
Y152638D01*
Y152681D01*
Y152723D01*
Y152766D01*
Y152808D01*
Y152851D01*
X110336D01*
Y152893D01*
Y152936D01*
Y152978D01*
Y153020D01*
X110379D01*
Y153063D01*
X110421D01*
Y153105D01*
X110464D01*
Y153148D01*
X110506D01*
Y153190D01*
X110549D01*
Y153233D01*
X110591D01*
Y153275D01*
X110803D01*
Y153317D01*
X110846D01*
Y153360D01*
X111397D01*
Y153317D01*
D02*
G37*
%LPC*%
G36*
X136862Y152936D02*
X136564D01*
Y152893D01*
Y152851D01*
Y152808D01*
Y152766D01*
Y152723D01*
X136607D01*
Y152681D01*
X136479D01*
Y152638D01*
Y152596D01*
Y152554D01*
Y152511D01*
Y152469D01*
Y152426D01*
X136395D01*
Y152384D01*
Y152341D01*
Y152299D01*
Y152257D01*
Y152214D01*
Y152172D01*
Y152129D01*
X136310D01*
Y152087D01*
Y152044D01*
Y152002D01*
Y151959D01*
Y151917D01*
Y151875D01*
X136225D01*
Y151832D01*
Y151790D01*
Y151747D01*
Y151705D01*
X136140D01*
Y151662D01*
Y151620D01*
Y151577D01*
Y151535D01*
Y151493D01*
X136225D01*
Y151450D01*
X136267D01*
Y151408D01*
X137201D01*
Y151450D01*
Y151493D01*
X137328D01*
Y151535D01*
Y151577D01*
Y151620D01*
Y151662D01*
Y151705D01*
X137201D01*
Y151747D01*
Y151790D01*
X137243D01*
Y151832D01*
Y151875D01*
Y151917D01*
Y151959D01*
X137116D01*
Y152002D01*
Y152044D01*
Y152087D01*
Y152129D01*
X137031D01*
Y152172D01*
Y152214D01*
Y152257D01*
Y152299D01*
Y152341D01*
Y152384D01*
Y152426D01*
X136946D01*
Y152469D01*
Y152511D01*
Y152554D01*
Y152596D01*
Y152638D01*
Y152681D01*
X136862D01*
Y152723D01*
Y152766D01*
Y152808D01*
Y152851D01*
Y152893D01*
Y152936D01*
D02*
G37*
G36*
X143015D02*
X142845D01*
Y152893D01*
Y152851D01*
Y152808D01*
Y152766D01*
Y152723D01*
Y152681D01*
X142761D01*
Y152638D01*
Y152596D01*
Y152554D01*
Y152511D01*
X142676D01*
Y152469D01*
X142633D01*
Y152426D01*
Y152384D01*
Y152341D01*
X142676D01*
Y152299D01*
Y152257D01*
X142633D01*
Y152214D01*
X142548D01*
Y152172D01*
Y152129D01*
Y152087D01*
Y152044D01*
X142591D01*
Y152002D01*
Y151959D01*
X142464D01*
Y151917D01*
Y151875D01*
Y151832D01*
Y151790D01*
Y151747D01*
X142506D01*
Y151705D01*
X142379D01*
Y151662D01*
Y151620D01*
Y151577D01*
Y151535D01*
Y151493D01*
Y151450D01*
X142421D01*
Y151408D01*
X143440D01*
Y151450D01*
Y151493D01*
X143567D01*
Y151535D01*
Y151577D01*
Y151620D01*
Y151662D01*
Y151705D01*
X143482D01*
Y151747D01*
Y151790D01*
Y151832D01*
Y151875D01*
X143397D01*
Y151917D01*
Y151959D01*
Y152002D01*
Y152044D01*
Y152087D01*
Y152129D01*
X143312D01*
Y152172D01*
X143270D01*
Y152214D01*
X143312D01*
Y152257D01*
Y152299D01*
Y152341D01*
Y152384D01*
Y152426D01*
X143185D01*
Y152469D01*
Y152511D01*
X143228D01*
Y152554D01*
Y152596D01*
Y152638D01*
X143185D01*
Y152681D01*
X143100D01*
Y152723D01*
Y152766D01*
Y152808D01*
Y152851D01*
X143015D01*
Y152893D01*
Y152936D01*
D02*
G37*
G36*
X125700Y153233D02*
X124809D01*
Y153190D01*
X124681D01*
Y153148D01*
Y153105D01*
Y153063D01*
Y153020D01*
Y152978D01*
Y152936D01*
Y152893D01*
Y152851D01*
Y152808D01*
Y152766D01*
Y152723D01*
Y152681D01*
Y152638D01*
Y152596D01*
Y152554D01*
Y152511D01*
Y152469D01*
Y152426D01*
Y152384D01*
Y152341D01*
Y152299D01*
Y152257D01*
Y152214D01*
Y152172D01*
Y152129D01*
Y152087D01*
Y152044D01*
X125742D01*
Y152087D01*
X125785D01*
Y152129D01*
X125954D01*
Y152172D01*
Y152214D01*
X126039D01*
Y152257D01*
Y152299D01*
Y152341D01*
Y152384D01*
X126124D01*
Y152426D01*
X126167D01*
Y152469D01*
Y152511D01*
Y152554D01*
Y152596D01*
Y152638D01*
Y152681D01*
Y152723D01*
Y152766D01*
Y152808D01*
Y152851D01*
X126039D01*
Y152893D01*
Y152936D01*
Y152978D01*
Y153020D01*
X125954D01*
Y153063D01*
Y153105D01*
X125870D01*
Y153148D01*
X125785D01*
Y153190D01*
X125700D01*
Y153233D01*
D02*
G37*
G36*
X162156D02*
X161349D01*
Y153190D01*
X161265D01*
Y153148D01*
X161137D01*
Y153105D01*
Y153063D01*
Y153020D01*
Y152978D01*
Y152936D01*
X161222D01*
Y152893D01*
X161265D01*
Y152851D01*
X161222D01*
Y152808D01*
Y152766D01*
Y152723D01*
Y152681D01*
Y152638D01*
Y152596D01*
Y152554D01*
Y152511D01*
Y152469D01*
Y152426D01*
Y152384D01*
X161265D01*
Y152341D01*
X161137D01*
Y152299D01*
Y152257D01*
Y152214D01*
Y152172D01*
Y152129D01*
X161265D01*
Y152087D01*
Y152044D01*
X162198D01*
Y152087D01*
X162241D01*
Y152129D01*
X162368D01*
Y152172D01*
X162410D01*
Y152214D01*
X162495D01*
Y152257D01*
Y152299D01*
X162580D01*
Y152341D01*
Y152384D01*
Y152426D01*
Y152469D01*
Y152511D01*
Y152554D01*
Y152596D01*
Y152638D01*
Y152681D01*
Y152723D01*
Y152766D01*
Y152808D01*
Y152851D01*
Y152893D01*
Y152936D01*
X162495D01*
Y152978D01*
Y153020D01*
X162410D01*
Y153063D01*
Y153105D01*
X162326D01*
Y153148D01*
X162198D01*
Y153190D01*
X162156D01*
Y153233D01*
D02*
G37*
G36*
X122856D02*
X122347D01*
Y153190D01*
X122304D01*
Y153148D01*
X122177D01*
Y153105D01*
X122135D01*
Y153063D01*
X122092D01*
Y153020D01*
X122007D01*
Y152978D01*
Y152936D01*
Y152893D01*
Y152851D01*
X121923D01*
Y152808D01*
Y152766D01*
Y152723D01*
Y152681D01*
Y152638D01*
Y152596D01*
X121838D01*
Y152554D01*
Y152511D01*
Y152469D01*
Y152426D01*
Y152384D01*
Y152341D01*
Y152299D01*
Y152257D01*
Y152214D01*
Y152172D01*
Y152129D01*
Y152087D01*
Y152044D01*
Y152002D01*
Y151959D01*
Y151917D01*
Y151875D01*
Y151832D01*
Y151790D01*
Y151747D01*
Y151705D01*
Y151662D01*
Y151620D01*
Y151577D01*
Y151535D01*
Y151493D01*
X121923D01*
Y151450D01*
Y151408D01*
Y151365D01*
Y151323D01*
Y151280D01*
Y151238D01*
Y151196D01*
Y151153D01*
X122007D01*
Y151111D01*
Y151068D01*
Y151026D01*
Y150983D01*
X122050D01*
Y150941D01*
X122220D01*
Y150898D01*
Y150856D01*
X122304D01*
Y150814D01*
X122347D01*
Y150771D01*
X122856D01*
Y150814D01*
X122899D01*
Y150856D01*
X122984D01*
Y150898D01*
Y150941D01*
X123153D01*
Y150983D01*
X123196D01*
Y151026D01*
Y151068D01*
Y151111D01*
Y151153D01*
X123281D01*
Y151196D01*
Y151238D01*
Y151280D01*
Y151323D01*
Y151365D01*
Y151408D01*
X123365D01*
Y151450D01*
Y151493D01*
Y151535D01*
Y151577D01*
Y151620D01*
Y151662D01*
Y151705D01*
Y151747D01*
Y151790D01*
Y151832D01*
Y151875D01*
Y151917D01*
Y151959D01*
Y152002D01*
Y152044D01*
Y152087D01*
Y152129D01*
Y152172D01*
Y152214D01*
Y152257D01*
Y152299D01*
Y152341D01*
Y152384D01*
Y152426D01*
Y152469D01*
Y152511D01*
Y152554D01*
Y152596D01*
Y152638D01*
Y152681D01*
X123281D01*
Y152723D01*
Y152766D01*
Y152808D01*
Y152851D01*
Y152893D01*
Y152936D01*
X123196D01*
Y152978D01*
X123153D01*
Y153020D01*
X123111D01*
Y153063D01*
X123068D01*
Y153105D01*
X123026D01*
Y153148D01*
X122899D01*
Y153190D01*
X122856D01*
Y153233D01*
D02*
G37*
G36*
X194915Y220665D02*
X194869D01*
X194823Y220658D01*
X194753Y220642D01*
X194684Y220612D01*
X194600Y220573D01*
X194515Y220519D01*
X194431Y220450D01*
X194423Y220443D01*
X194392Y220412D01*
X194354Y220358D01*
X194300Y220289D01*
X194246Y220197D01*
X194185Y220089D01*
X194124Y219951D01*
X194062Y219797D01*
X194054Y219782D01*
X194047Y219744D01*
X194031Y219674D01*
X194008Y219598D01*
X193985Y219498D01*
X193970Y219398D01*
X193962Y219290D01*
X193955Y219191D01*
Y219183D01*
Y219175D01*
Y219152D01*
Y219122D01*
X193962Y219045D01*
X193978Y218953D01*
X194001Y218853D01*
X194031Y218745D01*
X194078Y218645D01*
X194139Y218553D01*
X194147Y218546D01*
X194170Y218523D01*
X194216Y218484D01*
X194270Y218446D01*
X194331Y218407D01*
X194415Y218369D01*
X194508Y218346D01*
X194607Y218338D01*
X194653D01*
X194700Y218346D01*
X194769Y218361D01*
X194845Y218384D01*
X194930Y218423D01*
X195022Y218469D01*
X195114Y218530D01*
X195122Y218538D01*
X195153Y218569D01*
X195199Y218615D01*
X195260Y218676D01*
X195322Y218753D01*
X195383Y218853D01*
X195445Y218960D01*
X195498Y219091D01*
Y219098D01*
X195506Y219106D01*
X195521Y219152D01*
X195537Y219221D01*
X195567Y219314D01*
X195590Y219421D01*
X195606Y219544D01*
X195621Y219667D01*
X195629Y219797D01*
Y219805D01*
Y219813D01*
Y219859D01*
X195621Y219928D01*
X195606Y220020D01*
X195575Y220120D01*
X195537Y220220D01*
X195483Y220327D01*
X195414Y220420D01*
X195406Y220427D01*
X195375Y220458D01*
X195329Y220496D01*
X195268Y220542D01*
X195199Y220588D01*
X195114Y220627D01*
X195015Y220658D01*
X194915Y220665D01*
D02*
G37*
G36*
X207418D02*
X207364D01*
X207310Y220650D01*
X207233Y220635D01*
X207149Y220604D01*
X207057Y220565D01*
X206957Y220504D01*
X206865Y220427D01*
X206857Y220420D01*
X206826Y220381D01*
X206788Y220327D01*
X206734Y220258D01*
X206680Y220158D01*
X206627Y220043D01*
X206581Y219905D01*
X206542Y219744D01*
X208094D01*
Y219751D01*
Y219782D01*
Y219813D01*
Y219844D01*
Y219851D01*
Y219859D01*
Y219882D01*
Y219913D01*
X208086Y219982D01*
X208070Y220074D01*
X208047Y220174D01*
X208017Y220274D01*
X207971Y220373D01*
X207909Y220458D01*
X207902Y220466D01*
X207878Y220489D01*
X207832Y220527D01*
X207779Y220565D01*
X207710Y220596D01*
X207625Y220635D01*
X207525Y220658D01*
X207418Y220665D01*
D02*
G37*
G36*
X199407Y226774D02*
X199354D01*
X199292Y226766D01*
X199215Y226751D01*
X199131Y226728D01*
X199031Y226689D01*
X198931Y226643D01*
X198839Y226574D01*
X198831Y226567D01*
X198801Y226536D01*
X198755Y226490D01*
X198701Y226428D01*
X198639Y226344D01*
X198570Y226244D01*
X198509Y226129D01*
X198455Y225991D01*
Y225983D01*
X198447Y225975D01*
X198432Y225929D01*
X198417Y225852D01*
X198394Y225760D01*
X198363Y225653D01*
X198348Y225537D01*
X198332Y225415D01*
X198325Y225292D01*
Y225284D01*
Y225276D01*
Y225230D01*
X198332Y225153D01*
X198348Y225069D01*
X198378Y224969D01*
X198409Y224862D01*
X198463Y224762D01*
X198532Y224670D01*
X198540Y224662D01*
X198570Y224631D01*
X198616Y224601D01*
X198678Y224554D01*
X198755Y224516D01*
X198847Y224478D01*
X198954Y224447D01*
X199069Y224439D01*
X199108D01*
X199139Y224447D01*
X199208Y224455D01*
X199308Y224485D01*
X199407Y224524D01*
X199523Y224585D01*
X199638Y224670D01*
X199692Y224723D01*
X199745Y224785D01*
X199753Y224793D01*
X199761Y224808D01*
X199784Y224839D01*
X199807Y224877D01*
X199838Y224923D01*
X199868Y224977D01*
X199907Y225046D01*
X199945Y225123D01*
X199976Y225207D01*
X200014Y225299D01*
X200076Y225507D01*
X200122Y225737D01*
X200129Y225860D01*
X200137Y225991D01*
Y225998D01*
Y226006D01*
Y226052D01*
X200129Y226113D01*
X200114Y226198D01*
X200083Y226282D01*
X200053Y226382D01*
X199999Y226474D01*
X199930Y226559D01*
X199922Y226567D01*
X199891Y226590D01*
X199853Y226628D01*
X199791Y226666D01*
X199715Y226705D01*
X199622Y226743D01*
X199523Y226766D01*
X199407Y226774D01*
D02*
G37*
G36*
X158718Y161636D02*
X157615D01*
Y161593D01*
Y161551D01*
X157445D01*
Y161509D01*
X157403D01*
Y161466D01*
Y161424D01*
X157233D01*
Y161381D01*
Y161339D01*
X157063D01*
Y161296D01*
Y161254D01*
X156936D01*
Y161211D01*
Y161169D01*
Y161126D01*
Y161084D01*
X156893D01*
Y161042D01*
Y160999D01*
X156766D01*
Y160957D01*
Y160914D01*
Y160872D01*
Y160829D01*
X156681D01*
Y160787D01*
Y160745D01*
Y160702D01*
Y160660D01*
Y160617D01*
Y160575D01*
Y160532D01*
Y160490D01*
Y160448D01*
X156596D01*
Y160405D01*
Y160363D01*
Y160320D01*
Y160278D01*
Y160235D01*
Y160193D01*
Y160150D01*
Y160108D01*
Y160065D01*
Y160023D01*
Y159981D01*
Y159938D01*
Y159896D01*
Y159853D01*
Y159811D01*
Y159768D01*
Y159726D01*
Y159684D01*
Y159641D01*
Y159599D01*
Y159556D01*
Y159514D01*
Y159471D01*
Y159429D01*
Y159386D01*
Y159344D01*
Y159302D01*
Y159259D01*
X156681D01*
Y159217D01*
Y159174D01*
Y159132D01*
Y159089D01*
Y159047D01*
Y159004D01*
Y158962D01*
Y158920D01*
X156766D01*
Y158877D01*
Y158835D01*
Y158792D01*
Y158750D01*
X156851D01*
Y158707D01*
X156893D01*
Y158665D01*
X156936D01*
Y158623D01*
X156978D01*
Y158580D01*
X157020D01*
Y158538D01*
X157063D01*
Y158495D01*
X157105D01*
Y158453D01*
X157148D01*
Y158410D01*
Y158368D01*
X157233D01*
Y158326D01*
Y158283D01*
X157403D01*
Y158241D01*
X157445D01*
Y158198D01*
X157700D01*
Y158156D01*
Y158113D01*
X158633D01*
Y158156D01*
Y158198D01*
X158888D01*
Y158241D01*
X158930D01*
Y158283D01*
X159058D01*
Y158326D01*
X159100D01*
Y158368D01*
X159142D01*
Y158410D01*
X159185D01*
Y158453D01*
X159227D01*
Y158495D01*
X159270D01*
Y158538D01*
Y158580D01*
X159355D01*
Y158623D01*
Y158665D01*
X159482D01*
Y158707D01*
Y158750D01*
Y158792D01*
Y158835D01*
X159567D01*
Y158877D01*
Y158920D01*
Y158962D01*
Y159004D01*
X159652D01*
Y159047D01*
Y159089D01*
Y159132D01*
Y159174D01*
Y159217D01*
Y159259D01*
Y159302D01*
Y159344D01*
Y159386D01*
X159737D01*
Y159429D01*
Y159471D01*
Y159514D01*
Y159556D01*
Y159599D01*
Y159641D01*
Y159684D01*
Y159726D01*
Y159768D01*
Y159811D01*
Y159853D01*
Y159896D01*
Y159938D01*
Y159981D01*
Y160023D01*
Y160065D01*
Y160108D01*
Y160150D01*
Y160193D01*
Y160235D01*
Y160278D01*
Y160320D01*
Y160363D01*
X159652D01*
Y160405D01*
Y160448D01*
Y160490D01*
Y160532D01*
Y160575D01*
Y160617D01*
Y160660D01*
Y160702D01*
Y160745D01*
X159567D01*
Y160787D01*
Y160829D01*
Y160872D01*
Y160914D01*
Y160957D01*
Y160999D01*
X159440D01*
Y161042D01*
Y161084D01*
X159355D01*
Y161126D01*
Y161169D01*
X159397D01*
Y161211D01*
Y161254D01*
X159270D01*
Y161296D01*
Y161339D01*
X159100D01*
Y161381D01*
Y161424D01*
X158930D01*
Y161466D01*
X158888D01*
Y161509D01*
Y161551D01*
X158718D01*
Y161593D01*
Y161636D01*
D02*
G37*
%LPD*%
D25*
X170177Y183839D02*
G03*
X170177Y183839I-492J0D01*
G01*
X115453Y78681D02*
G03*
X115453Y78681I-492J0D01*
G01*
X86319Y183839D02*
G03*
X86319Y183839I-492J0D01*
G01*
D26*
X125591Y74606D02*
G03*
X125591Y74606I-1181J0D01*
G01*
D27*
X51575Y175591D02*
X68717D01*
X41157Y125591D02*
X68717D01*
X137008Y68323D02*
Y83284D01*
X118898Y68323D02*
Y83284D01*
X127953Y82284D02*
X137008D01*
X118898D02*
X127953D01*
X131008Y84284D02*
X137008Y82284D01*
X131008Y80283D02*
X137008Y82284D01*
X118898D02*
X124898Y80283D01*
X118898Y82284D02*
X124898Y84284D01*
X98032Y133163D02*
Y127165D01*
Y130164D01*
X102030D01*
Y133163D01*
Y127165D01*
X104030Y133163D02*
Y129165D01*
X106029Y127165D01*
X108028Y129165D01*
Y133163D01*
X104786Y182951D02*
X103786Y183951D01*
X101787D01*
X100787Y182951D01*
Y178952D01*
X101787Y177953D01*
X103786D01*
X104786Y178952D01*
Y180952D01*
X102787D01*
X106786Y183951D02*
Y177953D01*
X110784D01*
X112784Y183951D02*
Y179952D01*
X114783Y177953D01*
X116782Y179952D01*
Y183951D01*
X122780Y182951D02*
X121781Y183951D01*
X119781D01*
X118782Y182951D01*
Y181951D01*
X119781Y180952D01*
X121781D01*
X122780Y179952D01*
Y178952D01*
X121781Y177953D01*
X119781D01*
X118782Y178952D01*
X72835Y229226D02*
X76833D01*
X74834D01*
Y223228D01*
X82831Y228227D02*
X81832Y229226D01*
X79832D01*
X78833Y228227D01*
Y227227D01*
X79832Y226227D01*
X81832D01*
X82831Y225228D01*
Y224228D01*
X81832Y223228D01*
X79832D01*
X78833Y224228D01*
X84831Y223228D02*
Y227227D01*
X86830Y229226D01*
X88829Y227227D01*
Y223228D01*
Y226227D01*
X84831D01*
X90829Y229226D02*
Y223228D01*
X94828D01*
X102825D02*
Y229226D01*
X105824D01*
X106824Y228227D01*
Y226227D01*
X105824Y225228D01*
X102825D01*
X104824D02*
X106824Y223228D01*
X112822Y229226D02*
X108823D01*
Y223228D01*
X112822D01*
X108823Y226227D02*
X110822D01*
X114821Y229226D02*
Y225228D01*
X116820Y223228D01*
X118820Y225228D01*
Y229226D01*
X120819Y222229D02*
X124818D01*
X126817Y228227D02*
X127817Y229226D01*
X129816D01*
X130816Y228227D01*
Y224228D01*
X129816Y223228D01*
X127817D01*
X126817Y224228D01*
Y228227D01*
D28*
X67716Y150591D02*
Y175591D01*
Y125591D02*
Y150591D01*
X65716Y169591D02*
X67716Y175591D01*
X69717Y169591D01*
X67716Y125591D02*
X69717Y131590D01*
X65716D02*
X67716Y125591D01*
X178347Y60236D02*
Y109449D01*
X128262Y60213D02*
Y109449D01*
X153304Y108661D02*
X178347D01*
X128262D02*
X153304D01*
X172346Y110661D02*
X178347Y108661D01*
X172346Y106661D02*
X178347Y108661D01*
X128262D02*
X134262Y106661D01*
X128262Y108661D02*
X134262Y110661D01*
X233071Y232283D02*
Y242126D01*
X39370Y232283D02*
Y242126D01*
X233465Y59055D02*
X274016D01*
X234646Y232283D02*
X274016D01*
X160236Y210039D02*
X161811D01*
Y183661D02*
Y210039D01*
X160236Y183661D02*
X161811D01*
X83071Y64173D02*
Y117717D01*
X66535Y64173D02*
X83071D01*
X66535D02*
Y117717D01*
X83071D01*
X103839Y74016D02*
Y74410D01*
X99311Y74016D02*
Y74410D01*
X108760Y99016D02*
Y112795D01*
X95965Y99016D02*
Y112795D01*
X209492Y174752D02*
Y203752D01*
X262992D01*
Y174752D02*
Y203752D01*
X209492Y174752D02*
X262992D01*
X209492Y125657D02*
Y154657D01*
X262992D01*
Y125657D02*
Y154657D01*
X209492Y125657D02*
X262992D01*
X209492Y81681D02*
Y110681D01*
X262992D01*
Y81681D02*
Y110681D01*
X209492Y81681D02*
X262992D01*
X58618D02*
Y110681D01*
X5118Y81681D02*
X58618D01*
X5118D02*
Y110681D01*
X58618D01*
X120472Y67126D02*
X135433D01*
X120472Y78543D02*
X135433D01*
Y67126D02*
Y78543D01*
X120472Y67126D02*
Y78543D01*
X190945Y161713D02*
X191339D01*
X190945Y157185D02*
X191339D01*
X120571Y106496D02*
Y106890D01*
X125098Y106496D02*
Y106890D01*
X75984Y183661D02*
X78347D01*
Y210039D01*
X75984D02*
X78347D01*
X39764Y125591D02*
X128262Y125591D01*
X39764Y175591D02*
X178347D01*
X128262Y59425D02*
Y125591D01*
X178347Y59449D02*
Y175591D01*
D29*
X152715Y241339D02*
X233071D01*
X39370D02*
X116938D01*
X227071Y243339D02*
X233071Y241339D01*
X227071Y239339D02*
X233071Y241339D01*
X39370D02*
X45370Y239339D01*
X39370Y241339D02*
X45370Y243339D01*
X273228Y59055D02*
Y126387D01*
Y162164D02*
Y232283D01*
Y59055D02*
X275228Y65055D01*
X271228D02*
X273228Y59055D01*
X271228Y226283D02*
X273228Y232283D01*
X275228Y226283D01*
X105075Y67213D02*
Y81213D01*
X97575D02*
X105075D01*
X97575Y67213D02*
Y81213D01*
Y67213D02*
X105075D01*
X184142Y155949D02*
Y163449D01*
X198142D01*
Y155949D02*
Y163449D01*
X184142Y155949D02*
X198142D01*
X119335Y99693D02*
Y113693D01*
Y99693D02*
X126835D01*
Y113693D01*
X119335D02*
X126835D01*
X121331Y237946D02*
Y243944D01*
X118332Y240945D01*
X122331D01*
X124330Y238946D02*
X125330Y237946D01*
X127329D01*
X128329Y238946D01*
Y242944D01*
X127329Y243944D01*
X125330D01*
X124330Y242944D01*
Y241945D01*
X125330Y240945D01*
X128329D01*
X130328Y237946D02*
Y238946D01*
X131328D01*
Y237946D01*
X130328D01*
X139325D02*
X135327D01*
X139325Y241945D01*
Y242944D01*
X138326Y243944D01*
X136326D01*
X135327Y242944D01*
X141325Y237946D02*
Y241945D01*
X142324D01*
X143324Y240945D01*
Y237946D01*
Y240945D01*
X144324Y241945D01*
X145323Y240945D01*
Y237946D01*
X147323D02*
Y241945D01*
X148322D01*
X149322Y240945D01*
Y237946D01*
Y240945D01*
X150322Y241945D01*
X151321Y240945D01*
Y237946D01*
X276621Y130780D02*
X270623D01*
X273622Y127781D01*
Y131780D01*
X276621Y136778D02*
X270623D01*
X273622Y133779D01*
Y137778D01*
X276621Y139777D02*
X275621D01*
Y140777D01*
X276621D01*
Y139777D01*
X271623Y144775D02*
X270623Y145775D01*
Y147774D01*
X271623Y148774D01*
X275621D01*
X276621Y147774D01*
Y145775D01*
X275621Y144775D01*
X271623D01*
X276621Y150774D02*
X272622D01*
Y151773D01*
X273622Y152773D01*
X276621D01*
X273622D01*
X272622Y153772D01*
X273622Y154772D01*
X276621D01*
Y156772D02*
X272622D01*
Y157771D01*
X273622Y158771D01*
X276621D01*
X273622D01*
X272622Y159771D01*
X273622Y160770D01*
X276621D01*
D30*
X116535Y104528D02*
X112600D01*
Y106495D01*
X113256Y107151D01*
X114568D01*
X115224Y106495D01*
Y104528D01*
Y105840D02*
X116535Y107151D01*
X113256Y108463D02*
X112600Y109119D01*
Y110431D01*
X113256Y111087D01*
X113912D01*
X114568Y110431D01*
Y109775D01*
Y110431D01*
X115224Y111087D01*
X115879D01*
X116535Y110431D01*
Y109119D01*
X115879Y108463D01*
X187402Y165354D02*
Y169290D01*
X189369D01*
X190025Y168634D01*
Y167322D01*
X189369Y166666D01*
X187402D01*
X188714D02*
X190025Y165354D01*
X193305D02*
Y169290D01*
X191337Y167322D01*
X193961D01*
X114567Y64959D02*
Y61680D01*
X115223Y61024D01*
X116535D01*
X117191Y61680D01*
Y64959D01*
X118503Y61024D02*
X119815D01*
X119159D01*
Y64959D01*
X118503Y64303D01*
X53017Y80432D02*
X51706D01*
X52362D01*
Y77152D01*
X51706Y76496D01*
X51050D01*
X50394Y77152D01*
X54329Y76496D02*
X55641D01*
X54985D01*
Y80432D01*
X54329Y79776D01*
X217191Y80432D02*
X215879D01*
X216535D01*
Y77152D01*
X215879Y76496D01*
X215223D01*
X214567Y77152D01*
X221127Y76496D02*
X218503D01*
X221127Y79120D01*
Y79776D01*
X220470Y80432D01*
X219159D01*
X218503Y79776D01*
X217191Y124408D02*
X215879D01*
X216535D01*
Y121128D01*
X215879Y120472D01*
X215223D01*
X214567Y121128D01*
X218503Y123752D02*
X219159Y124408D01*
X220470D01*
X221127Y123752D01*
Y123096D01*
X220470Y122440D01*
X219815D01*
X220470D01*
X221127Y121784D01*
Y121128D01*
X220470Y120472D01*
X219159D01*
X218503Y121128D01*
X217191Y172046D02*
X215879D01*
X216535D01*
Y168766D01*
X215879Y168110D01*
X215223D01*
X214567Y168766D01*
X220470Y168110D02*
Y172046D01*
X218503Y170078D01*
X221127D01*
X134907Y212467D02*
Y215091D01*
X134251Y215747D01*
X132939D01*
X132283Y215091D01*
Y212467D01*
X132939Y211811D01*
X134251D01*
X133595Y213123D02*
X134907Y211811D01*
X134251D02*
X134907Y212467D01*
X136219Y211811D02*
X137531D01*
X136875D01*
Y215747D01*
X136219Y215091D01*
X62872Y214042D02*
Y216666D01*
X62216Y217322D01*
X60904D01*
X60248Y216666D01*
Y214042D01*
X60904Y213386D01*
X62216D01*
X61560Y214698D02*
X62872Y213386D01*
X62216D02*
X62872Y214042D01*
X66808Y213386D02*
X64184D01*
X66808Y216010D01*
Y216666D01*
X66152Y217322D01*
X64840D01*
X64184Y216666D01*
X92913Y105425D02*
X88978D01*
Y107393D01*
X89634Y108049D01*
X90946D01*
X91602Y107393D01*
Y105425D01*
Y106737D02*
X92913Y108049D01*
Y109361D02*
Y110673D01*
Y110017D01*
X88978D01*
X89634Y109361D01*
X92913Y70866D02*
X88978D01*
Y72834D01*
X89634Y73490D01*
X90946D01*
X91602Y72834D01*
Y70866D01*
Y72178D02*
X92913Y73490D01*
Y77426D02*
Y74802D01*
X90290Y77426D01*
X89634D01*
X88978Y76770D01*
Y75458D01*
X89634Y74802D01*
X61025Y94325D02*
Y91701D01*
X62993D01*
Y93013D01*
Y91701D01*
X64961D01*
Y95636D02*
Y96948D01*
Y96293D01*
X61025D01*
X61681Y95636D01*
X61024Y131890D02*
Y133858D01*
Y132874D01*
X55120D01*
X56104Y131890D01*
X61024Y140745D02*
Y136809D01*
X57088Y140745D01*
X56104D01*
X55120Y139761D01*
Y137793D01*
X56104Y136809D01*
X61024Y142713D02*
X60040D01*
Y143697D01*
X61024D01*
Y142713D01*
X55120Y147633D02*
Y151568D01*
X56104D01*
X60040Y147633D01*
X61024D01*
Y153536D02*
X57088D01*
Y154520D01*
X58072Y155504D01*
X61024D01*
X58072D01*
X57088Y156488D01*
X58072Y157472D01*
X61024D01*
Y159440D02*
X57088D01*
Y160424D01*
X58072Y161408D01*
X61024D01*
X58072D01*
X57088Y162392D01*
X58072Y163376D01*
X61024D01*
X138189Y111417D02*
X140157D01*
X139173D01*
Y117321D01*
X138189Y116337D01*
X147044Y111417D02*
X143109D01*
X147044Y115353D01*
Y116337D01*
X146060Y117321D01*
X144093D01*
X143109Y116337D01*
X149012Y111417D02*
Y112401D01*
X149996D01*
Y111417D01*
X149012D01*
X153932Y117321D02*
X157868D01*
Y116337D01*
X153932Y112401D01*
Y111417D01*
X159836D02*
Y115353D01*
X160819D01*
X161803Y114369D01*
Y111417D01*
Y114369D01*
X162787Y115353D01*
X163771Y114369D01*
Y111417D01*
X165739D02*
Y115353D01*
X166723D01*
X167707Y114369D01*
Y111417D01*
Y114369D01*
X168691Y115353D01*
X169675Y114369D01*
Y111417D01*
D31*
X122036Y87402D02*
Y93400D01*
X119037Y90401D01*
X123035D01*
X125035Y87402D02*
Y88401D01*
X126034D01*
Y87402D01*
X125035D01*
X134032Y93400D02*
X132032Y92400D01*
X130033Y90401D01*
Y88401D01*
X131033Y87402D01*
X133032D01*
X134032Y88401D01*
Y89401D01*
X133032Y90401D01*
X130033D01*
X136031Y87402D02*
Y91400D01*
X137031D01*
X138031Y90401D01*
Y87402D01*
Y90401D01*
X139030Y91400D01*
X140030Y90401D01*
Y87402D01*
X142029D02*
Y91400D01*
X143029D01*
X144028Y90401D01*
Y87402D01*
Y90401D01*
X145028Y91400D01*
X146028Y90401D01*
Y87402D01*
M02*
