G04 Layer_Color=8388736*
%FSLAX25Y25*%
%MOIN*%
G70*
G01*
G75*
%ADD32R,0.29146X0.27572*%
%ADD33R,0.09461X0.04540*%
%ADD34R,0.16784X0.15800*%
%ADD35R,0.06115X0.04737*%
%ADD36R,0.14383X0.06509*%
%ADD37O,0.08674X0.03162*%
%ADD38R,0.04737X0.06115*%
%ADD39R,0.09658X0.04540*%
%ADD40C,0.07887*%
%ADD41R,0.07887X0.07887*%
%ADD42C,0.12611*%
%ADD43C,0.05800*%
D32*
X144488Y196850D02*
D03*
X60236D02*
D03*
D33*
X169685Y205827D02*
D03*
Y187874D02*
D03*
D34*
X74803Y109843D02*
D03*
Y72047D02*
D03*
D35*
X101575Y77953D02*
D03*
Y70472D02*
D03*
X122835Y102953D02*
D03*
Y110433D02*
D03*
D36*
X102362Y117224D02*
D03*
Y94587D02*
D03*
D37*
X140945Y70335D02*
D03*
Y75335D02*
D03*
X114961Y70335D02*
D03*
Y75335D02*
D03*
D38*
X187402Y159449D02*
D03*
X194882D02*
D03*
D39*
X85827Y187874D02*
D03*
Y205827D02*
D03*
D40*
X214173Y194252D02*
D03*
Y145158D02*
D03*
Y101181D02*
D03*
X53937Y91181D02*
D03*
D41*
X214173Y184252D02*
D03*
Y135158D02*
D03*
Y91181D02*
D03*
X53937Y101181D02*
D03*
D42*
X48031Y222835D02*
D03*
X225590D02*
D03*
Y66535D02*
D03*
X48031D02*
D03*
D43*
X92520Y65354D02*
D03*
X189764Y70472D02*
D03*
X111811Y194252D02*
D03*
X179134Y189764D02*
D03*
X205118Y125591D02*
D03*
X213779Y214961D02*
D03*
X94882Y205906D02*
D03*
M02*
