G04*
G04 #@! TF.GenerationSoftware,Altium Limited,Altium Designer,18.1.11 (251)*
G04*
G04 Layer_Physical_Order=1*
G04 Layer_Color=255*
%FSLAX25Y25*%
%MOIN*%
G70*
G01*
G75*
%ADD17R,0.04331X0.05512*%
%ADD18R,0.04134X0.03937*%
%ADD19R,0.03150X0.03150*%
%ADD20R,0.03937X0.04134*%
%ADD21R,0.03150X0.03150*%
%ADD22O,0.07874X0.02362*%
%ADD23R,0.03740X0.08858*%
%ADD24R,0.26772X0.28347*%
%ADD25R,0.03740X0.08661*%
%ADD26R,0.03937X0.02362*%
%ADD27R,0.06693X0.04331*%
%ADD28R,0.05512X0.04331*%
%ADD29R,0.21260X0.04134*%
%ADD30R,0.04134X0.05709*%
%ADD31R,0.15984X0.15000*%
%ADD52C,0.01575*%
%ADD53C,0.03937*%
%ADD54C,0.01000*%
%ADD55C,0.01968*%
%ADD56C,0.16535*%
%ADD57C,0.06693*%
%ADD58C,0.07087*%
%ADD59R,0.07087X0.07087*%
%ADD60C,0.05000*%
G36*
X47244Y70079D02*
Y44882D01*
X22568Y44882D01*
X22052Y45096D01*
X20866Y45252D01*
X19680Y45096D01*
X19164Y44882D01*
X9449D01*
X9449Y69685D01*
Y70079D01*
X10236D01*
X47244Y70079D01*
D02*
G37*
G36*
X69161Y113591D02*
X72228D01*
Y113091D01*
X72728D01*
Y110122D01*
X75197D01*
Y105331D01*
X75083D01*
Y97819D01*
X75197D01*
X75197Y61811D01*
X65354D01*
X58177Y68989D01*
X58123Y69068D01*
X50787Y76404D01*
Y90158D01*
X52519Y92504D01*
X60449D01*
Y103248D01*
X68513Y114173D01*
X69161D01*
Y113591D01*
D02*
G37*
G36*
X223661Y72934D02*
X211948D01*
X205551Y66536D01*
X205551Y46850D01*
X213386Y46850D01*
X216142Y44094D01*
Y42959D01*
X216125Y42918D01*
X215969Y41732D01*
X216125Y40546D01*
X216142Y40505D01*
Y38976D01*
X212992Y35827D01*
X199606D01*
X199606Y59055D01*
X190157D01*
X184291Y64922D01*
Y65894D01*
X187795D01*
X187795Y65894D01*
X188493Y66033D01*
X189084Y66428D01*
X192335Y69679D01*
Y74894D01*
X189965D01*
Y72463D01*
X187040Y69539D01*
X184291D01*
X184291Y81851D01*
X198070Y81851D01*
X201614Y85394D01*
X213567D01*
Y82114D01*
X218110D01*
X222654D01*
Y85394D01*
X223661D01*
Y72934D01*
D02*
G37*
%LPC*%
G36*
X45079Y66374D02*
X36587D01*
Y58374D01*
X45079D01*
Y66374D01*
D02*
G37*
G36*
X35587D02*
X27095D01*
Y58374D01*
X35587D01*
Y66374D01*
D02*
G37*
G36*
X25409Y55213D02*
X21366D01*
Y51169D01*
X25409D01*
Y55213D01*
D02*
G37*
G36*
X20366D02*
X16323D01*
Y51169D01*
X20366D01*
Y55213D01*
D02*
G37*
G36*
X45079Y57374D02*
X36587D01*
Y49374D01*
X45079D01*
Y57374D01*
D02*
G37*
G36*
X35587D02*
X27095D01*
Y49374D01*
X35587D01*
Y57374D01*
D02*
G37*
G36*
X25409Y50169D02*
X21366D01*
Y46126D01*
X25409D01*
Y50169D01*
D02*
G37*
G36*
X20366D02*
X16323D01*
Y46126D01*
X20366D01*
Y50169D01*
D02*
G37*
G36*
X71728Y112591D02*
X69161D01*
Y110122D01*
X71728D01*
Y112591D01*
D02*
G37*
G36*
X74524Y105331D02*
X71858D01*
Y102075D01*
X74524D01*
Y105331D01*
D02*
G37*
G36*
X70858D02*
X68193D01*
Y102075D01*
X70858D01*
Y105331D01*
D02*
G37*
G36*
X74524Y101075D02*
X71858D01*
Y97819D01*
X74524D01*
Y101075D01*
D02*
G37*
G36*
X70858D02*
X68193D01*
Y97819D01*
X70858D01*
Y101075D01*
D02*
G37*
G36*
X74228Y93224D02*
X71661D01*
Y89870D01*
X74228D01*
Y93224D01*
D02*
G37*
G36*
X70661D02*
X68094D01*
Y89870D01*
X70661D01*
Y93224D01*
D02*
G37*
G36*
X74228Y88870D02*
X71661D01*
Y85516D01*
X74228D01*
Y88870D01*
D02*
G37*
G36*
X70661D02*
X68094D01*
Y85516D01*
X70661D01*
Y88870D01*
D02*
G37*
G36*
X57910Y87811D02*
X55539D01*
Y82980D01*
X57910D01*
Y87811D01*
D02*
G37*
G36*
X54539D02*
X52169D01*
Y82980D01*
X54539D01*
Y87811D01*
D02*
G37*
G36*
X57910Y81980D02*
X55539D01*
Y77150D01*
X57910D01*
Y81980D01*
D02*
G37*
G36*
X54539D02*
X52169D01*
Y77150D01*
X54539D01*
Y81980D01*
D02*
G37*
G36*
X72358Y74425D02*
X69890D01*
Y72744D01*
X72358D01*
Y74425D01*
D02*
G37*
G36*
X68890D02*
X66421D01*
Y72744D01*
X68890D01*
Y74425D01*
D02*
G37*
G36*
X72358Y71744D02*
X69890D01*
Y70063D01*
X72358D01*
Y71744D01*
D02*
G37*
G36*
X68890D02*
X66421D01*
Y70063D01*
X68890D01*
Y71744D01*
D02*
G37*
G36*
X72358Y66945D02*
X69890D01*
Y65264D01*
X72358D01*
Y66945D01*
D02*
G37*
G36*
X68890D02*
X66421D01*
Y65264D01*
X68890D01*
Y66945D01*
D02*
G37*
G36*
X72358Y64264D02*
X69890D01*
Y62583D01*
X72358D01*
Y64264D01*
D02*
G37*
G36*
X68890D02*
X66421D01*
Y62583D01*
X68890D01*
Y64264D01*
D02*
G37*
G36*
X222654Y81114D02*
X218610D01*
Y77071D01*
X222654D01*
Y81114D01*
D02*
G37*
G36*
X217610D02*
X213567D01*
Y77071D01*
X217610D01*
Y81114D01*
D02*
G37*
G36*
X195705Y80724D02*
X193335D01*
Y75894D01*
X195705D01*
Y80724D01*
D02*
G37*
G36*
X192335D02*
X189965D01*
Y75894D01*
X192335D01*
Y80724D01*
D02*
G37*
G36*
X195705Y74894D02*
X193335D01*
Y70063D01*
X195705D01*
Y74894D01*
D02*
G37*
G36*
X211209Y46249D02*
Y42232D01*
X215225D01*
X215135Y42918D01*
X214677Y44023D01*
X213949Y44973D01*
X213000Y45701D01*
X211895Y46159D01*
X211209Y46249D01*
D02*
G37*
G36*
X210209Y46249D02*
X209523Y46159D01*
X208417Y45701D01*
X207468Y44973D01*
X206740Y44023D01*
X206282Y42918D01*
X206192Y42232D01*
X210209D01*
Y46249D01*
D02*
G37*
G36*
X215225Y41232D02*
X211209D01*
Y37216D01*
X211895Y37306D01*
X213000Y37764D01*
X213949Y38492D01*
X214677Y39441D01*
X215135Y40546D01*
X215225Y41232D01*
D02*
G37*
G36*
X210209D02*
X206192D01*
X206282Y40546D01*
X206740Y39441D01*
X207468Y38492D01*
X208417Y37764D01*
X209523Y37306D01*
X210209Y37216D01*
Y41232D01*
D02*
G37*
%LPD*%
D17*
X160138Y85827D02*
D03*
X153248D02*
D03*
X153248Y50224D02*
D03*
X160138D02*
D03*
X78248Y101575D02*
D03*
X71358D02*
D03*
D18*
X159547Y72973D02*
D03*
X153839D02*
D03*
X72228Y113091D02*
D03*
X77937D02*
D03*
D19*
X153248Y117520D02*
D03*
Y123425D02*
D03*
D20*
Y103445D02*
D03*
Y109153D02*
D03*
D21*
X84842Y113091D02*
D03*
X90748D02*
D03*
D22*
X111024Y73366D02*
D03*
Y68366D02*
D03*
X137008Y73366D02*
D03*
Y68366D02*
D03*
D23*
X174882Y17323D02*
D03*
X192835D02*
D03*
D24*
X183858Y42913D02*
D03*
X183858Y100591D02*
D03*
X46063Y107677D02*
D03*
D25*
X192835Y75394D02*
D03*
X174882D02*
D03*
X55039Y82480D02*
D03*
X37087D02*
D03*
D26*
X80216Y64764D02*
D03*
Y68504D02*
D03*
Y72244D02*
D03*
X69390D02*
D03*
Y64764D02*
D03*
D27*
X56693Y58268D02*
D03*
Y47244D02*
D03*
D28*
Y29823D02*
D03*
Y22933D02*
D03*
X89764Y89862D02*
D03*
Y96752D02*
D03*
D29*
X14961Y82972D02*
D03*
Y106004D02*
D03*
D30*
X71161Y89370D02*
D03*
X78445D02*
D03*
D31*
X36087Y57874D02*
D03*
Y20079D02*
D03*
D52*
X183858Y100591D02*
X192835Y91614D01*
X183858Y100591D02*
X191929Y108661D01*
X183858Y42913D02*
X194882Y31890D01*
X214961D01*
X220551Y37480D01*
Y41732D01*
X160138Y17323D02*
X174882D01*
X153248Y37303D02*
Y50224D01*
Y37303D02*
X159843Y30709D01*
X192913Y74685D02*
X193622Y75394D01*
X159843Y85827D02*
X166535Y79134D01*
Y71260D02*
Y79134D01*
Y71260D02*
X170079Y67716D01*
X137401Y73366D02*
X154232D01*
X153248Y75098D02*
Y97146D01*
X153937Y71299D02*
X154724Y72087D01*
X153248Y97244D02*
X163386D01*
X153248D02*
Y103445D01*
X167323Y85071D02*
Y93307D01*
X163386Y97244D02*
X167323Y93307D01*
Y85071D02*
X174882Y77512D01*
X187795Y67716D02*
X192913Y72835D01*
X170079Y67716D02*
X187795D01*
X192913Y72835D02*
Y74685D01*
X153937Y66142D02*
Y71299D01*
X153839Y72973D02*
X154724Y72087D01*
X153248Y50224D02*
Y55020D01*
X139902Y68366D02*
X153248Y55020D01*
X153740Y123425D02*
X159843Y129528D01*
X153248Y123425D02*
X153740D01*
X153248Y109153D02*
Y117520D01*
X174882Y75394D02*
Y77512D01*
X159547Y50815D02*
Y72973D01*
X160138Y42520D02*
Y50224D01*
X159547Y50815D02*
X160138Y50224D01*
D53*
X192835Y91614D02*
X203150D01*
X191929Y108661D02*
X203150D01*
D54*
X202756Y17323D02*
X202756Y17323D01*
X192835Y17323D02*
X202756D01*
X160138Y17323D02*
X160138Y17323D01*
X44388Y106002D02*
X46063Y107677D01*
X137008Y68366D02*
X139902D01*
X95571Y113091D02*
X96063Y112598D01*
X90748Y113091D02*
X95571D01*
X77937D02*
X84842D01*
D55*
X78543Y89468D02*
X89764D01*
X14961Y106002D02*
X44388D01*
X89272Y97146D02*
X90551D01*
X84842Y101575D02*
X89272Y97146D01*
X78740Y101575D02*
X84842D01*
X59252Y120866D02*
X64173D01*
X92913D01*
X89764Y89468D02*
Y89862D01*
Y73090D02*
Y89468D01*
X85177Y68504D02*
X89764Y73090D01*
X97211Y73366D02*
X111024D01*
X88609Y64764D02*
X97211Y73366D01*
X80216Y64764D02*
X88609D01*
X80216Y68504D02*
X85177D01*
X96063Y94882D02*
Y112598D01*
X91043Y89862D02*
X96063Y94882D01*
X89764Y89862D02*
X91043D01*
X96063Y112598D02*
Y117717D01*
X37402Y79134D02*
X45197D01*
X37087Y79449D02*
X37402Y79134D01*
X37087Y79449D02*
Y82480D01*
X45197Y79134D02*
X56693Y67638D01*
Y58268D02*
Y67638D01*
X77559Y22933D02*
Y47638D01*
X98287Y68366D01*
X111024D01*
X92913Y120866D02*
X96063Y117717D01*
X90551Y97146D02*
X91339Y96358D01*
X56693Y22933D02*
X77559D01*
X46063Y107677D02*
X59252Y120866D01*
X63779Y47244D02*
X64567Y48031D01*
X56693Y47244D02*
X63779D01*
X80216Y72244D02*
Y79134D01*
X56693Y29823D02*
Y47244D01*
X78445Y89370D02*
X78543Y89468D01*
X20276Y82480D02*
X37087D01*
X50787Y53937D02*
X55118Y58268D01*
X50787Y33779D02*
Y53937D01*
X37087Y20079D02*
X50787Y33779D01*
X55118Y58268D02*
X56693D01*
D56*
X240158Y122047D02*
D03*
X15748Y15748D02*
D03*
Y122047D02*
D03*
X240158Y15748D02*
D03*
D57*
X248819Y41732D02*
D03*
Y61417D02*
D03*
D58*
X220551Y41732D02*
D03*
Y51575D02*
D03*
Y61417D02*
D03*
X210709Y41732D02*
D03*
Y51575D02*
D03*
X20866Y40669D02*
D03*
X218110Y91614D02*
D03*
D59*
X210709Y61417D02*
D03*
X20866Y50669D02*
D03*
X218110Y81614D02*
D03*
D60*
X203150Y91614D02*
D03*
Y108661D02*
D03*
X202756Y17323D02*
D03*
X160138Y17323D02*
D03*
X159843Y30709D02*
D03*
X153937Y66142D02*
D03*
X77559Y22933D02*
D03*
X159843Y129528D02*
D03*
X64173Y120866D02*
D03*
X64567Y48031D02*
D03*
X80216Y79134D02*
D03*
X160138Y42520D02*
D03*
M02*
