M48
;Layer_Color=9474304
;FILE_FORMAT=2:5
INCH,LZ
;TYPE=PLATED
T1F00S00C0.02800
T2F00S00C0.04724
;TYPE=NON_PLATED
T3F00S00C0.06693
T4F00S00C0.16535
%
T01
X0064567Y0048031
X0077559Y0022933
X0160138Y0017323
X0159843Y0030709
X0160138Y004252
X0202756Y0017323
X020315Y0091614
Y0108661
X0159843Y0129528
X0153937Y0066142
X0080216Y0079134
X0064173Y0120866
T02
X0020866Y0040669
Y0050669
X0210709Y0051575
X0220551
Y0041732
X0210709
Y0061417
X0220551
X021811Y0081614
Y0091614
T03
X0248819Y0041732
Y0061417
T04
X0015748Y0015748
X0240158
Y0122047
X0015748
M30
