G04*
G04 #@! TF.GenerationSoftware,Altium Limited,Altium Designer,18.1.11 (251)*
G04*
G04 Layer_Color=32896*
%FSLAX25Y25*%
%MOIN*%
G70*
G01*
G75*
%ADD13C,0.00787*%
%ADD16C,0.00591*%
G36*
X128493Y108718D02*
X128323D01*
Y108633D01*
X128153D01*
Y108548D01*
X127941D01*
Y108421D01*
X127899D01*
Y108464D01*
X127687D01*
Y108336D01*
X127602D01*
Y108379D01*
X127517D01*
Y108251D01*
X127347D01*
Y108167D01*
X127135D01*
Y108082D01*
X126880D01*
Y107997D01*
X126710D01*
Y107912D01*
X126541D01*
Y107827D01*
X126328D01*
Y107742D01*
X126074D01*
Y107657D01*
X125904D01*
Y107572D01*
X125862D01*
Y107530D01*
X125819D01*
Y107572D01*
X125734D01*
Y107445D01*
X125649D01*
Y107487D01*
X125480D01*
Y107445D01*
X125437D01*
Y107360D01*
X125267D01*
Y107275D01*
X125098D01*
Y107190D01*
X124928D01*
Y106893D01*
X125013D01*
Y106936D01*
X125098D01*
Y106808D01*
X125225D01*
Y106851D01*
X125267D01*
Y106724D01*
X125522D01*
Y106639D01*
X125734D01*
Y106554D01*
X125904D01*
Y106469D01*
X126074D01*
Y106384D01*
X126244D01*
Y106299D01*
X126541D01*
Y106214D01*
X126710D01*
Y106129D01*
X126880D01*
Y106002D01*
X126965D01*
Y106044D01*
X127050D01*
Y105917D01*
X127262D01*
Y105960D01*
X127304D01*
Y105917D01*
X127347D01*
Y105832D01*
X127517D01*
Y105747D01*
X127687D01*
Y105663D01*
X127941D01*
Y105578D01*
X128153D01*
Y105493D01*
X128323D01*
Y105408D01*
X128493D01*
Y104517D01*
X123782D01*
Y105238D01*
X123867D01*
Y105196D01*
X127050D01*
Y105238D01*
X127092D01*
Y105408D01*
X126923D01*
Y105450D01*
X126880D01*
Y105493D01*
X126626D01*
Y105578D01*
X126456D01*
Y105663D01*
X126201D01*
Y105747D01*
X126159D01*
Y105790D01*
X126074D01*
Y105747D01*
X126031D01*
Y105790D01*
X125989D01*
Y105875D01*
X125819D01*
Y105832D01*
X125734D01*
Y105960D01*
X125565D01*
Y106044D01*
X125310D01*
Y106129D01*
X125098D01*
Y106214D01*
X124843D01*
Y106299D01*
X124673D01*
Y106384D01*
X124419D01*
Y106427D01*
X124376D01*
Y106469D01*
X124206D01*
Y106554D01*
X124164D01*
Y106596D01*
X124037D01*
Y106554D01*
X123952D01*
Y106681D01*
X123867D01*
Y106639D01*
X123782D01*
Y107360D01*
X123825D01*
Y107403D01*
X123867D01*
Y107445D01*
X124037D01*
Y107530D01*
X124291D01*
Y107615D01*
X124334D01*
Y107657D01*
X124376D01*
Y107615D01*
X124461D01*
Y107657D01*
X124504D01*
Y107742D01*
X124546D01*
Y107700D01*
X124758D01*
Y107827D01*
X124843D01*
Y107785D01*
X124970D01*
Y107827D01*
X125013D01*
Y107912D01*
X125182D01*
Y107997D01*
X125480D01*
Y108082D01*
X125649D01*
Y108167D01*
X125904D01*
Y108251D01*
X126074D01*
Y108294D01*
X126116D01*
Y108336D01*
X126371D01*
Y108421D01*
X126541D01*
Y108548D01*
X126626D01*
Y108506D01*
X126795D01*
Y108591D01*
X126838D01*
Y108633D01*
X126880D01*
Y108591D01*
X126965D01*
Y108633D01*
X127007D01*
Y108803D01*
X123782D01*
Y109609D01*
X128493D01*
Y108718D01*
D02*
G37*
G36*
X119114Y109694D02*
X119283D01*
Y109609D01*
X119368D01*
Y109525D01*
X119453D01*
Y109355D01*
X119538D01*
Y109185D01*
X119623D01*
Y108718D01*
X119580D01*
Y108676D01*
X119538D01*
Y108421D01*
X119453D01*
Y108336D01*
X119368D01*
Y108167D01*
X119199D01*
Y108082D01*
X119029D01*
Y107997D01*
X117501D01*
Y108082D01*
X117331D01*
Y108167D01*
X117246D01*
Y108251D01*
X117161D01*
Y108336D01*
X117077D01*
Y108421D01*
X116992D01*
Y108676D01*
X116949D01*
Y108718D01*
X116907D01*
Y109058D01*
X116949D01*
Y109143D01*
X116992D01*
Y109355D01*
X117077D01*
Y109440D01*
X117161D01*
Y109609D01*
X117331D01*
Y109694D01*
X117501D01*
Y109779D01*
X117586D01*
Y109609D01*
X117416D01*
Y109525D01*
X117374D01*
Y109482D01*
X117331D01*
Y109440D01*
X117289D01*
Y109397D01*
X117246D01*
Y109355D01*
X117204D01*
Y109312D01*
X117119D01*
Y109228D01*
X117077D01*
Y109185D01*
X117034D01*
Y108676D01*
X117077D01*
Y108633D01*
X117119D01*
Y108464D01*
X117204D01*
Y108421D01*
X117246D01*
Y108379D01*
X117289D01*
Y108336D01*
X117331D01*
Y108251D01*
X117501D01*
Y108167D01*
X119029D01*
Y108251D01*
X119199D01*
Y108336D01*
X119241D01*
Y108379D01*
X119283D01*
Y108421D01*
X119326D01*
Y108464D01*
X119368D01*
Y108506D01*
X119411D01*
Y108548D01*
X119453D01*
Y108633D01*
X119496D01*
Y109185D01*
X119453D01*
Y109228D01*
X119411D01*
Y109270D01*
X119368D01*
Y109312D01*
X119326D01*
Y109355D01*
X119283D01*
Y109397D01*
X119241D01*
Y109440D01*
X119199D01*
Y109482D01*
X119156D01*
Y109525D01*
X119114D01*
Y109609D01*
X118944D01*
Y109779D01*
X119114D01*
Y109694D01*
D02*
G37*
G36*
X119538Y106724D02*
X119496D01*
Y106766D01*
X117034D01*
Y106724D01*
X116992D01*
Y106936D01*
X117077D01*
Y106893D01*
X119453D01*
Y106936D01*
X119538D01*
Y106724D01*
D02*
G37*
G36*
X117034Y105705D02*
X117077D01*
Y105663D01*
X117204D01*
Y105620D01*
X117246D01*
Y105578D01*
X117416D01*
Y105493D01*
X117586D01*
Y105408D01*
X117755D01*
Y105323D01*
X117925D01*
Y105238D01*
X117968D01*
Y105196D01*
X118222D01*
Y105408D01*
X118307D01*
Y105578D01*
X118392D01*
Y105663D01*
X118604D01*
Y105747D01*
X119199D01*
Y105663D01*
X119368D01*
Y105620D01*
X119411D01*
Y105578D01*
X119453D01*
Y105408D01*
X119538D01*
Y103965D01*
X116992D01*
Y104262D01*
X117034D01*
Y104220D01*
X117883D01*
Y104262D01*
X117925D01*
Y104135D01*
X118138D01*
Y104262D01*
X118222D01*
Y104941D01*
X118138D01*
Y105068D01*
X118010D01*
Y105026D01*
X117968D01*
Y105153D01*
X117798D01*
Y105238D01*
X117586D01*
Y105323D01*
X117416D01*
Y105408D01*
X117246D01*
Y105493D01*
X117077D01*
Y105578D01*
X116992D01*
Y105790D01*
X117034D01*
Y105705D01*
D02*
G37*
G36*
X126795Y103413D02*
X127092D01*
Y103456D01*
X127135D01*
Y103328D01*
X127432D01*
Y103244D01*
X127602D01*
Y103201D01*
X127644D01*
Y103159D01*
X127687D01*
Y103074D01*
X127856D01*
Y103031D01*
X127899D01*
Y102989D01*
X127941D01*
Y102946D01*
X127984D01*
Y102904D01*
X128026D01*
Y102861D01*
X128068D01*
Y102819D01*
X128153D01*
Y102649D01*
X128238D01*
Y102565D01*
X128281D01*
Y102522D01*
X128323D01*
Y102310D01*
X128366D01*
Y102267D01*
X128408D01*
Y102098D01*
X128493D01*
Y101588D01*
X128578D01*
Y100740D01*
X128493D01*
Y100230D01*
X128450D01*
Y100188D01*
X128408D01*
Y100060D01*
X128366D01*
Y100018D01*
X128323D01*
Y99763D01*
X128238D01*
Y99678D01*
X128153D01*
Y99509D01*
X128068D01*
Y99466D01*
X128026D01*
Y99424D01*
X127984D01*
Y99381D01*
X127941D01*
Y99339D01*
X127899D01*
Y99297D01*
X127856D01*
Y99254D01*
X127687D01*
Y99127D01*
X127602D01*
Y99084D01*
X127432D01*
Y98957D01*
X127347D01*
Y99000D01*
X127262D01*
Y98957D01*
X127220D01*
Y98872D01*
X126880D01*
Y98787D01*
X125480D01*
Y98872D01*
X125182D01*
Y99000D01*
X125013D01*
Y98957D01*
X124928D01*
Y99084D01*
X124801D01*
Y99042D01*
X124758D01*
Y99169D01*
X124588D01*
Y99212D01*
X124504D01*
Y99297D01*
X124419D01*
Y99339D01*
X124376D01*
Y99424D01*
X124291D01*
Y99509D01*
X124206D01*
Y99594D01*
X124121D01*
Y99678D01*
X124037D01*
Y99848D01*
X123952D01*
Y100018D01*
X123867D01*
Y100273D01*
X123825D01*
Y100315D01*
X123782D01*
Y100824D01*
X123697D01*
Y101588D01*
X123782D01*
Y102013D01*
X123867D01*
Y102267D01*
X123909D01*
Y102310D01*
X123952D01*
Y102565D01*
X124037D01*
Y102649D01*
X124121D01*
Y102819D01*
X124206D01*
Y102904D01*
X124291D01*
Y102989D01*
X124376D01*
Y103074D01*
X124588D01*
Y103159D01*
X124631D01*
Y103201D01*
X124673D01*
Y103244D01*
X124843D01*
Y103328D01*
X125098D01*
Y103413D01*
X125140D01*
Y103456D01*
X125182D01*
Y103413D01*
X125480D01*
Y103541D01*
X125565D01*
Y103498D01*
X126710D01*
Y103541D01*
X126795D01*
Y103413D01*
D02*
G37*
G36*
X119538Y101376D02*
X119496D01*
Y102098D01*
X119453D01*
Y102182D01*
X116992D01*
Y102352D01*
X119453D01*
Y102437D01*
X119496D01*
Y103201D01*
X119538D01*
Y101376D01*
D02*
G37*
G36*
X117586Y100570D02*
X117501D01*
Y100485D01*
X117331D01*
Y100400D01*
X117246D01*
Y100358D01*
X117204D01*
Y100315D01*
X117161D01*
Y100273D01*
X117119D01*
Y100103D01*
X117034D01*
Y99636D01*
X117077D01*
Y99594D01*
X117119D01*
Y99466D01*
X117161D01*
Y99424D01*
X117204D01*
Y99381D01*
X117246D01*
Y99339D01*
X117331D01*
Y99212D01*
X117416D01*
Y99254D01*
X117501D01*
Y99127D01*
X119029D01*
Y99254D01*
X119114D01*
Y99212D01*
X119199D01*
Y99339D01*
X119283D01*
Y99424D01*
X119368D01*
Y99466D01*
X119411D01*
Y99509D01*
X119453D01*
Y99551D01*
X119496D01*
Y100188D01*
X119453D01*
Y100230D01*
X119368D01*
Y100315D01*
X119283D01*
Y100400D01*
X119199D01*
Y100485D01*
X119114D01*
Y100570D01*
X118944D01*
Y100740D01*
X119114D01*
Y100697D01*
X119156D01*
Y100655D01*
X119199D01*
Y100570D01*
X119368D01*
Y100527D01*
X119411D01*
Y100485D01*
X119453D01*
Y100315D01*
X119538D01*
Y100188D01*
X119580D01*
Y100145D01*
X119623D01*
Y99594D01*
X119580D01*
Y99551D01*
X119538D01*
Y99424D01*
X119496D01*
Y99381D01*
X119453D01*
Y99212D01*
X119368D01*
Y99169D01*
X119199D01*
Y99084D01*
X119156D01*
Y99042D01*
X119114D01*
Y99084D01*
X119029D01*
Y99000D01*
X118986D01*
Y98957D01*
X118944D01*
Y99000D01*
X117586D01*
Y98957D01*
X117501D01*
Y99084D01*
X117374D01*
Y99042D01*
X117331D01*
Y99127D01*
X117246D01*
Y99212D01*
X117161D01*
Y99297D01*
X117119D01*
Y99339D01*
X117077D01*
Y99381D01*
X117034D01*
Y99424D01*
X116992D01*
Y99636D01*
X116949D01*
Y99678D01*
X116907D01*
Y100060D01*
X116949D01*
Y100103D01*
X116992D01*
Y100315D01*
X117034D01*
Y100358D01*
X117077D01*
Y100400D01*
X117119D01*
Y100442D01*
X117161D01*
Y100485D01*
X117204D01*
Y100527D01*
X117246D01*
Y100570D01*
X117289D01*
Y100612D01*
X117331D01*
Y100655D01*
X117501D01*
Y100740D01*
X117543D01*
Y100782D01*
X117586D01*
Y100570D01*
D02*
G37*
G36*
X128493Y94671D02*
X128408D01*
Y94713D01*
X127984D01*
Y94671D01*
X127899D01*
Y95986D01*
X127856D01*
Y96029D01*
X127814D01*
Y96114D01*
X123782D01*
Y96920D01*
X127899D01*
Y98363D01*
X127941D01*
Y98321D01*
X128408D01*
Y98363D01*
X128493D01*
Y94671D01*
D02*
G37*
G36*
X117034Y96793D02*
X117077D01*
Y96708D01*
X118180D01*
Y96750D01*
X118222D01*
Y97896D01*
X118392D01*
Y96750D01*
X118435D01*
Y96708D01*
X119453D01*
Y96835D01*
X119496D01*
Y98108D01*
X119538D01*
Y96538D01*
X119496D01*
Y96580D01*
X117034D01*
Y96538D01*
X116992D01*
Y98193D01*
X117034D01*
Y96793D01*
D02*
G37*
G36*
Y94374D02*
X117077D01*
Y94331D01*
X117119D01*
Y94246D01*
X119538D01*
Y94076D01*
X116992D01*
Y95689D01*
X117034D01*
Y94374D01*
D02*
G37*
G36*
X128493Y93270D02*
X125098D01*
Y92973D01*
X125267D01*
Y92931D01*
X125310D01*
Y92888D01*
X125352D01*
Y92803D01*
X125522D01*
Y92761D01*
X125565D01*
Y92718D01*
X125649D01*
Y92633D01*
X125734D01*
Y92549D01*
X125904D01*
Y92464D01*
X125989D01*
Y92379D01*
X126074D01*
Y92251D01*
X126244D01*
Y92209D01*
X126328D01*
Y92082D01*
X126541D01*
Y92039D01*
X126583D01*
Y91997D01*
X126626D01*
Y91912D01*
X126710D01*
Y91827D01*
X126880D01*
Y91742D01*
X126965D01*
Y91657D01*
X127007D01*
Y91615D01*
X127050D01*
Y91657D01*
X127135D01*
Y91572D01*
X127220D01*
Y91530D01*
X127262D01*
Y91488D01*
X127304D01*
Y91445D01*
X127347D01*
Y91360D01*
X127517D01*
Y91318D01*
X127559D01*
Y91275D01*
X127602D01*
Y91233D01*
X127644D01*
Y91190D01*
X127687D01*
Y91106D01*
X127856D01*
Y91063D01*
X127899D01*
Y91021D01*
X127941D01*
Y90936D01*
X128153D01*
Y90851D01*
X128238D01*
Y90766D01*
X128323D01*
Y90639D01*
X128408D01*
Y90681D01*
X128493D01*
Y89790D01*
X123782D01*
Y90469D01*
X127262D01*
Y90724D01*
X127220D01*
Y90766D01*
X127177D01*
Y90808D01*
X127135D01*
Y90851D01*
X127092D01*
Y90936D01*
X126880D01*
Y91021D01*
X126795D01*
Y91106D01*
X126626D01*
Y91190D01*
X126541D01*
Y91318D01*
X126456D01*
Y91275D01*
X126371D01*
Y91360D01*
X126286D01*
Y91445D01*
X126201D01*
Y91572D01*
X125989D01*
Y91615D01*
X125946D01*
Y91657D01*
X125904D01*
Y91742D01*
X125734D01*
Y91827D01*
X125649D01*
Y91912D01*
X125565D01*
Y91997D01*
X125395D01*
Y92082D01*
X125310D01*
Y92167D01*
X125267D01*
Y92209D01*
X125182D01*
Y92167D01*
X125140D01*
Y92209D01*
X125098D01*
Y92251D01*
X125055D01*
Y92294D01*
X125013D01*
Y92336D01*
X124970D01*
Y92379D01*
X124928D01*
Y92464D01*
X124758D01*
Y92506D01*
X124716D01*
Y92549D01*
X124673D01*
Y92633D01*
X124504D01*
Y92676D01*
X124461D01*
Y92718D01*
X124376D01*
Y92803D01*
X124291D01*
Y92888D01*
X124121D01*
Y92973D01*
X124037D01*
Y93100D01*
X123909D01*
Y93058D01*
X123867D01*
Y93143D01*
X123782D01*
Y94076D01*
X123825D01*
Y94034D01*
X128408D01*
Y94076D01*
X128493D01*
Y93270D01*
D02*
G37*
G36*
X119538Y91572D02*
X116992D01*
Y93185D01*
X117034D01*
Y91785D01*
X117077D01*
Y91742D01*
X118222D01*
Y92888D01*
X118265D01*
Y92931D01*
X118350D01*
Y92888D01*
X118392D01*
Y91742D01*
X119453D01*
Y91827D01*
X119496D01*
Y93185D01*
X119538D01*
Y91572D01*
D02*
G37*
G36*
Y87795D02*
X116992D01*
Y89408D01*
X117034D01*
Y88135D01*
X117077D01*
Y88092D01*
X117119D01*
Y87965D01*
X118138D01*
Y88092D01*
X118222D01*
Y89238D01*
X118392D01*
Y87965D01*
X119368D01*
Y88007D01*
X119411D01*
Y88092D01*
X119453D01*
Y88177D01*
X119496D01*
Y89408D01*
X119538D01*
Y87795D01*
D02*
G37*
G36*
X123909Y88899D02*
X123952D01*
Y88856D01*
X124121D01*
Y88771D01*
X124376D01*
Y88687D01*
X124546D01*
Y88602D01*
X124716D01*
Y88517D01*
X124928D01*
Y88432D01*
X125182D01*
Y88347D01*
X125352D01*
Y88262D01*
X125522D01*
Y88177D01*
X125565D01*
Y88135D01*
X125734D01*
Y88177D01*
X125819D01*
Y88050D01*
X125946D01*
Y88092D01*
X125989D01*
Y87965D01*
X126159D01*
Y87880D01*
X126413D01*
Y87838D01*
X126456D01*
Y87795D01*
X126626D01*
Y87710D01*
X126795D01*
Y87625D01*
X126965D01*
Y87541D01*
X127220D01*
Y87456D01*
X127432D01*
Y87328D01*
X127517D01*
Y87371D01*
X127602D01*
Y87244D01*
X127814D01*
Y87286D01*
X127856D01*
Y87159D01*
X128026D01*
Y87074D01*
X128238D01*
Y86989D01*
X128493D01*
Y86013D01*
X128408D01*
Y85928D01*
X128153D01*
Y85843D01*
X127941D01*
Y85758D01*
X127687D01*
Y85673D01*
X127517D01*
Y85588D01*
X127347D01*
Y85504D01*
X127304D01*
Y85461D01*
X127262D01*
Y85504D01*
X127050D01*
Y85376D01*
X127007D01*
Y85419D01*
X126880D01*
Y85291D01*
X126795D01*
Y85334D01*
X126753D01*
Y85291D01*
X126710D01*
Y85206D01*
X126413D01*
Y85122D01*
X126244D01*
Y85037D01*
X126074D01*
Y84952D01*
X125819D01*
Y84867D01*
X125649D01*
Y84782D01*
X125437D01*
Y84697D01*
X125182D01*
Y84570D01*
X125140D01*
Y84612D01*
X125013D01*
Y84485D01*
X124928D01*
Y84527D01*
X124843D01*
Y84400D01*
X124546D01*
Y84315D01*
X124376D01*
Y84230D01*
X124121D01*
Y84145D01*
X123952D01*
Y84103D01*
X123909D01*
Y84061D01*
X123825D01*
Y84018D01*
X123782D01*
Y84867D01*
X123952D01*
Y84952D01*
X124206D01*
Y85037D01*
X124504D01*
Y85122D01*
X124673D01*
Y85206D01*
X124843D01*
Y85291D01*
X125098D01*
Y85376D01*
X125310D01*
Y85504D01*
X125352D01*
Y85461D01*
X125565D01*
Y85588D01*
X125649D01*
Y85546D01*
X125734D01*
Y85673D01*
X125819D01*
Y85631D01*
X125989D01*
Y85758D01*
X126201D01*
Y85843D01*
X126456D01*
Y85928D01*
X126626D01*
Y86013D01*
X126880D01*
Y86055D01*
X126923D01*
Y86098D01*
X127092D01*
Y86183D01*
X127262D01*
Y86268D01*
X127517D01*
Y86352D01*
X127559D01*
Y86395D01*
X127602D01*
Y86564D01*
X127517D01*
Y86649D01*
X127262D01*
Y86734D01*
X127092D01*
Y86819D01*
X126923D01*
Y86862D01*
X126880D01*
Y86904D01*
X126626D01*
Y86989D01*
X126583D01*
Y87031D01*
X126541D01*
Y86989D01*
X126456D01*
Y87116D01*
X126328D01*
Y87074D01*
X126286D01*
Y87201D01*
X126074D01*
Y87159D01*
X126031D01*
Y87201D01*
X125989D01*
Y87286D01*
X125734D01*
Y86310D01*
X125692D01*
Y86268D01*
X125649D01*
Y86225D01*
X125607D01*
Y86183D01*
X125565D01*
Y86225D01*
X125395D01*
Y86183D01*
X125352D01*
Y86098D01*
X125182D01*
Y86013D01*
X125098D01*
Y87541D01*
X125013D01*
Y87625D01*
X124928D01*
Y87710D01*
X124758D01*
Y87795D01*
X124504D01*
Y87880D01*
X124461D01*
Y87923D01*
X124376D01*
Y87880D01*
X124334D01*
Y87923D01*
X124291D01*
Y88007D01*
X124206D01*
Y87965D01*
X124164D01*
Y88007D01*
X124121D01*
Y88092D01*
X123867D01*
Y88135D01*
X123782D01*
Y88984D01*
X123909D01*
Y88899D01*
D02*
G37*
G36*
X117034Y86946D02*
X117077D01*
Y86904D01*
X117331D01*
Y86819D01*
X117586D01*
Y86734D01*
X117840D01*
Y86649D01*
X118010D01*
Y86564D01*
X118307D01*
Y86437D01*
X118477D01*
Y86480D01*
X118562D01*
Y86352D01*
X118774D01*
Y86395D01*
X118816D01*
Y86268D01*
X119029D01*
Y86183D01*
X119283D01*
Y86098D01*
X119538D01*
Y85843D01*
X119368D01*
Y85758D01*
X119114D01*
Y85673D01*
X118816D01*
Y85588D01*
X118647D01*
Y85461D01*
X118604D01*
Y85504D01*
X118392D01*
Y85376D01*
X118307D01*
Y85419D01*
X118138D01*
Y85334D01*
X118095D01*
Y85291D01*
X118010D01*
Y85334D01*
X117883D01*
Y85291D01*
X117840D01*
Y85206D01*
X117671D01*
Y85122D01*
X117416D01*
Y85037D01*
X117119D01*
Y84952D01*
X116992D01*
Y85122D01*
X117246D01*
Y85206D01*
X117416D01*
Y85291D01*
X117586D01*
Y86522D01*
X117543D01*
Y86564D01*
X117501D01*
Y86607D01*
X117458D01*
Y86649D01*
X117416D01*
Y86734D01*
X117161D01*
Y86819D01*
X116992D01*
Y87031D01*
X117034D01*
Y86946D01*
D02*
G37*
G36*
X117840Y84230D02*
X118010D01*
Y84188D01*
X118053D01*
Y84145D01*
X118138D01*
Y84061D01*
X118222D01*
Y83891D01*
X118307D01*
Y83551D01*
X118350D01*
Y83509D01*
X118392D01*
Y83084D01*
X118477D01*
Y82915D01*
X118562D01*
Y82787D01*
X119199D01*
Y82872D01*
X119368D01*
Y82957D01*
X119411D01*
Y83084D01*
X119453D01*
Y83127D01*
X119496D01*
Y83806D01*
X119453D01*
Y83848D01*
X119411D01*
Y83891D01*
X119368D01*
Y83933D01*
X119326D01*
Y83976D01*
X119283D01*
Y84061D01*
X119453D01*
Y83976D01*
X119538D01*
Y83763D01*
X119580D01*
Y83721D01*
X119623D01*
Y83169D01*
X119580D01*
Y83127D01*
X119538D01*
Y82957D01*
X119453D01*
Y82787D01*
X119368D01*
Y82702D01*
X119199D01*
Y82618D01*
X118604D01*
Y82660D01*
X118562D01*
Y82702D01*
X118477D01*
Y82787D01*
X118392D01*
Y82872D01*
X118307D01*
Y83127D01*
X118265D01*
Y83169D01*
X118222D01*
Y83594D01*
X118138D01*
Y83933D01*
X118095D01*
Y83976D01*
X118053D01*
Y84061D01*
X117883D01*
Y84145D01*
X117416D01*
Y84061D01*
X117246D01*
Y84018D01*
X117204D01*
Y83933D01*
X117161D01*
Y83891D01*
X117119D01*
Y83763D01*
X117077D01*
Y83721D01*
X117034D01*
Y83042D01*
X117077D01*
Y83000D01*
X117119D01*
Y82872D01*
X117161D01*
Y82830D01*
X117204D01*
Y82787D01*
X117246D01*
Y82745D01*
X117289D01*
Y82702D01*
X117331D01*
Y82618D01*
X117161D01*
Y82702D01*
X117077D01*
Y82872D01*
X116992D01*
Y83084D01*
X116949D01*
Y83127D01*
X116907D01*
Y83636D01*
X116949D01*
Y83679D01*
X116992D01*
Y83891D01*
X117034D01*
Y83933D01*
X117077D01*
Y84061D01*
X117161D01*
Y84145D01*
X117246D01*
Y84230D01*
X117416D01*
Y84315D01*
X117840D01*
Y84230D01*
D02*
G37*
G36*
X117119Y80665D02*
X117416D01*
Y80538D01*
X117501D01*
Y80581D01*
X117586D01*
Y80453D01*
X117755D01*
Y80496D01*
X117840D01*
Y80368D01*
X118053D01*
Y80411D01*
X118095D01*
Y80368D01*
X118138D01*
Y80283D01*
X118307D01*
Y80199D01*
X118562D01*
Y80114D01*
X118816D01*
Y80029D01*
X119114D01*
Y79944D01*
X119368D01*
Y79859D01*
X119538D01*
Y79604D01*
X119283D01*
Y79477D01*
X119241D01*
Y79519D01*
X119114D01*
Y79392D01*
X119029D01*
Y79435D01*
X118859D01*
Y79392D01*
X118816D01*
Y79307D01*
X118562D01*
Y79222D01*
X118392D01*
Y79137D01*
X118138D01*
Y79053D01*
X117840D01*
Y78968D01*
X117586D01*
Y78883D01*
X117416D01*
Y78798D01*
X117119D01*
Y78713D01*
X117034D01*
Y78671D01*
X116992D01*
Y78883D01*
X117077D01*
Y78840D01*
X117119D01*
Y78883D01*
X117161D01*
Y78968D01*
X117416D01*
Y79053D01*
X117586D01*
Y80283D01*
X117501D01*
Y80368D01*
X117458D01*
Y80411D01*
X117416D01*
Y80496D01*
X117161D01*
Y80581D01*
X116992D01*
Y80750D01*
X117119D01*
Y80665D01*
D02*
G37*
G36*
X128493Y82448D02*
X126541D01*
Y79944D01*
X128493D01*
Y79137D01*
X123782D01*
Y79944D01*
X125819D01*
Y82448D01*
X123782D01*
Y83254D01*
X128493D01*
Y82448D01*
D02*
G37*
G36*
X117034Y76761D02*
X117077D01*
Y76718D01*
X119538D01*
Y76549D01*
X116992D01*
Y78161D01*
X117034D01*
Y76761D01*
D02*
G37*
G36*
X119538Y75275D02*
X119496D01*
Y75318D01*
X117501D01*
Y75233D01*
X117458D01*
Y75191D01*
X117416D01*
Y75233D01*
X117331D01*
Y75148D01*
X117289D01*
Y75106D01*
X117246D01*
Y75063D01*
X117204D01*
Y75021D01*
X117161D01*
Y74978D01*
X117119D01*
Y74851D01*
X117077D01*
Y74809D01*
X117034D01*
Y74299D01*
X117077D01*
Y74257D01*
X117119D01*
Y74172D01*
X117161D01*
Y74130D01*
X117246D01*
Y74045D01*
X117331D01*
Y73960D01*
X117416D01*
Y73875D01*
X119538D01*
Y73705D01*
X117416D01*
Y73790D01*
X117246D01*
Y73832D01*
X117204D01*
Y73875D01*
X117161D01*
Y73917D01*
X117119D01*
Y73960D01*
X117077D01*
Y74130D01*
X116992D01*
Y74299D01*
X116949D01*
Y74384D01*
X116907D01*
Y74766D01*
X116949D01*
Y74809D01*
X116992D01*
Y75021D01*
X117034D01*
Y75063D01*
X117077D01*
Y75148D01*
X117161D01*
Y75233D01*
X117246D01*
Y75318D01*
X117331D01*
Y75403D01*
X117416D01*
Y75360D01*
X117586D01*
Y75488D01*
X117713D01*
Y75445D01*
X119453D01*
Y75488D01*
X119538D01*
Y75275D01*
D02*
G37*
G36*
X127517Y78331D02*
X127771D01*
Y78246D01*
X127941D01*
Y78161D01*
X128153D01*
Y78076D01*
X128238D01*
Y77992D01*
X128323D01*
Y77822D01*
X128408D01*
Y77567D01*
X128450D01*
Y77525D01*
X128493D01*
Y74851D01*
X123782D01*
Y75657D01*
X127899D01*
Y77058D01*
X127814D01*
Y77313D01*
X127771D01*
Y77355D01*
X127687D01*
Y77440D01*
X127602D01*
Y77525D01*
X126795D01*
Y77440D01*
X126626D01*
Y77355D01*
X126541D01*
Y77185D01*
X126498D01*
Y77143D01*
X126456D01*
Y77100D01*
X126413D01*
Y77058D01*
X126328D01*
Y76888D01*
X126244D01*
Y76634D01*
X126159D01*
Y76379D01*
X125734D01*
Y76464D01*
X125480D01*
Y76634D01*
X125522D01*
Y76676D01*
X125565D01*
Y77016D01*
X125649D01*
Y77270D01*
X125734D01*
Y77440D01*
X125819D01*
Y77610D01*
X125862D01*
Y77652D01*
X125904D01*
Y77779D01*
X125946D01*
Y77822D01*
X125989D01*
Y77864D01*
X126031D01*
Y77907D01*
X126074D01*
Y77949D01*
X126116D01*
Y77992D01*
X126201D01*
Y78076D01*
X126286D01*
Y78161D01*
X126456D01*
Y78246D01*
X126626D01*
Y78331D01*
X126880D01*
Y78374D01*
X126923D01*
Y78416D01*
X127517D01*
Y78331D01*
D02*
G37*
G36*
X119538Y72347D02*
X119453D01*
Y72262D01*
X119199D01*
Y72177D01*
X119029D01*
Y72092D01*
X118816D01*
Y72008D01*
X118647D01*
Y71923D01*
X118392D01*
Y71838D01*
X118350D01*
Y71795D01*
X118307D01*
Y71838D01*
X118222D01*
Y71710D01*
X118138D01*
Y71753D01*
X118053D01*
Y71710D01*
X118010D01*
Y71626D01*
X117840D01*
Y71541D01*
X117671D01*
Y71371D01*
X117755D01*
Y71286D01*
X118010D01*
Y71201D01*
X118053D01*
Y71159D01*
X118095D01*
Y71201D01*
X118222D01*
Y71074D01*
X118307D01*
Y71116D01*
X118392D01*
Y70989D01*
X118562D01*
Y70904D01*
X118732D01*
Y70819D01*
X118944D01*
Y70734D01*
X119199D01*
Y70649D01*
X119368D01*
Y70565D01*
X119538D01*
Y70310D01*
X116992D01*
Y70480D01*
X118944D01*
Y70649D01*
X118859D01*
Y70734D01*
X118689D01*
Y70819D01*
X118647D01*
Y70862D01*
X118604D01*
Y70819D01*
X118519D01*
Y70862D01*
X118477D01*
Y70947D01*
X118307D01*
Y70904D01*
X118222D01*
Y71031D01*
X118053D01*
Y71116D01*
X117883D01*
Y71201D01*
X117713D01*
Y71244D01*
X117671D01*
Y71286D01*
X117501D01*
Y71371D01*
X117416D01*
Y71541D01*
X117501D01*
Y71626D01*
X117671D01*
Y71668D01*
X117713D01*
Y71710D01*
X117883D01*
Y71795D01*
X118138D01*
Y71923D01*
X118180D01*
Y71880D01*
X118307D01*
Y72008D01*
X118392D01*
Y71965D01*
X118477D01*
Y72092D01*
X118689D01*
Y72177D01*
X118944D01*
Y72432D01*
X116992D01*
Y72602D01*
X119538D01*
Y72347D01*
D02*
G37*
G36*
X128493Y71286D02*
X128323D01*
Y71201D01*
X128153D01*
Y71116D01*
X127941D01*
Y70989D01*
X127899D01*
Y71031D01*
X127771D01*
Y70904D01*
X127729D01*
Y70947D01*
X127517D01*
Y70819D01*
X127389D01*
Y70862D01*
X127347D01*
Y70734D01*
X127135D01*
Y70649D01*
X126880D01*
Y70565D01*
X126710D01*
Y70480D01*
X126541D01*
Y70395D01*
X126328D01*
Y70310D01*
X126074D01*
Y70225D01*
X125904D01*
Y70140D01*
X125862D01*
Y70098D01*
X125819D01*
Y70140D01*
X125734D01*
Y70055D01*
X125692D01*
Y70013D01*
X125649D01*
Y70055D01*
X125565D01*
Y70013D01*
X125522D01*
Y69928D01*
X125267D01*
Y69843D01*
X125098D01*
Y69758D01*
X124928D01*
Y69461D01*
X125013D01*
Y69504D01*
X125098D01*
Y69376D01*
X125182D01*
Y69419D01*
X125267D01*
Y69291D01*
X125437D01*
Y69207D01*
X125734D01*
Y69122D01*
X125904D01*
Y69037D01*
X126074D01*
Y68952D01*
X126244D01*
Y68867D01*
X126541D01*
Y68782D01*
X126710D01*
Y68697D01*
X126880D01*
Y68570D01*
X126965D01*
Y68612D01*
X127050D01*
Y68485D01*
X127262D01*
Y68528D01*
X127304D01*
Y68485D01*
X127347D01*
Y68400D01*
X127517D01*
Y68315D01*
X127687D01*
Y68230D01*
X127856D01*
Y68146D01*
X128153D01*
Y68061D01*
X128323D01*
Y67976D01*
X128493D01*
Y67084D01*
X123782D01*
Y67806D01*
X123867D01*
Y67764D01*
X126965D01*
Y67806D01*
X127007D01*
Y67933D01*
X126965D01*
Y67976D01*
X126923D01*
Y68018D01*
X126880D01*
Y68061D01*
X126626D01*
Y68146D01*
X126456D01*
Y68230D01*
X126201D01*
Y68315D01*
X126159D01*
Y68358D01*
X126074D01*
Y68315D01*
X126031D01*
Y68358D01*
X125989D01*
Y68443D01*
X125819D01*
Y68400D01*
X125734D01*
Y68528D01*
X125565D01*
Y68612D01*
X125310D01*
Y68697D01*
X125098D01*
Y68782D01*
X124843D01*
Y68867D01*
X124673D01*
Y68952D01*
X124419D01*
Y68994D01*
X124376D01*
Y69037D01*
X124206D01*
Y69164D01*
X124037D01*
Y69122D01*
X123952D01*
Y69249D01*
X123825D01*
Y69207D01*
X123782D01*
Y69928D01*
X123825D01*
Y69971D01*
X123867D01*
Y70013D01*
X124037D01*
Y70098D01*
X124291D01*
Y70183D01*
X124334D01*
Y70225D01*
X124376D01*
Y70183D01*
X124461D01*
Y70225D01*
X124504D01*
Y70310D01*
X124546D01*
Y70267D01*
X124758D01*
Y70395D01*
X125013D01*
Y70480D01*
X125182D01*
Y70565D01*
X125480D01*
Y70649D01*
X125649D01*
Y70734D01*
X125904D01*
Y70819D01*
X126074D01*
Y70862D01*
X126116D01*
Y70904D01*
X126371D01*
Y71031D01*
X126413D01*
Y70989D01*
X126626D01*
Y71116D01*
X126710D01*
Y71074D01*
X126795D01*
Y71159D01*
X126838D01*
Y71201D01*
X126880D01*
Y71159D01*
X126965D01*
Y71201D01*
X127007D01*
Y71371D01*
X123782D01*
Y72092D01*
X128493D01*
Y71286D01*
D02*
G37*
G36*
X118732Y69291D02*
X119114D01*
Y69207D01*
X119283D01*
Y69164D01*
X119326D01*
Y69122D01*
X119368D01*
Y69079D01*
X119411D01*
Y69037D01*
X119453D01*
Y68910D01*
X119496D01*
Y68867D01*
X119538D01*
Y67509D01*
X119496D01*
Y67551D01*
X117034D01*
Y67509D01*
X116992D01*
Y67721D01*
X117034D01*
Y67679D01*
X118138D01*
Y67806D01*
X118222D01*
Y68400D01*
X118138D01*
Y68485D01*
X118053D01*
Y68612D01*
X117883D01*
Y68697D01*
X117713D01*
Y68740D01*
X117671D01*
Y68782D01*
X117501D01*
Y68867D01*
X117331D01*
Y68952D01*
X117161D01*
Y69037D01*
X116992D01*
Y69249D01*
X117034D01*
Y69207D01*
X117119D01*
Y69122D01*
X117331D01*
Y69037D01*
X117501D01*
Y68952D01*
X117671D01*
Y68867D01*
X117840D01*
Y68782D01*
X118222D01*
Y68867D01*
X118307D01*
Y69037D01*
X118350D01*
Y69079D01*
X118392D01*
Y69122D01*
X118435D01*
Y69164D01*
X118477D01*
Y69207D01*
X118689D01*
Y69334D01*
X118732D01*
Y69291D01*
D02*
G37*
G36*
X118944Y66448D02*
X119199D01*
Y66363D01*
X119283D01*
Y66278D01*
X119368D01*
Y66193D01*
X119453D01*
Y66108D01*
X119538D01*
Y65854D01*
X119623D01*
Y65387D01*
X119580D01*
Y65345D01*
X119538D01*
Y65090D01*
X119453D01*
Y65005D01*
X119368D01*
Y64920D01*
X119283D01*
Y64835D01*
X119199D01*
Y64750D01*
X118816D01*
Y64666D01*
X117713D01*
Y64708D01*
X117671D01*
Y64750D01*
X117416D01*
Y64835D01*
X117246D01*
Y64920D01*
X117161D01*
Y65005D01*
X117077D01*
Y65175D01*
X116992D01*
Y65345D01*
X116949D01*
Y65387D01*
X116907D01*
Y65769D01*
X116949D01*
Y65811D01*
X116992D01*
Y66023D01*
X117077D01*
Y66193D01*
X117161D01*
Y66278D01*
X117246D01*
Y66363D01*
X117331D01*
Y66448D01*
X117586D01*
Y66533D01*
X118944D01*
Y66448D01*
D02*
G37*
G36*
X123909Y66236D02*
X123952D01*
Y66193D01*
X124121D01*
Y66066D01*
X124291D01*
Y66108D01*
X124376D01*
Y65981D01*
X124504D01*
Y66023D01*
X124546D01*
Y65896D01*
X124673D01*
Y65939D01*
X124716D01*
Y65854D01*
X124758D01*
Y65811D01*
X124928D01*
Y65726D01*
X125182D01*
Y65642D01*
X125352D01*
Y65557D01*
X125522D01*
Y65472D01*
X125819D01*
Y65387D01*
X125989D01*
Y65302D01*
X126159D01*
Y65217D01*
X126201D01*
Y65175D01*
X126371D01*
Y65217D01*
X126413D01*
Y65132D01*
X126456D01*
Y65090D01*
X126541D01*
Y65132D01*
X126583D01*
Y65090D01*
X126626D01*
Y65005D01*
X126795D01*
Y64920D01*
X127050D01*
Y64835D01*
X127220D01*
Y64750D01*
X127432D01*
Y64666D01*
X127602D01*
Y64581D01*
X127856D01*
Y64496D01*
X128026D01*
Y64411D01*
X128068D01*
Y64368D01*
X128111D01*
Y64411D01*
X128238D01*
Y64284D01*
X128408D01*
Y64326D01*
X128493D01*
Y63307D01*
X128408D01*
Y63222D01*
X128323D01*
Y63265D01*
X128153D01*
Y63180D01*
X128111D01*
Y63138D01*
X127941D01*
Y63053D01*
X127687D01*
Y62968D01*
X127517D01*
Y62883D01*
X127347D01*
Y62798D01*
X127135D01*
Y62713D01*
X126880D01*
Y62628D01*
X126710D01*
Y62543D01*
X126456D01*
Y62501D01*
X126413D01*
Y62416D01*
X126371D01*
Y62459D01*
X126244D01*
Y62331D01*
X126159D01*
Y62374D01*
X126074D01*
Y62246D01*
X125819D01*
Y62161D01*
X125649D01*
Y62077D01*
X125437D01*
Y61992D01*
X125182D01*
Y61907D01*
X125013D01*
Y61822D01*
X124843D01*
Y61737D01*
X124546D01*
Y61610D01*
X124504D01*
Y61652D01*
X124376D01*
Y61525D01*
X124291D01*
Y61567D01*
X124121D01*
Y61440D01*
X123952D01*
Y61398D01*
X123909D01*
Y61355D01*
X123782D01*
Y62161D01*
X124037D01*
Y62246D01*
X124206D01*
Y62331D01*
X124504D01*
Y62416D01*
X124673D01*
Y62543D01*
X124716D01*
Y62501D01*
X124843D01*
Y62628D01*
X124928D01*
Y62586D01*
X125098D01*
Y62713D01*
X125225D01*
Y62671D01*
X125267D01*
Y62713D01*
X125310D01*
Y62798D01*
X125565D01*
Y62883D01*
X125734D01*
Y62968D01*
X125989D01*
Y63053D01*
X126201D01*
Y63138D01*
X126456D01*
Y63222D01*
X126626D01*
Y63307D01*
X126880D01*
Y63350D01*
X126923D01*
Y63435D01*
X126965D01*
Y63392D01*
X127092D01*
Y63520D01*
X127177D01*
Y63477D01*
X127262D01*
Y63604D01*
X127517D01*
Y63689D01*
X127602D01*
Y63859D01*
X127517D01*
Y63944D01*
X127347D01*
Y64071D01*
X127177D01*
Y64029D01*
X127092D01*
Y64156D01*
X126965D01*
Y64114D01*
X126923D01*
Y64199D01*
X126880D01*
Y64241D01*
X126626D01*
Y64326D01*
X126456D01*
Y64411D01*
X126286D01*
Y64496D01*
X125989D01*
Y64581D01*
X125734D01*
Y63604D01*
X125692D01*
Y63562D01*
X125649D01*
Y63520D01*
X125352D01*
Y63435D01*
X125225D01*
Y63392D01*
X125182D01*
Y63307D01*
X125098D01*
Y64835D01*
X125013D01*
Y64920D01*
X124928D01*
Y65047D01*
X124801D01*
Y65005D01*
X124758D01*
Y65132D01*
X124504D01*
Y65217D01*
X124291D01*
Y65302D01*
X124121D01*
Y65387D01*
X123867D01*
Y65429D01*
X123825D01*
Y65472D01*
X123782D01*
Y66278D01*
X123909D01*
Y66236D01*
D02*
G37*
G36*
X119538Y62416D02*
X119496D01*
Y62459D01*
X117034D01*
Y62416D01*
X116992D01*
Y62628D01*
X117034D01*
Y62586D01*
X118138D01*
Y63774D01*
X118307D01*
Y62586D01*
X119453D01*
Y62713D01*
X119496D01*
Y64071D01*
X119538D01*
Y62416D01*
D02*
G37*
G36*
Y59912D02*
X119496D01*
Y59955D01*
X117416D01*
Y59827D01*
X117331D01*
Y59742D01*
X117246D01*
Y59700D01*
X117204D01*
Y59658D01*
X117161D01*
Y59615D01*
X117119D01*
Y59488D01*
X117077D01*
Y59445D01*
X117034D01*
Y58978D01*
X117119D01*
Y58809D01*
X117161D01*
Y58766D01*
X117246D01*
Y58681D01*
X117331D01*
Y58596D01*
X117501D01*
Y58512D01*
X119538D01*
Y58342D01*
X117501D01*
Y58427D01*
X117331D01*
Y58469D01*
X117289D01*
Y58512D01*
X117246D01*
Y58554D01*
X117204D01*
Y58596D01*
X117161D01*
Y58639D01*
X117119D01*
Y58681D01*
X117077D01*
Y58766D01*
X116992D01*
Y58978D01*
X116949D01*
Y59021D01*
X116907D01*
Y59403D01*
X116949D01*
Y59445D01*
X116992D01*
Y59658D01*
X117034D01*
Y59700D01*
X117077D01*
Y59742D01*
X117119D01*
Y59785D01*
X117161D01*
Y59912D01*
X117331D01*
Y60040D01*
X117416D01*
Y59997D01*
X117501D01*
Y60124D01*
X117586D01*
Y60082D01*
X119453D01*
Y60124D01*
X119538D01*
Y59912D01*
D02*
G37*
G36*
X128493Y57451D02*
X123782D01*
Y60719D01*
X124376D01*
Y58214D01*
X125819D01*
Y60549D01*
X126541D01*
Y58214D01*
X127899D01*
Y60719D01*
X128493D01*
Y57451D01*
D02*
G37*
G36*
X119538Y55923D02*
X116992D01*
Y56093D01*
X118138D01*
Y57238D01*
X118180D01*
Y57281D01*
X118222D01*
Y57366D01*
X118307D01*
Y56093D01*
X119453D01*
Y56177D01*
X119496D01*
Y57535D01*
X119538D01*
Y55923D01*
D02*
G37*
G36*
X128493Y53249D02*
X127899D01*
Y54565D01*
X123782D01*
Y55456D01*
X127602D01*
Y55371D01*
X127814D01*
Y55498D01*
X127899D01*
Y56814D01*
X128493D01*
Y53249D01*
D02*
G37*
G36*
X117925Y54862D02*
X118010D01*
Y54819D01*
X118053D01*
Y54777D01*
X118095D01*
Y54734D01*
X118138D01*
Y54692D01*
X118180D01*
Y54650D01*
X118222D01*
Y54607D01*
X118265D01*
Y54565D01*
X118307D01*
Y54225D01*
X118392D01*
Y53801D01*
X118435D01*
Y53758D01*
X118477D01*
Y53589D01*
X118562D01*
Y53504D01*
X118647D01*
Y53419D01*
X119114D01*
Y53504D01*
X119283D01*
Y53589D01*
X119368D01*
Y53673D01*
X119453D01*
Y53758D01*
X119496D01*
Y54437D01*
X119453D01*
Y54480D01*
X119411D01*
Y54565D01*
X119368D01*
Y54650D01*
X119283D01*
Y54734D01*
X119326D01*
Y54777D01*
X119453D01*
Y54607D01*
X119496D01*
Y54565D01*
X119538D01*
Y54437D01*
X119580D01*
Y54395D01*
X119623D01*
Y53843D01*
X119580D01*
Y53801D01*
X119538D01*
Y53589D01*
X119496D01*
Y53546D01*
X119453D01*
Y53504D01*
X119411D01*
Y53461D01*
X119368D01*
Y53419D01*
X119326D01*
Y53376D01*
X119283D01*
Y53334D01*
X119114D01*
Y53249D01*
X118774D01*
Y53334D01*
X118477D01*
Y53376D01*
X118435D01*
Y53419D01*
X118392D01*
Y53589D01*
X118307D01*
Y53758D01*
X118222D01*
Y54268D01*
X118180D01*
Y54310D01*
X118138D01*
Y54565D01*
X118053D01*
Y54650D01*
X117968D01*
Y54734D01*
X117925D01*
Y54777D01*
X117331D01*
Y54650D01*
X117246D01*
Y54607D01*
X117204D01*
Y54565D01*
X117161D01*
Y54522D01*
X117119D01*
Y54395D01*
X117077D01*
Y54352D01*
X117034D01*
Y53716D01*
X117077D01*
Y53673D01*
X117119D01*
Y53546D01*
X117161D01*
Y53504D01*
X117204D01*
Y53376D01*
X117246D01*
Y53334D01*
X117331D01*
Y53249D01*
X117161D01*
Y53291D01*
X117077D01*
Y53461D01*
X117034D01*
Y53504D01*
X116992D01*
Y53716D01*
X116949D01*
Y53758D01*
X116907D01*
Y54310D01*
X116949D01*
Y54352D01*
X116992D01*
Y54565D01*
X117034D01*
Y54607D01*
X117077D01*
Y54650D01*
X117119D01*
Y54692D01*
X117161D01*
Y54777D01*
X117246D01*
Y54862D01*
X117331D01*
Y54947D01*
X117416D01*
Y54904D01*
X117883D01*
Y54947D01*
X117925D01*
Y54862D01*
D02*
G37*
G36*
X121533Y52061D02*
X121278D01*
Y110586D01*
X121533D01*
Y52061D01*
D02*
G37*
G36*
X135665Y47180D02*
X135623D01*
Y47138D01*
X135580D01*
Y47095D01*
X135538D01*
Y47053D01*
X135495D01*
Y47010D01*
X135453D01*
Y46968D01*
X135411D01*
Y46926D01*
X135368D01*
Y46883D01*
X135283D01*
Y46968D01*
X135326D01*
Y47010D01*
X135411D01*
Y47095D01*
X135495D01*
Y47180D01*
X135580D01*
Y47265D01*
X135665D01*
Y47180D01*
D02*
G37*
G36*
X135283Y46798D02*
X135198D01*
Y46883D01*
X135283D01*
Y46798D01*
D02*
G37*
G36*
X126244Y47944D02*
X126880D01*
Y47859D01*
X127347D01*
Y47774D01*
X127687D01*
Y47689D01*
X127941D01*
Y47605D01*
X128238D01*
Y47520D01*
X128493D01*
Y47435D01*
X128747D01*
Y47350D01*
X128790D01*
Y47308D01*
X128832D01*
Y47350D01*
X128917D01*
Y47265D01*
X128960D01*
Y47223D01*
X129045D01*
Y47265D01*
X129087D01*
Y47223D01*
X129130D01*
Y47138D01*
X129299D01*
Y47053D01*
X129469D01*
Y46968D01*
X129639D01*
Y46883D01*
X129851D01*
Y46798D01*
X130021D01*
Y46713D01*
X130106D01*
Y46628D01*
X130275D01*
Y46543D01*
X130318D01*
Y46501D01*
X130360D01*
Y46543D01*
X130445D01*
Y46459D01*
X130530D01*
Y46374D01*
X130572D01*
Y46331D01*
X130657D01*
Y46374D01*
X130700D01*
Y46331D01*
X130742D01*
Y46289D01*
X130785D01*
Y46246D01*
X130827D01*
Y46204D01*
X130869D01*
Y46162D01*
X130912D01*
Y46077D01*
X131082D01*
Y46034D01*
X131124D01*
Y45992D01*
X131167D01*
Y45949D01*
X131209D01*
Y45907D01*
X131252D01*
Y45822D01*
X131336D01*
Y45780D01*
X131379D01*
Y45737D01*
X131421D01*
Y45695D01*
X131336D01*
Y45610D01*
X131252D01*
Y45525D01*
X131209D01*
Y45567D01*
X131167D01*
Y45610D01*
X131124D01*
Y45695D01*
X131082D01*
Y45737D01*
X130912D01*
Y45822D01*
X130827D01*
Y45907D01*
X130742D01*
Y45992D01*
X130572D01*
Y46077D01*
X130488D01*
Y46162D01*
X130445D01*
Y46204D01*
X130403D01*
Y46162D01*
X130318D01*
Y46204D01*
X130275D01*
Y46246D01*
X130233D01*
Y46289D01*
X130191D01*
Y46374D01*
X130021D01*
Y46416D01*
X129978D01*
Y46459D01*
X129936D01*
Y46543D01*
X129766D01*
Y46628D01*
X129596D01*
Y46713D01*
X129384D01*
Y46798D01*
X129214D01*
Y46883D01*
X129045D01*
Y46968D01*
X128875D01*
Y47095D01*
X128663D01*
Y47053D01*
X128620D01*
Y47138D01*
X128578D01*
Y47180D01*
X128493D01*
Y47138D01*
X128450D01*
Y47180D01*
X128408D01*
Y47265D01*
X128153D01*
Y47350D01*
X127814D01*
Y47435D01*
X127517D01*
Y47520D01*
X127177D01*
Y47605D01*
X126626D01*
Y47689D01*
X125734D01*
Y47774D01*
X124631D01*
Y47689D01*
X123740D01*
Y47605D01*
X123230D01*
Y47520D01*
X122848D01*
Y47435D01*
X122509D01*
Y47350D01*
X122254D01*
Y47308D01*
X122212D01*
Y47265D01*
X121957D01*
Y47138D01*
X121915D01*
Y47180D01*
X121787D01*
Y47053D01*
X121703D01*
Y47095D01*
X121533D01*
Y46968D01*
X121320D01*
Y46883D01*
X121151D01*
Y46798D01*
X120981D01*
Y46713D01*
X120811D01*
Y46628D01*
X120642D01*
Y46543D01*
X120429D01*
Y46416D01*
X120344D01*
Y46374D01*
X120175D01*
Y46246D01*
X120090D01*
Y46162D01*
X120005D01*
Y46204D01*
X119920D01*
Y46077D01*
X119835D01*
Y45992D01*
X119623D01*
Y45907D01*
X119580D01*
Y45864D01*
X119538D01*
Y45822D01*
X119496D01*
Y45780D01*
X119453D01*
Y45737D01*
X119411D01*
Y45695D01*
X119368D01*
Y45652D01*
X119199D01*
Y45567D01*
X119156D01*
Y45525D01*
X119114D01*
Y45483D01*
X119071D01*
Y45440D01*
X119029D01*
Y45398D01*
X118986D01*
Y45355D01*
X118944D01*
Y45313D01*
X118901D01*
Y45270D01*
X118859D01*
Y45228D01*
X118816D01*
Y45186D01*
X118774D01*
Y45143D01*
X118732D01*
Y45101D01*
X118647D01*
Y45016D01*
X118604D01*
Y44973D01*
X118562D01*
Y44931D01*
X118519D01*
Y44888D01*
X118477D01*
Y44846D01*
X118435D01*
Y44804D01*
X118392D01*
Y44761D01*
X118350D01*
Y44719D01*
X118307D01*
Y44676D01*
X118265D01*
Y44634D01*
X118222D01*
Y44591D01*
X118180D01*
Y44549D01*
X118138D01*
Y44506D01*
X118095D01*
Y44464D01*
X118053D01*
Y44421D01*
X118010D01*
Y44294D01*
X117968D01*
Y44252D01*
X117925D01*
Y44209D01*
X117883D01*
Y44167D01*
X117840D01*
Y44124D01*
X117798D01*
Y44082D01*
X117755D01*
Y44040D01*
X117713D01*
Y43997D01*
X117671D01*
Y43827D01*
X117586D01*
Y43742D01*
X117501D01*
Y43573D01*
X117416D01*
Y43488D01*
X117331D01*
Y43318D01*
X117246D01*
Y43233D01*
X117204D01*
Y43106D01*
X117119D01*
Y43021D01*
X117034D01*
Y42851D01*
X116949D01*
Y42682D01*
X116864D01*
Y42512D01*
X116779D01*
Y42342D01*
X116737D01*
Y42300D01*
X116695D01*
Y42045D01*
X116610D01*
Y41875D01*
X116525D01*
Y41620D01*
X116440D01*
Y41366D01*
X116398D01*
Y41323D01*
X116313D01*
Y41069D01*
X116228D01*
Y40729D01*
X116185D01*
Y40687D01*
X116143D01*
Y40262D01*
X116058D01*
Y39753D01*
X116016D01*
Y39711D01*
X115973D01*
Y37249D01*
X116058D01*
Y36740D01*
X116100D01*
Y36697D01*
X116143D01*
Y36273D01*
X116228D01*
Y36018D01*
X116313D01*
Y35764D01*
X116355D01*
Y35721D01*
X116440D01*
Y35467D01*
X116525D01*
Y35212D01*
X116567D01*
Y35170D01*
X116610D01*
Y35000D01*
X116525D01*
Y34915D01*
X116355D01*
Y35000D01*
X116270D01*
Y35254D01*
X116185D01*
Y35509D01*
X116143D01*
Y35552D01*
X116100D01*
Y35764D01*
X116058D01*
Y35806D01*
X115973D01*
Y36061D01*
X115931D01*
Y36103D01*
X115888D01*
Y36528D01*
X115803D01*
Y36952D01*
X115718D01*
Y37674D01*
X115633D01*
Y39286D01*
X115676D01*
Y39329D01*
X115718D01*
Y40008D01*
X115803D01*
Y40560D01*
X115888D01*
Y40899D01*
X115973D01*
Y41154D01*
X116016D01*
Y41196D01*
X116100D01*
Y41536D01*
X116143D01*
Y41578D01*
X116185D01*
Y41705D01*
X116228D01*
Y41748D01*
X116270D01*
Y42002D01*
X116355D01*
Y42257D01*
X116440D01*
Y42427D01*
X116525D01*
Y42597D01*
X116610D01*
Y42766D01*
X116652D01*
Y42809D01*
X116695D01*
Y42936D01*
X116737D01*
Y42979D01*
X116779D01*
Y43148D01*
X116864D01*
Y43191D01*
X116907D01*
Y43318D01*
X116949D01*
Y43360D01*
X116992D01*
Y43403D01*
X117034D01*
Y43445D01*
X117077D01*
Y43573D01*
X117119D01*
Y43615D01*
X117161D01*
Y43785D01*
X117246D01*
Y43870D01*
X117331D01*
Y44040D01*
X117416D01*
Y44124D01*
X117501D01*
Y44209D01*
X117586D01*
Y44379D01*
X117628D01*
Y44421D01*
X117671D01*
Y44464D01*
X117713D01*
Y44506D01*
X117798D01*
Y44591D01*
X117883D01*
Y44676D01*
X117968D01*
Y44761D01*
X118053D01*
Y44931D01*
X118138D01*
Y45016D01*
X118222D01*
Y45101D01*
X118307D01*
Y45186D01*
X118350D01*
Y45228D01*
X118392D01*
Y45270D01*
X118435D01*
Y45313D01*
X118477D01*
Y45355D01*
X118519D01*
Y45398D01*
X118604D01*
Y45483D01*
X118689D01*
Y45567D01*
X118774D01*
Y45652D01*
X118859D01*
Y45610D01*
X118944D01*
Y45737D01*
X119029D01*
Y45822D01*
X119114D01*
Y45907D01*
X119199D01*
Y45992D01*
X119283D01*
Y46077D01*
X119496D01*
Y46204D01*
X119580D01*
Y46289D01*
X119665D01*
Y46374D01*
X119708D01*
Y46331D01*
X119835D01*
Y46459D01*
X119920D01*
Y46543D01*
X120090D01*
Y46628D01*
X120175D01*
Y46713D01*
X120387D01*
Y46798D01*
X120557D01*
Y46883D01*
X120726D01*
Y46968D01*
X120896D01*
Y47053D01*
X121066D01*
Y47095D01*
X121108D01*
Y47138D01*
X121278D01*
Y47265D01*
X121320D01*
Y47223D01*
X121448D01*
Y47350D01*
X121533D01*
Y47308D01*
X121618D01*
Y47435D01*
X121915D01*
Y47520D01*
X122169D01*
Y47605D01*
X122424D01*
Y47689D01*
X122679D01*
Y47774D01*
X123061D01*
Y47859D01*
X123485D01*
Y47944D01*
X124121D01*
Y48029D01*
X126201D01*
Y48071D01*
X126244D01*
Y47944D01*
D02*
G37*
G36*
X135198Y46628D02*
X135156D01*
Y46586D01*
X135114D01*
Y46543D01*
X135071D01*
Y46501D01*
X135029D01*
Y46459D01*
X134986D01*
Y46416D01*
X134944D01*
Y46374D01*
X134901D01*
Y46331D01*
X134859D01*
Y46204D01*
X134817D01*
Y46162D01*
X134774D01*
Y46119D01*
X134732D01*
Y46077D01*
X134689D01*
Y46034D01*
X134647D01*
Y45992D01*
X134562D01*
Y45907D01*
X134477D01*
Y45737D01*
X134434D01*
Y45695D01*
X134392D01*
Y45652D01*
X134350D01*
Y45610D01*
X134307D01*
Y45567D01*
X134265D01*
Y45525D01*
X134222D01*
Y45483D01*
X134180D01*
Y45440D01*
X134137D01*
Y45355D01*
X134053D01*
Y45186D01*
X133968D01*
Y45143D01*
X133925D01*
Y45101D01*
X133883D01*
Y45058D01*
X133840D01*
Y45016D01*
X133798D01*
Y44973D01*
X133756D01*
Y44931D01*
X133713D01*
Y44888D01*
X133671D01*
Y44719D01*
X133586D01*
Y44634D01*
X133501D01*
Y44549D01*
X133416D01*
Y44464D01*
X133331D01*
Y44294D01*
X133246D01*
Y44209D01*
X133161D01*
Y44124D01*
X133076D01*
Y44082D01*
X133034D01*
Y44040D01*
X132992D01*
Y43997D01*
X132949D01*
Y43912D01*
X132864D01*
Y43742D01*
X132779D01*
Y43658D01*
X132694D01*
Y43573D01*
X132610D01*
Y43488D01*
X132525D01*
Y43318D01*
X132440D01*
Y43233D01*
X132355D01*
Y43148D01*
X132313D01*
Y43106D01*
X132228D01*
Y43021D01*
X132143D01*
Y42936D01*
X132058D01*
Y42766D01*
X131973D01*
Y42682D01*
X131888D01*
Y42597D01*
X131803D01*
Y42512D01*
X131718D01*
Y42342D01*
X131676D01*
Y42300D01*
X131633D01*
Y42257D01*
X131591D01*
Y42215D01*
X131549D01*
Y42172D01*
X131506D01*
Y42130D01*
X131464D01*
Y42087D01*
X131421D01*
Y42045D01*
X131336D01*
Y41960D01*
X131252D01*
Y41790D01*
X131167D01*
Y41705D01*
X131082D01*
Y41620D01*
X130997D01*
Y41536D01*
X130954D01*
Y41493D01*
X130912D01*
Y41366D01*
X130869D01*
Y41323D01*
X130827D01*
Y41281D01*
X130785D01*
Y41238D01*
X130742D01*
Y41196D01*
X130700D01*
Y41154D01*
X130657D01*
Y41111D01*
X130615D01*
Y41069D01*
X130572D01*
Y41026D01*
X130530D01*
Y40984D01*
X130445D01*
Y40814D01*
X130403D01*
Y40772D01*
X130360D01*
Y40729D01*
X130318D01*
Y40687D01*
X130275D01*
Y40644D01*
X130233D01*
Y40602D01*
X130191D01*
Y40560D01*
X130148D01*
Y40517D01*
X130106D01*
Y40347D01*
X130021D01*
Y40262D01*
X129936D01*
Y40178D01*
X129851D01*
Y40093D01*
X129766D01*
Y40050D01*
X129724D01*
Y39923D01*
X129681D01*
Y39880D01*
X129639D01*
Y39838D01*
X129596D01*
Y39796D01*
X129554D01*
Y39753D01*
X129511D01*
Y39711D01*
X129469D01*
Y39626D01*
X129384D01*
Y39541D01*
X129299D01*
Y39371D01*
X129214D01*
Y39286D01*
X129130D01*
Y39201D01*
X129045D01*
Y39116D01*
X128960D01*
Y39074D01*
X128917D01*
Y38947D01*
X128875D01*
Y38904D01*
X128832D01*
Y38819D01*
X128747D01*
Y38734D01*
X128663D01*
Y38650D01*
X128578D01*
Y38565D01*
X128493D01*
Y38395D01*
X128408D01*
Y38310D01*
X128323D01*
Y38225D01*
X128238D01*
Y38140D01*
X128153D01*
Y37971D01*
X128111D01*
Y37928D01*
X128026D01*
Y37843D01*
X127941D01*
Y37758D01*
X127856D01*
Y37674D01*
X127771D01*
Y37504D01*
X127687D01*
Y37419D01*
X127602D01*
Y37334D01*
X127517D01*
Y37249D01*
X127474D01*
Y37207D01*
X127432D01*
Y37164D01*
X127389D01*
Y37122D01*
X127347D01*
Y36994D01*
X127304D01*
Y36952D01*
X127262D01*
Y36910D01*
X127220D01*
Y36867D01*
X127135D01*
Y36782D01*
X127050D01*
Y36697D01*
X126965D01*
Y36528D01*
X126880D01*
Y36443D01*
X126838D01*
Y36400D01*
X126795D01*
Y36358D01*
X126753D01*
Y36315D01*
X126710D01*
Y36273D01*
X126668D01*
Y36231D01*
X126626D01*
Y36103D01*
X126583D01*
Y36061D01*
X126541D01*
Y36018D01*
X126498D01*
Y35976D01*
X126456D01*
Y35934D01*
X126413D01*
Y35891D01*
X126371D01*
Y35849D01*
X126328D01*
Y35806D01*
X126244D01*
Y35721D01*
X126201D01*
Y35679D01*
X126159D01*
Y35552D01*
X126116D01*
Y35509D01*
X126074D01*
Y35467D01*
X126031D01*
Y35424D01*
X125989D01*
Y35382D01*
X125946D01*
Y35339D01*
X125904D01*
Y35297D01*
X125862D01*
Y35254D01*
X125819D01*
Y35085D01*
X125734D01*
Y35000D01*
X125649D01*
Y34915D01*
X125565D01*
Y34872D01*
X125522D01*
Y34830D01*
X125480D01*
Y34788D01*
X125437D01*
Y34745D01*
X125395D01*
Y34703D01*
X125352D01*
Y34533D01*
X125267D01*
Y34448D01*
X125182D01*
Y34363D01*
X125098D01*
Y34278D01*
X125013D01*
Y34109D01*
X124928D01*
Y34024D01*
X124843D01*
Y33939D01*
X124758D01*
Y33896D01*
X124716D01*
Y33854D01*
X124673D01*
Y33812D01*
X124631D01*
Y33727D01*
X124546D01*
Y33557D01*
X124461D01*
Y33472D01*
X124376D01*
Y33387D01*
X124291D01*
Y33642D01*
X124249D01*
Y33684D01*
X124206D01*
Y33939D01*
X124121D01*
Y34194D01*
X124037D01*
Y34448D01*
X123952D01*
Y34703D01*
X123909D01*
Y34745D01*
X123867D01*
Y34915D01*
X123782D01*
Y35170D01*
X123697D01*
Y35424D01*
X123612D01*
Y35764D01*
X123570D01*
Y35806D01*
X123485D01*
Y36061D01*
X123442D01*
Y36103D01*
X123400D01*
Y36231D01*
X123358D01*
Y36273D01*
X123315D01*
Y36528D01*
X123230D01*
Y36782D01*
X123145D01*
Y37079D01*
X122764D01*
Y36952D01*
X122679D01*
Y36867D01*
X122594D01*
Y36782D01*
X122509D01*
Y36697D01*
X122424D01*
Y36612D01*
X122339D01*
Y36528D01*
X122127D01*
Y36443D01*
X122084D01*
Y36400D01*
X122042D01*
Y36358D01*
X122000D01*
Y36315D01*
X121957D01*
Y36231D01*
X121872D01*
Y36146D01*
X121787D01*
Y36061D01*
X121703D01*
Y35976D01*
X121618D01*
Y35891D01*
X121533D01*
Y35806D01*
X121448D01*
Y35721D01*
X121363D01*
Y35679D01*
X121320D01*
Y35636D01*
X121278D01*
Y35594D01*
X121236D01*
Y35552D01*
X121193D01*
Y35509D01*
X121151D01*
Y35467D01*
X121108D01*
Y35424D01*
X121066D01*
Y35339D01*
X120981D01*
Y35254D01*
X120896D01*
Y35170D01*
X120811D01*
Y35212D01*
X120726D01*
Y35085D01*
X120642D01*
Y35000D01*
X120557D01*
Y34957D01*
X120514D01*
Y34915D01*
X120472D01*
Y34872D01*
X120429D01*
Y34830D01*
X120387D01*
Y34788D01*
X120344D01*
Y34745D01*
X120302D01*
Y34703D01*
X120259D01*
Y34660D01*
X120217D01*
Y34618D01*
X120175D01*
Y34575D01*
X120132D01*
Y34533D01*
X120090D01*
Y34490D01*
X120047D01*
Y34448D01*
X120005D01*
Y34363D01*
X119920D01*
Y34278D01*
X119835D01*
Y34194D01*
X119750D01*
Y34151D01*
X119708D01*
Y34109D01*
X119665D01*
Y34066D01*
X119623D01*
Y34024D01*
X119580D01*
Y33981D01*
X119538D01*
Y33939D01*
X119368D01*
Y33854D01*
X119326D01*
Y33812D01*
X119283D01*
Y33769D01*
X119241D01*
Y33727D01*
X119199D01*
Y33684D01*
X119156D01*
Y33642D01*
X119114D01*
Y33599D01*
X119071D01*
Y33557D01*
X119029D01*
Y33514D01*
X118986D01*
Y33472D01*
X118944D01*
Y33430D01*
X118901D01*
Y33387D01*
X118859D01*
Y33345D01*
X118816D01*
Y33302D01*
X118732D01*
Y33217D01*
X118647D01*
Y33132D01*
X118604D01*
Y33090D01*
X118562D01*
Y33048D01*
X118519D01*
Y33005D01*
X118477D01*
Y32963D01*
X118435D01*
Y32920D01*
X118392D01*
Y32878D01*
X118350D01*
Y32835D01*
X118307D01*
Y32793D01*
X118265D01*
Y32750D01*
X118222D01*
Y32708D01*
X118180D01*
Y32666D01*
X118138D01*
Y32708D01*
X118053D01*
Y32666D01*
X118010D01*
Y32581D01*
X117925D01*
Y32496D01*
X117840D01*
Y32411D01*
X117755D01*
Y32326D01*
X117671D01*
Y32241D01*
X117586D01*
Y32156D01*
X117543D01*
Y32114D01*
X117501D01*
Y32071D01*
X117458D01*
Y32029D01*
X117416D01*
Y31987D01*
X117374D01*
Y31944D01*
X117331D01*
Y31902D01*
X117289D01*
Y31859D01*
X117246D01*
Y31817D01*
X117204D01*
Y31774D01*
X117119D01*
Y31690D01*
X117034D01*
Y31605D01*
X116949D01*
Y31520D01*
X116864D01*
Y31435D01*
X116695D01*
Y31350D01*
X116610D01*
Y31265D01*
X116567D01*
Y31223D01*
X116525D01*
Y31180D01*
X116482D01*
Y31138D01*
X116440D01*
Y31095D01*
X116398D01*
Y31053D01*
X116313D01*
Y30968D01*
X116228D01*
Y30883D01*
X116143D01*
Y30798D01*
X116058D01*
Y30713D01*
X115973D01*
Y30628D01*
X115888D01*
Y30544D01*
X115803D01*
Y30459D01*
X115761D01*
Y30416D01*
X115718D01*
Y30374D01*
X115506D01*
Y30246D01*
X115421D01*
Y30162D01*
X115337D01*
Y30077D01*
X115252D01*
Y29992D01*
X115167D01*
Y29907D01*
X115082D01*
Y29822D01*
X114997D01*
Y29737D01*
X114912D01*
Y29652D01*
X114827D01*
Y29568D01*
X114785D01*
Y29525D01*
X114742D01*
Y29483D01*
X114700D01*
Y29440D01*
X114657D01*
Y29398D01*
X114615D01*
Y29355D01*
X114530D01*
Y29270D01*
X114445D01*
Y29186D01*
X114360D01*
Y29101D01*
X114276D01*
Y29186D01*
X114318D01*
Y29228D01*
X114360D01*
Y29270D01*
X114403D01*
Y29313D01*
X114445D01*
Y29355D01*
X114488D01*
Y29398D01*
X114573D01*
Y29483D01*
X114657D01*
Y29652D01*
X114742D01*
Y29737D01*
X114827D01*
Y29822D01*
X114912D01*
Y29992D01*
X114954D01*
Y30034D01*
X114997D01*
Y30077D01*
X115039D01*
Y30119D01*
X115082D01*
Y30162D01*
X115124D01*
Y30204D01*
X115167D01*
Y30246D01*
X115209D01*
Y30374D01*
X115252D01*
Y30416D01*
X115294D01*
Y30459D01*
X115379D01*
Y30544D01*
X115464D01*
Y30713D01*
X115506D01*
Y30756D01*
X115549D01*
Y30798D01*
X115591D01*
Y30841D01*
X115633D01*
Y30883D01*
X115676D01*
Y30926D01*
X115718D01*
Y31095D01*
X115803D01*
Y31180D01*
X115888D01*
Y31265D01*
X115973D01*
Y31435D01*
X116058D01*
Y31477D01*
X116100D01*
Y31520D01*
X116143D01*
Y31562D01*
X116185D01*
Y31605D01*
X116228D01*
Y31647D01*
X116270D01*
Y31817D01*
X116355D01*
Y31902D01*
X116440D01*
Y31987D01*
X116525D01*
Y32156D01*
X116610D01*
Y32241D01*
X116695D01*
Y32326D01*
X116779D01*
Y32496D01*
X116822D01*
Y32538D01*
X116864D01*
Y32581D01*
X116907D01*
Y32623D01*
X116992D01*
Y32708D01*
X117077D01*
Y32878D01*
X117161D01*
Y32963D01*
X117246D01*
Y33048D01*
X117331D01*
Y33217D01*
X117416D01*
Y33302D01*
X117458D01*
Y33345D01*
X117501D01*
Y33387D01*
X117543D01*
Y33430D01*
X117586D01*
Y33557D01*
X117628D01*
Y33599D01*
X117671D01*
Y33642D01*
X117713D01*
Y33684D01*
X117755D01*
Y33727D01*
X117798D01*
Y33769D01*
X117883D01*
Y33939D01*
X117968D01*
Y34024D01*
X118010D01*
Y34066D01*
X118053D01*
Y34109D01*
X118095D01*
Y34151D01*
X118138D01*
Y34278D01*
X118180D01*
Y34321D01*
X118222D01*
Y34363D01*
X118265D01*
Y34406D01*
X118307D01*
Y34490D01*
X118392D01*
Y34660D01*
X118477D01*
Y34745D01*
X118562D01*
Y34788D01*
X118604D01*
Y34830D01*
X118647D01*
Y34872D01*
X118689D01*
Y35000D01*
X118732D01*
Y35042D01*
X118774D01*
Y35127D01*
X118859D01*
Y35212D01*
X118944D01*
Y35382D01*
X119029D01*
Y35467D01*
X119114D01*
Y35552D01*
X119199D01*
Y35721D01*
X119283D01*
Y35806D01*
X119368D01*
Y35891D01*
X119411D01*
Y35934D01*
X119496D01*
Y36103D01*
X119580D01*
Y36188D01*
X119665D01*
Y36273D01*
X119750D01*
Y36443D01*
X119835D01*
Y36528D01*
X119920D01*
Y36612D01*
X120005D01*
Y36782D01*
X120047D01*
Y36825D01*
X120090D01*
Y36867D01*
X120132D01*
Y36910D01*
X120175D01*
Y36952D01*
X120217D01*
Y36994D01*
X120302D01*
Y37079D01*
X120387D01*
Y37249D01*
X120472D01*
Y37334D01*
X120557D01*
Y37504D01*
X120599D01*
Y37546D01*
X120642D01*
Y37589D01*
X120684D01*
Y37631D01*
X120726D01*
Y37674D01*
X120769D01*
Y37716D01*
X120811D01*
Y37886D01*
X120896D01*
Y37971D01*
X120981D01*
Y38056D01*
X121066D01*
Y38098D01*
X121108D01*
Y38140D01*
X121151D01*
Y38183D01*
X121193D01*
Y38310D01*
X121236D01*
Y38353D01*
X121278D01*
Y38395D01*
X121320D01*
Y38438D01*
X121363D01*
Y38480D01*
X121405D01*
Y38522D01*
X121448D01*
Y38692D01*
X121533D01*
Y38777D01*
X121618D01*
Y38862D01*
X121703D01*
Y39032D01*
X121787D01*
Y39116D01*
X121872D01*
Y39201D01*
X121957D01*
Y39244D01*
X122000D01*
Y39414D01*
X122084D01*
Y39498D01*
X122169D01*
Y39583D01*
X122254D01*
Y39753D01*
X122339D01*
Y39838D01*
X122424D01*
Y39923D01*
X122509D01*
Y40093D01*
X122551D01*
Y40135D01*
X122594D01*
Y40178D01*
X122636D01*
Y40220D01*
X122679D01*
Y40262D01*
X122721D01*
Y40305D01*
X122806D01*
Y40475D01*
X122891D01*
Y40560D01*
X122976D01*
Y40644D01*
X123061D01*
Y40814D01*
X123145D01*
Y40899D01*
X123188D01*
Y40941D01*
X123230D01*
Y40984D01*
X123273D01*
Y41026D01*
X123315D01*
Y41154D01*
X123358D01*
Y41196D01*
X123400D01*
Y41238D01*
X123442D01*
Y41281D01*
X123485D01*
Y41323D01*
X123527D01*
Y41366D01*
X123570D01*
Y41408D01*
X123612D01*
Y41536D01*
X123655D01*
Y41578D01*
X123697D01*
Y41620D01*
X123740D01*
Y41663D01*
X123782D01*
Y41705D01*
X123825D01*
Y41748D01*
X123867D01*
Y41875D01*
X123909D01*
Y41918D01*
X123952D01*
Y41960D01*
X123994D01*
Y42002D01*
X124037D01*
Y42087D01*
X124121D01*
Y42257D01*
X124206D01*
Y42342D01*
X124291D01*
Y42427D01*
X124376D01*
Y42512D01*
X124419D01*
Y42597D01*
X124461D01*
Y42639D01*
X124504D01*
Y42682D01*
X124546D01*
Y42724D01*
X124588D01*
Y42809D01*
X124673D01*
Y42979D01*
X124758D01*
Y43064D01*
X124843D01*
Y43148D01*
X124928D01*
Y43318D01*
X125013D01*
Y43403D01*
X125098D01*
Y43488D01*
X125182D01*
Y43658D01*
X125225D01*
Y43700D01*
X125310D01*
Y43785D01*
X125395D01*
Y43870D01*
X125480D01*
Y43955D01*
X125607D01*
Y43912D01*
X125649D01*
Y43615D01*
X125692D01*
Y43573D01*
X125734D01*
Y43318D01*
X125819D01*
Y42979D01*
X125904D01*
Y42639D01*
X125946D01*
Y42597D01*
X125989D01*
Y42342D01*
X126074D01*
Y42002D01*
X126159D01*
Y41663D01*
X126201D01*
Y41620D01*
X126244D01*
Y41281D01*
X126328D01*
Y40941D01*
X126371D01*
Y40899D01*
X126413D01*
Y40687D01*
X126456D01*
Y40644D01*
X126541D01*
Y40305D01*
X126583D01*
Y40262D01*
X126626D01*
Y39923D01*
X126710D01*
Y39583D01*
X126795D01*
Y39456D01*
X127007D01*
Y39583D01*
X127092D01*
Y39668D01*
X127177D01*
Y39753D01*
X127262D01*
Y39838D01*
X127347D01*
Y39923D01*
X127432D01*
Y40008D01*
X127602D01*
Y40093D01*
X127644D01*
Y40135D01*
X127687D01*
Y40178D01*
X127729D01*
Y40220D01*
X127814D01*
Y40305D01*
X127899D01*
Y40390D01*
X127984D01*
Y40475D01*
X128068D01*
Y40560D01*
X128153D01*
Y40644D01*
X128238D01*
Y40729D01*
X128323D01*
Y40814D01*
X128493D01*
Y40899D01*
X128578D01*
Y40941D01*
X128620D01*
Y41026D01*
X128705D01*
Y41111D01*
X128790D01*
Y41196D01*
X128875D01*
Y41281D01*
X128960D01*
Y41366D01*
X129045D01*
Y41451D01*
X129130D01*
Y41536D01*
X129299D01*
Y41620D01*
X129384D01*
Y41705D01*
X129469D01*
Y41748D01*
X129511D01*
Y41790D01*
X129554D01*
Y41833D01*
X129596D01*
Y41918D01*
X129681D01*
Y42002D01*
X129766D01*
Y42087D01*
X129851D01*
Y42172D01*
X129936D01*
Y42257D01*
X130021D01*
Y42342D01*
X130191D01*
Y42427D01*
X130275D01*
Y42469D01*
X130318D01*
Y42512D01*
X130360D01*
Y42554D01*
X130403D01*
Y42597D01*
X130445D01*
Y42639D01*
X130488D01*
Y42682D01*
X130530D01*
Y42724D01*
X130572D01*
Y42766D01*
X130615D01*
Y42809D01*
X130657D01*
Y42894D01*
X130742D01*
Y42979D01*
X130827D01*
Y43064D01*
X130912D01*
Y43021D01*
X130997D01*
Y43148D01*
X131082D01*
Y43191D01*
X131124D01*
Y43233D01*
X131167D01*
Y43276D01*
X131209D01*
Y43318D01*
X131252D01*
Y43360D01*
X131294D01*
Y43403D01*
X131336D01*
Y43445D01*
X131379D01*
Y43488D01*
X131421D01*
Y43530D01*
X131464D01*
Y43573D01*
X131506D01*
Y43615D01*
X131549D01*
Y43658D01*
X131591D01*
Y43700D01*
X131633D01*
Y43742D01*
X131676D01*
Y43785D01*
X131718D01*
Y43827D01*
X131761D01*
Y43870D01*
X131803D01*
Y43827D01*
X131888D01*
Y43912D01*
X131930D01*
Y43955D01*
X131973D01*
Y43997D01*
X132015D01*
Y44040D01*
X132100D01*
Y44124D01*
X132185D01*
Y44209D01*
X132270D01*
Y44294D01*
X132313D01*
Y44337D01*
X132355D01*
Y44379D01*
X132397D01*
Y44421D01*
X132440D01*
Y44464D01*
X132482D01*
Y44506D01*
X132525D01*
Y44549D01*
X132567D01*
Y44591D01*
X132610D01*
Y44634D01*
X132652D01*
Y44676D01*
X132694D01*
Y44634D01*
X132779D01*
Y44676D01*
X132822D01*
Y44761D01*
X132907D01*
Y44846D01*
X132992D01*
Y44931D01*
X133076D01*
Y45016D01*
X133161D01*
Y45101D01*
X133246D01*
Y45186D01*
X133289D01*
Y45228D01*
X133331D01*
Y45270D01*
X133501D01*
Y45355D01*
X133543D01*
Y45398D01*
X133586D01*
Y45440D01*
X133628D01*
Y45483D01*
X133713D01*
Y45567D01*
X133798D01*
Y45652D01*
X133883D01*
Y45737D01*
X133968D01*
Y45822D01*
X134053D01*
Y45907D01*
X134137D01*
Y45992D01*
X134222D01*
Y46077D01*
X134265D01*
Y46119D01*
X134307D01*
Y46162D01*
X134519D01*
Y46289D01*
X134604D01*
Y46374D01*
X134689D01*
Y46459D01*
X134774D01*
Y46543D01*
X134859D01*
Y46628D01*
X134944D01*
Y46713D01*
X135029D01*
Y46798D01*
X135198D01*
Y46628D01*
D02*
G37*
G36*
X134137Y41705D02*
X134222D01*
Y41536D01*
X134307D01*
Y41281D01*
X134392D01*
Y40941D01*
X134434D01*
Y40899D01*
X134477D01*
Y40475D01*
X134562D01*
Y40050D01*
X134604D01*
Y40008D01*
X134647D01*
Y39498D01*
X134732D01*
Y37589D01*
X134647D01*
Y36952D01*
X134562D01*
Y36528D01*
X134519D01*
Y36485D01*
X134477D01*
Y36061D01*
X134392D01*
Y35806D01*
X134307D01*
Y35552D01*
X134265D01*
Y35509D01*
X134222D01*
Y35297D01*
X134180D01*
Y35254D01*
X134137D01*
Y35000D01*
X134053D01*
Y34830D01*
X133968D01*
Y34788D01*
X133925D01*
Y34618D01*
X133840D01*
Y34363D01*
X133756D01*
Y34194D01*
X133671D01*
Y34024D01*
X133586D01*
Y33939D01*
X133501D01*
Y33769D01*
X133458D01*
Y33727D01*
X133416D01*
Y33557D01*
X133331D01*
Y33387D01*
X133246D01*
Y33302D01*
X133161D01*
Y33217D01*
X133119D01*
Y33132D01*
X133076D01*
Y33090D01*
X133034D01*
Y33048D01*
X132992D01*
Y33005D01*
X132949D01*
Y32835D01*
X132864D01*
Y32750D01*
X132779D01*
Y32666D01*
X132694D01*
Y32581D01*
X132610D01*
Y32411D01*
X132525D01*
Y32326D01*
X132440D01*
Y32241D01*
X132355D01*
Y32156D01*
X132270D01*
Y32114D01*
X132228D01*
Y32029D01*
X132143D01*
Y31944D01*
X132058D01*
Y31859D01*
X131973D01*
Y31774D01*
X131888D01*
Y31690D01*
X131803D01*
Y31605D01*
X131718D01*
Y31520D01*
X131633D01*
Y31435D01*
X131549D01*
Y31350D01*
X131464D01*
Y31308D01*
X131421D01*
Y31265D01*
X131379D01*
Y31223D01*
X131336D01*
Y31138D01*
X131252D01*
Y31095D01*
X131082D01*
Y30968D01*
X130997D01*
Y30883D01*
X130912D01*
Y30798D01*
X130742D01*
Y30713D01*
X130657D01*
Y30628D01*
X130572D01*
Y30586D01*
X130530D01*
Y30544D01*
X130360D01*
Y30459D01*
X130191D01*
Y30374D01*
X130148D01*
Y30331D01*
X130106D01*
Y30289D01*
X129936D01*
Y30204D01*
X129766D01*
Y30162D01*
X129724D01*
Y30077D01*
X129681D01*
Y30119D01*
X129554D01*
Y29992D01*
X129469D01*
Y29907D01*
X129299D01*
Y29822D01*
X129045D01*
Y29737D01*
X128832D01*
Y29652D01*
X128578D01*
Y29568D01*
X128408D01*
Y29483D01*
X128153D01*
Y29398D01*
X127856D01*
Y29270D01*
X127814D01*
Y29313D01*
X127517D01*
Y29186D01*
X127432D01*
Y29228D01*
X127177D01*
Y29186D01*
X127135D01*
Y29101D01*
X127050D01*
Y29143D01*
X126668D01*
Y29101D01*
X126626D01*
Y29016D01*
X126074D01*
Y28888D01*
X124291D01*
Y29016D01*
X123782D01*
Y29101D01*
X123697D01*
Y29143D01*
X123358D01*
Y29101D01*
X123230D01*
Y29228D01*
X122933D01*
Y29186D01*
X122891D01*
Y29313D01*
X122594D01*
Y29270D01*
X122551D01*
Y29313D01*
X122509D01*
Y29398D01*
X122254D01*
Y29483D01*
X122000D01*
Y29568D01*
X121787D01*
Y29652D01*
X121533D01*
Y29737D01*
X121363D01*
Y29822D01*
X121193D01*
Y29907D01*
X120896D01*
Y29992D01*
X120811D01*
Y30119D01*
X120726D01*
Y30077D01*
X120642D01*
Y30204D01*
X120472D01*
Y30289D01*
X120302D01*
Y30374D01*
X120090D01*
Y30416D01*
X120047D01*
Y30459D01*
X120005D01*
Y30544D01*
X119835D01*
Y30628D01*
X119750D01*
Y30713D01*
X119665D01*
Y30798D01*
X119623D01*
Y30841D01*
X119580D01*
Y30798D01*
X119496D01*
Y30883D01*
X119411D01*
Y30926D01*
X119368D01*
Y30968D01*
X119326D01*
Y31010D01*
X119283D01*
Y31095D01*
X119114D01*
Y31180D01*
X119199D01*
Y31265D01*
X119283D01*
Y31350D01*
X119368D01*
Y31265D01*
X119453D01*
Y31138D01*
X119538D01*
Y31180D01*
X119623D01*
Y31095D01*
X119708D01*
Y31053D01*
X119750D01*
Y31010D01*
X119793D01*
Y30968D01*
X119835D01*
Y30883D01*
X120005D01*
Y30841D01*
X120047D01*
Y30798D01*
X120090D01*
Y30713D01*
X120259D01*
Y30671D01*
X120302D01*
Y30628D01*
X120344D01*
Y30544D01*
X120514D01*
Y30459D01*
X120726D01*
Y30374D01*
X120896D01*
Y30246D01*
X120981D01*
Y30289D01*
X121066D01*
Y30162D01*
X121193D01*
Y30204D01*
X121236D01*
Y30077D01*
X121405D01*
Y30034D01*
X121448D01*
Y29992D01*
X121618D01*
Y29907D01*
X121872D01*
Y29822D01*
X122127D01*
Y29737D01*
X122339D01*
Y29652D01*
X122679D01*
Y29568D01*
X123018D01*
Y29483D01*
X123061D01*
Y29440D01*
X123400D01*
Y29483D01*
X123485D01*
Y29355D01*
X123952D01*
Y29398D01*
X123994D01*
Y29355D01*
X124037D01*
Y29270D01*
X126456D01*
Y29398D01*
X126498D01*
Y29355D01*
X126880D01*
Y29398D01*
X126923D01*
Y29483D01*
X127007D01*
Y29440D01*
X127347D01*
Y29568D01*
X127814D01*
Y29652D01*
X128068D01*
Y29737D01*
X128238D01*
Y29822D01*
X128493D01*
Y29907D01*
X128790D01*
Y29992D01*
X128960D01*
Y30077D01*
X129130D01*
Y30162D01*
X129299D01*
Y30246D01*
X129342D01*
Y30289D01*
X129384D01*
Y30246D01*
X129469D01*
Y30289D01*
X129511D01*
Y30374D01*
X129596D01*
Y30331D01*
X129639D01*
Y30374D01*
X129681D01*
Y30459D01*
X129851D01*
Y30544D01*
X130021D01*
Y30628D01*
X130106D01*
Y30713D01*
X130318D01*
Y30841D01*
X130403D01*
Y30883D01*
X130572D01*
Y31010D01*
X130657D01*
Y31095D01*
X130742D01*
Y31180D01*
X130827D01*
Y31138D01*
X130912D01*
Y31265D01*
X130997D01*
Y31350D01*
X131082D01*
Y31392D01*
X131124D01*
Y31435D01*
X131167D01*
Y31477D01*
X131209D01*
Y31520D01*
X131379D01*
Y31605D01*
X131421D01*
Y31647D01*
X131464D01*
Y31690D01*
X131506D01*
Y31732D01*
X131549D01*
Y31774D01*
X131591D01*
Y31817D01*
X131633D01*
Y31902D01*
X131718D01*
Y31987D01*
X131803D01*
Y32071D01*
X131888D01*
Y32156D01*
X131973D01*
Y32199D01*
X132015D01*
Y32241D01*
X132058D01*
Y32284D01*
X132100D01*
Y32326D01*
X132143D01*
Y32368D01*
X132185D01*
Y32496D01*
X132228D01*
Y32538D01*
X132270D01*
Y32581D01*
X132313D01*
Y32623D01*
X132355D01*
Y32708D01*
X132440D01*
Y32793D01*
X132525D01*
Y32878D01*
X132610D01*
Y33048D01*
X132694D01*
Y33132D01*
X132779D01*
Y33175D01*
X132822D01*
Y33302D01*
X132864D01*
Y33345D01*
X132907D01*
Y33430D01*
X132992D01*
Y33599D01*
X133076D01*
Y33684D01*
X133161D01*
Y33854D01*
X133246D01*
Y34024D01*
X133331D01*
Y34194D01*
X133373D01*
Y34236D01*
X133416D01*
Y34278D01*
X133458D01*
Y34321D01*
X133501D01*
Y34575D01*
X133586D01*
Y34618D01*
X133628D01*
Y34745D01*
X133671D01*
Y34788D01*
X133713D01*
Y34915D01*
X133756D01*
Y34957D01*
X133798D01*
Y35212D01*
X133883D01*
Y35382D01*
X133968D01*
Y35636D01*
X134053D01*
Y35976D01*
X134095D01*
Y36018D01*
X134137D01*
Y36273D01*
X134222D01*
Y36697D01*
X134265D01*
Y36740D01*
X134307D01*
Y37249D01*
X134392D01*
Y39711D01*
X134350D01*
Y39753D01*
X134307D01*
Y40262D01*
X134222D01*
Y40729D01*
X134137D01*
Y41069D01*
X134053D01*
Y41323D01*
X134010D01*
Y41366D01*
X133968D01*
Y41578D01*
X133925D01*
Y41620D01*
X133883D01*
Y41790D01*
X133925D01*
Y41833D01*
X133968D01*
Y41875D01*
X134137D01*
Y41705D01*
D02*
G37*
G36*
X13780Y38189D02*
X13448D01*
X13197Y39376D01*
X11887D01*
X12134Y38189D01*
X11803D01*
X11275Y40708D01*
X11610D01*
X11829Y39660D01*
X13139D01*
X12921Y40708D01*
X13252D01*
X13780Y38189D01*
D02*
G37*
G36*
X8880Y38946D02*
X7930D01*
X7868Y39255D01*
X8815D01*
X8880Y38946D01*
D02*
G37*
G36*
X10474Y38189D02*
X10110D01*
X8727Y40708D01*
X9077D01*
X9972Y39055D01*
X10012Y38979D01*
X10056Y38895D01*
X10099Y38811D01*
X10140Y38731D01*
X10180Y38658D01*
X10194Y38626D01*
X10209Y38600D01*
X10220Y38575D01*
X10227Y38560D01*
X10231Y38549D01*
X10234Y38546D01*
X10241Y38593D01*
X10249Y38648D01*
X10263Y38753D01*
X10282Y38866D01*
X10296Y38968D01*
X10307Y39019D01*
X10314Y39063D01*
X10322Y39103D01*
X10329Y39135D01*
X10332Y39165D01*
X10336Y39186D01*
X10340Y39201D01*
Y39204D01*
X10631Y40708D01*
X10955D01*
X10474Y38189D01*
D02*
G37*
G36*
X224763Y78969D02*
X225448D01*
Y78682D01*
X224763D01*
Y77990D01*
X224472D01*
Y78682D01*
X223788D01*
Y78969D01*
X224472D01*
Y79654D01*
X224763D01*
Y78969D01*
D02*
G37*
G36*
X227195Y77583D02*
X226831D01*
X225448Y80101D01*
X225797D01*
X226693Y78449D01*
X226733Y78372D01*
X226776Y78289D01*
X226820Y78205D01*
X226860Y78125D01*
X226900Y78052D01*
X226915Y78019D01*
X226929Y77994D01*
X226940Y77968D01*
X226947Y77954D01*
X226951Y77943D01*
X226955Y77939D01*
X226962Y77987D01*
X226969Y78041D01*
X226984Y78147D01*
X227002Y78260D01*
X227016Y78361D01*
X227027Y78412D01*
X227035Y78456D01*
X227042Y78496D01*
X227049Y78529D01*
X227053Y78558D01*
X227057Y78580D01*
X227060Y78594D01*
Y78598D01*
X227351Y80101D01*
X227675D01*
X227195Y77583D01*
D02*
G37*
G36*
X229921D02*
X228287D01*
X228225Y77867D01*
X229528D01*
X229062Y80101D01*
X229393D01*
X229921Y77583D01*
D02*
G37*
G36*
X220752Y34486D02*
X220442Y34420D01*
Y35370D01*
X220752Y35432D01*
Y34486D01*
D02*
G37*
G36*
X221268Y34217D02*
X221352Y34209D01*
X221432Y34195D01*
X221498Y34184D01*
X221556Y34169D01*
X221578Y34162D01*
X221596Y34155D01*
X221611Y34151D01*
X221621Y34148D01*
X221629Y34144D01*
X221632D01*
X221705Y34115D01*
X221771Y34078D01*
X221829Y34042D01*
X221880Y34009D01*
X221916Y33976D01*
X221946Y33951D01*
X221964Y33933D01*
X221971Y33925D01*
X222018Y33867D01*
X222058Y33809D01*
X222095Y33751D01*
X222120Y33696D01*
X222138Y33645D01*
X222153Y33609D01*
X222157Y33594D01*
X222160Y33583D01*
X222164Y33576D01*
Y33572D01*
X222178Y33514D01*
X222186Y33449D01*
X222193Y33379D01*
X222200Y33310D01*
Y33252D01*
X222204Y33226D01*
Y32397D01*
X219685Y31872D01*
Y32866D01*
X219692Y32946D01*
X219696Y33015D01*
X219703Y33077D01*
X219710Y33125D01*
X219714Y33161D01*
X219718Y33172D01*
X219721Y33183D01*
Y33190D01*
X219743Y33270D01*
X219769Y33343D01*
X219798Y33408D01*
X219823Y33463D01*
X219845Y33511D01*
X219863Y33543D01*
X219878Y33565D01*
X219882Y33572D01*
X219925Y33634D01*
X219976Y33689D01*
X220024Y33743D01*
X220071Y33791D01*
X220115Y33831D01*
X220147Y33860D01*
X220162Y33871D01*
X220173Y33878D01*
X220176Y33885D01*
X220180D01*
X220253Y33940D01*
X220329Y33987D01*
X220402Y34027D01*
X220471Y34060D01*
X220530Y34089D01*
X220555Y34100D01*
X220577Y34107D01*
X220591Y34115D01*
X220606Y34122D01*
X220613Y34126D01*
X220617D01*
X220711Y34158D01*
X220810Y34180D01*
X220904Y34198D01*
X220988Y34209D01*
X221028Y34213D01*
X221065Y34217D01*
X221094D01*
X221123Y34220D01*
X221145D01*
X221159D01*
X221170D01*
X221174D01*
X221268Y34217D01*
D02*
G37*
G36*
X222204Y30045D02*
X219685Y29517D01*
Y31447D01*
X219969Y31508D01*
Y29910D01*
X220846Y30092D01*
Y31559D01*
X221130Y31621D01*
Y30154D01*
X221920Y30318D01*
Y31814D01*
X222204Y31876D01*
Y30045D01*
D02*
G37*
G36*
X219969Y27952D02*
X222204Y28418D01*
Y28087D01*
X219685Y27559D01*
Y29193D01*
X219969Y29255D01*
Y27952D01*
D02*
G37*
G36*
X210836Y35155D02*
X211520D01*
Y34864D01*
X210836D01*
Y34180D01*
X210548D01*
Y34864D01*
X209857D01*
Y35155D01*
X210548D01*
Y35840D01*
X210836D01*
Y35155D01*
D02*
G37*
G36*
X211032Y33823D02*
X211116Y33816D01*
X211196Y33801D01*
X211262Y33790D01*
X211320Y33776D01*
X211342Y33768D01*
X211360Y33761D01*
X211374Y33757D01*
X211385Y33754D01*
X211393Y33750D01*
X211396D01*
X211469Y33721D01*
X211535Y33685D01*
X211593Y33648D01*
X211644Y33615D01*
X211680Y33583D01*
X211709Y33557D01*
X211727Y33539D01*
X211735Y33532D01*
X211782Y33474D01*
X211822Y33415D01*
X211859Y33357D01*
X211884Y33302D01*
X211902Y33251D01*
X211917Y33215D01*
X211920Y33200D01*
X211924Y33190D01*
X211928Y33182D01*
Y33179D01*
X211942Y33120D01*
X211949Y33055D01*
X211957Y32986D01*
X211964Y32917D01*
Y32858D01*
X211968Y32833D01*
Y32003D01*
X209449Y31479D01*
Y32473D01*
X209456Y32553D01*
X209460Y32622D01*
X209467Y32684D01*
X209474Y32731D01*
X209478Y32767D01*
X209482Y32778D01*
X209485Y32789D01*
Y32796D01*
X209507Y32877D01*
X209532Y32949D01*
X209562Y33015D01*
X209587Y33069D01*
X209609Y33117D01*
X209627Y33149D01*
X209642Y33171D01*
X209645Y33179D01*
X209689Y33241D01*
X209740Y33295D01*
X209787Y33350D01*
X209835Y33397D01*
X209878Y33437D01*
X209911Y33466D01*
X209926Y33477D01*
X209937Y33484D01*
X209940Y33492D01*
X209944D01*
X210017Y33546D01*
X210093Y33594D01*
X210166Y33634D01*
X210235Y33666D01*
X210293Y33696D01*
X210319Y33706D01*
X210341Y33714D01*
X210355Y33721D01*
X210370Y33728D01*
X210377Y33732D01*
X210381D01*
X210475Y33765D01*
X210574Y33786D01*
X210668Y33805D01*
X210752Y33816D01*
X210792Y33819D01*
X210828Y33823D01*
X210858D01*
X210887Y33827D01*
X210909D01*
X210923D01*
X210934D01*
X210938D01*
X211032Y33823D01*
D02*
G37*
G36*
X211968Y29651D02*
X209449Y29124D01*
Y31053D01*
X209733Y31115D01*
Y29517D01*
X210610Y29699D01*
Y31166D01*
X210894Y31228D01*
Y29761D01*
X211684Y29924D01*
Y31420D01*
X211968Y31482D01*
Y29651D01*
D02*
G37*
G36*
X209733Y27558D02*
X211968Y28024D01*
Y27693D01*
X209449Y27165D01*
Y28800D01*
X209733Y28862D01*
Y27558D01*
D02*
G37*
G36*
X190282Y115484D02*
X189298D01*
X188337Y120086D01*
X188260Y120479D01*
X188183Y120840D01*
X188129Y121157D01*
X188107Y121310D01*
X188085Y121441D01*
X188063Y121572D01*
X188052Y121682D01*
X188041Y121769D01*
X188030Y121846D01*
X188020Y121911D01*
X188009Y121966D01*
Y121988D01*
Y121999D01*
X187877Y121627D01*
X187746Y121245D01*
X187615Y120884D01*
X187549Y120720D01*
X187484Y120556D01*
X187429Y120414D01*
X187375Y120272D01*
X187320Y120151D01*
X187276Y120053D01*
X187243Y119966D01*
X187222Y119911D01*
X187200Y119867D01*
Y119856D01*
X185363Y115484D01*
X184358D01*
X182773Y123048D01*
X183768D01*
X184686Y118599D01*
X184762Y118228D01*
X184839Y117867D01*
X184894Y117528D01*
X184926Y117375D01*
X184948Y117233D01*
X184970Y117102D01*
X184992Y116982D01*
X185003Y116883D01*
X185025Y116796D01*
X185036Y116730D01*
Y116676D01*
X185047Y116643D01*
Y116632D01*
X185134Y116938D01*
X185221Y117222D01*
X185298Y117452D01*
X185363Y117659D01*
X185418Y117813D01*
X185440Y117878D01*
X185462Y117922D01*
X185473Y117965D01*
X185484Y117998D01*
X185495Y118009D01*
Y118020D01*
X185626Y118370D01*
X185779Y118731D01*
X185921Y119102D01*
X186074Y119441D01*
X186140Y119605D01*
X186205Y119747D01*
X186260Y119878D01*
X186303Y119987D01*
X186347Y120086D01*
X186380Y120151D01*
X186391Y120195D01*
X186402Y120206D01*
X187648Y123048D01*
X188697D01*
X190282Y115484D01*
D02*
G37*
G36*
X209136D02*
X208043D01*
X203890Y123048D01*
X204939D01*
X207628Y118086D01*
X207748Y117856D01*
X207879Y117605D01*
X208011Y117353D01*
X208131Y117113D01*
X208251Y116894D01*
X208295Y116796D01*
X208338Y116719D01*
X208371Y116643D01*
X208393Y116599D01*
X208404Y116567D01*
X208415Y116556D01*
X208437Y116698D01*
X208459Y116862D01*
X208502Y117178D01*
X208557Y117517D01*
X208601Y117823D01*
X208633Y117976D01*
X208655Y118108D01*
X208677Y118228D01*
X208699Y118326D01*
X208710Y118414D01*
X208721Y118479D01*
X208732Y118523D01*
Y118534D01*
X209606Y123048D01*
X210579D01*
X209136Y115484D01*
D02*
G37*
G36*
X193987Y123168D02*
X194195Y123157D01*
X194578Y123092D01*
X194752Y123059D01*
X194916Y123015D01*
X195080Y122960D01*
X195222Y122917D01*
X195353Y122862D01*
X195474Y122818D01*
X195572Y122764D01*
X195660Y122731D01*
X195736Y122698D01*
X195780Y122665D01*
X195813Y122654D01*
X195824Y122643D01*
X195987Y122534D01*
X196151Y122414D01*
X196447Y122163D01*
X196698Y121878D01*
X196916Y121616D01*
X197015Y121485D01*
X197091Y121365D01*
X197168Y121255D01*
X197223Y121168D01*
X197266Y121091D01*
X197299Y121037D01*
X197321Y120993D01*
X197332Y120982D01*
X197441Y120774D01*
X197529Y120556D01*
X197605Y120337D01*
X197682Y120130D01*
X197791Y119714D01*
X197824Y119518D01*
X197856Y119332D01*
X197878Y119157D01*
X197900Y119004D01*
X197911Y118862D01*
X197922Y118742D01*
X197933Y118643D01*
Y118578D01*
Y118523D01*
Y118512D01*
X197922Y118272D01*
X197900Y118042D01*
X197867Y117823D01*
X197824Y117616D01*
X197780Y117419D01*
X197714Y117244D01*
X197660Y117080D01*
X197594Y116938D01*
X197529Y116796D01*
X197474Y116687D01*
X197408Y116588D01*
X197365Y116501D01*
X197321Y116435D01*
X197288Y116392D01*
X197266Y116359D01*
X197255Y116348D01*
X197091Y116173D01*
X196916Y116020D01*
X196720Y115889D01*
X196523Y115769D01*
X196315Y115681D01*
X196119Y115594D01*
X195911Y115528D01*
X195714Y115473D01*
X195528Y115441D01*
X195353Y115408D01*
X195190Y115386D01*
X195058Y115364D01*
X194938D01*
X194862Y115353D01*
X194785D01*
X194490Y115364D01*
X194217Y115386D01*
X193944Y115430D01*
X193703Y115473D01*
X193605Y115495D01*
X193506Y115517D01*
X193419Y115539D01*
X193342Y115561D01*
X193288Y115572D01*
X193244Y115583D01*
X193222Y115594D01*
X193211D01*
X192916Y115692D01*
X192654Y115801D01*
X192413Y115900D01*
X192206Y116009D01*
X192031Y116096D01*
X191954Y116129D01*
X191900Y116162D01*
X191856Y116195D01*
X191823Y116206D01*
X191801Y116228D01*
X191790D01*
X191135Y119321D01*
X194457D01*
X194632Y118468D01*
X192326D01*
X192665Y116829D01*
X192872Y116719D01*
X193080Y116621D01*
X193288Y116534D01*
X193474Y116457D01*
X193659Y116392D01*
X193834Y116337D01*
X193998Y116304D01*
X194151Y116260D01*
X194293Y116239D01*
X194424Y116217D01*
X194534Y116206D01*
X194621Y116195D01*
X194698Y116184D01*
X194796D01*
X194971Y116195D01*
X195146Y116206D01*
X195452Y116271D01*
X195594Y116315D01*
X195714Y116370D01*
X195834Y116424D01*
X195944Y116479D01*
X196031Y116523D01*
X196119Y116577D01*
X196184Y116632D01*
X196239Y116676D01*
X196293Y116709D01*
X196326Y116741D01*
X196337Y116752D01*
X196348Y116763D01*
X196447Y116883D01*
X196534Y117004D01*
X196610Y117146D01*
X196665Y117288D01*
X196774Y117572D01*
X196840Y117845D01*
X196862Y117976D01*
X196873Y118097D01*
X196884Y118206D01*
X196895Y118304D01*
X196906Y118381D01*
Y118436D01*
Y118479D01*
Y118490D01*
X196884Y118905D01*
X196840Y119299D01*
X196807Y119474D01*
X196774Y119649D01*
X196731Y119802D01*
X196687Y119944D01*
X196654Y120075D01*
X196610Y120195D01*
X196578Y120305D01*
X196545Y120381D01*
X196523Y120457D01*
X196501Y120501D01*
X196479Y120534D01*
Y120545D01*
X196304Y120862D01*
X196119Y121135D01*
X195933Y121376D01*
X195747Y121562D01*
X195594Y121714D01*
X195463Y121813D01*
X195408Y121857D01*
X195375Y121878D01*
X195353Y121900D01*
X195343D01*
X195069Y122053D01*
X194807Y122163D01*
X194545Y122239D01*
X194315Y122294D01*
X194206Y122316D01*
X194107Y122327D01*
X194020Y122337D01*
X193955D01*
X193889Y122348D01*
X193812D01*
X193528Y122327D01*
X193277Y122283D01*
X193047Y122217D01*
X192861Y122141D01*
X192709Y122053D01*
X192599Y121988D01*
X192566Y121966D01*
X192534Y121944D01*
X192523Y121922D01*
X192512D01*
X192337Y121747D01*
X192195Y121562D01*
X192086Y121365D01*
X191998Y121168D01*
X191932Y120993D01*
X191911Y120917D01*
X191889Y120851D01*
X191878Y120796D01*
X191867Y120753D01*
X191856Y120731D01*
Y120720D01*
X190872Y120840D01*
X190938Y121113D01*
X191003Y121365D01*
X191091Y121583D01*
X191167Y121758D01*
X191244Y121900D01*
X191309Y122010D01*
X191353Y122075D01*
X191364Y122097D01*
X191506Y122272D01*
X191659Y122425D01*
X191823Y122567D01*
X191987Y122676D01*
X192129Y122764D01*
X192238Y122829D01*
X192282Y122851D01*
X192315Y122873D01*
X192337Y122884D01*
X192348D01*
X192588Y122982D01*
X192840Y123059D01*
X193080Y123103D01*
X193299Y123146D01*
X193495Y123168D01*
X193572D01*
X193649Y123179D01*
X193780D01*
X193987Y123168D01*
D02*
G37*
G36*
X217323Y115484D02*
X212415D01*
X212229Y116337D01*
X216142D01*
X214743Y123048D01*
X215738D01*
X217323Y115484D01*
D02*
G37*
G36*
X182642Y115484D02*
X179658D01*
X179418Y115506D01*
X179210Y115517D01*
X179024Y115539D01*
X178882Y115561D01*
X178773Y115572D01*
X178740Y115583D01*
X178707Y115594D01*
X178685D01*
X178445Y115659D01*
X178226Y115736D01*
X178030Y115823D01*
X177866Y115900D01*
X177723Y115965D01*
X177625Y116020D01*
X177559Y116064D01*
X177538Y116075D01*
X177352Y116206D01*
X177188Y116359D01*
X177024Y116501D01*
X176882Y116643D01*
X176762Y116774D01*
X176674Y116873D01*
X176641Y116916D01*
X176620Y116949D01*
X176598Y116960D01*
Y116971D01*
X176434Y117190D01*
X176292Y117419D01*
X176171Y117638D01*
X176073Y117845D01*
X175986Y118020D01*
X175953Y118097D01*
X175931Y118162D01*
X175909Y118206D01*
X175887Y118250D01*
X175876Y118272D01*
Y118282D01*
X175778Y118567D01*
X175712Y118862D01*
X175658Y119146D01*
X175625Y119397D01*
X175614Y119518D01*
X175603Y119627D01*
Y119714D01*
X175592Y119802D01*
Y119867D01*
Y119911D01*
Y119944D01*
Y119955D01*
X175603Y120239D01*
X175625Y120490D01*
X175669Y120731D01*
X175701Y120928D01*
X175745Y121102D01*
X175767Y121168D01*
X175789Y121223D01*
X175800Y121266D01*
X175811Y121299D01*
X175822Y121321D01*
Y121332D01*
X175909Y121551D01*
X176018Y121747D01*
X176128Y121922D01*
X176226Y122075D01*
X176324Y122185D01*
X176401Y122272D01*
X176456Y122327D01*
X176477Y122348D01*
X176652Y122491D01*
X176827Y122611D01*
X177002Y122720D01*
X177166Y122797D01*
X177319Y122851D01*
X177428Y122895D01*
X177472Y122906D01*
X177505Y122917D01*
X177527Y122928D01*
X177538D01*
X177713Y122971D01*
X177909Y122993D01*
X178117Y123015D01*
X178325Y123037D01*
X178499D01*
X178576Y123048D01*
X181068D01*
X182642Y115484D01*
D02*
G37*
G36*
X205507Y113386D02*
X199354D01*
Y114053D01*
X205507D01*
Y113386D01*
D02*
G37*
G36*
X225601Y89035D02*
X224651D01*
X224589Y89344D01*
X225535D01*
X225601Y89035D01*
D02*
G37*
G36*
X227195Y88278D02*
X226831D01*
X225448Y90796D01*
X225797D01*
X226693Y89144D01*
X226733Y89067D01*
X226776Y88984D01*
X226820Y88900D01*
X226860Y88820D01*
X226900Y88747D01*
X226915Y88714D01*
X226929Y88689D01*
X226940Y88663D01*
X226947Y88649D01*
X226951Y88638D01*
X226955Y88634D01*
X226962Y88682D01*
X226969Y88736D01*
X226984Y88842D01*
X227002Y88955D01*
X227016Y89056D01*
X227027Y89107D01*
X227035Y89151D01*
X227042Y89191D01*
X227049Y89224D01*
X227053Y89253D01*
X227057Y89275D01*
X227060Y89289D01*
Y89293D01*
X227351Y90796D01*
X227675D01*
X227195Y88278D01*
D02*
G37*
G36*
X229921D02*
X228287D01*
X228225Y88561D01*
X229528D01*
X229062Y90796D01*
X229393D01*
X229921Y88278D01*
D02*
G37*
G36*
X232984Y50437D02*
X232620D01*
X231237Y52956D01*
X231586D01*
X232482Y51304D01*
X232522Y51227D01*
X232565Y51143D01*
X232609Y51060D01*
X232649Y50980D01*
X232689Y50907D01*
X232704Y50874D01*
X232718Y50849D01*
X232729Y50823D01*
X232737Y50809D01*
X232740Y50798D01*
X232744Y50794D01*
X232751Y50841D01*
X232758Y50896D01*
X232773Y51002D01*
X232791Y51114D01*
X232806Y51216D01*
X232817Y51267D01*
X232824Y51311D01*
X232831Y51351D01*
X232839Y51384D01*
X232842Y51413D01*
X232846Y51435D01*
X232849Y51449D01*
Y51453D01*
X233141Y52956D01*
X233465D01*
X232984Y50437D01*
D02*
G37*
G36*
X230017Y52996D02*
X230112Y52982D01*
X230203Y52964D01*
X230291Y52938D01*
X230371Y52909D01*
X230443Y52873D01*
X230512Y52836D01*
X230574Y52800D01*
X230633Y52763D01*
X230680Y52727D01*
X230724Y52694D01*
X230760Y52661D01*
X230789Y52636D01*
X230807Y52618D01*
X230822Y52603D01*
X230826Y52600D01*
X230898Y52512D01*
X230960Y52425D01*
X231015Y52330D01*
X231062Y52236D01*
X231102Y52141D01*
X231135Y52050D01*
X231160Y51959D01*
X231182Y51872D01*
X231201Y51788D01*
X231211Y51715D01*
X231222Y51646D01*
X231226Y51588D01*
X231230Y51540D01*
X231233Y51504D01*
Y51493D01*
Y51482D01*
Y51478D01*
Y51475D01*
X231230Y51380D01*
X231222Y51289D01*
X231208Y51205D01*
X231190Y51129D01*
X231171Y51056D01*
X231150Y50991D01*
X231124Y50929D01*
X231099Y50878D01*
X231073Y50827D01*
X231048Y50787D01*
X231026Y50750D01*
X231008Y50721D01*
X230989Y50700D01*
X230975Y50685D01*
X230967Y50674D01*
X230964Y50670D01*
X230913Y50623D01*
X230855Y50579D01*
X230797Y50543D01*
X230735Y50510D01*
X230676Y50485D01*
X230614Y50463D01*
X230556Y50445D01*
X230498Y50430D01*
X230443Y50415D01*
X230396Y50408D01*
X230349Y50401D01*
X230312Y50397D01*
X230280D01*
X230258Y50394D01*
X230236D01*
X230167Y50397D01*
X230098Y50405D01*
X230036Y50415D01*
X229970Y50430D01*
X229912Y50445D01*
X229857Y50463D01*
X229806Y50485D01*
X229755Y50507D01*
X229712Y50525D01*
X229675Y50547D01*
X229639Y50565D01*
X229613Y50583D01*
X229588Y50594D01*
X229573Y50605D01*
X229562Y50612D01*
X229559Y50616D01*
X229504Y50659D01*
X229450Y50707D01*
X229359Y50812D01*
X229279Y50921D01*
X229209Y51031D01*
X229184Y51082D01*
X229158Y51129D01*
X229140Y51169D01*
X229122Y51205D01*
X229111Y51235D01*
X229100Y51260D01*
X229093Y51275D01*
Y51278D01*
X229428Y51326D01*
X229468Y51216D01*
X229519Y51118D01*
X229570Y51034D01*
X229595Y50998D01*
X229621Y50965D01*
X229643Y50936D01*
X229664Y50911D01*
X229686Y50892D01*
X229701Y50874D01*
X229715Y50860D01*
X229726Y50849D01*
X229734Y50845D01*
X229737Y50841D01*
X229777Y50812D01*
X229817Y50787D01*
X229901Y50743D01*
X229981Y50714D01*
X230054Y50692D01*
X230116Y50681D01*
X230141Y50674D01*
X230167D01*
X230185Y50670D01*
X230210D01*
X230265Y50674D01*
X230320Y50678D01*
X230418Y50703D01*
X230502Y50736D01*
X230574Y50772D01*
X230604Y50791D01*
X230633Y50809D01*
X230655Y50827D01*
X230673Y50841D01*
X230691Y50856D01*
X230702Y50867D01*
X230705Y50871D01*
X230709Y50874D01*
X230742Y50914D01*
X230771Y50958D01*
X230797Y51005D01*
X230818Y51052D01*
X230851Y51151D01*
X230873Y51249D01*
X230884Y51293D01*
X230887Y51333D01*
X230891Y51373D01*
X230895Y51402D01*
X230898Y51431D01*
Y51449D01*
Y51464D01*
Y51468D01*
X230895Y51559D01*
X230887Y51642D01*
X230876Y51726D01*
X230858Y51806D01*
X230840Y51879D01*
X230822Y51948D01*
X230800Y52013D01*
X230775Y52072D01*
X230753Y52123D01*
X230731Y52170D01*
X230713Y52210D01*
X230691Y52246D01*
X230676Y52272D01*
X230665Y52294D01*
X230658Y52305D01*
X230655Y52308D01*
X230600Y52381D01*
X230538Y52447D01*
X230480Y52501D01*
X230414Y52549D01*
X230352Y52589D01*
X230291Y52621D01*
X230229Y52650D01*
X230170Y52672D01*
X230116Y52687D01*
X230065Y52701D01*
X230021Y52712D01*
X229981Y52716D01*
X229948Y52720D01*
X229926Y52723D01*
X229905D01*
X229817Y52716D01*
X229737Y52701D01*
X229668Y52680D01*
X229610Y52654D01*
X229566Y52629D01*
X229533Y52607D01*
X229511Y52592D01*
X229504Y52585D01*
X229450Y52530D01*
X229406Y52465D01*
X229370Y52396D01*
X229341Y52330D01*
X229319Y52272D01*
X229311Y52246D01*
X229304Y52221D01*
X229300Y52203D01*
X229297Y52188D01*
X229293Y52181D01*
Y52177D01*
X228980Y52206D01*
X228991Y52272D01*
X229006Y52334D01*
X229020Y52392D01*
X229042Y52447D01*
X229064Y52501D01*
X229089Y52549D01*
X229115Y52589D01*
X229140Y52629D01*
X229166Y52665D01*
X229191Y52694D01*
X229213Y52720D01*
X229231Y52741D01*
X229249Y52760D01*
X229260Y52771D01*
X229268Y52778D01*
X229271Y52781D01*
X229319Y52822D01*
X229370Y52854D01*
X229424Y52883D01*
X229475Y52909D01*
X229530Y52931D01*
X229584Y52945D01*
X229686Y52974D01*
X229737Y52982D01*
X229781Y52989D01*
X229817Y52993D01*
X229854Y52996D01*
X229879Y53000D01*
X229919D01*
X230017Y52996D01*
D02*
G37*
G36*
X228605Y51580D02*
X228616Y51522D01*
X228627Y51468D01*
X228638Y51416D01*
X228645Y51373D01*
X228653Y51333D01*
X228656Y51293D01*
X228663Y51260D01*
X228667Y51231D01*
Y51205D01*
X228671Y51184D01*
X228674Y51151D01*
Y51133D01*
Y51125D01*
X228671Y51049D01*
X228660Y50976D01*
X228642Y50914D01*
X228623Y50856D01*
X228605Y50812D01*
X228587Y50776D01*
X228576Y50754D01*
X228572Y50750D01*
Y50747D01*
X228529Y50688D01*
X228478Y50634D01*
X228427Y50590D01*
X228376Y50554D01*
X228332Y50525D01*
X228292Y50503D01*
X228278Y50496D01*
X228267Y50488D01*
X228263Y50485D01*
X228259D01*
X228176Y50456D01*
X228092Y50434D01*
X228008Y50415D01*
X227932Y50405D01*
X227866Y50397D01*
X227837D01*
X227812Y50394D01*
X227764D01*
X227655Y50401D01*
X227553Y50415D01*
X227466Y50434D01*
X227386Y50459D01*
X227353Y50470D01*
X227324Y50485D01*
X227298Y50496D01*
X227277Y50503D01*
X227258Y50514D01*
X227247Y50517D01*
X227240Y50525D01*
X227237D01*
X227156Y50579D01*
X227084Y50638D01*
X227022Y50696D01*
X226971Y50750D01*
X226931Y50801D01*
X226902Y50841D01*
X226894Y50856D01*
X226887Y50867D01*
X226880Y50874D01*
Y50878D01*
X226854Y50921D01*
X226833Y50969D01*
X226793Y51067D01*
X226756Y51165D01*
X226727Y51260D01*
X226716Y51307D01*
X226705Y51347D01*
X226694Y51384D01*
X226687Y51416D01*
X226680Y51442D01*
X226676Y51460D01*
X226672Y51475D01*
Y51478D01*
X226363Y52956D01*
X226698D01*
X226985Y51569D01*
X227000Y51500D01*
X227014Y51438D01*
X227033Y51376D01*
X227047Y51322D01*
X227062Y51275D01*
X227076Y51227D01*
X227091Y51187D01*
X227105Y51151D01*
X227116Y51118D01*
X227127Y51093D01*
X227138Y51067D01*
X227146Y51049D01*
X227153Y51034D01*
X227160Y51023D01*
X227164Y51020D01*
Y51016D01*
X227204Y50954D01*
X227244Y50903D01*
X227288Y50860D01*
X227331Y50823D01*
X227368Y50794D01*
X227397Y50776D01*
X227418Y50761D01*
X227422Y50758D01*
X227426D01*
X227488Y50729D01*
X227550Y50707D01*
X227611Y50692D01*
X227666Y50681D01*
X227713Y50674D01*
X227750Y50670D01*
X227783D01*
X227870Y50674D01*
X227946Y50688D01*
X228015Y50710D01*
X228074Y50732D01*
X228121Y50754D01*
X228154Y50776D01*
X228176Y50791D01*
X228179Y50794D01*
X228183D01*
X228212Y50820D01*
X228234Y50845D01*
X228274Y50896D01*
X228303Y50951D01*
X228321Y51005D01*
X228336Y51052D01*
X228339Y51089D01*
X228343Y51104D01*
Y51114D01*
Y51118D01*
Y51122D01*
X228339Y51162D01*
X228336Y51205D01*
X228328Y51253D01*
X228321Y51296D01*
X228314Y51340D01*
X228310Y51373D01*
X228307Y51387D01*
X228303Y51398D01*
Y51402D01*
Y51406D01*
X227986Y52956D01*
X228321D01*
X228605Y51580D01*
D02*
G37*
G36*
X14587Y47244D02*
X14256D01*
X14005Y48431D01*
X12695D01*
X12942Y47244D01*
X12611D01*
X12083Y49763D01*
X12418D01*
X12636Y48715D01*
X13947D01*
X13728Y49763D01*
X14060D01*
X14587Y47244D01*
D02*
G37*
G36*
X8851Y48631D02*
X9535D01*
Y48343D01*
X8851D01*
Y47652D01*
X8559D01*
Y48343D01*
X7875D01*
Y48631D01*
X8559D01*
Y49315D01*
X8851D01*
Y48631D01*
D02*
G37*
G36*
X11282Y47244D02*
X10918D01*
X9535Y49763D01*
X9884D01*
X10780Y48110D01*
X10820Y48034D01*
X10864Y47950D01*
X10907Y47866D01*
X10947Y47787D01*
X10987Y47714D01*
X11002Y47681D01*
X11016Y47655D01*
X11028Y47630D01*
X11035Y47615D01*
X11038Y47605D01*
X11042Y47601D01*
X11049Y47648D01*
X11057Y47703D01*
X11071Y47808D01*
X11089Y47921D01*
X11104Y48023D01*
X11115Y48074D01*
X11122Y48118D01*
X11129Y48158D01*
X11137Y48191D01*
X11140Y48220D01*
X11144Y48241D01*
X11148Y48256D01*
Y48260D01*
X11439Y49763D01*
X11763D01*
X11282Y47244D01*
D02*
G37*
G36*
X233071Y60236D02*
X232740D01*
X232503Y61354D01*
X232041D01*
X231979Y61346D01*
X231928Y61339D01*
X231888Y61332D01*
X231859Y61325D01*
X231837Y61317D01*
X231822Y61314D01*
X231819Y61310D01*
X231786Y61292D01*
X231753Y61266D01*
X231724Y61241D01*
X231699Y61212D01*
X231677Y61186D01*
X231659Y61164D01*
X231648Y61150D01*
X231644Y61143D01*
X231600Y61070D01*
X231557Y60997D01*
X231520Y60924D01*
X231487Y60855D01*
X231458Y60797D01*
X231447Y60771D01*
X231440Y60750D01*
X231433Y60731D01*
X231426Y60717D01*
X231422Y60709D01*
Y60706D01*
X231240Y60236D01*
X230865D01*
X231058Y60709D01*
X231094Y60797D01*
X231138Y60881D01*
X231178Y60957D01*
X231218Y61026D01*
X231255Y61084D01*
X231269Y61110D01*
X231284Y61128D01*
X231294Y61146D01*
X231302Y61157D01*
X231306Y61164D01*
X231309Y61168D01*
X231338Y61204D01*
X231371Y61241D01*
X231404Y61274D01*
X231440Y61306D01*
X231469Y61332D01*
X231495Y61350D01*
X231509Y61365D01*
X231517Y61368D01*
X231436Y61379D01*
X231360Y61397D01*
X231291Y61416D01*
X231225Y61434D01*
X231167Y61456D01*
X231116Y61478D01*
X231065Y61499D01*
X231025Y61521D01*
X230989Y61539D01*
X230956Y61561D01*
X230927Y61579D01*
X230905Y61594D01*
X230890Y61608D01*
X230880Y61619D01*
X230872Y61623D01*
X230869Y61627D01*
X230832Y61667D01*
X230800Y61707D01*
X230774Y61751D01*
X230752Y61794D01*
X230716Y61878D01*
X230690Y61962D01*
X230676Y62031D01*
X230672Y62063D01*
X230668Y62089D01*
X230665Y62111D01*
Y62125D01*
Y62136D01*
Y62140D01*
X230668Y62220D01*
X230679Y62289D01*
X230694Y62351D01*
X230712Y62406D01*
X230730Y62446D01*
X230745Y62479D01*
X230756Y62497D01*
X230760Y62504D01*
X230796Y62555D01*
X230836Y62595D01*
X230880Y62631D01*
X230920Y62657D01*
X230956Y62675D01*
X230989Y62690D01*
X231007Y62697D01*
X231011Y62700D01*
X231014D01*
X231080Y62719D01*
X231156Y62733D01*
X231233Y62740D01*
X231309Y62748D01*
X231378Y62752D01*
X231411Y62755D01*
X232543D01*
X233071Y60236D01*
D02*
G37*
G36*
X230548D02*
X228619D01*
X228557Y60520D01*
X230155D01*
X229973Y61397D01*
X228506D01*
X228444Y61681D01*
X229911D01*
X229748Y62471D01*
X228252D01*
X228190Y62755D01*
X230021D01*
X230548Y60236D01*
D02*
G37*
G36*
X228193D02*
X227200D01*
X227119Y60243D01*
X227050Y60247D01*
X226988Y60254D01*
X226941Y60262D01*
X226905Y60265D01*
X226894Y60269D01*
X226883Y60273D01*
X226876D01*
X226796Y60295D01*
X226723Y60320D01*
X226657Y60349D01*
X226603Y60374D01*
X226555Y60396D01*
X226522Y60415D01*
X226501Y60429D01*
X226493Y60433D01*
X226431Y60476D01*
X226377Y60527D01*
X226322Y60575D01*
X226275Y60622D01*
X226235Y60666D01*
X226206Y60698D01*
X226195Y60713D01*
X226188Y60724D01*
X226180Y60728D01*
Y60731D01*
X226126Y60804D01*
X226078Y60881D01*
X226038Y60953D01*
X226006Y61023D01*
X225976Y61081D01*
X225966Y61106D01*
X225958Y61128D01*
X225951Y61143D01*
X225944Y61157D01*
X225940Y61164D01*
Y61168D01*
X225907Y61263D01*
X225886Y61361D01*
X225867Y61456D01*
X225856Y61539D01*
X225853Y61579D01*
X225849Y61616D01*
Y61645D01*
X225846Y61674D01*
Y61696D01*
Y61710D01*
Y61721D01*
Y61725D01*
X225849Y61820D01*
X225856Y61903D01*
X225871Y61983D01*
X225882Y62049D01*
X225896Y62107D01*
X225904Y62129D01*
X225911Y62147D01*
X225915Y62162D01*
X225918Y62173D01*
X225922Y62180D01*
Y62184D01*
X225951Y62256D01*
X225987Y62322D01*
X226024Y62380D01*
X226057Y62431D01*
X226089Y62467D01*
X226115Y62497D01*
X226133Y62515D01*
X226140Y62522D01*
X226199Y62569D01*
X226257Y62609D01*
X226315Y62646D01*
X226370Y62671D01*
X226421Y62690D01*
X226457Y62704D01*
X226471Y62708D01*
X226483Y62711D01*
X226490Y62715D01*
X226493D01*
X226552Y62730D01*
X226617Y62737D01*
X226686Y62744D01*
X226755Y62752D01*
X226814D01*
X226839Y62755D01*
X227669D01*
X228193Y60236D01*
D02*
G37*
G36*
X228798Y40201D02*
X228471D01*
X228150Y41734D01*
X228125Y41865D01*
X228099Y41985D01*
X228081Y42090D01*
X228074Y42141D01*
X228067Y42185D01*
X228059Y42229D01*
X228056Y42265D01*
X228052Y42294D01*
X228048Y42320D01*
X228045Y42342D01*
X228041Y42360D01*
Y42367D01*
Y42371D01*
X227998Y42247D01*
X227954Y42119D01*
X227910Y41999D01*
X227888Y41945D01*
X227867Y41890D01*
X227848Y41843D01*
X227830Y41796D01*
X227812Y41755D01*
X227797Y41723D01*
X227786Y41694D01*
X227779Y41675D01*
X227772Y41661D01*
Y41657D01*
X227160Y40201D01*
X226825D01*
X226298Y42720D01*
X226629D01*
X226935Y41239D01*
X226960Y41115D01*
X226986Y40995D01*
X227004Y40882D01*
X227015Y40831D01*
X227022Y40784D01*
X227029Y40740D01*
X227037Y40700D01*
X227040Y40667D01*
X227047Y40638D01*
X227051Y40616D01*
Y40598D01*
X227055Y40587D01*
Y40583D01*
X227084Y40685D01*
X227113Y40780D01*
X227138Y40856D01*
X227160Y40925D01*
X227179Y40977D01*
X227186Y40998D01*
X227193Y41013D01*
X227197Y41027D01*
X227200Y41038D01*
X227204Y41042D01*
Y41046D01*
X227248Y41162D01*
X227299Y41282D01*
X227346Y41406D01*
X227397Y41519D01*
X227419Y41573D01*
X227441Y41621D01*
X227459Y41664D01*
X227473Y41701D01*
X227488Y41734D01*
X227499Y41755D01*
X227502Y41770D01*
X227506Y41774D01*
X227921Y42720D01*
X228271D01*
X228798Y40201D01*
D02*
G37*
G36*
X237269Y42760D02*
X237338Y42756D01*
X237465Y42735D01*
X237523Y42724D01*
X237578Y42709D01*
X237633Y42691D01*
X237680Y42676D01*
X237724Y42658D01*
X237764Y42644D01*
X237796Y42625D01*
X237826Y42614D01*
X237851Y42604D01*
X237866Y42593D01*
X237877Y42589D01*
X237880Y42585D01*
X237935Y42549D01*
X237989Y42509D01*
X238088Y42425D01*
X238171Y42331D01*
X238244Y42243D01*
X238277Y42200D01*
X238302Y42160D01*
X238328Y42123D01*
X238346Y42094D01*
X238361Y42068D01*
X238372Y42050D01*
X238379Y42036D01*
X238383Y42032D01*
X238419Y41963D01*
X238448Y41890D01*
X238474Y41817D01*
X238499Y41748D01*
X238535Y41610D01*
X238546Y41544D01*
X238557Y41482D01*
X238564Y41424D01*
X238572Y41373D01*
X238575Y41326D01*
X238579Y41286D01*
X238583Y41253D01*
Y41231D01*
Y41213D01*
Y41209D01*
X238579Y41129D01*
X238572Y41053D01*
X238561Y40980D01*
X238546Y40911D01*
X238532Y40845D01*
X238510Y40787D01*
X238492Y40733D01*
X238470Y40685D01*
X238448Y40638D01*
X238430Y40602D01*
X238408Y40569D01*
X238393Y40540D01*
X238379Y40518D01*
X238368Y40503D01*
X238361Y40492D01*
X238357Y40489D01*
X238302Y40431D01*
X238244Y40380D01*
X238179Y40336D01*
X238113Y40296D01*
X238044Y40267D01*
X237978Y40238D01*
X237909Y40216D01*
X237844Y40198D01*
X237782Y40187D01*
X237724Y40176D01*
X237669Y40168D01*
X237625Y40161D01*
X237585D01*
X237560Y40157D01*
X237534D01*
X237436Y40161D01*
X237345Y40168D01*
X237254Y40183D01*
X237174Y40198D01*
X237141Y40205D01*
X237108Y40212D01*
X237079Y40219D01*
X237054Y40227D01*
X237036Y40230D01*
X237021Y40234D01*
X237014Y40238D01*
X237010D01*
X236912Y40270D01*
X236825Y40307D01*
X236744Y40339D01*
X236675Y40376D01*
X236617Y40405D01*
X236592Y40416D01*
X236573Y40427D01*
X236559Y40438D01*
X236548Y40441D01*
X236541Y40449D01*
X236537D01*
X236319Y41479D01*
X237425D01*
X237483Y41195D01*
X236715D01*
X236828Y40649D01*
X236897Y40613D01*
X236966Y40580D01*
X237036Y40551D01*
X237098Y40525D01*
X237159Y40503D01*
X237218Y40485D01*
X237272Y40474D01*
X237323Y40460D01*
X237371Y40452D01*
X237414Y40445D01*
X237451Y40441D01*
X237480Y40438D01*
X237505Y40434D01*
X237538D01*
X237596Y40438D01*
X237654Y40441D01*
X237756Y40463D01*
X237804Y40478D01*
X237844Y40496D01*
X237884Y40514D01*
X237920Y40532D01*
X237949Y40547D01*
X237978Y40565D01*
X238000Y40583D01*
X238018Y40598D01*
X238037Y40609D01*
X238048Y40620D01*
X238051Y40623D01*
X238055Y40627D01*
X238088Y40667D01*
X238117Y40707D01*
X238142Y40754D01*
X238160Y40802D01*
X238197Y40896D01*
X238219Y40987D01*
X238226Y41031D01*
X238230Y41071D01*
X238233Y41107D01*
X238237Y41140D01*
X238241Y41166D01*
Y41184D01*
Y41199D01*
Y41202D01*
X238233Y41341D01*
X238219Y41471D01*
X238208Y41530D01*
X238197Y41588D01*
X238182Y41639D01*
X238168Y41686D01*
X238157Y41730D01*
X238142Y41770D01*
X238131Y41806D01*
X238120Y41832D01*
X238113Y41857D01*
X238106Y41872D01*
X238099Y41883D01*
Y41886D01*
X238040Y41992D01*
X237978Y42083D01*
X237917Y42163D01*
X237855Y42225D01*
X237804Y42276D01*
X237760Y42309D01*
X237742Y42323D01*
X237731Y42331D01*
X237724Y42338D01*
X237720D01*
X237629Y42389D01*
X237542Y42425D01*
X237454Y42451D01*
X237378Y42469D01*
X237341Y42476D01*
X237309Y42480D01*
X237280Y42483D01*
X237258D01*
X237236Y42487D01*
X237210D01*
X237116Y42480D01*
X237032Y42465D01*
X236956Y42443D01*
X236894Y42418D01*
X236843Y42389D01*
X236806Y42367D01*
X236795Y42360D01*
X236785Y42352D01*
X236781Y42345D01*
X236777D01*
X236719Y42287D01*
X236672Y42225D01*
X236635Y42160D01*
X236606Y42094D01*
X236584Y42036D01*
X236577Y42010D01*
X236570Y41988D01*
X236566Y41970D01*
X236562Y41956D01*
X236559Y41948D01*
Y41945D01*
X236231Y41985D01*
X236253Y42076D01*
X236275Y42160D01*
X236304Y42232D01*
X236330Y42290D01*
X236355Y42338D01*
X236377Y42374D01*
X236391Y42396D01*
X236395Y42403D01*
X236442Y42462D01*
X236493Y42513D01*
X236548Y42560D01*
X236602Y42596D01*
X236650Y42625D01*
X236686Y42647D01*
X236701Y42654D01*
X236712Y42662D01*
X236719Y42665D01*
X236723D01*
X236803Y42698D01*
X236886Y42724D01*
X236966Y42738D01*
X237039Y42753D01*
X237105Y42760D01*
X237130D01*
X237156Y42764D01*
X237199D01*
X237269Y42760D01*
D02*
G37*
G36*
X236020Y40201D02*
X235689D01*
X235452Y41319D01*
X234990D01*
X234928Y41311D01*
X234877Y41304D01*
X234837Y41297D01*
X234808Y41289D01*
X234786Y41282D01*
X234772Y41279D01*
X234768Y41275D01*
X234735Y41257D01*
X234702Y41231D01*
X234673Y41206D01*
X234648Y41177D01*
X234626Y41151D01*
X234608Y41129D01*
X234597Y41115D01*
X234593Y41107D01*
X234550Y41035D01*
X234506Y40962D01*
X234470Y40889D01*
X234437Y40820D01*
X234408Y40762D01*
X234397Y40736D01*
X234389Y40714D01*
X234382Y40696D01*
X234375Y40682D01*
X234371Y40674D01*
Y40671D01*
X234189Y40201D01*
X233814D01*
X234007Y40674D01*
X234044Y40762D01*
X234087Y40845D01*
X234127Y40922D01*
X234167Y40991D01*
X234204Y41049D01*
X234218Y41075D01*
X234233Y41093D01*
X234244Y41111D01*
X234251Y41122D01*
X234255Y41129D01*
X234258Y41133D01*
X234288Y41169D01*
X234320Y41206D01*
X234353Y41239D01*
X234389Y41271D01*
X234419Y41297D01*
X234444Y41315D01*
X234459Y41330D01*
X234466Y41333D01*
X234386Y41344D01*
X234309Y41362D01*
X234240Y41381D01*
X234175Y41399D01*
X234116Y41421D01*
X234065Y41442D01*
X234015Y41464D01*
X233974Y41486D01*
X233938Y41504D01*
X233905Y41526D01*
X233876Y41544D01*
X233854Y41559D01*
X233840Y41573D01*
X233829Y41584D01*
X233822Y41588D01*
X233818Y41592D01*
X233782Y41632D01*
X233749Y41672D01*
X233723Y41715D01*
X233701Y41759D01*
X233665Y41843D01*
X233640Y41927D01*
X233625Y41996D01*
X233621Y42028D01*
X233618Y42054D01*
X233614Y42076D01*
Y42090D01*
Y42101D01*
Y42105D01*
X233618Y42185D01*
X233629Y42254D01*
X233643Y42316D01*
X233661Y42371D01*
X233680Y42411D01*
X233694Y42443D01*
X233705Y42462D01*
X233709Y42469D01*
X233745Y42520D01*
X233785Y42560D01*
X233829Y42596D01*
X233869Y42622D01*
X233905Y42640D01*
X233938Y42654D01*
X233956Y42662D01*
X233960Y42665D01*
X233963D01*
X234029Y42684D01*
X234105Y42698D01*
X234182Y42706D01*
X234258Y42713D01*
X234328Y42716D01*
X234360Y42720D01*
X235492D01*
X236020Y40201D01*
D02*
G37*
G36*
X233498D02*
X231568D01*
X231506Y40485D01*
X233104D01*
X232923Y41362D01*
X231456D01*
X231394Y41646D01*
X232861D01*
X232697Y42436D01*
X231201D01*
X231139Y42720D01*
X232970D01*
X233498Y40201D01*
D02*
G37*
G36*
X231150D02*
X229221D01*
X229159Y40485D01*
X230757D01*
X230575Y41362D01*
X229108D01*
X229046Y41646D01*
X230513D01*
X230349Y42436D01*
X228853D01*
X228791Y42720D01*
X230622D01*
X231150Y40201D01*
D02*
G37*
G36*
X89370Y109579D02*
X88375D01*
X87621Y113142D01*
X83687D01*
X84430Y109579D01*
X83435D01*
X81850Y117142D01*
X82856D01*
X83512Y113995D01*
X87446D01*
X86791Y117142D01*
X87785D01*
X89370Y109579D01*
D02*
G37*
G36*
X60591Y109579D02*
X59608D01*
X58646Y114180D01*
X58569Y114574D01*
X58493Y114935D01*
X58438Y115252D01*
X58416Y115405D01*
X58394Y115536D01*
X58373Y115667D01*
X58362Y115776D01*
X58351Y115864D01*
X58340Y115940D01*
X58329Y116006D01*
X58318Y116060D01*
Y116082D01*
Y116093D01*
X58187Y115721D01*
X58056Y115339D01*
X57924Y114978D01*
X57859Y114814D01*
X57793Y114650D01*
X57739Y114508D01*
X57684Y114366D01*
X57629Y114246D01*
X57586Y114148D01*
X57553Y114060D01*
X57531Y114005D01*
X57509Y113962D01*
Y113951D01*
X55673Y109579D01*
X54667D01*
X53083Y117142D01*
X54077D01*
X54995Y112694D01*
X55072Y112322D01*
X55148Y111962D01*
X55203Y111623D01*
X55236Y111470D01*
X55257Y111328D01*
X55279Y111196D01*
X55301Y111076D01*
X55312Y110978D01*
X55334Y110890D01*
X55345Y110825D01*
Y110770D01*
X55356Y110737D01*
Y110726D01*
X55443Y111033D01*
X55531Y111317D01*
X55607Y111546D01*
X55673Y111754D01*
X55727Y111907D01*
X55749Y111972D01*
X55771Y112016D01*
X55782Y112060D01*
X55793Y112093D01*
X55804Y112104D01*
Y112115D01*
X55935Y112464D01*
X56088Y112825D01*
X56230Y113197D01*
X56383Y113535D01*
X56449Y113699D01*
X56515Y113842D01*
X56569Y113973D01*
X56613Y114082D01*
X56657Y114180D01*
X56689Y114246D01*
X56700Y114290D01*
X56711Y114301D01*
X57957Y117142D01*
X59007D01*
X60591Y109579D01*
D02*
G37*
G36*
X79446Y109579D02*
X78353D01*
X74199Y117142D01*
X75248D01*
X77937Y112180D01*
X78057Y111951D01*
X78189Y111699D01*
X78320Y111448D01*
X78440Y111207D01*
X78560Y110989D01*
X78604Y110890D01*
X78648Y110814D01*
X78680Y110738D01*
X78702Y110694D01*
X78713Y110661D01*
X78724Y110650D01*
X78746Y110792D01*
X78768Y110956D01*
X78812Y111273D01*
X78866Y111612D01*
X78910Y111918D01*
X78943Y112071D01*
X78965Y112202D01*
X78987Y112322D01*
X79008Y112421D01*
X79019Y112508D01*
X79030Y112574D01*
X79041Y112617D01*
Y112628D01*
X79916Y117142D01*
X80888D01*
X79446Y109579D01*
D02*
G37*
G36*
X64297Y117263D02*
X64504Y117252D01*
X64887Y117186D01*
X65062Y117153D01*
X65226Y117110D01*
X65390Y117055D01*
X65532Y117011D01*
X65663Y116957D01*
X65783Y116913D01*
X65882Y116858D01*
X65969Y116825D01*
X66045Y116793D01*
X66089Y116760D01*
X66122Y116749D01*
X66133Y116738D01*
X66297Y116629D01*
X66461Y116508D01*
X66756Y116257D01*
X67007Y115973D01*
X67226Y115711D01*
X67324Y115579D01*
X67401Y115459D01*
X67477Y115350D01*
X67532Y115262D01*
X67576Y115186D01*
X67608Y115131D01*
X67630Y115088D01*
X67641Y115077D01*
X67751Y114869D01*
X67838Y114650D01*
X67914Y114432D01*
X67991Y114224D01*
X68100Y113809D01*
X68133Y113612D01*
X68166Y113426D01*
X68188Y113251D01*
X68210Y113098D01*
X68221Y112956D01*
X68231Y112836D01*
X68242Y112738D01*
Y112672D01*
Y112617D01*
Y112607D01*
X68231Y112366D01*
X68210Y112136D01*
X68177Y111918D01*
X68133Y111710D01*
X68089Y111513D01*
X68024Y111339D01*
X67969Y111175D01*
X67904Y111033D01*
X67838Y110890D01*
X67783Y110781D01*
X67718Y110683D01*
X67674Y110595D01*
X67630Y110530D01*
X67598Y110486D01*
X67576Y110453D01*
X67565Y110442D01*
X67401Y110267D01*
X67226Y110115D01*
X67029Y109983D01*
X66832Y109863D01*
X66625Y109776D01*
X66428Y109688D01*
X66220Y109623D01*
X66024Y109568D01*
X65838Y109535D01*
X65663Y109502D01*
X65499Y109481D01*
X65368Y109459D01*
X65248D01*
X65171Y109448D01*
X65095D01*
X64799Y109459D01*
X64526Y109481D01*
X64253Y109524D01*
X64012Y109568D01*
X63914Y109590D01*
X63816Y109612D01*
X63728Y109634D01*
X63652Y109655D01*
X63597Y109666D01*
X63553Y109677D01*
X63532Y109688D01*
X63521D01*
X63226Y109787D01*
X62963Y109896D01*
X62723Y109994D01*
X62515Y110103D01*
X62340Y110191D01*
X62264Y110224D01*
X62209Y110257D01*
X62165Y110289D01*
X62133Y110300D01*
X62111Y110322D01*
X62100D01*
X61444Y113415D01*
X64767D01*
X64942Y112563D01*
X62635D01*
X62974Y110923D01*
X63182Y110814D01*
X63389Y110716D01*
X63597Y110628D01*
X63783Y110552D01*
X63969Y110486D01*
X64144Y110431D01*
X64308Y110399D01*
X64461Y110355D01*
X64603Y110333D01*
X64734Y110311D01*
X64843Y110300D01*
X64931Y110289D01*
X65007Y110278D01*
X65105D01*
X65280Y110289D01*
X65455Y110300D01*
X65761Y110366D01*
X65903Y110410D01*
X66024Y110464D01*
X66144Y110519D01*
X66253Y110573D01*
X66341Y110617D01*
X66428Y110672D01*
X66494Y110726D01*
X66548Y110770D01*
X66603Y110803D01*
X66636Y110836D01*
X66647Y110847D01*
X66658Y110858D01*
X66756Y110978D01*
X66843Y111098D01*
X66920Y111240D01*
X66975Y111382D01*
X67084Y111667D01*
X67149Y111940D01*
X67171Y112071D01*
X67182Y112191D01*
X67193Y112301D01*
X67204Y112399D01*
X67215Y112475D01*
Y112530D01*
Y112574D01*
Y112585D01*
X67193Y113000D01*
X67149Y113393D01*
X67117Y113568D01*
X67084Y113743D01*
X67040Y113896D01*
X66996Y114038D01*
X66964Y114170D01*
X66920Y114290D01*
X66887Y114399D01*
X66854Y114476D01*
X66832Y114552D01*
X66811Y114596D01*
X66789Y114629D01*
Y114639D01*
X66614Y114956D01*
X66428Y115230D01*
X66242Y115470D01*
X66056Y115656D01*
X65903Y115809D01*
X65772Y115907D01*
X65718Y115951D01*
X65685Y115973D01*
X65663Y115995D01*
X65652D01*
X65379Y116148D01*
X65116Y116257D01*
X64854Y116334D01*
X64625Y116388D01*
X64515Y116410D01*
X64417Y116421D01*
X64329Y116432D01*
X64264D01*
X64198Y116443D01*
X64122D01*
X63838Y116421D01*
X63586Y116377D01*
X63357Y116312D01*
X63171Y116235D01*
X63018Y116148D01*
X62909Y116082D01*
X62876Y116060D01*
X62843Y116039D01*
X62832Y116017D01*
X62821D01*
X62646Y115842D01*
X62504Y115656D01*
X62395Y115459D01*
X62307Y115262D01*
X62242Y115088D01*
X62220Y115011D01*
X62198Y114945D01*
X62187Y114891D01*
X62176Y114847D01*
X62165Y114825D01*
Y114814D01*
X61182Y114935D01*
X61247Y115208D01*
X61313Y115459D01*
X61400Y115678D01*
X61477Y115853D01*
X61553Y115995D01*
X61619Y116104D01*
X61663Y116170D01*
X61673Y116191D01*
X61816Y116366D01*
X61969Y116519D01*
X62133Y116662D01*
X62296Y116771D01*
X62438Y116858D01*
X62548Y116924D01*
X62592Y116946D01*
X62624Y116968D01*
X62646Y116979D01*
X62657D01*
X62898Y117077D01*
X63149Y117153D01*
X63389Y117197D01*
X63608Y117241D01*
X63805Y117263D01*
X63881D01*
X63958Y117274D01*
X64089D01*
X64297Y117263D01*
D02*
G37*
G36*
X52951Y109579D02*
X49967D01*
X49727Y109601D01*
X49519Y109612D01*
X49334Y109634D01*
X49191Y109655D01*
X49082Y109666D01*
X49049Y109677D01*
X49016Y109688D01*
X48995D01*
X48754Y109754D01*
X48536Y109830D01*
X48339Y109918D01*
X48175Y109994D01*
X48033Y110060D01*
X47934Y110114D01*
X47869Y110158D01*
X47847Y110169D01*
X47661Y110300D01*
X47497Y110453D01*
X47333Y110595D01*
X47191Y110737D01*
X47071Y110869D01*
X46984Y110967D01*
X46951Y111011D01*
X46929Y111044D01*
X46907Y111054D01*
Y111065D01*
X46743Y111284D01*
X46601Y111513D01*
X46481Y111732D01*
X46382Y111940D01*
X46295Y112115D01*
X46262Y112191D01*
X46240Y112257D01*
X46218Y112300D01*
X46197Y112344D01*
X46186Y112366D01*
Y112377D01*
X46087Y112661D01*
X46022Y112956D01*
X45967Y113240D01*
X45934Y113492D01*
X45923Y113612D01*
X45912Y113721D01*
Y113809D01*
X45902Y113896D01*
Y113962D01*
Y114005D01*
Y114038D01*
Y114049D01*
X45912Y114333D01*
X45934Y114585D01*
X45978Y114825D01*
X46011Y115022D01*
X46055Y115197D01*
X46076Y115262D01*
X46098Y115317D01*
X46109Y115361D01*
X46120Y115394D01*
X46131Y115416D01*
Y115426D01*
X46218Y115645D01*
X46328Y115842D01*
X46437Y116017D01*
X46535Y116170D01*
X46634Y116279D01*
X46710Y116366D01*
X46765Y116421D01*
X46787Y116443D01*
X46962Y116585D01*
X47137Y116705D01*
X47311Y116814D01*
X47475Y116891D01*
X47628Y116946D01*
X47738Y116989D01*
X47781Y117000D01*
X47814Y117011D01*
X47836Y117022D01*
X47847D01*
X48022Y117066D01*
X48219Y117088D01*
X48426Y117110D01*
X48634Y117131D01*
X48809D01*
X48885Y117142D01*
X51377D01*
X52951Y109579D01*
D02*
G37*
G36*
X75817Y107480D02*
X69663D01*
Y108147D01*
X75817D01*
Y107480D01*
D02*
G37*
%LPC*%
G36*
X119199Y105578D02*
X118562D01*
Y105493D01*
X118477D01*
Y105408D01*
X118435D01*
Y105366D01*
X118392D01*
Y105238D01*
X118350D01*
Y105196D01*
X118307D01*
Y104262D01*
X118392D01*
Y104135D01*
X118604D01*
Y104262D01*
X118647D01*
Y104220D01*
X119114D01*
Y104262D01*
X119156D01*
Y104220D01*
X119199D01*
Y104135D01*
X119411D01*
Y104262D01*
X119453D01*
Y104347D01*
X119496D01*
Y105153D01*
X119453D01*
Y105196D01*
X119411D01*
Y105323D01*
X119368D01*
Y105408D01*
X119283D01*
Y105493D01*
X119199D01*
Y105578D01*
D02*
G37*
G36*
X126626Y102734D02*
X125649D01*
Y102649D01*
X125267D01*
Y102565D01*
X125098D01*
Y102480D01*
X124928D01*
Y102352D01*
X124843D01*
Y102267D01*
X124758D01*
Y102225D01*
X124716D01*
Y102182D01*
X124673D01*
Y102140D01*
X124631D01*
Y102098D01*
X124588D01*
Y102055D01*
X124546D01*
Y101928D01*
X124504D01*
Y101885D01*
X124461D01*
Y101631D01*
X124376D01*
Y100697D01*
X124461D01*
Y100442D01*
X124504D01*
Y100400D01*
X124546D01*
Y100230D01*
X124631D01*
Y100145D01*
X124716D01*
Y100103D01*
X124758D01*
Y100060D01*
X124801D01*
Y100018D01*
X124843D01*
Y99976D01*
X124885D01*
Y99933D01*
X124928D01*
Y99891D01*
X124970D01*
Y99848D01*
X125013D01*
Y99763D01*
X125182D01*
Y99678D01*
X125522D01*
Y99594D01*
X126710D01*
Y99678D01*
X127092D01*
Y99763D01*
X127262D01*
Y99891D01*
X127347D01*
Y99933D01*
X127517D01*
Y100060D01*
X127602D01*
Y100230D01*
X127687D01*
Y100400D01*
X127771D01*
Y100442D01*
X127814D01*
Y100612D01*
X127899D01*
Y101716D01*
X127814D01*
Y101885D01*
X127729D01*
Y101928D01*
X127687D01*
Y102098D01*
X127602D01*
Y102267D01*
X127517D01*
Y102395D01*
X127432D01*
Y102352D01*
X127347D01*
Y102437D01*
X127262D01*
Y102565D01*
X127007D01*
Y102649D01*
X126626D01*
Y102734D01*
D02*
G37*
G36*
X117968Y86564D02*
X117755D01*
Y86437D01*
X117671D01*
Y85419D01*
X117713D01*
Y85376D01*
X117968D01*
Y85504D01*
X118010D01*
Y85461D01*
X118222D01*
Y85588D01*
X118307D01*
Y85546D01*
X118477D01*
Y85631D01*
X118519D01*
Y85673D01*
X118604D01*
Y85631D01*
X118732D01*
Y85673D01*
X118774D01*
Y85758D01*
X118944D01*
Y85843D01*
X119199D01*
Y86013D01*
X119114D01*
Y86098D01*
X118944D01*
Y86183D01*
X118901D01*
Y86225D01*
X118774D01*
Y86183D01*
X118689D01*
Y86310D01*
X118477D01*
Y86268D01*
X118435D01*
Y86310D01*
X118392D01*
Y86395D01*
X118138D01*
Y86480D01*
X117968D01*
Y86564D01*
D02*
G37*
G36*
Y80326D02*
X117755D01*
Y80199D01*
X117671D01*
Y79265D01*
X117713D01*
Y79222D01*
X117755D01*
Y79137D01*
X117968D01*
Y79222D01*
X118138D01*
Y79307D01*
X118392D01*
Y79392D01*
X118689D01*
Y79477D01*
X118944D01*
Y79604D01*
X118986D01*
Y79562D01*
X119199D01*
Y79859D01*
X118944D01*
Y79944D01*
X118689D01*
Y80029D01*
X118392D01*
Y80114D01*
X118222D01*
Y80241D01*
X118053D01*
Y80199D01*
X117968D01*
Y80326D01*
D02*
G37*
G36*
X119114Y69164D02*
X118689D01*
Y69122D01*
X118647D01*
Y69037D01*
X118477D01*
Y68952D01*
X118392D01*
Y68782D01*
X118350D01*
Y68740D01*
X118307D01*
Y67679D01*
X119453D01*
Y67806D01*
X119496D01*
Y68697D01*
X119453D01*
Y68782D01*
X119411D01*
Y68867D01*
X119368D01*
Y68952D01*
X119283D01*
Y69037D01*
X119114D01*
Y69164D01*
D02*
G37*
G36*
X118944Y66363D02*
X117671D01*
Y66278D01*
X117416D01*
Y66193D01*
X117246D01*
Y66151D01*
X117204D01*
Y65981D01*
X117119D01*
Y65896D01*
X117077D01*
Y65854D01*
X117034D01*
Y65345D01*
X117077D01*
Y65302D01*
X117119D01*
Y65217D01*
X117204D01*
Y65047D01*
X117246D01*
Y65005D01*
X117416D01*
Y64920D01*
X117755D01*
Y64835D01*
X118859D01*
Y64920D01*
X119114D01*
Y65005D01*
X119283D01*
Y65090D01*
X119326D01*
Y65132D01*
X119368D01*
Y65175D01*
X119411D01*
Y65302D01*
X119453D01*
Y65345D01*
X119496D01*
Y65854D01*
X119453D01*
Y65896D01*
X119411D01*
Y66023D01*
X119368D01*
Y66066D01*
X119326D01*
Y66108D01*
X119283D01*
Y66151D01*
X119241D01*
Y66193D01*
X119199D01*
Y66278D01*
X118944D01*
Y66363D01*
D02*
G37*
G36*
X221243Y33878D02*
X221221D01*
X221207D01*
X221196D01*
X221192D01*
X221090Y33874D01*
X220999Y33867D01*
X220915Y33853D01*
X220843Y33838D01*
X220810Y33831D01*
X220781Y33823D01*
X220755Y33816D01*
X220737Y33809D01*
X220719Y33805D01*
X220708Y33802D01*
X220701Y33798D01*
X220697D01*
X220620Y33769D01*
X220548Y33733D01*
X220482Y33700D01*
X220424Y33667D01*
X220380Y33638D01*
X220344Y33612D01*
X220322Y33598D01*
X220318Y33590D01*
X220315D01*
X220271Y33551D01*
X220231Y33514D01*
X220195Y33474D01*
X220165Y33441D01*
X220144Y33412D01*
X220126Y33390D01*
X220115Y33376D01*
X220111Y33369D01*
X220071Y33292D01*
X220056Y33256D01*
X220042Y33219D01*
X220031Y33190D01*
X220027Y33165D01*
X220020Y33150D01*
Y33143D01*
X220002Y33063D01*
X219991Y32979D01*
X219980Y32899D01*
X219976Y32826D01*
X219973Y32761D01*
X219969Y32732D01*
Y32266D01*
X221920Y32673D01*
Y33208D01*
X221913Y33285D01*
X221909Y33350D01*
X221902Y33405D01*
X221895Y33449D01*
X221887Y33478D01*
X221884Y33492D01*
X221880Y33500D01*
X221854Y33558D01*
X221822Y33612D01*
X221785Y33656D01*
X221749Y33696D01*
X221716Y33725D01*
X221687Y33751D01*
X221669Y33765D01*
X221665Y33769D01*
X221662D01*
X221596Y33805D01*
X221520Y33831D01*
X221440Y33853D01*
X221367Y33863D01*
X221298Y33871D01*
X221268Y33874D01*
X221243Y33878D01*
D02*
G37*
G36*
X211007Y33484D02*
X210985D01*
X210970D01*
X210959D01*
X210956D01*
X210854Y33481D01*
X210763Y33474D01*
X210679Y33459D01*
X210606Y33444D01*
X210574Y33437D01*
X210544Y33430D01*
X210519Y33422D01*
X210501Y33415D01*
X210483Y33412D01*
X210472Y33408D01*
X210464Y33404D01*
X210461D01*
X210384Y33375D01*
X210312Y33339D01*
X210246Y33306D01*
X210188Y33273D01*
X210144Y33244D01*
X210108Y33219D01*
X210086Y33204D01*
X210082Y33197D01*
X210079D01*
X210035Y33157D01*
X209995Y33120D01*
X209958Y33080D01*
X209929Y33048D01*
X209908Y33018D01*
X209889Y32997D01*
X209878Y32982D01*
X209875Y32975D01*
X209835Y32898D01*
X209820Y32862D01*
X209805Y32825D01*
X209795Y32796D01*
X209791Y32771D01*
X209784Y32756D01*
Y32749D01*
X209766Y32669D01*
X209755Y32585D01*
X209744Y32505D01*
X209740Y32432D01*
X209736Y32367D01*
X209733Y32338D01*
Y31872D01*
X211684Y32280D01*
Y32815D01*
X211677Y32891D01*
X211673Y32957D01*
X211666Y33011D01*
X211658Y33055D01*
X211651Y33084D01*
X211647Y33099D01*
X211644Y33106D01*
X211618Y33164D01*
X211585Y33219D01*
X211549Y33262D01*
X211513Y33302D01*
X211480Y33332D01*
X211451Y33357D01*
X211433Y33372D01*
X211429Y33375D01*
X211425D01*
X211360Y33412D01*
X211283Y33437D01*
X211203Y33459D01*
X211130Y33470D01*
X211061Y33477D01*
X211032Y33481D01*
X211007Y33484D01*
D02*
G37*
G36*
X180237Y122195D02*
X178631D01*
X178401Y122174D01*
X178204Y122163D01*
X178040Y122141D01*
X177909Y122119D01*
X177822Y122097D01*
X177778Y122086D01*
X177756Y122075D01*
X177581Y121999D01*
X177417Y121900D01*
X177286Y121791D01*
X177166Y121682D01*
X177079Y121583D01*
X177002Y121496D01*
X176958Y121441D01*
X176947Y121430D01*
Y121419D01*
X176838Y121223D01*
X176762Y120993D01*
X176696Y120753D01*
X176663Y120534D01*
X176641Y120326D01*
X176630Y120239D01*
X176620Y120162D01*
Y120097D01*
Y120053D01*
Y120020D01*
Y120009D01*
X176630Y119703D01*
X176652Y119430D01*
X176696Y119179D01*
X176740Y118960D01*
X176762Y118862D01*
X176784Y118774D01*
X176805Y118698D01*
X176827Y118643D01*
X176838Y118588D01*
X176849Y118556D01*
X176860Y118534D01*
Y118523D01*
X176947Y118293D01*
X177057Y118075D01*
X177155Y117878D01*
X177253Y117703D01*
X177341Y117572D01*
X177417Y117463D01*
X177461Y117397D01*
X177483Y117386D01*
Y117375D01*
X177603Y117244D01*
X177713Y117124D01*
X177833Y117015D01*
X177931Y116927D01*
X178019Y116862D01*
X178084Y116807D01*
X178128Y116774D01*
X178150Y116763D01*
X178379Y116643D01*
X178489Y116599D01*
X178598Y116556D01*
X178685Y116523D01*
X178762Y116512D01*
X178805Y116490D01*
X178827D01*
X179068Y116435D01*
X179319Y116402D01*
X179560Y116370D01*
X179778Y116359D01*
X179975Y116348D01*
X180062Y116337D01*
X181462D01*
X180237Y122195D01*
D02*
G37*
G36*
X232270Y62479D02*
X231378D01*
X231320Y62475D01*
X231273Y62467D01*
X231236Y62464D01*
X231207Y62457D01*
X231185Y62449D01*
X231174Y62446D01*
X231171D01*
X231142Y62431D01*
X231113Y62417D01*
X231091Y62398D01*
X231072Y62380D01*
X231058Y62362D01*
X231047Y62347D01*
X231040Y62336D01*
X231036Y62333D01*
X231018Y62300D01*
X231007Y62271D01*
X230996Y62238D01*
X230992Y62209D01*
X230989Y62184D01*
X230985Y62162D01*
Y62147D01*
Y62144D01*
X230989Y62096D01*
X230996Y62049D01*
X231007Y62009D01*
X231018Y61972D01*
X231032Y61943D01*
X231043Y61918D01*
X231051Y61903D01*
X231054Y61900D01*
X231080Y61860D01*
X231113Y61823D01*
X231142Y61794D01*
X231174Y61765D01*
X231200Y61747D01*
X231222Y61729D01*
X231236Y61721D01*
X231244Y61718D01*
X231291Y61696D01*
X231346Y61678D01*
X231397Y61663D01*
X231447Y61652D01*
X231491Y61645D01*
X231524Y61638D01*
X231538D01*
X231549Y61634D01*
X231578D01*
X231604Y61630D01*
X231735D01*
X231804Y61627D01*
X232448D01*
X232270Y62479D01*
D02*
G37*
G36*
X227393Y62471D02*
X226857D01*
X226781Y62464D01*
X226715Y62460D01*
X226661Y62453D01*
X226617Y62446D01*
X226588Y62438D01*
X226573Y62435D01*
X226566Y62431D01*
X226508Y62406D01*
X226453Y62373D01*
X226410Y62336D01*
X226370Y62300D01*
X226341Y62267D01*
X226315Y62238D01*
X226301Y62220D01*
X226297Y62216D01*
Y62213D01*
X226260Y62147D01*
X226235Y62071D01*
X226213Y61991D01*
X226202Y61918D01*
X226195Y61849D01*
X226191Y61820D01*
X226188Y61794D01*
Y61772D01*
Y61758D01*
Y61747D01*
Y61743D01*
X226191Y61641D01*
X226199Y61550D01*
X226213Y61466D01*
X226228Y61394D01*
X226235Y61361D01*
X226242Y61332D01*
X226250Y61306D01*
X226257Y61288D01*
X226260Y61270D01*
X226264Y61259D01*
X226268Y61252D01*
Y61248D01*
X226297Y61172D01*
X226333Y61099D01*
X226366Y61033D01*
X226399Y60975D01*
X226428Y60931D01*
X226453Y60895D01*
X226468Y60873D01*
X226475Y60870D01*
Y60866D01*
X226515Y60822D01*
X226552Y60782D01*
X226592Y60746D01*
X226624Y60717D01*
X226654Y60695D01*
X226675Y60677D01*
X226690Y60666D01*
X226697Y60662D01*
X226774Y60622D01*
X226810Y60607D01*
X226847Y60593D01*
X226876Y60582D01*
X226901Y60578D01*
X226916Y60571D01*
X226923D01*
X227003Y60553D01*
X227087Y60542D01*
X227167Y60531D01*
X227240Y60527D01*
X227305Y60524D01*
X227334Y60520D01*
X227800D01*
X227393Y62471D01*
D02*
G37*
G36*
X235219Y42443D02*
X234328D01*
X234269Y42440D01*
X234222Y42432D01*
X234186Y42429D01*
X234156Y42422D01*
X234135Y42414D01*
X234124Y42411D01*
X234120D01*
X234091Y42396D01*
X234062Y42382D01*
X234040Y42363D01*
X234022Y42345D01*
X234007Y42327D01*
X233996Y42312D01*
X233989Y42301D01*
X233985Y42298D01*
X233967Y42265D01*
X233956Y42236D01*
X233945Y42203D01*
X233942Y42174D01*
X233938Y42149D01*
X233934Y42127D01*
Y42112D01*
Y42109D01*
X233938Y42061D01*
X233945Y42014D01*
X233956Y41974D01*
X233967Y41937D01*
X233982Y41908D01*
X233993Y41883D01*
X234000Y41868D01*
X234004Y41865D01*
X234029Y41825D01*
X234062Y41788D01*
X234091Y41759D01*
X234124Y41730D01*
X234149Y41712D01*
X234171Y41694D01*
X234186Y41686D01*
X234193Y41683D01*
X234240Y41661D01*
X234295Y41643D01*
X234346Y41628D01*
X234397Y41617D01*
X234440Y41610D01*
X234473Y41603D01*
X234488D01*
X234499Y41599D01*
X234528D01*
X234553Y41595D01*
X234684D01*
X234753Y41592D01*
X235398D01*
X235219Y42443D01*
D02*
G37*
G36*
X50547Y116290D02*
X48940D01*
X48711Y116268D01*
X48514Y116257D01*
X48350Y116235D01*
X48219Y116213D01*
X48131Y116191D01*
X48087Y116181D01*
X48066Y116170D01*
X47891Y116093D01*
X47727Y115995D01*
X47596Y115885D01*
X47475Y115776D01*
X47388Y115678D01*
X47311Y115590D01*
X47268Y115536D01*
X47257Y115525D01*
Y115514D01*
X47148Y115317D01*
X47071Y115088D01*
X47005Y114847D01*
X46973Y114629D01*
X46951Y114421D01*
X46940Y114333D01*
X46929Y114257D01*
Y114191D01*
Y114148D01*
Y114115D01*
Y114104D01*
X46940Y113798D01*
X46962Y113525D01*
X47005Y113273D01*
X47049Y113055D01*
X47071Y112956D01*
X47093Y112869D01*
X47115Y112792D01*
X47137Y112738D01*
X47148Y112683D01*
X47158Y112650D01*
X47169Y112628D01*
Y112617D01*
X47257Y112388D01*
X47366Y112169D01*
X47464Y111972D01*
X47563Y111798D01*
X47650Y111667D01*
X47727Y111557D01*
X47771Y111492D01*
X47792Y111481D01*
Y111470D01*
X47913Y111339D01*
X48022Y111218D01*
X48142Y111109D01*
X48241Y111022D01*
X48328Y110956D01*
X48393Y110901D01*
X48437Y110869D01*
X48459Y110858D01*
X48689Y110737D01*
X48798Y110694D01*
X48907Y110650D01*
X48995Y110617D01*
X49071Y110606D01*
X49115Y110584D01*
X49137D01*
X49377Y110530D01*
X49629Y110497D01*
X49869Y110464D01*
X50088Y110453D01*
X50284Y110442D01*
X50372Y110431D01*
X51771D01*
X50547Y116290D01*
D02*
G37*
%LPD*%
D13*
X148031Y137402D02*
X148031Y394D01*
X98425Y0D02*
Y137402D01*
D16*
X144095Y135432D02*
Y131496D01*
Y132808D01*
X141471Y135432D01*
X143438Y133464D01*
X141471Y131496D01*
X140159Y135432D02*
Y131496D01*
Y133464D01*
X139503Y134120D01*
X138191D01*
X137535Y133464D01*
Y131496D01*
X135567D02*
X134255D01*
X133599Y132152D01*
Y133464D01*
X134255Y134120D01*
X135567D01*
X136223Y133464D01*
Y132152D01*
X135567Y131496D01*
X132287D02*
X130975D01*
X131631D01*
Y134120D01*
X132287D01*
X125072Y131496D02*
Y135432D01*
X122448Y131496D01*
Y135432D01*
X119824Y130184D02*
X119168D01*
X118512Y130840D01*
Y134120D01*
X120480D01*
X121136Y133464D01*
Y132152D01*
X120480Y131496D01*
X118512D01*
X117200Y134120D02*
Y132152D01*
X116544Y131496D01*
X114576D01*
Y134120D01*
X113265D02*
Y132152D01*
X112609Y131496D01*
X110641D01*
Y130840D01*
X111297Y130184D01*
X111953D01*
X110641Y131496D02*
Y134120D01*
X107361Y131496D02*
X108673D01*
X109329Y132152D01*
Y133464D01*
X108673Y134120D01*
X107361D01*
X106705Y133464D01*
Y132808D01*
X109329D01*
X105393Y131496D02*
Y134120D01*
X103425D01*
X102769Y133464D01*
Y131496D01*
M02*
