G04*
G04 #@! TF.GenerationSoftware,Altium Limited,Altium Designer,18.1.11 (251)*
G04*
G04 Layer_Color=65535*
%FSLAX25Y25*%
%MOIN*%
G70*
G01*
G75*
%ADD10C,0.00984*%
%ADD11C,0.02362*%
%ADD12C,0.01181*%
%ADD13C,0.00787*%
%ADD14C,0.00500*%
%ADD15C,0.00394*%
%ADD16C,0.00591*%
G36*
X54360Y127165D02*
X53365D01*
X54109Y130728D01*
X50174D01*
X49420Y127165D01*
X48425D01*
X50010Y134729D01*
X51005D01*
X50349Y131581D01*
X54284D01*
X54940Y134729D01*
X55945D01*
X54360Y127165D01*
D02*
G37*
G36*
X59443D02*
X58350D01*
X56907Y134729D01*
X57880D01*
X58754Y130215D01*
Y130204D01*
X58765Y130160D01*
X58776Y130095D01*
X58787Y130007D01*
X58809Y129909D01*
X58831Y129789D01*
X58852Y129657D01*
X58885Y129504D01*
X58929Y129198D01*
X58984Y128859D01*
X59027Y128542D01*
X59049Y128379D01*
X59071Y128236D01*
X59082Y128247D01*
X59093Y128280D01*
X59115Y128324D01*
X59148Y128400D01*
X59191Y128477D01*
X59235Y128575D01*
X59355Y128794D01*
X59475Y129034D01*
X59607Y129286D01*
X59738Y129537D01*
X59858Y129767D01*
X62547Y134729D01*
X63596D01*
X59443Y127165D01*
D02*
G37*
G36*
X120336Y25822D02*
X120434D01*
X120533Y25811D01*
X120642Y25789D01*
X120893Y25756D01*
X121145Y25701D01*
X121407Y25625D01*
X121658Y25516D01*
X121669D01*
X121691Y25505D01*
X121724Y25483D01*
X121768Y25461D01*
X121877Y25395D01*
X122008Y25297D01*
X122161Y25177D01*
X122314Y25035D01*
X122456Y24871D01*
X122576Y24685D01*
Y24674D01*
X122587Y24663D01*
X122620Y24598D01*
X122675Y24499D01*
X122729Y24368D01*
X122773Y24226D01*
X122828Y24062D01*
X122861Y23887D01*
X122871Y23712D01*
Y23701D01*
Y23668D01*
Y23625D01*
Y23548D01*
X121888Y23472D01*
Y23483D01*
Y23526D01*
Y23581D01*
X121877Y23658D01*
X121866Y23821D01*
X121844Y23898D01*
X121822Y23975D01*
Y23985D01*
X121800Y24029D01*
X121779Y24084D01*
X121746Y24160D01*
X121647Y24335D01*
X121582Y24423D01*
X121505Y24510D01*
X121494Y24521D01*
X121461Y24543D01*
X121418Y24587D01*
X121352Y24641D01*
X121265Y24696D01*
X121156Y24750D01*
X121035Y24805D01*
X120904Y24860D01*
X120882Y24871D01*
X120838Y24882D01*
X120762Y24904D01*
X120664Y24936D01*
X120543Y24958D01*
X120401Y24980D01*
X120237Y24991D01*
X120073Y25002D01*
X119997D01*
X119942Y24991D01*
X119866D01*
X119789Y24980D01*
X119603Y24958D01*
X119396Y24904D01*
X119177Y24838D01*
X118970Y24750D01*
X118784Y24619D01*
X118773Y24608D01*
X118729Y24565D01*
X118674Y24510D01*
X118620Y24423D01*
X118554Y24313D01*
X118500Y24182D01*
X118456Y24029D01*
X118445Y23865D01*
Y23854D01*
Y23821D01*
X118456Y23767D01*
X118467Y23701D01*
X118510Y23537D01*
X118543Y23450D01*
X118587Y23362D01*
X118598Y23351D01*
X118620Y23330D01*
X118652Y23286D01*
X118707Y23231D01*
X118773Y23166D01*
X118860Y23089D01*
X118970Y23013D01*
X119101Y22936D01*
X119112Y22925D01*
X119155Y22903D01*
X119243Y22860D01*
X119297Y22838D01*
X119363Y22805D01*
X119439Y22761D01*
X119538Y22717D01*
X119636Y22674D01*
X119756Y22619D01*
X119888Y22554D01*
X120041Y22488D01*
X120205Y22411D01*
X120379Y22335D01*
X120390D01*
X120412Y22324D01*
X120456Y22302D01*
X120511Y22280D01*
X120576Y22248D01*
X120653Y22215D01*
X120828Y22127D01*
X121002Y22040D01*
X121188Y21941D01*
X121363Y21854D01*
X121429Y21810D01*
X121494Y21767D01*
X121516Y21756D01*
X121560Y21723D01*
X121636Y21657D01*
X121735Y21581D01*
X121833Y21482D01*
X121942Y21373D01*
X122041Y21242D01*
X122128Y21100D01*
X122139Y21078D01*
X122161Y21034D01*
X122205Y20958D01*
X122248Y20849D01*
X122281Y20717D01*
X122325Y20575D01*
X122347Y20400D01*
X122358Y20225D01*
Y20215D01*
Y20193D01*
Y20160D01*
X122347Y20116D01*
X122336Y19996D01*
X122314Y19854D01*
X122259Y19668D01*
X122194Y19482D01*
X122106Y19275D01*
X121975Y19078D01*
Y19067D01*
X121953Y19056D01*
X121910Y18990D01*
X121822Y18903D01*
X121702Y18783D01*
X121560Y18663D01*
X121385Y18520D01*
X121177Y18400D01*
X120937Y18280D01*
X120926D01*
X120904Y18269D01*
X120871Y18258D01*
X120817Y18236D01*
X120762Y18214D01*
X120686Y18192D01*
X120598Y18171D01*
X120500Y18149D01*
X120281Y18094D01*
X120030Y18050D01*
X119735Y18018D01*
X119429Y18007D01*
X119308D01*
X119221Y18018D01*
X119112Y18029D01*
X118980Y18040D01*
X118838Y18050D01*
X118685Y18072D01*
X118357Y18138D01*
X118008Y18247D01*
X117833Y18302D01*
X117658Y18378D01*
X117494Y18466D01*
X117330Y18564D01*
X117319Y18575D01*
X117297Y18586D01*
X117253Y18630D01*
X117199Y18673D01*
X117144Y18739D01*
X117079Y18815D01*
X117002Y18914D01*
X116926Y19023D01*
X116849Y19154D01*
X116773Y19296D01*
X116707Y19460D01*
X116652Y19646D01*
X116598Y19854D01*
X116554Y20073D01*
X116532Y20313D01*
X116521Y20575D01*
X117516Y20674D01*
X117505Y20400D01*
Y20379D01*
Y20324D01*
X117516Y20247D01*
X117527Y20138D01*
X117549Y20007D01*
X117592Y19876D01*
X117636Y19734D01*
X117702Y19592D01*
X117712Y19581D01*
X117745Y19537D01*
X117789Y19471D01*
X117855Y19384D01*
X117953Y19296D01*
X118062Y19209D01*
X118193Y19111D01*
X118357Y19034D01*
X118368D01*
X118379Y19023D01*
X118445Y19001D01*
X118543Y18969D01*
X118674Y18936D01*
X118838Y18903D01*
X119024Y18870D01*
X119243Y18848D01*
X119472Y18837D01*
X119560D01*
X119625Y18848D01*
X119702D01*
X119789Y18859D01*
X119986Y18892D01*
X120215Y18936D01*
X120445Y19001D01*
X120664Y19100D01*
X120860Y19231D01*
X120871D01*
X120882Y19253D01*
X120937Y19307D01*
X121013Y19384D01*
X121101Y19493D01*
X121188Y19635D01*
X121265Y19788D01*
X121319Y19963D01*
X121341Y20051D01*
Y20149D01*
Y20160D01*
Y20204D01*
X121330Y20280D01*
X121309Y20357D01*
X121276Y20455D01*
X121232Y20564D01*
X121166Y20685D01*
X121079Y20794D01*
X121068Y20805D01*
X121024Y20849D01*
X120981Y20881D01*
X120937Y20914D01*
X120882Y20958D01*
X120806Y21001D01*
X120729Y21056D01*
X120620Y21111D01*
X120511Y21176D01*
X120379Y21253D01*
X120226Y21329D01*
X120062Y21406D01*
X119877Y21493D01*
X119669Y21581D01*
X119658D01*
X119625Y21603D01*
X119582Y21614D01*
X119527Y21646D01*
X119450Y21679D01*
X119374Y21712D01*
X119188Y21799D01*
X118980Y21898D01*
X118784Y21996D01*
X118598Y22095D01*
X118521Y22138D01*
X118456Y22182D01*
X118445D01*
X118434Y22193D01*
X118368Y22237D01*
X118281Y22302D01*
X118172Y22401D01*
X118051Y22499D01*
X117920Y22630D01*
X117800Y22761D01*
X117702Y22903D01*
X117691Y22925D01*
X117669Y22980D01*
X117625Y23056D01*
X117581Y23166D01*
X117538Y23308D01*
X117494Y23461D01*
X117472Y23625D01*
X117461Y23810D01*
Y23821D01*
Y23832D01*
Y23865D01*
Y23909D01*
X117483Y24018D01*
X117505Y24160D01*
X117538Y24324D01*
X117592Y24499D01*
X117669Y24685D01*
X117778Y24860D01*
Y24871D01*
X117789Y24882D01*
X117833Y24936D01*
X117909Y25024D01*
X118019Y25122D01*
X118150Y25242D01*
X118303Y25363D01*
X118489Y25483D01*
X118707Y25581D01*
X118718D01*
X118740Y25592D01*
X118773Y25603D01*
X118816Y25625D01*
X118871Y25636D01*
X118948Y25658D01*
X119112Y25712D01*
X119319Y25756D01*
X119560Y25789D01*
X119822Y25822D01*
X120106Y25833D01*
X120259D01*
X120336Y25822D01*
D02*
G37*
G36*
X131506Y18990D02*
X135419D01*
X135233Y18138D01*
X130326D01*
X131911Y25701D01*
X132905D01*
X131506Y18990D01*
D02*
G37*
G36*
X129342Y18138D02*
X128358D01*
X128009Y20313D01*
X124937D01*
X123724Y18138D01*
X122609D01*
X126894Y25701D01*
X128096D01*
X129342Y18138D01*
D02*
G37*
G36*
X116630Y24849D02*
X114171D01*
X112761Y18138D01*
X111767D01*
X113166Y24849D01*
X110630D01*
X110816Y25701D01*
X116805D01*
X116630Y24849D01*
D02*
G37*
G36*
X128654Y8898D02*
X127560D01*
X126118Y16461D01*
X127091D01*
X127965Y11947D01*
Y11936D01*
X127976Y11892D01*
X127987Y11827D01*
X127998Y11739D01*
X128019Y11641D01*
X128041Y11521D01*
X128063Y11390D01*
X128096Y11237D01*
X128140Y10931D01*
X128194Y10592D01*
X128238Y10275D01*
X128260Y10111D01*
X128282Y9969D01*
X128293Y9980D01*
X128304Y10012D01*
X128326Y10056D01*
X128358Y10133D01*
X128402Y10209D01*
X128446Y10308D01*
X128566Y10526D01*
X128686Y10767D01*
X128817Y11018D01*
X128949Y11270D01*
X129069Y11499D01*
X131758Y16461D01*
X132807D01*
X128654Y8898D01*
D02*
G37*
G36*
X138272D02*
X137343D01*
X138534Y14603D01*
X138523Y14592D01*
X138501Y14581D01*
X138458Y14548D01*
X138392Y14505D01*
X138316Y14450D01*
X138217Y14395D01*
X138097Y14319D01*
X137966Y14253D01*
X137824Y14177D01*
X137660Y14100D01*
X137485Y14013D01*
X137288Y13936D01*
X137070Y13849D01*
X136851Y13772D01*
X136610Y13696D01*
X136348Y13630D01*
X136523Y14472D01*
X136534D01*
X136556Y14483D01*
X136589Y14505D01*
X136643Y14527D01*
X136709Y14548D01*
X136785Y14581D01*
X136960Y14669D01*
X137168Y14767D01*
X137398Y14887D01*
X137649Y15029D01*
X137900Y15193D01*
X137911Y15204D01*
X137933Y15215D01*
X137966Y15237D01*
X138010Y15270D01*
X138130Y15357D01*
X138283Y15467D01*
X138447Y15587D01*
X138622Y15718D01*
X138786Y15849D01*
X138928Y15980D01*
X138939Y15991D01*
X138961Y16013D01*
X139004Y16068D01*
X139048Y16122D01*
X139102Y16199D01*
X139168Y16286D01*
X139245Y16385D01*
X139310Y16494D01*
X139857D01*
X138272Y8898D01*
D02*
G37*
G36*
X125101Y15609D02*
X120609D01*
X120117Y13237D01*
X124522D01*
X124336Y12384D01*
X119931D01*
X119385Y9750D01*
X124183D01*
X123997Y8898D01*
X118204D01*
X119789Y16461D01*
X125287D01*
X125101Y15609D01*
D02*
G37*
G36*
X115712Y16450D02*
X115920Y16439D01*
X116149Y16418D01*
X116379Y16396D01*
X116609Y16352D01*
X116805Y16297D01*
X116816D01*
X116827Y16286D01*
X116882Y16264D01*
X116980Y16221D01*
X117089Y16166D01*
X117210Y16090D01*
X117341Y15980D01*
X117461Y15860D01*
X117570Y15707D01*
X117581Y15685D01*
X117614Y15631D01*
X117658Y15532D01*
X117712Y15412D01*
X117767Y15248D01*
X117811Y15062D01*
X117844Y14854D01*
X117855Y14614D01*
Y14603D01*
Y14570D01*
Y14527D01*
X117844Y14461D01*
X117833Y14385D01*
X117822Y14286D01*
X117778Y14078D01*
X117702Y13827D01*
X117592Y13576D01*
X117527Y13444D01*
X117450Y13313D01*
X117352Y13193D01*
X117243Y13073D01*
X117232Y13062D01*
X117210Y13051D01*
X117177Y13018D01*
X117133Y12975D01*
X117068Y12931D01*
X116980Y12876D01*
X116882Y12811D01*
X116773Y12756D01*
X116652Y12690D01*
X116499Y12625D01*
X116346Y12559D01*
X116171Y12494D01*
X115975Y12439D01*
X115767Y12384D01*
X115538Y12330D01*
X115297Y12297D01*
X115319Y12286D01*
X115363Y12242D01*
X115439Y12188D01*
X115526Y12111D01*
X115636Y12013D01*
X115734Y11914D01*
X115833Y11805D01*
X115920Y11696D01*
X115931Y11685D01*
X115942Y11663D01*
X115964Y11630D01*
X115997Y11575D01*
X116040Y11521D01*
X116084Y11444D01*
X116193Y11270D01*
X116314Y11062D01*
X116434Y10832D01*
X116565Y10581D01*
X116674Y10318D01*
X117253Y8898D01*
X116128D01*
X115581Y10308D01*
Y10318D01*
X115570Y10340D01*
X115548Y10384D01*
X115526Y10439D01*
X115505Y10504D01*
X115472Y10581D01*
X115384Y10756D01*
X115286Y10963D01*
X115177Y11182D01*
X115046Y11401D01*
X114915Y11619D01*
X114903Y11641D01*
X114871Y11685D01*
X114816Y11750D01*
X114751Y11827D01*
X114674Y11914D01*
X114587Y11991D01*
X114488Y12067D01*
X114390Y12122D01*
X114379Y12133D01*
X114335Y12144D01*
X114270Y12166D01*
X114182Y12188D01*
X114062Y12209D01*
X113909Y12231D01*
X113723Y12253D01*
X112335D01*
X111625Y8898D01*
X110630D01*
X112215Y16461D01*
X115614D01*
X115712Y16450D01*
D02*
G37*
G36*
X90435Y107130D02*
X90103D01*
X90351Y108317D01*
X89040D01*
X88789Y107130D01*
X88458D01*
X88986Y109649D01*
X89317D01*
X89099Y108601D01*
X90409D01*
X90627Y109649D01*
X90962D01*
X90435Y107130D01*
D02*
G37*
G36*
X88247Y107887D02*
X87297D01*
X87362Y108197D01*
X88309D01*
X88247Y107887D01*
D02*
G37*
G36*
X92127Y107130D02*
X91763D01*
X91283Y109649D01*
X91607D01*
X91898Y108146D01*
Y108142D01*
X91901Y108128D01*
X91905Y108106D01*
X91909Y108077D01*
X91916Y108044D01*
X91923Y108004D01*
X91931Y107960D01*
X91941Y107909D01*
X91956Y107807D01*
X91974Y107694D01*
X91989Y107589D01*
X91996Y107534D01*
X92003Y107487D01*
X92007Y107491D01*
X92011Y107502D01*
X92018Y107516D01*
X92029Y107542D01*
X92044Y107567D01*
X92058Y107600D01*
X92098Y107673D01*
X92138Y107753D01*
X92182Y107836D01*
X92225Y107920D01*
X92265Y107997D01*
X93161Y109649D01*
X93510D01*
X92127Y107130D01*
D02*
G37*
G36*
X86067D02*
X85703D01*
X85222Y109649D01*
X85546D01*
X85837Y108146D01*
Y108142D01*
X85841Y108128D01*
X85844Y108106D01*
X85848Y108077D01*
X85856Y108044D01*
X85863Y108004D01*
X85870Y107960D01*
X85881Y107909D01*
X85896Y107807D01*
X85914Y107694D01*
X85928Y107589D01*
X85935Y107534D01*
X85943Y107487D01*
X85947Y107491D01*
X85950Y107502D01*
X85957Y107516D01*
X85968Y107542D01*
X85983Y107567D01*
X85997Y107600D01*
X86037Y107673D01*
X86077Y107753D01*
X86121Y107836D01*
X86165Y107920D01*
X86205Y107997D01*
X87100Y109649D01*
X87450D01*
X86067Y107130D01*
D02*
G37*
G36*
X84782Y109333D02*
X83821D01*
X83631Y108688D01*
X83635Y108692D01*
X83650Y108699D01*
X83671Y108714D01*
X83701Y108732D01*
X83733Y108750D01*
X83770Y108768D01*
X83850Y108805D01*
X83854Y108808D01*
X83868Y108812D01*
X83894Y108819D01*
X83923Y108826D01*
X83955Y108834D01*
X83995Y108837D01*
X84039Y108845D01*
X84112D01*
X84130Y108841D01*
X84156Y108837D01*
X84185Y108834D01*
X84250Y108819D01*
X84323Y108797D01*
X84403Y108765D01*
X84443Y108743D01*
X84483Y108717D01*
X84520Y108685D01*
X84556Y108652D01*
X84560Y108648D01*
X84563Y108644D01*
X84574Y108634D01*
X84585Y108615D01*
X84600Y108597D01*
X84614Y108575D01*
X84632Y108546D01*
X84651Y108517D01*
X84669Y108481D01*
X84687Y108441D01*
X84702Y108397D01*
X84716Y108350D01*
X84727Y108299D01*
X84738Y108248D01*
X84742Y108189D01*
X84745Y108128D01*
Y108124D01*
Y108117D01*
Y108098D01*
X84742Y108080D01*
Y108055D01*
X84738Y108022D01*
X84734Y107989D01*
X84731Y107953D01*
X84712Y107869D01*
X84691Y107782D01*
X84662Y107687D01*
X84618Y107593D01*
Y107589D01*
X84611Y107582D01*
X84603Y107571D01*
X84596Y107553D01*
X84567Y107509D01*
X84527Y107454D01*
X84476Y107392D01*
X84414Y107331D01*
X84345Y107272D01*
X84265Y107218D01*
X84261D01*
X84254Y107210D01*
X84243Y107207D01*
X84225Y107196D01*
X84206Y107188D01*
X84181Y107178D01*
X84123Y107152D01*
X84050Y107127D01*
X83970Y107108D01*
X83879Y107094D01*
X83784Y107087D01*
X83748D01*
X83708Y107090D01*
X83657Y107097D01*
X83595Y107108D01*
X83533Y107127D01*
X83468Y107149D01*
X83402Y107181D01*
X83395Y107185D01*
X83373Y107200D01*
X83344Y107221D01*
X83307Y107250D01*
X83267Y107290D01*
X83227Y107338D01*
X83187Y107389D01*
X83151Y107451D01*
Y107454D01*
X83147Y107458D01*
X83140Y107480D01*
X83126Y107516D01*
X83111Y107560D01*
X83096Y107611D01*
X83082Y107669D01*
X83074Y107731D01*
X83071Y107796D01*
Y107800D01*
Y107811D01*
Y107826D01*
Y107851D01*
X83384Y107884D01*
Y107880D01*
Y107873D01*
Y107847D01*
Y107818D01*
Y107807D01*
Y107800D01*
Y107796D01*
Y107782D01*
X83388Y107760D01*
X83391Y107731D01*
X83398Y107694D01*
X83406Y107654D01*
X83420Y107614D01*
X83438Y107571D01*
X83442Y107567D01*
X83449Y107553D01*
X83464Y107531D01*
X83478Y107505D01*
X83504Y107476D01*
X83530Y107447D01*
X83559Y107418D01*
X83595Y107392D01*
X83599Y107389D01*
X83613Y107385D01*
X83631Y107374D01*
X83657Y107363D01*
X83690Y107352D01*
X83726Y107345D01*
X83766Y107338D01*
X83806Y107334D01*
X83832D01*
X83861Y107338D01*
X83897Y107345D01*
X83941Y107360D01*
X83988Y107374D01*
X84043Y107400D01*
X84097Y107432D01*
X84105Y107436D01*
X84123Y107451D01*
X84152Y107473D01*
X84185Y107505D01*
X84225Y107545D01*
X84265Y107596D01*
X84305Y107654D01*
X84341Y107720D01*
Y107724D01*
X84345Y107727D01*
X84348Y107738D01*
X84356Y107753D01*
X84370Y107793D01*
X84389Y107840D01*
X84407Y107898D01*
X84421Y107964D01*
X84432Y108033D01*
X84436Y108102D01*
Y108106D01*
Y108113D01*
Y108124D01*
X84432Y108139D01*
X84429Y108175D01*
X84421Y108222D01*
X84403Y108277D01*
X84381Y108335D01*
X84352Y108390D01*
X84308Y108441D01*
X84301Y108448D01*
X84287Y108463D01*
X84258Y108481D01*
X84221Y108506D01*
X84174Y108528D01*
X84119Y108550D01*
X84054Y108564D01*
X83981Y108568D01*
X83959D01*
X83934Y108564D01*
X83897Y108561D01*
X83857Y108554D01*
X83813Y108539D01*
X83770Y108524D01*
X83722Y108503D01*
X83719Y108499D01*
X83701Y108492D01*
X83679Y108474D01*
X83650Y108455D01*
X83617Y108426D01*
X83577Y108393D01*
X83540Y108353D01*
X83500Y108310D01*
X83231Y108328D01*
X83610Y109616D01*
X84840D01*
X84782Y109333D01*
D02*
G37*
G36*
X165503Y126712D02*
X165499D01*
X165485D01*
X165466D01*
X165441Y126708D01*
X165386Y126705D01*
X165361Y126697D01*
X165335Y126690D01*
X165332D01*
X165317Y126683D01*
X165299Y126675D01*
X165273Y126665D01*
X165215Y126632D01*
X165186Y126610D01*
X165157Y126584D01*
X165153Y126581D01*
X165146Y126570D01*
X165131Y126555D01*
X165113Y126533D01*
X165095Y126504D01*
X165077Y126468D01*
X165059Y126428D01*
X165041Y126384D01*
X165037Y126377D01*
X165033Y126362D01*
X165026Y126337D01*
X165015Y126304D01*
X165008Y126264D01*
X165000Y126217D01*
X164997Y126162D01*
X164993Y126108D01*
Y126082D01*
X164997Y126064D01*
Y126039D01*
X165000Y126013D01*
X165008Y125951D01*
X165026Y125882D01*
X165048Y125809D01*
X165077Y125740D01*
X165121Y125678D01*
X165124Y125674D01*
X165139Y125660D01*
X165157Y125642D01*
X165186Y125624D01*
X165223Y125602D01*
X165266Y125584D01*
X165317Y125569D01*
X165372Y125565D01*
X165375D01*
X165386D01*
X165404Y125569D01*
X165426Y125573D01*
X165481Y125587D01*
X165510Y125598D01*
X165539Y125613D01*
X165543Y125616D01*
X165550Y125624D01*
X165565Y125634D01*
X165583Y125653D01*
X165605Y125674D01*
X165630Y125704D01*
X165656Y125740D01*
X165681Y125784D01*
X165685Y125787D01*
X165692Y125802D01*
X165707Y125831D01*
X165714Y125849D01*
X165725Y125871D01*
X165739Y125897D01*
X165754Y125929D01*
X165769Y125962D01*
X165787Y126002D01*
X165809Y126046D01*
X165830Y126097D01*
X165856Y126151D01*
X165881Y126209D01*
Y126213D01*
X165885Y126221D01*
X165892Y126235D01*
X165900Y126253D01*
X165910Y126275D01*
X165921Y126301D01*
X165951Y126359D01*
X165980Y126417D01*
X166012Y126479D01*
X166042Y126537D01*
X166056Y126559D01*
X166071Y126581D01*
X166074Y126588D01*
X166085Y126603D01*
X166107Y126628D01*
X166132Y126661D01*
X166165Y126694D01*
X166202Y126730D01*
X166245Y126763D01*
X166293Y126792D01*
X166300Y126796D01*
X166315Y126803D01*
X166340Y126817D01*
X166376Y126832D01*
X166420Y126843D01*
X166467Y126857D01*
X166526Y126865D01*
X166584Y126868D01*
X166588D01*
X166595D01*
X166606D01*
X166620Y126865D01*
X166660Y126861D01*
X166708Y126854D01*
X166770Y126836D01*
X166831Y126814D01*
X166901Y126785D01*
X166966Y126741D01*
X166970D01*
X166973Y126734D01*
X166995Y126719D01*
X167024Y126690D01*
X167064Y126650D01*
X167104Y126603D01*
X167152Y126544D01*
X167192Y126475D01*
X167232Y126395D01*
Y126392D01*
X167236Y126384D01*
X167239Y126373D01*
X167246Y126355D01*
X167254Y126337D01*
X167261Y126312D01*
X167268Y126282D01*
X167276Y126250D01*
X167294Y126177D01*
X167308Y126093D01*
X167319Y125995D01*
X167323Y125893D01*
Y125853D01*
X167319Y125824D01*
X167316Y125787D01*
X167312Y125744D01*
X167308Y125696D01*
X167301Y125645D01*
X167279Y125536D01*
X167243Y125420D01*
X167225Y125361D01*
X167199Y125303D01*
X167170Y125249D01*
X167137Y125194D01*
X167133Y125190D01*
X167130Y125183D01*
X167115Y125169D01*
X167101Y125150D01*
X167079Y125132D01*
X167053Y125110D01*
X167021Y125085D01*
X166984Y125059D01*
X166941Y125034D01*
X166893Y125008D01*
X166839Y124987D01*
X166777Y124968D01*
X166708Y124950D01*
X166635Y124935D01*
X166555Y124928D01*
X166467Y124925D01*
X166435Y125256D01*
X166526Y125252D01*
X166533D01*
X166551D01*
X166577Y125256D01*
X166613Y125259D01*
X166657Y125267D01*
X166700Y125281D01*
X166748Y125296D01*
X166795Y125318D01*
X166799Y125321D01*
X166813Y125332D01*
X166835Y125347D01*
X166864Y125369D01*
X166893Y125401D01*
X166922Y125438D01*
X166955Y125481D01*
X166981Y125536D01*
Y125540D01*
X166984Y125543D01*
X166992Y125565D01*
X167002Y125598D01*
X167013Y125642D01*
X167024Y125696D01*
X167035Y125758D01*
X167043Y125831D01*
X167046Y125907D01*
Y125937D01*
X167043Y125958D01*
Y125984D01*
X167039Y126013D01*
X167028Y126078D01*
X167013Y126155D01*
X166992Y126231D01*
X166959Y126304D01*
X166915Y126370D01*
Y126373D01*
X166908Y126377D01*
X166890Y126395D01*
X166864Y126421D01*
X166828Y126450D01*
X166780Y126479D01*
X166729Y126504D01*
X166671Y126523D01*
X166642Y126530D01*
X166609D01*
X166606D01*
X166591D01*
X166566Y126526D01*
X166540Y126519D01*
X166507Y126508D01*
X166471Y126494D01*
X166431Y126472D01*
X166395Y126443D01*
X166391Y126439D01*
X166376Y126424D01*
X166366Y126410D01*
X166355Y126395D01*
X166340Y126377D01*
X166325Y126351D01*
X166307Y126326D01*
X166289Y126290D01*
X166267Y126253D01*
X166242Y126209D01*
X166216Y126159D01*
X166191Y126104D01*
X166162Y126042D01*
X166132Y125973D01*
Y125969D01*
X166125Y125958D01*
X166122Y125944D01*
X166111Y125926D01*
X166100Y125900D01*
X166089Y125875D01*
X166060Y125813D01*
X166027Y125744D01*
X165994Y125678D01*
X165962Y125616D01*
X165947Y125591D01*
X165932Y125569D01*
Y125565D01*
X165929Y125562D01*
X165914Y125540D01*
X165892Y125511D01*
X165859Y125474D01*
X165827Y125434D01*
X165783Y125391D01*
X165739Y125350D01*
X165692Y125318D01*
X165685Y125314D01*
X165667Y125307D01*
X165641Y125292D01*
X165605Y125278D01*
X165557Y125263D01*
X165506Y125249D01*
X165452Y125241D01*
X165390Y125238D01*
X165386D01*
X165383D01*
X165372D01*
X165357D01*
X165321Y125245D01*
X165273Y125252D01*
X165219Y125263D01*
X165161Y125281D01*
X165099Y125307D01*
X165041Y125343D01*
X165037D01*
X165033Y125347D01*
X165015Y125361D01*
X164986Y125387D01*
X164953Y125423D01*
X164913Y125467D01*
X164873Y125518D01*
X164833Y125580D01*
X164800Y125653D01*
Y125656D01*
X164797Y125664D01*
X164793Y125674D01*
X164786Y125689D01*
X164782Y125707D01*
X164775Y125733D01*
X164757Y125787D01*
X164742Y125856D01*
X164731Y125937D01*
X164720Y126024D01*
X164717Y126119D01*
Y126170D01*
X164720Y126195D01*
Y126228D01*
X164724Y126260D01*
X164731Y126297D01*
X164742Y126381D01*
X164760Y126464D01*
X164786Y126552D01*
X164822Y126635D01*
Y126639D01*
X164826Y126646D01*
X164833Y126657D01*
X164840Y126672D01*
X164862Y126708D01*
X164895Y126752D01*
X164935Y126803D01*
X164982Y126854D01*
X165037Y126901D01*
X165099Y126941D01*
X165102D01*
X165106Y126945D01*
X165128Y126956D01*
X165161Y126974D01*
X165204Y126992D01*
X165252Y127007D01*
X165306Y127025D01*
X165365Y127036D01*
X165423Y127040D01*
X165426D01*
X165437D01*
X165452D01*
X165477D01*
X165503Y126712D01*
D02*
G37*
G36*
X166238Y124477D02*
X166242D01*
X166256Y124473D01*
X166274Y124470D01*
X166300Y124462D01*
X166333Y124455D01*
X166369Y124444D01*
X166409Y124433D01*
X166456Y124422D01*
X166551Y124393D01*
X166649Y124357D01*
X166748Y124317D01*
X166795Y124295D01*
X166839Y124269D01*
X166842D01*
X166850Y124262D01*
X166860Y124255D01*
X166875Y124248D01*
X166915Y124218D01*
X166966Y124178D01*
X167021Y124127D01*
X167079Y124066D01*
X167137Y123993D01*
X167192Y123913D01*
Y123909D01*
X167199Y123902D01*
X167203Y123891D01*
X167214Y123873D01*
X167221Y123851D01*
X167232Y123825D01*
X167246Y123796D01*
X167257Y123764D01*
X167283Y123683D01*
X167301Y123596D01*
X167316Y123494D01*
X167323Y123385D01*
Y123338D01*
X167319Y123312D01*
Y123283D01*
X167312Y123217D01*
X167301Y123141D01*
X167283Y123057D01*
X167261Y122974D01*
X167232Y122890D01*
Y122886D01*
X167228Y122883D01*
X167221Y122872D01*
X167214Y122857D01*
X167192Y122817D01*
X167163Y122773D01*
X167126Y122722D01*
X167083Y122671D01*
X167028Y122620D01*
X166970Y122577D01*
X166966D01*
X166963Y122573D01*
X166941Y122562D01*
X166904Y122544D01*
X166860Y122526D01*
X166802Y122508D01*
X166740Y122490D01*
X166668Y122478D01*
X166591Y122475D01*
X166584D01*
X166566D01*
X166533Y122478D01*
X166511Y122482D01*
X166486D01*
X166456Y122486D01*
X166424Y122493D01*
X166384Y122497D01*
X166344Y122504D01*
X166300Y122511D01*
X166249Y122522D01*
X166194Y122533D01*
X166136Y122544D01*
X164760Y122828D01*
Y123163D01*
X166311Y122846D01*
X166315D01*
X166318D01*
X166329Y122843D01*
X166344Y122839D01*
X166376Y122835D01*
X166420Y122828D01*
X166464Y122821D01*
X166511Y122813D01*
X166555Y122810D01*
X166595Y122806D01*
X166598D01*
X166602D01*
X166613D01*
X166628Y122810D01*
X166664Y122813D01*
X166711Y122828D01*
X166766Y122846D01*
X166821Y122875D01*
X166872Y122915D01*
X166897Y122937D01*
X166922Y122966D01*
Y122970D01*
X166926Y122974D01*
X166941Y122995D01*
X166963Y123028D01*
X166984Y123075D01*
X167006Y123134D01*
X167028Y123203D01*
X167043Y123279D01*
X167046Y123367D01*
Y123399D01*
X167043Y123436D01*
X167035Y123483D01*
X167024Y123538D01*
X167010Y123600D01*
X166988Y123662D01*
X166959Y123723D01*
Y123727D01*
X166955Y123731D01*
X166941Y123752D01*
X166922Y123782D01*
X166893Y123818D01*
X166857Y123862D01*
X166813Y123905D01*
X166762Y123945D01*
X166700Y123986D01*
X166697D01*
X166693Y123989D01*
X166682Y123996D01*
X166668Y124004D01*
X166649Y124011D01*
X166624Y124022D01*
X166598Y124033D01*
X166566Y124044D01*
X166529Y124058D01*
X166489Y124073D01*
X166442Y124087D01*
X166395Y124102D01*
X166340Y124117D01*
X166278Y124135D01*
X166216Y124149D01*
X166147Y124164D01*
X164760Y124451D01*
Y124786D01*
X166238Y124477D01*
D02*
G37*
G36*
X165044Y122420D02*
Y121601D01*
X167279Y121132D01*
Y120800D01*
X165044Y121266D01*
Y120422D01*
X164760Y120484D01*
Y122478D01*
X165044Y122420D01*
D02*
G37*
G36*
X167279Y119479D02*
X166555Y119363D01*
Y118340D01*
X167279Y117936D01*
Y117565D01*
X164760Y118991D01*
Y119392D01*
X167279Y119807D01*
Y119479D01*
D02*
G37*
G36*
X165044Y117921D02*
Y117102D01*
X167279Y116633D01*
Y116302D01*
X165044Y116767D01*
Y115923D01*
X164760Y115985D01*
Y117980D01*
X165044Y117921D01*
D02*
G37*
G36*
X164213Y116476D02*
Y116112D01*
X161694Y115632D01*
Y115956D01*
X163197Y116247D01*
X163201D01*
X163215Y116251D01*
X163237Y116254D01*
X163266Y116258D01*
X163299Y116265D01*
X163339Y116272D01*
X163383Y116280D01*
X163434Y116291D01*
X163536Y116305D01*
X163649Y116323D01*
X163754Y116338D01*
X163809Y116345D01*
X163856Y116352D01*
X163852Y116356D01*
X163841Y116360D01*
X163827Y116367D01*
X163802Y116378D01*
X163776Y116393D01*
X163743Y116407D01*
X163671Y116447D01*
X163590Y116487D01*
X163507Y116531D01*
X163423Y116575D01*
X163347Y116614D01*
X161694Y117510D01*
Y117859D01*
X164213Y116476D01*
D02*
G37*
G36*
Y115020D02*
Y113386D01*
X161694Y113914D01*
Y114245D01*
X163929Y113779D01*
Y115082D01*
X164213Y115020D01*
D02*
G37*
G36*
X165503Y115173D02*
X165499D01*
X165485D01*
X165466D01*
X165441Y115169D01*
X165386Y115166D01*
X165361Y115158D01*
X165335Y115151D01*
X165332D01*
X165317Y115144D01*
X165299Y115137D01*
X165273Y115126D01*
X165215Y115093D01*
X165186Y115071D01*
X165157Y115046D01*
X165153Y115042D01*
X165146Y115031D01*
X165131Y115017D01*
X165113Y114995D01*
X165095Y114966D01*
X165077Y114929D01*
X165059Y114889D01*
X165041Y114846D01*
X165037Y114838D01*
X165033Y114824D01*
X165026Y114798D01*
X165015Y114765D01*
X165008Y114725D01*
X165000Y114678D01*
X164997Y114623D01*
X164993Y114569D01*
Y114543D01*
X164997Y114525D01*
Y114500D01*
X165000Y114474D01*
X165008Y114412D01*
X165026Y114343D01*
X165048Y114270D01*
X165077Y114201D01*
X165121Y114139D01*
X165124Y114136D01*
X165139Y114121D01*
X165157Y114103D01*
X165186Y114085D01*
X165223Y114063D01*
X165266Y114045D01*
X165317Y114030D01*
X165372Y114026D01*
X165375D01*
X165386D01*
X165404Y114030D01*
X165426Y114034D01*
X165481Y114048D01*
X165510Y114059D01*
X165539Y114074D01*
X165543Y114077D01*
X165550Y114085D01*
X165565Y114096D01*
X165583Y114114D01*
X165605Y114136D01*
X165630Y114165D01*
X165656Y114201D01*
X165681Y114245D01*
X165685Y114249D01*
X165692Y114263D01*
X165707Y114292D01*
X165714Y114310D01*
X165725Y114332D01*
X165739Y114358D01*
X165754Y114391D01*
X165769Y114423D01*
X165787Y114463D01*
X165809Y114507D01*
X165830Y114558D01*
X165856Y114612D01*
X165881Y114671D01*
Y114674D01*
X165885Y114682D01*
X165892Y114696D01*
X165900Y114714D01*
X165910Y114736D01*
X165921Y114762D01*
X165951Y114820D01*
X165980Y114878D01*
X166012Y114940D01*
X166042Y114998D01*
X166056Y115020D01*
X166071Y115042D01*
X166074Y115049D01*
X166085Y115064D01*
X166107Y115089D01*
X166132Y115122D01*
X166165Y115155D01*
X166202Y115191D01*
X166245Y115224D01*
X166293Y115253D01*
X166300Y115257D01*
X166315Y115264D01*
X166340Y115279D01*
X166376Y115293D01*
X166420Y115304D01*
X166467Y115319D01*
X166526Y115326D01*
X166584Y115330D01*
X166588D01*
X166595D01*
X166606D01*
X166620Y115326D01*
X166660Y115322D01*
X166708Y115315D01*
X166770Y115297D01*
X166831Y115275D01*
X166901Y115246D01*
X166966Y115202D01*
X166970D01*
X166973Y115195D01*
X166995Y115180D01*
X167024Y115151D01*
X167064Y115111D01*
X167104Y115064D01*
X167152Y115006D01*
X167192Y114936D01*
X167232Y114856D01*
Y114853D01*
X167236Y114846D01*
X167239Y114834D01*
X167246Y114816D01*
X167254Y114798D01*
X167261Y114773D01*
X167268Y114744D01*
X167276Y114711D01*
X167294Y114638D01*
X167308Y114554D01*
X167319Y114456D01*
X167323Y114354D01*
Y114314D01*
X167319Y114285D01*
X167316Y114249D01*
X167312Y114205D01*
X167308Y114157D01*
X167301Y114107D01*
X167279Y113997D01*
X167243Y113881D01*
X167225Y113823D01*
X167199Y113764D01*
X167170Y113710D01*
X167137Y113655D01*
X167133Y113652D01*
X167130Y113644D01*
X167115Y113630D01*
X167101Y113611D01*
X167079Y113593D01*
X167053Y113572D01*
X167021Y113546D01*
X166984Y113521D01*
X166941Y113495D01*
X166893Y113470D01*
X166839Y113448D01*
X166777Y113429D01*
X166708Y113411D01*
X166635Y113397D01*
X166555Y113390D01*
X166467Y113386D01*
X166435Y113717D01*
X166526Y113713D01*
X166533D01*
X166551D01*
X166577Y113717D01*
X166613Y113721D01*
X166657Y113728D01*
X166700Y113743D01*
X166748Y113757D01*
X166795Y113779D01*
X166799Y113783D01*
X166813Y113794D01*
X166835Y113808D01*
X166864Y113830D01*
X166893Y113863D01*
X166922Y113899D01*
X166955Y113943D01*
X166981Y113997D01*
Y114001D01*
X166984Y114005D01*
X166992Y114026D01*
X167002Y114059D01*
X167013Y114103D01*
X167024Y114157D01*
X167035Y114219D01*
X167043Y114292D01*
X167046Y114369D01*
Y114398D01*
X167043Y114420D01*
Y114445D01*
X167039Y114474D01*
X167028Y114540D01*
X167013Y114616D01*
X166992Y114693D01*
X166959Y114765D01*
X166915Y114831D01*
Y114834D01*
X166908Y114838D01*
X166890Y114856D01*
X166864Y114882D01*
X166828Y114911D01*
X166780Y114940D01*
X166729Y114966D01*
X166671Y114984D01*
X166642Y114991D01*
X166609D01*
X166606D01*
X166591D01*
X166566Y114987D01*
X166540Y114980D01*
X166507Y114969D01*
X166471Y114955D01*
X166431Y114933D01*
X166395Y114904D01*
X166391Y114900D01*
X166376Y114885D01*
X166366Y114871D01*
X166355Y114856D01*
X166340Y114838D01*
X166325Y114813D01*
X166307Y114787D01*
X166289Y114751D01*
X166267Y114714D01*
X166242Y114671D01*
X166216Y114620D01*
X166191Y114565D01*
X166162Y114503D01*
X166132Y114434D01*
Y114430D01*
X166125Y114420D01*
X166122Y114405D01*
X166111Y114387D01*
X166100Y114361D01*
X166089Y114336D01*
X166060Y114274D01*
X166027Y114205D01*
X165994Y114139D01*
X165962Y114077D01*
X165947Y114052D01*
X165932Y114030D01*
Y114026D01*
X165929Y114023D01*
X165914Y114001D01*
X165892Y113972D01*
X165859Y113935D01*
X165827Y113895D01*
X165783Y113852D01*
X165739Y113812D01*
X165692Y113779D01*
X165685Y113775D01*
X165667Y113768D01*
X165641Y113753D01*
X165605Y113739D01*
X165557Y113724D01*
X165506Y113710D01*
X165452Y113702D01*
X165390Y113699D01*
X165386D01*
X165383D01*
X165372D01*
X165357D01*
X165321Y113706D01*
X165273Y113713D01*
X165219Y113724D01*
X165161Y113743D01*
X165099Y113768D01*
X165041Y113804D01*
X165037D01*
X165033Y113808D01*
X165015Y113823D01*
X164986Y113848D01*
X164953Y113884D01*
X164913Y113928D01*
X164873Y113979D01*
X164833Y114041D01*
X164800Y114114D01*
Y114118D01*
X164797Y114125D01*
X164793Y114136D01*
X164786Y114150D01*
X164782Y114168D01*
X164775Y114194D01*
X164757Y114249D01*
X164742Y114318D01*
X164731Y114398D01*
X164720Y114485D01*
X164717Y114580D01*
Y114631D01*
X164720Y114656D01*
Y114689D01*
X164724Y114722D01*
X164731Y114758D01*
X164742Y114842D01*
X164760Y114926D01*
X164786Y115013D01*
X164822Y115097D01*
Y115100D01*
X164826Y115108D01*
X164833Y115119D01*
X164840Y115133D01*
X164862Y115169D01*
X164895Y115213D01*
X164935Y115264D01*
X164982Y115315D01*
X165037Y115362D01*
X165099Y115402D01*
X165102D01*
X165106Y115406D01*
X165128Y115417D01*
X165161Y115435D01*
X165204Y115453D01*
X165252Y115468D01*
X165306Y115486D01*
X165365Y115497D01*
X165423Y115501D01*
X165426D01*
X165437D01*
X165452D01*
X165477D01*
X165503Y115173D01*
D02*
G37*
G36*
X113415Y49213D02*
X112421D01*
X113164Y52776D01*
X109229D01*
X108475Y49213D01*
X107480D01*
X109065Y56776D01*
X110060D01*
X109404Y53628D01*
X113339D01*
X113995Y56776D01*
X115000D01*
X113415Y49213D01*
D02*
G37*
G36*
X118498D02*
X117405D01*
X115962Y56776D01*
X116935D01*
X117809Y52262D01*
Y52251D01*
X117820Y52207D01*
X117831Y52142D01*
X117842Y52054D01*
X117864Y51956D01*
X117886Y51836D01*
X117908Y51705D01*
X117940Y51552D01*
X117984Y51246D01*
X118039Y50907D01*
X118082Y50590D01*
X118104Y50426D01*
X118126Y50284D01*
X118137Y50295D01*
X118148Y50327D01*
X118170Y50371D01*
X118203Y50448D01*
X118246Y50524D01*
X118290Y50623D01*
X118410Y50841D01*
X118530Y51082D01*
X118662Y51333D01*
X118793Y51584D01*
X118913Y51814D01*
X121602Y56776D01*
X122651D01*
X118498Y49213D01*
D02*
G37*
G36*
X135264Y50000D02*
X134171D01*
X132728Y57564D01*
X133701D01*
X134575Y53049D01*
Y53039D01*
X134586Y52995D01*
X134597Y52929D01*
X134608Y52842D01*
X134630Y52743D01*
X134652Y52623D01*
X134674Y52492D01*
X134706Y52339D01*
X134750Y52033D01*
X134805Y51694D01*
X134848Y51377D01*
X134870Y51213D01*
X134892Y51071D01*
X134903Y51082D01*
X134914Y51115D01*
X134936Y51159D01*
X134969Y51235D01*
X135012Y51312D01*
X135056Y51410D01*
X135176Y51629D01*
X135297Y51869D01*
X135428Y52120D01*
X135559Y52372D01*
X135679Y52601D01*
X138368Y57564D01*
X139417D01*
X135264Y50000D01*
D02*
G37*
G36*
X127165Y50853D02*
X131078D01*
X130892Y50000D01*
X125984D01*
X127569Y57564D01*
X128564D01*
X127165Y50853D01*
D02*
G37*
G36*
X197515Y135374D02*
X197613D01*
X197711Y135363D01*
X197821Y135341D01*
X198072Y135308D01*
X198323Y135254D01*
X198586Y135177D01*
X198837Y135068D01*
X198848D01*
X198870Y135057D01*
X198903Y135035D01*
X198946Y135013D01*
X199056Y134948D01*
X199187Y134849D01*
X199340Y134729D01*
X199493Y134587D01*
X199635Y134423D01*
X199755Y134237D01*
Y134226D01*
X199766Y134215D01*
X199799Y134150D01*
X199854Y134052D01*
X199908Y133920D01*
X199952Y133778D01*
X200007Y133614D01*
X200039Y133439D01*
X200050Y133265D01*
Y133254D01*
Y133221D01*
Y133177D01*
Y133101D01*
X199067Y133024D01*
Y133035D01*
Y133079D01*
Y133133D01*
X199056Y133210D01*
X199045Y133374D01*
X199023Y133450D01*
X199001Y133527D01*
Y133538D01*
X198979Y133581D01*
X198957Y133636D01*
X198925Y133713D01*
X198826Y133888D01*
X198761Y133975D01*
X198684Y134062D01*
X198673Y134073D01*
X198640Y134095D01*
X198597Y134139D01*
X198531Y134194D01*
X198444Y134248D01*
X198334Y134303D01*
X198214Y134358D01*
X198083Y134412D01*
X198061Y134423D01*
X198017Y134434D01*
X197941Y134456D01*
X197843Y134489D01*
X197722Y134511D01*
X197580Y134532D01*
X197416Y134543D01*
X197252Y134554D01*
X197176D01*
X197121Y134543D01*
X197045D01*
X196968Y134532D01*
X196782Y134511D01*
X196575Y134456D01*
X196356Y134390D01*
X196148Y134303D01*
X195963Y134172D01*
X195952Y134161D01*
X195908Y134117D01*
X195853Y134062D01*
X195799Y133975D01*
X195733Y133866D01*
X195678Y133735D01*
X195635Y133581D01*
X195624Y133417D01*
Y133407D01*
Y133374D01*
X195635Y133319D01*
X195646Y133254D01*
X195689Y133090D01*
X195722Y133002D01*
X195766Y132915D01*
X195777Y132904D01*
X195799Y132882D01*
X195831Y132838D01*
X195886Y132784D01*
X195952Y132718D01*
X196039Y132641D01*
X196148Y132565D01*
X196280Y132489D01*
X196290Y132478D01*
X196334Y132456D01*
X196422Y132412D01*
X196476Y132390D01*
X196542Y132357D01*
X196618Y132314D01*
X196717Y132270D01*
X196815Y132226D01*
X196935Y132171D01*
X197066Y132106D01*
X197220Y132040D01*
X197383Y131964D01*
X197558Y131887D01*
X197569D01*
X197591Y131876D01*
X197635Y131854D01*
X197689Y131833D01*
X197755Y131800D01*
X197831Y131767D01*
X198006Y131680D01*
X198181Y131592D01*
X198367Y131494D01*
X198542Y131406D01*
X198608Y131363D01*
X198673Y131319D01*
X198695Y131308D01*
X198739Y131275D01*
X198815Y131210D01*
X198914Y131133D01*
X199012Y131035D01*
X199121Y130926D01*
X199220Y130794D01*
X199307Y130652D01*
X199318Y130630D01*
X199340Y130587D01*
X199384Y130510D01*
X199427Y130401D01*
X199460Y130270D01*
X199504Y130128D01*
X199526Y129953D01*
X199537Y129778D01*
Y129767D01*
Y129745D01*
Y129712D01*
X199526Y129669D01*
X199515Y129548D01*
X199493Y129406D01*
X199438Y129220D01*
X199373Y129035D01*
X199285Y128827D01*
X199154Y128630D01*
Y128619D01*
X199132Y128608D01*
X199089Y128543D01*
X199001Y128455D01*
X198881Y128335D01*
X198739Y128215D01*
X198564Y128073D01*
X198356Y127953D01*
X198116Y127832D01*
X198105D01*
X198083Y127821D01*
X198050Y127810D01*
X197995Y127789D01*
X197941Y127767D01*
X197864Y127745D01*
X197777Y127723D01*
X197678Y127701D01*
X197460Y127647D01*
X197208Y127603D01*
X196913Y127570D01*
X196607Y127559D01*
X196487D01*
X196400Y127570D01*
X196290Y127581D01*
X196159Y127592D01*
X196017Y127603D01*
X195864Y127625D01*
X195536Y127690D01*
X195186Y127799D01*
X195012Y127854D01*
X194837Y127931D01*
X194673Y128018D01*
X194509Y128117D01*
X194498Y128127D01*
X194476Y128138D01*
X194432Y128182D01*
X194378Y128226D01*
X194323Y128291D01*
X194257Y128368D01*
X194181Y128466D01*
X194104Y128576D01*
X194028Y128707D01*
X193951Y128849D01*
X193886Y129013D01*
X193831Y129199D01*
X193777Y129406D01*
X193733Y129625D01*
X193711Y129865D01*
X193700Y130128D01*
X194695Y130226D01*
X194684Y129953D01*
Y129931D01*
Y129876D01*
X194695Y129800D01*
X194706Y129690D01*
X194727Y129559D01*
X194771Y129428D01*
X194815Y129286D01*
X194880Y129144D01*
X194891Y129133D01*
X194924Y129089D01*
X194968Y129024D01*
X195034Y128936D01*
X195132Y128849D01*
X195241Y128761D01*
X195372Y128663D01*
X195536Y128586D01*
X195547D01*
X195558Y128576D01*
X195624Y128554D01*
X195722Y128521D01*
X195853Y128488D01*
X196017Y128455D01*
X196203Y128422D01*
X196422Y128401D01*
X196651Y128390D01*
X196739D01*
X196804Y128401D01*
X196881D01*
X196968Y128412D01*
X197165Y128444D01*
X197394Y128488D01*
X197624Y128554D01*
X197843Y128652D01*
X198039Y128783D01*
X198050D01*
X198061Y128805D01*
X198116Y128860D01*
X198192Y128936D01*
X198280Y129045D01*
X198367Y129188D01*
X198444Y129341D01*
X198498Y129516D01*
X198520Y129603D01*
Y129701D01*
Y129712D01*
Y129756D01*
X198509Y129832D01*
X198487Y129909D01*
X198455Y130007D01*
X198411Y130117D01*
X198345Y130237D01*
X198258Y130346D01*
X198247Y130357D01*
X198203Y130401D01*
X198159Y130434D01*
X198116Y130466D01*
X198061Y130510D01*
X197985Y130554D01*
X197908Y130608D01*
X197799Y130663D01*
X197689Y130729D01*
X197558Y130805D01*
X197405Y130882D01*
X197241Y130958D01*
X197055Y131046D01*
X196848Y131133D01*
X196837D01*
X196804Y131155D01*
X196760Y131166D01*
X196706Y131199D01*
X196629Y131231D01*
X196553Y131264D01*
X196367Y131352D01*
X196159Y131450D01*
X195963Y131549D01*
X195777Y131647D01*
X195700Y131691D01*
X195635Y131734D01*
X195624D01*
X195613Y131745D01*
X195547Y131789D01*
X195460Y131854D01*
X195350Y131953D01*
X195230Y132051D01*
X195099Y132182D01*
X194979Y132314D01*
X194880Y132456D01*
X194869Y132478D01*
X194848Y132532D01*
X194804Y132609D01*
X194760Y132718D01*
X194717Y132860D01*
X194673Y133013D01*
X194651Y133177D01*
X194640Y133363D01*
Y133374D01*
Y133385D01*
Y133417D01*
Y133461D01*
X194662Y133571D01*
X194684Y133713D01*
X194717Y133877D01*
X194771Y134052D01*
X194848Y134237D01*
X194957Y134412D01*
Y134423D01*
X194968Y134434D01*
X195012Y134489D01*
X195088Y134576D01*
X195197Y134675D01*
X195329Y134795D01*
X195482Y134915D01*
X195667Y135035D01*
X195886Y135134D01*
X195897D01*
X195919Y135144D01*
X195952Y135155D01*
X195995Y135177D01*
X196050Y135188D01*
X196126Y135210D01*
X196290Y135265D01*
X196498Y135308D01*
X196739Y135341D01*
X197001Y135374D01*
X197285Y135385D01*
X197438D01*
X197515Y135374D01*
D02*
G37*
G36*
X177196D02*
X177272D01*
X177469Y135352D01*
X177688Y135308D01*
X177928Y135265D01*
X178179Y135188D01*
X178420Y135090D01*
X178431D01*
X178453Y135079D01*
X178485Y135057D01*
X178529Y135035D01*
X178639Y134970D01*
X178781Y134882D01*
X178945Y134773D01*
X179109Y134631D01*
X179262Y134478D01*
X179404Y134303D01*
X179414Y134281D01*
X179458Y134215D01*
X179524Y134106D01*
X179600Y133964D01*
X179677Y133789D01*
X179764Y133571D01*
X179830Y133319D01*
X179895Y133046D01*
X178912Y132926D01*
Y132937D01*
X178901Y132958D01*
X178890Y133002D01*
X178879Y133057D01*
X178857Y133122D01*
X178835Y133199D01*
X178770Y133374D01*
X178682Y133571D01*
X178573Y133767D01*
X178431Y133953D01*
X178256Y134128D01*
X178245D01*
X178234Y134150D01*
X178201Y134172D01*
X178168Y134194D01*
X178059Y134259D01*
X177906Y134347D01*
X177720Y134423D01*
X177491Y134489D01*
X177239Y134532D01*
X176955Y134554D01*
X176879D01*
X176813Y134543D01*
X176748D01*
X176660Y134532D01*
X176562Y134521D01*
X176453Y134500D01*
X176223Y134445D01*
X175961Y134369D01*
X175698Y134259D01*
X175425Y134106D01*
X175414D01*
X175392Y134084D01*
X175359Y134062D01*
X175305Y134019D01*
X175174Y133920D01*
X175021Y133767D01*
X174835Y133581D01*
X174649Y133341D01*
X174463Y133068D01*
X174288Y132751D01*
Y132740D01*
X174267Y132707D01*
X174245Y132663D01*
X174223Y132587D01*
X174190Y132510D01*
X174157Y132401D01*
X174113Y132281D01*
X174081Y132150D01*
X174037Y132008D01*
X173993Y131854D01*
X173960Y131680D01*
X173928Y131505D01*
X173884Y131111D01*
X173862Y130696D01*
Y130685D01*
Y130641D01*
Y130587D01*
X173873Y130510D01*
X173884Y130412D01*
X173895Y130303D01*
X173906Y130182D01*
X173928Y130051D01*
X173993Y129778D01*
X174102Y129494D01*
X174157Y129352D01*
X174234Y129209D01*
X174321Y129089D01*
X174419Y128969D01*
X174430Y128958D01*
X174441Y128947D01*
X174474Y128914D01*
X174529Y128882D01*
X174583Y128838D01*
X174649Y128783D01*
X174736Y128729D01*
X174824Y128685D01*
X174933Y128630D01*
X175053Y128576D01*
X175174Y128521D01*
X175316Y128477D01*
X175622Y128412D01*
X175797Y128401D01*
X175972Y128390D01*
X176070D01*
X176146Y128401D01*
X176234Y128412D01*
X176343Y128422D01*
X176474Y128444D01*
X176616Y128466D01*
X176769Y128510D01*
X176933Y128543D01*
X177108Y128597D01*
X177294Y128663D01*
X177480Y128740D01*
X177688Y128827D01*
X177895Y128925D01*
X178103Y129035D01*
X178442Y130674D01*
X176136D01*
X176310Y131527D01*
X179633D01*
X178977Y128434D01*
X178966D01*
X178945Y128412D01*
X178912Y128401D01*
X178868Y128368D01*
X178813Y128335D01*
X178737Y128302D01*
X178562Y128215D01*
X178354Y128106D01*
X178114Y128007D01*
X177851Y127898D01*
X177556Y127799D01*
X177545D01*
X177524Y127789D01*
X177480Y127778D01*
X177425Y127767D01*
X177349Y127745D01*
X177261Y127723D01*
X177163Y127701D01*
X177065Y127679D01*
X176824Y127636D01*
X176551Y127592D01*
X176278Y127570D01*
X175982Y127559D01*
X175906D01*
X175830Y127570D01*
X175709D01*
X175578Y127592D01*
X175414Y127614D01*
X175239Y127647D01*
X175053Y127679D01*
X174857Y127734D01*
X174649Y127799D01*
X174452Y127887D01*
X174245Y127974D01*
X174048Y128095D01*
X173851Y128226D01*
X173676Y128379D01*
X173512Y128554D01*
X173501Y128565D01*
X173479Y128597D01*
X173447Y128641D01*
X173403Y128707D01*
X173359Y128794D01*
X173294Y128893D01*
X173239Y129002D01*
X173173Y129144D01*
X173108Y129286D01*
X173053Y129450D01*
X172988Y129625D01*
X172944Y129822D01*
X172900Y130029D01*
X172867Y130248D01*
X172846Y130477D01*
X172835Y130718D01*
Y130729D01*
Y130783D01*
Y130849D01*
X172846Y130947D01*
X172856Y131068D01*
X172867Y131210D01*
X172889Y131363D01*
X172911Y131538D01*
X172944Y131723D01*
X172977Y131920D01*
X173086Y132335D01*
X173162Y132543D01*
X173239Y132762D01*
X173327Y132980D01*
X173436Y133188D01*
X173447Y133199D01*
X173469Y133243D01*
X173501Y133297D01*
X173545Y133374D01*
X173600Y133461D01*
X173676Y133571D01*
X173753Y133691D01*
X173851Y133822D01*
X174070Y134084D01*
X174321Y134369D01*
X174616Y134620D01*
X174780Y134740D01*
X174944Y134849D01*
X174955Y134860D01*
X174988Y134871D01*
X175032Y134904D01*
X175108Y134937D01*
X175196Y134970D01*
X175294Y135024D01*
X175414Y135068D01*
X175545Y135123D01*
X175687Y135166D01*
X175851Y135221D01*
X176015Y135265D01*
X176190Y135298D01*
X176573Y135363D01*
X176780Y135374D01*
X176988Y135385D01*
X177119D01*
X177196Y135374D01*
D02*
G37*
G36*
X189754Y127690D02*
X188661D01*
X187218Y135254D01*
X188191D01*
X189066Y130740D01*
Y130729D01*
X189077Y130685D01*
X189088Y130620D01*
X189099Y130532D01*
X189120Y130434D01*
X189142Y130313D01*
X189164Y130182D01*
X189197Y130029D01*
X189241Y129723D01*
X189295Y129384D01*
X189339Y129067D01*
X189361Y128903D01*
X189383Y128761D01*
X189394Y128772D01*
X189404Y128805D01*
X189426Y128849D01*
X189459Y128925D01*
X189503Y129002D01*
X189547Y129100D01*
X189667Y129319D01*
X189787Y129559D01*
X189918Y129811D01*
X190049Y130062D01*
X190170Y130292D01*
X192858Y135254D01*
X193908D01*
X189754Y127690D01*
D02*
G37*
G36*
X181655Y128543D02*
X185568D01*
X185382Y127690D01*
X180475D01*
X182060Y135254D01*
X183054D01*
X181655Y128543D01*
D02*
G37*
%LPC*%
G36*
X127364Y24871D02*
Y24860D01*
X127353Y24838D01*
X127342Y24805D01*
X127320Y24750D01*
X127287Y24696D01*
X127254Y24619D01*
X127222Y24532D01*
X127167Y24433D01*
X127069Y24204D01*
X126937Y23942D01*
X126784Y23647D01*
X126610Y23330D01*
X125374Y21089D01*
X127877D01*
X127582Y22991D01*
Y23002D01*
X127571Y23045D01*
Y23100D01*
X127550Y23177D01*
X127539Y23275D01*
X127528Y23384D01*
X127506Y23515D01*
X127495Y23647D01*
X127451Y23942D01*
X127418Y24259D01*
X127386Y24576D01*
X127364Y24871D01*
D02*
G37*
G36*
X115712Y15631D02*
X113034D01*
X112499Y13073D01*
X114434D01*
X114641Y13084D01*
X115035D01*
X115111Y13095D01*
X115199D01*
X115231Y13106D01*
X115275D01*
X115374Y13127D01*
X115505Y13149D01*
X115658Y13182D01*
X115811Y13226D01*
X115975Y13281D01*
X116117Y13346D01*
X116139Y13357D01*
X116182Y13379D01*
X116248Y13434D01*
X116324Y13488D01*
X116423Y13576D01*
X116510Y13663D01*
X116609Y13772D01*
X116685Y13893D01*
X116696Y13904D01*
X116718Y13947D01*
X116751Y14024D01*
X116794Y14111D01*
X116827Y14221D01*
X116860Y14341D01*
X116882Y14483D01*
X116893Y14625D01*
Y14636D01*
Y14680D01*
X116882Y14745D01*
X116871Y14822D01*
X116860Y14909D01*
X116827Y15008D01*
X116794Y15095D01*
X116740Y15193D01*
X116729Y15204D01*
X116707Y15237D01*
X116674Y15281D01*
X116630Y15335D01*
X116576Y15390D01*
X116510Y15445D01*
X116423Y15488D01*
X116335Y15532D01*
X116324D01*
X116292Y15543D01*
X116226Y15565D01*
X116139Y15587D01*
X116029Y15598D01*
X115887Y15620D01*
X115712Y15631D01*
D02*
G37*
G36*
X166296Y119319D02*
X165663Y119221D01*
X165659D01*
X165645Y119217D01*
X165627D01*
X165601Y119210D01*
X165568Y119206D01*
X165532Y119202D01*
X165488Y119195D01*
X165445Y119192D01*
X165346Y119177D01*
X165241Y119166D01*
X165135Y119155D01*
X165037Y119148D01*
X165041D01*
X165048Y119144D01*
X165059Y119141D01*
X165077Y119133D01*
X165095Y119123D01*
X165121Y119112D01*
X165150Y119101D01*
X165182Y119082D01*
X165259Y119050D01*
X165346Y119006D01*
X165445Y118955D01*
X165550Y118897D01*
X166296Y118485D01*
Y119319D01*
D02*
G37*
%LPD*%
D10*
X111516Y76713D02*
G03*
X111516Y76713I-492J0D01*
G01*
X171339Y17323D02*
G03*
X171339Y17323I-492J0D01*
G01*
X171339Y75394D02*
G03*
X171339Y75394I-492J0D01*
G01*
X33543Y82480D02*
G03*
X33543Y82480I-492J0D01*
G01*
X80709Y61417D02*
G03*
X80709Y61417I-492J0D01*
G01*
D11*
X121653Y72638D02*
G03*
X121653Y72638I-1181J0D01*
G01*
D12*
X204449Y61602D02*
G03*
X204449Y61602I-551J0D01*
G01*
D13*
X156004Y114567D02*
Y126378D01*
X150098D02*
X156004D01*
X150098Y114567D02*
Y126378D01*
Y114567D02*
X156004D01*
X150098Y127559D02*
X156004D01*
X81890Y110335D02*
X93701D01*
Y116240D01*
X81890D02*
X93701D01*
X81890Y110335D02*
Y116240D01*
X94882Y110335D02*
Y116240D01*
X116535Y65158D02*
Y76575D01*
X131496Y65158D02*
Y76575D01*
X116535D02*
X131496D01*
X116535Y65158D02*
X131496D01*
X170669Y24803D02*
Y27165D01*
Y24803D02*
X197047D01*
Y27165D01*
X197047Y83268D02*
Y84842D01*
X170669Y83268D02*
X197047D01*
X170669D02*
Y84842D01*
X59252Y90354D02*
Y91929D01*
X32874Y90354D02*
X59252D01*
X32874D02*
Y91929D01*
X72835Y62598D02*
X76772D01*
X72835Y74410D02*
X76772D01*
Y62598D02*
Y74410D01*
X72835Y62598D02*
Y74410D01*
X-27953Y60169D02*
X25547D01*
X-27953Y31169D02*
Y60169D01*
Y31169D02*
X25547D01*
Y60169D01*
X213429Y72114D02*
X266929D01*
Y101114D01*
X213429D02*
X266929D01*
X213429Y72114D02*
Y101114D01*
X59646Y50984D02*
Y54528D01*
X53740Y50984D02*
Y54528D01*
X4724Y86614D02*
Y102362D01*
X25197Y86614D02*
Y102362D01*
X74410Y91831D02*
X75197D01*
X74410Y86910D02*
X75197D01*
X44354Y12205D02*
Y65748D01*
X27819Y12205D02*
X44354D01*
X27819D02*
Y65748D01*
X44354D01*
X124016Y37008D02*
Y92913D01*
X98425Y0D02*
Y137402D01*
X148031D02*
X148031Y394D01*
Y1181D02*
Y112992D01*
X98032Y111417D02*
Y113386D01*
X-14173Y-394D02*
X0D01*
X-14173Y137402D02*
X-394D01*
X0Y-19291D02*
Y-394D01*
X255906Y-19291D02*
Y-394D01*
D14*
X228110Y34961D02*
X261417D01*
Y68189D01*
X228110D02*
X261417D01*
X228110Y34961D02*
Y68189D01*
D15*
X142032Y110205D02*
X148031Y112205D01*
X142032Y114205D02*
X148031Y112205D01*
X98032D02*
X104032Y114205D01*
X98032Y112205D02*
X104032Y110205D01*
X123031Y112205D02*
X148031D01*
X98032D02*
X123031D01*
X-15386Y5606D02*
X-13386Y-394D01*
X-11386Y5606D01*
X-13386Y137402D02*
X-11386Y131402D01*
X-15386D02*
X-13386Y137402D01*
Y-394D02*
Y51756D01*
Y87533D02*
Y137402D01*
X0Y-18504D02*
X6000Y-16504D01*
X0Y-18504D02*
X6000Y-20504D01*
X249905D02*
X255906Y-18504D01*
X249905Y-16504D02*
X255906Y-18504D01*
X0D02*
X108671D01*
X144447D02*
X255906D01*
X107015Y114567D02*
X109015D01*
X108015D01*
Y120565D01*
X107015Y119565D01*
X116012Y114567D02*
X112014D01*
X116012Y118566D01*
Y119565D01*
X115013Y120565D01*
X113013D01*
X112014Y119565D01*
X118012Y114567D02*
Y115567D01*
X119011D01*
Y114567D01*
X118012D01*
X123010Y120565D02*
X127009D01*
Y119565D01*
X123010Y115567D01*
Y114567D01*
X129008D02*
Y118566D01*
X130008D01*
X131007Y117566D01*
Y114567D01*
Y117566D01*
X132007Y118566D01*
X133007Y117566D01*
Y114567D01*
X135006D02*
Y118566D01*
X136006D01*
X137005Y117566D01*
Y114567D01*
Y117566D01*
X138005Y118566D01*
X139005Y117566D01*
Y114567D01*
X-15628Y53150D02*
X-16628Y54149D01*
Y56149D01*
X-15628Y57148D01*
X-14629D01*
X-13629Y56149D01*
Y55149D01*
Y56149D01*
X-12629Y57148D01*
X-11630D01*
X-10630Y56149D01*
Y54149D01*
X-11630Y53150D01*
X-16628Y63146D02*
Y59148D01*
X-13629D01*
X-14629Y61147D01*
Y62147D01*
X-13629Y63146D01*
X-11630D01*
X-10630Y62147D01*
Y60147D01*
X-11630Y59148D01*
X-10630Y65146D02*
X-11630D01*
Y66145D01*
X-10630D01*
Y65146D01*
X-15628Y70144D02*
X-16628Y71144D01*
Y73143D01*
X-15628Y74143D01*
X-11630D01*
X-10630Y73143D01*
Y71144D01*
X-11630Y70144D01*
X-15628D01*
X-10630Y76142D02*
X-14629D01*
Y77142D01*
X-13629Y78141D01*
X-10630D01*
X-13629D01*
X-14629Y79141D01*
X-13629Y80141D01*
X-10630D01*
Y82140D02*
X-14629D01*
Y83140D01*
X-13629Y84140D01*
X-10630D01*
X-13629D01*
X-14629Y85139D01*
X-13629Y86139D01*
X-10630D01*
X114063Y-15899D02*
X112064Y-16898D01*
X110064Y-18898D01*
Y-20897D01*
X111064Y-21897D01*
X113063D01*
X114063Y-20897D01*
Y-19897D01*
X113063Y-18898D01*
X110064D01*
X120061Y-15899D02*
X116062D01*
Y-18898D01*
X118062Y-17898D01*
X119062D01*
X120061Y-18898D01*
Y-20897D01*
X119062Y-21897D01*
X117062D01*
X116062Y-20897D01*
X122061Y-21897D02*
Y-20897D01*
X123060D01*
Y-21897D01*
X122061D01*
X127059Y-16898D02*
X128059Y-15899D01*
X130058D01*
X131058Y-16898D01*
Y-20897D01*
X130058Y-21897D01*
X128059D01*
X127059Y-20897D01*
Y-16898D01*
X133057Y-21897D02*
Y-17898D01*
X134057D01*
X135056Y-18898D01*
Y-21897D01*
Y-18898D01*
X136056Y-17898D01*
X137056Y-18898D01*
Y-21897D01*
X139055D02*
Y-17898D01*
X140055D01*
X141054Y-18898D01*
Y-21897D01*
Y-18898D01*
X142054Y-17898D01*
X143054Y-18898D01*
Y-21897D01*
D16*
X160728Y103051D02*
X156793D01*
Y105019D01*
X157449Y105675D01*
X158760D01*
X159416Y105019D01*
Y103051D01*
Y104363D02*
X160728Y105675D01*
Y106987D02*
Y108299D01*
Y107643D01*
X156793D01*
X157449Y106987D01*
X160728Y110267D02*
Y111579D01*
Y110923D01*
X156793D01*
X157449Y110267D01*
X69685Y118110D02*
Y122046D01*
X71653D01*
X72309Y121390D01*
Y120078D01*
X71653Y119422D01*
X69685D01*
X70997D02*
X72309Y118110D01*
X73621D02*
X74933D01*
X74277D01*
Y122046D01*
X73621Y121390D01*
X76901D02*
X77557Y122046D01*
X78868D01*
X79524Y121390D01*
Y118766D01*
X78868Y118110D01*
X77557D01*
X76901Y118766D01*
Y121390D01*
X157186Y118110D02*
X161122D01*
Y120078D01*
X160466Y120734D01*
X157842D01*
X157186Y120078D01*
Y118110D01*
X161122Y124670D02*
Y122046D01*
X158498Y124670D01*
X157842D01*
X157186Y124014D01*
Y122702D01*
X157842Y122046D01*
X85827Y122833D02*
Y118898D01*
X87795D01*
X88451Y119554D01*
Y122177D01*
X87795Y122833D01*
X85827D01*
X89763Y118898D02*
X91074D01*
X90418D01*
Y122833D01*
X89763Y122177D01*
X32283Y128345D02*
Y125065D01*
X32939Y124409D01*
X34251D01*
X34907Y125065D01*
Y128345D01*
X36219Y127689D02*
X36875Y128345D01*
X38187D01*
X38843Y127689D01*
Y127033D01*
X38187Y126377D01*
X37531D01*
X38187D01*
X38843Y125721D01*
Y125065D01*
X38187Y124409D01*
X36875D01*
X36219Y125065D01*
X107087Y84644D02*
Y81365D01*
X107743Y80709D01*
X109055D01*
X109710Y81365D01*
Y84644D01*
X113646Y80709D02*
X111022D01*
X113646Y83333D01*
Y83988D01*
X112990Y84644D01*
X111678D01*
X111022Y83988D01*
X70374Y81101D02*
Y77821D01*
X71030Y77165D01*
X72342D01*
X72998Y77821D01*
Y81101D01*
X74310Y77165D02*
X75622D01*
X74966D01*
Y81101D01*
X74310Y80445D01*
X97638Y90354D02*
X93702D01*
Y92322D01*
X94358Y92978D01*
X95670D01*
X96326Y92322D01*
Y90354D01*
Y91666D02*
X97638Y92978D01*
X96982Y94290D02*
X97638Y94946D01*
Y96258D01*
X96982Y96914D01*
X94358D01*
X93702Y96258D01*
Y94946D01*
X94358Y94290D01*
X95014D01*
X95670Y94946D01*
Y96914D01*
X72441Y105905D02*
Y109841D01*
X74409D01*
X75065Y109185D01*
Y107873D01*
X74409Y107217D01*
X72441D01*
X73753D02*
X75065Y105905D01*
X79001Y109841D02*
X77689Y109185D01*
X76377Y107873D01*
Y106562D01*
X77033Y105905D01*
X78345D01*
X79001Y106562D01*
Y107217D01*
X78345Y107873D01*
X76377D01*
X153937Y55118D02*
Y59054D01*
X155905D01*
X156561Y58398D01*
Y57086D01*
X155905Y56430D01*
X153937D01*
X155249D02*
X156561Y55118D01*
X160497Y59054D02*
X157873D01*
Y57086D01*
X159185Y57742D01*
X159841D01*
X160497Y57086D01*
Y55774D01*
X159841Y55118D01*
X158529D01*
X157873Y55774D01*
X153150Y76772D02*
Y80707D01*
X155117D01*
X155773Y80051D01*
Y78740D01*
X155117Y78084D01*
X153150D01*
X154462D02*
X155773Y76772D01*
X159053D02*
Y80707D01*
X157085Y78740D01*
X159709D01*
X67323Y20472D02*
X63387D01*
Y22440D01*
X64043Y23096D01*
X65355D01*
X66011Y22440D01*
Y20472D01*
Y21784D02*
X67323Y23096D01*
X64043Y24408D02*
X63387Y25064D01*
Y26376D01*
X64043Y27032D01*
X64699D01*
X65355Y26376D01*
Y25720D01*
Y26376D01*
X66011Y27032D01*
X66667D01*
X67323Y26376D01*
Y25064D01*
X66667Y24408D01*
X153937Y90945D02*
Y94881D01*
X155905D01*
X156561Y94225D01*
Y92913D01*
X155905Y92257D01*
X153937D01*
X155249D02*
X156561Y90945D01*
X160497D02*
X157873D01*
X160497Y93569D01*
Y94225D01*
X159841Y94881D01*
X158529D01*
X157873Y94225D01*
X67027Y49213D02*
X63092D01*
Y51180D01*
X63748Y51836D01*
X65060D01*
X65716Y51180D01*
Y49213D01*
Y50524D02*
X67027Y51836D01*
Y53148D02*
Y54460D01*
Y53804D01*
X63092D01*
X63748Y53148D01*
X173490Y117585D02*
Y120209D01*
X172834Y120865D01*
X171522D01*
X170866Y120209D01*
Y117585D01*
X171522Y116929D01*
X172834D01*
X172178Y118241D02*
X173490Y116929D01*
X172834D02*
X173490Y117585D01*
X177426Y116929D02*
X174802D01*
X177426Y119553D01*
Y120209D01*
X176770Y120865D01*
X175458D01*
X174802Y120209D01*
X173096Y60498D02*
Y63122D01*
X172440Y63778D01*
X171128D01*
X170472Y63122D01*
Y60498D01*
X171128Y59842D01*
X172440D01*
X171784Y61154D02*
X173096Y59842D01*
X172440D02*
X173096Y60498D01*
X174408Y59842D02*
X175720D01*
X175064D01*
Y63778D01*
X174408Y63122D01*
X229789Y31101D02*
X228477D01*
X229133D01*
Y27821D01*
X228477Y27165D01*
X227821D01*
X227165Y27821D01*
X233069Y27165D02*
Y31101D01*
X231101Y29133D01*
X233725D01*
X216253Y108022D02*
X214941D01*
X215597D01*
Y104743D01*
X214941Y104087D01*
X214285D01*
X213629Y104743D01*
X220189Y104087D02*
X217565D01*
X220189Y106710D01*
Y107366D01*
X219533Y108022D01*
X218221D01*
X217565Y107366D01*
X8923Y66928D02*
X7611D01*
X8267D01*
Y63648D01*
X7611Y62992D01*
X6955D01*
X6299Y63648D01*
X10235Y62992D02*
X11547D01*
X10891D01*
Y66928D01*
X10235Y66272D01*
X30647Y72636D02*
X28023D01*
Y70668D01*
X29335D01*
X28023D01*
Y68700D01*
X31959D02*
X33270D01*
X32614D01*
Y72636D01*
X31959Y71980D01*
X74277Y96981D02*
X73621Y97636D01*
X72309D01*
X71653Y96981D01*
Y94357D01*
X72309Y93701D01*
X73621D01*
X74277Y94357D01*
X78213Y93701D02*
X75589D01*
X78213Y96325D01*
Y96981D01*
X77557Y97636D01*
X76245D01*
X75589Y96981D01*
X21130Y73884D02*
X20474Y73228D01*
Y71916D01*
X21130Y71260D01*
X23753D01*
X24409Y71916D01*
Y73228D01*
X23753Y73884D01*
X24409Y75196D02*
Y76508D01*
Y75852D01*
X20474D01*
X21130Y75196D01*
M02*
