G04*
G04 #@! TF.GenerationSoftware,Altium Limited,Altium Designer,18.1.11 (251)*
G04*
G04 Layer_Physical_Order=2*
G04 Layer_Color=16711680*
%FSLAX25Y25*%
%MOIN*%
G70*
G01*
G75*
%ADD52C,0.01575*%
%ADD54C,0.01000*%
%ADD55C,0.01968*%
%ADD56C,0.16535*%
%ADD57C,0.06693*%
%ADD58C,0.07087*%
%ADD59R,0.07087X0.07087*%
%ADD60C,0.05000*%
G36*
X97638Y135429D02*
Y1181D01*
X1181Y1181D01*
X1181Y135429D01*
X97638Y135429D01*
D02*
G37*
G36*
X255906Y136614D02*
X255906Y2995D01*
X193170Y2752D01*
X148779Y2581D01*
X148425Y2934D01*
Y136614D01*
X255906Y136614D01*
D02*
G37*
%LPC*%
G36*
X64673Y124330D02*
Y121366D01*
X67638D01*
X67583Y121780D01*
X67230Y122631D01*
X66669Y123362D01*
X65938Y123923D01*
X65087Y124276D01*
X64673Y124330D01*
D02*
G37*
G36*
X63673D02*
X63260Y124276D01*
X62408Y123923D01*
X61677Y123362D01*
X61116Y122631D01*
X60763Y121780D01*
X60709Y121366D01*
X63673D01*
Y124330D01*
D02*
G37*
G36*
X67638Y120366D02*
X64673D01*
Y117402D01*
X65087Y117456D01*
X65938Y117809D01*
X66669Y118370D01*
X67230Y119101D01*
X67583Y119952D01*
X67638Y120366D01*
D02*
G37*
G36*
X63673D02*
X60709D01*
X60763Y119952D01*
X61116Y119101D01*
X61677Y118370D01*
X62408Y117809D01*
X63260Y117456D01*
X63673Y117402D01*
Y120366D01*
D02*
G37*
G36*
X15748Y131360D02*
X13931Y131181D01*
X12184Y130651D01*
X10574Y129790D01*
X9163Y128632D01*
X8005Y127221D01*
X7144Y125611D01*
X6614Y123864D01*
X6436Y122047D01*
X6614Y120230D01*
X7144Y118483D01*
X8005Y116874D01*
X9163Y115462D01*
X10574Y114304D01*
X12184Y113444D01*
X13931Y112914D01*
X15748Y112735D01*
X17565Y112914D01*
X19312Y113444D01*
X20922Y114304D01*
X22333Y115462D01*
X23491Y116874D01*
X24352Y118483D01*
X24882Y120230D01*
X25061Y122047D01*
X24882Y123864D01*
X24352Y125611D01*
X23491Y127221D01*
X22333Y128632D01*
X20922Y129790D01*
X19312Y130651D01*
X17565Y131181D01*
X15748Y131360D01*
D02*
G37*
G36*
X80216Y82664D02*
X79303Y82544D01*
X78451Y82191D01*
X77720Y81630D01*
X77357Y81157D01*
X68764D01*
X67989Y81003D01*
X67333Y80564D01*
X63136Y76368D01*
X62698Y75711D01*
X62544Y74937D01*
Y50891D01*
X62071Y50528D01*
X61510Y49797D01*
X61157Y48945D01*
X61037Y48031D01*
X61157Y47118D01*
X61510Y46266D01*
X62071Y45535D01*
X62802Y44974D01*
X63653Y44622D01*
X64567Y44501D01*
X65481Y44622D01*
X66332Y44974D01*
X67063Y45535D01*
X67624Y46266D01*
X67977Y47118D01*
X68097Y48031D01*
X67977Y48945D01*
X67624Y49797D01*
X67063Y50528D01*
X66590Y50891D01*
Y74099D01*
X69602Y77111D01*
X77357D01*
X77720Y76638D01*
X78451Y76077D01*
X79303Y75724D01*
X80216Y75604D01*
X81130Y75724D01*
X81982Y76077D01*
X82713Y76638D01*
X83274Y77369D01*
X83626Y78220D01*
X83747Y79134D01*
X83626Y80048D01*
X83274Y80899D01*
X82713Y81630D01*
X81982Y82191D01*
X81130Y82544D01*
X80216Y82664D01*
D02*
G37*
G36*
X25409Y55213D02*
X16323D01*
Y46126D01*
X25409D01*
Y55213D01*
D02*
G37*
G36*
X21366Y45186D02*
Y41169D01*
X25383D01*
X25293Y41855D01*
X24835Y42961D01*
X24106Y43910D01*
X23157Y44638D01*
X22052Y45096D01*
X21366Y45186D01*
D02*
G37*
G36*
X20366D02*
X19680Y45096D01*
X18575Y44638D01*
X17626Y43910D01*
X16898Y42961D01*
X16440Y41855D01*
X16350Y41169D01*
X20366D01*
Y45186D01*
D02*
G37*
G36*
X25383Y40169D02*
X21366D01*
Y36153D01*
X22052Y36243D01*
X23157Y36701D01*
X24106Y37429D01*
X24835Y38378D01*
X25293Y39483D01*
X25383Y40169D01*
D02*
G37*
G36*
X20366D02*
X16350D01*
X16440Y39483D01*
X16898Y38378D01*
X17626Y37429D01*
X18575Y36701D01*
X19680Y36243D01*
X20366Y36153D01*
Y40169D01*
D02*
G37*
G36*
X78059Y26397D02*
Y23433D01*
X81023D01*
X80969Y23847D01*
X80616Y24698D01*
X80055Y25429D01*
X79324Y25990D01*
X78473Y26343D01*
X78059Y26397D01*
D02*
G37*
G36*
X77059D02*
X76645Y26343D01*
X75794Y25990D01*
X75063Y25429D01*
X74502Y24698D01*
X74149Y23847D01*
X74095Y23433D01*
X77059D01*
Y26397D01*
D02*
G37*
G36*
X81023Y22433D02*
X78059D01*
Y19469D01*
X78473Y19523D01*
X79324Y19876D01*
X80055Y20437D01*
X80616Y21168D01*
X80969Y22019D01*
X81023Y22433D01*
D02*
G37*
G36*
X77059D02*
X74095D01*
X74149Y22019D01*
X74502Y21168D01*
X75063Y20437D01*
X75794Y19876D01*
X76645Y19523D01*
X77059Y19469D01*
Y22433D01*
D02*
G37*
G36*
X15748Y25061D02*
X13931Y24882D01*
X12184Y24352D01*
X10574Y23491D01*
X9163Y22333D01*
X8005Y20922D01*
X7144Y19312D01*
X6614Y17565D01*
X6436Y15748D01*
X6614Y13931D01*
X7144Y12184D01*
X8005Y10574D01*
X9163Y9163D01*
X10574Y8005D01*
X12184Y7144D01*
X13931Y6614D01*
X15748Y6436D01*
X17565Y6614D01*
X19312Y7144D01*
X20922Y8005D01*
X22333Y9163D01*
X23491Y10574D01*
X24352Y12184D01*
X24882Y13931D01*
X25061Y15748D01*
X24882Y17565D01*
X24352Y19312D01*
X23491Y20922D01*
X22333Y22333D01*
X20922Y23491D01*
X19312Y24352D01*
X17565Y24882D01*
X15748Y25061D01*
D02*
G37*
G36*
X160343Y132992D02*
Y130028D01*
X163307D01*
X163252Y130441D01*
X162900Y131293D01*
X162339Y132024D01*
X161608Y132585D01*
X160756Y132938D01*
X160343Y132992D01*
D02*
G37*
G36*
X159343D02*
X158929Y132938D01*
X158077Y132585D01*
X157346Y132024D01*
X156785Y131293D01*
X156433Y130441D01*
X156378Y130028D01*
X159343D01*
Y132992D01*
D02*
G37*
G36*
X163307Y129028D02*
X160343D01*
Y126063D01*
X160756Y126118D01*
X161608Y126470D01*
X162339Y127031D01*
X162900Y127762D01*
X163252Y128614D01*
X163307Y129028D01*
D02*
G37*
G36*
X159343D02*
X156378D01*
X156433Y128614D01*
X156785Y127762D01*
X157346Y127031D01*
X158077Y126470D01*
X158929Y126118D01*
X159343Y126063D01*
Y129028D01*
D02*
G37*
G36*
X240158Y131360D02*
X238341Y131181D01*
X236594Y130651D01*
X234984Y129790D01*
X233573Y128632D01*
X232414Y127221D01*
X231554Y125611D01*
X231024Y123864D01*
X230845Y122047D01*
X231024Y120230D01*
X231554Y118483D01*
X232414Y116874D01*
X233573Y115462D01*
X234984Y114304D01*
X236594Y113444D01*
X238341Y112914D01*
X240158Y112735D01*
X241974Y112914D01*
X243721Y113444D01*
X245331Y114304D01*
X246743Y115462D01*
X247901Y116874D01*
X248761Y118483D01*
X249291Y120230D01*
X249470Y122047D01*
X249291Y123864D01*
X248761Y125611D01*
X247901Y127221D01*
X246743Y128632D01*
X245331Y129790D01*
X243721Y130651D01*
X241974Y131181D01*
X240158Y131360D01*
D02*
G37*
G36*
X218610Y96131D02*
Y92114D01*
X222627D01*
X222537Y92800D01*
X222079Y93905D01*
X221351Y94854D01*
X220402Y95583D01*
X219296Y96040D01*
X218610Y96131D01*
D02*
G37*
G36*
X217610Y96131D02*
X216924Y96040D01*
X215819Y95583D01*
X214870Y94854D01*
X214142Y93905D01*
X213684Y92800D01*
X213594Y92114D01*
X217610D01*
Y96131D01*
D02*
G37*
G36*
Y91114D02*
X213594D01*
X213684Y90428D01*
X214142Y89323D01*
X214870Y88374D01*
X215819Y87646D01*
X216924Y87188D01*
X217610Y87098D01*
Y91114D01*
D02*
G37*
G36*
X222627D02*
X218610D01*
Y87098D01*
X219296Y87188D01*
X220402Y87646D01*
X221351Y88374D01*
X222079Y89323D01*
X222537Y90428D01*
X222627Y91114D01*
D02*
G37*
G36*
X222654Y86158D02*
X213567D01*
Y77071D01*
X222654D01*
Y86158D01*
D02*
G37*
G36*
X221051Y65934D02*
Y61917D01*
X225068D01*
X224977Y62603D01*
X224520Y63709D01*
X223792Y64658D01*
X222842Y65386D01*
X221737Y65844D01*
X221051Y65934D01*
D02*
G37*
G36*
X220051Y65934D02*
X219365Y65844D01*
X218260Y65386D01*
X217311Y64658D01*
X216583Y63709D01*
X216125Y62603D01*
X216035Y61917D01*
X220051D01*
Y65934D01*
D02*
G37*
G36*
X248819Y65801D02*
X247684Y65652D01*
X246627Y65214D01*
X245719Y64517D01*
X245022Y63609D01*
X244584Y62552D01*
X244435Y61417D01*
X244584Y60283D01*
X245022Y59225D01*
X245719Y58317D01*
X246627Y57621D01*
X247684Y57183D01*
X248819Y57033D01*
X249954Y57183D01*
X251011Y57621D01*
X251919Y58317D01*
X252615Y59225D01*
X253053Y60283D01*
X253203Y61417D01*
X253053Y62552D01*
X252615Y63609D01*
X251919Y64517D01*
X251011Y65214D01*
X249954Y65652D01*
X248819Y65801D01*
D02*
G37*
G36*
X225068Y60917D02*
X221051D01*
Y56901D01*
X221737Y56991D01*
X222842Y57449D01*
X223792Y58177D01*
X224520Y59126D01*
X224977Y60231D01*
X225068Y60917D01*
D02*
G37*
G36*
X220051D02*
X216035D01*
X216125Y60231D01*
X216583Y59126D01*
X217311Y58177D01*
X218260Y57449D01*
X219365Y56991D01*
X220051Y56901D01*
Y60917D01*
D02*
G37*
G36*
X221051Y56091D02*
Y52075D01*
X225068D01*
X224977Y52761D01*
X224520Y53866D01*
X223792Y54815D01*
X222842Y55543D01*
X221737Y56001D01*
X221051Y56091D01*
D02*
G37*
G36*
X220051Y56091D02*
X219365Y56001D01*
X218260Y55543D01*
X217311Y54815D01*
X216583Y53866D01*
X216125Y52761D01*
X216035Y52075D01*
X220051D01*
Y56091D01*
D02*
G37*
G36*
X225068Y51075D02*
X221051D01*
Y47058D01*
X221737Y47148D01*
X222842Y47606D01*
X223792Y48335D01*
X224520Y49284D01*
X224977Y50389D01*
X225068Y51075D01*
D02*
G37*
G36*
X220051D02*
X216035D01*
X216125Y50389D01*
X216583Y49284D01*
X217311Y48335D01*
X218260Y47606D01*
X219365Y47148D01*
X220051Y47058D01*
Y51075D01*
D02*
G37*
G36*
X209055Y114012D02*
X183071D01*
X182681Y113934D01*
X182350Y113713D01*
X182129Y113382D01*
X182051Y112992D01*
Y55556D01*
X182051Y55556D01*
X182051Y55556D01*
X182087Y55375D01*
X182129Y55166D01*
X182129Y55166D01*
X182129Y55166D01*
X182240Y55000D01*
X182350Y54835D01*
X182350Y54835D01*
X182350Y54835D01*
X182556Y54698D01*
X182681Y54614D01*
X182681D01*
X182681Y54614D01*
X182712Y54601D01*
X182921Y54560D01*
X183102Y54524D01*
X206680D01*
X206901Y54075D01*
X206740Y53866D01*
X206424Y53104D01*
X169193D01*
X168608Y52988D01*
X168111Y52656D01*
X161287Y45832D01*
X161051Y45930D01*
X160138Y46050D01*
X159224Y45930D01*
X158373Y45577D01*
X157642Y45016D01*
X157080Y44285D01*
X156728Y43433D01*
X156608Y42520D01*
X156728Y41606D01*
X157080Y40755D01*
X157642Y40023D01*
X158373Y39463D01*
X159224Y39110D01*
X160138Y38989D01*
X161051Y39110D01*
X161903Y39463D01*
X162634Y40023D01*
X163195Y40755D01*
X163548Y41606D01*
X163668Y42520D01*
X163548Y43433D01*
X163450Y43669D01*
X169826Y50045D01*
X206424D01*
X206740Y49284D01*
X207468Y48335D01*
X208417Y47606D01*
X209523Y47148D01*
X210709Y46992D01*
X211895Y47148D01*
X213000Y47606D01*
X213949Y48335D01*
X214677Y49284D01*
X215135Y50389D01*
X215291Y51575D01*
X215135Y52761D01*
X214677Y53866D01*
X214517Y54075D01*
X214738Y54524D01*
X215748D01*
X216138Y54601D01*
X216469Y54822D01*
X216690Y55153D01*
X216768Y55543D01*
Y56865D01*
X216731Y57050D01*
X216697Y57237D01*
X216692Y57245D01*
X216690Y57255D01*
X216585Y57412D01*
X216483Y57572D01*
X216475Y57577D01*
X216469Y57586D01*
X216311Y57691D01*
X216156Y57799D01*
X216146Y57801D01*
X216138Y57806D01*
X215952Y57844D01*
X215768Y57884D01*
X215271Y57893D01*
X215252Y58371D01*
Y64464D01*
X215271Y64941D01*
X215768Y64951D01*
X215952Y64991D01*
X216138Y65028D01*
X216146Y65034D01*
X216156Y65036D01*
X216311Y65144D01*
X216469Y65249D01*
X216475Y65257D01*
X216483Y65263D01*
X216585Y65422D01*
X216690Y65580D01*
X216692Y65590D01*
X216697Y65598D01*
X216731Y65784D01*
X216768Y65970D01*
Y69552D01*
X216690Y69942D01*
X216469Y70273D01*
X216424Y70318D01*
X216093Y70539D01*
X215703Y70616D01*
X210075D01*
Y112992D01*
X209997Y113382D01*
X209776Y113713D01*
X209445Y113934D01*
X209055Y114012D01*
D02*
G37*
G36*
X248819Y46116D02*
X247684Y45967D01*
X246627Y45529D01*
X245719Y44832D01*
X245022Y43924D01*
X244584Y42867D01*
X244435Y41732D01*
X244584Y40598D01*
X245022Y39540D01*
X245719Y38632D01*
X246627Y37936D01*
X247684Y37498D01*
X248819Y37348D01*
X249954Y37498D01*
X251011Y37936D01*
X251919Y38632D01*
X252615Y39540D01*
X253053Y40598D01*
X253203Y41732D01*
X253053Y42867D01*
X252615Y43924D01*
X251919Y44832D01*
X251011Y45529D01*
X249954Y45967D01*
X248819Y46116D01*
D02*
G37*
G36*
X220551Y46315D02*
X219365Y46159D01*
X218260Y45701D01*
X217311Y44973D01*
X216583Y44023D01*
X216125Y42918D01*
X215969Y41732D01*
X216125Y40546D01*
X216583Y39441D01*
X217311Y38492D01*
X218260Y37764D01*
X219365Y37306D01*
X220551Y37150D01*
X221737Y37306D01*
X222842Y37764D01*
X223792Y38492D01*
X224520Y39441D01*
X224977Y40546D01*
X225134Y41732D01*
X224977Y42918D01*
X224520Y44023D01*
X223792Y44973D01*
X222842Y45701D01*
X221737Y46159D01*
X220551Y46315D01*
D02*
G37*
G36*
X210709D02*
X209523Y46159D01*
X208417Y45701D01*
X207468Y44973D01*
X206740Y44023D01*
X206282Y42918D01*
X206126Y41732D01*
X206282Y40546D01*
X206740Y39441D01*
X207468Y38492D01*
X208417Y37764D01*
X209523Y37306D01*
X210709Y37150D01*
X211895Y37306D01*
X213000Y37764D01*
X213949Y38492D01*
X214677Y39441D01*
X215135Y40546D01*
X215291Y41732D01*
X215135Y42918D01*
X214677Y44023D01*
X213949Y44973D01*
X213000Y45701D01*
X211895Y46159D01*
X210709Y46315D01*
D02*
G37*
G36*
X160343Y34173D02*
Y31209D01*
X163307D01*
X163252Y31622D01*
X162900Y32474D01*
X162339Y33205D01*
X161608Y33766D01*
X160756Y34119D01*
X160343Y34173D01*
D02*
G37*
G36*
X159343D02*
X158929Y34119D01*
X158077Y33766D01*
X157346Y33205D01*
X156785Y32474D01*
X156433Y31622D01*
X156378Y31209D01*
X159343D01*
Y34173D01*
D02*
G37*
G36*
X163307Y30209D02*
X160343D01*
Y27244D01*
X160756Y27299D01*
X161608Y27651D01*
X162339Y28212D01*
X162900Y28944D01*
X163252Y29795D01*
X163307Y30209D01*
D02*
G37*
G36*
X159343D02*
X156378D01*
X156433Y29795D01*
X156785Y28944D01*
X157346Y28212D01*
X158077Y27651D01*
X158929Y27299D01*
X159343Y27244D01*
Y30209D01*
D02*
G37*
G36*
X203256Y20787D02*
Y17823D01*
X206220D01*
X206166Y18237D01*
X205813Y19088D01*
X205252Y19819D01*
X204521Y20380D01*
X203670Y20733D01*
X203256Y20787D01*
D02*
G37*
G36*
X202256D02*
X201842Y20733D01*
X200991Y20380D01*
X200260Y19819D01*
X199699Y19088D01*
X199346Y18237D01*
X199292Y17823D01*
X202256D01*
Y20787D01*
D02*
G37*
G36*
X206220Y16823D02*
X203256D01*
Y13859D01*
X203670Y13913D01*
X204521Y14266D01*
X205252Y14827D01*
X205813Y15558D01*
X206166Y16409D01*
X206220Y16823D01*
D02*
G37*
G36*
X202256D02*
X199292D01*
X199346Y16409D01*
X199699Y15558D01*
X200260Y14827D01*
X200991Y14266D01*
X201842Y13913D01*
X202256Y13859D01*
Y16823D01*
D02*
G37*
G36*
X153937Y69672D02*
X153023Y69552D01*
X152172Y69199D01*
X151441Y68638D01*
X150880Y67907D01*
X150527Y67055D01*
X150407Y66142D01*
X150527Y65228D01*
X150880Y64377D01*
X151441Y63645D01*
X152115Y63129D01*
Y22140D01*
X152115Y22140D01*
X152253Y21442D01*
X152648Y20851D01*
X156673Y16826D01*
X156728Y16409D01*
X157080Y15558D01*
X157642Y14827D01*
X158373Y14266D01*
X159224Y13913D01*
X160138Y13793D01*
X161051Y13913D01*
X161903Y14266D01*
X162634Y14827D01*
X163195Y15558D01*
X163548Y16409D01*
X163668Y17323D01*
X163548Y18237D01*
X163195Y19088D01*
X162634Y19819D01*
X161903Y20380D01*
X161051Y20733D01*
X160138Y20853D01*
X159224Y20733D01*
X158373Y20380D01*
X158317Y20337D01*
X155759Y22895D01*
Y63129D01*
X156433Y63645D01*
X156994Y64377D01*
X157347Y65228D01*
X157467Y66142D01*
X157347Y67055D01*
X156994Y67907D01*
X156433Y68638D01*
X155702Y69199D01*
X154851Y69552D01*
X153937Y69672D01*
D02*
G37*
G36*
X240158Y25061D02*
X238341Y24882D01*
X236594Y24352D01*
X234984Y23491D01*
X233573Y22333D01*
X232414Y20922D01*
X231554Y19312D01*
X231024Y17565D01*
X230845Y15748D01*
X231024Y13931D01*
X231554Y12184D01*
X232414Y10574D01*
X233573Y9163D01*
X234984Y8005D01*
X236594Y7144D01*
X238341Y6614D01*
X240158Y6436D01*
X241974Y6614D01*
X243721Y7144D01*
X245331Y8005D01*
X246743Y9163D01*
X247901Y10574D01*
X248761Y12184D01*
X249291Y13931D01*
X249470Y15748D01*
X249291Y17565D01*
X248761Y19312D01*
X247901Y20922D01*
X246743Y22333D01*
X245331Y23491D01*
X243721Y24352D01*
X241974Y24882D01*
X240158Y25061D01*
D02*
G37*
%LPD*%
G36*
X209055Y69597D02*
X215703D01*
X215748Y69552D01*
Y65970D01*
X215252Y65961D01*
X215248Y65961D01*
X211209D01*
Y61417D01*
Y56874D01*
X215248D01*
X215252Y56874D01*
X215748Y56865D01*
Y55543D01*
X213000D01*
X211895Y56001D01*
X210709Y56157D01*
X209523Y56001D01*
X208417Y55543D01*
X183102D01*
X183071Y55556D01*
Y112992D01*
X209055D01*
Y69597D01*
D02*
G37*
%LPC*%
G36*
X203650Y112126D02*
Y109161D01*
X206614D01*
X206559Y109575D01*
X206207Y110426D01*
X205646Y111158D01*
X204915Y111719D01*
X204063Y112071D01*
X203650Y112126D01*
D02*
G37*
G36*
X202650D02*
X202236Y112071D01*
X201384Y111719D01*
X200653Y111158D01*
X200092Y110426D01*
X199740Y109575D01*
X199685Y109161D01*
X202650D01*
Y112126D01*
D02*
G37*
G36*
X206614Y108161D02*
X203650D01*
Y105197D01*
X204063Y105252D01*
X204915Y105604D01*
X205646Y106165D01*
X206207Y106896D01*
X206559Y107748D01*
X206614Y108161D01*
D02*
G37*
G36*
X202650D02*
X199685D01*
X199740Y107748D01*
X200092Y106896D01*
X200653Y106165D01*
X201384Y105604D01*
X202236Y105252D01*
X202650Y105197D01*
Y108161D01*
D02*
G37*
G36*
X203650Y95078D02*
Y92114D01*
X206614D01*
X206559Y92528D01*
X206207Y93379D01*
X205646Y94110D01*
X204915Y94671D01*
X204063Y95024D01*
X203650Y95078D01*
D02*
G37*
G36*
X202650D02*
X202236Y95024D01*
X201384Y94671D01*
X200653Y94110D01*
X200092Y93379D01*
X199740Y92528D01*
X199685Y92114D01*
X202650D01*
Y95078D01*
D02*
G37*
G36*
X206614Y91114D02*
X203650D01*
Y88150D01*
X204063Y88204D01*
X204915Y88557D01*
X205646Y89118D01*
X206207Y89849D01*
X206559Y90701D01*
X206614Y91114D01*
D02*
G37*
G36*
X202650D02*
X199685D01*
X199740Y90701D01*
X200092Y89849D01*
X200653Y89118D01*
X201384Y88557D01*
X202236Y88204D01*
X202650Y88150D01*
Y91114D01*
D02*
G37*
G36*
X210209Y65961D02*
X206165D01*
Y61917D01*
X210209D01*
Y65961D01*
D02*
G37*
G36*
Y60917D02*
X206165D01*
Y56874D01*
X210209D01*
Y60917D01*
D02*
G37*
%LPD*%
D52*
X158754Y17323D02*
X160138D01*
X153937Y22140D02*
X158754Y17323D01*
X153937Y22140D02*
Y66142D01*
D54*
X160138Y42520D02*
X169193Y51575D01*
X210709D01*
D55*
X64567Y48031D02*
Y74937D01*
Y47244D02*
Y48031D01*
Y74937D02*
X68764Y79134D01*
X80216D01*
D56*
X240158Y122047D02*
D03*
X15748Y15748D02*
D03*
Y122047D02*
D03*
X240158Y15748D02*
D03*
D57*
X248819Y41732D02*
D03*
Y61417D02*
D03*
D58*
X220551Y41732D02*
D03*
Y51575D02*
D03*
Y61417D02*
D03*
X210709Y41732D02*
D03*
Y51575D02*
D03*
X20866Y40669D02*
D03*
X218110Y91614D02*
D03*
D59*
X210709Y61417D02*
D03*
X20866Y50669D02*
D03*
X218110Y81614D02*
D03*
D60*
X203150Y91614D02*
D03*
Y108661D02*
D03*
X202756Y17323D02*
D03*
X160138Y17323D02*
D03*
X159843Y30709D02*
D03*
X153937Y66142D02*
D03*
X77559Y22933D02*
D03*
X159843Y129528D02*
D03*
X64173Y120866D02*
D03*
X64567Y48031D02*
D03*
X80216Y79134D02*
D03*
X160138Y42520D02*
D03*
M02*
