G04*
G04 #@! TF.GenerationSoftware,Altium Limited,Altium Designer,19.1.8 (144)*
G04*
G04 Layer_Physical_Order=2*
G04 Layer_Color=16711680*
%FSLAX44Y44*%
%MOMM*%
G71*
G01*
G75*
%ADD13C,0.3810*%
%ADD30C,1.0000*%
%ADD51C,1.0000*%
%ADD52C,0.7500*%
%ADD53C,0.5080*%
%ADD55C,0.4000*%
%ADD57C,0.6350*%
%ADD59C,4.2000*%
%ADD60C,1.1000*%
%ADD61R,1.6000X1.6000*%
%ADD62C,1.6000*%
%ADD63C,0.8636*%
%ADD64C,0.9000*%
%ADD65C,0.6000*%
%ADD66C,0.6530*%
G36*
X1458250Y395750D02*
X613750D01*
Y1055250D01*
X1458250D01*
Y395750D01*
D02*
G37*
%LPC*%
G36*
X857394Y1043447D02*
X855232Y1043017D01*
X855174Y1042978D01*
X811485D01*
X810404Y1043193D01*
X808242Y1042763D01*
X806410Y1041538D01*
X805185Y1039706D01*
X804755Y1037544D01*
X805185Y1035382D01*
X806410Y1033550D01*
X808242Y1032325D01*
X810404Y1031896D01*
X812566Y1032325D01*
X813004Y1032618D01*
X855174D01*
X855232Y1032579D01*
X857394Y1032150D01*
X859556Y1032579D01*
X861388Y1033804D01*
X862613Y1035636D01*
X863043Y1037798D01*
X862613Y1039960D01*
X861388Y1041792D01*
X859556Y1043017D01*
X857394Y1043447D01*
D02*
G37*
G36*
X1058756Y1043733D02*
X1056966Y1043497D01*
X1055297Y1042806D01*
X1053865Y1041707D01*
X1052766Y1040275D01*
X1052075Y1038606D01*
X1051839Y1036816D01*
X1052075Y1035026D01*
X1052766Y1033357D01*
X1053865Y1031925D01*
X1055297Y1030826D01*
X1056966Y1030135D01*
X1058756Y1029899D01*
X1060546Y1030135D01*
X1062215Y1030826D01*
X1063647Y1031925D01*
X1064746Y1033357D01*
X1065437Y1035026D01*
X1065673Y1036816D01*
X1065437Y1038606D01*
X1064746Y1040275D01*
X1063647Y1041707D01*
X1062215Y1042806D01*
X1060546Y1043497D01*
X1058756Y1043733D01*
D02*
G37*
G36*
X1038690D02*
X1036900Y1043497D01*
X1035231Y1042806D01*
X1033799Y1041707D01*
X1032700Y1040275D01*
X1032009Y1038606D01*
X1031773Y1036816D01*
X1032009Y1035026D01*
X1032700Y1033357D01*
X1033799Y1031925D01*
X1035231Y1030826D01*
X1036900Y1030135D01*
X1038690Y1029899D01*
X1040480Y1030135D01*
X1042149Y1030826D01*
X1043581Y1031925D01*
X1044680Y1033357D01*
X1045371Y1035026D01*
X1045607Y1036816D01*
X1045371Y1038606D01*
X1044680Y1040275D01*
X1043581Y1041707D01*
X1042149Y1042806D01*
X1040480Y1043497D01*
X1038690Y1043733D01*
D02*
G37*
G36*
X1179152Y1043479D02*
X1177362Y1043243D01*
X1175693Y1042552D01*
X1174261Y1041453D01*
X1173161Y1040021D01*
X1172470Y1038352D01*
X1172235Y1036562D01*
X1172470Y1034772D01*
X1173161Y1033103D01*
X1174261Y1031671D01*
X1175693Y1030572D01*
X1177362Y1029881D01*
X1179152Y1029645D01*
X1180942Y1029881D01*
X1182611Y1030572D01*
X1184043Y1031671D01*
X1185143Y1033103D01*
X1185834Y1034772D01*
X1186069Y1036562D01*
X1185834Y1038352D01*
X1185143Y1040021D01*
X1184043Y1041453D01*
X1182611Y1042552D01*
X1180942Y1043243D01*
X1179152Y1043479D01*
D02*
G37*
G36*
X1159086D02*
X1157296Y1043243D01*
X1155627Y1042552D01*
X1154195Y1041453D01*
X1153095Y1040021D01*
X1152404Y1038352D01*
X1152169Y1036562D01*
X1152404Y1034772D01*
X1153095Y1033103D01*
X1154195Y1031671D01*
X1155627Y1030572D01*
X1157296Y1029881D01*
X1159086Y1029645D01*
X1160876Y1029881D01*
X1162545Y1030572D01*
X1163977Y1031671D01*
X1165077Y1033103D01*
X1165768Y1034772D01*
X1166003Y1036562D01*
X1165768Y1038352D01*
X1165077Y1040021D01*
X1163977Y1041453D01*
X1162545Y1042552D01*
X1160876Y1043243D01*
X1159086Y1043479D01*
D02*
G37*
G36*
X1139020D02*
X1137230Y1043243D01*
X1135561Y1042552D01*
X1134129Y1041453D01*
X1133029Y1040021D01*
X1132338Y1038352D01*
X1132103Y1036562D01*
X1132338Y1034772D01*
X1133029Y1033103D01*
X1134129Y1031671D01*
X1135561Y1030572D01*
X1137230Y1029881D01*
X1139020Y1029645D01*
X1140810Y1029881D01*
X1142479Y1030572D01*
X1143911Y1031671D01*
X1145011Y1033103D01*
X1145702Y1034772D01*
X1145937Y1036562D01*
X1145702Y1038352D01*
X1145011Y1040021D01*
X1143911Y1041453D01*
X1142479Y1042552D01*
X1140810Y1043243D01*
X1139020Y1043479D01*
D02*
G37*
G36*
X1118954D02*
X1117164Y1043243D01*
X1115495Y1042552D01*
X1114063Y1041453D01*
X1112963Y1040021D01*
X1112272Y1038352D01*
X1112037Y1036562D01*
X1112272Y1034772D01*
X1112963Y1033103D01*
X1114063Y1031671D01*
X1115495Y1030572D01*
X1117164Y1029881D01*
X1118954Y1029645D01*
X1120744Y1029881D01*
X1122413Y1030572D01*
X1123845Y1031671D01*
X1124945Y1033103D01*
X1125636Y1034772D01*
X1125871Y1036562D01*
X1125636Y1038352D01*
X1124945Y1040021D01*
X1123845Y1041453D01*
X1122413Y1042552D01*
X1120744Y1043243D01*
X1118954Y1043479D01*
D02*
G37*
G36*
X1098888D02*
X1097098Y1043243D01*
X1095429Y1042552D01*
X1093997Y1041453D01*
X1092897Y1040021D01*
X1092206Y1038352D01*
X1091971Y1036562D01*
X1092206Y1034772D01*
X1092897Y1033103D01*
X1093997Y1031671D01*
X1095429Y1030572D01*
X1097098Y1029881D01*
X1098888Y1029645D01*
X1100678Y1029881D01*
X1102347Y1030572D01*
X1103779Y1031671D01*
X1104878Y1033103D01*
X1105570Y1034772D01*
X1105805Y1036562D01*
X1105570Y1038352D01*
X1104878Y1040021D01*
X1103779Y1041453D01*
X1102347Y1042552D01*
X1100678Y1043243D01*
X1098888Y1043479D01*
D02*
G37*
G36*
X1078822D02*
X1077032Y1043243D01*
X1075363Y1042552D01*
X1073931Y1041453D01*
X1072831Y1040021D01*
X1072141Y1038352D01*
X1071905Y1036562D01*
X1072141Y1034772D01*
X1072831Y1033103D01*
X1073931Y1031671D01*
X1075363Y1030572D01*
X1077032Y1029881D01*
X1078822Y1029645D01*
X1080612Y1029881D01*
X1082281Y1030572D01*
X1083713Y1031671D01*
X1084812Y1033103D01*
X1085503Y1034772D01*
X1085739Y1036562D01*
X1085503Y1038352D01*
X1084812Y1040021D01*
X1083713Y1041453D01*
X1082281Y1042552D01*
X1080612Y1043243D01*
X1078822Y1043479D01*
D02*
G37*
G36*
X1018624D02*
X1016834Y1043243D01*
X1015165Y1042552D01*
X1013733Y1041453D01*
X1012634Y1040021D01*
X1011943Y1038352D01*
X1011707Y1036562D01*
X1011943Y1034772D01*
X1012634Y1033103D01*
X1013733Y1031671D01*
X1015165Y1030572D01*
X1016834Y1029881D01*
X1018624Y1029645D01*
X1020414Y1029881D01*
X1022083Y1030572D01*
X1023515Y1031671D01*
X1024614Y1033103D01*
X1025305Y1034772D01*
X1025541Y1036562D01*
X1025305Y1038352D01*
X1024614Y1040021D01*
X1023515Y1041453D01*
X1022083Y1042552D01*
X1020414Y1043243D01*
X1018624Y1043479D01*
D02*
G37*
G36*
X998558D02*
X996768Y1043243D01*
X995099Y1042552D01*
X993667Y1041453D01*
X992568Y1040021D01*
X991877Y1038352D01*
X991641Y1036562D01*
X991877Y1034772D01*
X992568Y1033103D01*
X993667Y1031671D01*
X995099Y1030572D01*
X996768Y1029881D01*
X998558Y1029645D01*
X1000348Y1029881D01*
X1002017Y1030572D01*
X1003449Y1031671D01*
X1004548Y1033103D01*
X1005239Y1034772D01*
X1005475Y1036562D01*
X1005239Y1038352D01*
X1004548Y1040021D01*
X1003449Y1041453D01*
X1002017Y1042552D01*
X1000348Y1043243D01*
X998558Y1043479D01*
D02*
G37*
G36*
X979000D02*
X977210Y1043243D01*
X975541Y1042552D01*
X974109Y1041453D01*
X973009Y1040021D01*
X972318Y1038352D01*
X972083Y1036562D01*
X972318Y1034772D01*
X973009Y1033103D01*
X974109Y1031671D01*
X975541Y1030572D01*
X977210Y1029881D01*
X979000Y1029645D01*
X980790Y1029881D01*
X982459Y1030572D01*
X983891Y1031671D01*
X984990Y1033103D01*
X985682Y1034772D01*
X985917Y1036562D01*
X985682Y1038352D01*
X984990Y1040021D01*
X983891Y1041453D01*
X982459Y1042552D01*
X980790Y1043243D01*
X979000Y1043479D01*
D02*
G37*
G36*
X782750Y1044706D02*
X780756Y1044443D01*
X778897Y1043673D01*
X777301Y1042449D01*
X776077Y1040853D01*
X775307Y1038994D01*
X775044Y1037000D01*
X775307Y1035006D01*
X776077Y1033147D01*
X777301Y1031551D01*
X778897Y1030327D01*
X780756Y1029557D01*
X782750Y1029294D01*
X784744Y1029557D01*
X786603Y1030327D01*
X788199Y1031551D01*
X789424Y1033147D01*
X790193Y1035006D01*
X790456Y1037000D01*
X790193Y1038994D01*
X789424Y1040853D01*
X788199Y1042449D01*
X786603Y1043673D01*
X784744Y1044443D01*
X782750Y1044706D01*
D02*
G37*
G36*
X757350D02*
X755356Y1044443D01*
X753497Y1043673D01*
X751901Y1042449D01*
X750676Y1040853D01*
X749907Y1038994D01*
X749644Y1037000D01*
X749907Y1035006D01*
X750676Y1033147D01*
X751901Y1031551D01*
X753497Y1030327D01*
X755356Y1029557D01*
X757350Y1029294D01*
X759344Y1029557D01*
X761203Y1030327D01*
X762799Y1031551D01*
X764024Y1033147D01*
X764793Y1035006D01*
X765056Y1037000D01*
X764793Y1038994D01*
X764024Y1040853D01*
X762799Y1042449D01*
X761203Y1043673D01*
X759344Y1044443D01*
X757350Y1044706D01*
D02*
G37*
G36*
X731950D02*
X729956Y1044443D01*
X728097Y1043673D01*
X726501Y1042449D01*
X725276Y1040853D01*
X724507Y1038994D01*
X724244Y1037000D01*
X724507Y1035006D01*
X725276Y1033147D01*
X726501Y1031551D01*
X728097Y1030327D01*
X729956Y1029557D01*
X731950Y1029294D01*
X733944Y1029557D01*
X735803Y1030327D01*
X737399Y1031551D01*
X738624Y1033147D01*
X739393Y1035006D01*
X739656Y1037000D01*
X739393Y1038994D01*
X738624Y1040853D01*
X737399Y1042449D01*
X735803Y1043673D01*
X733944Y1044443D01*
X731950Y1044706D01*
D02*
G37*
G36*
X651770Y1047029D02*
Y1024770D01*
X674029D01*
X673699Y1028115D01*
X672353Y1032552D01*
X670168Y1036641D01*
X667226Y1040226D01*
X663642Y1043167D01*
X659552Y1045353D01*
X655115Y1046699D01*
X651770Y1047029D01*
D02*
G37*
G36*
X649230D02*
X645885Y1046699D01*
X641448Y1045353D01*
X637359Y1043167D01*
X633774Y1040226D01*
X630833Y1036641D01*
X628647Y1032552D01*
X627301Y1028115D01*
X626971Y1024770D01*
X649230D01*
Y1047029D01*
D02*
G37*
G36*
X1422770Y1047029D02*
Y1024770D01*
X1445029D01*
X1444699Y1028115D01*
X1443353Y1032552D01*
X1441167Y1036641D01*
X1438226Y1040226D01*
X1434641Y1043167D01*
X1430552Y1045353D01*
X1426115Y1046699D01*
X1422770Y1047029D01*
D02*
G37*
G36*
X1420230D02*
X1416885Y1046699D01*
X1412448Y1045353D01*
X1408359Y1043167D01*
X1404774Y1040226D01*
X1401832Y1036641D01*
X1399647Y1032552D01*
X1398301Y1028115D01*
X1397971Y1024770D01*
X1420230D01*
Y1047029D01*
D02*
G37*
G36*
X1058756Y1023921D02*
X1056966Y1023686D01*
X1055297Y1022995D01*
X1053865Y1021895D01*
X1052766Y1020463D01*
X1052075Y1018794D01*
X1051839Y1017004D01*
X1052075Y1015214D01*
X1052766Y1013545D01*
X1053865Y1012113D01*
X1055297Y1011013D01*
X1056966Y1010322D01*
X1058756Y1010087D01*
X1060546Y1010322D01*
X1062215Y1011013D01*
X1063647Y1012113D01*
X1064746Y1013545D01*
X1065437Y1015214D01*
X1065673Y1017004D01*
X1065437Y1018794D01*
X1064746Y1020463D01*
X1063647Y1021895D01*
X1062215Y1022995D01*
X1060546Y1023686D01*
X1058756Y1023921D01*
D02*
G37*
G36*
X1038690D02*
X1036900Y1023686D01*
X1035231Y1022995D01*
X1033799Y1021895D01*
X1032700Y1020463D01*
X1032009Y1018794D01*
X1031773Y1017004D01*
X1032009Y1015214D01*
X1032700Y1013545D01*
X1033799Y1012113D01*
X1035231Y1011013D01*
X1036900Y1010322D01*
X1038690Y1010087D01*
X1040480Y1010322D01*
X1042149Y1011013D01*
X1043581Y1012113D01*
X1044680Y1013545D01*
X1045371Y1015214D01*
X1045607Y1017004D01*
X1045371Y1018794D01*
X1044680Y1020463D01*
X1043581Y1021895D01*
X1042149Y1022995D01*
X1040480Y1023686D01*
X1038690Y1023921D01*
D02*
G37*
G36*
X1179152Y1023667D02*
X1177362Y1023431D01*
X1175693Y1022740D01*
X1174261Y1021641D01*
X1173161Y1020209D01*
X1172470Y1018540D01*
X1172235Y1016750D01*
X1172470Y1014960D01*
X1173161Y1013291D01*
X1174261Y1011859D01*
X1175693Y1010760D01*
X1177362Y1010069D01*
X1179152Y1009833D01*
X1180942Y1010069D01*
X1182611Y1010760D01*
X1184043Y1011859D01*
X1185143Y1013291D01*
X1185834Y1014960D01*
X1186069Y1016750D01*
X1185834Y1018540D01*
X1185143Y1020209D01*
X1184043Y1021641D01*
X1182611Y1022740D01*
X1180942Y1023431D01*
X1179152Y1023667D01*
D02*
G37*
G36*
X1159086D02*
X1157296Y1023431D01*
X1155627Y1022740D01*
X1154195Y1021641D01*
X1153095Y1020209D01*
X1152404Y1018540D01*
X1152169Y1016750D01*
X1152404Y1014960D01*
X1153095Y1013291D01*
X1154195Y1011859D01*
X1155627Y1010760D01*
X1157296Y1010069D01*
X1159086Y1009833D01*
X1160876Y1010069D01*
X1162545Y1010760D01*
X1163977Y1011859D01*
X1165077Y1013291D01*
X1165768Y1014960D01*
X1166003Y1016750D01*
X1165768Y1018540D01*
X1165077Y1020209D01*
X1163977Y1021641D01*
X1162545Y1022740D01*
X1160876Y1023431D01*
X1159086Y1023667D01*
D02*
G37*
G36*
X1139020D02*
X1137230Y1023431D01*
X1135561Y1022740D01*
X1134129Y1021641D01*
X1133029Y1020209D01*
X1132338Y1018540D01*
X1132103Y1016750D01*
X1132338Y1014960D01*
X1133029Y1013291D01*
X1134129Y1011859D01*
X1135561Y1010760D01*
X1137230Y1010069D01*
X1139020Y1009833D01*
X1140810Y1010069D01*
X1142479Y1010760D01*
X1143911Y1011859D01*
X1145011Y1013291D01*
X1145702Y1014960D01*
X1145937Y1016750D01*
X1145702Y1018540D01*
X1145011Y1020209D01*
X1143911Y1021641D01*
X1142479Y1022740D01*
X1140810Y1023431D01*
X1139020Y1023667D01*
D02*
G37*
G36*
X1118954D02*
X1117164Y1023431D01*
X1115495Y1022740D01*
X1114063Y1021641D01*
X1112963Y1020209D01*
X1112272Y1018540D01*
X1112037Y1016750D01*
X1112272Y1014960D01*
X1112963Y1013291D01*
X1114063Y1011859D01*
X1115495Y1010760D01*
X1117164Y1010069D01*
X1118954Y1009833D01*
X1120744Y1010069D01*
X1122413Y1010760D01*
X1123845Y1011859D01*
X1124945Y1013291D01*
X1125636Y1014960D01*
X1125871Y1016750D01*
X1125636Y1018540D01*
X1124945Y1020209D01*
X1123845Y1021641D01*
X1122413Y1022740D01*
X1120744Y1023431D01*
X1118954Y1023667D01*
D02*
G37*
G36*
X1098888D02*
X1097098Y1023431D01*
X1095429Y1022740D01*
X1093997Y1021641D01*
X1092897Y1020209D01*
X1092206Y1018540D01*
X1091971Y1016750D01*
X1092206Y1014960D01*
X1092897Y1013291D01*
X1093997Y1011859D01*
X1095429Y1010760D01*
X1097098Y1010069D01*
X1098888Y1009833D01*
X1100678Y1010069D01*
X1102347Y1010760D01*
X1103779Y1011859D01*
X1104878Y1013291D01*
X1105570Y1014960D01*
X1105805Y1016750D01*
X1105570Y1018540D01*
X1104878Y1020209D01*
X1103779Y1021641D01*
X1102347Y1022740D01*
X1100678Y1023431D01*
X1098888Y1023667D01*
D02*
G37*
G36*
X1078822D02*
X1077032Y1023431D01*
X1075363Y1022740D01*
X1073931Y1021641D01*
X1072831Y1020209D01*
X1072141Y1018540D01*
X1071905Y1016750D01*
X1072141Y1014960D01*
X1072831Y1013291D01*
X1073931Y1011859D01*
X1075363Y1010760D01*
X1077032Y1010069D01*
X1078822Y1009833D01*
X1080612Y1010069D01*
X1082281Y1010760D01*
X1083713Y1011859D01*
X1084812Y1013291D01*
X1085503Y1014960D01*
X1085739Y1016750D01*
X1085503Y1018540D01*
X1084812Y1020209D01*
X1083713Y1021641D01*
X1082281Y1022740D01*
X1080612Y1023431D01*
X1078822Y1023667D01*
D02*
G37*
G36*
X1018624D02*
X1016834Y1023431D01*
X1015165Y1022740D01*
X1013733Y1021641D01*
X1012634Y1020209D01*
X1011943Y1018540D01*
X1011707Y1016750D01*
X1011943Y1014960D01*
X1012634Y1013291D01*
X1013733Y1011859D01*
X1015165Y1010760D01*
X1016834Y1010069D01*
X1018624Y1009833D01*
X1020414Y1010069D01*
X1022083Y1010760D01*
X1023515Y1011859D01*
X1024614Y1013291D01*
X1025305Y1014960D01*
X1025541Y1016750D01*
X1025305Y1018540D01*
X1024614Y1020209D01*
X1023515Y1021641D01*
X1022083Y1022740D01*
X1020414Y1023431D01*
X1018624Y1023667D01*
D02*
G37*
G36*
X998558D02*
X996768Y1023431D01*
X995099Y1022740D01*
X993667Y1021641D01*
X992568Y1020209D01*
X991877Y1018540D01*
X991641Y1016750D01*
X991877Y1014960D01*
X992568Y1013291D01*
X993667Y1011859D01*
X995099Y1010760D01*
X996768Y1010069D01*
X998558Y1009833D01*
X1000348Y1010069D01*
X1002017Y1010760D01*
X1003449Y1011859D01*
X1004548Y1013291D01*
X1005239Y1014960D01*
X1005475Y1016750D01*
X1005239Y1018540D01*
X1004548Y1020209D01*
X1003449Y1021641D01*
X1002017Y1022740D01*
X1000348Y1023431D01*
X998558Y1023667D01*
D02*
G37*
G36*
X979000D02*
X977210Y1023431D01*
X975541Y1022740D01*
X974109Y1021641D01*
X973009Y1020209D01*
X972318Y1018540D01*
X972083Y1016750D01*
X972318Y1014960D01*
X973009Y1013291D01*
X974109Y1011859D01*
X975541Y1010760D01*
X977210Y1010069D01*
X979000Y1009833D01*
X980790Y1010069D01*
X982459Y1010760D01*
X983891Y1011859D01*
X984990Y1013291D01*
X985682Y1014960D01*
X985917Y1016750D01*
X985682Y1018540D01*
X984990Y1020209D01*
X983891Y1021641D01*
X982459Y1022740D01*
X980790Y1023431D01*
X979000Y1023667D01*
D02*
G37*
G36*
X1380770Y1006433D02*
Y1000770D01*
X1386434D01*
X1386359Y1001338D01*
X1385649Y1003050D01*
X1384521Y1004521D01*
X1383050Y1005649D01*
X1381338Y1006359D01*
X1380770Y1006433D01*
D02*
G37*
G36*
X1378230D02*
X1377662Y1006359D01*
X1375950Y1005649D01*
X1374479Y1004521D01*
X1373351Y1003050D01*
X1372641Y1001338D01*
X1372567Y1000770D01*
X1378230D01*
Y1006433D01*
D02*
G37*
G36*
X649230Y1022230D02*
X626971D01*
X627301Y1018885D01*
X628647Y1014448D01*
X630833Y1010359D01*
X633774Y1006774D01*
X637359Y1003833D01*
X641448Y1001647D01*
X645885Y1000301D01*
X649230Y999971D01*
Y1022230D01*
D02*
G37*
G36*
X674029D02*
X651770D01*
Y999971D01*
X655115Y1000301D01*
X659552Y1001647D01*
X663642Y1003833D01*
X667226Y1006774D01*
X670168Y1010359D01*
X672353Y1014448D01*
X673699Y1018885D01*
X674029Y1022230D01*
D02*
G37*
G36*
X1445029Y1022230D02*
X1422770D01*
Y999971D01*
X1426115Y1000301D01*
X1430552Y1001647D01*
X1434641Y1003832D01*
X1438226Y1006774D01*
X1441167Y1010359D01*
X1443353Y1014448D01*
X1444699Y1018885D01*
X1445029Y1022230D01*
D02*
G37*
G36*
X1420230D02*
X1397971D01*
X1398301Y1018885D01*
X1399647Y1014448D01*
X1401832Y1010359D01*
X1404774Y1006774D01*
X1408359Y1003832D01*
X1412448Y1001647D01*
X1416885Y1000301D01*
X1420230Y999971D01*
Y1022230D01*
D02*
G37*
G36*
X1386434Y998230D02*
X1380770D01*
Y992567D01*
X1381338Y992641D01*
X1383050Y993351D01*
X1384521Y994479D01*
X1385649Y995950D01*
X1386359Y997662D01*
X1386434Y998230D01*
D02*
G37*
G36*
X1378230D02*
X1372567D01*
X1372641Y997662D01*
X1373351Y995950D01*
X1374479Y994479D01*
X1375950Y993351D01*
X1377662Y992641D01*
X1378230Y992567D01*
Y998230D01*
D02*
G37*
G36*
X1417210Y975890D02*
Y969218D01*
X1423882D01*
X1423773Y970047D01*
X1422963Y972003D01*
X1421674Y973682D01*
X1419995Y974971D01*
X1418039Y975781D01*
X1417210Y975890D01*
D02*
G37*
G36*
X1414670D02*
X1413841Y975781D01*
X1411885Y974971D01*
X1410206Y973682D01*
X1408917Y972003D01*
X1408107Y970047D01*
X1407998Y969218D01*
X1414670D01*
Y975890D01*
D02*
G37*
G36*
X1423882Y966678D02*
X1417210D01*
Y960006D01*
X1418039Y960115D01*
X1419995Y960925D01*
X1421674Y962214D01*
X1422963Y963893D01*
X1423773Y965849D01*
X1423882Y966678D01*
D02*
G37*
G36*
X1414670D02*
X1407998D01*
X1408107Y965849D01*
X1408917Y963893D01*
X1410206Y962214D01*
X1411885Y960925D01*
X1413841Y960115D01*
X1414670Y960006D01*
Y966678D01*
D02*
G37*
G36*
X1129428Y1008649D02*
X1127266Y1008219D01*
X1125434Y1006994D01*
X1124209Y1005162D01*
X1123780Y1003000D01*
X1124209Y1000838D01*
X1125434Y999006D01*
X1127266Y997781D01*
X1127335Y997768D01*
X1140244Y984859D01*
X1141924Y983737D01*
X1143906Y983343D01*
X1235233D01*
X1254544Y964032D01*
X1256224Y962909D01*
X1258206Y962514D01*
X1307877D01*
X1309298Y961093D01*
X1308812Y959920D01*
X1277190D01*
X1277132Y959959D01*
X1274970Y960388D01*
X1272808Y959959D01*
X1270976Y958734D01*
X1269751Y956902D01*
X1269322Y954740D01*
X1269751Y952578D01*
X1270976Y950746D01*
X1272808Y949521D01*
X1274970Y949091D01*
X1277132Y949521D01*
X1277190Y949560D01*
X1308385D01*
X1310430Y947515D01*
Y942840D01*
X1309160Y942161D01*
X1308374Y942687D01*
X1306212Y943117D01*
X1304050Y942687D01*
X1302218Y941462D01*
X1301938Y941044D01*
X1300411D01*
X1299792Y941970D01*
X1297960Y943195D01*
X1295798Y943624D01*
X1293636Y943195D01*
X1291804Y941970D01*
X1290579Y940138D01*
X1290150Y937976D01*
X1290579Y935814D01*
X1290618Y935756D01*
Y897082D01*
X1291013Y895100D01*
X1291794Y893931D01*
X1291849Y893650D01*
X1293074Y891818D01*
X1294906Y890593D01*
X1297068Y890163D01*
X1299230Y890593D01*
X1301062Y891818D01*
X1302287Y893650D01*
X1302717Y895812D01*
X1302287Y897974D01*
X1301351Y899374D01*
X1301496Y900208D01*
X1302538Y900756D01*
X1302871Y900778D01*
X1303288Y900499D01*
X1305450Y900070D01*
X1307612Y900499D01*
X1309444Y901724D01*
X1309641Y902019D01*
X1310911D01*
X1311108Y901724D01*
X1312940Y900499D01*
X1315102Y900070D01*
X1317264Y900499D01*
X1319096Y901724D01*
X1319420Y902209D01*
X1320690D01*
X1321014Y901724D01*
X1322846Y900499D01*
X1325008Y900070D01*
X1327170Y900499D01*
X1329002Y901724D01*
X1329326Y902209D01*
X1330596D01*
X1330920Y901724D01*
X1332752Y900499D01*
X1334914Y900070D01*
X1337076Y900499D01*
X1338908Y901724D01*
X1339477Y902575D01*
X1339492Y902586D01*
X1341012D01*
X1341588Y901724D01*
X1343420Y900499D01*
X1345582Y900070D01*
X1347744Y900499D01*
X1349576Y901724D01*
X1350800Y903556D01*
X1351230Y905718D01*
X1350800Y907880D01*
X1349576Y909712D01*
X1347744Y910937D01*
X1347516Y910982D01*
X1346806Y911692D01*
Y972030D01*
X1346845Y972088D01*
X1347274Y974250D01*
X1346845Y976412D01*
X1345620Y978244D01*
X1343788Y979469D01*
X1341626Y979899D01*
X1339464Y979469D01*
X1337632Y978244D01*
X1337118Y977475D01*
X1335591D01*
X1335244Y977994D01*
X1333412Y979219D01*
X1331250Y979649D01*
X1329088Y979219D01*
X1327256Y977994D01*
X1326031Y976162D01*
X1325602Y974000D01*
X1326031Y971838D01*
X1327256Y970006D01*
X1327820Y969629D01*
Y958880D01*
X1326647Y958394D01*
X1313685Y971357D01*
X1312004Y972479D01*
X1310022Y972874D01*
X1308858D01*
X1308483Y973956D01*
X1308448Y974144D01*
X1309653Y975946D01*
X1310083Y978108D01*
X1309653Y980270D01*
X1308428Y982102D01*
X1306596Y983327D01*
X1304434Y983756D01*
X1302272Y983327D01*
X1301454Y982779D01*
X1281000D01*
X1280942Y982819D01*
X1278780Y983249D01*
X1276618Y982819D01*
X1274786Y981594D01*
X1273561Y979762D01*
X1273131Y977600D01*
X1273561Y975438D01*
X1274427Y974144D01*
X1273770Y972874D01*
X1260351D01*
X1241040Y992185D01*
X1239360Y993307D01*
X1237378Y993701D01*
X1146051D01*
X1134660Y1005093D01*
X1134647Y1005162D01*
X1133422Y1006994D01*
X1131590Y1008219D01*
X1129428Y1008649D01*
D02*
G37*
G36*
X1390540Y976057D02*
X1388441Y975781D01*
X1386485Y974971D01*
X1384806Y973682D01*
X1383517Y972003D01*
X1382707Y970047D01*
X1382431Y967948D01*
X1382707Y965849D01*
X1383517Y963893D01*
X1384806Y962214D01*
X1386485Y960925D01*
X1388441Y960115D01*
X1390540Y959839D01*
X1392639Y960115D01*
X1394595Y960925D01*
X1396274Y962214D01*
X1397563Y963893D01*
X1398373Y965849D01*
X1398649Y967948D01*
X1398373Y970047D01*
X1397563Y972003D01*
X1396274Y973682D01*
X1394595Y974971D01*
X1392639Y975781D01*
X1390540Y976057D01*
D02*
G37*
G36*
X762020Y949684D02*
Y944020D01*
X767683D01*
X767609Y944588D01*
X766899Y946300D01*
X765771Y947771D01*
X764300Y948899D01*
X762588Y949609D01*
X762020Y949684D01*
D02*
G37*
G36*
X759480D02*
X758912Y949609D01*
X757200Y948899D01*
X755729Y947771D01*
X754601Y946300D01*
X753891Y944588D01*
X753817Y944020D01*
X759480D01*
Y949684D01*
D02*
G37*
G36*
X767683Y941480D02*
X762020D01*
Y935816D01*
X762588Y935891D01*
X764300Y936601D01*
X765771Y937729D01*
X766899Y939200D01*
X767609Y940912D01*
X767683Y941480D01*
D02*
G37*
G36*
X759480D02*
X753817D01*
X753891Y940912D01*
X754601Y939200D01*
X755729Y937729D01*
X757200Y936601D01*
X758912Y935891D01*
X759480Y935816D01*
Y941480D01*
D02*
G37*
G36*
X1019446Y968516D02*
X1017284Y968087D01*
X1015452Y966862D01*
X1014227Y965030D01*
X1013798Y962868D01*
X1014227Y960706D01*
X1014267Y960648D01*
Y948390D01*
X1014661Y946408D01*
X1015783Y944727D01*
X1024426Y936085D01*
Y932664D01*
X1023249Y931906D01*
X1023157Y931918D01*
X1022093Y933511D01*
X993667Y961936D01*
X993852Y962868D01*
X993422Y965030D01*
X992198Y966862D01*
X990366Y968087D01*
X988204Y968516D01*
X986042Y968087D01*
X984210Y966862D01*
X982985Y965030D01*
X982555Y962868D01*
X982985Y960706D01*
X983025Y960648D01*
Y960074D01*
X983419Y958092D01*
X984541Y956412D01*
X1013251Y927703D01*
Y907176D01*
X1013211Y907118D01*
X1012782Y904956D01*
X1013211Y902794D01*
X1014436Y900962D01*
X1016268Y899737D01*
X1018430Y899307D01*
X1020592Y899737D01*
X1022424Y900962D01*
X1023296Y902267D01*
X1024740D01*
X1025612Y900962D01*
X1027444Y899737D01*
X1029606Y899307D01*
X1031768Y899737D01*
X1033600Y900962D01*
X1034825Y902794D01*
X1035255Y904956D01*
X1034825Y907118D01*
X1034786Y907176D01*
Y938230D01*
X1034391Y940212D01*
X1033269Y941892D01*
X1024625Y950535D01*
Y960648D01*
X1024665Y960706D01*
X1025095Y962868D01*
X1024665Y965030D01*
X1023440Y966862D01*
X1021608Y968087D01*
X1019446Y968516D01*
D02*
G37*
G36*
X882286Y976898D02*
X880124Y976469D01*
X878292Y975244D01*
X877067Y973412D01*
X876637Y971250D01*
X877067Y969088D01*
X877149Y968966D01*
Y936956D01*
X876559Y936074D01*
X876130Y933912D01*
X876559Y931750D01*
X877784Y929918D01*
X879616Y928693D01*
X881778Y928263D01*
X883940Y928693D01*
X885772Y929918D01*
X886997Y931750D01*
X887427Y933912D01*
X886997Y936074D01*
X886407Y936956D01*
Y967446D01*
X887505Y969088D01*
X887934Y971250D01*
X887505Y973412D01*
X886280Y975244D01*
X884448Y976469D01*
X882286Y976898D01*
D02*
G37*
G36*
X869332D02*
X867170Y976469D01*
X865338Y975244D01*
X864113Y973412D01*
X863683Y971250D01*
X864113Y969088D01*
X864449Y968586D01*
Y936956D01*
X863859Y936074D01*
X863429Y933912D01*
X863859Y931750D01*
X865084Y929918D01*
X866916Y928693D01*
X869078Y928263D01*
X871240Y928693D01*
X873072Y929918D01*
X874296Y931750D01*
X874726Y933912D01*
X874296Y936074D01*
X873707Y936956D01*
Y967826D01*
X874550Y969088D01*
X874980Y971250D01*
X874550Y973412D01*
X873326Y975244D01*
X871494Y976469D01*
X869332Y976898D01*
D02*
G37*
G36*
X856378D02*
X854216Y976469D01*
X852384Y975244D01*
X851159Y973412D01*
X850730Y971250D01*
X851159Y969088D01*
X851495Y968586D01*
Y936576D01*
X851159Y936074D01*
X850730Y933912D01*
X851159Y931750D01*
X852384Y929918D01*
X854216Y928693D01*
X856378Y928263D01*
X858540Y928693D01*
X860372Y929918D01*
X861597Y931750D01*
X862027Y933912D01*
X861597Y936074D01*
X860753Y937336D01*
Y967826D01*
X861597Y969088D01*
X862027Y971250D01*
X861597Y973412D01*
X860372Y975244D01*
X858540Y976469D01*
X856378Y976898D01*
D02*
G37*
G36*
X1029225Y1006489D02*
X1027063Y1006060D01*
X1025231Y1004835D01*
X1024006Y1003003D01*
X1023577Y1000841D01*
X1024006Y998679D01*
X1024045Y998621D01*
Y983823D01*
X1024440Y981841D01*
X1025563Y980161D01*
X1030262Y975462D01*
X1030262Y975462D01*
X1036383Y969341D01*
X1036430Y969049D01*
X1036247Y967929D01*
X1036161Y967801D01*
X1034756Y966862D01*
X1033531Y965030D01*
X1033102Y962868D01*
X1033531Y960706D01*
X1034756Y958874D01*
X1035641Y958282D01*
X1035650Y958259D01*
X1035554Y956813D01*
X1034248Y955940D01*
X1033023Y954108D01*
X1032594Y951946D01*
X1033023Y949784D01*
X1034248Y947952D01*
X1036080Y946727D01*
X1036149Y946714D01*
X1037381Y945483D01*
Y907176D01*
X1037341Y907118D01*
X1036911Y904956D01*
X1037341Y902794D01*
X1038566Y900962D01*
X1040398Y899737D01*
X1042560Y899307D01*
X1044722Y899737D01*
X1046554Y900962D01*
X1047257Y902014D01*
X1048785D01*
X1049488Y900962D01*
X1051320Y899737D01*
X1053482Y899307D01*
X1055644Y899737D01*
X1057476Y900962D01*
X1058700Y902794D01*
X1059130Y904956D01*
X1058700Y907118D01*
X1057899Y908316D01*
Y927628D01*
X1057939Y927686D01*
X1058369Y929848D01*
X1057939Y932010D01*
X1056714Y933842D01*
X1054882Y935067D01*
X1052720Y935497D01*
X1050558Y935067D01*
X1049009Y934032D01*
X1047739Y934478D01*
Y947628D01*
X1047345Y949610D01*
X1046223Y951291D01*
X1043474Y954039D01*
X1043460Y954108D01*
X1042236Y955940D01*
X1041520Y956419D01*
X1041905Y957689D01*
X1054639D01*
X1058101Y954226D01*
X1057683Y952848D01*
X1056400Y952593D01*
X1054568Y951368D01*
X1053343Y949536D01*
X1052914Y947374D01*
X1053343Y945212D01*
X1054568Y943380D01*
X1056400Y942155D01*
X1056469Y942142D01*
X1066076Y932535D01*
X1067756Y931413D01*
X1069738Y931019D01*
X1130585D01*
X1134917Y926687D01*
Y887872D01*
X1134877Y887814D01*
X1134447Y885652D01*
X1134877Y883490D01*
X1136102Y881658D01*
X1137934Y880433D01*
X1140096Y880004D01*
X1140252Y880034D01*
X1140604Y879965D01*
X1142586Y880359D01*
X1144267Y881481D01*
X1145389Y883162D01*
X1145716Y884803D01*
X1147010D01*
X1147069Y884506D01*
X1148294Y882674D01*
X1150126Y881449D01*
X1152288Y881020D01*
X1154450Y881449D01*
X1156282Y882674D01*
X1157506Y884506D01*
X1157936Y886668D01*
X1157506Y888830D01*
X1157467Y888888D01*
Y933581D01*
X1158737Y934108D01*
X1164634Y928211D01*
Y836489D01*
X1162895Y834750D01*
X1162826Y834737D01*
X1160994Y833512D01*
X1159769Y831680D01*
X1159340Y829518D01*
X1159769Y827356D01*
X1160994Y825524D01*
X1162826Y824299D01*
X1164988Y823869D01*
X1167150Y824299D01*
X1168982Y825524D01*
X1170207Y827356D01*
X1170220Y827425D01*
X1172254Y829460D01*
X1173524Y828933D01*
Y819672D01*
X1173231Y819234D01*
X1172802Y817072D01*
X1173231Y814910D01*
X1174456Y813078D01*
X1176288Y811853D01*
X1178450Y811423D01*
X1180612Y811853D01*
X1182444Y813078D01*
X1183669Y814910D01*
X1184099Y817072D01*
X1183884Y818153D01*
Y901562D01*
X1185154Y902232D01*
X1187086Y901848D01*
X1189248Y902277D01*
X1191080Y903502D01*
X1191571Y904237D01*
X1193099D01*
X1193760Y903248D01*
X1195592Y902023D01*
X1197754Y901593D01*
X1199916Y902023D01*
X1201748Y903248D01*
X1202451Y904300D01*
X1203979D01*
X1204682Y903248D01*
X1206514Y902023D01*
X1208676Y901593D01*
X1210838Y902023D01*
X1212670Y903248D01*
X1213373Y904300D01*
X1214901D01*
X1215604Y903248D01*
X1217436Y902023D01*
X1219598Y901593D01*
X1221760Y902023D01*
X1223592Y903248D01*
X1224817Y905080D01*
X1225247Y907242D01*
X1224817Y909404D01*
X1224523Y909842D01*
Y948456D01*
X1224563Y948514D01*
X1224993Y950676D01*
X1224563Y952838D01*
X1223338Y954670D01*
X1221506Y955895D01*
X1219344Y956324D01*
X1217182Y955895D01*
X1215350Y954670D01*
X1214617Y953574D01*
X1213347Y953959D01*
Y956076D01*
X1213387Y956134D01*
X1213817Y958296D01*
X1213387Y960458D01*
X1212162Y962290D01*
X1210330Y963515D01*
X1208168Y963944D01*
X1206006Y963515D01*
X1204174Y962290D01*
X1202949Y960458D01*
X1202520Y958296D01*
X1202699Y957392D01*
X1201529Y956766D01*
X1183129Y975166D01*
X1181448Y976289D01*
X1179466Y976684D01*
X1123266D01*
X1123208Y976723D01*
X1121046Y977152D01*
X1118884Y976723D01*
X1117052Y975498D01*
X1115827Y973666D01*
X1115397Y971504D01*
X1115782Y969572D01*
X1115112Y968301D01*
X1084329D01*
X1064257Y988374D01*
X1062576Y989497D01*
X1060594Y989892D01*
X1051130D01*
X1051072Y989931D01*
X1048910Y990360D01*
X1046748Y989931D01*
X1044916Y988706D01*
X1043691Y986874D01*
X1043261Y984712D01*
X1043691Y982550D01*
X1044916Y980718D01*
X1046748Y979493D01*
X1048910Y979063D01*
X1051072Y979493D01*
X1051130Y979532D01*
X1057915D01*
X1058341Y978969D01*
X1057710Y977700D01*
X1042673D01*
X1037587Y982786D01*
X1037586Y982786D01*
X1034405Y985968D01*
Y998621D01*
X1034444Y998679D01*
X1034874Y1000841D01*
X1034444Y1003003D01*
X1033219Y1004835D01*
X1031387Y1006060D01*
X1029225Y1006489D01*
D02*
G37*
G36*
X968646Y968516D02*
X966484Y968087D01*
X964652Y966862D01*
X963427Y965030D01*
X962998Y962868D01*
X963427Y960706D01*
X964652Y958874D01*
X966484Y957649D01*
X966553Y957636D01*
X977426Y946763D01*
X977937Y945997D01*
X998264Y925671D01*
Y907176D01*
X998225Y907118D01*
X997795Y904956D01*
X998225Y902794D01*
X999450Y900962D01*
X1001282Y899737D01*
X1003444Y899307D01*
X1005606Y899737D01*
X1007438Y900962D01*
X1008662Y902794D01*
X1009092Y904956D01*
X1008662Y907118D01*
X1008624Y907176D01*
Y927816D01*
X1008624Y927816D01*
X1008229Y929798D01*
X1007106Y931479D01*
X986028Y952557D01*
X985517Y953323D01*
X973878Y964961D01*
X973865Y965030D01*
X972640Y966862D01*
X970808Y968087D01*
X968646Y968516D01*
D02*
G37*
G36*
X979822Y934481D02*
X977660Y934051D01*
X975828Y932826D01*
X974603Y930994D01*
X974174Y928832D01*
X974603Y926670D01*
X974642Y926612D01*
Y907556D01*
X974349Y907118D01*
X973920Y904956D01*
X974349Y902794D01*
X975574Y900962D01*
X977406Y899737D01*
X979568Y899307D01*
X981730Y899737D01*
X983562Y900962D01*
X984787Y902794D01*
X985217Y904956D01*
X985002Y906037D01*
Y926612D01*
X985041Y926670D01*
X985471Y928832D01*
X985041Y930994D01*
X983816Y932826D01*
X981984Y934051D01*
X979822Y934481D01*
D02*
G37*
G36*
X847234Y1005092D02*
X845072Y1004663D01*
X843240Y1003438D01*
X842015Y1001606D01*
X841585Y999444D01*
X842015Y997282D01*
X843240Y995450D01*
X845072Y994225D01*
X847234Y993795D01*
X849396Y994225D01*
X850278Y994815D01*
X880374D01*
X880499Y993545D01*
X880124Y993471D01*
X878292Y992246D01*
X877067Y990414D01*
X876637Y988252D01*
X877067Y986090D01*
X878292Y984258D01*
X880124Y983034D01*
X882286Y982604D01*
X884448Y983034D01*
X885330Y983623D01*
X896895D01*
X913217Y967301D01*
Y896337D01*
X912565Y895915D01*
X911979Y895779D01*
X902155Y905603D01*
Y968206D01*
X902745Y969088D01*
X903175Y971250D01*
X902745Y973412D01*
X901520Y975244D01*
X899688Y976469D01*
X897526Y976898D01*
X895364Y976469D01*
X893532Y975244D01*
X892307Y973412D01*
X891878Y971250D01*
X892307Y969088D01*
X892897Y968206D01*
Y903686D01*
X892897Y903686D01*
X893249Y901915D01*
X894253Y900413D01*
X1017068Y777597D01*
X1017275Y776556D01*
X1018500Y774724D01*
X1020332Y773499D01*
X1022494Y773070D01*
X1024656Y773499D01*
X1026488Y774724D01*
X1027712Y776556D01*
X1028142Y778718D01*
X1027712Y780880D01*
X1026488Y782712D01*
X1024656Y783937D01*
X1024196Y784028D01*
X1023711Y784759D01*
X1024234Y786115D01*
X1024656Y786199D01*
X1026488Y787424D01*
X1027712Y789256D01*
X1028142Y791418D01*
X1027712Y793580D01*
X1026488Y795412D01*
X1024656Y796637D01*
X1024196Y796728D01*
X1023711Y797459D01*
X1024234Y798816D01*
X1024656Y798899D01*
X1026488Y800124D01*
X1027712Y801956D01*
X1028142Y804118D01*
X1027712Y806280D01*
X1026488Y808112D01*
X1024656Y809337D01*
X1023615Y809544D01*
X930095Y903063D01*
Y971758D01*
X930095Y971758D01*
X929743Y973529D01*
X928739Y975031D01*
X928739Y975031D01*
X901053Y1002717D01*
X899551Y1003721D01*
X897780Y1004073D01*
X897780Y1004073D01*
X850278D01*
X849396Y1004663D01*
X847234Y1005092D01*
D02*
G37*
G36*
X1263770Y896684D02*
Y891020D01*
X1269434D01*
X1269359Y891588D01*
X1268649Y893300D01*
X1267521Y894771D01*
X1266050Y895899D01*
X1264338Y896609D01*
X1263770Y896684D01*
D02*
G37*
G36*
X1261230D02*
X1260662Y896609D01*
X1258950Y895899D01*
X1257479Y894771D01*
X1256351Y893300D01*
X1255641Y891588D01*
X1255566Y891020D01*
X1261230D01*
Y896684D01*
D02*
G37*
G36*
X1103520Y896184D02*
Y890520D01*
X1109184D01*
X1109109Y891088D01*
X1108399Y892800D01*
X1107271Y894271D01*
X1105800Y895399D01*
X1104088Y896109D01*
X1103520Y896184D01*
D02*
G37*
G36*
X1100980D02*
X1100412Y896109D01*
X1098700Y895399D01*
X1097229Y894271D01*
X1096101Y892800D01*
X1095391Y891088D01*
X1095316Y890520D01*
X1100980D01*
Y896184D01*
D02*
G37*
G36*
X1423020Y895434D02*
Y889770D01*
X1428683D01*
X1428609Y890338D01*
X1427899Y892050D01*
X1426771Y893521D01*
X1425300Y894649D01*
X1423588Y895359D01*
X1423020Y895434D01*
D02*
G37*
G36*
X1420480D02*
X1419912Y895359D01*
X1418200Y894649D01*
X1416729Y893521D01*
X1415601Y892050D01*
X1414891Y890338D01*
X1414816Y889770D01*
X1420480D01*
Y895434D01*
D02*
G37*
G36*
X1269434Y888480D02*
X1263770D01*
Y882816D01*
X1264338Y882891D01*
X1266050Y883601D01*
X1267521Y884729D01*
X1268649Y886200D01*
X1269359Y887912D01*
X1269434Y888480D01*
D02*
G37*
G36*
X1261230D02*
X1255566D01*
X1255641Y887912D01*
X1256351Y886200D01*
X1257479Y884729D01*
X1258950Y883601D01*
X1260662Y882891D01*
X1261230Y882816D01*
Y888480D01*
D02*
G37*
G36*
X1109184Y887980D02*
X1103520D01*
Y882317D01*
X1104088Y882391D01*
X1105800Y883101D01*
X1107271Y884229D01*
X1108399Y885700D01*
X1109109Y887412D01*
X1109184Y887980D01*
D02*
G37*
G36*
X1100980D02*
X1095316D01*
X1095391Y887412D01*
X1096101Y885700D01*
X1097229Y884229D01*
X1098700Y883101D01*
X1100412Y882391D01*
X1100980Y882317D01*
Y887980D01*
D02*
G37*
G36*
X1339740Y1022111D02*
X1337578Y1021681D01*
X1335746Y1020456D01*
X1334521Y1018624D01*
X1334091Y1016462D01*
X1334521Y1014300D01*
X1335746Y1012468D01*
X1337578Y1011243D01*
X1337647Y1011230D01*
X1355643Y993235D01*
Y907938D01*
X1355603Y907880D01*
X1355173Y905718D01*
X1355603Y903556D01*
X1356828Y901724D01*
X1358660Y900499D01*
X1360822Y900070D01*
X1362984Y900499D01*
X1364816Y901724D01*
X1366040Y903556D01*
X1366470Y905718D01*
X1366040Y907880D01*
X1366001Y907938D01*
Y938062D01*
X1367272Y938187D01*
X1367541Y936830D01*
X1368766Y934998D01*
X1370598Y933773D01*
X1372760Y933344D01*
X1374922Y933773D01*
X1374980Y933812D01*
X1398555D01*
X1431320Y901047D01*
Y889470D01*
X1431281Y889412D01*
X1430851Y887250D01*
X1431281Y885088D01*
X1432506Y883256D01*
X1434338Y882031D01*
X1436500Y881601D01*
X1438662Y882031D01*
X1440494Y883256D01*
X1441719Y885088D01*
X1442148Y887250D01*
X1441719Y889412D01*
X1441680Y889470D01*
Y903192D01*
X1441285Y905174D01*
X1440163Y906854D01*
X1438145Y908873D01*
X1404362Y942654D01*
X1402682Y943777D01*
X1400700Y944172D01*
X1374980D01*
X1374922Y944211D01*
X1372760Y944641D01*
X1370598Y944211D01*
X1368766Y942986D01*
X1367541Y941154D01*
X1367272Y939797D01*
X1366001Y939922D01*
Y995380D01*
X1365607Y997362D01*
X1364485Y999043D01*
X1344972Y1018555D01*
X1344958Y1018624D01*
X1343734Y1020456D01*
X1341902Y1021681D01*
X1339740Y1022111D01*
D02*
G37*
G36*
X1428683Y887230D02*
X1423020D01*
Y881566D01*
X1423588Y881641D01*
X1425300Y882351D01*
X1426771Y883479D01*
X1427899Y884950D01*
X1428609Y886662D01*
X1428683Y887230D01*
D02*
G37*
G36*
X1420480D02*
X1414816D01*
X1414891Y886662D01*
X1415601Y884950D01*
X1416729Y883479D01*
X1418200Y882351D01*
X1419912Y881641D01*
X1420480Y881566D01*
Y887230D01*
D02*
G37*
G36*
X701184Y848374D02*
X699022Y847945D01*
X697190Y846720D01*
X697133Y846636D01*
X677750D01*
X677692Y846675D01*
X675530Y847104D01*
X673368Y846675D01*
X671536Y845450D01*
X670311Y843618D01*
X669882Y841456D01*
X670311Y839294D01*
X671536Y837462D01*
X673055Y836447D01*
X673134Y836146D01*
Y835336D01*
X673055Y835035D01*
X671536Y834020D01*
X670311Y832188D01*
X669882Y830026D01*
X670311Y827864D01*
X671536Y826032D01*
X672588Y825329D01*
Y823801D01*
X671536Y823098D01*
X670311Y821266D01*
X670292Y821169D01*
X670237Y821086D01*
X669843Y819104D01*
X670237Y817122D01*
X670292Y817039D01*
X670311Y816942D01*
X671536Y815110D01*
X673368Y813885D01*
X675530Y813456D01*
X677692Y813885D01*
X677750Y813924D01*
X698584D01*
X699022Y813631D01*
X701184Y813202D01*
X703346Y813631D01*
X705178Y814856D01*
X706403Y816688D01*
X706833Y818850D01*
X706403Y821012D01*
X705178Y822844D01*
X703346Y824069D01*
X702935Y824150D01*
X702706Y825442D01*
X703346Y825569D01*
X705178Y826794D01*
X706403Y828626D01*
X706833Y830788D01*
X706403Y832950D01*
X705178Y834782D01*
X703648Y835805D01*
X703481Y836864D01*
X703543Y837262D01*
X704339Y837794D01*
X705609Y839063D01*
X706731Y840744D01*
X707125Y842726D01*
X706731Y844708D01*
X705609Y846388D01*
X705231Y846640D01*
X705178Y846720D01*
X703346Y847945D01*
X701184Y848374D01*
D02*
G37*
G36*
X899770Y829684D02*
Y824020D01*
X905434D01*
X905359Y824588D01*
X904649Y826300D01*
X903521Y827771D01*
X902050Y828899D01*
X900338Y829609D01*
X899770Y829684D01*
D02*
G37*
G36*
X897230D02*
X896662Y829609D01*
X894950Y828899D01*
X893479Y827771D01*
X892351Y826300D01*
X891641Y824588D01*
X891566Y824020D01*
X897230D01*
Y829684D01*
D02*
G37*
G36*
X905434Y821480D02*
X899770D01*
Y815816D01*
X900338Y815891D01*
X902050Y816601D01*
X903521Y817729D01*
X904649Y819200D01*
X905359Y820912D01*
X905434Y821480D01*
D02*
G37*
G36*
X897230D02*
X891566D01*
X891641Y820912D01*
X892351Y819200D01*
X893479Y817729D01*
X894950Y816601D01*
X896662Y815891D01*
X897230Y815816D01*
Y821480D01*
D02*
G37*
G36*
X1329072Y809766D02*
X1326910Y809337D01*
X1326852Y809297D01*
X1258394D01*
X1258336Y809337D01*
X1256174Y809766D01*
X1254012Y809337D01*
X1252180Y808112D01*
X1250955Y806280D01*
X1250526Y804118D01*
X1250955Y801956D01*
X1252180Y800124D01*
X1254012Y798899D01*
X1256174Y798469D01*
X1258336Y798899D01*
X1258394Y798939D01*
X1326852D01*
X1326910Y798899D01*
X1329072Y798469D01*
X1331234Y798899D01*
X1333066Y800124D01*
X1334290Y801956D01*
X1334720Y804118D01*
X1334290Y806280D01*
X1333066Y808112D01*
X1331234Y809337D01*
X1329072Y809766D01*
D02*
G37*
G36*
X649250Y819319D02*
X647460Y819083D01*
X645791Y818392D01*
X644359Y817293D01*
X643260Y815861D01*
X642569Y814192D01*
X642333Y812402D01*
X642569Y810612D01*
X643260Y808943D01*
X644359Y807511D01*
X645791Y806412D01*
X647460Y805721D01*
X649250Y805485D01*
X651040Y805721D01*
X652709Y806412D01*
X654141Y807511D01*
X655240Y808943D01*
X655931Y810612D01*
X656167Y812402D01*
X655931Y814192D01*
X655240Y815861D01*
X654141Y817293D01*
X652709Y818392D01*
X651040Y819083D01*
X649250Y819319D01*
D02*
G37*
G36*
X629438D02*
X627648Y819083D01*
X625979Y818392D01*
X624547Y817293D01*
X623447Y815861D01*
X622757Y814192D01*
X622521Y812402D01*
X622757Y810612D01*
X623447Y808943D01*
X624547Y807511D01*
X625979Y806412D01*
X627648Y805721D01*
X629438Y805485D01*
X631228Y805721D01*
X632897Y806412D01*
X634329Y807511D01*
X635429Y808943D01*
X636119Y810612D01*
X636355Y812402D01*
X636119Y814192D01*
X635429Y815861D01*
X634329Y817293D01*
X632897Y818392D01*
X631228Y819083D01*
X629438Y819319D01*
D02*
G37*
G36*
X1101234Y810528D02*
X1099072Y810099D01*
X1097240Y808874D01*
X1096015Y807042D01*
X1095585Y804880D01*
X1096015Y802718D01*
X1097240Y800886D01*
X1099072Y799661D01*
X1101234Y799231D01*
X1103396Y799661D01*
X1104278Y800251D01*
X1170307D01*
X1170392Y800124D01*
X1172224Y798899D01*
X1174386Y798469D01*
X1176548Y798899D01*
X1178380Y800124D01*
X1179604Y801956D01*
X1180034Y804118D01*
X1179604Y806280D01*
X1178380Y808112D01*
X1176548Y809337D01*
X1174386Y809766D01*
X1173091Y809509D01*
X1104278D01*
X1103396Y810099D01*
X1101234Y810528D01*
D02*
G37*
G36*
X1329072Y797066D02*
X1326910Y796637D01*
X1326852Y796598D01*
X1258394D01*
X1258336Y796637D01*
X1256174Y797066D01*
X1254012Y796637D01*
X1252180Y795412D01*
X1250955Y793580D01*
X1250526Y791418D01*
X1250955Y789256D01*
X1252180Y787424D01*
X1254012Y786199D01*
X1256174Y785770D01*
X1258336Y786199D01*
X1258394Y786238D01*
X1326852D01*
X1326910Y786199D01*
X1329072Y785770D01*
X1331234Y786199D01*
X1333066Y787424D01*
X1334290Y789256D01*
X1334720Y791418D01*
X1334290Y793580D01*
X1333066Y795412D01*
X1331234Y796637D01*
X1329072Y797066D01*
D02*
G37*
G36*
X1101234Y797829D02*
X1099072Y797399D01*
X1097240Y796174D01*
X1096015Y794342D01*
X1095585Y792180D01*
X1096015Y790018D01*
X1097240Y788186D01*
X1099072Y786961D01*
X1101234Y786532D01*
X1103396Y786961D01*
X1104278Y787551D01*
X1170307D01*
X1170392Y787424D01*
X1172224Y786199D01*
X1174386Y785770D01*
X1176548Y786199D01*
X1178380Y787424D01*
X1179604Y789256D01*
X1180034Y791418D01*
X1179604Y793580D01*
X1178380Y795412D01*
X1176548Y796637D01*
X1174386Y797066D01*
X1173091Y796809D01*
X1104278D01*
X1103396Y797399D01*
X1101234Y797829D01*
D02*
G37*
G36*
X649250Y799253D02*
X647460Y799017D01*
X645791Y798326D01*
X644359Y797227D01*
X643260Y795795D01*
X642569Y794126D01*
X642333Y792336D01*
X642569Y790546D01*
X643260Y788877D01*
X644359Y787445D01*
X645791Y786346D01*
X647460Y785655D01*
X649250Y785419D01*
X651040Y785655D01*
X652709Y786346D01*
X654141Y787445D01*
X655240Y788877D01*
X655931Y790546D01*
X656167Y792336D01*
X655931Y794126D01*
X655240Y795795D01*
X654141Y797227D01*
X652709Y798326D01*
X651040Y799017D01*
X649250Y799253D01*
D02*
G37*
G36*
X629438D02*
X627648Y799017D01*
X625979Y798326D01*
X624547Y797227D01*
X623447Y795795D01*
X622757Y794126D01*
X622521Y792336D01*
X622757Y790546D01*
X623447Y788877D01*
X624547Y787445D01*
X625979Y786346D01*
X627648Y785655D01*
X629438Y785419D01*
X631228Y785655D01*
X632897Y786346D01*
X634329Y787445D01*
X635429Y788877D01*
X636119Y790546D01*
X636355Y792336D01*
X636119Y794126D01*
X635429Y795795D01*
X634329Y797227D01*
X632897Y798326D01*
X631228Y799017D01*
X629438Y799253D01*
D02*
G37*
G36*
X1329072Y784367D02*
X1326910Y783937D01*
X1326852Y783897D01*
X1258394D01*
X1258336Y783937D01*
X1256174Y784367D01*
X1254012Y783937D01*
X1252180Y782712D01*
X1250955Y780880D01*
X1250526Y778718D01*
X1250955Y776556D01*
X1252180Y774724D01*
X1254012Y773499D01*
X1256174Y773070D01*
X1258336Y773499D01*
X1258394Y773539D01*
X1326852D01*
X1326910Y773499D01*
X1329072Y773070D01*
X1331234Y773499D01*
X1333066Y774724D01*
X1334290Y776556D01*
X1334720Y778718D01*
X1334290Y780880D01*
X1333066Y782712D01*
X1331234Y783937D01*
X1329072Y784367D01*
D02*
G37*
G36*
X765020Y784684D02*
Y779020D01*
X770684D01*
X770609Y779588D01*
X769899Y781300D01*
X768771Y782771D01*
X767300Y783899D01*
X765588Y784609D01*
X765020Y784684D01*
D02*
G37*
G36*
X762480D02*
X761912Y784609D01*
X760200Y783899D01*
X758729Y782771D01*
X757601Y781300D01*
X756891Y779588D01*
X756816Y779020D01*
X762480D01*
Y784684D01*
D02*
G37*
G36*
X1101234Y785128D02*
X1099072Y784699D01*
X1097240Y783474D01*
X1096015Y781642D01*
X1095585Y779480D01*
X1096015Y777318D01*
X1097240Y775486D01*
X1099072Y774261D01*
X1101234Y773831D01*
X1103396Y774261D01*
X1104278Y774851D01*
X1170307D01*
X1170392Y774724D01*
X1172224Y773499D01*
X1174386Y773070D01*
X1176548Y773499D01*
X1178380Y774724D01*
X1179604Y776556D01*
X1180034Y778718D01*
X1179604Y780880D01*
X1178380Y782712D01*
X1176548Y783937D01*
X1174386Y784367D01*
X1173091Y784109D01*
X1104278D01*
X1103396Y784699D01*
X1101234Y785128D01*
D02*
G37*
G36*
X770684Y776480D02*
X765020D01*
Y770816D01*
X765588Y770891D01*
X767300Y771601D01*
X768771Y772729D01*
X769899Y774200D01*
X770609Y775912D01*
X770684Y776480D01*
D02*
G37*
G36*
X762480D02*
X756816D01*
X756891Y775912D01*
X757601Y774200D01*
X758729Y772729D01*
X760200Y771601D01*
X761912Y770891D01*
X762480Y770816D01*
Y776480D01*
D02*
G37*
G36*
X1425500Y768601D02*
X1423662Y768359D01*
X1422587Y767913D01*
X1379164D01*
X1378088Y768359D01*
X1376250Y768601D01*
X1374412Y768359D01*
X1372700Y767649D01*
X1371229Y766521D01*
X1370101Y765050D01*
X1369391Y763338D01*
X1369149Y761500D01*
X1369391Y759662D01*
X1370101Y757950D01*
X1371229Y756479D01*
X1372700Y755351D01*
X1374412Y754641D01*
X1374620Y754614D01*
X1374976Y753286D01*
X1373979Y752521D01*
X1372851Y751050D01*
X1372141Y749338D01*
X1371899Y747500D01*
X1372141Y745662D01*
X1372851Y743950D01*
X1373979Y742479D01*
X1375450Y741351D01*
X1377162Y740641D01*
X1379000Y740399D01*
X1379262Y740434D01*
X1379750Y740337D01*
X1409337D01*
X1410412Y739891D01*
X1412250Y739649D01*
X1414088Y739891D01*
X1415800Y740601D01*
X1417271Y741729D01*
X1418399Y743200D01*
X1419109Y744912D01*
X1419351Y746750D01*
X1419109Y748588D01*
X1418399Y750300D01*
X1417271Y751771D01*
X1415800Y752899D01*
X1414088Y753609D01*
X1413491Y753687D01*
X1413102Y755020D01*
X1413181Y755087D01*
X1422587D01*
X1423662Y754641D01*
X1425500Y754399D01*
X1427338Y754641D01*
X1429050Y755351D01*
X1430521Y756479D01*
X1431649Y757950D01*
X1432359Y759662D01*
X1432601Y761500D01*
X1432359Y763338D01*
X1431649Y765050D01*
X1430521Y766521D01*
X1429050Y767649D01*
X1427338Y768359D01*
X1425500Y768601D01*
D02*
G37*
G36*
X869078Y896380D02*
X866916Y895951D01*
X865084Y894726D01*
X863859Y892894D01*
X863429Y890732D01*
X863859Y888570D01*
X864449Y887688D01*
Y774650D01*
X863859Y773768D01*
X863429Y771606D01*
X863859Y769444D01*
X865084Y767612D01*
X866916Y766387D01*
X869078Y765957D01*
X871240Y766387D01*
X873072Y767612D01*
X874296Y769444D01*
X874726Y771606D01*
X874296Y773768D01*
X873707Y774650D01*
Y887688D01*
X874296Y888570D01*
X874726Y890732D01*
X874296Y892894D01*
X873072Y894726D01*
X871240Y895951D01*
X869078Y896380D01*
D02*
G37*
G36*
X856378D02*
X854216Y895951D01*
X852384Y894726D01*
X851159Y892894D01*
X850730Y890732D01*
X851159Y888570D01*
X851749Y887688D01*
Y774650D01*
X851159Y773768D01*
X850730Y771606D01*
X851159Y769444D01*
X852384Y767612D01*
X854216Y766387D01*
X856378Y765957D01*
X858540Y766387D01*
X860372Y767612D01*
X861597Y769444D01*
X862027Y771606D01*
X861597Y773768D01*
X861007Y774650D01*
Y887688D01*
X861597Y888570D01*
X862027Y890732D01*
X861597Y892894D01*
X860372Y894726D01*
X858540Y895951D01*
X856378Y896380D01*
D02*
G37*
G36*
X649250Y779187D02*
X647460Y778951D01*
X645791Y778260D01*
X644359Y777161D01*
X643260Y775729D01*
X642569Y774060D01*
X642333Y772270D01*
X642569Y770480D01*
X643260Y768811D01*
X644359Y767379D01*
X645791Y766280D01*
X647460Y765589D01*
X649250Y765353D01*
X651040Y765589D01*
X652709Y766280D01*
X654141Y767379D01*
X655240Y768811D01*
X655931Y770480D01*
X656167Y772270D01*
X655931Y774060D01*
X655240Y775729D01*
X654141Y777161D01*
X652709Y778260D01*
X651040Y778951D01*
X649250Y779187D01*
D02*
G37*
G36*
X629438D02*
X627648Y778951D01*
X625979Y778260D01*
X624547Y777161D01*
X623447Y775729D01*
X622757Y774060D01*
X622521Y772270D01*
X622757Y770480D01*
X623447Y768811D01*
X624547Y767379D01*
X625979Y766280D01*
X627648Y765589D01*
X629438Y765353D01*
X631228Y765589D01*
X632897Y766280D01*
X634329Y767379D01*
X635429Y768811D01*
X636119Y770480D01*
X636355Y772270D01*
X636119Y774060D01*
X635429Y775729D01*
X634329Y777161D01*
X632897Y778260D01*
X631228Y778951D01*
X629438Y779187D01*
D02*
G37*
G36*
X1141856Y769306D02*
Y763642D01*
X1147520D01*
X1147445Y764210D01*
X1146735Y765922D01*
X1145607Y767393D01*
X1144136Y768521D01*
X1142424Y769231D01*
X1141856Y769306D01*
D02*
G37*
G36*
X1139316D02*
X1138748Y769231D01*
X1137036Y768521D01*
X1135565Y767393D01*
X1134437Y765922D01*
X1133727Y764210D01*
X1133652Y763642D01*
X1139316D01*
Y769306D01*
D02*
G37*
G36*
X981836Y769052D02*
Y763388D01*
X987499D01*
X987425Y763956D01*
X986715Y765668D01*
X985587Y767139D01*
X984116Y768267D01*
X982404Y768977D01*
X981836Y769052D01*
D02*
G37*
G36*
X979296D02*
X978728Y768977D01*
X977016Y768267D01*
X975545Y767139D01*
X974417Y765668D01*
X973707Y763956D01*
X973632Y763388D01*
X979296D01*
Y769052D01*
D02*
G37*
G36*
X1299082Y768544D02*
Y762880D01*
X1304745D01*
X1304671Y763448D01*
X1303961Y765160D01*
X1302833Y766631D01*
X1301362Y767759D01*
X1299650Y768469D01*
X1299082Y768544D01*
D02*
G37*
G36*
X1296542D02*
X1295974Y768469D01*
X1294262Y767759D01*
X1292791Y766631D01*
X1291663Y765160D01*
X1290953Y763448D01*
X1290878Y762880D01*
X1296542D01*
Y768544D01*
D02*
G37*
G36*
X1147520Y761102D02*
X1141856D01*
Y755439D01*
X1142424Y755513D01*
X1144136Y756223D01*
X1145607Y757351D01*
X1146735Y758822D01*
X1147445Y760534D01*
X1147520Y761102D01*
D02*
G37*
G36*
X1139316D02*
X1133652D01*
X1133727Y760534D01*
X1134437Y758822D01*
X1135565Y757351D01*
X1137036Y756223D01*
X1138748Y755513D01*
X1139316Y755439D01*
Y761102D01*
D02*
G37*
G36*
X987499Y760848D02*
X981836D01*
Y755184D01*
X982404Y755259D01*
X984116Y755969D01*
X985587Y757097D01*
X986715Y758568D01*
X987425Y760280D01*
X987499Y760848D01*
D02*
G37*
G36*
X979296D02*
X973632D01*
X973707Y760280D01*
X974417Y758568D01*
X975545Y757097D01*
X977016Y755969D01*
X978728Y755259D01*
X979296Y755184D01*
Y760848D01*
D02*
G37*
G36*
X691500Y797898D02*
X689338Y797469D01*
X687506Y796244D01*
X686281Y794412D01*
X686040Y793200D01*
X684295Y791455D01*
X683313Y789984D01*
X682968Y788250D01*
Y763939D01*
X682281Y762912D01*
X681852Y760750D01*
X682281Y758588D01*
X683506Y756756D01*
X685338Y755531D01*
X687500Y755101D01*
X689662Y755531D01*
X691494Y756756D01*
X692719Y758588D01*
X693148Y760750D01*
X692719Y762912D01*
X692032Y763939D01*
Y786373D01*
X692450Y786790D01*
X693662Y787031D01*
X695494Y788256D01*
X696719Y790088D01*
X697149Y792250D01*
X696719Y794412D01*
X695494Y796244D01*
X693662Y797469D01*
X691500Y797898D01*
D02*
G37*
G36*
X1304745Y760340D02*
X1299082D01*
Y754677D01*
X1299650Y754751D01*
X1301362Y755461D01*
X1302833Y756589D01*
X1303961Y758060D01*
X1304671Y759772D01*
X1304745Y760340D01*
D02*
G37*
G36*
X1296542D02*
X1290878D01*
X1290953Y759772D01*
X1291663Y758060D01*
X1292791Y756589D01*
X1294262Y755461D01*
X1295974Y754751D01*
X1296542Y754677D01*
Y760340D01*
D02*
G37*
G36*
X675022Y787669D02*
X672860Y787239D01*
X671028Y786014D01*
X669803Y784182D01*
X669790Y784113D01*
X667041Y781365D01*
X665919Y779684D01*
X665525Y777702D01*
Y755538D01*
X665485Y755480D01*
X665055Y753318D01*
X665485Y751156D01*
X666710Y749324D01*
X668542Y748099D01*
X670704Y747670D01*
X672866Y748099D01*
X674698Y749324D01*
X675922Y751156D01*
X676352Y753318D01*
X675922Y755480D01*
X675883Y755538D01*
Y775557D01*
X677115Y776788D01*
X677184Y776801D01*
X679016Y778026D01*
X680240Y779858D01*
X680670Y782020D01*
X680240Y784182D01*
X679016Y786014D01*
X677184Y787239D01*
X675022Y787669D01*
D02*
G37*
G36*
X649250Y759121D02*
X647460Y758885D01*
X645791Y758195D01*
X644359Y757095D01*
X643260Y755663D01*
X642569Y753994D01*
X642333Y752204D01*
X642569Y750414D01*
X643260Y748745D01*
X644359Y747313D01*
X645791Y746214D01*
X647460Y745523D01*
X649250Y745287D01*
X651040Y745523D01*
X652709Y746214D01*
X654141Y747313D01*
X655240Y748745D01*
X655931Y750414D01*
X656167Y752204D01*
X655931Y753994D01*
X655240Y755663D01*
X654141Y757095D01*
X652709Y758195D01*
X651040Y758885D01*
X649250Y759121D01*
D02*
G37*
G36*
X629438D02*
X627648Y758885D01*
X625979Y758195D01*
X624547Y757095D01*
X623447Y755663D01*
X622757Y753994D01*
X622521Y752204D01*
X622757Y750414D01*
X623447Y748745D01*
X624547Y747313D01*
X625979Y746214D01*
X627648Y745523D01*
X629438Y745287D01*
X631228Y745523D01*
X632897Y746214D01*
X634329Y747313D01*
X635429Y748745D01*
X636119Y750414D01*
X636355Y752204D01*
X636119Y753994D01*
X635429Y755663D01*
X634329Y757095D01*
X632897Y758195D01*
X631228Y758885D01*
X629438Y759121D01*
D02*
G37*
G36*
X1008770Y737683D02*
Y732020D01*
X1014434D01*
X1014359Y732588D01*
X1013649Y734300D01*
X1012521Y735771D01*
X1011050Y736899D01*
X1009338Y737609D01*
X1008770Y737683D01*
D02*
G37*
G36*
X1006230D02*
X1005662Y737609D01*
X1003950Y736899D01*
X1002479Y735771D01*
X1001351Y734300D01*
X1000641Y732588D01*
X1000566Y732020D01*
X1006230D01*
Y737683D01*
D02*
G37*
G36*
X991770D02*
Y732020D01*
X997433D01*
X997359Y732588D01*
X996649Y734300D01*
X995521Y735771D01*
X994050Y736899D01*
X992338Y737609D01*
X991770Y737683D01*
D02*
G37*
G36*
X989230D02*
X988662Y737609D01*
X986950Y736899D01*
X985479Y735771D01*
X984351Y734300D01*
X983641Y732588D01*
X983567Y732020D01*
X989230D01*
Y737683D01*
D02*
G37*
G36*
X975270D02*
Y732020D01*
X980934D01*
X980859Y732588D01*
X980149Y734300D01*
X979021Y735771D01*
X977550Y736899D01*
X975838Y737609D01*
X975270Y737683D01*
D02*
G37*
G36*
X972730D02*
X972162Y737609D01*
X970450Y736899D01*
X968979Y735771D01*
X967851Y734300D01*
X967141Y732588D01*
X967066Y732020D01*
X972730D01*
Y737683D01*
D02*
G37*
G36*
X649250Y739055D02*
X647460Y738820D01*
X645791Y738129D01*
X644359Y737029D01*
X643260Y735597D01*
X642569Y733928D01*
X642333Y732138D01*
X642569Y730348D01*
X643260Y728679D01*
X644359Y727247D01*
X645791Y726148D01*
X647460Y725456D01*
X649250Y725221D01*
X651040Y725456D01*
X652709Y726148D01*
X654141Y727247D01*
X655240Y728679D01*
X655931Y730348D01*
X656167Y732138D01*
X655931Y733928D01*
X655240Y735597D01*
X654141Y737029D01*
X652709Y738129D01*
X651040Y738820D01*
X649250Y739055D01*
D02*
G37*
G36*
X629438D02*
X627648Y738820D01*
X625979Y738129D01*
X624547Y737029D01*
X623447Y735597D01*
X622757Y733928D01*
X622521Y732138D01*
X622757Y730348D01*
X623447Y728679D01*
X624547Y727247D01*
X625979Y726148D01*
X627648Y725456D01*
X629438Y725221D01*
X631228Y725456D01*
X632897Y726148D01*
X634329Y727247D01*
X635429Y728679D01*
X636119Y730348D01*
X636355Y732138D01*
X636119Y733928D01*
X635429Y735597D01*
X634329Y737029D01*
X632897Y738129D01*
X631228Y738820D01*
X629438Y739055D01*
D02*
G37*
G36*
X1014434Y729480D02*
X1008770D01*
Y723817D01*
X1009338Y723891D01*
X1011050Y724601D01*
X1012521Y725729D01*
X1013649Y727200D01*
X1014359Y728912D01*
X1014434Y729480D01*
D02*
G37*
G36*
X1006230D02*
X1000566D01*
X1000641Y728912D01*
X1001351Y727200D01*
X1002479Y725729D01*
X1003950Y724601D01*
X1005662Y723891D01*
X1006230Y723817D01*
Y729480D01*
D02*
G37*
G36*
X997433D02*
X991770D01*
Y723817D01*
X992338Y723891D01*
X994050Y724601D01*
X995521Y725729D01*
X996649Y727200D01*
X997359Y728912D01*
X997433Y729480D01*
D02*
G37*
G36*
X989230D02*
X983567D01*
X983641Y728912D01*
X984351Y727200D01*
X985479Y725729D01*
X986950Y724601D01*
X988662Y723891D01*
X989230Y723817D01*
Y729480D01*
D02*
G37*
G36*
X980934D02*
X975270D01*
Y723817D01*
X975838Y723891D01*
X977550Y724601D01*
X979021Y725729D01*
X980149Y727200D01*
X980859Y728912D01*
X980934Y729480D01*
D02*
G37*
G36*
X972730D02*
X967066D01*
X967141Y728912D01*
X967851Y727200D01*
X968979Y725729D01*
X970450Y724601D01*
X972162Y723891D01*
X972730Y723817D01*
Y729480D01*
D02*
G37*
G36*
X745380Y746520D02*
X743218Y746091D01*
X741386Y744866D01*
X740161Y743034D01*
X739732Y740872D01*
X740161Y738710D01*
X741214Y737135D01*
X741316Y736300D01*
X741214Y735465D01*
X740161Y733890D01*
X739732Y731728D01*
X740161Y729566D01*
X741331Y727815D01*
X741490Y727445D01*
Y726613D01*
X741331Y726243D01*
X740161Y724492D01*
X739732Y722330D01*
X740161Y720168D01*
X741386Y718336D01*
X743218Y717111D01*
X745380Y716682D01*
X747542Y717111D01*
X748424Y717701D01*
X840888D01*
X841770Y717111D01*
X843932Y716682D01*
X846094Y717111D01*
X847926Y718336D01*
X849150Y720168D01*
X849581Y722330D01*
X849150Y724492D01*
X847926Y726324D01*
X846094Y727549D01*
X843932Y727979D01*
X841770Y727549D01*
X840888Y726959D01*
X833139D01*
X832427Y728229D01*
X832722Y728712D01*
X833140Y728795D01*
X834972Y730020D01*
X836197Y731852D01*
X836627Y734014D01*
X836197Y736176D01*
X834972Y738008D01*
X833140Y739233D01*
X830978Y739662D01*
X828816Y739233D01*
X826984Y738008D01*
X825759Y736176D01*
X825606Y735404D01*
X825086Y735103D01*
X823952Y735914D01*
X824181Y737062D01*
X823751Y739224D01*
X822526Y741056D01*
X820694Y742281D01*
X818532Y742710D01*
X816370Y742281D01*
X815488Y741691D01*
X758473D01*
X756019Y744145D01*
X754517Y745149D01*
X752746Y745501D01*
X752746Y745501D01*
X748424D01*
X747542Y746091D01*
X745380Y746520D01*
D02*
G37*
G36*
X1375544Y732994D02*
X1354464D01*
Y711914D01*
X1375544D01*
Y732994D01*
D02*
G37*
G36*
X649250Y718989D02*
X647460Y718754D01*
X645791Y718063D01*
X644359Y716963D01*
X643260Y715531D01*
X642569Y713862D01*
X642333Y712072D01*
X642569Y710282D01*
X643260Y708613D01*
X644359Y707181D01*
X645791Y706081D01*
X647460Y705390D01*
X649250Y705155D01*
X651040Y705390D01*
X652709Y706081D01*
X654141Y707181D01*
X655240Y708613D01*
X655931Y710282D01*
X656167Y712072D01*
X655931Y713862D01*
X655240Y715531D01*
X654141Y716963D01*
X652709Y718063D01*
X651040Y718754D01*
X649250Y718989D01*
D02*
G37*
G36*
X629438D02*
X627648Y718754D01*
X625979Y718063D01*
X624547Y716963D01*
X623447Y715531D01*
X622757Y713862D01*
X622521Y712072D01*
X622757Y710282D01*
X623447Y708613D01*
X624547Y707181D01*
X625979Y706081D01*
X627648Y705390D01*
X629438Y705155D01*
X631228Y705390D01*
X632897Y706081D01*
X634329Y707181D01*
X635429Y708613D01*
X636119Y710282D01*
X636355Y712072D01*
X636119Y713862D01*
X635429Y715531D01*
X634329Y716963D01*
X632897Y718063D01*
X631228Y718754D01*
X629438Y718989D01*
D02*
G37*
G36*
X1110000Y745101D02*
X1108162Y744859D01*
X1106450Y744149D01*
X1104979Y743021D01*
X1103851Y741550D01*
X1103141Y739838D01*
X1102899Y738000D01*
X1103141Y736162D01*
X1103587Y735087D01*
Y712663D01*
X1103141Y711588D01*
X1102899Y709750D01*
X1103141Y707912D01*
X1103851Y706200D01*
X1104979Y704729D01*
X1106450Y703601D01*
X1108162Y702891D01*
X1110000Y702649D01*
X1111838Y702891D01*
X1113550Y703601D01*
X1115021Y704729D01*
X1116149Y706200D01*
X1116859Y707912D01*
X1117101Y709750D01*
X1116859Y711588D01*
X1116413Y712663D01*
Y735087D01*
X1116859Y736162D01*
X1117101Y738000D01*
X1116859Y739838D01*
X1116149Y741550D01*
X1115021Y743021D01*
X1113550Y744149D01*
X1111838Y744859D01*
X1110000Y745101D01*
D02*
G37*
G36*
X1366274Y707518D02*
Y698324D01*
X1375468D01*
X1375273Y699806D01*
X1374211Y702370D01*
X1372521Y704571D01*
X1370320Y706261D01*
X1367755Y707323D01*
X1366274Y707518D01*
D02*
G37*
G36*
X1363734Y707518D02*
X1362253Y707323D01*
X1359689Y706261D01*
X1357487Y704571D01*
X1355797Y702370D01*
X1354735Y699806D01*
X1354540Y698324D01*
X1363734D01*
Y707518D01*
D02*
G37*
G36*
X1008770Y700434D02*
Y694770D01*
X1014434D01*
X1014359Y695338D01*
X1013649Y697050D01*
X1012521Y698521D01*
X1011050Y699649D01*
X1009338Y700359D01*
X1008770Y700434D01*
D02*
G37*
G36*
X1006230D02*
X1005662Y700359D01*
X1003950Y699649D01*
X1002479Y698521D01*
X1001351Y697050D01*
X1000641Y695338D01*
X1000566Y694770D01*
X1006230D01*
Y700434D01*
D02*
G37*
G36*
X991770D02*
Y694770D01*
X997433D01*
X997359Y695338D01*
X996649Y697050D01*
X995521Y698521D01*
X994050Y699649D01*
X992338Y700359D01*
X991770Y700434D01*
D02*
G37*
G36*
X989230D02*
X988662Y700359D01*
X986950Y699649D01*
X985479Y698521D01*
X984351Y697050D01*
X983641Y695338D01*
X983567Y694770D01*
X989230D01*
Y700434D01*
D02*
G37*
G36*
X975270D02*
Y694770D01*
X980934D01*
X980859Y695338D01*
X980149Y697050D01*
X979021Y698521D01*
X977550Y699649D01*
X975838Y700359D01*
X975270Y700434D01*
D02*
G37*
G36*
X972730D02*
X972162Y700359D01*
X970450Y699649D01*
X968979Y698521D01*
X967851Y697050D01*
X967141Y695338D01*
X967066Y694770D01*
X972730D01*
Y700434D01*
D02*
G37*
G36*
X770526Y698260D02*
X768364Y697831D01*
X768306Y697792D01*
X762652D01*
X760670Y697397D01*
X758989Y696274D01*
X751617Y688902D01*
X744806D01*
X744748Y688941D01*
X742586Y689370D01*
X740424Y688941D01*
X738592Y687716D01*
X737367Y685884D01*
X736937Y683722D01*
X737367Y681560D01*
X738592Y679728D01*
X739644Y679025D01*
X739708Y678762D01*
X739395Y677598D01*
X739334Y677585D01*
X737654Y676462D01*
X736531Y674782D01*
X736136Y672800D01*
X736531Y670818D01*
X737654Y669137D01*
X739334Y668015D01*
X739963Y667889D01*
X740424Y667581D01*
X742586Y667151D01*
X744748Y667581D01*
X744806Y667620D01*
X760620D01*
X762602Y668015D01*
X764283Y669137D01*
X772619Y677474D01*
X772688Y677487D01*
X774520Y678712D01*
X775744Y680544D01*
X776174Y682706D01*
X775744Y684868D01*
X774520Y686700D01*
X774035Y687024D01*
Y688294D01*
X774520Y688618D01*
X775744Y690450D01*
X776174Y692612D01*
X775744Y694774D01*
X774520Y696606D01*
X772688Y697831D01*
X770526Y698260D01*
D02*
G37*
G36*
X1375468Y695784D02*
X1366274D01*
Y686590D01*
X1367755Y686785D01*
X1370320Y687847D01*
X1372521Y689537D01*
X1374211Y691739D01*
X1375273Y694303D01*
X1375468Y695784D01*
D02*
G37*
G36*
X1363734D02*
X1354540D01*
X1354735Y694303D01*
X1355797Y691739D01*
X1357487Y689537D01*
X1359689Y687847D01*
X1362253Y686785D01*
X1363734Y686590D01*
Y695784D01*
D02*
G37*
G36*
X1014434Y692230D02*
X1008770D01*
Y686566D01*
X1009338Y686641D01*
X1011050Y687351D01*
X1012521Y688479D01*
X1013649Y689950D01*
X1014359Y691662D01*
X1014434Y692230D01*
D02*
G37*
G36*
X1006230D02*
X1000566D01*
X1000641Y691662D01*
X1001351Y689950D01*
X1002479Y688479D01*
X1003950Y687351D01*
X1005662Y686641D01*
X1006230Y686566D01*
Y692230D01*
D02*
G37*
G36*
X997433D02*
X991770D01*
Y686566D01*
X992338Y686641D01*
X994050Y687351D01*
X995521Y688479D01*
X996649Y689950D01*
X997359Y691662D01*
X997433Y692230D01*
D02*
G37*
G36*
X989230D02*
X983567D01*
X983641Y691662D01*
X984351Y689950D01*
X985479Y688479D01*
X986950Y687351D01*
X988662Y686641D01*
X989230Y686566D01*
Y692230D01*
D02*
G37*
G36*
X980934D02*
X975270D01*
Y686566D01*
X975838Y686641D01*
X977550Y687351D01*
X979021Y688479D01*
X980149Y689950D01*
X980859Y691662D01*
X980934Y692230D01*
D02*
G37*
G36*
X972730D02*
X967066D01*
X967141Y691662D01*
X967851Y689950D01*
X968979Y688479D01*
X970450Y687351D01*
X972162Y686641D01*
X972730Y686566D01*
Y692230D01*
D02*
G37*
G36*
X648996Y698923D02*
X647206Y698688D01*
X645537Y697997D01*
X644105Y696897D01*
X643006Y695465D01*
X642315Y693796D01*
X642079Y692006D01*
X642315Y690216D01*
X643006Y688547D01*
X644105Y687115D01*
X645537Y686015D01*
X647206Y685324D01*
X648996Y685089D01*
X650786Y685324D01*
X652455Y686015D01*
X653887Y687115D01*
X654986Y688547D01*
X655677Y690216D01*
X655913Y692006D01*
X655677Y693796D01*
X654986Y695465D01*
X653887Y696897D01*
X652455Y697997D01*
X650786Y698688D01*
X648996Y698923D01*
D02*
G37*
G36*
X629184D02*
X627394Y698688D01*
X625725Y697997D01*
X624293Y696897D01*
X623194Y695465D01*
X622503Y693796D01*
X622267Y692006D01*
X622503Y690216D01*
X623194Y688547D01*
X624293Y687115D01*
X625725Y686015D01*
X627394Y685324D01*
X629184Y685089D01*
X630974Y685324D01*
X632643Y686015D01*
X634075Y687115D01*
X635174Y688547D01*
X635866Y690216D01*
X636101Y692006D01*
X635866Y693796D01*
X635174Y695465D01*
X634075Y696897D01*
X632643Y697997D01*
X630974Y698688D01*
X629184Y698923D01*
D02*
G37*
G36*
X1156000Y690625D02*
X1153901Y690349D01*
X1151945Y689539D01*
X1150266Y688250D01*
X1148977Y686571D01*
X1148167Y684615D01*
X1147891Y682516D01*
X1148167Y680417D01*
X1148977Y678461D01*
X1150266Y676782D01*
X1151945Y675493D01*
X1153901Y674683D01*
X1156000Y674407D01*
X1158099Y674683D01*
X1160055Y675493D01*
X1161734Y676782D01*
X1163023Y678461D01*
X1163833Y680417D01*
X1164109Y682516D01*
X1163833Y684615D01*
X1163023Y686571D01*
X1161734Y688250D01*
X1160055Y689539D01*
X1158099Y690349D01*
X1156000Y690625D01*
D02*
G37*
G36*
X1130600D02*
X1128501Y690349D01*
X1126545Y689539D01*
X1124866Y688250D01*
X1123577Y686571D01*
X1122767Y684615D01*
X1122491Y682516D01*
X1122767Y680417D01*
X1123577Y678461D01*
X1124866Y676782D01*
X1126545Y675493D01*
X1128501Y674683D01*
X1130600Y674407D01*
X1132699Y674683D01*
X1134655Y675493D01*
X1136334Y676782D01*
X1137623Y678461D01*
X1138433Y680417D01*
X1138709Y682516D01*
X1138433Y684615D01*
X1137623Y686571D01*
X1136334Y688250D01*
X1134655Y689539D01*
X1132699Y690349D01*
X1130600Y690625D01*
D02*
G37*
G36*
X1029000D02*
X1026901Y690349D01*
X1024945Y689539D01*
X1023266Y688250D01*
X1021977Y686571D01*
X1021167Y684615D01*
X1020891Y682516D01*
X1021167Y680417D01*
X1021977Y678461D01*
X1023266Y676782D01*
X1024945Y675493D01*
X1026901Y674683D01*
X1029000Y674407D01*
X1031099Y674683D01*
X1033055Y675493D01*
X1034734Y676782D01*
X1036023Y678461D01*
X1036833Y680417D01*
X1037109Y682516D01*
X1036833Y684615D01*
X1036023Y686571D01*
X1034734Y688250D01*
X1033055Y689539D01*
X1031099Y690349D01*
X1029000Y690625D01*
D02*
G37*
G36*
X648996Y678857D02*
X647206Y678622D01*
X645537Y677931D01*
X644105Y676831D01*
X643006Y675399D01*
X642315Y673730D01*
X642079Y671940D01*
X642315Y670150D01*
X643006Y668481D01*
X644105Y667049D01*
X645537Y665949D01*
X647206Y665258D01*
X648996Y665023D01*
X650786Y665258D01*
X652455Y665949D01*
X653887Y667049D01*
X654986Y668481D01*
X655677Y670150D01*
X655913Y671940D01*
X655677Y673730D01*
X654986Y675399D01*
X653887Y676831D01*
X652455Y677931D01*
X650786Y678622D01*
X648996Y678857D01*
D02*
G37*
G36*
X629184D02*
X627394Y678622D01*
X625725Y677931D01*
X624293Y676831D01*
X623194Y675399D01*
X622503Y673730D01*
X622267Y671940D01*
X622503Y670150D01*
X623194Y668481D01*
X624293Y667049D01*
X625725Y665949D01*
X627394Y665258D01*
X629184Y665023D01*
X630974Y665258D01*
X632643Y665949D01*
X634075Y667049D01*
X635174Y668481D01*
X635866Y670150D01*
X636101Y671940D01*
X635866Y673730D01*
X635174Y675399D01*
X634075Y676831D01*
X632643Y677931D01*
X630974Y678622D01*
X629184Y678857D01*
D02*
G37*
G36*
X1054400Y690625D02*
X1052301Y690349D01*
X1050345Y689539D01*
X1048666Y688250D01*
X1047377Y686571D01*
X1046927Y685484D01*
X1046135Y684955D01*
X1037465Y676285D01*
X1036075Y674204D01*
X1035587Y671750D01*
Y663720D01*
X1034317Y663170D01*
X1033055Y664139D01*
X1031099Y664949D01*
X1029000Y665225D01*
X1026901Y664949D01*
X1024945Y664139D01*
X1023266Y662850D01*
X1021977Y661171D01*
X1021167Y659215D01*
X1020891Y657116D01*
X1021167Y655017D01*
X1021977Y653061D01*
X1023266Y651382D01*
X1024945Y650093D01*
X1026901Y649283D01*
X1029000Y649007D01*
X1031099Y649283D01*
X1033055Y650093D01*
X1034317Y651061D01*
X1035587Y650512D01*
Y646906D01*
X1029032Y640351D01*
X912004D01*
X909550Y639863D01*
X907469Y638473D01*
X906079Y636392D01*
X905591Y633938D01*
X906079Y631484D01*
X907469Y629403D01*
X909550Y628013D01*
X912004Y627525D01*
X988087D01*
Y621913D01*
X987641Y620838D01*
X987399Y619000D01*
X987641Y617162D01*
X988351Y615450D01*
X989479Y613979D01*
X990950Y612851D01*
X992662Y612141D01*
X994500Y611899D01*
X996338Y612141D01*
X998050Y612851D01*
X999521Y613979D01*
X1000649Y615450D01*
X1001359Y617162D01*
X1001601Y619000D01*
X1001359Y620838D01*
X1000913Y621913D01*
Y627525D01*
X1031688D01*
X1034142Y628013D01*
X1036223Y629403D01*
X1046535Y639715D01*
X1047925Y641796D01*
X1049177Y641579D01*
Y557500D01*
Y551996D01*
X966844Y469663D01*
X911750D01*
X909296Y469175D01*
X907215Y467785D01*
X905825Y465704D01*
X905337Y463250D01*
X905825Y460796D01*
X907215Y458715D01*
X909296Y457325D01*
X911750Y456837D01*
X969500D01*
X971954Y457325D01*
X974035Y458715D01*
X1060125Y544805D01*
X1061515Y546886D01*
X1062003Y549340D01*
Y551087D01*
X1185500D01*
X1187954Y551575D01*
X1188793Y552135D01*
X1188838Y552141D01*
X1190550Y552851D01*
X1192021Y553979D01*
X1193149Y555450D01*
X1193859Y557162D01*
X1194101Y559000D01*
X1193859Y560838D01*
X1193149Y562550D01*
X1192021Y564021D01*
X1190550Y565149D01*
X1188838Y565859D01*
X1187000Y566101D01*
X1185162Y565859D01*
X1183450Y565149D01*
X1181979Y564021D01*
X1181896Y563913D01*
X1062003D01*
Y654462D01*
X1062233Y655017D01*
X1062509Y657116D01*
X1062233Y659215D01*
X1061423Y661171D01*
X1060134Y662850D01*
X1058455Y664139D01*
X1056499Y664949D01*
X1054400Y665225D01*
X1052301Y664949D01*
X1050345Y664139D01*
X1049683Y663631D01*
X1048413Y664257D01*
Y669094D01*
X1053477Y674157D01*
X1055174Y674495D01*
X1055200Y674512D01*
X1056499Y674683D01*
X1058455Y675493D01*
X1060134Y676782D01*
X1061423Y678461D01*
X1062233Y680417D01*
X1062509Y682516D01*
X1062233Y684615D01*
X1061423Y686571D01*
X1060134Y688250D01*
X1058455Y689539D01*
X1056499Y690349D01*
X1054400Y690625D01*
D02*
G37*
G36*
X900070Y668434D02*
Y662770D01*
X905733D01*
X905659Y663338D01*
X904949Y665050D01*
X903821Y666521D01*
X902350Y667649D01*
X900638Y668359D01*
X900070Y668434D01*
D02*
G37*
G36*
X897530D02*
X896962Y668359D01*
X895250Y667649D01*
X893779Y666521D01*
X892651Y665050D01*
X891941Y663338D01*
X891866Y662770D01*
X897530D01*
Y668434D01*
D02*
G37*
G36*
X1276520Y664184D02*
Y658520D01*
X1282184D01*
X1282109Y659088D01*
X1281399Y660800D01*
X1280271Y662271D01*
X1278800Y663399D01*
X1277088Y664109D01*
X1276520Y664184D01*
D02*
G37*
G36*
X1273980D02*
X1273412Y664109D01*
X1271700Y663399D01*
X1270229Y662271D01*
X1269101Y660800D01*
X1268391Y659088D01*
X1268316Y658520D01*
X1273980D01*
Y664184D01*
D02*
G37*
G36*
X1251270D02*
Y658520D01*
X1256934D01*
X1256859Y659088D01*
X1256149Y660800D01*
X1255021Y662271D01*
X1253550Y663399D01*
X1251838Y664109D01*
X1251270Y664184D01*
D02*
G37*
G36*
X1248730D02*
X1248162Y664109D01*
X1246450Y663399D01*
X1244979Y662271D01*
X1243850Y660800D01*
X1243141Y659088D01*
X1243066Y658520D01*
X1248730D01*
Y664184D01*
D02*
G37*
G36*
X905733Y660230D02*
X900070D01*
Y654566D01*
X900638Y654641D01*
X902350Y655351D01*
X903821Y656479D01*
X904949Y657950D01*
X905659Y659662D01*
X905733Y660230D01*
D02*
G37*
G36*
X897530D02*
X891866D01*
X891941Y659662D01*
X892651Y657950D01*
X893779Y656479D01*
X895250Y655351D01*
X896962Y654641D01*
X897530Y654566D01*
Y660230D01*
D02*
G37*
G36*
X662322Y659145D02*
X660160Y658715D01*
X658328Y657490D01*
X657103Y655658D01*
X656901Y654642D01*
X655581Y654511D01*
X655240Y655333D01*
X654141Y656765D01*
X652709Y657865D01*
X651040Y658556D01*
X649250Y658791D01*
X647460Y658556D01*
X645791Y657865D01*
X644359Y656765D01*
X643260Y655333D01*
X642569Y653664D01*
X642333Y651874D01*
X642569Y650084D01*
X643260Y648415D01*
X644359Y646983D01*
X645791Y645883D01*
X647460Y645192D01*
X649250Y644957D01*
X651040Y645192D01*
X652709Y645883D01*
X654141Y646983D01*
X655240Y648415D01*
X655931Y650084D01*
X657142Y649835D01*
Y633848D01*
X655931Y633598D01*
X655240Y635267D01*
X654141Y636699D01*
X652709Y637799D01*
X651040Y638489D01*
X649250Y638725D01*
X647460Y638489D01*
X645791Y637799D01*
X644359Y636699D01*
X643260Y635267D01*
X642569Y633598D01*
X642333Y631808D01*
X642569Y630018D01*
X643260Y628349D01*
X644359Y626917D01*
X645791Y625817D01*
X647460Y625126D01*
X649250Y624891D01*
X651040Y625126D01*
X652709Y625817D01*
X654141Y626917D01*
X655240Y628349D01*
X655931Y630018D01*
X657142Y629768D01*
Y625744D01*
X657103Y625686D01*
X657084Y625589D01*
X657029Y625506D01*
X656635Y623524D01*
Y621746D01*
X657029Y619764D01*
X658151Y618083D01*
X660946Y615289D01*
X662626Y614167D01*
X664608Y613773D01*
X666590Y614167D01*
X668270Y615289D01*
X669393Y616970D01*
X669788Y618952D01*
X669638Y619704D01*
X670834Y620200D01*
X671282Y619530D01*
X673114Y618305D01*
X675276Y617876D01*
X677438Y618305D01*
X679270Y619530D01*
X680495Y621362D01*
X680925Y623524D01*
X680691Y624700D01*
X680710Y624794D01*
X680315Y626776D01*
X679193Y628456D01*
X678930Y628719D01*
Y638530D01*
X678969Y638588D01*
X679398Y640750D01*
X678969Y642912D01*
X677744Y644744D01*
X675912Y645969D01*
X673750Y646398D01*
X671588Y645969D01*
X669756Y644744D01*
X668772Y643271D01*
X667502Y643656D01*
Y651276D01*
X667541Y651334D01*
X667971Y653496D01*
X667541Y655658D01*
X666316Y657490D01*
X664484Y658715D01*
X662322Y659145D01*
D02*
G37*
G36*
X1282184Y655980D02*
X1276520D01*
Y650316D01*
X1277088Y650391D01*
X1278800Y651101D01*
X1280271Y652229D01*
X1281399Y653700D01*
X1282109Y655412D01*
X1282184Y655980D01*
D02*
G37*
G36*
X1273980D02*
X1268316D01*
X1268391Y655412D01*
X1269101Y653700D01*
X1270229Y652229D01*
X1271700Y651101D01*
X1273412Y650391D01*
X1273980Y650316D01*
Y655980D01*
D02*
G37*
G36*
X1256934D02*
X1251270D01*
Y650316D01*
X1251838Y650391D01*
X1253550Y651101D01*
X1255021Y652229D01*
X1256149Y653700D01*
X1256859Y655412D01*
X1256934Y655980D01*
D02*
G37*
G36*
X1248730D02*
X1243066D01*
X1243141Y655412D01*
X1243850Y653700D01*
X1244979Y652229D01*
X1246450Y651101D01*
X1248162Y650391D01*
X1248730Y650316D01*
Y655980D01*
D02*
G37*
G36*
X1156000Y665225D02*
X1153901Y664949D01*
X1151945Y664139D01*
X1150266Y662850D01*
X1148977Y661171D01*
X1148167Y659215D01*
X1147891Y657116D01*
X1148167Y655017D01*
X1148977Y653061D01*
X1150266Y651382D01*
X1151945Y650093D01*
X1153901Y649283D01*
X1156000Y649007D01*
X1158099Y649283D01*
X1160055Y650093D01*
X1161734Y651382D01*
X1163023Y653061D01*
X1163833Y655017D01*
X1164109Y657116D01*
X1163833Y659215D01*
X1163023Y661171D01*
X1161734Y662850D01*
X1160055Y664139D01*
X1158099Y664949D01*
X1156000Y665225D01*
D02*
G37*
G36*
X881778Y896380D02*
X879616Y895951D01*
X877784Y894726D01*
X876559Y892894D01*
X876130Y890732D01*
X876559Y888570D01*
X877149Y887688D01*
Y774650D01*
X876559Y773768D01*
X876130Y771606D01*
X876559Y769444D01*
X877784Y767612D01*
X879616Y766387D01*
X881778Y765957D01*
X883940Y766387D01*
X885772Y767612D01*
X886997Y769444D01*
X887427Y771606D01*
X886997Y773768D01*
X886407Y774650D01*
Y786785D01*
X887677Y787089D01*
X888769Y785455D01*
X965659Y708565D01*
X967579Y707282D01*
X969844Y706831D01*
X970305Y706923D01*
X1043376D01*
X1071904Y678396D01*
X1073794Y677133D01*
X1073797Y677132D01*
X1074066Y676782D01*
X1075745Y675493D01*
X1077701Y674683D01*
X1078694Y674552D01*
X1088531Y664715D01*
X1090612Y663325D01*
X1093066Y662837D01*
X1098020D01*
X1098581Y661698D01*
X1098177Y661171D01*
X1097367Y659215D01*
X1097091Y657116D01*
X1097367Y655017D01*
X1098177Y653061D01*
X1099466Y651382D01*
X1101145Y650093D01*
X1103101Y649283D01*
X1105200Y649007D01*
X1107299Y649283D01*
X1109255Y650093D01*
X1109817Y650524D01*
X1111087Y649898D01*
Y645500D01*
X1111575Y643046D01*
X1112965Y640965D01*
X1159965Y593965D01*
X1162046Y592575D01*
X1164500Y592087D01*
X1183337D01*
X1184412Y591641D01*
X1186250Y591399D01*
X1188088Y591641D01*
X1189800Y592351D01*
X1191271Y593479D01*
X1192399Y594950D01*
X1193109Y596662D01*
X1193351Y598500D01*
X1193109Y600338D01*
X1192399Y602050D01*
X1191271Y603521D01*
X1189800Y604649D01*
X1188088Y605359D01*
X1186250Y605601D01*
X1184412Y605359D01*
X1183337Y604913D01*
X1167156D01*
X1123913Y648156D01*
Y650685D01*
X1125183Y651138D01*
X1126545Y650093D01*
X1128501Y649283D01*
X1130600Y649007D01*
X1132699Y649283D01*
X1134655Y650093D01*
X1136334Y651382D01*
X1137623Y653061D01*
X1138433Y655017D01*
X1138709Y657116D01*
X1138433Y659215D01*
X1137623Y661171D01*
X1136334Y662850D01*
X1134655Y664139D01*
X1132699Y664949D01*
X1130600Y665225D01*
X1128501Y664949D01*
X1126545Y664139D01*
X1125016Y662965D01*
X1124357Y663057D01*
X1123645Y663346D01*
X1123425Y664454D01*
X1122035Y666535D01*
X1114785Y673785D01*
X1112704Y675175D01*
X1111292Y675456D01*
X1110934Y676782D01*
X1112223Y678461D01*
X1113033Y680417D01*
X1113309Y682516D01*
X1113033Y684615D01*
X1112223Y686571D01*
X1110934Y688250D01*
X1109255Y689539D01*
X1107299Y690349D01*
X1105200Y690625D01*
X1103101Y690349D01*
X1101145Y689539D01*
X1099466Y688250D01*
X1098177Y686571D01*
X1097367Y684615D01*
X1097091Y682516D01*
X1097367Y680417D01*
X1098177Y678461D01*
X1099350Y676933D01*
X1099057Y675663D01*
X1095723D01*
X1087764Y683622D01*
X1087633Y684615D01*
X1086823Y686571D01*
X1085534Y688250D01*
X1084964Y688688D01*
X1084585Y689067D01*
X1082504Y690457D01*
X1080050Y690945D01*
X1077596Y690457D01*
X1076999Y690058D01*
X1076803Y689977D01*
X1049910Y716870D01*
X1048020Y718133D01*
X1045790Y718577D01*
X972387D01*
X898873Y792092D01*
Y803864D01*
X898422Y806129D01*
X898325Y806274D01*
X898173Y807042D01*
X896948Y808874D01*
X895116Y810099D01*
X892954Y810528D01*
X890792Y810099D01*
X888960Y808874D01*
X887735Y807042D01*
X887677Y806748D01*
X886407Y806873D01*
Y887688D01*
X886997Y888570D01*
X887427Y890732D01*
X886997Y892894D01*
X885772Y894726D01*
X883940Y895951D01*
X881778Y896380D01*
D02*
G37*
G36*
X629438Y658791D02*
X627648Y658556D01*
X625979Y657865D01*
X624547Y656765D01*
X623447Y655333D01*
X622757Y653664D01*
X622521Y651874D01*
X622757Y650084D01*
X623447Y648415D01*
X624547Y646983D01*
X625979Y645883D01*
X627648Y645192D01*
X629438Y644957D01*
X631228Y645192D01*
X632897Y645883D01*
X634329Y646983D01*
X635429Y648415D01*
X636119Y650084D01*
X636355Y651874D01*
X636119Y653664D01*
X635429Y655333D01*
X634329Y656765D01*
X632897Y657865D01*
X631228Y658556D01*
X629438Y658791D01*
D02*
G37*
G36*
X1210250Y686101D02*
X1208412Y685859D01*
X1206700Y685149D01*
X1205229Y684021D01*
X1204101Y682550D01*
X1203391Y680838D01*
X1203334Y680404D01*
X1182215Y659285D01*
X1180825Y657204D01*
X1180337Y654750D01*
Y643164D01*
X1179891Y642088D01*
X1179649Y640250D01*
X1179891Y638412D01*
X1180601Y636700D01*
X1181729Y635229D01*
X1183200Y634101D01*
X1184912Y633391D01*
X1186750Y633149D01*
X1188588Y633391D01*
X1190300Y634101D01*
X1191771Y635229D01*
X1192899Y636700D01*
X1193609Y638412D01*
X1193851Y640250D01*
X1193609Y642088D01*
X1193163Y643164D01*
Y652094D01*
X1214316Y673246D01*
X1215271Y673979D01*
X1216399Y675450D01*
X1217109Y677162D01*
X1217351Y679000D01*
X1217109Y680838D01*
X1216399Y682550D01*
X1215271Y684021D01*
X1213800Y685149D01*
X1212088Y685859D01*
X1210250Y686101D01*
D02*
G37*
G36*
X629438Y638725D02*
X627648Y638489D01*
X625979Y637799D01*
X624547Y636699D01*
X623447Y635267D01*
X622757Y633598D01*
X622521Y631808D01*
X622757Y630018D01*
X623447Y628349D01*
X624547Y626917D01*
X625979Y625817D01*
X627648Y625126D01*
X629438Y624891D01*
X631228Y625126D01*
X632897Y625817D01*
X634329Y626917D01*
X635429Y628349D01*
X636119Y630018D01*
X636355Y631808D01*
X636119Y633598D01*
X635429Y635267D01*
X634329Y636699D01*
X632897Y637799D01*
X631228Y638489D01*
X629438Y638725D01*
D02*
G37*
G36*
X763770Y611184D02*
Y605520D01*
X769434D01*
X769359Y606088D01*
X768649Y607800D01*
X767521Y609271D01*
X766050Y610399D01*
X764338Y611109D01*
X763770Y611184D01*
D02*
G37*
G36*
X761230D02*
X760662Y611109D01*
X758950Y610399D01*
X757479Y609271D01*
X756351Y607800D01*
X755641Y606088D01*
X755566Y605520D01*
X761230D01*
Y611184D01*
D02*
G37*
G36*
X649250Y619167D02*
X647460Y618932D01*
X645791Y618241D01*
X644359Y617141D01*
X643260Y615709D01*
X642569Y614040D01*
X642333Y612250D01*
X642569Y610460D01*
X643260Y608791D01*
X644359Y607359D01*
X645791Y606259D01*
X647460Y605569D01*
X649250Y605333D01*
X651040Y605569D01*
X652709Y606259D01*
X654141Y607359D01*
X655240Y608791D01*
X655931Y610460D01*
X656167Y612250D01*
X655931Y614040D01*
X655240Y615709D01*
X654141Y617141D01*
X652709Y618241D01*
X651040Y618932D01*
X649250Y619167D01*
D02*
G37*
G36*
X629438D02*
X627648Y618932D01*
X625979Y618241D01*
X624547Y617141D01*
X623447Y615709D01*
X622757Y614040D01*
X622521Y612250D01*
X622757Y610460D01*
X623447Y608791D01*
X624547Y607359D01*
X625979Y606259D01*
X627648Y605569D01*
X629438Y605333D01*
X631228Y605569D01*
X632897Y606259D01*
X634329Y607359D01*
X635429Y608791D01*
X636119Y610460D01*
X636355Y612250D01*
X636119Y614040D01*
X635429Y615709D01*
X634329Y617141D01*
X632897Y618241D01*
X631228Y618932D01*
X629438Y619167D01*
D02*
G37*
G36*
X769434Y602980D02*
X763770D01*
Y597317D01*
X764338Y597391D01*
X766050Y598101D01*
X767521Y599229D01*
X768649Y600700D01*
X769359Y602412D01*
X769434Y602980D01*
D02*
G37*
G36*
X761230D02*
X755566D01*
X755641Y602412D01*
X756351Y600700D01*
X757479Y599229D01*
X758950Y598101D01*
X760662Y597391D01*
X761230Y597317D01*
Y602980D01*
D02*
G37*
G36*
X881778Y686831D02*
X879616Y686401D01*
X877784Y685176D01*
X876559Y683344D01*
X876130Y681182D01*
X876559Y679020D01*
X877149Y678138D01*
Y605486D01*
X876559Y604604D01*
X876130Y602442D01*
X876559Y600280D01*
X877784Y598448D01*
X879616Y597223D01*
X881778Y596794D01*
X883940Y597223D01*
X885772Y598448D01*
X886997Y600280D01*
X887427Y602442D01*
X886997Y604604D01*
X886407Y605486D01*
Y678138D01*
X886997Y679020D01*
X887427Y681182D01*
X886997Y683344D01*
X885772Y685176D01*
X883940Y686401D01*
X881778Y686831D01*
D02*
G37*
G36*
X869078D02*
X866916Y686401D01*
X865084Y685176D01*
X863859Y683344D01*
X863429Y681182D01*
X863859Y679020D01*
X864449Y678138D01*
Y605486D01*
X863859Y604604D01*
X863429Y602442D01*
X863859Y600280D01*
X865084Y598448D01*
X866916Y597223D01*
X869078Y596794D01*
X871240Y597223D01*
X873072Y598448D01*
X874296Y600280D01*
X874726Y602442D01*
X874296Y604604D01*
X873707Y605486D01*
Y678138D01*
X874296Y679020D01*
X874726Y681182D01*
X874296Y683344D01*
X873072Y685176D01*
X871240Y686401D01*
X869078Y686831D01*
D02*
G37*
G36*
X856378D02*
X854216Y686401D01*
X852384Y685176D01*
X851159Y683344D01*
X850730Y681182D01*
X851159Y679020D01*
X851749Y678138D01*
Y605486D01*
X851159Y604604D01*
X850730Y602442D01*
X851159Y600280D01*
X852384Y598448D01*
X854216Y597223D01*
X856378Y596794D01*
X858540Y597223D01*
X860372Y598448D01*
X861597Y600280D01*
X862027Y602442D01*
X861597Y604604D01*
X861007Y605486D01*
Y678138D01*
X861597Y679020D01*
X862027Y681182D01*
X861597Y683344D01*
X860372Y685176D01*
X858540Y686401D01*
X856378Y686831D01*
D02*
G37*
G36*
X913750Y608601D02*
X911912Y608359D01*
X910200Y607649D01*
X908729Y606521D01*
X907601Y605050D01*
X906891Y603338D01*
X906649Y601500D01*
X906891Y599662D01*
X907601Y597950D01*
X908729Y596479D01*
X910200Y595351D01*
X911912Y594641D01*
X913750Y594399D01*
X915588Y594641D01*
X916663Y595087D01*
X941763D01*
X942229Y594479D01*
X943700Y593351D01*
X945412Y592641D01*
X947250Y592399D01*
X949088Y592641D01*
X950800Y593351D01*
X952271Y594479D01*
X953399Y595950D01*
X954109Y597662D01*
X954351Y599500D01*
X954109Y601338D01*
X953399Y603050D01*
X952271Y604521D01*
X950800Y605649D01*
X949088Y606359D01*
X948729Y606406D01*
X947204Y607425D01*
X944750Y607913D01*
X916663D01*
X915588Y608359D01*
X913750Y608601D01*
D02*
G37*
G36*
X1040145Y595809D02*
Y590145D01*
X1045809D01*
X1045734Y590713D01*
X1045024Y592425D01*
X1043896Y593896D01*
X1042425Y595024D01*
X1040713Y595734D01*
X1040145Y595809D01*
D02*
G37*
G36*
X1037605D02*
X1037037Y595734D01*
X1035325Y595024D01*
X1033854Y593896D01*
X1032726Y592425D01*
X1032016Y590713D01*
X1031942Y590145D01*
X1037605D01*
Y595809D01*
D02*
G37*
G36*
X639208Y600471D02*
X637046Y600041D01*
X635214Y598816D01*
X633989Y596984D01*
X633559Y594822D01*
X633989Y592660D01*
X635214Y590828D01*
X637046Y589603D01*
X637115Y589590D01*
X637578Y589128D01*
X639258Y588005D01*
X641240Y587611D01*
X664100D01*
X666082Y588005D01*
X667763Y589128D01*
X667971Y589336D01*
X668040Y589349D01*
X669872Y590574D01*
X671096Y592406D01*
X671526Y594568D01*
X671096Y596730D01*
X669872Y598562D01*
X668040Y599787D01*
X665878Y600216D01*
X663716Y599787D01*
X661884Y598562D01*
X661488Y597970D01*
X643768D01*
X643202Y598816D01*
X641370Y600041D01*
X639208Y600471D01*
D02*
G37*
G36*
X947250Y584601D02*
X945412Y584359D01*
X944336Y583913D01*
X916663D01*
X915588Y584359D01*
X913750Y584601D01*
X911912Y584359D01*
X910200Y583649D01*
X908729Y582521D01*
X907601Y581050D01*
X906891Y579338D01*
X906649Y577500D01*
X906891Y575662D01*
X907601Y573950D01*
X908729Y572479D01*
X910200Y571351D01*
X911912Y570641D01*
X913750Y570399D01*
X915588Y570641D01*
X916663Y571087D01*
X944336D01*
X945412Y570641D01*
X947250Y570399D01*
X949088Y570641D01*
X950800Y571351D01*
X952271Y572479D01*
X953399Y573950D01*
X954109Y575662D01*
X954351Y577500D01*
X954109Y579338D01*
X953399Y581050D01*
X952271Y582521D01*
X950800Y583649D01*
X949088Y584359D01*
X947250Y584601D01*
D02*
G37*
G36*
X1045809Y587605D02*
X1040145D01*
Y581941D01*
X1040713Y582016D01*
X1042425Y582726D01*
X1043896Y583854D01*
X1045024Y585325D01*
X1045734Y587037D01*
X1045809Y587605D01*
D02*
G37*
G36*
X1037605D02*
X1031942D01*
X1032016Y587037D01*
X1032726Y585325D01*
X1033854Y583854D01*
X1035325Y582726D01*
X1037037Y582016D01*
X1037605Y581941D01*
Y587605D01*
D02*
G37*
G36*
X1079800Y665225D02*
X1077701Y664949D01*
X1075745Y664139D01*
X1074066Y662850D01*
X1072777Y661171D01*
X1071967Y659215D01*
X1071691Y657116D01*
X1071967Y655017D01*
X1072777Y653061D01*
X1073891Y651609D01*
X1074075Y650686D01*
X1075465Y648605D01*
X1149105Y574965D01*
X1151186Y573575D01*
X1153640Y573087D01*
X1183587D01*
X1184662Y572641D01*
X1186500Y572399D01*
X1188338Y572641D01*
X1190050Y573351D01*
X1191521Y574479D01*
X1192649Y575950D01*
X1193359Y577662D01*
X1193601Y579500D01*
X1193359Y581338D01*
X1192649Y583050D01*
X1191521Y584521D01*
X1190050Y585649D01*
X1188338Y586359D01*
X1186500Y586601D01*
X1184662Y586359D01*
X1183587Y585913D01*
X1156296D01*
X1087504Y654706D01*
X1087633Y655017D01*
X1087909Y657116D01*
X1087633Y659215D01*
X1086823Y661171D01*
X1085534Y662850D01*
X1083855Y664139D01*
X1081899Y664949D01*
X1079800Y665225D01*
D02*
G37*
G36*
X805832Y571515D02*
X803670Y571085D01*
X803612Y571045D01*
X774778D01*
X774720Y571085D01*
X772558Y571515D01*
X770396Y571085D01*
X768564Y569860D01*
X767339Y568028D01*
X766909Y565866D01*
X767339Y563704D01*
X768564Y561872D01*
X770396Y560647D01*
X772558Y560218D01*
X774720Y560647D01*
X774778Y560686D01*
X803612D01*
X803670Y560647D01*
X805832Y560218D01*
X807994Y560647D01*
X809826Y561872D01*
X811050Y563704D01*
X811480Y565866D01*
X811050Y568028D01*
X809826Y569860D01*
X807994Y571085D01*
X805832Y571515D01*
D02*
G37*
G36*
X1040145Y573934D02*
Y568270D01*
X1045809D01*
X1045734Y568838D01*
X1045024Y570550D01*
X1043896Y572021D01*
X1042425Y573149D01*
X1040713Y573859D01*
X1040145Y573934D01*
D02*
G37*
G36*
X1037605D02*
X1037037Y573859D01*
X1035325Y573149D01*
X1033854Y572021D01*
X1032726Y570550D01*
X1032016Y568838D01*
X1031942Y568270D01*
X1037605D01*
Y573934D01*
D02*
G37*
G36*
X947250Y562351D02*
X945412Y562109D01*
X943700Y561399D01*
X943392Y561163D01*
X916663D01*
X915588Y561609D01*
X913750Y561851D01*
X911912Y561609D01*
X910200Y560899D01*
X908729Y559771D01*
X907601Y558300D01*
X906891Y556588D01*
X906649Y554750D01*
X906891Y552912D01*
X907601Y551200D01*
X908729Y549729D01*
X910200Y548601D01*
X911912Y547891D01*
X913750Y547649D01*
X915588Y547891D01*
X916663Y548337D01*
X926463D01*
X927025Y547198D01*
X926914Y547052D01*
X926154Y545218D01*
X925895Y543250D01*
Y527144D01*
X926154Y525176D01*
X926914Y523341D01*
X927475Y522610D01*
X926664Y521553D01*
X925904Y519718D01*
X925645Y517750D01*
Y505500D01*
X925904Y503532D01*
X926664Y501698D01*
X927872Y500122D01*
X929447Y498914D01*
X931282Y498154D01*
X933250Y497895D01*
X935218Y498154D01*
X937053Y498914D01*
X938628Y500122D01*
X939836Y501698D01*
X940596Y503532D01*
X940855Y505500D01*
Y517750D01*
X940596Y519718D01*
X939836Y521553D01*
X939275Y522284D01*
X940086Y523341D01*
X940846Y525176D01*
X941105Y527144D01*
Y543250D01*
X940846Y545218D01*
X940086Y547052D01*
X939975Y547198D01*
X940536Y548337D01*
X945826D01*
X947250Y548149D01*
X949088Y548391D01*
X950800Y549101D01*
X952271Y550229D01*
X953399Y551700D01*
X954109Y553412D01*
X954351Y555250D01*
X954109Y557088D01*
X953399Y558800D01*
X952271Y560271D01*
X950800Y561399D01*
X949088Y562109D01*
X947250Y562351D01*
D02*
G37*
G36*
X1045809Y565730D02*
X1040145D01*
Y560066D01*
X1040713Y560141D01*
X1042425Y560851D01*
X1043896Y561979D01*
X1045024Y563450D01*
X1045734Y565162D01*
X1045809Y565730D01*
D02*
G37*
G36*
X1037605D02*
X1031942D01*
X1032016Y565162D01*
X1032726Y563450D01*
X1033854Y561979D01*
X1035325Y560851D01*
X1037037Y560141D01*
X1037605Y560066D01*
Y565730D01*
D02*
G37*
G36*
X635906Y582183D02*
X633744Y581753D01*
X631912Y580528D01*
X630687Y578696D01*
X630257Y576534D01*
X630687Y574372D01*
X631912Y572540D01*
X633744Y571315D01*
X635906Y570886D01*
X636125Y570929D01*
X636541Y570846D01*
X670083D01*
X678553Y562376D01*
X678566Y562307D01*
X679791Y560475D01*
X681623Y559250D01*
X683785Y558820D01*
X685947Y559250D01*
X687779Y560475D01*
X689004Y562307D01*
X689434Y564469D01*
X689004Y566631D01*
X687779Y568463D01*
X685947Y569688D01*
X685878Y569701D01*
X675891Y579688D01*
X674210Y580811D01*
X672228Y581205D01*
X638886D01*
X638068Y581753D01*
X635906Y582183D01*
D02*
G37*
G36*
X995770Y533933D02*
Y528270D01*
X1001433D01*
X1001359Y528838D01*
X1000649Y530550D01*
X999521Y532021D01*
X998050Y533149D01*
X996338Y533859D01*
X995770Y533933D01*
D02*
G37*
G36*
X993230D02*
X992662Y533859D01*
X990949Y533149D01*
X989479Y532021D01*
X988350Y530550D01*
X987641Y528838D01*
X987566Y528270D01*
X993230D01*
Y533933D01*
D02*
G37*
G36*
X1059270Y533433D02*
Y527770D01*
X1064933D01*
X1064859Y528338D01*
X1064149Y530050D01*
X1063021Y531521D01*
X1061550Y532649D01*
X1059838Y533359D01*
X1059270Y533433D01*
D02*
G37*
G36*
X1056730D02*
X1056162Y533359D01*
X1054450Y532649D01*
X1052979Y531521D01*
X1051851Y530050D01*
X1051141Y528338D01*
X1051067Y527770D01*
X1056730D01*
Y533433D01*
D02*
G37*
G36*
X1001433Y525730D02*
X995770D01*
Y520066D01*
X996338Y520141D01*
X998050Y520851D01*
X999521Y521979D01*
X1000649Y523450D01*
X1001359Y525162D01*
X1001433Y525730D01*
D02*
G37*
G36*
X993230D02*
X987566D01*
X987641Y525162D01*
X988350Y523450D01*
X989479Y521979D01*
X990949Y520851D01*
X992662Y520141D01*
X993230Y520066D01*
Y525730D01*
D02*
G37*
G36*
X1064933Y525230D02*
X1059270D01*
Y519566D01*
X1059838Y519641D01*
X1061550Y520351D01*
X1063021Y521479D01*
X1064149Y522950D01*
X1064859Y524662D01*
X1064933Y525230D01*
D02*
G37*
G36*
X1056730D02*
X1051067D01*
X1051141Y524662D01*
X1051851Y522950D01*
X1052979Y521479D01*
X1054450Y520351D01*
X1056162Y519641D01*
X1056730Y519566D01*
Y525230D01*
D02*
G37*
G36*
X1059270Y516934D02*
Y511270D01*
X1064933D01*
X1064859Y511838D01*
X1064149Y513550D01*
X1063021Y515021D01*
X1061550Y516149D01*
X1059838Y516859D01*
X1059270Y516934D01*
D02*
G37*
G36*
X1056730D02*
X1056162Y516859D01*
X1054450Y516149D01*
X1052979Y515021D01*
X1051851Y513550D01*
X1051141Y511838D01*
X1051067Y511270D01*
X1056730D01*
Y516934D01*
D02*
G37*
G36*
X995770D02*
Y511270D01*
X1001433D01*
X1001359Y511838D01*
X1000649Y513550D01*
X999521Y515021D01*
X998050Y516149D01*
X996338Y516859D01*
X995770Y516934D01*
D02*
G37*
G36*
X993230D02*
X992662Y516859D01*
X990949Y516149D01*
X989479Y515021D01*
X988350Y513550D01*
X987641Y511838D01*
X987566Y511270D01*
X993230D01*
Y516934D01*
D02*
G37*
G36*
X1064933Y508730D02*
X1059270D01*
Y503066D01*
X1059838Y503141D01*
X1061550Y503851D01*
X1063021Y504979D01*
X1064149Y506450D01*
X1064859Y508162D01*
X1064933Y508730D01*
D02*
G37*
G36*
X1056730D02*
X1051067D01*
X1051141Y508162D01*
X1051851Y506450D01*
X1052979Y504979D01*
X1054450Y503851D01*
X1056162Y503141D01*
X1056730Y503066D01*
Y508730D01*
D02*
G37*
G36*
X1001433D02*
X995770D01*
Y503066D01*
X996338Y503141D01*
X998050Y503851D01*
X999521Y504979D01*
X1000649Y506450D01*
X1001359Y508162D01*
X1001433Y508730D01*
D02*
G37*
G36*
X993230D02*
X987566D01*
X987641Y508162D01*
X988350Y506450D01*
X989479Y504979D01*
X990949Y503851D01*
X992662Y503141D01*
X993230Y503066D01*
Y508730D01*
D02*
G37*
G36*
X899370Y494683D02*
Y489020D01*
X905033D01*
X904959Y489588D01*
X904249Y491300D01*
X903121Y492771D01*
X901650Y493899D01*
X899938Y494609D01*
X899370Y494683D01*
D02*
G37*
G36*
X896830D02*
X896262Y494609D01*
X894550Y493899D01*
X893079Y492771D01*
X891951Y491300D01*
X891241Y489588D01*
X891166Y489020D01*
X896830D01*
Y494683D01*
D02*
G37*
G36*
X1319250Y681101D02*
X1317412Y680859D01*
X1315700Y680149D01*
X1314229Y679021D01*
X1313101Y677550D01*
X1312391Y675838D01*
X1312149Y674000D01*
X1312391Y672162D01*
X1312837Y671087D01*
Y553157D01*
X1258275Y498595D01*
X1257200Y498149D01*
X1255729Y497021D01*
X1254601Y495550D01*
X1253891Y493838D01*
X1253649Y492000D01*
X1253891Y490162D01*
X1254601Y488450D01*
X1255729Y486979D01*
X1257200Y485851D01*
X1258912Y485141D01*
X1260750Y484899D01*
X1262588Y485141D01*
X1264300Y485851D01*
X1265771Y486979D01*
X1266899Y488450D01*
X1267345Y489525D01*
X1323785Y545965D01*
X1325175Y548046D01*
X1325663Y550500D01*
Y671087D01*
X1326109Y672162D01*
X1326351Y674000D01*
X1326109Y675838D01*
X1325399Y677550D01*
X1324271Y679021D01*
X1322800Y680149D01*
X1321088Y680859D01*
X1319250Y681101D01*
D02*
G37*
G36*
X905033Y486480D02*
X899370D01*
Y480816D01*
X899938Y480891D01*
X901650Y481601D01*
X903121Y482729D01*
X904249Y484200D01*
X904959Y485912D01*
X905033Y486480D01*
D02*
G37*
G36*
X896830D02*
X891166D01*
X891241Y485912D01*
X891951Y484200D01*
X893079Y482729D01*
X894550Y481601D01*
X896262Y480891D01*
X896830Y480816D01*
Y486480D01*
D02*
G37*
G36*
X651654Y451980D02*
Y429722D01*
X673913D01*
X673583Y433066D01*
X672237Y437504D01*
X670051Y441593D01*
X667110Y445177D01*
X663525Y448119D01*
X659436Y450305D01*
X654999Y451651D01*
X651654Y451980D01*
D02*
G37*
G36*
X649114Y451980D02*
X645769Y451651D01*
X641332Y450305D01*
X637243Y448119D01*
X633658Y445177D01*
X630717Y441593D01*
X628531Y437504D01*
X627185Y433066D01*
X626855Y429722D01*
X649114D01*
Y451980D01*
D02*
G37*
G36*
X1423020Y451029D02*
Y428770D01*
X1445279D01*
X1444949Y432115D01*
X1443603Y436552D01*
X1441417Y440642D01*
X1438476Y444226D01*
X1434891Y447168D01*
X1430802Y449353D01*
X1426364Y450700D01*
X1423020Y451029D01*
D02*
G37*
G36*
X1420480D02*
X1417135Y450700D01*
X1412698Y449353D01*
X1408609Y447168D01*
X1405024Y444226D01*
X1402082Y440642D01*
X1399897Y436552D01*
X1398551Y432115D01*
X1398221Y428770D01*
X1420480D01*
Y451029D01*
D02*
G37*
G36*
X649114Y427182D02*
X626855D01*
X627185Y423837D01*
X628531Y419400D01*
X630717Y415310D01*
X633658Y411726D01*
X637243Y408784D01*
X641332Y406598D01*
X645769Y405252D01*
X649114Y404923D01*
Y427182D01*
D02*
G37*
G36*
X673913D02*
X651654D01*
Y404923D01*
X654999Y405252D01*
X659436Y406598D01*
X663525Y408784D01*
X667110Y411726D01*
X670051Y415310D01*
X672237Y419400D01*
X673583Y423837D01*
X673913Y427182D01*
D02*
G37*
G36*
X1445279Y426230D02*
X1423020D01*
Y403971D01*
X1426364Y404301D01*
X1430802Y405647D01*
X1434891Y407833D01*
X1438476Y410774D01*
X1441417Y414359D01*
X1443603Y418448D01*
X1444949Y422886D01*
X1445279Y426230D01*
D02*
G37*
G36*
X1420480D02*
X1398221D01*
X1398551Y422886D01*
X1399897Y418448D01*
X1402082Y414359D01*
X1405024Y410774D01*
X1408609Y407833D01*
X1412698Y405647D01*
X1417135Y404301D01*
X1420480Y403971D01*
Y426230D01*
D02*
G37*
%LPD*%
D13*
X687500Y788250D02*
X691500Y792250D01*
X687500Y760750D02*
Y788250D01*
D30*
X731950Y1037000D02*
D03*
X757350D02*
D03*
X782750D02*
D03*
D51*
X933250Y505500D02*
Y517750D01*
X933500Y527144D02*
Y543250D01*
D52*
X1080683Y681633D02*
X1093066Y669250D01*
X1080000Y655100D02*
Y658750D01*
X1055590Y655100D02*
Y658284D01*
Y557500D02*
X1185500D01*
X1055590D02*
Y655100D01*
Y549340D02*
Y557500D01*
X969500Y463250D02*
X1055590Y549340D01*
X947000Y554750D02*
X947500Y555250D01*
X913500Y554750D02*
X947000D01*
X913750Y577500D02*
X947250D01*
X944750Y601500D02*
X946750Y599500D01*
X914500Y601500D02*
X944750D01*
X994500Y619000D02*
Y633438D01*
X994000Y633938D02*
X994500Y633438D01*
X1319250Y550500D02*
Y674000D01*
X1260750Y492000D02*
X1319250Y550500D01*
X1164500Y598500D02*
X1186250D01*
X1210250Y678250D02*
Y679000D01*
X1186750Y654750D02*
X1210250Y678250D01*
X1186750Y640250D02*
Y654750D01*
X1376250Y761500D02*
X1425500D01*
X1379000Y747500D02*
X1379750Y746750D01*
X1412250D01*
X1093066Y669250D02*
X1110250D01*
X1080050Y684532D02*
X1080933Y683649D01*
X1080000Y653140D02*
Y655100D01*
X1110250Y669250D02*
X1117500Y662000D01*
Y645500D02*
Y662000D01*
Y645500D02*
X1164500Y598500D01*
X1042000Y671750D02*
X1050670Y680420D01*
X1042000Y644250D02*
Y671750D01*
X1031688Y633938D02*
X1042000Y644250D01*
X1050670Y680420D02*
X1052720D01*
X933250Y526894D02*
X933500Y527144D01*
X1185500Y557500D02*
X1187000Y559000D01*
X1153640Y579500D02*
X1186500D01*
X1080000Y653140D02*
X1153640Y579500D01*
X994000Y633938D02*
X1031688D01*
X912004D02*
X994000D01*
X1110000Y709750D02*
Y738000D01*
X911750Y463250D02*
X969500D01*
D53*
X1436500Y887250D02*
Y903192D01*
X1434482Y905210D02*
X1436500Y903192D01*
X1360822Y905718D02*
Y995380D01*
X1339740Y1016462D02*
X1360822Y995380D01*
X1331250Y974000D02*
X1333000Y972250D01*
Y909156D02*
Y972250D01*
Y909156D02*
X1334914Y907242D01*
X1341626Y909547D02*
Y974250D01*
Y909547D02*
X1345201Y905972D01*
X1187086Y907496D02*
Y932642D01*
Y907242D02*
Y907496D01*
X1052720Y905464D02*
X1053482Y904702D01*
X1052720Y905464D02*
Y929848D01*
X673750Y626574D02*
Y640750D01*
Y626574D02*
X675530Y624794D01*
X636541Y576026D02*
X672228D01*
X683785Y564469D01*
X742586Y672800D02*
X760620D01*
X741316D02*
X742586D01*
X753762Y683722D02*
X762652Y692612D01*
X742586Y683722D02*
X753762D01*
X762652Y692612D02*
X770526D01*
X760620Y672800D02*
X770526Y682706D01*
X675530Y819104D02*
X699914D01*
X675022D02*
X675530D01*
X664100Y592790D02*
X665878Y594568D01*
X641240Y592790D02*
X664100D01*
X639208Y594822D02*
X641240Y592790D01*
X661814Y621746D02*
Y623524D01*
X700676Y841456D02*
X701946Y842726D01*
X676038Y841456D02*
X700676D01*
X1315102Y905718D02*
X1315610Y906226D01*
X1278780Y977600D02*
X1304434D01*
X979568Y904956D02*
X979822Y905210D01*
Y928832D01*
X968646Y962868D02*
X981854Y949660D01*
X988204Y960074D02*
Y962868D01*
Y960074D02*
X1018430Y929848D01*
Y904956D02*
Y929848D01*
X1038750Y962868D02*
X1056784D01*
X1029606Y905464D02*
Y938230D01*
X1019446Y948390D02*
X1029606Y938230D01*
X1019446Y948390D02*
Y962106D01*
X1038242Y951946D02*
X1042560Y947628D01*
Y905464D02*
Y947628D01*
X1056784Y962868D02*
X1058816Y960836D01*
X1048910Y984712D02*
X1060594D01*
X1029225Y983823D02*
Y1000841D01*
Y983823D02*
X1033924Y979124D01*
X1325008Y905718D02*
Y952708D01*
X1310022Y967694D02*
X1325008Y952708D01*
X1258206Y967694D02*
X1310022D01*
X1237378Y988522D02*
X1258206Y967694D01*
X1143906Y988522D02*
X1237378D01*
X1129428Y1003000D02*
X1143906Y988522D01*
X1305450Y936706D02*
X1306212Y937468D01*
X1305450Y905718D02*
Y936706D01*
X1400700Y938992D02*
X1434482Y905210D01*
X1372760Y938992D02*
X1400700D01*
X810404Y1037544D02*
X810658Y1037798D01*
X857394D01*
X981600Y949660D02*
X981854D01*
X1256174Y804118D02*
X1329072D01*
X1256174Y778718D02*
X1329072D01*
X1256174Y791418D02*
X1329072D01*
X700422Y830026D02*
X701184Y830788D01*
X675530Y830026D02*
X700422D01*
X699914Y819104D02*
X700168Y818850D01*
X1003444Y904956D02*
Y927816D01*
X981600Y949660D02*
X1003444Y927816D01*
X1140096Y885652D02*
Y928832D01*
X1132730Y936198D02*
X1140096Y928832D01*
X1069738Y936198D02*
X1132730D01*
X1152288Y886668D02*
Y934166D01*
X1142636Y943818D02*
X1152288Y934166D01*
X1075834Y943818D02*
X1142636D01*
X1058562Y947374D02*
X1069738Y936198D01*
X1058816Y960836D02*
X1075834Y943818D01*
X1145938Y954232D02*
X1169814Y930356D01*
X1078374Y954232D02*
X1145938D01*
X1169814Y834344D02*
Y930356D01*
X1164988Y829518D02*
X1169814Y834344D01*
X1060086Y972520D02*
X1078374Y954232D01*
X1040528Y972520D02*
X1060086D01*
X1033924Y979124D02*
X1040528Y972520D01*
X1178450Y817072D02*
X1178704Y817326D01*
Y936452D01*
X1152034Y963122D02*
X1178704Y936452D01*
X1082184Y963122D02*
X1152034D01*
X1060594Y984712D02*
X1082184Y963122D01*
X1140096Y885652D02*
X1140604Y885144D01*
X1198516Y908766D02*
Y952454D01*
X1179466Y971504D02*
X1198516Y952454D01*
X1121046Y971504D02*
X1179466D01*
X1208168Y907750D02*
X1208676Y907242D01*
X1208168Y907750D02*
Y958296D01*
X1219344Y907242D02*
X1219598Y906988D01*
X1219344Y907242D02*
Y950676D01*
X1315610Y906226D02*
Y949660D01*
X1310530Y954740D02*
X1315610Y949660D01*
X1274970Y954740D02*
X1310530D01*
X1295798Y897082D02*
X1297068Y895812D01*
X1295798Y897082D02*
Y937976D01*
X670704Y777702D02*
X675022Y782020D01*
X670704Y753318D02*
Y777702D01*
X662322Y623524D02*
Y653496D01*
Y621238D02*
Y623524D01*
Y621238D02*
X664608Y618952D01*
X661814Y621746D02*
X662322Y621238D01*
X675276Y623524D02*
Y624540D01*
X675530Y624794D01*
X772558Y565866D02*
X805832D01*
X805578Y565612D02*
X805832Y565866D01*
D55*
X898812Y988252D02*
X917846Y969218D01*
X882286Y988252D02*
X898812D01*
X917846Y896066D02*
Y969218D01*
X869078Y970742D02*
X869586Y971250D01*
X856124Y969980D02*
X857394Y971250D01*
X856124Y935182D02*
X856886Y934420D01*
X925466Y901146D02*
Y971758D01*
X897780Y999444D02*
X925466Y971758D01*
X847234Y999444D02*
X897780D01*
X925466Y901146D02*
X1022494Y804118D01*
X856124Y935182D02*
Y969980D01*
X756556Y737062D02*
X818532D01*
X752746Y740872D02*
X756556Y737062D01*
X746396Y740872D02*
X752746D01*
X881778Y970742D02*
X882286Y971250D01*
X881778Y933912D02*
Y970742D01*
X869078Y933912D02*
Y970742D01*
X897526Y903686D02*
Y971250D01*
Y903686D02*
X1022494Y778718D01*
X1101234Y804880D02*
X1173624D01*
X1174386Y804118D01*
X1101234Y779480D02*
X1173624D01*
X1174386Y778718D01*
X1101234Y792180D02*
X1173624D01*
X1174386Y791418D01*
X917846Y896066D02*
X1022494Y791418D01*
X856378Y771606D02*
Y890732D01*
Y602442D02*
Y681182D01*
X869078Y771606D02*
Y890732D01*
Y602442D02*
Y681182D01*
X881778Y771606D02*
Y890732D01*
Y602442D02*
Y681182D01*
X856378Y933912D02*
X856886Y934420D01*
X747920Y729188D02*
X826152D01*
X745380Y731728D02*
X747920Y729188D01*
X826152D02*
X830978Y734014D01*
X745380Y722330D02*
X843932D01*
D57*
X1076024Y682516D02*
X1079800D01*
X1045790Y712750D02*
X1076024Y682516D01*
X969844Y712750D02*
X1045790D01*
D59*
X1421750Y427500D02*
D03*
X650384Y428452D02*
D03*
X1421500Y1023500D02*
D03*
X650500Y1023500D02*
D03*
D60*
X1156000Y657116D02*
D03*
Y682516D02*
D03*
X1130600D02*
D03*
Y657116D02*
D03*
X1105200D02*
D03*
Y682516D02*
D03*
X1079800D02*
D03*
Y657116D02*
D03*
X1054400D02*
D03*
Y682516D02*
D03*
X1029000D02*
D03*
Y657116D02*
D03*
X1415940Y967948D02*
D03*
X1390540D02*
D03*
D61*
X1365004Y722454D02*
D03*
D62*
Y697054D02*
D03*
D63*
X649250Y812402D02*
D03*
Y792336D02*
D03*
Y752204D02*
D03*
Y772270D02*
D03*
Y732138D02*
D03*
Y712072D02*
D03*
X648996Y671940D02*
D03*
Y692006D02*
D03*
X649250Y651874D02*
D03*
Y631808D02*
D03*
Y612250D02*
D03*
X629438D02*
D03*
Y631808D02*
D03*
Y651874D02*
D03*
X629184Y692006D02*
D03*
Y671940D02*
D03*
X629438Y712072D02*
D03*
Y732138D02*
D03*
Y772270D02*
D03*
Y752204D02*
D03*
Y792336D02*
D03*
Y812402D02*
D03*
X1179152Y1016750D02*
D03*
X1159086D02*
D03*
X1118954D02*
D03*
X1139020D02*
D03*
X1098888D02*
D03*
X1078822D02*
D03*
X1038690Y1017004D02*
D03*
X1058756D02*
D03*
X1018624Y1016750D02*
D03*
X998558D02*
D03*
X979000D02*
D03*
Y1036562D02*
D03*
X998558D02*
D03*
X1018624D02*
D03*
X1058756Y1036816D02*
D03*
X1038690D02*
D03*
X1078822Y1036562D02*
D03*
X1098888D02*
D03*
X1139020D02*
D03*
X1118954D02*
D03*
X1159086D02*
D03*
X1179152D02*
D03*
D64*
X994500Y527000D02*
D03*
X1058000Y526500D02*
D03*
Y510000D02*
D03*
X994500D02*
D03*
X974000Y730750D02*
D03*
Y693500D02*
D03*
X990500Y730750D02*
D03*
Y693500D02*
D03*
X1007500D02*
D03*
Y730750D02*
D03*
X1038875Y567000D02*
D03*
Y588875D02*
D03*
X947250Y555250D02*
D03*
X913750Y554750D02*
D03*
X947250Y577500D02*
D03*
X913750D02*
D03*
X947250Y599500D02*
D03*
X913750Y601500D02*
D03*
X994500Y619000D02*
D03*
X1319250Y674000D02*
D03*
X1186250Y598500D02*
D03*
X1250000Y657250D02*
D03*
X1275250D02*
D03*
X1210250Y679000D02*
D03*
X1425500Y761500D02*
D03*
X1376250D02*
D03*
X1379000Y747500D02*
D03*
X1412250Y746750D02*
D03*
X1110000Y709750D02*
D03*
X933250Y505500D02*
D03*
X933500Y543250D02*
D03*
X1260750Y492000D02*
D03*
X762500Y604250D02*
D03*
X763750Y777750D02*
D03*
X760750Y942750D02*
D03*
X1102250Y889250D02*
D03*
X1262500Y889750D02*
D03*
X1421750Y888500D02*
D03*
X1379500Y999500D02*
D03*
X1187000Y559000D02*
D03*
X1186500Y579500D02*
D03*
X1186750Y640250D02*
D03*
X1110000Y738000D02*
D03*
X898100Y487750D02*
D03*
X898800Y661500D02*
D03*
X1297812Y761610D02*
D03*
X1140586Y762372D02*
D03*
X980566Y762118D02*
D03*
X898500Y822750D02*
D03*
D65*
X1436500Y887250D02*
D03*
X1331250Y974000D02*
D03*
X1341626Y974250D02*
D03*
X691500Y792250D02*
D03*
X687500Y760750D02*
D03*
X673750Y640750D02*
D03*
X635906Y576534D02*
D03*
X683785Y564469D02*
D03*
X742586Y672800D02*
D03*
X770526Y692612D02*
D03*
Y682706D02*
D03*
X856378Y971250D02*
D03*
X847234Y999444D02*
D03*
X1187086Y907496D02*
D03*
X968646Y962868D02*
D03*
X1038750D02*
D03*
X988204D02*
D03*
X1019446D02*
D03*
X1038242Y951946D02*
D03*
X1048910Y984712D02*
D03*
X1029225Y1000841D02*
D03*
X1278780Y977600D02*
D03*
X882286Y988252D02*
D03*
X897526Y971250D02*
D03*
X810404Y1037544D02*
D03*
X857394Y1037798D02*
D03*
X1329072Y804118D02*
D03*
X1256174D02*
D03*
X1101234Y804880D02*
D03*
X1174386Y804118D02*
D03*
X1329072Y778718D02*
D03*
X1256174D02*
D03*
X1101234Y779480D02*
D03*
X1174386Y778718D02*
D03*
X1329072Y791418D02*
D03*
X1256174D02*
D03*
X1101234Y792180D02*
D03*
X1174386Y791418D02*
D03*
X1022494Y804118D02*
D03*
Y778718D02*
D03*
Y791418D02*
D03*
X856378Y890732D02*
D03*
Y771606D02*
D03*
Y681182D02*
D03*
Y602442D02*
D03*
X869078Y890732D02*
D03*
Y771606D02*
D03*
Y681182D02*
D03*
Y602442D02*
D03*
X881778Y890732D02*
D03*
Y771606D02*
D03*
Y681182D02*
D03*
Y602442D02*
D03*
X869332Y971250D02*
D03*
X882286D02*
D03*
X881778Y933912D02*
D03*
X856378D02*
D03*
X869078D02*
D03*
X892954Y804880D02*
D03*
X911750Y463250D02*
D03*
X912004Y633938D02*
D03*
X745380Y740872D02*
D03*
Y731728D02*
D03*
X818532Y737062D02*
D03*
X701184Y842726D02*
D03*
X675530Y841456D02*
D03*
X701184Y830788D02*
D03*
X675530Y830026D02*
D03*
X701184Y818850D02*
D03*
X675530Y819104D02*
D03*
X1003444Y904956D02*
D03*
X979568D02*
D03*
X979822Y928832D02*
D03*
X1018430Y904956D02*
D03*
X1029606D02*
D03*
X1042560D02*
D03*
X1052720Y929848D02*
D03*
X1053482Y904956D02*
D03*
X1058562Y947374D02*
D03*
X1164988Y829518D02*
D03*
X1178450Y817072D02*
D03*
X1152288Y886668D02*
D03*
X1140096Y885652D02*
D03*
X1187086Y932642D02*
D03*
X1197754Y907242D02*
D03*
X1121046Y971504D02*
D03*
X1208676Y907242D02*
D03*
X1208168Y958296D02*
D03*
X1219598Y907242D02*
D03*
X1219344Y950676D02*
D03*
X1305450Y905718D02*
D03*
X1306212Y937468D02*
D03*
X1304434Y978108D02*
D03*
X1315102Y905718D02*
D03*
X1274970Y954740D02*
D03*
X1325008Y905718D02*
D03*
X1334914D02*
D03*
X1129428Y1003000D02*
D03*
X1345582Y905718D02*
D03*
X1360822D02*
D03*
X1339740Y1016462D02*
D03*
X1372760Y938992D02*
D03*
X1297068Y895812D02*
D03*
X1295798Y937976D02*
D03*
X675022Y782020D02*
D03*
X670704Y753318D02*
D03*
X843932Y722330D02*
D03*
X745380D02*
D03*
X742586Y683722D02*
D03*
X662322Y623524D02*
D03*
X675276D02*
D03*
X772558Y565866D02*
D03*
X662322Y653496D02*
D03*
X665878Y594568D02*
D03*
X639208Y594822D02*
D03*
X830978Y734014D02*
D03*
X805832Y565866D02*
D03*
D66*
X892954Y789640D02*
X969844Y712750D01*
X892954Y789640D02*
Y803864D01*
M02*
