G04*
G04 #@! TF.GenerationSoftware,Altium Limited,Altium Designer,18.1.11 (251)*
G04*
G04 Layer_Color=8388736*
%FSLAX25Y25*%
%MOIN*%
G70*
G01*
G75*
%ADD32R,0.03162X0.03162*%
%ADD33C,0.04737*%
%ADD34R,0.04540X0.04934*%
%ADD35R,0.03950X0.05524*%
%ADD36R,0.05918X0.09265*%
%ADD37R,0.06902X0.05524*%
%ADD38R,0.05524X0.06902*%
%ADD39R,0.03950X0.03950*%
%ADD40O,0.02965X0.07493*%
%ADD41O,0.07493X0.02965*%
%ADD42R,0.15761X0.07887*%
%ADD43R,0.10642X0.04737*%
%ADD44R,0.04934X0.04737*%
%ADD45R,0.04343X0.04147*%
%ADD46R,0.04147X0.04343*%
%ADD47C,0.17335*%
%ADD48C,0.06312*%
%ADD49C,0.05918*%
%ADD50C,0.05131*%
%ADD51C,0.06706*%
%ADD52C,0.07099*%
%ADD53R,0.07099X0.07099*%
D32*
X367421Y205061D02*
D03*
Y208661D02*
D03*
D33*
X372047Y383169D02*
D03*
X568504Y381201D02*
D03*
D34*
X311909Y240945D02*
D03*
X306201D02*
D03*
X423130Y353740D02*
D03*
X428839D02*
D03*
X312008Y309252D02*
D03*
X306299D02*
D03*
X486024Y353740D02*
D03*
X491732D02*
D03*
X311516Y374409D02*
D03*
X305807D02*
D03*
X547933Y353740D02*
D03*
X553642D02*
D03*
D35*
X346831Y401039D02*
D03*
X341931D02*
D03*
X337031D02*
D03*
D36*
X354331Y410039D02*
D03*
X329131D02*
D03*
D37*
X322244Y176181D02*
D03*
Y182874D02*
D03*
X322342Y243209D02*
D03*
Y249902D02*
D03*
X439468Y337992D02*
D03*
Y331299D02*
D03*
X322342Y309941D02*
D03*
Y316634D02*
D03*
X502559Y338090D02*
D03*
Y331398D02*
D03*
D38*
X367323Y331004D02*
D03*
X374016D02*
D03*
D39*
X507087Y272248D02*
D03*
Y265748D02*
D03*
X497539Y272248D02*
D03*
Y265748D02*
D03*
X487500Y272248D02*
D03*
Y265748D02*
D03*
X532874Y387299D02*
D03*
Y393799D02*
D03*
D40*
X312047Y192028D02*
D03*
X317047D02*
D03*
X322047D02*
D03*
X327047D02*
D03*
X332047D02*
D03*
X337047D02*
D03*
X342047D02*
D03*
X347047D02*
D03*
X312047Y228642D02*
D03*
X317047D02*
D03*
X322047D02*
D03*
X327047D02*
D03*
X332047D02*
D03*
X337047D02*
D03*
X342047D02*
D03*
X347047D02*
D03*
X312323Y260433D02*
D03*
X317323D02*
D03*
X322323D02*
D03*
X327323D02*
D03*
X332323D02*
D03*
X337323D02*
D03*
X342323D02*
D03*
X347323D02*
D03*
X312323Y297047D02*
D03*
X317323D02*
D03*
X322323D02*
D03*
X327323D02*
D03*
X332323D02*
D03*
X337323D02*
D03*
X342323D02*
D03*
X347323D02*
D03*
X312205Y323917D02*
D03*
X317205D02*
D03*
X322205D02*
D03*
X327205D02*
D03*
X332205D02*
D03*
X337205D02*
D03*
X342205D02*
D03*
X347205D02*
D03*
X312205Y360531D02*
D03*
X317205D02*
D03*
X322205D02*
D03*
X327205D02*
D03*
X332205D02*
D03*
X337205D02*
D03*
X342205D02*
D03*
X347205D02*
D03*
D41*
X386050Y341582D02*
D03*
Y336582D02*
D03*
Y331582D02*
D03*
Y326582D02*
D03*
Y321582D02*
D03*
Y316582D02*
D03*
Y311582D02*
D03*
Y306582D02*
D03*
X422664Y341582D02*
D03*
Y336582D02*
D03*
Y331582D02*
D03*
Y326582D02*
D03*
Y321582D02*
D03*
Y316582D02*
D03*
Y311582D02*
D03*
Y306582D02*
D03*
X449050Y341682D02*
D03*
Y336682D02*
D03*
Y331682D02*
D03*
Y326682D02*
D03*
Y321682D02*
D03*
Y316682D02*
D03*
Y311682D02*
D03*
Y306682D02*
D03*
X485664Y341682D02*
D03*
Y336682D02*
D03*
Y331682D02*
D03*
Y326682D02*
D03*
Y321682D02*
D03*
Y316682D02*
D03*
Y311682D02*
D03*
Y306682D02*
D03*
X510950Y341382D02*
D03*
Y336382D02*
D03*
Y331382D02*
D03*
Y326382D02*
D03*
Y321382D02*
D03*
Y316382D02*
D03*
Y311382D02*
D03*
Y306382D02*
D03*
X547564Y341382D02*
D03*
Y336382D02*
D03*
Y331382D02*
D03*
Y326382D02*
D03*
Y321382D02*
D03*
Y316382D02*
D03*
Y311382D02*
D03*
Y306382D02*
D03*
D42*
X563644Y250523D02*
D03*
Y192023D02*
D03*
D43*
X547244Y241023D02*
D03*
Y233123D02*
D03*
Y225223D02*
D03*
Y217323D02*
D03*
Y209423D02*
D03*
Y201523D02*
D03*
D44*
X306201Y234842D02*
D03*
X312106D02*
D03*
X428937Y346850D02*
D03*
X423032D02*
D03*
X306299Y303051D02*
D03*
X312205D02*
D03*
X491929Y346850D02*
D03*
X486024D02*
D03*
X305807Y367815D02*
D03*
X311713D02*
D03*
X553642Y346850D02*
D03*
X547736D02*
D03*
D45*
X507087Y284252D02*
D03*
Y278150D02*
D03*
X497539Y284252D02*
D03*
Y278150D02*
D03*
X487500Y284350D02*
D03*
Y278248D02*
D03*
D46*
X532874Y381201D02*
D03*
X538976D02*
D03*
D47*
X256398Y400484D02*
D03*
X561516Y400483D02*
D03*
X256398Y170971D02*
D03*
X561516Y170971D02*
D03*
D48*
X308557Y408482D02*
D03*
X298557D02*
D03*
X288557D02*
D03*
D49*
X405571Y259101D02*
D03*
Y269101D02*
D03*
X415571D02*
D03*
Y259101D02*
D03*
X425571D02*
D03*
Y269101D02*
D03*
X435571D02*
D03*
Y259101D02*
D03*
X445571D02*
D03*
Y269101D02*
D03*
X455571D02*
D03*
Y259101D02*
D03*
D50*
X464233Y400295D02*
D03*
X456333D02*
D03*
X440533D02*
D03*
X448433D02*
D03*
X432633D02*
D03*
X424733D02*
D03*
X408933Y400395D02*
D03*
X416833D02*
D03*
X401033Y400295D02*
D03*
X393133D02*
D03*
X385433D02*
D03*
Y408095D02*
D03*
X393133D02*
D03*
X401033D02*
D03*
X416833Y408195D02*
D03*
X408933D02*
D03*
X424733Y408095D02*
D03*
X432633D02*
D03*
X448433D02*
D03*
X440533D02*
D03*
X456333D02*
D03*
X464233D02*
D03*
X247810Y319843D02*
D03*
Y311943D02*
D03*
Y296143D02*
D03*
Y304043D02*
D03*
Y288243D02*
D03*
Y280343D02*
D03*
X247710Y264543D02*
D03*
Y272443D02*
D03*
X247810Y256643D02*
D03*
Y248743D02*
D03*
Y241043D02*
D03*
X255610D02*
D03*
Y248743D02*
D03*
Y256643D02*
D03*
X255510Y272443D02*
D03*
Y264543D02*
D03*
X255610Y280343D02*
D03*
Y288243D02*
D03*
Y304043D02*
D03*
Y296143D02*
D03*
Y311943D02*
D03*
Y319843D02*
D03*
D51*
X547512Y381015D02*
D03*
X557512D02*
D03*
D52*
X537403Y274431D02*
D03*
D53*
Y284431D02*
D03*
M02*
