G04*
G04 #@! TF.GenerationSoftware,Altium Limited,Altium Designer,19.1.8 (144)*
G04*
G04 Layer_Color=8421504*
%FSLAX25Y25*%
%MOIN*%
G70*
G01*
G75*
%ADD16R,0.03347X0.03543*%
%ADD17R,0.03543X0.03347*%
%ADD18R,0.04134X0.03937*%
%ADD19R,0.09843X0.03937*%
%ADD20R,0.14961X0.07087*%
%ADD21O,0.06693X0.02165*%
%ADD22O,0.02165X0.06693*%
%ADD23R,0.03150X0.03150*%
%ADD24R,0.03150X0.03150*%
%ADD25R,0.06102X0.04724*%
%ADD26R,0.04724X0.06102*%
%ADD27R,0.05118X0.08465*%
%ADD28R,0.03150X0.04724*%
%ADD29R,0.03740X0.04134*%
%ADD30C,0.03937*%
D16*
X538976Y381201D02*
D03*
X532874D02*
D03*
X384350Y218996D02*
D03*
X378248D02*
D03*
X384350Y227461D02*
D03*
X378248D02*
D03*
X384350Y236221D02*
D03*
X378248D02*
D03*
D17*
X487500Y278248D02*
D03*
Y284350D02*
D03*
X497539Y278150D02*
D03*
Y284252D02*
D03*
X507087Y278150D02*
D03*
Y284252D02*
D03*
D18*
X547736Y346850D02*
D03*
X553642D02*
D03*
X311713Y367815D02*
D03*
X305807D02*
D03*
X486024Y346850D02*
D03*
X491929D02*
D03*
X312205Y303051D02*
D03*
X306299D02*
D03*
X423032Y346850D02*
D03*
X428937D02*
D03*
X312106Y234842D02*
D03*
X306201D02*
D03*
D19*
X547244Y201523D02*
D03*
Y209423D02*
D03*
Y217323D02*
D03*
Y225223D02*
D03*
Y233123D02*
D03*
Y241023D02*
D03*
D20*
X563644Y192023D02*
D03*
Y250523D02*
D03*
D21*
X547564Y306382D02*
D03*
Y311382D02*
D03*
Y316382D02*
D03*
Y321382D02*
D03*
Y326382D02*
D03*
Y331382D02*
D03*
Y336382D02*
D03*
Y341382D02*
D03*
X510950Y306382D02*
D03*
Y311382D02*
D03*
Y316382D02*
D03*
Y321382D02*
D03*
Y326382D02*
D03*
Y331382D02*
D03*
Y336382D02*
D03*
Y341382D02*
D03*
X485664Y306682D02*
D03*
Y311682D02*
D03*
Y316682D02*
D03*
Y321682D02*
D03*
Y326682D02*
D03*
Y331682D02*
D03*
Y336682D02*
D03*
Y341682D02*
D03*
X449050Y306682D02*
D03*
Y311682D02*
D03*
Y316682D02*
D03*
Y321682D02*
D03*
Y326682D02*
D03*
Y331682D02*
D03*
Y336682D02*
D03*
Y341682D02*
D03*
X422664Y306582D02*
D03*
Y311582D02*
D03*
Y316582D02*
D03*
Y321582D02*
D03*
Y326582D02*
D03*
Y331582D02*
D03*
Y336582D02*
D03*
Y341582D02*
D03*
X386050Y306582D02*
D03*
Y311582D02*
D03*
Y316582D02*
D03*
Y321582D02*
D03*
Y326582D02*
D03*
Y331582D02*
D03*
Y336582D02*
D03*
Y341582D02*
D03*
D22*
X347205Y360531D02*
D03*
X342205D02*
D03*
X337205D02*
D03*
X332205D02*
D03*
X327205D02*
D03*
X322205D02*
D03*
X317205D02*
D03*
X312205D02*
D03*
X347205Y323917D02*
D03*
X342205D02*
D03*
X337205D02*
D03*
X332205D02*
D03*
X327205D02*
D03*
X322205D02*
D03*
X317205D02*
D03*
X312205D02*
D03*
X347323Y297047D02*
D03*
X342323D02*
D03*
X337323D02*
D03*
X332323D02*
D03*
X327323D02*
D03*
X322323D02*
D03*
X317323D02*
D03*
X312323D02*
D03*
X347323Y260433D02*
D03*
X342323D02*
D03*
X337323D02*
D03*
X332323D02*
D03*
X327323D02*
D03*
X322323D02*
D03*
X317323D02*
D03*
X312323D02*
D03*
X347047Y228642D02*
D03*
X342047D02*
D03*
X337047D02*
D03*
X332047D02*
D03*
X327047D02*
D03*
X322047D02*
D03*
X317047D02*
D03*
X312047D02*
D03*
X347047Y192028D02*
D03*
X342047D02*
D03*
X337047D02*
D03*
X332047D02*
D03*
X327047D02*
D03*
X322047D02*
D03*
X317047D02*
D03*
X312047D02*
D03*
D23*
X532874Y393799D02*
D03*
Y387299D02*
D03*
X487500Y265748D02*
D03*
Y272248D02*
D03*
X497539Y265748D02*
D03*
Y272248D02*
D03*
X507087Y265748D02*
D03*
Y272248D02*
D03*
D24*
X404134Y218996D02*
D03*
X397634D02*
D03*
X404134Y227461D02*
D03*
X397634D02*
D03*
X404134Y236221D02*
D03*
X397634D02*
D03*
D25*
X502559Y331398D02*
D03*
Y338090D02*
D03*
X322342Y316634D02*
D03*
Y309941D02*
D03*
X439468Y331299D02*
D03*
Y337992D02*
D03*
X322342Y249902D02*
D03*
Y243209D02*
D03*
X322244Y182874D02*
D03*
Y176181D02*
D03*
D26*
X374016Y331004D02*
D03*
X367323D02*
D03*
D27*
X329131Y410039D02*
D03*
X354331D02*
D03*
D28*
X337031Y401039D02*
D03*
X341931D02*
D03*
X346831D02*
D03*
D29*
X553642Y353740D02*
D03*
X547933D02*
D03*
X305807Y374409D02*
D03*
X311516D02*
D03*
X491732Y353740D02*
D03*
X486024D02*
D03*
X306299Y309252D02*
D03*
X312008D02*
D03*
X428839Y353740D02*
D03*
X423130D02*
D03*
X306201Y240945D02*
D03*
X311909D02*
D03*
D30*
X568504Y381201D02*
D03*
X374657Y380082D02*
D03*
M02*
