G04*
G04 #@! TF.GenerationSoftware,Altium Limited,Altium Designer,19.1.8 (144)*
G04*
G04 Layer_Color=8388736*
%FSLAX44Y44*%
%MOMM*%
G71*
G01*
G75*
%ADD31R,1.0532X1.1032*%
%ADD32R,1.1032X1.0532*%
%ADD33R,1.2532X1.2032*%
%ADD34R,2.7032X1.2032*%
%ADD35R,4.0032X2.0032*%
%ADD36O,1.9032X0.7532*%
%ADD37O,0.7532X1.9032*%
%ADD38R,1.0032X1.0032*%
%ADD39R,1.0032X1.0032*%
%ADD40R,1.7532X1.4032*%
%ADD41R,1.4032X1.7532*%
%ADD42R,1.5032X2.3532*%
%ADD43R,1.0032X1.4032*%
%ADD44R,1.1532X1.2532*%
%ADD45C,1.2032*%
%ADD46C,4.4032*%
%ADD47C,1.3032*%
%ADD48R,1.8032X1.8032*%
%ADD49C,1.8032*%
%ADD50C,1.0668*%
D31*
X1369000Y968250D02*
D03*
X1353500D02*
D03*
X976250Y556250D02*
D03*
X960750D02*
D03*
X976250Y577750D02*
D03*
X960750D02*
D03*
X976250Y600000D02*
D03*
X960750D02*
D03*
D32*
X1238250Y706750D02*
D03*
Y722250D02*
D03*
X1263750Y706500D02*
D03*
Y722000D02*
D03*
X1288000Y706500D02*
D03*
Y722000D02*
D03*
D33*
X1391250Y881000D02*
D03*
X1406250D02*
D03*
X791750Y934250D02*
D03*
X776750D02*
D03*
X1234500Y881000D02*
D03*
X1249500D02*
D03*
X793000Y769750D02*
D03*
X778000D02*
D03*
X1074500Y881000D02*
D03*
X1089500D02*
D03*
X792750Y596500D02*
D03*
X777750D02*
D03*
D34*
X1390000Y511868D02*
D03*
Y531934D02*
D03*
Y552000D02*
D03*
Y572066D02*
D03*
Y592132D02*
D03*
Y612198D02*
D03*
D35*
X1431656Y487738D02*
D03*
Y636328D02*
D03*
D36*
X1390812Y778210D02*
D03*
Y790910D02*
D03*
Y803610D02*
D03*
Y816310D02*
D03*
Y829010D02*
D03*
Y841710D02*
D03*
Y854410D02*
D03*
Y867110D02*
D03*
X1297812Y778210D02*
D03*
Y790910D02*
D03*
Y803610D02*
D03*
Y816310D02*
D03*
Y829010D02*
D03*
Y841710D02*
D03*
Y854410D02*
D03*
Y867110D02*
D03*
X1233586Y778972D02*
D03*
Y791672D02*
D03*
Y804372D02*
D03*
Y817072D02*
D03*
Y829772D02*
D03*
Y842472D02*
D03*
Y855172D02*
D03*
Y867872D02*
D03*
X1140586Y778972D02*
D03*
Y791672D02*
D03*
Y804372D02*
D03*
Y817072D02*
D03*
Y829772D02*
D03*
Y842472D02*
D03*
Y855172D02*
D03*
Y867872D02*
D03*
X1073566Y778718D02*
D03*
Y791418D02*
D03*
Y804118D02*
D03*
Y816818D02*
D03*
Y829518D02*
D03*
Y842218D02*
D03*
Y854918D02*
D03*
Y867618D02*
D03*
X980566Y778718D02*
D03*
Y791418D02*
D03*
Y804118D02*
D03*
Y816818D02*
D03*
Y829518D02*
D03*
Y842218D02*
D03*
Y854918D02*
D03*
Y867618D02*
D03*
D37*
X881900Y915750D02*
D03*
X869200D02*
D03*
X856500D02*
D03*
X843800D02*
D03*
X831100D02*
D03*
X818400D02*
D03*
X805700D02*
D03*
X793000D02*
D03*
X881900Y822750D02*
D03*
X869200D02*
D03*
X856500D02*
D03*
X843800D02*
D03*
X831100D02*
D03*
X818400D02*
D03*
X805700D02*
D03*
X793000D02*
D03*
X882200Y754500D02*
D03*
X869500D02*
D03*
X856800D02*
D03*
X844100D02*
D03*
X831400D02*
D03*
X818700D02*
D03*
X806000D02*
D03*
X793300D02*
D03*
X882200Y661500D02*
D03*
X869500D02*
D03*
X856800D02*
D03*
X844100D02*
D03*
X831400D02*
D03*
X818700D02*
D03*
X806000D02*
D03*
X793300D02*
D03*
X881500Y580750D02*
D03*
X868800D02*
D03*
X856100D02*
D03*
X843400D02*
D03*
X830700D02*
D03*
X818000D02*
D03*
X805300D02*
D03*
X792600D02*
D03*
X881500Y487750D02*
D03*
X868800D02*
D03*
X856100D02*
D03*
X843400D02*
D03*
X830700D02*
D03*
X818000D02*
D03*
X805300D02*
D03*
X792600D02*
D03*
D38*
X1353500Y1000250D02*
D03*
Y983740D02*
D03*
X1238250Y675000D02*
D03*
Y691510D02*
D03*
X1263750Y675000D02*
D03*
Y691510D02*
D03*
X1288000Y675000D02*
D03*
Y691510D02*
D03*
D39*
X1026500Y556250D02*
D03*
X1009990D02*
D03*
X1026500Y577750D02*
D03*
X1009990D02*
D03*
X1026500Y600000D02*
D03*
X1009990D02*
D03*
D40*
X1276500Y841750D02*
D03*
Y858750D02*
D03*
X818750Y804250D02*
D03*
Y787250D02*
D03*
X1116250Y841500D02*
D03*
Y858500D02*
D03*
X818750Y634750D02*
D03*
Y617750D02*
D03*
X818500Y464500D02*
D03*
Y447500D02*
D03*
D41*
X950000Y840750D02*
D03*
X933000D02*
D03*
D42*
X835992Y1041500D02*
D03*
X900000D02*
D03*
D43*
X856058Y1018640D02*
D03*
X868504D02*
D03*
X880950D02*
D03*
D44*
X1406250Y898500D02*
D03*
X1391750D02*
D03*
X776750Y951000D02*
D03*
X791250D02*
D03*
X1249000Y898500D02*
D03*
X1234500D02*
D03*
X778000Y785500D02*
D03*
X792500D02*
D03*
X1089250Y898500D02*
D03*
X1074750D02*
D03*
X777750Y612000D02*
D03*
X792250D02*
D03*
D45*
X1444000Y968250D02*
D03*
X951628Y965408D02*
D03*
X731950Y1037000D02*
D03*
X757350D02*
D03*
X782750D02*
D03*
D46*
X1421750Y427500D02*
D03*
X650384Y428452D02*
D03*
X1421500Y1023500D02*
D03*
X650500Y1023500D02*
D03*
D47*
X1156000Y657116D02*
D03*
Y682516D02*
D03*
X1130600D02*
D03*
Y657116D02*
D03*
X1105200D02*
D03*
Y682516D02*
D03*
X1079800D02*
D03*
Y657116D02*
D03*
X1054400D02*
D03*
Y682516D02*
D03*
X1029000D02*
D03*
Y657116D02*
D03*
X1415940Y967948D02*
D03*
X1390540D02*
D03*
D48*
X1365004Y722454D02*
D03*
D49*
Y697054D02*
D03*
D50*
X649250Y812402D02*
D03*
Y792336D02*
D03*
Y752204D02*
D03*
Y772270D02*
D03*
Y732138D02*
D03*
Y712072D02*
D03*
X648996Y671940D02*
D03*
Y692006D02*
D03*
X649250Y651874D02*
D03*
Y631808D02*
D03*
Y612250D02*
D03*
X629438D02*
D03*
Y631808D02*
D03*
Y651874D02*
D03*
X629184Y692006D02*
D03*
Y671940D02*
D03*
X629438Y712072D02*
D03*
Y732138D02*
D03*
Y772270D02*
D03*
Y752204D02*
D03*
Y792336D02*
D03*
Y812402D02*
D03*
X1179152Y1016750D02*
D03*
X1159086D02*
D03*
X1118954D02*
D03*
X1139020D02*
D03*
X1098888D02*
D03*
X1078822D02*
D03*
X1038690Y1017004D02*
D03*
X1058756D02*
D03*
X1018624Y1016750D02*
D03*
X998558D02*
D03*
X979000D02*
D03*
Y1036562D02*
D03*
X998558D02*
D03*
X1018624D02*
D03*
X1058756Y1036816D02*
D03*
X1038690D02*
D03*
X1078822Y1036562D02*
D03*
X1098888D02*
D03*
X1139020D02*
D03*
X1118954D02*
D03*
X1159086D02*
D03*
X1179152D02*
D03*
M02*
