G04*
G04 #@! TF.GenerationSoftware,Altium Limited,Altium Designer,19.1.8 (144)*
G04*
G04 Layer_Color=16711833*
%FSLAX44Y44*%
%MOMM*%
G71*
G01*
G75*
%ADD45C,1.2032*%
%ADD46C,4.4032*%
%ADD47C,1.3032*%
%ADD48R,1.8032X1.8032*%
%ADD49C,1.8032*%
%ADD50C,1.0668*%
%ADD67C,1.1032*%
%ADD68C,0.8032*%
D45*
X731950Y1037000D02*
D03*
X757350D02*
D03*
X782750D02*
D03*
D46*
X1421750Y427500D02*
D03*
X650384Y428452D02*
D03*
X1421500Y1023500D02*
D03*
X650500Y1023500D02*
D03*
D47*
X1156000Y657116D02*
D03*
Y682516D02*
D03*
X1130600D02*
D03*
Y657116D02*
D03*
X1105200D02*
D03*
Y682516D02*
D03*
X1079800D02*
D03*
Y657116D02*
D03*
X1054400D02*
D03*
Y682516D02*
D03*
X1029000D02*
D03*
Y657116D02*
D03*
X1415940Y967948D02*
D03*
X1390540D02*
D03*
D48*
X1365004Y722454D02*
D03*
D49*
Y697054D02*
D03*
D50*
X649250Y812402D02*
D03*
Y792336D02*
D03*
Y752204D02*
D03*
Y772270D02*
D03*
Y732138D02*
D03*
Y712072D02*
D03*
X648996Y671940D02*
D03*
Y692006D02*
D03*
X649250Y651874D02*
D03*
Y631808D02*
D03*
Y612250D02*
D03*
X629438D02*
D03*
Y631808D02*
D03*
Y651874D02*
D03*
X629184Y692006D02*
D03*
Y671940D02*
D03*
X629438Y712072D02*
D03*
Y732138D02*
D03*
Y772270D02*
D03*
Y752204D02*
D03*
Y792336D02*
D03*
Y812402D02*
D03*
X1179152Y1016750D02*
D03*
X1159086D02*
D03*
X1118954D02*
D03*
X1139020D02*
D03*
X1098888D02*
D03*
X1078822D02*
D03*
X1038690Y1017004D02*
D03*
X1058756D02*
D03*
X1018624Y1016750D02*
D03*
X998558D02*
D03*
X979000D02*
D03*
Y1036562D02*
D03*
X998558D02*
D03*
X1018624D02*
D03*
X1058756Y1036816D02*
D03*
X1038690D02*
D03*
X1078822Y1036562D02*
D03*
X1098888D02*
D03*
X1139020D02*
D03*
X1118954D02*
D03*
X1159086D02*
D03*
X1179152D02*
D03*
D67*
X994500Y527000D02*
D03*
X1058000Y526500D02*
D03*
Y510000D02*
D03*
X994500D02*
D03*
X974000Y730750D02*
D03*
Y693500D02*
D03*
X990500Y730750D02*
D03*
Y693500D02*
D03*
X1007500D02*
D03*
Y730750D02*
D03*
X1038875Y567000D02*
D03*
Y588875D02*
D03*
X947250Y555250D02*
D03*
X913750Y554750D02*
D03*
X947250Y577500D02*
D03*
X913750D02*
D03*
X947250Y599500D02*
D03*
X913750Y601500D02*
D03*
X994500Y619000D02*
D03*
X1319250Y674000D02*
D03*
X1186250Y598500D02*
D03*
X1250000Y657250D02*
D03*
X1275250D02*
D03*
X1210250Y679000D02*
D03*
X1425500Y761500D02*
D03*
X1376250D02*
D03*
X1379000Y747500D02*
D03*
X1412250Y746750D02*
D03*
X1110000Y709750D02*
D03*
X933250Y505500D02*
D03*
X933500Y543250D02*
D03*
X1260750Y492000D02*
D03*
X762500Y604250D02*
D03*
X763750Y777750D02*
D03*
X760750Y942750D02*
D03*
X1102250Y889250D02*
D03*
X1262500Y889750D02*
D03*
X1421750Y888500D02*
D03*
X1379500Y999500D02*
D03*
X1187000Y559000D02*
D03*
X1186500Y579500D02*
D03*
X1186750Y640250D02*
D03*
X1110000Y738000D02*
D03*
X898100Y487750D02*
D03*
X898800Y661500D02*
D03*
X1297812Y761610D02*
D03*
X1140586Y762372D02*
D03*
X980566Y762118D02*
D03*
X898500Y822750D02*
D03*
D68*
X1436500Y887250D02*
D03*
X1331250Y974000D02*
D03*
X1341626Y974250D02*
D03*
X691500Y792250D02*
D03*
X687500Y760750D02*
D03*
X673750Y640750D02*
D03*
X635906Y576534D02*
D03*
X683785Y564469D02*
D03*
X742586Y672800D02*
D03*
X770526Y692612D02*
D03*
Y682706D02*
D03*
X856378Y971250D02*
D03*
X847234Y999444D02*
D03*
X1187086Y907496D02*
D03*
X968646Y962868D02*
D03*
X1038750D02*
D03*
X988204D02*
D03*
X1019446D02*
D03*
X1038242Y951946D02*
D03*
X1048910Y984712D02*
D03*
X1029225Y1000841D02*
D03*
X1278780Y977600D02*
D03*
X882286Y988252D02*
D03*
X897526Y971250D02*
D03*
X810404Y1037544D02*
D03*
X857394Y1037798D02*
D03*
X1329072Y804118D02*
D03*
X1256174D02*
D03*
X1101234Y804880D02*
D03*
X1174386Y804118D02*
D03*
X1329072Y778718D02*
D03*
X1256174D02*
D03*
X1101234Y779480D02*
D03*
X1174386Y778718D02*
D03*
X1329072Y791418D02*
D03*
X1256174D02*
D03*
X1101234Y792180D02*
D03*
X1174386Y791418D02*
D03*
X1022494Y804118D02*
D03*
Y778718D02*
D03*
Y791418D02*
D03*
X856378Y890732D02*
D03*
Y771606D02*
D03*
Y681182D02*
D03*
Y602442D02*
D03*
X869078Y890732D02*
D03*
Y771606D02*
D03*
Y681182D02*
D03*
Y602442D02*
D03*
X881778Y890732D02*
D03*
Y771606D02*
D03*
Y681182D02*
D03*
Y602442D02*
D03*
X869332Y971250D02*
D03*
X882286D02*
D03*
X881778Y933912D02*
D03*
X856378D02*
D03*
X869078D02*
D03*
X892954Y804880D02*
D03*
X911750Y463250D02*
D03*
X912004Y633938D02*
D03*
X745380Y740872D02*
D03*
Y731728D02*
D03*
X818532Y737062D02*
D03*
X701184Y842726D02*
D03*
X675530Y841456D02*
D03*
X701184Y830788D02*
D03*
X675530Y830026D02*
D03*
X701184Y818850D02*
D03*
X675530Y819104D02*
D03*
X1003444Y904956D02*
D03*
X979568D02*
D03*
X979822Y928832D02*
D03*
X1018430Y904956D02*
D03*
X1029606D02*
D03*
X1042560D02*
D03*
X1052720Y929848D02*
D03*
X1053482Y904956D02*
D03*
X1058562Y947374D02*
D03*
X1164988Y829518D02*
D03*
X1178450Y817072D02*
D03*
X1152288Y886668D02*
D03*
X1140096Y885652D02*
D03*
X1187086Y932642D02*
D03*
X1197754Y907242D02*
D03*
X1121046Y971504D02*
D03*
X1208676Y907242D02*
D03*
X1208168Y958296D02*
D03*
X1219598Y907242D02*
D03*
X1219344Y950676D02*
D03*
X1305450Y905718D02*
D03*
X1306212Y937468D02*
D03*
X1304434Y978108D02*
D03*
X1315102Y905718D02*
D03*
X1274970Y954740D02*
D03*
X1325008Y905718D02*
D03*
X1334914D02*
D03*
X1129428Y1003000D02*
D03*
X1345582Y905718D02*
D03*
X1360822D02*
D03*
X1339740Y1016462D02*
D03*
X1372760Y938992D02*
D03*
X1297068Y895812D02*
D03*
X1295798Y937976D02*
D03*
X675022Y782020D02*
D03*
X670704Y753318D02*
D03*
X843932Y722330D02*
D03*
X745380D02*
D03*
X742586Y683722D02*
D03*
X662322Y623524D02*
D03*
X675276D02*
D03*
X772558Y565866D02*
D03*
X662322Y653496D02*
D03*
X665878Y594568D02*
D03*
X639208Y594822D02*
D03*
X830978Y734014D02*
D03*
X805832Y565866D02*
D03*
M02*
