G04*
G04 #@! TF.GenerationSoftware,Altium Limited,Altium Designer,19.1.8 (144)*
G04*
G04 Layer_Physical_Order=1*
G04 Layer_Color=255*
%FSLAX25Y25*%
%MOIN*%
G70*
G01*
G75*
%ADD12C,0.01000*%
%ADD13C,0.01500*%
%ADD16R,0.03347X0.03543*%
%ADD17R,0.03543X0.03347*%
%ADD18R,0.04134X0.03937*%
%ADD19R,0.09843X0.03937*%
%ADD20R,0.14961X0.07087*%
%ADD21O,0.06693X0.02165*%
%ADD22O,0.02165X0.06693*%
%ADD23R,0.03150X0.03150*%
%ADD24R,0.03150X0.03150*%
%ADD25R,0.06102X0.04724*%
%ADD26R,0.04724X0.06102*%
%ADD27R,0.05118X0.08465*%
%ADD28R,0.03150X0.04724*%
%ADD29R,0.03740X0.04134*%
%ADD30C,0.03937*%
%ADD51C,0.03937*%
%ADD52C,0.02953*%
%ADD53C,0.02000*%
%ADD54C,0.01968*%
%ADD55C,0.01575*%
%ADD56C,0.04921*%
%ADD57C,0.02500*%
%ADD58C,0.02559*%
%ADD59C,0.16535*%
%ADD60C,0.04331*%
%ADD61R,0.06299X0.06299*%
%ADD62C,0.06299*%
%ADD63C,0.03400*%
%ADD64C,0.03543*%
%ADD65C,0.02362*%
D12*
X323806Y248795D02*
X323906Y248695D01*
D13*
X358910Y182428D02*
X358957Y182382D01*
D16*
X538976Y381201D02*
D03*
X532874D02*
D03*
X384350Y218996D02*
D03*
X378248D02*
D03*
X384350Y227461D02*
D03*
X378248D02*
D03*
X384350Y236221D02*
D03*
X378248D02*
D03*
D17*
X487500Y278248D02*
D03*
Y284350D02*
D03*
X497539Y278150D02*
D03*
Y284252D02*
D03*
X507087Y278150D02*
D03*
Y284252D02*
D03*
D18*
X547736Y346850D02*
D03*
X553642D02*
D03*
X311713Y367815D02*
D03*
X305807D02*
D03*
X486024Y346850D02*
D03*
X491929D02*
D03*
X312205Y303051D02*
D03*
X306299D02*
D03*
X423032Y346850D02*
D03*
X428937D02*
D03*
X312106Y234842D02*
D03*
X306201D02*
D03*
D19*
X547244Y201523D02*
D03*
Y209423D02*
D03*
Y217323D02*
D03*
Y225223D02*
D03*
Y233123D02*
D03*
Y241023D02*
D03*
D20*
X563644Y192023D02*
D03*
Y250523D02*
D03*
D21*
X547564Y306382D02*
D03*
Y311382D02*
D03*
Y316382D02*
D03*
Y321382D02*
D03*
Y326382D02*
D03*
Y331382D02*
D03*
Y336382D02*
D03*
Y341382D02*
D03*
X510950Y306382D02*
D03*
Y311382D02*
D03*
Y316382D02*
D03*
Y321382D02*
D03*
Y326382D02*
D03*
Y331382D02*
D03*
Y336382D02*
D03*
Y341382D02*
D03*
X485664Y306682D02*
D03*
Y311682D02*
D03*
Y316682D02*
D03*
Y321682D02*
D03*
Y326682D02*
D03*
Y331682D02*
D03*
Y336682D02*
D03*
Y341682D02*
D03*
X449050Y306682D02*
D03*
Y311682D02*
D03*
Y316682D02*
D03*
Y321682D02*
D03*
Y326682D02*
D03*
Y331682D02*
D03*
Y336682D02*
D03*
Y341682D02*
D03*
X422664Y306582D02*
D03*
Y311582D02*
D03*
Y316582D02*
D03*
Y321582D02*
D03*
Y326582D02*
D03*
Y331582D02*
D03*
Y336582D02*
D03*
Y341582D02*
D03*
X386050Y306582D02*
D03*
Y311582D02*
D03*
Y316582D02*
D03*
Y321582D02*
D03*
Y326582D02*
D03*
Y331582D02*
D03*
Y336582D02*
D03*
Y341582D02*
D03*
D22*
X347205Y360531D02*
D03*
X342205D02*
D03*
X337205D02*
D03*
X332205D02*
D03*
X327205D02*
D03*
X322205D02*
D03*
X317205D02*
D03*
X312205D02*
D03*
X347205Y323917D02*
D03*
X342205D02*
D03*
X337205D02*
D03*
X332205D02*
D03*
X327205D02*
D03*
X322205D02*
D03*
X317205D02*
D03*
X312205D02*
D03*
X347323Y297047D02*
D03*
X342323D02*
D03*
X337323D02*
D03*
X332323D02*
D03*
X327323D02*
D03*
X322323D02*
D03*
X317323D02*
D03*
X312323D02*
D03*
X347323Y260433D02*
D03*
X342323D02*
D03*
X337323D02*
D03*
X332323D02*
D03*
X327323D02*
D03*
X322323D02*
D03*
X317323D02*
D03*
X312323D02*
D03*
X347047Y228642D02*
D03*
X342047D02*
D03*
X337047D02*
D03*
X332047D02*
D03*
X327047D02*
D03*
X322047D02*
D03*
X317047D02*
D03*
X312047D02*
D03*
X347047Y192028D02*
D03*
X342047D02*
D03*
X337047D02*
D03*
X332047D02*
D03*
X327047D02*
D03*
X322047D02*
D03*
X317047D02*
D03*
X312047D02*
D03*
D23*
X532874Y393799D02*
D03*
Y387299D02*
D03*
X487500Y265748D02*
D03*
Y272248D02*
D03*
X497539Y265748D02*
D03*
Y272248D02*
D03*
X507087Y265748D02*
D03*
Y272248D02*
D03*
D24*
X404134Y218996D02*
D03*
X397634D02*
D03*
X404134Y227461D02*
D03*
X397634D02*
D03*
X404134Y236221D02*
D03*
X397634D02*
D03*
D25*
X502559Y331398D02*
D03*
Y338090D02*
D03*
X322342Y316634D02*
D03*
Y309941D02*
D03*
X439468Y331299D02*
D03*
Y337992D02*
D03*
X322342Y249902D02*
D03*
Y243209D02*
D03*
X322244Y182874D02*
D03*
Y176181D02*
D03*
D26*
X374016Y331004D02*
D03*
X367323D02*
D03*
D27*
X329131Y410039D02*
D03*
X354331D02*
D03*
D28*
X337031Y401039D02*
D03*
X341931D02*
D03*
X346831D02*
D03*
D29*
X553642Y353740D02*
D03*
X547933D02*
D03*
X305807Y374409D02*
D03*
X311516D02*
D03*
X491732Y353740D02*
D03*
X486024D02*
D03*
X306299Y309252D02*
D03*
X312008D02*
D03*
X428839Y353740D02*
D03*
X423130D02*
D03*
X306201Y240945D02*
D03*
X311909D02*
D03*
D30*
X568504Y381201D02*
D03*
X374657Y380082D02*
D03*
X288169Y408268D02*
D03*
X298169D02*
D03*
X308169D02*
D03*
D51*
X553642Y350098D02*
X559449D01*
X491732Y350246D02*
X496998D01*
X428937Y350098D02*
X433957D01*
X299557Y371112D02*
X306594D01*
X300738Y306152D02*
X306791D01*
X300197Y237894D02*
X306791D01*
X538976Y381082D02*
X547457D01*
X547557Y353740D02*
Y369882D01*
Y381082D01*
X485764Y341582D02*
Y361789D01*
X547557Y341775D02*
Y353740D01*
X547364Y341582D02*
X547557Y341775D01*
X422664Y341582D02*
Y361075D01*
X367357Y310682D02*
Y356982D01*
X312111Y310682D02*
X367357D01*
X311811Y360935D02*
Y376182D01*
X312157Y296989D02*
Y303051D01*
Y310636D01*
X311811Y241982D02*
X367357D01*
X312157Y228689D02*
Y241636D01*
X322057Y175735D02*
X364510D01*
X367357Y218682D02*
Y241982D01*
Y178582D02*
Y193799D01*
X369457Y374882D02*
X374657Y380082D01*
X369057Y374882D02*
X369457D01*
X322047Y192028D02*
X322244Y191831D01*
Y182874D02*
Y191831D01*
X311811Y241982D02*
X312157Y241636D01*
X367357Y356982D02*
X376707Y366332D01*
X367357Y241982D02*
Y310682D01*
X369057Y374882D02*
X376707Y367232D01*
X366057Y377882D02*
X369057Y374882D01*
X312111Y310682D02*
X312157Y310636D01*
X364510Y175735D02*
X367357Y178582D01*
X502557Y361882D02*
X546757D01*
X485857D02*
X502557D01*
Y338728D02*
Y361882D01*
X439157Y361789D02*
X439457Y361489D01*
Y338282D02*
Y361489D01*
X439157Y361789D02*
X485764D01*
X422364D02*
X439157D01*
X510657Y341675D02*
X510750Y341582D01*
X510657Y341675D02*
Y352682D01*
X376707Y367232D02*
X382357Y361582D01*
X376707Y366332D02*
Y367232D01*
X311811Y376182D02*
X313511Y377882D01*
X366057D01*
X382357Y361582D02*
X422157D01*
X422664Y361075D01*
X422157Y361582D02*
X422364Y361789D01*
X485764D02*
X485857Y361882D01*
D52*
X491732Y346752D02*
Y350246D01*
Y346752D02*
X491929Y346555D01*
X391535Y207283D02*
X416535D01*
X391535Y200787D02*
X416535D01*
X404134Y223228D02*
Y227461D01*
Y218996D02*
Y223228D01*
X396654Y287697D02*
Y287795D01*
Y273130D02*
Y287697D01*
X383465D02*
Y287795D01*
Y273130D02*
Y287697D01*
X389961Y273031D02*
Y287697D01*
X504085Y330561D02*
X504906Y331382D01*
X322057Y182428D02*
X358910D01*
X404134Y223228D02*
X409006D01*
X404134Y231841D02*
Y236221D01*
Y227461D02*
Y231841D01*
X409006D01*
X384350Y218996D02*
X397634D01*
X397634Y227461D02*
X397634Y227461D01*
X384350Y227461D02*
X397634D01*
Y236221D02*
X397634Y236221D01*
X384350Y236221D02*
X397634D01*
X373425Y218996D02*
X378248D01*
X373031Y218602D02*
X373425Y218996D01*
X358268Y217028D02*
X359646Y218406D01*
X351181Y217028D02*
X358268D01*
X351083Y217126D02*
X351181Y217028D01*
X341339Y217126D02*
X351083D01*
X337047Y221417D02*
X341339Y217126D01*
X337047Y221417D02*
Y228642D01*
X378150Y227362D02*
X378248Y227461D01*
X372933Y227362D02*
X378150D01*
X356004D02*
X359744D01*
X350098Y221457D02*
X356004Y227362D01*
X344488Y221457D02*
X350098D01*
X342047Y223898D02*
X344488Y221457D01*
X342047Y223898D02*
Y228642D01*
X378051Y236024D02*
X378248Y236221D01*
X372736Y236024D02*
X378051D01*
X359668Y237182D02*
X360039Y236811D01*
X347157Y237182D02*
X359668D01*
X322257Y249728D02*
X359057D01*
X322323Y249795D02*
Y260433D01*
X394094Y241142D02*
X523721D01*
X391535Y243701D02*
X394094Y241142D01*
X439567Y305492D02*
Y331398D01*
X529429Y251969D02*
X540375Y241023D01*
X483858Y251969D02*
X529429D01*
X456398Y279429D02*
X483858Y251969D01*
X502557Y329033D02*
X504085Y330561D01*
X526575Y246752D02*
X540204Y233123D01*
X472539Y246752D02*
X526575D01*
X467224Y252067D02*
X472539Y246752D01*
X538189Y217323D02*
X547244D01*
X519882Y235630D02*
X538189Y217323D01*
X467028Y235630D02*
X519882D01*
X523721Y241142D02*
X539639Y225223D01*
X502313Y265748D02*
X507087D01*
X497539D02*
X502313D01*
X502067Y265502D02*
X502313Y265748D01*
X502067Y258760D02*
Y265502D01*
X492126Y265354D02*
X492520Y265748D01*
X492126Y258760D02*
Y265354D01*
X420276Y284154D02*
X476378D01*
Y290945D02*
X485630Y300197D01*
X476378Y284154D02*
Y290945D01*
X476476Y267323D02*
Y283263D01*
X561221Y299803D02*
Y308661D01*
X553500Y316382D02*
X561221Y308661D01*
X487500Y284350D02*
Y288484D01*
X492224Y293209D01*
X518799D01*
X525394Y299803D01*
X541831D01*
X547564Y316382D02*
X553500D01*
X497539Y284252D02*
X497736Y284449D01*
Y287598D01*
X498721Y288583D01*
X521161D01*
X526870Y294291D01*
X542913D01*
X555807Y294193D02*
X556004Y293996D01*
X555807Y294193D02*
Y307382D01*
X551807Y311382D02*
X555807Y307382D01*
X547564Y311382D02*
X551807D01*
X492520Y265748D02*
X497539D01*
X487500D02*
X492520D01*
X487500Y272248D02*
Y278248D01*
X497539Y272248D02*
X497539Y272248D01*
X497539Y272248D02*
Y278150D01*
X507087Y272248D02*
X507087Y272248D01*
X507087Y272248D02*
Y278150D01*
X485630Y300197D02*
X497835D01*
X502557Y304919D01*
Y329033D01*
X553642Y346850D02*
Y350098D01*
X559449D02*
X559744Y349803D01*
X428937Y346850D02*
Y350098D01*
X553642Y346555D02*
Y346850D01*
X428937Y346654D02*
Y346850D01*
X374457Y268752D02*
Y331482D01*
X405118Y258707D02*
X410236Y263825D01*
X405512Y279429D02*
X426465Y300382D01*
X405512Y268937D02*
Y279429D01*
X410236Y274114D02*
X420276Y284154D01*
X410236Y263825D02*
Y274114D01*
X437008Y279429D02*
X456398D01*
X300197Y237894D02*
X300197Y237894D01*
X300689Y306201D02*
X300738Y306152D01*
X299508Y371161D02*
X299557Y371112D01*
X433957Y350098D02*
X433957Y350098D01*
X496998Y350246D02*
X497047Y350295D01*
X553642Y350098D02*
Y352854D01*
X568504Y381201D02*
Y383169D01*
X562795Y388878D02*
X568504Y383169D01*
X555253Y388878D02*
X562795D01*
X542815Y393799D02*
X543110Y393504D01*
X532874Y393799D02*
X542815D01*
X532874Y381004D02*
Y387299D01*
X540375Y241023D02*
X547244D01*
X540204Y233123D02*
X547244D01*
X539521Y201523D02*
X547244D01*
X520965Y220079D02*
X539521Y201523D01*
X467323Y220079D02*
X520965D01*
X539495Y209423D02*
X547244D01*
X520768Y228150D02*
X539495Y209423D01*
X467126Y228150D02*
X520768D01*
X539639Y225223D02*
X547244D01*
X417854Y251279D02*
X424457Y257882D01*
X391929Y251279D02*
X417854D01*
X374457Y268752D02*
X391929Y251279D01*
X430461Y300382D02*
X434457D01*
X426465D02*
X430461D01*
X436614Y290551D02*
X437008D01*
X430461Y296705D02*
X436614Y290551D01*
X430461Y296705D02*
Y300382D01*
X323740Y248729D02*
X323806Y248795D01*
X374457Y331482D02*
X374557Y331582D01*
X386050D01*
X434457Y300382D02*
X439567Y305492D01*
Y331398D02*
X439851Y331682D01*
X449050D01*
X504906Y331382D02*
X510950D01*
X337047Y192028D02*
X342047D01*
X347047D01*
X353583D01*
X337323Y260433D02*
X342323D01*
X347323D01*
X353858D01*
X510950Y311382D02*
Y316382D01*
Y306382D02*
Y311382D01*
Y299847D02*
Y306382D01*
X449050Y311682D02*
Y316682D01*
Y306682D02*
Y311682D01*
Y300147D02*
Y306682D01*
X386050Y311582D02*
Y316582D01*
Y306582D02*
Y311582D01*
Y300046D02*
Y306582D01*
X347205Y323917D02*
X353740D01*
X342205D02*
X347205D01*
X337205D02*
X342205D01*
X547364Y336582D02*
X554357D01*
X547457Y381082D02*
X555253Y388878D01*
D53*
X462357Y311582D02*
X494557D01*
X462357Y306582D02*
X494557D01*
X462357Y316582D02*
X494557D01*
X565551Y347776D02*
Y349311D01*
X564757Y346982D02*
X565551Y347776D01*
X293657Y273082D02*
X306457Y260282D01*
X255557Y273082D02*
X293657D01*
X306457Y260282D02*
X312064D01*
X289613Y303839D02*
X309750Y323975D01*
X256500Y303839D02*
X289613D01*
X255657Y304682D02*
X256500Y303839D01*
X332157Y296989D02*
X332257Y296889D01*
X327157Y260375D02*
Y266482D01*
X291679Y268504D02*
X292357Y269182D01*
X251079Y268504D02*
X291679D01*
X247757Y265182D02*
X251079Y268504D01*
X332157Y260375D02*
Y267982D01*
X323859Y276279D02*
X332157Y267982D01*
X250954Y276279D02*
X323859D01*
X247757Y273082D02*
X250954Y276279D01*
X317057Y228589D02*
X317157Y228689D01*
X255657Y249382D02*
X256417Y248622D01*
X269816D02*
X295657Y222782D01*
X256417Y248622D02*
X269816D01*
X322157Y221282D02*
Y228689D01*
X265256Y252381D02*
X265335Y252461D01*
X252678D02*
X265335D01*
X247857Y257282D02*
X252678Y252461D01*
X265256Y252264D02*
Y252381D01*
X312064Y260282D02*
X312157Y260375D01*
X255857Y296582D02*
X264057D01*
X255657Y296782D02*
X255857Y296582D01*
X461957Y392682D02*
X510657D01*
X456357Y398282D02*
X461957Y392682D01*
X250057Y226982D02*
X250357D01*
X247857Y229182D02*
X250057Y226982D01*
X247857Y229182D02*
Y241682D01*
X312157Y192075D02*
Y197182D01*
X309357Y199982D02*
X312157Y197182D01*
X285057Y199982D02*
X309357D01*
X255657Y229382D02*
X285057Y199982D01*
X269207Y222232D02*
X287157Y204282D01*
X324857D02*
X332157Y196982D01*
X287157Y204282D02*
X324857D01*
X317157Y260375D02*
Y265982D01*
X314357Y268782D02*
X317157Y265982D01*
X255857Y264882D02*
X291857D01*
X255557Y265182D02*
X255857Y264882D01*
X320957Y272682D02*
X327157Y266482D01*
X303357Y272682D02*
X320957D01*
X303357Y268782D02*
X314357D01*
X255657Y229382D02*
Y241682D01*
X251657Y234182D02*
Y244982D01*
X247857Y248782D02*
X251657Y244982D01*
X318857Y217982D02*
X322157Y221282D01*
X293357Y217982D02*
X318857D01*
X265857Y245482D02*
X293357Y217982D01*
X260557Y245482D02*
X260657Y245382D01*
X320757Y213682D02*
X327157Y220082D01*
X291657Y213682D02*
X320757D01*
X260657Y244682D02*
X291657Y213682D01*
X322457Y208882D02*
X332157Y218582D01*
X290457Y208882D02*
X322457D01*
X265257Y234082D02*
X290457Y208882D01*
X348357Y400082D02*
X351157D01*
Y386182D02*
Y400082D01*
X347357Y382382D02*
X351157Y386182D01*
X353357Y382382D02*
X354857Y383882D01*
Y398982D01*
X309750Y323975D02*
X312157D01*
X347357Y401082D02*
X348357Y400082D01*
X523257Y316582D02*
X547364D01*
X433257D02*
X433557Y316882D01*
X422664Y316582D02*
X433257D01*
X523257Y306582D02*
X547364D01*
X433257D02*
X433557Y306882D01*
X422664Y306582D02*
X433257D01*
X523257Y311582D02*
X547364D01*
X433257D02*
X433557Y311882D01*
X422664Y311582D02*
X433257D01*
X402557Y316582D02*
X422664D01*
X402557Y306582D02*
X422664D01*
X402557Y311582D02*
X422664D01*
X337157Y228689D02*
Y237182D01*
X342157Y228689D02*
Y237182D01*
X347157Y228689D02*
Y237182D01*
X510157Y369282D02*
Y386082D01*
X506757Y389482D02*
X510157Y386082D01*
X459257Y389482D02*
X506757D01*
X448457Y400282D02*
X459257Y389482D01*
X456357Y398282D02*
Y400282D01*
X519557Y408082D02*
X527457Y400182D01*
X464257Y408082D02*
X519557D01*
X554357Y336582D02*
X564757Y346982D01*
X317157Y323975D02*
Y330482D01*
X316057Y331582D02*
X317157Y330482D01*
X310257Y331582D02*
X316057D01*
X287557Y308882D02*
X310257Y331582D01*
X266757Y308882D02*
X287557D01*
X265757Y307882D02*
X266757Y308882D01*
X332257Y284382D02*
Y296889D01*
X255657Y280982D02*
X312557D01*
X317157Y285582D01*
X260657Y244682D02*
Y245382D01*
X327157Y220082D02*
Y228689D01*
X317057Y228589D02*
X317257Y228389D01*
X295657Y222782D02*
X304157D01*
X255657Y257282D02*
X260757D01*
X332157Y218582D02*
Y228689D01*
X262157Y234082D02*
X265257D01*
X247857Y248782D02*
Y249382D01*
X327157Y288982D02*
Y296989D01*
X317257Y222782D02*
Y228389D01*
X332157Y192075D02*
Y196982D01*
X317157Y285582D02*
Y296989D01*
D54*
X342323Y389173D02*
X342420Y389076D01*
X337227Y393482D02*
X337303Y393406D01*
X333557Y393482D02*
X337227D01*
X351157Y400082D02*
X353757D01*
X354857Y398982D01*
X449050Y321682D02*
X463957D01*
X531457Y369682D02*
X540457D01*
X519257Y381882D02*
X531457Y369682D01*
X519257Y381882D02*
Y386182D01*
X512757Y392682D02*
X519257Y386182D01*
X510657Y392682D02*
X512757D01*
X337157Y382382D02*
Y401182D01*
X342257Y382382D02*
Y399982D01*
D55*
X342420Y389076D02*
X347357D01*
X524114Y383465D02*
Y386319D01*
X514451Y395982D02*
X524114Y386319D01*
X462857Y395982D02*
X514451D01*
X529757Y356682D02*
X537657Y348782D01*
X515957Y400282D02*
X528051Y388187D01*
Y384450D02*
Y388187D01*
X347157Y350682D02*
Y367682D01*
Y268182D02*
Y303782D01*
X344957Y408482D02*
X347357Y406082D01*
Y401082D02*
Y406082D01*
X342157Y268182D02*
Y303782D01*
X342257Y399982D02*
Y402382D01*
X337157Y350682D02*
Y367682D01*
Y268182D02*
Y303782D01*
X420768Y404093D02*
X424757Y408082D01*
X420768Y384371D02*
Y404093D01*
Y384371D02*
X438157Y366982D01*
X393157Y367982D02*
Y400295D01*
X322157Y316882D02*
X322205Y316930D01*
X327205Y323917D02*
Y331653D01*
X324114Y334744D02*
X327205Y331653D01*
X304823Y334744D02*
X324114D01*
X281988Y311910D02*
X304823Y334744D01*
X272244Y311910D02*
X281988D01*
X269876Y299508D02*
X270669D01*
X269679Y299705D02*
X269876Y299508D01*
X250780Y299705D02*
X269679D01*
X247857Y296782D02*
X250780Y299705D01*
X260047Y307972D02*
X267257Y315182D01*
X251147Y307972D02*
X260047D01*
X247857Y304682D02*
X251147Y307972D01*
X332157Y353182D02*
Y360589D01*
X275657Y322382D02*
X295757Y342482D01*
X258916Y316142D02*
X265257Y322482D01*
X252116Y316142D02*
X258916D01*
X248557Y312582D02*
X252116Y316142D01*
X293117Y292421D02*
X293857Y291682D01*
X251396Y292421D02*
X293117D01*
X247857Y288882D02*
X251396Y292421D01*
X251257Y284382D02*
X293457D01*
X247857Y280982D02*
X251257Y284382D01*
X292357Y352682D02*
X313457D01*
X271357Y331682D02*
X292357Y352682D01*
X271357Y323082D02*
Y331682D01*
X291257Y401182D02*
X336257D01*
X288557Y403882D02*
X291257Y401182D01*
X334657Y405282D02*
X339357D01*
X333357Y403982D02*
X334657Y405282D01*
X300357Y403982D02*
X333357D01*
X298557Y405782D02*
X300357Y403982D01*
X339357Y405282D02*
X342257Y402382D01*
X261757Y313482D02*
X271357Y323082D01*
X256557Y313482D02*
X261757D01*
X255657Y312582D02*
X256557Y313482D01*
X267257Y315182D02*
X278057D01*
X265957Y331282D02*
X266157D01*
X258657D02*
X265957D01*
X525757Y330982D02*
Y351782D01*
X521657Y355882D02*
X525757Y351782D01*
X537657Y331082D02*
Y348782D01*
X467157Y334682D02*
Y356082D01*
Y334682D02*
X480257Y321582D01*
X400957Y335382D02*
Y356282D01*
Y335382D02*
X414757Y321582D01*
X389057Y379082D02*
Y403082D01*
X393157Y407182D01*
X408957Y379082D02*
Y380282D01*
X401057Y379082D02*
X401357Y378782D01*
X400557Y374782D02*
X408757D01*
X397357Y377982D02*
X400557Y374782D01*
X397357Y377982D02*
Y404382D01*
X408957Y380282D02*
Y400382D01*
X405157Y394082D02*
X405207Y394032D01*
X405157Y394082D02*
Y402882D01*
X437457Y374282D02*
X480057D01*
X424757Y386982D02*
X437457Y374282D01*
X424757Y386982D02*
Y400282D01*
X438157Y366982D02*
X467357Y367182D01*
X449357Y384882D02*
X503457D01*
X440557Y393682D02*
X449357Y384882D01*
X496457Y381382D02*
X501957Y375882D01*
X448357Y381382D02*
X496457D01*
X436757Y392982D02*
X448357Y381382D01*
X521557Y331982D02*
Y351382D01*
X515957Y326382D02*
X521557Y331982D01*
X510950Y326382D02*
X515957D01*
X516357Y321582D02*
X525757Y330982D01*
X510750Y321582D02*
X516357D01*
X539957D02*
X547364D01*
X533457Y328082D02*
X539957Y321582D01*
X533457Y328082D02*
Y348682D01*
X525557Y356582D02*
X533457Y348682D01*
X337557Y408582D02*
X337657Y408482D01*
X344957D01*
X381357Y379082D02*
Y402782D01*
X385457Y406882D01*
X308557Y408482D02*
X319057D01*
X298557Y405782D02*
Y408482D01*
X288557Y403882D02*
Y408482D01*
X342157Y350682D02*
Y367682D01*
X256457Y288082D02*
X293457D01*
X255657Y288882D02*
X256457Y288082D01*
X322257Y290182D02*
Y296889D01*
X322157Y296989D02*
X322257Y296889D01*
X322157Y355782D02*
Y360589D01*
X315857Y349482D02*
X322157Y355782D01*
X294057Y349482D02*
X315857D01*
X276357Y331782D02*
X294057Y349482D01*
X247857Y320482D02*
X258657Y331282D01*
X327157Y355082D02*
Y360589D01*
X318357Y346282D02*
X327157Y355082D01*
X295257Y346282D02*
X318357D01*
X276057Y327082D02*
X295257Y346282D01*
X262557Y326782D02*
X265957D01*
X256257Y320482D02*
X262557Y326782D01*
X255657Y320482D02*
X256257D01*
X321457Y342482D02*
X332157Y353182D01*
X295757Y342482D02*
X321457D01*
X265257Y322482D02*
X265757D01*
X247857Y312582D02*
X248557D01*
X317157Y356382D02*
Y360589D01*
X313457Y352682D02*
X317157Y356382D01*
X278057Y315182D02*
X301957Y339082D01*
X324057D01*
X332157Y330982D01*
Y323975D02*
Y330982D01*
X386050Y321582D02*
X392657D01*
X395057Y323982D01*
Y355082D01*
X385457Y406882D02*
Y408082D01*
X385657Y341975D02*
X386050Y341582D01*
X385657Y341975D02*
Y355282D01*
X385457Y365982D02*
X385757Y365682D01*
X385457Y365982D02*
Y400282D01*
X414757Y321582D02*
X422664D01*
X393157Y407182D02*
Y408082D01*
X422564Y326482D02*
X422664Y326582D01*
X417157Y326482D02*
X422564D01*
X405357Y338282D02*
X417157Y326482D01*
X405357Y338282D02*
Y356482D01*
X418757Y331582D02*
X422664D01*
X410457Y339882D02*
X418757Y331582D01*
X410457Y339882D02*
Y356482D01*
X401057Y379082D02*
Y400282D01*
X397357Y404382D02*
X401057Y408082D01*
X395057Y366082D02*
X414457D01*
X393157Y367982D02*
X395057Y366082D01*
X419457Y336582D02*
X422664D01*
X415057Y340982D02*
X419457Y336582D01*
X415057Y340982D02*
Y355882D01*
X414757Y356182D02*
X415057Y355882D01*
X416857Y372982D02*
Y400382D01*
X449150Y326582D02*
X458657D01*
X412957Y387682D02*
Y403982D01*
X416857Y407882D01*
Y408182D01*
X405157Y402882D02*
X408957Y406682D01*
Y408182D01*
X453657Y349082D02*
X454357Y348382D01*
Y338982D02*
Y348382D01*
X451957Y336582D02*
X454357Y338982D01*
X449150Y336582D02*
X451957D01*
X449150Y341582D02*
Y348389D01*
X448857Y348682D02*
X449150Y348389D01*
X480257Y321582D02*
X485764D01*
X480857Y326782D02*
X485564D01*
X471557Y336082D02*
X480857Y326782D01*
X471557Y336082D02*
Y357082D01*
X485564Y326782D02*
X485764Y326582D01*
X440857Y377282D02*
X475657D01*
X428857Y389282D02*
X440857Y377282D01*
X428857Y389282D02*
Y404282D01*
X432657Y391182D02*
X441357Y382482D01*
X432657Y391182D02*
Y400282D01*
X479957Y331582D02*
X485764D01*
X475857Y335682D02*
X479957Y331582D01*
X475857Y335682D02*
Y357182D01*
X436757Y392982D02*
Y403182D01*
X485664Y336682D02*
X485764Y336582D01*
X481357Y336682D02*
X485664D01*
X480257Y337782D02*
X481357Y336682D01*
X480257Y337782D02*
Y356982D01*
X480157Y357082D02*
X480257Y356982D01*
X428857Y404282D02*
X432657Y408082D01*
X518057Y339082D02*
Y350682D01*
X515357Y336382D02*
X518057Y339082D01*
X510950Y336382D02*
X515357D01*
X514257Y354482D02*
X518057Y350682D01*
X514257Y354482D02*
Y355682D01*
Y369082D02*
Y369482D01*
X514157Y369582D02*
X514257Y369482D01*
X514157Y369582D02*
Y384482D01*
X510750Y336582D02*
X510950Y336382D01*
X513557Y385082D02*
X514157Y384482D01*
X517757Y355182D02*
X521557Y351382D01*
X517757Y355182D02*
Y355982D01*
X510750Y326582D02*
X510950Y326382D01*
X440557Y393682D02*
Y400282D01*
X444657Y394882D02*
Y403482D01*
X444557Y403582D02*
X444657Y403482D01*
X444557Y403582D02*
X448457Y407482D01*
Y408082D01*
X436757Y403182D02*
X440557Y406982D01*
Y408082D01*
X542157Y326582D02*
X547364D01*
X537657Y331082D02*
X542157Y326582D01*
X464257Y400282D02*
X515957D01*
X460357Y398482D02*
X462857Y395982D01*
X460357Y398482D02*
Y404082D01*
X456357Y408082D02*
X460357Y404082D01*
X547164Y331782D02*
X547364Y331582D01*
X543357Y331782D02*
X547164D01*
X541757Y333382D02*
X543357Y331782D01*
X541757Y333382D02*
Y350582D01*
X535757Y356582D02*
X541757Y350582D01*
D56*
X367357Y214041D02*
Y218682D01*
Y214041D02*
X367520Y213878D01*
X519390Y265354D02*
Y272638D01*
X531183Y284431D01*
X537403D01*
X570472Y289075D02*
Y358366D01*
X565828Y284431D02*
X570472Y289075D01*
X537403Y284431D02*
X565828D01*
X367357Y193799D02*
X367421Y193864D01*
Y199016D01*
X367357Y193799D02*
X367455Y193701D01*
X496358D01*
X547557Y369882D02*
X558957D01*
X570472Y358366D01*
D57*
X322157Y316882D02*
X351557D01*
X322205Y316930D02*
Y323917D01*
D58*
X549114Y292618D02*
Y306382D01*
X546555Y290059D02*
X549114Y292618D01*
X528740Y290059D02*
X546555D01*
X522933Y284252D02*
X528740Y290059D01*
X547564Y306382D02*
X549114D01*
X507087Y284252D02*
X522933D01*
D59*
X559744Y168307D02*
D03*
X256057Y168682D02*
D03*
X559646Y402953D02*
D03*
X256102Y402953D02*
D03*
D60*
X455118Y258707D02*
D03*
Y268707D02*
D03*
X445118D02*
D03*
Y258707D02*
D03*
X435118D02*
D03*
Y268707D02*
D03*
X425118D02*
D03*
Y258707D02*
D03*
X415118D02*
D03*
Y268707D02*
D03*
X405118D02*
D03*
Y258707D02*
D03*
X557457Y381082D02*
D03*
X547457D02*
D03*
D61*
X537403Y284431D02*
D03*
D62*
Y274431D02*
D03*
D63*
X255610Y319843D02*
D03*
Y311943D02*
D03*
Y296143D02*
D03*
Y304043D02*
D03*
Y288243D02*
D03*
Y280343D02*
D03*
X255510Y264543D02*
D03*
Y272443D02*
D03*
X255610Y256643D02*
D03*
Y248743D02*
D03*
Y241043D02*
D03*
X247810D02*
D03*
Y248743D02*
D03*
Y256643D02*
D03*
X247710Y272443D02*
D03*
Y264543D02*
D03*
X247810Y280343D02*
D03*
Y288243D02*
D03*
Y304043D02*
D03*
Y296143D02*
D03*
Y311943D02*
D03*
Y319843D02*
D03*
X464233Y400295D02*
D03*
X456333D02*
D03*
X440533D02*
D03*
X448433D02*
D03*
X432633D02*
D03*
X424733D02*
D03*
X408933Y400395D02*
D03*
X416833D02*
D03*
X401033Y400295D02*
D03*
X393133D02*
D03*
X385433D02*
D03*
Y408095D02*
D03*
X393133D02*
D03*
X401033D02*
D03*
X416833Y408195D02*
D03*
X408933D02*
D03*
X424733Y408095D02*
D03*
X432633D02*
D03*
X448433D02*
D03*
X440533D02*
D03*
X456333D02*
D03*
X464233D02*
D03*
D64*
X391535Y207480D02*
D03*
X416535Y207283D02*
D03*
Y200787D02*
D03*
X391535D02*
D03*
X383465Y287697D02*
D03*
Y273031D02*
D03*
X389961Y287697D02*
D03*
Y273031D02*
D03*
X396654D02*
D03*
Y287697D02*
D03*
X409006Y223228D02*
D03*
Y231841D02*
D03*
X372933Y218602D02*
D03*
X359744Y218406D02*
D03*
X372933Y227362D02*
D03*
X359744D02*
D03*
X372933Y236024D02*
D03*
X359744Y236811D02*
D03*
X391535Y243701D02*
D03*
X519390Y265354D02*
D03*
X467028Y235630D02*
D03*
X492126Y258760D02*
D03*
X502067D02*
D03*
X476476Y267323D02*
D03*
X561221Y299803D02*
D03*
X541831D02*
D03*
X542913Y294291D02*
D03*
X556004Y293996D02*
D03*
X437008Y279429D02*
D03*
X367421Y199016D02*
D03*
X367520Y213878D02*
D03*
X496358Y193701D02*
D03*
X300197Y237894D02*
D03*
X300689Y306201D02*
D03*
X299508Y371161D02*
D03*
X433957Y350098D02*
D03*
X497047Y350295D02*
D03*
X559744Y349803D02*
D03*
X543110Y393504D02*
D03*
X467323Y220079D02*
D03*
X467126Y228150D02*
D03*
X467224Y252067D02*
D03*
X437008Y290551D02*
D03*
X353583Y192028D02*
D03*
X353858Y260433D02*
D03*
X510950Y299847D02*
D03*
X449050Y300147D02*
D03*
X386050Y300046D02*
D03*
X353740Y323917D02*
D03*
D65*
X565551Y349311D02*
D03*
X524114Y383465D02*
D03*
X528199Y383563D02*
D03*
X272244Y311910D02*
D03*
X270669Y299508D02*
D03*
X265256Y252264D02*
D03*
X250357Y226982D02*
D03*
X269207Y222232D02*
D03*
X292357Y264882D02*
D03*
X303357Y272682D02*
D03*
Y268782D02*
D03*
X337157Y382382D02*
D03*
X333557Y393482D02*
D03*
X467357Y357282D02*
D03*
X381357Y379082D02*
D03*
X408957D02*
D03*
X389057D02*
D03*
X401357D02*
D03*
X408757Y374782D02*
D03*
X412957Y387682D02*
D03*
X405207Y394032D02*
D03*
X503457Y384882D02*
D03*
X347357Y389076D02*
D03*
X353357Y382382D02*
D03*
X319057Y408482D02*
D03*
X337557Y408582D02*
D03*
X523257Y316582D02*
D03*
X494557D02*
D03*
X433557Y316882D02*
D03*
X462357Y316582D02*
D03*
X523257Y306582D02*
D03*
X494557D02*
D03*
X433557Y306882D02*
D03*
X462357Y306582D02*
D03*
X523257Y311582D02*
D03*
X494557D02*
D03*
X433557Y311882D02*
D03*
X462357Y311582D02*
D03*
X402557Y316582D02*
D03*
Y306582D02*
D03*
Y311582D02*
D03*
X337157Y350682D02*
D03*
Y303782D02*
D03*
Y268182D02*
D03*
Y237182D02*
D03*
X342157Y350682D02*
D03*
Y303782D02*
D03*
Y268182D02*
D03*
Y237182D02*
D03*
X347157Y350682D02*
D03*
Y303782D02*
D03*
Y268182D02*
D03*
Y237182D02*
D03*
X342257Y382382D02*
D03*
X347357D02*
D03*
X347157Y367682D02*
D03*
X337157D02*
D03*
X342157D02*
D03*
X351557Y316882D02*
D03*
X358957Y182382D02*
D03*
X359057Y249582D02*
D03*
X293457Y291682D02*
D03*
Y288082D02*
D03*
X322257Y290182D02*
D03*
X276057Y331782D02*
D03*
X265957Y331282D02*
D03*
X276057Y327082D02*
D03*
X265957Y326782D02*
D03*
X276057Y322382D02*
D03*
X265957Y322482D02*
D03*
X395057Y356282D02*
D03*
X385657D02*
D03*
X385757Y365682D02*
D03*
X400957Y356282D02*
D03*
X405357D02*
D03*
X410457D02*
D03*
X414457Y366082D02*
D03*
X414757Y356282D02*
D03*
X416757Y372982D02*
D03*
X458657Y326582D02*
D03*
X463957Y321682D02*
D03*
X453657Y349082D02*
D03*
X448857Y348682D02*
D03*
X467357Y367182D02*
D03*
X471557Y357182D02*
D03*
X441357Y382482D02*
D03*
X475857Y357182D02*
D03*
X475657Y377282D02*
D03*
X480157Y357182D02*
D03*
X480057Y374282D02*
D03*
X513957Y356582D02*
D03*
X514257Y369082D02*
D03*
X513557Y385082D02*
D03*
X517757Y356582D02*
D03*
X501957Y375882D02*
D03*
X521657Y356582D02*
D03*
X525557D02*
D03*
X444657Y394882D02*
D03*
X529757Y356582D02*
D03*
X535757D02*
D03*
X527457Y400182D02*
D03*
X540457Y369682D02*
D03*
X510657Y352682D02*
D03*
X510157Y369282D02*
D03*
X265757Y307882D02*
D03*
X264057Y296582D02*
D03*
X332257Y284382D02*
D03*
X293457D02*
D03*
X292357Y269182D02*
D03*
X260757Y245482D02*
D03*
X265857D02*
D03*
X304157Y222782D02*
D03*
X260757Y257282D02*
D03*
X262157Y234082D02*
D03*
X251657Y234182D02*
D03*
X327157Y288982D02*
D03*
X317257Y222782D02*
D03*
M02*
