M48
;Layer_Color=9474304
;FILE_FORMAT=2:5
INCH,LZ
;TYPE=PLATED
T1F00S00C0.01500
T2F00S00C0.02799
T3F00S00C0.03150
T4F00S00C0.04016
T5F00S00C0.04016
T6F00S00C0.04291
T7F00S00C0.15748
%
T01
X0494557Y0306582
Y0311582
X0523257
Y0306582
X0462357
Y0311582
X0433557Y0311882
Y0306882
X0402557Y0306582
Y0311582
X0347157Y0303782
X0342157
X0337157
X0332257Y0284382
X0327157Y0288982
X0322257Y0290182
X0337157Y0268182
X0342157
X0347157
X0359057Y0249582
X0347157Y0237182
X0342157
X0337157
X0358957Y0182382
X0269207Y0222232
X0262157Y0234082
X0251657Y0234182
X0250357Y0226982
X0260757Y0245482
X0265857
X0265256Y0252264
X0260757Y0257282
X0292357Y0264882
Y0269182
X0303357Y0268782
Y0272682
X0293457Y0284382
Y0288082
Y0291977
X0270669Y0299508
X0264057Y0296582
X0265757Y0307882
X0272244Y031191
X0276057Y0322382
Y0327082
Y0331782
X0265957Y0331282
Y0326782
Y0322482
X0351557Y0316882
X0347157Y0350682
X0342157
X0337157
Y0367682
X0342157
X0347157
X0347357Y0382382
X0342257
X0337157
X0333557Y0393482
X0347357Y0389076
X0353357Y0382382
X0381357Y0379082
X0389057
X0401357
X0408957
X0408757Y0374782
X0416757Y0372982
X0414457Y0366082
X0414757Y0356282
X0410457
X0405357
X0400957
X0395057
X0385657
X0385757Y0365682
X0405207Y0394032
X0412957Y0387682
X0441357Y0382482
X0444657Y0394882
X0467357Y0367182
Y0357282
X0453657Y0349082
X0448857Y0348682
X0458657Y0326582
X0463957Y0321682
X0462357Y0316582
X0433557Y0316882
X0402557Y0316582
X0337557Y0408582
X0319057Y0408482
X0475657Y0377282
X0480057Y0374282
X0480157Y0357182
X0475857
X0471557
X0513957Y0356582
X0517757
X0521657
X0525557
X0529757
X0535757
X0540457Y0369682
X0528199Y0383563
X0524114Y0383465
X0513557Y0385082
X0503457Y0384882
X0501957Y0375882
X0510157Y0369282
X0514257Y0369082
X0510657Y0352682
X0523257Y0316582
X0494557
X0565551Y0349311
X0527457Y0400182
T02
X0496358Y0193701
X0492126Y025876
X0502067
X051939Y0265354
X051095Y0299847
X0541831Y0299803
X0542913Y0294291
X0556004Y0293996
X0561221Y0299803
X0476378Y0274016
X0467224Y0252067
X0467028Y023563
X0467126Y022815
X0467323Y0220079
X0438779Y0278051
X0439173Y0293406
X044905Y0300147
X038605Y0300046
X0391535Y0243701
X0353858Y0260433
X0353583Y0192028
X0300197Y0237894
X0300689Y0306201
X0299508Y0371161
X035374Y0323917
X0433957Y0350098
X0497047Y0350295
X0559547
X054311Y0393504
T03
X024781Y0241043
Y0248743
X025561
Y0241043
Y0256643
X024781
X024771Y0264543
X025551
Y0272443
X024771
X024781Y0280343
X025561
Y0288243
X024781
Y0296143
X025561
Y0304043
X024781
Y0311943
X025561
Y0319843
X024781
X0385433Y0400295
X0393133
Y0408095
X0385433
X0401033
Y0400295
X0408933Y0400395
Y0408195
X0416833
Y0400395
X0424733Y0400295
Y0408095
X0432633
Y0400295
X0440533
Y0408095
X0448433
Y0400295
X0456333
Y0408095
X0464233
Y0400295
T04
X0288557Y0408482
X0298557
X0308557
T05
X0405571Y0259101
Y0269101
X0415571
Y0259101
X0425571
Y0269101
X0435571
Y0259101
X0445571
Y0269101
X0455571
Y0259101
X0547512Y0381015
X0557512
T06
X0537403Y0274431
Y0284431
T07
X0561516Y0170971
X0256398Y0170971
Y0400484
X0561516Y0400483
M30
