G04*
G04 #@! TF.GenerationSoftware,Altium Limited,Altium Designer,18.1.11 (251)*
G04*
G04 Layer_Color=65535*
%FSLAX25Y25*%
%MOIN*%
G70*
G01*
G75*
%ADD10C,0.01000*%
%ADD11C,0.00984*%
%ADD12C,0.02362*%
%ADD13C,0.00787*%
%ADD14C,0.01500*%
%ADD15C,0.00591*%
G36*
X437354Y174462D02*
X434111D01*
X434202Y176083D01*
X432089D01*
X431378Y174471D01*
X428180Y174462D01*
X432189Y182068D01*
X432289Y182223D01*
X432389Y182378D01*
X432480Y182506D01*
X432571Y182624D01*
X432644Y182715D01*
X432708Y182788D01*
X432744Y182825D01*
X432763Y182843D01*
X432890Y182970D01*
X433018Y183089D01*
X433145Y183189D01*
X433255Y183280D01*
X433355Y183344D01*
X433437Y183398D01*
X433482Y183435D01*
X433501Y183444D01*
X433655Y183535D01*
X433801Y183608D01*
X433938Y183672D01*
X434065Y183726D01*
X434175Y183772D01*
X434257Y183799D01*
X434311Y183818D01*
X434320Y183827D01*
X434330D01*
X434512Y183872D01*
X434676Y183899D01*
X434831Y183918D01*
X435077D01*
X435159Y183909D01*
X435213Y183899D01*
X435231D01*
X435432Y183991D01*
X437008D01*
X437354Y174462D01*
D02*
G37*
G36*
X469321Y181914D02*
X469467Y181904D01*
X469594Y181886D01*
X469695Y181868D01*
X469777Y181850D01*
X469822Y181841D01*
X469840Y181832D01*
X469977Y181786D01*
X470105Y181740D01*
X470214Y181686D01*
X470314Y181640D01*
X470387Y181595D01*
X470451Y181558D01*
X470487Y181531D01*
X470496Y181522D01*
X470597Y181422D01*
X470669Y181312D01*
X470733Y181203D01*
X470779Y181103D01*
X470806Y181012D01*
X470824Y180930D01*
X470842Y180884D01*
Y180875D01*
Y180866D01*
X470861Y180702D01*
Y180538D01*
X470842Y180365D01*
X470824Y180210D01*
X470806Y180064D01*
X470797Y180010D01*
X470779Y179955D01*
X470770Y179909D01*
Y179882D01*
X470760Y179864D01*
Y179855D01*
X469758Y175828D01*
X469722Y175719D01*
X469686Y175619D01*
X469585Y175427D01*
X469467Y175263D01*
X469348Y175118D01*
X469239Y175008D01*
X469148Y174926D01*
X469111Y174890D01*
X469084Y174872D01*
X469066Y174862D01*
X469057Y174853D01*
X468847Y174726D01*
X468638Y174635D01*
X468437Y174562D01*
X468255Y174516D01*
X468091Y174489D01*
X468027Y174480D01*
X467964D01*
X467918Y174471D01*
X466588D01*
X467754Y179235D01*
X467791Y179381D01*
X467809Y179499D01*
X467818Y179600D01*
X467809Y179673D01*
X467800Y179736D01*
X467791Y179782D01*
X467781Y179800D01*
X467772Y179809D01*
X467718Y179864D01*
X467654Y179900D01*
X467581Y179937D01*
X467508Y179955D01*
X467435Y179964D01*
X467381Y179973D01*
X467326D01*
X467198Y179964D01*
X467089Y179946D01*
X466989Y179909D01*
X466898Y179882D01*
X466834Y179846D01*
X466788Y179809D01*
X466752Y179791D01*
X466743Y179782D01*
X466670Y179709D01*
X466597Y179627D01*
X466542Y179545D01*
X466506Y179463D01*
X466470Y179390D01*
X466442Y179335D01*
X466433Y179299D01*
X466424Y179281D01*
X465231Y174471D01*
X462416D01*
X463582Y179226D01*
X463618Y179372D01*
X463636Y179490D01*
X463646Y179590D01*
X463636Y179673D01*
X463618Y179736D01*
X463609Y179782D01*
X463600Y179800D01*
X463591Y179809D01*
X463545Y179864D01*
X463473Y179900D01*
X463409Y179937D01*
X463336Y179955D01*
X463263Y179964D01*
X463208Y179973D01*
X463154D01*
X463035Y179964D01*
X462926Y179946D01*
X462826Y179919D01*
X462744Y179882D01*
X462680Y179846D01*
X462634Y179818D01*
X462598Y179800D01*
X462589Y179791D01*
X462516Y179718D01*
X462443Y179627D01*
X462388Y179527D01*
X462352Y179436D01*
X462316Y179345D01*
X462288Y179272D01*
X462279Y179226D01*
X462270Y179217D01*
Y179208D01*
X461076Y174471D01*
X458261D01*
X460047Y181731D01*
X462898D01*
X462733Y181057D01*
X464930Y181886D01*
X464985Y181932D01*
X465222Y181923D01*
X465340Y181914D01*
X465440Y181895D01*
X465522Y181886D01*
X465586Y181868D01*
X465622Y181859D01*
X465641D01*
X465759Y181832D01*
X465868Y181795D01*
X465960Y181759D01*
X466051Y181722D01*
X466114Y181695D01*
X466160Y181668D01*
X466196Y181649D01*
X466206Y181640D01*
X466351Y181522D01*
X466406Y181458D01*
X466451Y181403D01*
X466488Y181349D01*
X466515Y181303D01*
X466533Y181276D01*
X466542Y181267D01*
X466588Y181185D01*
X466624Y181112D01*
X466652Y181039D01*
X466670Y180975D01*
X466688Y180921D01*
Y180884D01*
X466697Y180857D01*
Y180848D01*
X466743Y180939D01*
X466798Y181030D01*
X466861Y181112D01*
X466934Y181185D01*
X466989Y181239D01*
X467044Y181285D01*
X467080Y181312D01*
X467089Y181321D01*
X467198Y181403D01*
X467299Y181467D01*
X467399Y181531D01*
X467490Y181577D01*
X467563Y181613D01*
X467618Y181640D01*
X467654Y181649D01*
X467663Y181658D01*
X467791Y181704D01*
X467918Y181750D01*
X468037Y181786D01*
X468137Y181813D01*
X468219Y181832D01*
X468283Y181850D01*
X468319Y181859D01*
X468337D01*
X468574Y181904D01*
X468683Y181914D01*
X468784Y181923D01*
X468866Y181932D01*
X469157D01*
X469321Y181914D01*
D02*
G37*
G36*
X457141Y174462D02*
X454335Y174462D01*
X454493Y175130D01*
X454344Y174981D01*
X454180Y174853D01*
X454025Y174753D01*
X453889Y174671D01*
X453789Y174607D01*
X453743Y174589D01*
X453716Y174571D01*
X453697Y174562D01*
X453688D01*
X453461Y174471D01*
X453233Y174407D01*
X453014Y174361D01*
X452814Y174334D01*
X452713Y174316D01*
X452632D01*
X452559Y174307D01*
X452495Y174298D01*
X452194D01*
X452039Y174307D01*
X451894Y174325D01*
X451775Y174343D01*
X451666Y174361D01*
X451593Y174371D01*
X451547Y174389D01*
X451529D01*
X451402Y174434D01*
X451283Y174480D01*
X451174Y174534D01*
X451083Y174580D01*
X451010Y174626D01*
X450955Y174662D01*
X450919Y174689D01*
X450910Y174698D01*
X450810Y174790D01*
X450728Y174890D01*
X450664Y174990D01*
X450609Y175090D01*
X450573Y175181D01*
X450555Y175254D01*
X450536Y175300D01*
Y175318D01*
X450518Y175482D01*
Y175646D01*
X450527Y175819D01*
X450545Y175974D01*
X450573Y176120D01*
X450582Y176174D01*
X450591Y176229D01*
X450600Y176275D01*
Y176302D01*
X450609Y176320D01*
Y176329D01*
X451939Y181640D01*
X452140Y181731D01*
X454781D01*
X453606Y177012D01*
X453579Y176857D01*
X453561Y176721D01*
Y176611D01*
X453570Y176530D01*
X453579Y176466D01*
X453588Y176420D01*
X453606Y176393D01*
Y176384D01*
X453652Y176329D01*
X453716Y176284D01*
X453789Y176256D01*
X453861Y176229D01*
X453925Y176220D01*
X453980Y176211D01*
X454025D01*
X454153Y176220D01*
X454262Y176238D01*
X454353Y176265D01*
X454435Y176302D01*
X454499Y176338D01*
X454554Y176366D01*
X454581Y176384D01*
X454590Y176393D01*
X454672Y176475D01*
X454736Y176566D01*
X454791Y176666D01*
X454836Y176757D01*
X454873Y176848D01*
X454900Y176921D01*
X454918Y176967D01*
Y176985D01*
X456112Y181731D01*
X458936Y181731D01*
X457141Y174462D01*
D02*
G37*
G36*
X449142Y174462D02*
X446337D01*
X448113Y181731D01*
X450946D01*
X449142Y174462D01*
D02*
G37*
G36*
X440524D02*
X437709D01*
X440060Y183899D01*
X440260Y183991D01*
X442893D01*
X440524Y174462D01*
D02*
G37*
G36*
X446218Y181731D02*
X447320D01*
X446910Y179955D01*
X445808D01*
X444988Y176721D01*
X444970Y176621D01*
X444961Y176530D01*
Y176457D01*
X444979Y176402D01*
X444988Y176366D01*
X444997Y176329D01*
X445016Y176320D01*
Y176311D01*
X445070Y176275D01*
X445134Y176256D01*
X445280Y176229D01*
X445343Y176220D01*
X445945D01*
X445535Y174471D01*
X445362Y174452D01*
X445207Y174443D01*
X445061Y174434D01*
X444934Y174425D01*
X444833D01*
X444751Y174416D01*
X444688D01*
X444551Y174407D01*
X444296D01*
X444187Y174398D01*
X443740D01*
X443540Y174407D01*
X443358Y174416D01*
X443212Y174434D01*
X443084Y174443D01*
X442993Y174462D01*
X442966D01*
X442939Y174471D01*
X442920D01*
X442774Y174507D01*
X442638Y174544D01*
X442529Y174589D01*
X442428Y174635D01*
X442355Y174671D01*
X442301Y174707D01*
X442264Y174726D01*
X442255Y174735D01*
X442164Y174808D01*
X442091Y174899D01*
X442037Y174990D01*
X441991Y175090D01*
X441964Y175172D01*
X441946Y175245D01*
X441936Y175291D01*
Y175309D01*
X441927Y175464D01*
X441936Y175619D01*
X441955Y175764D01*
X441982Y175901D01*
X442000Y176010D01*
X442028Y176101D01*
X442037Y176138D01*
Y176165D01*
X442046Y176174D01*
Y176183D01*
X443950Y183808D01*
X444150Y183899D01*
X446792D01*
X446218Y181731D01*
D02*
G37*
G36*
X482302Y184104D02*
X482379D01*
X482477Y184093D01*
X482586Y184071D01*
X482696Y184060D01*
X482969Y184017D01*
X483275Y183940D01*
X483592Y183853D01*
X483931Y183732D01*
X483800Y183339D01*
X483789D01*
X483756Y183350D01*
X483712Y183372D01*
X483647Y183382D01*
X483570Y183415D01*
X483483Y183437D01*
X483373Y183470D01*
X483264Y183492D01*
X483013Y183557D01*
X482728Y183612D01*
X482433Y183645D01*
X482127Y183667D01*
X481843D01*
X481745Y183656D01*
X481636Y183645D01*
X481406Y183623D01*
X481144Y183590D01*
X480870Y183536D01*
X480586Y183459D01*
X480575D01*
X480553Y183448D01*
X480510Y183437D01*
X480455Y183415D01*
X480389Y183394D01*
X480313Y183372D01*
X480138Y183295D01*
X479919Y183197D01*
X479690Y183087D01*
X479438Y182945D01*
X479198Y182792D01*
X479187D01*
X479165Y182771D01*
X479133Y182749D01*
X479089Y182716D01*
X479034Y182672D01*
X478958Y182617D01*
X478805Y182475D01*
X478619Y182311D01*
X478411Y182115D01*
X478193Y181885D01*
X477985Y181623D01*
Y181612D01*
X477963Y181590D01*
X477952Y181557D01*
X477919Y181514D01*
X477886Y181459D01*
X477843Y181382D01*
X477755Y181218D01*
X477657Y181000D01*
X477548Y180770D01*
X477449Y180497D01*
X477351Y180213D01*
Y180202D01*
X477340Y180180D01*
X477329Y180136D01*
X477318Y180082D01*
X477307Y180016D01*
X477285Y179940D01*
X477263Y179852D01*
X477252Y179754D01*
X477220Y179524D01*
X477187Y179273D01*
X477165Y178989D01*
Y178705D01*
Y178694D01*
Y178672D01*
Y178628D01*
X477176Y178573D01*
X477187Y178497D01*
Y178420D01*
X477198Y178322D01*
X477220Y178213D01*
X477252Y177961D01*
X477318Y177677D01*
X477384Y177360D01*
X477482Y177032D01*
Y177021D01*
X477493Y177010D01*
X477515Y176978D01*
X477537Y176934D01*
X477559Y176879D01*
X477602Y176814D01*
X477690Y176650D01*
X477799Y176453D01*
X477941Y176234D01*
X478105Y175994D01*
X478302Y175732D01*
X478094Y175546D01*
X477876Y175589D01*
X477865Y175600D01*
X477854Y175622D01*
X477821Y175655D01*
X477788Y175699D01*
X477744Y175764D01*
X477690Y175830D01*
X477624Y175917D01*
X477569Y176016D01*
X477427Y176234D01*
X477285Y176486D01*
X477154Y176770D01*
X477034Y177087D01*
Y177098D01*
X477023Y177120D01*
X477001Y177163D01*
X476990Y177218D01*
X476957Y177284D01*
X476935Y177371D01*
X476903Y177459D01*
X476881Y177568D01*
X476815Y177808D01*
X476761Y178082D01*
X476717Y178377D01*
X476695Y178694D01*
Y178705D01*
Y178737D01*
Y178781D01*
Y178847D01*
Y178923D01*
X476706Y179010D01*
Y179120D01*
X476717Y179229D01*
X476750Y179491D01*
X476783Y179787D01*
X476848Y180104D01*
X476935Y180420D01*
Y180431D01*
X476946Y180453D01*
X476957Y180497D01*
X476979Y180552D01*
X477001Y180617D01*
X477034Y180705D01*
X477110Y180891D01*
X477209Y181109D01*
X477340Y181339D01*
X477482Y181579D01*
X477657Y181819D01*
X477668Y181831D01*
X477679Y181852D01*
X477712Y181896D01*
X477755Y181962D01*
X477810Y182027D01*
X477876Y182115D01*
X478028Y182311D01*
X478214Y182519D01*
X478433Y182749D01*
X478673Y182978D01*
X478936Y183186D01*
X478947Y183197D01*
X478968Y183208D01*
X479001Y183229D01*
X479056Y183262D01*
X479122Y183306D01*
X479198Y183350D01*
X479285Y183404D01*
X479384Y183459D01*
X479613Y183568D01*
X479865Y183689D01*
X480149Y183809D01*
X480444Y183907D01*
X480455D01*
X480477Y183918D01*
X480521Y183929D01*
X480586Y183951D01*
X480663Y183962D01*
X480750Y183984D01*
X480849Y184005D01*
X480969Y184027D01*
X481220Y184071D01*
X481504Y184104D01*
X481821Y184115D01*
X482237D01*
X482302Y184104D01*
D02*
G37*
G36*
X505998Y177961D02*
X505277D01*
Y179076D01*
X504217Y179076D01*
Y177961D01*
X503736D01*
X503495Y178082D01*
Y180814D01*
X504217D01*
Y179721D01*
X505277Y179721D01*
Y180814D01*
X505998D01*
Y177961D01*
D02*
G37*
G36*
X511769D02*
X511081D01*
X509890Y179907D01*
Y177961D01*
X509179D01*
Y180814D01*
X509846D01*
X511048Y178912D01*
Y180814D01*
X511769D01*
Y177961D01*
D02*
G37*
G36*
X502643Y180803D02*
X502741Y180781D01*
X502851Y180759D01*
X502971Y180716D01*
X503080Y180661D01*
X503179Y180584D01*
X503189Y180573D01*
X503211Y180541D01*
X503255Y180497D01*
X503299Y180420D01*
X503342Y180333D01*
X503386Y180224D01*
X503408Y180093D01*
X503419Y179950D01*
Y179929D01*
Y179874D01*
X503408Y179797D01*
X503375Y179688D01*
X503342Y179579D01*
X503288Y179459D01*
X503211Y179338D01*
X503102Y179229D01*
X503091Y179218D01*
X503047Y179185D01*
X502971Y179142D01*
X502861Y179076D01*
X502719Y179022D01*
X502544Y178956D01*
X502337Y178901D01*
X502085Y178858D01*
X501998Y179513D01*
X502020D01*
X502064Y179524D01*
X502129Y179535D01*
X502217Y179557D01*
X502381Y179612D01*
X502468Y179645D01*
X502523Y179677D01*
X502534D01*
X502544Y179699D01*
X502599Y179754D01*
X502643Y179830D01*
X502654Y179885D01*
X502665Y179940D01*
Y179950D01*
Y179961D01*
X502654Y180005D01*
X502643Y180060D01*
X502610Y180104D01*
X502599Y180114D01*
X502577Y180125D01*
X502523Y180136D01*
X502457Y180147D01*
X501922D01*
Y177961D01*
X501441D01*
X501200Y178082D01*
Y180814D01*
X502566D01*
X502643Y180803D01*
D02*
G37*
G36*
X520044Y177961D02*
X519366D01*
Y179776D01*
X518841Y177961D01*
X518273D01*
X517737Y179776D01*
Y177961D01*
X517060D01*
Y180814D01*
X517748D01*
X518568Y178836D01*
X519355Y180814D01*
X520044D01*
Y177961D01*
D02*
G37*
G36*
X500052Y177961D02*
X499364D01*
Y179776D01*
X498850Y177961D01*
X498271D01*
X497746Y179776D01*
Y177961D01*
X497298D01*
X497058Y178082D01*
Y180814D01*
X497768D01*
X498566Y178836D01*
X499375Y180814D01*
X500052D01*
Y177961D01*
D02*
G37*
G36*
X514032Y180705D02*
Y180158D01*
X513278D01*
Y177961D01*
X512556D01*
Y180158D01*
X511802D01*
Y180814D01*
X514032D01*
Y180705D01*
D02*
G37*
G36*
X509102Y177961D02*
X508381D01*
X508075Y178672D01*
X507168D01*
X507365Y179317D01*
X507867D01*
X507572Y180082D01*
X506807Y178049D01*
X506753Y178016D01*
X506075Y177961D01*
X507233Y180814D01*
X507922D01*
X509102Y177961D01*
D02*
G37*
G36*
X496981Y177961D02*
X496249D01*
X495954Y178672D01*
X495047D01*
X495243Y179317D01*
X495735D01*
X495451Y180082D01*
X494664Y177961D01*
X493975D01*
Y177988D01*
X495123Y180814D01*
X495801D01*
X496981Y177961D01*
D02*
G37*
G36*
X493954Y180705D02*
Y180158D01*
X492642D01*
Y179721D01*
X493899D01*
Y179065D01*
X492631D01*
Y178606D01*
X493975D01*
Y177988D01*
X493964Y177961D01*
X491921D01*
Y180814D01*
X493954D01*
Y180705D01*
D02*
G37*
G36*
X491888D02*
Y180158D01*
X491123D01*
Y177961D01*
X490401D01*
Y180158D01*
X489647D01*
Y180814D01*
X491888D01*
Y180705D01*
D02*
G37*
G36*
X515529Y180825D02*
X515650Y180814D01*
X515814Y180792D01*
X515977Y180737D01*
X516152Y180672D01*
X516327Y180585D01*
X516469Y180453D01*
X516480Y180431D01*
X516524Y180388D01*
X516579Y180300D01*
X516655Y180180D01*
X516721Y180027D01*
X516775Y179841D01*
X516819Y179633D01*
X516830Y179382D01*
Y179371D01*
Y179349D01*
Y179317D01*
Y179262D01*
X516808Y179142D01*
X516786Y178978D01*
X516743Y178803D01*
X516677Y178628D01*
X516590Y178453D01*
X516469Y178300D01*
X516458Y178289D01*
X516404Y178245D01*
X516316Y178191D01*
X516207Y178125D01*
X516054Y178049D01*
X515879Y177994D01*
X515660Y177950D01*
X515409Y177939D01*
X515344D01*
X515300Y177950D01*
X515180Y177961D01*
X515027Y177983D01*
X514863Y178027D01*
X514688Y178092D01*
X514524Y178180D01*
X514371Y178300D01*
X514360Y178322D01*
X514316Y178366D01*
X514261Y178453D01*
X514196Y178573D01*
X514141Y178726D01*
X514097Y178912D01*
X514076Y179120D01*
X514087Y179371D01*
X513966Y179382D01*
Y179393D01*
Y179415D01*
Y179448D01*
X513977Y179502D01*
X513988Y179623D01*
X514010Y179776D01*
X514054Y179950D01*
X514119Y180125D01*
X514207Y180300D01*
X514327Y180453D01*
X514349Y180475D01*
X514393Y180519D01*
X514480Y180573D01*
X514600Y180650D01*
X514753Y180716D01*
X514939Y180781D01*
X515158Y180825D01*
X515409Y180836D01*
X515475D01*
X515529Y180825D01*
D02*
G37*
G36*
X520612Y176617D02*
X489057Y176617D01*
Y176956D01*
X489232Y177010D01*
X520612Y177065D01*
Y176617D01*
D02*
G37*
G36*
X506228Y176016D02*
X506326Y175994D01*
X506337D01*
X506348Y175983D01*
X506414Y175950D01*
X506512Y175896D01*
X506632Y175808D01*
X506425Y175469D01*
X506414D01*
X506403Y175480D01*
X506337Y175502D01*
X506250Y175535D01*
X506173Y175557D01*
X506162Y175568D01*
X506119Y175578D01*
X506064Y175590D01*
X505998D01*
X505966Y175578D01*
X505955D01*
X505911Y175557D01*
X505900Y175535D01*
Y175524D01*
Y175502D01*
Y175491D01*
Y175469D01*
X505911Y175458D01*
X505922Y175436D01*
X505944Y175426D01*
X505988D01*
X506020Y175415D01*
X506031Y175404D01*
X506075Y175393D01*
X506173D01*
X506239Y175382D01*
X506315Y175360D01*
X506392Y175327D01*
X506414Y175316D01*
X506447Y175294D01*
X506501Y175262D01*
X506556Y175207D01*
X506567Y175196D01*
X506589Y175152D01*
X506621Y175098D01*
X506643Y175032D01*
X506654Y175021D01*
X506665Y174977D01*
X506676Y174923D01*
Y174857D01*
Y174846D01*
Y174813D01*
X506665Y174759D01*
X506654Y174704D01*
X506632Y174638D01*
X506610Y174562D01*
X506567Y174496D01*
X506512Y174442D01*
X506501D01*
X506479Y174420D01*
X506447Y174398D01*
X506392Y174376D01*
X506326Y174354D01*
X506250Y174332D01*
X506151Y174322D01*
X506042Y174311D01*
X505977D01*
X505922Y174322D01*
X505813Y174332D01*
X505682Y174365D01*
X505670D01*
X505660Y174376D01*
X505627Y174398D01*
X505583Y174420D01*
X505539Y174453D01*
X505474Y174496D01*
X505419Y174551D01*
X505353Y174617D01*
X505616Y174923D01*
X505627D01*
X505638Y174901D01*
X505703Y174868D01*
X505791Y174813D01*
X505856Y174781D01*
X505867D01*
X505922Y174770D01*
X505966D01*
X506020Y174759D01*
X506162D01*
X506130Y174737D01*
X506108Y174715D01*
X506097Y174704D01*
X506162Y174759D01*
X506184Y174781D01*
X506195D01*
X506206Y174802D01*
X506217Y174824D01*
Y174857D01*
Y174868D01*
Y174879D01*
X506195Y174901D01*
X506184Y174912D01*
X506162Y174934D01*
X506130Y174945D01*
X506009D01*
X505988Y174955D01*
X505922Y174966D01*
X505900D01*
X505856Y174977D01*
X505791Y174999D01*
X505714Y175021D01*
X505703Y175032D01*
X505660Y175054D01*
X505616Y175098D01*
X505572Y175141D01*
X505561Y175152D01*
X505528Y175196D01*
X505496Y175240D01*
X505463Y175305D01*
Y175327D01*
X505452Y175371D01*
X505441Y175426D01*
X505430Y175502D01*
Y175513D01*
Y175524D01*
Y175578D01*
X505441Y175644D01*
X505463Y175721D01*
X505474Y175742D01*
X505496Y175775D01*
X505539Y175841D01*
X505605Y175896D01*
X505616Y175906D01*
X505660Y175939D01*
X505714Y175972D01*
X505791Y176005D01*
X505813Y176016D01*
X505867Y176027D01*
X505944Y176038D01*
X506141D01*
X506228Y176016D01*
D02*
G37*
G36*
X491330Y176016D02*
X491429Y175994D01*
X491440D01*
X491451Y175983D01*
X491516Y175950D01*
X491614Y175896D01*
X491735Y175808D01*
X491527Y175469D01*
X491516D01*
X491505Y175480D01*
X491440Y175502D01*
X491352Y175535D01*
X491276Y175557D01*
X491265Y175568D01*
X491221Y175578D01*
X491166Y175589D01*
X491090D01*
X491068Y175578D01*
X491057D01*
X491013Y175557D01*
X491003Y175535D01*
Y175524D01*
X490991Y175502D01*
Y175491D01*
Y175480D01*
X491003Y175469D01*
X491024Y175436D01*
X491046Y175426D01*
X491090D01*
X491123Y175415D01*
X491134Y175404D01*
X491166Y175393D01*
X491276D01*
X491341Y175382D01*
X491418Y175360D01*
X491494Y175327D01*
X491516Y175316D01*
X491549Y175294D01*
X491604Y175261D01*
X491658Y175207D01*
X491669Y175196D01*
X491691Y175152D01*
X491724Y175098D01*
X491746Y175032D01*
X491757Y175021D01*
X491768Y174977D01*
X491779Y174934D01*
Y174879D01*
Y174868D01*
Y174835D01*
X491768Y174781D01*
X491757Y174715D01*
X491735Y174638D01*
X491702Y174573D01*
X491658Y174496D01*
X491604Y174442D01*
X491593D01*
X491571Y174420D01*
X491538Y174398D01*
X491483Y174376D01*
X491418Y174354D01*
X491341Y174332D01*
X491254Y174322D01*
X491145Y174311D01*
X491079D01*
X491024Y174322D01*
X490915Y174332D01*
X490784Y174365D01*
X490773D01*
X490762Y174376D01*
X490729Y174398D01*
X490686Y174420D01*
X490631Y174453D01*
X490576Y174496D01*
X490511Y174551D01*
X490445Y174617D01*
X490718Y174923D01*
X490729D01*
X490740Y174901D01*
X490806Y174868D01*
X490882Y174813D01*
X490948Y174781D01*
X490970D01*
X491024Y174770D01*
X491068D01*
X491123Y174759D01*
X491265D01*
X491232Y174737D01*
X491210Y174715D01*
X491199Y174704D01*
X491265Y174759D01*
X491287Y174781D01*
X491298D01*
X491308Y174802D01*
X491319Y174824D01*
Y174857D01*
Y174868D01*
X491298Y174901D01*
X491276Y174912D01*
X491254Y174934D01*
X491221Y174945D01*
X491123D01*
X491101Y174955D01*
X491024Y174966D01*
X491003D01*
X490959Y174977D01*
X490893Y174999D01*
X490817Y175021D01*
X490806Y175032D01*
X490762Y175054D01*
X490718Y175087D01*
X490664Y175130D01*
X490653Y175152D01*
X490631Y175185D01*
X490587Y175251D01*
X490554Y175305D01*
Y175316D01*
X490543Y175360D01*
X490532Y175426D01*
X490521Y175502D01*
Y175513D01*
Y175524D01*
X490532Y175578D01*
X490543Y175644D01*
X490565Y175721D01*
X490576Y175742D01*
X490598Y175775D01*
X490631Y175830D01*
X490686Y175884D01*
X490696Y175896D01*
X490740Y175928D01*
X490806Y175972D01*
X490882Y176005D01*
X490893D01*
X490904Y176016D01*
X490959Y176027D01*
X491035Y176038D01*
X491232D01*
X491330Y176016D01*
D02*
G37*
G36*
X519027Y176016D02*
X519114Y175994D01*
X519136Y175983D01*
X519180Y175972D01*
X519246Y175928D01*
X519311Y175874D01*
X519322Y175863D01*
X519355Y175830D01*
X519399Y175786D01*
X519442Y175721D01*
X519453Y175699D01*
X519464Y175677D01*
X519475Y175644D01*
X519486Y175590D01*
X519497Y175535D01*
X519508Y175458D01*
X519519Y175371D01*
X519060D01*
Y175382D01*
Y175393D01*
X519038Y175436D01*
X519027Y175480D01*
X519016Y175513D01*
X519005Y175524D01*
X518983Y175557D01*
X518972Y175568D01*
X518918Y175578D01*
X518907D01*
X518896Y175590D01*
X518852D01*
X518819Y175578D01*
X518797D01*
X518786Y175568D01*
X518765Y175546D01*
X518754Y175535D01*
X518732Y175513D01*
X518721Y175502D01*
X518710Y175491D01*
Y175480D01*
Y175458D01*
Y175447D01*
X518699Y175426D01*
X518688Y175360D01*
Y175349D01*
Y175316D01*
Y175262D01*
Y175185D01*
Y175163D01*
Y175109D01*
Y175054D01*
Y174999D01*
Y174988D01*
X518699Y174966D01*
X518710Y174890D01*
Y174879D01*
Y174846D01*
X518721D01*
X518732Y174835D01*
X518743Y174824D01*
X518765Y174802D01*
X518776Y174792D01*
X518797Y174781D01*
X518808Y174770D01*
X518830Y174759D01*
X518907D01*
X518939Y174770D01*
X518961Y174792D01*
X518972Y174802D01*
X518994Y174824D01*
X519027Y174879D01*
X519071Y174966D01*
X519519D01*
Y174857D01*
Y174846D01*
X519508Y174835D01*
X519486Y174759D01*
X519464Y174682D01*
X519420Y174595D01*
X519410Y174584D01*
X519388Y174540D01*
X519333Y174486D01*
X519278Y174431D01*
X519267Y174420D01*
X519224Y174398D01*
X519158Y174376D01*
X519093Y174343D01*
X519071D01*
X519027Y174332D01*
X518961Y174322D01*
X518874Y174311D01*
X518808D01*
X518743Y174322D01*
X518677Y174332D01*
X518666D01*
X518634Y174354D01*
X518579Y174365D01*
X518513Y174398D01*
X518502Y174409D01*
X518469Y174442D01*
X518426Y174486D01*
X518382Y174518D01*
Y174529D01*
X518360Y174551D01*
X518306Y174617D01*
Y174628D01*
X518295Y174638D01*
X518273Y174682D01*
Y174693D01*
X518262Y174704D01*
Y174715D01*
Y174726D01*
X518251Y174748D01*
Y174759D01*
Y174770D01*
X518240Y174813D01*
Y174824D01*
X518229Y174846D01*
Y174879D01*
X518218Y174945D01*
Y174966D01*
Y175010D01*
Y175087D01*
Y175185D01*
Y175196D01*
Y175207D01*
Y175262D01*
Y175338D01*
Y175404D01*
Y175426D01*
X518229Y175458D01*
Y175502D01*
X518240Y175546D01*
Y175557D01*
Y175578D01*
X518262Y175633D01*
Y175644D01*
X518273Y175666D01*
X518295Y175721D01*
X518306Y175732D01*
X518328Y175764D01*
X518393Y175841D01*
X518404Y175852D01*
X518426Y175874D01*
X518480Y175928D01*
X518502Y175939D01*
X518546Y175961D01*
X518612Y175994D01*
X518677Y176016D01*
X518699D01*
X518743Y176027D01*
X518797Y176038D01*
X518951D01*
X519027Y176016D01*
D02*
G37*
G36*
X500632Y174322D02*
X500162D01*
Y174783D01*
X500052Y174529D01*
X499703D01*
X499582Y174808D01*
Y174322D01*
X499113D01*
Y175917D01*
X499298Y175972D01*
X499528Y176027D01*
X499878Y175076D01*
X500216Y176027D01*
X500632D01*
Y174322D01*
D02*
G37*
G36*
X502085Y174934D02*
Y174923D01*
Y174912D01*
X502074Y174857D01*
X502064Y174770D01*
X502031Y174682D01*
X502020Y174660D01*
X501998Y174617D01*
X501943Y174551D01*
X501889Y174475D01*
X501878Y174464D01*
X501834Y174431D01*
X501768Y174387D01*
X501681Y174343D01*
X501659D01*
X501605Y174332D01*
X501528Y174322D01*
X501430Y174311D01*
X501342D01*
X501266Y174322D01*
X501178Y174343D01*
X501156Y174354D01*
X501113Y174376D01*
X501036Y174420D01*
X500960Y174486D01*
X500949Y174496D01*
X500905Y174540D01*
X500861Y174606D01*
X500818Y174682D01*
X500807Y174704D01*
X500796Y174759D01*
X500785Y174835D01*
X500774Y174934D01*
Y175917D01*
X500960Y175972D01*
X501244Y176027D01*
Y174966D01*
Y174955D01*
Y174934D01*
Y174901D01*
X501255Y174868D01*
X501266Y174846D01*
X501299Y174813D01*
X501309D01*
X501320Y174792D01*
X501353Y174770D01*
X501375D01*
X501397Y174759D01*
X501451D01*
X501495Y174770D01*
X501506D01*
X501517Y174781D01*
X501550Y174802D01*
X501561Y174813D01*
X501572Y174824D01*
X501594Y174868D01*
Y174879D01*
X501605Y174901D01*
X501615Y174966D01*
Y176027D01*
X502085D01*
Y174934D01*
D02*
G37*
G36*
X494380D02*
Y174923D01*
Y174912D01*
X494369Y174857D01*
X494358Y174770D01*
X494325Y174682D01*
X494314Y174660D01*
X494292Y174617D01*
X494249Y174551D01*
X494194Y174475D01*
X494183Y174464D01*
X494139Y174431D01*
X494074Y174387D01*
X493986Y174343D01*
X493964D01*
X493910Y174332D01*
X493833Y174322D01*
X493735Y174311D01*
X493647D01*
X493571Y174322D01*
X493484Y174343D01*
X493462Y174354D01*
X493418Y174376D01*
X493341Y174420D01*
X493265Y174486D01*
X493254Y174496D01*
X493210Y174540D01*
X493167Y174606D01*
X493123Y174682D01*
X493112Y174704D01*
X493101Y174759D01*
X493090Y174835D01*
X493079Y174934D01*
Y175917D01*
X493265Y175972D01*
X493549Y176027D01*
Y174966D01*
Y174955D01*
Y174934D01*
Y174901D01*
X493560Y174868D01*
X493571Y174846D01*
X493604Y174813D01*
X493615D01*
X493626Y174792D01*
X493658Y174770D01*
X493680D01*
X493702Y174759D01*
X493757D01*
X493800Y174770D01*
X493812D01*
X493822Y174781D01*
X493855Y174813D01*
X493866D01*
X493877Y174824D01*
X493899Y174868D01*
Y174879D01*
X493910Y174901D01*
X493921Y174966D01*
Y176027D01*
X494380D01*
Y174934D01*
D02*
G37*
G36*
X504851Y174322D02*
X504403D01*
X504383Y174699D01*
X503900Y174650D01*
X503791Y174322D01*
X503430D01*
Y174579D01*
X503342Y174322D01*
X502239D01*
Y175917D01*
X502413Y175972D01*
X502687Y176027D01*
Y174759D01*
X503430D01*
Y174579D01*
X503922Y176027D01*
X504272D01*
X504851Y174322D01*
D02*
G37*
G36*
X518098Y174322D02*
X517628D01*
Y176027D01*
X518098D01*
Y174322D01*
D02*
G37*
G36*
X517092Y176016D02*
X517158Y175994D01*
X517180D01*
X517213Y175972D01*
X517278Y175950D01*
X517333Y175917D01*
X517344Y175906D01*
X517387Y175863D01*
X517420Y175797D01*
X517464Y175732D01*
X517475Y175710D01*
X517497Y175666D01*
X517508Y175600D01*
X517519Y175513D01*
Y175502D01*
Y175480D01*
Y175447D01*
X517508Y175404D01*
X517475Y175294D01*
X517420Y175185D01*
X517409Y175163D01*
X517366Y175119D01*
X517300Y175065D01*
X517235Y175032D01*
X517573Y174322D01*
X517125D01*
X516808Y174955D01*
X516721D01*
Y174322D01*
X516251D01*
Y175917D01*
X516437Y175972D01*
X516950Y176027D01*
X517027D01*
X517092Y176016D01*
D02*
G37*
G36*
X514589Y176027D02*
X514666Y176005D01*
X514677D01*
X514688Y175994D01*
X514742Y175972D01*
X514808Y175939D01*
X514885Y175874D01*
X514895Y175863D01*
X514928Y175830D01*
X514950Y175803D01*
Y175611D01*
X515030Y175619D01*
X515027Y175633D01*
X515016Y175666D01*
Y175688D01*
X515005Y175710D01*
X514972Y175775D01*
X514950Y175803D01*
Y176027D01*
X516229D01*
Y175611D01*
X515825D01*
Y174322D01*
X515354D01*
Y175649D01*
X515030Y175619D01*
X515037Y175590D01*
X515059Y175535D01*
X515070Y175458D01*
X515081Y175371D01*
X514622D01*
Y175393D01*
X514611Y175426D01*
X514600Y175469D01*
X514578Y175502D01*
Y175513D01*
X514568Y175524D01*
X514535Y175557D01*
X514524Y175568D01*
X514513D01*
X514480Y175578D01*
X514469Y175590D01*
X514426D01*
X514382Y175578D01*
X514360D01*
X514349Y175568D01*
X514316Y175546D01*
X514305Y175535D01*
X514283Y175513D01*
X514272Y175491D01*
Y175480D01*
X514261Y175436D01*
Y175426D01*
X514251Y175393D01*
Y175349D01*
Y175338D01*
Y175305D01*
Y175251D01*
Y175185D01*
Y175163D01*
Y175119D01*
Y175065D01*
Y174999D01*
Y174988D01*
Y174966D01*
X514261Y174890D01*
X514272Y174879D01*
Y174857D01*
X514283Y174846D01*
Y174835D01*
X514294Y174824D01*
X514316Y174802D01*
X514327Y174792D01*
X514349D01*
X514371Y174781D01*
X514382Y174770D01*
X514393Y174759D01*
X514469D01*
X514502Y174770D01*
X514535Y174792D01*
X514546Y174802D01*
X514568Y174824D01*
X514600Y174879D01*
X514644Y174966D01*
X515081D01*
Y174857D01*
Y174846D01*
X515070Y174835D01*
X515059Y174770D01*
X515027Y174682D01*
X514994Y174595D01*
X514983Y174584D01*
X514961Y174540D01*
X514906Y174486D01*
X514852Y174442D01*
X514830Y174431D01*
X514786Y174409D01*
X514721Y174376D01*
X514644Y174343D01*
X514622D01*
X514578Y174332D01*
X514513Y174322D01*
X514436Y174311D01*
X514371D01*
X514305Y174322D01*
X514240Y174332D01*
X514229D01*
X514185Y174354D01*
X514130Y174376D01*
X514076Y174409D01*
X514065Y174420D01*
X514032Y174453D01*
X513988Y174486D01*
X513955Y174518D01*
X513944Y174529D01*
X513923Y174551D01*
X513890Y174584D01*
X513846Y174638D01*
Y174650D01*
Y174660D01*
X513835Y174682D01*
Y174693D01*
X513824Y174704D01*
Y174715D01*
Y174726D01*
X513813Y174748D01*
Y174759D01*
Y174770D01*
X513802Y174813D01*
Y174824D01*
Y174846D01*
X513792Y174890D01*
Y174945D01*
Y174966D01*
Y175010D01*
Y175087D01*
Y175185D01*
Y175196D01*
Y175207D01*
Y175262D01*
Y175327D01*
Y175393D01*
Y175415D01*
Y175447D01*
Y175502D01*
X513802Y175546D01*
Y175557D01*
X513813Y175568D01*
X513824Y175622D01*
Y175633D01*
X513835Y175655D01*
X513857Y175721D01*
X513868Y175732D01*
X513879Y175753D01*
X513912Y175786D01*
X513944Y175830D01*
X513955Y175841D01*
X513988Y175874D01*
X514032Y175906D01*
X514076Y175939D01*
X514087Y175950D01*
X514130Y175972D01*
X514174Y175994D01*
X514240Y176016D01*
X514261D01*
X514305Y176027D01*
X514360Y176038D01*
X514513D01*
X514589Y176027D01*
D02*
G37*
G36*
X513759Y175590D02*
X513037D01*
Y175393D01*
X513660D01*
Y174966D01*
X513037D01*
Y174759D01*
X513759D01*
Y174322D01*
X512567D01*
Y175917D01*
X512742Y175972D01*
X513759Y176027D01*
Y175590D01*
D02*
G37*
G36*
X511769Y174759D02*
X512491D01*
Y174322D01*
X511300D01*
Y175917D01*
X511485Y175972D01*
X511769Y176027D01*
Y174759D01*
D02*
G37*
G36*
X511223Y175590D02*
X510502D01*
Y175393D01*
X511125D01*
Y174966D01*
X510502D01*
Y174759D01*
X511223D01*
Y174322D01*
X510032D01*
Y175917D01*
X510217Y175972D01*
X511223Y176027D01*
Y175590D01*
D02*
G37*
G36*
X509354D02*
X508622D01*
Y175393D01*
X509245D01*
Y174966D01*
X508622D01*
Y174759D01*
X509354D01*
Y174322D01*
X508163D01*
Y175917D01*
X508337Y175972D01*
X509354Y176027D01*
Y175590D01*
D02*
G37*
G36*
X508141Y174322D02*
X507693D01*
X507673Y174699D01*
X507190Y174650D01*
X507081Y174322D01*
X506632D01*
X507212Y176027D01*
X507561D01*
X508141Y174322D01*
D02*
G37*
G36*
X498577Y176016D02*
X498642Y175994D01*
X498664D01*
X498697Y175972D01*
X498763Y175950D01*
X498817Y175917D01*
X498839Y175906D01*
X498872Y175863D01*
X498916Y175797D01*
X498959Y175732D01*
X498970Y175710D01*
X498981Y175666D01*
X499003Y175589D01*
X499014Y175502D01*
Y175491D01*
Y175469D01*
Y175436D01*
X499003Y175393D01*
X498970Y175294D01*
X498916Y175185D01*
X498905Y175163D01*
X498861Y175119D01*
X498796Y175065D01*
X498719Y175032D01*
X499069Y174322D01*
X498610D01*
X498304Y174955D01*
X498205D01*
Y174322D01*
X497735D01*
Y176027D01*
X498511D01*
X498577Y176016D01*
D02*
G37*
G36*
X496325Y175589D02*
X495604D01*
Y175382D01*
X496227D01*
Y174955D01*
X495604D01*
Y174322D01*
X495134D01*
Y176027D01*
X496325D01*
Y175589D01*
D02*
G37*
G36*
X493068D02*
X492347D01*
Y175382D01*
X492970D01*
Y174955D01*
X492347D01*
Y174322D01*
X491877D01*
Y176027D01*
X493068D01*
Y175589D01*
D02*
G37*
G36*
X497090Y176027D02*
X497156Y176016D01*
X497178D01*
X497211Y175994D01*
X497276Y175972D01*
X497331Y175928D01*
X497342Y175917D01*
X497375Y175906D01*
X497407Y175874D01*
X497451Y175830D01*
X497462Y175819D01*
X497484Y175797D01*
X497539Y175721D01*
Y175710D01*
X497549Y175688D01*
X497571Y175622D01*
Y175611D01*
X497582Y175600D01*
X497604Y175535D01*
Y175524D01*
Y175491D01*
Y175436D01*
Y175371D01*
Y175360D01*
X497615Y175316D01*
Y175251D01*
Y175185D01*
Y175163D01*
Y175119D01*
Y175043D01*
X497604Y174977D01*
Y174966D01*
Y174934D01*
Y174879D01*
Y174813D01*
Y174802D01*
X497593Y174781D01*
X497571Y174715D01*
Y174704D01*
X497561Y174682D01*
X497528Y174628D01*
Y174617D01*
X497506Y174595D01*
X497484Y174562D01*
X497451Y174518D01*
X497440Y174507D01*
X497418Y174486D01*
X497375Y174453D01*
X497331Y174409D01*
X497320Y174398D01*
X497276Y174376D01*
X497222Y174354D01*
X497156Y174332D01*
X497145D01*
X497101Y174322D01*
X497036Y174311D01*
X496894D01*
X496828Y174322D01*
X496763Y174332D01*
X496752D01*
X496719Y174354D01*
X496664Y174376D01*
X496599Y174409D01*
X496588Y174420D01*
X496555Y174442D01*
X496467Y174518D01*
X496456Y174529D01*
X496446Y174551D01*
X496391Y174628D01*
Y174638D01*
X496380Y174650D01*
Y174660D01*
X496369D01*
Y174671D01*
X496347Y174704D01*
Y174715D01*
Y174726D01*
Y174748D01*
X496336Y174759D01*
Y174770D01*
X496325Y174802D01*
Y174813D01*
Y174846D01*
Y174890D01*
X496314Y174955D01*
Y174966D01*
Y175021D01*
Y175087D01*
Y175185D01*
Y175196D01*
Y175207D01*
Y175261D01*
Y175327D01*
Y175393D01*
Y175404D01*
X496325Y175447D01*
Y175491D01*
Y175546D01*
Y175557D01*
X496336Y175568D01*
X496347Y175622D01*
Y175633D01*
X496358Y175655D01*
X496391Y175721D01*
Y175732D01*
X496413Y175753D01*
X496435Y175786D01*
X496467Y175830D01*
X496478Y175841D01*
X496511Y175874D01*
X496555Y175906D01*
X496599Y175939D01*
X496610Y175950D01*
X496653Y175972D01*
X496697Y175994D01*
X496763Y176016D01*
X496784D01*
X496828Y176027D01*
X496883Y176038D01*
X497025D01*
X497090Y176027D01*
D02*
G37*
G36*
X485844Y182377D02*
X485865Y182355D01*
X485898Y182322D01*
X485942Y182268D01*
X485996Y182202D01*
X486062Y182126D01*
X486128Y182027D01*
X486204Y181929D01*
X486357Y181699D01*
X486521Y181448D01*
X486685Y181164D01*
X486816Y180858D01*
Y180847D01*
X486827Y180825D01*
X486849Y180781D01*
X486871Y180716D01*
X486893Y180639D01*
X486926Y180552D01*
X486958Y180453D01*
X486991Y180344D01*
X487057Y180082D01*
X487122Y179797D01*
X487166Y179481D01*
X487199Y179153D01*
Y179142D01*
Y179109D01*
Y179065D01*
Y179000D01*
Y178923D01*
Y178825D01*
Y178715D01*
Y178606D01*
X487177Y178333D01*
X487133Y178038D01*
X487079Y177721D01*
X486991Y177393D01*
Y177382D01*
X486980Y177360D01*
X486969Y177305D01*
X486947Y177251D01*
X486915Y177174D01*
X486882Y177087D01*
X486849Y176978D01*
X486805Y176868D01*
X486696Y176628D01*
X486565Y176355D01*
X486412Y176081D01*
X486226Y175797D01*
X486215Y175786D01*
X486204Y175764D01*
X486171Y175732D01*
X486128Y175677D01*
X486084Y175611D01*
X486018Y175546D01*
X485876Y175371D01*
X485690Y175174D01*
X485472Y174977D01*
X485231Y174759D01*
X484958Y174562D01*
X484947Y174551D01*
X484925Y174540D01*
X484882Y174518D01*
X484827Y174475D01*
X484761Y174431D01*
X484674Y174387D01*
X484586Y174332D01*
X484477Y174278D01*
X484237Y174158D01*
X483963Y174026D01*
X483668Y173906D01*
X483352Y173808D01*
X483341D01*
X483297Y173797D01*
X483220Y173775D01*
X483133Y173753D01*
X483035Y173731D01*
X482914Y173709D01*
X482663Y173666D01*
X482652D01*
X482608Y173655D01*
X482543D01*
X482466Y173644D01*
X482368Y173633D01*
X482269D01*
X482073Y173622D01*
X482018Y173677D01*
X481963D01*
X481920Y173666D01*
X481493D01*
X481308Y173677D01*
X481111Y173688D01*
X480914Y173720D01*
X480903D01*
X480892Y173731D01*
X480827Y173742D01*
X480717Y173764D01*
X480586Y173808D01*
X480422Y173852D01*
X480247Y173917D01*
X480051Y173994D01*
X479843Y174081D01*
X479985Y174475D01*
X479996D01*
X480029Y174464D01*
X480072Y174442D01*
X480138Y174420D01*
X480215Y174387D01*
X480313Y174365D01*
X480422Y174332D01*
X480532Y174300D01*
X480794Y174223D01*
X481078Y174158D01*
X481384Y174114D01*
X481690Y174081D01*
X482182D01*
X482422Y174103D01*
X482685Y174136D01*
X482958Y174179D01*
X483242Y174245D01*
X483253D01*
X483275Y174256D01*
X483319Y174267D01*
X483373Y174289D01*
X483439Y174311D01*
X483515Y174343D01*
X483712Y174420D01*
X483931Y174507D01*
X484171Y174628D01*
X484434Y174781D01*
X484685Y174945D01*
X484696D01*
X484718Y174966D01*
X484751Y174988D01*
X484794Y175021D01*
X484914Y175109D01*
X485068Y175240D01*
X485253Y175382D01*
X485439Y175557D01*
X485625Y175753D01*
X485811Y175961D01*
X485822Y175972D01*
X485833Y175994D01*
X485865Y176038D01*
X485898Y176092D01*
X485942Y176169D01*
X485986Y176256D01*
X486040Y176355D01*
X486095Y176464D01*
X486226Y176704D01*
X486346Y176978D01*
X486467Y177273D01*
X486565Y177579D01*
Y177590D01*
X486576Y177611D01*
X486587Y177655D01*
X486598Y177710D01*
X486620Y177775D01*
X486630Y177863D01*
X486652Y177950D01*
X486674Y178049D01*
X486707Y178289D01*
X486729Y178541D01*
X486740Y178825D01*
Y179109D01*
Y179120D01*
Y179142D01*
Y179185D01*
X486729Y179240D01*
Y179317D01*
X486718Y179393D01*
X486707Y179491D01*
X486685Y179601D01*
X486641Y179830D01*
X486587Y180093D01*
X486510Y180366D01*
X486412Y180650D01*
Y180661D01*
X486401Y180683D01*
X486379Y180727D01*
X486357Y180781D01*
X486324Y180847D01*
X486281Y180923D01*
X486182Y181120D01*
X486062Y181339D01*
X485909Y181590D01*
X485723Y181852D01*
X485516Y182115D01*
X485833Y182388D01*
X485844Y182377D01*
D02*
G37*
G36*
X486827Y184683D02*
Y184650D01*
Y184607D01*
X486838Y184574D01*
X486849Y184563D01*
X486860Y184530D01*
Y184476D01*
X486849Y184465D01*
X486838Y184443D01*
X486805Y184410D01*
X486762Y184366D01*
X486652Y184246D01*
X486510Y184093D01*
X486346Y183907D01*
X486161Y183700D01*
X485964Y183481D01*
X485767Y183251D01*
X485756Y183240D01*
X485745Y183229D01*
X485712Y183197D01*
X485680Y183153D01*
X485570Y183033D01*
X485439Y182880D01*
X485286Y182705D01*
X485100Y182508D01*
X484914Y182290D01*
X484718Y182071D01*
X484707Y182060D01*
X484696Y182049D01*
X484663Y182016D01*
X484630Y181973D01*
X484521Y181852D01*
X484390Y181699D01*
X484226Y181524D01*
X484040Y181317D01*
X483854Y181109D01*
X483647Y180880D01*
X483636Y180869D01*
X483625Y180858D01*
X483592Y180825D01*
X483559Y180781D01*
X483450Y180661D01*
X483319Y180519D01*
X483155Y180355D01*
X482980Y180180D01*
X482794Y179994D01*
X482608Y179819D01*
X482630D01*
X482663Y179808D01*
X482707Y179797D01*
X482816Y179776D01*
X482958Y179743D01*
X483122Y179699D01*
X483319Y179645D01*
X483537Y179590D01*
X483767Y179535D01*
X483778D01*
X483800Y179524D01*
X483832D01*
X483876Y179502D01*
X483931Y179491D01*
X484007Y179470D01*
X484171Y179426D01*
X484368Y179371D01*
X484597Y179306D01*
X484849Y179229D01*
X485122Y179142D01*
X485111Y179131D01*
X485100Y179109D01*
X485068Y179065D01*
X485035Y179022D01*
X484958Y178923D01*
X484925Y178890D01*
X484893Y178858D01*
X484882Y178847D01*
X484860Y178825D01*
X484816Y178792D01*
X484761Y178748D01*
X484751Y178737D01*
X484718Y178715D01*
X484663Y178683D01*
X484597Y178628D01*
X484510Y178562D01*
X484401Y178486D01*
X484280Y178399D01*
X484149Y178311D01*
X484007Y178202D01*
X483843Y178092D01*
X483668Y177972D01*
X483494Y177852D01*
X483100Y177590D01*
X482685Y177316D01*
X482674Y177305D01*
X482641Y177284D01*
X482597Y177251D01*
X482521Y177196D01*
X482433Y177131D01*
X482335Y177054D01*
X482226Y176967D01*
X482094Y176868D01*
X481963Y176770D01*
X481810Y176650D01*
X481493Y176409D01*
X481144Y176158D01*
X480794Y175884D01*
X480783Y175874D01*
X480750Y175852D01*
X480695Y175819D01*
X480630Y175764D01*
X480543Y175699D01*
X480444Y175622D01*
X480324Y175535D01*
X480204Y175436D01*
X480061Y175338D01*
X479919Y175229D01*
X479592Y174988D01*
X479253Y174726D01*
X478903Y174464D01*
X478892Y174453D01*
X478870Y174431D01*
X478826Y174398D01*
X478772Y174343D01*
X478695Y174278D01*
X478619Y174212D01*
X478520Y174125D01*
X478411Y174037D01*
X478291Y173928D01*
X478160Y173819D01*
X477865Y173589D01*
X477548Y173338D01*
X477198Y173075D01*
X477187Y173065D01*
X477154Y173043D01*
X477089Y173010D01*
X477001Y172955D01*
X476979Y172944D01*
X476925Y172923D01*
X476892D01*
X476859Y172933D01*
X476826Y172955D01*
X476793Y172988D01*
Y172999D01*
Y173010D01*
X476783Y173075D01*
X476793Y173163D01*
X476815Y173196D01*
X476837Y173229D01*
X476859Y173240D01*
X476892Y173272D01*
X476946Y173316D01*
X477001Y173360D01*
X477023Y173382D01*
X477078Y173436D01*
X477154Y173524D01*
X477263Y173633D01*
X477395Y173764D01*
X477537Y173928D01*
X477690Y174092D01*
X477854Y174267D01*
X477876Y174289D01*
X477930Y174343D01*
X478018Y174442D01*
X478127Y174562D01*
X478258Y174693D01*
X478411Y174857D01*
X478564Y175032D01*
X478739Y175207D01*
X478750Y175218D01*
X478761Y175229D01*
X478816Y175294D01*
X478903Y175382D01*
X479023Y175513D01*
X479165Y175655D01*
X479318Y175819D01*
X479646Y176158D01*
X479668Y176180D01*
X479712Y176234D01*
X479788Y176322D01*
X479887Y176431D01*
X479996Y176562D01*
X480138Y176715D01*
X480280Y176868D01*
X480444Y177043D01*
X480455Y177054D01*
X480466Y177076D01*
X480499Y177109D01*
X480543Y177152D01*
X480641Y177262D01*
X480761Y177393D01*
X480772Y177404D01*
X480794Y177426D01*
X480827Y177459D01*
X480881Y177502D01*
X480947Y177557D01*
X481023Y177611D01*
X481111Y177677D01*
X481209Y177743D01*
X481078Y177721D01*
X481056D01*
X480991Y177743D01*
X480892Y177754D01*
X480772Y177786D01*
X480619Y177819D01*
X480455Y177863D01*
X480105Y177961D01*
X480083Y177972D01*
X480018Y177994D01*
X479919Y178027D01*
X479799Y178071D01*
X479635Y178136D01*
X479449Y178202D01*
X479242Y178278D01*
X479023Y178366D01*
X479034Y178377D01*
X479067Y178409D01*
X479122Y178453D01*
X479198Y178519D01*
X479285Y178606D01*
X479384Y178694D01*
X479504Y178803D01*
X479635Y178923D01*
X479788Y179043D01*
X479930Y179185D01*
X480269Y179459D01*
X480608Y179754D01*
X480969Y180049D01*
X480980Y180060D01*
X481012Y180082D01*
X481067Y180125D01*
X481133Y180180D01*
X481220Y180246D01*
X481319Y180333D01*
X481439Y180420D01*
X481559Y180530D01*
X481701Y180639D01*
X481854Y180759D01*
X482171Y181022D01*
X482510Y181306D01*
X482860Y181590D01*
X482870Y181601D01*
X482903Y181623D01*
X482958Y181667D01*
X483024Y181721D01*
X483111Y181798D01*
X483209Y181874D01*
X483330Y181973D01*
X483450Y182071D01*
X483592Y182191D01*
X483745Y182311D01*
X484062Y182563D01*
X484401Y182847D01*
X484751Y183131D01*
X484761Y183142D01*
X484794Y183164D01*
X484849Y183208D01*
X484914Y183262D01*
X485002Y183339D01*
X485111Y183415D01*
X485231Y183514D01*
X485363Y183623D01*
X485516Y183732D01*
X485669Y183853D01*
X485844Y183984D01*
X486018Y184126D01*
X486412Y184410D01*
X486827Y184705D01*
Y184683D01*
D02*
G37*
%LPC*%
G36*
X434521Y181768D02*
X432917Y178069D01*
X434302D01*
X434521Y181768D01*
D02*
G37*
G36*
X515409Y180169D02*
X515354D01*
X515289Y180158D01*
X515212Y180147D01*
X515125Y180125D01*
X515037Y180093D01*
X514961Y180049D01*
X514885Y179983D01*
X514874Y179972D01*
X514863Y179950D01*
X514830Y179907D01*
X514808Y179841D01*
X514775Y179754D01*
X514742Y179655D01*
X514732Y179535D01*
X514721Y179393D01*
Y179371D01*
Y179327D01*
X514732Y179251D01*
X514742Y179164D01*
X514764Y179065D01*
X514786Y178956D01*
X514830Y178868D01*
X514885Y178781D01*
X514895Y178770D01*
X514917Y178748D01*
X514961Y178715D01*
X515016Y178683D01*
X515092Y178650D01*
X515180Y178617D01*
X515289Y178595D01*
X515409Y178584D01*
X515464D01*
X515529Y178595D01*
X515595Y178606D01*
X515682Y178628D01*
X515770Y178672D01*
X515846Y178715D01*
X515912Y178781D01*
X515923Y178792D01*
X515945Y178814D01*
X515967Y178868D01*
X515999Y178934D01*
X516032Y179022D01*
X516065Y179120D01*
X516076Y179251D01*
X516087Y179393D01*
Y179415D01*
Y179459D01*
X516076Y179535D01*
X516065Y179623D01*
X516043Y179710D01*
X516010Y179808D01*
X515967Y179907D01*
X515912Y179983D01*
X515901Y179994D01*
X515879Y180016D01*
X515846Y180038D01*
X515792Y180082D01*
X515715Y180114D01*
X515628Y180136D01*
X515529Y180158D01*
X515409Y180169D01*
D02*
G37*
G36*
X504435Y175076D02*
X504175D01*
X504195Y174966D01*
X504435Y175076D01*
D02*
G37*
G36*
X516994Y175611D02*
X516721D01*
Y175340D01*
X516939Y175382D01*
X517005D01*
X517016Y175393D01*
X517049Y175415D01*
X517060Y175426D01*
Y175447D01*
X517070Y175469D01*
Y175513D01*
Y175524D01*
Y175535D01*
X517060Y175557D01*
X517049Y175568D01*
X517038Y175590D01*
X517027D01*
X517005Y175600D01*
X516994Y175611D01*
D02*
G37*
G36*
X507725Y175076D02*
X507464D01*
X507485Y174966D01*
X507725Y175076D01*
D02*
G37*
G36*
X498479Y175611D02*
X498205D01*
Y175339D01*
X498435Y175382D01*
X498490D01*
X498500Y175393D01*
X498522Y175404D01*
Y175415D01*
X498533Y175426D01*
X498555Y175458D01*
X498566Y175469D01*
Y175513D01*
Y175524D01*
Y175535D01*
X498555Y175557D01*
Y175568D01*
X498544Y175578D01*
X498522Y175589D01*
X498511D01*
X498490Y175600D01*
X498479Y175611D01*
D02*
G37*
G36*
X496992Y175589D02*
X496959D01*
X496916Y175578D01*
X496883D01*
X496872Y175568D01*
X496850Y175546D01*
X496839Y175524D01*
X496828Y175513D01*
X496806Y175480D01*
Y175469D01*
X496795Y175458D01*
Y175447D01*
Y175426D01*
X496784Y175382D01*
Y175371D01*
Y175327D01*
Y175261D01*
Y175185D01*
Y175163D01*
Y175109D01*
Y175043D01*
Y174977D01*
Y174966D01*
X496795Y174934D01*
Y174912D01*
Y174890D01*
Y174879D01*
X496806Y174857D01*
X496817Y174846D01*
X496839Y174813D01*
X496850Y174802D01*
Y174792D01*
X496861D01*
X496894Y174781D01*
X496905Y174770D01*
X496926Y174759D01*
X497003D01*
X497014Y174770D01*
X497025Y174781D01*
X497036D01*
X497047Y174792D01*
X497069D01*
X497080Y174802D01*
X497090Y174813D01*
X497101Y174824D01*
X497123Y174857D01*
Y174868D01*
X497134Y174879D01*
Y174901D01*
Y174912D01*
Y174923D01*
Y174955D01*
Y174999D01*
Y175010D01*
X497145Y175054D01*
Y175109D01*
Y175185D01*
Y175196D01*
Y175240D01*
Y175294D01*
X497134Y175349D01*
Y175360D01*
Y175393D01*
Y175436D01*
Y175458D01*
X497123Y175480D01*
X497112Y175491D01*
X497090Y175524D01*
X497080Y175535D01*
X497069Y175546D01*
X497058Y175557D01*
X497036Y175578D01*
X497003D01*
X496992Y175589D01*
D02*
G37*
%LPD*%
D10*
X504187Y264448D02*
G03*
X504187Y264448I-100J0D01*
G01*
X494639D02*
G03*
X494639Y264448I-100J0D01*
G01*
X484600D02*
G03*
X484600Y264448I-100J0D01*
G01*
X535974Y395099D02*
G03*
X535974Y395099I-100J0D01*
G01*
D11*
X309291Y192028D02*
G03*
X309291Y192028I-492J0D01*
G01*
X386542Y344830D02*
G03*
X386542Y344830I-492J0D01*
G01*
X309567Y260433D02*
G03*
X309567Y260433I-492J0D01*
G01*
X449542Y344930D02*
G03*
X449542Y344930I-492J0D01*
G01*
X309449Y323917D02*
G03*
X309449Y323917I-492J0D01*
G01*
X511442Y344630D02*
G03*
X511442Y344630I-492J0D01*
G01*
X532581Y284431D02*
G03*
X532581Y284431I-492J0D01*
G01*
D12*
X313996Y200886D02*
G03*
X313996Y200886I-1181J0D01*
G01*
X396089Y340814D02*
G03*
X396089Y340814I-1181J0D01*
G01*
X314272Y269291D02*
G03*
X314272Y269291I-1181J0D01*
G01*
X459089Y340914D02*
G03*
X459089Y340914I-1181J0D01*
G01*
X314154Y332776D02*
G03*
X314154Y332776I-1181J0D01*
G01*
X520989Y340614D02*
G03*
X520989Y340614I-1181J0D01*
G01*
D13*
X429921Y276083D02*
Y278346D01*
Y252854D02*
Y254035D01*
Y273819D02*
Y276083D01*
Y252854D02*
Y276083D01*
Y252854D02*
X461811D01*
Y276083D01*
X429921D02*
X461811D01*
X398524D02*
X429921D01*
X398524Y252854D02*
X429921D01*
X398524D02*
Y276083D01*
X308878Y196949D02*
X350217D01*
X308878Y223721D02*
X350217D01*
X308878Y196949D02*
Y223721D01*
X350217Y196949D02*
Y223721D01*
X390971Y303413D02*
Y344751D01*
X417742Y303413D02*
Y344751D01*
X390971D02*
X417742D01*
X390971Y303413D02*
X417742D01*
X309154Y265354D02*
X350492D01*
X309154Y292126D02*
X350492D01*
X309154Y265354D02*
Y292126D01*
X350492Y265354D02*
Y292126D01*
X453971Y303513D02*
Y344851D01*
X480743Y303513D02*
Y344851D01*
X453971D02*
X480743D01*
X453971Y303513D02*
X480743D01*
X309035Y328839D02*
X350374D01*
X309035Y355610D02*
X350374D01*
X309035Y328839D02*
Y355610D01*
X350374Y328839D02*
Y355610D01*
X515871Y303213D02*
Y344551D01*
X542642Y303213D02*
Y344551D01*
X515871D02*
X542642D01*
X515871Y303213D02*
X542642D01*
X574251Y264731D02*
Y293883D01*
X574195Y293939D02*
X574251Y293883D01*
X534647Y293939D02*
X574195D01*
X534647Y264731D02*
X574251D01*
X534647D02*
Y270592D01*
Y289155D02*
Y293939D01*
D14*
X256057Y402907D02*
X256102Y402953D01*
X559646D02*
X559744Y402854D01*
X559719Y168282D02*
X559744Y168307D01*
D15*
X429331Y169093D02*
Y165157D01*
X431299D01*
X431954Y165813D01*
Y166469D01*
X431299Y167125D01*
X429331D01*
X431299D01*
X431954Y167781D01*
Y168437D01*
X431299Y169093D01*
X429331D01*
X435234D02*
X433922D01*
X433266Y168437D01*
Y165813D01*
X433922Y165157D01*
X435234D01*
X435890Y165813D01*
Y168437D01*
X435234Y169093D01*
X437202D02*
X439826D01*
X438514D01*
Y165157D01*
X441138Y169093D02*
X443762D01*
X442450D01*
Y165157D01*
X447042Y169093D02*
X445730D01*
X445074Y168437D01*
Y165813D01*
X445730Y165157D01*
X447042D01*
X447697Y165813D01*
Y168437D01*
X447042Y169093D01*
X449009Y165157D02*
Y169093D01*
X450321Y167781D01*
X451633Y169093D01*
Y165157D01*
X456881Y169093D02*
Y165157D01*
X458849D01*
X459505Y165813D01*
Y166469D01*
X458849Y167125D01*
X456881D01*
X458849D01*
X459505Y167781D01*
Y168437D01*
X458849Y169093D01*
X456881D01*
X462784D02*
X461473D01*
X460817Y168437D01*
Y165813D01*
X461473Y165157D01*
X462784D01*
X463440Y165813D01*
Y168437D01*
X462784Y169093D01*
X464752Y165157D02*
Y167781D01*
X466064Y169093D01*
X467376Y167781D01*
Y165157D01*
Y167125D01*
X464752D01*
X468688Y165157D02*
Y169093D01*
X470656D01*
X471312Y168437D01*
Y167125D01*
X470656Y166469D01*
X468688D01*
X470000D02*
X471312Y165157D01*
X472624Y169093D02*
Y165157D01*
X474592D01*
X475248Y165813D01*
Y168437D01*
X474592Y169093D01*
X472624D01*
X480495D02*
X483119D01*
X481807D01*
Y165157D01*
X484431Y169093D02*
Y165157D01*
Y167125D01*
X487055D01*
Y169093D01*
Y165157D01*
X490991Y169093D02*
X488367D01*
Y165157D01*
X490991D01*
X488367Y167125D02*
X489679D01*
X492303Y165157D02*
Y169093D01*
X494270D01*
X494926Y168437D01*
Y167125D01*
X494270Y166469D01*
X492303D01*
X493614D02*
X494926Y165157D01*
X496238D02*
Y169093D01*
X497550Y167781D01*
X498862Y169093D01*
Y165157D01*
X500174Y169093D02*
X501486D01*
X500830D01*
Y165157D01*
X500174D01*
X501486D01*
X506078Y168437D02*
X505422Y169093D01*
X504110D01*
X503454Y168437D01*
Y167781D01*
X504110Y167125D01*
X505422D01*
X506078Y166469D01*
Y165813D01*
X505422Y165157D01*
X504110D01*
X503454Y165813D01*
X507389Y169093D02*
X510013D01*
X508702D01*
Y165157D01*
X513293Y169093D02*
X511981D01*
X511325Y168437D01*
Y165813D01*
X511981Y165157D01*
X513293D01*
X513949Y165813D01*
Y168437D01*
X513293Y169093D01*
X515261Y165157D02*
Y169093D01*
X517229D01*
X517885Y168437D01*
Y167125D01*
X517229Y166469D01*
X515261D01*
X516573D02*
X517885Y165157D01*
X523133D02*
Y169093D01*
X525100D01*
X525756Y168437D01*
Y167125D01*
X525100Y166469D01*
X523133D01*
X529692Y168437D02*
X529036Y169093D01*
X527724D01*
X527068Y168437D01*
Y165813D01*
X527724Y165157D01*
X529036D01*
X529692Y165813D01*
X531004Y169093D02*
Y165157D01*
X532972D01*
X533628Y165813D01*
Y166469D01*
X532972Y167125D01*
X531004D01*
X532972D01*
X533628Y167781D01*
Y168437D01*
X532972Y169093D01*
X531004D01*
X413051Y250037D02*
X414363D01*
X413707D01*
Y246101D01*
X413051D01*
X414363D01*
X416331D02*
Y250037D01*
X418955Y246101D01*
Y250037D01*
X420267D02*
X422891D01*
X421579D01*
Y246101D01*
X426826Y250037D02*
X424202D01*
Y246101D01*
X426826D01*
X424202Y248069D02*
X425514D01*
X428138Y246101D02*
Y250037D01*
X430106D01*
X430762Y249381D01*
Y248069D01*
X430106Y247413D01*
X428138D01*
X429450D02*
X430762Y246101D01*
X432074Y250037D02*
Y246101D01*
X434042D01*
X434698Y246757D01*
Y247413D01*
X434042Y248069D01*
X432074D01*
X434042D01*
X434698Y248725D01*
Y249381D01*
X434042Y250037D01*
X432074D01*
X437978D02*
X436666D01*
X436010Y249381D01*
Y246757D01*
X436666Y246101D01*
X437978D01*
X438633Y246757D01*
Y249381D01*
X437978Y250037D01*
X439945Y246101D02*
Y248725D01*
X441257Y250037D01*
X442569Y248725D01*
Y246101D01*
Y248069D01*
X439945D01*
X443881Y246101D02*
Y250037D01*
X445849D01*
X446505Y249381D01*
Y248069D01*
X445849Y247413D01*
X443881D01*
X445193D02*
X446505Y246101D01*
X447817Y250037D02*
Y246101D01*
X449785D01*
X450441Y246757D01*
Y249381D01*
X449785Y250037D01*
X447817D01*
X413051Y239961D02*
Y242584D01*
X414363Y243896D01*
X415675Y242584D01*
Y239961D01*
Y241929D01*
X413051D01*
X416987Y243896D02*
Y239961D01*
X418955D01*
X419611Y240617D01*
Y243240D01*
X418955Y243896D01*
X416987D01*
X423547Y243240D02*
X422891Y243896D01*
X421579D01*
X420923Y243240D01*
Y240617D01*
X421579Y239961D01*
X422891D01*
X423547Y240617D01*
X428794Y243896D02*
X430106D01*
X429450D01*
Y239961D01*
X428794D01*
X430106D01*
X432074D02*
Y243896D01*
X434698Y239961D01*
Y243896D01*
X436010Y239961D02*
Y243896D01*
X437978D01*
X438633Y243240D01*
Y241929D01*
X437978Y241272D01*
X436010D01*
X439945Y243896D02*
Y240617D01*
X440601Y239961D01*
X441913D01*
X442569Y240617D01*
Y243896D01*
X443881D02*
X446505D01*
X445193D01*
Y239961D01*
X287205Y396260D02*
Y398884D01*
X288517Y400196D01*
X289828Y398884D01*
Y396260D01*
Y398228D01*
X287205D01*
X403740Y282873D02*
Y278937D01*
X405708D01*
X406364Y279593D01*
Y280249D01*
X405708Y280905D01*
X403740D01*
X405708D01*
X406364Y281561D01*
Y282217D01*
X405708Y282873D01*
X403740D01*
X409644D02*
X408332D01*
X407676Y282217D01*
Y279593D01*
X408332Y278937D01*
X409644D01*
X410300Y279593D01*
Y282217D01*
X409644Y282873D01*
X411612D02*
X414235D01*
X412923D01*
Y278937D01*
X415547Y282873D02*
X418171D01*
X416859D01*
Y278937D01*
X421451Y282873D02*
X420139D01*
X419483Y282217D01*
Y279593D01*
X420139Y278937D01*
X421451D01*
X422107Y279593D01*
Y282217D01*
X421451Y282873D01*
X423419Y278937D02*
Y282873D01*
X424731Y281561D01*
X426043Y282873D01*
Y278937D01*
X439862Y282873D02*
X442486D01*
X441174D01*
Y278937D01*
X445766Y282873D02*
X444454D01*
X443798Y282217D01*
Y279593D01*
X444454Y278937D01*
X445766D01*
X446422Y279593D01*
Y282217D01*
X445766Y282873D01*
X447734Y278937D02*
Y282873D01*
X449702D01*
X450357Y282217D01*
Y280905D01*
X449702Y280249D01*
X447734D01*
X556954Y374343D02*
X556299Y374999D01*
X554987D01*
X554331Y374343D01*
Y371719D01*
X554987Y371063D01*
X556299D01*
X556954Y371719D01*
Y373031D01*
X555643D01*
X558266Y371063D02*
Y374999D01*
X560890Y371063D01*
Y374999D01*
X562202D02*
Y371063D01*
X564170D01*
X564826Y371719D01*
Y374343D01*
X564170Y374999D01*
X562202D01*
X540650Y373949D02*
X541306Y374605D01*
X542618D01*
X543273Y373949D01*
Y373293D01*
X542618Y372637D01*
X541961D01*
X542618D01*
X543273Y371981D01*
Y371325D01*
X542618Y370669D01*
X541306D01*
X540650Y371325D01*
X544585Y374605D02*
Y371981D01*
X545897Y370669D01*
X547209Y371981D01*
Y374605D01*
X548521Y373949D02*
X549177Y374605D01*
X550489D01*
X551145Y373949D01*
Y373293D01*
X550489Y372637D01*
X549833D01*
X550489D01*
X551145Y371981D01*
Y371325D01*
X550489Y370669D01*
X549177D01*
X548521Y371325D01*
X335630Y393209D02*
Y395832D01*
X336942Y397144D01*
X338254Y395832D01*
Y393209D01*
Y395177D01*
X335630D01*
X340619Y397144D02*
Y393209D01*
X342587D01*
X343243Y393865D01*
Y394521D01*
X342587Y395177D01*
X340619D01*
X342587D01*
X343243Y395832D01*
Y396488D01*
X342587Y397144D01*
X340619D01*
X348096Y396488D02*
X347440Y397144D01*
X346128D01*
X345472Y396488D01*
Y393865D01*
X346128Y393209D01*
X347440D01*
X348096Y393865D01*
X310006Y399736D02*
X309350Y400392D01*
X308038D01*
X307382Y399736D01*
Y397113D01*
X308038Y396457D01*
X309350D01*
X310006Y397113D01*
X297441Y400392D02*
Y396457D01*
X299409D01*
X300065Y397113D01*
Y397769D01*
X299409Y398425D01*
X297441D01*
X299409D01*
X300065Y399080D01*
Y399736D01*
X299409Y400392D01*
X297441D01*
X491142Y242741D02*
Y239461D01*
X491798Y238805D01*
X493110D01*
X493765Y239461D01*
Y242741D01*
X497701Y238805D02*
X495078D01*
X497701Y241428D01*
Y242085D01*
X497045Y242741D01*
X495733D01*
X495078Y242085D01*
X499013Y238149D02*
X501637D01*
X502949Y238805D02*
Y242741D01*
X504261Y241428D01*
X505573Y242741D01*
Y238805D01*
X506885Y242741D02*
Y239461D01*
X507541Y238805D01*
X508853D01*
X509509Y239461D01*
Y242741D01*
X510820D02*
X513444Y238805D01*
Y242741D02*
X510820Y238805D01*
X514756Y238149D02*
X517380D01*
X518692Y238805D02*
X520004D01*
X519348D01*
Y242741D01*
X518692Y242085D01*
X521972Y238149D02*
X524595D01*
X527875Y242741D02*
X526563D01*
X525907Y242085D01*
Y239461D01*
X526563Y238805D01*
X527875D01*
X528531Y239461D01*
Y242085D01*
X527875Y242741D01*
X529843Y241428D02*
Y239461D01*
X530499Y238805D01*
X532467D01*
Y241428D01*
X534435Y242085D02*
Y241428D01*
X533779D01*
X535091D01*
X534435D01*
Y239461D01*
X535091Y238805D01*
X491142Y234720D02*
Y231441D01*
X491798Y230785D01*
X493110D01*
X493765Y231441D01*
Y234720D01*
X495078Y230785D02*
X496389D01*
X495733D01*
Y234720D01*
X495078Y234065D01*
X498357Y230129D02*
X500981D01*
X502293Y230785D02*
Y234720D01*
X503605Y233408D01*
X504917Y234720D01*
Y230785D01*
X506229Y234720D02*
Y231441D01*
X506885Y230785D01*
X508197D01*
X508852Y231441D01*
Y234720D01*
X510164D02*
X512788Y230785D01*
Y234720D02*
X510164Y230785D01*
X514100Y230129D02*
X516724D01*
X518036Y230785D02*
X519348D01*
X518692D01*
Y234720D01*
X518036Y234065D01*
X521316Y230129D02*
X523940D01*
X527219Y234720D02*
X525907D01*
X525251Y234065D01*
Y231441D01*
X525907Y230785D01*
X527219D01*
X527875Y231441D01*
Y234065D01*
X527219Y234720D01*
X529187Y233408D02*
Y231441D01*
X529843Y230785D01*
X531811D01*
Y233408D01*
X533779Y234065D02*
Y233408D01*
X533123D01*
X534435D01*
X533779D01*
Y231441D01*
X534435Y230785D01*
X491142Y226501D02*
Y223221D01*
X491798Y222565D01*
X493110D01*
X493765Y223221D01*
Y226501D01*
X497701Y222565D02*
X495078D01*
X497701Y225188D01*
Y225845D01*
X497045Y226501D01*
X495733D01*
X495078Y225845D01*
X499013Y221909D02*
X501637D01*
X502949Y222565D02*
Y226501D01*
X504261Y225188D01*
X505573Y226501D01*
Y222565D01*
X506885Y226501D02*
Y223221D01*
X507541Y222565D01*
X508853D01*
X509509Y223221D01*
Y226501D01*
X510820D02*
X513444Y222565D01*
Y226501D02*
X510820Y222565D01*
X514756Y221909D02*
X517380D01*
X521316Y222565D02*
X518692D01*
X521316Y225188D01*
Y225845D01*
X520660Y226501D01*
X519348D01*
X518692Y225845D01*
X522628Y221909D02*
X525251D01*
X528531Y226501D02*
X527219D01*
X526563Y225845D01*
Y223221D01*
X527219Y222565D01*
X528531D01*
X529187Y223221D01*
Y225845D01*
X528531Y226501D01*
X530499Y225188D02*
Y223221D01*
X531155Y222565D01*
X533123D01*
Y225188D01*
X535091Y225845D02*
Y225188D01*
X534435D01*
X535747D01*
X535091D01*
Y223221D01*
X535747Y222565D01*
X491142Y219080D02*
Y215801D01*
X491798Y215145D01*
X493110D01*
X493765Y215801D01*
Y219080D01*
X495078Y215145D02*
X496389D01*
X495733D01*
Y219080D01*
X495078Y218425D01*
X498357Y214489D02*
X500981D01*
X502293Y215145D02*
Y219080D01*
X503605Y217769D01*
X504917Y219080D01*
Y215145D01*
X506229Y219080D02*
Y215801D01*
X506885Y215145D01*
X508197D01*
X508852Y215801D01*
Y219080D01*
X510164D02*
X512788Y215145D01*
Y219080D02*
X510164Y215145D01*
X514100Y214489D02*
X516724D01*
X520660Y215145D02*
X518036D01*
X520660Y217769D01*
Y218425D01*
X520004Y219080D01*
X518692D01*
X518036Y218425D01*
X521972Y214489D02*
X524595D01*
X527875Y219080D02*
X526563D01*
X525907Y218425D01*
Y215801D01*
X526563Y215145D01*
X527875D01*
X528531Y215801D01*
Y218425D01*
X527875Y219080D01*
X529843Y217769D02*
Y215801D01*
X530499Y215145D01*
X532467D01*
Y217769D01*
X534435Y218425D02*
Y217769D01*
X533779D01*
X535091D01*
X534435D01*
Y215801D01*
X535091Y215145D01*
X491142Y211061D02*
Y207781D01*
X491798Y207125D01*
X493110D01*
X493765Y207781D01*
Y211061D01*
X495078Y210404D02*
X495733Y211061D01*
X497045D01*
X497701Y210404D01*
Y209749D01*
X497045Y209093D01*
X496389D01*
X497045D01*
X497701Y208437D01*
Y207781D01*
X497045Y207125D01*
X495733D01*
X495078Y207781D01*
X499013Y206469D02*
X501637D01*
X502949Y207125D02*
Y211061D01*
X504261Y209749D01*
X505573Y211061D01*
Y207125D01*
X506885Y211061D02*
Y207781D01*
X507541Y207125D01*
X508853D01*
X509509Y207781D01*
Y211061D01*
X510820D02*
X513444Y207125D01*
Y211061D02*
X510820Y207125D01*
X514756Y206469D02*
X517380D01*
X518692Y207125D02*
X520004D01*
X519348D01*
Y211061D01*
X518692Y210404D01*
X521972Y206469D02*
X524595D01*
X527875Y211061D02*
X526563D01*
X525907Y210404D01*
Y207781D01*
X526563Y207125D01*
X527875D01*
X528531Y207781D01*
Y210404D01*
X527875Y211061D01*
X529843Y209749D02*
Y207781D01*
X530499Y207125D01*
X532467D01*
Y209749D01*
X534435Y210404D02*
Y209749D01*
X533779D01*
X535091D01*
X534435D01*
Y207781D01*
X535091Y207125D01*
X491142Y203140D02*
Y199861D01*
X491798Y199205D01*
X493110D01*
X493765Y199861D01*
Y203140D01*
X495078Y202484D02*
X495733Y203140D01*
X497045D01*
X497701Y202484D01*
Y201829D01*
X497045Y201173D01*
X496389D01*
X497045D01*
X497701Y200517D01*
Y199861D01*
X497045Y199205D01*
X495733D01*
X495078Y199861D01*
X499013Y198549D02*
X501637D01*
X502949Y199205D02*
Y203140D01*
X504261Y201829D01*
X505573Y203140D01*
Y199205D01*
X506885Y203140D02*
Y199861D01*
X507541Y199205D01*
X508853D01*
X509509Y199861D01*
Y203140D01*
X510820D02*
X513444Y199205D01*
Y203140D02*
X510820Y199205D01*
X514756Y198549D02*
X517380D01*
X521316Y199205D02*
X518692D01*
X521316Y201829D01*
Y202484D01*
X520660Y203140D01*
X519348D01*
X518692Y202484D01*
X522628Y198549D02*
X525251D01*
X528531Y203140D02*
X527219D01*
X526563Y202484D01*
Y199861D01*
X527219Y199205D01*
X528531D01*
X529187Y199861D01*
Y202484D01*
X528531Y203140D01*
X530499Y201829D02*
Y199861D01*
X531155Y199205D01*
X533123D01*
Y201829D01*
X535091Y202484D02*
Y201829D01*
X534435D01*
X535747D01*
X535091D01*
Y199861D01*
X535747Y199205D01*
X365846Y169093D02*
Y165157D01*
X367158Y166469D01*
X368470Y165157D01*
Y169093D01*
X369782Y165157D02*
X371094D01*
X370438D01*
Y167781D01*
X369782D01*
X373062Y165157D02*
X374374D01*
X373718D01*
Y169093D01*
X373062D01*
X376342Y165157D02*
X377654D01*
X376998D01*
Y169093D01*
X376342D01*
X379622Y165157D02*
X380933D01*
X380277D01*
Y167781D01*
X379622D01*
X383557D02*
X384869D01*
X385525Y167125D01*
Y165157D01*
X383557D01*
X382901Y165813D01*
X383557Y166469D01*
X385525D01*
X386837Y165157D02*
Y167781D01*
X387493D01*
X388149Y167125D01*
Y165157D01*
Y167125D01*
X388805Y167781D01*
X389461Y167125D01*
Y165157D01*
X394708D02*
Y169093D01*
X396020Y167781D01*
X397332Y169093D01*
Y165157D01*
X401268Y167781D02*
X399300D01*
X398644Y167125D01*
Y165813D01*
X399300Y165157D01*
X401268D01*
X402580Y169093D02*
Y165157D01*
Y166469D01*
X405204Y169093D01*
X403236Y167125D01*
X405204Y165157D01*
X406516D02*
Y167781D01*
X408484D01*
X409140Y167125D01*
Y165157D01*
X410452D02*
X411763D01*
X411107D01*
Y167781D01*
X410452D01*
X415043Y163846D02*
X415699D01*
X416355Y164502D01*
Y167781D01*
X414387D01*
X413731Y167125D01*
Y165813D01*
X414387Y165157D01*
X416355D01*
X417667Y169093D02*
Y165157D01*
Y167125D01*
X418323Y167781D01*
X419635D01*
X420291Y167125D01*
Y165157D01*
X422259Y168437D02*
Y167781D01*
X421603D01*
X422915D01*
X422259D01*
Y165813D01*
X422915Y165157D01*
X429331Y158169D02*
Y162105D01*
X431299D01*
X431954Y161449D01*
Y160137D01*
X431299Y159481D01*
X429331D01*
X430643D02*
X431954Y158169D01*
X435890Y162105D02*
X433266D01*
Y158169D01*
X435890D01*
X433266Y160137D02*
X434578D01*
X437202Y162105D02*
Y159481D01*
X438514Y158169D01*
X439826Y159481D01*
Y162105D01*
X445074Y161449D02*
X445730Y162105D01*
X447042D01*
X447697Y161449D01*
Y158825D01*
X447042Y158169D01*
X445730D01*
X445074Y158825D01*
Y161449D01*
X449009Y158169D02*
Y158825D01*
X449665D01*
Y158169D01*
X449009D01*
X454257D02*
Y162105D01*
X452289Y160137D01*
X454913D01*
X511024Y289697D02*
X511680Y290353D01*
X512992D01*
X513647Y289697D01*
Y289041D01*
X512992Y288385D01*
X512335D01*
X512992D01*
X513647Y287729D01*
Y287073D01*
X512992Y286417D01*
X511680D01*
X511024Y287073D01*
X514959Y290353D02*
Y287729D01*
X516271Y286417D01*
X517583Y287729D01*
Y290353D01*
X518895Y289697D02*
X519551Y290353D01*
X520863D01*
X521519Y289697D01*
Y289041D01*
X520863Y288385D01*
X520207D01*
X520863D01*
X521519Y287729D01*
Y287073D01*
X520863Y286417D01*
X519551D01*
X518895Y287073D01*
X526767Y290353D02*
X528079D01*
X527423D01*
Y286417D01*
X526767D01*
X528079D01*
X530046D02*
Y290353D01*
X532670Y286417D01*
Y290353D01*
X523588Y275918D02*
X522932Y276573D01*
X521621D01*
X520965Y275918D01*
Y273294D01*
X521621Y272638D01*
X522932D01*
X523588Y273294D01*
Y274606D01*
X522276D01*
X524900Y272638D02*
Y276573D01*
X527524Y272638D01*
Y276573D01*
X528836D02*
Y272638D01*
X530804D01*
X531460Y273294D01*
Y275918D01*
X530804Y276573D01*
X528836D01*
X508398Y260071D02*
X507743Y260727D01*
X506431D01*
X505775Y260071D01*
Y257447D01*
X506431Y256791D01*
X507743D01*
X508398Y257447D01*
X496227Y260727D02*
Y256791D01*
X498195D01*
X498851Y257447D01*
Y258103D01*
X498195Y258759D01*
X496227D01*
X498195D01*
X498851Y259415D01*
Y260071D01*
X498195Y260727D01*
X496227D01*
X486188Y256791D02*
Y259415D01*
X487500Y260727D01*
X488812Y259415D01*
Y256791D01*
Y258759D01*
X486188D01*
X280315Y385082D02*
Y389018D01*
X281627Y387706D01*
X282939Y389018D01*
Y385082D01*
X284251Y389018D02*
Y385738D01*
X284907Y385082D01*
X286219D01*
X286875Y385738D01*
Y389018D01*
X288186D02*
X290810Y385082D01*
Y389018D02*
X288186Y385082D01*
X298682Y388362D02*
X298026Y389018D01*
X296714D01*
X296058Y388362D01*
Y387706D01*
X296714Y387050D01*
X298026D01*
X298682Y386394D01*
Y385738D01*
X298026Y385082D01*
X296714D01*
X296058Y385738D01*
X302618Y389018D02*
X299994D01*
Y385082D01*
X302618D01*
X299994Y387050D02*
X301306D01*
X303929Y389018D02*
Y385082D01*
X306553D01*
X311801Y389018D02*
X314425D01*
X313113D01*
Y385082D01*
X315737D02*
Y389018D01*
X317705D01*
X318360Y388362D01*
Y387050D01*
X317705Y386394D01*
X315737D01*
X374508Y204035D02*
X370572D01*
Y206003D01*
X371228Y206659D01*
X372540D01*
X373196Y206003D01*
Y204035D01*
Y205347D02*
X374508Y206659D01*
X370572Y210595D02*
Y207971D01*
X372540D01*
X371884Y209283D01*
Y209939D01*
X372540Y210595D01*
X373852D01*
X374508Y209939D01*
Y208627D01*
X373852Y207971D01*
X555085Y343929D02*
X554428Y344585D01*
X553117D01*
X552461Y343929D01*
Y341306D01*
X553117Y340650D01*
X554428D01*
X555085Y341306D01*
X559020Y344585D02*
X556396D01*
Y342618D01*
X557708Y343273D01*
X558364D01*
X559020Y342618D01*
Y341306D01*
X558364Y340650D01*
X557052D01*
X556396Y341306D01*
X560332Y339994D02*
X562956D01*
X564268Y340650D02*
X565580D01*
X564924D01*
Y344585D01*
X564268Y343929D01*
X289632Y368962D02*
X288976Y369618D01*
X287664D01*
X287008Y368962D01*
Y366338D01*
X287664Y365682D01*
X288976D01*
X289632Y366338D01*
X293567Y369618D02*
X290944D01*
Y367650D01*
X292255Y368306D01*
X292912D01*
X293567Y367650D01*
Y366338D01*
X292912Y365682D01*
X291600D01*
X290944Y366338D01*
X294879Y365026D02*
X297503D01*
X301439Y365682D02*
X298815D01*
X301439Y368306D01*
Y368962D01*
X300783Y369618D01*
X299471D01*
X298815Y368962D01*
X554592Y360268D02*
X553936Y360924D01*
X552625D01*
X551968Y360268D01*
Y357644D01*
X552625Y356988D01*
X553936D01*
X554592Y357644D01*
X558528Y360924D02*
X557216Y360268D01*
X555904Y358956D01*
Y357644D01*
X556560Y356988D01*
X557872D01*
X558528Y357644D01*
Y358300D01*
X557872Y358956D01*
X555904D01*
X559840Y356332D02*
X562464D01*
X563776Y356988D02*
X565088D01*
X564432D01*
Y360924D01*
X563776Y360268D01*
X289730Y375819D02*
X289074Y376475D01*
X287762D01*
X287106Y375819D01*
Y373195D01*
X287762Y372539D01*
X289074D01*
X289730Y373195D01*
X293666Y376475D02*
X292354Y375819D01*
X291042Y374507D01*
Y373195D01*
X291698Y372539D01*
X293010D01*
X293666Y373195D01*
Y373851D01*
X293010Y374507D01*
X291042D01*
X294978Y371883D02*
X297602D01*
X301537Y372539D02*
X298914D01*
X301537Y375163D01*
Y375819D01*
X300881Y376475D01*
X299570D01*
X298914Y375819D01*
X498195Y348162D02*
X497539Y348818D01*
X496227D01*
X495571Y348162D01*
Y345538D01*
X496227Y344882D01*
X497539D01*
X498195Y345538D01*
X499507Y348818D02*
X502130D01*
Y348162D01*
X499507Y345538D01*
Y344882D01*
X503442Y344226D02*
X506066D01*
X507378Y344882D02*
X508690D01*
X508034D01*
Y348818D01*
X507378Y348162D01*
X296029Y299343D02*
X295373Y299999D01*
X294061D01*
X293406Y299343D01*
Y296719D01*
X294061Y296063D01*
X295373D01*
X296029Y296719D01*
X297341Y299999D02*
X299965D01*
Y299343D01*
X297341Y296719D01*
Y296063D01*
X301277Y295407D02*
X303901D01*
X307837Y296063D02*
X305213D01*
X307837Y298687D01*
Y299343D01*
X307181Y299999D01*
X305869D01*
X305213Y299343D01*
X498195Y357414D02*
X497539Y358070D01*
X496227D01*
X495571Y357414D01*
Y354790D01*
X496227Y354134D01*
X497539D01*
X498195Y354790D01*
X499507Y357414D02*
X500163Y358070D01*
X501475D01*
X502130Y357414D01*
Y356758D01*
X501475Y356102D01*
X502130Y355446D01*
Y354790D01*
X501475Y354134D01*
X500163D01*
X499507Y354790D01*
Y355446D01*
X500163Y356102D01*
X499507Y356758D01*
Y357414D01*
X500163Y356102D02*
X501475D01*
X503442Y353478D02*
X506066D01*
X507378Y354134D02*
X508690D01*
X508034D01*
Y358070D01*
X507378Y357414D01*
X296620Y316075D02*
X295964Y316731D01*
X294652D01*
X293996Y316075D01*
Y313451D01*
X294652Y312795D01*
X295964D01*
X296620Y313451D01*
X297932Y316075D02*
X298588Y316731D01*
X299900D01*
X300556Y316075D01*
Y315419D01*
X299900Y314763D01*
X300556Y314107D01*
Y313451D01*
X299900Y312795D01*
X298588D01*
X297932Y313451D01*
Y314107D01*
X298588Y314763D01*
X297932Y315419D01*
Y316075D01*
X298588Y314763D02*
X299900D01*
X301868Y312139D02*
X304491D01*
X308427Y312795D02*
X305803D01*
X308427Y315419D01*
Y316075D01*
X307771Y316731D01*
X306459D01*
X305803Y316075D01*
X434415Y346784D02*
X433759Y347440D01*
X432447D01*
X431791Y346784D01*
Y344160D01*
X432447Y343504D01*
X433759D01*
X434415Y344160D01*
X435727D02*
X436383Y343504D01*
X437695D01*
X438351Y344160D01*
Y346784D01*
X437695Y347440D01*
X436383D01*
X435727Y346784D01*
Y346128D01*
X436383Y345472D01*
X438351D01*
X439663Y342848D02*
X442287D01*
X443599Y343504D02*
X444910D01*
X444254D01*
Y347440D01*
X443599Y346784D01*
X296226Y230642D02*
X295570Y231298D01*
X294258D01*
X293602Y230642D01*
Y228018D01*
X294258Y227362D01*
X295570D01*
X296226Y228018D01*
X297538D02*
X298194Y227362D01*
X299506D01*
X300162Y228018D01*
Y230642D01*
X299506Y231298D01*
X298194D01*
X297538Y230642D01*
Y229986D01*
X298194Y229330D01*
X300162D01*
X301474Y226706D02*
X304098D01*
X308033Y227362D02*
X305410D01*
X308033Y229986D01*
Y230642D01*
X307377Y231298D01*
X306066D01*
X305410Y230642D01*
X434710Y357315D02*
X434055Y357971D01*
X432743D01*
X432087Y357315D01*
Y354691D01*
X432743Y354035D01*
X434055D01*
X434710Y354691D01*
X436022Y354035D02*
X437334D01*
X436678D01*
Y357971D01*
X436022Y357315D01*
X439302D02*
X439958Y357971D01*
X441270D01*
X441926Y357315D01*
Y354691D01*
X441270Y354035D01*
X439958D01*
X439302Y354691D01*
Y357315D01*
X443238Y353380D02*
X445862D01*
X447174Y354035D02*
X448486D01*
X447830D01*
Y357971D01*
X447174Y357315D01*
X296521Y247276D02*
X295866Y247932D01*
X294554D01*
X293898Y247276D01*
Y244652D01*
X294554Y243996D01*
X295866D01*
X296521Y244652D01*
X297833Y243996D02*
X299145D01*
X298489D01*
Y247932D01*
X297833Y247276D01*
X301113D02*
X301769Y247932D01*
X303081D01*
X303737Y247276D01*
Y244652D01*
X303081Y243996D01*
X301769D01*
X301113Y244652D01*
Y247276D01*
X305049Y243340D02*
X307673D01*
X311609Y243996D02*
X308985D01*
X311609Y246620D01*
Y247276D01*
X310952Y247932D01*
X309641D01*
X308985Y247276D01*
X525493Y387598D02*
X529429D01*
Y389566D01*
X528773Y390222D01*
X526149D01*
X525493Y389566D01*
Y387598D01*
X529429Y391534D02*
Y392846D01*
Y392190D01*
X525493D01*
X526149Y391534D01*
X394783Y391042D02*
X397407D01*
X396095D01*
Y387106D01*
X398719Y391042D02*
Y387106D01*
Y389074D01*
X401343D01*
Y391042D01*
Y387106D01*
X405279Y391042D02*
X402655D01*
Y387106D01*
X405279D01*
X402655Y389074D02*
X403967D01*
X406591Y387106D02*
Y391042D01*
X408559D01*
X409214Y390386D01*
Y389074D01*
X408559Y388418D01*
X406591D01*
X407903D02*
X409214Y387106D01*
X410526D02*
Y391042D01*
X411838Y389730D01*
X413150Y391042D01*
Y387106D01*
X414462Y391042D02*
X415774D01*
X415118D01*
Y387106D01*
X414462D01*
X415774D01*
X420366Y390386D02*
X419710Y391042D01*
X418398D01*
X417742Y390386D01*
Y389730D01*
X418398Y389074D01*
X419710D01*
X420366Y388418D01*
Y387762D01*
X419710Y387106D01*
X418398D01*
X417742Y387762D01*
X421678Y391042D02*
X424301D01*
X422990D01*
Y387106D01*
X427581Y391042D02*
X426269D01*
X425613Y390386D01*
Y387762D01*
X426269Y387106D01*
X427581D01*
X428237Y387762D01*
Y390386D01*
X427581Y391042D01*
X429549Y387106D02*
Y391042D01*
X431517D01*
X432173Y390386D01*
Y389074D01*
X431517Y388418D01*
X429549D01*
X430861D02*
X432173Y387106D01*
X440044Y390386D02*
X439389Y391042D01*
X438077D01*
X437421Y390386D01*
Y387762D01*
X438077Y387106D01*
X439389D01*
X440044Y387762D01*
X443324Y391042D02*
X442012D01*
X441356Y390386D01*
Y387762D01*
X442012Y387106D01*
X443324D01*
X443980Y387762D01*
Y390386D01*
X443324Y391042D01*
X445292Y387106D02*
Y391042D01*
X447916Y387106D01*
Y391042D01*
X455787Y387106D02*
X453164D01*
X455787Y389730D01*
Y390386D01*
X455131Y391042D01*
X453820D01*
X453164Y390386D01*
X263486Y253445D02*
Y256069D01*
Y254757D01*
X267421D01*
X263486Y257381D02*
X267421D01*
X265453D01*
Y260004D01*
X263486D01*
X267421D01*
X263486Y263940D02*
Y261316D01*
X267421D01*
Y263940D01*
X265453Y261316D02*
Y262628D01*
X267421Y265252D02*
X263486D01*
Y267220D01*
X264142Y267876D01*
X265453D01*
X266109Y267220D01*
Y265252D01*
Y266564D02*
X267421Y267876D01*
Y269188D02*
X263486D01*
X264797Y270500D01*
X263486Y271812D01*
X267421D01*
X263486Y273124D02*
Y274435D01*
Y273780D01*
X267421D01*
Y273124D01*
Y274435D01*
X264142Y279027D02*
X263486Y278371D01*
Y277059D01*
X264142Y276403D01*
X264797D01*
X265453Y277059D01*
Y278371D01*
X266109Y279027D01*
X266765D01*
X267421Y278371D01*
Y277059D01*
X266765Y276403D01*
X263486Y280339D02*
Y282963D01*
Y281651D01*
X267421D01*
X263486Y286243D02*
Y284931D01*
X264142Y284275D01*
X266765D01*
X267421Y284931D01*
Y286243D01*
X266765Y286899D01*
X264142D01*
X263486Y286243D01*
X267421Y288211D02*
X263486D01*
Y290178D01*
X264142Y290834D01*
X265453D01*
X266109Y290178D01*
Y288211D01*
Y289523D02*
X267421Y290834D01*
X264142Y298706D02*
X263486Y298050D01*
Y296738D01*
X264142Y296082D01*
X266765D01*
X267421Y296738D01*
Y298050D01*
X266765Y298706D01*
X263486Y301986D02*
Y300674D01*
X264142Y300018D01*
X266765D01*
X267421Y300674D01*
Y301986D01*
X266765Y302642D01*
X264142D01*
X263486Y301986D01*
X267421Y303954D02*
X263486D01*
X267421Y306577D01*
X263486D01*
X267421Y311825D02*
Y313137D01*
Y312481D01*
X263486D01*
X264142Y311825D01*
X538583Y258465D02*
Y262400D01*
X540551D01*
X541207Y261744D01*
Y260432D01*
X540551Y259776D01*
X538583D01*
X544486Y262400D02*
X543174D01*
X542518Y261744D01*
Y259120D01*
X543174Y258465D01*
X544486D01*
X545142Y259120D01*
Y261744D01*
X544486Y262400D01*
X546454D02*
Y258465D01*
X547766Y259776D01*
X549078Y258465D01*
Y262400D01*
X553014D02*
X550390D01*
Y258465D01*
X553014D01*
X550390Y260432D02*
X551702D01*
X554326Y258465D02*
Y262400D01*
X556293D01*
X556950Y261744D01*
Y260432D01*
X556293Y259776D01*
X554326D01*
X555638D02*
X556950Y258465D01*
X562197Y262400D02*
X563509D01*
X562853D01*
Y258465D01*
X562197D01*
X563509D01*
X565477D02*
Y262400D01*
X568101Y258465D01*
Y262400D01*
X324902Y384744D02*
Y388680D01*
X326214Y387368D01*
X327525Y388680D01*
Y384744D01*
X328837Y388680D02*
Y385400D01*
X329493Y384744D01*
X330805D01*
X331461Y385400D01*
Y388680D01*
X332773D02*
X335397Y384744D01*
Y388680D02*
X332773Y384744D01*
X343268Y388024D02*
X342612Y388680D01*
X341301D01*
X340645Y388024D01*
Y387368D01*
X341301Y386712D01*
X342612D01*
X343268Y386056D01*
Y385400D01*
X342612Y384744D01*
X341301D01*
X340645Y385400D01*
X347204Y388680D02*
X344580D01*
Y384744D01*
X347204D01*
X344580Y386712D02*
X345892D01*
X348516Y388680D02*
Y384744D01*
X351140D01*
X359011Y388024D02*
X358355Y388680D01*
X357043D01*
X356387Y388024D01*
Y385400D01*
X357043Y384744D01*
X358355D01*
X359011Y385400D01*
X362291Y388680D02*
X360979D01*
X360323Y388024D01*
Y385400D01*
X360979Y384744D01*
X362291D01*
X362947Y385400D01*
Y388024D01*
X362291Y388680D01*
X364259Y384744D02*
Y388680D01*
X366883Y384744D01*
Y388680D01*
X531157Y401244D02*
X531813Y401900D01*
X533125D01*
X533781Y401244D01*
Y400588D01*
X533125Y399932D01*
X532469D01*
X533125D01*
X533781Y399276D01*
Y398621D01*
X533125Y397965D01*
X531813D01*
X531157Y398621D01*
X535093Y401900D02*
Y399276D01*
X536405Y397965D01*
X537717Y399276D01*
Y401900D01*
X539029Y401244D02*
X539685Y401900D01*
X540997D01*
X541653Y401244D01*
Y400588D01*
X540997Y399932D01*
X540341D01*
X540997D01*
X541653Y399276D01*
Y398621D01*
X540997Y397965D01*
X539685D01*
X539029Y398621D01*
X476181Y189567D02*
Y192191D01*
X477493Y193503D01*
X478805Y192191D01*
Y189567D01*
Y191535D01*
X476181D01*
X480117Y193503D02*
Y189567D01*
X482085D01*
X482741Y190223D01*
Y192847D01*
X482085Y193503D01*
X480117D01*
X486676Y192847D02*
X486020Y193503D01*
X484708D01*
X484053Y192847D01*
Y190223D01*
X484708Y189567D01*
X486020D01*
X486676Y190223D01*
X494548Y192847D02*
X493892Y193503D01*
X492580D01*
X491924Y192847D01*
Y190223D01*
X492580Y189567D01*
X493892D01*
X494548Y190223D01*
X495860Y193503D02*
Y189567D01*
Y191535D01*
X496516Y192191D01*
X497828D01*
X498484Y191535D01*
Y189567D01*
X500452Y192191D02*
X501763D01*
X502419Y191535D01*
Y189567D01*
X500452D01*
X499795Y190223D01*
X500452Y190879D01*
X502419D01*
X503731Y189567D02*
Y192191D01*
X505699D01*
X506355Y191535D01*
Y189567D01*
X507667D02*
Y192191D01*
X509635D01*
X510291Y191535D01*
Y189567D01*
X513571D02*
X512259D01*
X511603Y190223D01*
Y191535D01*
X512259Y192191D01*
X513571D01*
X514227Y191535D01*
Y190879D01*
X511603D01*
X515539Y189567D02*
X516850D01*
X516194D01*
Y193503D01*
X515539D01*
X522754D02*
X525378D01*
X524066D01*
Y189567D01*
X528658D02*
X527346D01*
X526690Y190223D01*
Y191535D01*
X527346Y192191D01*
X528658D01*
X529314Y191535D01*
Y190879D01*
X526690D01*
X530625Y189567D02*
X532593D01*
X533249Y190223D01*
X532593Y190879D01*
X531282D01*
X530625Y191535D01*
X531282Y192191D01*
X533249D01*
X535217Y192847D02*
Y192191D01*
X534561D01*
X535873D01*
X535217D01*
Y190223D01*
X535873Y189567D01*
X544401Y192847D02*
X543745Y193503D01*
X542433D01*
X541777Y192847D01*
Y190223D01*
X542433Y189567D01*
X543745D01*
X544401Y190223D01*
X547680Y193503D02*
X546369D01*
X545713Y192847D01*
Y190223D01*
X546369Y189567D01*
X547680D01*
X548336Y190223D01*
Y192847D01*
X547680Y193503D01*
X549648Y189567D02*
Y193503D01*
X552272Y189567D01*
Y193503D01*
X504724Y303543D02*
X500789D01*
Y305511D01*
X501445Y306167D01*
X502757D01*
X503412Y305511D01*
Y303543D01*
Y304855D02*
X504724Y306167D01*
Y307479D02*
Y308791D01*
Y308135D01*
X500789D01*
X501445Y307479D01*
X505380Y310759D02*
Y313383D01*
X504724Y314695D02*
X500789D01*
X502101Y316006D01*
X500789Y317318D01*
X504724D01*
X500789Y318630D02*
X504069D01*
X504724Y319286D01*
Y320598D01*
X504069Y321254D01*
X500789D01*
Y322566D02*
X504724Y325190D01*
X500789D02*
X504724Y322566D01*
Y326502D02*
Y327814D01*
Y327158D01*
X500789D01*
X501445Y326502D01*
X329035Y311713D02*
Y315648D01*
X331003D01*
X331659Y314992D01*
Y313681D01*
X331003Y313024D01*
X329035D01*
X330347D02*
X331659Y311713D01*
X332971D02*
X334283D01*
X333627D01*
Y315648D01*
X332971Y314992D01*
X336251Y311057D02*
X338875D01*
X340187Y311713D02*
Y315648D01*
X341499Y314336D01*
X342811Y315648D01*
Y311713D01*
X344122Y315648D02*
Y312369D01*
X344778Y311713D01*
X346090D01*
X346746Y312369D01*
Y315648D01*
X348058D02*
X350682Y311713D01*
Y315648D02*
X348058Y311713D01*
X354618D02*
X351994D01*
X354618Y314336D01*
Y314992D01*
X353962Y315648D01*
X352650D01*
X351994Y314992D01*
X441240Y302362D02*
X437304D01*
Y304330D01*
X437960Y304986D01*
X439272D01*
X439928Y304330D01*
Y302362D01*
Y303674D02*
X441240Y304986D01*
Y308922D02*
Y306298D01*
X438616Y308922D01*
X437960D01*
X437304Y308266D01*
Y306954D01*
X437960Y306298D01*
X441896Y310234D02*
Y312858D01*
X441240Y314169D02*
X437304D01*
X438616Y315481D01*
X437304Y316793D01*
X441240D01*
X437304Y318105D02*
X440584D01*
X441240Y318761D01*
Y320073D01*
X440584Y320729D01*
X437304D01*
Y322041D02*
X441240Y324665D01*
X437304D02*
X441240Y322041D01*
Y325977D02*
Y327289D01*
Y326633D01*
X437304D01*
X437960Y325977D01*
X327901Y244015D02*
Y247951D01*
X329869D01*
X330525Y247294D01*
Y245983D01*
X329869Y245327D01*
X327901D01*
X329213D02*
X330525Y244015D01*
X334461D02*
X331837D01*
X334461Y246638D01*
Y247294D01*
X333805Y247951D01*
X332493D01*
X331837Y247294D01*
X335773Y243359D02*
X338397D01*
X339709Y244015D02*
Y247951D01*
X341020Y246638D01*
X342332Y247951D01*
Y244015D01*
X343644Y247951D02*
Y244671D01*
X344300Y244015D01*
X345612D01*
X346268Y244671D01*
Y247951D01*
X347580D02*
X350204Y244015D01*
Y247951D02*
X347580Y244015D01*
X354140D02*
X351516D01*
X354140Y246638D01*
Y247294D01*
X353484Y247951D01*
X352172D01*
X351516Y247294D01*
X356299Y321850D02*
Y325786D01*
X358267D01*
X358923Y325130D01*
Y323818D01*
X358267Y323162D01*
X356299D01*
X357611D02*
X358923Y321850D01*
X360235Y325130D02*
X360891Y325786D01*
X362203D01*
X362859Y325130D01*
Y324474D01*
X362203Y323818D01*
X361547D01*
X362203D01*
X362859Y323162D01*
Y322506D01*
X362203Y321850D01*
X360891D01*
X360235Y322506D01*
X364171Y321194D02*
X366794D01*
X368106Y321850D02*
Y325786D01*
X369418Y324474D01*
X370730Y325786D01*
Y321850D01*
X372042Y325786D02*
Y322506D01*
X372698Y321850D01*
X374010D01*
X374666Y322506D01*
Y325786D01*
X375978D02*
X378602Y321850D01*
Y325786D02*
X375978Y321850D01*
X379914D02*
X381226D01*
X380570D01*
Y325786D01*
X379914Y325130D01*
X316240Y160039D02*
X312304D01*
Y162007D01*
X312960Y162663D01*
X314272D01*
X314928Y162007D01*
Y160039D01*
Y161351D02*
X316240Y162663D01*
X312960Y163975D02*
X312304Y164631D01*
Y165943D01*
X312960Y166599D01*
X313616D01*
X314272Y165943D01*
Y165287D01*
Y165943D01*
X314928Y166599D01*
X315584D01*
X316240Y165943D01*
Y164631D01*
X315584Y163975D01*
X316896Y167911D02*
Y170535D01*
X316240Y171847D02*
X312304D01*
X313616Y173159D01*
X312304Y174470D01*
X316240D01*
X312304Y175782D02*
X315584D01*
X316240Y176438D01*
Y177750D01*
X315584Y178406D01*
X312304D01*
Y179718D02*
X316240Y182342D01*
X312304D02*
X316240Y179718D01*
Y186278D02*
Y183654D01*
X313616Y186278D01*
X312960D01*
X312304Y185622D01*
Y184310D01*
X312960Y183654D01*
X522933Y377461D02*
Y381396D01*
X524901D01*
X525557Y380740D01*
Y379429D01*
X524901Y378772D01*
X522933D01*
X524245D02*
X525557Y377461D01*
X528837D02*
Y381396D01*
X526869Y379429D01*
X529493D01*
X569063Y347342D02*
X568407Y347998D01*
Y349310D01*
X569063Y349966D01*
X569719D01*
X570375Y349310D01*
Y348654D01*
Y349310D01*
X571031Y349966D01*
X571687D01*
X572342Y349310D01*
Y347998D01*
X571687Y347342D01*
X568407Y351278D02*
X571031D01*
X572342Y352590D01*
X571031Y353902D01*
X568407D01*
X569063Y355214D02*
X568407Y355870D01*
Y357182D01*
X569063Y357838D01*
X569719D01*
X570375Y357182D01*
Y356526D01*
Y357182D01*
X571031Y357838D01*
X571687D01*
X572342Y357182D01*
Y355870D01*
X571687Y355214D01*
X572999Y359150D02*
Y361773D01*
X568407Y363086D02*
Y365709D01*
Y364397D01*
X572342D01*
X568407Y369645D02*
Y367021D01*
X572342D01*
Y369645D01*
X570375Y367021D02*
Y368333D01*
X569063Y373581D02*
X568407Y372925D01*
Y371613D01*
X569063Y370957D01*
X569719D01*
X570375Y371613D01*
Y372925D01*
X571031Y373581D01*
X571687D01*
X572342Y372925D01*
Y371613D01*
X571687Y370957D01*
X568407Y374893D02*
Y377517D01*
Y376205D01*
X572342D01*
X355709Y376262D02*
X356365Y376918D01*
X357677D01*
X358332Y376262D01*
Y375606D01*
X357677Y374950D01*
X357021D01*
X357677D01*
X358332Y374294D01*
Y373638D01*
X357677Y372982D01*
X356365D01*
X355709Y373638D01*
X359644Y376918D02*
Y374294D01*
X360956Y372982D01*
X362268Y374294D01*
Y376918D01*
X363580Y376262D02*
X364236Y376918D01*
X365548D01*
X366204Y376262D01*
Y375606D01*
X365548Y374950D01*
X364892D01*
X365548D01*
X366204Y374294D01*
Y373638D01*
X365548Y372982D01*
X364236D01*
X363580Y373638D01*
X367516Y372326D02*
X370140D01*
X371452Y376918D02*
X374075D01*
X372763D01*
Y372982D01*
X378011Y376918D02*
X375387D01*
Y372982D01*
X378011D01*
X375387Y374950D02*
X376699D01*
X381947Y376262D02*
X381291Y376918D01*
X379979D01*
X379323Y376262D01*
Y375606D01*
X379979Y374950D01*
X381291D01*
X381947Y374294D01*
Y373638D01*
X381291Y372982D01*
X379979D01*
X379323Y373638D01*
X383259Y376918D02*
X385883D01*
X384571D01*
Y372982D01*
X516929Y351180D02*
Y347900D01*
X517585Y347244D01*
X518897D01*
X519553Y347900D01*
Y351180D01*
X520865Y347244D02*
X522177D01*
X521521D01*
Y351180D01*
X520865Y350524D01*
X524145Y346588D02*
X526768D01*
X528080Y347244D02*
Y351180D01*
X529392Y349868D01*
X530704Y351180D01*
Y347244D01*
X532016Y349868D02*
Y347900D01*
X532672Y347244D01*
X534640D01*
Y349868D01*
X535952D02*
X538576Y347244D01*
X537264Y348556D01*
X538576Y349868D01*
X535952Y347244D01*
X539888D02*
X541199D01*
X540544D01*
Y351180D01*
X539888Y350524D01*
X353446Y328642D02*
X356726D01*
X357382Y329298D01*
Y330610D01*
X356726Y331265D01*
X353446D01*
X357382Y332577D02*
Y333889D01*
Y333233D01*
X353446D01*
X354102Y332577D01*
X358038Y335857D02*
Y338481D01*
X357382Y339793D02*
X353446D01*
X354758Y341105D01*
X353446Y342417D01*
X357382D01*
X354758Y343729D02*
X356726D01*
X357382Y344385D01*
Y346353D01*
X354758D01*
Y347664D02*
X357382Y350288D01*
X356070Y348976D01*
X354758Y350288D01*
X357382Y347664D01*
Y354224D02*
Y351600D01*
X354758Y354224D01*
X354102D01*
X353446Y353568D01*
Y352256D01*
X354102Y351600D01*
X452362Y351869D02*
Y348589D01*
X453018Y347933D01*
X454330D01*
X454986Y348589D01*
Y351869D01*
X458922Y347933D02*
X456298D01*
X458922Y350557D01*
Y351213D01*
X458266Y351869D01*
X456954D01*
X456298Y351213D01*
X460234Y347277D02*
X462857D01*
X464169Y347933D02*
Y351869D01*
X465481Y350557D01*
X466793Y351869D01*
Y347933D01*
X468105Y350557D02*
Y348589D01*
X468761Y347933D01*
X470729D01*
Y350557D01*
X472041D02*
X474665Y347933D01*
X473353Y349245D01*
X474665Y350557D01*
X472041Y347933D01*
X475977D02*
X477289D01*
X476633D01*
Y351869D01*
X475977Y351213D01*
X351281Y265354D02*
X354561D01*
X355217Y266010D01*
Y267322D01*
X354561Y267978D01*
X351281D01*
X355217Y271914D02*
Y269290D01*
X352593Y271914D01*
X351937D01*
X351281Y271258D01*
Y269946D01*
X351937Y269290D01*
X355873Y273226D02*
Y275850D01*
X355217Y277162D02*
X351281D01*
X352593Y278473D01*
X351281Y279785D01*
X355217D01*
X352593Y281097D02*
X354561D01*
X355217Y281753D01*
Y283721D01*
X352593D01*
Y285033D02*
X355217Y287657D01*
X353905Y286345D01*
X352593Y287657D01*
X355217Y285033D01*
Y291593D02*
Y288969D01*
X352593Y291593D01*
X351937D01*
X351281Y290937D01*
Y289625D01*
X351937Y288969D01*
X390453Y351869D02*
Y348589D01*
X391109Y347933D01*
X392421D01*
X393077Y348589D01*
Y351869D01*
X394389Y351213D02*
X395044Y351869D01*
X396356D01*
X397012Y351213D01*
Y350557D01*
X396356Y349901D01*
X395700D01*
X396356D01*
X397012Y349245D01*
Y348589D01*
X396356Y347933D01*
X395044D01*
X394389Y348589D01*
X398324Y347277D02*
X400948D01*
X402260Y347933D02*
Y351869D01*
X403572Y350557D01*
X404884Y351869D01*
Y347933D01*
X406196Y350557D02*
Y348589D01*
X406852Y347933D01*
X408819D01*
Y350557D01*
X410132D02*
X412755Y347933D01*
X411443Y349245D01*
X412755Y350557D01*
X410132Y347933D01*
X414067D02*
X415379D01*
X414723D01*
Y351869D01*
X414067Y351213D01*
X353938Y196949D02*
X357218D01*
X357874Y197605D01*
Y198917D01*
X357218Y199573D01*
X353938D01*
X354594Y200885D02*
X353938Y201540D01*
Y202852D01*
X354594Y203508D01*
X355250D01*
X355906Y202852D01*
Y202197D01*
Y202852D01*
X356562Y203508D01*
X357218D01*
X357874Y202852D01*
Y201540D01*
X357218Y200885D01*
X358530Y204820D02*
Y207444D01*
X357874Y208756D02*
X353938D01*
X355250Y210068D01*
X353938Y211380D01*
X357874D01*
X355250Y212692D02*
X357218D01*
X357874Y213348D01*
Y215316D01*
X355250D01*
Y216628D02*
X357874Y219251D01*
X356562Y217939D01*
X355250Y219251D01*
X357874Y216628D01*
Y223187D02*
Y220563D01*
X355250Y223187D01*
X354594D01*
X353938Y222531D01*
Y221219D01*
X354594Y220563D01*
X467422Y264882D02*
X471358D01*
Y266850D01*
X470702Y267506D01*
X468079D01*
X467422Y266850D01*
Y264882D01*
X471358Y271441D02*
Y268818D01*
X468735Y271441D01*
X468079D01*
X467422Y270785D01*
Y269474D01*
X468079Y268818D01*
X472014Y272753D02*
Y275377D01*
X471358Y276689D02*
Y278001D01*
Y277345D01*
X467422D01*
X468079Y276689D01*
X473623Y264882D02*
X477559D01*
Y266850D01*
X476903Y267506D01*
X474279D01*
X473623Y266850D01*
Y264882D01*
X474279Y268818D02*
X473623Y269474D01*
Y270785D01*
X474279Y271441D01*
X474935D01*
X475591Y270785D01*
Y270129D01*
Y270785D01*
X476247Y271441D01*
X476903D01*
X477559Y270785D01*
Y269474D01*
X476903Y268818D01*
X478215Y272753D02*
Y275377D01*
X477559Y276689D02*
Y278001D01*
Y277345D01*
X473623D01*
X474279Y276689D01*
X479529Y264882D02*
X483465D01*
Y266850D01*
X482809Y267506D01*
X480185D01*
X479529Y266850D01*
Y264882D01*
X483465Y270785D02*
X479529D01*
X481497Y268818D01*
Y271441D01*
X484121Y272753D02*
Y275377D01*
X483465Y276689D02*
Y278001D01*
Y277345D01*
X479529D01*
X480185Y276689D01*
X489140Y288082D02*
X485204D01*
Y290050D01*
X485860Y290706D01*
X487172D01*
X487828Y290050D01*
Y288082D01*
Y289394D02*
X489140Y290706D01*
X485204Y294641D02*
X485860Y293330D01*
X487172Y292018D01*
X488484D01*
X489140Y292674D01*
Y293986D01*
X488484Y294641D01*
X487828D01*
X487172Y293986D01*
Y292018D01*
X489796Y295953D02*
Y298577D01*
X489140Y299889D02*
Y301201D01*
Y300545D01*
X485204D01*
X485860Y299889D01*
X499179Y288189D02*
X495244D01*
Y290157D01*
X495899Y290813D01*
X497211D01*
X497867Y290157D01*
Y288189D01*
Y289501D02*
X499179Y290813D01*
X495244Y292125D02*
Y294748D01*
X495899D01*
X498523Y292125D01*
X499179D01*
X499835Y296060D02*
Y298684D01*
X499179Y299996D02*
Y301308D01*
Y300652D01*
X495244D01*
X495899Y299996D01*
X508727Y288287D02*
X504791D01*
Y290255D01*
X505447Y290911D01*
X506759D01*
X507415Y290255D01*
Y288287D01*
Y289599D02*
X508727Y290911D01*
X505447Y292223D02*
X504791Y292879D01*
Y294191D01*
X505447Y294847D01*
X506103D01*
X506759Y294191D01*
X507415Y294847D01*
X508071D01*
X508727Y294191D01*
Y292879D01*
X508071Y292223D01*
X507415D01*
X506759Y292879D01*
X506103Y292223D01*
X505447D01*
X506759Y292879D02*
Y294191D01*
X509382Y296159D02*
Y298783D01*
X508727Y300095D02*
Y301407D01*
Y300751D01*
X504791D01*
X505447Y300095D01*
M02*
