G04*
G04 #@! TF.GenerationSoftware,Altium Limited,Altium Designer,18.1.11 (251)*
G04*
G04 Layer_Physical_Order=2*
G04 Layer_Color=16711680*
%FSLAX25Y25*%
%MOIN*%
G70*
G01*
G75*
%ADD10C,0.01000*%
%ADD55C,0.02953*%
%ADD56C,0.01575*%
%ADD57C,0.01968*%
%ADD60C,0.02000*%
%ADD62C,0.16535*%
%ADD63C,0.05512*%
%ADD64C,0.05118*%
%ADD65C,0.04331*%
%ADD66C,0.05906*%
%ADD67C,0.06299*%
%ADD68R,0.06299X0.06299*%
%ADD69C,0.03543*%
%ADD70C,0.02362*%
G36*
X576279Y155807D02*
X241634Y155807D01*
Y415650D01*
X576279D01*
X576279Y155807D01*
D02*
G37*
%LPC*%
G36*
X337557Y410806D02*
X336706Y410636D01*
X336683Y410621D01*
X319482D01*
X319057Y410706D01*
X318206Y410536D01*
X317484Y410054D01*
X317002Y409333D01*
X316833Y408482D01*
X317002Y407631D01*
X317484Y406909D01*
X318206Y406427D01*
X319057Y406258D01*
X319908Y406427D01*
X320080Y406543D01*
X336683D01*
X336706Y406527D01*
X337557Y406358D01*
X338408Y406527D01*
X339129Y407009D01*
X339611Y407731D01*
X339780Y408582D01*
X339611Y409433D01*
X339129Y410154D01*
X338408Y410636D01*
X337557Y410806D01*
D02*
G37*
G36*
X416833Y411388D02*
X416007Y411279D01*
X415237Y410960D01*
X414575Y410453D01*
X414068Y409792D01*
X413749Y409022D01*
X413640Y408195D01*
X413749Y407369D01*
X414068Y406599D01*
X414575Y405938D01*
X415237Y405430D01*
X416007Y405111D01*
X416833Y405003D01*
X417659Y405111D01*
X418429Y405430D01*
X419091Y405938D01*
X419598Y406599D01*
X419917Y407369D01*
X420026Y408195D01*
X419917Y409022D01*
X419598Y409792D01*
X419091Y410453D01*
X418429Y410960D01*
X417659Y411279D01*
X416833Y411388D01*
D02*
G37*
G36*
X408933D02*
X408107Y411279D01*
X407337Y410960D01*
X406675Y410453D01*
X406168Y409792D01*
X405849Y409022D01*
X405740Y408195D01*
X405849Y407369D01*
X406168Y406599D01*
X406675Y405938D01*
X407337Y405430D01*
X408107Y405111D01*
X408933Y405003D01*
X409759Y405111D01*
X410529Y405430D01*
X411191Y405938D01*
X411698Y406599D01*
X412017Y407369D01*
X412126Y408195D01*
X412017Y409022D01*
X411698Y409792D01*
X411191Y410453D01*
X410529Y410960D01*
X409759Y411279D01*
X408933Y411388D01*
D02*
G37*
G36*
X464233Y411288D02*
X463407Y411179D01*
X462637Y410860D01*
X461975Y410353D01*
X461468Y409692D01*
X461149Y408922D01*
X461040Y408095D01*
X461149Y407269D01*
X461468Y406499D01*
X461975Y405838D01*
X462637Y405330D01*
X463407Y405011D01*
X464233Y404903D01*
X465059Y405011D01*
X465829Y405330D01*
X466491Y405838D01*
X466998Y406499D01*
X467317Y407269D01*
X467426Y408095D01*
X467317Y408922D01*
X466998Y409692D01*
X466491Y410353D01*
X465829Y410860D01*
X465059Y411179D01*
X464233Y411288D01*
D02*
G37*
G36*
X456333D02*
X455507Y411179D01*
X454737Y410860D01*
X454075Y410353D01*
X453568Y409692D01*
X453249Y408922D01*
X453140Y408095D01*
X453249Y407269D01*
X453568Y406499D01*
X454075Y405838D01*
X454737Y405330D01*
X455507Y405011D01*
X456333Y404903D01*
X457159Y405011D01*
X457929Y405330D01*
X458591Y405838D01*
X459098Y406499D01*
X459417Y407269D01*
X459526Y408095D01*
X459417Y408922D01*
X459098Y409692D01*
X458591Y410353D01*
X457929Y410860D01*
X457159Y411179D01*
X456333Y411288D01*
D02*
G37*
G36*
X448433D02*
X447607Y411179D01*
X446837Y410860D01*
X446175Y410353D01*
X445668Y409692D01*
X445349Y408922D01*
X445240Y408095D01*
X445349Y407269D01*
X445668Y406499D01*
X446175Y405838D01*
X446837Y405330D01*
X447607Y405011D01*
X448433Y404903D01*
X449259Y405011D01*
X450029Y405330D01*
X450691Y405838D01*
X451198Y406499D01*
X451517Y407269D01*
X451626Y408095D01*
X451517Y408922D01*
X451198Y409692D01*
X450691Y410353D01*
X450029Y410860D01*
X449259Y411179D01*
X448433Y411288D01*
D02*
G37*
G36*
X440533D02*
X439707Y411179D01*
X438937Y410860D01*
X438275Y410353D01*
X437768Y409692D01*
X437449Y408922D01*
X437340Y408095D01*
X437449Y407269D01*
X437768Y406499D01*
X438275Y405838D01*
X438937Y405330D01*
X439707Y405011D01*
X440533Y404903D01*
X441359Y405011D01*
X442129Y405330D01*
X442791Y405838D01*
X443298Y406499D01*
X443617Y407269D01*
X443726Y408095D01*
X443617Y408922D01*
X443298Y409692D01*
X442791Y410353D01*
X442129Y410860D01*
X441359Y411179D01*
X440533Y411288D01*
D02*
G37*
G36*
X432633D02*
X431807Y411179D01*
X431037Y410860D01*
X430375Y410353D01*
X429868Y409692D01*
X429549Y408922D01*
X429440Y408095D01*
X429549Y407269D01*
X429868Y406499D01*
X430375Y405838D01*
X431037Y405330D01*
X431807Y405011D01*
X432633Y404903D01*
X433459Y405011D01*
X434229Y405330D01*
X434891Y405838D01*
X435398Y406499D01*
X435717Y407269D01*
X435826Y408095D01*
X435717Y408922D01*
X435398Y409692D01*
X434891Y410353D01*
X434229Y410860D01*
X433459Y411179D01*
X432633Y411288D01*
D02*
G37*
G36*
X424733D02*
X423907Y411179D01*
X423137Y410860D01*
X422475Y410353D01*
X421968Y409692D01*
X421649Y408922D01*
X421540Y408095D01*
X421649Y407269D01*
X421968Y406499D01*
X422475Y405838D01*
X423137Y405330D01*
X423907Y405011D01*
X424733Y404903D01*
X425559Y405011D01*
X426329Y405330D01*
X426991Y405838D01*
X427498Y406499D01*
X427817Y407269D01*
X427926Y408095D01*
X427817Y408922D01*
X427498Y409692D01*
X426991Y410353D01*
X426329Y410860D01*
X425559Y411179D01*
X424733Y411288D01*
D02*
G37*
G36*
X401033D02*
X400207Y411179D01*
X399437Y410860D01*
X398776Y410353D01*
X398268Y409692D01*
X397949Y408922D01*
X397840Y408095D01*
X397949Y407269D01*
X398268Y406499D01*
X398776Y405838D01*
X399437Y405330D01*
X400207Y405011D01*
X401033Y404903D01*
X401859Y405011D01*
X402629Y405330D01*
X403291Y405838D01*
X403798Y406499D01*
X404117Y407269D01*
X404226Y408095D01*
X404117Y408922D01*
X403798Y409692D01*
X403291Y410353D01*
X402629Y410860D01*
X401859Y411179D01*
X401033Y411288D01*
D02*
G37*
G36*
X393133D02*
X392307Y411179D01*
X391537Y410860D01*
X390876Y410353D01*
X390368Y409692D01*
X390049Y408922D01*
X389940Y408095D01*
X390049Y407269D01*
X390368Y406499D01*
X390876Y405838D01*
X391537Y405330D01*
X392307Y405011D01*
X393133Y404903D01*
X393959Y405011D01*
X394729Y405330D01*
X395391Y405838D01*
X395898Y406499D01*
X396217Y407269D01*
X396326Y408095D01*
X396217Y408922D01*
X395898Y409692D01*
X395391Y410353D01*
X394729Y410860D01*
X393959Y411179D01*
X393133Y411288D01*
D02*
G37*
G36*
X385433D02*
X384607Y411179D01*
X383837Y410860D01*
X383175Y410353D01*
X382668Y409692D01*
X382349Y408922D01*
X382240Y408095D01*
X382349Y407269D01*
X382668Y406499D01*
X383175Y405838D01*
X383837Y405330D01*
X384607Y405011D01*
X385433Y404903D01*
X386259Y405011D01*
X387029Y405330D01*
X387691Y405838D01*
X388198Y406499D01*
X388517Y407269D01*
X388626Y408095D01*
X388517Y408922D01*
X388198Y409692D01*
X387691Y410353D01*
X387029Y410860D01*
X386259Y411179D01*
X385433Y411288D01*
D02*
G37*
G36*
X308557Y412270D02*
X307576Y412141D01*
X306663Y411763D01*
X305878Y411161D01*
X305276Y410376D01*
X304897Y409462D01*
X304768Y408482D01*
X304897Y407501D01*
X305276Y406588D01*
X305878Y405803D01*
X306663Y405201D01*
X307576Y404823D01*
X308557Y404694D01*
X309537Y404823D01*
X310451Y405201D01*
X311235Y405803D01*
X311838Y406588D01*
X312216Y407501D01*
X312345Y408482D01*
X312216Y409462D01*
X311838Y410376D01*
X311235Y411161D01*
X310451Y411763D01*
X309537Y412141D01*
X308557Y412270D01*
D02*
G37*
G36*
X298557D02*
X297576Y412141D01*
X296662Y411763D01*
X295878Y411161D01*
X295276Y410376D01*
X294898Y409462D01*
X294768Y408482D01*
X294898Y407501D01*
X295276Y406588D01*
X295878Y405803D01*
X296662Y405201D01*
X297576Y404823D01*
X298557Y404694D01*
X299537Y404823D01*
X300451Y405201D01*
X301235Y405803D01*
X301837Y406588D01*
X302216Y407501D01*
X302345Y408482D01*
X302216Y409462D01*
X301837Y410376D01*
X301235Y411161D01*
X300451Y411763D01*
X299537Y412141D01*
X298557Y412270D01*
D02*
G37*
G36*
X288557D02*
X287576Y412141D01*
X286663Y411763D01*
X285878Y411161D01*
X285276Y410376D01*
X284897Y409462D01*
X284768Y408482D01*
X284897Y407501D01*
X285276Y406588D01*
X285878Y405803D01*
X286663Y405201D01*
X287576Y404823D01*
X288557Y404694D01*
X289537Y404823D01*
X290451Y405201D01*
X291235Y405803D01*
X291838Y406588D01*
X292216Y407501D01*
X292345Y408482D01*
X292216Y409462D01*
X291838Y410376D01*
X291235Y411161D01*
X290451Y411763D01*
X289537Y412141D01*
X288557Y412270D01*
D02*
G37*
G36*
X256898Y409748D02*
Y400984D01*
X265661D01*
X265531Y402301D01*
X265001Y404048D01*
X264141Y405658D01*
X262983Y407069D01*
X261571Y408227D01*
X259961Y409088D01*
X258214Y409618D01*
X256898Y409748D01*
D02*
G37*
G36*
X255898Y409748D02*
X254581Y409618D01*
X252834Y409088D01*
X251224Y408227D01*
X249813Y407069D01*
X248655Y405658D01*
X247794Y404048D01*
X247264Y402301D01*
X247134Y400984D01*
X255898D01*
Y409748D01*
D02*
G37*
G36*
X562016Y409746D02*
Y400983D01*
X570779D01*
X570649Y402299D01*
X570119Y404046D01*
X569259Y405656D01*
X568101Y407067D01*
X566689Y408226D01*
X565079Y409086D01*
X563333Y409616D01*
X562016Y409746D01*
D02*
G37*
G36*
X561016D02*
X559699Y409616D01*
X557952Y409086D01*
X556342Y408226D01*
X554931Y407067D01*
X553773Y405656D01*
X552912Y404046D01*
X552382Y402299D01*
X552252Y400983D01*
X561016D01*
Y409746D01*
D02*
G37*
G36*
X416833Y403588D02*
X416007Y403479D01*
X415237Y403160D01*
X414575Y402653D01*
X414068Y401992D01*
X413749Y401222D01*
X413640Y400395D01*
X413749Y399569D01*
X414068Y398799D01*
X414575Y398138D01*
X415237Y397630D01*
X416007Y397311D01*
X416833Y397203D01*
X417659Y397311D01*
X418429Y397630D01*
X419091Y398138D01*
X419598Y398799D01*
X419917Y399569D01*
X420026Y400395D01*
X419917Y401222D01*
X419598Y401992D01*
X419091Y402653D01*
X418429Y403160D01*
X417659Y403479D01*
X416833Y403588D01*
D02*
G37*
G36*
X408933D02*
X408107Y403479D01*
X407337Y403160D01*
X406675Y402653D01*
X406168Y401992D01*
X405849Y401222D01*
X405740Y400395D01*
X405849Y399569D01*
X406168Y398799D01*
X406675Y398138D01*
X407337Y397630D01*
X408107Y397311D01*
X408933Y397203D01*
X409759Y397311D01*
X410529Y397630D01*
X411191Y398138D01*
X411698Y398799D01*
X412017Y399569D01*
X412126Y400395D01*
X412017Y401222D01*
X411698Y401992D01*
X411191Y402653D01*
X410529Y403160D01*
X409759Y403479D01*
X408933Y403588D01*
D02*
G37*
G36*
X464233Y403488D02*
X463407Y403379D01*
X462637Y403060D01*
X461975Y402553D01*
X461468Y401892D01*
X461149Y401122D01*
X461040Y400295D01*
X461149Y399469D01*
X461468Y398699D01*
X461975Y398038D01*
X462637Y397530D01*
X463407Y397211D01*
X464233Y397103D01*
X465059Y397211D01*
X465829Y397530D01*
X466491Y398038D01*
X466998Y398699D01*
X467317Y399469D01*
X467426Y400295D01*
X467317Y401122D01*
X466998Y401892D01*
X466491Y402553D01*
X465829Y403060D01*
X465059Y403379D01*
X464233Y403488D01*
D02*
G37*
G36*
X456333D02*
X455507Y403379D01*
X454737Y403060D01*
X454075Y402553D01*
X453568Y401892D01*
X453249Y401122D01*
X453140Y400295D01*
X453249Y399469D01*
X453568Y398699D01*
X454075Y398038D01*
X454737Y397530D01*
X455507Y397211D01*
X456333Y397103D01*
X457159Y397211D01*
X457929Y397530D01*
X458591Y398038D01*
X459098Y398699D01*
X459417Y399469D01*
X459526Y400295D01*
X459417Y401122D01*
X459098Y401892D01*
X458591Y402553D01*
X457929Y403060D01*
X457159Y403379D01*
X456333Y403488D01*
D02*
G37*
G36*
X448433D02*
X447607Y403379D01*
X446837Y403060D01*
X446175Y402553D01*
X445668Y401892D01*
X445349Y401122D01*
X445240Y400295D01*
X445349Y399469D01*
X445668Y398699D01*
X446175Y398038D01*
X446837Y397530D01*
X447607Y397211D01*
X448433Y397103D01*
X449259Y397211D01*
X450029Y397530D01*
X450691Y398038D01*
X451198Y398699D01*
X451517Y399469D01*
X451626Y400295D01*
X451517Y401122D01*
X451198Y401892D01*
X450691Y402553D01*
X450029Y403060D01*
X449259Y403379D01*
X448433Y403488D01*
D02*
G37*
G36*
X440533D02*
X439707Y403379D01*
X438937Y403060D01*
X438275Y402553D01*
X437768Y401892D01*
X437449Y401122D01*
X437340Y400295D01*
X437449Y399469D01*
X437768Y398699D01*
X438275Y398038D01*
X438937Y397530D01*
X439707Y397211D01*
X440533Y397103D01*
X441359Y397211D01*
X442129Y397530D01*
X442791Y398038D01*
X443298Y398699D01*
X443617Y399469D01*
X443726Y400295D01*
X443617Y401122D01*
X443298Y401892D01*
X442791Y402553D01*
X442129Y403060D01*
X441359Y403379D01*
X440533Y403488D01*
D02*
G37*
G36*
X432633D02*
X431807Y403379D01*
X431037Y403060D01*
X430375Y402553D01*
X429868Y401892D01*
X429549Y401122D01*
X429440Y400295D01*
X429549Y399469D01*
X429868Y398699D01*
X430375Y398038D01*
X431037Y397530D01*
X431807Y397211D01*
X432633Y397103D01*
X433459Y397211D01*
X434229Y397530D01*
X434891Y398038D01*
X435398Y398699D01*
X435717Y399469D01*
X435826Y400295D01*
X435717Y401122D01*
X435398Y401892D01*
X434891Y402553D01*
X434229Y403060D01*
X433459Y403379D01*
X432633Y403488D01*
D02*
G37*
G36*
X424733D02*
X423907Y403379D01*
X423137Y403060D01*
X422475Y402553D01*
X421968Y401892D01*
X421649Y401122D01*
X421540Y400295D01*
X421649Y399469D01*
X421968Y398699D01*
X422475Y398038D01*
X423137Y397530D01*
X423907Y397211D01*
X424733Y397103D01*
X425559Y397211D01*
X426329Y397530D01*
X426991Y398038D01*
X427498Y398699D01*
X427817Y399469D01*
X427926Y400295D01*
X427817Y401122D01*
X427498Y401892D01*
X426991Y402553D01*
X426329Y403060D01*
X425559Y403379D01*
X424733Y403488D01*
D02*
G37*
G36*
X401033D02*
X400207Y403379D01*
X399437Y403060D01*
X398776Y402553D01*
X398268Y401892D01*
X397949Y401122D01*
X397840Y400295D01*
X397949Y399469D01*
X398268Y398699D01*
X398776Y398038D01*
X399437Y397530D01*
X400207Y397211D01*
X401033Y397103D01*
X401859Y397211D01*
X402629Y397530D01*
X403291Y398038D01*
X403798Y398699D01*
X404117Y399469D01*
X404226Y400295D01*
X404117Y401122D01*
X403798Y401892D01*
X403291Y402553D01*
X402629Y403060D01*
X401859Y403379D01*
X401033Y403488D01*
D02*
G37*
G36*
X393133D02*
X392307Y403379D01*
X391537Y403060D01*
X390876Y402553D01*
X390368Y401892D01*
X390049Y401122D01*
X389940Y400295D01*
X390049Y399469D01*
X390368Y398699D01*
X390876Y398038D01*
X391537Y397530D01*
X392307Y397211D01*
X393133Y397103D01*
X393959Y397211D01*
X394729Y397530D01*
X395391Y398038D01*
X395898Y398699D01*
X396217Y399469D01*
X396326Y400295D01*
X396217Y401122D01*
X395898Y401892D01*
X395391Y402553D01*
X394729Y403060D01*
X393959Y403379D01*
X393133Y403488D01*
D02*
G37*
G36*
X385433D02*
X384607Y403379D01*
X383837Y403060D01*
X383175Y402553D01*
X382668Y401892D01*
X382349Y401122D01*
X382240Y400295D01*
X382349Y399469D01*
X382668Y398699D01*
X383175Y398038D01*
X383837Y397530D01*
X384607Y397211D01*
X385433Y397103D01*
X386259Y397211D01*
X387029Y397530D01*
X387691Y398038D01*
X388198Y398699D01*
X388517Y399469D01*
X388626Y400295D01*
X388517Y401122D01*
X388198Y401892D01*
X387691Y402553D01*
X387029Y403060D01*
X386259Y403379D01*
X385433Y403488D01*
D02*
G37*
G36*
X543610Y396234D02*
Y394004D01*
X545840D01*
X545811Y394228D01*
X545531Y394902D01*
X545087Y395481D01*
X544508Y395925D01*
X543834Y396204D01*
X543610Y396234D01*
D02*
G37*
G36*
X542610D02*
X542387Y396204D01*
X541713Y395925D01*
X541133Y395481D01*
X540689Y394902D01*
X540410Y394228D01*
X540380Y394004D01*
X542610D01*
Y396234D01*
D02*
G37*
G36*
X265661Y399984D02*
X256898D01*
Y391221D01*
X258214Y391351D01*
X259961Y391881D01*
X261571Y392741D01*
X262983Y393899D01*
X264141Y395310D01*
X265001Y396920D01*
X265531Y398668D01*
X265661Y399984D01*
D02*
G37*
G36*
X255898D02*
X247134D01*
X247264Y398668D01*
X247794Y396920D01*
X248655Y395310D01*
X249813Y393899D01*
X251224Y392741D01*
X252834Y391881D01*
X254581Y391351D01*
X255898Y391221D01*
Y399984D01*
D02*
G37*
G36*
X570779Y399983D02*
X562016D01*
Y391219D01*
X563333Y391349D01*
X565079Y391879D01*
X566689Y392739D01*
X568101Y393898D01*
X569259Y395309D01*
X570119Y396919D01*
X570649Y398666D01*
X570779Y399983D01*
D02*
G37*
G36*
X561016D02*
X552252D01*
X552382Y398666D01*
X552912Y396919D01*
X553773Y395309D01*
X554931Y393898D01*
X556342Y392739D01*
X557952Y391879D01*
X559699Y391349D01*
X561016Y391219D01*
Y399983D01*
D02*
G37*
G36*
X545840Y393004D02*
X543610D01*
Y390774D01*
X543834Y390804D01*
X544508Y391083D01*
X545087Y391527D01*
X545531Y392106D01*
X545811Y392780D01*
X545840Y393004D01*
D02*
G37*
G36*
X542610D02*
X540380D01*
X540410Y392780D01*
X540689Y392106D01*
X541133Y391527D01*
X541713Y391083D01*
X542387Y390804D01*
X542610Y390774D01*
Y393004D01*
D02*
G37*
G36*
X347357Y384606D02*
X346506Y384436D01*
X345784Y383954D01*
X345302Y383233D01*
X345133Y382382D01*
X344480D01*
X344311Y383233D01*
X343829Y383954D01*
X343108Y384436D01*
X342257Y384606D01*
X341406Y384436D01*
X340684Y383954D01*
X340202Y383233D01*
X340033Y382382D01*
X339381D01*
X339211Y383233D01*
X338729Y383954D01*
X338008Y384436D01*
X337157Y384606D01*
X336306Y384436D01*
X335584Y383954D01*
X335102Y383233D01*
X334933Y382382D01*
X335102Y381531D01*
X335234Y381333D01*
Y368731D01*
X335102Y368533D01*
X334933Y367682D01*
X335102Y366831D01*
X335584Y366109D01*
X336306Y365627D01*
X337157Y365458D01*
X338008Y365627D01*
X338729Y366109D01*
X339211Y366831D01*
X339337Y367461D01*
X339657Y367588D01*
X339977Y367461D01*
X340102Y366831D01*
X340584Y366109D01*
X341306Y365627D01*
X342157Y365458D01*
X343008Y365627D01*
X343729Y366109D01*
X344211Y366831D01*
X344337Y367461D01*
X344657Y367588D01*
X344977Y367461D01*
X345102Y366831D01*
X345584Y366109D01*
X346306Y365627D01*
X347157Y365458D01*
X348008Y365627D01*
X348729Y366109D01*
X349211Y366831D01*
X349380Y367682D01*
X349211Y368533D01*
X348979Y368880D01*
Y380884D01*
X349411Y381531D01*
X349581Y382382D01*
X349411Y383233D01*
X348929Y383954D01*
X348208Y384436D01*
X347357Y384606D01*
D02*
G37*
G36*
X558012Y384936D02*
Y381515D01*
X561433D01*
X561363Y382047D01*
X560964Y383008D01*
X560331Y383834D01*
X559505Y384468D01*
X558544Y384866D01*
X558012Y384936D01*
D02*
G37*
G36*
X557012D02*
X556480Y384866D01*
X555518Y384468D01*
X554693Y383834D01*
X554059Y383008D01*
X553661Y382047D01*
X553591Y381515D01*
X557012D01*
Y384936D01*
D02*
G37*
G36*
X444657Y397106D02*
X443806Y396936D01*
X443084Y396454D01*
X442602Y395733D01*
X442433Y394882D01*
X442602Y394031D01*
X443084Y393309D01*
X443806Y392827D01*
X444657Y392658D01*
X444707Y392668D01*
X449275Y388101D01*
X449771Y387769D01*
X450357Y387652D01*
X486523D01*
X494275Y379901D01*
X494771Y379569D01*
X495357Y379452D01*
X515123D01*
X516956Y377619D01*
X516638Y377231D01*
X516542Y377295D01*
X515957Y377411D01*
X503558D01*
X503529Y377454D01*
X502808Y377936D01*
X501957Y378106D01*
X501106Y377936D01*
X500384Y377454D01*
X499902Y376733D01*
X499733Y375882D01*
X499902Y375031D01*
X500384Y374309D01*
X501106Y373827D01*
X501957Y373658D01*
X502808Y373827D01*
X503529Y374309D01*
X503558Y374353D01*
X515323D01*
X516427Y373248D01*
Y370659D01*
X515927Y370508D01*
X515829Y370654D01*
X515108Y371136D01*
X514257Y371306D01*
X513406Y371136D01*
X512684Y370654D01*
X512574Y370490D01*
X511973D01*
X511729Y370854D01*
X511008Y371336D01*
X510157Y371506D01*
X509306Y371336D01*
X508584Y370854D01*
X508102Y370133D01*
X507933Y369282D01*
X508102Y368431D01*
X508584Y367709D01*
X508627Y367681D01*
Y354493D01*
X508273Y353962D01*
X508117Y353182D01*
X508273Y352401D01*
X508580Y351941D01*
X508602Y351831D01*
X509084Y351109D01*
X509806Y350627D01*
X510657Y350458D01*
X511508Y350627D01*
X512229Y351109D01*
X512711Y351831D01*
X512881Y352682D01*
X512711Y353533D01*
X512229Y354254D01*
X511686Y354617D01*
Y355154D01*
X512186Y355306D01*
X512384Y355009D01*
X513106Y354527D01*
X513957Y354358D01*
X514808Y354527D01*
X515529Y355009D01*
X515607Y355125D01*
X516107D01*
X516184Y355009D01*
X516906Y354527D01*
X517757Y354358D01*
X518608Y354527D01*
X519329Y355009D01*
X519457Y355200D01*
X519957D01*
X520084Y355009D01*
X520806Y354527D01*
X521657Y354358D01*
X522508Y354527D01*
X523229Y355009D01*
X523357Y355200D01*
X523857D01*
X523984Y355009D01*
X524706Y354527D01*
X525557Y354358D01*
X526408Y354527D01*
X527129Y355009D01*
X527356Y355349D01*
X527957D01*
X528184Y355009D01*
X528906Y354527D01*
X529757Y354358D01*
X530608Y354527D01*
X531329Y355009D01*
X531811Y355731D01*
X531981Y356582D01*
X531811Y357433D01*
X531329Y358154D01*
X530608Y358636D01*
X529757Y358806D01*
X529729Y358829D01*
Y381962D01*
X529772Y381991D01*
X530254Y382712D01*
X530423Y383563D01*
X530254Y384414D01*
X529772Y385136D01*
X529050Y385617D01*
X528199Y385787D01*
X527348Y385617D01*
X526627Y385136D01*
X526425Y384833D01*
X525823D01*
X525687Y385037D01*
X524965Y385519D01*
X524114Y385688D01*
X523263Y385519D01*
X522542Y385037D01*
X522060Y384316D01*
X521890Y383465D01*
X522060Y382613D01*
X522542Y381892D01*
X523263Y381410D01*
X523274Y381408D01*
Y376262D01*
X522774Y376110D01*
X522738Y376163D01*
X516838Y382063D01*
X516342Y382395D01*
X515757Y382511D01*
X514376D01*
X514327Y383011D01*
X514408Y383027D01*
X515129Y383509D01*
X515611Y384231D01*
X515780Y385082D01*
X515611Y385933D01*
X515129Y386654D01*
X514408Y387136D01*
X513557Y387306D01*
X512706Y387136D01*
X511984Y386654D01*
X511822Y386411D01*
X505058D01*
X505029Y386454D01*
X504308Y386936D01*
X503457Y387106D01*
X502606Y386936D01*
X501884Y386454D01*
X501402Y385733D01*
X501233Y384882D01*
X501402Y384031D01*
X501884Y383309D01*
X502330Y383011D01*
X502179Y382511D01*
X495990D01*
X488238Y390263D01*
X487742Y390595D01*
X487157Y390711D01*
X450990D01*
X446870Y394831D01*
X446880Y394882D01*
X446711Y395733D01*
X446229Y396454D01*
X445508Y396936D01*
X444657Y397106D01*
D02*
G37*
G36*
X557012Y380515D02*
X553591D01*
X553661Y379983D01*
X554059Y379022D01*
X554693Y378196D01*
X555518Y377562D01*
X556480Y377164D01*
X557012Y377094D01*
Y380515D01*
D02*
G37*
G36*
X561433D02*
X558012D01*
Y377094D01*
X558544Y377164D01*
X559505Y377562D01*
X560331Y378196D01*
X560964Y379022D01*
X561363Y379983D01*
X561433Y380515D01*
D02*
G37*
G36*
X547512Y385002D02*
X546480Y384866D01*
X545518Y384468D01*
X544693Y383834D01*
X544059Y383008D01*
X543661Y382047D01*
X543525Y381015D01*
X543661Y379983D01*
X544059Y379022D01*
X544693Y378196D01*
X545518Y377562D01*
X546480Y377164D01*
X547512Y377028D01*
X548544Y377164D01*
X549505Y377562D01*
X550331Y378196D01*
X550964Y379022D01*
X551363Y379983D01*
X551499Y381015D01*
X551363Y382047D01*
X550964Y383008D01*
X550331Y383834D01*
X549505Y384468D01*
X548544Y384866D01*
X547512Y385002D01*
D02*
G37*
G36*
X300008Y373891D02*
Y371661D01*
X302238D01*
X302208Y371885D01*
X301929Y372559D01*
X301485Y373138D01*
X300906Y373583D01*
X300231Y373862D01*
X300008Y373891D01*
D02*
G37*
G36*
X299008D02*
X298784Y373862D01*
X298110Y373583D01*
X297531Y373138D01*
X297087Y372559D01*
X296808Y371885D01*
X296778Y371661D01*
X299008D01*
Y373891D01*
D02*
G37*
G36*
X302238Y370661D02*
X300008D01*
Y368432D01*
X300231Y368461D01*
X300906Y368740D01*
X301485Y369185D01*
X301929Y369764D01*
X302208Y370438D01*
X302238Y370661D01*
D02*
G37*
G36*
X299008D02*
X296778D01*
X296808Y370438D01*
X297087Y369764D01*
X297531Y369185D01*
X298110Y368740D01*
X298784Y368461D01*
X299008Y368432D01*
Y370661D01*
D02*
G37*
G36*
X401357Y381306D02*
X400506Y381136D01*
X399784Y380654D01*
X399302Y379933D01*
X399133Y379082D01*
X399302Y378231D01*
X399784Y377509D01*
X399827Y377481D01*
Y373382D01*
X399944Y372797D01*
X400275Y372301D01*
X403827Y368748D01*
Y357883D01*
X403784Y357854D01*
X403441Y357341D01*
X402873D01*
X402529Y357854D01*
X402486Y357883D01*
Y366082D01*
X402370Y366667D01*
X402038Y367163D01*
X391055Y378147D01*
X391111Y378231D01*
X391281Y379082D01*
X391111Y379933D01*
X390629Y380654D01*
X389908Y381136D01*
X389057Y381306D01*
X388206Y381136D01*
X387484Y380654D01*
X387002Y379933D01*
X386833Y379082D01*
X387002Y378231D01*
X387484Y377509D01*
X387642Y377404D01*
X387644Y377397D01*
X387975Y376901D01*
X399427Y365448D01*
Y357883D01*
X399384Y357854D01*
X398902Y357133D01*
X398733Y356282D01*
X398902Y355431D01*
X399384Y354709D01*
X400106Y354227D01*
X400957Y354058D01*
X401808Y354227D01*
X402529Y354709D01*
X402873Y355223D01*
X403441D01*
X403784Y354709D01*
X404506Y354227D01*
X405357Y354058D01*
X406208Y354227D01*
X406929Y354709D01*
X407411Y355431D01*
X407581Y356282D01*
X407411Y357133D01*
X406929Y357854D01*
X406886Y357883D01*
Y369382D01*
X406770Y369967D01*
X406438Y370463D01*
X402886Y374015D01*
Y377481D01*
X402929Y377509D01*
X403411Y378231D01*
X403581Y379082D01*
X403411Y379933D01*
X402929Y380654D01*
X402208Y381136D01*
X401357Y381306D01*
D02*
G37*
G36*
X405207Y396256D02*
X404356Y396086D01*
X403634Y395604D01*
X403152Y394883D01*
X402983Y394032D01*
X403152Y393181D01*
X403634Y392459D01*
X403677Y392431D01*
Y387332D01*
X403794Y386747D01*
X404125Y386250D01*
X405975Y384400D01*
X405975Y384400D01*
X408575Y381800D01*
X408645Y381754D01*
X408540Y381223D01*
X408106Y381136D01*
X407384Y380654D01*
X406902Y379933D01*
X406733Y379082D01*
X406902Y378231D01*
X407384Y377509D01*
X407733Y377276D01*
X407736Y377268D01*
X407698Y376698D01*
X407184Y376354D01*
X406702Y375633D01*
X406533Y374782D01*
X406702Y373931D01*
X407184Y373209D01*
X407906Y372727D01*
X408757Y372558D01*
X408927Y372093D01*
Y357883D01*
X408884Y357854D01*
X408402Y357133D01*
X408233Y356282D01*
X408402Y355431D01*
X408884Y354709D01*
X409606Y354227D01*
X410457Y354058D01*
X411308Y354227D01*
X412029Y354709D01*
X412306Y355124D01*
X412907D01*
X413184Y354709D01*
X413906Y354227D01*
X414757Y354058D01*
X415608Y354227D01*
X416329Y354709D01*
X416811Y355431D01*
X416981Y356282D01*
X416811Y357133D01*
X416329Y357854D01*
X415986Y358084D01*
Y364481D01*
X416029Y364509D01*
X416511Y365231D01*
X416680Y366082D01*
X416511Y366933D01*
X416029Y367654D01*
X415308Y368136D01*
X414457Y368306D01*
X413606Y368136D01*
X412884Y367654D01*
X412486Y367058D01*
X411986Y367209D01*
Y373082D01*
X411870Y373667D01*
X411538Y374163D01*
X410970Y374731D01*
X410981Y374782D01*
X410811Y375633D01*
X410329Y376354D01*
X409981Y376587D01*
X409977Y376596D01*
X410015Y377166D01*
X410529Y377509D01*
X410558Y377553D01*
X415423D01*
X417385Y375590D01*
X417139Y375130D01*
X416757Y375206D01*
X415906Y375036D01*
X415184Y374554D01*
X414702Y373833D01*
X414533Y372982D01*
X414702Y372131D01*
X415184Y371409D01*
X415906Y370927D01*
X416757Y370758D01*
X416808Y370768D01*
X420075Y367500D01*
X420571Y367169D01*
X421157Y367053D01*
X445323D01*
X447327Y365048D01*
Y350283D01*
X447284Y350254D01*
X446802Y349533D01*
X446633Y348682D01*
X446802Y347831D01*
X447284Y347109D01*
X448006Y346627D01*
X448857Y346458D01*
X448918Y346470D01*
X449057Y346443D01*
X449837Y346598D01*
X450499Y347040D01*
X450941Y347702D01*
X451069Y348347D01*
X451579D01*
X451602Y348231D01*
X452084Y347509D01*
X452806Y347027D01*
X453657Y346858D01*
X454508Y347027D01*
X455229Y347509D01*
X455711Y348231D01*
X455880Y349082D01*
X455711Y349933D01*
X455229Y350654D01*
X455186Y350683D01*
Y367782D01*
X455070Y368367D01*
X454738Y368863D01*
X450938Y372663D01*
X450442Y372995D01*
X449857Y373111D01*
X424190D01*
X417938Y379363D01*
X417138Y380163D01*
X416642Y380495D01*
X416057Y380611D01*
X410632D01*
X410408Y380853D01*
X410604Y381352D01*
X416723D01*
X423475Y374601D01*
X423971Y374269D01*
X424557Y374152D01*
X450523D01*
X459027Y365648D01*
Y329137D01*
X458657Y328806D01*
X457806Y328636D01*
X457084Y328154D01*
X456602Y327433D01*
X456433Y326582D01*
X456602Y325731D01*
X457084Y325009D01*
X457806Y324527D01*
X458657Y324358D01*
X459508Y324527D01*
X460229Y325009D01*
X460711Y325731D01*
X460881Y326582D01*
X460870Y326633D01*
X461638Y327400D01*
X461970Y327897D01*
X462027Y328186D01*
X462527Y328137D01*
Y323350D01*
X462384Y323254D01*
X461902Y322533D01*
X461733Y321682D01*
X461902Y320831D01*
X462384Y320109D01*
X463106Y319627D01*
X463957Y319458D01*
X464808Y319627D01*
X465529Y320109D01*
X466011Y320831D01*
X466181Y321682D01*
X466011Y322533D01*
X465586Y323169D01*
Y355240D01*
X466086Y355508D01*
X466506Y355227D01*
X467357Y355058D01*
X468208Y355227D01*
X468929Y355709D01*
X469123Y355999D01*
X469724D01*
X469984Y355609D01*
X470706Y355127D01*
X471557Y354958D01*
X472408Y355127D01*
X473129Y355609D01*
X473406Y356024D01*
X474007D01*
X474284Y355609D01*
X475006Y355127D01*
X475857Y354958D01*
X476708Y355127D01*
X477429Y355609D01*
X477706Y356024D01*
X478307D01*
X478584Y355609D01*
X479306Y355127D01*
X480157Y354958D01*
X481008Y355127D01*
X481729Y355609D01*
X482211Y356331D01*
X482380Y357182D01*
X482211Y358033D01*
X481729Y358754D01*
X481586Y358850D01*
Y372681D01*
X481629Y372709D01*
X482111Y373431D01*
X482280Y374282D01*
X482111Y375133D01*
X481629Y375854D01*
X480908Y376336D01*
X480057Y376506D01*
X479206Y376336D01*
X478484Y375854D01*
X478002Y375133D01*
X477833Y374282D01*
X478002Y373431D01*
X478484Y372709D01*
X478527Y372681D01*
Y358669D01*
X478307Y358340D01*
X477706D01*
X477429Y358754D01*
X477186Y358917D01*
Y375681D01*
X477229Y375709D01*
X477711Y376431D01*
X477880Y377282D01*
X477711Y378133D01*
X477229Y378854D01*
X476508Y379336D01*
X475657Y379506D01*
X474806Y379336D01*
X474084Y378854D01*
X473602Y378133D01*
X473433Y377282D01*
X473602Y376431D01*
X474084Y375709D01*
X474127Y375681D01*
Y358794D01*
X473672Y358607D01*
X473594Y358622D01*
X473386Y358832D01*
Y374982D01*
X473270Y375567D01*
X472938Y376063D01*
X465438Y383563D01*
X464942Y383895D01*
X464357Y384011D01*
X442958D01*
X442929Y384054D01*
X442208Y384536D01*
X441357Y384706D01*
X440506Y384536D01*
X439784Y384054D01*
X439302Y383333D01*
X439133Y382482D01*
X439302Y381631D01*
X439582Y381211D01*
X439315Y380711D01*
X426690D01*
X418638Y388763D01*
X418142Y389095D01*
X417557Y389211D01*
X414558D01*
X414529Y389254D01*
X413808Y389736D01*
X412957Y389906D01*
X412106Y389736D01*
X411384Y389254D01*
X410902Y388533D01*
X410733Y387682D01*
X410902Y386831D01*
X411384Y386109D01*
X412106Y385627D01*
X412957Y385458D01*
X413808Y385627D01*
X414529Y386109D01*
X414558Y386153D01*
X416923D01*
X418658Y384418D01*
X418339Y384030D01*
X417942Y384295D01*
X417357Y384411D01*
X410290D01*
X408138Y386563D01*
X408138Y386563D01*
X406736Y387965D01*
Y392431D01*
X406779Y392459D01*
X407261Y393181D01*
X407431Y394032D01*
X407261Y394883D01*
X406779Y395604D01*
X406058Y396086D01*
X405207Y396256D01*
D02*
G37*
G36*
X527457Y402406D02*
X526606Y402236D01*
X525884Y401754D01*
X525402Y401033D01*
X525233Y400182D01*
X525402Y399331D01*
X525884Y398609D01*
X526606Y398127D01*
X527457Y397958D01*
X527507Y397968D01*
X534227Y391248D01*
Y358183D01*
X534184Y358154D01*
X533702Y357433D01*
X533533Y356582D01*
X533702Y355731D01*
X534184Y355009D01*
X534906Y354527D01*
X535757Y354358D01*
X536608Y354527D01*
X537329Y355009D01*
X537811Y355731D01*
X537981Y356582D01*
X537811Y357433D01*
X537329Y358154D01*
X537286Y358183D01*
Y391882D01*
X537170Y392467D01*
X536838Y392963D01*
X529670Y400131D01*
X529680Y400182D01*
X529511Y401033D01*
X529029Y401754D01*
X528308Y402236D01*
X527457Y402406D01*
D02*
G37*
G36*
X381357Y381306D02*
X380506Y381136D01*
X379784Y380654D01*
X379302Y379933D01*
X379133Y379082D01*
X379302Y378231D01*
X379784Y377509D01*
X380506Y377027D01*
X381357Y376858D01*
X381407Y376868D01*
X385174Y373102D01*
X385375Y372800D01*
X393527Y364648D01*
Y357883D01*
X393484Y357854D01*
X393002Y357133D01*
X392833Y356282D01*
X393002Y355431D01*
X393484Y354709D01*
X394206Y354227D01*
X395057Y354058D01*
X395908Y354227D01*
X396629Y354709D01*
X397111Y355431D01*
X397281Y356282D01*
X397111Y357133D01*
X396629Y357854D01*
X396586Y357883D01*
Y365282D01*
X396470Y365867D01*
X396138Y366363D01*
X387840Y374662D01*
X387638Y374963D01*
X383570Y379031D01*
X383580Y379082D01*
X383411Y379933D01*
X382929Y380654D01*
X382208Y381136D01*
X381357Y381306D01*
D02*
G37*
G36*
X385757Y367906D02*
X384906Y367736D01*
X384184Y367254D01*
X383702Y366533D01*
X383533Y365682D01*
X383702Y364831D01*
X384184Y364109D01*
X384227Y364081D01*
Y357950D01*
X384084Y357854D01*
X383602Y357133D01*
X383433Y356282D01*
X383602Y355431D01*
X384084Y354709D01*
X384806Y354227D01*
X385657Y354058D01*
X386508Y354227D01*
X387229Y354709D01*
X387711Y355431D01*
X387880Y356282D01*
X387711Y357133D01*
X387286Y357769D01*
Y364081D01*
X387329Y364109D01*
X387811Y364831D01*
X387981Y365682D01*
X387811Y366533D01*
X387329Y367254D01*
X386608Y367736D01*
X385757Y367906D01*
D02*
G37*
G36*
X560047Y353025D02*
Y350795D01*
X562277D01*
X562248Y351019D01*
X561968Y351693D01*
X561524Y352272D01*
X560945Y352716D01*
X560271Y352996D01*
X560047Y353025D01*
D02*
G37*
G36*
X559047D02*
X558824Y352996D01*
X558149Y352716D01*
X557571Y352272D01*
X557126Y351693D01*
X556847Y351019D01*
X556817Y350795D01*
X559047D01*
Y353025D01*
D02*
G37*
G36*
X497547D02*
Y350795D01*
X499777D01*
X499748Y351019D01*
X499468Y351693D01*
X499024Y352272D01*
X498445Y352716D01*
X497771Y352996D01*
X497547Y353025D01*
D02*
G37*
G36*
X496547D02*
X496324Y352996D01*
X495649Y352716D01*
X495071Y352272D01*
X494626Y351693D01*
X494347Y351019D01*
X494317Y350795D01*
X496547D01*
Y353025D01*
D02*
G37*
G36*
X347157Y352906D02*
X346306Y352736D01*
X345584Y352254D01*
X345102Y351533D01*
X344933Y350682D01*
X344380D01*
X344211Y351533D01*
X343729Y352254D01*
X343008Y352736D01*
X342157Y352906D01*
X341306Y352736D01*
X340584Y352254D01*
X340102Y351533D01*
X339933Y350682D01*
X339381D01*
X339211Y351533D01*
X338729Y352254D01*
X338008Y352736D01*
X337157Y352906D01*
X336306Y352736D01*
X335584Y352254D01*
X335102Y351533D01*
X334933Y350682D01*
X335102Y349831D01*
X335334Y349483D01*
Y304980D01*
X335102Y304633D01*
X334933Y303782D01*
X335102Y302931D01*
X335584Y302209D01*
X336306Y301727D01*
X337157Y301558D01*
X338008Y301727D01*
X338729Y302209D01*
X339211Y302931D01*
X339381Y303782D01*
X339933D01*
X340102Y302931D01*
X340584Y302209D01*
X341306Y301727D01*
X342157Y301558D01*
X343008Y301727D01*
X343729Y302209D01*
X344211Y302931D01*
X344380Y303782D01*
X344933D01*
X345102Y302931D01*
X345584Y302209D01*
X346306Y301727D01*
X347157Y301558D01*
X348008Y301727D01*
X348729Y302209D01*
X349211Y302931D01*
X349380Y303782D01*
X349211Y304633D01*
X348979Y304980D01*
Y309891D01*
X349479Y310098D01*
X380398Y279180D01*
X381054Y278741D01*
X381828Y278587D01*
X412377D01*
X421999Y268965D01*
X422103Y268172D01*
X422462Y267306D01*
X423033Y266563D01*
X423776Y265992D01*
X424642Y265633D01*
X425435Y265529D01*
X428357Y262607D01*
X429013Y262169D01*
X429787Y262015D01*
X432759D01*
X432937Y261515D01*
X432462Y260896D01*
X432103Y260030D01*
X431981Y259101D01*
X432103Y258172D01*
X432462Y257306D01*
X433033Y256562D01*
X433776Y255992D01*
X434642Y255633D01*
X435571Y255511D01*
X436500Y255633D01*
X437366Y255992D01*
X437643Y256204D01*
X438091Y255983D01*
Y253980D01*
X438245Y253206D01*
X438684Y252550D01*
X457034Y234199D01*
X457690Y233761D01*
X458465Y233607D01*
X465111D01*
X465630Y233209D01*
X466304Y232930D01*
X467028Y232834D01*
X467751Y232930D01*
X468425Y233209D01*
X469004Y233653D01*
X469449Y234232D01*
X469728Y234906D01*
X469823Y235630D01*
X469728Y236353D01*
X469449Y237028D01*
X469004Y237607D01*
X468425Y238051D01*
X467751Y238330D01*
X467028Y238425D01*
X466304Y238330D01*
X465630Y238051D01*
X465111Y237653D01*
X459303D01*
X442137Y254818D01*
Y256908D01*
X442637Y257078D01*
X443033Y256562D01*
X443776Y255992D01*
X444642Y255633D01*
X445571Y255511D01*
X446500Y255633D01*
X447366Y255992D01*
X448109Y256562D01*
X448680Y257306D01*
X449038Y258172D01*
X449161Y259101D01*
X449038Y260030D01*
X448680Y260896D01*
X448109Y261639D01*
X447366Y262210D01*
X446500Y262568D01*
X445571Y262691D01*
X444642Y262568D01*
X443776Y262210D01*
X443033Y261639D01*
X442623Y261105D01*
X442088Y261230D01*
X441983Y261757D01*
X441945Y261814D01*
X441924Y261920D01*
X441486Y262576D01*
X438594Y265468D01*
X438012Y265857D01*
X437883Y266389D01*
X438109Y266563D01*
X438680Y267306D01*
X439038Y268172D01*
X439161Y269101D01*
X439038Y270030D01*
X438680Y270896D01*
X438109Y271639D01*
X437366Y272210D01*
X436500Y272568D01*
X435571Y272691D01*
X434642Y272568D01*
X433776Y272210D01*
X433033Y271639D01*
X432462Y270896D01*
X432103Y270030D01*
X431981Y269101D01*
X432103Y268172D01*
X432462Y267306D01*
X433033Y266563D01*
X433069Y266534D01*
X432908Y266061D01*
X430625D01*
X428885Y267801D01*
X429038Y268172D01*
X429161Y269101D01*
X429038Y270030D01*
X428680Y270896D01*
X428109Y271639D01*
X427366Y272210D01*
X426500Y272568D01*
X425571Y272691D01*
X424642Y272568D01*
X424271Y272415D01*
X414645Y282041D01*
X413989Y282479D01*
X413215Y282633D01*
X382666D01*
X352614Y312686D01*
Y314678D01*
X352987Y315051D01*
X353426Y315708D01*
X353439Y315773D01*
X353611Y316031D01*
X353781Y316882D01*
X353611Y317733D01*
X353129Y318454D01*
X352408Y318936D01*
X351557Y319106D01*
X350706Y318936D01*
X349984Y318454D01*
X349502Y317733D01*
X349479Y317617D01*
X348979Y317666D01*
Y349483D01*
X349211Y349831D01*
X349380Y350682D01*
X349211Y351533D01*
X348729Y352254D01*
X348008Y352736D01*
X347157Y352906D01*
D02*
G37*
G36*
X434457Y352828D02*
Y350598D01*
X436686D01*
X436657Y350822D01*
X436378Y351496D01*
X435933Y352075D01*
X435355Y352519D01*
X434680Y352799D01*
X434457Y352828D01*
D02*
G37*
G36*
X433457D02*
X433233Y352799D01*
X432559Y352519D01*
X431980Y352075D01*
X431536Y351496D01*
X431256Y350822D01*
X431227Y350598D01*
X433457D01*
Y352828D01*
D02*
G37*
G36*
X562277Y349795D02*
X560047D01*
Y347566D01*
X560271Y347595D01*
X560945Y347874D01*
X561524Y348319D01*
X561968Y348898D01*
X562248Y349572D01*
X562277Y349795D01*
D02*
G37*
G36*
X559047D02*
X556817D01*
X556847Y349572D01*
X557126Y348898D01*
X557571Y348319D01*
X558149Y347874D01*
X558824Y347595D01*
X559047Y347566D01*
Y349795D01*
D02*
G37*
G36*
X499777D02*
X497547D01*
Y347566D01*
X497771Y347595D01*
X498445Y347874D01*
X499024Y348319D01*
X499468Y348898D01*
X499748Y349572D01*
X499777Y349795D01*
D02*
G37*
G36*
X496547D02*
X494317D01*
X494347Y349572D01*
X494626Y348898D01*
X495071Y348319D01*
X495649Y347874D01*
X496324Y347595D01*
X496547Y347566D01*
Y349795D01*
D02*
G37*
G36*
X436686Y349598D02*
X434457D01*
Y347369D01*
X434680Y347398D01*
X435355Y347677D01*
X435933Y348122D01*
X436378Y348701D01*
X436657Y349375D01*
X436686Y349598D01*
D02*
G37*
G36*
X433457D02*
X431227D01*
X431256Y349375D01*
X431536Y348701D01*
X431980Y348122D01*
X432559Y347677D01*
X433233Y347398D01*
X433457Y347369D01*
Y349598D01*
D02*
G37*
G36*
X540457Y371906D02*
X539606Y371736D01*
X538884Y371254D01*
X538402Y370533D01*
X538233Y369682D01*
X538402Y368831D01*
X538884Y368109D01*
X539606Y367627D01*
X540457Y367458D01*
X541308Y367627D01*
X542029Y368109D01*
X542058Y368152D01*
X550823D01*
X563675Y355300D01*
X564022Y354954D01*
Y350912D01*
X563979Y350884D01*
X563497Y350162D01*
X563327Y349311D01*
X563497Y348460D01*
X563979Y347739D01*
X564700Y347256D01*
X565551Y347087D01*
X566402Y347256D01*
X567124Y347739D01*
X567606Y348460D01*
X567775Y349311D01*
X567606Y350162D01*
X567124Y350884D01*
X567081Y350912D01*
Y355587D01*
X566964Y356173D01*
X566633Y356669D01*
X565838Y357463D01*
X552538Y370763D01*
X552042Y371095D01*
X551457Y371211D01*
X542058D01*
X542029Y371254D01*
X541308Y371736D01*
X540457Y371906D01*
D02*
G37*
G36*
X276057Y334006D02*
X275206Y333836D01*
X274484Y333354D01*
X274121Y332811D01*
X267558D01*
X267529Y332854D01*
X266808Y333336D01*
X265957Y333506D01*
X265106Y333336D01*
X264384Y332854D01*
X263902Y332133D01*
X263733Y331282D01*
X263902Y330431D01*
X264384Y329709D01*
X264982Y329310D01*
X265013Y329191D01*
Y328873D01*
X264982Y328754D01*
X264384Y328354D01*
X263902Y327633D01*
X263733Y326782D01*
X263902Y325931D01*
X264384Y325209D01*
X264798Y324933D01*
Y324331D01*
X264384Y324054D01*
X263902Y323333D01*
X263733Y322482D01*
X263902Y321631D01*
X264384Y320909D01*
X265106Y320427D01*
X265957Y320258D01*
X266808Y320427D01*
X267529Y320909D01*
X267558Y320953D01*
X274389D01*
X274484Y320809D01*
X275206Y320327D01*
X276057Y320158D01*
X276908Y320327D01*
X277629Y320809D01*
X278111Y321531D01*
X278280Y322382D01*
X278111Y323233D01*
X277629Y323954D01*
X276908Y324436D01*
X276704Y324477D01*
Y324987D01*
X276908Y325027D01*
X277629Y325509D01*
X278111Y326231D01*
X278280Y327082D01*
X278111Y327933D01*
X277629Y328654D01*
X276908Y329136D01*
X276704Y329177D01*
Y329687D01*
X276908Y329727D01*
X277629Y330209D01*
X278111Y330931D01*
X278280Y331782D01*
X278111Y332633D01*
X277629Y333354D01*
X276908Y333836D01*
X276057Y334006D01*
D02*
G37*
G36*
X354240Y326647D02*
Y324417D01*
X356470D01*
X356440Y324641D01*
X356161Y325315D01*
X355717Y325894D01*
X355138Y326338D01*
X354464Y326618D01*
X354240Y326647D01*
D02*
G37*
G36*
X353240D02*
X353017Y326618D01*
X352342Y326338D01*
X351763Y325894D01*
X351319Y325315D01*
X351040Y324641D01*
X351010Y324417D01*
X353240D01*
Y326647D01*
D02*
G37*
G36*
X356470Y323417D02*
X354240D01*
Y321188D01*
X354464Y321217D01*
X355138Y321496D01*
X355717Y321940D01*
X356161Y322519D01*
X356440Y323194D01*
X356470Y323417D01*
D02*
G37*
G36*
X353240D02*
X351010D01*
X351040Y323194D01*
X351319Y322519D01*
X351763Y321940D01*
X352342Y321496D01*
X353017Y321217D01*
X353240Y321188D01*
Y323417D01*
D02*
G37*
G36*
X523257Y318806D02*
X522406Y318636D01*
X522383Y318621D01*
X495431D01*
X495408Y318636D01*
X494557Y318806D01*
X493706Y318636D01*
X492984Y318154D01*
X492502Y317433D01*
X492333Y316582D01*
X492502Y315731D01*
X492984Y315009D01*
X493706Y314527D01*
X494557Y314358D01*
Y313806D01*
X493706Y313636D01*
X492984Y313154D01*
X492502Y312433D01*
X492333Y311582D01*
X492502Y310731D01*
X492984Y310009D01*
X493706Y309527D01*
X494557Y309358D01*
Y308806D01*
X493706Y308636D01*
X492984Y308154D01*
X492502Y307433D01*
X492333Y306582D01*
X492502Y305731D01*
X492984Y305009D01*
X493706Y304527D01*
X494557Y304358D01*
X495408Y304527D01*
X495431Y304543D01*
X522383D01*
X522406Y304527D01*
X523257Y304358D01*
X524108Y304527D01*
X524829Y305009D01*
X525311Y305731D01*
X525481Y306582D01*
X525311Y307433D01*
X524829Y308154D01*
X524108Y308636D01*
X523257Y308806D01*
Y309358D01*
X524108Y309527D01*
X524829Y310009D01*
X525311Y310731D01*
X525481Y311582D01*
X525311Y312433D01*
X524829Y313154D01*
X524108Y313636D01*
X523257Y313806D01*
Y314358D01*
X524108Y314527D01*
X524829Y315009D01*
X525311Y315731D01*
X525481Y316582D01*
X525311Y317433D01*
X524829Y318154D01*
X524108Y318636D01*
X523257Y318806D01*
D02*
G37*
G36*
X255610Y323036D02*
X254784Y322927D01*
X254014Y322608D01*
X253353Y322101D01*
X252845Y321440D01*
X252526Y320670D01*
X252418Y319843D01*
X252526Y319017D01*
X252845Y318247D01*
X253353Y317586D01*
X254014Y317078D01*
X254784Y316759D01*
X255610Y316651D01*
X256437Y316759D01*
X257207Y317078D01*
X257868Y317586D01*
X258375Y318247D01*
X258694Y319017D01*
X258803Y319843D01*
X258694Y320670D01*
X258375Y321440D01*
X257868Y322101D01*
X257207Y322608D01*
X256437Y322927D01*
X255610Y323036D01*
D02*
G37*
G36*
X247810D02*
X246984Y322927D01*
X246214Y322608D01*
X245553Y322101D01*
X245045Y321440D01*
X244726Y320670D01*
X244618Y319843D01*
X244726Y319017D01*
X245045Y318247D01*
X245553Y317586D01*
X246214Y317078D01*
X246984Y316759D01*
X247810Y316651D01*
X248637Y316759D01*
X249407Y317078D01*
X250068Y317586D01*
X250575Y318247D01*
X250894Y319017D01*
X251003Y319843D01*
X250894Y320670D01*
X250575Y321440D01*
X250068Y322101D01*
X249407Y322608D01*
X248637Y322927D01*
X247810Y323036D01*
D02*
G37*
G36*
X255610Y315136D02*
X254784Y315027D01*
X254014Y314708D01*
X253353Y314201D01*
X252845Y313540D01*
X252526Y312770D01*
X252418Y311943D01*
X252526Y311117D01*
X252845Y310347D01*
X253353Y309686D01*
X254014Y309178D01*
X254784Y308859D01*
X255610Y308751D01*
X256437Y308859D01*
X257207Y309178D01*
X257868Y309686D01*
X258375Y310347D01*
X258694Y311117D01*
X258803Y311943D01*
X258694Y312770D01*
X258375Y313540D01*
X257868Y314201D01*
X257207Y314708D01*
X256437Y315027D01*
X255610Y315136D01*
D02*
G37*
G36*
X247810D02*
X246984Y315027D01*
X246214Y314708D01*
X245553Y314201D01*
X245045Y313540D01*
X244726Y312770D01*
X244618Y311943D01*
X244726Y311117D01*
X245045Y310347D01*
X245553Y309686D01*
X246214Y309178D01*
X246984Y308859D01*
X247810Y308751D01*
X248637Y308859D01*
X249407Y309178D01*
X250068Y309686D01*
X250575Y310347D01*
X250894Y311117D01*
X251003Y311943D01*
X250894Y312770D01*
X250575Y313540D01*
X250068Y314201D01*
X249407Y314708D01*
X248637Y315027D01*
X247810Y315136D01*
D02*
G37*
G36*
X301189Y308930D02*
Y306701D01*
X303419D01*
X303389Y306924D01*
X303110Y307599D01*
X302666Y308178D01*
X302087Y308622D01*
X301413Y308901D01*
X301189Y308930D01*
D02*
G37*
G36*
X300189D02*
X299965Y308901D01*
X299291Y308622D01*
X298712Y308178D01*
X298268Y307599D01*
X297989Y306924D01*
X297959Y306701D01*
X300189D01*
Y308930D01*
D02*
G37*
G36*
X433557Y319106D02*
X432706Y318936D01*
X431984Y318454D01*
X431502Y317733D01*
X431333Y316882D01*
X431502Y316031D01*
X431984Y315309D01*
X432706Y314827D01*
X433557Y314658D01*
Y314106D01*
X432706Y313936D01*
X431984Y313454D01*
X431502Y312733D01*
X431333Y311882D01*
X431502Y311031D01*
X431984Y310309D01*
X432706Y309827D01*
X433557Y309658D01*
Y309106D01*
X432706Y308936D01*
X431984Y308454D01*
X431502Y307733D01*
X431333Y306882D01*
X431502Y306031D01*
X431984Y305309D01*
X432706Y304827D01*
X433557Y304658D01*
X434408Y304827D01*
X434755Y305060D01*
X460751D01*
X460784Y305009D01*
X461506Y304527D01*
X462357Y304358D01*
X463208Y304527D01*
X463929Y305009D01*
X464411Y305731D01*
X464580Y306582D01*
X464411Y307433D01*
X463929Y308154D01*
X463208Y308636D01*
X462357Y308806D01*
Y309358D01*
X463208Y309527D01*
X463929Y310009D01*
X464411Y310731D01*
X464580Y311582D01*
X464411Y312433D01*
X463929Y313154D01*
X463208Y313636D01*
X462357Y313806D01*
Y314358D01*
X463208Y314527D01*
X463929Y315009D01*
X464411Y315731D01*
X464580Y316582D01*
X464411Y317433D01*
X463929Y318154D01*
X463208Y318636D01*
X462357Y318806D01*
X461847Y318704D01*
X434755D01*
X434408Y318936D01*
X433557Y319106D01*
D02*
G37*
G36*
X333557Y395706D02*
X332706Y395536D01*
X331984Y395054D01*
X331502Y394333D01*
X331333Y393482D01*
X331502Y392631D01*
X331984Y391909D01*
X332706Y391427D01*
X333557Y391258D01*
X334408Y391427D01*
X334755Y391659D01*
X346604D01*
X346653Y391160D01*
X346506Y391130D01*
X345784Y390648D01*
X345302Y389927D01*
X345133Y389076D01*
X345302Y388225D01*
X345784Y387503D01*
X346506Y387021D01*
X347357Y386852D01*
X348208Y387021D01*
X348555Y387253D01*
X353108D01*
X353357Y387005D01*
Y384606D01*
X352506Y384436D01*
X351784Y383954D01*
X351302Y383233D01*
X351133Y382382D01*
X351302Y381531D01*
X351534Y381184D01*
Y355782D01*
X351534Y355782D01*
X351673Y355084D01*
X352068Y354493D01*
X400421Y306141D01*
X400502Y305731D01*
X400984Y305009D01*
X401706Y304527D01*
X402557Y304358D01*
X403408Y304527D01*
X404129Y305009D01*
X404611Y305731D01*
X404780Y306582D01*
X404611Y307433D01*
X404129Y308154D01*
X403408Y308636D01*
X403227Y308672D01*
X403036Y308960D01*
X403242Y309494D01*
X403408Y309527D01*
X404129Y310009D01*
X404611Y310731D01*
X404780Y311582D01*
X404611Y312433D01*
X404129Y313154D01*
X403408Y313636D01*
X403227Y313672D01*
X403036Y313960D01*
X403242Y314494D01*
X403408Y314527D01*
X404129Y315009D01*
X404611Y315731D01*
X404780Y316582D01*
X404611Y317433D01*
X404129Y318154D01*
X403408Y318636D01*
X402998Y318718D01*
X366179Y355537D01*
Y382582D01*
X366179Y382582D01*
X366040Y383279D01*
X365645Y383871D01*
X365645Y383871D01*
X354745Y394771D01*
X354154Y395166D01*
X353457Y395304D01*
X353457Y395304D01*
X334755D01*
X334408Y395536D01*
X333557Y395706D01*
D02*
G37*
G36*
X303419Y305701D02*
X301189D01*
Y303471D01*
X301413Y303501D01*
X302087Y303780D01*
X302666Y304224D01*
X303110Y304803D01*
X303389Y305477D01*
X303419Y305701D01*
D02*
G37*
G36*
X300189D02*
X297959D01*
X297989Y305477D01*
X298268Y304803D01*
X298712Y304224D01*
X299291Y303780D01*
X299965Y303501D01*
X300189Y303471D01*
Y305701D01*
D02*
G37*
G36*
X561221Y302599D02*
X560497Y302503D01*
X560073Y302328D01*
X542978D01*
X542554Y302503D01*
X541831Y302599D01*
X541107Y302503D01*
X540433Y302224D01*
X539854Y301780D01*
X539410Y301201D01*
X539130Y300527D01*
X539035Y299803D01*
X539130Y299080D01*
X539410Y298405D01*
X539854Y297826D01*
X540433Y297382D01*
X541107Y297103D01*
X541189Y297092D01*
X541329Y296569D01*
X540937Y296268D01*
X540492Y295689D01*
X540213Y295015D01*
X540118Y294291D01*
X540213Y293568D01*
X540492Y292894D01*
X540937Y292315D01*
X541516Y291870D01*
X542190Y291591D01*
X542913Y291496D01*
X543017Y291509D01*
X543209Y291471D01*
X554857D01*
X555280Y291296D01*
X556004Y291200D01*
X556728Y291296D01*
X557402Y291575D01*
X557981Y292019D01*
X558425Y292598D01*
X558704Y293272D01*
X558800Y293996D01*
X558704Y294720D01*
X558425Y295394D01*
X557981Y295973D01*
X557402Y296417D01*
X556728Y296696D01*
X556492Y296727D01*
X556339Y297252D01*
X556371Y297278D01*
X560073D01*
X560497Y297103D01*
X561221Y297008D01*
X561944Y297103D01*
X562618Y297382D01*
X563197Y297826D01*
X563642Y298405D01*
X563921Y299080D01*
X564016Y299803D01*
X563921Y300527D01*
X563642Y301201D01*
X563197Y301780D01*
X562618Y302224D01*
X561944Y302503D01*
X561221Y302599D01*
D02*
G37*
G36*
X255610Y307236D02*
X254784Y307127D01*
X254014Y306808D01*
X253353Y306301D01*
X252845Y305640D01*
X252526Y304870D01*
X252418Y304043D01*
X252526Y303217D01*
X252845Y302447D01*
X253353Y301786D01*
X254014Y301278D01*
X254784Y300959D01*
X255610Y300851D01*
X256437Y300959D01*
X257207Y301278D01*
X257868Y301786D01*
X258375Y302447D01*
X258694Y303217D01*
X258803Y304043D01*
X258694Y304870D01*
X258375Y305640D01*
X257868Y306301D01*
X257207Y306808D01*
X256437Y307127D01*
X255610Y307236D01*
D02*
G37*
G36*
X247810D02*
X246984Y307127D01*
X246214Y306808D01*
X245553Y306301D01*
X245045Y305640D01*
X244726Y304870D01*
X244618Y304043D01*
X244726Y303217D01*
X245045Y302447D01*
X245553Y301786D01*
X246214Y301278D01*
X246984Y300959D01*
X247810Y300851D01*
X248637Y300959D01*
X249407Y301278D01*
X250068Y301786D01*
X250575Y302447D01*
X250894Y303217D01*
X251003Y304043D01*
X250894Y304870D01*
X250575Y305640D01*
X250068Y306301D01*
X249407Y306808D01*
X248637Y307127D01*
X247810Y307236D01*
D02*
G37*
G36*
X449550Y302876D02*
Y300646D01*
X451779D01*
X451750Y300870D01*
X451471Y301544D01*
X451026Y302123D01*
X450447Y302568D01*
X449773Y302847D01*
X449550Y302876D01*
D02*
G37*
G36*
X448550D02*
X448326Y302847D01*
X447652Y302568D01*
X447073Y302123D01*
X446629Y301544D01*
X446349Y300870D01*
X446320Y300646D01*
X448550D01*
Y302876D01*
D02*
G37*
G36*
X386550Y302776D02*
Y300547D01*
X388779D01*
X388750Y300770D01*
X388471Y301444D01*
X388026Y302023D01*
X387447Y302467D01*
X386773Y302747D01*
X386550Y302776D01*
D02*
G37*
G36*
X385550D02*
X385326Y302747D01*
X384652Y302467D01*
X384073Y302023D01*
X383629Y301444D01*
X383349Y300770D01*
X383320Y300547D01*
X385550D01*
Y302776D01*
D02*
G37*
G36*
X511450Y302576D02*
Y300346D01*
X513679D01*
X513650Y300570D01*
X513371Y301244D01*
X512926Y301823D01*
X512347Y302268D01*
X511673Y302547D01*
X511450Y302576D01*
D02*
G37*
G36*
X510450D02*
X510226Y302547D01*
X509552Y302268D01*
X508973Y301823D01*
X508529Y301244D01*
X508249Y300570D01*
X508220Y300346D01*
X510450D01*
Y302576D01*
D02*
G37*
G36*
X451779Y299646D02*
X449550D01*
Y297417D01*
X449773Y297446D01*
X450447Y297725D01*
X451026Y298170D01*
X451471Y298749D01*
X451750Y299423D01*
X451779Y299646D01*
D02*
G37*
G36*
X448550D02*
X446320D01*
X446349Y299423D01*
X446629Y298749D01*
X447073Y298170D01*
X447652Y297725D01*
X448326Y297446D01*
X448550Y297417D01*
Y299646D01*
D02*
G37*
G36*
X388779Y299547D02*
X386550D01*
Y297317D01*
X386773Y297346D01*
X387447Y297625D01*
X388026Y298070D01*
X388471Y298649D01*
X388750Y299323D01*
X388779Y299547D01*
D02*
G37*
G36*
X385550D02*
X383320D01*
X383349Y299323D01*
X383629Y298649D01*
X384073Y298070D01*
X384652Y297625D01*
X385326Y297346D01*
X385550Y297317D01*
Y299547D01*
D02*
G37*
G36*
X272244Y314133D02*
X271393Y313964D01*
X270672Y313482D01*
X270189Y312760D01*
X270020Y311910D01*
X270030Y311859D01*
X269588Y311416D01*
X269256Y310920D01*
X269140Y310335D01*
Y301109D01*
X269097Y301080D01*
X268615Y300359D01*
X268445Y299508D01*
X268615Y298657D01*
X269097Y297935D01*
X269818Y297453D01*
X270669Y297284D01*
X271520Y297453D01*
X272242Y297935D01*
X272724Y298657D01*
X272893Y299508D01*
X272724Y300359D01*
X272242Y301080D01*
X272199Y301109D01*
Y309648D01*
X272244Y309686D01*
X273095Y309855D01*
X273817Y310337D01*
X274299Y311058D01*
X274468Y311910D01*
X274299Y312760D01*
X273817Y313482D01*
X273095Y313964D01*
X272244Y314133D01*
D02*
G37*
G36*
X513679Y299346D02*
X511450D01*
Y297117D01*
X511673Y297146D01*
X512347Y297425D01*
X512926Y297870D01*
X513371Y298449D01*
X513650Y299123D01*
X513679Y299346D01*
D02*
G37*
G36*
X510450D02*
X508220D01*
X508249Y299123D01*
X508529Y298449D01*
X508973Y297870D01*
X509552Y297425D01*
X510226Y297146D01*
X510450Y297117D01*
Y299346D01*
D02*
G37*
G36*
X265757Y310106D02*
X264906Y309936D01*
X264184Y309454D01*
X263702Y308733D01*
X263533Y307882D01*
X263543Y307831D01*
X262975Y307263D01*
X262644Y306767D01*
X262527Y306182D01*
Y298183D01*
X262484Y298154D01*
X262002Y297433D01*
X261833Y296582D01*
X262002Y295731D01*
X262484Y295009D01*
X263206Y294527D01*
X264057Y294358D01*
X264908Y294527D01*
X265629Y295009D01*
X266111Y295731D01*
X266281Y296582D01*
X266111Y297433D01*
X265629Y298154D01*
X265586Y298183D01*
Y305193D01*
X265757Y305658D01*
X266608Y305827D01*
X267329Y306309D01*
X267811Y307031D01*
X267981Y307882D01*
X267811Y308733D01*
X267329Y309454D01*
X266608Y309936D01*
X265757Y310106D01*
D02*
G37*
G36*
X255610Y299336D02*
X254784Y299227D01*
X254014Y298908D01*
X253353Y298401D01*
X252845Y297740D01*
X252526Y296970D01*
X252418Y296143D01*
X252526Y295317D01*
X252845Y294547D01*
X253353Y293886D01*
X254014Y293378D01*
X254784Y293059D01*
X255610Y292951D01*
X256437Y293059D01*
X257207Y293378D01*
X257868Y293886D01*
X258375Y294547D01*
X258694Y295317D01*
X258803Y296143D01*
X258694Y296970D01*
X258375Y297740D01*
X257868Y298401D01*
X257207Y298908D01*
X256437Y299227D01*
X255610Y299336D01*
D02*
G37*
G36*
X247810D02*
X246984Y299227D01*
X246214Y298908D01*
X245553Y298401D01*
X245045Y297740D01*
X244726Y296970D01*
X244618Y296143D01*
X244726Y295317D01*
X245045Y294547D01*
X245553Y293886D01*
X246214Y293378D01*
X246984Y293059D01*
X247810Y292951D01*
X248637Y293059D01*
X249407Y293378D01*
X250068Y293886D01*
X250575Y294547D01*
X250894Y295317D01*
X251003Y296143D01*
X250894Y296970D01*
X250575Y297740D01*
X250068Y298401D01*
X249407Y298908D01*
X248637Y299227D01*
X247810Y299336D01*
D02*
G37*
G36*
X293457Y294201D02*
X292606Y294032D01*
X291884Y293550D01*
X291402Y292828D01*
X291233Y291977D01*
X291402Y291126D01*
X291884Y290405D01*
X292072Y290280D01*
Y289779D01*
X291884Y289654D01*
X291402Y288933D01*
X291233Y288082D01*
X291402Y287231D01*
X291884Y286509D01*
X291925Y286482D01*
Y285982D01*
X291884Y285954D01*
X291402Y285233D01*
X291233Y284382D01*
X291402Y283531D01*
X291884Y282809D01*
X292606Y282327D01*
X293457Y282158D01*
X294308Y282327D01*
X295029Y282809D01*
X295058Y282853D01*
X330655D01*
X330684Y282809D01*
X331406Y282327D01*
X332257Y282158D01*
X333108Y282327D01*
X333829Y282809D01*
X334311Y283531D01*
X334481Y284382D01*
X334311Y285233D01*
X333829Y285954D01*
X333108Y286436D01*
X332257Y286606D01*
X331406Y286436D01*
X330684Y285954D01*
X330655Y285911D01*
X326897D01*
X326745Y286411D01*
X326756Y286419D01*
X327106Y286768D01*
X327157Y286758D01*
X328008Y286927D01*
X328729Y287409D01*
X329211Y288131D01*
X329380Y288982D01*
X329211Y289833D01*
X328729Y290554D01*
X328008Y291036D01*
X327157Y291206D01*
X326306Y291036D01*
X325584Y290554D01*
X325102Y289833D01*
X325018Y289408D01*
X324798Y289368D01*
X324405Y289804D01*
X324481Y290182D01*
X324311Y291033D01*
X323829Y291754D01*
X323108Y292236D01*
X322257Y292406D01*
X321406Y292236D01*
X320684Y291754D01*
X320655Y291711D01*
X298490D01*
X297438Y292763D01*
X296942Y293095D01*
X296357Y293211D01*
X295255D01*
X295029Y293550D01*
X294308Y294032D01*
X293457Y294201D01*
D02*
G37*
G36*
X255610Y291436D02*
X254784Y291327D01*
X254014Y291008D01*
X253353Y290501D01*
X252845Y289840D01*
X252526Y289070D01*
X252418Y288243D01*
X252526Y287417D01*
X252845Y286647D01*
X253353Y285986D01*
X254014Y285478D01*
X254784Y285159D01*
X255610Y285051D01*
X256437Y285159D01*
X257207Y285478D01*
X257868Y285986D01*
X258375Y286647D01*
X258694Y287417D01*
X258803Y288243D01*
X258694Y289070D01*
X258375Y289840D01*
X257868Y290501D01*
X257207Y291008D01*
X256437Y291327D01*
X255610Y291436D01*
D02*
G37*
G36*
X247810D02*
X246984Y291327D01*
X246214Y291008D01*
X245553Y290501D01*
X245045Y289840D01*
X244726Y289070D01*
X244618Y288243D01*
X244726Y287417D01*
X245045Y286647D01*
X245553Y285986D01*
X246214Y285478D01*
X246984Y285159D01*
X247810Y285051D01*
X248637Y285159D01*
X249407Y285478D01*
X250068Y285986D01*
X250575Y286647D01*
X250894Y287417D01*
X251003Y288243D01*
X250894Y289070D01*
X250575Y289840D01*
X250068Y290501D01*
X249407Y291008D01*
X248637Y291327D01*
X247810Y291436D01*
D02*
G37*
G36*
X541553Y288580D02*
X533253D01*
Y280281D01*
X541553D01*
Y288580D01*
D02*
G37*
G36*
X255610Y283536D02*
X254784Y283427D01*
X254014Y283108D01*
X253353Y282601D01*
X252845Y281940D01*
X252526Y281170D01*
X252418Y280343D01*
X252526Y279517D01*
X252845Y278747D01*
X253353Y278086D01*
X254014Y277578D01*
X254784Y277259D01*
X255610Y277151D01*
X256437Y277259D01*
X257207Y277578D01*
X257868Y278086D01*
X258375Y278747D01*
X258694Y279517D01*
X258803Y280343D01*
X258694Y281170D01*
X258375Y281940D01*
X257868Y282601D01*
X257207Y283108D01*
X256437Y283427D01*
X255610Y283536D01*
D02*
G37*
G36*
X247810D02*
X246984Y283427D01*
X246214Y283108D01*
X245553Y282601D01*
X245045Y281940D01*
X244726Y281170D01*
X244618Y280343D01*
X244726Y279517D01*
X245045Y278747D01*
X245553Y278086D01*
X246214Y277578D01*
X246984Y277259D01*
X247810Y277151D01*
X248637Y277259D01*
X249407Y277578D01*
X250068Y278086D01*
X250575Y278747D01*
X250894Y279517D01*
X251003Y280343D01*
X250894Y281170D01*
X250575Y281940D01*
X250068Y282601D01*
X249407Y283108D01*
X248637Y283427D01*
X247810Y283536D01*
D02*
G37*
G36*
X439173Y296201D02*
X438450Y296106D01*
X437775Y295827D01*
X437196Y295382D01*
X436752Y294803D01*
X436473Y294129D01*
X436378Y293406D01*
X436473Y292682D01*
X436648Y292259D01*
Y279827D01*
X436358Y279449D01*
X436079Y278775D01*
X435984Y278051D01*
X436079Y277328D01*
X436358Y276653D01*
X436803Y276074D01*
X437382Y275630D01*
X438056Y275351D01*
X438779Y275256D01*
X439503Y275351D01*
X440177Y275630D01*
X440756Y276074D01*
X441201Y276653D01*
X441480Y277328D01*
X441575Y278051D01*
X441523Y278449D01*
X441698Y279331D01*
Y292259D01*
X441874Y292682D01*
X441969Y293406D01*
X441874Y294129D01*
X441594Y294803D01*
X441150Y295382D01*
X440571Y295827D01*
X439897Y296106D01*
X439173Y296201D01*
D02*
G37*
G36*
X537903Y278550D02*
Y274931D01*
X541523D01*
X541446Y275514D01*
X541028Y276523D01*
X540363Y277390D01*
X539496Y278055D01*
X538486Y278473D01*
X537903Y278550D01*
D02*
G37*
G36*
X536903Y278550D02*
X536320Y278473D01*
X535310Y278055D01*
X534444Y277390D01*
X533778Y276523D01*
X533360Y275514D01*
X533284Y274931D01*
X536903D01*
Y278550D01*
D02*
G37*
G36*
X303357Y274906D02*
X302506Y274736D01*
X301784Y274254D01*
X301755Y274211D01*
X300257D01*
X299671Y274095D01*
X299175Y273763D01*
X296123Y270711D01*
X293958D01*
X293929Y270754D01*
X293208Y271236D01*
X292357Y271406D01*
X291506Y271236D01*
X290784Y270754D01*
X290302Y270033D01*
X290133Y269182D01*
X290302Y268331D01*
X290784Y267609D01*
X291198Y267333D01*
Y266731D01*
X290784Y266454D01*
X290302Y265733D01*
X290133Y264882D01*
X290302Y264031D01*
X290784Y263309D01*
X291506Y262827D01*
X292357Y262658D01*
X293208Y262827D01*
X293929Y263309D01*
X293958Y263352D01*
X299457D01*
X300042Y263469D01*
X300538Y263801D01*
X303306Y266568D01*
X303357Y266558D01*
X304208Y266727D01*
X304929Y267209D01*
X305411Y267931D01*
X305580Y268782D01*
X305411Y269633D01*
X304929Y270354D01*
X304738Y270482D01*
Y270982D01*
X304929Y271109D01*
X305411Y271831D01*
X305580Y272682D01*
X305411Y273533D01*
X304929Y274254D01*
X304208Y274736D01*
X303357Y274906D01*
D02*
G37*
G36*
X541523Y273931D02*
X537903D01*
Y270311D01*
X538486Y270388D01*
X539496Y270806D01*
X540363Y271471D01*
X541028Y272338D01*
X541446Y273347D01*
X541523Y273931D01*
D02*
G37*
G36*
X536903D02*
X533284D01*
X533360Y273347D01*
X533778Y272338D01*
X534444Y271471D01*
X535310Y270806D01*
X536320Y270388D01*
X536903Y270311D01*
Y273931D01*
D02*
G37*
G36*
X255510Y275636D02*
X254684Y275527D01*
X253914Y275208D01*
X253253Y274701D01*
X252745Y274040D01*
X252426Y273270D01*
X252318Y272443D01*
X252426Y271617D01*
X252745Y270847D01*
X253253Y270186D01*
X253914Y269678D01*
X254684Y269359D01*
X255510Y269251D01*
X256337Y269359D01*
X257107Y269678D01*
X257768Y270186D01*
X258275Y270847D01*
X258594Y271617D01*
X258703Y272443D01*
X258594Y273270D01*
X258275Y274040D01*
X257768Y274701D01*
X257107Y275208D01*
X256337Y275527D01*
X255510Y275636D01*
D02*
G37*
G36*
X247710D02*
X246884Y275527D01*
X246114Y275208D01*
X245453Y274701D01*
X244945Y274040D01*
X244626Y273270D01*
X244518Y272443D01*
X244626Y271617D01*
X244945Y270847D01*
X245453Y270186D01*
X246114Y269678D01*
X246884Y269359D01*
X247710Y269251D01*
X248537Y269359D01*
X249307Y269678D01*
X249968Y270186D01*
X250475Y270847D01*
X250794Y271617D01*
X250903Y272443D01*
X250794Y273270D01*
X250475Y274040D01*
X249968Y274701D01*
X249307Y275208D01*
X248537Y275527D01*
X247710Y275636D01*
D02*
G37*
G36*
X347157Y270406D02*
X346306Y270236D01*
X345584Y269754D01*
X345102Y269033D01*
X344933Y268182D01*
X344380D01*
X344211Y269033D01*
X343729Y269754D01*
X343008Y270236D01*
X342157Y270406D01*
X341306Y270236D01*
X340584Y269754D01*
X340102Y269033D01*
X339933Y268182D01*
X339381D01*
X339211Y269033D01*
X338729Y269754D01*
X338008Y270236D01*
X337157Y270406D01*
X336306Y270236D01*
X335584Y269754D01*
X335102Y269033D01*
X334933Y268182D01*
X335102Y267331D01*
X335334Y266984D01*
Y238380D01*
X335102Y238033D01*
X334933Y237182D01*
X335102Y236331D01*
X335584Y235609D01*
X336306Y235127D01*
X337157Y234958D01*
X338008Y235127D01*
X338729Y235609D01*
X339211Y236331D01*
X339381Y237182D01*
X339933D01*
X340102Y236331D01*
X340584Y235609D01*
X341306Y235127D01*
X342157Y234958D01*
X343008Y235127D01*
X343729Y235609D01*
X344211Y236331D01*
X344380Y237182D01*
X344933D01*
X345102Y236331D01*
X345584Y235609D01*
X346306Y235127D01*
X347157Y234958D01*
X348008Y235127D01*
X348729Y235609D01*
X349211Y236331D01*
X349380Y237182D01*
X349211Y238033D01*
X348979Y238380D01*
Y266984D01*
X349211Y267331D01*
X349380Y268182D01*
X349211Y269033D01*
X348729Y269754D01*
X348008Y270236D01*
X347157Y270406D01*
D02*
G37*
G36*
X455571Y272691D02*
X454642Y272568D01*
X453776Y272210D01*
X453032Y271639D01*
X452462Y270896D01*
X452103Y270030D01*
X451981Y269101D01*
X452103Y268172D01*
X452462Y267306D01*
X453032Y266563D01*
X453776Y265992D01*
X454642Y265633D01*
X455571Y265511D01*
X456500Y265633D01*
X457366Y265992D01*
X458109Y266563D01*
X458680Y267306D01*
X459038Y268172D01*
X459161Y269101D01*
X459038Y270030D01*
X458680Y270896D01*
X458109Y271639D01*
X457366Y272210D01*
X456500Y272568D01*
X455571Y272691D01*
D02*
G37*
G36*
X445571D02*
X444642Y272568D01*
X443776Y272210D01*
X443033Y271639D01*
X442462Y270896D01*
X442103Y270030D01*
X441981Y269101D01*
X442103Y268172D01*
X442462Y267306D01*
X443033Y266563D01*
X443776Y265992D01*
X444642Y265633D01*
X445571Y265511D01*
X446500Y265633D01*
X447366Y265992D01*
X448109Y266563D01*
X448680Y267306D01*
X449038Y268172D01*
X449161Y269101D01*
X449038Y270030D01*
X448680Y270896D01*
X448109Y271639D01*
X447366Y272210D01*
X446500Y272568D01*
X445571Y272691D01*
D02*
G37*
G36*
X405571D02*
X404642Y272568D01*
X403776Y272210D01*
X403032Y271639D01*
X402462Y270896D01*
X402103Y270030D01*
X401981Y269101D01*
X402103Y268172D01*
X402462Y267306D01*
X403032Y266563D01*
X403776Y265992D01*
X404642Y265633D01*
X405571Y265511D01*
X406500Y265633D01*
X407366Y265992D01*
X408109Y266563D01*
X408680Y267306D01*
X409038Y268172D01*
X409161Y269101D01*
X409038Y270030D01*
X408680Y270896D01*
X408109Y271639D01*
X407366Y272210D01*
X406500Y272568D01*
X405571Y272691D01*
D02*
G37*
G36*
X415571D02*
X414642Y272568D01*
X413776Y272210D01*
X413032Y271639D01*
X412462Y270896D01*
X412103Y270030D01*
X411981Y269101D01*
X412103Y268172D01*
X412462Y267306D01*
X413032Y266563D01*
X413776Y265992D01*
X414642Y265633D01*
X415571Y265511D01*
X415815Y265543D01*
X418253Y263105D01*
Y262159D01*
X417753Y261913D01*
X417366Y262210D01*
X416500Y262568D01*
X415571Y262691D01*
X414642Y262568D01*
X413776Y262210D01*
X413032Y261639D01*
X412462Y260896D01*
X412103Y260030D01*
X411981Y259101D01*
X411998Y258974D01*
X405130Y252107D01*
X359057D01*
X358090Y251915D01*
X357271Y251367D01*
X356724Y250548D01*
X356532Y249582D01*
X356724Y248616D01*
X357271Y247797D01*
X358090Y247249D01*
X359057Y247057D01*
X389011D01*
Y244848D01*
X388835Y244424D01*
X388740Y243701D01*
X388835Y242977D01*
X389114Y242303D01*
X389559Y241724D01*
X390138Y241280D01*
X390812Y241001D01*
X391535Y240905D01*
X392259Y241001D01*
X392933Y241280D01*
X393512Y241724D01*
X393956Y242303D01*
X394236Y242977D01*
X394331Y243701D01*
X394236Y244424D01*
X394060Y244848D01*
Y247057D01*
X406176D01*
X407143Y247249D01*
X407962Y247797D01*
X415692Y255527D01*
X416500Y255633D01*
X417366Y255992D01*
X417753Y256289D01*
X418253Y256042D01*
Y253003D01*
X415605Y250356D01*
X415587Y250360D01*
X414620Y250167D01*
X413801Y249620D01*
X413254Y248801D01*
X413062Y247835D01*
Y221062D01*
X376907Y184907D01*
X358957D01*
X357991Y184715D01*
X357171Y184167D01*
X356624Y183348D01*
X356432Y182382D01*
X356624Y181416D01*
X357171Y180596D01*
X357991Y180049D01*
X358957Y179857D01*
X377953D01*
X378919Y180049D01*
X379738Y180596D01*
X416695Y217554D01*
X466176D01*
X466599Y217378D01*
X467323Y217283D01*
X468046Y217378D01*
X468721Y217658D01*
X469300Y218102D01*
X469744Y218681D01*
X470023Y219355D01*
X470118Y220079D01*
X470023Y220802D01*
X469744Y221477D01*
X469300Y222056D01*
X468721Y222500D01*
X468046Y222779D01*
X467323Y222874D01*
X466599Y222779D01*
X466176Y222604D01*
X418112D01*
Y247140D01*
X421706Y250735D01*
X422145Y251391D01*
X422299Y252165D01*
Y256455D01*
X422799Y256505D01*
X422864Y256175D01*
X423412Y255356D01*
X452404Y226364D01*
X453223Y225817D01*
X454189Y225625D01*
X465979D01*
X466402Y225449D01*
X467126Y225354D01*
X467849Y225449D01*
X468524Y225729D01*
X469103Y226173D01*
X469547Y226752D01*
X469826Y227426D01*
X469922Y228150D01*
X469826Y228873D01*
X469547Y229547D01*
X469103Y230126D01*
X468524Y230571D01*
X467849Y230850D01*
X467126Y230945D01*
X466402Y230850D01*
X465979Y230675D01*
X455235D01*
X428647Y257263D01*
X428680Y257306D01*
X429038Y258172D01*
X429161Y259101D01*
X429038Y260030D01*
X428680Y260896D01*
X428109Y261639D01*
X427366Y262210D01*
X426500Y262568D01*
X425571Y262691D01*
X424642Y262568D01*
X423776Y262210D01*
X423033Y261639D01*
X422799Y261334D01*
X422299Y261504D01*
Y263943D01*
X422145Y264718D01*
X421706Y265374D01*
X419000Y268080D01*
X419038Y268172D01*
X419161Y269101D01*
X419038Y270030D01*
X418680Y270896D01*
X418109Y271639D01*
X417366Y272210D01*
X416500Y272568D01*
X415571Y272691D01*
D02*
G37*
G36*
X255510Y267736D02*
X254684Y267627D01*
X253914Y267308D01*
X253253Y266801D01*
X252745Y266140D01*
X252426Y265370D01*
X252318Y264543D01*
X252426Y263717D01*
X252745Y262947D01*
X253253Y262286D01*
X253914Y261778D01*
X254684Y261459D01*
X255510Y261351D01*
X256337Y261459D01*
X257107Y261778D01*
X257768Y262286D01*
X258275Y262947D01*
X258594Y263717D01*
X258703Y264543D01*
X258594Y265370D01*
X258275Y266140D01*
X257768Y266801D01*
X257107Y267308D01*
X256337Y267627D01*
X255510Y267736D01*
D02*
G37*
G36*
X247710D02*
X246884Y267627D01*
X246114Y267308D01*
X245453Y266801D01*
X244945Y266140D01*
X244626Y265370D01*
X244518Y264543D01*
X244626Y263717D01*
X244945Y262947D01*
X245453Y262286D01*
X246114Y261778D01*
X246884Y261459D01*
X247710Y261351D01*
X248537Y261459D01*
X249307Y261778D01*
X249968Y262286D01*
X250475Y262947D01*
X250794Y263717D01*
X250903Y264543D01*
X250794Y265370D01*
X250475Y266140D01*
X249968Y266801D01*
X249307Y267308D01*
X248537Y267627D01*
X247710Y267736D01*
D02*
G37*
G36*
X354358Y263163D02*
Y260933D01*
X356588D01*
X356559Y261157D01*
X356279Y261831D01*
X355835Y262410D01*
X355256Y262854D01*
X354582Y263133D01*
X354358Y263163D01*
D02*
G37*
G36*
X353358D02*
X353135Y263133D01*
X352461Y262854D01*
X351882Y262410D01*
X351437Y261831D01*
X351158Y261157D01*
X351129Y260933D01*
X353358D01*
Y263163D01*
D02*
G37*
G36*
X502567Y261490D02*
Y259260D01*
X504797D01*
X504767Y259483D01*
X504488Y260158D01*
X504044Y260737D01*
X503465Y261181D01*
X502790Y261460D01*
X502567Y261490D01*
D02*
G37*
G36*
X501567D02*
X501343Y261460D01*
X500669Y261181D01*
X500090Y260737D01*
X499646Y260158D01*
X499367Y259483D01*
X499337Y259260D01*
X501567D01*
Y261490D01*
D02*
G37*
G36*
X492626D02*
Y259260D01*
X494856D01*
X494826Y259483D01*
X494547Y260158D01*
X494103Y260737D01*
X493524Y261181D01*
X492849Y261460D01*
X492626Y261490D01*
D02*
G37*
G36*
X491626D02*
X491402Y261460D01*
X490728Y261181D01*
X490149Y260737D01*
X489705Y260158D01*
X489426Y259483D01*
X489396Y259260D01*
X491626D01*
Y261490D01*
D02*
G37*
G36*
X356588Y259933D02*
X354358D01*
Y257703D01*
X354582Y257733D01*
X355256Y258012D01*
X355835Y258456D01*
X356279Y259035D01*
X356559Y259710D01*
X356588Y259933D01*
D02*
G37*
G36*
X353358D02*
X351129D01*
X351158Y259710D01*
X351437Y259035D01*
X351882Y258456D01*
X352461Y258012D01*
X353135Y257733D01*
X353358Y257703D01*
Y259933D01*
D02*
G37*
G36*
X504797Y258260D02*
X502567D01*
Y256030D01*
X502790Y256060D01*
X503465Y256339D01*
X504044Y256783D01*
X504488Y257362D01*
X504767Y258036D01*
X504797Y258260D01*
D02*
G37*
G36*
X501567D02*
X499337D01*
X499367Y258036D01*
X499646Y257362D01*
X500090Y256783D01*
X500669Y256339D01*
X501343Y256060D01*
X501567Y256030D01*
Y258260D01*
D02*
G37*
G36*
X494856D02*
X492626D01*
Y256030D01*
X492849Y256060D01*
X493524Y256339D01*
X494103Y256783D01*
X494547Y257362D01*
X494826Y258036D01*
X494856Y258260D01*
D02*
G37*
G36*
X491626D02*
X489396D01*
X489426Y258036D01*
X489705Y257362D01*
X490149Y256783D01*
X490728Y256339D01*
X491402Y256060D01*
X491626Y256030D01*
Y258260D01*
D02*
G37*
G36*
X455571Y262691D02*
X454642Y262568D01*
X453776Y262210D01*
X453032Y261639D01*
X452462Y260896D01*
X452103Y260030D01*
X451981Y259101D01*
X452103Y258172D01*
X452462Y257306D01*
X453032Y256562D01*
X453776Y255992D01*
X454642Y255633D01*
X455571Y255511D01*
X456500Y255633D01*
X457366Y255992D01*
X458109Y256562D01*
X458680Y257306D01*
X459038Y258172D01*
X459161Y259101D01*
X459038Y260030D01*
X458680Y260896D01*
X458109Y261639D01*
X457366Y262210D01*
X456500Y262568D01*
X455571Y262691D01*
D02*
G37*
G36*
X405571D02*
X404642Y262568D01*
X403776Y262210D01*
X403032Y261639D01*
X402462Y260896D01*
X402103Y260030D01*
X401981Y259101D01*
X402103Y258172D01*
X402462Y257306D01*
X403032Y256562D01*
X403776Y255992D01*
X404642Y255633D01*
X405571Y255511D01*
X406500Y255633D01*
X407366Y255992D01*
X408109Y256562D01*
X408680Y257306D01*
X409038Y258172D01*
X409161Y259101D01*
X409038Y260030D01*
X408680Y260896D01*
X408109Y261639D01*
X407366Y262210D01*
X406500Y262568D01*
X405571Y262691D01*
D02*
G37*
G36*
X247810Y259836D02*
X246984Y259727D01*
X246214Y259408D01*
X245553Y258901D01*
X245045Y258240D01*
X244726Y257470D01*
X244618Y256643D01*
X244726Y255817D01*
X245045Y255047D01*
X245553Y254386D01*
X246214Y253878D01*
X246984Y253559D01*
X247810Y253451D01*
X248637Y253559D01*
X249407Y253878D01*
X250068Y254386D01*
X250575Y255047D01*
X250894Y255817D01*
X251003Y256643D01*
X250894Y257470D01*
X250575Y258240D01*
X250068Y258901D01*
X249407Y259408D01*
X248637Y259727D01*
X247810Y259836D01*
D02*
G37*
G36*
X255610D02*
X254784Y259727D01*
X254014Y259408D01*
X253353Y258901D01*
X252845Y258240D01*
X252526Y257470D01*
X252418Y256643D01*
X252526Y255817D01*
X252845Y255047D01*
X253353Y254386D01*
X254014Y253878D01*
X254784Y253559D01*
X255610Y253451D01*
X256437Y253559D01*
X257207Y253878D01*
X257868Y254386D01*
X258375Y255047D01*
X258456Y255243D01*
X259060Y255394D01*
X259227Y255256D01*
Y249350D01*
X258727Y249318D01*
X258694Y249570D01*
X258375Y250340D01*
X257868Y251001D01*
X257207Y251508D01*
X256437Y251827D01*
X255610Y251936D01*
X254784Y251827D01*
X254014Y251508D01*
X253353Y251001D01*
X252845Y250340D01*
X252526Y249570D01*
X252418Y248743D01*
X252526Y247917D01*
X252845Y247147D01*
X253353Y246486D01*
X254014Y245978D01*
X254784Y245659D01*
X255610Y245551D01*
X256437Y245659D01*
X257207Y245978D01*
X257868Y246486D01*
X258375Y247147D01*
X258694Y247917D01*
X258727Y248169D01*
X259227Y248136D01*
Y247083D01*
X259184Y247054D01*
X258702Y246333D01*
X258533Y245482D01*
X258702Y244631D01*
X259184Y243909D01*
X259906Y243427D01*
X260757Y243258D01*
X261608Y243427D01*
X262329Y243909D01*
X262811Y244631D01*
X262981Y245482D01*
X262811Y246333D01*
X262329Y247054D01*
X262286Y247083D01*
Y255681D01*
X262329Y255709D01*
X262811Y256431D01*
X262981Y257282D01*
X262811Y258133D01*
X262329Y258854D01*
X261608Y259336D01*
X260757Y259506D01*
X259906Y259336D01*
X259184Y258854D01*
X258862Y258372D01*
X258720Y258333D01*
X258278Y258367D01*
X257868Y258901D01*
X257207Y259408D01*
X256437Y259727D01*
X255610Y259836D01*
D02*
G37*
G36*
X476378Y276811D02*
X475654Y276716D01*
X474980Y276437D01*
X474401Y275992D01*
X473957Y275413D01*
X473678Y274739D01*
X473582Y274016D01*
X473678Y273292D01*
X473853Y272869D01*
Y267975D01*
X465439Y259561D01*
X464892Y258742D01*
X464700Y257776D01*
Y253214D01*
X464524Y252790D01*
X464429Y252067D01*
X464524Y251343D01*
X464803Y250669D01*
X465248Y250090D01*
X465827Y249646D01*
X466501Y249367D01*
X467224Y249271D01*
X467948Y249367D01*
X468622Y249646D01*
X469201Y250090D01*
X469645Y250669D01*
X469925Y251343D01*
X470020Y252067D01*
X469925Y252790D01*
X469749Y253214D01*
Y256730D01*
X478262Y265242D01*
X478809Y266061D01*
X479001Y267028D01*
X478903Y267522D01*
Y272869D01*
X479078Y273292D01*
X479174Y274016D01*
X479078Y274739D01*
X478799Y275413D01*
X478355Y275992D01*
X477776Y276437D01*
X477102Y276716D01*
X476378Y276811D01*
D02*
G37*
G36*
X247810Y251936D02*
X246984Y251827D01*
X246214Y251508D01*
X245553Y251001D01*
X245045Y250340D01*
X244726Y249570D01*
X244618Y248743D01*
X244726Y247917D01*
X245045Y247147D01*
X245553Y246486D01*
X246214Y245978D01*
X246984Y245659D01*
X247810Y245551D01*
X248637Y245659D01*
X249407Y245978D01*
X250068Y246486D01*
X250575Y247147D01*
X250894Y247917D01*
X251003Y248743D01*
X250894Y249570D01*
X250575Y250340D01*
X250068Y251001D01*
X249407Y251508D01*
X248637Y251827D01*
X247810Y251936D01*
D02*
G37*
G36*
X265256Y254488D02*
X264405Y254318D01*
X263683Y253836D01*
X263201Y253115D01*
X263032Y252264D01*
X263201Y251413D01*
X263683Y250691D01*
X263726Y250662D01*
Y246683D01*
X263799Y246318D01*
X263633Y245482D01*
X263802Y244631D01*
X264284Y243909D01*
X265006Y243427D01*
X265857Y243258D01*
X266708Y243427D01*
X267429Y243909D01*
X267911Y244631D01*
X268080Y245482D01*
X267911Y246333D01*
X267429Y247054D01*
X266785Y247485D01*
Y250662D01*
X266828Y250691D01*
X267311Y251413D01*
X267480Y252264D01*
X267311Y253115D01*
X266828Y253836D01*
X266107Y254318D01*
X265256Y254488D01*
D02*
G37*
G36*
X300697Y240623D02*
Y238394D01*
X302927D01*
X302897Y238617D01*
X302618Y239292D01*
X302174Y239871D01*
X301595Y240315D01*
X300920Y240594D01*
X300697Y240623D01*
D02*
G37*
G36*
X299697D02*
X299473Y240594D01*
X298799Y240315D01*
X298220Y239871D01*
X297776Y239292D01*
X297497Y238617D01*
X297467Y238394D01*
X299697D01*
Y240623D01*
D02*
G37*
G36*
X255610Y244236D02*
X254784Y244127D01*
X254014Y243808D01*
X253353Y243301D01*
X252845Y242640D01*
X252526Y241870D01*
X252418Y241043D01*
X252526Y240217D01*
X252845Y239447D01*
X253353Y238786D01*
X254014Y238278D01*
X254784Y237959D01*
X255610Y237851D01*
X256437Y237959D01*
X257207Y238278D01*
X257868Y238786D01*
X258375Y239447D01*
X258694Y240217D01*
X258803Y241043D01*
X258694Y241870D01*
X258375Y242640D01*
X257868Y243301D01*
X257207Y243808D01*
X256437Y244127D01*
X255610Y244236D01*
D02*
G37*
G36*
X247810D02*
X246984Y244127D01*
X246214Y243808D01*
X245553Y243301D01*
X245045Y242640D01*
X244726Y241870D01*
X244618Y241043D01*
X244726Y240217D01*
X245045Y239447D01*
X245553Y238786D01*
X246214Y238278D01*
X246984Y237959D01*
X247810Y237851D01*
X248637Y237959D01*
X249407Y238278D01*
X250068Y238786D01*
X250575Y239447D01*
X250894Y240217D01*
X251003Y241043D01*
X250894Y241870D01*
X250575Y242640D01*
X250068Y243301D01*
X249407Y243808D01*
X248637Y244127D01*
X247810Y244236D01*
D02*
G37*
G36*
X302927Y237394D02*
X300697D01*
Y235164D01*
X300920Y235193D01*
X301595Y235473D01*
X302174Y235917D01*
X302618Y236496D01*
X302897Y237170D01*
X302927Y237394D01*
D02*
G37*
G36*
X299697D02*
X297467D01*
X297497Y237170D01*
X297776Y236496D01*
X298220Y235917D01*
X298799Y235473D01*
X299473Y235193D01*
X299697Y235164D01*
Y237394D01*
D02*
G37*
G36*
X251657Y236406D02*
X250806Y236236D01*
X250084Y235754D01*
X249602Y235033D01*
X249433Y234182D01*
X249602Y233331D01*
X250084Y232609D01*
X250806Y232127D01*
X251657Y231958D01*
X252508Y232127D01*
X253144Y232553D01*
X260555D01*
X260584Y232509D01*
X261306Y232027D01*
X262157Y231858D01*
X263008Y232027D01*
X263729Y232509D01*
X264211Y233231D01*
X264381Y234082D01*
X264211Y234933D01*
X263729Y235654D01*
X263008Y236136D01*
X262157Y236306D01*
X261306Y236136D01*
X260584Y235654D01*
X260555Y235611D01*
X253325D01*
X253229Y235754D01*
X252508Y236236D01*
X251657Y236406D01*
D02*
G37*
G36*
X250357Y229206D02*
X249506Y229036D01*
X248784Y228554D01*
X248302Y227833D01*
X248133Y226982D01*
X248302Y226131D01*
X248784Y225409D01*
X249506Y224927D01*
X250357Y224758D01*
X251208Y224927D01*
X251694Y225253D01*
X264023D01*
X266993Y222283D01*
X266983Y222232D01*
X267152Y221381D01*
X267634Y220659D01*
X268356Y220177D01*
X269207Y220008D01*
X270058Y220177D01*
X270779Y220659D01*
X271261Y221381D01*
X271430Y222232D01*
X271261Y223083D01*
X270779Y223804D01*
X270058Y224286D01*
X269207Y224456D01*
X269156Y224446D01*
X265738Y227863D01*
X265242Y228195D01*
X264657Y228311D01*
X252092D01*
X251929Y228554D01*
X251208Y229036D01*
X250357Y229206D01*
D02*
G37*
G36*
X354083Y194757D02*
Y192528D01*
X356312D01*
X356283Y192751D01*
X356004Y193425D01*
X355559Y194004D01*
X354980Y194449D01*
X354306Y194728D01*
X354083Y194757D01*
D02*
G37*
G36*
X353083D02*
X352859Y194728D01*
X352185Y194449D01*
X351606Y194004D01*
X351162Y193425D01*
X350882Y192751D01*
X350853Y192528D01*
X353083D01*
Y194757D01*
D02*
G37*
G36*
X519390Y268150D02*
X518666Y268055D01*
X517992Y267775D01*
X517413Y267331D01*
X516969Y266752D01*
X516689Y266078D01*
X516594Y265354D01*
X516689Y264631D01*
X516865Y264207D01*
Y217778D01*
X495384Y196297D01*
X494960Y196122D01*
X494382Y195678D01*
X493937Y195099D01*
X493658Y194424D01*
X493563Y193701D01*
X493658Y192977D01*
X493937Y192303D01*
X494382Y191724D01*
X494960Y191280D01*
X495635Y191000D01*
X496358Y190905D01*
X497082Y191000D01*
X497756Y191280D01*
X498335Y191724D01*
X498779Y192303D01*
X498955Y192727D01*
X521175Y214947D01*
X521723Y215766D01*
X521915Y216732D01*
Y264207D01*
X522090Y264631D01*
X522185Y265354D01*
X522090Y266078D01*
X521811Y266752D01*
X521367Y267331D01*
X520787Y267775D01*
X520113Y268055D01*
X519390Y268150D01*
D02*
G37*
G36*
X356312Y191528D02*
X354083D01*
Y189298D01*
X354306Y189327D01*
X354980Y189606D01*
X355559Y190051D01*
X356004Y190630D01*
X356283Y191304D01*
X356312Y191528D01*
D02*
G37*
G36*
X353083D02*
X350853D01*
X350882Y191304D01*
X351162Y190630D01*
X351606Y190051D01*
X352185Y189606D01*
X352859Y189327D01*
X353083Y189298D01*
Y191528D01*
D02*
G37*
G36*
X256898Y180234D02*
Y171471D01*
X265661D01*
X265531Y172787D01*
X265001Y174534D01*
X264141Y176145D01*
X262983Y177556D01*
X261571Y178714D01*
X259961Y179574D01*
X258214Y180104D01*
X256898Y180234D01*
D02*
G37*
G36*
X255898D02*
X254581Y180104D01*
X252834Y179574D01*
X251224Y178714D01*
X249813Y177556D01*
X248655Y176145D01*
X247794Y174534D01*
X247264Y172787D01*
X247134Y171471D01*
X255898D01*
Y180234D01*
D02*
G37*
G36*
X562016Y180234D02*
Y171471D01*
X570779D01*
X570649Y172787D01*
X570119Y174534D01*
X569259Y176145D01*
X568101Y177556D01*
X566689Y178714D01*
X565079Y179574D01*
X563333Y180104D01*
X562016Y180234D01*
D02*
G37*
G36*
X561016D02*
X559699Y180104D01*
X557952Y179574D01*
X556342Y178714D01*
X554931Y177556D01*
X553773Y176145D01*
X552912Y174534D01*
X552382Y172787D01*
X552252Y171471D01*
X561016D01*
Y180234D01*
D02*
G37*
G36*
X265661Y170471D02*
X256898D01*
Y161707D01*
X258214Y161837D01*
X259961Y162367D01*
X261571Y163228D01*
X262983Y164386D01*
X264141Y165797D01*
X265001Y167407D01*
X265531Y169154D01*
X265661Y170471D01*
D02*
G37*
G36*
X255898D02*
X247134D01*
X247264Y169154D01*
X247794Y167407D01*
X248655Y165797D01*
X249813Y164386D01*
X251224Y163228D01*
X252834Y162367D01*
X254581Y161837D01*
X255898Y161707D01*
Y170471D01*
D02*
G37*
G36*
X561016Y170471D02*
X552252D01*
X552382Y169154D01*
X552912Y167407D01*
X553773Y165797D01*
X554931Y164386D01*
X556342Y163228D01*
X557952Y162367D01*
X559699Y161837D01*
X561016Y161707D01*
Y170471D01*
D02*
G37*
G36*
X570779D02*
X562016D01*
Y161707D01*
X563333Y161837D01*
X565079Y162367D01*
X566689Y163228D01*
X568101Y164386D01*
X569259Y165797D01*
X570119Y167407D01*
X570649Y169154D01*
X570779Y170471D01*
D02*
G37*
%LPD*%
D10*
X503457Y384882D02*
X513557D01*
X535757Y356582D02*
Y391882D01*
X527457Y400182D02*
X535757Y391882D01*
X325675Y287500D02*
X327157Y288982D01*
X294039Y287500D02*
X325675D01*
X293457Y288082D02*
X294039Y287500D01*
X296357Y291682D02*
X297857Y290182D01*
X293857Y291682D02*
X296357D01*
X450357Y389182D02*
X487157D01*
X444657Y394882D02*
X450357Y389182D01*
X487157D02*
X495357Y380982D01*
X414457Y356482D02*
X414757Y356182D01*
X251757Y234082D02*
X262157D01*
X251657Y234182D02*
X251757Y234082D01*
X265857Y245882D02*
X265957Y245982D01*
X265857Y245482D02*
Y245882D01*
X260757Y245482D02*
Y257282D01*
X293457Y284382D02*
X332257D01*
X264057Y296582D02*
Y306182D01*
X265757Y307882D01*
X510157Y353182D02*
Y369282D01*
X501957Y375882D02*
X515957D01*
X517957Y373882D01*
Y356782D02*
Y373882D01*
X480057Y357182D02*
Y374282D01*
Y357182D02*
X480157Y357082D01*
X475657Y357382D02*
Y377282D01*
Y357382D02*
X475857Y357182D01*
X441357Y382482D02*
X464357D01*
X471857Y374982D01*
Y357782D02*
Y374982D01*
X417557Y387682D02*
X426057Y379182D01*
X453557D01*
X464057Y368682D01*
Y321782D02*
Y368682D01*
X407057Y385482D02*
X409657Y382882D01*
X417357D01*
X424557Y375682D01*
X458657Y326582D02*
X460557Y328482D01*
Y366282D01*
X424557Y375682D02*
X451157D01*
X460557Y366282D01*
X416857Y378282D02*
X423557Y371582D01*
X416757Y372982D02*
X421157Y368582D01*
X423557Y371582D02*
X449857D01*
X453657Y367782D01*
Y349082D02*
Y367782D01*
X421157Y368582D02*
X445957D01*
X448857Y365682D01*
Y348682D02*
Y365682D01*
X386457Y373882D02*
X395057Y365282D01*
Y356282D02*
Y365282D01*
X275557Y322482D02*
X275657Y322382D01*
X265957Y326782D02*
X275757D01*
X276057Y327082D01*
X386457Y373882D02*
X386557D01*
X540457Y369682D02*
X551457D01*
X564757Y356382D01*
X513957Y356582D02*
Y368782D01*
X514257Y369082D01*
X495357Y380982D02*
X515757D01*
X521657Y375082D01*
Y356582D02*
Y375082D01*
X405207Y387332D02*
X407057Y385482D01*
X405207Y387332D02*
Y394032D01*
X412957Y387682D02*
X417557D01*
X416057Y379082D02*
X416857Y378282D01*
X410457Y356482D02*
Y373082D01*
X408757Y374782D02*
X410457Y373082D01*
X401357Y373382D02*
Y378782D01*
Y373382D02*
X405357Y369382D01*
Y356482D02*
Y369382D01*
X408957Y379082D02*
X416057D01*
X400957Y356282D02*
Y366082D01*
X389057Y377982D02*
X400957Y366082D01*
X389057Y377982D02*
Y379082D01*
X381357D02*
X386557Y373882D01*
X385757Y356382D02*
Y365682D01*
X385657Y356282D02*
X385757Y356382D01*
X517757Y356582D02*
X517957Y356782D01*
X297857Y290182D02*
X322257D01*
X266157Y331282D02*
X275857D01*
X276357Y331782D01*
X265757Y322482D02*
X265957D01*
X275557D01*
X299457Y264882D02*
X303357Y268782D01*
X300257Y272682D02*
X303357D01*
X292357Y269182D02*
X296757D01*
X300257Y272682D01*
X291857Y264882D02*
X292357D01*
X299457D01*
X264657Y226782D02*
X269207Y222232D01*
X250607Y226782D02*
X264657D01*
X265256Y246683D02*
X265957Y245982D01*
X265256Y246683D02*
Y252264D01*
X270669Y299508D02*
Y310335D01*
X272244Y311910D01*
X414457Y356482D02*
Y366082D01*
X467357Y357182D02*
Y357282D01*
Y367182D01*
X528199Y358089D02*
X529607Y356682D01*
X528199Y358089D02*
Y383563D01*
X524803Y357935D02*
X525557Y357182D01*
X524803Y357935D02*
Y382776D01*
X524114Y383465D02*
X524803Y382776D01*
X564757Y356382D02*
X565551Y355587D01*
Y349311D02*
Y355587D01*
D55*
X406176Y249582D02*
X415407Y258812D01*
X425217Y269501D02*
X425564Y269153D01*
X476378Y267126D02*
Y274016D01*
Y267126D02*
X476476Y267028D01*
X425197Y257913D02*
Y259350D01*
Y257142D02*
Y257913D01*
X439173Y279331D02*
Y293406D01*
X415587Y220079D02*
Y247835D01*
X377953Y182382D02*
X415587Y220016D01*
X358957Y182382D02*
X377953D01*
X415587Y220079D02*
X467323D01*
X359057Y249582D02*
X391339D01*
X406176D01*
X425197Y257142D02*
X454189Y228150D01*
X467126D01*
X543209Y293996D02*
X556004D01*
X542913Y294291D02*
X543209Y293996D01*
X541831Y299803D02*
X561221D01*
X467224Y252067D02*
Y257776D01*
X476476Y267028D01*
X496358Y193701D02*
X519390Y216732D01*
Y265354D01*
X391339Y249582D02*
X391535Y249385D01*
Y243701D02*
Y249385D01*
D56*
X342157Y382182D02*
X342357Y382382D01*
X433557Y306882D02*
X462057D01*
X462357Y306582D01*
X433557Y311882D02*
X462057D01*
X462357Y311582D01*
X433557Y316882D02*
X462057D01*
X462357Y316582D01*
X337157Y367682D02*
X337357Y367882D01*
X347157Y237182D02*
Y268182D01*
Y303782D02*
Y350682D01*
X342157Y237182D02*
Y268182D01*
Y303782D02*
Y350682D01*
X337157Y237182D02*
Y268182D01*
Y303782D02*
Y350682D01*
X361357Y352782D02*
X402557Y311582D01*
X353357Y355782D02*
X402557Y306582D01*
X353357Y355782D02*
Y382382D01*
X342157Y367682D02*
Y382182D01*
X347157Y367682D02*
Y382182D01*
X347357Y382382D01*
X337057Y368182D02*
Y381882D01*
X364357Y354782D02*
X402557Y316582D01*
X333557Y393482D02*
X353457D01*
X364357Y382582D01*
Y354782D02*
Y382582D01*
X337057Y368182D02*
X337357Y367882D01*
X337057Y381882D02*
X337557Y382382D01*
X361357Y352782D02*
Y381582D01*
X347357Y389076D02*
X353863D01*
X361357Y381582D01*
D57*
X440114Y253980D02*
Y260983D01*
Y253980D02*
X458465Y235630D01*
X440055Y261042D02*
Y261146D01*
Y261042D02*
X440114Y260983D01*
X415118Y269101D02*
X420276Y263943D01*
Y252165D02*
Y263943D01*
X415945Y247835D02*
X420276Y252165D01*
X415587Y247835D02*
X415945D01*
X413215Y280610D02*
X425118Y268707D01*
X350590Y315516D02*
X351557Y316482D01*
X350590Y311848D02*
Y315516D01*
Y311848D02*
X381828Y280610D01*
X425466Y268359D02*
X429787Y264038D01*
X437163D02*
X440055Y261146D01*
X429787Y264038D02*
X437163D01*
X381828Y280610D02*
X413215D01*
X458465Y235630D02*
X467028D01*
D60*
X510157Y353182D02*
X510657Y352682D01*
X448857Y348682D02*
X449057Y348482D01*
X463957Y321682D02*
X464057Y321782D01*
X494557Y311582D02*
X523257D01*
X494557Y306582D02*
X523257D01*
X494557Y316582D02*
X523257D01*
X319157Y408582D02*
X337557D01*
X319057Y408482D02*
X319157Y408582D01*
D62*
X256398Y400484D02*
D03*
X561516Y400483D02*
D03*
X256398Y170971D02*
D03*
X561516Y170971D02*
D03*
D63*
X308557Y408482D02*
D03*
X298557D02*
D03*
X288557D02*
D03*
D64*
X405571Y259101D02*
D03*
Y269101D02*
D03*
X415571D02*
D03*
Y259101D02*
D03*
X425571D02*
D03*
Y269101D02*
D03*
X435571D02*
D03*
Y259101D02*
D03*
X445571D02*
D03*
Y269101D02*
D03*
X455571D02*
D03*
Y259101D02*
D03*
D65*
X464233Y400295D02*
D03*
X456333D02*
D03*
X440533D02*
D03*
X448433D02*
D03*
X432633D02*
D03*
X424733D02*
D03*
X408933Y400395D02*
D03*
X416833D02*
D03*
X401033Y400295D02*
D03*
X393133D02*
D03*
X385433D02*
D03*
Y408095D02*
D03*
X393133D02*
D03*
X401033D02*
D03*
X416833Y408195D02*
D03*
X408933D02*
D03*
X424733Y408095D02*
D03*
X432633D02*
D03*
X448433D02*
D03*
X440533D02*
D03*
X456333D02*
D03*
X464233D02*
D03*
X247810Y319843D02*
D03*
Y311943D02*
D03*
Y296143D02*
D03*
Y304043D02*
D03*
Y288243D02*
D03*
Y280343D02*
D03*
X247710Y264543D02*
D03*
Y272443D02*
D03*
X247810Y256643D02*
D03*
Y248743D02*
D03*
Y241043D02*
D03*
X255610D02*
D03*
Y248743D02*
D03*
Y256643D02*
D03*
X255510Y272443D02*
D03*
Y264543D02*
D03*
X255610Y280343D02*
D03*
Y288243D02*
D03*
Y304043D02*
D03*
Y296143D02*
D03*
Y311943D02*
D03*
Y319843D02*
D03*
D66*
X547512Y381015D02*
D03*
X557512D02*
D03*
D67*
X537403Y274431D02*
D03*
D68*
Y284431D02*
D03*
D69*
X476378Y274016D02*
D03*
X438779Y278051D02*
D03*
X439173Y293406D02*
D03*
X559547Y350295D02*
D03*
X353740Y323917D02*
D03*
X386050Y300046D02*
D03*
X449050Y300147D02*
D03*
X510950Y299847D02*
D03*
X353858Y260433D02*
D03*
X353583Y192028D02*
D03*
X467224Y252067D02*
D03*
X467126Y228150D02*
D03*
X467323Y220079D02*
D03*
X543110Y393504D02*
D03*
X497047Y350295D02*
D03*
X433957Y350098D02*
D03*
X299508Y371161D02*
D03*
X300689Y306201D02*
D03*
X300197Y237894D02*
D03*
X496358Y193701D02*
D03*
X556004Y293996D02*
D03*
X542913Y294291D02*
D03*
X541831Y299803D02*
D03*
X561221D02*
D03*
X502067Y258760D02*
D03*
X492126D02*
D03*
X467028Y235630D02*
D03*
X519390Y265354D02*
D03*
X391535Y243701D02*
D03*
D70*
X327157Y288982D02*
D03*
X251657Y234182D02*
D03*
X262157Y234082D02*
D03*
X260757Y257282D02*
D03*
X265857Y245482D02*
D03*
X260757D02*
D03*
X292357Y269182D02*
D03*
X293457Y284382D02*
D03*
X332257D02*
D03*
X264057Y296582D02*
D03*
X265757Y307882D02*
D03*
X510157Y369282D02*
D03*
X510657Y352682D02*
D03*
X540457Y369682D02*
D03*
X527457Y400182D02*
D03*
X535757Y356582D02*
D03*
X529757D02*
D03*
X444657Y394882D02*
D03*
X525557Y356582D02*
D03*
X521657D02*
D03*
X501957Y375882D02*
D03*
X517757Y356582D02*
D03*
X513557Y385082D02*
D03*
X514257Y369082D02*
D03*
X513957Y356582D02*
D03*
X480057Y374282D02*
D03*
X480157Y357182D02*
D03*
X475657Y377282D02*
D03*
X475857Y357182D02*
D03*
X441357Y382482D02*
D03*
X471557Y357182D02*
D03*
X467357Y367182D02*
D03*
X448857Y348682D02*
D03*
X453657Y349082D02*
D03*
X463957Y321682D02*
D03*
X458657Y326582D02*
D03*
X416757Y372982D02*
D03*
X414757Y356282D02*
D03*
X414457Y366082D02*
D03*
X410457Y356282D02*
D03*
X405357D02*
D03*
X400957D02*
D03*
X385757Y365682D02*
D03*
X385657Y356282D02*
D03*
X395057D02*
D03*
X265957Y322482D02*
D03*
X276057Y322382D02*
D03*
X265957Y326782D02*
D03*
X276057Y327082D02*
D03*
X265957Y331282D02*
D03*
X276057Y331782D02*
D03*
X322257Y290182D02*
D03*
X293457Y288082D02*
D03*
Y291977D02*
D03*
X359057Y249582D02*
D03*
X358957Y182382D02*
D03*
X351557Y316882D02*
D03*
X342157Y367682D02*
D03*
X337157D02*
D03*
X347157D02*
D03*
X347357Y382382D02*
D03*
X342257D02*
D03*
X347157Y237182D02*
D03*
Y268182D02*
D03*
Y303782D02*
D03*
Y350682D02*
D03*
X342157Y237182D02*
D03*
Y268182D02*
D03*
Y303782D02*
D03*
Y350682D02*
D03*
X337157Y237182D02*
D03*
Y268182D02*
D03*
Y303782D02*
D03*
Y350682D02*
D03*
X402557Y311582D02*
D03*
Y306582D02*
D03*
Y316582D02*
D03*
X462357Y311582D02*
D03*
X433557Y311882D02*
D03*
X494557Y311582D02*
D03*
X523257D02*
D03*
X462357Y306582D02*
D03*
X433557Y306882D02*
D03*
X494557Y306582D02*
D03*
X523257D02*
D03*
X462357Y316582D02*
D03*
X433557Y316882D02*
D03*
X494557Y316582D02*
D03*
X523257D02*
D03*
X337557Y408582D02*
D03*
X319057Y408482D02*
D03*
X353357Y382382D02*
D03*
X347357Y389076D02*
D03*
X503457Y384882D02*
D03*
X405207Y394032D02*
D03*
X412957Y387682D02*
D03*
X408757Y374782D02*
D03*
X401357Y379082D02*
D03*
X389057D02*
D03*
X408957D02*
D03*
X381357D02*
D03*
X467357Y357282D02*
D03*
X333557Y393482D02*
D03*
X337157Y382382D02*
D03*
X303357Y268782D02*
D03*
Y272682D02*
D03*
X292357Y264882D02*
D03*
X269207Y222232D02*
D03*
X250357Y226982D02*
D03*
X265256Y252264D02*
D03*
X270669Y299508D02*
D03*
X272244Y311910D02*
D03*
X528199Y383563D02*
D03*
X524114Y383465D02*
D03*
X565551Y349311D02*
D03*
M02*
