G04*
G04 #@! TF.GenerationSoftware,Altium Limited,Altium Designer,19.1.8 (144)*
G04*
G04 Layer_Physical_Order=1*
G04 Layer_Color=255*
%FSLAX44Y44*%
%MOMM*%
G71*
G01*
G75*
%ADD12C,0.2540*%
%ADD13C,0.3810*%
%ADD16R,0.8500X0.9000*%
%ADD17R,0.9000X0.8500*%
%ADD18R,1.0500X1.0000*%
%ADD19R,2.5000X1.0000*%
%ADD20R,3.8000X1.8000*%
%ADD21O,1.7000X0.5500*%
%ADD22O,0.5500X1.7000*%
%ADD23R,0.8000X0.8000*%
%ADD24R,0.8000X0.8000*%
%ADD25R,1.5500X1.2000*%
%ADD26R,1.2000X1.5500*%
%ADD27R,1.3000X2.1500*%
%ADD28R,0.8000X1.2000*%
%ADD29R,0.9500X1.0500*%
%ADD30C,1.0000*%
%ADD51C,1.0000*%
%ADD52C,0.7500*%
%ADD53C,0.5080*%
%ADD54C,0.5000*%
%ADD55C,0.4000*%
%ADD56C,1.2500*%
%ADD57C,0.6350*%
%ADD58C,0.6500*%
%ADD59C,4.2000*%
%ADD60C,1.1000*%
%ADD61R,1.6000X1.6000*%
%ADD62C,1.6000*%
%ADD63C,0.8636*%
%ADD64C,0.9000*%
%ADD65C,0.6000*%
D12*
X822468Y631940D02*
X822722Y631686D01*
D13*
X911632Y463368D02*
X911750Y463250D01*
D16*
X1369000Y968250D02*
D03*
X1353500D02*
D03*
X976250Y556250D02*
D03*
X960750D02*
D03*
X976250Y577750D02*
D03*
X960750D02*
D03*
X976250Y600000D02*
D03*
X960750D02*
D03*
D17*
X1238250Y706750D02*
D03*
Y722250D02*
D03*
X1263750Y706500D02*
D03*
Y722000D02*
D03*
X1288000Y706500D02*
D03*
Y722000D02*
D03*
D18*
X1391250Y881000D02*
D03*
X1406250D02*
D03*
X791750Y934250D02*
D03*
X776750D02*
D03*
X1234500Y881000D02*
D03*
X1249500D02*
D03*
X793000Y769750D02*
D03*
X778000D02*
D03*
X1074500Y881000D02*
D03*
X1089500D02*
D03*
X792750Y596500D02*
D03*
X777750D02*
D03*
D19*
X1390000Y511868D02*
D03*
Y531934D02*
D03*
Y552000D02*
D03*
Y572066D02*
D03*
Y592132D02*
D03*
Y612198D02*
D03*
D20*
X1431656Y487738D02*
D03*
Y636328D02*
D03*
D21*
X1390812Y778210D02*
D03*
Y790910D02*
D03*
Y803610D02*
D03*
Y816310D02*
D03*
Y829010D02*
D03*
Y841710D02*
D03*
Y854410D02*
D03*
Y867110D02*
D03*
X1297812Y778210D02*
D03*
Y790910D02*
D03*
Y803610D02*
D03*
Y816310D02*
D03*
Y829010D02*
D03*
Y841710D02*
D03*
Y854410D02*
D03*
Y867110D02*
D03*
X1233586Y778972D02*
D03*
Y791672D02*
D03*
Y804372D02*
D03*
Y817072D02*
D03*
Y829772D02*
D03*
Y842472D02*
D03*
Y855172D02*
D03*
Y867872D02*
D03*
X1140586Y778972D02*
D03*
Y791672D02*
D03*
Y804372D02*
D03*
Y817072D02*
D03*
Y829772D02*
D03*
Y842472D02*
D03*
Y855172D02*
D03*
Y867872D02*
D03*
X1073566Y778718D02*
D03*
Y791418D02*
D03*
Y804118D02*
D03*
Y816818D02*
D03*
Y829518D02*
D03*
Y842218D02*
D03*
Y854918D02*
D03*
Y867618D02*
D03*
X980566Y778718D02*
D03*
Y791418D02*
D03*
Y804118D02*
D03*
Y816818D02*
D03*
Y829518D02*
D03*
Y842218D02*
D03*
Y854918D02*
D03*
Y867618D02*
D03*
D22*
X881900Y915750D02*
D03*
X869200D02*
D03*
X856500D02*
D03*
X843800D02*
D03*
X831100D02*
D03*
X818400D02*
D03*
X805700D02*
D03*
X793000D02*
D03*
X881900Y822750D02*
D03*
X869200D02*
D03*
X856500D02*
D03*
X843800D02*
D03*
X831100D02*
D03*
X818400D02*
D03*
X805700D02*
D03*
X793000D02*
D03*
X882200Y754500D02*
D03*
X869500D02*
D03*
X856800D02*
D03*
X844100D02*
D03*
X831400D02*
D03*
X818700D02*
D03*
X806000D02*
D03*
X793300D02*
D03*
X882200Y661500D02*
D03*
X869500D02*
D03*
X856800D02*
D03*
X844100D02*
D03*
X831400D02*
D03*
X818700D02*
D03*
X806000D02*
D03*
X793300D02*
D03*
X881500Y580750D02*
D03*
X868800D02*
D03*
X856100D02*
D03*
X843400D02*
D03*
X830700D02*
D03*
X818000D02*
D03*
X805300D02*
D03*
X792600D02*
D03*
X881500Y487750D02*
D03*
X868800D02*
D03*
X856100D02*
D03*
X843400D02*
D03*
X830700D02*
D03*
X818000D02*
D03*
X805300D02*
D03*
X792600D02*
D03*
D23*
X1353500Y1000250D02*
D03*
Y983740D02*
D03*
X1238250Y675000D02*
D03*
Y691510D02*
D03*
X1263750Y675000D02*
D03*
Y691510D02*
D03*
X1288000Y675000D02*
D03*
Y691510D02*
D03*
D24*
X1026500Y556250D02*
D03*
X1009990D02*
D03*
X1026500Y577750D02*
D03*
X1009990D02*
D03*
X1026500Y600000D02*
D03*
X1009990D02*
D03*
D25*
X1276500Y841750D02*
D03*
Y858750D02*
D03*
X818750Y804250D02*
D03*
Y787250D02*
D03*
X1116250Y841500D02*
D03*
Y858500D02*
D03*
X818750Y634750D02*
D03*
Y617750D02*
D03*
X818500Y464500D02*
D03*
Y447500D02*
D03*
D26*
X950000Y840750D02*
D03*
X933000D02*
D03*
D27*
X835992Y1041500D02*
D03*
X900000D02*
D03*
D28*
X856058Y1018640D02*
D03*
X868504D02*
D03*
X880950D02*
D03*
D29*
X1406250Y898500D02*
D03*
X1391750D02*
D03*
X776750Y951000D02*
D03*
X791250D02*
D03*
X1249000Y898500D02*
D03*
X1234500D02*
D03*
X778000Y785500D02*
D03*
X792500D02*
D03*
X1089250Y898500D02*
D03*
X1074750D02*
D03*
X777750Y612000D02*
D03*
X792250D02*
D03*
D30*
X1444000Y968250D02*
D03*
X951628Y965408D02*
D03*
X731950Y1037000D02*
D03*
X757350D02*
D03*
X782750D02*
D03*
D51*
X1406250Y889250D02*
X1421000D01*
X1249000Y889625D02*
X1262375D01*
X1089500Y889250D02*
X1102250D01*
X760875Y942625D02*
X778750D01*
X763875Y777625D02*
X779250D01*
X762500Y604250D02*
X779250D01*
X1369000Y967948D02*
X1390540D01*
X1390794Y898500D02*
Y939500D01*
Y967948D01*
X1233840Y867618D02*
Y918944D01*
X1390794Y868108D02*
Y898500D01*
X1390304Y867618D02*
X1390794Y868108D01*
X1073566Y867618D02*
Y917130D01*
X933086Y789132D02*
Y906734D01*
X792762Y789132D02*
X933086D01*
X792000Y916774D02*
Y955502D01*
X792878Y754352D02*
Y769750D01*
Y789016D01*
X792000Y614634D02*
X933086D01*
X792878Y580870D02*
Y613756D01*
X818024Y446368D02*
X925856D01*
X933086Y555452D02*
Y614634D01*
Y453598D02*
Y492250D01*
X938420Y952200D02*
X951628Y965408D01*
X937404Y952200D02*
X938420D01*
X818000Y487750D02*
X818500Y487250D01*
Y464500D02*
Y487250D01*
X792000Y614634D02*
X792878Y613756D01*
X933086Y906734D02*
X956835Y930483D01*
X933086Y614634D02*
Y789132D01*
X937404Y952200D02*
X956835Y932769D01*
X929784Y959820D02*
X937404Y952200D01*
X792762Y789132D02*
X792878Y789016D01*
X925856Y446368D02*
X933086Y453598D01*
X1276494Y919180D02*
X1388762D01*
X1234076D02*
X1276494D01*
Y860370D02*
Y919180D01*
X1115458Y918944D02*
X1116220Y918182D01*
Y859236D02*
Y918182D01*
X1115458Y918944D02*
X1233840D01*
X1072804D02*
X1115458D01*
X1297068Y867854D02*
X1297304Y867618D01*
X1297068Y867854D02*
Y895812D01*
X956835Y932769D02*
X971186Y918418D01*
X956835Y930483D02*
Y932769D01*
X792000Y955502D02*
X796318Y959820D01*
X929784D01*
X971186Y918418D02*
X1072278D01*
X1073566Y917130D01*
X1072278Y918418D02*
X1072804Y918944D01*
X1233840D02*
X1234076Y919180D01*
D52*
X1249000Y880750D02*
Y889625D01*
Y880750D02*
X1249500Y880250D01*
X994500Y526500D02*
X1058000D01*
X994500Y510000D02*
X1058000D01*
X1026500Y567000D02*
Y577750D01*
Y556250D02*
Y567000D01*
X1007500Y730750D02*
Y731000D01*
Y693750D02*
Y730750D01*
X974000D02*
Y731000D01*
Y693750D02*
Y730750D01*
X990500Y693500D02*
Y730750D01*
X1280375Y839625D02*
X1282460Y841710D01*
X818024Y463368D02*
X911632D01*
X1026500Y567000D02*
X1038875D01*
X1026500Y588875D02*
Y600000D01*
Y577750D02*
Y588875D01*
X1038875D01*
X976250Y556250D02*
X1009990D01*
X1009990Y577750D02*
X1009990Y577750D01*
X976250Y577750D02*
X1009990D01*
Y600000D02*
X1009990Y600000D01*
X976250Y600000D02*
X1009990D01*
X948500Y556250D02*
X960750D01*
X947500Y555250D02*
X948500Y556250D01*
X910000Y551250D02*
X913500Y554750D01*
X892000Y551250D02*
X910000D01*
X891750Y551500D02*
X892000Y551250D01*
X867000Y551500D02*
X891750D01*
X856100Y562400D02*
X867000Y551500D01*
X856100Y562400D02*
Y580750D01*
X960500Y577500D02*
X960750Y577750D01*
X947250Y577500D02*
X960500D01*
X904250D02*
X913750D01*
X889250Y562500D02*
X904250Y577500D01*
X875000Y562500D02*
X889250D01*
X868800Y568700D02*
X875000Y562500D01*
X868800Y568700D02*
Y580750D01*
X960250Y599500D02*
X960750Y600000D01*
X946750Y599500D02*
X960250D01*
X913558Y602442D02*
X914500Y601500D01*
X881778Y602442D02*
X913558D01*
X818532Y634310D02*
X912004D01*
X818700Y634478D02*
Y661500D01*
X1001000Y612500D02*
X1330250D01*
X994500Y619000D02*
X1001000Y612500D01*
X1116500Y775950D02*
Y841750D01*
X1344750Y640000D02*
X1372552Y612198D01*
X1229000Y640000D02*
X1344750D01*
X1159250Y709750D02*
X1229000Y640000D01*
X1276494Y835744D02*
X1280375Y839625D01*
X1337500Y626750D02*
X1372118Y592132D01*
X1200250Y626750D02*
X1337500D01*
X1186750Y640250D02*
X1200250Y626750D01*
X1367000Y552000D02*
X1390000D01*
X1320500Y598500D02*
X1367000Y552000D01*
X1186250Y598500D02*
X1320500D01*
X1330250Y612500D02*
X1370684Y572066D01*
X1275875Y675000D02*
X1288000D01*
X1263750D02*
X1275875D01*
X1275250Y674375D02*
X1275875Y675000D01*
X1275250Y657250D02*
Y674375D01*
X1250000Y674000D02*
X1251000Y675000D01*
X1250000Y657250D02*
Y674000D01*
X1067500Y721750D02*
X1210000D01*
Y739000D02*
X1233500Y762500D01*
X1210000Y721750D02*
Y739000D01*
X1210250Y679000D02*
Y719488D01*
X1425500Y761500D02*
Y784000D01*
X1405890Y803610D02*
X1425500Y784000D01*
X1238250Y722250D02*
Y732750D01*
X1250250Y744750D01*
X1317750D01*
X1334500Y761500D01*
X1376250D01*
X1390812Y803610D02*
X1405890D01*
X1263750Y722000D02*
X1264250Y722500D01*
Y730500D01*
X1266750Y733000D01*
X1323750D01*
X1338250Y747500D01*
X1379000D01*
X1411750Y747250D02*
X1412250Y746750D01*
X1411750Y747250D02*
Y780750D01*
X1401590Y790910D02*
X1411750Y780750D01*
X1390812Y790910D02*
X1401590D01*
X1251000Y675000D02*
X1263750D01*
X1238250D02*
X1251000D01*
X1238250Y691510D02*
Y706750D01*
X1263750Y691510D02*
X1263750Y691510D01*
X1263750Y691510D02*
Y706500D01*
X1288000Y691510D02*
X1288000Y691510D01*
X1288000Y691510D02*
Y706500D01*
X1233500Y762500D02*
X1264500D01*
X1276494Y774494D01*
Y835744D01*
X1406250Y881000D02*
Y889250D01*
X1421000D02*
X1421750Y888500D01*
X1089500Y881000D02*
Y889250D01*
X1406250Y880250D02*
Y881000D01*
X1089500Y880500D02*
Y881000D01*
X951120Y682630D02*
Y841964D01*
X1029000Y657116D02*
X1042000Y670116D01*
X1030000Y709750D02*
X1083220Y762970D01*
X1030000Y683100D02*
Y709750D01*
X1042000Y696250D02*
X1067500Y721750D01*
X1042000Y670116D02*
Y696250D01*
X1110000Y709750D02*
X1159250D01*
X762500Y604250D02*
X762500Y604250D01*
X763750Y777750D02*
X763875Y777625D01*
X760750Y942750D02*
X760875Y942625D01*
X1102250Y889250D02*
X1102250Y889250D01*
X1262375Y889625D02*
X1262500Y889750D01*
X1406250Y889250D02*
Y896250D01*
X1444000Y968250D02*
Y973250D01*
X1429500Y987750D02*
X1444000Y973250D01*
X1410342Y987750D02*
X1429500D01*
X1378750Y1000250D02*
X1379500Y999500D01*
X1353500Y1000250D02*
X1378750D01*
X1353500Y967750D02*
Y983740D01*
X1372552Y612198D02*
X1390000D01*
X1372118Y592132D02*
X1390000D01*
X1370382Y511868D02*
X1390000D01*
X1323250Y559000D02*
X1370382Y511868D01*
X1187000Y559000D02*
X1323250D01*
X1370316Y531934D02*
X1390000D01*
X1322750Y579500D02*
X1370316Y531934D01*
X1186500Y579500D02*
X1322750D01*
X1370684Y572066D02*
X1390000D01*
X1061350Y638250D02*
X1078120Y655020D01*
X995500Y638250D02*
X1061350D01*
X951120Y682630D02*
X995500Y638250D01*
X1093370Y762970D02*
X1103520D01*
X1083220D02*
X1093370D01*
X1109000Y738000D02*
X1110000D01*
X1093370Y753630D02*
X1109000Y738000D01*
X1093370Y753630D02*
Y762970D01*
X822300Y631772D02*
X822468Y631940D01*
X951120Y841964D02*
X951374Y842218D01*
X980566D01*
X1103520Y762970D02*
X1116500Y775950D01*
Y841750D02*
X1117222Y842472D01*
X1140586D01*
X1282460Y841710D02*
X1297812D01*
X856100Y487750D02*
X868800D01*
X881500D01*
X898100D01*
X856800Y661500D02*
X869500D01*
X882200D01*
X898800D01*
X1297812Y790910D02*
Y803610D01*
Y778210D02*
Y790910D01*
Y761610D02*
Y778210D01*
X1140586Y791672D02*
Y804372D01*
Y778972D02*
Y791672D01*
Y762372D02*
Y778972D01*
X980566Y791418D02*
Y804118D01*
Y778718D02*
Y791418D01*
Y762118D02*
Y778718D01*
X881900Y822750D02*
X898500D01*
X869200D02*
X881900D01*
X856500D02*
X869200D01*
X1390304Y854918D02*
X1408066D01*
X1390540Y967948D02*
X1410342Y987750D01*
D53*
X1174386Y791418D02*
X1256174D01*
X1174386Y778718D02*
X1256174D01*
X1174386Y804118D02*
X1256174D01*
X1436500Y883352D02*
Y887250D01*
X1434482Y881334D02*
X1436500Y883352D01*
X745888Y693628D02*
X778400Y661116D01*
X649114Y693628D02*
X745888D01*
X778400Y661116D02*
X792642D01*
X735618Y771750D02*
X786764Y822896D01*
X651510Y771750D02*
X735618D01*
X649368Y773892D02*
X651510Y771750D01*
X843678Y754352D02*
X843932Y754098D01*
X830978Y661352D02*
Y676864D01*
X740864Y682000D02*
X742586Y683722D01*
X637740Y682000D02*
X740864D01*
X629302Y673562D02*
X637740Y682000D01*
X843678Y661352D02*
Y680674D01*
X822602Y701750D02*
X843678Y680674D01*
X637424Y701750D02*
X822602D01*
X629302Y693628D02*
X637424Y701750D01*
X805324Y580616D02*
X805578Y580870D01*
X649368Y633430D02*
X651298Y631500D01*
X685334D02*
X750968Y565866D01*
X651298Y631500D02*
X685334D01*
X818278Y562056D02*
Y580870D01*
X673750Y641048D02*
X673952Y641250D01*
X641802D02*
X673952D01*
X629556Y653496D02*
X641802Y641250D01*
X673750Y640750D02*
Y641048D01*
X792642Y661116D02*
X792878Y661352D01*
X649876Y753318D02*
X670704D01*
X649368Y753826D02*
X649876Y753318D01*
X1173370Y997412D02*
X1297068D01*
X1159146Y1011636D02*
X1173370Y997412D01*
X635144Y576534D02*
X635906D01*
X629556Y582122D02*
X635144Y576534D01*
X629556Y582122D02*
Y613872D01*
X792878Y487870D02*
Y500842D01*
X785766Y507954D02*
X792878Y500842D01*
X724044Y507954D02*
X785766D01*
X649368Y582630D02*
X724044Y507954D01*
X683785Y564469D02*
X729378Y518876D01*
X825136D02*
X843678Y500334D01*
X729378Y518876D02*
X825136D01*
X805578Y661352D02*
Y675594D01*
X798466Y682706D02*
X805578Y675594D01*
X649876Y672800D02*
X741316D01*
X649114Y673562D02*
X649876Y672800D01*
X815230Y692612D02*
X830978Y676864D01*
X770526Y692612D02*
X815230D01*
X770526Y682706D02*
X798466D01*
X649368Y582630D02*
Y613872D01*
X639208Y594822D02*
Y622254D01*
X629556Y631906D02*
X639208Y622254D01*
X809896Y553674D02*
X818278Y562056D01*
X745126Y553674D02*
X809896D01*
X675276Y623524D02*
X745126Y553674D01*
X661814Y623524D02*
X662068Y623270D01*
X814722Y542752D02*
X830978Y559008D01*
X740808Y542752D02*
X814722D01*
X662068Y621492D02*
X740808Y542752D01*
X819040Y530560D02*
X843678Y555198D01*
X737760Y530560D02*
X819040D01*
X673752Y594568D02*
X737760Y530560D01*
X884826Y1016208D02*
X891938D01*
Y980902D02*
Y1016208D01*
X882286Y971250D02*
X891938Y980902D01*
X897526Y971250D02*
X901336Y975060D01*
Y1013414D01*
X786764Y822896D02*
X792878D01*
X882286Y1018748D02*
X884826Y1016208D01*
X1329072Y804118D02*
X1390304D01*
X1100472D02*
X1101234Y804880D01*
X1073566Y804118D02*
X1100472D01*
X1329072Y778718D02*
X1390304D01*
X1100472D02*
X1101234Y779480D01*
X1073566Y778718D02*
X1100472D01*
X1329072Y791418D02*
X1390304D01*
X1100472D02*
X1101234Y792180D01*
X1073566Y791418D02*
X1100472D01*
X1022494Y804118D02*
X1073566D01*
X1022494Y778718D02*
X1073566D01*
X1022494Y791418D02*
X1073566D01*
X856378Y580870D02*
Y602442D01*
X869078Y580870D02*
Y602442D01*
X881778Y580870D02*
Y602442D01*
X1295798Y937976D02*
Y980648D01*
X1287162Y989284D02*
X1295798Y980648D01*
X1166512Y989284D02*
X1287162D01*
X1139080Y1016716D02*
X1166512Y989284D01*
X1159146Y1011636D02*
Y1016716D01*
X1319674Y1036528D02*
X1339740Y1016462D01*
X1179212Y1036528D02*
X1319674D01*
X1408066Y854918D02*
X1434482Y881334D01*
X805578Y822896D02*
Y839424D01*
X802784Y842218D02*
X805578Y839424D01*
X788052Y842218D02*
X802784D01*
X730394Y784560D02*
X788052Y842218D01*
X677562Y784560D02*
X730394D01*
X675022Y782020D02*
X677562Y784560D01*
X843932Y722330D02*
Y754098D01*
X649368Y713694D02*
X793894D01*
X805578Y725378D01*
X662068Y621492D02*
Y623270D01*
X830978Y559008D02*
Y580870D01*
X805324Y580616D02*
X805832Y580108D01*
X750968Y565866D02*
X772558D01*
X649368Y653496D02*
X662322D01*
X843678Y555198D02*
Y580870D01*
X665878Y594568D02*
X673752D01*
X629556Y631906D02*
Y633430D01*
X830978Y734014D02*
Y754352D01*
X805832Y565866D02*
Y580108D01*
X843678Y487870D02*
Y500334D01*
X805578Y725378D02*
Y754352D01*
D54*
X869500Y988500D02*
X869748Y988252D01*
X856556Y999444D02*
X856750Y999250D01*
X847234Y999444D02*
X856556D01*
X891938Y1016208D02*
X898542D01*
X901336Y1013414D01*
X1140586Y817072D02*
X1178450D01*
X1349900Y938992D02*
X1372760D01*
X1318912Y969980D02*
X1349900Y938992D01*
X1318912Y969980D02*
Y980902D01*
X1302402Y997412D02*
X1318912Y980902D01*
X1297068Y997412D02*
X1302402D01*
X856378Y971250D02*
Y1019002D01*
X869332Y971250D02*
Y1015954D01*
D55*
X869748Y988252D02*
X882286D01*
X1331250Y974000D02*
Y981250D01*
X1306706Y1005794D02*
X1331250Y981250D01*
X1175656Y1005794D02*
X1306706D01*
X1345582Y905972D02*
X1365648Y885906D01*
X1310530Y1016716D02*
X1341250Y985996D01*
Y976502D02*
Y985996D01*
X881778Y890732D02*
Y933912D01*
Y681182D02*
Y771606D01*
X876190Y1037544D02*
X882286Y1031448D01*
Y1018748D02*
Y1031448D01*
X869078Y681182D02*
Y771606D01*
X869332Y1015954D02*
Y1022050D01*
X856378Y890732D02*
Y933912D01*
Y681182D02*
Y771606D01*
X1068750Y1026396D02*
X1078882Y1036528D01*
X1068750Y976302D02*
Y1026396D01*
Y976302D02*
X1112918Y932134D01*
X998618Y934674D02*
Y1016750D01*
X818278Y804880D02*
X818400Y805002D01*
X831100Y822750D02*
Y842400D01*
X823250Y850250D02*
X831100Y842400D01*
X774250Y850250D02*
X823250D01*
X716250Y792250D02*
X774250Y850250D01*
X691500Y792250D02*
X716250D01*
X685486Y760750D02*
X687500D01*
X684986Y761250D02*
X685486Y760750D01*
X636980Y761250D02*
X684986D01*
X629556Y753826D02*
X636980Y761250D01*
X660520Y782250D02*
X678832Y800562D01*
X637914Y782250D02*
X660520D01*
X629556Y773892D02*
X637914Y782250D01*
X843678Y897082D02*
Y915896D01*
X700168Y818850D02*
X751222Y869904D01*
X657648Y803000D02*
X673752Y819104D01*
X640376Y803000D02*
X657648D01*
X631334Y793958D02*
X640376Y803000D01*
X744518Y742750D02*
X746396Y740872D01*
X638546Y742750D02*
X744518D01*
X629556Y733760D02*
X638546Y742750D01*
X638192Y722330D02*
X745380D01*
X629556Y713694D02*
X638192Y722330D01*
X742586Y895812D02*
X796180D01*
X689246Y842472D02*
X742586Y895812D01*
X689246Y820628D02*
Y842472D01*
X739792Y1019002D02*
X854092D01*
X732934Y1025860D02*
X739792Y1019002D01*
X850028Y1029416D02*
X861966D01*
X846726Y1026114D02*
X850028Y1029416D01*
X762906Y1026114D02*
X846726D01*
X758334Y1030686D02*
X762906Y1026114D01*
X861966Y1029416D02*
X869332Y1022050D01*
X664862Y796244D02*
X689246Y820628D01*
X651654Y796244D02*
X664862D01*
X649368Y793958D02*
X651654Y796244D01*
X678832Y800562D02*
X706264D01*
X675530Y841456D02*
X676038D01*
X656988D02*
X675530D01*
X1335422Y840694D02*
Y893526D01*
X1325008Y903940D02*
X1335422Y893526D01*
X1365648Y840948D02*
Y885906D01*
X1186578Y850092D02*
Y904448D01*
Y850092D02*
X1219852Y816818D01*
X1018430Y851870D02*
Y904956D01*
Y851870D02*
X1053482Y816818D01*
X988204Y962868D02*
Y1023828D01*
X998618Y1034242D01*
X1038750Y962868D02*
Y965916D01*
X1018684Y962868D02*
X1019446Y962106D01*
X1017414Y951946D02*
X1038242D01*
X1009286Y960074D02*
X1017414Y951946D01*
X1009286Y960074D02*
Y1027130D01*
X1038750Y965916D02*
Y1016970D01*
X1029098Y1000968D02*
X1029225Y1000841D01*
X1029098Y1000968D02*
Y1023320D01*
X1111140Y950676D02*
X1219344D01*
X1078882Y982934D02*
X1111140Y950676D01*
X1078882Y982934D02*
Y1016716D01*
X1112918Y932134D02*
X1187086Y932642D01*
X1141366Y977600D02*
X1278780D01*
X1119014Y999952D02*
X1141366Y977600D01*
X1261000Y968710D02*
X1274970Y954740D01*
X1138826Y968710D02*
X1261000D01*
X1109362Y998174D02*
X1138826Y968710D01*
X1324754Y843234D02*
Y892510D01*
X1310530Y829010D02*
X1324754Y843234D01*
X1297812Y829010D02*
X1310530D01*
X1311546Y816818D02*
X1335422Y840694D01*
X1297304Y816818D02*
X1311546D01*
X1371490D02*
X1390304D01*
X1354980Y833328D02*
X1371490Y816818D01*
X1354980Y833328D02*
Y885652D01*
X1334914Y905718D02*
X1354980Y885652D01*
X857394Y1037798D02*
X857648Y1037544D01*
X876190D01*
X968646Y962868D02*
Y1023066D01*
X979060Y1033480D01*
X783734Y1037544D02*
X810404D01*
X758334Y1030686D02*
Y1037544D01*
X732934Y1025860D02*
Y1037544D01*
X869078Y890732D02*
Y933912D01*
X651400Y731728D02*
X745380D01*
X649368Y733760D02*
X651400Y731728D01*
X818532Y737062D02*
Y754098D01*
X818278Y754352D02*
X818532Y754098D01*
X818278Y903686D02*
Y915896D01*
X802276Y887684D02*
X818278Y903686D01*
X746904Y887684D02*
X802276D01*
X701946Y842726D02*
X746904Y887684D01*
X629556Y814024D02*
X656988Y841456D01*
X830978Y901908D02*
Y915896D01*
X808626Y879556D02*
X830978Y901908D01*
X749952Y879556D02*
X808626D01*
X701184Y830788D02*
X749952Y879556D01*
X666894Y830026D02*
X675530D01*
X650892Y814024D02*
X666894Y830026D01*
X649368Y814024D02*
X650892D01*
X816500Y869904D02*
X843678Y897082D01*
X751222Y869904D02*
X816500D01*
X673752Y819104D02*
X675022D01*
X629556Y793958D02*
X631334D01*
X805578Y905210D02*
Y915896D01*
X796180Y895812D02*
X805578Y905210D01*
X706264Y800562D02*
X766970Y861268D01*
X823104D01*
X843678Y840694D01*
Y822896D02*
Y840694D01*
X980566Y816818D02*
X997348D01*
X1003444Y822914D01*
Y901908D01*
X979060Y1033480D02*
Y1036528D01*
X979568Y868616D02*
X980566Y867618D01*
X979568Y868616D02*
Y902416D01*
X979060Y929594D02*
X979822Y928832D01*
X979060Y929594D02*
Y1016716D01*
X1053482Y816818D02*
X1073566D01*
X998618Y1034242D02*
Y1036528D01*
X1073312Y829264D02*
X1073566Y829518D01*
X1059578Y829264D02*
X1073312D01*
X1029606Y859236D02*
X1059578Y829264D01*
X1029606Y859236D02*
Y905464D01*
X1063642Y842218D02*
X1073566D01*
X1042560Y863300D02*
X1063642Y842218D01*
X1042560Y863300D02*
Y905464D01*
X1018684Y962868D02*
Y1016716D01*
X1009286Y1027130D02*
X1018684Y1036528D01*
X1003444Y929848D02*
X1052720D01*
X998618Y934674D02*
X1003444Y929848D01*
X1065420Y854918D02*
X1073566D01*
X1054244Y866094D02*
X1065420Y854918D01*
X1054244Y866094D02*
Y903940D01*
X1053482Y904702D02*
X1054244Y903940D01*
X1058816Y947374D02*
Y1016970D01*
X1140840Y829518D02*
X1164988D01*
X1048910Y984712D02*
Y1026114D01*
X1058816Y1036020D01*
Y1036782D01*
X1029098Y1023320D02*
X1038750Y1032972D01*
Y1036782D01*
X1152288Y886668D02*
X1154066Y884890D01*
Y861014D02*
Y884890D01*
X1147970Y854918D02*
X1154066Y861014D01*
X1140840Y854918D02*
X1147970D01*
X1140840Y867618D02*
Y884908D01*
X1140096Y885652D02*
X1140840Y884908D01*
X1219852Y816818D02*
X1233840D01*
X1221376Y830026D02*
X1233332D01*
X1197754Y853648D02*
X1221376Y830026D01*
X1197754Y853648D02*
Y906988D01*
X1233332Y830026D02*
X1233840Y829518D01*
X1119776Y958296D02*
X1208168D01*
X1089296Y988776D02*
X1119776Y958296D01*
X1089296Y988776D02*
Y1026876D01*
X1098948Y993602D02*
X1121046Y971504D01*
X1098948Y993602D02*
Y1016716D01*
X1219090Y842218D02*
X1233840D01*
X1208676Y852632D02*
X1219090Y842218D01*
X1208676Y852632D02*
Y907242D01*
X1109362Y998174D02*
Y1024082D01*
X1233586Y855172D02*
X1233840Y854918D01*
X1222646Y855172D02*
X1233586D01*
X1219852Y857966D02*
X1222646Y855172D01*
X1219852Y857966D02*
Y906734D01*
X1219598Y906988D02*
X1219852Y906734D01*
X1089296Y1026876D02*
X1098948Y1036528D01*
X1315864Y861268D02*
Y890732D01*
X1309006Y854410D02*
X1315864Y861268D01*
X1297812Y854410D02*
X1309006D01*
X1306212Y900384D02*
X1315864Y890732D01*
X1306212Y900384D02*
Y903432D01*
Y937468D02*
Y938484D01*
X1305958Y938738D02*
X1306212Y938484D01*
X1305958Y938738D02*
Y976584D01*
X1297304Y854918D02*
X1297812Y854410D01*
X1304434Y978108D02*
X1305958Y976584D01*
X1315102Y902162D02*
X1324754Y892510D01*
X1315102Y902162D02*
Y904194D01*
X1297304Y829518D02*
X1297812Y829010D01*
X1119014Y999952D02*
Y1016716D01*
X1129428Y1003000D02*
Y1024844D01*
X1129174Y1025098D02*
X1129428Y1024844D01*
X1129174Y1025098D02*
X1139080Y1035004D01*
Y1036528D01*
X1109362Y1024082D02*
X1119014Y1033734D01*
Y1036528D01*
X1377078Y829518D02*
X1390304D01*
X1365648Y840948D02*
X1377078Y829518D01*
X1179212Y1016716D02*
X1310530D01*
X1169306Y1012144D02*
X1175656Y1005794D01*
X1169306Y1012144D02*
Y1026368D01*
X1159146Y1036528D02*
X1169306Y1026368D01*
X1389796Y842726D02*
X1390304Y842218D01*
X1380126Y842726D02*
X1389796D01*
X1376062Y846790D02*
X1380126Y842726D01*
X1376062Y846790D02*
Y890478D01*
X1360822Y905718D02*
X1376062Y890478D01*
D56*
X933086Y543664D02*
Y555452D01*
Y543664D02*
X933500Y543250D01*
X1319250Y674000D02*
Y692500D01*
X1349204Y722454D01*
X1365004D01*
X1449000Y734250D02*
Y910250D01*
X1437204Y722454D02*
X1449000Y734250D01*
X1365004Y722454D02*
X1437204D01*
X933086Y492250D02*
X933250Y492414D01*
Y505500D01*
X933086Y492250D02*
X933336Y492000D01*
X1260750D01*
X1390794Y939500D02*
X1419750D01*
X1449000Y910250D01*
D57*
X818278Y804880D02*
X892954D01*
X818400Y805002D02*
Y822750D01*
D58*
X1394750Y743250D02*
Y778210D01*
X1388250Y736750D02*
X1394750Y743250D01*
X1343000Y736750D02*
X1388250D01*
X1328250Y722000D02*
X1343000Y736750D01*
X1390812Y778210D02*
X1394750D01*
X1288000Y722000D02*
X1328250D01*
D59*
X1421750Y427500D02*
D03*
X650384Y428452D02*
D03*
X1421500Y1023500D02*
D03*
X650500Y1023500D02*
D03*
D60*
X1156000Y657116D02*
D03*
Y682516D02*
D03*
X1130600D02*
D03*
Y657116D02*
D03*
X1105200D02*
D03*
Y682516D02*
D03*
X1079800D02*
D03*
Y657116D02*
D03*
X1054400D02*
D03*
Y682516D02*
D03*
X1029000D02*
D03*
Y657116D02*
D03*
X1415940Y967948D02*
D03*
X1390540D02*
D03*
D61*
X1365004Y722454D02*
D03*
D62*
Y697054D02*
D03*
D63*
X649250Y812402D02*
D03*
Y792336D02*
D03*
Y752204D02*
D03*
Y772270D02*
D03*
Y732138D02*
D03*
Y712072D02*
D03*
X648996Y671940D02*
D03*
Y692006D02*
D03*
X649250Y651874D02*
D03*
Y631808D02*
D03*
Y612250D02*
D03*
X629438D02*
D03*
Y631808D02*
D03*
Y651874D02*
D03*
X629184Y692006D02*
D03*
Y671940D02*
D03*
X629438Y712072D02*
D03*
Y732138D02*
D03*
Y772270D02*
D03*
Y752204D02*
D03*
Y792336D02*
D03*
Y812402D02*
D03*
X1179152Y1016750D02*
D03*
X1159086D02*
D03*
X1118954D02*
D03*
X1139020D02*
D03*
X1098888D02*
D03*
X1078822D02*
D03*
X1038690Y1017004D02*
D03*
X1058756D02*
D03*
X1018624Y1016750D02*
D03*
X998558D02*
D03*
X979000D02*
D03*
Y1036562D02*
D03*
X998558D02*
D03*
X1018624D02*
D03*
X1058756Y1036816D02*
D03*
X1038690D02*
D03*
X1078822Y1036562D02*
D03*
X1098888D02*
D03*
X1139020D02*
D03*
X1118954D02*
D03*
X1159086D02*
D03*
X1179152D02*
D03*
D64*
X994500Y527000D02*
D03*
X1058000Y526500D02*
D03*
Y510000D02*
D03*
X994500D02*
D03*
X974000Y730750D02*
D03*
Y693500D02*
D03*
X990500Y730750D02*
D03*
Y693500D02*
D03*
X1007500D02*
D03*
Y730750D02*
D03*
X1038875Y567000D02*
D03*
Y588875D02*
D03*
X947250Y555250D02*
D03*
X913750Y554750D02*
D03*
X947250Y577500D02*
D03*
X913750D02*
D03*
X947250Y599500D02*
D03*
X913750Y601500D02*
D03*
X994500Y619000D02*
D03*
X1319250Y674000D02*
D03*
X1186250Y598500D02*
D03*
X1250000Y657250D02*
D03*
X1275250D02*
D03*
X1210250Y679000D02*
D03*
X1425500Y761500D02*
D03*
X1376250D02*
D03*
X1379000Y747500D02*
D03*
X1412250Y746750D02*
D03*
X1110000Y709750D02*
D03*
X933250Y505500D02*
D03*
X933500Y543250D02*
D03*
X1260750Y492000D02*
D03*
X762500Y604250D02*
D03*
X763750Y777750D02*
D03*
X760750Y942750D02*
D03*
X1102250Y889250D02*
D03*
X1262500Y889750D02*
D03*
X1421750Y888500D02*
D03*
X1379500Y999500D02*
D03*
X1187000Y559000D02*
D03*
X1186500Y579500D02*
D03*
X1186750Y640250D02*
D03*
X1110000Y738000D02*
D03*
X898100Y487750D02*
D03*
X898800Y661500D02*
D03*
X1297812Y761610D02*
D03*
X1140586Y762372D02*
D03*
X980566Y762118D02*
D03*
X898500Y822750D02*
D03*
D65*
X1436500Y887250D02*
D03*
X1331250Y974000D02*
D03*
X1341626Y974250D02*
D03*
X691500Y792250D02*
D03*
X687500Y760750D02*
D03*
X673750Y640750D02*
D03*
X635906Y576534D02*
D03*
X683785Y564469D02*
D03*
X742586Y672800D02*
D03*
X770526Y692612D02*
D03*
Y682706D02*
D03*
X856378Y971250D02*
D03*
X847234Y999444D02*
D03*
X1187086Y907496D02*
D03*
X968646Y962868D02*
D03*
X1038750D02*
D03*
X988204D02*
D03*
X1019446D02*
D03*
X1038242Y951946D02*
D03*
X1048910Y984712D02*
D03*
X1029225Y1000841D02*
D03*
X1278780Y977600D02*
D03*
X882286Y988252D02*
D03*
X897526Y971250D02*
D03*
X810404Y1037544D02*
D03*
X857394Y1037798D02*
D03*
X1329072Y804118D02*
D03*
X1256174D02*
D03*
X1101234Y804880D02*
D03*
X1174386Y804118D02*
D03*
X1329072Y778718D02*
D03*
X1256174D02*
D03*
X1101234Y779480D02*
D03*
X1174386Y778718D02*
D03*
X1329072Y791418D02*
D03*
X1256174D02*
D03*
X1101234Y792180D02*
D03*
X1174386Y791418D02*
D03*
X1022494Y804118D02*
D03*
Y778718D02*
D03*
Y791418D02*
D03*
X856378Y890732D02*
D03*
Y771606D02*
D03*
Y681182D02*
D03*
Y602442D02*
D03*
X869078Y890732D02*
D03*
Y771606D02*
D03*
Y681182D02*
D03*
Y602442D02*
D03*
X881778Y890732D02*
D03*
Y771606D02*
D03*
Y681182D02*
D03*
Y602442D02*
D03*
X869332Y971250D02*
D03*
X882286D02*
D03*
X881778Y933912D02*
D03*
X856378D02*
D03*
X869078D02*
D03*
X892954Y804880D02*
D03*
X911750Y463250D02*
D03*
X912004Y633938D02*
D03*
X745380Y740872D02*
D03*
Y731728D02*
D03*
X818532Y737062D02*
D03*
X701184Y842726D02*
D03*
X675530Y841456D02*
D03*
X701184Y830788D02*
D03*
X675530Y830026D02*
D03*
X701184Y818850D02*
D03*
X675530Y819104D02*
D03*
X1003444Y904956D02*
D03*
X979568D02*
D03*
X979822Y928832D02*
D03*
X1018430Y904956D02*
D03*
X1029606D02*
D03*
X1042560D02*
D03*
X1052720Y929848D02*
D03*
X1053482Y904956D02*
D03*
X1058562Y947374D02*
D03*
X1164988Y829518D02*
D03*
X1178450Y817072D02*
D03*
X1152288Y886668D02*
D03*
X1140096Y885652D02*
D03*
X1187086Y932642D02*
D03*
X1197754Y907242D02*
D03*
X1121046Y971504D02*
D03*
X1208676Y907242D02*
D03*
X1208168Y958296D02*
D03*
X1219598Y907242D02*
D03*
X1219344Y950676D02*
D03*
X1305450Y905718D02*
D03*
X1306212Y937468D02*
D03*
X1304434Y978108D02*
D03*
X1315102Y905718D02*
D03*
X1274970Y954740D02*
D03*
X1325008Y905718D02*
D03*
X1334914D02*
D03*
X1129428Y1003000D02*
D03*
X1345582Y905718D02*
D03*
X1360822D02*
D03*
X1339740Y1016462D02*
D03*
X1372760Y938992D02*
D03*
X1297068Y895812D02*
D03*
X1295798Y937976D02*
D03*
X675022Y782020D02*
D03*
X670704Y753318D02*
D03*
X843932Y722330D02*
D03*
X745380D02*
D03*
X742586Y683722D02*
D03*
X662322Y623524D02*
D03*
X675276D02*
D03*
X772558Y565866D02*
D03*
X662322Y653496D02*
D03*
X665878Y594568D02*
D03*
X639208Y594822D02*
D03*
X830978Y734014D02*
D03*
X805832Y565866D02*
D03*
M02*
