M48
;Layer_Color=39423
;FILE_FORMAT=4:4
METRIC,LZ
;TYPE=PLATED
T1F00S00C0.3810
T2F00S00C0.7110
T3F00S00C0.8000
T4F00S00C1.0200
T5F00S00C1.0200
T6F00S00C1.0900
T7F00S00C4.0000
%
T01
X01256174Y00778718
Y00791418
X01329072
Y00778718
X01174386
Y00791418
X01101234Y0079218
Y0077948
X01022494Y00778718
Y00791418
X00881778Y00771606
X00869078
X00856378
X00843932Y0072233
X00830978Y00734014
X00818532Y00737062
X00856378Y00681182
X00869078
X00881778
X00912004Y00633938
X00881778Y00602442
X00869078
X00856378
X00805832Y00565866
X0091175Y0046325
X00772558Y00565866
X00683785Y00564469
X00665878Y00594568
X00639208Y00594822
X00635906Y00576534
X00662322Y00623524
X00675276
X0067375Y0064075
X00662322Y00653496
X00742586Y006728
Y00683722
X00770526Y00682706
Y00692612
X0074538Y0072233
Y00731728
Y00740872
X006875Y0076075
X00670704Y00753318
X00675022Y0078202
X006915Y0079225
X00701184Y0081885
Y00830788
Y00842726
X0067553Y00841456
Y00830026
Y00819104
X00892954Y0080488
X00881778Y00890732
X00869078
X00856378
Y00933912
X00869078
X00881778
X00882286Y0097125
X00869332
X00856378
X00847234Y00999444
X00882286Y00988252
X00897526Y0097125
X00968646Y00962868
X00988204
X01019446
X0103875
X01038242Y00951946
X01058562Y00947374
X0105272Y00929848
X01053482Y00904956
X0104256
X01029606
X0101843
X01003444
X00979568
X00979822Y00928832
X01029225Y01000841
X0104891Y00984712
X01121046Y00971504
X01129428Y01003
X01140096Y00885652
X01152288Y00886668
X01187086Y00907496
Y00932642
X0117845Y00817072
X01174386Y00804118
X01164988Y00829518
X01101234Y0080488
X01022494Y00804118
X00857394Y01037798
X00810404Y01037544
X01208168Y00958296
X01219344Y00950676
X01219598Y00907242
X01208676
X01197754
X0130545Y00905718
X01315102
X01325008
X01334914
X01345582
X01360822
X0137276Y00938992
X01341626Y0097425
X0133125Y00974
X01304434Y00978108
X0127878Y009776
X0127497Y0095474
X01295798Y00937976
X01306212Y00937468
X01297068Y00895812
X01329072Y00804118
X01256174
X014365Y0088725
X0133974Y01016462
T02
X0126075Y00492
X0125Y0065725
X0127525
X0131925Y00674
X01297812Y0076161
X0137625Y007615
X01379Y007475
X0141225Y0074675
X014255Y007615
X0121025Y00679
X0118675Y0064025
X0118625Y005985
X011865Y005795
X01187Y00559
X01038875Y00567
Y00588875
X009945Y00619
X0094725Y005995
Y005775
Y0055525
X009335Y0054325
X0091375Y0055475
Y005775
Y006015
X008988Y006615
X00974Y006935
X009905
X010075
Y0073075
X009905
X00974
X00980566Y00762118
X0111Y00738
Y0070975
X01140586Y00762372
X01058Y005265
Y0051
X009945
Y00527
X0093325Y005055
X008981Y0048775
X007625Y0060425
X0076375Y0077775
X0076075Y0094275
X008985Y0082275
X0110225Y0088925
X012625Y0088975
X0142175Y008885
X013795Y009995
T03
X00629438Y0061225
Y00631808
X0064925
Y0061225
Y00651874
X00629438
X00629184Y0067194
X00648996
Y00692006
X00629184
X00629438Y00712072
X0064925
Y00732138
X00629438
Y00752204
X0064925
Y0077227
X00629438
Y00792336
X0064925
Y00812402
X00629438
X00979Y0101675
X00998558
Y01036562
X00979
X01018624
Y0101675
X0103869Y01017004
Y01036816
X01058756
Y01017004
X01078822Y0101675
Y01036562
X01098888
Y0101675
X01118954
Y01036562
X0113902
Y0101675
X01159086
Y01036562
X01179152
Y0101675
T04
X0073195Y01037
X0075735
X0078275
T05
X01029Y00657116
X010544
X010798
X011052
X011306
X01156
Y00682516
X011306
X011052
X010798
X010544
X01029
X0139054Y00967948
X0141594
T06
X01365004Y00697054
Y00722454
T07
X0142175Y004275
X00650384Y00428452
X006505Y010235
X014215Y010235
M30
