G04*
G04 #@! TF.GenerationSoftware,Altium Limited,Altium Designer,19.1.8 (144)*
G04*
G04 Layer_Physical_Order=2*
G04 Layer_Color=16711680*
%FSLAX25Y25*%
%MOIN*%
G70*
G01*
G75*
%ADD13C,0.01500*%
%ADD30C,0.03937*%
%ADD51C,0.03937*%
%ADD52C,0.02953*%
%ADD53C,0.02000*%
%ADD55C,0.01575*%
%ADD57C,0.02500*%
%ADD59C,0.16535*%
%ADD60C,0.04331*%
%ADD61R,0.06299X0.06299*%
%ADD62C,0.06299*%
%ADD63C,0.03400*%
%ADD64C,0.03543*%
%ADD65C,0.02362*%
%ADD66C,0.02571*%
G36*
X574114Y155807D02*
X241634D01*
Y415453D01*
X574114D01*
Y155807D01*
D02*
G37*
%LPC*%
G36*
X337557Y410806D02*
X336706Y410636D01*
X336683Y410621D01*
X319482D01*
X319057Y410706D01*
X318206Y410536D01*
X317484Y410054D01*
X317002Y409333D01*
X316833Y408482D01*
X317002Y407631D01*
X317484Y406909D01*
X318206Y406427D01*
X319057Y406258D01*
X319908Y406427D01*
X320080Y406543D01*
X336683D01*
X336706Y406527D01*
X337557Y406358D01*
X338408Y406527D01*
X339129Y407009D01*
X339611Y407731D01*
X339780Y408582D01*
X339611Y409433D01*
X339129Y410154D01*
X338408Y410636D01*
X337557Y410806D01*
D02*
G37*
G36*
X416833Y410919D02*
X416128Y410826D01*
X415471Y410554D01*
X414907Y410121D01*
X414475Y409557D01*
X414203Y408900D01*
X414110Y408195D01*
X414203Y407490D01*
X414475Y406834D01*
X414907Y406270D01*
X415471Y405837D01*
X416128Y405565D01*
X416833Y405472D01*
X417538Y405565D01*
X418195Y405837D01*
X418759Y406270D01*
X419192Y406834D01*
X419464Y407490D01*
X419556Y408195D01*
X419464Y408900D01*
X419192Y409557D01*
X418759Y410121D01*
X418195Y410554D01*
X417538Y410826D01*
X416833Y410919D01*
D02*
G37*
G36*
X408933D02*
X408228Y410826D01*
X407571Y410554D01*
X407007Y410121D01*
X406575Y409557D01*
X406303Y408900D01*
X406210Y408195D01*
X406303Y407490D01*
X406575Y406834D01*
X407007Y406270D01*
X407571Y405837D01*
X408228Y405565D01*
X408933Y405472D01*
X409638Y405565D01*
X410295Y405837D01*
X410859Y406270D01*
X411292Y406834D01*
X411564Y407490D01*
X411656Y408195D01*
X411564Y408900D01*
X411292Y409557D01*
X410859Y410121D01*
X410295Y410554D01*
X409638Y410826D01*
X408933Y410919D01*
D02*
G37*
G36*
X464233Y410819D02*
X463528Y410726D01*
X462871Y410454D01*
X462307Y410021D01*
X461875Y409457D01*
X461603Y408800D01*
X461510Y408095D01*
X461603Y407390D01*
X461875Y406734D01*
X462307Y406170D01*
X462871Y405737D01*
X463528Y405465D01*
X464233Y405372D01*
X464938Y405465D01*
X465595Y405737D01*
X466159Y406170D01*
X466592Y406734D01*
X466864Y407390D01*
X466956Y408095D01*
X466864Y408800D01*
X466592Y409457D01*
X466159Y410021D01*
X465595Y410454D01*
X464938Y410726D01*
X464233Y410819D01*
D02*
G37*
G36*
X456333D02*
X455628Y410726D01*
X454971Y410454D01*
X454407Y410021D01*
X453975Y409457D01*
X453703Y408800D01*
X453610Y408095D01*
X453703Y407390D01*
X453975Y406734D01*
X454407Y406170D01*
X454971Y405737D01*
X455628Y405465D01*
X456333Y405372D01*
X457038Y405465D01*
X457695Y405737D01*
X458259Y406170D01*
X458692Y406734D01*
X458964Y407390D01*
X459056Y408095D01*
X458964Y408800D01*
X458692Y409457D01*
X458259Y410021D01*
X457695Y410454D01*
X457038Y410726D01*
X456333Y410819D01*
D02*
G37*
G36*
X448433D02*
X447728Y410726D01*
X447071Y410454D01*
X446507Y410021D01*
X446075Y409457D01*
X445803Y408800D01*
X445710Y408095D01*
X445803Y407390D01*
X446075Y406734D01*
X446507Y406170D01*
X447071Y405737D01*
X447728Y405465D01*
X448433Y405372D01*
X449138Y405465D01*
X449795Y405737D01*
X450359Y406170D01*
X450792Y406734D01*
X451064Y407390D01*
X451156Y408095D01*
X451064Y408800D01*
X450792Y409457D01*
X450359Y410021D01*
X449795Y410454D01*
X449138Y410726D01*
X448433Y410819D01*
D02*
G37*
G36*
X440533D02*
X439828Y410726D01*
X439171Y410454D01*
X438607Y410021D01*
X438175Y409457D01*
X437903Y408800D01*
X437810Y408095D01*
X437903Y407390D01*
X438175Y406734D01*
X438607Y406170D01*
X439171Y405737D01*
X439828Y405465D01*
X440533Y405372D01*
X441238Y405465D01*
X441895Y405737D01*
X442459Y406170D01*
X442892Y406734D01*
X443164Y407390D01*
X443256Y408095D01*
X443164Y408800D01*
X442892Y409457D01*
X442459Y410021D01*
X441895Y410454D01*
X441238Y410726D01*
X440533Y410819D01*
D02*
G37*
G36*
X432633D02*
X431928Y410726D01*
X431271Y410454D01*
X430707Y410021D01*
X430275Y409457D01*
X430003Y408800D01*
X429910Y408095D01*
X430003Y407390D01*
X430275Y406734D01*
X430707Y406170D01*
X431271Y405737D01*
X431928Y405465D01*
X432633Y405372D01*
X433338Y405465D01*
X433995Y405737D01*
X434559Y406170D01*
X434992Y406734D01*
X435264Y407390D01*
X435356Y408095D01*
X435264Y408800D01*
X434992Y409457D01*
X434559Y410021D01*
X433995Y410454D01*
X433338Y410726D01*
X432633Y410819D01*
D02*
G37*
G36*
X424733D02*
X424028Y410726D01*
X423371Y410454D01*
X422807Y410021D01*
X422375Y409457D01*
X422103Y408800D01*
X422010Y408095D01*
X422103Y407390D01*
X422375Y406734D01*
X422807Y406170D01*
X423371Y405737D01*
X424028Y405465D01*
X424733Y405372D01*
X425438Y405465D01*
X426095Y405737D01*
X426659Y406170D01*
X427092Y406734D01*
X427364Y407390D01*
X427456Y408095D01*
X427364Y408800D01*
X427092Y409457D01*
X426659Y410021D01*
X426095Y410454D01*
X425438Y410726D01*
X424733Y410819D01*
D02*
G37*
G36*
X401033D02*
X400328Y410726D01*
X399671Y410454D01*
X399107Y410021D01*
X398675Y409457D01*
X398403Y408800D01*
X398310Y408095D01*
X398403Y407390D01*
X398675Y406734D01*
X399107Y406170D01*
X399671Y405737D01*
X400328Y405465D01*
X401033Y405372D01*
X401738Y405465D01*
X402395Y405737D01*
X402959Y406170D01*
X403392Y406734D01*
X403664Y407390D01*
X403756Y408095D01*
X403664Y408800D01*
X403392Y409457D01*
X402959Y410021D01*
X402395Y410454D01*
X401738Y410726D01*
X401033Y410819D01*
D02*
G37*
G36*
X393133D02*
X392428Y410726D01*
X391771Y410454D01*
X391207Y410021D01*
X390775Y409457D01*
X390503Y408800D01*
X390410Y408095D01*
X390503Y407390D01*
X390775Y406734D01*
X391207Y406170D01*
X391771Y405737D01*
X392428Y405465D01*
X393133Y405372D01*
X393838Y405465D01*
X394495Y405737D01*
X395059Y406170D01*
X395492Y406734D01*
X395764Y407390D01*
X395856Y408095D01*
X395764Y408800D01*
X395492Y409457D01*
X395059Y410021D01*
X394495Y410454D01*
X393838Y410726D01*
X393133Y410819D01*
D02*
G37*
G36*
X385433D02*
X384728Y410726D01*
X384071Y410454D01*
X383507Y410021D01*
X383075Y409457D01*
X382803Y408800D01*
X382710Y408095D01*
X382803Y407390D01*
X383075Y406734D01*
X383507Y406170D01*
X384071Y405737D01*
X384728Y405465D01*
X385433Y405372D01*
X386138Y405465D01*
X386795Y405737D01*
X387359Y406170D01*
X387791Y406734D01*
X388064Y407390D01*
X388156Y408095D01*
X388064Y408800D01*
X387791Y409457D01*
X387359Y410021D01*
X386795Y410454D01*
X386138Y410726D01*
X385433Y410819D01*
D02*
G37*
G36*
X308169Y411302D02*
X307384Y411198D01*
X306652Y410895D01*
X306024Y410413D01*
X305542Y409785D01*
X305239Y409053D01*
X305135Y408268D01*
X305239Y407482D01*
X305542Y406751D01*
X306024Y406122D01*
X306652Y405640D01*
X307384Y405337D01*
X308169Y405234D01*
X308955Y405337D01*
X309686Y405640D01*
X310314Y406122D01*
X310797Y406751D01*
X311100Y407482D01*
X311203Y408268D01*
X311100Y409053D01*
X310797Y409785D01*
X310314Y410413D01*
X309686Y410895D01*
X308955Y411198D01*
X308169Y411302D01*
D02*
G37*
G36*
X298169D02*
X297384Y411198D01*
X296652Y410895D01*
X296024Y410413D01*
X295542Y409785D01*
X295239Y409053D01*
X295135Y408268D01*
X295239Y407482D01*
X295542Y406751D01*
X296024Y406122D01*
X296652Y405640D01*
X297384Y405337D01*
X298169Y405234D01*
X298955Y405337D01*
X299686Y405640D01*
X300314Y406122D01*
X300797Y406751D01*
X301100Y407482D01*
X301203Y408268D01*
X301100Y409053D01*
X300797Y409785D01*
X300314Y410413D01*
X299686Y410895D01*
X298955Y411198D01*
X298169Y411302D01*
D02*
G37*
G36*
X288169D02*
X287384Y411198D01*
X286652Y410895D01*
X286024Y410413D01*
X285542Y409785D01*
X285239Y409053D01*
X285136Y408268D01*
X285239Y407482D01*
X285542Y406751D01*
X286024Y406122D01*
X286652Y405640D01*
X287384Y405337D01*
X288169Y405234D01*
X288954Y405337D01*
X289686Y405640D01*
X290315Y406122D01*
X290797Y406751D01*
X291100Y407482D01*
X291203Y408268D01*
X291100Y409053D01*
X290797Y409785D01*
X290315Y410413D01*
X289686Y410895D01*
X288954Y411198D01*
X288169Y411302D01*
D02*
G37*
G36*
X256602Y412216D02*
Y403453D01*
X265366D01*
X265236Y404770D01*
X264706Y406517D01*
X263845Y408126D01*
X262687Y409538D01*
X261276Y410696D01*
X259666Y411556D01*
X257919Y412086D01*
X256602Y412216D01*
D02*
G37*
G36*
X255602D02*
X254286Y412086D01*
X252539Y411556D01*
X250929Y410696D01*
X249517Y409538D01*
X248359Y408126D01*
X247499Y406517D01*
X246969Y404770D01*
X246839Y403453D01*
X255602D01*
Y412216D01*
D02*
G37*
G36*
X560146Y412216D02*
Y403453D01*
X568909D01*
X568779Y404770D01*
X568249Y406517D01*
X567389Y408126D01*
X566231Y409538D01*
X564819Y410696D01*
X563209Y411556D01*
X561462Y412086D01*
X560146Y412216D01*
D02*
G37*
G36*
X559146D02*
X557829Y412086D01*
X556082Y411556D01*
X554472Y410696D01*
X553061Y409538D01*
X551903Y408126D01*
X551042Y406517D01*
X550512Y404770D01*
X550382Y403453D01*
X559146D01*
Y412216D01*
D02*
G37*
G36*
X416833Y403119D02*
X416128Y403026D01*
X415471Y402754D01*
X414907Y402321D01*
X414475Y401757D01*
X414203Y401100D01*
X414110Y400395D01*
X414203Y399690D01*
X414475Y399034D01*
X414907Y398470D01*
X415471Y398037D01*
X416128Y397765D01*
X416833Y397672D01*
X417538Y397765D01*
X418195Y398037D01*
X418759Y398470D01*
X419192Y399034D01*
X419464Y399690D01*
X419556Y400395D01*
X419464Y401100D01*
X419192Y401757D01*
X418759Y402321D01*
X418195Y402754D01*
X417538Y403026D01*
X416833Y403119D01*
D02*
G37*
G36*
X408933D02*
X408228Y403026D01*
X407571Y402754D01*
X407007Y402321D01*
X406575Y401757D01*
X406303Y401100D01*
X406210Y400395D01*
X406303Y399690D01*
X406575Y399034D01*
X407007Y398470D01*
X407571Y398037D01*
X408228Y397765D01*
X408933Y397672D01*
X409638Y397765D01*
X410295Y398037D01*
X410859Y398470D01*
X411292Y399034D01*
X411564Y399690D01*
X411656Y400395D01*
X411564Y401100D01*
X411292Y401757D01*
X410859Y402321D01*
X410295Y402754D01*
X409638Y403026D01*
X408933Y403119D01*
D02*
G37*
G36*
X464233Y403019D02*
X463528Y402926D01*
X462871Y402654D01*
X462307Y402221D01*
X461875Y401657D01*
X461603Y401000D01*
X461510Y400295D01*
X461603Y399590D01*
X461875Y398934D01*
X462307Y398370D01*
X462871Y397937D01*
X463528Y397665D01*
X464233Y397572D01*
X464938Y397665D01*
X465595Y397937D01*
X466159Y398370D01*
X466592Y398934D01*
X466864Y399590D01*
X466956Y400295D01*
X466864Y401000D01*
X466592Y401657D01*
X466159Y402221D01*
X465595Y402654D01*
X464938Y402926D01*
X464233Y403019D01*
D02*
G37*
G36*
X456333D02*
X455628Y402926D01*
X454971Y402654D01*
X454407Y402221D01*
X453975Y401657D01*
X453703Y401000D01*
X453610Y400295D01*
X453703Y399590D01*
X453975Y398934D01*
X454407Y398370D01*
X454971Y397937D01*
X455628Y397665D01*
X456333Y397572D01*
X457038Y397665D01*
X457695Y397937D01*
X458259Y398370D01*
X458692Y398934D01*
X458964Y399590D01*
X459056Y400295D01*
X458964Y401000D01*
X458692Y401657D01*
X458259Y402221D01*
X457695Y402654D01*
X457038Y402926D01*
X456333Y403019D01*
D02*
G37*
G36*
X448433D02*
X447728Y402926D01*
X447071Y402654D01*
X446507Y402221D01*
X446075Y401657D01*
X445803Y401000D01*
X445710Y400295D01*
X445803Y399590D01*
X446075Y398934D01*
X446507Y398370D01*
X447071Y397937D01*
X447728Y397665D01*
X448433Y397572D01*
X449138Y397665D01*
X449795Y397937D01*
X450359Y398370D01*
X450792Y398934D01*
X451064Y399590D01*
X451156Y400295D01*
X451064Y401000D01*
X450792Y401657D01*
X450359Y402221D01*
X449795Y402654D01*
X449138Y402926D01*
X448433Y403019D01*
D02*
G37*
G36*
X440533D02*
X439828Y402926D01*
X439171Y402654D01*
X438607Y402221D01*
X438175Y401657D01*
X437903Y401000D01*
X437810Y400295D01*
X437903Y399590D01*
X438175Y398934D01*
X438607Y398370D01*
X439171Y397937D01*
X439828Y397665D01*
X440533Y397572D01*
X441238Y397665D01*
X441895Y397937D01*
X442459Y398370D01*
X442892Y398934D01*
X443164Y399590D01*
X443256Y400295D01*
X443164Y401000D01*
X442892Y401657D01*
X442459Y402221D01*
X441895Y402654D01*
X441238Y402926D01*
X440533Y403019D01*
D02*
G37*
G36*
X432633D02*
X431928Y402926D01*
X431271Y402654D01*
X430707Y402221D01*
X430275Y401657D01*
X430003Y401000D01*
X429910Y400295D01*
X430003Y399590D01*
X430275Y398934D01*
X430707Y398370D01*
X431271Y397937D01*
X431928Y397665D01*
X432633Y397572D01*
X433338Y397665D01*
X433995Y397937D01*
X434559Y398370D01*
X434992Y398934D01*
X435264Y399590D01*
X435356Y400295D01*
X435264Y401000D01*
X434992Y401657D01*
X434559Y402221D01*
X433995Y402654D01*
X433338Y402926D01*
X432633Y403019D01*
D02*
G37*
G36*
X424733D02*
X424028Y402926D01*
X423371Y402654D01*
X422807Y402221D01*
X422375Y401657D01*
X422103Y401000D01*
X422010Y400295D01*
X422103Y399590D01*
X422375Y398934D01*
X422807Y398370D01*
X423371Y397937D01*
X424028Y397665D01*
X424733Y397572D01*
X425438Y397665D01*
X426095Y397937D01*
X426659Y398370D01*
X427092Y398934D01*
X427364Y399590D01*
X427456Y400295D01*
X427364Y401000D01*
X427092Y401657D01*
X426659Y402221D01*
X426095Y402654D01*
X425438Y402926D01*
X424733Y403019D01*
D02*
G37*
G36*
X401033D02*
X400328Y402926D01*
X399671Y402654D01*
X399107Y402221D01*
X398675Y401657D01*
X398403Y401000D01*
X398310Y400295D01*
X398403Y399590D01*
X398675Y398934D01*
X399107Y398370D01*
X399671Y397937D01*
X400328Y397665D01*
X401033Y397572D01*
X401738Y397665D01*
X402395Y397937D01*
X402959Y398370D01*
X403392Y398934D01*
X403664Y399590D01*
X403756Y400295D01*
X403664Y401000D01*
X403392Y401657D01*
X402959Y402221D01*
X402395Y402654D01*
X401738Y402926D01*
X401033Y403019D01*
D02*
G37*
G36*
X393133D02*
X392428Y402926D01*
X391771Y402654D01*
X391207Y402221D01*
X390775Y401657D01*
X390503Y401000D01*
X390410Y400295D01*
X390503Y399590D01*
X390775Y398934D01*
X391207Y398370D01*
X391771Y397937D01*
X392428Y397665D01*
X393133Y397572D01*
X393838Y397665D01*
X394495Y397937D01*
X395059Y398370D01*
X395492Y398934D01*
X395764Y399590D01*
X395856Y400295D01*
X395764Y401000D01*
X395492Y401657D01*
X395059Y402221D01*
X394495Y402654D01*
X393838Y402926D01*
X393133Y403019D01*
D02*
G37*
G36*
X385433D02*
X384728Y402926D01*
X384071Y402654D01*
X383507Y402221D01*
X383075Y401657D01*
X382803Y401000D01*
X382710Y400295D01*
X382803Y399590D01*
X383075Y398934D01*
X383507Y398370D01*
X384071Y397937D01*
X384728Y397665D01*
X385433Y397572D01*
X386138Y397665D01*
X386795Y397937D01*
X387359Y398370D01*
X387791Y398934D01*
X388064Y399590D01*
X388156Y400295D01*
X388064Y401000D01*
X387791Y401657D01*
X387359Y402221D01*
X386795Y402654D01*
X386138Y402926D01*
X385433Y403019D01*
D02*
G37*
G36*
X543610Y396234D02*
Y394004D01*
X545840D01*
X545811Y394228D01*
X545531Y394902D01*
X545087Y395481D01*
X544508Y395925D01*
X543834Y396204D01*
X543610Y396234D01*
D02*
G37*
G36*
X542610D02*
X542387Y396204D01*
X541713Y395925D01*
X541133Y395481D01*
X540689Y394902D01*
X540410Y394228D01*
X540380Y394004D01*
X542610D01*
Y396234D01*
D02*
G37*
G36*
X255602Y402453D02*
X246839D01*
X246969Y401136D01*
X247499Y399389D01*
X248359Y397779D01*
X249517Y396368D01*
X250929Y395210D01*
X252539Y394349D01*
X254286Y393819D01*
X255602Y393689D01*
Y402453D01*
D02*
G37*
G36*
X265366D02*
X256602D01*
Y393689D01*
X257919Y393819D01*
X259666Y394349D01*
X261276Y395210D01*
X262687Y396368D01*
X263845Y397779D01*
X264706Y399389D01*
X265236Y401136D01*
X265366Y402453D01*
D02*
G37*
G36*
X568909Y402453D02*
X560146D01*
Y393689D01*
X561462Y393819D01*
X563209Y394349D01*
X564819Y395210D01*
X566231Y396368D01*
X567389Y397779D01*
X568249Y399389D01*
X568779Y401136D01*
X568909Y402453D01*
D02*
G37*
G36*
X559146D02*
X550382D01*
X550512Y401136D01*
X551042Y399389D01*
X551903Y397779D01*
X553061Y396368D01*
X554472Y395210D01*
X556082Y394349D01*
X557829Y393819D01*
X559146Y393689D01*
Y402453D01*
D02*
G37*
G36*
X545840Y393004D02*
X543610D01*
Y390774D01*
X543834Y390804D01*
X544508Y391083D01*
X545087Y391527D01*
X545531Y392106D01*
X545811Y392780D01*
X545840Y393004D01*
D02*
G37*
G36*
X542610D02*
X540380D01*
X540410Y392780D01*
X540689Y392106D01*
X541133Y391527D01*
X541713Y391083D01*
X542387Y390804D01*
X542610Y390774D01*
Y393004D01*
D02*
G37*
G36*
X557957Y384209D02*
Y381582D01*
X560583D01*
X560541Y381908D01*
X560222Y382678D01*
X559714Y383339D01*
X559053Y383847D01*
X558283Y384166D01*
X557957Y384209D01*
D02*
G37*
G36*
X556957D02*
X556630Y384166D01*
X555860Y383847D01*
X555199Y383339D01*
X554692Y382678D01*
X554373Y381908D01*
X554330Y381582D01*
X556957D01*
Y384209D01*
D02*
G37*
G36*
X560583Y380582D02*
X557957D01*
Y377955D01*
X558283Y377998D01*
X559053Y378317D01*
X559714Y378824D01*
X560222Y379486D01*
X560541Y380256D01*
X560583Y380582D01*
D02*
G37*
G36*
X556957D02*
X554330D01*
X554373Y380256D01*
X554692Y379486D01*
X555199Y378824D01*
X555860Y378317D01*
X556630Y377998D01*
X556957Y377955D01*
Y380582D01*
D02*
G37*
G36*
X444657Y397106D02*
X443806Y396936D01*
X443084Y396454D01*
X442602Y395733D01*
X442433Y394882D01*
X442602Y394031D01*
X443084Y393309D01*
X443806Y392827D01*
X443833Y392822D01*
X448915Y387740D01*
X449576Y387298D01*
X450357Y387143D01*
X486312D01*
X493915Y379540D01*
X494576Y379098D01*
X495357Y378943D01*
X514912D01*
X515472Y378383D01*
X515280Y377921D01*
X502831D01*
X502808Y377936D01*
X501957Y378106D01*
X501106Y377936D01*
X500384Y377454D01*
X499902Y376733D01*
X499733Y375882D01*
X499902Y375031D01*
X500384Y374309D01*
X501106Y373827D01*
X501957Y373658D01*
X502808Y373827D01*
X502831Y373843D01*
X515112D01*
X515917Y373037D01*
Y371197D01*
X515417Y370929D01*
X515108Y371136D01*
X514257Y371306D01*
X513406Y371136D01*
X512684Y370654D01*
X512574Y370490D01*
X511973D01*
X511729Y370854D01*
X511008Y371336D01*
X510157Y371506D01*
X509306Y371336D01*
X508584Y370854D01*
X508102Y370133D01*
X507933Y369282D01*
X508102Y368431D01*
X508117Y368408D01*
Y353182D01*
X508273Y352401D01*
X508580Y351941D01*
X508602Y351831D01*
X509084Y351109D01*
X509806Y350627D01*
X510657Y350458D01*
X511508Y350627D01*
X512229Y351109D01*
X512711Y351831D01*
X512881Y352682D01*
X512711Y353533D01*
X512343Y354084D01*
X512400Y354413D01*
X512810Y354628D01*
X512941Y354637D01*
X513106Y354527D01*
X513957Y354358D01*
X514808Y354527D01*
X515529Y355009D01*
X515607Y355125D01*
X516107D01*
X516184Y355009D01*
X516906Y354527D01*
X517757Y354358D01*
X518608Y354527D01*
X519329Y355009D01*
X519457Y355200D01*
X519957D01*
X520084Y355009D01*
X520806Y354527D01*
X521657Y354358D01*
X522508Y354527D01*
X523229Y355009D01*
X523357Y355200D01*
X523857D01*
X523984Y355009D01*
X524706Y354527D01*
X525557Y354358D01*
X526408Y354527D01*
X527129Y355009D01*
X527353Y355345D01*
X527359Y355349D01*
X527957D01*
X528184Y355009D01*
X528906Y354527D01*
X529757Y354358D01*
X530608Y354527D01*
X531329Y355009D01*
X531811Y355731D01*
X531981Y356582D01*
X531811Y357433D01*
X531329Y358154D01*
X530608Y358636D01*
X530518Y358654D01*
X530238Y358934D01*
Y382689D01*
X530254Y382712D01*
X530423Y383563D01*
X530254Y384414D01*
X529772Y385136D01*
X529050Y385617D01*
X528199Y385787D01*
X527348Y385617D01*
X526627Y385136D01*
X526425Y384833D01*
X525823D01*
X525687Y385037D01*
X524965Y385519D01*
X524114Y385688D01*
X523263Y385519D01*
X522542Y385037D01*
X522060Y384316D01*
X521890Y383465D01*
X522060Y382613D01*
X522542Y381892D01*
X522764Y381744D01*
Y377512D01*
X522302Y377320D01*
X517199Y382424D01*
X516537Y382866D01*
X515757Y383021D01*
X515298D01*
X515151Y383447D01*
X515137Y383521D01*
X515611Y384231D01*
X515780Y385082D01*
X515611Y385933D01*
X515129Y386654D01*
X514408Y387136D01*
X513557Y387306D01*
X512706Y387136D01*
X512383Y386921D01*
X504331D01*
X504308Y386936D01*
X503457Y387106D01*
X502606Y386936D01*
X501884Y386454D01*
X501402Y385733D01*
X501233Y384882D01*
X501402Y384031D01*
X501743Y383521D01*
X501484Y383021D01*
X496201D01*
X488599Y390624D01*
X487937Y391066D01*
X487157Y391221D01*
X451201D01*
X446717Y395706D01*
X446711Y395733D01*
X446229Y396454D01*
X445508Y396936D01*
X444657Y397106D01*
D02*
G37*
G36*
X547457Y384275D02*
X546630Y384166D01*
X545860Y383847D01*
X545199Y383339D01*
X544692Y382678D01*
X544373Y381908D01*
X544264Y381082D01*
X544373Y380256D01*
X544692Y379486D01*
X545199Y378824D01*
X545860Y378317D01*
X546630Y377998D01*
X547457Y377889D01*
X548283Y377998D01*
X549053Y378317D01*
X549714Y378824D01*
X550222Y379486D01*
X550541Y380256D01*
X550649Y381082D01*
X550541Y381908D01*
X550222Y382678D01*
X549714Y383339D01*
X549053Y383847D01*
X548283Y384166D01*
X547457Y384275D01*
D02*
G37*
G36*
X300008Y373891D02*
Y371661D01*
X302238D01*
X302208Y371885D01*
X301929Y372559D01*
X301485Y373138D01*
X300906Y373583D01*
X300231Y373862D01*
X300008Y373891D01*
D02*
G37*
G36*
X299008D02*
X298784Y373862D01*
X298110Y373583D01*
X297531Y373138D01*
X297087Y372559D01*
X296808Y371885D01*
X296778Y371661D01*
X299008D01*
Y373891D01*
D02*
G37*
G36*
X302238Y370661D02*
X300008D01*
Y368432D01*
X300231Y368461D01*
X300906Y368740D01*
X301485Y369185D01*
X301929Y369764D01*
X302208Y370438D01*
X302238Y370661D01*
D02*
G37*
G36*
X299008D02*
X296778D01*
X296808Y370438D01*
X297087Y369764D01*
X297531Y369185D01*
X298110Y368740D01*
X298784Y368461D01*
X299008Y368432D01*
Y370661D01*
D02*
G37*
G36*
X401357Y381306D02*
X400506Y381136D01*
X399784Y380654D01*
X399302Y379933D01*
X399133Y379082D01*
X399302Y378231D01*
X399318Y378208D01*
Y373382D01*
X399473Y372602D01*
X399915Y371940D01*
X403317Y368537D01*
Y367191D01*
X402854Y366892D01*
X402817Y366897D01*
X402399Y367524D01*
X391208Y378715D01*
X391281Y379082D01*
X391111Y379933D01*
X390629Y380654D01*
X389908Y381136D01*
X389057Y381306D01*
X388206Y381136D01*
X387484Y380654D01*
X387002Y379933D01*
X386833Y379082D01*
X387002Y378231D01*
X387017Y378208D01*
Y377982D01*
X387173Y377202D01*
X387615Y376540D01*
X398918Y365237D01*
Y357156D01*
X398902Y357133D01*
X398733Y356282D01*
X398902Y355431D01*
X399384Y354709D01*
X400106Y354227D01*
X400957Y354058D01*
X401808Y354227D01*
X402529Y354709D01*
X402873Y355223D01*
X403441D01*
X403784Y354709D01*
X404506Y354227D01*
X405357Y354058D01*
X406208Y354227D01*
X406929Y354709D01*
X407411Y355431D01*
X407581Y356282D01*
X407411Y357133D01*
X407396Y357156D01*
Y369382D01*
X407241Y370162D01*
X406799Y370824D01*
X403396Y374226D01*
Y378208D01*
X403411Y378231D01*
X403581Y379082D01*
X403411Y379933D01*
X402929Y380654D01*
X402208Y381136D01*
X401357Y381306D01*
D02*
G37*
G36*
X347357Y384606D02*
X346506Y384436D01*
X345784Y383954D01*
X345302Y383233D01*
X345133Y382382D01*
X345302Y381531D01*
X345334Y381483D01*
Y368880D01*
X345102Y368533D01*
X344933Y367682D01*
X345102Y366831D01*
X345584Y366109D01*
X346306Y365627D01*
X347157Y365458D01*
X348008Y365627D01*
X348729Y366109D01*
X349211Y366831D01*
X349380Y367682D01*
X349211Y368533D01*
X348979Y368880D01*
Y380884D01*
X349411Y381531D01*
X349581Y382382D01*
X349411Y383233D01*
X348929Y383954D01*
X348208Y384436D01*
X347357Y384606D01*
D02*
G37*
G36*
X342257D02*
X341406Y384436D01*
X340684Y383954D01*
X340202Y383233D01*
X340033Y382382D01*
X340202Y381531D01*
X340334Y381333D01*
Y368880D01*
X340102Y368533D01*
X339933Y367682D01*
X340102Y366831D01*
X340584Y366109D01*
X341306Y365627D01*
X342157Y365458D01*
X343008Y365627D01*
X343729Y366109D01*
X344211Y366831D01*
X344380Y367682D01*
X344211Y368533D01*
X343979Y368880D01*
Y381034D01*
X344311Y381531D01*
X344480Y382382D01*
X344311Y383233D01*
X343829Y383954D01*
X343108Y384436D01*
X342257Y384606D01*
D02*
G37*
G36*
X337157D02*
X336306Y384436D01*
X335584Y383954D01*
X335102Y383233D01*
X334933Y382382D01*
X335102Y381531D01*
X335234Y381333D01*
Y368731D01*
X335102Y368533D01*
X334933Y367682D01*
X335102Y366831D01*
X335584Y366109D01*
X336306Y365627D01*
X337157Y365458D01*
X338008Y365627D01*
X338729Y366109D01*
X339211Y366831D01*
X339381Y367682D01*
X339211Y368533D01*
X338879Y369030D01*
Y381034D01*
X339211Y381531D01*
X339381Y382382D01*
X339211Y383233D01*
X338729Y383954D01*
X338008Y384436D01*
X337157Y384606D01*
D02*
G37*
G36*
X405207Y396256D02*
X404356Y396086D01*
X403634Y395604D01*
X403152Y394883D01*
X402983Y394032D01*
X403152Y393181D01*
X403167Y393158D01*
Y387332D01*
X403323Y386551D01*
X403765Y385890D01*
X405615Y384040D01*
X405615Y384040D01*
X408025Y381630D01*
X408043Y381515D01*
X407971Y381075D01*
X407937Y381024D01*
X407384Y380654D01*
X406902Y379933D01*
X406733Y379082D01*
X406902Y378231D01*
X407384Y377509D01*
X407733Y377276D01*
X407736Y377268D01*
X407698Y376698D01*
X407184Y376354D01*
X406702Y375633D01*
X406533Y374782D01*
X406702Y373931D01*
X407184Y373209D01*
X407906Y372727D01*
X407933Y372722D01*
X408418Y372237D01*
Y357156D01*
X408402Y357133D01*
X408233Y356282D01*
X408402Y355431D01*
X408884Y354709D01*
X409606Y354227D01*
X410457Y354058D01*
X411308Y354227D01*
X412029Y354709D01*
X412306Y355124D01*
X412907D01*
X413184Y354709D01*
X413906Y354227D01*
X414757Y354058D01*
X415608Y354227D01*
X416329Y354709D01*
X416811Y355431D01*
X416981Y356282D01*
X416811Y357133D01*
X416496Y357605D01*
Y365208D01*
X416511Y365231D01*
X416680Y366082D01*
X416511Y366933D01*
X416029Y367654D01*
X415308Y368136D01*
X414457Y368306D01*
X413606Y368136D01*
X412996Y367729D01*
X412496Y367905D01*
Y373082D01*
X412341Y373862D01*
X411899Y374524D01*
X410817Y375606D01*
X410811Y375633D01*
X410329Y376354D01*
X410047Y376543D01*
X410199Y377043D01*
X415212D01*
X416575Y375679D01*
X416411Y375137D01*
X415906Y375036D01*
X415184Y374554D01*
X414702Y373833D01*
X414533Y372982D01*
X414702Y372131D01*
X415184Y371409D01*
X415906Y370927D01*
X415933Y370922D01*
X419715Y367140D01*
X420376Y366698D01*
X421157Y366543D01*
X445112D01*
X446817Y364837D01*
Y349556D01*
X446802Y349533D01*
X446633Y348682D01*
X446802Y347831D01*
X447284Y347109D01*
X448006Y346627D01*
X448857Y346458D01*
X448918Y346470D01*
X449057Y346443D01*
X449837Y346598D01*
X450499Y347040D01*
X450941Y347702D01*
X451069Y348347D01*
X451579D01*
X451602Y348231D01*
X452084Y347509D01*
X452806Y347027D01*
X453657Y346858D01*
X454508Y347027D01*
X455229Y347509D01*
X455711Y348231D01*
X455880Y349082D01*
X455711Y349933D01*
X455696Y349956D01*
Y367552D01*
X456196Y367759D01*
X458518Y365437D01*
Y329327D01*
X457833Y328642D01*
X457806Y328636D01*
X457084Y328154D01*
X456602Y327433D01*
X456433Y326582D01*
X456602Y325731D01*
X457084Y325009D01*
X457806Y324527D01*
X458657Y324358D01*
X459508Y324527D01*
X460229Y325009D01*
X460711Y325731D01*
X460717Y325758D01*
X461517Y326559D01*
X462017Y326352D01*
Y322706D01*
X461902Y322533D01*
X461733Y321682D01*
X461902Y320831D01*
X462384Y320109D01*
X463106Y319627D01*
X463957Y319458D01*
X464808Y319627D01*
X465529Y320109D01*
X466011Y320831D01*
X466181Y321682D01*
X466096Y322108D01*
Y354946D01*
X466596Y355209D01*
X467357Y355058D01*
X468208Y355227D01*
X468929Y355709D01*
X469123Y355999D01*
X469724D01*
X469984Y355609D01*
X470706Y355127D01*
X471557Y354958D01*
X472408Y355127D01*
X473129Y355609D01*
X473406Y356024D01*
X474007D01*
X474284Y355609D01*
X475006Y355127D01*
X475857Y354958D01*
X476708Y355127D01*
X477429Y355609D01*
X477706Y356024D01*
X478307D01*
X478584Y355609D01*
X479306Y355127D01*
X480157Y354958D01*
X481008Y355127D01*
X481729Y355609D01*
X482211Y356331D01*
X482380Y357182D01*
X482211Y358033D01*
X482096Y358206D01*
Y373408D01*
X482111Y373431D01*
X482280Y374282D01*
X482111Y375133D01*
X481629Y375854D01*
X480908Y376336D01*
X480057Y376506D01*
X479206Y376336D01*
X478484Y375854D01*
X478196Y375423D01*
X477696Y375574D01*
Y376408D01*
X477711Y376431D01*
X477880Y377282D01*
X477711Y378133D01*
X477229Y378854D01*
X476508Y379336D01*
X475657Y379506D01*
X474806Y379336D01*
X474084Y378854D01*
X473602Y378133D01*
X473433Y377282D01*
X473504Y376926D01*
X473043Y376679D01*
X465799Y383924D01*
X465137Y384366D01*
X464357Y384521D01*
X442231D01*
X442208Y384536D01*
X441357Y384706D01*
X440506Y384536D01*
X439784Y384054D01*
X439302Y383333D01*
X439133Y382482D01*
X439284Y381721D01*
X439020Y381221D01*
X426901D01*
X418999Y389124D01*
X418337Y389566D01*
X417557Y389721D01*
X413831D01*
X413808Y389736D01*
X412957Y389906D01*
X412106Y389736D01*
X411384Y389254D01*
X410902Y388533D01*
X410733Y387682D01*
X410902Y386831D01*
X411384Y386109D01*
X412106Y385627D01*
X412957Y385458D01*
X413808Y385627D01*
X413831Y385643D01*
X416502D01*
X416670Y385421D01*
X416421Y384921D01*
X410501D01*
X408499Y386924D01*
X408499Y386924D01*
X407246Y388176D01*
Y393158D01*
X407261Y393181D01*
X407431Y394032D01*
X407261Y394883D01*
X406779Y395604D01*
X406058Y396086D01*
X405207Y396256D01*
D02*
G37*
G36*
X381357Y381306D02*
X380506Y381136D01*
X379784Y380654D01*
X379302Y379933D01*
X379133Y379082D01*
X379302Y378231D01*
X379784Y377509D01*
X380506Y377027D01*
X380533Y377022D01*
X384813Y372741D01*
X385015Y372440D01*
X393018Y364437D01*
Y357156D01*
X393002Y357133D01*
X392833Y356282D01*
X393002Y355431D01*
X393484Y354709D01*
X394206Y354227D01*
X395057Y354058D01*
X395908Y354227D01*
X396629Y354709D01*
X397111Y355431D01*
X397281Y356282D01*
X397111Y357133D01*
X397096Y357156D01*
Y365282D01*
X397096Y365282D01*
X396941Y366062D01*
X396499Y366724D01*
X388200Y375022D01*
X387999Y375324D01*
X383417Y379906D01*
X383411Y379933D01*
X382929Y380654D01*
X382208Y381136D01*
X381357Y381306D01*
D02*
G37*
G36*
X385757Y367906D02*
X384906Y367736D01*
X384184Y367254D01*
X383702Y366533D01*
X383533Y365682D01*
X383702Y364831D01*
X383717Y364808D01*
Y357306D01*
X383602Y357133D01*
X383433Y356282D01*
X383602Y355431D01*
X384084Y354709D01*
X384806Y354227D01*
X385657Y354058D01*
X386508Y354227D01*
X387229Y354709D01*
X387711Y355431D01*
X387880Y356282D01*
X387796Y356708D01*
Y364808D01*
X387811Y364831D01*
X387981Y365682D01*
X387811Y366533D01*
X387329Y367254D01*
X386608Y367736D01*
X385757Y367906D01*
D02*
G37*
G36*
X333557Y395706D02*
X332706Y395536D01*
X331984Y395054D01*
X331502Y394333D01*
X331333Y393482D01*
X331502Y392631D01*
X331984Y391909D01*
X332706Y391427D01*
X333557Y391258D01*
X334408Y391427D01*
X334755Y391659D01*
X346604D01*
X346653Y391160D01*
X346506Y391130D01*
X345784Y390648D01*
X345302Y389927D01*
X345133Y389076D01*
X345302Y388225D01*
X345784Y387503D01*
X346506Y387021D01*
X347357Y386852D01*
X348208Y387021D01*
X348555Y387253D01*
X353108D01*
X359534Y380827D01*
Y352889D01*
X359278Y352722D01*
X359047Y352669D01*
X355179Y356537D01*
Y381184D01*
X355411Y381531D01*
X355580Y382382D01*
X355411Y383233D01*
X354929Y383954D01*
X354208Y384436D01*
X353357Y384606D01*
X352506Y384436D01*
X351784Y383954D01*
X351302Y383233D01*
X351133Y382382D01*
X351302Y381531D01*
X351534Y381184D01*
Y355782D01*
X351534Y355782D01*
X351673Y355084D01*
X352068Y354493D01*
X400421Y306141D01*
X400502Y305731D01*
X400984Y305009D01*
X401706Y304527D01*
X402557Y304358D01*
X403408Y304527D01*
X404129Y305009D01*
X404611Y305731D01*
X404780Y306582D01*
X404611Y307433D01*
X404129Y308154D01*
X403408Y308636D01*
X403227Y308672D01*
X403036Y308960D01*
X403242Y309494D01*
X403408Y309527D01*
X404129Y310009D01*
X404611Y310731D01*
X404780Y311582D01*
X404611Y312433D01*
X404129Y313154D01*
X403408Y313636D01*
X403227Y313672D01*
X403036Y313960D01*
X403242Y314494D01*
X403408Y314527D01*
X404129Y315009D01*
X404611Y315731D01*
X404780Y316582D01*
X404611Y317433D01*
X404129Y318154D01*
X403408Y318636D01*
X402998Y318718D01*
X366179Y355537D01*
Y382582D01*
X366179Y382582D01*
X366040Y383279D01*
X365645Y383871D01*
X365645Y383871D01*
X354745Y394771D01*
X354154Y395166D01*
X353457Y395304D01*
X353457Y395304D01*
X334755D01*
X334408Y395536D01*
X333557Y395706D01*
D02*
G37*
G36*
X497547Y353025D02*
Y350795D01*
X499777D01*
X499748Y351019D01*
X499468Y351693D01*
X499024Y352272D01*
X498445Y352716D01*
X497771Y352996D01*
X497547Y353025D01*
D02*
G37*
G36*
X496547D02*
X496324Y352996D01*
X495649Y352716D01*
X495071Y352272D01*
X494626Y351693D01*
X494347Y351019D01*
X494317Y350795D01*
X496547D01*
Y353025D01*
D02*
G37*
G36*
X434457Y352828D02*
Y350598D01*
X436686D01*
X436657Y350822D01*
X436378Y351496D01*
X435933Y352075D01*
X435355Y352519D01*
X434680Y352799D01*
X434457Y352828D01*
D02*
G37*
G36*
X433457D02*
X433233Y352799D01*
X432559Y352519D01*
X431980Y352075D01*
X431536Y351496D01*
X431256Y350822D01*
X431227Y350598D01*
X433457D01*
Y352828D01*
D02*
G37*
G36*
X560244Y352533D02*
Y350303D01*
X562474D01*
X562444Y350527D01*
X562165Y351201D01*
X561721Y351780D01*
X561142Y352224D01*
X560468Y352503D01*
X560244Y352533D01*
D02*
G37*
G36*
X559244D02*
X559021Y352503D01*
X558346Y352224D01*
X557767Y351780D01*
X557323Y351201D01*
X557044Y350527D01*
X557014Y350303D01*
X559244D01*
Y352533D01*
D02*
G37*
G36*
X499777Y349795D02*
X497547D01*
Y347566D01*
X497771Y347595D01*
X498445Y347874D01*
X499024Y348319D01*
X499468Y348898D01*
X499748Y349572D01*
X499777Y349795D01*
D02*
G37*
G36*
X496547D02*
X494317D01*
X494347Y349572D01*
X494626Y348898D01*
X495071Y348319D01*
X495649Y347874D01*
X496324Y347595D01*
X496547Y347566D01*
Y349795D01*
D02*
G37*
G36*
X436686Y349598D02*
X434457D01*
Y347369D01*
X434680Y347398D01*
X435355Y347677D01*
X435933Y348122D01*
X436378Y348701D01*
X436657Y349375D01*
X436686Y349598D01*
D02*
G37*
G36*
X433457D02*
X431227D01*
X431256Y349375D01*
X431536Y348701D01*
X431980Y348122D01*
X432559Y347677D01*
X433233Y347398D01*
X433457Y347369D01*
Y349598D01*
D02*
G37*
G36*
X527457Y402406D02*
X526606Y402236D01*
X525884Y401754D01*
X525402Y401033D01*
X525233Y400182D01*
X525402Y399331D01*
X525884Y398609D01*
X526606Y398127D01*
X526633Y398122D01*
X533717Y391037D01*
Y357456D01*
X533702Y357433D01*
X533533Y356582D01*
X533702Y355731D01*
X534184Y355009D01*
X534906Y354527D01*
X535757Y354358D01*
X536608Y354527D01*
X537329Y355009D01*
X537811Y355731D01*
X537981Y356582D01*
X537811Y357433D01*
X537796Y357456D01*
Y369316D01*
X538296Y369365D01*
X538402Y368831D01*
X538884Y368109D01*
X539606Y367627D01*
X540457Y367458D01*
X541308Y367627D01*
X541331Y367643D01*
X550612D01*
X563512Y354743D01*
Y350185D01*
X563497Y350162D01*
X563327Y349311D01*
X563497Y348460D01*
X563979Y347739D01*
X564700Y347256D01*
X565551Y347087D01*
X566402Y347256D01*
X567124Y347739D01*
X567606Y348460D01*
X567775Y349311D01*
X567606Y350162D01*
X567590Y350185D01*
Y355587D01*
X567435Y356368D01*
X566993Y357029D01*
X566199Y357824D01*
X552899Y371124D01*
X552237Y371566D01*
X551457Y371721D01*
X541331D01*
X541308Y371736D01*
X540457Y371906D01*
X539606Y371736D01*
X538884Y371254D01*
X538402Y370533D01*
X538296Y369999D01*
X537796Y370048D01*
Y391882D01*
X537641Y392662D01*
X537199Y393324D01*
X529517Y401006D01*
X529511Y401033D01*
X529029Y401754D01*
X528308Y402236D01*
X527457Y402406D01*
D02*
G37*
G36*
X562474Y349303D02*
X560244D01*
Y347073D01*
X560468Y347103D01*
X561142Y347382D01*
X561721Y347826D01*
X562165Y348405D01*
X562444Y349080D01*
X562474Y349303D01*
D02*
G37*
G36*
X559244D02*
X557014D01*
X557044Y349080D01*
X557323Y348405D01*
X557767Y347826D01*
X558346Y347382D01*
X559021Y347103D01*
X559244Y347073D01*
Y349303D01*
D02*
G37*
G36*
X276057Y334006D02*
X275206Y333836D01*
X274484Y333354D01*
X274462Y333321D01*
X266831D01*
X266808Y333336D01*
X265957Y333506D01*
X265106Y333336D01*
X264384Y332854D01*
X263902Y332133D01*
X263733Y331282D01*
X263902Y330431D01*
X264384Y329709D01*
X264982Y329310D01*
X265013Y329191D01*
Y328873D01*
X264982Y328754D01*
X264384Y328354D01*
X263902Y327633D01*
X263733Y326782D01*
X263902Y325931D01*
X264384Y325209D01*
X264798Y324933D01*
Y324331D01*
X264384Y324054D01*
X263902Y323333D01*
X263895Y323295D01*
X263873Y323262D01*
X263718Y322482D01*
X263873Y321702D01*
X263895Y321669D01*
X263902Y321631D01*
X264384Y320909D01*
X265106Y320427D01*
X265957Y320258D01*
X266808Y320427D01*
X266831Y320443D01*
X275033D01*
X275206Y320327D01*
X276057Y320158D01*
X276908Y320327D01*
X277629Y320809D01*
X278111Y321531D01*
X278280Y322382D01*
X278111Y323233D01*
X277629Y323954D01*
X276908Y324436D01*
X276746Y324469D01*
X276656Y324977D01*
X276908Y325027D01*
X277629Y325509D01*
X278111Y326231D01*
X278280Y327082D01*
X278111Y327933D01*
X277629Y328654D01*
X277027Y329057D01*
X276961Y329474D01*
X276986Y329631D01*
X277299Y329840D01*
X277799Y330340D01*
X278241Y331001D01*
X278396Y331782D01*
X278241Y332562D01*
X277799Y333224D01*
X277650Y333323D01*
X277629Y333354D01*
X276908Y333836D01*
X276057Y334006D01*
D02*
G37*
G36*
X354240Y326647D02*
Y324417D01*
X356470D01*
X356440Y324641D01*
X356161Y325315D01*
X355717Y325894D01*
X355138Y326338D01*
X354464Y326618D01*
X354240Y326647D01*
D02*
G37*
G36*
X353240D02*
X353017Y326618D01*
X352342Y326338D01*
X351763Y325894D01*
X351319Y325315D01*
X351040Y324641D01*
X351010Y324417D01*
X353240D01*
Y326647D01*
D02*
G37*
G36*
X356470Y323417D02*
X354240D01*
Y321188D01*
X354464Y321217D01*
X355138Y321496D01*
X355717Y321940D01*
X356161Y322519D01*
X356440Y323194D01*
X356470Y323417D01*
D02*
G37*
G36*
X353240D02*
X351010D01*
X351040Y323194D01*
X351319Y322519D01*
X351763Y321940D01*
X352342Y321496D01*
X353017Y321217D01*
X353240Y321188D01*
Y323417D01*
D02*
G37*
G36*
X523257Y318806D02*
X522406Y318636D01*
X522383Y318621D01*
X495431D01*
X495408Y318636D01*
X494557Y318806D01*
X493706Y318636D01*
X492984Y318154D01*
X492502Y317433D01*
X492333Y316582D01*
X492502Y315731D01*
X492984Y315009D01*
X493706Y314527D01*
X494557Y314358D01*
X495408Y314527D01*
X495431Y314543D01*
X522383D01*
X522406Y314527D01*
X523257Y314358D01*
X524108Y314527D01*
X524829Y315009D01*
X525311Y315731D01*
X525481Y316582D01*
X525311Y317433D01*
X524829Y318154D01*
X524108Y318636D01*
X523257Y318806D01*
D02*
G37*
G36*
X255610Y322567D02*
X254905Y322474D01*
X254249Y322202D01*
X253685Y321769D01*
X253252Y321205D01*
X252980Y320548D01*
X252887Y319843D01*
X252980Y319139D01*
X253252Y318482D01*
X253685Y317918D01*
X254249Y317485D01*
X254905Y317213D01*
X255610Y317120D01*
X256315Y317213D01*
X256972Y317485D01*
X257536Y317918D01*
X257969Y318482D01*
X258241Y319139D01*
X258333Y319843D01*
X258241Y320548D01*
X257969Y321205D01*
X257536Y321769D01*
X256972Y322202D01*
X256315Y322474D01*
X255610Y322567D01*
D02*
G37*
G36*
X247810D02*
X247105Y322474D01*
X246449Y322202D01*
X245885Y321769D01*
X245452Y321205D01*
X245180Y320548D01*
X245087Y319843D01*
X245180Y319139D01*
X245452Y318482D01*
X245885Y317918D01*
X246449Y317485D01*
X247105Y317213D01*
X247810Y317120D01*
X248515Y317213D01*
X249172Y317485D01*
X249736Y317918D01*
X250169Y318482D01*
X250441Y319139D01*
X250534Y319843D01*
X250441Y320548D01*
X250169Y321205D01*
X249736Y321769D01*
X249172Y322202D01*
X248515Y322474D01*
X247810Y322567D01*
D02*
G37*
G36*
X433557Y319106D02*
X432706Y318936D01*
X431984Y318454D01*
X431502Y317733D01*
X431333Y316882D01*
X431502Y316031D01*
X431984Y315309D01*
X432706Y314827D01*
X433557Y314658D01*
X434408Y314827D01*
X434755Y315059D01*
X460751D01*
X460784Y315009D01*
X461506Y314527D01*
X462357Y314358D01*
X463208Y314527D01*
X463929Y315009D01*
X464411Y315731D01*
X464580Y316582D01*
X464411Y317433D01*
X463929Y318154D01*
X463208Y318636D01*
X462357Y318806D01*
X461847Y318704D01*
X434755D01*
X434408Y318936D01*
X433557Y319106D01*
D02*
G37*
G36*
X523257Y313806D02*
X522406Y313636D01*
X522383Y313621D01*
X495431D01*
X495408Y313636D01*
X494557Y313806D01*
X493706Y313636D01*
X492984Y313154D01*
X492502Y312433D01*
X492333Y311582D01*
X492502Y310731D01*
X492984Y310009D01*
X493706Y309527D01*
X494557Y309358D01*
X495408Y309527D01*
X495431Y309543D01*
X522383D01*
X522406Y309527D01*
X523257Y309358D01*
X524108Y309527D01*
X524829Y310009D01*
X525311Y310731D01*
X525481Y311582D01*
X525311Y312433D01*
X524829Y313154D01*
X524108Y313636D01*
X523257Y313806D01*
D02*
G37*
G36*
X433557Y314106D02*
X432706Y313936D01*
X431984Y313454D01*
X431502Y312733D01*
X431333Y311882D01*
X431502Y311031D01*
X431984Y310309D01*
X432706Y309827D01*
X433557Y309658D01*
X434408Y309827D01*
X434755Y310059D01*
X460751D01*
X460784Y310009D01*
X461506Y309527D01*
X462357Y309358D01*
X463208Y309527D01*
X463929Y310009D01*
X464411Y310731D01*
X464580Y311582D01*
X464411Y312433D01*
X463929Y313154D01*
X463208Y313636D01*
X462357Y313806D01*
X461847Y313704D01*
X434755D01*
X434408Y313936D01*
X433557Y314106D01*
D02*
G37*
G36*
X255610Y314667D02*
X254905Y314574D01*
X254249Y314302D01*
X253685Y313869D01*
X253252Y313305D01*
X252980Y312648D01*
X252887Y311943D01*
X252980Y311239D01*
X253252Y310582D01*
X253685Y310018D01*
X254249Y309585D01*
X254905Y309313D01*
X255610Y309220D01*
X256315Y309313D01*
X256972Y309585D01*
X257536Y310018D01*
X257969Y310582D01*
X258241Y311239D01*
X258333Y311943D01*
X258241Y312648D01*
X257969Y313305D01*
X257536Y313869D01*
X256972Y314302D01*
X256315Y314574D01*
X255610Y314667D01*
D02*
G37*
G36*
X247810D02*
X247105Y314574D01*
X246449Y314302D01*
X245885Y313869D01*
X245452Y313305D01*
X245180Y312648D01*
X245087Y311943D01*
X245180Y311239D01*
X245452Y310582D01*
X245885Y310018D01*
X246449Y309585D01*
X247105Y309313D01*
X247810Y309220D01*
X248515Y309313D01*
X249172Y309585D01*
X249736Y310018D01*
X250169Y310582D01*
X250441Y311239D01*
X250534Y311943D01*
X250441Y312648D01*
X250169Y313305D01*
X249736Y313869D01*
X249172Y314302D01*
X248515Y314574D01*
X247810Y314667D01*
D02*
G37*
G36*
X523257Y308806D02*
X522406Y308636D01*
X522383Y308621D01*
X495431D01*
X495408Y308636D01*
X494557Y308806D01*
X493706Y308636D01*
X492984Y308154D01*
X492502Y307433D01*
X492333Y306582D01*
X492502Y305731D01*
X492984Y305009D01*
X493706Y304527D01*
X494557Y304358D01*
X495408Y304527D01*
X495431Y304543D01*
X522383D01*
X522406Y304527D01*
X523257Y304358D01*
X524108Y304527D01*
X524829Y305009D01*
X525311Y305731D01*
X525481Y306582D01*
X525311Y307433D01*
X524829Y308154D01*
X524108Y308636D01*
X523257Y308806D01*
D02*
G37*
G36*
X301189Y308930D02*
Y306701D01*
X303419D01*
X303389Y306924D01*
X303110Y307599D01*
X302666Y308178D01*
X302087Y308622D01*
X301413Y308901D01*
X301189Y308930D01*
D02*
G37*
G36*
X300189D02*
X299965Y308901D01*
X299291Y308622D01*
X298712Y308178D01*
X298268Y307599D01*
X297989Y306924D01*
X297959Y306701D01*
X300189D01*
Y308930D01*
D02*
G37*
G36*
X433557Y309106D02*
X432706Y308936D01*
X431984Y308454D01*
X431502Y307733D01*
X431333Y306882D01*
X431502Y306031D01*
X431984Y305309D01*
X432706Y304827D01*
X433557Y304658D01*
X434408Y304827D01*
X434755Y305060D01*
X460751D01*
X460784Y305009D01*
X461506Y304527D01*
X462357Y304358D01*
X463208Y304527D01*
X463929Y305009D01*
X464411Y305731D01*
X464580Y306582D01*
X464411Y307433D01*
X463929Y308154D01*
X463208Y308636D01*
X462357Y308806D01*
X461847Y308704D01*
X434755D01*
X434408Y308936D01*
X433557Y309106D01*
D02*
G37*
G36*
X303419Y305701D02*
X301189D01*
Y303471D01*
X301413Y303501D01*
X302087Y303780D01*
X302666Y304224D01*
X303110Y304803D01*
X303389Y305477D01*
X303419Y305701D01*
D02*
G37*
G36*
X300189D02*
X297959D01*
X297989Y305477D01*
X298268Y304803D01*
X298712Y304224D01*
X299291Y303780D01*
X299965Y303501D01*
X300189Y303471D01*
Y305701D01*
D02*
G37*
G36*
X561221Y302599D02*
X560497Y302503D01*
X560073Y302328D01*
X542978D01*
X542554Y302503D01*
X541831Y302599D01*
X541107Y302503D01*
X540433Y302224D01*
X539854Y301780D01*
X539410Y301201D01*
X539130Y300527D01*
X539035Y299803D01*
X539130Y299080D01*
X539410Y298405D01*
X539854Y297826D01*
X540433Y297382D01*
X541107Y297103D01*
X541189Y297092D01*
X541329Y296569D01*
X540937Y296268D01*
X540492Y295689D01*
X540213Y295015D01*
X540118Y294291D01*
X540213Y293568D01*
X540492Y292894D01*
X540937Y292315D01*
X541516Y291870D01*
X542190Y291591D01*
X542913Y291496D01*
X543017Y291509D01*
X543209Y291471D01*
X554857D01*
X555280Y291296D01*
X556004Y291200D01*
X556728Y291296D01*
X557402Y291575D01*
X557981Y292019D01*
X558425Y292598D01*
X558704Y293272D01*
X558800Y293996D01*
X558704Y294720D01*
X558425Y295394D01*
X557981Y295973D01*
X557402Y296417D01*
X556728Y296696D01*
X556492Y296727D01*
X556339Y297252D01*
X556371Y297278D01*
X560073D01*
X560497Y297103D01*
X561221Y297008D01*
X561944Y297103D01*
X562618Y297382D01*
X563197Y297826D01*
X563642Y298405D01*
X563921Y299080D01*
X564016Y299803D01*
X563921Y300527D01*
X563642Y301201D01*
X563197Y301780D01*
X562618Y302224D01*
X561944Y302503D01*
X561221Y302599D01*
D02*
G37*
G36*
X342157Y352906D02*
X341306Y352736D01*
X340584Y352254D01*
X340102Y351533D01*
X339933Y350682D01*
X340102Y349831D01*
X340334Y349483D01*
Y304980D01*
X340102Y304633D01*
X339933Y303782D01*
X340102Y302931D01*
X340584Y302209D01*
X341306Y301727D01*
X342157Y301558D01*
X343008Y301727D01*
X343729Y302209D01*
X344211Y302931D01*
X344380Y303782D01*
X344211Y304633D01*
X343979Y304980D01*
Y349483D01*
X344211Y349831D01*
X344380Y350682D01*
X344211Y351533D01*
X343729Y352254D01*
X343008Y352736D01*
X342157Y352906D01*
D02*
G37*
G36*
X337157D02*
X336306Y352736D01*
X335584Y352254D01*
X335102Y351533D01*
X334933Y350682D01*
X335102Y349831D01*
X335334Y349483D01*
Y304980D01*
X335102Y304633D01*
X334933Y303782D01*
X335102Y302931D01*
X335584Y302209D01*
X336306Y301727D01*
X337157Y301558D01*
X338008Y301727D01*
X338729Y302209D01*
X339211Y302931D01*
X339381Y303782D01*
X339211Y304633D01*
X338979Y304980D01*
Y349483D01*
X339211Y349831D01*
X339381Y350682D01*
X339211Y351533D01*
X338729Y352254D01*
X338008Y352736D01*
X337157Y352906D01*
D02*
G37*
G36*
X255610Y306767D02*
X254905Y306674D01*
X254249Y306402D01*
X253685Y305969D01*
X253252Y305405D01*
X252980Y304748D01*
X252887Y304043D01*
X252980Y303339D01*
X253252Y302682D01*
X253685Y302118D01*
X254249Y301685D01*
X254905Y301413D01*
X255610Y301320D01*
X256315Y301413D01*
X256972Y301685D01*
X257536Y302118D01*
X257969Y302682D01*
X258241Y303339D01*
X258333Y304043D01*
X258241Y304748D01*
X257969Y305405D01*
X257536Y305969D01*
X256972Y306402D01*
X256315Y306674D01*
X255610Y306767D01*
D02*
G37*
G36*
X247810D02*
X247105Y306674D01*
X246449Y306402D01*
X245885Y305969D01*
X245452Y305405D01*
X245180Y304748D01*
X245087Y304043D01*
X245180Y303339D01*
X245452Y302682D01*
X245885Y302118D01*
X246449Y301685D01*
X247105Y301413D01*
X247810Y301320D01*
X248515Y301413D01*
X249172Y301685D01*
X249736Y302118D01*
X250169Y302682D01*
X250441Y303339D01*
X250534Y304043D01*
X250441Y304748D01*
X250169Y305405D01*
X249736Y305969D01*
X249172Y306402D01*
X248515Y306674D01*
X247810Y306767D01*
D02*
G37*
G36*
X449550Y302876D02*
Y300646D01*
X451779D01*
X451750Y300870D01*
X451471Y301544D01*
X451026Y302123D01*
X450447Y302568D01*
X449773Y302847D01*
X449550Y302876D01*
D02*
G37*
G36*
X448550D02*
X448326Y302847D01*
X447652Y302568D01*
X447073Y302123D01*
X446629Y301544D01*
X446349Y300870D01*
X446320Y300646D01*
X448550D01*
Y302876D01*
D02*
G37*
G36*
X386550Y302776D02*
Y300547D01*
X388779D01*
X388750Y300770D01*
X388471Y301444D01*
X388026Y302023D01*
X387447Y302467D01*
X386773Y302747D01*
X386550Y302776D01*
D02*
G37*
G36*
X385550D02*
X385326Y302747D01*
X384652Y302467D01*
X384073Y302023D01*
X383629Y301444D01*
X383349Y300770D01*
X383320Y300547D01*
X385550D01*
Y302776D01*
D02*
G37*
G36*
X511450Y302576D02*
Y300346D01*
X513679D01*
X513650Y300570D01*
X513371Y301244D01*
X512926Y301823D01*
X512347Y302268D01*
X511673Y302547D01*
X511450Y302576D01*
D02*
G37*
G36*
X510450D02*
X510226Y302547D01*
X509552Y302268D01*
X508973Y301823D01*
X508529Y301244D01*
X508249Y300570D01*
X508220Y300346D01*
X510450D01*
Y302576D01*
D02*
G37*
G36*
X451779Y299646D02*
X449550D01*
Y297417D01*
X449773Y297446D01*
X450447Y297725D01*
X451026Y298170D01*
X451471Y298749D01*
X451750Y299423D01*
X451779Y299646D01*
D02*
G37*
G36*
X448550D02*
X446320D01*
X446349Y299423D01*
X446629Y298749D01*
X447073Y298170D01*
X447652Y297725D01*
X448326Y297446D01*
X448550Y297417D01*
Y299646D01*
D02*
G37*
G36*
X388779Y299547D02*
X386550D01*
Y297317D01*
X386773Y297346D01*
X387447Y297625D01*
X388026Y298070D01*
X388471Y298649D01*
X388750Y299323D01*
X388779Y299547D01*
D02*
G37*
G36*
X385550D02*
X383320D01*
X383349Y299323D01*
X383629Y298649D01*
X384073Y298070D01*
X384652Y297625D01*
X385326Y297346D01*
X385550Y297317D01*
Y299547D01*
D02*
G37*
G36*
X272244Y314133D02*
X271393Y313964D01*
X270672Y313482D01*
X270189Y312760D01*
X270095Y312283D01*
X269408Y311596D01*
X269021Y311017D01*
X268885Y310335D01*
Y300763D01*
X268615Y300359D01*
X268445Y299508D01*
X268615Y298657D01*
X269097Y297935D01*
X269818Y297453D01*
X270669Y297284D01*
X271520Y297453D01*
X272242Y297935D01*
X272724Y298657D01*
X272893Y299508D01*
X272724Y300359D01*
X272454Y300763D01*
Y309596D01*
X272618Y309760D01*
X273095Y309855D01*
X273817Y310337D01*
X274299Y311058D01*
X274468Y311910D01*
X274299Y312760D01*
X273817Y313482D01*
X273095Y313964D01*
X272244Y314133D01*
D02*
G37*
G36*
X513679Y299346D02*
X511450D01*
Y297117D01*
X511673Y297146D01*
X512347Y297425D01*
X512926Y297870D01*
X513371Y298449D01*
X513650Y299123D01*
X513679Y299346D01*
D02*
G37*
G36*
X510450D02*
X508220D01*
X508249Y299123D01*
X508529Y298449D01*
X508973Y297870D01*
X509552Y297425D01*
X510226Y297146D01*
X510450Y297117D01*
Y299346D01*
D02*
G37*
G36*
X265757Y310106D02*
X264906Y309936D01*
X264184Y309454D01*
X263702Y308733D01*
X263697Y308706D01*
X262615Y307624D01*
X262173Y306962D01*
X262017Y306182D01*
Y297456D01*
X262002Y297433D01*
X261833Y296582D01*
X262002Y295731D01*
X262484Y295009D01*
X263206Y294527D01*
X264057Y294358D01*
X264908Y294527D01*
X265629Y295009D01*
X266111Y295731D01*
X266281Y296582D01*
X266111Y297433D01*
X266096Y297456D01*
Y305337D01*
X266581Y305822D01*
X266608Y305827D01*
X267329Y306309D01*
X267811Y307031D01*
X267981Y307882D01*
X267811Y308733D01*
X267329Y309454D01*
X266608Y309936D01*
X265757Y310106D01*
D02*
G37*
G36*
X255610Y298867D02*
X254905Y298774D01*
X254249Y298502D01*
X253685Y298069D01*
X253252Y297505D01*
X252980Y296848D01*
X252887Y296143D01*
X252980Y295439D01*
X253252Y294782D01*
X253685Y294218D01*
X254249Y293785D01*
X254905Y293513D01*
X255610Y293420D01*
X256315Y293513D01*
X256972Y293785D01*
X257536Y294218D01*
X257969Y294782D01*
X258241Y295439D01*
X258333Y296143D01*
X258241Y296848D01*
X257969Y297505D01*
X257536Y298069D01*
X256972Y298502D01*
X256315Y298774D01*
X255610Y298867D01*
D02*
G37*
G36*
X247810D02*
X247105Y298774D01*
X246449Y298502D01*
X245885Y298069D01*
X245452Y297505D01*
X245180Y296848D01*
X245087Y296143D01*
X245180Y295439D01*
X245452Y294782D01*
X245885Y294218D01*
X246449Y293785D01*
X247105Y293513D01*
X247810Y293420D01*
X248515Y293513D01*
X249172Y293785D01*
X249736Y294218D01*
X250169Y294782D01*
X250441Y295439D01*
X250534Y296143D01*
X250441Y296848D01*
X250169Y297505D01*
X249736Y298069D01*
X249172Y298502D01*
X248515Y298774D01*
X247810Y298867D01*
D02*
G37*
G36*
X397153Y290427D02*
Y288197D01*
X399383D01*
X399354Y288420D01*
X399075Y289095D01*
X398630Y289674D01*
X398051Y290118D01*
X397377Y290397D01*
X397153Y290427D01*
D02*
G37*
G36*
X396153D02*
X395930Y290397D01*
X395256Y290118D01*
X394677Y289674D01*
X394233Y289095D01*
X393953Y288420D01*
X393924Y288197D01*
X396153D01*
Y290427D01*
D02*
G37*
G36*
X390461D02*
Y288197D01*
X392690D01*
X392661Y288420D01*
X392382Y289095D01*
X391937Y289674D01*
X391358Y290118D01*
X390684Y290397D01*
X390461Y290427D01*
D02*
G37*
G36*
X389461D02*
X389237Y290397D01*
X388563Y290118D01*
X387984Y289674D01*
X387540Y289095D01*
X387260Y288420D01*
X387231Y288197D01*
X389461D01*
Y290427D01*
D02*
G37*
G36*
X383965D02*
Y288197D01*
X386194D01*
X386165Y288420D01*
X385886Y289095D01*
X385441Y289674D01*
X384862Y290118D01*
X384188Y290397D01*
X383965Y290427D01*
D02*
G37*
G36*
X382965D02*
X382741Y290397D01*
X382067Y290118D01*
X381488Y289674D01*
X381044Y289095D01*
X380764Y288420D01*
X380735Y288197D01*
X382965D01*
Y290427D01*
D02*
G37*
G36*
X255610Y290967D02*
X254905Y290874D01*
X254249Y290602D01*
X253685Y290169D01*
X253252Y289605D01*
X252980Y288948D01*
X252887Y288243D01*
X252980Y287539D01*
X253252Y286882D01*
X253685Y286318D01*
X254249Y285885D01*
X254905Y285613D01*
X255610Y285520D01*
X256315Y285613D01*
X256972Y285885D01*
X257536Y286318D01*
X257969Y286882D01*
X258241Y287539D01*
X258333Y288243D01*
X258241Y288948D01*
X257969Y289605D01*
X257536Y290169D01*
X256972Y290602D01*
X256315Y290874D01*
X255610Y290967D01*
D02*
G37*
G36*
X247810D02*
X247105Y290874D01*
X246449Y290602D01*
X245885Y290169D01*
X245452Y289605D01*
X245180Y288948D01*
X245087Y288243D01*
X245180Y287539D01*
X245452Y286882D01*
X245885Y286318D01*
X246449Y285885D01*
X247105Y285613D01*
X247810Y285520D01*
X248515Y285613D01*
X249172Y285885D01*
X249736Y286318D01*
X250169Y286882D01*
X250441Y287539D01*
X250534Y288243D01*
X250441Y288948D01*
X250169Y289605D01*
X249736Y290169D01*
X249172Y290602D01*
X248515Y290874D01*
X247810Y290967D01*
D02*
G37*
G36*
X399383Y287197D02*
X397153D01*
Y284967D01*
X397377Y284997D01*
X398051Y285276D01*
X398630Y285720D01*
X399075Y286299D01*
X399354Y286973D01*
X399383Y287197D01*
D02*
G37*
G36*
X396153D02*
X393924D01*
X393953Y286973D01*
X394233Y286299D01*
X394677Y285720D01*
X395256Y285276D01*
X395930Y284997D01*
X396153Y284967D01*
Y287197D01*
D02*
G37*
G36*
X392690D02*
X390461D01*
Y284967D01*
X390684Y284997D01*
X391358Y285276D01*
X391937Y285720D01*
X392382Y286299D01*
X392661Y286973D01*
X392690Y287197D01*
D02*
G37*
G36*
X389461D02*
X387231D01*
X387260Y286973D01*
X387540Y286299D01*
X387984Y285720D01*
X388563Y285276D01*
X389237Y284997D01*
X389461Y284967D01*
Y287197D01*
D02*
G37*
G36*
X386194D02*
X383965D01*
Y284967D01*
X384188Y284997D01*
X384862Y285276D01*
X385441Y285720D01*
X385886Y286299D01*
X386165Y286973D01*
X386194Y287197D01*
D02*
G37*
G36*
X382965D02*
X380735D01*
X380764Y286973D01*
X381044Y286299D01*
X381488Y285720D01*
X382067Y285276D01*
X382741Y284997D01*
X382965Y284967D01*
Y287197D01*
D02*
G37*
G36*
X293457Y293906D02*
X292606Y293736D01*
X291884Y293254D01*
X291402Y292533D01*
X291233Y291682D01*
X291402Y290831D01*
X291817Y290211D01*
X291857Y289882D01*
X291817Y289553D01*
X291402Y288933D01*
X291233Y288082D01*
X291402Y287231D01*
X291863Y286541D01*
X291925Y286396D01*
Y286068D01*
X291863Y285922D01*
X291402Y285233D01*
X291233Y284382D01*
X291402Y283531D01*
X291884Y282809D01*
X292606Y282327D01*
X293457Y282158D01*
X294308Y282327D01*
X294655Y282559D01*
X331058D01*
X331406Y282327D01*
X332257Y282158D01*
X333108Y282327D01*
X333829Y282809D01*
X334311Y283531D01*
X334481Y284382D01*
X334311Y285233D01*
X333829Y285954D01*
X333108Y286436D01*
X332257Y286606D01*
X331406Y286436D01*
X331058Y286204D01*
X328008D01*
X327727Y286704D01*
X327843Y286895D01*
X328008Y286927D01*
X328729Y287409D01*
X329211Y288131D01*
X329380Y288982D01*
X329211Y289833D01*
X328729Y290554D01*
X328008Y291036D01*
X327157Y291206D01*
X326306Y291036D01*
X325584Y290554D01*
X325102Y289833D01*
X325042Y289529D01*
X324837Y289410D01*
X324391Y289730D01*
X324481Y290182D01*
X324311Y291033D01*
X323829Y291754D01*
X323108Y292236D01*
X322257Y292406D01*
X321406Y292236D01*
X321058Y292004D01*
X298612D01*
X297645Y292970D01*
X297054Y293366D01*
X296357Y293504D01*
X296357Y293504D01*
X294655D01*
X294308Y293736D01*
X293457Y293906D01*
D02*
G37*
G36*
X541553Y288580D02*
X533253D01*
Y280281D01*
X541553D01*
Y288580D01*
D02*
G37*
G36*
X255610Y283067D02*
X254905Y282974D01*
X254249Y282702D01*
X253685Y282269D01*
X253252Y281705D01*
X252980Y281048D01*
X252887Y280343D01*
X252980Y279639D01*
X253252Y278982D01*
X253685Y278418D01*
X254249Y277985D01*
X254905Y277713D01*
X255610Y277620D01*
X256315Y277713D01*
X256972Y277985D01*
X257536Y278418D01*
X257969Y278982D01*
X258241Y279639D01*
X258333Y280343D01*
X258241Y281048D01*
X257969Y281705D01*
X257536Y282269D01*
X256972Y282702D01*
X256315Y282974D01*
X255610Y283067D01*
D02*
G37*
G36*
X247810D02*
X247105Y282974D01*
X246449Y282702D01*
X245885Y282269D01*
X245452Y281705D01*
X245180Y281048D01*
X245087Y280343D01*
X245180Y279639D01*
X245452Y278982D01*
X245885Y278418D01*
X246449Y277985D01*
X247105Y277713D01*
X247810Y277620D01*
X248515Y277713D01*
X249172Y277985D01*
X249736Y278418D01*
X250169Y278982D01*
X250441Y279639D01*
X250534Y280343D01*
X250441Y281048D01*
X250169Y281705D01*
X249736Y282269D01*
X249172Y282702D01*
X248515Y282974D01*
X247810Y283067D01*
D02*
G37*
G36*
X437008Y293347D02*
X436284Y293251D01*
X435610Y292972D01*
X435031Y292528D01*
X434587Y291949D01*
X434308Y291275D01*
X434212Y290551D01*
X434308Y289828D01*
X434483Y289404D01*
Y280576D01*
X434308Y280153D01*
X434212Y279429D01*
X434308Y278706D01*
X434587Y278031D01*
X435031Y277452D01*
X435610Y277008D01*
X436284Y276729D01*
X437008Y276634D01*
X437731Y276729D01*
X438406Y277008D01*
X438985Y277452D01*
X439429Y278031D01*
X439708Y278706D01*
X439803Y279429D01*
X439708Y280153D01*
X439533Y280576D01*
Y289404D01*
X439708Y289828D01*
X439803Y290551D01*
X439708Y291275D01*
X439429Y291949D01*
X438985Y292528D01*
X438406Y292972D01*
X437731Y293251D01*
X437008Y293347D01*
D02*
G37*
G36*
X537903Y278550D02*
Y274931D01*
X541523D01*
X541446Y275514D01*
X541028Y276523D01*
X540363Y277390D01*
X539496Y278055D01*
X538486Y278473D01*
X537903Y278550D01*
D02*
G37*
G36*
X536903Y278550D02*
X536320Y278473D01*
X535310Y278055D01*
X534444Y277390D01*
X533778Y276523D01*
X533360Y275514D01*
X533284Y274931D01*
X536903D01*
Y278550D01*
D02*
G37*
G36*
X397153Y275761D02*
Y273532D01*
X399383D01*
X399354Y273755D01*
X399075Y274429D01*
X398630Y275008D01*
X398051Y275452D01*
X397377Y275732D01*
X397153Y275761D01*
D02*
G37*
G36*
X396153D02*
X395930Y275732D01*
X395256Y275452D01*
X394677Y275008D01*
X394233Y274429D01*
X393953Y273755D01*
X393924Y273532D01*
X396153D01*
Y275761D01*
D02*
G37*
G36*
X390461D02*
Y273532D01*
X392690D01*
X392661Y273755D01*
X392382Y274429D01*
X391937Y275008D01*
X391358Y275452D01*
X390684Y275732D01*
X390461Y275761D01*
D02*
G37*
G36*
X389461D02*
X389237Y275732D01*
X388563Y275452D01*
X387984Y275008D01*
X387540Y274429D01*
X387260Y273755D01*
X387231Y273532D01*
X389461D01*
Y275761D01*
D02*
G37*
G36*
X383965D02*
Y273532D01*
X386194D01*
X386165Y273755D01*
X385886Y274429D01*
X385441Y275008D01*
X384862Y275452D01*
X384188Y275732D01*
X383965Y275761D01*
D02*
G37*
G36*
X382965D02*
X382741Y275732D01*
X382067Y275452D01*
X381488Y275008D01*
X381044Y274429D01*
X380764Y273755D01*
X380735Y273532D01*
X382965D01*
Y275761D01*
D02*
G37*
G36*
X303357Y274906D02*
X302506Y274736D01*
X302483Y274721D01*
X300257D01*
X299476Y274566D01*
X298815Y274124D01*
X295912Y271221D01*
X293231D01*
X293208Y271236D01*
X292357Y271406D01*
X291506Y271236D01*
X290784Y270754D01*
X290302Y270033D01*
X290133Y269182D01*
X290302Y268331D01*
X290784Y267609D01*
X291198Y267333D01*
X291224Y267229D01*
X291101Y266771D01*
X291076Y266766D01*
X290415Y266324D01*
X289973Y265662D01*
X289818Y264882D01*
X289973Y264102D01*
X290415Y263440D01*
X291076Y262998D01*
X291324Y262949D01*
X291506Y262827D01*
X292357Y262658D01*
X293208Y262827D01*
X293231Y262843D01*
X299457D01*
X300237Y262998D01*
X300899Y263440D01*
X304181Y266722D01*
X304208Y266727D01*
X304929Y267209D01*
X305411Y267931D01*
X305580Y268782D01*
X305411Y269633D01*
X304929Y270354D01*
X304738Y270482D01*
Y270982D01*
X304929Y271109D01*
X305411Y271831D01*
X305580Y272682D01*
X305411Y273533D01*
X304929Y274254D01*
X304208Y274736D01*
X303357Y274906D01*
D02*
G37*
G36*
X541523Y273931D02*
X537903D01*
Y270311D01*
X538486Y270388D01*
X539496Y270806D01*
X540363Y271471D01*
X541028Y272338D01*
X541446Y273347D01*
X541523Y273931D01*
D02*
G37*
G36*
X536903D02*
X533284D01*
X533360Y273347D01*
X533778Y272338D01*
X534444Y271471D01*
X535310Y270806D01*
X536320Y270388D01*
X536903Y270311D01*
Y273931D01*
D02*
G37*
G36*
X399383Y272532D02*
X397153D01*
Y270302D01*
X397377Y270331D01*
X398051Y270610D01*
X398630Y271055D01*
X399075Y271634D01*
X399354Y272308D01*
X399383Y272532D01*
D02*
G37*
G36*
X396153D02*
X393924D01*
X393953Y272308D01*
X394233Y271634D01*
X394677Y271055D01*
X395256Y270610D01*
X395930Y270331D01*
X396153Y270302D01*
Y272532D01*
D02*
G37*
G36*
X392690D02*
X390461D01*
Y270302D01*
X390684Y270331D01*
X391358Y270610D01*
X391937Y271055D01*
X392382Y271634D01*
X392661Y272308D01*
X392690Y272532D01*
D02*
G37*
G36*
X389461D02*
X387231D01*
X387260Y272308D01*
X387540Y271634D01*
X387984Y271055D01*
X388563Y270610D01*
X389237Y270331D01*
X389461Y270302D01*
Y272532D01*
D02*
G37*
G36*
X386194D02*
X383965D01*
Y270302D01*
X384188Y270331D01*
X384862Y270610D01*
X385441Y271055D01*
X385886Y271634D01*
X386165Y272308D01*
X386194Y272532D01*
D02*
G37*
G36*
X382965D02*
X380735D01*
X380764Y272308D01*
X381044Y271634D01*
X381488Y271055D01*
X382067Y270610D01*
X382741Y270331D01*
X382965Y270302D01*
Y272532D01*
D02*
G37*
G36*
X255510Y275167D02*
X254805Y275074D01*
X254149Y274802D01*
X253585Y274369D01*
X253152Y273805D01*
X252880Y273148D01*
X252787Y272443D01*
X252880Y271739D01*
X253152Y271082D01*
X253585Y270518D01*
X254149Y270085D01*
X254805Y269813D01*
X255510Y269720D01*
X256215Y269813D01*
X256872Y270085D01*
X257436Y270518D01*
X257869Y271082D01*
X258141Y271739D01*
X258233Y272443D01*
X258141Y273148D01*
X257869Y273805D01*
X257436Y274369D01*
X256872Y274802D01*
X256215Y275074D01*
X255510Y275167D01*
D02*
G37*
G36*
X247710D02*
X247005Y275074D01*
X246349Y274802D01*
X245785Y274369D01*
X245352Y273805D01*
X245080Y273148D01*
X244987Y272443D01*
X245080Y271739D01*
X245352Y271082D01*
X245785Y270518D01*
X246349Y270085D01*
X247005Y269813D01*
X247710Y269720D01*
X248415Y269813D01*
X249072Y270085D01*
X249636Y270518D01*
X250069Y271082D01*
X250341Y271739D01*
X250433Y272443D01*
X250341Y273148D01*
X250069Y273805D01*
X249636Y274369D01*
X249072Y274802D01*
X248415Y275074D01*
X247710Y275167D01*
D02*
G37*
G36*
X455118Y271900D02*
X454292Y271791D01*
X453522Y271472D01*
X452861Y270965D01*
X452353Y270303D01*
X452034Y269533D01*
X451926Y268707D01*
X452034Y267881D01*
X452353Y267111D01*
X452861Y266449D01*
X453522Y265942D01*
X454292Y265623D01*
X455118Y265514D01*
X455944Y265623D01*
X456714Y265942D01*
X457376Y266449D01*
X457883Y267111D01*
X458202Y267881D01*
X458311Y268707D01*
X458202Y269533D01*
X457883Y270303D01*
X457376Y270965D01*
X456714Y271472D01*
X455944Y271791D01*
X455118Y271900D01*
D02*
G37*
G36*
X445118D02*
X444292Y271791D01*
X443522Y271472D01*
X442861Y270965D01*
X442353Y270303D01*
X442034Y269533D01*
X441925Y268707D01*
X442034Y267881D01*
X442353Y267111D01*
X442861Y266449D01*
X443522Y265942D01*
X444292Y265623D01*
X445118Y265514D01*
X445944Y265623D01*
X446714Y265942D01*
X447376Y266449D01*
X447883Y267111D01*
X448202Y267881D01*
X448311Y268707D01*
X448202Y269533D01*
X447883Y270303D01*
X447376Y270965D01*
X446714Y271472D01*
X445944Y271791D01*
X445118Y271900D01*
D02*
G37*
G36*
X405118D02*
X404292Y271791D01*
X403522Y271472D01*
X402861Y270965D01*
X402353Y270303D01*
X402034Y269533D01*
X401926Y268707D01*
X402034Y267881D01*
X402353Y267111D01*
X402861Y266449D01*
X403522Y265942D01*
X404292Y265623D01*
X405118Y265514D01*
X405944Y265623D01*
X406714Y265942D01*
X407376Y266449D01*
X407883Y267111D01*
X408202Y267881D01*
X408311Y268707D01*
X408202Y269533D01*
X407883Y270303D01*
X407376Y270965D01*
X406714Y271472D01*
X405944Y271791D01*
X405118Y271900D01*
D02*
G37*
G36*
X255510Y267267D02*
X254805Y267174D01*
X254149Y266902D01*
X253585Y266469D01*
X253152Y265905D01*
X252880Y265248D01*
X252787Y264543D01*
X252880Y263839D01*
X253152Y263182D01*
X253585Y262618D01*
X254149Y262185D01*
X254805Y261913D01*
X255510Y261820D01*
X256215Y261913D01*
X256872Y262185D01*
X257436Y262618D01*
X257869Y263182D01*
X258141Y263839D01*
X258233Y264543D01*
X258141Y265248D01*
X257869Y265905D01*
X257436Y266469D01*
X256872Y266902D01*
X256215Y267174D01*
X255510Y267267D01*
D02*
G37*
G36*
X247710D02*
X247005Y267174D01*
X246349Y266902D01*
X245785Y266469D01*
X245352Y265905D01*
X245080Y265248D01*
X244987Y264543D01*
X245080Y263839D01*
X245352Y263182D01*
X245785Y262618D01*
X246349Y262185D01*
X247005Y261913D01*
X247710Y261820D01*
X248415Y261913D01*
X249072Y262185D01*
X249636Y262618D01*
X250069Y263182D01*
X250341Y263839D01*
X250433Y264543D01*
X250341Y265248D01*
X250069Y265905D01*
X249636Y266469D01*
X249072Y266902D01*
X248415Y267174D01*
X247710Y267267D01*
D02*
G37*
G36*
X415118Y271900D02*
X414292Y271791D01*
X413522Y271472D01*
X412861Y270965D01*
X412353Y270303D01*
X412176Y269876D01*
X411864Y269667D01*
X408451Y266254D01*
X407903Y265435D01*
X407711Y264469D01*
Y261307D01*
X407211Y261091D01*
X406714Y261472D01*
X405944Y261791D01*
X405118Y261900D01*
X404292Y261791D01*
X403522Y261472D01*
X402861Y260965D01*
X402353Y260303D01*
X402034Y259533D01*
X401926Y258707D01*
X402034Y257881D01*
X402353Y257111D01*
X402861Y256450D01*
X403522Y255942D01*
X404292Y255623D01*
X405118Y255514D01*
X405944Y255623D01*
X406714Y255942D01*
X407211Y256323D01*
X407711Y256107D01*
Y254688D01*
X405130Y252107D01*
X359057D01*
X358090Y251915D01*
X357271Y251367D01*
X356724Y250548D01*
X356532Y249582D01*
X356724Y248616D01*
X357271Y247797D01*
X358090Y247249D01*
X359057Y247057D01*
X389011D01*
Y244848D01*
X388835Y244424D01*
X388740Y243701D01*
X388835Y242977D01*
X389114Y242303D01*
X389559Y241724D01*
X390138Y241280D01*
X390812Y241001D01*
X391535Y240905D01*
X392259Y241001D01*
X392933Y241280D01*
X393512Y241724D01*
X393956Y242303D01*
X394236Y242977D01*
X394331Y243701D01*
X394236Y244424D01*
X394060Y244848D01*
Y247057D01*
X406176D01*
X407143Y247249D01*
X407962Y247797D01*
X412022Y251856D01*
X412569Y252676D01*
X413062Y252590D01*
Y219488D01*
Y217321D01*
X380647Y184907D01*
X358957D01*
X357991Y184715D01*
X357171Y184167D01*
X356624Y183348D01*
X356432Y182382D01*
X356624Y181416D01*
X357171Y180596D01*
X357991Y180049D01*
X358957Y179857D01*
X381693D01*
X382659Y180049D01*
X383478Y180596D01*
X417372Y214490D01*
X417919Y215309D01*
X418112Y216276D01*
Y216963D01*
X466732D01*
X467698Y217156D01*
X468029Y217376D01*
X468046Y217378D01*
X468721Y217658D01*
X469300Y218102D01*
X469744Y218681D01*
X470023Y219355D01*
X470118Y220079D01*
X470023Y220802D01*
X469744Y221477D01*
X469300Y222056D01*
X468721Y222500D01*
X468046Y222779D01*
X467323Y222874D01*
X466599Y222779D01*
X465925Y222500D01*
X465346Y222056D01*
X465313Y222013D01*
X418112D01*
Y257662D01*
X418202Y257881D01*
X418311Y258707D01*
X418202Y259533D01*
X417883Y260303D01*
X417376Y260965D01*
X416714Y261472D01*
X415944Y261791D01*
X415118Y261900D01*
X414292Y261791D01*
X413522Y261472D01*
X413261Y261272D01*
X412761Y261519D01*
Y263423D01*
X414755Y265416D01*
X415423Y265549D01*
X415433Y265556D01*
X415944Y265623D01*
X416714Y265942D01*
X417376Y266449D01*
X417883Y267111D01*
X418202Y267881D01*
X418311Y268707D01*
X418202Y269533D01*
X417883Y270303D01*
X417376Y270965D01*
X416714Y271472D01*
X415944Y271791D01*
X415118Y271900D01*
D02*
G37*
G36*
X354358Y263163D02*
Y260933D01*
X356588D01*
X356559Y261157D01*
X356279Y261831D01*
X355835Y262410D01*
X355256Y262854D01*
X354582Y263133D01*
X354358Y263163D01*
D02*
G37*
G36*
X353358D02*
X353135Y263133D01*
X352461Y262854D01*
X351882Y262410D01*
X351437Y261831D01*
X351158Y261157D01*
X351129Y260933D01*
X353358D01*
Y263163D01*
D02*
G37*
G36*
X502567Y261490D02*
Y259260D01*
X504797D01*
X504767Y259483D01*
X504488Y260158D01*
X504044Y260737D01*
X503465Y261181D01*
X502790Y261460D01*
X502567Y261490D01*
D02*
G37*
G36*
X501567D02*
X501343Y261460D01*
X500669Y261181D01*
X500090Y260737D01*
X499646Y260158D01*
X499367Y259483D01*
X499337Y259260D01*
X501567D01*
Y261490D01*
D02*
G37*
G36*
X492626D02*
Y259260D01*
X494856D01*
X494826Y259483D01*
X494547Y260158D01*
X494103Y260737D01*
X493524Y261181D01*
X492849Y261460D01*
X492626Y261490D01*
D02*
G37*
G36*
X491626D02*
X491402Y261460D01*
X490728Y261181D01*
X490149Y260737D01*
X489705Y260158D01*
X489426Y259483D01*
X489396Y259260D01*
X491626D01*
Y261490D01*
D02*
G37*
G36*
X356588Y259933D02*
X354358D01*
Y257703D01*
X354582Y257733D01*
X355256Y258012D01*
X355835Y258456D01*
X356279Y259035D01*
X356559Y259710D01*
X356588Y259933D01*
D02*
G37*
G36*
X353358D02*
X351129D01*
X351158Y259710D01*
X351437Y259035D01*
X351882Y258456D01*
X352461Y258012D01*
X353135Y257733D01*
X353358Y257703D01*
Y259933D01*
D02*
G37*
G36*
X260757Y259506D02*
X259906Y259336D01*
X259184Y258854D01*
X258702Y258133D01*
X258623Y257733D01*
X258103Y257682D01*
X257969Y258005D01*
X257536Y258569D01*
X256972Y259002D01*
X256315Y259274D01*
X255610Y259367D01*
X254905Y259274D01*
X254249Y259002D01*
X253685Y258569D01*
X253252Y258005D01*
X252980Y257348D01*
X252887Y256643D01*
X252980Y255939D01*
X253252Y255282D01*
X253685Y254718D01*
X254249Y254285D01*
X254905Y254013D01*
X255610Y253920D01*
X256315Y254013D01*
X256972Y254285D01*
X257536Y254718D01*
X257969Y255282D01*
X258241Y255939D01*
X258717Y255840D01*
Y249546D01*
X258241Y249448D01*
X257969Y250105D01*
X257536Y250669D01*
X256972Y251102D01*
X256315Y251374D01*
X255610Y251467D01*
X254905Y251374D01*
X254249Y251102D01*
X253685Y250669D01*
X253252Y250105D01*
X252980Y249448D01*
X252887Y248743D01*
X252980Y248039D01*
X253252Y247382D01*
X253685Y246818D01*
X254249Y246385D01*
X254905Y246113D01*
X255610Y246020D01*
X256315Y246113D01*
X256972Y246385D01*
X257536Y246818D01*
X257969Y247382D01*
X258241Y248039D01*
X258717Y247940D01*
Y246356D01*
X258702Y246333D01*
X258695Y246295D01*
X258673Y246262D01*
X258518Y245482D01*
Y244782D01*
X258673Y244002D01*
X259115Y243340D01*
X260215Y242240D01*
X260876Y241798D01*
X261657Y241643D01*
X262437Y241798D01*
X263099Y242240D01*
X263541Y242901D01*
X263696Y243682D01*
X263637Y243978D01*
X264108Y244173D01*
X264284Y243909D01*
X265006Y243427D01*
X265857Y243258D01*
X266708Y243427D01*
X267429Y243909D01*
X267911Y244631D01*
X268080Y245482D01*
X267988Y245945D01*
X267996Y245982D01*
X267841Y246762D01*
X267399Y247424D01*
X267295Y247527D01*
Y251390D01*
X267311Y251413D01*
X267480Y252264D01*
X267311Y253115D01*
X266828Y253836D01*
X266107Y254318D01*
X265256Y254488D01*
X264405Y254318D01*
X263683Y253836D01*
X263296Y253256D01*
X262796Y253408D01*
Y256408D01*
X262811Y256431D01*
X262981Y257282D01*
X262811Y258133D01*
X262329Y258854D01*
X261608Y259336D01*
X260757Y259506D01*
D02*
G37*
G36*
X504797Y258260D02*
X502567D01*
Y256030D01*
X502790Y256060D01*
X503465Y256339D01*
X504044Y256783D01*
X504488Y257362D01*
X504767Y258036D01*
X504797Y258260D01*
D02*
G37*
G36*
X501567D02*
X499337D01*
X499367Y258036D01*
X499646Y257362D01*
X500090Y256783D01*
X500669Y256339D01*
X501343Y256060D01*
X501567Y256030D01*
Y258260D01*
D02*
G37*
G36*
X494856D02*
X492626D01*
Y256030D01*
X492849Y256060D01*
X493524Y256339D01*
X494103Y256783D01*
X494547Y257362D01*
X494826Y258036D01*
X494856Y258260D01*
D02*
G37*
G36*
X491626D02*
X489396D01*
X489426Y258036D01*
X489705Y257362D01*
X490149Y256783D01*
X490728Y256339D01*
X491402Y256060D01*
X491626Y256030D01*
Y258260D01*
D02*
G37*
G36*
X455118Y261900D02*
X454292Y261791D01*
X453522Y261472D01*
X452861Y260965D01*
X452353Y260303D01*
X452034Y259533D01*
X451926Y258707D01*
X452034Y257881D01*
X452353Y257111D01*
X452861Y256450D01*
X453522Y255942D01*
X454292Y255623D01*
X455118Y255514D01*
X455944Y255623D01*
X456714Y255942D01*
X457376Y256450D01*
X457883Y257111D01*
X458202Y257881D01*
X458311Y258707D01*
X458202Y259533D01*
X457883Y260303D01*
X457376Y260965D01*
X456714Y261472D01*
X455944Y261791D01*
X455118Y261900D01*
D02*
G37*
G36*
X347157Y352906D02*
X346306Y352736D01*
X345584Y352254D01*
X345102Y351533D01*
X344933Y350682D01*
X345102Y349831D01*
X345334Y349483D01*
Y304980D01*
X345102Y304633D01*
X344933Y303782D01*
X345102Y302931D01*
X345584Y302209D01*
X346306Y301727D01*
X347157Y301558D01*
X348008Y301727D01*
X348729Y302209D01*
X349211Y302931D01*
X349380Y303782D01*
X349211Y304633D01*
X348979Y304980D01*
Y309758D01*
X349479Y309878D01*
X349909Y309234D01*
X380181Y278962D01*
X380937Y278457D01*
X381828Y278280D01*
X382010Y278316D01*
X410778D01*
X422009Y267085D01*
X422754Y266588D01*
X422755Y266587D01*
X422861Y266449D01*
X423522Y265942D01*
X424292Y265623D01*
X424683Y265572D01*
X428556Y261699D01*
X429375Y261152D01*
X430341Y260959D01*
X432291D01*
X432512Y260511D01*
X432353Y260303D01*
X432034Y259533D01*
X431925Y258707D01*
X432034Y257881D01*
X432353Y257111D01*
X432861Y256450D01*
X433522Y255942D01*
X434292Y255623D01*
X435118Y255514D01*
X435944Y255623D01*
X436715Y255942D01*
X436936Y256112D01*
X437436Y255865D01*
Y254134D01*
X437628Y253168D01*
X438175Y252348D01*
X456679Y233844D01*
X457498Y233297D01*
X458465Y233105D01*
X465880D01*
X466304Y232930D01*
X467028Y232834D01*
X467751Y232930D01*
X468425Y233209D01*
X469004Y233653D01*
X469449Y234232D01*
X469728Y234906D01*
X469823Y235630D01*
X469728Y236353D01*
X469449Y237028D01*
X469004Y237607D01*
X468425Y238051D01*
X467751Y238330D01*
X467028Y238425D01*
X466304Y238330D01*
X465880Y238155D01*
X459510D01*
X442486Y255180D01*
Y256175D01*
X442985Y256354D01*
X443522Y255942D01*
X444292Y255623D01*
X445118Y255514D01*
X445944Y255623D01*
X446714Y255942D01*
X447376Y256450D01*
X447883Y257111D01*
X448202Y257881D01*
X448311Y258707D01*
X448202Y259533D01*
X447883Y260303D01*
X447376Y260965D01*
X446714Y261472D01*
X445944Y261791D01*
X445118Y261900D01*
X444292Y261791D01*
X443522Y261472D01*
X442920Y261010D01*
X442660Y261046D01*
X442380Y261160D01*
X442293Y261596D01*
X441746Y262415D01*
X438892Y265270D01*
X438072Y265817D01*
X437517Y265928D01*
X437376Y266449D01*
X437883Y267111D01*
X438202Y267881D01*
X438311Y268707D01*
X438202Y269533D01*
X437883Y270303D01*
X437376Y270965D01*
X436715Y271472D01*
X435944Y271791D01*
X435118Y271900D01*
X434292Y271791D01*
X433522Y271472D01*
X432861Y270965D01*
X432353Y270303D01*
X432034Y269533D01*
X431925Y268707D01*
X432034Y267881D01*
X432353Y267111D01*
X432815Y266509D01*
X432699Y266009D01*
X431387D01*
X428254Y269143D01*
X428202Y269533D01*
X427883Y270303D01*
X427376Y270965D01*
X427151Y271137D01*
X427002Y271286D01*
X426183Y271833D01*
X425217Y272026D01*
X424250Y271833D01*
X424015Y271676D01*
X423938Y271644D01*
X413350Y282232D01*
X412606Y282730D01*
X411728Y282904D01*
X382830D01*
X353887Y311847D01*
Y316482D01*
X353710Y317374D01*
X353671Y317431D01*
X353611Y317733D01*
X353129Y318454D01*
X352408Y318936D01*
X351557Y319106D01*
X350706Y318936D01*
X349984Y318454D01*
X349502Y317733D01*
X349479Y317617D01*
X348979Y317666D01*
Y349483D01*
X349211Y349831D01*
X349380Y350682D01*
X349211Y351533D01*
X348729Y352254D01*
X348008Y352736D01*
X347157Y352906D01*
D02*
G37*
G36*
X247810Y259367D02*
X247105Y259274D01*
X246449Y259002D01*
X245885Y258569D01*
X245452Y258005D01*
X245180Y257348D01*
X245087Y256643D01*
X245180Y255939D01*
X245452Y255282D01*
X245885Y254718D01*
X246449Y254285D01*
X247105Y254013D01*
X247810Y253920D01*
X248515Y254013D01*
X249172Y254285D01*
X249736Y254718D01*
X250169Y255282D01*
X250441Y255939D01*
X250534Y256643D01*
X250441Y257348D01*
X250169Y258005D01*
X249736Y258569D01*
X249172Y259002D01*
X248515Y259274D01*
X247810Y259367D01*
D02*
G37*
G36*
X476476Y270118D02*
X475753Y270023D01*
X475079Y269744D01*
X474500Y269300D01*
X474055Y268721D01*
X473776Y268046D01*
X473754Y267876D01*
X465439Y259561D01*
X464892Y258742D01*
X464700Y257776D01*
Y253214D01*
X464524Y252790D01*
X464429Y252067D01*
X464524Y251343D01*
X464803Y250669D01*
X465248Y250090D01*
X465827Y249646D01*
X466501Y249367D01*
X467224Y249271D01*
X467948Y249367D01*
X468622Y249646D01*
X469201Y250090D01*
X469645Y250669D01*
X469925Y251343D01*
X470020Y252067D01*
X469925Y252790D01*
X469749Y253214D01*
Y256730D01*
X478077Y265057D01*
X478453Y265346D01*
X478897Y265925D01*
X479177Y266599D01*
X479272Y267323D01*
X479177Y268046D01*
X478897Y268721D01*
X478453Y269300D01*
X477874Y269744D01*
X477200Y270023D01*
X476476Y270118D01*
D02*
G37*
G36*
X247810Y251467D02*
X247105Y251374D01*
X246449Y251102D01*
X245885Y250669D01*
X245452Y250105D01*
X245180Y249448D01*
X245087Y248743D01*
X245180Y248039D01*
X245452Y247382D01*
X245885Y246818D01*
X246449Y246385D01*
X247105Y246113D01*
X247810Y246020D01*
X248515Y246113D01*
X249172Y246385D01*
X249736Y246818D01*
X250169Y247382D01*
X250441Y248039D01*
X250534Y248743D01*
X250441Y249448D01*
X250169Y250105D01*
X249736Y250669D01*
X249172Y251102D01*
X248515Y251374D01*
X247810Y251467D01*
D02*
G37*
G36*
X300697Y240623D02*
Y238394D01*
X302927D01*
X302897Y238617D01*
X302618Y239292D01*
X302174Y239871D01*
X301595Y240315D01*
X300920Y240594D01*
X300697Y240623D01*
D02*
G37*
G36*
X299697D02*
X299473Y240594D01*
X298799Y240315D01*
X298220Y239871D01*
X297776Y239292D01*
X297497Y238617D01*
X297467Y238394D01*
X299697D01*
Y240623D01*
D02*
G37*
G36*
X255610Y243767D02*
X254905Y243674D01*
X254249Y243402D01*
X253685Y242969D01*
X253252Y242405D01*
X252980Y241748D01*
X252887Y241043D01*
X252980Y240338D01*
X253252Y239682D01*
X253685Y239118D01*
X254249Y238685D01*
X254905Y238413D01*
X255610Y238320D01*
X256315Y238413D01*
X256972Y238685D01*
X257536Y239118D01*
X257969Y239682D01*
X258241Y240338D01*
X258333Y241043D01*
X258241Y241748D01*
X257969Y242405D01*
X257536Y242969D01*
X256972Y243402D01*
X256315Y243674D01*
X255610Y243767D01*
D02*
G37*
G36*
X247810D02*
X247105Y243674D01*
X246449Y243402D01*
X245885Y242969D01*
X245452Y242405D01*
X245180Y241748D01*
X245087Y241043D01*
X245180Y240338D01*
X245452Y239682D01*
X245885Y239118D01*
X246449Y238685D01*
X247105Y238413D01*
X247810Y238320D01*
X248515Y238413D01*
X249172Y238685D01*
X249736Y239118D01*
X250169Y239682D01*
X250441Y240338D01*
X250534Y241043D01*
X250441Y241748D01*
X250169Y242405D01*
X249736Y242969D01*
X249172Y243402D01*
X248515Y243674D01*
X247810Y243767D01*
D02*
G37*
G36*
X302927Y237394D02*
X300697D01*
Y235164D01*
X300920Y235193D01*
X301595Y235473D01*
X302174Y235917D01*
X302618Y236496D01*
X302897Y237170D01*
X302927Y237394D01*
D02*
G37*
G36*
X299697D02*
X297467D01*
X297497Y237170D01*
X297776Y236496D01*
X298220Y235917D01*
X298799Y235473D01*
X299473Y235193D01*
X299697Y235164D01*
Y237394D01*
D02*
G37*
G36*
X347157Y270406D02*
X346306Y270236D01*
X345584Y269754D01*
X345102Y269033D01*
X344933Y268182D01*
X345102Y267331D01*
X345334Y266984D01*
Y238380D01*
X345102Y238033D01*
X344933Y237182D01*
X345102Y236331D01*
X345584Y235609D01*
X346306Y235127D01*
X347157Y234958D01*
X348008Y235127D01*
X348729Y235609D01*
X349211Y236331D01*
X349380Y237182D01*
X349211Y238033D01*
X348979Y238380D01*
Y266984D01*
X349211Y267331D01*
X349380Y268182D01*
X349211Y269033D01*
X348729Y269754D01*
X348008Y270236D01*
X347157Y270406D01*
D02*
G37*
G36*
X342157D02*
X341306Y270236D01*
X340584Y269754D01*
X340102Y269033D01*
X339933Y268182D01*
X340102Y267331D01*
X340334Y266984D01*
Y238380D01*
X340102Y238033D01*
X339933Y237182D01*
X340102Y236331D01*
X340584Y235609D01*
X341306Y235127D01*
X342157Y234958D01*
X343008Y235127D01*
X343729Y235609D01*
X344211Y236331D01*
X344380Y237182D01*
X344211Y238033D01*
X343979Y238380D01*
Y266984D01*
X344211Y267331D01*
X344380Y268182D01*
X344211Y269033D01*
X343729Y269754D01*
X343008Y270236D01*
X342157Y270406D01*
D02*
G37*
G36*
X337157D02*
X336306Y270236D01*
X335584Y269754D01*
X335102Y269033D01*
X334933Y268182D01*
X335102Y267331D01*
X335334Y266984D01*
Y238380D01*
X335102Y238033D01*
X334933Y237182D01*
X335102Y236331D01*
X335584Y235609D01*
X336306Y235127D01*
X337157Y234958D01*
X338008Y235127D01*
X338729Y235609D01*
X339211Y236331D01*
X339381Y237182D01*
X339211Y238033D01*
X338979Y238380D01*
Y266984D01*
X339211Y267331D01*
X339381Y268182D01*
X339211Y269033D01*
X338729Y269754D01*
X338008Y270236D01*
X337157Y270406D01*
D02*
G37*
G36*
X359744Y239607D02*
X359020Y239511D01*
X358346Y239232D01*
X357767Y238788D01*
X357323Y238209D01*
X357044Y237535D01*
X356948Y236811D01*
X357044Y236087D01*
X357323Y235413D01*
X357767Y234834D01*
X358346Y234390D01*
X359020Y234111D01*
X359744Y234015D01*
X360468Y234111D01*
X360891Y234286D01*
X370773D01*
X370956Y234047D01*
X371535Y233603D01*
X372210Y233323D01*
X372933Y233228D01*
X373657Y233323D01*
X374331Y233603D01*
X374910Y234047D01*
X375354Y234626D01*
X375633Y235300D01*
X375729Y236024D01*
X375633Y236747D01*
X375354Y237421D01*
X374910Y238000D01*
X374331Y238445D01*
X373657Y238724D01*
X373516Y238742D01*
X372915Y239144D01*
X371949Y239336D01*
X360891D01*
X360468Y239511D01*
X359744Y239607D01*
D02*
G37*
G36*
X409506Y234570D02*
Y232341D01*
X411736D01*
X411706Y232564D01*
X411427Y233238D01*
X410983Y233817D01*
X410404Y234262D01*
X409729Y234541D01*
X409506Y234570D01*
D02*
G37*
G36*
X408506D02*
X408282Y234541D01*
X407608Y234262D01*
X407029Y233817D01*
X406585Y233238D01*
X406306Y232564D01*
X406276Y232341D01*
X408506D01*
Y234570D01*
D02*
G37*
G36*
X251657Y236406D02*
X250806Y236236D01*
X250084Y235754D01*
X249602Y235033D01*
X249433Y234182D01*
X249602Y233331D01*
X250084Y232609D01*
X250806Y232127D01*
X250833Y232122D01*
X251015Y231940D01*
X251676Y231498D01*
X252457Y231343D01*
X261457D01*
X262237Y231498D01*
X262899Y231940D01*
X262981Y232022D01*
X263008Y232027D01*
X263729Y232509D01*
X264211Y233231D01*
X264381Y234082D01*
X264211Y234933D01*
X263729Y235654D01*
X263008Y236136D01*
X262157Y236306D01*
X261306Y236136D01*
X260584Y235654D01*
X260428Y235421D01*
X253452D01*
X253229Y235754D01*
X252508Y236236D01*
X251657Y236406D01*
D02*
G37*
G36*
X372933Y230158D02*
X372210Y230063D01*
X371786Y229887D01*
X360891D01*
X360468Y230063D01*
X359744Y230158D01*
X359020Y230063D01*
X358346Y229783D01*
X357767Y229339D01*
X357323Y228760D01*
X357044Y228086D01*
X356948Y227362D01*
X357044Y226639D01*
X357323Y225964D01*
X357767Y225385D01*
X358346Y224941D01*
X359020Y224662D01*
X359744Y224567D01*
X360468Y224662D01*
X360891Y224837D01*
X371786D01*
X372210Y224662D01*
X372933Y224567D01*
X373657Y224662D01*
X374331Y224941D01*
X374910Y225385D01*
X375354Y225964D01*
X375633Y226639D01*
X375729Y227362D01*
X375633Y228086D01*
X375354Y228760D01*
X374910Y229339D01*
X374331Y229783D01*
X373657Y230063D01*
X372933Y230158D01*
D02*
G37*
G36*
X411736Y231341D02*
X409506D01*
Y229111D01*
X409729Y229140D01*
X410404Y229419D01*
X410983Y229864D01*
X411427Y230443D01*
X411706Y231117D01*
X411736Y231341D01*
D02*
G37*
G36*
X408506D02*
X406276D01*
X406306Y231117D01*
X406585Y230443D01*
X407029Y229864D01*
X407608Y229419D01*
X408282Y229140D01*
X408506Y229111D01*
Y231341D01*
D02*
G37*
G36*
X425118Y261900D02*
X424292Y261791D01*
X423522Y261472D01*
X422861Y260965D01*
X422353Y260303D01*
X422034Y259533D01*
X421925Y258707D01*
X422034Y257881D01*
X422353Y257111D01*
X422792Y256539D01*
X422864Y256175D01*
X423412Y255356D01*
X452404Y226364D01*
X453223Y225817D01*
X454189Y225625D01*
X465979D01*
X466402Y225449D01*
X467126Y225354D01*
X467849Y225449D01*
X468524Y225729D01*
X469103Y226173D01*
X469547Y226752D01*
X469826Y227426D01*
X469922Y228150D01*
X469826Y228873D01*
X469547Y229547D01*
X469103Y230126D01*
X468524Y230571D01*
X467849Y230850D01*
X467126Y230945D01*
X466402Y230850D01*
X465979Y230675D01*
X455235D01*
X428151Y257758D01*
X428202Y257881D01*
X428311Y258707D01*
X428202Y259533D01*
X427883Y260303D01*
X427376Y260965D01*
X426715Y261472D01*
X425944Y261791D01*
X425118Y261900D01*
D02*
G37*
G36*
X317257Y225006D02*
X316406Y224836D01*
X316383Y224821D01*
X305031D01*
X305008Y224836D01*
X304157Y225006D01*
X303306Y224836D01*
X302584Y224354D01*
X302102Y223633D01*
X301933Y222782D01*
X302102Y221931D01*
X302584Y221209D01*
X303306Y220727D01*
X304157Y220558D01*
X305008Y220727D01*
X305031Y220743D01*
X316383D01*
X316406Y220727D01*
X317257Y220558D01*
X318108Y220727D01*
X318829Y221209D01*
X319311Y221931D01*
X319480Y222782D01*
X319311Y223633D01*
X318829Y224354D01*
X318108Y224836D01*
X317257Y225006D01*
D02*
G37*
G36*
X409506Y225958D02*
Y223728D01*
X411736D01*
X411706Y223952D01*
X411427Y224626D01*
X410983Y225205D01*
X410404Y225649D01*
X409729Y225929D01*
X409506Y225958D01*
D02*
G37*
G36*
X408506D02*
X408282Y225929D01*
X407608Y225649D01*
X407029Y225205D01*
X406585Y224626D01*
X406306Y223952D01*
X406276Y223728D01*
X408506D01*
Y225958D01*
D02*
G37*
G36*
X372933Y221398D02*
X372210Y221303D01*
X371535Y221023D01*
X371414Y220930D01*
X360891D01*
X360468Y221106D01*
X359744Y221201D01*
X359020Y221106D01*
X358346Y220827D01*
X357767Y220382D01*
X357323Y219803D01*
X357044Y219129D01*
X356948Y218406D01*
X357044Y217682D01*
X357323Y217008D01*
X357767Y216429D01*
X358346Y215985D01*
X359020Y215705D01*
X359744Y215610D01*
X360468Y215705D01*
X360891Y215881D01*
X364749D01*
X364971Y215432D01*
X364927Y215375D01*
X364628Y214653D01*
X364526Y213878D01*
Y207537D01*
X364628Y206762D01*
X364927Y206040D01*
X365148Y205752D01*
X364828Y205336D01*
X364529Y204613D01*
X364427Y203839D01*
Y199016D01*
X364529Y198241D01*
X364828Y197519D01*
X365304Y196899D01*
X365924Y196423D01*
X366646Y196124D01*
X367421Y196022D01*
X368196Y196124D01*
X368918Y196423D01*
X369538Y196899D01*
X370014Y197519D01*
X370313Y198241D01*
X370415Y199016D01*
Y203839D01*
X370313Y204613D01*
X370014Y205336D01*
X369793Y205624D01*
X370113Y206040D01*
X370412Y206762D01*
X370514Y207537D01*
Y213878D01*
X370412Y214653D01*
X370113Y215375D01*
X370069Y215432D01*
X370290Y215881D01*
X372372D01*
X372933Y215807D01*
X373657Y215902D01*
X374331Y216181D01*
X374910Y216626D01*
X375354Y217205D01*
X375633Y217879D01*
X375729Y218602D01*
X375633Y219326D01*
X375354Y220000D01*
X374910Y220579D01*
X374331Y221023D01*
X373657Y221303D01*
X372933Y221398D01*
D02*
G37*
G36*
X411736Y222728D02*
X409506D01*
Y220499D01*
X409729Y220528D01*
X410404Y220807D01*
X410983Y221252D01*
X411427Y221831D01*
X411706Y222505D01*
X411736Y222728D01*
D02*
G37*
G36*
X408506D02*
X406276D01*
X406306Y222505D01*
X406585Y221831D01*
X407029Y221252D01*
X407608Y220807D01*
X408282Y220528D01*
X408506Y220499D01*
Y222728D01*
D02*
G37*
G36*
X250357Y229206D02*
X249506Y229036D01*
X248784Y228554D01*
X248302Y227833D01*
X248133Y226982D01*
X248302Y226131D01*
X248784Y225409D01*
X249506Y224927D01*
X250357Y224758D01*
X250443Y224775D01*
X250607Y224743D01*
X263812D01*
X267147Y221408D01*
X267152Y221381D01*
X267634Y220659D01*
X268356Y220177D01*
X269207Y220008D01*
X270058Y220177D01*
X270779Y220659D01*
X271261Y221381D01*
X271430Y222232D01*
X271261Y223083D01*
X270779Y223804D01*
X270058Y224286D01*
X270031Y224292D01*
X266099Y228224D01*
X265437Y228666D01*
X264657Y228821D01*
X251530D01*
X251208Y229036D01*
X250357Y229206D01*
D02*
G37*
G36*
X392035Y210210D02*
Y207980D01*
X394265D01*
X394236Y208204D01*
X393956Y208878D01*
X393512Y209457D01*
X392933Y209901D01*
X392259Y210181D01*
X392035Y210210D01*
D02*
G37*
G36*
X391035D02*
X390812Y210181D01*
X390138Y209901D01*
X389559Y209457D01*
X389114Y208878D01*
X388835Y208204D01*
X388806Y207980D01*
X391035D01*
Y210210D01*
D02*
G37*
G36*
X417035Y210013D02*
Y207784D01*
X419265D01*
X419236Y208007D01*
X418957Y208681D01*
X418512Y209260D01*
X417933Y209704D01*
X417259Y209984D01*
X417035Y210013D01*
D02*
G37*
G36*
X416035D02*
X415812Y209984D01*
X415138Y209704D01*
X414559Y209260D01*
X414114Y208681D01*
X413835Y208007D01*
X413806Y207784D01*
X416035D01*
Y210013D01*
D02*
G37*
G36*
X394265Y206980D02*
X392035D01*
Y204751D01*
X392259Y204780D01*
X392933Y205059D01*
X393512Y205504D01*
X393956Y206083D01*
X394236Y206757D01*
X394265Y206980D01*
D02*
G37*
G36*
X391035D02*
X388806D01*
X388835Y206757D01*
X389114Y206083D01*
X389559Y205504D01*
X390138Y205059D01*
X390812Y204780D01*
X391035Y204751D01*
Y206980D01*
D02*
G37*
G36*
X419265Y206784D02*
X417035D01*
Y204554D01*
X417259Y204583D01*
X417933Y204862D01*
X418512Y205307D01*
X418957Y205886D01*
X419236Y206560D01*
X419265Y206784D01*
D02*
G37*
G36*
X416035D02*
X413806D01*
X413835Y206560D01*
X414114Y205886D01*
X414559Y205307D01*
X415138Y204862D01*
X415812Y204583D01*
X416035Y204554D01*
Y206784D01*
D02*
G37*
G36*
X417035Y203517D02*
Y201287D01*
X419265D01*
X419236Y201511D01*
X418957Y202185D01*
X418512Y202764D01*
X417933Y203208D01*
X417259Y203488D01*
X417035Y203517D01*
D02*
G37*
G36*
X416035D02*
X415812Y203488D01*
X415138Y203208D01*
X414559Y202764D01*
X414114Y202185D01*
X413835Y201511D01*
X413806Y201287D01*
X416035D01*
Y203517D01*
D02*
G37*
G36*
X392035D02*
Y201287D01*
X394265D01*
X394236Y201511D01*
X393956Y202185D01*
X393512Y202764D01*
X392933Y203208D01*
X392259Y203488D01*
X392035Y203517D01*
D02*
G37*
G36*
X391035D02*
X390812Y203488D01*
X390138Y203208D01*
X389559Y202764D01*
X389114Y202185D01*
X388835Y201511D01*
X388806Y201287D01*
X391035D01*
Y203517D01*
D02*
G37*
G36*
X419265Y200287D02*
X417035D01*
Y198058D01*
X417259Y198087D01*
X417933Y198366D01*
X418512Y198811D01*
X418957Y199390D01*
X419236Y200064D01*
X419265Y200287D01*
D02*
G37*
G36*
X416035D02*
X413806D01*
X413835Y200064D01*
X414114Y199390D01*
X414559Y198811D01*
X415138Y198366D01*
X415812Y198087D01*
X416035Y198058D01*
Y200287D01*
D02*
G37*
G36*
X394265D02*
X392035D01*
Y198058D01*
X392259Y198087D01*
X392933Y198366D01*
X393512Y198811D01*
X393956Y199390D01*
X394236Y200064D01*
X394265Y200287D01*
D02*
G37*
G36*
X391035D02*
X388806D01*
X388835Y200064D01*
X389114Y199390D01*
X389559Y198811D01*
X390138Y198366D01*
X390812Y198087D01*
X391035Y198058D01*
Y200287D01*
D02*
G37*
G36*
X354083Y194757D02*
Y192528D01*
X356312D01*
X356283Y192751D01*
X356004Y193425D01*
X355559Y194004D01*
X354980Y194449D01*
X354306Y194728D01*
X354083Y194757D01*
D02*
G37*
G36*
X353083D02*
X352859Y194728D01*
X352185Y194449D01*
X351606Y194004D01*
X351162Y193425D01*
X350882Y192751D01*
X350853Y192528D01*
X353083D01*
Y194757D01*
D02*
G37*
G36*
X519390Y268150D02*
X518666Y268055D01*
X517992Y267775D01*
X517413Y267331D01*
X516969Y266752D01*
X516689Y266078D01*
X516594Y265354D01*
X516689Y264631D01*
X516865Y264207D01*
Y217778D01*
X495384Y196297D01*
X494960Y196122D01*
X494382Y195678D01*
X493937Y195099D01*
X493658Y194424D01*
X493563Y193701D01*
X493658Y192977D01*
X493937Y192303D01*
X494382Y191724D01*
X494960Y191280D01*
X495635Y191000D01*
X496358Y190905D01*
X497082Y191000D01*
X497756Y191280D01*
X498335Y191724D01*
X498779Y192303D01*
X498955Y192727D01*
X521175Y214947D01*
X521723Y215766D01*
X521915Y216732D01*
Y264207D01*
X522090Y264631D01*
X522185Y265354D01*
X522090Y266078D01*
X521811Y266752D01*
X521367Y267331D01*
X520787Y267775D01*
X520113Y268055D01*
X519390Y268150D01*
D02*
G37*
G36*
X356312Y191528D02*
X354083D01*
Y189298D01*
X354306Y189327D01*
X354980Y189606D01*
X355559Y190051D01*
X356004Y190630D01*
X356283Y191304D01*
X356312Y191528D01*
D02*
G37*
G36*
X353083D02*
X350853D01*
X350882Y191304D01*
X351162Y190630D01*
X351606Y190051D01*
X352185Y189606D01*
X352859Y189327D01*
X353083Y189298D01*
Y191528D01*
D02*
G37*
G36*
X256557Y177945D02*
Y169182D01*
X265320D01*
X265190Y170499D01*
X264660Y172246D01*
X263800Y173855D01*
X262642Y175267D01*
X261230Y176425D01*
X259620Y177285D01*
X257874Y177815D01*
X256557Y177945D01*
D02*
G37*
G36*
X255557Y177945D02*
X254240Y177815D01*
X252493Y177285D01*
X250883Y176425D01*
X249472Y175267D01*
X248314Y173855D01*
X247453Y172246D01*
X246923Y170499D01*
X246793Y169182D01*
X255557D01*
Y177945D01*
D02*
G37*
G36*
X560244Y177570D02*
Y168807D01*
X569007D01*
X568878Y170124D01*
X568348Y171871D01*
X567487Y173481D01*
X566329Y174892D01*
X564918Y176050D01*
X563308Y176911D01*
X561561Y177441D01*
X560244Y177570D01*
D02*
G37*
G36*
X559244D02*
X557927Y177441D01*
X556180Y176911D01*
X554570Y176050D01*
X553159Y174892D01*
X552001Y173481D01*
X551140Y171871D01*
X550610Y170124D01*
X550481Y168807D01*
X559244D01*
Y177570D01*
D02*
G37*
G36*
X255557Y168182D02*
X246793D01*
X246923Y166865D01*
X247453Y165118D01*
X248314Y163508D01*
X249472Y162097D01*
X250883Y160939D01*
X252493Y160078D01*
X254240Y159548D01*
X255557Y159418D01*
Y168182D01*
D02*
G37*
G36*
X265320D02*
X256557D01*
Y159418D01*
X257874Y159548D01*
X259620Y160078D01*
X261230Y160939D01*
X262642Y162097D01*
X263800Y163508D01*
X264660Y165118D01*
X265190Y166865D01*
X265320Y168182D01*
D02*
G37*
G36*
X569007Y167807D02*
X560244D01*
Y159044D01*
X561561Y159174D01*
X563308Y159704D01*
X564918Y160564D01*
X566329Y161722D01*
X567487Y163133D01*
X568348Y164743D01*
X568878Y166490D01*
X569007Y167807D01*
D02*
G37*
G36*
X559244D02*
X550481D01*
X550610Y166490D01*
X551140Y164743D01*
X552001Y163133D01*
X553159Y161722D01*
X554570Y160564D01*
X556180Y159704D01*
X557927Y159174D01*
X559244Y159044D01*
Y167807D01*
D02*
G37*
%LPD*%
D13*
X270669Y310335D02*
X272244Y311910D01*
X270669Y299508D02*
Y310335D01*
D30*
X288169Y408268D02*
D03*
X298169D02*
D03*
X308169D02*
D03*
D51*
X367421Y199016D02*
Y203839D01*
X367520Y207537D02*
Y213878D01*
D52*
X425466Y268359D02*
X430341Y263484D01*
X425197Y257913D02*
Y259350D01*
X415587Y257913D02*
Y259167D01*
Y219488D02*
X466732D01*
X415587D02*
Y257913D01*
Y216276D02*
Y219488D01*
X381693Y182382D02*
X415587Y216276D01*
X372835Y218406D02*
X373031Y218602D01*
X359646Y218406D02*
X372835D01*
X359744Y227362D02*
X372933D01*
X371949Y236811D02*
X372736Y236024D01*
X360039Y236811D02*
X371949D01*
X391535Y243701D02*
Y249385D01*
X391339Y249582D02*
X391535Y249385D01*
X519390Y216732D02*
Y265354D01*
X496358Y193701D02*
X519390Y216732D01*
X458465Y235630D02*
X467028D01*
X476476Y267028D02*
Y267323D01*
X467224Y257776D02*
X476476Y267028D01*
X467224Y252067D02*
Y257776D01*
X541831Y299803D02*
X561221D01*
X542913Y294291D02*
X543209Y293996D01*
X556004D01*
X430341Y263484D02*
X437106D01*
X425217Y269501D02*
X425564Y269153D01*
X425197Y257142D02*
Y257913D01*
X437106Y263484D02*
X439961Y260630D01*
Y254134D02*
Y260630D01*
Y254134D02*
X458465Y235630D01*
X410236Y264469D02*
X413650Y267882D01*
X410236Y253642D02*
Y264469D01*
X406176Y249582D02*
X410236Y253642D01*
X413650Y267882D02*
X414457D01*
X367421Y207439D02*
X367520Y207537D01*
X466732Y219488D02*
X467323Y220079D01*
X454189Y228150D02*
X467126D01*
X425197Y257142D02*
X454189Y228150D01*
X391339Y249582D02*
X406176D01*
X359057D02*
X391339D01*
X437008Y279429D02*
Y290551D01*
X358957Y182382D02*
X381693D01*
D53*
X565551Y349311D02*
Y355587D01*
X564757Y356382D02*
X565551Y355587D01*
X535757Y356582D02*
Y391882D01*
X527457Y400182D02*
X535757Y391882D01*
X524114Y383465D02*
X524803Y382776D01*
Y357935D02*
Y382776D01*
Y357935D02*
X525557Y357182D01*
X528199Y358089D02*
Y383563D01*
Y358089D02*
X529607Y356682D01*
X467357Y357282D02*
Y367182D01*
Y357182D02*
Y357282D01*
X414457Y356482D02*
X414757Y356182D01*
X414457Y356482D02*
Y366082D01*
X265256Y246683D02*
Y252264D01*
Y246683D02*
X265957Y245982D01*
X250607Y226782D02*
X264657D01*
X269207Y222232D01*
X292357Y264882D02*
X299457D01*
X291857D02*
X292357D01*
X296757Y269182D02*
X300257Y272682D01*
X292357Y269182D02*
X296757D01*
X300257Y272682D02*
X303357D01*
X299457Y264882D02*
X303357Y268782D01*
X265957Y322482D02*
X275557D01*
X265757D02*
X265957D01*
X261457Y233382D02*
X262157Y234082D01*
X252457Y233382D02*
X261457D01*
X251657Y234182D02*
X252457Y233382D01*
X260557Y244782D02*
Y245482D01*
X275857Y331282D02*
X276357Y331782D01*
X266157Y331282D02*
X275857D01*
X517757Y356582D02*
X517957Y356782D01*
X503457Y384882D02*
X513557D01*
X385657Y356282D02*
X385757Y356382D01*
Y365682D01*
X381357Y379082D02*
X386557Y373882D01*
X389057Y377982D02*
Y379082D01*
Y377982D02*
X400957Y366082D01*
Y356282D02*
Y366082D01*
X408957Y379082D02*
X416057D01*
X405357Y356482D02*
Y369382D01*
X401357Y373382D02*
X405357Y369382D01*
X401357Y373382D02*
Y378782D01*
X408757Y374782D02*
X410457Y373082D01*
Y356482D02*
Y373082D01*
X416057Y379082D02*
X416857Y378282D01*
X412957Y387682D02*
X417557D01*
X405207Y387332D02*
Y394032D01*
Y387332D02*
X407057Y385482D01*
X521657Y356582D02*
Y375082D01*
X515757Y380982D02*
X521657Y375082D01*
X495357Y380982D02*
X515757D01*
X487157Y389182D02*
X495357Y380982D01*
X450357Y389182D02*
X487157D01*
X444657Y394882D02*
X450357Y389182D01*
X513957Y368782D02*
X514257Y369082D01*
X513957Y356582D02*
Y368782D01*
X551457Y369682D02*
X564757Y356382D01*
X540457Y369682D02*
X551457D01*
X319057Y408482D02*
X319157Y408582D01*
X337557D01*
X386457Y373882D02*
X386557D01*
X494557Y316582D02*
X523257D01*
X494557Y306582D02*
X523257D01*
X494557Y311582D02*
X523257D01*
X275757Y326782D02*
X276057Y327082D01*
X265957Y326782D02*
X275757D01*
X275557Y322482D02*
X275657Y322382D01*
X395057Y356282D02*
Y365282D01*
X386457Y373882D02*
X395057Y365282D01*
X448857Y348682D02*
Y365682D01*
X445957Y368582D02*
X448857Y365682D01*
X421157Y368582D02*
X445957D01*
X453657Y349082D02*
Y367782D01*
X449857Y371582D02*
X453657Y367782D01*
X423557Y371582D02*
X449857D01*
X416757Y372982D02*
X421157Y368582D01*
X416857Y378282D02*
X423557Y371582D01*
X451157Y375682D02*
X460557Y366282D01*
X424557Y375682D02*
X451157D01*
X460557Y328482D02*
Y366282D01*
X458657Y326582D02*
X460557Y328482D01*
X417357Y382882D02*
X424557Y375682D01*
X409657Y382882D02*
X417357D01*
X407057Y385482D02*
X409657Y382882D01*
X463957Y321682D02*
X464057Y321782D01*
Y368682D01*
X453557Y379182D02*
X464057Y368682D01*
X426057Y379182D02*
X453557D01*
X417557Y387682D02*
X426057Y379182D01*
X448857Y348682D02*
X449057Y348482D01*
X471857Y357782D02*
Y374982D01*
X464357Y382482D02*
X471857Y374982D01*
X441357Y382482D02*
X464357D01*
X475657Y357382D02*
X475857Y357182D01*
X475657Y357382D02*
Y377282D01*
X480057Y357182D02*
X480157Y357082D01*
X480057Y357182D02*
Y374282D01*
X517957Y356782D02*
Y373882D01*
X515957Y375882D02*
X517957Y373882D01*
X501957Y375882D02*
X515957D01*
X510157Y353182D02*
X510657Y352682D01*
X510157Y353182D02*
Y369282D01*
X264057Y306182D02*
X265757Y307882D01*
X264057Y296582D02*
Y306182D01*
X260757Y245482D02*
Y257282D01*
Y244582D02*
Y245482D01*
Y244582D02*
X261657Y243682D01*
X260557Y244782D02*
X260757Y244582D01*
X265857Y245482D02*
Y245882D01*
X265957Y245982D01*
X304157Y222782D02*
X317257D01*
X317157Y222682D02*
X317257Y222782D01*
D55*
X353863Y389076D02*
X361357Y381582D01*
X347357Y389076D02*
X353863D01*
X361357Y352782D02*
Y381582D01*
X342157Y382182D02*
X342357Y382382D01*
X337057Y381882D02*
X337557Y382382D01*
X337057Y368182D02*
X337357Y367882D01*
X364357Y354782D02*
Y382582D01*
X353457Y393482D02*
X364357Y382582D01*
X333557Y393482D02*
X353457D01*
X364357Y354782D02*
X402557Y316582D01*
X337057Y368182D02*
Y381882D01*
X297857Y290182D02*
X322257D01*
X296357Y291682D02*
X297857Y290182D01*
X293857Y291682D02*
X296357D01*
X347157Y382182D02*
X347357Y382382D01*
X347157Y367682D02*
Y382182D01*
X342157Y367682D02*
Y382182D01*
X353357Y355782D02*
Y382382D01*
Y355782D02*
X402557Y306582D01*
X433557Y316882D02*
X462057D01*
X462357Y316582D01*
X433557Y306882D02*
X462057D01*
X462357Y306582D01*
X433557Y311882D02*
X462057D01*
X462357Y311582D01*
X361357Y352782D02*
X402557Y311582D01*
X337157Y303782D02*
Y350682D01*
Y237182D02*
Y268182D01*
X342157Y303782D02*
Y350682D01*
Y237182D02*
Y268182D01*
X347157Y303782D02*
Y350682D01*
Y237182D02*
Y268182D01*
X337157Y367682D02*
X337357Y367882D01*
X294457Y287082D02*
X325257D01*
X293457Y288082D02*
X294457Y287082D01*
X325257D02*
X327157Y288982D01*
X293457Y284382D02*
X332257D01*
D57*
X423631Y268707D02*
X425118D01*
X411728Y280610D02*
X423631Y268707D01*
X381828Y280610D02*
X411728D01*
D59*
X559744Y168307D02*
D03*
X256057Y168682D02*
D03*
X559646Y402953D02*
D03*
X256102Y402953D02*
D03*
D60*
X455118Y258707D02*
D03*
Y268707D02*
D03*
X445118D02*
D03*
Y258707D02*
D03*
X435118D02*
D03*
Y268707D02*
D03*
X425118D02*
D03*
Y258707D02*
D03*
X415118D02*
D03*
Y268707D02*
D03*
X405118D02*
D03*
Y258707D02*
D03*
X557457Y381082D02*
D03*
X547457D02*
D03*
D61*
X537403Y284431D02*
D03*
D62*
Y274431D02*
D03*
D63*
X255610Y319843D02*
D03*
Y311943D02*
D03*
Y296143D02*
D03*
Y304043D02*
D03*
Y288243D02*
D03*
Y280343D02*
D03*
X255510Y264543D02*
D03*
Y272443D02*
D03*
X255610Y256643D02*
D03*
Y248743D02*
D03*
Y241043D02*
D03*
X247810D02*
D03*
Y248743D02*
D03*
Y256643D02*
D03*
X247710Y272443D02*
D03*
Y264543D02*
D03*
X247810Y280343D02*
D03*
Y288243D02*
D03*
Y304043D02*
D03*
Y296143D02*
D03*
Y311943D02*
D03*
Y319843D02*
D03*
X464233Y400295D02*
D03*
X456333D02*
D03*
X440533D02*
D03*
X448433D02*
D03*
X432633D02*
D03*
X424733D02*
D03*
X408933Y400395D02*
D03*
X416833D02*
D03*
X401033Y400295D02*
D03*
X393133D02*
D03*
X385433D02*
D03*
Y408095D02*
D03*
X393133D02*
D03*
X401033D02*
D03*
X416833Y408195D02*
D03*
X408933D02*
D03*
X424733Y408095D02*
D03*
X432633D02*
D03*
X448433D02*
D03*
X440533D02*
D03*
X456333D02*
D03*
X464233D02*
D03*
D64*
X391535Y207480D02*
D03*
X416535Y207283D02*
D03*
Y200787D02*
D03*
X391535D02*
D03*
X383465Y287697D02*
D03*
Y273031D02*
D03*
X389961Y287697D02*
D03*
Y273031D02*
D03*
X396654D02*
D03*
Y287697D02*
D03*
X409006Y223228D02*
D03*
Y231841D02*
D03*
X372933Y218602D02*
D03*
X359744Y218406D02*
D03*
X372933Y227362D02*
D03*
X359744D02*
D03*
X372933Y236024D02*
D03*
X359744Y236811D02*
D03*
X391535Y243701D02*
D03*
X519390Y265354D02*
D03*
X467028Y235630D02*
D03*
X492126Y258760D02*
D03*
X502067D02*
D03*
X476476Y267323D02*
D03*
X561221Y299803D02*
D03*
X541831D02*
D03*
X542913Y294291D02*
D03*
X556004Y293996D02*
D03*
X437008Y279429D02*
D03*
X367421Y199016D02*
D03*
X367520Y213878D02*
D03*
X496358Y193701D02*
D03*
X300197Y237894D02*
D03*
X300689Y306201D02*
D03*
X299508Y371161D02*
D03*
X433957Y350098D02*
D03*
X497047Y350295D02*
D03*
X559744Y349803D02*
D03*
X543110Y393504D02*
D03*
X467323Y220079D02*
D03*
X467126Y228150D02*
D03*
X467224Y252067D02*
D03*
X437008Y290551D02*
D03*
X353583Y192028D02*
D03*
X353858Y260433D02*
D03*
X510950Y299847D02*
D03*
X449050Y300147D02*
D03*
X386050Y300046D02*
D03*
X353740Y323917D02*
D03*
D65*
X565551Y349311D02*
D03*
X524114Y383465D02*
D03*
X528199Y383563D02*
D03*
X272244Y311910D02*
D03*
X270669Y299508D02*
D03*
X265256Y252264D02*
D03*
X250357Y226982D02*
D03*
X269207Y222232D02*
D03*
X292357Y264882D02*
D03*
X303357Y272682D02*
D03*
Y268782D02*
D03*
X337157Y382382D02*
D03*
X333557Y393482D02*
D03*
X467357Y357282D02*
D03*
X381357Y379082D02*
D03*
X408957D02*
D03*
X389057D02*
D03*
X401357D02*
D03*
X408757Y374782D02*
D03*
X412957Y387682D02*
D03*
X405207Y394032D02*
D03*
X503457Y384882D02*
D03*
X347357Y389076D02*
D03*
X353357Y382382D02*
D03*
X319057Y408482D02*
D03*
X337557Y408582D02*
D03*
X523257Y316582D02*
D03*
X494557D02*
D03*
X433557Y316882D02*
D03*
X462357Y316582D02*
D03*
X523257Y306582D02*
D03*
X494557D02*
D03*
X433557Y306882D02*
D03*
X462357Y306582D02*
D03*
X523257Y311582D02*
D03*
X494557D02*
D03*
X433557Y311882D02*
D03*
X462357Y311582D02*
D03*
X402557Y316582D02*
D03*
Y306582D02*
D03*
Y311582D02*
D03*
X337157Y350682D02*
D03*
Y303782D02*
D03*
Y268182D02*
D03*
Y237182D02*
D03*
X342157Y350682D02*
D03*
Y303782D02*
D03*
Y268182D02*
D03*
Y237182D02*
D03*
X347157Y350682D02*
D03*
Y303782D02*
D03*
Y268182D02*
D03*
Y237182D02*
D03*
X342257Y382382D02*
D03*
X347357D02*
D03*
X347157Y367682D02*
D03*
X337157D02*
D03*
X342157D02*
D03*
X351557Y316882D02*
D03*
X358957Y182382D02*
D03*
X359057Y249582D02*
D03*
X293457Y291682D02*
D03*
Y288082D02*
D03*
X322257Y290182D02*
D03*
X276057Y331782D02*
D03*
X265957Y331282D02*
D03*
X276057Y327082D02*
D03*
X265957Y326782D02*
D03*
X276057Y322382D02*
D03*
X265957Y322482D02*
D03*
X395057Y356282D02*
D03*
X385657D02*
D03*
X385757Y365682D02*
D03*
X400957Y356282D02*
D03*
X405357D02*
D03*
X410457D02*
D03*
X414457Y366082D02*
D03*
X414757Y356282D02*
D03*
X416757Y372982D02*
D03*
X458657Y326582D02*
D03*
X463957Y321682D02*
D03*
X453657Y349082D02*
D03*
X448857Y348682D02*
D03*
X467357Y367182D02*
D03*
X471557Y357182D02*
D03*
X441357Y382482D02*
D03*
X475857Y357182D02*
D03*
X475657Y377282D02*
D03*
X480157Y357182D02*
D03*
X480057Y374282D02*
D03*
X513957Y356582D02*
D03*
X514257Y369082D02*
D03*
X513557Y385082D02*
D03*
X517757Y356582D02*
D03*
X501957Y375882D02*
D03*
X521657Y356582D02*
D03*
X525557D02*
D03*
X444657Y394882D02*
D03*
X529757Y356582D02*
D03*
X535757D02*
D03*
X527457Y400182D02*
D03*
X540457Y369682D02*
D03*
X510657Y352682D02*
D03*
X510157Y369282D02*
D03*
X265757Y307882D02*
D03*
X264057Y296582D02*
D03*
X332257Y284382D02*
D03*
X293457D02*
D03*
X292357Y269182D02*
D03*
X260757Y245482D02*
D03*
X265857D02*
D03*
X304157Y222782D02*
D03*
X260757Y257282D02*
D03*
X262157Y234082D02*
D03*
X251657Y234182D02*
D03*
X327157Y288982D02*
D03*
X317257Y222782D02*
D03*
D66*
X351557Y310882D02*
X381828Y280610D01*
X351557Y310882D02*
Y316482D01*
M02*
