G04*
G04 #@! TF.GenerationSoftware,Altium Limited,Altium Designer,19.1.7 (138)*
G04*
G04 Layer_Physical_Order=2*
G04 Layer_Color=16711680*
%FSLAX25Y25*%
%MOIN*%
G70*
G01*
G75*
%ADD10C,0.01000*%
%ADD43C,0.01500*%
%ADD45C,0.03500*%
%ADD47C,0.02000*%
%ADD49C,0.02500*%
%ADD52C,0.04331*%
%ADD53C,0.05906*%
%ADD54C,0.03400*%
%ADD55C,0.06299*%
%ADD56R,0.06299X0.06299*%
%ADD57C,0.03937*%
%ADD58C,0.16535*%
%ADD59C,0.02000*%
%ADD60C,0.03200*%
G36*
X278600Y197900D02*
X278600Y100D01*
X9000Y100D01*
X9000Y197900D01*
X278600Y197900D01*
D02*
G37*
%LPC*%
G36*
X67000Y192734D02*
X66215Y192630D01*
X65483Y192327D01*
X64855Y191845D01*
X64373Y191217D01*
X64070Y190485D01*
X63966Y189700D01*
X64070Y188915D01*
X64373Y188183D01*
X64855Y187555D01*
X65483Y187073D01*
X66215Y186770D01*
X67000Y186666D01*
X67785Y186770D01*
X68517Y187073D01*
X69145Y187555D01*
X69627Y188183D01*
X69930Y188915D01*
X70034Y189700D01*
X69930Y190485D01*
X69627Y191217D01*
X69145Y191845D01*
X68517Y192327D01*
X67785Y192630D01*
X67000Y192734D01*
D02*
G37*
G36*
X57000D02*
X56215Y192630D01*
X55483Y192327D01*
X54855Y191845D01*
X54373Y191217D01*
X54070Y190485D01*
X53966Y189700D01*
X54070Y188915D01*
X54373Y188183D01*
X54855Y187555D01*
X55483Y187073D01*
X56215Y186770D01*
X57000Y186666D01*
X57785Y186770D01*
X58517Y187073D01*
X59145Y187555D01*
X59627Y188183D01*
X59930Y188915D01*
X60034Y189700D01*
X59930Y190485D01*
X59627Y191217D01*
X59145Y191845D01*
X58517Y192327D01*
X57785Y192630D01*
X57000Y192734D01*
D02*
G37*
G36*
X264600Y194463D02*
Y185700D01*
X273363D01*
X273234Y187017D01*
X272704Y188764D01*
X271843Y190374D01*
X270685Y191785D01*
X269274Y192943D01*
X267664Y193804D01*
X265917Y194333D01*
X264600Y194463D01*
D02*
G37*
G36*
X23900D02*
Y185700D01*
X32663D01*
X32534Y187017D01*
X32004Y188764D01*
X31143Y190374D01*
X29985Y191785D01*
X28574Y192943D01*
X26964Y193804D01*
X25217Y194333D01*
X23900Y194463D01*
D02*
G37*
G36*
X22900D02*
X21583Y194333D01*
X19836Y193804D01*
X18226Y192943D01*
X16815Y191785D01*
X15657Y190374D01*
X14796Y188764D01*
X14266Y187017D01*
X14137Y185700D01*
X22900D01*
Y194463D01*
D02*
G37*
G36*
X263600D02*
X262283Y194333D01*
X260536Y193804D01*
X258926Y192943D01*
X257515Y191785D01*
X256357Y190374D01*
X255496Y188764D01*
X254966Y187017D01*
X254837Y185700D01*
X263600D01*
Y194463D01*
D02*
G37*
G36*
X47000Y192734D02*
X46215Y192630D01*
X45483Y192327D01*
X44855Y191845D01*
X44373Y191217D01*
X44069Y190485D01*
X43966Y189700D01*
X44069Y188915D01*
X44373Y188183D01*
X44855Y187555D01*
X44961Y187473D01*
Y185745D01*
X45116Y184965D01*
X45558Y184303D01*
X50058Y179803D01*
X50720Y179361D01*
X51500Y179206D01*
X99500D01*
X100280Y179361D01*
X100942Y179803D01*
X101384Y180465D01*
X101539Y181245D01*
X101384Y182026D01*
X100942Y182687D01*
X100280Y183129D01*
X99500Y183284D01*
X52345D01*
X49085Y186544D01*
X49125Y187539D01*
X49145Y187555D01*
X49627Y188183D01*
X49931Y188915D01*
X50034Y189700D01*
X49931Y190485D01*
X49627Y191217D01*
X49145Y191845D01*
X48517Y192327D01*
X47785Y192630D01*
X47000Y192734D01*
D02*
G37*
G36*
X197000Y181784D02*
X196220Y181629D01*
X195558Y181187D01*
X195116Y180526D01*
X194961Y179745D01*
X195058Y179259D01*
X194597Y178469D01*
X194394Y178275D01*
X190311D01*
X189780Y178629D01*
X189000Y178784D01*
X188220Y178629D01*
X187558Y178187D01*
X187116Y177526D01*
X186961Y176745D01*
X187116Y175965D01*
X187558Y175303D01*
X187949Y175042D01*
X188102Y174154D01*
X188058Y173890D01*
X187974Y173826D01*
X187542Y173262D01*
X187269Y172605D01*
X187177Y171900D01*
X187269Y171195D01*
X187542Y170538D01*
X187974Y169974D01*
X188538Y169542D01*
X189195Y169270D01*
X189900Y169177D01*
X190605Y169270D01*
X191262Y169542D01*
X191826Y169974D01*
X192258Y170538D01*
X192531Y171195D01*
X192623Y171900D01*
X192531Y172605D01*
X192258Y173262D01*
X191826Y173826D01*
X191297Y174232D01*
X191287Y174329D01*
X191552Y175216D01*
X196148D01*
X196413Y174329D01*
X196403Y174232D01*
X195874Y173826D01*
X195442Y173262D01*
X195169Y172605D01*
X195077Y171900D01*
X195169Y171195D01*
X195442Y170538D01*
X195874Y169974D01*
X196438Y169542D01*
X197095Y169270D01*
X197800Y169177D01*
X198505Y169270D01*
X199019Y169483D01*
X199665Y169334D01*
X199946Y169218D01*
X200153Y169062D01*
X200419Y168664D01*
X202230Y166852D01*
X202726Y166521D01*
X202889Y166488D01*
X203339Y165533D01*
X203342Y165462D01*
X203069Y164805D01*
X202977Y164100D01*
X203069Y163395D01*
X203342Y162738D01*
X203774Y162174D01*
X204338Y161742D01*
X204995Y161469D01*
X205700Y161377D01*
X206405Y161469D01*
X207062Y161742D01*
X207626Y162174D01*
X208058Y162738D01*
X208330Y163395D01*
X208423Y164100D01*
X208330Y164805D01*
X208978Y165813D01*
X209408Y165875D01*
X242892Y132391D01*
X243016Y131765D01*
X243458Y131103D01*
X244120Y130661D01*
X244900Y130506D01*
X245451Y130616D01*
X246035Y130314D01*
X246398Y129957D01*
X246516Y129365D01*
X246958Y128703D01*
X247620Y128261D01*
X248400Y128106D01*
X249180Y128261D01*
X249842Y128703D01*
X250499Y129254D01*
X251096Y128944D01*
X251220Y128861D01*
X252000Y128706D01*
X252780Y128861D01*
X253442Y129303D01*
X253884Y129965D01*
X254039Y130745D01*
X253884Y131526D01*
X253529Y132056D01*
Y143745D01*
X253413Y144331D01*
X253081Y144827D01*
X251477Y146431D01*
X251539Y146745D01*
X251384Y147526D01*
X250942Y148187D01*
X250280Y148629D01*
X249500Y148784D01*
X248720Y148629D01*
X248058Y148187D01*
X247616Y147526D01*
X247461Y146745D01*
X247616Y145965D01*
X248058Y145303D01*
X248720Y144861D01*
X248721Y144861D01*
X250471Y143112D01*
Y135066D01*
X249486Y134658D01*
X203318Y180827D01*
X202822Y181158D01*
X202236Y181275D01*
X198311D01*
X197780Y181629D01*
X197000Y181784D01*
D02*
G37*
G36*
X273363Y184700D02*
X264600D01*
Y175936D01*
X265917Y176066D01*
X267664Y176596D01*
X269274Y177457D01*
X270685Y178615D01*
X271843Y180026D01*
X272704Y181636D01*
X273234Y183383D01*
X273363Y184700D01*
D02*
G37*
G36*
X32663D02*
X23900D01*
Y175936D01*
X25217Y176066D01*
X26964Y176596D01*
X28574Y177457D01*
X29985Y178615D01*
X31143Y180026D01*
X32004Y181636D01*
X32534Y183383D01*
X32663Y184700D01*
D02*
G37*
G36*
X22900D02*
X14137D01*
X14266Y183383D01*
X14796Y181636D01*
X15657Y180026D01*
X16815Y178615D01*
X18226Y177457D01*
X19836Y176596D01*
X21583Y176066D01*
X22900Y175936D01*
Y184700D01*
D02*
G37*
G36*
X263600D02*
X254837D01*
X254966Y183383D01*
X255496Y181636D01*
X256357Y180026D01*
X257515Y178615D01*
X258926Y177457D01*
X260536Y176596D01*
X262283Y176066D01*
X263600Y175936D01*
Y184700D01*
D02*
G37*
G36*
X68500Y176185D02*
Y174745D01*
X69940D01*
X69884Y175026D01*
X69442Y175687D01*
X68780Y176129D01*
X68500Y176185D01*
D02*
G37*
G36*
X67500D02*
X67220Y176129D01*
X66558Y175687D01*
X66116Y175026D01*
X66060Y174745D01*
X67500D01*
Y176185D01*
D02*
G37*
G36*
X99345Y174784D02*
X73000D01*
X72317Y174648D01*
X71738Y174262D01*
X71738Y174262D01*
X70874Y173397D01*
X70223Y173745D01*
X68500D01*
Y172022D01*
X68848Y171371D01*
X66761Y169284D01*
X55430D01*
X55280Y169384D01*
X54500Y169539D01*
X53720Y169384D01*
X53058Y168942D01*
X52616Y168280D01*
X52461Y167500D01*
X52616Y166720D01*
X53058Y166058D01*
X53720Y165616D01*
X53924Y165575D01*
X54294Y165344D01*
Y164700D01*
X54022Y164444D01*
X53720Y164384D01*
X53058Y163942D01*
X52616Y163280D01*
X52461Y162500D01*
X52616Y161720D01*
X53058Y161058D01*
X53449Y160797D01*
X53495Y160643D01*
Y159857D01*
X53481Y159810D01*
X53409Y159676D01*
X53058Y159442D01*
X52616Y158780D01*
X52461Y158000D01*
X52616Y157220D01*
X53058Y156558D01*
X53720Y156116D01*
X54126Y156035D01*
X54149Y156020D01*
X54832Y155884D01*
X79216D01*
Y112429D01*
X79116Y112280D01*
X78961Y111500D01*
X79116Y110720D01*
X79558Y110058D01*
X80220Y109616D01*
X81000Y109461D01*
X81780Y109616D01*
X82442Y110058D01*
X82884Y110720D01*
X82925Y110924D01*
X83156Y111294D01*
X83800D01*
X84056Y111022D01*
X84116Y110720D01*
X84558Y110058D01*
X85220Y109616D01*
X86000Y109461D01*
X86780Y109616D01*
X87442Y110058D01*
X87884Y110720D01*
X88039Y111500D01*
X87884Y112280D01*
X87784Y112429D01*
Y160261D01*
X89484Y161961D01*
X91242D01*
X91347Y161707D01*
X91981Y160881D01*
X92807Y160247D01*
X93768Y159849D01*
X94800Y159713D01*
X95832Y159849D01*
X96793Y160247D01*
X97619Y160881D01*
X98253Y161707D01*
X98651Y162668D01*
X98787Y163700D01*
X98651Y164732D01*
X98253Y165693D01*
X97619Y166519D01*
X96793Y167153D01*
X95832Y167551D01*
X94800Y167687D01*
X93768Y167551D01*
X93559Y167464D01*
X90792Y170231D01*
X90798Y170361D01*
X91106Y171216D01*
X98606D01*
X104849Y164973D01*
X104749Y164732D01*
X104613Y163700D01*
X104679Y163202D01*
X89738Y148262D01*
X89351Y147683D01*
X89216Y147000D01*
Y112929D01*
X89116Y112780D01*
X88961Y112000D01*
X89116Y111220D01*
X89558Y110558D01*
X90220Y110116D01*
X91000Y109961D01*
X91780Y110116D01*
X92442Y110558D01*
X92884Y111220D01*
X93039Y112000D01*
X92884Y112780D01*
X92784Y112929D01*
Y113739D01*
X93231Y114064D01*
X93769Y114279D01*
X94282Y114066D01*
X95000Y113971D01*
X111000D01*
X111718Y114066D01*
X112387Y114343D01*
X112961Y114784D01*
X113402Y115358D01*
X113679Y116027D01*
X113774Y116745D01*
X113679Y117463D01*
X113402Y118132D01*
X112961Y118707D01*
X112387Y119147D01*
X111718Y119424D01*
X111000Y119519D01*
X95000D01*
X94282Y119424D01*
X93769Y119212D01*
X93231Y119426D01*
X92784Y119752D01*
Y146261D01*
X106723Y160199D01*
X107568Y159849D01*
X108600Y159713D01*
X109632Y159849D01*
X110593Y160247D01*
X111419Y160881D01*
X112053Y161707D01*
X112451Y162668D01*
X112587Y163700D01*
X112451Y164732D01*
X112053Y165693D01*
X111419Y166519D01*
X110593Y167153D01*
X109632Y167551D01*
X108600Y167687D01*
X107568Y167551D01*
X107391Y167478D01*
X100607Y174262D01*
X100028Y174648D01*
X99345Y174784D01*
D02*
G37*
G36*
X67500Y173745D02*
X66060D01*
X66116Y173465D01*
X66558Y172803D01*
X67220Y172361D01*
X67500Y172306D01*
Y173745D01*
D02*
G37*
G36*
X166200Y174623D02*
X165495Y174530D01*
X164838Y174258D01*
X164274Y173826D01*
X163842Y173262D01*
X163569Y172605D01*
X163477Y171900D01*
X163569Y171195D01*
X163842Y170538D01*
X164087Y170218D01*
X164140Y170150D01*
X163458Y169422D01*
X163280Y169540D01*
X162500Y169695D01*
X161720Y169540D01*
X161058Y169098D01*
X160616Y168437D01*
X160461Y167656D01*
X160571Y167101D01*
X159946Y166560D01*
X159768Y166477D01*
X159662Y166558D01*
X159005Y166831D01*
X158300Y166923D01*
X157595Y166831D01*
X156938Y166558D01*
X156374Y166126D01*
X155942Y165562D01*
X155669Y164905D01*
X155577Y164200D01*
X155669Y163495D01*
X155942Y162838D01*
X156374Y162274D01*
X156938Y161842D01*
X157595Y161569D01*
X158300Y161477D01*
X159005Y161569D01*
X159662Y161842D01*
X160018Y162115D01*
X160772Y161938D01*
X161068Y161755D01*
X161087Y161660D01*
X161419Y161164D01*
X171971Y150612D01*
Y129056D01*
X171945Y129018D01*
X170748Y128823D01*
X165929Y133642D01*
Y146297D01*
X166914Y146823D01*
X167074Y146716D01*
X167354Y146660D01*
Y148600D01*
Y150539D01*
X167074Y150484D01*
X166914Y150376D01*
X165929Y150902D01*
Y152345D01*
X165813Y152930D01*
X165481Y153427D01*
X162009Y156900D01*
X161884Y157526D01*
X161442Y158187D01*
X160780Y158629D01*
X160000Y158784D01*
X159220Y158629D01*
X158558Y158187D01*
X158116Y157526D01*
X157961Y156745D01*
X158116Y155965D01*
X158558Y155303D01*
X159220Y154861D01*
X159846Y154737D01*
X162871Y151712D01*
Y147324D01*
X161961Y146947D01*
X159009Y149900D01*
X158884Y150526D01*
X158442Y151187D01*
X157780Y151629D01*
X157000Y151784D01*
X156220Y151629D01*
X155558Y151187D01*
X155116Y150526D01*
X154961Y149745D01*
X155116Y148965D01*
X155558Y148303D01*
X156220Y147861D01*
X156846Y147737D01*
X160471Y144112D01*
Y126556D01*
X160116Y126026D01*
X159961Y125245D01*
X160116Y124465D01*
X160558Y123803D01*
X161220Y123361D01*
X162000Y123206D01*
X162780Y123361D01*
X163442Y123803D01*
X163884Y124465D01*
X164039Y125245D01*
X163884Y126026D01*
X163529Y126556D01*
Y130430D01*
X164439Y130807D01*
X171081Y124164D01*
X171578Y123832D01*
X172163Y123716D01*
X187689D01*
X188220Y123361D01*
X189000Y123206D01*
X189780Y123361D01*
X190442Y123803D01*
X190884Y124465D01*
X191039Y125245D01*
X190884Y126026D01*
X190442Y126687D01*
X189780Y127129D01*
X189000Y127284D01*
X188220Y127129D01*
X187689Y126775D01*
X176350D01*
X175539Y127745D01*
X175384Y128526D01*
X175029Y129056D01*
Y146071D01*
X176014Y146370D01*
X176058Y146303D01*
X176720Y145861D01*
X177346Y145737D01*
X185492Y137591D01*
X185616Y136965D01*
X186058Y136303D01*
X186720Y135861D01*
X187500Y135706D01*
X188280Y135861D01*
X188942Y136303D01*
X189384Y136965D01*
X189539Y137745D01*
X189384Y138526D01*
X188942Y139187D01*
X188849Y139249D01*
X188934Y139785D01*
X189145Y140235D01*
X189780Y140361D01*
X190442Y140803D01*
X190884Y141465D01*
X191039Y142245D01*
X190884Y143026D01*
X190442Y143687D01*
X189780Y144129D01*
X189154Y144254D01*
X184581Y148827D01*
X184085Y149158D01*
X183942Y149187D01*
X183942Y149187D01*
X183280Y149629D01*
X182500Y149784D01*
X181720Y149629D01*
X181058Y149187D01*
X180616Y148526D01*
X179601Y148398D01*
X179384Y148526D01*
X178942Y149187D01*
X178280Y149629D01*
X177500Y149784D01*
X176720Y149629D01*
X176058Y149187D01*
X176014Y149121D01*
X175029Y149419D01*
Y151245D01*
X174913Y151830D01*
X174581Y152327D01*
X172942Y153966D01*
X173175Y155125D01*
X173311Y155216D01*
X183326D01*
X183625Y154232D01*
X183558Y154187D01*
X183116Y153526D01*
X182961Y152745D01*
X183116Y151965D01*
X183558Y151303D01*
X184220Y150861D01*
X184846Y150737D01*
X200971Y134612D01*
Y127056D01*
X200616Y126526D01*
X200461Y125745D01*
X200616Y124965D01*
X201058Y124303D01*
X201720Y123861D01*
X202500Y123706D01*
X203280Y123861D01*
X203942Y124303D01*
X204120Y124570D01*
X205279Y124803D01*
X207471Y122612D01*
Y121556D01*
X207116Y121026D01*
X206961Y120245D01*
X207116Y119465D01*
X207558Y118803D01*
X208220Y118361D01*
X208685Y118269D01*
X208588Y117284D01*
X208222Y117284D01*
X189614D01*
X189480Y118261D01*
X190142Y118703D01*
X190584Y119365D01*
X190739Y120145D01*
X190584Y120926D01*
X190142Y121587D01*
X189480Y122029D01*
X188700Y122184D01*
X187920Y122029D01*
X187389Y121675D01*
X176950D01*
X176942Y121687D01*
X176280Y122129D01*
X175500Y122284D01*
X174720Y122129D01*
X174058Y121687D01*
X173616Y121026D01*
X173461Y120245D01*
X173616Y119465D01*
X174058Y118803D01*
X174720Y118361D01*
X175294Y118247D01*
Y117244D01*
X174720Y117129D01*
X174058Y116687D01*
X173616Y116026D01*
X173461Y115245D01*
X173616Y114465D01*
X174058Y113803D01*
X174720Y113361D01*
X175169Y113272D01*
Y112268D01*
X174720Y112179D01*
X174058Y111737D01*
X173616Y111076D01*
X173461Y110295D01*
X173616Y109515D01*
X174058Y108853D01*
X174720Y108411D01*
X175500Y108256D01*
X175470Y107284D01*
X175300D01*
X174520Y107129D01*
X173858Y106687D01*
X173416Y106026D01*
X173261Y105245D01*
X173416Y104465D01*
X173858Y103803D01*
X174520Y103361D01*
X175300Y103206D01*
X192241D01*
X192539Y102222D01*
X192530Y102216D01*
X192088Y101554D01*
X192032Y101274D01*
X195911D01*
X195856Y101554D01*
X195414Y102216D01*
X195404Y102222D01*
X195703Y103206D01*
X209000D01*
X209780Y103361D01*
X210442Y103803D01*
X210884Y104465D01*
X211039Y105245D01*
X210884Y106026D01*
X210442Y106687D01*
X209780Y107129D01*
X209206Y107244D01*
Y108247D01*
X209780Y108361D01*
X210442Y108803D01*
X210884Y109465D01*
X211039Y110245D01*
X210884Y111026D01*
X210442Y111687D01*
X210392Y111737D01*
X209730Y112179D01*
X209307Y112264D01*
Y113267D01*
X209780Y113361D01*
X210442Y113803D01*
X210884Y114465D01*
X211039Y115245D01*
X210884Y116026D01*
X210442Y116687D01*
X209780Y117129D01*
X209206Y117244D01*
Y118247D01*
X209780Y118361D01*
X210442Y118803D01*
X210884Y119465D01*
X211039Y120245D01*
X210884Y121026D01*
X210529Y121556D01*
Y123245D01*
X210413Y123830D01*
X210081Y124327D01*
X206481Y127927D01*
X206983Y128790D01*
X207014Y128803D01*
X207500Y128706D01*
X208280Y128861D01*
X208942Y129303D01*
X209384Y129965D01*
X209539Y130745D01*
X209384Y131526D01*
X209029Y132056D01*
Y137396D01*
X210000Y138206D01*
X210780Y138361D01*
X211442Y138803D01*
X211884Y139465D01*
X212039Y140245D01*
X211884Y141026D01*
X211529Y141556D01*
Y148745D01*
X211413Y149330D01*
X211081Y149827D01*
X203081Y157827D01*
X202585Y158158D01*
X202000Y158275D01*
X173311D01*
X172780Y158629D01*
X172000Y158784D01*
X171220Y158629D01*
X170558Y158187D01*
X170380Y157920D01*
X169221Y157687D01*
X166487Y160422D01*
X166839Y161461D01*
X166905Y161469D01*
X167562Y161742D01*
X168126Y162174D01*
X168558Y162738D01*
X168831Y163395D01*
X168923Y164100D01*
X168831Y164805D01*
X168558Y165462D01*
X168126Y166026D01*
X167562Y166458D01*
X166905Y166730D01*
X166200Y166823D01*
X165495Y166730D01*
X165337Y166665D01*
X164484Y167377D01*
X164539Y167656D01*
X164384Y168437D01*
X164176Y168748D01*
X164092Y168874D01*
X164820Y169556D01*
X164838Y169542D01*
X165495Y169270D01*
X166200Y169177D01*
X166905Y169270D01*
X167562Y169542D01*
X168126Y169974D01*
X168558Y170538D01*
X168831Y171195D01*
X168923Y171900D01*
X168831Y172605D01*
X168558Y173262D01*
X168126Y173826D01*
X167562Y174258D01*
X166905Y174530D01*
X166200Y174623D01*
D02*
G37*
G36*
X158300Y174723D02*
X157595Y174630D01*
X156938Y174358D01*
X156374Y173926D01*
X155942Y173362D01*
X155669Y172705D01*
X155577Y172000D01*
X155669Y171295D01*
X155942Y170638D01*
X156374Y170074D01*
X156938Y169642D01*
X157595Y169369D01*
X158300Y169277D01*
X159005Y169369D01*
X159662Y169642D01*
X160226Y170074D01*
X160658Y170638D01*
X160931Y171295D01*
X161023Y172000D01*
X160931Y172705D01*
X160658Y173362D01*
X160226Y173926D01*
X159662Y174358D01*
X159005Y174630D01*
X158300Y174723D01*
D02*
G37*
G36*
X150400D02*
X149695Y174630D01*
X149038Y174358D01*
X148474Y173926D01*
X148042Y173362D01*
X147769Y172705D01*
X147677Y172000D01*
X147769Y171295D01*
X148042Y170638D01*
X148474Y170074D01*
X149038Y169642D01*
X149695Y169369D01*
X150400Y169277D01*
X151105Y169369D01*
X151762Y169642D01*
X152326Y170074D01*
X152758Y170638D01*
X153031Y171295D01*
X153123Y172000D01*
X153031Y172705D01*
X152758Y173362D01*
X152326Y173926D01*
X151762Y174358D01*
X151105Y174630D01*
X150400Y174723D01*
D02*
G37*
G36*
X182000Y174623D02*
X181295Y174530D01*
X180638Y174258D01*
X180074Y173826D01*
X179642Y173262D01*
X179369Y172605D01*
X179277Y171900D01*
X179369Y171195D01*
X179642Y170538D01*
X180074Y169974D01*
X180638Y169542D01*
X181295Y169270D01*
X182000Y169177D01*
X182705Y169270D01*
X183362Y169542D01*
X183926Y169974D01*
X184358Y170538D01*
X184631Y171195D01*
X184723Y171900D01*
X184631Y172605D01*
X184358Y173262D01*
X183926Y173826D01*
X183362Y174258D01*
X182705Y174530D01*
X182000Y174623D01*
D02*
G37*
G36*
X174100D02*
X173395Y174530D01*
X172738Y174258D01*
X172174Y173826D01*
X171742Y173262D01*
X171469Y172605D01*
X171377Y171900D01*
X171469Y171195D01*
X171742Y170538D01*
X172174Y169974D01*
X172738Y169542D01*
X173395Y169270D01*
X174100Y169177D01*
X174805Y169270D01*
X175462Y169542D01*
X176026Y169974D01*
X176458Y170538D01*
X176731Y171195D01*
X176823Y171900D01*
X176731Y172605D01*
X176458Y173262D01*
X176026Y173826D01*
X175462Y174258D01*
X174805Y174530D01*
X174100Y174623D01*
D02*
G37*
G36*
X142500D02*
X141795Y174530D01*
X141138Y174258D01*
X140574Y173826D01*
X140142Y173262D01*
X139869Y172605D01*
X139777Y171900D01*
X139869Y171195D01*
X140142Y170538D01*
X140574Y169974D01*
X141138Y169542D01*
X141795Y169270D01*
X142500Y169177D01*
X143205Y169270D01*
X143862Y169542D01*
X144426Y169974D01*
X144858Y170538D01*
X145131Y171195D01*
X145223Y171900D01*
X145131Y172605D01*
X144858Y173262D01*
X144426Y173826D01*
X143862Y174258D01*
X143205Y174530D01*
X142500Y174623D01*
D02*
G37*
G36*
X134600D02*
X133895Y174530D01*
X133238Y174258D01*
X132674Y173826D01*
X132242Y173262D01*
X131969Y172605D01*
X131877Y171900D01*
X131969Y171195D01*
X132242Y170538D01*
X132674Y169974D01*
X133238Y169542D01*
X133895Y169270D01*
X134600Y169177D01*
X135305Y169270D01*
X135962Y169542D01*
X136526Y169974D01*
X136958Y170538D01*
X137231Y171195D01*
X137323Y171900D01*
X137231Y172605D01*
X136958Y173262D01*
X136526Y173826D01*
X135962Y174258D01*
X135305Y174530D01*
X134600Y174623D01*
D02*
G37*
G36*
X126900D02*
X126195Y174530D01*
X125538Y174258D01*
X124974Y173826D01*
X124542Y173262D01*
X124269Y172605D01*
X124177Y171900D01*
X124269Y171195D01*
X124542Y170538D01*
X124974Y169974D01*
X125538Y169542D01*
X126195Y169270D01*
X126900Y169177D01*
X127605Y169270D01*
X128262Y169542D01*
X128826Y169974D01*
X129258Y170538D01*
X129531Y171195D01*
X129623Y171900D01*
X129531Y172605D01*
X129258Y173262D01*
X128826Y173826D01*
X128262Y174258D01*
X127605Y174530D01*
X126900Y174623D01*
D02*
G37*
G36*
X146500Y168784D02*
X145720Y168629D01*
X145058Y168187D01*
X144616Y167526D01*
X144546Y167174D01*
X144384Y167005D01*
X143657Y166628D01*
X143506Y166606D01*
X143205Y166730D01*
X142500Y166823D01*
X141795Y166730D01*
X141138Y166458D01*
X140958Y166320D01*
X140393Y166582D01*
X140020Y166841D01*
X139884Y167526D01*
X139442Y168187D01*
X138780Y168629D01*
X138000Y168784D01*
X137220Y168629D01*
X136558Y168187D01*
X136116Y167526D01*
X136104Y167465D01*
X135336Y166759D01*
X135038Y166766D01*
X134600Y166823D01*
X133895Y166730D01*
X133238Y166458D01*
X132674Y166026D01*
X132242Y165462D01*
X131969Y164805D01*
X131877Y164100D01*
X131969Y163395D01*
X132242Y162738D01*
X132674Y162174D01*
X133238Y161742D01*
X133895Y161469D01*
X134600Y161377D01*
X135305Y161469D01*
X135962Y161742D01*
X136526Y162174D01*
X137691Y162077D01*
X139927Y159840D01*
X139961Y154024D01*
X138979Y153496D01*
X138780Y153629D01*
X138000Y153784D01*
X137220Y153629D01*
X136558Y153187D01*
X136116Y152526D01*
X135961Y151745D01*
X136116Y150965D01*
X136558Y150303D01*
X136971Y150028D01*
Y141556D01*
X136616Y141026D01*
X136461Y140245D01*
X136616Y139465D01*
X137058Y138803D01*
X137720Y138361D01*
X138500Y138206D01*
X139065Y138319D01*
X139775Y137934D01*
X140053Y137694D01*
X140095Y130269D01*
X139745Y129994D01*
X139114Y129662D01*
X138500Y129784D01*
X137720Y129629D01*
X137189Y129275D01*
X134634D01*
X128384Y135524D01*
Y151080D01*
X128738Y151611D01*
X128893Y152391D01*
X128738Y153171D01*
X128296Y153833D01*
X127635Y154275D01*
X126854Y154430D01*
X126074Y154275D01*
X125412Y153833D01*
X124970Y153171D01*
X124815Y152391D01*
X124970Y151611D01*
X125325Y151080D01*
Y134891D01*
X125441Y134306D01*
X125773Y133810D01*
X132919Y126664D01*
X133415Y126332D01*
X134000Y126216D01*
X137189D01*
X137720Y125861D01*
X138500Y125706D01*
X139280Y125861D01*
X139519Y126021D01*
X140411Y126021D01*
X140787Y125796D01*
X146492Y120091D01*
X146616Y119465D01*
X147058Y118803D01*
X147720Y118361D01*
X148500Y118206D01*
X149280Y118361D01*
X149942Y118803D01*
X150384Y119465D01*
X150539Y120245D01*
X150384Y121026D01*
X149942Y121687D01*
X149280Y122129D01*
X148654Y122254D01*
X143168Y127740D01*
X143160Y129168D01*
X144071Y129439D01*
X144143Y129425D01*
X144558Y128803D01*
X145220Y128361D01*
X146000Y128206D01*
X146780Y128361D01*
X147442Y128803D01*
X147884Y129465D01*
X148039Y130245D01*
X147884Y131026D01*
X147442Y131687D01*
X146780Y132129D01*
X146154Y132254D01*
X145439Y132969D01*
X145534Y134069D01*
X146087Y134411D01*
X146159Y134401D01*
X146558Y133803D01*
X147220Y133361D01*
X148000Y133206D01*
X148780Y133361D01*
X149442Y133803D01*
X149884Y134465D01*
X150039Y135245D01*
X149884Y136026D01*
X149529Y136556D01*
Y150556D01*
X149413Y151142D01*
X149081Y151638D01*
X148319Y152400D01*
X148195Y153026D01*
X147753Y153687D01*
X147165Y154080D01*
X147077Y154195D01*
X146870Y155177D01*
X147581Y155888D01*
X147913Y156385D01*
X148029Y156970D01*
Y161375D01*
X149014Y161861D01*
X149038Y161842D01*
X149695Y161569D01*
X150400Y161477D01*
X151105Y161569D01*
X151762Y161842D01*
X152326Y162274D01*
X152758Y162838D01*
X153031Y163495D01*
X153123Y164200D01*
X153031Y164905D01*
X152758Y165562D01*
X152326Y166126D01*
X151762Y166558D01*
X151105Y166831D01*
X150400Y166923D01*
X149695Y166831D01*
X149468Y166736D01*
X149461Y166736D01*
X148521Y167205D01*
X148423Y167327D01*
X148384Y167526D01*
X147942Y168187D01*
X147280Y168629D01*
X146500Y168784D01*
D02*
G37*
G36*
X254600Y169027D02*
Y166400D01*
X257227D01*
X257184Y166726D01*
X256865Y167496D01*
X256358Y168157D01*
X255696Y168665D01*
X254926Y168984D01*
X254600Y169027D01*
D02*
G37*
G36*
X253600D02*
X253274Y168984D01*
X252504Y168665D01*
X251842Y168157D01*
X251335Y167496D01*
X251016Y166726D01*
X250973Y166400D01*
X253600D01*
Y169027D01*
D02*
G37*
G36*
X257227Y165400D02*
X254600D01*
Y162773D01*
X254926Y162816D01*
X255696Y163135D01*
X256358Y163643D01*
X256865Y164304D01*
X257184Y165074D01*
X257227Y165400D01*
D02*
G37*
G36*
X253600D02*
X250973D01*
X251016Y165074D01*
X251335Y164304D01*
X251842Y163643D01*
X252504Y163135D01*
X253274Y162816D01*
X253600Y162773D01*
Y165400D01*
D02*
G37*
G36*
X264100Y169093D02*
X263274Y168984D01*
X262504Y168665D01*
X261842Y168157D01*
X261335Y167496D01*
X261016Y166726D01*
X260907Y165900D01*
X261016Y165074D01*
X261335Y164304D01*
X261842Y163643D01*
X262504Y163135D01*
X263274Y162816D01*
X264100Y162707D01*
X264926Y162816D01*
X265696Y163135D01*
X266357Y163643D01*
X266865Y164304D01*
X267184Y165074D01*
X267293Y165900D01*
X267184Y166726D01*
X266865Y167496D01*
X266357Y168157D01*
X265696Y168665D01*
X264926Y168984D01*
X264100Y169093D01*
D02*
G37*
G36*
X197800Y166823D02*
X197095Y166730D01*
X196438Y166458D01*
X195874Y166026D01*
X195442Y165462D01*
X195169Y164805D01*
X195077Y164100D01*
X195169Y163395D01*
X195442Y162738D01*
X195874Y162174D01*
X196438Y161742D01*
X197095Y161469D01*
X197800Y161377D01*
X198505Y161469D01*
X199162Y161742D01*
X199726Y162174D01*
X200158Y162738D01*
X200430Y163395D01*
X200523Y164100D01*
X200430Y164805D01*
X200158Y165462D01*
X199726Y166026D01*
X199162Y166458D01*
X198505Y166730D01*
X197800Y166823D01*
D02*
G37*
G36*
X189900D02*
X189195Y166730D01*
X188538Y166458D01*
X187974Y166026D01*
X187542Y165462D01*
X187269Y164805D01*
X187177Y164100D01*
X187269Y163395D01*
X187542Y162738D01*
X187974Y162174D01*
X188538Y161742D01*
X189195Y161469D01*
X189900Y161377D01*
X190605Y161469D01*
X191262Y161742D01*
X191826Y162174D01*
X192258Y162738D01*
X192531Y163395D01*
X192623Y164100D01*
X192531Y164805D01*
X192258Y165462D01*
X191826Y166026D01*
X191262Y166458D01*
X190605Y166730D01*
X189900Y166823D01*
D02*
G37*
G36*
X182000D02*
X181295Y166730D01*
X180638Y166458D01*
X180074Y166026D01*
X179642Y165462D01*
X179369Y164805D01*
X179277Y164100D01*
X179369Y163395D01*
X179642Y162738D01*
X180074Y162174D01*
X180638Y161742D01*
X181295Y161469D01*
X182000Y161377D01*
X182705Y161469D01*
X183362Y161742D01*
X183926Y162174D01*
X184358Y162738D01*
X184631Y163395D01*
X184723Y164100D01*
X184631Y164805D01*
X184358Y165462D01*
X183926Y166026D01*
X183362Y166458D01*
X182705Y166730D01*
X182000Y166823D01*
D02*
G37*
G36*
X174100D02*
X173395Y166730D01*
X172738Y166458D01*
X172174Y166026D01*
X171742Y165462D01*
X171469Y164805D01*
X171377Y164100D01*
X171469Y163395D01*
X171742Y162738D01*
X172174Y162174D01*
X172738Y161742D01*
X173395Y161469D01*
X174100Y161377D01*
X174805Y161469D01*
X175462Y161742D01*
X176026Y162174D01*
X176458Y162738D01*
X176731Y163395D01*
X176823Y164100D01*
X176731Y164805D01*
X176458Y165462D01*
X176026Y166026D01*
X175462Y166458D01*
X174805Y166730D01*
X174100Y166823D01*
D02*
G37*
G36*
X126900D02*
X126195Y166730D01*
X125538Y166458D01*
X124974Y166026D01*
X124542Y165462D01*
X124269Y164805D01*
X124177Y164100D01*
X124269Y163395D01*
X124542Y162738D01*
X124974Y162174D01*
X125538Y161742D01*
X126195Y161469D01*
X126900Y161377D01*
X127605Y161469D01*
X128262Y161742D01*
X128826Y162174D01*
X129258Y162738D01*
X129531Y163395D01*
X129623Y164100D01*
X129531Y164805D01*
X129258Y165462D01*
X128826Y166026D01*
X128262Y166458D01*
X127605Y166730D01*
X126900Y166823D01*
D02*
G37*
G36*
X250500Y153685D02*
Y152245D01*
X251940D01*
X251884Y152526D01*
X251442Y153187D01*
X250780Y153629D01*
X250500Y153685D01*
D02*
G37*
G36*
X249500D02*
X249220Y153629D01*
X248558Y153187D01*
X248116Y152526D01*
X248060Y152245D01*
X249500D01*
Y153685D01*
D02*
G37*
G36*
X251940Y151245D02*
X250500D01*
Y149805D01*
X250780Y149861D01*
X251442Y150303D01*
X251884Y150965D01*
X251940Y151245D01*
D02*
G37*
G36*
X249500D02*
X248060D01*
X248116Y150965D01*
X248558Y150303D01*
X249220Y149861D01*
X249500Y149805D01*
Y151245D01*
D02*
G37*
G36*
X168354Y150539D02*
Y149100D01*
X169794D01*
X169738Y149380D01*
X169296Y150041D01*
X168635Y150484D01*
X168354Y150539D01*
D02*
G37*
G36*
X169794Y148100D02*
X168354D01*
Y146660D01*
X168635Y146716D01*
X169296Y147158D01*
X169738Y147819D01*
X169794Y148100D01*
D02*
G37*
G36*
X31200Y145885D02*
Y144445D01*
X32640D01*
X32584Y144726D01*
X32142Y145387D01*
X31480Y145829D01*
X31200Y145885D01*
D02*
G37*
G36*
X30200D02*
X29920Y145829D01*
X29258Y145387D01*
X28816Y144726D01*
X28760Y144445D01*
X30200D01*
Y145885D01*
D02*
G37*
G36*
X32640Y143445D02*
X31200D01*
Y142006D01*
X31480Y142061D01*
X32142Y142503D01*
X32584Y143165D01*
X32640Y143445D01*
D02*
G37*
G36*
X30200D02*
X28760D01*
X28816Y143165D01*
X29258Y142503D01*
X29920Y142061D01*
X30200Y142006D01*
Y143445D01*
D02*
G37*
G36*
X111000Y148784D02*
X110220Y148629D01*
X109558Y148187D01*
X109116Y147526D01*
X108961Y146745D01*
X109116Y145965D01*
X109216Y145816D01*
Y138445D01*
X108231Y138037D01*
X104784Y141484D01*
Y145316D01*
X104884Y145465D01*
X105039Y146245D01*
X104884Y147026D01*
X104442Y147687D01*
X103780Y148129D01*
X103000Y148284D01*
X102220Y148129D01*
X101558Y147687D01*
X101297Y147296D01*
X101143Y147251D01*
X100357D01*
X100203Y147296D01*
X99942Y147687D01*
X99280Y148129D01*
X98500Y148284D01*
X97720Y148129D01*
X97058Y147687D01*
X96616Y147026D01*
X96461Y146245D01*
X96616Y145465D01*
X96716Y145316D01*
Y139745D01*
X96851Y139062D01*
X97238Y138484D01*
X121738Y113984D01*
X121738Y113984D01*
X122317Y113597D01*
X123000Y113461D01*
X145071D01*
X145220Y113361D01*
X146000Y113206D01*
X146780Y113361D01*
X147442Y113803D01*
X147884Y114465D01*
X148039Y115245D01*
X147884Y116026D01*
X147442Y116687D01*
X146780Y117129D01*
X146000Y117284D01*
X145220Y117129D01*
X145071Y117030D01*
X144187D01*
X143493Y118014D01*
X143539Y118245D01*
X143384Y119026D01*
X142942Y119687D01*
X142280Y120129D01*
X141500Y120284D01*
X140720Y120129D01*
X140570Y120029D01*
X128760D01*
X128509Y121014D01*
X128942Y121303D01*
X129384Y121965D01*
X129539Y122745D01*
X129384Y123526D01*
X128942Y124187D01*
X128280Y124629D01*
X127500Y124784D01*
X126720Y124629D01*
X126570Y124530D01*
X126239D01*
X112784Y137984D01*
Y145816D01*
X112884Y145965D01*
X113039Y146745D01*
X112884Y147526D01*
X112442Y148187D01*
X111780Y148629D01*
X111000Y148784D01*
D02*
G37*
G36*
X228000Y137685D02*
Y136245D01*
X229440D01*
X229384Y136526D01*
X228942Y137187D01*
X228280Y137629D01*
X228000Y137685D01*
D02*
G37*
G36*
X227000D02*
X226720Y137629D01*
X226058Y137187D01*
X225616Y136526D01*
X225560Y136245D01*
X227000D01*
Y137685D01*
D02*
G37*
G36*
X229440Y135245D02*
X228000D01*
Y133806D01*
X228280Y133861D01*
X228942Y134303D01*
X229384Y134965D01*
X229440Y135245D01*
D02*
G37*
G36*
X227000D02*
X225560D01*
X225616Y134965D01*
X226058Y134303D01*
X226720Y133861D01*
X227000Y133806D01*
Y135245D01*
D02*
G37*
G36*
X57000Y154784D02*
X56220Y154629D01*
X55558Y154187D01*
X55116Y153526D01*
X54961Y152745D01*
X55116Y151965D01*
X55471Y151434D01*
Y137879D01*
X47616Y130025D01*
X46937D01*
X46780Y130129D01*
X46000Y130284D01*
X45220Y130129D01*
X44558Y129687D01*
X44514Y129621D01*
X43529Y129919D01*
Y146745D01*
X43413Y147330D01*
X43081Y147827D01*
X40529Y150379D01*
Y151434D01*
X40884Y151965D01*
X41039Y152745D01*
X40884Y153526D01*
X40442Y154187D01*
X39780Y154629D01*
X39000Y154784D01*
X38220Y154629D01*
X37558Y154187D01*
X37116Y153526D01*
X36961Y152745D01*
X37116Y151965D01*
X37471Y151434D01*
Y149745D01*
X37587Y149160D01*
X37919Y148664D01*
X40471Y146112D01*
Y130852D01*
X40276Y130648D01*
X39486Y130188D01*
X39000Y130284D01*
X38220Y130129D01*
X37689Y129775D01*
X34500D01*
X33915Y129658D01*
X33419Y129327D01*
X28846Y124754D01*
X28220Y124629D01*
X27558Y124187D01*
X27116Y123526D01*
X26961Y122745D01*
X27116Y121965D01*
X27558Y121303D01*
X28220Y120861D01*
X28855Y120735D01*
X29066Y120285D01*
X29151Y119749D01*
X29058Y119687D01*
X28616Y119026D01*
X28461Y118245D01*
X28616Y117465D01*
X29058Y116803D01*
X29162Y116734D01*
X29140Y115715D01*
X29074Y115609D01*
X28574Y115226D01*
X28142Y114662D01*
X27869Y114005D01*
X27777Y113300D01*
X27869Y112595D01*
X28142Y111938D01*
X28574Y111374D01*
X29138Y110942D01*
X29795Y110670D01*
X30500Y110577D01*
X31205Y110670D01*
X31862Y110942D01*
X31986Y111037D01*
X32971Y110552D01*
Y108148D01*
X31986Y107663D01*
X31862Y107758D01*
X31205Y108030D01*
X30500Y108123D01*
X29795Y108030D01*
X29138Y107758D01*
X28574Y107326D01*
X28142Y106762D01*
X27869Y106105D01*
X27777Y105400D01*
X27869Y104695D01*
X28142Y104038D01*
X28574Y103474D01*
X29138Y103042D01*
X29795Y102769D01*
X30500Y102677D01*
X31205Y102769D01*
X31862Y103042D01*
X32206Y103306D01*
X33058Y103803D01*
X33720Y103361D01*
X34500Y103206D01*
X35280Y103361D01*
X35942Y103803D01*
X36706Y103220D01*
X36811Y103139D01*
X36912Y102580D01*
X36879Y102001D01*
X36858Y101987D01*
X36416Y101326D01*
X36261Y100545D01*
X36416Y99765D01*
X36552Y99562D01*
X36374Y99426D01*
X35942Y98862D01*
X35669Y98205D01*
X35577Y97500D01*
X35669Y96795D01*
X35942Y96138D01*
X36374Y95574D01*
X36938Y95142D01*
X37595Y94870D01*
X38300Y94777D01*
X39005Y94870D01*
X39662Y95142D01*
X40226Y95574D01*
X40658Y96138D01*
X40931Y96795D01*
X41023Y97500D01*
X40931Y98205D01*
X40658Y98862D01*
X40226Y99426D01*
X40183Y99459D01*
X40342Y100425D01*
X57134Y117216D01*
X60228D01*
X60754Y116232D01*
X60616Y116026D01*
X60461Y115245D01*
X60616Y114465D01*
X60971Y113934D01*
Y112379D01*
X52153Y103561D01*
X52150Y103562D01*
X51781Y104144D01*
X51695Y104610D01*
X52030Y105111D01*
X52085Y105391D01*
X48206D01*
X48262Y105111D01*
X48704Y104449D01*
X49365Y104007D01*
X50013Y103878D01*
X50130Y103855D01*
X50146Y103852D01*
X50196Y103839D01*
X50585Y102722D01*
X50558Y102687D01*
X50507Y102611D01*
X50116Y102026D01*
X49961Y101245D01*
X50116Y100465D01*
X50558Y99803D01*
X51220Y99361D01*
X52000Y99206D01*
X52780Y99361D01*
X53442Y99803D01*
X53884Y100465D01*
X54009Y101091D01*
X63581Y110664D01*
X63913Y111160D01*
X64029Y111745D01*
Y113934D01*
X64384Y114465D01*
X64539Y115245D01*
X64384Y116026D01*
X64204Y116295D01*
X64022Y116995D01*
X64204Y117696D01*
X64384Y117965D01*
X64539Y118745D01*
X64384Y119526D01*
X63942Y120187D01*
X63280Y120629D01*
X62500Y120784D01*
X61720Y120629D01*
X61189Y120275D01*
X58107D01*
X57730Y121184D01*
X60081Y123535D01*
X60413Y124032D01*
X60529Y124617D01*
Y130934D01*
X60884Y131465D01*
X61039Y132245D01*
X60884Y133026D01*
X60442Y133687D01*
X60175Y133865D01*
X59942Y135024D01*
X61081Y136164D01*
X61413Y136660D01*
X61529Y137245D01*
Y145434D01*
X61884Y145965D01*
X62039Y146745D01*
X61884Y147526D01*
X61442Y148187D01*
X60780Y148629D01*
X60000Y148784D01*
X59514Y148688D01*
X58724Y149148D01*
X58529Y149352D01*
Y151434D01*
X58884Y151965D01*
X59039Y152745D01*
X58884Y153526D01*
X58442Y154187D01*
X57780Y154629D01*
X57000Y154784D01*
D02*
G37*
G36*
X241800Y129984D02*
X227800D01*
X227020Y129829D01*
X226358Y129387D01*
X225916Y128726D01*
X225761Y127945D01*
X225916Y127165D01*
X226358Y126503D01*
X227020Y126061D01*
X227800Y125906D01*
X240955D01*
X243658Y123203D01*
X243658Y123203D01*
X244320Y122761D01*
X245100Y122606D01*
X268000D01*
X268780Y122761D01*
X269442Y123203D01*
X269884Y123865D01*
X270039Y124645D01*
X269884Y125426D01*
X269442Y126087D01*
X268780Y126529D01*
X268000Y126684D01*
X245945D01*
X243242Y129387D01*
X242580Y129829D01*
X241800Y129984D01*
D02*
G37*
G36*
X50646Y107831D02*
Y106391D01*
X52085D01*
X52030Y106671D01*
X51588Y107333D01*
X50926Y107775D01*
X50646Y107831D01*
D02*
G37*
G36*
X49646D02*
X49365Y107775D01*
X48704Y107333D01*
X48262Y106671D01*
X48206Y106391D01*
X49646D01*
Y107831D01*
D02*
G37*
G36*
X140940Y104745D02*
X139500D01*
Y103305D01*
X139780Y103361D01*
X140442Y103803D01*
X140884Y104465D01*
X140940Y104745D01*
D02*
G37*
G36*
X138500D02*
X137060D01*
X137116Y104465D01*
X137558Y103803D01*
X138220Y103361D01*
X138500Y103305D01*
Y104745D01*
D02*
G37*
G36*
X128000Y111284D02*
X127220Y111129D01*
X126558Y110687D01*
X126116Y110026D01*
X125961Y109245D01*
X126116Y108465D01*
X126558Y107803D01*
X127220Y107361D01*
X128000Y107206D01*
X128780Y107361D01*
X128929Y107461D01*
X136981D01*
X137163Y107217D01*
X137417Y106477D01*
X137116Y106026D01*
X137060Y105745D01*
X140940D01*
X140884Y106026D01*
X140583Y106477D01*
X140837Y107217D01*
X141018Y107461D01*
X144261D01*
X146463Y105259D01*
X146461Y105245D01*
X146616Y104465D01*
X147058Y103803D01*
X147720Y103361D01*
X148500Y103206D01*
X149280Y103361D01*
X149942Y103803D01*
X150384Y104465D01*
X150539Y105245D01*
X150384Y106026D01*
X150163Y106357D01*
X150148Y106428D01*
X149762Y107007D01*
X149762Y107007D01*
X146262Y110507D01*
X145683Y110894D01*
X145000Y111030D01*
X128929D01*
X128780Y111129D01*
X128000Y111284D01*
D02*
G37*
G36*
X131000Y103284D02*
X130220Y103129D01*
X130070Y103030D01*
X113429D01*
X113280Y103129D01*
X112500Y103284D01*
X111720Y103129D01*
X111058Y102687D01*
X110616Y102026D01*
X110461Y101245D01*
X110616Y100465D01*
X111058Y99803D01*
X111720Y99361D01*
X112500Y99206D01*
X113280Y99361D01*
X113429Y99461D01*
X130070D01*
X130220Y99361D01*
X131000Y99206D01*
X131780Y99361D01*
X132442Y99803D01*
X132884Y100465D01*
X133039Y101245D01*
X132884Y102026D01*
X132442Y102687D01*
X131780Y103129D01*
X131000Y103284D01*
D02*
G37*
G36*
X255000Y117284D02*
X224000D01*
X223220Y117129D01*
X222558Y116687D01*
X222116Y116026D01*
X221961Y115245D01*
X222116Y114465D01*
X222558Y113803D01*
X223220Y113361D01*
X223794Y113247D01*
Y112243D01*
X223220Y112129D01*
X222558Y111687D01*
X222116Y111026D01*
X221961Y110245D01*
X222116Y109465D01*
X222558Y108803D01*
X223058Y108303D01*
X223292Y108147D01*
X223250Y107555D01*
X223132Y107070D01*
X222558Y106687D01*
X222116Y106026D01*
X221961Y105245D01*
X222116Y104465D01*
X222558Y103803D01*
X223220Y103361D01*
X224000Y103206D01*
X238467D01*
X238614Y102766D01*
X238631Y102222D01*
X238104Y101870D01*
X237662Y101208D01*
X237606Y100928D01*
X241486D01*
X241430Y101208D01*
X240988Y101870D01*
X240461Y102222D01*
X240478Y102766D01*
X240624Y103206D01*
X255000D01*
X255780Y103361D01*
X256442Y103803D01*
X256884Y104465D01*
X257039Y105245D01*
X256884Y106026D01*
X256442Y106687D01*
X256051Y106948D01*
X256005Y107102D01*
Y107888D01*
X256051Y108042D01*
X256442Y108303D01*
X256884Y108965D01*
X257039Y109745D01*
X256884Y110526D01*
X256442Y111187D01*
X255780Y111629D01*
X255000Y111784D01*
X225296D01*
X224780Y112129D01*
X224315Y112222D01*
X224412Y113206D01*
X224778Y113206D01*
X255000D01*
X255780Y113361D01*
X256442Y113803D01*
X256884Y114465D01*
X257039Y115245D01*
X256884Y116026D01*
X256442Y116687D01*
X255780Y117129D01*
X255000Y117284D01*
D02*
G37*
G36*
X91000Y102039D02*
X90220Y101884D01*
X89558Y101442D01*
X89116Y100780D01*
X89002Y100206D01*
X89002D01*
X89075Y100576D01*
X88844Y100206D01*
X88210D01*
X87940Y100501D01*
X87884Y100780D01*
X87442Y101442D01*
X86780Y101884D01*
X86000Y102039D01*
X85220Y101884D01*
X84558Y101442D01*
X84116Y100780D01*
X84075Y100576D01*
X83844Y100206D01*
X83200D01*
X82944Y100478D01*
X82884Y100780D01*
X82442Y101442D01*
X81780Y101884D01*
X81000Y102039D01*
X80220Y101884D01*
X79558Y101442D01*
X79116Y100780D01*
X78961Y100000D01*
X79116Y99220D01*
X79216Y99071D01*
Y97000D01*
X79352Y96317D01*
X79738Y95738D01*
X83716Y91761D01*
Y66430D01*
X83616Y66280D01*
X83461Y65500D01*
X83616Y64720D01*
X84058Y64058D01*
X84720Y63616D01*
X85500Y63461D01*
X86280Y63616D01*
X86942Y64058D01*
X87203Y64449D01*
X87357Y64495D01*
X88143D01*
X88297Y64449D01*
X88558Y64058D01*
X89220Y63616D01*
X90000Y63461D01*
X90780Y63616D01*
X91442Y64058D01*
X91884Y64720D01*
X92039Y65500D01*
X91884Y66280D01*
X91784Y66430D01*
Y93500D01*
X91649Y94183D01*
X91262Y94762D01*
X91262Y94762D01*
X87784Y98239D01*
Y99071D01*
X87839Y99153D01*
X87942Y99228D01*
X88918Y99375D01*
X89216Y99000D01*
X89351Y98317D01*
X89738Y97738D01*
X92738Y94738D01*
X93216Y94419D01*
Y66930D01*
X93116Y66780D01*
X92961Y66000D01*
X93116Y65220D01*
X93558Y64558D01*
X94220Y64116D01*
X95000Y63961D01*
X95780Y64116D01*
X96442Y64558D01*
X96884Y65220D01*
X97039Y66000D01*
X96884Y66780D01*
X96784Y66930D01*
Y96000D01*
X96649Y96683D01*
X96262Y97262D01*
X95683Y97649D01*
X95000Y97784D01*
X94739D01*
X92954Y99570D01*
X93039Y100000D01*
X92884Y100780D01*
X92442Y101442D01*
X91780Y101884D01*
X91000Y102039D01*
D02*
G37*
G36*
X195911Y100274D02*
X194472D01*
Y98834D01*
X194752Y98890D01*
X195414Y99332D01*
X195856Y99993D01*
X195911Y100274D01*
D02*
G37*
G36*
X193472D02*
X192032D01*
X192088Y99993D01*
X192530Y99332D01*
X193191Y98890D01*
X193472Y98834D01*
Y100274D01*
D02*
G37*
G36*
X241486Y99928D02*
X240046D01*
Y98488D01*
X240326Y98544D01*
X240988Y98986D01*
X241430Y99647D01*
X241486Y99928D01*
D02*
G37*
G36*
X239046D02*
X237606D01*
X237662Y99647D01*
X238104Y98986D01*
X238765Y98544D01*
X239046Y98488D01*
Y99928D01*
D02*
G37*
G36*
X30500Y100223D02*
X29795Y100130D01*
X29138Y99858D01*
X28574Y99426D01*
X28142Y98862D01*
X27869Y98205D01*
X27777Y97500D01*
X27869Y96795D01*
X28142Y96138D01*
X28574Y95574D01*
X29138Y95142D01*
X29795Y94870D01*
X30500Y94777D01*
X31205Y94870D01*
X31862Y95142D01*
X32426Y95574D01*
X32858Y96138D01*
X33130Y96795D01*
X33223Y97500D01*
X33130Y98205D01*
X32858Y98862D01*
X32426Y99426D01*
X31862Y99858D01*
X31205Y100130D01*
X30500Y100223D01*
D02*
G37*
G36*
Y92323D02*
X29795Y92230D01*
X29138Y91958D01*
X28574Y91526D01*
X28142Y90962D01*
X27869Y90305D01*
X27777Y89600D01*
X27869Y88895D01*
X28142Y88238D01*
X28574Y87674D01*
X29138Y87242D01*
X29795Y86970D01*
X30500Y86877D01*
X31205Y86970D01*
X31862Y87242D01*
X32426Y87674D01*
X32858Y88238D01*
X33130Y88895D01*
X33223Y89600D01*
X33130Y90305D01*
X32858Y90962D01*
X32426Y91526D01*
X31862Y91958D01*
X31205Y92230D01*
X30500Y92323D01*
D02*
G37*
G36*
X101272Y85957D02*
Y84517D01*
X102711D01*
X102656Y84797D01*
X102214Y85459D01*
X101552Y85901D01*
X101272Y85957D01*
D02*
G37*
G36*
X100272D02*
X99991Y85901D01*
X99330Y85459D01*
X98888Y84797D01*
X98832Y84517D01*
X100272D01*
Y85957D01*
D02*
G37*
G36*
X38300Y92323D02*
X37595Y92230D01*
X36938Y91958D01*
X36374Y91526D01*
X35942Y90962D01*
X35669Y90305D01*
X35577Y89600D01*
X35669Y88895D01*
X35942Y88238D01*
X36374Y87674D01*
X36938Y87242D01*
X37595Y86970D01*
X38300Y86877D01*
X39005Y86970D01*
X39486Y87169D01*
X40069Y86930D01*
X40471Y86622D01*
Y84678D01*
X40069Y84370D01*
X39486Y84131D01*
X39005Y84330D01*
X38300Y84423D01*
X37595Y84330D01*
X36938Y84058D01*
X36374Y83626D01*
X35942Y83062D01*
X35669Y82405D01*
X35577Y81700D01*
X35669Y80995D01*
X35942Y80338D01*
X36374Y79774D01*
X36938Y79342D01*
X37595Y79070D01*
X38300Y78977D01*
X39005Y79070D01*
X39486Y79269D01*
X40069Y79030D01*
X40471Y78722D01*
Y77356D01*
X40202Y76955D01*
X40114Y76825D01*
X39032Y76419D01*
X39005Y76430D01*
X38300Y76523D01*
X37595Y76430D01*
X36938Y76158D01*
X36374Y75726D01*
X35942Y75162D01*
X35669Y74505D01*
X35577Y73800D01*
X35669Y73095D01*
X35942Y72438D01*
X36374Y71874D01*
X36938Y71442D01*
X37595Y71170D01*
X38300Y71077D01*
X39005Y71170D01*
X39662Y71442D01*
X40226Y71874D01*
X40658Y72438D01*
X40931Y73095D01*
X40951Y73247D01*
X41846Y73978D01*
X41989Y74008D01*
X42000Y74006D01*
X42780Y74161D01*
X43442Y74603D01*
X43884Y75265D01*
X44039Y76045D01*
X43884Y76826D01*
X43529Y77356D01*
Y88934D01*
X43884Y89465D01*
X44039Y90245D01*
X43884Y91026D01*
X43442Y91687D01*
X42780Y92129D01*
X42000Y92284D01*
X41220Y92129D01*
X40558Y91687D01*
X39662Y91958D01*
X39005Y92230D01*
X38300Y92323D01*
D02*
G37*
G36*
X102711Y83517D02*
X101272D01*
Y82077D01*
X101552Y82133D01*
X102214Y82575D01*
X102656Y83236D01*
X102711Y83517D01*
D02*
G37*
G36*
X100272D02*
X98832D01*
X98888Y83236D01*
X99330Y82575D01*
X99991Y82133D01*
X100272Y82077D01*
Y83517D01*
D02*
G37*
G36*
X30500Y84423D02*
X29795Y84330D01*
X29138Y84058D01*
X28574Y83626D01*
X28142Y83062D01*
X27869Y82405D01*
X27777Y81700D01*
X27869Y80995D01*
X28142Y80338D01*
X28574Y79774D01*
X29138Y79342D01*
X29795Y79070D01*
X30500Y78977D01*
X31205Y79070D01*
X31862Y79342D01*
X32426Y79774D01*
X32858Y80338D01*
X33130Y80995D01*
X33223Y81700D01*
X33130Y82405D01*
X32858Y83062D01*
X32426Y83626D01*
X31862Y84058D01*
X31205Y84330D01*
X30500Y84423D01*
D02*
G37*
G36*
X264000Y80557D02*
Y78500D01*
X266057D01*
X266033Y78679D01*
X265771Y79311D01*
X265354Y79854D01*
X264811Y80271D01*
X264179Y80533D01*
X264000Y80557D01*
D02*
G37*
G36*
X263000D02*
X262821Y80533D01*
X262189Y80271D01*
X261646Y79854D01*
X261229Y79311D01*
X260967Y78679D01*
X260943Y78500D01*
X263000D01*
Y80557D01*
D02*
G37*
G36*
X62500Y91284D02*
X61720Y91129D01*
X61058Y90687D01*
X60616Y90026D01*
X60461Y89245D01*
X60483Y89132D01*
X51351Y80000D01*
X51349Y80000D01*
X50687Y79558D01*
X50245Y78896D01*
X50090Y78116D01*
X50245Y77336D01*
X50687Y76674D01*
X51349Y76232D01*
X52129Y76077D01*
X52910Y76232D01*
X53571Y76674D01*
X54013Y77336D01*
X54169Y78116D01*
X54106Y78430D01*
X62978Y87301D01*
X63280Y87361D01*
X63942Y87803D01*
X64384Y88465D01*
X64539Y89245D01*
X64384Y90026D01*
X63942Y90687D01*
X63280Y91129D01*
X62500Y91284D01*
D02*
G37*
G36*
X266057Y77500D02*
X264000D01*
Y75443D01*
X264179Y75467D01*
X264811Y75729D01*
X265354Y76146D01*
X265771Y76689D01*
X266033Y77321D01*
X266057Y77500D01*
D02*
G37*
G36*
X263000D02*
X260943D01*
X260967Y77321D01*
X261229Y76689D01*
X261646Y76146D01*
X262189Y75729D01*
X262821Y75467D01*
X263000Y75443D01*
Y77500D01*
D02*
G37*
G36*
X30500Y76523D02*
X29795Y76430D01*
X29138Y76158D01*
X28574Y75726D01*
X28142Y75162D01*
X27869Y74505D01*
X27777Y73800D01*
X27869Y73095D01*
X28142Y72438D01*
X28574Y71874D01*
X29138Y71442D01*
X29795Y71170D01*
X30500Y71077D01*
X31205Y71170D01*
X31862Y71442D01*
X32426Y71874D01*
X32858Y72438D01*
X33130Y73095D01*
X33223Y73800D01*
X33130Y74505D01*
X32858Y75162D01*
X32426Y75726D01*
X31862Y76158D01*
X31205Y76430D01*
X30500Y76523D01*
D02*
G37*
G36*
X38200Y68623D02*
X37495Y68530D01*
X36838Y68259D01*
X36274Y67826D01*
X35842Y67262D01*
X35570Y66605D01*
X35477Y65900D01*
X35570Y65195D01*
X35842Y64538D01*
X36274Y63974D01*
X36838Y63542D01*
X37495Y63270D01*
X38200Y63177D01*
X38905Y63270D01*
X39562Y63542D01*
X40126Y63974D01*
X40558Y64538D01*
X40830Y65195D01*
X40923Y65900D01*
X40830Y66605D01*
X40558Y67262D01*
X40126Y67826D01*
X39562Y68259D01*
X38905Y68530D01*
X38200Y68623D01*
D02*
G37*
G36*
X30400D02*
X29695Y68530D01*
X29038Y68259D01*
X28474Y67826D01*
X28042Y67262D01*
X27770Y66605D01*
X27677Y65900D01*
X27770Y65195D01*
X28042Y64538D01*
X28474Y63974D01*
X29038Y63542D01*
X29695Y63270D01*
X30400Y63177D01*
X31105Y63270D01*
X31762Y63542D01*
X32326Y63974D01*
X32758Y64538D01*
X33031Y65195D01*
X33123Y65900D01*
X33031Y66605D01*
X32758Y67262D01*
X32326Y67826D01*
X31762Y68259D01*
X31105Y68530D01*
X30400Y68623D01*
D02*
G37*
G36*
X54500Y62185D02*
Y60745D01*
X55940D01*
X55884Y61026D01*
X55442Y61687D01*
X54780Y62129D01*
X54500Y62185D01*
D02*
G37*
G36*
X53500D02*
X53220Y62129D01*
X52558Y61687D01*
X52116Y61026D01*
X52060Y60745D01*
X53500D01*
Y62185D01*
D02*
G37*
G36*
X55940Y59745D02*
X54500D01*
Y58306D01*
X54780Y58361D01*
X55442Y58803D01*
X55884Y59465D01*
X55940Y59745D01*
D02*
G37*
G36*
X53500D02*
X52060D01*
X52116Y59465D01*
X52558Y58803D01*
X53220Y58361D01*
X53500Y58306D01*
Y59745D01*
D02*
G37*
G36*
X253650Y64650D02*
X245350D01*
Y56350D01*
X253650D01*
Y64650D01*
D02*
G37*
G36*
X38200Y60723D02*
X37495Y60631D01*
X36838Y60359D01*
X36274Y59926D01*
X35842Y59362D01*
X35570Y58705D01*
X35477Y58000D01*
X35570Y57295D01*
X35842Y56638D01*
X36274Y56074D01*
X36838Y55642D01*
X37495Y55370D01*
X38200Y55277D01*
X38905Y55370D01*
X39562Y55642D01*
X40126Y56074D01*
X40558Y56638D01*
X40830Y57295D01*
X40923Y58000D01*
X40830Y58705D01*
X40558Y59362D01*
X40126Y59926D01*
X39562Y60359D01*
X38905Y60631D01*
X38200Y60723D01*
D02*
G37*
G36*
X30400D02*
X29695Y60631D01*
X29038Y60359D01*
X28474Y59926D01*
X28042Y59362D01*
X27770Y58705D01*
X27677Y58000D01*
X27770Y57295D01*
X28042Y56638D01*
X28474Y56074D01*
X29038Y55642D01*
X29695Y55370D01*
X30400Y55277D01*
X31105Y55370D01*
X31762Y55642D01*
X32326Y56074D01*
X32758Y56638D01*
X33031Y57295D01*
X33123Y58000D01*
X33031Y58705D01*
X32758Y59362D01*
X32326Y59926D01*
X31762Y60359D01*
X31105Y60631D01*
X30400Y60723D01*
D02*
G37*
G36*
X191200Y59693D02*
X190374Y59584D01*
X189604Y59265D01*
X188943Y58758D01*
X188435Y58096D01*
X188116Y57326D01*
X188007Y56500D01*
X188116Y55674D01*
X188435Y54904D01*
X188943Y54242D01*
X189604Y53735D01*
X190374Y53416D01*
X191200Y53307D01*
X192026Y53416D01*
X192796Y53735D01*
X193457Y54242D01*
X193965Y54904D01*
X194284Y55674D01*
X194393Y56500D01*
X194284Y57326D01*
X193965Y58096D01*
X193457Y58758D01*
X192796Y59265D01*
X192026Y59584D01*
X191200Y59693D01*
D02*
G37*
G36*
X181200D02*
X180374Y59584D01*
X179604Y59265D01*
X178943Y58758D01*
X178435Y58096D01*
X178116Y57326D01*
X178007Y56500D01*
X178116Y55674D01*
X178435Y54904D01*
X178943Y54242D01*
X179604Y53735D01*
X180374Y53416D01*
X181200Y53307D01*
X182026Y53416D01*
X182796Y53735D01*
X183458Y54242D01*
X183965Y54904D01*
X184284Y55674D01*
X184393Y56500D01*
X184284Y57326D01*
X183965Y58096D01*
X183458Y58758D01*
X182796Y59265D01*
X182026Y59584D01*
X181200Y59693D01*
D02*
G37*
G36*
X171200D02*
X170374Y59584D01*
X170352Y59575D01*
X169620Y59429D01*
X168958Y58987D01*
X168516Y58326D01*
X168483Y58158D01*
X168435Y58096D01*
X168116Y57326D01*
X168007Y56500D01*
X168116Y55674D01*
X168435Y54904D01*
X168942Y54242D01*
X169604Y53735D01*
X170374Y53416D01*
X171200Y53307D01*
X172026Y53416D01*
X172796Y53735D01*
X173458Y54242D01*
X173965Y54904D01*
X174284Y55674D01*
X174393Y56500D01*
X174284Y57326D01*
X174224Y57470D01*
X174239Y57545D01*
X174084Y58326D01*
X173642Y58987D01*
X172980Y59429D01*
X172200Y59584D01*
X172022D01*
X171200Y59693D01*
D02*
G37*
G36*
X161200D02*
X160374Y59584D01*
X159604Y59265D01*
X158942Y58758D01*
X158435Y58096D01*
X158116Y57326D01*
X158007Y56500D01*
X158116Y55674D01*
X158435Y54904D01*
X158942Y54242D01*
X159604Y53735D01*
X160374Y53416D01*
X161200Y53307D01*
X162026Y53416D01*
X162796Y53735D01*
X163458Y54242D01*
X163965Y54904D01*
X164284Y55674D01*
X164393Y56500D01*
X164284Y57326D01*
X163965Y58096D01*
X163458Y58758D01*
X162796Y59265D01*
X162026Y59584D01*
X161200Y59693D01*
D02*
G37*
G36*
X151200D02*
X150374Y59584D01*
X149604Y59265D01*
X148942Y58758D01*
X148435Y58096D01*
X148116Y57326D01*
X148007Y56500D01*
X148116Y55674D01*
X148435Y54904D01*
X148942Y54242D01*
X149604Y53735D01*
X150374Y53416D01*
X151200Y53307D01*
X152026Y53416D01*
X152796Y53735D01*
X153457Y54242D01*
X153965Y54904D01*
X154284Y55674D01*
X154393Y56500D01*
X154284Y57326D01*
X153965Y58096D01*
X153457Y58758D01*
X152796Y59265D01*
X152026Y59584D01*
X151200Y59693D01*
D02*
G37*
G36*
X134255Y79539D02*
X110000D01*
X109122Y79365D01*
X108378Y78867D01*
X107880Y78123D01*
X107706Y77245D01*
X107880Y76367D01*
X108378Y75623D01*
X109122Y75126D01*
X110000Y74951D01*
X133305D01*
X138706Y69550D01*
Y58449D01*
X138435Y58096D01*
X138116Y57326D01*
X138007Y56500D01*
X138116Y55674D01*
X138435Y54904D01*
X138943Y54242D01*
X139604Y53735D01*
X140374Y53416D01*
X141200Y53307D01*
X142026Y53416D01*
X142796Y53735D01*
X143457Y54242D01*
X143965Y54904D01*
X144284Y55674D01*
X144393Y56500D01*
X144284Y57326D01*
X143965Y58096D01*
X143457Y58758D01*
X143294Y58883D01*
Y70500D01*
X143120Y71378D01*
X142622Y72122D01*
X135877Y78867D01*
X135133Y79365D01*
X134255Y79539D01*
D02*
G37*
G36*
X250000Y54620D02*
Y51000D01*
X253620D01*
X253543Y51583D01*
X253125Y52593D01*
X252460Y53460D01*
X251593Y54125D01*
X250583Y54543D01*
X250000Y54620D01*
D02*
G37*
G36*
X249000D02*
X248417Y54543D01*
X247407Y54125D01*
X246540Y53460D01*
X245875Y52593D01*
X245457Y51583D01*
X245380Y51000D01*
X249000D01*
Y54620D01*
D02*
G37*
G36*
X38300Y52823D02*
X37595Y52731D01*
X36938Y52459D01*
X36374Y52026D01*
X35942Y51462D01*
X35669Y50805D01*
X35577Y50100D01*
X35669Y49395D01*
X35942Y48738D01*
X36374Y48174D01*
X36938Y47742D01*
X37595Y47469D01*
X38300Y47377D01*
X39005Y47469D01*
X39662Y47742D01*
X40226Y48174D01*
X40658Y48738D01*
X40931Y49395D01*
X41023Y50100D01*
X40931Y50805D01*
X40658Y51462D01*
X40226Y52026D01*
X39662Y52459D01*
X39005Y52731D01*
X38300Y52823D01*
D02*
G37*
G36*
X30500D02*
X29795Y52731D01*
X29138Y52459D01*
X28574Y52026D01*
X28142Y51462D01*
X27869Y50805D01*
X27777Y50100D01*
X27869Y49395D01*
X28142Y48738D01*
X28574Y48174D01*
X29138Y47742D01*
X29795Y47469D01*
X30500Y47377D01*
X31205Y47469D01*
X31862Y47742D01*
X32426Y48174D01*
X32858Y48738D01*
X33130Y49395D01*
X33223Y50100D01*
X33130Y50805D01*
X32858Y51462D01*
X32426Y52026D01*
X31862Y52459D01*
X31205Y52731D01*
X30500Y52823D01*
D02*
G37*
G36*
X253620Y50000D02*
X250000D01*
Y46380D01*
X250583Y46457D01*
X251593Y46875D01*
X252460Y47541D01*
X253125Y48407D01*
X253543Y49417D01*
X253620Y50000D01*
D02*
G37*
G36*
X249000D02*
X245380D01*
X245457Y49417D01*
X245875Y48407D01*
X246540Y47541D01*
X247407Y46875D01*
X248417Y46457D01*
X249000Y46380D01*
Y50000D01*
D02*
G37*
G36*
X51912Y56647D02*
X51132Y56492D01*
X50470Y56050D01*
X50028Y55388D01*
X49873Y54608D01*
X50028Y53828D01*
X50470Y53166D01*
X51132Y52724D01*
X51136Y52723D01*
X51344Y51678D01*
X51058Y51487D01*
X50616Y50826D01*
X50461Y50045D01*
X50616Y49265D01*
X51058Y48603D01*
X50658Y47687D01*
X50416Y47326D01*
X50261Y46545D01*
X50416Y45765D01*
X50858Y45103D01*
X51520Y44661D01*
X52300Y44506D01*
X53080Y44661D01*
X53742Y45103D01*
X53817Y45216D01*
X78689D01*
X79220Y44861D01*
X80000Y44706D01*
X80780Y44861D01*
X81442Y45303D01*
X81884Y45965D01*
X82039Y46745D01*
X81884Y47526D01*
X81442Y48187D01*
X80780Y48629D01*
X80000Y48784D01*
X79220Y48629D01*
X78689Y48275D01*
X77606D01*
X77403Y48469D01*
X76942Y49259D01*
X77039Y49745D01*
X76884Y50526D01*
X76442Y51187D01*
X76419Y51203D01*
X76413Y51231D01*
X76081Y51727D01*
X75585Y52058D01*
X75000Y52175D01*
X74415Y52058D01*
X73919Y51727D01*
X73629Y51293D01*
X70993Y51328D01*
X70907Y51426D01*
X70937Y51855D01*
X71183Y52597D01*
X71642Y52903D01*
X72084Y53565D01*
X72239Y54345D01*
X72084Y55126D01*
X71642Y55787D01*
X70980Y56229D01*
X70200Y56384D01*
X69420Y56229D01*
X69270Y56129D01*
X53235D01*
X52693Y56492D01*
X51912Y56647D01*
D02*
G37*
G36*
X191200Y49693D02*
X190374Y49584D01*
X189604Y49265D01*
X188943Y48757D01*
X188435Y48096D01*
X188116Y47326D01*
X188007Y46500D01*
X188116Y45674D01*
X188435Y44904D01*
X188943Y44243D01*
X189604Y43735D01*
X190374Y43416D01*
X191200Y43307D01*
X192026Y43416D01*
X192796Y43735D01*
X193457Y44243D01*
X193965Y44904D01*
X194284Y45674D01*
X194393Y46500D01*
X194284Y47326D01*
X193965Y48096D01*
X193457Y48757D01*
X192796Y49265D01*
X192026Y49584D01*
X191200Y49693D01*
D02*
G37*
G36*
X181200D02*
X180374Y49584D01*
X179604Y49265D01*
X178943Y48757D01*
X178435Y48096D01*
X178116Y47326D01*
X178007Y46500D01*
X178116Y45674D01*
X178435Y44904D01*
X178943Y44243D01*
X179604Y43735D01*
X180374Y43416D01*
X181200Y43307D01*
X182026Y43416D01*
X182796Y43735D01*
X183458Y44243D01*
X183965Y44904D01*
X184284Y45674D01*
X184393Y46500D01*
X184284Y47326D01*
X183965Y48096D01*
X183458Y48757D01*
X182796Y49265D01*
X182026Y49584D01*
X181200Y49693D01*
D02*
G37*
G36*
X171200D02*
X170374Y49584D01*
X169604Y49265D01*
X168942Y48757D01*
X168435Y48096D01*
X168116Y47326D01*
X168007Y46500D01*
X168116Y45674D01*
X168435Y44904D01*
X168942Y44243D01*
X169604Y43735D01*
X170374Y43416D01*
X171200Y43307D01*
X172026Y43416D01*
X172796Y43735D01*
X173458Y44243D01*
X173965Y44904D01*
X174284Y45674D01*
X174393Y46500D01*
X174284Y47326D01*
X173965Y48096D01*
X173458Y48757D01*
X172796Y49265D01*
X172026Y49584D01*
X171200Y49693D01*
D02*
G37*
G36*
X161200D02*
X160374Y49584D01*
X159604Y49265D01*
X158942Y48757D01*
X158435Y48096D01*
X158116Y47326D01*
X158007Y46500D01*
X158116Y45674D01*
X158435Y44904D01*
X158942Y44243D01*
X159604Y43735D01*
X160374Y43416D01*
X161200Y43307D01*
X162026Y43416D01*
X162796Y43735D01*
X163458Y44243D01*
X163965Y44904D01*
X164284Y45674D01*
X164393Y46500D01*
X164284Y47326D01*
X163965Y48096D01*
X163458Y48757D01*
X162796Y49265D01*
X162026Y49584D01*
X161200Y49693D01*
D02*
G37*
G36*
X151200D02*
X150374Y49584D01*
X149604Y49265D01*
X148942Y48757D01*
X148435Y48096D01*
X148116Y47326D01*
X148007Y46500D01*
X148116Y45674D01*
X148435Y44904D01*
X148942Y44243D01*
X149604Y43735D01*
X150374Y43416D01*
X151200Y43307D01*
X152026Y43416D01*
X152796Y43735D01*
X153457Y44243D01*
X153965Y44904D01*
X154284Y45674D01*
X154393Y46500D01*
X154284Y47326D01*
X153965Y48096D01*
X153457Y48757D01*
X152796Y49265D01*
X152026Y49584D01*
X151200Y49693D01*
D02*
G37*
G36*
X141200D02*
X140374Y49584D01*
X139604Y49265D01*
X138943Y48757D01*
X138435Y48096D01*
X138116Y47326D01*
X138007Y46500D01*
X138116Y45674D01*
X138435Y44904D01*
X138943Y44243D01*
X139604Y43735D01*
X140374Y43416D01*
X141200Y43307D01*
X142026Y43416D01*
X142796Y43735D01*
X143457Y44243D01*
X143965Y44904D01*
X144284Y45674D01*
X144393Y46500D01*
X144284Y47326D01*
X143965Y48096D01*
X143457Y48757D01*
X142796Y49265D01*
X142026Y49584D01*
X141200Y49693D01*
D02*
G37*
G36*
X38300Y44923D02*
X37595Y44831D01*
X36938Y44558D01*
X36374Y44126D01*
X35942Y43562D01*
X35669Y42905D01*
X35577Y42200D01*
X35669Y41495D01*
X35942Y40838D01*
X36374Y40274D01*
X36938Y39842D01*
X37595Y39570D01*
X38300Y39477D01*
X39005Y39570D01*
X39662Y39842D01*
X40226Y40274D01*
X40658Y40838D01*
X40931Y41495D01*
X41023Y42200D01*
X40931Y42905D01*
X40658Y43562D01*
X40226Y44126D01*
X39662Y44558D01*
X39005Y44831D01*
X38300Y44923D01*
D02*
G37*
G36*
X30500D02*
X29795Y44831D01*
X29138Y44558D01*
X28574Y44126D01*
X28142Y43562D01*
X27869Y42905D01*
X27777Y42200D01*
X27869Y41495D01*
X28142Y40838D01*
X28574Y40274D01*
X29138Y39842D01*
X29795Y39570D01*
X30500Y39477D01*
X31205Y39570D01*
X31862Y39842D01*
X32426Y40274D01*
X32858Y40838D01*
X33130Y41495D01*
X33223Y42200D01*
X33130Y42905D01*
X32858Y43562D01*
X32426Y44126D01*
X31862Y44558D01*
X31205Y44831D01*
X30500Y44923D01*
D02*
G37*
G36*
X102272Y39957D02*
Y38517D01*
X103711D01*
X103656Y38797D01*
X103214Y39459D01*
X102552Y39901D01*
X102272Y39957D01*
D02*
G37*
G36*
X101272D02*
X100991Y39901D01*
X100330Y39459D01*
X99888Y38797D01*
X99832Y38517D01*
X101272D01*
Y39957D01*
D02*
G37*
G36*
X103711Y37517D02*
X102272D01*
Y36077D01*
X102552Y36133D01*
X103214Y36575D01*
X103656Y37236D01*
X103711Y37517D01*
D02*
G37*
G36*
X101272D02*
X99832D01*
X99888Y37236D01*
X100330Y36575D01*
X100991Y36133D01*
X101272Y36077D01*
Y37517D01*
D02*
G37*
G36*
X95500Y35085D02*
Y33645D01*
X96940D01*
X96884Y33926D01*
X96442Y34587D01*
X95780Y35029D01*
X95500Y35085D01*
D02*
G37*
G36*
X94500D02*
X94220Y35029D01*
X93558Y34587D01*
X93116Y33926D01*
X93060Y33645D01*
X94500D01*
Y35085D01*
D02*
G37*
G36*
X38300Y37223D02*
X37595Y37130D01*
X36938Y36858D01*
X36374Y36426D01*
X35942Y35862D01*
X35669Y35205D01*
X35577Y34500D01*
X35669Y33795D01*
X35942Y33138D01*
X36374Y32574D01*
X36938Y32142D01*
X37595Y31870D01*
X38300Y31777D01*
X39005Y31870D01*
X39662Y32142D01*
X40226Y32574D01*
X40658Y33138D01*
X40931Y33795D01*
X41023Y34500D01*
X40931Y35205D01*
X40658Y35862D01*
X40226Y36426D01*
X39662Y36858D01*
X39005Y37130D01*
X38300Y37223D01*
D02*
G37*
G36*
X30500D02*
X29795Y37130D01*
X29138Y36858D01*
X28574Y36426D01*
X28142Y35862D01*
X27869Y35205D01*
X27777Y34500D01*
X27869Y33795D01*
X28142Y33138D01*
X28574Y32574D01*
X29138Y32142D01*
X29795Y31870D01*
X30500Y31777D01*
X31205Y31870D01*
X31862Y32142D01*
X32426Y32574D01*
X32858Y33138D01*
X33130Y33795D01*
X33223Y34500D01*
X33130Y35205D01*
X32858Y35862D01*
X32426Y36426D01*
X31862Y36858D01*
X31205Y37130D01*
X30500Y37223D01*
D02*
G37*
G36*
X79900Y34984D02*
X79120Y34829D01*
X78458Y34387D01*
X78016Y33726D01*
X77861Y32945D01*
X77973Y32381D01*
X76867Y31275D01*
X63811D01*
X63280Y31629D01*
X62500Y31784D01*
X61720Y31629D01*
X61058Y31187D01*
X60616Y30526D01*
X60461Y29745D01*
X60616Y28965D01*
X61058Y28303D01*
X61720Y27861D01*
X62500Y27706D01*
X63280Y27861D01*
X63811Y28216D01*
X77500D01*
X78085Y28332D01*
X78581Y28664D01*
X80981Y31064D01*
X81221Y31423D01*
X81342Y31503D01*
X81784Y32165D01*
X81939Y32945D01*
X81784Y33726D01*
X81342Y34387D01*
X80680Y34829D01*
X79900Y34984D01*
D02*
G37*
G36*
X96940Y32645D02*
X95500D01*
Y31205D01*
X95780Y31261D01*
X96442Y31703D01*
X96884Y32365D01*
X96940Y32645D01*
D02*
G37*
G36*
X94500D02*
X93060D01*
X93116Y32365D01*
X93558Y31703D01*
X94220Y31261D01*
X94500Y31205D01*
Y32645D01*
D02*
G37*
G36*
X118000Y53384D02*
X117220Y53229D01*
X116558Y52787D01*
X116116Y52126D01*
X115961Y51345D01*
Y49705D01*
X115598Y49232D01*
X115321Y48563D01*
X115226Y47845D01*
Y44945D01*
X115321Y44227D01*
X115598Y43558D01*
X116039Y42984D01*
X122239Y36784D01*
X122813Y36343D01*
X122926Y36296D01*
X129189Y30034D01*
X129763Y29593D01*
X130432Y29316D01*
X131023Y29238D01*
X132258Y28003D01*
X132258Y28003D01*
X132920Y27561D01*
X133700Y27406D01*
X134480Y27561D01*
X135142Y28003D01*
X135584Y28665D01*
X135739Y29445D01*
X135584Y30226D01*
X135142Y30887D01*
X135142Y30887D01*
X133907Y32122D01*
X133829Y32713D01*
X133552Y33382D01*
X133111Y33957D01*
X126361Y40707D01*
X125787Y41147D01*
X125674Y41194D01*
X120774Y46094D01*
Y47845D01*
X120679Y48563D01*
X120402Y49232D01*
X120039Y49705D01*
Y51345D01*
X119884Y52126D01*
X119442Y52787D01*
X118780Y53229D01*
X118000Y53384D01*
D02*
G37*
G36*
X24000Y22063D02*
Y13300D01*
X32763D01*
X32634Y14617D01*
X32104Y16364D01*
X31243Y17974D01*
X30085Y19385D01*
X28674Y20543D01*
X27064Y21404D01*
X25317Y21933D01*
X24000Y22063D01*
D02*
G37*
G36*
X23000D02*
X21683Y21933D01*
X19936Y21404D01*
X18326Y20543D01*
X16915Y19385D01*
X15757Y17974D01*
X14896Y16364D01*
X14366Y14617D01*
X14237Y13300D01*
X23000D01*
Y22063D01*
D02*
G37*
G36*
X264700Y21863D02*
Y13100D01*
X273463D01*
X273334Y14417D01*
X272804Y16164D01*
X271943Y17774D01*
X270785Y19185D01*
X269374Y20343D01*
X267764Y21204D01*
X266017Y21733D01*
X264700Y21863D01*
D02*
G37*
G36*
X263700D02*
X262383Y21733D01*
X260636Y21204D01*
X259026Y20343D01*
X257615Y19185D01*
X256457Y17774D01*
X255596Y16164D01*
X255066Y14417D01*
X254937Y13100D01*
X263700D01*
Y21863D01*
D02*
G37*
G36*
X32763Y12300D02*
X24000D01*
Y3537D01*
X25317Y3666D01*
X27064Y4196D01*
X28674Y5057D01*
X30085Y6215D01*
X31243Y7626D01*
X32104Y9236D01*
X32634Y10983D01*
X32763Y12300D01*
D02*
G37*
G36*
X23000D02*
X14237D01*
X14366Y10983D01*
X14896Y9236D01*
X15757Y7626D01*
X16915Y6215D01*
X18326Y5057D01*
X19936Y4196D01*
X21683Y3666D01*
X23000Y3537D01*
Y12300D01*
D02*
G37*
G36*
X273463Y12100D02*
X264700D01*
Y3337D01*
X266017Y3466D01*
X267764Y3996D01*
X269374Y4857D01*
X270785Y6015D01*
X271943Y7426D01*
X272804Y9036D01*
X273334Y10783D01*
X273463Y12100D01*
D02*
G37*
G36*
X263700D02*
X254937D01*
X255066Y10783D01*
X255596Y9036D01*
X256457Y7426D01*
X257615Y6015D01*
X259026Y4857D01*
X260636Y3996D01*
X262383Y3466D01*
X263700Y3337D01*
Y12100D01*
D02*
G37*
%LPD*%
D10*
X141453Y160477D02*
X141642Y127103D01*
X138000Y163931D02*
X141453Y160477D01*
X141642Y127103D02*
X148500Y120245D01*
X134000Y127745D02*
X138500D01*
Y140245D02*
Y151245D01*
X143645Y154115D02*
X146500Y156970D01*
X143645Y132600D02*
Y154115D01*
Y132600D02*
X146000Y130245D01*
X138000Y163931D02*
Y166745D01*
X45764Y117745D02*
X52500Y124481D01*
X38300Y100545D02*
X56500Y118745D01*
X126854Y134891D02*
X134000Y127745D01*
X126854Y134891D02*
Y152391D01*
X202500Y125745D02*
Y135245D01*
X162500Y162245D02*
Y167656D01*
X138000Y151745D02*
X138500Y151245D01*
X148000Y135245D02*
Y150556D01*
X146311Y152245D02*
X148000Y150556D01*
X202000Y156745D02*
X210000Y148745D01*
Y140245D02*
Y148745D01*
X42000Y76045D02*
Y90245D01*
X57000Y137245D02*
Y152745D01*
X52300Y46545D02*
X52500Y46745D01*
X80000D01*
X55500Y125245D02*
X56000Y125745D01*
X43628Y109245D02*
X59000Y124617D01*
X44900Y113345D02*
X55500Y123945D01*
X42100Y113345D02*
X44900D01*
X55500Y123945D02*
Y125245D01*
X34500Y104745D02*
Y105245D01*
X56500Y118745D02*
X62500D01*
X39000Y128245D02*
X39500D01*
X60000Y137245D02*
Y146745D01*
X48250Y128495D02*
X57000Y137245D01*
X46250Y128495D02*
X48250D01*
X46000Y128245D02*
X46250Y128495D01*
X52129Y78116D02*
Y78616D01*
X62500Y88986D01*
Y89245D01*
X39000Y149745D02*
Y152745D01*
X162000Y124745D02*
Y125245D01*
X204500Y127745D02*
Y143245D01*
X202000Y150745D02*
X207500Y145245D01*
X172000Y156745D02*
X202000D01*
X197500Y150245D02*
X204500Y143245D01*
X207500Y130745D02*
Y145245D01*
X204500Y127745D02*
X209000Y123245D01*
Y120245D02*
Y123245D01*
X38500Y109245D02*
X43628D01*
X201500Y169745D02*
X203311Y167934D01*
X201500Y169745D02*
Y173745D01*
X52000Y101245D02*
X62500Y111745D01*
Y115245D01*
X48000Y125245D02*
X48000Y125245D01*
X45516Y125245D02*
X48000D01*
X48000Y125245D02*
X60000Y137245D01*
X52500Y124481D02*
Y125745D01*
X162500Y162245D02*
X173500Y151245D01*
Y127745D02*
Y151245D01*
X59000Y124617D02*
Y132245D01*
X34500Y105245D02*
Y114745D01*
X39000Y149745D02*
X42000Y146745D01*
X34500Y114745D02*
X42000Y122245D01*
Y146745D01*
X37500Y125245D02*
X39000D01*
X30500Y118245D02*
X37500Y125245D01*
X29000Y122745D02*
X34500Y128245D01*
X39000D01*
X252000Y130745D02*
Y143745D01*
X146500Y156970D02*
Y166745D01*
X249500Y146245D02*
X252000Y143745D01*
X249500Y146245D02*
Y146745D01*
X190000Y176745D02*
X198500D01*
X201500Y173745D01*
X197000Y179745D02*
X202236D01*
X183500Y147745D02*
X189000Y142245D01*
X177500Y147745D02*
X187500Y137745D01*
X182500Y147745D02*
X183500D01*
X185000Y152745D02*
X202500Y135245D01*
X75000Y49745D02*
Y50645D01*
X52500Y50045D02*
X75000Y49745D01*
X203311Y167934D02*
X209511D01*
X244900Y132545D01*
X248400Y130245D02*
X248700Y130545D01*
X248400Y130145D02*
Y130245D01*
X248700Y130545D02*
Y133282D01*
X202236Y179745D02*
X248700Y133282D01*
X79900Y32145D02*
Y32945D01*
X62500Y29745D02*
X77500D01*
X79900Y32145D01*
X172163Y125245D02*
X189000D01*
X175900Y120145D02*
X188700D01*
X189000D01*
X175500Y119745D02*
X175900Y120145D01*
X162000Y125245D02*
Y144745D01*
X157000Y149745D02*
X162000Y144745D01*
X164400Y133008D02*
X172163Y125245D01*
X164400Y133008D02*
Y152345D01*
X160000Y156745D02*
X164400Y152345D01*
D43*
X94755Y163745D02*
X94800D01*
X70000Y161500D02*
X77500Y169000D01*
X55500Y161500D02*
X70000D01*
X54500Y162500D02*
X55500Y161500D01*
X77500Y169000D02*
X89500D01*
X88745Y163745D02*
X94755D01*
X86000Y161000D02*
X88745Y163745D01*
X86000Y111500D02*
Y161000D01*
X81000Y157500D02*
Y163745D01*
Y111500D02*
Y157500D01*
X80832Y157668D02*
X81000Y157500D01*
X54832Y157668D02*
X80832D01*
X54500Y158000D02*
X54832Y157668D01*
X99345Y173000D02*
X108600Y163745D01*
X73000Y173000D02*
X99345D01*
X67500Y167500D02*
X73000Y173000D01*
X54500Y167500D02*
X67500D01*
X89500Y169000D02*
X94755Y163745D01*
X81000Y97000D02*
Y100000D01*
Y97000D02*
X85500Y92500D01*
Y65500D02*
Y92500D01*
X86000Y97500D02*
Y100000D01*
Y97500D02*
X90000Y93500D01*
Y65500D02*
Y93500D01*
X107745Y163745D02*
X108600D01*
X91000Y147000D02*
X107745Y163745D01*
X91000Y112000D02*
Y147000D01*
Y99000D02*
Y100000D01*
Y99000D02*
X94000Y96000D01*
X95000D01*
Y66000D02*
Y96000D01*
X209000Y110245D02*
X209000Y110245D01*
X128000Y109245D02*
X145000D01*
X125500Y122745D02*
X127500D01*
X111000Y137245D02*
X125500Y122745D01*
X112500Y101245D02*
X131000D01*
X111000Y137245D02*
Y146745D01*
X125500Y118245D02*
X141500D01*
X103000Y140745D02*
X125500Y118245D01*
X103000Y140745D02*
Y146245D01*
X123000Y115245D02*
X146000D01*
X145000Y109245D02*
X148500Y105745D01*
Y105245D02*
Y105745D01*
X98500Y139745D02*
Y146245D01*
Y139745D02*
X123000Y115245D01*
X52175Y54345D02*
X70200D01*
D45*
X95000Y116745D02*
X111000D01*
X124400Y38745D02*
X131150Y31995D01*
X118000Y44945D02*
X124200Y38745D01*
X118000Y44945D02*
Y47845D01*
D47*
X224000Y105245D02*
X255000D01*
X175500Y115245D02*
X209000D01*
X224000D02*
X255000D01*
X224000Y110245D02*
X224500Y109745D01*
X255000D01*
X47000Y185745D02*
Y189745D01*
Y185745D02*
X51500Y181245D01*
X99500D01*
X124200Y38745D02*
X124400D01*
X118000Y47845D02*
Y51345D01*
X131150Y31995D02*
X133700Y29445D01*
X170400Y57545D02*
X172200D01*
X208950Y110295D02*
X209000Y110245D01*
X175500Y110295D02*
X208950D01*
X209000Y105245D02*
X209000Y105245D01*
X175300Y105245D02*
X209000D01*
X245100Y124645D02*
X268000D01*
X227800Y127945D02*
X241800D01*
X245100Y124645D01*
D49*
X141000Y56545D02*
Y70500D01*
X134255Y77245D02*
X141000Y70500D01*
X110000Y77245D02*
X134255D01*
D52*
X191200Y46500D02*
D03*
Y56500D02*
D03*
X181200D02*
D03*
Y46500D02*
D03*
X171200D02*
D03*
Y56500D02*
D03*
X161200D02*
D03*
Y46500D02*
D03*
X151200D02*
D03*
Y56500D02*
D03*
X141200D02*
D03*
Y46500D02*
D03*
X254100Y165900D02*
D03*
X264100D02*
D03*
D53*
X81000Y163700D02*
D03*
X94800D02*
D03*
X108600D02*
D03*
D54*
X205700Y171900D02*
D03*
X197800D02*
D03*
X182000D02*
D03*
X189900D02*
D03*
X174100D02*
D03*
X166200D02*
D03*
X150400Y172000D02*
D03*
X158300D02*
D03*
X142500Y171900D02*
D03*
X134600D02*
D03*
X126900D02*
D03*
Y164100D02*
D03*
X134600D02*
D03*
X142500D02*
D03*
X158300Y164200D02*
D03*
X150400D02*
D03*
X166200Y164100D02*
D03*
X174100D02*
D03*
X189900D02*
D03*
X182000D02*
D03*
X197800D02*
D03*
X205700D02*
D03*
X38300Y113300D02*
D03*
Y105400D02*
D03*
Y89600D02*
D03*
Y97500D02*
D03*
Y81700D02*
D03*
Y73800D02*
D03*
X38200Y58000D02*
D03*
Y65900D02*
D03*
X38300Y50100D02*
D03*
Y42200D02*
D03*
Y34500D02*
D03*
X30500D02*
D03*
Y42200D02*
D03*
Y50100D02*
D03*
X30400Y65900D02*
D03*
Y58000D02*
D03*
X30500Y73800D02*
D03*
Y81700D02*
D03*
Y97500D02*
D03*
Y89600D02*
D03*
Y105400D02*
D03*
Y113300D02*
D03*
D55*
X249500Y50500D02*
D03*
D56*
Y60500D02*
D03*
D57*
X47000Y189700D02*
D03*
X57000D02*
D03*
X67000D02*
D03*
D58*
X23400Y185200D02*
D03*
X264100D02*
D03*
X23500Y12800D02*
D03*
X264200Y12600D02*
D03*
D59*
X54500Y167500D02*
D03*
Y162500D02*
D03*
Y158000D02*
D03*
X81000Y111500D02*
D03*
Y100000D02*
D03*
X85500Y65500D02*
D03*
X86000Y111500D02*
D03*
Y100000D02*
D03*
X90000Y65500D02*
D03*
X91000Y112000D02*
D03*
Y100000D02*
D03*
X95000Y66000D02*
D03*
X138500Y127745D02*
D03*
Y140245D02*
D03*
X138000Y166745D02*
D03*
X160000Y156745D02*
D03*
X209000Y110245D02*
D03*
X141500Y118245D02*
D03*
X224000Y110245D02*
D03*
X255000Y109745D02*
D03*
Y105245D02*
D03*
X224000D02*
D03*
X209000Y105245D02*
D03*
X209000Y115245D02*
D03*
X175500D02*
D03*
X128000Y109245D02*
D03*
X127500Y122745D02*
D03*
X139000Y105245D02*
D03*
X131000Y101245D02*
D03*
X111000Y146745D02*
D03*
X103000Y146245D02*
D03*
X98500D02*
D03*
X68000Y174245D02*
D03*
X100772Y84017D02*
D03*
X239546Y100428D02*
D03*
X193972Y100774D02*
D03*
X111000Y116745D02*
D03*
X95000D02*
D03*
X252000Y130745D02*
D03*
X250000Y151745D02*
D03*
X30700Y143945D02*
D03*
X157000Y149745D02*
D03*
X126854Y152391D02*
D03*
X138000Y151745D02*
D03*
X148500Y120245D02*
D03*
X146000Y130245D02*
D03*
X148000Y135245D02*
D03*
X146311Y152245D02*
D03*
X173500Y127745D02*
D03*
X162500Y167656D02*
D03*
X187500Y137745D02*
D03*
X177500Y147745D02*
D03*
X172000Y156745D02*
D03*
X202500Y125745D02*
D03*
X210000Y140245D02*
D03*
X42000Y76045D02*
D03*
X39000Y152745D02*
D03*
X57000D02*
D03*
X60000Y146745D02*
D03*
X112500Y101245D02*
D03*
X62500Y29745D02*
D03*
X52300Y46545D02*
D03*
X80000Y46745D02*
D03*
X39000Y125245D02*
D03*
X42100Y113345D02*
D03*
X56000Y125745D02*
D03*
X62500Y89245D02*
D03*
X42000Y90245D02*
D03*
X45764Y117745D02*
D03*
X34500Y105245D02*
D03*
X38300Y100545D02*
D03*
X52000Y101245D02*
D03*
X50146Y105891D02*
D03*
X62500Y118745D02*
D03*
X39000Y128245D02*
D03*
X46000D02*
D03*
X52129Y78116D02*
D03*
X162000Y125245D02*
D03*
X146000Y115245D02*
D03*
X148500Y105245D02*
D03*
X202000Y150745D02*
D03*
X197500Y150245D02*
D03*
X207500Y130745D02*
D03*
X209000Y120245D02*
D03*
X224000Y115245D02*
D03*
X255000D02*
D03*
X38500Y109245D02*
D03*
X54000Y60245D02*
D03*
X62500Y115245D02*
D03*
X45516Y125245D02*
D03*
X52500Y125745D02*
D03*
X167854Y148600D02*
D03*
X59000Y132245D02*
D03*
X30500Y118245D02*
D03*
X29000Y122745D02*
D03*
X175500Y120245D02*
D03*
X146500Y166745D02*
D03*
X249500Y146745D02*
D03*
X227500Y135745D02*
D03*
X99500Y181245D02*
D03*
X189000Y176745D02*
D03*
X197000Y179745D02*
D03*
X189000Y142245D02*
D03*
X182500Y147745D02*
D03*
X185000Y152745D02*
D03*
X101772Y38017D02*
D03*
X95000Y33145D02*
D03*
X110000Y77245D02*
D03*
X70200Y54345D02*
D03*
X51912Y54608D02*
D03*
X75000Y49745D02*
D03*
X52500Y50045D02*
D03*
X244900Y132545D02*
D03*
X248400Y130145D02*
D03*
X133700Y29445D02*
D03*
X118000Y51345D02*
D03*
X79900Y32945D02*
D03*
X189000Y125245D02*
D03*
X188700Y120145D02*
D03*
X175500Y110295D02*
D03*
X175300Y105245D02*
D03*
X268000Y124645D02*
D03*
X227800Y127945D02*
D03*
D60*
X263500Y78000D02*
D03*
M02*
