G04*
G04 #@! TF.GenerationSoftware,Altium Limited,Altium Designer,19.1.7 (138)*
G04*
G04 Layer_Color=8421504*
%FSLAX25Y25*%
%MOIN*%
G70*
G01*
G75*
%ADD15R,0.03150X0.03150*%
%ADD16R,0.02362X0.05709*%
%ADD17R,0.05709X0.02362*%
%ADD18R,0.04724X0.06102*%
%ADD19R,0.06102X0.04724*%
%ADD20R,0.03740X0.04134*%
%ADD21R,0.04134X0.03937*%
%ADD22R,0.04134X0.03740*%
%ADD23R,0.03937X0.04134*%
%ADD24R,0.03347X0.03543*%
D15*
X258300Y77800D02*
D03*
X251800D02*
D03*
D16*
X56000Y83972D02*
D03*
X61000D02*
D03*
X66000D02*
D03*
X71000D02*
D03*
X76000D02*
D03*
X81000D02*
D03*
X86000D02*
D03*
X91000D02*
D03*
X56000Y105428D02*
D03*
X61000D02*
D03*
X66000D02*
D03*
X71000D02*
D03*
X76000D02*
D03*
X81000D02*
D03*
X86000D02*
D03*
X91000D02*
D03*
X60000Y37972D02*
D03*
X65000D02*
D03*
X70000D02*
D03*
X75000D02*
D03*
X80000D02*
D03*
X85000D02*
D03*
X90000D02*
D03*
X95000D02*
D03*
X60000Y59428D02*
D03*
X65000D02*
D03*
X70000D02*
D03*
X75000D02*
D03*
X80000D02*
D03*
X85000D02*
D03*
X90000D02*
D03*
X95000D02*
D03*
D17*
X133972Y140200D02*
D03*
Y135200D02*
D03*
Y130200D02*
D03*
Y125200D02*
D03*
Y120200D02*
D03*
Y115200D02*
D03*
Y110200D02*
D03*
Y105200D02*
D03*
X155428Y140200D02*
D03*
Y135200D02*
D03*
Y130200D02*
D03*
Y125200D02*
D03*
Y120200D02*
D03*
Y115200D02*
D03*
Y110200D02*
D03*
Y105200D02*
D03*
X193972Y140200D02*
D03*
Y135200D02*
D03*
Y130200D02*
D03*
Y125200D02*
D03*
Y120200D02*
D03*
Y115200D02*
D03*
Y110200D02*
D03*
Y105200D02*
D03*
X215428Y140200D02*
D03*
Y135200D02*
D03*
Y130200D02*
D03*
Y125200D02*
D03*
Y120200D02*
D03*
Y115200D02*
D03*
Y110200D02*
D03*
Y105200D02*
D03*
X239572Y139900D02*
D03*
Y134900D02*
D03*
Y129900D02*
D03*
Y124900D02*
D03*
Y119900D02*
D03*
Y114900D02*
D03*
Y109900D02*
D03*
Y104900D02*
D03*
X261028Y139900D02*
D03*
Y134900D02*
D03*
Y129900D02*
D03*
Y124900D02*
D03*
Y119900D02*
D03*
Y114900D02*
D03*
Y109900D02*
D03*
Y104900D02*
D03*
X67828Y132600D02*
D03*
Y137600D02*
D03*
Y142600D02*
D03*
Y147600D02*
D03*
Y152600D02*
D03*
Y157600D02*
D03*
Y162600D02*
D03*
Y167600D02*
D03*
X46372Y132600D02*
D03*
Y137600D02*
D03*
Y142600D02*
D03*
Y147600D02*
D03*
Y152600D02*
D03*
Y157600D02*
D03*
Y162600D02*
D03*
Y167600D02*
D03*
D18*
X118154Y129700D02*
D03*
X124846D02*
D03*
X224153Y120400D02*
D03*
X230847D02*
D03*
X81846Y142200D02*
D03*
X75153D02*
D03*
D19*
X70000Y24354D02*
D03*
Y31047D02*
D03*
X179500Y135947D02*
D03*
Y129253D02*
D03*
X67000Y70553D02*
D03*
Y77246D02*
D03*
D20*
X162146Y144700D02*
D03*
X167854D02*
D03*
X55146Y71200D02*
D03*
X60854D02*
D03*
X221646Y145200D02*
D03*
X227354D02*
D03*
X50146Y116700D02*
D03*
X55854D02*
D03*
X260854Y152200D02*
D03*
X255146D02*
D03*
D21*
X167953Y139700D02*
D03*
X162047D02*
D03*
X60953Y66200D02*
D03*
X55047D02*
D03*
X227453Y139700D02*
D03*
X221547D02*
D03*
X55953Y110200D02*
D03*
X50047D02*
D03*
X255047Y146700D02*
D03*
X260953D02*
D03*
D22*
X30700Y138254D02*
D03*
Y132546D02*
D03*
D23*
X37500Y132747D02*
D03*
Y138653D02*
D03*
D24*
X246851Y77800D02*
D03*
X240749D02*
D03*
M02*
