M48
;Layer_Color=37055
;FILE_FORMAT=2:5
INCH,LZ
;TYPE=PLATED
T1F00S00C0.01500
T2F00S00C0.02800
T3F00S00C0.03150
T4F00S00C0.04016
T5F00S00C0.04016
T6F00S00C0.04291
T7F00S00C0.05118
T8F00S00C0.15748
%
T01
X00625Y0029745
X00799Y0032945
X008Y0046745
X0075Y0049745
X00702Y0054345
X0051912Y0054608
X00525Y0050045
X00523Y0046545
X0054Y0060245
X0052129Y0078116
X0042Y0076045
Y0090245
X00383Y0100545
X00345Y0105245
X00385Y0109245
X00421Y0113345
X0045764Y0117745
X0045516Y0125245
X0046Y0128245
X0039
Y0125245
X0029Y0122745
X00305Y0118245
X00307Y0143945
X0039Y0152745
X0057
X006Y0146745
X0059Y0132245
X0056Y0125745
X00525
X00625Y0118745
Y0115245
X0050146Y0105891
X0052Y0101245
X00625Y0089245
X0081Y01
X0086
X0091
Y0112
X0086Y01115
X0081
X0095Y0116745
X0111
X01125Y0101245
X0131
X0128Y0109245
X01275Y0122745
X01385Y0127745
X0146Y0130245
X0148Y0135245
X01385Y0140245
X0138Y0151745
X0146311Y0152245
X0126854Y0152391
X0111Y0146745
X0103Y0146245
X00985
X0100772Y0084017
X011Y0077245
X0095Y0066
X009Y00655
X00855
X0095Y0033145
X0101772Y0038017
X0118Y0051345
X01337Y0029445
X0139Y0105245
X01485
X0146Y0115245
X01415Y0118245
X01485Y0120245
X0162Y0125245
X01735Y0127745
X01755Y0120245
Y0115245
Y0110295
X01753Y0105245
X0193972Y0100774
X0209Y0105245
X0209Y0110245
Y0115245
Y0120245
X02025Y0125745
X02075Y0130745
X021Y0140245
X0202Y0150745
X01975Y0150245
X0185Y0152745
X01825Y0147745
X01775
X0167854Y01486
X0157Y0149745
X0189Y0142245
X01875Y0137745
X0189Y0125245
X01887Y0120145
X0224Y0115245
Y0110245
Y0105245
X0239546Y0100428
X0255Y0105245
Y0109745
Y0115245
X0252Y0130745
X02484Y0130145
X02449Y0132545
X02495Y0146745
X025Y0151745
X02275Y0135745
X02278Y0127945
X0268Y0124645
X0197Y0179745
X0189Y0176745
X01625Y0167656
X016Y0156745
X0172
X01465Y0166745
X0138
X00995Y0181245
X0068Y0174245
X00545Y01675
Y01625
Y0158
T02
X02635Y0078
T03
X00305Y00345
Y00422
X00383
Y00345
Y00501
X00305
X00304Y0058
X00382
Y00659
X00304
X00305Y00738
X00383
Y00817
X00305
Y00896
X00383
Y00975
X00305
Y01054
X00383
Y01133
X00305
X01583Y01642
Y0172
X01662Y01719
Y01641
X01741
Y01719
X0182
Y01641
X01899
Y01719
X01978
Y01641
X02057
Y01719
X01504Y0172
Y01642
X01425Y01641
Y01719
X01346
X01269
Y01641
X01346
T04
X0047Y01897
X0057
X0067
T05
X01412Y00465
X01512
Y00565
X01412
X01612
X01712
X01812
X01912
Y00465
X01812
X01712
X01612
X02541Y01659
X02641
T06
X02495Y00505
Y00605
T07
X0081Y01637
X00948
X01086
T08
X00235Y00128
X02642Y00126
X02641Y01852
X00234
M30
