G04*
G04 #@! TF.GenerationSoftware,Altium Limited,Altium Designer,19.1.7 (138)*
G04*
G04 Layer_Color=8388736*
%FSLAX25Y25*%
%MOIN*%
G70*
G01*
G75*
%ADD25R,0.03950X0.03950*%
%ADD26R,0.03162X0.06509*%
%ADD27R,0.06509X0.03162*%
%ADD28R,0.05524X0.06902*%
%ADD29R,0.06902X0.05524*%
%ADD30R,0.04540X0.04934*%
%ADD31R,0.04934X0.04737*%
%ADD32R,0.04934X0.04540*%
%ADD33R,0.04737X0.04934*%
%ADD34R,0.04147X0.04343*%
%ADD35C,0.05131*%
%ADD36C,0.06706*%
%ADD37C,0.04200*%
%ADD38C,0.07099*%
%ADD39R,0.07099X0.07099*%
%ADD40C,0.04737*%
%ADD41C,0.17335*%
%ADD42C,0.02800*%
D25*
X258300Y77800D02*
D03*
X251800D02*
D03*
D26*
X56000Y83972D02*
D03*
X61000D02*
D03*
X66000D02*
D03*
X71000D02*
D03*
X76000D02*
D03*
X81000D02*
D03*
X86000D02*
D03*
X91000D02*
D03*
X56000Y105428D02*
D03*
X61000D02*
D03*
X66000D02*
D03*
X71000D02*
D03*
X76000D02*
D03*
X81000D02*
D03*
X86000D02*
D03*
X91000D02*
D03*
X60000Y37972D02*
D03*
X65000D02*
D03*
X70000D02*
D03*
X75000D02*
D03*
X80000D02*
D03*
X85000D02*
D03*
X90000D02*
D03*
X95000D02*
D03*
X60000Y59428D02*
D03*
X65000D02*
D03*
X70000D02*
D03*
X75000D02*
D03*
X80000D02*
D03*
X85000D02*
D03*
X90000D02*
D03*
X95000D02*
D03*
D27*
X133972Y140200D02*
D03*
Y135200D02*
D03*
Y130200D02*
D03*
Y125200D02*
D03*
Y120200D02*
D03*
Y115200D02*
D03*
Y110200D02*
D03*
Y105200D02*
D03*
X155428Y140200D02*
D03*
Y135200D02*
D03*
Y130200D02*
D03*
Y125200D02*
D03*
Y120200D02*
D03*
Y115200D02*
D03*
Y110200D02*
D03*
Y105200D02*
D03*
X193972Y140200D02*
D03*
Y135200D02*
D03*
Y130200D02*
D03*
Y125200D02*
D03*
Y120200D02*
D03*
Y115200D02*
D03*
Y110200D02*
D03*
Y105200D02*
D03*
X215428Y140200D02*
D03*
Y135200D02*
D03*
Y130200D02*
D03*
Y125200D02*
D03*
Y120200D02*
D03*
Y115200D02*
D03*
Y110200D02*
D03*
Y105200D02*
D03*
X239572Y139900D02*
D03*
Y134900D02*
D03*
Y129900D02*
D03*
Y124900D02*
D03*
Y119900D02*
D03*
Y114900D02*
D03*
Y109900D02*
D03*
Y104900D02*
D03*
X261028Y139900D02*
D03*
Y134900D02*
D03*
Y129900D02*
D03*
Y124900D02*
D03*
Y119900D02*
D03*
Y114900D02*
D03*
Y109900D02*
D03*
Y104900D02*
D03*
X67828Y132600D02*
D03*
Y137600D02*
D03*
Y142600D02*
D03*
Y147600D02*
D03*
Y152600D02*
D03*
Y157600D02*
D03*
Y162600D02*
D03*
Y167600D02*
D03*
X46372Y132600D02*
D03*
Y137600D02*
D03*
Y142600D02*
D03*
Y147600D02*
D03*
Y152600D02*
D03*
Y157600D02*
D03*
Y162600D02*
D03*
Y167600D02*
D03*
D28*
X118154Y129700D02*
D03*
X124846D02*
D03*
X224153Y120400D02*
D03*
X230847D02*
D03*
X81846Y142200D02*
D03*
X75153D02*
D03*
D29*
X70000Y24354D02*
D03*
Y31047D02*
D03*
X179500Y135947D02*
D03*
Y129253D02*
D03*
X67000Y70553D02*
D03*
Y77246D02*
D03*
D30*
X162146Y144700D02*
D03*
X167854D02*
D03*
X55146Y71200D02*
D03*
X60854D02*
D03*
X221646Y145200D02*
D03*
X227354D02*
D03*
X50146Y116700D02*
D03*
X55854D02*
D03*
X260854Y152200D02*
D03*
X255146D02*
D03*
D31*
X167953Y139700D02*
D03*
X162047D02*
D03*
X60953Y66200D02*
D03*
X55047D02*
D03*
X227453Y139700D02*
D03*
X221547D02*
D03*
X55953Y110200D02*
D03*
X50047D02*
D03*
X255047Y146700D02*
D03*
X260953D02*
D03*
D32*
X30700Y138254D02*
D03*
Y132546D02*
D03*
D33*
X37500Y132747D02*
D03*
Y138653D02*
D03*
D34*
X246851Y77800D02*
D03*
X240749D02*
D03*
D35*
X191200Y46500D02*
D03*
Y56500D02*
D03*
X181200D02*
D03*
Y46500D02*
D03*
X171200D02*
D03*
Y56500D02*
D03*
X161200D02*
D03*
Y46500D02*
D03*
X151200D02*
D03*
Y56500D02*
D03*
X141200D02*
D03*
Y46500D02*
D03*
X254100Y165900D02*
D03*
X264100D02*
D03*
D36*
X81000Y163700D02*
D03*
X94800D02*
D03*
X108600D02*
D03*
D37*
X205700Y171900D02*
D03*
X197800D02*
D03*
X182000D02*
D03*
X189900D02*
D03*
X174100D02*
D03*
X166200D02*
D03*
X150400Y172000D02*
D03*
X158300D02*
D03*
X142500Y171900D02*
D03*
X134600D02*
D03*
X126900D02*
D03*
Y164100D02*
D03*
X134600D02*
D03*
X142500D02*
D03*
X158300Y164200D02*
D03*
X150400D02*
D03*
X166200Y164100D02*
D03*
X174100D02*
D03*
X189900D02*
D03*
X182000D02*
D03*
X197800D02*
D03*
X205700D02*
D03*
X38300Y113300D02*
D03*
Y105400D02*
D03*
Y89600D02*
D03*
Y97500D02*
D03*
Y81700D02*
D03*
Y73800D02*
D03*
X38200Y58000D02*
D03*
Y65900D02*
D03*
X38300Y50100D02*
D03*
Y42200D02*
D03*
Y34500D02*
D03*
X30500D02*
D03*
Y42200D02*
D03*
Y50100D02*
D03*
X30400Y65900D02*
D03*
Y58000D02*
D03*
X30500Y73800D02*
D03*
Y81700D02*
D03*
Y97500D02*
D03*
Y89600D02*
D03*
Y105400D02*
D03*
Y113300D02*
D03*
D38*
X249500Y50500D02*
D03*
D39*
Y60500D02*
D03*
D40*
X47000Y189700D02*
D03*
X57000D02*
D03*
X67000D02*
D03*
D41*
X23400Y185200D02*
D03*
X264100D02*
D03*
X23500Y12800D02*
D03*
X264200Y12600D02*
D03*
D42*
X138500Y127745D02*
D03*
Y140245D02*
D03*
X138000Y166745D02*
D03*
X160000Y156745D02*
D03*
X209000Y110245D02*
D03*
X141500Y118245D02*
D03*
X224000Y110245D02*
D03*
X255000Y109745D02*
D03*
Y105245D02*
D03*
X224000D02*
D03*
X209000Y105245D02*
D03*
X209000Y115245D02*
D03*
X175500D02*
D03*
X128000Y109245D02*
D03*
X127500Y122745D02*
D03*
X139000Y105245D02*
D03*
X131000Y101245D02*
D03*
X111000Y146745D02*
D03*
X103000Y146245D02*
D03*
X98500D02*
D03*
X68000Y174245D02*
D03*
X100772Y84017D02*
D03*
X239546Y100428D02*
D03*
X193972Y100774D02*
D03*
X111000Y116745D02*
D03*
X95000D02*
D03*
X252000Y130745D02*
D03*
X250000Y151745D02*
D03*
X30700Y143945D02*
D03*
X157000Y149745D02*
D03*
X126854Y152391D02*
D03*
X138000Y151745D02*
D03*
X148500Y120245D02*
D03*
X146000Y130245D02*
D03*
X148000Y135245D02*
D03*
X146311Y152245D02*
D03*
X173500Y127745D02*
D03*
X162500Y167656D02*
D03*
X187500Y137745D02*
D03*
X177500Y147745D02*
D03*
X172000Y156745D02*
D03*
X202500Y125745D02*
D03*
X210000Y140245D02*
D03*
X42000Y76045D02*
D03*
X39000Y152745D02*
D03*
X57000D02*
D03*
X60000Y146745D02*
D03*
X112500Y101245D02*
D03*
X62500Y29745D02*
D03*
X52300Y46545D02*
D03*
X80000Y46745D02*
D03*
X39000Y125245D02*
D03*
X42100Y113345D02*
D03*
X56000Y125745D02*
D03*
X62500Y89245D02*
D03*
X42000Y90245D02*
D03*
X45764Y117745D02*
D03*
X34500Y105245D02*
D03*
X38300Y100545D02*
D03*
X52000Y101245D02*
D03*
X50146Y105891D02*
D03*
X62500Y118745D02*
D03*
X39000Y128245D02*
D03*
X46000D02*
D03*
X52129Y78116D02*
D03*
X162000Y125245D02*
D03*
X146000Y115245D02*
D03*
X148500Y105245D02*
D03*
X202000Y150745D02*
D03*
X197500Y150245D02*
D03*
X207500Y130745D02*
D03*
X209000Y120245D02*
D03*
X224000Y115245D02*
D03*
X255000D02*
D03*
X38500Y109245D02*
D03*
X54000Y60245D02*
D03*
X62500Y115245D02*
D03*
X45516Y125245D02*
D03*
X52500Y125745D02*
D03*
X167854Y148600D02*
D03*
X59000Y132245D02*
D03*
X30500Y118245D02*
D03*
X29000Y122745D02*
D03*
X175500Y120245D02*
D03*
X146500Y166745D02*
D03*
X249500Y146745D02*
D03*
X227500Y135745D02*
D03*
X99500Y181245D02*
D03*
X189000Y176745D02*
D03*
X197000Y179745D02*
D03*
X189000Y142245D02*
D03*
X182500Y147745D02*
D03*
X185000Y152745D02*
D03*
X101772Y38017D02*
D03*
X51912Y54608D02*
D03*
X75000Y49745D02*
D03*
X52500Y50045D02*
D03*
X244900Y132545D02*
D03*
X248400Y130145D02*
D03*
X79900Y32945D02*
D03*
X189000Y125245D02*
D03*
X188700Y120145D02*
D03*
X175500Y110295D02*
D03*
X175300Y105245D02*
D03*
M02*
