G04 ---------------------------- Layer name :BOTTOM SOLDER LAYER*
G04 easyEDA 0.1*
G04 Scale: 100 percent, Rotated: No, Reflected: No *
G04 Dimensions in inches *
G04 leading zeros omitted , absolute positions ,2 integer and 4 * 
%FSLAX24Y24*%
%MOIN*%
G90*
G70D02*

%ADD11C,0.086740*%
%ADD12C,0.126110*%
%ADD14C,0.082000*%
%ADD16C,0.073000*%
%ADD18C,0.083000*%
%ADD20R,0.086740X0.106425*%

%LPD*%
G54D11*
G01X13850Y36198D02*
G01X13850Y36001D01*
G01X12850Y36198D02*
G01X12850Y36001D01*
G01X24450Y36198D02*
G01X24450Y36001D01*
G01X23450Y36198D02*
G01X23450Y36001D01*
G01X34850Y36153D02*
G01X34850Y35956D01*
G01X33850Y36153D02*
G01X33850Y35956D01*
G01X18650Y43998D02*
G01X18650Y43801D01*
G01X17650Y43998D02*
G01X17650Y43801D01*
G01X23550Y43998D02*
G01X23550Y43801D01*
G01X22550Y43998D02*
G01X22550Y43801D01*
G54D12*
G01X1700Y44900D03*
G01X1700Y42932D03*
G01X1700Y40900D03*
G01X1700Y38900D03*
G01X1700Y36900D03*
G54D14*
G01X11600Y40900D03*
G01X11600Y43900D03*
G54D16*
G01X7800Y40900D03*
G01X7800Y39900D03*
G54D14*
G01X14000Y40900D03*
G01X14000Y43900D03*
G54D16*
G01X30000Y29900D03*
G01X30000Y28900D03*
G54D14*
G01X19400Y33100D03*
G01X19400Y36100D03*
G54D16*
G01X19400Y29900D03*
G01X19400Y28900D03*
G54D14*
G01X8900Y33100D03*
G01X8900Y36100D03*
G54D16*
G01X8900Y29900D03*
G01X8900Y28900D03*
G54D14*
G01X30000Y33100D03*
G01X30000Y36100D03*
G01X6600Y33100D03*
G01X6600Y36100D03*
G01X17200Y33100D03*
G01X17200Y36100D03*
G01X27900Y33100D03*
G01X27900Y36100D03*
G54D18*
G01X13900Y33800D03*
G01X13900Y30800D03*
G01X24400Y33800D03*
G01X24400Y30800D03*
G01X34800Y33855D03*
G01X34800Y30855D03*
G54D20*
G01X11850Y36100D03*
G01X22450Y36100D03*
G01X32850Y36055D03*
G01X16650Y43900D03*
G01X21550Y43900D03*
G54D18*
G01X11900Y33800D03*
G01X11900Y30800D03*
G01X22400Y33800D03*
G01X22400Y30800D03*
G01X32800Y33855D03*
G01X32800Y30855D03*
G54D12*
G01X11900Y25700D03*
G01X13868Y25700D03*
G01X22400Y25700D03*
G01X24368Y25700D03*
G01X32800Y25700D03*
G01X34768Y25700D03*
G01X1600Y29700D03*
G01X1600Y27732D03*
G01X1600Y25700D03*
G54D14*
G01X17600Y42200D03*
G01X17600Y39200D03*
G01X22500Y42200D03*
G01X22500Y39200D03*

M00*
M02*