G04 ---------------------------- Layer name :TOP SILK LAYER*
G04 easyEDA 0.1*
G04 Scale: 100 percent, Rotated: No, Reflected: No *
G04 Dimensions in inches *
G04 leading zeros omitted , absolute positions ,2 integer and 4 * 
%FSLAX24Y24*%
%MOIN*%
G90*
G70D02*

%ADD10C,0.010000*%
%ADD11C,0.009000*%
%ADD12C,0.015748*%
%ADD13C,0.005000*%
%ADD14C,0.008000*%
%ADD15C,0.007000*%

%LPD*%
G54D10*
G01X3200Y45900D02*
G01X200Y45900D01*
G01X200Y45900D02*
G01X200Y35900D01*
G01X3200Y45900D02*
G01X3200Y35900D01*
G01X3200Y35900D02*
G01X200Y35900D01*
G01X11300Y41400D02*
G01X11300Y43400D01*
G01X11300Y43400D02*
G01X11600Y43400D01*
G01X11600Y43400D02*
G01X11900Y43400D01*
G01X11900Y43400D02*
G01X11900Y41400D01*
G01X11900Y41400D02*
G01X11600Y41400D01*
G01X11600Y41400D02*
G01X11300Y41400D01*
G01X11600Y43400D02*
G01X11600Y43500D01*
G01X11600Y41400D02*
G01X11600Y41300D01*
G01X7300Y39651D02*
G01X8303Y39648D01*
G01X13700Y41400D02*
G01X13700Y43400D01*
G01X13700Y43400D02*
G01X14000Y43400D01*
G01X14000Y43400D02*
G01X14300Y43400D01*
G01X14300Y43400D02*
G01X14300Y41400D01*
G01X14300Y41400D02*
G01X14000Y41400D01*
G01X14000Y41400D02*
G01X13700Y41400D01*
G01X14000Y43400D02*
G01X14000Y43500D01*
G01X14000Y41400D02*
G01X14000Y41300D01*
G01X29500Y28651D02*
G01X30503Y28648D01*
G01X19100Y33600D02*
G01X19100Y35600D01*
G01X19100Y35600D02*
G01X19400Y35600D01*
G01X19400Y35600D02*
G01X19700Y35600D01*
G01X19700Y35600D02*
G01X19700Y33600D01*
G01X19700Y33600D02*
G01X19400Y33600D01*
G01X19400Y33600D02*
G01X19100Y33600D01*
G01X19400Y35600D02*
G01X19400Y35700D01*
G01X19400Y33600D02*
G01X19400Y33500D01*
G01X18900Y28651D02*
G01X19903Y28648D01*
G01X8600Y33600D02*
G01X8600Y35600D01*
G01X8600Y35600D02*
G01X8900Y35600D01*
G01X8900Y35600D02*
G01X9200Y35600D01*
G01X9200Y35600D02*
G01X9200Y33600D01*
G01X9200Y33600D02*
G01X8900Y33600D01*
G01X8900Y33600D02*
G01X8600Y33600D01*
G01X8900Y35600D02*
G01X8900Y35700D01*
G01X8900Y33600D02*
G01X8900Y33500D01*
G01X8400Y28651D02*
G01X9403Y28648D01*
G01X29700Y33600D02*
G01X29700Y35600D01*
G01X29700Y35600D02*
G01X30000Y35600D01*
G01X30000Y35600D02*
G01X30300Y35600D01*
G01X30300Y35600D02*
G01X30300Y33600D01*
G01X30300Y33600D02*
G01X30000Y33600D01*
G01X30000Y33600D02*
G01X29700Y33600D01*
G01X30000Y35600D02*
G01X30000Y35700D01*
G01X30000Y33600D02*
G01X30000Y33500D01*
G01X6300Y33600D02*
G01X6300Y35600D01*
G01X6300Y35600D02*
G01X6600Y35600D01*
G01X6600Y35600D02*
G01X6900Y35600D01*
G01X6900Y35600D02*
G01X6900Y33600D01*
G01X6900Y33600D02*
G01X6600Y33600D01*
G01X6600Y33600D02*
G01X6300Y33600D01*
G01X6600Y35600D02*
G01X6600Y35700D01*
G01X6600Y33600D02*
G01X6600Y33500D01*
G01X16900Y33600D02*
G01X16900Y35600D01*
G01X16900Y35600D02*
G01X17200Y35600D01*
G01X17200Y35600D02*
G01X17500Y35600D01*
G01X17500Y35600D02*
G01X17500Y33600D01*
G01X17500Y33600D02*
G01X17200Y33600D01*
G01X17200Y33600D02*
G01X16900Y33600D01*
G01X17200Y35600D02*
G01X17200Y35700D01*
G01X17200Y33600D02*
G01X17200Y33500D01*
G01X27600Y33600D02*
G01X27600Y35600D01*
G01X27600Y35600D02*
G01X27900Y35600D01*
G01X27900Y35600D02*
G01X28200Y35600D01*
G01X28200Y35600D02*
G01X28200Y33600D01*
G01X28200Y33600D02*
G01X27900Y33600D01*
G01X27900Y33600D02*
G01X27600Y33600D01*
G01X27900Y35600D02*
G01X27900Y35700D01*
G01X27900Y33600D02*
G01X27900Y33500D01*
G54D11*
G01X14350Y33300D02*
G01X14350Y31300D01*
G01X13450Y31300D01*
G01X13450Y33300D01*
G01X14350Y33300D01*
G01X14350Y31550D02*
G01X13450Y31550D01*
G01X24850Y33300D02*
G01X24850Y31300D01*
G01X23950Y31300D01*
G01X23950Y33300D01*
G01X24850Y33300D01*
G01X24850Y31550D02*
G01X23950Y31550D01*
G01X35250Y33355D02*
G01X35250Y31355D01*
G01X34350Y31355D01*
G01X34350Y33355D01*
G01X35250Y33355D01*
G01X35250Y31605D02*
G01X34350Y31605D01*
G54D10*
G01X10763Y37202D02*
G01X14936Y37202D01*
G01X14936Y35312D01*
G01X10763Y35312D01*
G01X10763Y37202D01*
G01X14936Y37005D02*
G01X10763Y37005D01*
G01X21363Y37202D02*
G01X25536Y37202D01*
G01X25536Y35312D01*
G01X21363Y35312D01*
G01X21363Y37202D01*
G01X25536Y37005D02*
G01X21363Y37005D01*
G01X31763Y37157D02*
G01X35936Y37157D01*
G01X35936Y35267D01*
G01X31763Y35267D01*
G01X31763Y37157D01*
G01X35936Y36960D02*
G01X31763Y36960D01*
G01X15563Y45002D02*
G01X19736Y45002D01*
G01X19736Y43112D01*
G01X15563Y43112D01*
G01X15563Y45002D01*
G01X19736Y44805D02*
G01X15563Y44805D01*
G01X20463Y45002D02*
G01X24636Y45002D01*
G01X24636Y43112D01*
G01X20463Y43112D01*
G01X20463Y45002D01*
G01X24636Y44805D02*
G01X20463Y44805D01*
G54D11*
G01X12350Y33300D02*
G01X12350Y31300D01*
G01X11450Y31300D01*
G01X11450Y33300D01*
G01X12350Y33300D01*
G01X12350Y31550D02*
G01X11450Y31550D01*
G01X22850Y33300D02*
G01X22850Y31300D01*
G01X21950Y31300D01*
G01X21950Y33300D01*
G01X22850Y33300D01*
G01X22850Y31550D02*
G01X21950Y31550D01*
G01X33250Y33355D02*
G01X33250Y31355D01*
G01X32350Y31355D01*
G01X32350Y33355D01*
G01X33250Y33355D01*
G01X33250Y31605D02*
G01X32350Y31605D01*
G54D10*
G01X10900Y27200D02*
G01X10900Y24200D01*
G01X10900Y24200D01*
G01X10900Y27200D02*
G01X14900Y27200D01*
G01X10900Y24200D02*
G01X14900Y24200D01*
G01X14900Y27200D02*
G01X14900Y24200D01*
G01X21400Y27200D02*
G01X21400Y24200D01*
G01X21400Y24200D01*
G01X21400Y27200D02*
G01X25400Y27200D01*
G01X21400Y24200D02*
G01X25400Y24200D01*
G01X25400Y27200D02*
G01X25400Y24200D01*
G01X31800Y27200D02*
G01X31800Y24200D01*
G01X31800Y24200D01*
G01X31800Y27200D02*
G01X35800Y27200D01*
G01X31800Y24200D02*
G01X35800Y24200D01*
G01X35800Y27200D02*
G01X35800Y24200D01*
G01X3100Y30700D02*
G01X100Y30700D01*
G01X100Y30700D01*
G01X3100Y30700D02*
G01X3100Y26700D01*
G01X100Y30700D02*
G01X100Y26700D01*
G01X3100Y26700D02*
G01X3100Y24700D01*
G01X100Y26700D02*
G01X100Y24700D01*
G01X3100Y24700D02*
G01X100Y24700D01*
G01X17900Y41700D02*
G01X17900Y39700D01*
G01X17900Y39700D02*
G01X17600Y39700D01*
G01X17600Y39700D02*
G01X17300Y39700D01*
G01X17300Y39700D02*
G01X17300Y41700D01*
G01X17300Y41700D02*
G01X17600Y41700D01*
G01X17600Y41700D02*
G01X17900Y41700D01*
G01X17600Y39700D02*
G01X17600Y39600D01*
G01X17600Y41700D02*
G01X17600Y41800D01*
G01X22800Y41700D02*
G01X22800Y39700D01*
G01X22800Y39700D02*
G01X22500Y39700D01*
G01X22500Y39700D02*
G01X22200Y39700D01*
G01X22200Y39700D02*
G01X22200Y41700D01*
G01X22200Y41700D02*
G01X22500Y41700D01*
G01X22500Y41700D02*
G01X22800Y41700D01*
G01X22500Y39700D02*
G01X22500Y39600D01*
G01X22500Y41700D02*
G01X22500Y41800D01*
G54D13*
G01X29299Y47400D02*
G01X29299Y46970D01*
G01X29299Y46970D02*
G01X29545Y46970D01*
G01X29782Y47256D02*
G01X29741Y47236D01*
G01X29700Y47195D01*
G01X29680Y47134D01*
G01X29680Y47093D01*
G01X29700Y47031D01*
G01X29741Y46990D01*
G01X29782Y46970D01*
G01X29844Y46970D01*
G01X29884Y46990D01*
G01X29925Y47031D01*
G01X29946Y47093D01*
G01X29946Y47134D01*
G01X29925Y47195D01*
G01X29884Y47236D01*
G01X29844Y47256D01*
G01X29782Y47256D01*
G01X30081Y47256D02*
G01X30163Y46970D01*
G01X30244Y47256D02*
G01X30163Y46970D01*
G01X30244Y47256D02*
G01X30326Y46970D01*
G01X30408Y47256D02*
G01X30326Y46970D01*
G01X30858Y47400D02*
G01X31022Y46970D01*
G01X31185Y47400D02*
G01X31022Y46970D01*
G01X31423Y47256D02*
G01X31382Y47236D01*
G01X31341Y47195D01*
G01X31320Y47134D01*
G01X31320Y47093D01*
G01X31341Y47031D01*
G01X31382Y46990D01*
G01X31423Y46970D01*
G01X31484Y46970D01*
G01X31525Y46990D01*
G01X31566Y47031D01*
G01X31586Y47093D01*
G01X31586Y47134D01*
G01X31566Y47195D01*
G01X31525Y47236D01*
G01X31484Y47256D01*
G01X31423Y47256D01*
G01X31721Y47400D02*
G01X31721Y46970D01*
G01X31918Y47400D02*
G01X31918Y47052D01*
G01X31938Y46990D01*
G01X31979Y46970D01*
G01X32020Y46970D01*
G01X31856Y47256D02*
G01X31999Y47256D01*
G01X32400Y47256D02*
G01X32400Y46970D01*
G01X32400Y47195D02*
G01X32359Y47236D01*
G01X32319Y47256D01*
G01X32257Y47256D01*
G01X32216Y47236D01*
G01X32175Y47195D01*
G01X32155Y47134D01*
G01X32155Y47093D01*
G01X32175Y47031D01*
G01X32216Y46990D01*
G01X32257Y46970D01*
G01X32319Y46970D01*
G01X32359Y46990D01*
G01X32400Y47031D01*
G01X32781Y47256D02*
G01X32781Y46929D01*
G01X32760Y46868D01*
G01X32740Y46847D01*
G01X32699Y46827D01*
G01X32638Y46827D01*
G01X32597Y46847D01*
G01X32781Y47195D02*
G01X32740Y47236D01*
G01X32699Y47256D01*
G01X32638Y47256D01*
G01X32597Y47236D01*
G01X32556Y47195D01*
G01X32535Y47134D01*
G01X32535Y47093D01*
G01X32556Y47031D01*
G01X32597Y46990D01*
G01X32638Y46970D01*
G01X32699Y46970D01*
G01X32740Y46990D01*
G01X32781Y47031D01*
G01X32916Y47134D02*
G01X33161Y47134D01*
G01X33161Y47175D01*
G01X33141Y47215D01*
G01X33120Y47236D01*
G01X33079Y47256D01*
G01X33018Y47256D01*
G01X32977Y47236D01*
G01X32936Y47195D01*
G01X32916Y47134D01*
G01X32916Y47093D01*
G01X32936Y47031D01*
G01X32977Y46990D01*
G01X33018Y46970D01*
G01X33079Y46970D01*
G01X33120Y46990D01*
G01X33161Y47031D01*
G01X33611Y47400D02*
G01X33775Y46970D01*
G01X33939Y47400D02*
G01X33775Y46970D01*
G01X34074Y47134D02*
G01X34319Y47134D01*
G01X34319Y47175D01*
G01X34299Y47215D01*
G01X34278Y47236D01*
G01X34237Y47256D01*
G01X34176Y47256D01*
G01X34135Y47236D01*
G01X34094Y47195D01*
G01X34074Y47134D01*
G01X34074Y47093D01*
G01X34094Y47031D01*
G01X34135Y46990D01*
G01X34176Y46970D01*
G01X34237Y46970D01*
G01X34278Y46990D01*
G01X34319Y47031D01*
G01X34454Y47256D02*
G01X34454Y46970D01*
G01X34454Y47134D02*
G01X34474Y47195D01*
G01X34515Y47236D01*
G01X34556Y47256D01*
G01X34618Y47256D01*
G01X35068Y47318D02*
G01X35109Y47338D01*
G01X35170Y47400D01*
G01X35170Y46970D01*
G01X35325Y47072D02*
G01X35305Y47052D01*
G01X35325Y47031D01*
G01X35346Y47052D01*
G01X35325Y47072D01*
G01X35481Y47318D02*
G01X35522Y47338D01*
G01X35583Y47400D01*
G01X35583Y46970D01*
G01X29606Y46447D02*
G01X29586Y46488D01*
G01X29545Y46529D01*
G01X29504Y46550D01*
G01X29422Y46550D01*
G01X29381Y46529D01*
G01X29340Y46488D01*
G01X29320Y46447D01*
G01X29299Y46386D01*
G01X29299Y46284D01*
G01X29320Y46222D01*
G01X29340Y46181D01*
G01X29381Y46140D01*
G01X29422Y46120D01*
G01X29504Y46120D01*
G01X29545Y46140D01*
G01X29586Y46181D01*
G01X29606Y46222D01*
G01X29606Y46284D01*
G01X29504Y46284D02*
G01X29606Y46284D01*
G01X29987Y46406D02*
G01X29987Y46120D01*
G01X29987Y46345D02*
G01X29946Y46386D01*
G01X29905Y46406D01*
G01X29844Y46406D01*
G01X29803Y46386D01*
G01X29762Y46345D01*
G01X29741Y46284D01*
G01X29741Y46243D01*
G01X29762Y46181D01*
G01X29803Y46140D01*
G01X29844Y46120D01*
G01X29905Y46120D01*
G01X29946Y46140D01*
G01X29987Y46181D01*
G01X30122Y46550D02*
G01X30122Y46120D01*
G01X30122Y46345D02*
G01X30163Y46386D01*
G01X30204Y46406D01*
G01X30265Y46406D01*
G01X30306Y46386D01*
G01X30347Y46345D01*
G01X30367Y46284D01*
G01X30367Y46243D01*
G01X30347Y46181D01*
G01X30306Y46140D01*
G01X30265Y46120D01*
G01X30204Y46120D01*
G01X30163Y46140D01*
G01X30122Y46181D01*
G01X30502Y46406D02*
G01X30502Y46120D01*
G01X30502Y46284D02*
G01X30523Y46345D01*
G01X30564Y46386D01*
G01X30604Y46406D01*
G01X30666Y46406D01*
G01X30801Y46550D02*
G01X30821Y46529D01*
G01X30842Y46550D01*
G01X30821Y46570D01*
G01X30801Y46550D01*
G01X30821Y46406D02*
G01X30821Y46120D01*
G01X30977Y46284D02*
G01X31222Y46284D01*
G01X31222Y46325D01*
G01X31202Y46365D01*
G01X31181Y46386D01*
G01X31140Y46406D01*
G01X31079Y46406D01*
G01X31038Y46386D01*
G01X30997Y46345D01*
G01X30977Y46284D01*
G01X30977Y46243D01*
G01X30997Y46181D01*
G01X31038Y46140D01*
G01X31079Y46120D01*
G01X31140Y46120D01*
G01X31181Y46140D01*
G01X31222Y46181D01*
G01X31357Y46550D02*
G01X31357Y46120D01*
G01X32094Y46488D02*
G01X32053Y46529D01*
G01X31991Y46550D01*
G01X31909Y46550D01*
G01X31848Y46529D01*
G01X31807Y46488D01*
G01X31807Y46447D01*
G01X31828Y46406D01*
G01X31848Y46386D01*
G01X31889Y46365D01*
G01X32012Y46325D01*
G01X32053Y46304D01*
G01X32073Y46284D01*
G01X32094Y46243D01*
G01X32094Y46181D01*
G01X32053Y46140D01*
G01X31991Y46120D01*
G01X31909Y46120D01*
G01X31848Y46140D01*
G01X31807Y46181D01*
G01X32331Y46406D02*
G01X32290Y46386D01*
G01X32249Y46345D01*
G01X32229Y46284D01*
G01X32229Y46243D01*
G01X32249Y46181D01*
G01X32290Y46140D01*
G01X32331Y46120D01*
G01X32392Y46120D01*
G01X32433Y46140D01*
G01X32474Y46181D01*
G01X32494Y46243D01*
G01X32494Y46284D01*
G01X32474Y46345D01*
G01X32433Y46386D01*
G01X32392Y46406D01*
G01X32331Y46406D01*
G01X32875Y46406D02*
G01X32875Y46120D01*
G01X32875Y46345D02*
G01X32834Y46386D01*
G01X32793Y46406D01*
G01X32732Y46406D01*
G01X32691Y46386D01*
G01X32650Y46345D01*
G01X32629Y46284D01*
G01X32629Y46243D01*
G01X32650Y46181D01*
G01X32691Y46140D01*
G01X32732Y46120D01*
G01X32793Y46120D01*
G01X32834Y46140D01*
G01X32875Y46181D01*
G01X33010Y46406D02*
G01X33010Y46120D01*
G01X33010Y46284D02*
G01X33030Y46345D01*
G01X33071Y46386D01*
G01X33112Y46406D01*
G01X33174Y46406D01*
G01X33309Y46284D02*
G01X33554Y46284D01*
G01X33554Y46325D01*
G01X33534Y46365D01*
G01X33513Y46386D01*
G01X33472Y46406D01*
G01X33411Y46406D01*
G01X33370Y46386D01*
G01X33329Y46345D01*
G01X33309Y46284D01*
G01X33309Y46243D01*
G01X33329Y46181D01*
G01X33370Y46140D01*
G01X33411Y46120D01*
G01X33472Y46120D01*
G01X33513Y46140D01*
G01X33554Y46181D01*
G01X33914Y46345D02*
G01X33894Y46386D01*
G01X33832Y46406D01*
G01X33771Y46406D01*
G01X33709Y46386D01*
G01X33689Y46345D01*
G01X33709Y46304D01*
G01X33750Y46284D01*
G01X33853Y46263D01*
G01X33894Y46243D01*
G01X33914Y46202D01*
G01X33914Y46181D01*
G01X33894Y46140D01*
G01X33832Y46120D01*
G01X33771Y46120D01*
G01X33709Y46140D01*
G01X33689Y46181D01*
G01X29443Y45700D02*
G01X29443Y45270D01*
G01X29299Y45700D02*
G01X29586Y45700D01*
G01X29721Y45434D02*
G01X29966Y45434D01*
G01X29966Y45475D01*
G01X29946Y45515D01*
G01X29925Y45536D01*
G01X29884Y45556D01*
G01X29823Y45556D01*
G01X29782Y45536D01*
G01X29741Y45495D01*
G01X29721Y45434D01*
G01X29721Y45393D01*
G01X29741Y45331D01*
G01X29782Y45290D01*
G01X29823Y45270D01*
G01X29884Y45270D01*
G01X29925Y45290D01*
G01X29966Y45331D01*
G01X30347Y45556D02*
G01X30347Y45270D01*
G01X30347Y45495D02*
G01X30306Y45536D01*
G01X30265Y45556D01*
G01X30204Y45556D01*
G01X30163Y45536D01*
G01X30122Y45495D01*
G01X30101Y45434D01*
G01X30101Y45393D01*
G01X30122Y45331D01*
G01X30163Y45290D01*
G01X30204Y45270D01*
G01X30265Y45270D01*
G01X30306Y45290D01*
G01X30347Y45331D01*
G01X30482Y45556D02*
G01X30482Y45270D01*
G01X30482Y45475D02*
G01X30543Y45536D01*
G01X30584Y45556D01*
G01X30645Y45556D01*
G01X30686Y45536D01*
G01X30707Y45475D01*
G01X30707Y45270D01*
G01X30707Y45475D02*
G01X30768Y45536D01*
G01X30809Y45556D01*
G01X30870Y45556D01*
G01X30911Y45536D01*
G01X30932Y45475D01*
G01X30932Y45270D01*
G01X31382Y45700D02*
G01X31382Y45270D01*
G01X31382Y45700D02*
G01X31566Y45700D01*
G01X31627Y45679D01*
G01X31648Y45659D01*
G01X31668Y45618D01*
G01X31668Y45556D01*
G01X31648Y45515D01*
G01X31627Y45495D01*
G01X31566Y45475D01*
G01X31382Y45475D01*
G01X31803Y45700D02*
G01X31803Y45270D01*
G01X31803Y45475D02*
G01X31864Y45536D01*
G01X31905Y45556D01*
G01X31967Y45556D01*
G01X32008Y45536D01*
G01X32028Y45475D01*
G01X32028Y45270D01*
G01X32409Y45556D02*
G01X32409Y45270D01*
G01X32409Y45495D02*
G01X32368Y45536D01*
G01X32327Y45556D01*
G01X32265Y45556D01*
G01X32224Y45536D01*
G01X32184Y45495D01*
G01X32163Y45434D01*
G01X32163Y45393D01*
G01X32184Y45331D01*
G01X32224Y45290D01*
G01X32265Y45270D01*
G01X32327Y45270D01*
G01X32368Y45290D01*
G01X32409Y45331D01*
G01X32544Y45556D02*
G01X32544Y45270D01*
G01X32544Y45475D02*
G01X32605Y45536D01*
G01X32646Y45556D01*
G01X32707Y45556D01*
G01X32748Y45536D01*
G01X32769Y45475D01*
G01X32769Y45270D01*
G01X32965Y45700D02*
G01X32965Y45352D01*
G01X32985Y45290D01*
G01X33026Y45270D01*
G01X33067Y45270D01*
G01X32904Y45556D02*
G01X33047Y45556D01*
G01X33304Y45556D02*
G01X33264Y45536D01*
G01X33223Y45495D01*
G01X33202Y45434D01*
G01X33202Y45393D01*
G01X33223Y45331D01*
G01X33264Y45290D01*
G01X33304Y45270D01*
G01X33366Y45270D01*
G01X33407Y45290D01*
G01X33448Y45331D01*
G01X33468Y45393D01*
G01X33468Y45434D01*
G01X33448Y45495D01*
G01X33407Y45536D01*
G01X33366Y45556D01*
G01X33304Y45556D01*
G01X33603Y45556D02*
G01X33603Y45270D01*
G01X33603Y45475D02*
G01X33664Y45536D01*
G01X33705Y45556D01*
G01X33767Y45556D01*
G01X33808Y45536D01*
G01X33828Y45475D01*
G01X33828Y45270D01*
G01X33828Y45475D02*
G01X33889Y45536D01*
G01X33930Y45556D01*
G01X33992Y45556D01*
G01X34033Y45536D01*
G01X34053Y45475D01*
G01X34053Y45270D01*
G01X29586Y44788D02*
G01X29545Y44829D01*
G01X29484Y44850D01*
G01X29402Y44850D01*
G01X29340Y44829D01*
G01X29299Y44788D01*
G01X29299Y44747D01*
G01X29320Y44706D01*
G01X29340Y44686D01*
G01X29381Y44665D01*
G01X29504Y44625D01*
G01X29545Y44604D01*
G01X29565Y44584D01*
G01X29586Y44543D01*
G01X29586Y44481D01*
G01X29545Y44440D01*
G01X29484Y44420D01*
G01X29402Y44420D01*
G01X29340Y44440D01*
G01X29299Y44481D01*
G01X29721Y44850D02*
G01X29721Y44420D01*
G01X29721Y44850D02*
G01X29987Y44850D01*
G01X29721Y44645D02*
G01X29884Y44645D01*
G01X30122Y44850D02*
G01X30122Y44543D01*
G01X30142Y44481D01*
G01X30183Y44440D01*
G01X30244Y44420D01*
G01X30285Y44420D01*
G01X30347Y44440D01*
G01X30388Y44481D01*
G01X30408Y44543D01*
G01X30408Y44850D01*
G01X30858Y44850D02*
G01X30858Y44420D01*
G01X30858Y44850D02*
G01X31124Y44850D01*
G01X30858Y44645D02*
G01X31022Y44645D01*
G01X31361Y44706D02*
G01X31320Y44686D01*
G01X31279Y44645D01*
G01X31259Y44584D01*
G01X31259Y44543D01*
G01X31279Y44481D01*
G01X31320Y44440D01*
G01X31361Y44420D01*
G01X31423Y44420D01*
G01X31464Y44440D01*
G01X31504Y44481D01*
G01X31525Y44543D01*
G01X31525Y44584D01*
G01X31504Y44645D01*
G01X31464Y44686D01*
G01X31423Y44706D01*
G01X31361Y44706D01*
G01X31660Y44706D02*
G01X31660Y44420D01*
G01X31660Y44584D02*
G01X31680Y44645D01*
G01X31721Y44686D01*
G01X31762Y44706D01*
G01X31824Y44706D01*
G01X31959Y44706D02*
G01X31959Y44420D01*
G01X31959Y44625D02*
G01X32020Y44686D01*
G01X32061Y44706D01*
G01X32122Y44706D01*
G01X32163Y44686D01*
G01X32184Y44625D01*
G01X32184Y44420D01*
G01X32184Y44625D02*
G01X32245Y44686D01*
G01X32286Y44706D01*
G01X32347Y44706D01*
G01X32388Y44686D01*
G01X32409Y44625D01*
G01X32409Y44420D01*
G01X32544Y44706D02*
G01X32544Y44502D01*
G01X32564Y44440D01*
G01X32605Y44420D01*
G01X32666Y44420D01*
G01X32707Y44440D01*
G01X32769Y44502D01*
G01X32769Y44706D02*
G01X32769Y44420D01*
G01X32904Y44850D02*
G01X32904Y44420D01*
G01X33284Y44706D02*
G01X33284Y44420D01*
G01X33284Y44645D02*
G01X33243Y44686D01*
G01X33202Y44706D01*
G01X33141Y44706D01*
G01X33100Y44686D01*
G01X33059Y44645D01*
G01X33039Y44584D01*
G01X33039Y44543D01*
G01X33059Y44481D01*
G01X33100Y44440D01*
G01X33141Y44420D01*
G01X33202Y44420D01*
G01X33243Y44440D01*
G01X33284Y44481D01*
G01X34020Y44788D02*
G01X33979Y44829D01*
G01X33918Y44850D01*
G01X33836Y44850D01*
G01X33775Y44829D01*
G01X33734Y44788D01*
G01X33734Y44747D01*
G01X33754Y44706D01*
G01X33775Y44686D01*
G01X33816Y44665D01*
G01X33939Y44625D01*
G01X33979Y44604D01*
G01X34000Y44584D01*
G01X34020Y44543D01*
G01X34020Y44481D01*
G01X33979Y44440D01*
G01X33918Y44420D01*
G01X33836Y44420D01*
G01X33775Y44440D01*
G01X33734Y44481D01*
G01X34319Y44850D02*
G01X34155Y44420D01*
G01X34319Y44850D02*
G01X34483Y44420D01*
G01X34217Y44563D02*
G01X34421Y44563D01*
G01X34618Y44850D02*
G01X34618Y44420D01*
G01X34618Y44850D02*
G01X34884Y44850D01*
G01X34618Y44645D02*
G01X34781Y44645D01*
G01X34618Y44420D02*
G01X34884Y44420D01*
G01X35334Y44850D02*
G01X35334Y44420D01*
G01X35334Y44850D02*
G01X35599Y44850D01*
G01X35334Y44645D02*
G01X35497Y44645D01*
G01X35334Y44420D02*
G01X35599Y44420D01*
G01X35734Y44850D02*
G01X35734Y44420D01*
G01X35869Y44584D02*
G01X36115Y44584D01*
G01X36115Y44625D01*
G01X36094Y44665D01*
G01X36074Y44686D01*
G01X36033Y44706D01*
G01X35972Y44706D01*
G01X35931Y44686D01*
G01X35890Y44645D01*
G01X35869Y44584D01*
G01X35869Y44543D01*
G01X35890Y44481D01*
G01X35931Y44440D01*
G01X35972Y44420D01*
G01X36033Y44420D01*
G01X36074Y44440D01*
G01X36115Y44481D01*
G01X36495Y44645D02*
G01X36454Y44686D01*
G01X36414Y44706D01*
G01X36352Y44706D01*
G01X36311Y44686D01*
G01X36270Y44645D01*
G01X36250Y44584D01*
G01X36250Y44543D01*
G01X36270Y44481D01*
G01X36311Y44440D01*
G01X36352Y44420D01*
G01X36414Y44420D01*
G01X36454Y44440D01*
G01X36495Y44481D01*
G01X36692Y44850D02*
G01X36692Y44502D01*
G01X36712Y44440D01*
G01X36753Y44420D01*
G01X36794Y44420D01*
G01X36630Y44706D02*
G01X36774Y44706D01*
G01X36929Y44706D02*
G01X36929Y44420D01*
G01X36929Y44584D02*
G01X36949Y44645D01*
G01X36990Y44686D01*
G01X37031Y44706D01*
G01X37093Y44706D01*
G01X37228Y44850D02*
G01X37248Y44829D01*
G01X37269Y44850D01*
G01X37248Y44870D01*
G01X37228Y44850D01*
G01X37248Y44706D02*
G01X37248Y44420D01*
G01X37649Y44645D02*
G01X37608Y44686D01*
G01X37567Y44706D01*
G01X37506Y44706D01*
G01X37465Y44686D01*
G01X37424Y44645D01*
G01X37404Y44584D01*
G01X37404Y44543D01*
G01X37424Y44481D01*
G01X37465Y44440D01*
G01X37506Y44420D01*
G01X37567Y44420D01*
G01X37608Y44440D01*
G01X37649Y44481D01*
G54D14*
G01X3800Y45300D02*
G01X3800Y45013D01*
G01X3800Y45300D02*
G01X3909Y45013D01*
G01X4017Y45300D02*
G01X3909Y45013D01*
G01X4017Y45300D02*
G01X4017Y45013D01*
G01X4190Y45300D02*
G01X4163Y45286D01*
G01X4134Y45259D01*
G01X4121Y45230D01*
G01X4107Y45190D01*
G01X4107Y45121D01*
G01X4121Y45080D01*
G01X4134Y45054D01*
G01X4163Y45027D01*
G01X4190Y45013D01*
G01X4244Y45013D01*
G01X4271Y45027D01*
G01X4298Y45054D01*
G01X4313Y45080D01*
G01X4326Y45121D01*
G01X4326Y45190D01*
G01X4313Y45230D01*
G01X4298Y45259D01*
G01X4271Y45286D01*
G01X4244Y45300D01*
G01X4190Y45300D01*
G01X4511Y45300D02*
G01X4511Y45013D01*
G01X4415Y45300D02*
G01X4606Y45300D01*
G01X4778Y45300D02*
G01X4752Y45286D01*
G01X4725Y45259D01*
G01X4710Y45230D01*
G01X4697Y45190D01*
G01X4697Y45121D01*
G01X4710Y45080D01*
G01X4725Y45054D01*
G01X4752Y45027D01*
G01X4778Y45013D01*
G01X4834Y45013D01*
G01X4860Y45027D01*
G01X4888Y45054D01*
G01X4902Y45080D01*
G01X4914Y45121D01*
G01X4914Y45190D01*
G01X4902Y45230D01*
G01X4888Y45259D01*
G01X4860Y45286D01*
G01X4834Y45300D01*
G01X4778Y45300D01*
G01X5005Y45300D02*
G01X5005Y45013D01*
G01X5005Y45300D02*
G01X5127Y45300D01*
G01X5168Y45286D01*
G01X5182Y45271D01*
G01X5196Y45244D01*
G01X5196Y45217D01*
G01X5182Y45190D01*
G01X5168Y45177D01*
G01X5127Y45163D01*
G01X5005Y45163D01*
G01X5101Y45163D02*
G01X5196Y45013D01*
G01X5701Y45230D02*
G01X5686Y45259D01*
G01X5660Y45286D01*
G01X5632Y45300D01*
G01X5577Y45300D01*
G01X5551Y45286D01*
G01X5523Y45259D01*
G01X5510Y45230D01*
G01X5496Y45190D01*
G01X5496Y45121D01*
G01X5510Y45080D01*
G01X5523Y45054D01*
G01X5551Y45027D01*
G01X5577Y45013D01*
G01X5632Y45013D01*
G01X5660Y45027D01*
G01X5686Y45054D01*
G01X5701Y45080D01*
G01X5872Y45300D02*
G01X5844Y45286D01*
G01X5818Y45259D01*
G01X5805Y45230D01*
G01X5790Y45190D01*
G01X5790Y45121D01*
G01X5805Y45080D01*
G01X5818Y45054D01*
G01X5844Y45027D01*
G01X5872Y45013D01*
G01X5927Y45013D01*
G01X5955Y45027D01*
G01X5981Y45054D01*
G01X5994Y45080D01*
G01X6009Y45121D01*
G01X6009Y45190D01*
G01X5994Y45230D01*
G01X5981Y45259D01*
G01X5955Y45286D01*
G01X5927Y45300D01*
G01X5872Y45300D01*
G01X6098Y45300D02*
G01X6098Y45013D01*
G01X6098Y45300D02*
G01X6289Y45013D01*
G01X6289Y45300D02*
G01X6289Y45013D01*
G01X6475Y45300D02*
G01X6475Y45013D01*
G01X6380Y45300D02*
G01X6571Y45300D01*
G01X6660Y45300D02*
G01X6660Y45013D01*
G01X6660Y45300D02*
G01X6784Y45300D01*
G01X6825Y45286D01*
G01X6838Y45271D01*
G01X6852Y45244D01*
G01X6852Y45217D01*
G01X6838Y45190D01*
G01X6825Y45177D01*
G01X6784Y45163D01*
G01X6660Y45163D01*
G01X6756Y45163D02*
G01X6852Y45013D01*
G01X7023Y45300D02*
G01X6996Y45286D01*
G01X6968Y45259D01*
G01X6955Y45230D01*
G01X6942Y45190D01*
G01X6942Y45121D01*
G01X6955Y45080D01*
G01X6968Y45054D01*
G01X6996Y45027D01*
G01X7023Y45013D01*
G01X7077Y45013D01*
G01X7105Y45027D01*
G01X7132Y45054D01*
G01X7146Y45080D01*
G01X7160Y45121D01*
G01X7160Y45190D01*
G01X7146Y45230D01*
G01X7132Y45259D01*
G01X7105Y45286D01*
G01X7077Y45300D01*
G01X7023Y45300D01*
G01X7250Y45300D02*
G01X7250Y45013D01*
G01X7250Y45013D02*
G01X7414Y45013D01*
G01X7503Y45300D02*
G01X7503Y45013D01*
G01X7503Y45013D02*
G01X7667Y45013D01*
G01X7756Y45300D02*
G01X7756Y45013D01*
G01X7756Y45300D02*
G01X7935Y45300D01*
G01X7756Y45163D02*
G01X7865Y45163D01*
G01X7756Y45013D02*
G01X7935Y45013D01*
G01X8025Y45300D02*
G01X8025Y45013D01*
G01X8025Y45300D02*
G01X8147Y45300D01*
G01X8188Y45286D01*
G01X8202Y45271D01*
G01X8214Y45244D01*
G01X8214Y45217D01*
G01X8202Y45190D01*
G01X8188Y45177D01*
G01X8147Y45163D01*
G01X8025Y45163D01*
G01X8119Y45163D02*
G01X8214Y45013D01*
G01X3800Y44600D02*
G01X3800Y44313D01*
G01X3800Y44600D02*
G01X3976Y44600D01*
G01X3800Y44463D02*
G01X3909Y44463D01*
G01X3800Y44313D02*
G01X3976Y44313D01*
G01X4067Y44600D02*
G01X4067Y44313D01*
G01X4067Y44600D02*
G01X4257Y44313D01*
G01X4257Y44600D02*
G01X4257Y44313D01*
G01X4457Y44600D02*
G01X4348Y44313D01*
G01X4457Y44600D02*
G01X4565Y44313D01*
G01X4388Y44409D02*
G01X4525Y44409D01*
G01X4656Y44600D02*
G01X4656Y44313D01*
G01X4656Y44600D02*
G01X4778Y44600D01*
G01X4819Y44586D01*
G01X4834Y44571D01*
G01X4847Y44544D01*
G01X4847Y44517D01*
G01X4834Y44490D01*
G01X4819Y44477D01*
G01X4778Y44463D01*
G01X4656Y44463D02*
G01X4778Y44463D01*
G01X4819Y44450D01*
G01X4834Y44436D01*
G01X4847Y44409D01*
G01X4847Y44367D01*
G01X4834Y44340D01*
G01X4819Y44327D01*
G01X4778Y44313D01*
G01X4656Y44313D01*
G01X4936Y44600D02*
G01X4936Y44313D01*
G01X4936Y44313D02*
G01X5101Y44313D01*
G01X5190Y44600D02*
G01X5190Y44313D01*
G01X5190Y44600D02*
G01X5368Y44600D01*
G01X5190Y44463D02*
G01X5300Y44463D01*
G01X5190Y44313D02*
G01X5368Y44313D01*
G01X5750Y44600D02*
G01X5722Y44586D01*
G01X5694Y44559D01*
G01X5681Y44530D01*
G01X5668Y44490D01*
G01X5668Y44421D01*
G01X5681Y44380D01*
G01X5694Y44354D01*
G01X5722Y44327D01*
G01X5750Y44313D01*
G01X5805Y44313D01*
G01X5831Y44327D01*
G01X5859Y44354D01*
G01X5872Y44380D01*
G01X5885Y44421D01*
G01X5885Y44490D01*
G01X5872Y44530D01*
G01X5859Y44559D01*
G01X5831Y44586D01*
G01X5805Y44600D01*
G01X5750Y44600D01*
G01X5976Y44600D02*
G01X5976Y44394D01*
G01X5989Y44354D01*
G01X6017Y44327D01*
G01X6057Y44313D01*
G01X6085Y44313D01*
G01X6126Y44327D01*
G01X6153Y44354D01*
G01X6167Y44394D01*
G01X6167Y44600D01*
G01X6352Y44600D02*
G01X6352Y44313D01*
G01X6256Y44600D02*
G01X6447Y44600D01*
G01X6538Y44600D02*
G01X6538Y44313D01*
G01X6538Y44600D02*
G01X6660Y44600D01*
G01X6702Y44586D01*
G01X6714Y44571D01*
G01X6728Y44544D01*
G01X6728Y44504D01*
G01X6714Y44477D01*
G01X6702Y44463D01*
G01X6660Y44450D01*
G01X6538Y44450D01*
G01X6818Y44600D02*
G01X6818Y44394D01*
G01X6832Y44354D01*
G01X6860Y44327D01*
G01X6901Y44313D01*
G01X6927Y44313D01*
G01X6968Y44327D01*
G01X6996Y44354D01*
G01X7010Y44394D01*
G01X7010Y44600D01*
G01X7194Y44600D02*
G01X7194Y44313D01*
G01X7100Y44600D02*
G01X7290Y44600D01*
G01X3663Y25945D02*
G01X3663Y25617D01*
G01X3500Y25781D02*
G01X3826Y25781D01*
G01X3965Y25908D02*
G01X3965Y25926D01*
G01X3984Y25963D01*
G01X4001Y25981D01*
G01X4038Y25999D01*
G01X4111Y25999D01*
G01X4146Y25981D01*
G01X4165Y25963D01*
G01X4184Y25926D01*
G01X4184Y25890D01*
G01X4165Y25854D01*
G01X4128Y25799D01*
G01X3946Y25617D01*
G01X4201Y25617D01*
G01X4503Y25999D02*
G01X4321Y25745D01*
G01X4594Y25745D01*
G01X4503Y25999D02*
G01X4503Y25617D01*
G01X4714Y25999D02*
G01X4860Y25617D01*
G01X5005Y25999D02*
G01X4860Y25617D01*
G01X3663Y28046D02*
G01X3663Y27718D01*
G01X3500Y27882D02*
G01X3826Y27882D01*
G01X4165Y28100D02*
G01X3984Y28100D01*
G01X3965Y27937D01*
G01X3984Y27955D01*
G01X4038Y27973D01*
G01X4092Y27973D01*
G01X4146Y27955D01*
G01X4184Y27918D01*
G01X4201Y27864D01*
G01X4201Y27827D01*
G01X4184Y27773D01*
G01X4146Y27737D01*
G01X4092Y27718D01*
G01X4038Y27718D01*
G01X3984Y27737D01*
G01X3965Y27755D01*
G01X3946Y27791D01*
G01X4321Y28100D02*
G01X4467Y27718D01*
G01X4613Y28100D02*
G01X4467Y27718D01*
G01X3873Y30008D02*
G01X3855Y30045D01*
G01X3817Y30081D01*
G01X3782Y30099D01*
G01X3709Y30099D01*
G01X3673Y30081D01*
G01X3636Y30045D01*
G01X3617Y30008D01*
G01X3600Y29954D01*
G01X3600Y29863D01*
G01X3617Y29808D01*
G01X3636Y29772D01*
G01X3673Y29736D01*
G01X3709Y29717D01*
G01X3782Y29717D01*
G01X3817Y29736D01*
G01X3855Y29772D01*
G01X3873Y29808D01*
G01X3873Y29863D01*
G01X3782Y29863D02*
G01X3873Y29863D01*
G01X3992Y30099D02*
G01X3992Y29717D01*
G01X3992Y30099D02*
G01X4246Y29717D01*
G01X4246Y30099D02*
G01X4246Y29717D01*
G01X4367Y30099D02*
G01X4367Y29717D01*
G01X4367Y30099D02*
G01X4494Y30099D01*
G01X4548Y30081D01*
G01X4584Y30045D01*
G01X4603Y30008D01*
G01X4622Y29954D01*
G01X4622Y29863D01*
G01X4603Y29808D01*
G01X4584Y29772D01*
G01X4548Y29736D01*
G01X4494Y29717D01*
G01X4367Y29717D01*
G54D15*
G01X11400Y27844D02*
G01X11400Y27415D01*
G01X11685Y27844D02*
G01X11400Y27559D01*
G01X11502Y27661D02*
G01X11685Y27415D01*
G01X11821Y27763D02*
G01X11861Y27784D01*
G01X11923Y27844D01*
G01X11923Y27415D01*
G01X12243Y27784D02*
G01X12243Y27415D01*
G01X12059Y27600D02*
G01X12427Y27600D01*
G01X13400Y27844D02*
G01X13400Y27415D01*
G01X13685Y27844D02*
G01X13400Y27559D01*
G01X13502Y27661D02*
G01X13685Y27415D01*
G01X13821Y27763D02*
G01X13861Y27784D01*
G01X13923Y27844D01*
G01X13923Y27415D01*
G01X14059Y27600D02*
G01X14427Y27600D01*
G01X22000Y27944D02*
G01X22000Y27515D01*
G01X22285Y27944D02*
G01X22000Y27659D01*
G01X22102Y27761D02*
G01X22285Y27515D01*
G01X22442Y27842D02*
G01X22442Y27863D01*
G01X22461Y27905D01*
G01X22482Y27925D01*
G01X22523Y27944D01*
G01X22605Y27944D01*
G01X22646Y27925D01*
G01X22667Y27905D01*
G01X22686Y27863D01*
G01X22686Y27823D01*
G01X22667Y27782D01*
G01X22626Y27719D01*
G01X22421Y27515D01*
G01X22707Y27515D01*
G01X23027Y27884D02*
G01X23027Y27515D01*
G01X22843Y27700D02*
G01X23210Y27700D01*
G01X24000Y27944D02*
G01X24000Y27515D01*
G01X24285Y27944D02*
G01X24000Y27659D01*
G01X24102Y27761D02*
G01X24285Y27515D01*
G01X24442Y27842D02*
G01X24442Y27863D01*
G01X24461Y27905D01*
G01X24482Y27925D01*
G01X24523Y27944D01*
G01X24605Y27944D01*
G01X24646Y27925D01*
G01X24667Y27905D01*
G01X24686Y27863D01*
G01X24686Y27823D01*
G01X24667Y27782D01*
G01X24626Y27719D01*
G01X24421Y27515D01*
G01X24707Y27515D01*
G01X24843Y27700D02*
G01X25210Y27700D01*
G01X32500Y27844D02*
G01X32500Y27415D01*
G01X32785Y27844D02*
G01X32500Y27559D01*
G01X32602Y27661D02*
G01X32785Y27415D01*
G01X32961Y27844D02*
G01X33186Y27844D01*
G01X33064Y27682D01*
G01X33126Y27682D01*
G01X33167Y27661D01*
G01X33186Y27640D01*
G01X33207Y27580D01*
G01X33207Y27538D01*
G01X33186Y27477D01*
G01X33146Y27436D01*
G01X33085Y27415D01*
G01X33023Y27415D01*
G01X32961Y27436D01*
G01X32942Y27457D01*
G01X32921Y27498D01*
G01X33527Y27784D02*
G01X33527Y27415D01*
G01X33343Y27600D02*
G01X33710Y27600D01*
G01X34500Y27844D02*
G01X34500Y27415D01*
G01X34785Y27844D02*
G01X34500Y27559D01*
G01X34602Y27661D02*
G01X34785Y27415D01*
G01X34961Y27844D02*
G01X35186Y27844D01*
G01X35064Y27682D01*
G01X35126Y27682D01*
G01X35167Y27661D01*
G01X35186Y27640D01*
G01X35207Y27580D01*
G01X35207Y27538D01*
G01X35186Y27477D01*
G01X35146Y27436D01*
G01X35085Y27415D01*
G01X35023Y27415D01*
G01X34961Y27436D01*
G01X34942Y27457D01*
G01X34921Y27498D01*
G01X35343Y27600D02*
G01X35710Y27600D01*
G54D14*
G01X3800Y43363D02*
G01X3800Y43077D01*
G01X3800Y43363D02*
G01X3909Y43077D01*
G01X4017Y43363D02*
G01X3909Y43077D01*
G01X4017Y43363D02*
G01X4017Y43077D01*
G01X4190Y43363D02*
G01X4163Y43350D01*
G01X4134Y43323D01*
G01X4121Y43294D01*
G01X4107Y43255D01*
G01X4107Y43186D01*
G01X4121Y43144D01*
G01X4134Y43117D01*
G01X4163Y43090D01*
G01X4190Y43077D01*
G01X4244Y43077D01*
G01X4271Y43090D01*
G01X4298Y43117D01*
G01X4313Y43144D01*
G01X4326Y43186D01*
G01X4326Y43255D01*
G01X4313Y43294D01*
G01X4298Y43323D01*
G01X4271Y43350D01*
G01X4244Y43363D01*
G01X4190Y43363D01*
G01X4511Y43363D02*
G01X4511Y43077D01*
G01X4415Y43363D02*
G01X4606Y43363D01*
G01X4778Y43363D02*
G01X4752Y43350D01*
G01X4725Y43323D01*
G01X4710Y43294D01*
G01X4697Y43255D01*
G01X4697Y43186D01*
G01X4710Y43144D01*
G01X4725Y43117D01*
G01X4752Y43090D01*
G01X4778Y43077D01*
G01X4834Y43077D01*
G01X4860Y43090D01*
G01X4888Y43117D01*
G01X4902Y43144D01*
G01X4914Y43186D01*
G01X4914Y43255D01*
G01X4902Y43294D01*
G01X4888Y43323D01*
G01X4860Y43350D01*
G01X4834Y43363D01*
G01X4778Y43363D01*
G01X5005Y43363D02*
G01X5005Y43077D01*
G01X5005Y43363D02*
G01X5127Y43363D01*
G01X5168Y43350D01*
G01X5182Y43336D01*
G01X5196Y43309D01*
G01X5196Y43282D01*
G01X5182Y43255D01*
G01X5168Y43240D01*
G01X5127Y43227D01*
G01X5005Y43227D01*
G01X5101Y43227D02*
G01X5196Y43077D01*
G01X5701Y43294D02*
G01X5686Y43323D01*
G01X5660Y43350D01*
G01X5632Y43363D01*
G01X5577Y43363D01*
G01X5551Y43350D01*
G01X5523Y43323D01*
G01X5510Y43294D01*
G01X5496Y43255D01*
G01X5496Y43186D01*
G01X5510Y43144D01*
G01X5523Y43117D01*
G01X5551Y43090D01*
G01X5577Y43077D01*
G01X5632Y43077D01*
G01X5660Y43090D01*
G01X5686Y43117D01*
G01X5701Y43144D01*
G01X5872Y43363D02*
G01X5844Y43350D01*
G01X5818Y43323D01*
G01X5805Y43294D01*
G01X5790Y43255D01*
G01X5790Y43186D01*
G01X5805Y43144D01*
G01X5818Y43117D01*
G01X5844Y43090D01*
G01X5872Y43077D01*
G01X5927Y43077D01*
G01X5955Y43090D01*
G01X5981Y43117D01*
G01X5994Y43144D01*
G01X6009Y43186D01*
G01X6009Y43255D01*
G01X5994Y43294D01*
G01X5981Y43323D01*
G01X5955Y43350D01*
G01X5927Y43363D01*
G01X5872Y43363D01*
G01X6098Y43363D02*
G01X6098Y43077D01*
G01X6098Y43363D02*
G01X6289Y43077D01*
G01X6289Y43363D02*
G01X6289Y43077D01*
G01X6475Y43363D02*
G01X6475Y43077D01*
G01X6380Y43363D02*
G01X6571Y43363D01*
G01X6660Y43363D02*
G01X6660Y43077D01*
G01X6660Y43363D02*
G01X6784Y43363D01*
G01X6825Y43350D01*
G01X6838Y43336D01*
G01X6852Y43309D01*
G01X6852Y43282D01*
G01X6838Y43255D01*
G01X6825Y43240D01*
G01X6784Y43227D01*
G01X6660Y43227D01*
G01X6756Y43227D02*
G01X6852Y43077D01*
G01X7023Y43363D02*
G01X6996Y43350D01*
G01X6968Y43323D01*
G01X6955Y43294D01*
G01X6942Y43255D01*
G01X6942Y43186D01*
G01X6955Y43144D01*
G01X6968Y43117D01*
G01X6996Y43090D01*
G01X7023Y43077D01*
G01X7077Y43077D01*
G01X7105Y43090D01*
G01X7132Y43117D01*
G01X7146Y43144D01*
G01X7160Y43186D01*
G01X7160Y43255D01*
G01X7146Y43294D01*
G01X7132Y43323D01*
G01X7105Y43350D01*
G01X7077Y43363D01*
G01X7023Y43363D01*
G01X7250Y43363D02*
G01X7250Y43077D01*
G01X7250Y43077D02*
G01X7414Y43077D01*
G01X7503Y43363D02*
G01X7503Y43077D01*
G01X7503Y43077D02*
G01X7667Y43077D01*
G01X7756Y43363D02*
G01X7756Y43077D01*
G01X7756Y43363D02*
G01X7935Y43363D01*
G01X7756Y43227D02*
G01X7865Y43227D01*
G01X7756Y43077D02*
G01X7935Y43077D01*
G01X8025Y43363D02*
G01X8025Y43077D01*
G01X8025Y43363D02*
G01X8147Y43363D01*
G01X8188Y43350D01*
G01X8202Y43336D01*
G01X8214Y43309D01*
G01X8214Y43282D01*
G01X8202Y43255D01*
G01X8188Y43240D01*
G01X8147Y43227D01*
G01X8025Y43227D01*
G01X8119Y43227D02*
G01X8214Y43077D01*
G01X3800Y42663D02*
G01X3800Y42377D01*
G01X3800Y42663D02*
G01X3976Y42663D01*
G01X3800Y42527D02*
G01X3909Y42527D01*
G01X3800Y42377D02*
G01X3976Y42377D01*
G01X4067Y42663D02*
G01X4067Y42377D01*
G01X4067Y42663D02*
G01X4257Y42377D01*
G01X4257Y42663D02*
G01X4257Y42377D01*
G01X4457Y42663D02*
G01X4348Y42377D01*
G01X4457Y42663D02*
G01X4565Y42377D01*
G01X4388Y42473D02*
G01X4525Y42473D01*
G01X4656Y42663D02*
G01X4656Y42377D01*
G01X4656Y42663D02*
G01X4778Y42663D01*
G01X4819Y42650D01*
G01X4834Y42636D01*
G01X4847Y42609D01*
G01X4847Y42582D01*
G01X4834Y42555D01*
G01X4819Y42540D01*
G01X4778Y42527D01*
G01X4656Y42527D02*
G01X4778Y42527D01*
G01X4819Y42513D01*
G01X4834Y42500D01*
G01X4847Y42473D01*
G01X4847Y42432D01*
G01X4834Y42405D01*
G01X4819Y42390D01*
G01X4778Y42377D01*
G01X4656Y42377D01*
G01X4936Y42663D02*
G01X4936Y42377D01*
G01X4936Y42377D02*
G01X5101Y42377D01*
G01X5190Y42663D02*
G01X5190Y42377D01*
G01X5190Y42663D02*
G01X5368Y42663D01*
G01X5190Y42527D02*
G01X5300Y42527D01*
G01X5190Y42377D02*
G01X5368Y42377D01*
G01X5668Y42663D02*
G01X5668Y42377D01*
G01X5757Y42663D02*
G01X5757Y42377D01*
G01X5757Y42663D02*
G01X5948Y42377D01*
G01X5948Y42663D02*
G01X5948Y42377D01*
G01X6039Y42663D02*
G01X6039Y42377D01*
G01X6039Y42663D02*
G01X6161Y42663D01*
G01X6202Y42650D01*
G01X6215Y42636D01*
G01X6230Y42609D01*
G01X6230Y42567D01*
G01X6215Y42540D01*
G01X6202Y42527D01*
G01X6161Y42513D01*
G01X6039Y42513D01*
G01X6319Y42663D02*
G01X6319Y42459D01*
G01X6334Y42417D01*
G01X6360Y42390D01*
G01X6402Y42377D01*
G01X6428Y42377D01*
G01X6469Y42390D01*
G01X6497Y42417D01*
G01X6510Y42459D01*
G01X6510Y42663D01*
G01X6696Y42663D02*
G01X6696Y42377D01*
G01X6601Y42663D02*
G01X6792Y42663D01*
G01X11400Y29200D02*
G01X11400Y28628D01*
G01X11400Y29200D02*
G01X11644Y29200D01*
G01X11727Y29173D01*
G01X11755Y29146D01*
G01X11781Y29090D01*
G01X11781Y29036D01*
G01X11755Y28982D01*
G01X11727Y28955D01*
G01X11644Y28928D01*
G01X11400Y28928D02*
G01X11644Y28928D01*
G01X11727Y28900D01*
G01X11755Y28873D01*
G01X11781Y28817D01*
G01X11781Y28736D01*
G01X11755Y28682D01*
G01X11727Y28655D01*
G01X11644Y28628D01*
G01X11400Y28628D01*
G01X12206Y29117D02*
G01X12206Y28628D01*
G01X11961Y28873D02*
G01X12452Y28873D01*
G01X13052Y29200D02*
G01X13052Y28628D01*
G01X13052Y28628D02*
G01X13380Y28628D01*
G01X13560Y29200D02*
G01X13560Y28628D01*
G01X13739Y29200D02*
G01X13739Y28628D01*
G01X13739Y29200D02*
G01X14122Y28628D01*
G01X14122Y29200D02*
G01X14122Y28628D01*
G01X14302Y29200D02*
G01X14302Y28628D01*
G01X14302Y29200D02*
G01X14656Y29200D01*
G01X14302Y28928D02*
G01X14519Y28928D01*
G01X14302Y28628D02*
G01X14656Y28628D01*
G01X21900Y29327D02*
G01X21900Y28755D01*
G01X21900Y29327D02*
G01X22144Y29327D01*
G01X22227Y29300D01*
G01X22255Y29273D01*
G01X22281Y29217D01*
G01X22281Y29163D01*
G01X22255Y29109D01*
G01X22227Y29082D01*
G01X22144Y29055D01*
G01X21900Y29055D02*
G01X22144Y29055D01*
G01X22227Y29027D01*
G01X22255Y29000D01*
G01X22281Y28944D01*
G01X22281Y28863D01*
G01X22255Y28809D01*
G01X22227Y28782D01*
G01X22144Y28755D01*
G01X21900Y28755D01*
G01X22461Y29000D02*
G01X22952Y29000D01*
G01X23552Y29327D02*
G01X23552Y28755D01*
G01X23552Y28755D02*
G01X23880Y28755D01*
G01X24060Y29327D02*
G01X24060Y28755D01*
G01X24239Y29327D02*
G01X24239Y28755D01*
G01X24239Y29327D02*
G01X24622Y28755D01*
G01X24622Y29327D02*
G01X24622Y28755D01*
G01X24802Y29327D02*
G01X24802Y28755D01*
G01X24802Y29327D02*
G01X25156Y29327D01*
G01X24802Y29055D02*
G01X25019Y29055D01*
G01X24802Y28755D02*
G01X25156Y28755D01*
G01X31400Y29400D02*
G01X31400Y28828D01*
G01X31400Y29400D02*
G01X31644Y29400D01*
G01X31727Y29373D01*
G01X31755Y29346D01*
G01X31781Y29290D01*
G01X31781Y29209D01*
G01X31755Y29155D01*
G01X31727Y29128D01*
G01X31644Y29100D01*
G01X31400Y29100D01*
G01X31961Y29400D02*
G01X31961Y28828D01*
G01X31961Y29400D02*
G01X32206Y29400D01*
G01X32289Y29373D01*
G01X32315Y29346D01*
G01X32343Y29290D01*
G01X32343Y29236D01*
G01X32315Y29182D01*
G01X32289Y29155D01*
G01X32206Y29128D01*
G01X31961Y29128D01*
G01X32152Y29128D02*
G01X32343Y28828D01*
G01X32523Y29400D02*
G01X32523Y28828D01*
G01X32523Y29400D02*
G01X32877Y29400D01*
G01X32523Y29128D02*
G01X32742Y29128D01*
G01X32523Y28828D02*
G01X32877Y28828D01*
G01X33467Y29263D02*
G01X33439Y29317D01*
G01X33385Y29373D01*
G01X33331Y29400D01*
G01X33222Y29400D01*
G01X33167Y29373D01*
G01X33113Y29317D01*
G01X33085Y29263D01*
G01X33057Y29182D01*
G01X33057Y29046D01*
G01X33085Y28963D01*
G01X33113Y28909D01*
G01X33167Y28855D01*
G01X33222Y28828D01*
G01X33331Y28828D01*
G01X33385Y28855D01*
G01X33439Y28909D01*
G01X33467Y28963D01*
G01X33647Y29400D02*
G01X33647Y28828D01*
G01X34029Y29400D02*
G01X34029Y28828D01*
G01X33647Y29128D02*
G01X34029Y29128D01*
G01X34427Y29400D02*
G01X34209Y28828D01*
G01X34427Y29400D02*
G01X34644Y28828D01*
G01X34290Y29017D02*
G01X34564Y29017D01*
G01X34825Y29400D02*
G01X34825Y28828D01*
G01X34825Y29400D02*
G01X35071Y29400D01*
G01X35152Y29373D01*
G01X35180Y29346D01*
G01X35206Y29290D01*
G01X35206Y29236D01*
G01X35180Y29182D01*
G01X35152Y29155D01*
G01X35071Y29128D01*
G01X34825Y29128D01*
G01X35015Y29128D02*
G01X35206Y28828D01*
G01X35796Y29263D02*
G01X35768Y29317D01*
G01X35714Y29373D01*
G01X35660Y29400D01*
G01X35551Y29400D01*
G01X35496Y29373D01*
G01X35442Y29317D01*
G01X35414Y29263D01*
G01X35386Y29182D01*
G01X35386Y29046D01*
G01X35414Y28963D01*
G01X35442Y28909D01*
G01X35496Y28855D01*
G01X35551Y28828D01*
G01X35660Y28828D01*
G01X35714Y28855D01*
G01X35768Y28909D01*
G01X35796Y28963D01*
G01X35796Y29046D01*
G01X35660Y29046D02*
G01X35796Y29046D01*
G01X35976Y29400D02*
G01X35976Y28828D01*
G01X35976Y29400D02*
G01X36331Y29400D01*
G01X35976Y29128D02*
G01X36194Y29128D01*
G01X35976Y28828D02*
G01X36331Y28828D01*
G01X3700Y36900D02*
G01X3700Y36518D01*
G01X3955Y36900D02*
G01X3700Y36646D01*
G01X3790Y36737D02*
G01X3955Y36518D01*
G01X4075Y36827D02*
G01X4111Y36846D01*
G01X4165Y36900D01*
G01X4165Y36518D01*
G01X4284Y36391D02*
G01X4613Y36391D01*
G01X4732Y36900D02*
G01X4732Y36518D01*
G01X4852Y36900D02*
G01X4852Y36518D01*
G01X4852Y36900D02*
G01X5106Y36518D01*
G01X5106Y36900D02*
G01X5106Y36518D01*
G01X3600Y39017D02*
G01X3600Y38636D01*
G01X3855Y39017D02*
G01X3600Y38763D01*
G01X3690Y38855D02*
G01X3855Y38636D01*
G01X3992Y38927D02*
G01X3992Y38944D01*
G01X4011Y38982D01*
G01X4028Y39000D01*
G01X4065Y39017D01*
G01X4138Y39017D01*
G01X4175Y39000D01*
G01X4192Y38982D01*
G01X4211Y38944D01*
G01X4211Y38909D01*
G01X4192Y38873D01*
G01X4155Y38817D01*
G01X3975Y38636D01*
G01X4228Y38636D01*
G01X4348Y38509D02*
G01X4676Y38509D01*
G01X4796Y39017D02*
G01X4796Y38636D01*
G01X4915Y39017D02*
G01X4915Y38636D01*
G01X4915Y39017D02*
G01X5171Y38636D01*
G01X5171Y39017D02*
G01X5171Y38636D01*
G01X3600Y41017D02*
G01X3600Y40636D01*
G01X3855Y41017D02*
G01X3600Y40763D01*
G01X3690Y40855D02*
G01X3855Y40636D01*
G01X4011Y41017D02*
G01X4211Y41017D01*
G01X4101Y40873D01*
G01X4155Y40873D01*
G01X4192Y40855D01*
G01X4211Y40836D01*
G01X4228Y40782D01*
G01X4228Y40744D01*
G01X4211Y40690D01*
G01X4175Y40655D01*
G01X4119Y40636D01*
G01X4065Y40636D01*
G01X4011Y40655D01*
G01X3992Y40673D01*
G01X3975Y40709D01*
G01X4348Y40509D02*
G01X4676Y40509D01*
G01X4796Y41017D02*
G01X4796Y40636D01*
G01X4915Y41017D02*
G01X4915Y40636D01*
G01X4915Y41017D02*
G01X5171Y40636D01*
G01X5171Y41017D02*
G01X5171Y40636D01*
G54D15*
G01X1100Y46600D02*
G01X1100Y46171D01*
G01X1100Y46600D02*
G01X1284Y46600D01*
G01X1344Y46580D01*
G01X1365Y46559D01*
G01X1386Y46519D01*
G01X1386Y46457D01*
G01X1365Y46415D01*
G01X1344Y46396D01*
G01X1284Y46375D01*
G01X1100Y46375D01*
G01X1767Y46538D02*
G01X1746Y46580D01*
G01X1684Y46600D01*
G01X1644Y46600D01*
G01X1582Y46580D01*
G01X1542Y46519D01*
G01X1521Y46415D01*
G01X1521Y46313D01*
G01X1542Y46232D01*
G01X1582Y46190D01*
G01X1644Y46171D01*
G01X1665Y46171D01*
G01X1726Y46190D01*
G01X1767Y46232D01*
G01X1786Y46294D01*
G01X1786Y46313D01*
G01X1767Y46375D01*
G01X1726Y46415D01*
G01X1665Y46436D01*
G01X1644Y46436D01*
G01X1582Y46415D01*
G01X1542Y46375D01*
G01X1521Y46313D01*
G01X10499Y42113D02*
G01X10928Y42113D01*
G01X10499Y42113D02*
G01X10499Y42297D01*
G01X10519Y42358D01*
G01X10539Y42379D01*
G01X10580Y42399D01*
G01X10621Y42399D01*
G01X10662Y42379D01*
G01X10683Y42358D01*
G01X10703Y42297D01*
G01X10703Y42113D01*
G01X10703Y42256D02*
G01X10928Y42399D01*
G01X10560Y42780D02*
G01X10519Y42759D01*
G01X10499Y42698D01*
G01X10499Y42657D01*
G01X10519Y42596D01*
G01X10580Y42555D01*
G01X10683Y42534D01*
G01X10785Y42534D01*
G01X10867Y42555D01*
G01X10908Y42596D01*
G01X10928Y42657D01*
G01X10928Y42678D01*
G01X10908Y42739D01*
G01X10867Y42780D01*
G01X10805Y42800D01*
G01X10785Y42800D01*
G01X10724Y42780D01*
G01X10683Y42739D01*
G01X10662Y42678D01*
G01X10662Y42657D01*
G01X10683Y42596D01*
G01X10724Y42555D01*
G01X10785Y42534D01*
G01X7200Y39300D02*
G01X7200Y38871D01*
G01X7200Y38871D02*
G01X7444Y38871D01*
G01X7580Y39300D02*
G01X7580Y38871D01*
G01X7580Y39300D02*
G01X7846Y39300D01*
G01X7580Y39096D02*
G01X7743Y39096D01*
G01X7580Y38871D02*
G01X7846Y38871D01*
G01X7981Y39300D02*
G01X7981Y38871D01*
G01X7981Y39300D02*
G01X8125Y39300D01*
G01X8185Y39280D01*
G01X8227Y39238D01*
G01X8247Y39198D01*
G01X8268Y39136D01*
G01X8268Y39034D01*
G01X8247Y38973D01*
G01X8227Y38932D01*
G01X8185Y38890D01*
G01X8125Y38871D01*
G01X7981Y38871D01*
G01X8606Y39300D02*
G01X8402Y39013D01*
G01X8710Y39013D01*
G01X8606Y39300D02*
G01X8606Y38871D01*
G01X12899Y41955D02*
G01X13328Y41955D01*
G01X12899Y41955D02*
G01X12899Y42138D01*
G01X12919Y42200D01*
G01X12939Y42221D01*
G01X12980Y42240D01*
G01X13021Y42240D01*
G01X13062Y42221D01*
G01X13083Y42200D01*
G01X13103Y42138D01*
G01X13103Y41955D01*
G01X13103Y42098D02*
G01X13328Y42240D01*
G01X12980Y42376D02*
G01X12960Y42417D01*
G01X12899Y42479D01*
G01X13328Y42479D01*
G01X12899Y42736D02*
G01X12919Y42675D01*
G01X12980Y42634D01*
G01X13083Y42613D01*
G01X13144Y42613D01*
G01X13246Y42634D01*
G01X13308Y42675D01*
G01X13328Y42736D01*
G01X13328Y42777D01*
G01X13308Y42838D01*
G01X13246Y42880D01*
G01X13144Y42900D01*
G01X13083Y42900D01*
G01X12980Y42880D01*
G01X12919Y42838D01*
G01X12899Y42777D01*
G01X12899Y42736D01*
G01X29200Y28200D02*
G01X29200Y27771D01*
G01X29200Y27771D02*
G01X29444Y27771D01*
G01X29580Y28200D02*
G01X29580Y27771D01*
G01X29580Y28200D02*
G01X29846Y28200D01*
G01X29580Y27996D02*
G01X29743Y27996D01*
G01X29580Y27771D02*
G01X29846Y27771D01*
G01X29981Y28200D02*
G01X29981Y27771D01*
G01X29981Y28200D02*
G01X30125Y28200D01*
G01X30185Y28180D01*
G01X30227Y28138D01*
G01X30247Y28098D01*
G01X30268Y28036D01*
G01X30268Y27934D01*
G01X30247Y27873D01*
G01X30227Y27832D01*
G01X30185Y27790D01*
G01X30125Y27771D01*
G01X29981Y27771D01*
G01X30443Y28200D02*
G01X30668Y28200D01*
G01X30546Y28036D01*
G01X30606Y28036D01*
G01X30647Y28015D01*
G01X30668Y27996D01*
G01X30689Y27934D01*
G01X30689Y27894D01*
G01X30668Y27832D01*
G01X30627Y27790D01*
G01X30565Y27771D01*
G01X30505Y27771D01*
G01X30443Y27790D01*
G01X30422Y27811D01*
G01X30402Y27853D01*
G01X18299Y34192D02*
G01X18728Y34192D01*
G01X18299Y34192D02*
G01X18299Y34376D01*
G01X18319Y34437D01*
G01X18339Y34458D01*
G01X18380Y34478D01*
G01X18421Y34478D01*
G01X18462Y34458D01*
G01X18483Y34437D01*
G01X18503Y34376D01*
G01X18503Y34192D01*
G01X18503Y34335D02*
G01X18728Y34478D01*
G01X18299Y34716D02*
G01X18319Y34654D01*
G01X18360Y34634D01*
G01X18401Y34634D01*
G01X18442Y34654D01*
G01X18462Y34695D01*
G01X18483Y34777D01*
G01X18503Y34838D01*
G01X18544Y34879D01*
G01X18585Y34900D01*
G01X18646Y34900D01*
G01X18687Y34879D01*
G01X18708Y34859D01*
G01X18728Y34797D01*
G01X18728Y34716D01*
G01X18708Y34654D01*
G01X18687Y34634D01*
G01X18646Y34613D01*
G01X18585Y34613D01*
G01X18544Y34634D01*
G01X18503Y34675D01*
G01X18483Y34736D01*
G01X18462Y34818D01*
G01X18442Y34859D01*
G01X18401Y34879D01*
G01X18360Y34879D01*
G01X18319Y34859D01*
G01X18299Y34797D01*
G01X18299Y34716D01*
G01X18600Y28200D02*
G01X18600Y27771D01*
G01X18600Y27771D02*
G01X18844Y27771D01*
G01X18980Y28200D02*
G01X18980Y27771D01*
G01X18980Y28200D02*
G01X19246Y28200D01*
G01X18980Y27996D02*
G01X19143Y27996D01*
G01X18980Y27771D02*
G01X19246Y27771D01*
G01X19381Y28200D02*
G01X19381Y27771D01*
G01X19381Y28200D02*
G01X19525Y28200D01*
G01X19585Y28180D01*
G01X19627Y28138D01*
G01X19647Y28098D01*
G01X19668Y28036D01*
G01X19668Y27934D01*
G01X19647Y27873D01*
G01X19627Y27832D01*
G01X19585Y27790D01*
G01X19525Y27771D01*
G01X19381Y27771D01*
G01X19822Y28098D02*
G01X19822Y28119D01*
G01X19843Y28159D01*
G01X19864Y28180D01*
G01X19905Y28200D01*
G01X19986Y28200D01*
G01X20027Y28180D01*
G01X20047Y28159D01*
G01X20068Y28119D01*
G01X20068Y28078D01*
G01X20047Y28036D01*
G01X20006Y27975D01*
G01X19802Y27771D01*
G01X20089Y27771D01*
G01X7799Y34192D02*
G01X8228Y34192D01*
G01X7799Y34192D02*
G01X7799Y34376D01*
G01X7819Y34437D01*
G01X7839Y34458D01*
G01X7880Y34478D01*
G01X7921Y34478D01*
G01X7962Y34458D01*
G01X7983Y34437D01*
G01X8003Y34376D01*
G01X8003Y34192D01*
G01X8003Y34335D02*
G01X8228Y34478D01*
G01X7799Y34900D02*
G01X8228Y34695D01*
G01X7799Y34613D02*
G01X7799Y34900D01*
G01X8200Y28300D02*
G01X8200Y27871D01*
G01X8200Y27871D02*
G01X8444Y27871D01*
G01X8580Y28300D02*
G01X8580Y27871D01*
G01X8580Y28300D02*
G01X8846Y28300D01*
G01X8580Y28096D02*
G01X8743Y28096D01*
G01X8580Y27871D02*
G01X8846Y27871D01*
G01X8981Y28300D02*
G01X8981Y27871D01*
G01X8981Y28300D02*
G01X9125Y28300D01*
G01X9185Y28280D01*
G01X9227Y28238D01*
G01X9247Y28198D01*
G01X9268Y28136D01*
G01X9268Y28034D01*
G01X9247Y27973D01*
G01X9227Y27932D01*
G01X9185Y27890D01*
G01X9125Y27871D01*
G01X8981Y27871D01*
G01X9402Y28219D02*
G01X9443Y28238D01*
G01X9505Y28300D01*
G01X9505Y27871D01*
G01X28899Y34213D02*
G01X29328Y34213D01*
G01X28899Y34213D02*
G01X28899Y34397D01*
G01X28919Y34458D01*
G01X28939Y34479D01*
G01X28980Y34499D01*
G01X29021Y34499D01*
G01X29062Y34479D01*
G01X29083Y34458D01*
G01X29103Y34397D01*
G01X29103Y34213D01*
G01X29103Y34356D02*
G01X29328Y34499D01*
G01X29042Y34900D02*
G01X29103Y34880D01*
G01X29144Y34839D01*
G01X29164Y34778D01*
G01X29164Y34757D01*
G01X29144Y34696D01*
G01X29103Y34655D01*
G01X29042Y34634D01*
G01X29021Y34634D01*
G01X28960Y34655D01*
G01X28919Y34696D01*
G01X28899Y34757D01*
G01X28899Y34778D01*
G01X28919Y34839D01*
G01X28960Y34880D01*
G01X29042Y34900D01*
G01X29144Y34900D01*
G01X29246Y34880D01*
G01X29308Y34839D01*
G01X29328Y34778D01*
G01X29328Y34737D01*
G01X29308Y34675D01*
G01X29267Y34655D01*
G01X5499Y34200D02*
G01X5928Y34200D01*
G01X5499Y34200D02*
G01X5499Y34384D01*
G01X5519Y34444D01*
G01X5539Y34465D01*
G01X5580Y34486D01*
G01X5621Y34486D01*
G01X5662Y34465D01*
G01X5683Y34444D01*
G01X5703Y34384D01*
G01X5703Y34200D01*
G01X5703Y34342D02*
G01X5928Y34486D01*
G01X5499Y34661D02*
G01X5499Y34886D01*
G01X5662Y34765D01*
G01X5662Y34826D01*
G01X5683Y34867D01*
G01X5703Y34886D01*
G01X5764Y34907D01*
G01X5805Y34907D01*
G01X5867Y34886D01*
G01X5908Y34846D01*
G01X5928Y34784D01*
G01X5928Y34723D01*
G01X5908Y34661D01*
G01X5887Y34642D01*
G01X5846Y34621D01*
G01X16099Y34200D02*
G01X16528Y34200D01*
G01X16099Y34200D02*
G01X16099Y34384D01*
G01X16119Y34444D01*
G01X16139Y34465D01*
G01X16180Y34486D01*
G01X16221Y34486D01*
G01X16262Y34465D01*
G01X16283Y34444D01*
G01X16303Y34384D01*
G01X16303Y34200D01*
G01X16303Y34342D02*
G01X16528Y34486D01*
G01X16099Y34826D02*
G01X16385Y34621D01*
G01X16385Y34928D01*
G01X16099Y34826D02*
G01X16528Y34826D01*
G01X26799Y34200D02*
G01X27228Y34200D01*
G01X26799Y34200D02*
G01X26799Y34384D01*
G01X26819Y34444D01*
G01X26839Y34465D01*
G01X26880Y34486D01*
G01X26921Y34486D01*
G01X26962Y34465D01*
G01X26983Y34444D01*
G01X27003Y34384D01*
G01X27003Y34200D01*
G01X27003Y34342D02*
G01X27228Y34486D01*
G01X26799Y34867D02*
G01X26799Y34661D01*
G01X26983Y34642D01*
G01X26962Y34661D01*
G01X26942Y34723D01*
G01X26942Y34784D01*
G01X26962Y34846D01*
G01X27003Y34886D01*
G01X27064Y34907D01*
G01X27105Y34907D01*
G01X27167Y34886D01*
G01X27208Y34846D01*
G01X27228Y34784D01*
G01X27228Y34723D01*
G01X27208Y34661D01*
G01X27187Y34642D01*
G01X27146Y34621D01*
G01X12800Y32361D02*
G01X13229Y32076D01*
G01X12800Y32076D02*
G01X12800Y32361D01*
G01X13229Y32076D02*
G01X13229Y32361D01*
G01X12881Y32496D02*
G01X12861Y32538D01*
G01X12800Y32600D01*
G01X13229Y32600D01*
G01X23300Y32277D02*
G01X23729Y31991D01*
G01X23300Y31991D02*
G01X23300Y32277D01*
G01X23729Y31991D02*
G01X23729Y32277D01*
G01X23402Y32433D02*
G01X23381Y32433D01*
G01X23340Y32453D01*
G01X23320Y32474D01*
G01X23300Y32515D01*
G01X23300Y32596D01*
G01X23320Y32637D01*
G01X23340Y32658D01*
G01X23381Y32678D01*
G01X23422Y32678D01*
G01X23463Y32658D01*
G01X23525Y32617D01*
G01X23729Y32412D01*
G01X23729Y32699D01*
G01X33700Y32332D02*
G01X34129Y32046D01*
G01X33700Y32046D02*
G01X33700Y32332D01*
G01X34129Y32046D02*
G01X34129Y32332D01*
G01X33700Y32508D02*
G01X33700Y32733D01*
G01X33863Y32611D01*
G01X33863Y32672D01*
G01X33884Y32713D01*
G01X33904Y32733D01*
G01X33965Y32754D01*
G01X34006Y32754D01*
G01X34068Y32733D01*
G01X34109Y32692D01*
G01X34129Y32631D01*
G01X34129Y32570D01*
G01X34109Y32508D01*
G01X34088Y32488D01*
G01X34047Y32467D01*
G01X12522Y38000D02*
G01X12481Y37980D01*
G01X12440Y37938D01*
G01X12419Y37898D01*
G01X12399Y37836D01*
G01X12399Y37734D01*
G01X12419Y37673D01*
G01X12440Y37632D01*
G01X12481Y37590D01*
G01X12522Y37571D01*
G01X12603Y37571D01*
G01X12644Y37590D01*
G01X12685Y37632D01*
G01X12706Y37673D01*
G01X12726Y37734D01*
G01X12726Y37836D01*
G01X12706Y37898D01*
G01X12685Y37938D01*
G01X12644Y37980D01*
G01X12603Y38000D01*
G01X12522Y38000D01*
G01X12583Y37653D02*
G01X12706Y37530D01*
G01X12861Y37919D02*
G01X12902Y37938D01*
G01X12963Y38000D01*
G01X12963Y37571D01*
G01X23122Y37999D02*
G01X23081Y37979D01*
G01X23040Y37938D01*
G01X23019Y37897D01*
G01X22999Y37836D01*
G01X22999Y37734D01*
G01X23019Y37672D01*
G01X23040Y37631D01*
G01X23081Y37590D01*
G01X23122Y37570D01*
G01X23203Y37570D01*
G01X23244Y37590D01*
G01X23285Y37631D01*
G01X23306Y37672D01*
G01X23326Y37734D01*
G01X23326Y37836D01*
G01X23306Y37897D01*
G01X23285Y37938D01*
G01X23244Y37979D01*
G01X23203Y37999D01*
G01X23122Y37999D01*
G01X23183Y37652D02*
G01X23306Y37529D01*
G01X23482Y37897D02*
G01X23482Y37918D01*
G01X23502Y37959D01*
G01X23522Y37979D01*
G01X23563Y37999D01*
G01X23645Y37999D01*
G01X23686Y37979D01*
G01X23707Y37959D01*
G01X23727Y37918D01*
G01X23727Y37877D01*
G01X23707Y37836D01*
G01X23666Y37774D01*
G01X23461Y37570D01*
G01X23747Y37570D01*
G01X33622Y37954D02*
G01X33581Y37934D01*
G01X33540Y37893D01*
G01X33519Y37852D01*
G01X33499Y37791D01*
G01X33499Y37689D01*
G01X33519Y37627D01*
G01X33540Y37586D01*
G01X33581Y37545D01*
G01X33622Y37525D01*
G01X33703Y37525D01*
G01X33744Y37545D01*
G01X33785Y37586D01*
G01X33806Y37627D01*
G01X33826Y37689D01*
G01X33826Y37791D01*
G01X33806Y37852D01*
G01X33785Y37893D01*
G01X33744Y37934D01*
G01X33703Y37954D01*
G01X33622Y37954D01*
G01X33683Y37607D02*
G01X33806Y37484D01*
G01X34002Y37954D02*
G01X34227Y37954D01*
G01X34104Y37791D01*
G01X34166Y37791D01*
G01X34207Y37770D01*
G01X34227Y37750D01*
G01X34247Y37689D01*
G01X34247Y37648D01*
G01X34227Y37586D01*
G01X34186Y37545D01*
G01X34125Y37525D01*
G01X34063Y37525D01*
G01X34002Y37545D01*
G01X33982Y37566D01*
G01X33961Y37607D01*
G01X16823Y45700D02*
G01X16782Y45680D01*
G01X16741Y45639D01*
G01X16720Y45598D01*
G01X16700Y45537D01*
G01X16700Y45435D01*
G01X16720Y45373D01*
G01X16741Y45332D01*
G01X16782Y45291D01*
G01X16823Y45271D01*
G01X16904Y45271D01*
G01X16945Y45291D01*
G01X16986Y45332D01*
G01X17007Y45373D01*
G01X17027Y45435D01*
G01X17027Y45537D01*
G01X17007Y45598D01*
G01X16986Y45639D01*
G01X16945Y45680D01*
G01X16904Y45700D01*
G01X16823Y45700D01*
G01X16884Y45353D02*
G01X17007Y45230D01*
G01X17367Y45700D02*
G01X17162Y45414D01*
G01X17469Y45414D01*
G01X17367Y45700D02*
G01X17367Y45271D01*
G01X22568Y45697D02*
G01X22527Y45677D01*
G01X22486Y45636D01*
G01X22465Y45595D01*
G01X22445Y45534D01*
G01X22445Y45432D01*
G01X22465Y45370D01*
G01X22486Y45329D01*
G01X22527Y45288D01*
G01X22568Y45268D01*
G01X22649Y45268D01*
G01X22690Y45288D01*
G01X22731Y45329D01*
G01X22752Y45370D01*
G01X22772Y45432D01*
G01X22772Y45534D01*
G01X22752Y45595D01*
G01X22731Y45636D01*
G01X22690Y45677D01*
G01X22649Y45697D01*
G01X22568Y45697D01*
G01X22629Y45350D02*
G01X22752Y45227D01*
G01X23153Y45697D02*
G01X22948Y45697D01*
G01X22928Y45513D01*
G01X22948Y45534D01*
G01X23009Y45554D01*
G01X23071Y45554D01*
G01X23132Y45534D01*
G01X23173Y45493D01*
G01X23193Y45432D01*
G01X23193Y45391D01*
G01X23173Y45329D01*
G01X23132Y45288D01*
G01X23071Y45268D01*
G01X23009Y45268D01*
G01X22948Y45288D01*
G01X22928Y45309D01*
G01X22907Y45350D01*
G01X10800Y32076D02*
G01X11229Y32076D01*
G01X10800Y32076D02*
G01X10800Y32219D01*
G01X10820Y32280D01*
G01X10861Y32321D01*
G01X10902Y32342D01*
G01X10963Y32361D01*
G01X11065Y32361D01*
G01X11127Y32342D01*
G01X11168Y32321D01*
G01X11209Y32280D01*
G01X11229Y32219D01*
G01X11229Y32076D01*
G01X10881Y32496D02*
G01X10861Y32538D01*
G01X10800Y32600D01*
G01X11229Y32600D01*
G01X21300Y31991D02*
G01X21729Y31991D01*
G01X21300Y31991D02*
G01X21300Y32134D01*
G01X21320Y32196D01*
G01X21361Y32236D01*
G01X21402Y32257D01*
G01X21463Y32277D01*
G01X21565Y32277D01*
G01X21627Y32257D01*
G01X21668Y32236D01*
G01X21709Y32196D01*
G01X21729Y32134D01*
G01X21729Y31991D01*
G01X21402Y32433D02*
G01X21381Y32433D01*
G01X21340Y32453D01*
G01X21320Y32474D01*
G01X21300Y32515D01*
G01X21300Y32596D01*
G01X21320Y32637D01*
G01X21340Y32658D01*
G01X21381Y32678D01*
G01X21422Y32678D01*
G01X21463Y32658D01*
G01X21525Y32617D01*
G01X21729Y32412D01*
G01X21729Y32699D01*
G01X31700Y32046D02*
G01X32129Y32046D01*
G01X31700Y32046D02*
G01X31700Y32189D01*
G01X31720Y32251D01*
G01X31761Y32291D01*
G01X31802Y32312D01*
G01X31863Y32332D01*
G01X31965Y32332D01*
G01X32027Y32312D01*
G01X32068Y32291D01*
G01X32109Y32251D01*
G01X32129Y32189D01*
G01X32129Y32046D01*
G01X31700Y32508D02*
G01X31700Y32733D01*
G01X31863Y32611D01*
G01X31863Y32672D01*
G01X31884Y32713D01*
G01X31904Y32733D01*
G01X31965Y32754D01*
G01X32006Y32754D01*
G01X32068Y32733D01*
G01X32109Y32692D01*
G01X32129Y32631D01*
G01X32129Y32570D01*
G01X32109Y32508D01*
G01X32088Y32488D01*
G01X32047Y32467D01*
G01X10200Y25600D02*
G01X10200Y25171D01*
G01X10200Y25600D02*
G01X10384Y25600D01*
G01X10445Y25580D01*
G01X10466Y25559D01*
G01X10486Y25519D01*
G01X10486Y25457D01*
G01X10466Y25415D01*
G01X10445Y25396D01*
G01X10384Y25375D01*
G01X10200Y25375D01*
G01X10621Y25519D02*
G01X10662Y25538D01*
G01X10724Y25600D01*
G01X10724Y25171D01*
G01X20500Y25600D02*
G01X20500Y25171D01*
G01X20500Y25600D02*
G01X20684Y25600D01*
G01X20745Y25580D01*
G01X20766Y25559D01*
G01X20786Y25519D01*
G01X20786Y25457D01*
G01X20766Y25415D01*
G01X20745Y25396D01*
G01X20684Y25375D01*
G01X20500Y25375D01*
G01X20942Y25498D02*
G01X20942Y25519D01*
G01X20962Y25559D01*
G01X20983Y25580D01*
G01X21024Y25600D01*
G01X21105Y25600D01*
G01X21146Y25580D01*
G01X21167Y25559D01*
G01X21187Y25519D01*
G01X21187Y25478D01*
G01X21167Y25436D01*
G01X21126Y25375D01*
G01X20921Y25171D01*
G01X21208Y25171D01*
G01X31000Y25600D02*
G01X31000Y25171D01*
G01X31000Y25600D02*
G01X31184Y25600D01*
G01X31245Y25580D01*
G01X31266Y25559D01*
G01X31286Y25519D01*
G01X31286Y25457D01*
G01X31266Y25415D01*
G01X31245Y25396D01*
G01X31184Y25375D01*
G01X31000Y25375D01*
G01X31462Y25600D02*
G01X31687Y25600D01*
G01X31565Y25436D01*
G01X31626Y25436D01*
G01X31667Y25415D01*
G01X31687Y25396D01*
G01X31708Y25334D01*
G01X31708Y25294D01*
G01X31687Y25232D01*
G01X31646Y25190D01*
G01X31585Y25171D01*
G01X31524Y25171D01*
G01X31462Y25190D01*
G01X31442Y25211D01*
G01X31421Y25253D01*
G01X2100Y31300D02*
G01X2100Y30871D01*
G01X2100Y31300D02*
G01X2284Y31300D01*
G01X2344Y31280D01*
G01X2365Y31260D01*
G01X2386Y31219D01*
G01X2386Y31157D01*
G01X2365Y31116D01*
G01X2344Y31096D01*
G01X2284Y31075D01*
G01X2100Y31075D01*
G01X2726Y31300D02*
G01X2521Y31014D01*
G01X2828Y31014D01*
G01X2726Y31300D02*
G01X2726Y30871D01*
G01X16500Y40376D02*
G01X16928Y40376D01*
G01X16500Y40376D02*
G01X16500Y40559D01*
G01X16519Y40621D01*
G01X16539Y40642D01*
G01X16581Y40661D01*
G01X16622Y40661D01*
G01X16663Y40642D01*
G01X16684Y40621D01*
G01X16703Y40559D01*
G01X16703Y40376D01*
G01X16703Y40519D02*
G01X16928Y40661D01*
G01X16581Y40796D02*
G01X16560Y40838D01*
G01X16500Y40900D01*
G01X16928Y40900D01*
G01X21500Y40291D02*
G01X21928Y40291D01*
G01X21500Y40291D02*
G01X21500Y40475D01*
G01X21519Y40536D01*
G01X21539Y40557D01*
G01X21581Y40577D01*
G01X21622Y40577D01*
G01X21663Y40557D01*
G01X21684Y40536D01*
G01X21703Y40475D01*
G01X21703Y40291D01*
G01X21703Y40434D02*
G01X21928Y40577D01*
G01X21602Y40733D02*
G01X21581Y40733D01*
G01X21539Y40753D01*
G01X21519Y40774D01*
G01X21500Y40815D01*
G01X21500Y40896D01*
G01X21519Y40937D01*
G01X21539Y40958D01*
G01X21581Y40978D01*
G01X21622Y40978D01*
G01X21663Y40958D01*
G01X21725Y40917D01*
G01X21928Y40712D01*
G01X21928Y40999D01*
G54D10*
G75*
G01X200Y45515D02*
G02X200Y44215I-553J-650D01*
G01*
G75*
G01X200Y43515D02*
G02X200Y42215I-525J-650D01*
G01*
G75*
G01X200Y41399D02*
G02X200Y40099I-525J-650D01*
G01*
G75*
G01X200Y39399D02*
G02X200Y38099I-553J-650D01*
G01*
G75*
G01X200Y37399D02*
G02X200Y36099I-525J-650D01*
G01*
G75*
G01X8298Y39651D02*
G03X7301Y39651I-498J748D01*
G01*
G75*
G01X30498Y28651D02*
G03X29501Y28651I-498J748D01*
G01*
G75*
G01X19898Y28651D02*
G03X18901Y28651I-498J748D01*
G01*
G75*
G01X9398Y28651D02*
G03X8401Y28651I-498J748D01*
G01*
G54D12*
G75*
G01X11156Y36179D02*
G03X11157Y36179I1J-79D01*
G01*
G75*
G01X21756Y36179D02*
G03X21757Y36179I1J-79D01*
G01*
G75*
G01X32156Y36134D02*
G03X32157Y36134I1J-79D01*
G01*
G75*
G01X15956Y43979D02*
G03X15957Y43979I1J-79D01*
G01*
G75*
G01X20856Y43979D02*
G03X20857Y43979I1J-79D01*
G01*
G54D10*
G75*
G01X11284Y24200D02*
G02X12584Y24200I650J-554D01*
G01*
G75*
G01X13284Y24200D02*
G02X14584Y24200I650J-526D01*
G01*
G75*
G01X21784Y24200D02*
G02X23084Y24200I650J-554D01*
G01*
G75*
G01X23784Y24200D02*
G02X25084Y24200I650J-526D01*
G01*
G75*
G01X32184Y24200D02*
G02X33484Y24200I650J-554D01*
G01*
G75*
G01X34184Y24200D02*
G02X35484Y24200I650J-526D01*
G01*
G75*
G01X100Y30315D02*
G02X100Y29015I-553J-650D01*
G01*
G75*
G01X100Y28315D02*
G02X100Y27015I-525J-650D01*
G01*
G75*
G01X100Y26200D02*
G02X100Y24900I-525J-650D01*
G01*

M00*
M02*