G04 ---------------------------- Layer name :BOTTOM LAYER*
G04 easyEDA 0.1*
G04 Scale: 100 percent, Rotated: No, Reflected: No *
G04 Dimensions in inches *
G04 leading zeros omitted , absolute positions ,2 integer and 4 * 
%FSLAX24Y24*%
%MOIN*%
G90*
G70D02*

%ADD11C,0.016000*%
%ADD12C,0.118110*%
%ADD14C,0.074000*%
%ADD16C,0.065000*%
%ADD18C,0.075000*%
%ADD20R,0.078740X0.098425*%
%ADD21C,0.078740*%

%LPD*%
G36*
G01X0Y24100D02*
G01X0Y48200D01*
G01X39000Y48200D01*
G01X39000Y24100D01*
G01X0Y24100D01*
G37*

%LPC*%
G36*
G01X32456Y35463D02*
G01X33242Y35463D01*
G01X33272Y35467D01*
G01X33300Y35484D01*
G01X33322Y35505D01*
G01X33338Y35534D01*
G01X33342Y35563D01*
G01X33342Y36548D01*
G01X33338Y36578D01*
G01X33322Y36605D01*
G01X33300Y36628D01*
G01X33272Y36644D01*
G01X33242Y36648D01*
G01X32456Y36648D01*
G01X32426Y36644D01*
G01X32397Y36628D01*
G01X32376Y36605D01*
G01X32360Y36578D01*
G01X32356Y36548D01*
G01X32356Y35563D01*
G01X32360Y35534D01*
G01X32376Y35505D01*
G01X32397Y35484D01*
G01X32426Y35467D01*
G01X32456Y35463D01*
G37*
G36*
G01X34768Y25009D02*
G01X34922Y25028D01*
G01X35068Y25078D01*
G01X35197Y25159D01*
G01X35307Y25269D01*
G01X35389Y25400D01*
G01X35439Y25546D01*
G01X35457Y25700D01*
G01X35439Y25853D01*
G01X35389Y26000D01*
G01X35307Y26130D01*
G01X35197Y26240D01*
G01X35068Y26321D01*
G01X34922Y26371D01*
G01X34768Y26390D01*
G01X34614Y26371D01*
G01X34468Y26321D01*
G01X34338Y26240D01*
G01X34227Y26130D01*
G01X34146Y26000D01*
G01X34096Y25853D01*
G01X34077Y25700D01*
G01X34096Y25546D01*
G01X34146Y25400D01*
G01X34227Y25269D01*
G01X34338Y25159D01*
G01X34468Y25078D01*
G01X34614Y25028D01*
G01X34768Y25009D01*
G37*
G36*
G01X32800Y25009D02*
G01X32954Y25028D01*
G01X33100Y25078D01*
G01X33230Y25159D01*
G01X33339Y25269D01*
G01X33422Y25400D01*
G01X33472Y25546D01*
G01X33489Y25700D01*
G01X33472Y25853D01*
G01X33422Y26000D01*
G01X33339Y26130D01*
G01X33230Y26240D01*
G01X33100Y26321D01*
G01X32954Y26371D01*
G01X32800Y26390D01*
G01X32646Y26371D01*
G01X32500Y26321D01*
G01X32369Y26240D01*
G01X32260Y26130D01*
G01X32177Y26000D01*
G01X32127Y25853D01*
G01X32110Y25700D01*
G01X32127Y25546D01*
G01X32177Y25400D01*
G01X32260Y25269D01*
G01X32369Y25159D01*
G01X32500Y25078D01*
G01X32646Y25028D01*
G01X32800Y25009D01*
G37*
G36*
G01X24368Y25009D02*
G01X24522Y25028D01*
G01X24668Y25078D01*
G01X24797Y25159D01*
G01X24907Y25269D01*
G01X24989Y25400D01*
G01X25039Y25546D01*
G01X25057Y25700D01*
G01X25039Y25853D01*
G01X24989Y26000D01*
G01X24907Y26130D01*
G01X24797Y26240D01*
G01X24668Y26321D01*
G01X24522Y26371D01*
G01X24368Y26390D01*
G01X24214Y26371D01*
G01X24068Y26321D01*
G01X23938Y26240D01*
G01X23827Y26130D01*
G01X23746Y26000D01*
G01X23696Y25853D01*
G01X23677Y25700D01*
G01X23696Y25546D01*
G01X23746Y25400D01*
G01X23827Y25269D01*
G01X23938Y25159D01*
G01X24068Y25078D01*
G01X24214Y25028D01*
G01X24368Y25009D01*
G37*
G36*
G01X22400Y25009D02*
G01X22553Y25028D01*
G01X22700Y25078D01*
G01X22830Y25159D01*
G01X22939Y25269D01*
G01X23022Y25400D01*
G01X23072Y25546D01*
G01X23089Y25700D01*
G01X23072Y25853D01*
G01X23022Y26000D01*
G01X22939Y26130D01*
G01X22830Y26240D01*
G01X22700Y26321D01*
G01X22553Y26371D01*
G01X22400Y26390D01*
G01X22246Y26371D01*
G01X22100Y26321D01*
G01X21969Y26240D01*
G01X21860Y26130D01*
G01X21777Y26000D01*
G01X21727Y25853D01*
G01X21710Y25700D01*
G01X21727Y25546D01*
G01X21777Y25400D01*
G01X21860Y25269D01*
G01X21969Y25159D01*
G01X22100Y25078D01*
G01X22246Y25028D01*
G01X22400Y25009D01*
G37*
G36*
G01X13868Y25009D02*
G01X14022Y25028D01*
G01X14168Y25078D01*
G01X14297Y25159D01*
G01X14407Y25269D01*
G01X14489Y25400D01*
G01X14539Y25546D01*
G01X14557Y25700D01*
G01X14539Y25853D01*
G01X14489Y26000D01*
G01X14407Y26130D01*
G01X14297Y26240D01*
G01X14168Y26321D01*
G01X14022Y26371D01*
G01X13868Y26390D01*
G01X13714Y26371D01*
G01X13568Y26321D01*
G01X13438Y26240D01*
G01X13327Y26130D01*
G01X13246Y26000D01*
G01X13196Y25853D01*
G01X13177Y25700D01*
G01X13196Y25546D01*
G01X13246Y25400D01*
G01X13327Y25269D01*
G01X13438Y25159D01*
G01X13568Y25078D01*
G01X13714Y25028D01*
G01X13868Y25009D01*
G37*
G36*
G01X11900Y25009D02*
G01X12053Y25028D01*
G01X12200Y25078D01*
G01X12330Y25159D01*
G01X12439Y25269D01*
G01X12522Y25400D01*
G01X12572Y25546D01*
G01X12589Y25700D01*
G01X12572Y25853D01*
G01X12522Y26000D01*
G01X12439Y26130D01*
G01X12330Y26240D01*
G01X12200Y26321D01*
G01X12053Y26371D01*
G01X11900Y26390D01*
G01X11746Y26371D01*
G01X11600Y26321D01*
G01X11469Y26240D01*
G01X11360Y26130D01*
G01X11277Y26000D01*
G01X11227Y25853D01*
G01X11210Y25700D01*
G01X11227Y25546D01*
G01X11277Y25400D01*
G01X11360Y25269D01*
G01X11469Y25159D01*
G01X11600Y25078D01*
G01X11746Y25028D01*
G01X11900Y25009D01*
G37*
G36*
G01X1600Y27042D02*
G01X1753Y27059D01*
G01X1900Y27109D01*
G01X2030Y27192D01*
G01X2140Y27302D01*
G01X2221Y27432D01*
G01X2263Y27552D01*
G01X13831Y27552D01*
G01X13860Y27553D01*
G01X13888Y27559D01*
G01X13914Y27571D01*
G01X13938Y27586D01*
G01X13960Y27603D01*
G01X15627Y29271D01*
G01X15646Y29294D01*
G01X15660Y29317D01*
G01X15672Y29344D01*
G01X15677Y29371D01*
G01X15680Y29400D01*
G01X15680Y37023D01*
G01X17423Y38767D01*
G01X17442Y38757D01*
G01X17568Y38732D01*
G01X17696Y38740D01*
G01X17815Y38782D01*
G01X17919Y38855D01*
G01X18002Y38955D01*
G01X18052Y39073D01*
G01X18069Y39200D01*
G01X18052Y39326D01*
G01X18002Y39444D01*
G01X17919Y39544D01*
G01X17815Y39617D01*
G01X17696Y39659D01*
G01X17568Y39667D01*
G01X17442Y39642D01*
G01X17327Y39584D01*
G01X17235Y39496D01*
G01X17168Y39388D01*
G01X17134Y39263D01*
G01X17134Y39136D01*
G01X17165Y39021D01*
G01X15372Y37228D01*
G01X15353Y37205D01*
G01X15339Y37182D01*
G01X15327Y37155D01*
G01X15322Y37128D01*
G01X15319Y37100D01*
G01X15319Y29476D01*
G01X13756Y27911D01*
G01X2263Y27911D01*
G01X2221Y28032D01*
G01X2140Y28161D01*
G01X2030Y28271D01*
G01X1900Y28353D01*
G01X1753Y28403D01*
G01X1600Y28421D01*
G01X1446Y28403D01*
G01X1300Y28353D01*
G01X1169Y28271D01*
G01X1059Y28161D01*
G01X978Y28032D01*
G01X928Y27886D01*
G01X909Y27732D01*
G01X928Y27578D01*
G01X978Y27432D01*
G01X1059Y27302D01*
G01X1169Y27192D01*
G01X1300Y27109D01*
G01X1446Y27059D01*
G01X1600Y27042D01*
G37*
G36*
G01X18181Y44146D02*
G01X18453Y44146D01*
G01X18453Y44446D01*
G01X18419Y44434D01*
G01X18414Y44432D01*
G01X18407Y44428D01*
G01X18400Y44423D01*
G01X18396Y44419D01*
G01X18389Y44415D01*
G01X18285Y44328D01*
G01X18280Y44323D01*
G01X18276Y44317D01*
G01X18272Y44313D01*
G01X18264Y44302D01*
G01X18196Y44184D01*
G01X18192Y44178D01*
G01X18189Y44171D01*
G01X18185Y44165D01*
G01X18185Y44157D01*
G01X18181Y44146D01*
G37*
G36*
G01X9061Y28509D02*
G01X9164Y28567D01*
G01X9250Y28661D01*
G01X9288Y28738D01*
G01X9061Y28738D01*
G01X9061Y28509D01*
G37*
G36*
G01X19561Y28509D02*
G01X19664Y28567D01*
G01X19750Y28661D01*
G01X19788Y28738D01*
G01X19561Y28738D01*
G01X19561Y28509D01*
G37*
G36*
G01X30161Y28509D02*
G01X30264Y28567D01*
G01X30350Y28661D01*
G01X30388Y28738D01*
G01X30161Y28738D01*
G01X30161Y28509D01*
G37*
G36*
G01X8738Y28511D02*
G01X8738Y28738D01*
G01X8511Y28738D01*
G01X8518Y28715D01*
G01X8589Y28611D01*
G01X8688Y28532D01*
G01X8738Y28511D01*
G37*
G36*
G01X19238Y28511D02*
G01X19238Y28738D01*
G01X19011Y28738D01*
G01X19018Y28715D01*
G01X19089Y28611D01*
G01X19188Y28532D01*
G01X19238Y28511D01*
G37*
G36*
G01X29838Y28511D02*
G01X29838Y28738D01*
G01X29611Y28738D01*
G01X29618Y28715D01*
G01X29689Y28611D01*
G01X29788Y28532D01*
G01X29838Y28511D01*
G37*
G36*
G01X9061Y29061D02*
G01X9288Y29061D01*
G01X9250Y29138D01*
G01X9164Y29232D01*
G01X9061Y29290D01*
G01X9061Y29061D01*
G37*
G36*
G01X8511Y29061D02*
G01X8738Y29061D01*
G01X8738Y29288D01*
G01X8688Y29267D01*
G01X8589Y29188D01*
G01X8518Y29084D01*
G01X8511Y29061D01*
G37*
G36*
G01X19561Y29061D02*
G01X19788Y29061D01*
G01X19750Y29138D01*
G01X19664Y29232D01*
G01X19561Y29290D01*
G01X19561Y29061D01*
G37*
G36*
G01X19011Y29061D02*
G01X19238Y29061D01*
G01X19238Y29288D01*
G01X19188Y29267D01*
G01X19089Y29188D01*
G01X19018Y29084D01*
G01X19011Y29061D01*
G37*
G36*
G01X30161Y29061D02*
G01X30388Y29061D01*
G01X30350Y29138D01*
G01X30264Y29232D01*
G01X30161Y29290D01*
G01X30161Y29061D01*
G37*
G36*
G01X29611Y29061D02*
G01X29838Y29061D01*
G01X29838Y29288D01*
G01X29788Y29267D01*
G01X29689Y29188D01*
G01X29618Y29084D01*
G01X29611Y29061D01*
G37*
G36*
G01X1894Y29076D02*
G01X1900Y29078D01*
G01X2030Y29159D01*
G01X2140Y29269D01*
G01X2221Y29400D01*
G01X2223Y29405D01*
G01X1894Y29405D01*
G01X1894Y29076D01*
G37*
G36*
G01X1305Y29076D02*
G01X1305Y29405D01*
G01X976Y29405D01*
G01X978Y29400D01*
G01X1059Y29269D01*
G01X1169Y29159D01*
G01X1300Y29078D01*
G01X1305Y29076D01*
G37*
G36*
G01X8931Y29478D02*
G01X9053Y29505D01*
G01X9164Y29567D01*
G01X9250Y29661D01*
G01X9306Y29776D01*
G01X9323Y29900D01*
G01X9306Y30023D01*
G01X9250Y30138D01*
G01X9164Y30232D01*
G01X9053Y30294D01*
G01X8931Y30321D01*
G01X8806Y30313D01*
G01X8688Y30267D01*
G01X8589Y30188D01*
G01X8518Y30084D01*
G01X8480Y29963D01*
G01X8480Y29836D01*
G01X8518Y29715D01*
G01X8589Y29611D01*
G01X8688Y29532D01*
G01X8806Y29486D01*
G01X8931Y29478D01*
G37*
G36*
G01X19431Y29478D02*
G01X19553Y29505D01*
G01X19664Y29567D01*
G01X19750Y29661D01*
G01X19806Y29776D01*
G01X19823Y29900D01*
G01X19806Y30023D01*
G01X19750Y30138D01*
G01X19664Y30232D01*
G01X19553Y30294D01*
G01X19431Y30321D01*
G01X19306Y30313D01*
G01X19188Y30267D01*
G01X19089Y30188D01*
G01X19018Y30084D01*
G01X18980Y29963D01*
G01X18980Y29836D01*
G01X19018Y29715D01*
G01X19089Y29611D01*
G01X19188Y29532D01*
G01X19306Y29486D01*
G01X19431Y29478D01*
G37*
G36*
G01X30031Y29478D02*
G01X30153Y29505D01*
G01X30264Y29567D01*
G01X30350Y29661D01*
G01X30406Y29776D01*
G01X30423Y29900D01*
G01X30406Y30023D01*
G01X30350Y30138D01*
G01X30264Y30232D01*
G01X30153Y30294D01*
G01X30031Y30321D01*
G01X29906Y30313D01*
G01X29788Y30267D01*
G01X29689Y30188D01*
G01X29618Y30084D01*
G01X29580Y29963D01*
G01X29580Y29836D01*
G01X29618Y29715D01*
G01X29689Y29611D01*
G01X29788Y29532D01*
G01X29906Y29486D01*
G01X30031Y29478D01*
G37*
G36*
G01X1894Y29994D02*
G01X2223Y29994D01*
G01X2221Y30000D01*
G01X2140Y30130D01*
G01X2030Y30240D01*
G01X1900Y30321D01*
G01X1894Y30323D01*
G01X1894Y29994D01*
G37*
G36*
G01X976Y29994D02*
G01X1305Y29994D01*
G01X1305Y30323D01*
G01X1300Y30321D01*
G01X1169Y30240D01*
G01X1059Y30130D01*
G01X978Y30000D01*
G01X976Y29994D01*
G37*
G36*
G01X22368Y30328D02*
G01X22496Y30336D01*
G01X22618Y30380D01*
G01X22723Y30453D01*
G01X22803Y30553D01*
G01X22856Y30671D01*
G01X22873Y30800D01*
G01X22856Y30928D01*
G01X22803Y31046D01*
G01X22723Y31146D01*
G01X22618Y31219D01*
G01X22496Y31263D01*
G01X22368Y31271D01*
G01X22242Y31246D01*
G01X22126Y31188D01*
G01X22043Y31111D01*
G01X20880Y32276D01*
G01X20880Y37323D01*
G01X22323Y38767D01*
G01X22342Y38757D01*
G01X22468Y38732D01*
G01X22596Y38740D01*
G01X22715Y38782D01*
G01X22819Y38855D01*
G01X22902Y38955D01*
G01X22952Y39073D01*
G01X22969Y39200D01*
G01X22952Y39326D01*
G01X22902Y39444D01*
G01X22819Y39544D01*
G01X22715Y39617D01*
G01X22596Y39659D01*
G01X22468Y39667D01*
G01X22342Y39642D01*
G01X22227Y39584D01*
G01X22135Y39496D01*
G01X22068Y39388D01*
G01X22034Y39263D01*
G01X22034Y39136D01*
G01X22065Y39021D01*
G01X20572Y37528D01*
G01X20553Y37505D01*
G01X20539Y37482D01*
G01X20527Y37455D01*
G01X20522Y37428D01*
G01X20519Y37400D01*
G01X20519Y32200D01*
G01X20522Y32171D01*
G01X20527Y32144D01*
G01X20539Y32117D01*
G01X20553Y32094D01*
G01X20572Y32071D01*
G01X21938Y30705D01*
G01X21965Y30611D01*
G01X22031Y30500D01*
G01X22126Y30411D01*
G01X22242Y30353D01*
G01X22368Y30328D01*
G37*
G36*
G01X11868Y30328D02*
G01X11996Y30336D01*
G01X12118Y30380D01*
G01X12223Y30453D01*
G01X12303Y30553D01*
G01X12356Y30671D01*
G01X12373Y30800D01*
G01X12356Y30928D01*
G01X12303Y31046D01*
G01X12223Y31146D01*
G01X12118Y31219D01*
G01X11996Y31263D01*
G01X11868Y31271D01*
G01X11742Y31246D01*
G01X11626Y31188D01*
G01X11531Y31100D01*
G01X11465Y30988D01*
G01X11430Y30863D01*
G01X11430Y30736D01*
G01X11465Y30611D01*
G01X11531Y30500D01*
G01X11626Y30411D01*
G01X11742Y30353D01*
G01X11868Y30328D01*
G37*
G36*
G01X24368Y30328D02*
G01X24496Y30336D01*
G01X24618Y30380D01*
G01X24723Y30453D01*
G01X24803Y30553D01*
G01X24856Y30671D01*
G01X24873Y30800D01*
G01X24856Y30928D01*
G01X24803Y31046D01*
G01X24723Y31146D01*
G01X24618Y31219D01*
G01X24496Y31263D01*
G01X24368Y31271D01*
G01X24242Y31246D01*
G01X24126Y31188D01*
G01X24031Y31100D01*
G01X23965Y30988D01*
G01X23930Y30863D01*
G01X23930Y30736D01*
G01X23965Y30611D01*
G01X24031Y30500D01*
G01X24126Y30411D01*
G01X24242Y30353D01*
G01X24368Y30328D01*
G37*
G36*
G01X13868Y30328D02*
G01X13996Y30336D01*
G01X14118Y30380D01*
G01X14223Y30453D01*
G01X14303Y30553D01*
G01X14356Y30671D01*
G01X14373Y30800D01*
G01X14356Y30928D01*
G01X14303Y31046D01*
G01X14223Y31146D01*
G01X14118Y31219D01*
G01X13996Y31263D01*
G01X13868Y31271D01*
G01X13742Y31246D01*
G01X13626Y31188D01*
G01X13531Y31100D01*
G01X13465Y30988D01*
G01X13430Y30863D01*
G01X13430Y30736D01*
G01X13465Y30611D01*
G01X13531Y30500D01*
G01X13626Y30411D01*
G01X13742Y30353D01*
G01X13868Y30328D01*
G37*
G36*
G01X32768Y30384D02*
G01X32896Y30392D01*
G01X33018Y30436D01*
G01X33123Y30509D01*
G01X33204Y30609D01*
G01X33256Y30728D01*
G01X33273Y30855D01*
G01X33256Y30984D01*
G01X33204Y31102D01*
G01X33123Y31202D01*
G01X33018Y31276D01*
G01X32896Y31319D01*
G01X32768Y31328D01*
G01X32642Y31302D01*
G01X32526Y31244D01*
G01X32431Y31155D01*
G01X32365Y31044D01*
G01X32330Y30919D01*
G01X32330Y30792D01*
G01X32365Y30667D01*
G01X32431Y30555D01*
G01X32526Y30467D01*
G01X32642Y30409D01*
G01X32768Y30384D01*
G37*
G36*
G01X34768Y30384D02*
G01X34896Y30392D01*
G01X35018Y30436D01*
G01X35123Y30509D01*
G01X35204Y30609D01*
G01X35256Y30728D01*
G01X35273Y30855D01*
G01X35256Y30984D01*
G01X35204Y31102D01*
G01X35123Y31202D01*
G01X35018Y31276D01*
G01X34896Y31319D01*
G01X34768Y31328D01*
G01X34642Y31302D01*
G01X34526Y31244D01*
G01X34431Y31155D01*
G01X34365Y31044D01*
G01X34330Y30919D01*
G01X34330Y30792D01*
G01X34365Y30667D01*
G01X34431Y30555D01*
G01X34526Y30467D01*
G01X34642Y30409D01*
G01X34768Y30384D01*
G37*
G36*
G01X18846Y44146D02*
G01X19118Y44146D01*
G01X19114Y44157D01*
G01X19114Y44165D01*
G01X19110Y44171D01*
G01X19107Y44178D01*
G01X19103Y44184D01*
G01X19035Y44302D01*
G01X19027Y44313D01*
G01X19023Y44317D01*
G01X19019Y44323D01*
G01X19014Y44328D01*
G01X18910Y44415D01*
G01X18903Y44419D01*
G01X18900Y44423D01*
G01X18892Y44428D01*
G01X18885Y44432D01*
G01X18880Y44434D01*
G01X18846Y44446D01*
G01X18846Y44146D01*
G37*
G36*
G01X29968Y32632D02*
G01X30096Y32640D01*
G01X30215Y32682D01*
G01X30319Y32755D01*
G01X30402Y32855D01*
G01X30452Y32973D01*
G01X30469Y33100D01*
G01X30452Y33226D01*
G01X30402Y33344D01*
G01X30319Y33444D01*
G01X30215Y33517D01*
G01X30096Y33559D01*
G01X29968Y33567D01*
G01X29842Y33542D01*
G01X29727Y33484D01*
G01X29635Y33396D01*
G01X29568Y33288D01*
G01X29534Y33163D01*
G01X29534Y33036D01*
G01X29568Y32911D01*
G01X29635Y32804D01*
G01X29727Y32715D01*
G01X29842Y32657D01*
G01X29968Y32632D01*
G37*
G36*
G01X8868Y32632D02*
G01X8996Y32640D01*
G01X9115Y32682D01*
G01X9219Y32755D01*
G01X9302Y32855D01*
G01X9352Y32973D01*
G01X9369Y33100D01*
G01X9352Y33226D01*
G01X9302Y33344D01*
G01X9219Y33444D01*
G01X9115Y33517D01*
G01X8996Y33559D01*
G01X8868Y33567D01*
G01X8742Y33542D01*
G01X8627Y33484D01*
G01X8535Y33396D01*
G01X8468Y33288D01*
G01X8434Y33163D01*
G01X8434Y33036D01*
G01X8468Y32911D01*
G01X8535Y32804D01*
G01X8627Y32715D01*
G01X8742Y32657D01*
G01X8868Y32632D01*
G37*
G36*
G01X19368Y32632D02*
G01X19496Y32640D01*
G01X19615Y32682D01*
G01X19719Y32755D01*
G01X19802Y32855D01*
G01X19852Y32973D01*
G01X19869Y33100D01*
G01X19852Y33226D01*
G01X19802Y33344D01*
G01X19719Y33444D01*
G01X19615Y33517D01*
G01X19496Y33559D01*
G01X19368Y33567D01*
G01X19242Y33542D01*
G01X19127Y33484D01*
G01X19035Y33396D01*
G01X18968Y33288D01*
G01X18934Y33163D01*
G01X18934Y33036D01*
G01X18968Y32911D01*
G01X19035Y32804D01*
G01X19127Y32715D01*
G01X19242Y32657D01*
G01X19368Y32632D01*
G37*
G36*
G01X28084Y32669D02*
G01X28115Y32682D01*
G01X28219Y32755D01*
G01X28302Y32855D01*
G01X28327Y32915D01*
G01X28084Y32915D01*
G01X28084Y32669D01*
G37*
G36*
G01X17384Y32669D02*
G01X17415Y32682D01*
G01X17519Y32755D01*
G01X17602Y32855D01*
G01X17627Y32915D01*
G01X17384Y32915D01*
G01X17384Y32669D01*
G37*
G36*
G01X6784Y32669D02*
G01X6815Y32682D01*
G01X6919Y32755D01*
G01X7002Y32855D01*
G01X7027Y32915D01*
G01X6784Y32915D01*
G01X6784Y32669D01*
G37*
G36*
G01X27715Y32671D02*
G01X27715Y32915D01*
G01X27465Y32915D01*
G01X27468Y32911D01*
G01X27535Y32804D01*
G01X27627Y32715D01*
G01X27715Y32671D01*
G37*
G36*
G01X17015Y32671D02*
G01X17015Y32915D01*
G01X16765Y32915D01*
G01X16768Y32911D01*
G01X16835Y32804D01*
G01X16927Y32715D01*
G01X17015Y32671D01*
G37*
G36*
G01X6415Y32671D02*
G01X6415Y32915D01*
G01X6165Y32915D01*
G01X6168Y32911D01*
G01X6235Y32804D01*
G01X6327Y32715D01*
G01X6415Y32671D01*
G37*
G36*
G01X28084Y33284D02*
G01X28327Y33284D01*
G01X28302Y33344D01*
G01X28219Y33444D01*
G01X28115Y33517D01*
G01X28084Y33530D01*
G01X28084Y33284D01*
G37*
G36*
G01X27465Y33284D02*
G01X27715Y33284D01*
G01X27715Y33528D01*
G01X27627Y33484D01*
G01X27535Y33396D01*
G01X27468Y33288D01*
G01X27465Y33284D01*
G37*
G36*
G01X17384Y33284D02*
G01X17627Y33284D01*
G01X17602Y33344D01*
G01X17519Y33444D01*
G01X17415Y33517D01*
G01X17384Y33530D01*
G01X17384Y33284D01*
G37*
G36*
G01X16765Y33284D02*
G01X17015Y33284D01*
G01X17015Y33528D01*
G01X16927Y33484D01*
G01X16835Y33396D01*
G01X16768Y33288D01*
G01X16765Y33284D01*
G37*
G36*
G01X6784Y33284D02*
G01X7027Y33284D01*
G01X7002Y33344D01*
G01X6919Y33444D01*
G01X6815Y33517D01*
G01X6784Y33530D01*
G01X6784Y33284D01*
G37*
G36*
G01X6165Y33284D02*
G01X6415Y33284D01*
G01X6415Y33528D01*
G01X6327Y33484D01*
G01X6235Y33396D01*
G01X6168Y33288D01*
G01X6165Y33284D01*
G37*
G36*
G01X22368Y33328D02*
G01X22496Y33336D01*
G01X22618Y33380D01*
G01X22723Y33454D01*
G01X22803Y33554D01*
G01X22856Y33671D01*
G01X22873Y33800D01*
G01X22856Y33928D01*
G01X22803Y34046D01*
G01X22723Y34146D01*
G01X22618Y34219D01*
G01X22496Y34263D01*
G01X22368Y34271D01*
G01X22242Y34246D01*
G01X22126Y34188D01*
G01X22031Y34100D01*
G01X21965Y33988D01*
G01X21930Y33863D01*
G01X21930Y33736D01*
G01X21965Y33611D01*
G01X22031Y33500D01*
G01X22126Y33411D01*
G01X22242Y33354D01*
G01X22368Y33328D01*
G37*
G36*
G01X11868Y33328D02*
G01X11996Y33336D01*
G01X12118Y33380D01*
G01X12223Y33454D01*
G01X12303Y33554D01*
G01X12356Y33671D01*
G01X12373Y33800D01*
G01X12356Y33928D01*
G01X12303Y34046D01*
G01X12223Y34146D01*
G01X12118Y34219D01*
G01X11996Y34263D01*
G01X11868Y34271D01*
G01X11742Y34246D01*
G01X11626Y34188D01*
G01X11531Y34100D01*
G01X11465Y33988D01*
G01X11430Y33863D01*
G01X11430Y33736D01*
G01X11465Y33611D01*
G01X11531Y33500D01*
G01X11626Y33411D01*
G01X11742Y33354D01*
G01X11868Y33328D01*
G37*
G36*
G01X24368Y33328D02*
G01X24496Y33336D01*
G01X24618Y33380D01*
G01X24723Y33454D01*
G01X24803Y33554D01*
G01X24856Y33671D01*
G01X24873Y33800D01*
G01X24856Y33928D01*
G01X24803Y34046D01*
G01X24723Y34146D01*
G01X24618Y34219D01*
G01X24496Y34263D01*
G01X24368Y34271D01*
G01X24242Y34246D01*
G01X24126Y34188D01*
G01X24031Y34100D01*
G01X23965Y33988D01*
G01X23930Y33863D01*
G01X23930Y33736D01*
G01X23965Y33611D01*
G01X24031Y33500D01*
G01X24126Y33411D01*
G01X24242Y33354D01*
G01X24368Y33328D01*
G37*
G36*
G01X13868Y33328D02*
G01X13996Y33336D01*
G01X14118Y33380D01*
G01X14223Y33454D01*
G01X14303Y33554D01*
G01X14356Y33671D01*
G01X14373Y33800D01*
G01X14356Y33928D01*
G01X14303Y34046D01*
G01X14223Y34146D01*
G01X14118Y34219D01*
G01X13996Y34263D01*
G01X13868Y34271D01*
G01X13742Y34246D01*
G01X13626Y34188D01*
G01X13531Y34100D01*
G01X13465Y33988D01*
G01X13430Y33863D01*
G01X13430Y33736D01*
G01X13465Y33611D01*
G01X13531Y33500D01*
G01X13626Y33411D01*
G01X13742Y33354D01*
G01X13868Y33328D01*
G37*
G36*
G01X32768Y33384D02*
G01X32896Y33392D01*
G01X33018Y33436D01*
G01X33123Y33509D01*
G01X33204Y33609D01*
G01X33256Y33728D01*
G01X33273Y33855D01*
G01X33256Y33984D01*
G01X33204Y34102D01*
G01X33123Y34202D01*
G01X33018Y34276D01*
G01X32896Y34319D01*
G01X32768Y34328D01*
G01X32642Y34302D01*
G01X32526Y34244D01*
G01X32431Y34155D01*
G01X32365Y34044D01*
G01X32330Y33919D01*
G01X32330Y33792D01*
G01X32365Y33667D01*
G01X32431Y33555D01*
G01X32526Y33467D01*
G01X32642Y33409D01*
G01X32768Y33384D01*
G37*
G36*
G01X34768Y33384D02*
G01X34896Y33392D01*
G01X35018Y33436D01*
G01X35123Y33509D01*
G01X35204Y33609D01*
G01X35256Y33728D01*
G01X35273Y33855D01*
G01X35256Y33984D01*
G01X35204Y34102D01*
G01X35123Y34202D01*
G01X35018Y34276D01*
G01X34896Y34319D01*
G01X34768Y34328D01*
G01X34642Y34302D01*
G01X34526Y34244D01*
G01X34431Y34155D01*
G01X34365Y34044D01*
G01X34330Y33919D01*
G01X34330Y33792D01*
G01X34365Y33667D01*
G01X34431Y33555D01*
G01X34526Y33467D01*
G01X34642Y33409D01*
G01X34768Y33384D01*
G37*
G36*
G01X1600Y25009D02*
G01X1753Y25028D01*
G01X1900Y25078D01*
G01X2030Y25159D01*
G01X2140Y25269D01*
G01X2221Y25400D01*
G01X2271Y25546D01*
G01X2290Y25700D01*
G01X2271Y25853D01*
G01X2221Y26000D01*
G01X2140Y26130D01*
G01X2030Y26240D01*
G01X1900Y26321D01*
G01X1753Y26371D01*
G01X1600Y26390D01*
G01X1446Y26371D01*
G01X1300Y26321D01*
G01X1169Y26240D01*
G01X1059Y26130D01*
G01X978Y26000D01*
G01X928Y25853D01*
G01X909Y25700D01*
G01X928Y25546D01*
G01X978Y25400D01*
G01X1059Y25269D01*
G01X1169Y25159D01*
G01X1300Y25078D01*
G01X1446Y25028D01*
G01X1600Y25009D01*
G37*
G36*
G01X33768Y35471D02*
G01X33931Y35471D01*
G01X33938Y35473D01*
G01X33946Y35476D01*
G01X33952Y35478D01*
G01X34080Y35523D01*
G01X34085Y35526D01*
G01X34092Y35530D01*
G01X34100Y35534D01*
G01X34104Y35538D01*
G01X34110Y35542D01*
G01X34214Y35630D01*
G01X34219Y35634D01*
G01X34223Y35640D01*
G01X34227Y35644D01*
G01X34235Y35655D01*
G01X34304Y35773D01*
G01X34307Y35780D01*
G01X34310Y35786D01*
G01X34314Y35792D01*
G01X34314Y35800D01*
G01X34315Y35805D01*
G01X34339Y35940D01*
G01X34339Y35944D01*
G01X34342Y35948D01*
G01X34342Y36163D01*
G01X34339Y36167D01*
G01X34339Y36171D01*
G01X34315Y36305D01*
G01X34314Y36311D01*
G01X34314Y36319D01*
G01X34310Y36326D01*
G01X34307Y36332D01*
G01X34304Y36338D01*
G01X34235Y36455D01*
G01X34227Y36467D01*
G01X34223Y36471D01*
G01X34219Y36478D01*
G01X34214Y36482D01*
G01X34110Y36569D01*
G01X34104Y36573D01*
G01X34100Y36578D01*
G01X34092Y36582D01*
G01X34085Y36586D01*
G01X34080Y36588D01*
G01X33952Y36634D01*
G01X33946Y36636D01*
G01X33938Y36638D01*
G01X33931Y36640D01*
G01X33768Y36640D01*
G01X33761Y36638D01*
G01X33754Y36636D01*
G01X33747Y36634D01*
G01X33619Y36588D01*
G01X33614Y36586D01*
G01X33607Y36582D01*
G01X33600Y36578D01*
G01X33596Y36573D01*
G01X33589Y36569D01*
G01X33485Y36482D01*
G01X33480Y36478D01*
G01X33476Y36471D01*
G01X33472Y36467D01*
G01X33464Y36455D01*
G01X33396Y36338D01*
G01X33392Y36332D01*
G01X33389Y36326D01*
G01X33385Y36319D01*
G01X33385Y36311D01*
G01X33384Y36305D01*
G01X33360Y36171D01*
G01X33360Y36167D01*
G01X33357Y36163D01*
G01X33357Y35948D01*
G01X33360Y35944D01*
G01X33360Y35940D01*
G01X33384Y35805D01*
G01X33385Y35800D01*
G01X33385Y35792D01*
G01X33389Y35786D01*
G01X33392Y35780D01*
G01X33396Y35773D01*
G01X33464Y35655D01*
G01X33472Y35644D01*
G01X33476Y35640D01*
G01X33480Y35634D01*
G01X33485Y35630D01*
G01X33589Y35542D01*
G01X33596Y35538D01*
G01X33600Y35534D01*
G01X33607Y35530D01*
G01X33614Y35526D01*
G01X33619Y35523D01*
G01X33747Y35478D01*
G01X33754Y35476D01*
G01X33761Y35473D01*
G01X33768Y35471D01*
G37*
G36*
G01X22056Y35507D02*
G01X22842Y35507D01*
G01X22872Y35511D01*
G01X22900Y35528D01*
G01X22922Y35550D01*
G01X22938Y35578D01*
G01X22942Y35607D01*
G01X22942Y36594D01*
G01X22938Y36623D01*
G01X22922Y36652D01*
G01X22900Y36673D01*
G01X22872Y36690D01*
G01X22842Y36694D01*
G01X22056Y36694D01*
G01X22026Y36690D01*
G01X21997Y36673D01*
G01X21976Y36652D01*
G01X21960Y36623D01*
G01X21956Y36594D01*
G01X21956Y35607D01*
G01X21960Y35578D01*
G01X21976Y35550D01*
G01X21997Y35528D01*
G01X22026Y35511D01*
G01X22056Y35507D01*
G37*
G36*
G01X11456Y35507D02*
G01X12242Y35507D01*
G01X12272Y35511D01*
G01X12300Y35528D01*
G01X12322Y35550D01*
G01X12338Y35578D01*
G01X12342Y35607D01*
G01X12342Y36594D01*
G01X12338Y36623D01*
G01X12322Y36652D01*
G01X12300Y36673D01*
G01X12272Y36690D01*
G01X12242Y36694D01*
G01X11456Y36694D01*
G01X11426Y36690D01*
G01X11397Y36673D01*
G01X11376Y36652D01*
G01X11360Y36623D01*
G01X11356Y36594D01*
G01X11356Y35607D01*
G01X11360Y35578D01*
G01X11376Y35550D01*
G01X11397Y35528D01*
G01X11426Y35511D01*
G01X11456Y35507D01*
G37*
G36*
G01X35046Y35511D02*
G01X35080Y35523D01*
G01X35085Y35526D01*
G01X35092Y35530D01*
G01X35100Y35534D01*
G01X35104Y35538D01*
G01X35110Y35542D01*
G01X35214Y35630D01*
G01X35219Y35634D01*
G01X35223Y35640D01*
G01X35227Y35644D01*
G01X35235Y35655D01*
G01X35304Y35773D01*
G01X35307Y35780D01*
G01X35310Y35786D01*
G01X35314Y35792D01*
G01X35314Y35800D01*
G01X35315Y35805D01*
G01X35315Y35809D01*
G01X35046Y35809D01*
G01X35046Y35511D01*
G37*
G36*
G01X34654Y35511D02*
G01X34654Y35809D01*
G01X34384Y35809D01*
G01X34384Y35805D01*
G01X34385Y35800D01*
G01X34385Y35792D01*
G01X34389Y35786D01*
G01X34392Y35780D01*
G01X34396Y35773D01*
G01X34464Y35655D01*
G01X34472Y35644D01*
G01X34476Y35640D01*
G01X34480Y35634D01*
G01X34485Y35630D01*
G01X34589Y35542D01*
G01X34596Y35538D01*
G01X34600Y35534D01*
G01X34607Y35530D01*
G01X34614Y35526D01*
G01X34619Y35523D01*
G01X34654Y35511D01*
G37*
G36*
G01X23368Y35515D02*
G01X23531Y35515D01*
G01X23538Y35517D01*
G01X23546Y35519D01*
G01X23552Y35521D01*
G01X23680Y35567D01*
G01X23685Y35569D01*
G01X23692Y35573D01*
G01X23700Y35578D01*
G01X23703Y35582D01*
G01X23710Y35586D01*
G01X23814Y35673D01*
G01X23819Y35678D01*
G01X23823Y35684D01*
G01X23827Y35688D01*
G01X23835Y35700D01*
G01X23903Y35817D01*
G01X23907Y35823D01*
G01X23910Y35830D01*
G01X23914Y35836D01*
G01X23914Y35844D01*
G01X23915Y35850D01*
G01X23939Y35984D01*
G01X23939Y35988D01*
G01X23942Y35992D01*
G01X23942Y36209D01*
G01X23939Y36213D01*
G01X23939Y36217D01*
G01X23915Y36352D01*
G01X23914Y36357D01*
G01X23914Y36365D01*
G01X23910Y36371D01*
G01X23907Y36378D01*
G01X23903Y36384D01*
G01X23835Y36502D01*
G01X23827Y36513D01*
G01X23823Y36517D01*
G01X23819Y36523D01*
G01X23814Y36528D01*
G01X23710Y36615D01*
G01X23703Y36619D01*
G01X23700Y36623D01*
G01X23692Y36628D01*
G01X23685Y36632D01*
G01X23680Y36634D01*
G01X23552Y36680D01*
G01X23546Y36682D01*
G01X23538Y36684D01*
G01X23531Y36686D01*
G01X23368Y36686D01*
G01X23361Y36684D01*
G01X23353Y36682D01*
G01X23347Y36680D01*
G01X23219Y36634D01*
G01X23214Y36632D01*
G01X23207Y36628D01*
G01X23200Y36623D01*
G01X23196Y36619D01*
G01X23189Y36615D01*
G01X23085Y36528D01*
G01X23080Y36523D01*
G01X23076Y36517D01*
G01X23072Y36513D01*
G01X23064Y36502D01*
G01X22996Y36384D01*
G01X22992Y36378D01*
G01X22989Y36371D01*
G01X22985Y36365D01*
G01X22985Y36357D01*
G01X22984Y36352D01*
G01X22960Y36217D01*
G01X22960Y36213D01*
G01X22957Y36209D01*
G01X22957Y35992D01*
G01X22960Y35988D01*
G01X22960Y35984D01*
G01X22984Y35850D01*
G01X22985Y35844D01*
G01X22985Y35836D01*
G01X22989Y35830D01*
G01X22992Y35823D01*
G01X22996Y35817D01*
G01X23064Y35700D01*
G01X23072Y35688D01*
G01X23076Y35684D01*
G01X23080Y35678D01*
G01X23085Y35673D01*
G01X23189Y35586D01*
G01X23196Y35582D01*
G01X23200Y35578D01*
G01X23207Y35573D01*
G01X23214Y35569D01*
G01X23219Y35567D01*
G01X23347Y35521D01*
G01X23353Y35519D01*
G01X23361Y35517D01*
G01X23368Y35515D01*
G37*
G36*
G01X12768Y35515D02*
G01X12931Y35515D01*
G01X12938Y35517D01*
G01X12946Y35519D01*
G01X12952Y35521D01*
G01X13080Y35567D01*
G01X13085Y35569D01*
G01X13092Y35573D01*
G01X13100Y35578D01*
G01X13103Y35582D01*
G01X13110Y35586D01*
G01X13214Y35673D01*
G01X13219Y35678D01*
G01X13223Y35684D01*
G01X13227Y35688D01*
G01X13235Y35700D01*
G01X13303Y35817D01*
G01X13307Y35823D01*
G01X13310Y35830D01*
G01X13314Y35836D01*
G01X13314Y35844D01*
G01X13315Y35850D01*
G01X13339Y35984D01*
G01X13339Y35988D01*
G01X13342Y35992D01*
G01X13342Y36209D01*
G01X13339Y36213D01*
G01X13339Y36217D01*
G01X13315Y36352D01*
G01X13314Y36357D01*
G01X13314Y36365D01*
G01X13310Y36371D01*
G01X13307Y36378D01*
G01X13303Y36384D01*
G01X13235Y36502D01*
G01X13227Y36513D01*
G01X13223Y36517D01*
G01X13219Y36523D01*
G01X13214Y36528D01*
G01X13110Y36615D01*
G01X13103Y36619D01*
G01X13100Y36623D01*
G01X13092Y36628D01*
G01X13085Y36632D01*
G01X13080Y36634D01*
G01X12952Y36680D01*
G01X12946Y36682D01*
G01X12938Y36684D01*
G01X12931Y36686D01*
G01X12768Y36686D01*
G01X12761Y36684D01*
G01X12753Y36682D01*
G01X12747Y36680D01*
G01X12619Y36634D01*
G01X12614Y36632D01*
G01X12607Y36628D01*
G01X12600Y36623D01*
G01X12596Y36619D01*
G01X12589Y36615D01*
G01X12485Y36528D01*
G01X12480Y36523D01*
G01X12476Y36517D01*
G01X12472Y36513D01*
G01X12464Y36502D01*
G01X12396Y36384D01*
G01X12392Y36378D01*
G01X12389Y36371D01*
G01X12385Y36365D01*
G01X12385Y36357D01*
G01X12384Y36352D01*
G01X12360Y36217D01*
G01X12360Y36213D01*
G01X12357Y36209D01*
G01X12357Y35992D01*
G01X12360Y35988D01*
G01X12360Y35984D01*
G01X12384Y35850D01*
G01X12385Y35844D01*
G01X12385Y35836D01*
G01X12389Y35830D01*
G01X12392Y35823D01*
G01X12396Y35817D01*
G01X12464Y35700D01*
G01X12472Y35688D01*
G01X12476Y35684D01*
G01X12480Y35678D01*
G01X12485Y35673D01*
G01X12589Y35586D01*
G01X12596Y35582D01*
G01X12600Y35578D01*
G01X12607Y35573D01*
G01X12614Y35569D01*
G01X12619Y35567D01*
G01X12747Y35521D01*
G01X12753Y35519D01*
G01X12761Y35517D01*
G01X12768Y35515D01*
G37*
G36*
G01X24646Y35555D02*
G01X24680Y35567D01*
G01X24685Y35569D01*
G01X24692Y35573D01*
G01X24700Y35578D01*
G01X24703Y35582D01*
G01X24710Y35586D01*
G01X24814Y35673D01*
G01X24819Y35678D01*
G01X24823Y35684D01*
G01X24827Y35688D01*
G01X24835Y35700D01*
G01X24903Y35817D01*
G01X24907Y35823D01*
G01X24910Y35830D01*
G01X24914Y35836D01*
G01X24914Y35844D01*
G01X24915Y35850D01*
G01X24915Y35854D01*
G01X24646Y35854D01*
G01X24646Y35555D01*
G37*
G36*
G01X24253Y35555D02*
G01X24253Y35854D01*
G01X23984Y35854D01*
G01X23984Y35850D01*
G01X23985Y35844D01*
G01X23985Y35836D01*
G01X23989Y35830D01*
G01X23992Y35823D01*
G01X23996Y35817D01*
G01X24064Y35700D01*
G01X24072Y35688D01*
G01X24076Y35684D01*
G01X24080Y35678D01*
G01X24085Y35673D01*
G01X24189Y35586D01*
G01X24196Y35582D01*
G01X24200Y35578D01*
G01X24207Y35573D01*
G01X24214Y35569D01*
G01X24219Y35567D01*
G01X24253Y35555D01*
G37*
G36*
G01X14046Y35555D02*
G01X14080Y35567D01*
G01X14085Y35569D01*
G01X14092Y35573D01*
G01X14100Y35578D01*
G01X14103Y35582D01*
G01X14110Y35586D01*
G01X14214Y35673D01*
G01X14219Y35678D01*
G01X14223Y35684D01*
G01X14227Y35688D01*
G01X14235Y35700D01*
G01X14303Y35817D01*
G01X14307Y35823D01*
G01X14310Y35830D01*
G01X14314Y35836D01*
G01X14314Y35844D01*
G01X14315Y35850D01*
G01X14315Y35854D01*
G01X14046Y35854D01*
G01X14046Y35555D01*
G37*
G36*
G01X13653Y35555D02*
G01X13653Y35854D01*
G01X13384Y35854D01*
G01X13384Y35850D01*
G01X13385Y35844D01*
G01X13385Y35836D01*
G01X13389Y35830D01*
G01X13392Y35823D01*
G01X13396Y35817D01*
G01X13464Y35700D01*
G01X13472Y35688D01*
G01X13476Y35684D01*
G01X13480Y35678D01*
G01X13485Y35673D01*
G01X13589Y35586D01*
G01X13596Y35582D01*
G01X13600Y35578D01*
G01X13607Y35573D01*
G01X13614Y35569D01*
G01X13619Y35567D01*
G01X13653Y35555D01*
G37*
G36*
G01X27868Y35632D02*
G01X27996Y35640D01*
G01X28115Y35682D01*
G01X28219Y35755D01*
G01X28302Y35855D01*
G01X28352Y35973D01*
G01X28369Y36100D01*
G01X28352Y36226D01*
G01X28302Y36344D01*
G01X28219Y36444D01*
G01X28115Y36517D01*
G01X27996Y36559D01*
G01X27868Y36567D01*
G01X27742Y36542D01*
G01X27627Y36484D01*
G01X27535Y36396D01*
G01X27468Y36288D01*
G01X27434Y36163D01*
G01X27434Y36036D01*
G01X27468Y35911D01*
G01X27535Y35804D01*
G01X27627Y35715D01*
G01X27742Y35657D01*
G01X27868Y35632D01*
G37*
G36*
G01X17168Y35632D02*
G01X17296Y35640D01*
G01X17415Y35682D01*
G01X17519Y35755D01*
G01X17602Y35855D01*
G01X17652Y35973D01*
G01X17669Y36100D01*
G01X17652Y36226D01*
G01X17602Y36344D01*
G01X17519Y36444D01*
G01X17415Y36517D01*
G01X17296Y36559D01*
G01X17168Y36567D01*
G01X17042Y36542D01*
G01X16927Y36484D01*
G01X16835Y36396D01*
G01X16768Y36288D01*
G01X16734Y36163D01*
G01X16734Y36036D01*
G01X16768Y35911D01*
G01X16835Y35804D01*
G01X16927Y35715D01*
G01X17042Y35657D01*
G01X17168Y35632D01*
G37*
G36*
G01X6568Y35632D02*
G01X6696Y35640D01*
G01X6815Y35682D01*
G01X6919Y35755D01*
G01X7002Y35855D01*
G01X7052Y35973D01*
G01X7069Y36100D01*
G01X7052Y36226D01*
G01X7002Y36344D01*
G01X6919Y36444D01*
G01X6815Y36517D01*
G01X6696Y36559D01*
G01X6568Y36567D01*
G01X6442Y36542D01*
G01X6327Y36484D01*
G01X6235Y36396D01*
G01X6168Y36288D01*
G01X6134Y36163D01*
G01X6134Y36036D01*
G01X6168Y35911D01*
G01X6235Y35804D01*
G01X6327Y35715D01*
G01X6442Y35657D01*
G01X6568Y35632D01*
G37*
G36*
G01X29968Y35632D02*
G01X30096Y35640D01*
G01X30215Y35682D01*
G01X30319Y35755D01*
G01X30402Y35855D01*
G01X30452Y35973D01*
G01X30469Y36100D01*
G01X30452Y36226D01*
G01X30402Y36344D01*
G01X30319Y36444D01*
G01X30215Y36517D01*
G01X30096Y36559D01*
G01X29968Y36567D01*
G01X29842Y36542D01*
G01X29727Y36484D01*
G01X29635Y36396D01*
G01X29568Y36288D01*
G01X29534Y36163D01*
G01X29534Y36036D01*
G01X29568Y35911D01*
G01X29635Y35804D01*
G01X29727Y35715D01*
G01X29842Y35657D01*
G01X29968Y35632D01*
G37*
G36*
G01X8868Y35632D02*
G01X8996Y35640D01*
G01X9115Y35682D01*
G01X9219Y35755D01*
G01X9302Y35855D01*
G01X9352Y35973D01*
G01X9369Y36100D01*
G01X9352Y36226D01*
G01X9302Y36344D01*
G01X9219Y36444D01*
G01X9115Y36517D01*
G01X8996Y36559D01*
G01X8868Y36567D01*
G01X8742Y36542D01*
G01X8627Y36484D01*
G01X8535Y36396D01*
G01X8468Y36288D01*
G01X8434Y36163D01*
G01X8434Y36036D01*
G01X8468Y35911D01*
G01X8535Y35804D01*
G01X8627Y35715D01*
G01X8742Y35657D01*
G01X8868Y35632D01*
G37*
G36*
G01X19368Y35632D02*
G01X19496Y35640D01*
G01X19615Y35682D01*
G01X19719Y35755D01*
G01X19802Y35855D01*
G01X19852Y35973D01*
G01X19869Y36100D01*
G01X19852Y36226D01*
G01X19802Y36344D01*
G01X19719Y36444D01*
G01X19615Y36517D01*
G01X19496Y36559D01*
G01X19368Y36567D01*
G01X19242Y36542D01*
G01X19127Y36484D01*
G01X19035Y36396D01*
G01X18968Y36288D01*
G01X18934Y36163D01*
G01X18934Y36036D01*
G01X18968Y35911D01*
G01X19035Y35804D01*
G01X19127Y35715D01*
G01X19242Y35657D01*
G01X19368Y35632D01*
G37*
G36*
G01X1700Y36209D02*
G01X1853Y36228D01*
G01X2000Y36278D01*
G01X2130Y36359D01*
G01X2240Y36469D01*
G01X2321Y36600D01*
G01X2371Y36746D01*
G01X2390Y36900D01*
G01X2371Y37054D01*
G01X2321Y37200D01*
G01X2240Y37330D01*
G01X2130Y37440D01*
G01X2000Y37521D01*
G01X1853Y37571D01*
G01X1700Y37590D01*
G01X1546Y37571D01*
G01X1400Y37521D01*
G01X1269Y37440D01*
G01X1159Y37330D01*
G01X1078Y37200D01*
G01X1028Y37054D01*
G01X1009Y36900D01*
G01X1028Y36746D01*
G01X1078Y36600D01*
G01X1159Y36469D01*
G01X1269Y36359D01*
G01X1400Y36278D01*
G01X1546Y36228D01*
G01X1700Y36209D01*
G37*
G36*
G01X35046Y36302D02*
G01X35315Y36302D01*
G01X35315Y36305D01*
G01X35314Y36311D01*
G01X35314Y36319D01*
G01X35310Y36326D01*
G01X35307Y36332D01*
G01X35304Y36338D01*
G01X35235Y36455D01*
G01X35227Y36467D01*
G01X35223Y36471D01*
G01X35219Y36478D01*
G01X35214Y36482D01*
G01X35110Y36569D01*
G01X35104Y36573D01*
G01X35100Y36578D01*
G01X35092Y36582D01*
G01X35085Y36586D01*
G01X35080Y36588D01*
G01X35046Y36600D01*
G01X35046Y36302D01*
G37*
G36*
G01X34384Y36302D02*
G01X34654Y36302D01*
G01X34654Y36600D01*
G01X34619Y36588D01*
G01X34614Y36586D01*
G01X34607Y36582D01*
G01X34600Y36578D01*
G01X34596Y36573D01*
G01X34589Y36569D01*
G01X34485Y36482D01*
G01X34480Y36478D01*
G01X34476Y36471D01*
G01X34472Y36467D01*
G01X34464Y36455D01*
G01X34396Y36338D01*
G01X34392Y36332D01*
G01X34389Y36326D01*
G01X34385Y36319D01*
G01X34385Y36311D01*
G01X34384Y36305D01*
G01X34384Y36302D01*
G37*
G36*
G01X24646Y36346D02*
G01X24918Y36346D01*
G01X24914Y36357D01*
G01X24914Y36365D01*
G01X24910Y36371D01*
G01X24907Y36378D01*
G01X24903Y36384D01*
G01X24835Y36502D01*
G01X24827Y36513D01*
G01X24823Y36517D01*
G01X24819Y36523D01*
G01X24814Y36528D01*
G01X24710Y36615D01*
G01X24703Y36619D01*
G01X24700Y36623D01*
G01X24692Y36628D01*
G01X24685Y36632D01*
G01X24680Y36634D01*
G01X24646Y36646D01*
G01X24646Y36346D01*
G37*
G36*
G01X23981Y36346D02*
G01X24253Y36346D01*
G01X24253Y36646D01*
G01X24219Y36634D01*
G01X24214Y36632D01*
G01X24207Y36628D01*
G01X24200Y36623D01*
G01X24196Y36619D01*
G01X24189Y36615D01*
G01X24085Y36528D01*
G01X24080Y36523D01*
G01X24076Y36517D01*
G01X24072Y36513D01*
G01X24064Y36502D01*
G01X23996Y36384D01*
G01X23992Y36378D01*
G01X23989Y36371D01*
G01X23985Y36365D01*
G01X23985Y36357D01*
G01X23981Y36346D01*
G37*
G36*
G01X14046Y36346D02*
G01X14318Y36346D01*
G01X14314Y36357D01*
G01X14314Y36365D01*
G01X14310Y36371D01*
G01X14307Y36378D01*
G01X14303Y36384D01*
G01X14235Y36502D01*
G01X14227Y36513D01*
G01X14223Y36517D01*
G01X14219Y36523D01*
G01X14214Y36528D01*
G01X14110Y36615D01*
G01X14103Y36619D01*
G01X14100Y36623D01*
G01X14092Y36628D01*
G01X14085Y36632D01*
G01X14080Y36634D01*
G01X14046Y36646D01*
G01X14046Y36346D01*
G37*
G36*
G01X13381Y36346D02*
G01X13653Y36346D01*
G01X13653Y36646D01*
G01X13619Y36634D01*
G01X13614Y36632D01*
G01X13607Y36628D01*
G01X13600Y36623D01*
G01X13596Y36619D01*
G01X13589Y36615D01*
G01X13485Y36528D01*
G01X13480Y36523D01*
G01X13476Y36517D01*
G01X13472Y36513D01*
G01X13464Y36502D01*
G01X13396Y36384D01*
G01X13392Y36378D01*
G01X13389Y36371D01*
G01X13385Y36365D01*
G01X13385Y36357D01*
G01X13381Y36346D01*
G37*
G36*
G01X1700Y38209D02*
G01X1853Y38228D01*
G01X2000Y38278D01*
G01X2130Y38359D01*
G01X2240Y38469D01*
G01X2321Y38600D01*
G01X2371Y38746D01*
G01X2390Y38900D01*
G01X2371Y39054D01*
G01X2321Y39200D01*
G01X2240Y39330D01*
G01X2130Y39440D01*
G01X2000Y39521D01*
G01X1853Y39571D01*
G01X1700Y39590D01*
G01X1546Y39571D01*
G01X1400Y39521D01*
G01X1269Y39440D01*
G01X1159Y39330D01*
G01X1078Y39200D01*
G01X1028Y39054D01*
G01X1009Y38900D01*
G01X1028Y38746D01*
G01X1078Y38600D01*
G01X1159Y38469D01*
G01X1269Y38359D01*
G01X1400Y38278D01*
G01X1546Y38228D01*
G01X1700Y38209D01*
G37*
G36*
G01X23081Y44146D02*
G01X23353Y44146D01*
G01X23353Y44446D01*
G01X23319Y44434D01*
G01X23314Y44432D01*
G01X23307Y44428D01*
G01X23300Y44423D01*
G01X23296Y44419D01*
G01X23289Y44415D01*
G01X23185Y44328D01*
G01X23180Y44323D01*
G01X23176Y44317D01*
G01X23172Y44313D01*
G01X23164Y44302D01*
G01X23096Y44184D01*
G01X23092Y44178D01*
G01X23089Y44171D01*
G01X23085Y44165D01*
G01X23085Y44157D01*
G01X23081Y44146D01*
G37*
G36*
G01X23746Y44146D02*
G01X24018Y44146D01*
G01X24014Y44157D01*
G01X24014Y44165D01*
G01X24010Y44171D01*
G01X24007Y44178D01*
G01X24003Y44184D01*
G01X23935Y44302D01*
G01X23927Y44313D01*
G01X23923Y44317D01*
G01X23919Y44323D01*
G01X23914Y44328D01*
G01X23810Y44415D01*
G01X23803Y44419D01*
G01X23800Y44423D01*
G01X23792Y44428D01*
G01X23785Y44432D01*
G01X23780Y44434D01*
G01X23746Y44446D01*
G01X23746Y44146D01*
G37*
G36*
G01X7961Y39509D02*
G01X8064Y39567D01*
G01X8150Y39661D01*
G01X8188Y39738D01*
G01X7961Y39738D01*
G01X7961Y39509D01*
G37*
G36*
G01X7638Y39511D02*
G01X7638Y39738D01*
G01X7411Y39738D01*
G01X7418Y39715D01*
G01X7489Y39611D01*
G01X7588Y39532D01*
G01X7638Y39511D01*
G37*
G36*
G01X7961Y40061D02*
G01X8188Y40061D01*
G01X8150Y40138D01*
G01X8064Y40232D01*
G01X7961Y40290D01*
G01X7961Y40061D01*
G37*
G36*
G01X7411Y40061D02*
G01X7638Y40061D01*
G01X7638Y40288D01*
G01X7588Y40267D01*
G01X7489Y40188D01*
G01X7418Y40084D01*
G01X7411Y40061D01*
G37*
G36*
G01X1700Y40209D02*
G01X1853Y40228D01*
G01X2000Y40278D01*
G01X2130Y40359D01*
G01X2240Y40469D01*
G01X2321Y40600D01*
G01X2371Y40746D01*
G01X2390Y40900D01*
G01X2371Y41054D01*
G01X2321Y41200D01*
G01X2240Y41330D01*
G01X2130Y41440D01*
G01X2000Y41521D01*
G01X1853Y41571D01*
G01X1700Y41590D01*
G01X1546Y41571D01*
G01X1400Y41521D01*
G01X1269Y41440D01*
G01X1159Y41330D01*
G01X1078Y41200D01*
G01X1028Y41054D01*
G01X1009Y40900D01*
G01X1028Y40746D01*
G01X1078Y40600D01*
G01X1159Y40469D01*
G01X1269Y40359D01*
G01X1400Y40278D01*
G01X1546Y40228D01*
G01X1700Y40209D01*
G37*
G36*
G01X11568Y40432D02*
G01X11696Y40440D01*
G01X11815Y40482D01*
G01X11919Y40555D01*
G01X12002Y40655D01*
G01X12052Y40773D01*
G01X12069Y40900D01*
G01X12052Y41026D01*
G01X12002Y41144D01*
G01X11919Y41244D01*
G01X11815Y41317D01*
G01X11696Y41359D01*
G01X11568Y41367D01*
G01X11442Y41342D01*
G01X11327Y41284D01*
G01X11235Y41196D01*
G01X11168Y41088D01*
G01X11134Y40963D01*
G01X11134Y40836D01*
G01X11168Y40711D01*
G01X11235Y40604D01*
G01X11327Y40515D01*
G01X11442Y40457D01*
G01X11568Y40432D01*
G37*
G36*
G01X14184Y40469D02*
G01X14215Y40482D01*
G01X14319Y40555D01*
G01X14402Y40655D01*
G01X14427Y40715D01*
G01X14184Y40715D01*
G01X14184Y40469D01*
G37*
G36*
G01X13815Y40471D02*
G01X13815Y40715D01*
G01X13565Y40715D01*
G01X13568Y40711D01*
G01X13635Y40604D01*
G01X13727Y40515D01*
G01X13815Y40471D01*
G37*
G36*
G01X7831Y40478D02*
G01X7953Y40505D01*
G01X8064Y40567D01*
G01X8150Y40661D01*
G01X8206Y40776D01*
G01X8223Y40900D01*
G01X8206Y41023D01*
G01X8150Y41138D01*
G01X8064Y41232D01*
G01X7953Y41294D01*
G01X7831Y41321D01*
G01X7706Y41313D01*
G01X7588Y41267D01*
G01X7489Y41188D01*
G01X7418Y41084D01*
G01X7380Y40963D01*
G01X7380Y40836D01*
G01X7418Y40715D01*
G01X7489Y40611D01*
G01X7588Y40532D01*
G01X7706Y40486D01*
G01X7831Y40478D01*
G37*
G36*
G01X14184Y41084D02*
G01X14427Y41084D01*
G01X14402Y41144D01*
G01X14319Y41244D01*
G01X14215Y41317D01*
G01X14184Y41330D01*
G01X14184Y41084D01*
G37*
G36*
G01X13565Y41084D02*
G01X13815Y41084D01*
G01X13815Y41328D01*
G01X13727Y41284D01*
G01X13635Y41196D01*
G01X13568Y41088D01*
G01X13565Y41084D01*
G37*
G36*
G01X22468Y41732D02*
G01X22596Y41740D01*
G01X22715Y41782D01*
G01X22819Y41855D01*
G01X22902Y41955D01*
G01X22952Y42073D01*
G01X22969Y42200D01*
G01X22952Y42326D01*
G01X22902Y42444D01*
G01X22819Y42544D01*
G01X22715Y42617D01*
G01X22596Y42659D01*
G01X22468Y42667D01*
G01X22342Y42642D01*
G01X22227Y42584D01*
G01X22135Y42496D01*
G01X22068Y42388D01*
G01X22034Y42263D01*
G01X22034Y42136D01*
G01X22068Y42011D01*
G01X22135Y41904D01*
G01X22227Y41815D01*
G01X22342Y41757D01*
G01X22468Y41732D01*
G37*
G36*
G01X17568Y41732D02*
G01X17696Y41740D01*
G01X17815Y41782D01*
G01X17919Y41855D01*
G01X18002Y41955D01*
G01X18052Y42073D01*
G01X18069Y42200D01*
G01X18052Y42326D01*
G01X18002Y42444D01*
G01X17919Y42544D01*
G01X17815Y42617D01*
G01X17696Y42659D01*
G01X17568Y42667D01*
G01X17442Y42642D01*
G01X17327Y42584D01*
G01X17235Y42496D01*
G01X17168Y42388D01*
G01X17134Y42263D01*
G01X17134Y42136D01*
G01X17168Y42011D01*
G01X17235Y41904D01*
G01X17327Y41815D01*
G01X17442Y41757D01*
G01X17568Y41732D01*
G37*
G36*
G01X1700Y42242D02*
G01X1853Y42259D01*
G01X2000Y42309D01*
G01X2130Y42392D01*
G01X2240Y42502D01*
G01X2321Y42632D01*
G01X2371Y42778D01*
G01X2390Y42932D01*
G01X2371Y43086D01*
G01X2321Y43232D01*
G01X2240Y43361D01*
G01X2130Y43471D01*
G01X2000Y43554D01*
G01X1853Y43604D01*
G01X1700Y43621D01*
G01X1546Y43604D01*
G01X1400Y43554D01*
G01X1269Y43471D01*
G01X1159Y43361D01*
G01X1078Y43232D01*
G01X1028Y43086D01*
G01X1009Y42932D01*
G01X1028Y42778D01*
G01X1078Y42632D01*
G01X1159Y42502D01*
G01X1269Y42392D01*
G01X1400Y42309D01*
G01X1546Y42259D01*
G01X1700Y42242D01*
G37*
G36*
G01X21156Y43307D02*
G01X21942Y43307D01*
G01X21972Y43311D01*
G01X22000Y43328D01*
G01X22022Y43350D01*
G01X22038Y43378D01*
G01X22042Y43407D01*
G01X22042Y44394D01*
G01X22038Y44423D01*
G01X22022Y44452D01*
G01X22000Y44473D01*
G01X21972Y44490D01*
G01X21942Y44494D01*
G01X21156Y44494D01*
G01X21126Y44490D01*
G01X21097Y44473D01*
G01X21076Y44452D01*
G01X21060Y44423D01*
G01X21056Y44394D01*
G01X21056Y43407D01*
G01X21060Y43378D01*
G01X21076Y43350D01*
G01X21097Y43328D01*
G01X21126Y43311D01*
G01X21156Y43307D01*
G37*
G36*
G01X16256Y43307D02*
G01X17042Y43307D01*
G01X17072Y43311D01*
G01X17100Y43328D01*
G01X17122Y43350D01*
G01X17138Y43378D01*
G01X17142Y43407D01*
G01X17142Y44394D01*
G01X17138Y44423D01*
G01X17122Y44452D01*
G01X17100Y44473D01*
G01X17072Y44490D01*
G01X17042Y44494D01*
G01X16256Y44494D01*
G01X16226Y44490D01*
G01X16197Y44473D01*
G01X16176Y44452D01*
G01X16160Y44423D01*
G01X16156Y44394D01*
G01X16156Y43407D01*
G01X16160Y43378D01*
G01X16176Y43350D01*
G01X16197Y43328D01*
G01X16226Y43311D01*
G01X16256Y43307D01*
G37*
G36*
G01X22468Y43315D02*
G01X22631Y43315D01*
G01X22638Y43317D01*
G01X22646Y43319D01*
G01X22652Y43321D01*
G01X22780Y43367D01*
G01X22785Y43369D01*
G01X22792Y43373D01*
G01X22800Y43378D01*
G01X22803Y43382D01*
G01X22810Y43386D01*
G01X22914Y43473D01*
G01X22919Y43478D01*
G01X22923Y43484D01*
G01X22927Y43488D01*
G01X22935Y43500D01*
G01X23003Y43617D01*
G01X23007Y43623D01*
G01X23010Y43630D01*
G01X23014Y43636D01*
G01X23014Y43644D01*
G01X23015Y43650D01*
G01X23039Y43784D01*
G01X23039Y43788D01*
G01X23042Y43792D01*
G01X23042Y44009D01*
G01X23039Y44013D01*
G01X23039Y44017D01*
G01X23015Y44152D01*
G01X23014Y44157D01*
G01X23014Y44165D01*
G01X23010Y44171D01*
G01X23007Y44178D01*
G01X23003Y44184D01*
G01X22935Y44302D01*
G01X22927Y44313D01*
G01X22923Y44317D01*
G01X22919Y44323D01*
G01X22914Y44328D01*
G01X22810Y44415D01*
G01X22803Y44419D01*
G01X22800Y44423D01*
G01X22792Y44428D01*
G01X22785Y44432D01*
G01X22780Y44434D01*
G01X22780Y45100D01*
G01X22777Y45128D01*
G01X22772Y45155D01*
G01X22760Y45182D01*
G01X22746Y45205D01*
G01X22727Y45228D01*
G01X22227Y45728D01*
G01X22206Y45746D01*
G01X22181Y45759D01*
G01X22156Y45771D01*
G01X22127Y45778D01*
G01X22100Y45780D01*
G01X2400Y45780D01*
G01X2371Y45778D01*
G01X2344Y45771D01*
G01X2317Y45759D01*
G01X2294Y45746D01*
G01X2271Y45728D01*
G01X2040Y45496D01*
G01X2000Y45521D01*
G01X1853Y45571D01*
G01X1700Y45590D01*
G01X1546Y45571D01*
G01X1400Y45521D01*
G01X1269Y45440D01*
G01X1159Y45330D01*
G01X1078Y45200D01*
G01X1028Y45054D01*
G01X1009Y44900D01*
G01X1028Y44746D01*
G01X1078Y44600D01*
G01X1159Y44469D01*
G01X1269Y44359D01*
G01X1400Y44278D01*
G01X1546Y44228D01*
G01X1700Y44209D01*
G01X1853Y44228D01*
G01X2000Y44278D01*
G01X2130Y44359D01*
G01X2240Y44469D01*
G01X2321Y44600D01*
G01X2371Y44746D01*
G01X2390Y44900D01*
G01X2371Y45054D01*
G01X2321Y45200D01*
G01X2296Y45240D01*
G01X2476Y45419D01*
G01X22023Y45419D01*
G01X22419Y45023D01*
G01X22419Y44469D01*
G01X22319Y44434D01*
G01X22314Y44432D01*
G01X22307Y44428D01*
G01X22300Y44423D01*
G01X22296Y44419D01*
G01X22289Y44415D01*
G01X22185Y44328D01*
G01X22180Y44323D01*
G01X22176Y44317D01*
G01X22172Y44313D01*
G01X22164Y44302D01*
G01X22096Y44184D01*
G01X22092Y44178D01*
G01X22089Y44171D01*
G01X22085Y44165D01*
G01X22085Y44157D01*
G01X22084Y44152D01*
G01X22060Y44017D01*
G01X22060Y44013D01*
G01X22057Y44009D01*
G01X22057Y43792D01*
G01X22060Y43788D01*
G01X22060Y43784D01*
G01X22084Y43650D01*
G01X22085Y43644D01*
G01X22085Y43636D01*
G01X22089Y43630D01*
G01X22092Y43623D01*
G01X22096Y43617D01*
G01X22164Y43500D01*
G01X22172Y43488D01*
G01X22176Y43484D01*
G01X22180Y43478D01*
G01X22185Y43473D01*
G01X22289Y43386D01*
G01X22296Y43382D01*
G01X22300Y43378D01*
G01X22307Y43373D01*
G01X22314Y43369D01*
G01X22319Y43367D01*
G01X22447Y43321D01*
G01X22453Y43319D01*
G01X22461Y43317D01*
G01X22468Y43315D01*
G37*
G36*
G01X17568Y43315D02*
G01X17731Y43315D01*
G01X17738Y43317D01*
G01X17746Y43319D01*
G01X17752Y43321D01*
G01X17880Y43367D01*
G01X17885Y43369D01*
G01X17892Y43373D01*
G01X17900Y43378D01*
G01X17903Y43382D01*
G01X17910Y43386D01*
G01X18014Y43473D01*
G01X18019Y43478D01*
G01X18023Y43484D01*
G01X18027Y43488D01*
G01X18035Y43500D01*
G01X18103Y43617D01*
G01X18107Y43623D01*
G01X18110Y43630D01*
G01X18114Y43636D01*
G01X18114Y43644D01*
G01X18115Y43650D01*
G01X18139Y43784D01*
G01X18139Y43788D01*
G01X18142Y43792D01*
G01X18142Y44009D01*
G01X18139Y44013D01*
G01X18139Y44017D01*
G01X18115Y44152D01*
G01X18114Y44157D01*
G01X18114Y44165D01*
G01X18110Y44171D01*
G01X18107Y44178D01*
G01X18103Y44184D01*
G01X18035Y44302D01*
G01X18027Y44313D01*
G01X18023Y44317D01*
G01X18019Y44323D01*
G01X18014Y44328D01*
G01X17910Y44415D01*
G01X17903Y44419D01*
G01X17900Y44423D01*
G01X17892Y44428D01*
G01X17885Y44432D01*
G01X17880Y44434D01*
G01X17752Y44480D01*
G01X17746Y44482D01*
G01X17738Y44484D01*
G01X17731Y44486D01*
G01X17568Y44486D01*
G01X17561Y44484D01*
G01X17553Y44482D01*
G01X17547Y44480D01*
G01X17419Y44434D01*
G01X17414Y44432D01*
G01X17407Y44428D01*
G01X17400Y44423D01*
G01X17396Y44419D01*
G01X17389Y44415D01*
G01X17285Y44328D01*
G01X17280Y44323D01*
G01X17276Y44317D01*
G01X17272Y44313D01*
G01X17264Y44302D01*
G01X17196Y44184D01*
G01X17192Y44178D01*
G01X17189Y44171D01*
G01X17185Y44165D01*
G01X17185Y44157D01*
G01X17184Y44152D01*
G01X17160Y44017D01*
G01X17160Y44013D01*
G01X17157Y44009D01*
G01X17157Y43792D01*
G01X17160Y43788D01*
G01X17160Y43784D01*
G01X17184Y43650D01*
G01X17185Y43644D01*
G01X17185Y43636D01*
G01X17189Y43630D01*
G01X17192Y43623D01*
G01X17196Y43617D01*
G01X17264Y43500D01*
G01X17272Y43488D01*
G01X17276Y43484D01*
G01X17280Y43478D01*
G01X17285Y43473D01*
G01X17389Y43386D01*
G01X17396Y43382D01*
G01X17400Y43378D01*
G01X17407Y43373D01*
G01X17414Y43369D01*
G01X17419Y43367D01*
G01X17547Y43321D01*
G01X17553Y43319D01*
G01X17561Y43317D01*
G01X17568Y43315D01*
G37*
G36*
G01X23746Y43355D02*
G01X23780Y43367D01*
G01X23785Y43369D01*
G01X23792Y43373D01*
G01X23800Y43378D01*
G01X23803Y43382D01*
G01X23810Y43386D01*
G01X23914Y43473D01*
G01X23919Y43478D01*
G01X23923Y43484D01*
G01X23927Y43488D01*
G01X23935Y43500D01*
G01X24003Y43617D01*
G01X24007Y43623D01*
G01X24010Y43630D01*
G01X24014Y43636D01*
G01X24014Y43644D01*
G01X24015Y43650D01*
G01X24015Y43654D01*
G01X23746Y43654D01*
G01X23746Y43355D01*
G37*
G36*
G01X23353Y43355D02*
G01X23353Y43654D01*
G01X23084Y43654D01*
G01X23084Y43650D01*
G01X23085Y43644D01*
G01X23085Y43636D01*
G01X23089Y43630D01*
G01X23092Y43623D01*
G01X23096Y43617D01*
G01X23164Y43500D01*
G01X23172Y43488D01*
G01X23176Y43484D01*
G01X23180Y43478D01*
G01X23185Y43473D01*
G01X23289Y43386D01*
G01X23296Y43382D01*
G01X23300Y43378D01*
G01X23307Y43373D01*
G01X23314Y43369D01*
G01X23319Y43367D01*
G01X23353Y43355D01*
G37*
G36*
G01X18846Y43355D02*
G01X18880Y43367D01*
G01X18885Y43369D01*
G01X18892Y43373D01*
G01X18900Y43378D01*
G01X18903Y43382D01*
G01X18910Y43386D01*
G01X19014Y43473D01*
G01X19019Y43478D01*
G01X19023Y43484D01*
G01X19027Y43488D01*
G01X19035Y43500D01*
G01X19103Y43617D01*
G01X19107Y43623D01*
G01X19110Y43630D01*
G01X19114Y43636D01*
G01X19114Y43644D01*
G01X19115Y43650D01*
G01X19115Y43654D01*
G01X18846Y43654D01*
G01X18846Y43355D01*
G37*
G36*
G01X18453Y43355D02*
G01X18453Y43654D01*
G01X18184Y43654D01*
G01X18184Y43650D01*
G01X18185Y43644D01*
G01X18185Y43636D01*
G01X18189Y43630D01*
G01X18192Y43623D01*
G01X18196Y43617D01*
G01X18264Y43500D01*
G01X18272Y43488D01*
G01X18276Y43484D01*
G01X18280Y43478D01*
G01X18285Y43473D01*
G01X18389Y43386D01*
G01X18396Y43382D01*
G01X18400Y43378D01*
G01X18407Y43373D01*
G01X18414Y43369D01*
G01X18419Y43367D01*
G01X18453Y43355D01*
G37*
G36*
G01X13968Y43432D02*
G01X14096Y43440D01*
G01X14215Y43482D01*
G01X14319Y43555D01*
G01X14402Y43655D01*
G01X14452Y43773D01*
G01X14469Y43900D01*
G01X14452Y44026D01*
G01X14402Y44144D01*
G01X14319Y44244D01*
G01X14215Y44317D01*
G01X14096Y44359D01*
G01X13968Y44367D01*
G01X13842Y44342D01*
G01X13727Y44284D01*
G01X13635Y44196D01*
G01X13568Y44088D01*
G01X13534Y43963D01*
G01X13534Y43836D01*
G01X13568Y43711D01*
G01X13635Y43604D01*
G01X13727Y43515D01*
G01X13842Y43457D01*
G01X13968Y43432D01*
G37*
G36*
G01X11568Y43432D02*
G01X11696Y43440D01*
G01X11815Y43482D01*
G01X11919Y43555D01*
G01X12002Y43655D01*
G01X12052Y43773D01*
G01X12069Y43900D01*
G01X12052Y44026D01*
G01X12002Y44144D01*
G01X11919Y44244D01*
G01X11815Y44317D01*
G01X11696Y44359D01*
G01X11568Y44367D01*
G01X11442Y44342D01*
G01X11327Y44284D01*
G01X11235Y44196D01*
G01X11168Y44088D01*
G01X11134Y43963D01*
G01X11134Y43836D01*
G01X11168Y43711D01*
G01X11235Y43604D01*
G01X11327Y43515D01*
G01X11442Y43457D01*
G01X11568Y43432D01*
G37*

%LPD*%
G54D11*
G01X22500Y39200D02*
G01X20700Y37400D01*
G01X20700Y32200D01*
G01X22100Y30800D01*
G01X22400Y30800D01*
G01X17600Y39200D02*
G01X15500Y37100D01*
G01X15500Y29400D01*
G01X13831Y27732D01*
G01X1600Y27732D01*
G01X22550Y43900D02*
G01X22600Y43950D01*
G01X22600Y45100D01*
G01X22100Y45600D01*
G01X2400Y45600D01*
G01X1700Y44900D01*
G54D12*
G01X1700Y44900D03*
G01X1700Y42932D03*
G01X1700Y40900D03*
G01X1700Y38900D03*
G01X1700Y36900D03*
G54D14*
G01X11600Y40900D03*
G01X11600Y43900D03*
G54D16*
G01X7800Y40900D03*
G01X7800Y39900D03*
G54D14*
G01X14000Y40900D03*
G01X14000Y43900D03*
G54D16*
G01X30000Y29900D03*
G01X30000Y28900D03*
G54D14*
G01X19400Y33100D03*
G01X19400Y36100D03*
G54D16*
G01X19400Y29900D03*
G01X19400Y28900D03*
G54D14*
G01X8900Y33100D03*
G01X8900Y36100D03*
G54D16*
G01X8900Y29900D03*
G01X8900Y28900D03*
G54D14*
G01X30000Y33100D03*
G01X30000Y36100D03*
G01X6600Y33100D03*
G01X6600Y36100D03*
G01X17200Y33100D03*
G01X17200Y36100D03*
G01X27900Y33100D03*
G01X27900Y36100D03*
G54D18*
G01X13900Y33800D03*
G01X13900Y30800D03*
G01X24400Y33800D03*
G01X24400Y30800D03*
G01X34800Y33855D03*
G01X34800Y30855D03*
G54D20*
G01X11850Y36100D03*
G01X22450Y36100D03*
G01X32850Y36055D03*
G01X16650Y43900D03*
G01X21550Y43900D03*
G54D18*
G01X11900Y33800D03*
G01X11900Y30800D03*
G01X22400Y33800D03*
G01X22400Y30800D03*
G01X32800Y33855D03*
G01X32800Y30855D03*
G54D12*
G01X11900Y25700D03*
G01X13868Y25700D03*
G01X22400Y25700D03*
G01X24368Y25700D03*
G01X32800Y25700D03*
G01X34768Y25700D03*
G01X1600Y29700D03*
G01X1600Y27732D03*
G01X1600Y25700D03*
G54D14*
G01X17600Y42200D03*
G01X17600Y39200D03*
G01X22500Y42200D03*
G01X22500Y39200D03*
G54D12*
G01X1700Y44900D03*
G01X1700Y42932D03*
G01X1700Y40900D03*
G01X1700Y38900D03*
G01X1700Y36900D03*
G54D14*
G01X11600Y40900D03*
G01X11600Y43900D03*
G54D16*
G01X7800Y40900D03*
G01X7800Y39900D03*
G54D14*
G01X14000Y40900D03*
G01X14000Y43900D03*
G54D16*
G01X30000Y29900D03*
G01X30000Y28900D03*
G54D14*
G01X19400Y33100D03*
G01X19400Y36100D03*
G54D16*
G01X19400Y29900D03*
G01X19400Y28900D03*
G54D14*
G01X8900Y33100D03*
G01X8900Y36100D03*
G54D16*
G01X8900Y29900D03*
G01X8900Y28900D03*
G54D14*
G01X30000Y33100D03*
G01X30000Y36100D03*
G01X6600Y33100D03*
G01X6600Y36100D03*
G01X17200Y33100D03*
G01X17200Y36100D03*
G01X27900Y33100D03*
G01X27900Y36100D03*
G54D18*
G01X13900Y33800D03*
G01X13900Y30800D03*
G01X24400Y33800D03*
G01X24400Y30800D03*
G01X34800Y33855D03*
G01X34800Y30855D03*
G54D20*
G01X11850Y36100D03*
G01X22450Y36100D03*
G01X32850Y36055D03*
G01X16650Y43900D03*
G01X21550Y43900D03*
G54D18*
G01X11900Y33800D03*
G01X11900Y30800D03*
G01X22400Y33800D03*
G01X22400Y30800D03*
G01X32800Y33855D03*
G01X32800Y30855D03*
G54D12*
G01X11900Y25700D03*
G01X13868Y25700D03*
G01X22400Y25700D03*
G01X24368Y25700D03*
G01X32800Y25700D03*
G01X34768Y25700D03*
G01X1600Y29700D03*
G01X1600Y27732D03*
G01X1600Y25700D03*
G54D14*
G01X17600Y42200D03*
G01X17600Y39200D03*
G01X22500Y42200D03*
G01X22500Y39200D03*
G54D21*
G01X13850Y36198D02*
G01X13850Y36001D01*
G01X12850Y36198D02*
G01X12850Y36001D01*
G01X24450Y36198D02*
G01X24450Y36001D01*
G01X23450Y36198D02*
G01X23450Y36001D01*
G01X34850Y36153D02*
G01X34850Y35956D01*
G01X33850Y36153D02*
G01X33850Y35956D01*
G01X18650Y43998D02*
G01X18650Y43801D01*
G01X17650Y43998D02*
G01X17650Y43801D01*
G01X23550Y43998D02*
G01X23550Y43801D01*
G01X22550Y43998D02*
G01X22550Y43801D01*

M00*
M02*