M48
;Layer_Color=9474304
;FILE_FORMAT=2:5
INCH,LZ
;TYPE=PLATED
T1F00S00C0.02800
T2F00S00C0.04331
%
T01
X0086614Y0146457
T02
X0005512Y0081496
Y0091496
Y0111496
Y0121496
Y0131496
Y0141496
X0045512
X0055512
X0115512Y0141496
Y0131496
Y0111496
Y0101496
Y0091496
Y0081496
Y0061496
Y0051496
Y0161496
Y0171496
Y0181496
Y0191496
X0005512
Y0181496
Y0171496
Y0161496
M30
