G04*
G04 #@! TF.GenerationSoftware,Altium Limited,Altium Designer,18.1.9 (240)*
G04*
G04 Layer_Physical_Order=1*
G04 Layer_Color=255*
%FSLAX25Y25*%
%MOIN*%
G70*
G01*
G75*
%ADD12C,0.01000*%
%ADD15O,0.05709X0.02362*%
%ADD16O,0.06496X0.02362*%
%ADD21C,0.06299*%
%ADD22C,0.05000*%
D12*
X92776Y108405D02*
X99685Y101496D01*
X71358Y108405D02*
X92776D01*
X99685Y101496D02*
X115512D01*
X95512Y91496D02*
X115512D01*
X83602Y103405D02*
X95512Y91496D01*
X71358Y103405D02*
X83602D01*
X80492Y166516D02*
X115512Y131496D01*
X74114Y166516D02*
X80492D01*
X19685Y135669D02*
Y150847D01*
X5512Y121496D02*
X19685Y135669D01*
X15748Y155512D02*
X26831Y166595D01*
X15748Y141732D02*
Y155512D01*
X26831Y166595D02*
X45492D01*
X30433Y161594D02*
X45492D01*
X19685Y150847D02*
X30433Y161594D01*
X33858Y156595D02*
X45492D01*
X25591Y148327D02*
X33858Y156595D01*
X25591Y131574D02*
Y148327D01*
X58661Y110768D02*
Y128347D01*
X45512Y141496D02*
X58661Y128347D01*
X56299Y108405D02*
X58661Y110768D01*
X89764Y81496D02*
X115512D01*
X72854Y98405D02*
X89764Y81496D01*
X71358Y98405D02*
X72854D01*
X88504Y61496D02*
X115512D01*
X51595Y98405D02*
X88504Y61496D01*
X49902Y98405D02*
X51595D01*
X76555Y156516D02*
X86614Y146457D01*
X74114Y156516D02*
X76555D01*
X65059Y161516D02*
X74114D01*
X54917Y151374D02*
X65059Y161516D01*
X54917Y142090D02*
Y151374D01*
X105020Y181496D02*
X115512D01*
X100000Y186516D02*
X105020Y181496D01*
X74114Y186516D02*
X100000D01*
X105334Y171496D02*
X115512D01*
X95315Y181516D02*
X105334Y171496D01*
X74114Y181516D02*
X95315D01*
X105413Y161496D02*
X115512D01*
X90394Y176516D02*
X105413Y161496D01*
X74114Y176516D02*
X90394D01*
X39469Y113406D02*
X49902D01*
X17559Y91496D02*
X39469Y113406D01*
X5512Y91496D02*
X17559D01*
X38445Y103405D02*
X49902D01*
X16535Y81496D02*
X38445Y103405D01*
X5512Y81496D02*
X16535D01*
X11811Y158661D02*
X24744Y171595D01*
X11811Y147795D02*
Y158661D01*
X24744Y171595D02*
X45492D01*
X5512Y131496D02*
X15748Y141732D01*
X5512Y141496D02*
X11811Y147795D01*
X5512Y111496D02*
X25591Y131574D01*
X49902Y108405D02*
X56299D01*
X5531Y191516D02*
X45571D01*
X5512Y191496D02*
X5531Y191516D01*
X113602Y113406D02*
X115512Y111496D01*
X71358Y113406D02*
X113602D01*
X85492Y171516D02*
X115512Y141496D01*
X74114Y171516D02*
X85492D01*
X115492Y191516D02*
X115512Y191496D01*
X74114Y191516D02*
X115492D01*
X45492Y156595D02*
X45571Y156516D01*
X45492Y161594D02*
X45571Y161516D01*
X45492Y166595D02*
X45571Y166516D01*
X45492Y171595D02*
X45571Y171516D01*
X45492Y176594D02*
X45571Y176516D01*
X20610Y176594D02*
X45492D01*
Y181595D02*
X45571Y181516D01*
X15610Y181595D02*
X45492D01*
Y186594D02*
X45571Y186516D01*
X10610Y186594D02*
X45492D01*
X114803Y62205D02*
X115512Y61496D01*
X54917Y142090D02*
X55512Y141496D01*
X5512Y161496D02*
X20610Y176594D01*
X5512Y171496D02*
X15610Y181595D01*
X5512Y181496D02*
X10610Y186594D01*
D15*
X49902Y113406D02*
D03*
Y108405D02*
D03*
Y103405D02*
D03*
Y98405D02*
D03*
X71358Y113406D02*
D03*
Y108405D02*
D03*
Y103405D02*
D03*
Y98405D02*
D03*
D16*
X45571Y191516D02*
D03*
Y186516D02*
D03*
Y181516D02*
D03*
Y176516D02*
D03*
Y171516D02*
D03*
Y166516D02*
D03*
Y161516D02*
D03*
Y156516D02*
D03*
X74114Y191516D02*
D03*
Y186516D02*
D03*
Y181516D02*
D03*
Y176516D02*
D03*
Y171516D02*
D03*
Y166516D02*
D03*
Y161516D02*
D03*
Y156516D02*
D03*
D21*
X115512Y51496D02*
D03*
Y61496D02*
D03*
X45512Y141496D02*
D03*
X55512D02*
D03*
X5512D02*
D03*
Y131496D02*
D03*
Y121496D02*
D03*
Y111496D02*
D03*
Y91496D02*
D03*
Y81496D02*
D03*
X5512Y191496D02*
D03*
Y181496D02*
D03*
Y171496D02*
D03*
Y161496D02*
D03*
X115512D02*
D03*
Y171496D02*
D03*
Y181496D02*
D03*
Y191496D02*
D03*
Y131496D02*
D03*
Y141496D02*
D03*
Y111496D02*
D03*
Y101496D02*
D03*
Y91496D02*
D03*
Y81496D02*
D03*
D22*
X86614Y146457D02*
D03*
M02*
