G04*
G04 #@! TF.GenerationSoftware,Altium Limited,Altium Designer,18.1.9 (240)*
G04*
G04 Layer_Color=65535*
%FSLAX25Y25*%
%MOIN*%
G70*
G01*
G75*
%ADD10C,0.00984*%
%ADD11C,0.02362*%
%ADD12C,0.01000*%
%ADD13C,0.00787*%
%ADD14C,0.00600*%
D10*
X50394Y116752D02*
G03*
X50394Y116752I-492J0D01*
G01*
X46063Y194862D02*
G03*
X46063Y194862I-492J0D01*
G01*
D11*
X59449Y111811D02*
G03*
X59449Y111811I-1181J0D01*
G01*
X55512Y189567D02*
G03*
X55512Y189567I-1181J0D01*
G01*
D12*
X122047Y198047D02*
X146669D01*
X123244Y45276D02*
X146669D01*
X145669Y135157D02*
Y198047D01*
Y45276D02*
Y104966D01*
X143669Y192047D02*
X145669Y198047D01*
X147669Y192047D01*
X145669Y45276D02*
X147669Y51276D01*
X143669D02*
X145669Y45276D01*
X122047Y198047D02*
Y213598D01*
X0Y198047D02*
Y213598D01*
X74019Y212598D02*
X122047D01*
X0D02*
X44828D01*
X116047Y214598D02*
X122047Y212598D01*
X116047Y210598D02*
X122047Y212598D01*
X0D02*
X6000Y210598D01*
X0Y212598D02*
X6000Y214598D01*
X96649Y193897D02*
Y191929D01*
X97633Y190945D01*
X98617Y191929D01*
Y193897D01*
X101568D02*
Y190945D01*
X100093D01*
X99601Y191437D01*
Y192421D01*
X100093Y192913D01*
X101568D01*
X104520Y193897D02*
Y190945D01*
X103044D01*
X102552Y191437D01*
Y192421D01*
X103044Y192913D01*
X104520D01*
X99207Y180709D02*
Y183660D01*
X100683D01*
X101175Y183168D01*
Y182185D01*
X100683Y181693D01*
X99207D01*
X100191D02*
X101175Y180709D01*
X103635D02*
Y183660D01*
X102159Y182185D01*
X104127D01*
X100781Y173720D02*
X100289Y174212D01*
X99305D01*
X98813Y173720D01*
Y173228D01*
X99305Y172736D01*
X100289D01*
X100781Y172244D01*
Y171752D01*
X100289Y171260D01*
X99305D01*
X98813Y171752D01*
X103241Y171260D02*
Y174212D01*
X101765Y172736D01*
X103733D01*
X98813Y161417D02*
Y164369D01*
X100781Y161417D01*
Y164369D01*
X103733Y163877D02*
X103241Y164369D01*
X102257D01*
X101765Y163877D01*
Y161909D01*
X102257Y161417D01*
X103241D01*
X103733Y161909D01*
X101175Y143798D02*
X100683Y144290D01*
X99699D01*
X99207Y143798D01*
Y143306D01*
X99699Y142815D01*
X100683D01*
X101175Y142323D01*
Y141831D01*
X100683Y141339D01*
X99699D01*
X99207Y141831D01*
X102159Y143798D02*
X102651Y144290D01*
X103635D01*
X104127Y143798D01*
Y143306D01*
X103635Y142815D01*
X103143D01*
X103635D01*
X104127Y142323D01*
Y141831D01*
X103635Y141339D01*
X102651D01*
X102159Y141831D01*
X99207Y131102D02*
Y134054D01*
X100683D01*
X101175Y133562D01*
Y132578D01*
X100683Y132086D01*
X99207D01*
X100191D02*
X101175Y131102D01*
X102159Y133562D02*
X102651Y134054D01*
X103635D01*
X104127Y133562D01*
Y133070D01*
X103635Y132578D01*
X103143D01*
X103635D01*
X104127Y132086D01*
Y131594D01*
X103635Y131102D01*
X102651D01*
X102159Y131594D01*
X99207Y114448D02*
Y111496D01*
X100683D01*
X101175Y111988D01*
Y113956D01*
X100683Y114448D01*
X99207D01*
X102159Y111496D02*
X103143D01*
X102651D01*
Y114448D01*
X102159Y113956D01*
X98813Y104527D02*
Y101575D01*
X100289D01*
X100781Y102067D01*
Y104035D01*
X100289Y104527D01*
X98813D01*
X101765Y101575D02*
X102749D01*
X102257D01*
Y104527D01*
X101765Y104035D01*
X99207Y93897D02*
Y90945D01*
X100683D01*
X101175Y91437D01*
Y93405D01*
X100683Y93897D01*
X99207D01*
X104127Y90945D02*
X102159D01*
X104127Y92913D01*
Y93405D01*
X103635Y93897D01*
X102651D01*
X102159Y93405D01*
X97632Y84448D02*
Y81496D01*
X99108D01*
X99600Y81988D01*
Y83956D01*
X99108Y84448D01*
X97632D01*
X102552Y81496D02*
X100584D01*
X102552Y83464D01*
Y83956D01*
X102060Y84448D01*
X101076D01*
X100584Y83956D01*
X98025Y64271D02*
X97533Y64763D01*
X96549D01*
X96057Y64271D01*
Y62303D01*
X96549Y61811D01*
X97533D01*
X98025Y62303D01*
Y63287D01*
X97041D01*
X100977Y61811D02*
X99009D01*
X100977Y63779D01*
Y64271D01*
X100485Y64763D01*
X99501D01*
X99009Y64271D01*
X99206Y51279D02*
Y53247D01*
X98714Y53739D01*
X97730D01*
X97238Y53247D01*
Y51279D01*
X97730Y50787D01*
X98714D01*
X98222Y51771D02*
X99206Y50787D01*
X98714D02*
X99206Y51279D01*
X102158Y50787D02*
X100190D01*
X102158Y52755D01*
Y53247D01*
X101666Y53739D01*
X100682D01*
X100190Y53247D01*
X14173Y82775D02*
X13681Y83267D01*
X12697D01*
X12205Y82775D01*
Y82283D01*
X12697Y81791D01*
X13681D01*
X14173Y81299D01*
Y80807D01*
X13681Y80315D01*
X12697D01*
X12205Y80807D01*
X17124Y80315D02*
X15157D01*
X17124Y82283D01*
Y82775D01*
X16632Y83267D01*
X15649D01*
X15157Y82775D01*
X13779Y93798D02*
X13287Y94290D01*
X12303D01*
X11811Y93798D01*
Y93306D01*
X12303Y92814D01*
X13287D01*
X13779Y92322D01*
Y91831D01*
X13287Y91339D01*
X12303D01*
X11811Y91831D01*
X14763Y91339D02*
X15747D01*
X15255D01*
Y94290D01*
X14763Y93798D01*
X14369Y114448D02*
Y112480D01*
X15353Y111496D01*
X16337Y112480D01*
Y114448D01*
X17321Y111496D02*
X18797D01*
X19289Y111988D01*
X18797Y112480D01*
X17813D01*
X17321Y112972D01*
X17813Y113464D01*
X19289D01*
X20273Y111496D02*
X21749D01*
X22241Y111988D01*
X21749Y112480D01*
X20765D01*
X20273Y112972D01*
X20765Y113464D01*
X22241D01*
X13582Y121260D02*
Y124212D01*
X15058D01*
X15550Y123720D01*
Y122736D01*
X15058Y122244D01*
X13582D01*
X14566D02*
X15550Y121260D01*
X18501D02*
X16533D01*
X18501Y123228D01*
Y123720D01*
X18009Y124212D01*
X17026D01*
X16533Y123720D01*
X17320Y133956D02*
X16828Y134448D01*
X15844D01*
X15352Y133956D01*
Y133464D01*
X15844Y132972D01*
X16828D01*
X17320Y132480D01*
Y131988D01*
X16828Y131496D01*
X15844D01*
X15352Y131988D01*
X20272Y131496D02*
X18304D01*
X20272Y133464D01*
Y133956D01*
X19780Y134448D01*
X18796D01*
X18304Y133956D01*
X17714Y144290D02*
X15746D01*
Y141339D01*
X17714D01*
X15746Y142815D02*
X16730D01*
X18698Y141339D02*
Y144290D01*
X20666Y141339D01*
Y144290D01*
X21650Y141339D02*
Y143306D01*
X22634Y144290D01*
X23618Y143306D01*
Y141339D01*
Y142815D01*
X21650D01*
X24602Y144290D02*
Y141339D01*
X26077D01*
X26569Y141831D01*
Y142323D01*
X26077Y142815D01*
X24602D01*
X26077D01*
X26569Y143306D01*
Y143798D01*
X26077Y144290D01*
X24602D01*
X27553D02*
Y141339D01*
X29521D01*
X32473Y144290D02*
X30505D01*
Y141339D01*
X32473D01*
X30505Y142815D02*
X31489D01*
X16731Y163956D02*
X16239Y164448D01*
X15255D01*
X14763Y163956D01*
Y163464D01*
X15255Y162972D01*
X16239D01*
X16731Y162480D01*
Y161988D01*
X16239Y161496D01*
X15255D01*
X14763Y161988D01*
X17715Y161496D02*
X18699D01*
X18207D01*
Y164448D01*
X17715Y163956D01*
X13975Y170472D02*
Y173424D01*
X15451D01*
X15943Y172932D01*
Y171948D01*
X15451Y171456D01*
X13975D01*
X14959D02*
X15943Y170472D01*
X16927D02*
X17911D01*
X17419D01*
Y173424D01*
X16927Y172932D01*
X15943Y181201D02*
Y183168D01*
X15451Y183660D01*
X14467D01*
X13975Y183168D01*
Y181201D01*
X14467Y180709D01*
X15451D01*
X14959Y181693D02*
X15943Y180709D01*
X15451D02*
X15943Y181201D01*
X16927Y180709D02*
X17911D01*
X17419D01*
Y183660D01*
X16927Y183168D01*
X14173Y191831D02*
Y193798D01*
X13681Y194290D01*
X12697D01*
X12205Y193798D01*
Y191831D01*
X12697Y191339D01*
X13681D01*
X13189Y192323D02*
X14173Y191339D01*
X13681D02*
X14173Y191831D01*
X16632Y191339D02*
Y194290D01*
X15157Y192815D01*
X17124D01*
X85101Y61116D02*
X83102D01*
X84101D01*
Y56118D01*
X83102Y55118D01*
X82102D01*
X81102Y56118D01*
X87100Y60116D02*
X88100Y61116D01*
X90100D01*
X91099Y60116D01*
Y59117D01*
X90100Y58117D01*
X91099Y57117D01*
Y56118D01*
X90100Y55118D01*
X88100D01*
X87100Y56118D01*
Y57117D01*
X88100Y58117D01*
X87100Y59117D01*
Y60116D01*
X88100Y58117D02*
X90100D01*
X64961Y92612D02*
Y87614D01*
X65960Y86614D01*
X67960D01*
X68959Y87614D01*
Y92612D01*
X74957Y86614D02*
X70959D01*
X74957Y90613D01*
Y91612D01*
X73958Y92612D01*
X71958D01*
X70959Y91612D01*
X56755Y134344D02*
X54755D01*
X55755D01*
Y129346D01*
X54755Y128347D01*
X53756D01*
X52756Y129346D01*
X58754Y128347D02*
X60753D01*
X59754D01*
Y134344D01*
X58754Y133345D01*
X67323Y151667D02*
Y146669D01*
X68322Y145669D01*
X70322D01*
X71321Y146669D01*
Y151667D01*
X73321Y145669D02*
X75320D01*
X74321D01*
Y151667D01*
X73321Y150668D01*
X6755Y104404D02*
X4755D01*
X5755D01*
Y99405D01*
X4755Y98405D01*
X3756D01*
X2756Y99405D01*
X8754Y104404D02*
X12753D01*
Y103404D01*
X8754Y99405D01*
Y98405D01*
X6361Y74108D02*
X4361D01*
X5361D01*
Y69110D01*
X4361Y68110D01*
X3362D01*
X2362Y69110D01*
X12359Y68110D02*
X8360D01*
X12359Y72109D01*
Y73109D01*
X11359Y74108D01*
X9360D01*
X8360Y73109D01*
X5573Y154817D02*
X3574D01*
X4574D01*
Y149819D01*
X3574Y148819D01*
X2575D01*
X1575Y149819D01*
X7573Y153817D02*
X8573Y154817D01*
X10572D01*
X11572Y153817D01*
Y152818D01*
X10572Y151818D01*
X9572D01*
X10572D01*
X11572Y150818D01*
Y149819D01*
X10572Y148819D01*
X8573D01*
X7573Y149819D01*
X115416Y154817D02*
X113417D01*
X114416D01*
Y149819D01*
X113417Y148819D01*
X112417D01*
X111417Y149819D01*
X120414Y148819D02*
Y154817D01*
X117415Y151818D01*
X121414D01*
X114629Y124896D02*
X112629D01*
X113629D01*
Y119897D01*
X112629Y118898D01*
X111630D01*
X110630Y119897D01*
X120627Y124896D02*
X118627Y123896D01*
X116628Y121897D01*
Y119897D01*
X117628Y118898D01*
X119627D01*
X120627Y119897D01*
Y120897D01*
X119627Y121897D01*
X116628D01*
X114629Y74896D02*
X112629D01*
X113629D01*
Y69897D01*
X112629Y68898D01*
X111630D01*
X110630Y69897D01*
X120627Y74896D02*
X116628D01*
Y71897D01*
X118627Y72896D01*
X119627D01*
X120627Y71897D01*
Y69897D01*
X119627Y68898D01*
X117628D01*
X116628Y69897D01*
D13*
X54331Y96063D02*
Y115748D01*
X66929Y96063D02*
Y115748D01*
X54331D02*
X66929D01*
X54331Y96063D02*
X66929D01*
X50394Y154528D02*
Y193504D01*
X69291Y154528D02*
Y193504D01*
X50394D02*
X69291D01*
X50394Y154528D02*
X69291D01*
D14*
X144270Y106566D02*
X143270Y107565D01*
Y109565D01*
X144270Y110564D01*
X145270D01*
X146269Y109565D01*
Y108565D01*
Y109565D01*
X147269Y110564D01*
X148269D01*
X149268Y109565D01*
Y107565D01*
X148269Y106566D01*
X144270Y112564D02*
X143270Y113564D01*
Y115563D01*
X144270Y116563D01*
X145270D01*
X146269Y115563D01*
X147269Y116563D01*
X148269D01*
X149268Y115563D01*
Y113564D01*
X148269Y112564D01*
X147269D01*
X146269Y113564D01*
X145270Y112564D01*
X144270D01*
X146269Y113564D02*
Y115563D01*
X149268Y118562D02*
X148269D01*
Y119562D01*
X149268D01*
Y118562D01*
X144270Y123560D02*
X143270Y124560D01*
Y126559D01*
X144270Y127559D01*
X145270D01*
X146269Y126559D01*
X147269Y127559D01*
X148269D01*
X149268Y126559D01*
Y124560D01*
X148269Y123560D01*
X147269D01*
X146269Y124560D01*
X145270Y123560D01*
X144270D01*
X146269Y124560D02*
Y126559D01*
X144270Y129558D02*
X143270Y130558D01*
Y132557D01*
X144270Y133557D01*
X148269D01*
X149268Y132557D01*
Y130558D01*
X148269Y129558D01*
X144270D01*
X46428Y213998D02*
X47427Y214998D01*
X49427D01*
X50427Y213998D01*
Y212998D01*
X49427Y211998D01*
X48427D01*
X49427D01*
X50427Y210999D01*
Y209999D01*
X49427Y208999D01*
X47427D01*
X46428Y209999D01*
X52426Y208999D02*
X54425D01*
X53426D01*
Y214998D01*
X52426Y213998D01*
X57424Y208999D02*
Y209999D01*
X58424D01*
Y208999D01*
X57424D01*
X62423Y213998D02*
X63422Y214998D01*
X65422D01*
X66421Y213998D01*
Y209999D01*
X65422Y208999D01*
X63422D01*
X62423Y209999D01*
Y213998D01*
X68421D02*
X69420Y214998D01*
X71420D01*
X72419Y213998D01*
Y209999D01*
X71420Y208999D01*
X69420D01*
X68421Y209999D01*
Y213998D01*
M02*
