M48
;Layer_Color=9474304
;FILE_FORMAT=2:5
INCH,LZ
;TYPE=PLATED
T1F00S00C0.01500
T2F00S00C0.01575
T3F00S00C0.03150
T4F00S00C0.04016
T5F00S00C0.04016
T6F00S00C0.15748
%
T01
X00761Y01404
X00774Y01476
X00879Y01475
X009495Y013565
X01268Y01524
X01629Y01506
X01679
X01729
X01779Y01054
X01847Y00958
X02649Y01479
X02864Y01525
X02926Y01464
X0299606Y0151673
X02926Y01336
X03203Y022
Y0225
Y023
X0349
Y0225
Y022
X03364Y0215
X0369587Y0213287
X0369488Y0208071
X0381594Y0207677
X0388583Y0213189
X0373228Y0189862
Y018189
X0384349Y0263749
X03905Y02629
X03615Y027
X03555
X03513
X03474
X03435
X03397
X03364Y02661
X0322649Y0265249
X03277Y02893
X03292Y02983
X03393Y02985
X0348917Y0297638
X034Y02825
X03359Y02827
X03662Y02831
X0369Y03067
X03058Y02877
X03014Y02907
X02931Y02806
Y02707
X02973Y02706
X03016
X03059
X02794Y02625
X02746Y02621
X0259649Y0264049
X02405Y02697
X02362
X02311
X02267
X02208
X02114
X02115Y02791
X02148Y02925
X02071
X02271
X02347
X02345Y02882
X02425Y02864
X02402Y02795
X02387Y03011
X023095Y030745
X02704Y03083
X02671Y02959
X02844Y024
X02897Y02351
X02881Y023
Y0225
Y022
X02748Y0215
X02593Y02203
Y02253
Y02303
X02283Y023
Y0225
Y022
X02117Y0215
X02071Y01942
X01729Y01816
X01679
X01629
X0158Y01978
X01629Y02172
X01679
X01729
X01773Y02303
X01779Y02373
X01729Y02641
X01679
X01629
Y02811
X01679
X01729
X01731Y02958
X0168
X01629
X01593Y03069
X01731Y03021
X01791Y02958
X01779Y01737
X01848Y0163
X02906Y01611
X02898Y01901
X01529Y02024
X0148Y02036
X01192Y02051
Y02015
Y01978
X01181Y01826
Y01783
X01291Y01822
Y01861
X0127151Y0221251
X01007Y02256
X01018Y02358
Y02405
Y02452
X00917Y02447
Y02402
Y02359
X00915Y02213
X00963Y0214
X00898Y021
X00865Y01707
X00917Y01669
X00916Y01589
X00865
X0127051Y0286351
X01448Y03219
X01633Y0322
X03532Y03136
T02
X035315Y0302165
X0260827Y01904
T03
X00736Y01551
X00814
Y01628
X00736
Y01707
X00814
X00813Y01786
X00735
Y01865
X00813
X00814Y01944
X00736
Y02023
X00814
Y02102
X00736
Y02181
X00814
Y0226
X00736
Y02339
X00814
X02112Y03137
X02189
Y03215
X02112
X02268
Y03137
X02347Y03138
Y03216
X02426
Y03138
X02505Y03137
Y03215
X02584
Y03137
X02663
Y03215
X02742
Y03137
X02821
Y03215
X029
Y03137
T04
X0114343Y03219
X0124343
X0134343
T05
X0373298Y0294402
X0383298
X0281358Y0182489
X0271357
X0261357
X0251358
X0241357
X0231358
Y0172489
X0241357
X0251358
X0261357
X0271357
X0281358
T06
X0082185Y0084358
X0387303
X0082185Y031387
X0387303
M30
