G04*
G04 #@! TF.GenerationSoftware,Altium Limited,Altium Designer,18.1.11 (251)*
G04*
G04 Layer_Color=16711935*
%FSLAX25Y25*%
%MOIN*%
G70*
G01*
G75*
%ADD67C,0.00394*%
D67*
X140243Y180683D02*
G03*
X140243Y180683I-1969J0D01*
G01*
Y112383D02*
G03*
X140243Y112383I-1969J0D01*
G01*
X220651Y254626D02*
G03*
X220651Y254626I-1969J0D01*
G01*
X283751D02*
G03*
X283751Y254626I-1969J0D01*
G01*
X140243Y244283D02*
G03*
X140243Y244283I-1969J0D01*
G01*
X345351Y254626D02*
G03*
X345351Y254626I-1969J0D01*
G01*
X131353Y153628D02*
X138046D01*
X131353Y157172D02*
X138046D01*
Y153628D02*
Y157172D01*
X131353Y153628D02*
Y157172D01*
X248154Y268472D02*
X254847D01*
X248154Y264928D02*
X254847D01*
X248154D02*
Y268472D01*
X254847Y264928D02*
Y268472D01*
X131653Y222328D02*
X138346D01*
X131653Y225872D02*
X138346D01*
Y222328D02*
Y225872D01*
X131653Y222328D02*
Y225872D01*
X311154Y269672D02*
X317847D01*
X311154Y266128D02*
X317847D01*
X311154D02*
Y269672D01*
X317847Y266128D02*
Y269672D01*
X131353Y287828D02*
X138046D01*
X131353Y291372D02*
X138046D01*
Y287828D02*
Y291372D01*
X131353Y287828D02*
Y291372D01*
X373154Y268372D02*
X379847D01*
X373154Y264828D02*
X379847D01*
X373154D02*
Y268372D01*
X379847Y264828D02*
Y268372D01*
X145536Y88169D02*
Y96831D01*
X150064Y88169D02*
Y96831D01*
X145536Y88169D02*
X150064D01*
X145536Y96831D02*
X150064D01*
X192469Y247064D02*
X201131D01*
X192469Y242536D02*
X201131D01*
X192469D02*
Y247064D01*
X201131Y242536D02*
Y247064D01*
X145736Y155469D02*
Y164131D01*
X150264Y155469D02*
Y164131D01*
X145736Y155469D02*
X150264D01*
X145736Y164131D02*
X150264D01*
X267464Y244023D02*
Y252684D01*
X262936Y244023D02*
Y252684D01*
X267464D01*
X262936Y244023D02*
X267464D01*
X145636Y222623D02*
Y231284D01*
X150164Y222623D02*
Y231284D01*
X145636Y222623D02*
X150164D01*
X145636Y231284D02*
X150164D01*
X330564Y244469D02*
Y253131D01*
X326036Y244469D02*
Y253131D01*
X330564D01*
X326036Y244469D02*
X330564D01*
X134731Y177139D02*
X176069D01*
X134731Y207061D02*
X176069D01*
X134731Y177139D02*
Y207061D01*
X176069Y177139D02*
Y207061D01*
X134731Y108839D02*
X176069D01*
X134731Y138761D02*
X176069D01*
X134731Y108839D02*
Y138761D01*
X176069Y108839D02*
Y138761D01*
X215139Y216831D02*
Y258169D01*
X245061Y216831D02*
Y258169D01*
X215139D02*
X245061D01*
X215139Y216831D02*
X245061D01*
X278239D02*
Y258169D01*
X308161Y216831D02*
Y258169D01*
X278239D02*
X308161D01*
X278239Y216831D02*
X308161D01*
X134731Y240739D02*
X176069D01*
X134731Y270661D02*
X176069D01*
X134731Y240739D02*
Y270661D01*
X176069Y240739D02*
Y270661D01*
X339839Y216831D02*
Y258169D01*
X369761Y216831D02*
Y258169D01*
X339839D02*
X369761D01*
X339839Y216831D02*
X369761D01*
X131255Y147530D02*
Y151270D01*
X138145Y147530D02*
Y151270D01*
X131255D02*
X138145D01*
X131255Y147530D02*
X138145D01*
X254845Y259630D02*
Y263370D01*
X247955Y259630D02*
Y263370D01*
Y259630D02*
X254845D01*
X247955Y263370D02*
X254845D01*
X131355Y215830D02*
Y219570D01*
X138245Y215830D02*
Y219570D01*
X131355D02*
X138245D01*
X131355Y215830D02*
X138245D01*
X317945Y260330D02*
Y264070D01*
X311055Y260330D02*
Y264070D01*
Y260330D02*
X317945D01*
X311055Y264070D02*
X317945D01*
X131355Y281230D02*
Y284970D01*
X138245Y281230D02*
Y284970D01*
X131355D02*
X138245D01*
X131355Y281230D02*
X138245D01*
X379845Y259030D02*
Y262770D01*
X372955Y259030D02*
Y262770D01*
Y259030D02*
X379845D01*
X372955Y262770D02*
X379845D01*
X358154Y292618D02*
Y296161D01*
X364846Y292618D02*
Y296161D01*
X358154D02*
X364846D01*
X358154Y292618D02*
X364846D01*
X346260Y175886D02*
X352953D01*
X346260Y179429D02*
X352953D01*
Y175886D02*
Y179429D01*
X346260Y175886D02*
Y179429D01*
Y183858D02*
X352953D01*
X346260Y187402D02*
X352953D01*
Y183858D02*
Y187402D01*
X346260Y183858D02*
Y187402D01*
Y191831D02*
X352953D01*
X346260Y195374D02*
X352953D01*
Y191831D02*
Y195374D01*
X346260Y191831D02*
Y195374D01*
M02*
