G04*
G04 #@! TF.GenerationSoftware,Altium Limited,Altium Designer,19.1.7 (138)*
G04*
G04 Layer_Color=8388736*
%FSLAX25Y25*%
%MOIN*%
G70*
G01*
G75*
%ADD24R,0.04343X0.04147*%
%ADD25R,0.04934X0.04737*%
%ADD26R,0.04737X0.04934*%
%ADD27R,0.04540X0.04934*%
%ADD28R,0.04934X0.04540*%
%ADD29R,0.03950X0.03950*%
%ADD30R,0.03162X0.06509*%
%ADD31R,0.06509X0.03162*%
%ADD32R,0.06902X0.05524*%
%ADD33R,0.05524X0.06902*%
%ADD34C,0.05131*%
%ADD35C,0.17335*%
%ADD36C,0.06706*%
%ADD37C,0.04737*%
%ADD38C,0.04200*%
%ADD39C,0.02800*%
D24*
X331500Y270549D02*
D03*
Y276651D02*
D03*
D25*
X253047Y239500D02*
D03*
X258953D02*
D03*
X146047Y166000D02*
D03*
X151953D02*
D03*
X312547Y239500D02*
D03*
X318453D02*
D03*
X141047Y210000D02*
D03*
X146953D02*
D03*
X351953Y246500D02*
D03*
X346047D02*
D03*
D26*
X128500Y238453D02*
D03*
Y232547D02*
D03*
D27*
X258854Y244500D02*
D03*
X253146D02*
D03*
X151854Y171000D02*
D03*
X146146D02*
D03*
X318354Y245000D02*
D03*
X312646D02*
D03*
X146854Y216500D02*
D03*
X141146D02*
D03*
X346146Y252000D02*
D03*
X351854D02*
D03*
D28*
X121700Y232300D02*
D03*
Y238009D02*
D03*
D29*
X331500Y281600D02*
D03*
Y288100D02*
D03*
D30*
X182000Y205228D02*
D03*
X177000D02*
D03*
X172000D02*
D03*
X167000D02*
D03*
X162000D02*
D03*
X157000D02*
D03*
X152000D02*
D03*
X147000D02*
D03*
X182000Y183772D02*
D03*
X177000D02*
D03*
X172000D02*
D03*
X167000D02*
D03*
X162000D02*
D03*
X157000D02*
D03*
X152000D02*
D03*
X147000D02*
D03*
X186000Y159228D02*
D03*
X181000D02*
D03*
X176000D02*
D03*
X171000D02*
D03*
X166000D02*
D03*
X161000D02*
D03*
X156000D02*
D03*
X151000D02*
D03*
X186000Y137772D02*
D03*
X181000D02*
D03*
X176000D02*
D03*
X171000D02*
D03*
X166000D02*
D03*
X161000D02*
D03*
X156000D02*
D03*
X151000D02*
D03*
D31*
X246457Y205000D02*
D03*
Y210000D02*
D03*
Y215000D02*
D03*
Y220000D02*
D03*
Y225000D02*
D03*
Y230000D02*
D03*
Y235000D02*
D03*
Y240000D02*
D03*
X225000Y205000D02*
D03*
Y210000D02*
D03*
Y215000D02*
D03*
Y220000D02*
D03*
Y225000D02*
D03*
Y230000D02*
D03*
Y235000D02*
D03*
Y240000D02*
D03*
X352003Y204654D02*
D03*
Y209654D02*
D03*
Y214654D02*
D03*
Y219654D02*
D03*
Y224654D02*
D03*
Y229654D02*
D03*
Y234654D02*
D03*
Y239654D02*
D03*
X330546Y204654D02*
D03*
Y209654D02*
D03*
Y214654D02*
D03*
Y219654D02*
D03*
Y224654D02*
D03*
Y229654D02*
D03*
Y234654D02*
D03*
Y239654D02*
D03*
X137343Y267346D02*
D03*
Y262346D02*
D03*
Y257346D02*
D03*
Y252346D02*
D03*
Y247346D02*
D03*
Y242346D02*
D03*
Y237346D02*
D03*
Y232346D02*
D03*
X158800Y267346D02*
D03*
Y262346D02*
D03*
Y257346D02*
D03*
Y252346D02*
D03*
Y247346D02*
D03*
Y242346D02*
D03*
Y237346D02*
D03*
Y232346D02*
D03*
X306428Y205000D02*
D03*
Y210000D02*
D03*
Y215000D02*
D03*
Y220000D02*
D03*
Y225000D02*
D03*
Y230000D02*
D03*
Y235000D02*
D03*
Y240000D02*
D03*
X284972Y205000D02*
D03*
Y210000D02*
D03*
Y215000D02*
D03*
Y220000D02*
D03*
Y225000D02*
D03*
Y230000D02*
D03*
Y235000D02*
D03*
Y240000D02*
D03*
D32*
X270500Y228999D02*
D03*
Y235692D02*
D03*
X161000Y130847D02*
D03*
Y124153D02*
D03*
X158000Y177000D02*
D03*
Y170307D02*
D03*
D33*
X215846Y229500D02*
D03*
X209154D02*
D03*
X321892Y220154D02*
D03*
X315199D02*
D03*
X166154Y242000D02*
D03*
X172846D02*
D03*
D34*
X345100Y265700D02*
D03*
X355100D02*
D03*
X282198Y146301D02*
D03*
Y156301D02*
D03*
X272198D02*
D03*
Y146301D02*
D03*
X262198D02*
D03*
Y156301D02*
D03*
X252198D02*
D03*
Y146301D02*
D03*
X242198D02*
D03*
Y156301D02*
D03*
X232198D02*
D03*
Y146301D02*
D03*
D35*
X355200Y112400D02*
D03*
X114500Y112600D02*
D03*
X355100Y285000D02*
D03*
X114400D02*
D03*
D36*
X199600Y263500D02*
D03*
X185800D02*
D03*
X172000D02*
D03*
D37*
X158000Y289500D02*
D03*
X148000D02*
D03*
X138000D02*
D03*
D38*
X296654Y263757D02*
D03*
X288754D02*
D03*
X272954D02*
D03*
X280854D02*
D03*
X265054D02*
D03*
X257154D02*
D03*
X241354Y263857D02*
D03*
X249254D02*
D03*
X233454Y263757D02*
D03*
X225554D02*
D03*
X217854D02*
D03*
Y271557D02*
D03*
X225554D02*
D03*
X233454D02*
D03*
X249254Y271657D02*
D03*
X241354D02*
D03*
X257154Y271557D02*
D03*
X265054D02*
D03*
X280854D02*
D03*
X272954D02*
D03*
X288754D02*
D03*
X296654D02*
D03*
X121500Y213100D02*
D03*
Y205200D02*
D03*
Y189400D02*
D03*
Y197300D02*
D03*
Y181500D02*
D03*
Y173600D02*
D03*
X121400Y157800D02*
D03*
Y165700D02*
D03*
X121500Y149900D02*
D03*
Y142000D02*
D03*
Y134300D02*
D03*
X129300D02*
D03*
Y142000D02*
D03*
Y149900D02*
D03*
X129200Y165700D02*
D03*
Y157800D02*
D03*
X129300Y173600D02*
D03*
Y181500D02*
D03*
Y197300D02*
D03*
Y189400D02*
D03*
Y205200D02*
D03*
Y213100D02*
D03*
D39*
X266300Y205000D02*
D03*
X266500Y210050D02*
D03*
X279700Y219900D02*
D03*
X280000Y225000D02*
D03*
X170900Y132700D02*
D03*
X339400Y229900D02*
D03*
X335900Y232300D02*
D03*
X143500Y149800D02*
D03*
X166000Y149500D02*
D03*
X142912Y154363D02*
D03*
X192772Y137772D02*
D03*
X276000Y252500D02*
D03*
X273500Y247500D02*
D03*
X280000Y242000D02*
D03*
X288000Y279500D02*
D03*
X280000Y276500D02*
D03*
X190500Y281000D02*
D03*
X318500Y235500D02*
D03*
X340500Y246500D02*
D03*
X237500Y266500D02*
D03*
X266500Y220000D02*
D03*
X176500Y166000D02*
D03*
X120000Y222500D02*
D03*
X121500Y218000D02*
D03*
X150000Y232000D02*
D03*
X258854Y248354D02*
D03*
X143500Y225500D02*
D03*
X136516Y225000D02*
D03*
X153500Y215000D02*
D03*
X145000Y160000D02*
D03*
X129500Y209000D02*
D03*
X145923Y257423D02*
D03*
X145846Y262346D02*
D03*
X346000Y215000D02*
D03*
X315000D02*
D03*
X300000Y220000D02*
D03*
X298500Y230500D02*
D03*
X288500Y250000D02*
D03*
X293000Y250500D02*
D03*
X239500Y205000D02*
D03*
X237000Y215000D02*
D03*
X253000Y225000D02*
D03*
X143129Y177871D02*
D03*
X137000Y228000D02*
D03*
X130000D02*
D03*
X153500Y218500D02*
D03*
X141146Y205646D02*
D03*
X143000Y201000D02*
D03*
X129300Y200300D02*
D03*
X125500Y205000D02*
D03*
X136765Y217500D02*
D03*
X133000Y190000D02*
D03*
X153500Y189000D02*
D03*
X147000Y225500D02*
D03*
X133100Y213100D02*
D03*
X130000Y225000D02*
D03*
X171000Y146500D02*
D03*
X143300Y146300D02*
D03*
X153500Y129500D02*
D03*
X203500Y201000D02*
D03*
X151000Y246500D02*
D03*
X148000Y252500D02*
D03*
X130000D02*
D03*
X133000Y175800D02*
D03*
X301000Y240000D02*
D03*
X293500Y225500D02*
D03*
X263000Y256500D02*
D03*
X268500Y247500D02*
D03*
X278500Y237500D02*
D03*
X253500Y267411D02*
D03*
X264500Y227500D02*
D03*
X237311Y252000D02*
D03*
X239000Y235000D02*
D03*
X237000Y230000D02*
D03*
X239500Y220000D02*
D03*
X229000Y251500D02*
D03*
X217854Y252146D02*
D03*
X248000Y249500D02*
D03*
X121700Y243700D02*
D03*
X341000Y251500D02*
D03*
X343000Y230500D02*
D03*
X186000Y216500D02*
D03*
X202000D02*
D03*
X284972Y200528D02*
D03*
X330546Y200183D02*
D03*
X172000Y197500D02*
D03*
X181000Y165500D02*
D03*
X177000Y197000D02*
D03*
X186000Y165500D02*
D03*
X182000Y197000D02*
D03*
X191772Y183772D02*
D03*
X172000Y211000D02*
D03*
X177000D02*
D03*
X182000D02*
D03*
X146000Y267500D02*
D03*
X159000Y274000D02*
D03*
X189500Y246000D02*
D03*
X194000D02*
D03*
X202000Y246500D02*
D03*
X222000Y201000D02*
D03*
X230000Y205000D02*
D03*
X218500Y222500D02*
D03*
X219000Y209000D02*
D03*
X266500Y215000D02*
D03*
X300000D02*
D03*
X300000Y205000D02*
D03*
X315000Y205000D02*
D03*
X346000D02*
D03*
Y209500D02*
D03*
X315000Y210000D02*
D03*
X232500Y218000D02*
D03*
X300000Y210000D02*
D03*
X251000Y256500D02*
D03*
X229000Y266500D02*
D03*
X229500Y240000D02*
D03*
Y227500D02*
D03*
M02*
