G04*
G04 #@! TF.GenerationSoftware,Altium Limited,Altium Designer,19.1.7 (138)*
G04*
G04 Layer_Physical_Order=2*
G04 Layer_Color=16711680*
%FSLAX25Y25*%
%MOIN*%
G70*
G01*
G75*
%ADD10C,0.01000*%
%ADD41C,0.03500*%
%ADD42C,0.02000*%
%ADD47C,0.01500*%
%ADD50C,0.04331*%
%ADD51C,0.16535*%
%ADD52C,0.05906*%
%ADD53C,0.03937*%
%ADD54C,0.03400*%
%ADD55C,0.02000*%
G36*
X369500Y103500D02*
X369500Y100000D01*
X100000Y100000D01*
Y297500D01*
X369500D01*
Y103500D01*
D02*
G37*
%LPC*%
G36*
X331700Y294440D02*
Y293000D01*
X333140D01*
X333084Y293280D01*
X332642Y293942D01*
X331980Y294384D01*
X331700Y294440D01*
D02*
G37*
G36*
X330700D02*
X330420Y294384D01*
X329758Y293942D01*
X329316Y293280D01*
X329260Y293000D01*
X330700D01*
Y294440D01*
D02*
G37*
G36*
X333140Y292000D02*
X331700D01*
Y290560D01*
X331980Y290616D01*
X332642Y291058D01*
X333084Y291720D01*
X333140Y292000D01*
D02*
G37*
G36*
X330700D02*
X329260D01*
X329316Y291720D01*
X329758Y291058D01*
X330420Y290616D01*
X330700Y290560D01*
Y292000D01*
D02*
G37*
G36*
X158000Y292534D02*
X157215Y292430D01*
X156483Y292127D01*
X155855Y291645D01*
X155373Y291017D01*
X155070Y290285D01*
X154966Y289500D01*
X155070Y288715D01*
X155373Y287983D01*
X155855Y287355D01*
X156483Y286873D01*
X157215Y286569D01*
X158000Y286466D01*
X158785Y286569D01*
X159517Y286873D01*
X160145Y287355D01*
X160627Y287983D01*
X160930Y288715D01*
X161034Y289500D01*
X160930Y290285D01*
X160627Y291017D01*
X160145Y291645D01*
X159517Y292127D01*
X158785Y292430D01*
X158000Y292534D01*
D02*
G37*
G36*
X148000D02*
X147215Y292430D01*
X146483Y292127D01*
X145855Y291645D01*
X145373Y291017D01*
X145070Y290285D01*
X144966Y289500D01*
X145070Y288715D01*
X145373Y287983D01*
X145855Y287355D01*
X146483Y286873D01*
X147215Y286569D01*
X148000Y286466D01*
X148785Y286569D01*
X149517Y286873D01*
X150145Y287355D01*
X150627Y287983D01*
X150930Y288715D01*
X151034Y289500D01*
X150930Y290285D01*
X150627Y291017D01*
X150145Y291645D01*
X149517Y292127D01*
X148785Y292430D01*
X148000Y292534D01*
D02*
G37*
G36*
X355600Y294263D02*
Y285500D01*
X364363D01*
X364234Y286817D01*
X363704Y288564D01*
X362843Y290174D01*
X361685Y291585D01*
X360274Y292743D01*
X358664Y293604D01*
X356917Y294134D01*
X355600Y294263D01*
D02*
G37*
G36*
X114900D02*
Y285500D01*
X123663D01*
X123534Y286817D01*
X123004Y288564D01*
X122143Y290174D01*
X120985Y291585D01*
X119574Y292743D01*
X117964Y293604D01*
X116217Y294134D01*
X114900Y294263D01*
D02*
G37*
G36*
X113900D02*
X112583Y294134D01*
X110836Y293604D01*
X109226Y292743D01*
X107815Y291585D01*
X106657Y290174D01*
X105796Y288564D01*
X105266Y286817D01*
X105137Y285500D01*
X113900D01*
Y294263D01*
D02*
G37*
G36*
X354600D02*
X353283Y294134D01*
X351536Y293604D01*
X349926Y292743D01*
X348515Y291585D01*
X347357Y290174D01*
X346496Y288564D01*
X345966Y286817D01*
X345837Y285500D01*
X354600D01*
Y294263D01*
D02*
G37*
G36*
X138000Y292534D02*
X137215Y292430D01*
X136483Y292127D01*
X135855Y291645D01*
X135373Y291017D01*
X135070Y290285D01*
X134966Y289500D01*
X135070Y288715D01*
X135373Y287983D01*
X135855Y287355D01*
X135961Y287273D01*
Y285500D01*
X136116Y284720D01*
X136558Y284058D01*
X141058Y279558D01*
X141720Y279116D01*
X142500Y278961D01*
X190500D01*
X191280Y279116D01*
X191942Y279558D01*
X192384Y280220D01*
X192539Y281000D01*
X192384Y281780D01*
X191942Y282442D01*
X191280Y282884D01*
X190500Y283039D01*
X143345D01*
X140049Y286335D01*
X140086Y287310D01*
X140145Y287355D01*
X140627Y287983D01*
X140930Y288715D01*
X141034Y289500D01*
X140930Y290285D01*
X140627Y291017D01*
X140145Y291645D01*
X139517Y292127D01*
X138785Y292430D01*
X138000Y292534D01*
D02*
G37*
G36*
X288000Y281539D02*
X287220Y281384D01*
X286558Y280942D01*
X286116Y280280D01*
X285961Y279500D01*
X286058Y279014D01*
X285597Y278224D01*
X285394Y278029D01*
X281311D01*
X280780Y278384D01*
X280000Y278539D01*
X279220Y278384D01*
X278558Y277942D01*
X278116Y277280D01*
X277961Y276500D01*
X278116Y275720D01*
X278558Y275058D01*
X279032Y274741D01*
X279043Y274723D01*
X279157Y273982D01*
X279123Y273632D01*
X278929Y273482D01*
X278496Y272918D01*
X278224Y272262D01*
X278131Y271557D01*
X278224Y270852D01*
X278496Y270195D01*
X278929Y269631D01*
X279493Y269198D01*
X280149Y268926D01*
X280854Y268833D01*
X281559Y268926D01*
X282216Y269198D01*
X282780Y269631D01*
X283213Y270195D01*
X283485Y270852D01*
X283577Y271557D01*
X283485Y272262D01*
X283213Y272918D01*
X282780Y273482D01*
X282216Y273915D01*
X282044Y273986D01*
X282240Y274971D01*
X287369D01*
X287564Y273986D01*
X287393Y273915D01*
X286829Y273482D01*
X286396Y272918D01*
X286124Y272262D01*
X286031Y271557D01*
X286124Y270852D01*
X286396Y270195D01*
X286829Y269631D01*
X287393Y269198D01*
X288049Y268926D01*
X288754Y268833D01*
X289459Y268926D01*
X290034Y269164D01*
X290198Y269174D01*
X290776Y269006D01*
X291181Y268775D01*
X291419Y268419D01*
X293230Y266607D01*
X293726Y266276D01*
X293914Y266238D01*
X294334Y265377D01*
X294339Y265175D01*
X294296Y265118D01*
X294024Y264461D01*
X293931Y263757D01*
X294024Y263052D01*
X294296Y262395D01*
X294729Y261831D01*
X295293Y261398D01*
X295949Y261126D01*
X296654Y261033D01*
X297359Y261126D01*
X298016Y261398D01*
X298580Y261831D01*
X299013Y262395D01*
X299285Y263052D01*
X299377Y263757D01*
X299285Y264461D01*
X299236Y264580D01*
X299775Y265609D01*
X299816Y265635D01*
X300329Y265708D01*
X333892Y232146D01*
X334016Y231520D01*
X334458Y230858D01*
X335120Y230416D01*
X335900Y230261D01*
X336451Y230370D01*
X337035Y230069D01*
X337398Y229712D01*
X337516Y229120D01*
X337958Y228458D01*
X338620Y228016D01*
X339400Y227861D01*
X340180Y228016D01*
X340842Y228458D01*
X341499Y229008D01*
X342096Y228698D01*
X342220Y228616D01*
X343000Y228461D01*
X343780Y228616D01*
X344442Y229058D01*
X344884Y229720D01*
X345039Y230500D01*
X344884Y231280D01*
X344529Y231811D01*
Y243500D01*
X344413Y244085D01*
X344081Y244581D01*
X342477Y246186D01*
X342539Y246500D01*
X342384Y247280D01*
X341942Y247942D01*
X341280Y248384D01*
X340500Y248539D01*
X339720Y248384D01*
X339058Y247942D01*
X338616Y247280D01*
X338461Y246500D01*
X338616Y245720D01*
X339058Y245058D01*
X339720Y244616D01*
X339721Y244616D01*
X341471Y242866D01*
Y234821D01*
X340486Y234413D01*
X294318Y280581D01*
X293822Y280913D01*
X293236Y281029D01*
X289311D01*
X288780Y281384D01*
X288000Y281539D01*
D02*
G37*
G36*
X364363Y284500D02*
X355600D01*
Y275737D01*
X356917Y275866D01*
X358664Y276396D01*
X360274Y277257D01*
X361685Y278415D01*
X362843Y279826D01*
X363704Y281436D01*
X364234Y283183D01*
X364363Y284500D01*
D02*
G37*
G36*
X123663D02*
X114900D01*
Y275737D01*
X116217Y275866D01*
X117964Y276396D01*
X119574Y277257D01*
X120985Y278415D01*
X122143Y279826D01*
X123004Y281436D01*
X123534Y283183D01*
X123663Y284500D01*
D02*
G37*
G36*
X113900D02*
X105137D01*
X105266Y283183D01*
X105796Y281436D01*
X106657Y279826D01*
X107815Y278415D01*
X109226Y277257D01*
X110836Y276396D01*
X112583Y275866D01*
X113900Y275737D01*
Y284500D01*
D02*
G37*
G36*
X354600D02*
X345837D01*
X345966Y283183D01*
X346496Y281436D01*
X347357Y279826D01*
X348515Y278415D01*
X349926Y277257D01*
X351536Y276396D01*
X353283Y275866D01*
X354600Y275737D01*
Y284500D01*
D02*
G37*
G36*
X159500Y275940D02*
Y274500D01*
X160940D01*
X160884Y274780D01*
X160442Y275442D01*
X159780Y275884D01*
X159500Y275940D01*
D02*
G37*
G36*
X158500D02*
X158220Y275884D01*
X157558Y275442D01*
X157116Y274780D01*
X157060Y274500D01*
X158500D01*
Y275940D01*
D02*
G37*
G36*
X160940Y273500D02*
X159500D01*
Y272060D01*
X159780Y272116D01*
X160442Y272558D01*
X160884Y273220D01*
X160940Y273500D01*
D02*
G37*
G36*
X158500D02*
X157060D01*
X157116Y273220D01*
X157558Y272558D01*
X158220Y272116D01*
X158500Y272060D01*
Y273500D01*
D02*
G37*
G36*
X257154Y274280D02*
X256449Y274187D01*
X255793Y273915D01*
X255229Y273482D01*
X254796Y272918D01*
X254524Y272262D01*
X254431Y271557D01*
X254524Y270852D01*
X254796Y270195D01*
X254819Y270165D01*
X254311Y269355D01*
X254240Y269303D01*
X253500Y269450D01*
X252720Y269295D01*
X252058Y268853D01*
X251616Y268191D01*
X251461Y267411D01*
X251603Y266699D01*
X251467Y266527D01*
X250809Y266067D01*
X250616Y266215D01*
X249959Y266487D01*
X249254Y266580D01*
X248549Y266487D01*
X247893Y266215D01*
X247329Y265782D01*
X246896Y265218D01*
X246624Y264562D01*
X246531Y263857D01*
X246624Y263152D01*
X246896Y262495D01*
X247329Y261931D01*
X247893Y261498D01*
X248549Y261226D01*
X249254Y261133D01*
X249959Y261226D01*
X250616Y261498D01*
X251007Y261799D01*
X251677Y261680D01*
X252074Y261480D01*
X252087Y261415D01*
X252419Y260919D01*
X262971Y250366D01*
Y228811D01*
X262945Y228773D01*
X261748Y228578D01*
X256929Y233396D01*
Y246052D01*
X257914Y246578D01*
X258074Y246470D01*
X258354Y246415D01*
Y248354D01*
Y250294D01*
X258074Y250238D01*
X257914Y250131D01*
X256929Y250657D01*
Y252100D01*
X256813Y252685D01*
X256481Y253181D01*
X253009Y256654D01*
X252884Y257280D01*
X252442Y257942D01*
X251780Y258384D01*
X251000Y258539D01*
X250220Y258384D01*
X249558Y257942D01*
X249116Y257280D01*
X248961Y256500D01*
X249116Y255720D01*
X249558Y255058D01*
X250220Y254616D01*
X250846Y254491D01*
X253871Y251466D01*
Y247078D01*
X252961Y246702D01*
X250009Y249654D01*
X249884Y250280D01*
X249442Y250942D01*
X248780Y251384D01*
X248000Y251539D01*
X247220Y251384D01*
X246558Y250942D01*
X246116Y250280D01*
X245961Y249500D01*
X246116Y248720D01*
X246558Y248058D01*
X247220Y247616D01*
X247846Y247492D01*
X251471Y243866D01*
Y226311D01*
X251116Y225780D01*
X250961Y225000D01*
X251116Y224220D01*
X251558Y223558D01*
X252220Y223116D01*
X253000Y222961D01*
X253780Y223116D01*
X254442Y223558D01*
X254884Y224220D01*
X255039Y225000D01*
X254884Y225780D01*
X254529Y226311D01*
Y230185D01*
X255439Y230561D01*
X262081Y223919D01*
X262578Y223587D01*
X263163Y223471D01*
X278689D01*
X279220Y223116D01*
X280000Y222961D01*
X280780Y223116D01*
X281442Y223558D01*
X281884Y224220D01*
X282039Y225000D01*
X281884Y225780D01*
X281442Y226442D01*
X280780Y226884D01*
X280000Y227039D01*
X279220Y226884D01*
X278689Y226529D01*
X267350D01*
X266539Y227500D01*
X266384Y228280D01*
X266029Y228811D01*
Y245826D01*
X267014Y246125D01*
X267058Y246058D01*
X267720Y245616D01*
X268346Y245492D01*
X276491Y237346D01*
X276616Y236720D01*
X277058Y236058D01*
X277720Y235616D01*
X278500Y235461D01*
X279280Y235616D01*
X279942Y236058D01*
X280384Y236720D01*
X280539Y237500D01*
X280384Y238280D01*
X279942Y238942D01*
X279849Y239004D01*
X279934Y239540D01*
X280145Y239990D01*
X280780Y240116D01*
X281442Y240558D01*
X281884Y241220D01*
X282039Y242000D01*
X281884Y242780D01*
X281442Y243442D01*
X280780Y243884D01*
X280154Y244008D01*
X275581Y248581D01*
X275085Y248913D01*
X274942Y248941D01*
X274942Y248942D01*
X274280Y249384D01*
X273500Y249539D01*
X272720Y249384D01*
X272058Y248942D01*
X271616Y248280D01*
X270601Y248153D01*
X270384Y248280D01*
X269942Y248942D01*
X269280Y249384D01*
X268500Y249539D01*
X267720Y249384D01*
X267058Y248942D01*
X267014Y248875D01*
X266029Y249174D01*
Y251000D01*
X265913Y251585D01*
X265581Y252081D01*
X263942Y253721D01*
X264175Y254880D01*
X264311Y254971D01*
X274326D01*
X274625Y253986D01*
X274558Y253942D01*
X274116Y253280D01*
X273961Y252500D01*
X274116Y251720D01*
X274558Y251058D01*
X275220Y250616D01*
X275846Y250491D01*
X291971Y234366D01*
Y226811D01*
X291616Y226280D01*
X291461Y225500D01*
X291616Y224720D01*
X292058Y224058D01*
X292720Y223616D01*
X293500Y223461D01*
X294280Y223616D01*
X294942Y224058D01*
X295120Y224325D01*
X296279Y224558D01*
X298471Y222366D01*
Y221311D01*
X298116Y220780D01*
X297961Y220000D01*
X298116Y219220D01*
X298558Y218558D01*
X299220Y218116D01*
X299685Y218023D01*
X299588Y217039D01*
X299222Y217039D01*
X280614D01*
X280480Y218016D01*
X281142Y218458D01*
X281584Y219120D01*
X281739Y219900D01*
X281584Y220680D01*
X281142Y221342D01*
X280480Y221784D01*
X279700Y221939D01*
X278920Y221784D01*
X278389Y221429D01*
X267950D01*
X267942Y221442D01*
X267280Y221884D01*
X266500Y222039D01*
X265720Y221884D01*
X265058Y221442D01*
X264616Y220780D01*
X264461Y220000D01*
X264616Y219220D01*
X265058Y218558D01*
X265720Y218116D01*
X266294Y218002D01*
Y216998D01*
X265720Y216884D01*
X265058Y216442D01*
X264616Y215780D01*
X264461Y215000D01*
X264616Y214220D01*
X265058Y213558D01*
X265720Y213116D01*
X266168Y213027D01*
Y212023D01*
X265720Y211934D01*
X265058Y211492D01*
X264616Y210830D01*
X264461Y210050D01*
X264616Y209270D01*
X265058Y208608D01*
X265720Y208166D01*
X266500Y208011D01*
X266470Y207039D01*
X266300D01*
X265520Y206884D01*
X264858Y206442D01*
X264416Y205780D01*
X264261Y205000D01*
X264416Y204220D01*
X264858Y203558D01*
X265520Y203116D01*
X266300Y202961D01*
X283241D01*
X283539Y201977D01*
X283530Y201970D01*
X283088Y201309D01*
X283032Y201028D01*
X286911D01*
X286856Y201309D01*
X286414Y201970D01*
X286404Y201977D01*
X286703Y202961D01*
X300000D01*
X300780Y203116D01*
X301442Y203558D01*
X301884Y204220D01*
X302039Y205000D01*
X301884Y205780D01*
X301442Y206442D01*
X300780Y206884D01*
X300206Y206998D01*
Y208002D01*
X300780Y208116D01*
X301442Y208558D01*
X301884Y209220D01*
X302039Y210000D01*
X301884Y210780D01*
X301442Y211442D01*
X301392Y211492D01*
X300730Y211934D01*
X300307Y212018D01*
Y213022D01*
X300780Y213116D01*
X301442Y213558D01*
X301884Y214220D01*
X302039Y215000D01*
X301884Y215780D01*
X301442Y216442D01*
X300780Y216884D01*
X300206Y216998D01*
Y218002D01*
X300780Y218116D01*
X301442Y218558D01*
X301884Y219220D01*
X302039Y220000D01*
X301884Y220780D01*
X301529Y221311D01*
Y223000D01*
X301413Y223585D01*
X301081Y224081D01*
X297481Y227682D01*
X297983Y228544D01*
X298014Y228558D01*
X298500Y228461D01*
X299280Y228616D01*
X299942Y229058D01*
X300384Y229720D01*
X300539Y230500D01*
X300384Y231280D01*
X300029Y231811D01*
Y237150D01*
X301000Y237961D01*
X301780Y238116D01*
X302442Y238558D01*
X302884Y239220D01*
X303039Y240000D01*
X302884Y240780D01*
X302529Y241311D01*
Y248500D01*
X302413Y249085D01*
X302081Y249581D01*
X294081Y257581D01*
X293585Y257913D01*
X293000Y258029D01*
X264311D01*
X263780Y258384D01*
X263000Y258539D01*
X262220Y258384D01*
X261558Y257942D01*
X261380Y257675D01*
X260221Y257442D01*
X257568Y260095D01*
X257859Y261126D01*
X258516Y261398D01*
X259080Y261831D01*
X259513Y262395D01*
X259785Y263052D01*
X259877Y263757D01*
X259785Y264461D01*
X259513Y265118D01*
X259080Y265682D01*
X258516Y266115D01*
X257859Y266387D01*
X257154Y266480D01*
X256449Y266387D01*
X256263Y266310D01*
X255467Y267045D01*
X255539Y267411D01*
X255384Y268191D01*
X255241Y268405D01*
X255586Y268900D01*
X255934Y269140D01*
X256449Y268926D01*
X257154Y268833D01*
X257859Y268926D01*
X258516Y269198D01*
X259080Y269631D01*
X259513Y270195D01*
X259785Y270852D01*
X259877Y271557D01*
X259785Y272262D01*
X259513Y272918D01*
X259080Y273482D01*
X258516Y273915D01*
X257859Y274187D01*
X257154Y274280D01*
D02*
G37*
G36*
X249254Y274380D02*
X248549Y274287D01*
X247893Y274015D01*
X247329Y273582D01*
X246896Y273018D01*
X246624Y272361D01*
X246531Y271657D01*
X246624Y270952D01*
X246896Y270295D01*
X247329Y269731D01*
X247893Y269298D01*
X248549Y269026D01*
X249254Y268933D01*
X249959Y269026D01*
X250616Y269298D01*
X251180Y269731D01*
X251613Y270295D01*
X251885Y270952D01*
X251977Y271657D01*
X251885Y272361D01*
X251613Y273018D01*
X251180Y273582D01*
X250616Y274015D01*
X249959Y274287D01*
X249254Y274380D01*
D02*
G37*
G36*
X241354D02*
X240649Y274287D01*
X239993Y274015D01*
X239429Y273582D01*
X238996Y273018D01*
X238724Y272361D01*
X238631Y271657D01*
X238724Y270952D01*
X238996Y270295D01*
X239429Y269731D01*
X239993Y269298D01*
X240649Y269026D01*
X241354Y268933D01*
X242059Y269026D01*
X242716Y269298D01*
X243280Y269731D01*
X243713Y270295D01*
X243985Y270952D01*
X244077Y271657D01*
X243985Y272361D01*
X243713Y273018D01*
X243280Y273582D01*
X242716Y274015D01*
X242059Y274287D01*
X241354Y274380D01*
D02*
G37*
G36*
X272954Y274280D02*
X272249Y274187D01*
X271593Y273915D01*
X271029Y273482D01*
X270596Y272918D01*
X270324Y272262D01*
X270231Y271557D01*
X270324Y270852D01*
X270596Y270195D01*
X271029Y269631D01*
X271593Y269198D01*
X272249Y268926D01*
X272954Y268833D01*
X273659Y268926D01*
X274316Y269198D01*
X274880Y269631D01*
X275313Y270195D01*
X275585Y270852D01*
X275677Y271557D01*
X275585Y272262D01*
X275313Y272918D01*
X274880Y273482D01*
X274316Y273915D01*
X273659Y274187D01*
X272954Y274280D01*
D02*
G37*
G36*
X265054D02*
X264349Y274187D01*
X263693Y273915D01*
X263129Y273482D01*
X262696Y272918D01*
X262424Y272262D01*
X262331Y271557D01*
X262424Y270852D01*
X262696Y270195D01*
X263129Y269631D01*
X263693Y269198D01*
X264349Y268926D01*
X265054Y268833D01*
X265759Y268926D01*
X266416Y269198D01*
X266980Y269631D01*
X267413Y270195D01*
X267685Y270852D01*
X267777Y271557D01*
X267685Y272262D01*
X267413Y272918D01*
X266980Y273482D01*
X266416Y273915D01*
X265759Y274187D01*
X265054Y274280D01*
D02*
G37*
G36*
X233454D02*
X232749Y274187D01*
X232093Y273915D01*
X231529Y273482D01*
X231096Y272918D01*
X230824Y272262D01*
X230731Y271557D01*
X230824Y270852D01*
X231096Y270195D01*
X231529Y269631D01*
X232093Y269198D01*
X232749Y268926D01*
X233454Y268833D01*
X234159Y268926D01*
X234816Y269198D01*
X235380Y269631D01*
X235813Y270195D01*
X236085Y270852D01*
X236177Y271557D01*
X236085Y272262D01*
X235813Y272918D01*
X235380Y273482D01*
X234816Y273915D01*
X234159Y274187D01*
X233454Y274280D01*
D02*
G37*
G36*
X225554D02*
X224849Y274187D01*
X224193Y273915D01*
X223629Y273482D01*
X223196Y272918D01*
X222924Y272262D01*
X222831Y271557D01*
X222924Y270852D01*
X223196Y270195D01*
X223629Y269631D01*
X224193Y269198D01*
X224849Y268926D01*
X225554Y268833D01*
X226259Y268926D01*
X226916Y269198D01*
X227480Y269631D01*
X227913Y270195D01*
X228185Y270852D01*
X228277Y271557D01*
X228185Y272262D01*
X227913Y272918D01*
X227480Y273482D01*
X226916Y273915D01*
X226259Y274187D01*
X225554Y274280D01*
D02*
G37*
G36*
X217854D02*
X217149Y274187D01*
X216493Y273915D01*
X215929Y273482D01*
X215496Y272918D01*
X215224Y272262D01*
X215131Y271557D01*
X215224Y270852D01*
X215496Y270195D01*
X215929Y269631D01*
X216493Y269198D01*
X217149Y268926D01*
X217854Y268833D01*
X218559Y268926D01*
X219216Y269198D01*
X219780Y269631D01*
X220213Y270195D01*
X220485Y270852D01*
X220578Y271557D01*
X220485Y272262D01*
X220213Y272918D01*
X219780Y273482D01*
X219216Y273915D01*
X218559Y274187D01*
X217854Y274280D01*
D02*
G37*
G36*
X237500Y268539D02*
X236720Y268384D01*
X236058Y267942D01*
X235616Y267280D01*
X235523Y266813D01*
X235318Y266611D01*
X234792Y266319D01*
X234508Y266243D01*
X234159Y266387D01*
X233454Y266480D01*
X232749Y266387D01*
X232093Y266115D01*
X231943Y266001D01*
X231039Y266500D01*
X230884Y267280D01*
X230442Y267942D01*
X229780Y268384D01*
X229000Y268539D01*
X228220Y268384D01*
X227558Y267942D01*
X227116Y267280D01*
X227082Y267111D01*
X226325Y266445D01*
X226018Y266419D01*
X225554Y266480D01*
X224849Y266387D01*
X224193Y266115D01*
X223629Y265682D01*
X223196Y265118D01*
X222924Y264461D01*
X222831Y263757D01*
X222924Y263052D01*
X223196Y262395D01*
X223629Y261831D01*
X224193Y261398D01*
X224849Y261126D01*
X225554Y261033D01*
X226259Y261126D01*
X226916Y261398D01*
X227480Y261831D01*
X228701Y261822D01*
X230928Y259595D01*
X230960Y253779D01*
X229979Y253251D01*
X229780Y253384D01*
X229000Y253539D01*
X228220Y253384D01*
X227558Y252942D01*
X227116Y252280D01*
X226961Y251500D01*
X227116Y250720D01*
X227558Y250058D01*
X227971Y249782D01*
Y241311D01*
X227616Y240780D01*
X227461Y240000D01*
X227616Y239220D01*
X228058Y238558D01*
X228720Y238116D01*
X229500Y237961D01*
X230065Y238073D01*
X230775Y237689D01*
X231053Y237449D01*
X231095Y230023D01*
X230745Y229749D01*
X230114Y229417D01*
X229500Y229539D01*
X228720Y229384D01*
X228189Y229029D01*
X225634D01*
X219384Y235279D01*
Y250835D01*
X219738Y251365D01*
X219893Y252146D01*
X219738Y252926D01*
X219296Y253588D01*
X218635Y254030D01*
X217854Y254185D01*
X217074Y254030D01*
X216412Y253588D01*
X215970Y252926D01*
X215815Y252146D01*
X215970Y251365D01*
X216325Y250835D01*
Y234646D01*
X216441Y234061D01*
X216773Y233564D01*
X223919Y226419D01*
X224415Y226087D01*
X225000Y225971D01*
X228189D01*
X228720Y225616D01*
X229500Y225461D01*
X230280Y225616D01*
X230942Y226058D01*
X231787Y225551D01*
X237491Y219846D01*
X237616Y219220D01*
X238058Y218558D01*
X238720Y218116D01*
X239500Y217961D01*
X240280Y218116D01*
X240942Y218558D01*
X241384Y219220D01*
X241539Y220000D01*
X241384Y220780D01*
X240942Y221442D01*
X240280Y221884D01*
X239654Y222008D01*
X234168Y227495D01*
X234160Y228923D01*
X235071Y229194D01*
X235143Y229179D01*
X235558Y228558D01*
X236220Y228116D01*
X237000Y227961D01*
X237780Y228116D01*
X238442Y228558D01*
X238884Y229220D01*
X239039Y230000D01*
X238884Y230780D01*
X238442Y231442D01*
X237780Y231884D01*
X237154Y232009D01*
X236439Y232724D01*
X236534Y233824D01*
X237087Y234165D01*
X237159Y234156D01*
X237558Y233558D01*
X238220Y233116D01*
X239000Y232961D01*
X239780Y233116D01*
X240442Y233558D01*
X240884Y234220D01*
X241039Y235000D01*
X240884Y235780D01*
X240529Y236311D01*
Y250311D01*
X240413Y250896D01*
X240081Y251392D01*
X239319Y252154D01*
X239195Y252780D01*
X238753Y253442D01*
X238165Y253835D01*
X238077Y253949D01*
X237870Y254932D01*
X238581Y255643D01*
X238913Y256139D01*
X239029Y256725D01*
Y260997D01*
X239993Y261498D01*
X240649Y261226D01*
X241354Y261133D01*
X242059Y261226D01*
X242716Y261498D01*
X243280Y261931D01*
X243713Y262495D01*
X243985Y263152D01*
X244077Y263857D01*
X243985Y264562D01*
X243713Y265218D01*
X243280Y265782D01*
X242716Y266215D01*
X242059Y266487D01*
X241354Y266580D01*
X240649Y266487D01*
X240483Y266418D01*
X240409Y266424D01*
X239490Y266934D01*
X239438Y267008D01*
X239384Y267280D01*
X238942Y267942D01*
X238280Y268384D01*
X237500Y268539D01*
D02*
G37*
G36*
X345600Y268827D02*
Y266200D01*
X348227D01*
X348184Y266527D01*
X347865Y267297D01*
X347358Y267958D01*
X346696Y268465D01*
X345926Y268784D01*
X345600Y268827D01*
D02*
G37*
G36*
X344600D02*
X344274Y268784D01*
X343504Y268465D01*
X342843Y267958D01*
X342335Y267297D01*
X342016Y266527D01*
X341973Y266200D01*
X344600D01*
Y268827D01*
D02*
G37*
G36*
X348227Y265200D02*
X345600D01*
Y262573D01*
X345926Y262616D01*
X346696Y262935D01*
X347358Y263443D01*
X347865Y264104D01*
X348184Y264874D01*
X348227Y265200D01*
D02*
G37*
G36*
X344600D02*
X341973D01*
X342016Y264874D01*
X342335Y264104D01*
X342843Y263443D01*
X343504Y262935D01*
X344274Y262616D01*
X344600Y262573D01*
Y265200D01*
D02*
G37*
G36*
X355100Y268893D02*
X354274Y268784D01*
X353504Y268465D01*
X352842Y267958D01*
X352335Y267297D01*
X352016Y266527D01*
X351907Y265700D01*
X352016Y264874D01*
X352335Y264104D01*
X352842Y263443D01*
X353504Y262935D01*
X354274Y262616D01*
X355100Y262508D01*
X355926Y262616D01*
X356696Y262935D01*
X357358Y263443D01*
X357865Y264104D01*
X358184Y264874D01*
X358293Y265700D01*
X358184Y266527D01*
X357865Y267297D01*
X357358Y267958D01*
X356696Y268465D01*
X355926Y268784D01*
X355100Y268893D01*
D02*
G37*
G36*
X288754Y266480D02*
X288049Y266387D01*
X287393Y266115D01*
X286829Y265682D01*
X286396Y265118D01*
X286124Y264461D01*
X286031Y263757D01*
X286124Y263052D01*
X286396Y262395D01*
X286829Y261831D01*
X287393Y261398D01*
X288049Y261126D01*
X288754Y261033D01*
X289459Y261126D01*
X290116Y261398D01*
X290680Y261831D01*
X291113Y262395D01*
X291385Y263052D01*
X291477Y263757D01*
X291385Y264461D01*
X291113Y265118D01*
X290680Y265682D01*
X290116Y266115D01*
X289459Y266387D01*
X288754Y266480D01*
D02*
G37*
G36*
X280854D02*
X280149Y266387D01*
X279493Y266115D01*
X278929Y265682D01*
X278496Y265118D01*
X278224Y264461D01*
X278131Y263757D01*
X278224Y263052D01*
X278496Y262395D01*
X278929Y261831D01*
X279493Y261398D01*
X280149Y261126D01*
X280854Y261033D01*
X281559Y261126D01*
X282216Y261398D01*
X282780Y261831D01*
X283213Y262395D01*
X283485Y263052D01*
X283577Y263757D01*
X283485Y264461D01*
X283213Y265118D01*
X282780Y265682D01*
X282216Y266115D01*
X281559Y266387D01*
X280854Y266480D01*
D02*
G37*
G36*
X272954D02*
X272249Y266387D01*
X271593Y266115D01*
X271029Y265682D01*
X270596Y265118D01*
X270324Y264461D01*
X270231Y263757D01*
X270324Y263052D01*
X270596Y262395D01*
X271029Y261831D01*
X271593Y261398D01*
X272249Y261126D01*
X272954Y261033D01*
X273659Y261126D01*
X274316Y261398D01*
X274880Y261831D01*
X275313Y262395D01*
X275585Y263052D01*
X275677Y263757D01*
X275585Y264461D01*
X275313Y265118D01*
X274880Y265682D01*
X274316Y266115D01*
X273659Y266387D01*
X272954Y266480D01*
D02*
G37*
G36*
X265054D02*
X264349Y266387D01*
X263693Y266115D01*
X263129Y265682D01*
X262696Y265118D01*
X262424Y264461D01*
X262331Y263757D01*
X262424Y263052D01*
X262696Y262395D01*
X263129Y261831D01*
X263693Y261398D01*
X264349Y261126D01*
X265054Y261033D01*
X265759Y261126D01*
X266416Y261398D01*
X266980Y261831D01*
X267413Y262395D01*
X267685Y263052D01*
X267777Y263757D01*
X267685Y264461D01*
X267413Y265118D01*
X266980Y265682D01*
X266416Y266115D01*
X265759Y266387D01*
X265054Y266480D01*
D02*
G37*
G36*
X217854D02*
X217149Y266387D01*
X216493Y266115D01*
X215929Y265682D01*
X215496Y265118D01*
X215224Y264461D01*
X215131Y263757D01*
X215224Y263052D01*
X215496Y262395D01*
X215929Y261831D01*
X216493Y261398D01*
X217149Y261126D01*
X217854Y261033D01*
X218559Y261126D01*
X219216Y261398D01*
X219780Y261831D01*
X220213Y262395D01*
X220485Y263052D01*
X220578Y263757D01*
X220485Y264461D01*
X220213Y265118D01*
X219780Y265682D01*
X219216Y266115D01*
X218559Y266387D01*
X217854Y266480D01*
D02*
G37*
G36*
X341500Y253440D02*
Y252000D01*
X342940D01*
X342884Y252280D01*
X342442Y252942D01*
X341780Y253384D01*
X341500Y253440D01*
D02*
G37*
G36*
X340500D02*
X340220Y253384D01*
X339558Y252942D01*
X339116Y252280D01*
X339060Y252000D01*
X340500D01*
Y253440D01*
D02*
G37*
G36*
X342940Y251000D02*
X341500D01*
Y249560D01*
X341780Y249616D01*
X342442Y250058D01*
X342884Y250720D01*
X342940Y251000D01*
D02*
G37*
G36*
X340500D02*
X339060D01*
X339116Y250720D01*
X339558Y250058D01*
X340220Y249616D01*
X340500Y249560D01*
Y251000D01*
D02*
G37*
G36*
X259354Y250294D02*
Y248854D01*
X260794D01*
X260738Y249135D01*
X260296Y249796D01*
X259635Y250238D01*
X259354Y250294D01*
D02*
G37*
G36*
X260794Y247854D02*
X259354D01*
Y246415D01*
X259635Y246470D01*
X260296Y246912D01*
X260738Y247574D01*
X260794Y247854D01*
D02*
G37*
G36*
X122200Y245640D02*
Y244200D01*
X123640D01*
X123584Y244480D01*
X123142Y245142D01*
X122480Y245584D01*
X122200Y245640D01*
D02*
G37*
G36*
X121200D02*
X120920Y245584D01*
X120258Y245142D01*
X119816Y244480D01*
X119760Y244200D01*
X121200D01*
Y245640D01*
D02*
G37*
G36*
X123640Y243200D02*
X122200D01*
Y241760D01*
X122480Y241816D01*
X123142Y242258D01*
X123584Y242920D01*
X123640Y243200D01*
D02*
G37*
G36*
X121200D02*
X119760D01*
X119816Y242920D01*
X120258Y242258D01*
X120920Y241816D01*
X121200Y241760D01*
Y243200D01*
D02*
G37*
G36*
X319000Y237440D02*
Y236000D01*
X320440D01*
X320384Y236280D01*
X319942Y236942D01*
X319280Y237384D01*
X319000Y237440D01*
D02*
G37*
G36*
X318000D02*
X317720Y237384D01*
X317058Y236942D01*
X316616Y236280D01*
X316560Y236000D01*
X318000D01*
Y237440D01*
D02*
G37*
G36*
X320440Y235000D02*
X319000D01*
Y233560D01*
X319280Y233616D01*
X319942Y234058D01*
X320384Y234720D01*
X320440Y235000D01*
D02*
G37*
G36*
X318000D02*
X316560D01*
X316616Y234720D01*
X317058Y234058D01*
X317720Y233616D01*
X318000Y233560D01*
Y235000D01*
D02*
G37*
G36*
X148000Y254539D02*
X147220Y254384D01*
X146558Y253942D01*
X146116Y253280D01*
X145961Y252500D01*
X146116Y251720D01*
X146471Y251189D01*
Y237633D01*
X138617Y229779D01*
X137937D01*
X137780Y229884D01*
X137000Y230039D01*
X136220Y229884D01*
X135558Y229442D01*
X135514Y229375D01*
X134529Y229674D01*
Y246500D01*
X134413Y247085D01*
X134081Y247581D01*
X131529Y250133D01*
Y251189D01*
X131884Y251720D01*
X132039Y252500D01*
X131884Y253280D01*
X131442Y253942D01*
X130780Y254384D01*
X130000Y254539D01*
X129220Y254384D01*
X128558Y253942D01*
X128116Y253280D01*
X127961Y252500D01*
X128116Y251720D01*
X128471Y251189D01*
Y249500D01*
X128587Y248915D01*
X128919Y248419D01*
X131471Y245866D01*
Y230607D01*
X131276Y230403D01*
X130486Y229942D01*
X130000Y230039D01*
X129220Y229884D01*
X128689Y229529D01*
X125500D01*
X124915Y229413D01*
X124419Y229081D01*
X119846Y224509D01*
X119220Y224384D01*
X118558Y223942D01*
X118116Y223280D01*
X117961Y222500D01*
X118116Y221720D01*
X118558Y221058D01*
X119220Y220616D01*
X119855Y220490D01*
X120066Y220040D01*
X120151Y219504D01*
X120058Y219442D01*
X119616Y218780D01*
X119461Y218000D01*
X119616Y217220D01*
X120058Y216558D01*
X120121Y216516D01*
X120132Y215836D01*
X120042Y215385D01*
X119574Y215026D01*
X119142Y214462D01*
X118869Y213805D01*
X118777Y213100D01*
X118869Y212395D01*
X119142Y211738D01*
X119574Y211174D01*
X120138Y210742D01*
X120795Y210470D01*
X121500Y210377D01*
X122205Y210470D01*
X122862Y210742D01*
X122986Y210837D01*
X123971Y210352D01*
Y207948D01*
X122986Y207463D01*
X122862Y207558D01*
X122205Y207831D01*
X121500Y207923D01*
X120795Y207831D01*
X120138Y207558D01*
X119574Y207126D01*
X119142Y206562D01*
X118869Y205905D01*
X118777Y205200D01*
X118869Y204495D01*
X119142Y203838D01*
X119574Y203274D01*
X120138Y202842D01*
X120795Y202570D01*
X121500Y202477D01*
X122205Y202570D01*
X122862Y202842D01*
X123187Y203091D01*
X124058Y203558D01*
X124720Y203116D01*
X125500Y202961D01*
X126280Y203116D01*
X126942Y203558D01*
X127737Y202996D01*
X127842Y202915D01*
X127932Y202464D01*
X127920Y201784D01*
X127858Y201742D01*
X127416Y201080D01*
X127261Y200300D01*
X127416Y199520D01*
X127532Y199346D01*
X127374Y199226D01*
X126942Y198662D01*
X126670Y198005D01*
X126577Y197300D01*
X126670Y196595D01*
X126942Y195938D01*
X127374Y195374D01*
X127938Y194942D01*
X128595Y194669D01*
X129300Y194577D01*
X130005Y194669D01*
X130662Y194942D01*
X131226Y195374D01*
X131658Y195938D01*
X131930Y196595D01*
X132023Y197300D01*
X131930Y198005D01*
X131658Y198662D01*
X131226Y199226D01*
X131370Y200207D01*
X148134Y216971D01*
X151228D01*
X151754Y215986D01*
X151616Y215780D01*
X151461Y215000D01*
X151616Y214220D01*
X151971Y213689D01*
Y212134D01*
X143153Y203316D01*
X143150Y203316D01*
X142781Y203898D01*
X142695Y204364D01*
X143030Y204865D01*
X143085Y205146D01*
X139206D01*
X139262Y204865D01*
X139704Y204204D01*
X140365Y203762D01*
X141013Y203633D01*
X141130Y203610D01*
X141146Y203606D01*
X141196Y203593D01*
X141585Y202477D01*
X141558Y202442D01*
X141507Y202366D01*
X141116Y201780D01*
X140961Y201000D01*
X141116Y200220D01*
X141558Y199558D01*
X142220Y199116D01*
X143000Y198961D01*
X143780Y199116D01*
X144442Y199558D01*
X144884Y200220D01*
X145009Y200846D01*
X154581Y210419D01*
X154913Y210915D01*
X155029Y211500D01*
Y213689D01*
X155384Y214220D01*
X155539Y215000D01*
X155384Y215780D01*
X154942Y216442D01*
Y217058D01*
X155384Y217720D01*
X155539Y218500D01*
X155384Y219280D01*
X154942Y219942D01*
X154280Y220384D01*
X153500Y220539D01*
X152720Y220384D01*
X152189Y220029D01*
X149107D01*
X148730Y220939D01*
X151081Y223290D01*
X151413Y223786D01*
X151529Y224372D01*
Y230689D01*
X151884Y231220D01*
X152039Y232000D01*
X151884Y232780D01*
X151442Y233442D01*
X151175Y233620D01*
X150942Y234779D01*
X152081Y235919D01*
X152413Y236415D01*
X152529Y237000D01*
Y245189D01*
X152884Y245720D01*
X153039Y246500D01*
X152884Y247280D01*
X152442Y247942D01*
X151780Y248384D01*
X151000Y248539D01*
X150514Y248442D01*
X149724Y248903D01*
X149529Y249107D01*
Y251189D01*
X149884Y251720D01*
X150039Y252500D01*
X149884Y253280D01*
X149442Y253942D01*
X148780Y254384D01*
X148000Y254539D01*
D02*
G37*
G36*
X332800Y229739D02*
X318800D01*
X318020Y229584D01*
X317358Y229142D01*
X316916Y228480D01*
X316761Y227700D01*
X316916Y226920D01*
X317358Y226258D01*
X318020Y225816D01*
X318800Y225661D01*
X331955D01*
X334658Y222958D01*
X334658Y222958D01*
X335320Y222516D01*
X336100Y222361D01*
X359000D01*
X359780Y222516D01*
X360442Y222958D01*
X360884Y223620D01*
X361039Y224400D01*
X360884Y225180D01*
X360442Y225842D01*
X359780Y226284D01*
X359000Y226439D01*
X336945D01*
X334242Y229142D01*
X333580Y229584D01*
X332800Y229739D01*
D02*
G37*
G36*
X191100Y274039D02*
X166000D01*
X165220Y273884D01*
X164558Y273442D01*
X160655Y269539D01*
X146000D01*
X145220Y269384D01*
X144558Y268942D01*
X144116Y268280D01*
X143961Y267500D01*
X144116Y266720D01*
X144558Y266058D01*
X145220Y265616D01*
X146000Y265461D01*
X160135D01*
X160688Y264477D01*
X160632Y264385D01*
X145846D01*
X145065Y264230D01*
X144404Y263788D01*
X143962Y263126D01*
X143807Y262346D01*
X143962Y261565D01*
X144404Y260904D01*
X145065Y260462D01*
X145485Y260378D01*
Y259375D01*
X145142Y259307D01*
X144481Y258865D01*
X144039Y258203D01*
X143884Y257423D01*
X144039Y256643D01*
X144481Y255981D01*
X145142Y255539D01*
X145923Y255384D01*
X146703Y255539D01*
X146852Y255639D01*
X170216D01*
Y211929D01*
X170116Y211780D01*
X169961Y211000D01*
X170116Y210220D01*
X170558Y209558D01*
X171220Y209116D01*
X172000Y208961D01*
X172780Y209116D01*
X173442Y209558D01*
X173884Y210220D01*
X173925Y210424D01*
X174156Y210794D01*
X174800D01*
X175056Y210522D01*
X175116Y210220D01*
X175558Y209558D01*
X176220Y209116D01*
X177000Y208961D01*
X177780Y209116D01*
X178442Y209558D01*
X178884Y210220D01*
X178925Y210424D01*
X179156Y210794D01*
X179800D01*
X180056Y210522D01*
X180116Y210220D01*
X180558Y209558D01*
X181220Y209116D01*
X182000Y208961D01*
X182780Y209116D01*
X183442Y209558D01*
X183884Y210220D01*
X184039Y211000D01*
X183884Y211780D01*
X183784Y211929D01*
Y213493D01*
X184231Y213819D01*
X184768Y214034D01*
X185282Y213821D01*
X186000Y213726D01*
X202000D01*
X202718Y213821D01*
X203387Y214098D01*
X203961Y214539D01*
X204402Y215113D01*
X204679Y215782D01*
X204774Y216500D01*
X204679Y217218D01*
X204402Y217887D01*
X203961Y218461D01*
X203387Y218902D01*
X202718Y219179D01*
X202000Y219274D01*
X186000D01*
X185282Y219179D01*
X184768Y218967D01*
X184231Y219181D01*
X183784Y219507D01*
Y242638D01*
X186572Y245425D01*
X187515Y245240D01*
X187673Y245134D01*
X187716Y245071D01*
Y239500D01*
X187852Y238817D01*
X188238Y238238D01*
X212738Y213738D01*
X212738Y213738D01*
X213317Y213351D01*
X214000Y213216D01*
X236070D01*
X236220Y213116D01*
X237000Y212961D01*
X237780Y213116D01*
X238442Y213558D01*
X238884Y214220D01*
X239039Y215000D01*
X238884Y215780D01*
X238442Y216442D01*
X237780Y216884D01*
X237000Y217039D01*
X236220Y216884D01*
X236070Y216784D01*
X235187D01*
X234493Y217769D01*
X234539Y218000D01*
X234384Y218780D01*
X233942Y219442D01*
X233280Y219884D01*
X232500Y220039D01*
X231720Y219884D01*
X231571Y219784D01*
X219760D01*
X219509Y220768D01*
X219942Y221058D01*
X220384Y221720D01*
X220539Y222500D01*
X220384Y223280D01*
X219942Y223942D01*
X219280Y224384D01*
X218500Y224539D01*
X217720Y224384D01*
X217570Y224284D01*
X217239D01*
X203784Y237739D01*
Y245570D01*
X203884Y245720D01*
X204039Y246500D01*
X203884Y247280D01*
X203442Y247942D01*
X202780Y248384D01*
X202000Y248539D01*
X201220Y248384D01*
X200558Y247942D01*
X200116Y247280D01*
X199961Y246500D01*
X200116Y245720D01*
X200216Y245570D01*
Y238200D01*
X199232Y237792D01*
X195784Y241239D01*
Y245071D01*
X195884Y245220D01*
X196039Y246000D01*
X195884Y246780D01*
X195442Y247442D01*
X194780Y247884D01*
X194000Y248039D01*
X193220Y247884D01*
X192558Y247442D01*
X192297Y247051D01*
X192143Y247005D01*
X191357D01*
X191203Y247051D01*
X190942Y247442D01*
X190366Y247827D01*
X190260Y247985D01*
X190075Y248928D01*
X200862Y259715D01*
X200889Y259755D01*
X201593Y260047D01*
X202419Y260681D01*
X203053Y261507D01*
X203451Y262468D01*
X203587Y263500D01*
X203451Y264532D01*
X203053Y265493D01*
X202419Y266319D01*
X201593Y266953D01*
X200632Y267351D01*
X199600Y267487D01*
X198625Y267358D01*
X192542Y273442D01*
X191880Y273884D01*
X191100Y274039D01*
D02*
G37*
G36*
X141646Y207585D02*
Y206146D01*
X143085D01*
X143030Y206426D01*
X142588Y207088D01*
X141926Y207530D01*
X141646Y207585D01*
D02*
G37*
G36*
X140646D02*
X140365Y207530D01*
X139704Y207088D01*
X139262Y206426D01*
X139206Y206146D01*
X140646D01*
Y207585D01*
D02*
G37*
G36*
X231940Y204500D02*
X230500D01*
Y203060D01*
X230780Y203116D01*
X231442Y203558D01*
X231884Y204220D01*
X231940Y204500D01*
D02*
G37*
G36*
X229500D02*
X228060D01*
X228116Y204220D01*
X228558Y203558D01*
X229220Y203116D01*
X229500Y203060D01*
Y204500D01*
D02*
G37*
G36*
X219000Y211039D02*
X218220Y210884D01*
X217558Y210442D01*
X217116Y209780D01*
X216961Y209000D01*
X217116Y208220D01*
X217558Y207558D01*
X218220Y207116D01*
X219000Y206961D01*
X219780Y207116D01*
X219930Y207216D01*
X227981D01*
X228163Y206972D01*
X228417Y206231D01*
X228116Y205780D01*
X228060Y205500D01*
X231940D01*
X231884Y205780D01*
X231582Y206231D01*
X231837Y206972D01*
X232018Y207216D01*
X235261D01*
X237463Y205013D01*
X237461Y205000D01*
X237616Y204220D01*
X238058Y203558D01*
X238720Y203116D01*
X239500Y202961D01*
X240280Y203116D01*
X240942Y203558D01*
X241384Y204220D01*
X241539Y205000D01*
X241384Y205780D01*
X241163Y206112D01*
X241148Y206183D01*
X240762Y206762D01*
X240762Y206762D01*
X237262Y210262D01*
X236683Y210648D01*
X236000Y210784D01*
X219930D01*
X219780Y210884D01*
X219000Y211039D01*
D02*
G37*
G36*
X222000Y203039D02*
X221220Y202884D01*
X221071Y202784D01*
X204430D01*
X204280Y202884D01*
X203500Y203039D01*
X202720Y202884D01*
X202058Y202442D01*
X201616Y201780D01*
X201461Y201000D01*
X201616Y200220D01*
X202058Y199558D01*
X202720Y199116D01*
X203500Y198961D01*
X204280Y199116D01*
X204430Y199216D01*
X221071D01*
X221220Y199116D01*
X222000Y198961D01*
X222780Y199116D01*
X223442Y199558D01*
X223884Y200220D01*
X224039Y201000D01*
X223884Y201780D01*
X223442Y202442D01*
X222780Y202884D01*
X222000Y203039D01*
D02*
G37*
G36*
X346000Y217039D02*
X315000D01*
X314220Y216884D01*
X313558Y216442D01*
X313116Y215780D01*
X312961Y215000D01*
X313116Y214220D01*
X313558Y213558D01*
X314220Y213116D01*
X314794Y213002D01*
Y211998D01*
X314220Y211884D01*
X313558Y211442D01*
X313116Y210780D01*
X312961Y210000D01*
X313116Y209220D01*
X313558Y208558D01*
X314058Y208058D01*
X314292Y207902D01*
X314250Y207310D01*
X314132Y206825D01*
X313558Y206442D01*
X313116Y205780D01*
X312961Y205000D01*
X313116Y204220D01*
X313558Y203558D01*
X314220Y203116D01*
X315000Y202961D01*
X329467D01*
X329614Y202521D01*
X329631Y201977D01*
X329104Y201624D01*
X328662Y200963D01*
X328606Y200683D01*
X332486D01*
X332430Y200963D01*
X331988Y201624D01*
X331461Y201977D01*
X331478Y202521D01*
X331625Y202961D01*
X346000D01*
X346780Y203116D01*
X347442Y203558D01*
X347884Y204220D01*
X348039Y205000D01*
X347884Y205780D01*
X347442Y206442D01*
X347051Y206703D01*
X347005Y206857D01*
Y207643D01*
X347051Y207797D01*
X347442Y208058D01*
X347884Y208720D01*
X348039Y209500D01*
X347884Y210280D01*
X347442Y210942D01*
X346780Y211384D01*
X346000Y211539D01*
X316296D01*
X315780Y211884D01*
X315315Y211977D01*
X315412Y212961D01*
X315778Y212961D01*
X346000D01*
X346780Y213116D01*
X347442Y213558D01*
X347884Y214220D01*
X348039Y215000D01*
X347884Y215780D01*
X347442Y216442D01*
X346780Y216884D01*
X346000Y217039D01*
D02*
G37*
G36*
X286911Y200028D02*
X285472D01*
Y198589D01*
X285752Y198644D01*
X286414Y199086D01*
X286856Y199748D01*
X286911Y200028D01*
D02*
G37*
G36*
X284472D02*
X283032D01*
X283088Y199748D01*
X283530Y199086D01*
X284191Y198644D01*
X284472Y198589D01*
Y200028D01*
D02*
G37*
G36*
X332486Y199683D02*
X331046D01*
Y198243D01*
X331326Y198299D01*
X331988Y198741D01*
X332430Y199402D01*
X332486Y199683D01*
D02*
G37*
G36*
X330046D02*
X328606D01*
X328662Y199402D01*
X329104Y198741D01*
X329765Y198299D01*
X330046Y198243D01*
Y199683D01*
D02*
G37*
G36*
X121500Y200023D02*
X120795Y199931D01*
X120138Y199658D01*
X119574Y199226D01*
X119142Y198662D01*
X118869Y198005D01*
X118777Y197300D01*
X118869Y196595D01*
X119142Y195938D01*
X119574Y195374D01*
X120138Y194942D01*
X120795Y194669D01*
X121500Y194577D01*
X122205Y194669D01*
X122862Y194942D01*
X123426Y195374D01*
X123858Y195938D01*
X124130Y196595D01*
X124223Y197300D01*
X124130Y198005D01*
X123858Y198662D01*
X123426Y199226D01*
X122862Y199658D01*
X122205Y199931D01*
X121500Y200023D01*
D02*
G37*
G36*
Y192123D02*
X120795Y192031D01*
X120138Y191758D01*
X119574Y191326D01*
X119142Y190762D01*
X118869Y190105D01*
X118777Y189400D01*
X118869Y188695D01*
X119142Y188038D01*
X119574Y187474D01*
X120138Y187042D01*
X120795Y186769D01*
X121500Y186677D01*
X122205Y186769D01*
X122862Y187042D01*
X123426Y187474D01*
X123858Y188038D01*
X124130Y188695D01*
X124223Y189400D01*
X124130Y190105D01*
X123858Y190762D01*
X123426Y191326D01*
X122862Y191758D01*
X122205Y192031D01*
X121500Y192123D01*
D02*
G37*
G36*
X192272Y185711D02*
Y184272D01*
X193711D01*
X193656Y184552D01*
X193214Y185214D01*
X192552Y185656D01*
X192272Y185711D01*
D02*
G37*
G36*
X191272D02*
X190991Y185656D01*
X190330Y185214D01*
X189888Y184552D01*
X189832Y184272D01*
X191272D01*
Y185711D01*
D02*
G37*
G36*
X129300Y192123D02*
X128595Y192031D01*
X127938Y191758D01*
X127374Y191326D01*
X126942Y190762D01*
X126670Y190105D01*
X126577Y189400D01*
X126670Y188695D01*
X126942Y188038D01*
X127374Y187474D01*
X127938Y187042D01*
X128595Y186769D01*
X129300Y186677D01*
X130005Y186769D01*
X130486Y186969D01*
X131069Y186730D01*
X131471Y186422D01*
Y184478D01*
X131069Y184170D01*
X130486Y183931D01*
X130005Y184131D01*
X129300Y184223D01*
X128595Y184131D01*
X127938Y183858D01*
X127374Y183426D01*
X126942Y182862D01*
X126670Y182205D01*
X126577Y181500D01*
X126670Y180795D01*
X126942Y180138D01*
X127374Y179574D01*
X127938Y179142D01*
X128595Y178869D01*
X129300Y178777D01*
X130005Y178869D01*
X130486Y179069D01*
X131069Y178830D01*
X131471Y178522D01*
Y177111D01*
X131228Y176748D01*
X131105Y176577D01*
X130040Y176216D01*
X130005Y176231D01*
X129300Y176323D01*
X128595Y176231D01*
X127938Y175958D01*
X127374Y175526D01*
X126942Y174962D01*
X126670Y174305D01*
X126577Y173600D01*
X126670Y172895D01*
X126942Y172238D01*
X127374Y171674D01*
X127938Y171242D01*
X128595Y170969D01*
X129300Y170877D01*
X130005Y170969D01*
X130662Y171242D01*
X131226Y171674D01*
X131658Y172238D01*
X131930Y172895D01*
X131945Y173006D01*
X132872Y173741D01*
X132995Y173762D01*
X133000Y173761D01*
X133780Y173916D01*
X134442Y174358D01*
X134884Y175020D01*
X135039Y175800D01*
X134884Y176580D01*
X134529Y177111D01*
Y188689D01*
X134884Y189220D01*
X135039Y190000D01*
X134884Y190780D01*
X134442Y191442D01*
X133780Y191884D01*
X133000Y192039D01*
X132220Y191884D01*
X131558Y191442D01*
X130662Y191758D01*
X130005Y192031D01*
X129300Y192123D01*
D02*
G37*
G36*
X193711Y183272D02*
X192272D01*
Y181832D01*
X192552Y181888D01*
X193214Y182330D01*
X193656Y182991D01*
X193711Y183272D01*
D02*
G37*
G36*
X191272D02*
X189832D01*
X189888Y182991D01*
X190330Y182330D01*
X190991Y181888D01*
X191272Y181832D01*
Y183272D01*
D02*
G37*
G36*
X121500Y184223D02*
X120795Y184131D01*
X120138Y183858D01*
X119574Y183426D01*
X119142Y182862D01*
X118869Y182205D01*
X118777Y181500D01*
X118869Y180795D01*
X119142Y180138D01*
X119574Y179574D01*
X120138Y179142D01*
X120795Y178869D01*
X121500Y178777D01*
X122205Y178869D01*
X122862Y179142D01*
X123426Y179574D01*
X123858Y180138D01*
X124130Y180795D01*
X124223Y181500D01*
X124130Y182205D01*
X123858Y182862D01*
X123426Y183426D01*
X122862Y183858D01*
X122205Y184131D01*
X121500Y184223D01*
D02*
G37*
G36*
X153500Y191039D02*
X152720Y190884D01*
X152058Y190442D01*
X151616Y189780D01*
X151461Y189000D01*
X151483Y188887D01*
X142351Y179755D01*
X142349Y179754D01*
X141688Y179313D01*
X141245Y178651D01*
X141090Y177871D01*
X141245Y177090D01*
X141688Y176429D01*
X142349Y175987D01*
X143129Y175831D01*
X143910Y175987D01*
X144571Y176429D01*
X145013Y177090D01*
X145169Y177871D01*
X145106Y178184D01*
X153978Y187056D01*
X154280Y187116D01*
X154942Y187558D01*
X155384Y188220D01*
X155539Y189000D01*
X155384Y189780D01*
X154942Y190442D01*
X154280Y190884D01*
X153500Y191039D01*
D02*
G37*
G36*
X121500Y176323D02*
X120795Y176231D01*
X120138Y175958D01*
X119574Y175526D01*
X119142Y174962D01*
X118869Y174305D01*
X118777Y173600D01*
X118869Y172895D01*
X119142Y172238D01*
X119574Y171674D01*
X120138Y171242D01*
X120795Y170969D01*
X121500Y170877D01*
X122205Y170969D01*
X122862Y171242D01*
X123426Y171674D01*
X123858Y172238D01*
X124130Y172895D01*
X124223Y173600D01*
X124130Y174305D01*
X123858Y174962D01*
X123426Y175526D01*
X122862Y175958D01*
X122205Y176231D01*
X121500Y176323D01*
D02*
G37*
G36*
X172000Y199539D02*
X171220Y199384D01*
X170558Y198942D01*
X170116Y198280D01*
X169961Y197500D01*
X170116Y196720D01*
X170558Y196058D01*
X171220Y195616D01*
X171396Y195581D01*
X174716Y192261D01*
Y166929D01*
X174616Y166780D01*
X174461Y166000D01*
X174616Y165220D01*
X175058Y164558D01*
X175720Y164116D01*
X176500Y163961D01*
X177280Y164116D01*
X177942Y164558D01*
X178098Y164792D01*
X178690Y164750D01*
X179175Y164632D01*
X179558Y164058D01*
X180220Y163616D01*
X181000Y163461D01*
X181780Y163616D01*
X182442Y164058D01*
X182884Y164720D01*
X182925Y164924D01*
X183156Y165294D01*
X183800D01*
X184056Y165022D01*
X184116Y164720D01*
X184558Y164058D01*
X185220Y163616D01*
X186000Y163461D01*
X186780Y163616D01*
X187442Y164058D01*
X187884Y164720D01*
X188039Y165500D01*
X187884Y166280D01*
X187784Y166429D01*
Y192500D01*
X187648Y193183D01*
X187262Y193762D01*
X187262Y193762D01*
X184037Y196987D01*
X184039Y197000D01*
X183884Y197780D01*
X183442Y198442D01*
X182780Y198884D01*
X182000Y199039D01*
X181220Y198884D01*
X180558Y198442D01*
X180116Y197780D01*
X179867Y197708D01*
X178884Y197780D01*
X178442Y198442D01*
X177780Y198884D01*
X177000Y199039D01*
X176220Y198884D01*
X175558Y198442D01*
X175324Y198091D01*
X174820Y197972D01*
X173884Y198280D01*
X173442Y198942D01*
X172780Y199384D01*
X172000Y199539D01*
D02*
G37*
G36*
X129200Y168423D02*
X128495Y168331D01*
X127838Y168058D01*
X127274Y167626D01*
X126842Y167062D01*
X126569Y166405D01*
X126477Y165700D01*
X126569Y164995D01*
X126842Y164338D01*
X127274Y163774D01*
X127838Y163342D01*
X128495Y163069D01*
X129200Y162977D01*
X129905Y163069D01*
X130562Y163342D01*
X131126Y163774D01*
X131558Y164338D01*
X131831Y164995D01*
X131923Y165700D01*
X131831Y166405D01*
X131558Y167062D01*
X131126Y167626D01*
X130562Y168058D01*
X129905Y168331D01*
X129200Y168423D01*
D02*
G37*
G36*
X121400D02*
X120695Y168331D01*
X120038Y168058D01*
X119474Y167626D01*
X119042Y167062D01*
X118770Y166405D01*
X118677Y165700D01*
X118770Y164995D01*
X119042Y164338D01*
X119474Y163774D01*
X120038Y163342D01*
X120695Y163069D01*
X121400Y162977D01*
X122105Y163069D01*
X122762Y163342D01*
X123326Y163774D01*
X123758Y164338D01*
X124030Y164995D01*
X124123Y165700D01*
X124030Y166405D01*
X123758Y167062D01*
X123326Y167626D01*
X122762Y168058D01*
X122105Y168331D01*
X121400Y168423D01*
D02*
G37*
G36*
X145500Y161940D02*
Y160500D01*
X146940D01*
X146884Y160780D01*
X146442Y161442D01*
X145780Y161884D01*
X145500Y161940D01*
D02*
G37*
G36*
X144500D02*
X144220Y161884D01*
X143558Y161442D01*
X143116Y160780D01*
X143060Y160500D01*
X144500D01*
Y161940D01*
D02*
G37*
G36*
X146940Y159500D02*
X145500D01*
Y158060D01*
X145780Y158116D01*
X146442Y158558D01*
X146884Y159220D01*
X146940Y159500D01*
D02*
G37*
G36*
X144500D02*
X143060D01*
X143116Y159220D01*
X143558Y158558D01*
X144220Y158116D01*
X144500Y158060D01*
Y159500D01*
D02*
G37*
G36*
X129200Y160523D02*
X128495Y160431D01*
X127838Y160158D01*
X127274Y159726D01*
X126842Y159162D01*
X126569Y158505D01*
X126477Y157800D01*
X126569Y157095D01*
X126842Y156438D01*
X127274Y155874D01*
X127838Y155442D01*
X128495Y155169D01*
X129200Y155077D01*
X129905Y155169D01*
X130562Y155442D01*
X131126Y155874D01*
X131558Y156438D01*
X131831Y157095D01*
X131923Y157800D01*
X131831Y158505D01*
X131558Y159162D01*
X131126Y159726D01*
X130562Y160158D01*
X129905Y160431D01*
X129200Y160523D01*
D02*
G37*
G36*
X121400D02*
X120695Y160431D01*
X120038Y160158D01*
X119474Y159726D01*
X119042Y159162D01*
X118770Y158505D01*
X118677Y157800D01*
X118770Y157095D01*
X119042Y156438D01*
X119474Y155874D01*
X120038Y155442D01*
X120695Y155169D01*
X121400Y155077D01*
X122105Y155169D01*
X122762Y155442D01*
X123326Y155874D01*
X123758Y156438D01*
X124030Y157095D01*
X124123Y157800D01*
X124030Y158505D01*
X123758Y159162D01*
X123326Y159726D01*
X122762Y160158D01*
X122105Y160431D01*
X121400Y160523D01*
D02*
G37*
G36*
X282198Y159493D02*
X281371Y159385D01*
X280601Y159066D01*
X279940Y158558D01*
X279433Y157897D01*
X279114Y157127D01*
X279005Y156301D01*
X279114Y155474D01*
X279433Y154704D01*
X279940Y154043D01*
X280601Y153536D01*
X281371Y153217D01*
X282198Y153108D01*
X283024Y153217D01*
X283794Y153536D01*
X284455Y154043D01*
X284963Y154704D01*
X285282Y155474D01*
X285390Y156301D01*
X285282Y157127D01*
X284963Y157897D01*
X284455Y158558D01*
X283794Y159066D01*
X283024Y159385D01*
X282198Y159493D01*
D02*
G37*
G36*
X272198D02*
X271371Y159385D01*
X270601Y159066D01*
X269940Y158558D01*
X269433Y157897D01*
X269114Y157127D01*
X269005Y156301D01*
X269114Y155474D01*
X269433Y154704D01*
X269940Y154043D01*
X270601Y153536D01*
X271371Y153217D01*
X272198Y153108D01*
X273024Y153217D01*
X273794Y153536D01*
X274455Y154043D01*
X274963Y154704D01*
X275282Y155474D01*
X275390Y156301D01*
X275282Y157127D01*
X274963Y157897D01*
X274455Y158558D01*
X273794Y159066D01*
X273024Y159385D01*
X272198Y159493D01*
D02*
G37*
G36*
X241700Y179039D02*
X201000D01*
X200220Y178884D01*
X199558Y178442D01*
X199116Y177780D01*
X198961Y177000D01*
X199116Y176220D01*
X199558Y175558D01*
X200220Y175116D01*
X201000Y174961D01*
X240855D01*
X259064Y156752D01*
X259005Y156301D01*
X259114Y155474D01*
X259433Y154704D01*
X259940Y154043D01*
X260601Y153536D01*
X261371Y153217D01*
X262198Y153108D01*
X263024Y153217D01*
X263794Y153536D01*
X264455Y154043D01*
X264963Y154704D01*
X265282Y155474D01*
X265390Y156301D01*
X265282Y157127D01*
X264963Y157897D01*
X264455Y158558D01*
X263794Y159066D01*
X263024Y159385D01*
X262198Y159493D01*
X262103Y159481D01*
X243142Y178442D01*
X242480Y178884D01*
X241700Y179039D01*
D02*
G37*
G36*
X252198Y159493D02*
X251371Y159385D01*
X250601Y159066D01*
X249940Y158558D01*
X249433Y157897D01*
X249114Y157127D01*
X249005Y156301D01*
X249114Y155474D01*
X249433Y154704D01*
X249940Y154043D01*
X250601Y153536D01*
X251371Y153217D01*
X252198Y153108D01*
X253024Y153217D01*
X253794Y153536D01*
X254455Y154043D01*
X254963Y154704D01*
X255282Y155474D01*
X255390Y156301D01*
X255282Y157127D01*
X254963Y157897D01*
X254455Y158558D01*
X253794Y159066D01*
X253024Y159385D01*
X252198Y159493D01*
D02*
G37*
G36*
X242198D02*
X241371Y159385D01*
X240601Y159066D01*
X239940Y158558D01*
X239433Y157897D01*
X239114Y157127D01*
X239005Y156301D01*
X239114Y155474D01*
X239433Y154704D01*
X239940Y154043D01*
X240601Y153536D01*
X241371Y153217D01*
X242198Y153108D01*
X243024Y153217D01*
X243794Y153536D01*
X244455Y154043D01*
X244963Y154704D01*
X245282Y155474D01*
X245390Y156301D01*
X245282Y157127D01*
X244963Y157897D01*
X244455Y158558D01*
X243794Y159066D01*
X243024Y159385D01*
X242198Y159493D01*
D02*
G37*
G36*
X232198D02*
X231371Y159385D01*
X230601Y159066D01*
X229940Y158558D01*
X229433Y157897D01*
X229114Y157127D01*
X229005Y156301D01*
X229114Y155474D01*
X229433Y154704D01*
X229940Y154043D01*
X230601Y153536D01*
X231371Y153217D01*
X232198Y153108D01*
X233024Y153217D01*
X233794Y153536D01*
X234455Y154043D01*
X234963Y154704D01*
X235282Y155474D01*
X235390Y156301D01*
X235282Y157127D01*
X234963Y157897D01*
X234455Y158558D01*
X233794Y159066D01*
X233024Y159385D01*
X232198Y159493D01*
D02*
G37*
G36*
X129300Y152623D02*
X128595Y152531D01*
X127938Y152258D01*
X127374Y151826D01*
X126942Y151262D01*
X126670Y150605D01*
X126577Y149900D01*
X126670Y149195D01*
X126942Y148538D01*
X127374Y147974D01*
X127938Y147542D01*
X128595Y147269D01*
X129300Y147177D01*
X130005Y147269D01*
X130662Y147542D01*
X131226Y147974D01*
X131658Y148538D01*
X131930Y149195D01*
X132023Y149900D01*
X131930Y150605D01*
X131658Y151262D01*
X131226Y151826D01*
X130662Y152258D01*
X130005Y152531D01*
X129300Y152623D01*
D02*
G37*
G36*
X121500D02*
X120795Y152531D01*
X120138Y152258D01*
X119574Y151826D01*
X119142Y151262D01*
X118869Y150605D01*
X118777Y149900D01*
X118869Y149195D01*
X119142Y148538D01*
X119574Y147974D01*
X120138Y147542D01*
X120795Y147269D01*
X121500Y147177D01*
X122205Y147269D01*
X122862Y147542D01*
X123426Y147974D01*
X123858Y148538D01*
X124130Y149195D01*
X124223Y149900D01*
X124130Y150605D01*
X123858Y151262D01*
X123426Y151826D01*
X122862Y152258D01*
X122205Y152531D01*
X121500Y152623D01*
D02*
G37*
G36*
X142912Y156402D02*
X142132Y156247D01*
X141470Y155805D01*
X141028Y155143D01*
X140873Y154363D01*
X141028Y153582D01*
X141470Y152921D01*
X142132Y152479D01*
X142136Y152478D01*
X142344Y151433D01*
X142058Y151242D01*
X141616Y150580D01*
X141461Y149800D01*
X141616Y149020D01*
X142058Y148358D01*
Y147875D01*
X141858Y147742D01*
X141416Y147080D01*
X141261Y146300D01*
X141416Y145520D01*
X141858Y144858D01*
X142520Y144416D01*
X143300Y144261D01*
X144080Y144416D01*
X144742Y144858D01*
X144817Y144971D01*
X169689D01*
X170220Y144616D01*
X171000Y144461D01*
X171780Y144616D01*
X172442Y145058D01*
X172884Y145720D01*
X173039Y146500D01*
X172884Y147280D01*
X172442Y147942D01*
X171780Y148384D01*
X171000Y148539D01*
X170220Y148384D01*
X169689Y148029D01*
X168606D01*
X168403Y148224D01*
X167942Y149014D01*
X168039Y149500D01*
X167884Y150280D01*
X167442Y150942D01*
X167419Y150958D01*
X167413Y150985D01*
X167081Y151481D01*
X166585Y151813D01*
X166000Y151929D01*
X165415Y151813D01*
X164919Y151481D01*
X164629Y151048D01*
X161993Y151083D01*
X161907Y151180D01*
X161937Y151610D01*
X162183Y152351D01*
X162642Y152658D01*
X163084Y153320D01*
X163239Y154100D01*
X163084Y154880D01*
X162642Y155542D01*
X161980Y155984D01*
X161200Y156139D01*
X160420Y155984D01*
X160271Y155884D01*
X144235D01*
X143693Y156247D01*
X142912Y156402D01*
D02*
G37*
G36*
X282198Y149493D02*
X281371Y149385D01*
X280601Y149066D01*
X279940Y148558D01*
X279433Y147897D01*
X279114Y147127D01*
X279005Y146301D01*
X279114Y145475D01*
X279433Y144704D01*
X279940Y144043D01*
X280601Y143536D01*
X281371Y143217D01*
X282198Y143108D01*
X283024Y143217D01*
X283794Y143536D01*
X284455Y144043D01*
X284963Y144704D01*
X285282Y145475D01*
X285390Y146301D01*
X285282Y147127D01*
X284963Y147897D01*
X284455Y148558D01*
X283794Y149066D01*
X283024Y149385D01*
X282198Y149493D01*
D02*
G37*
G36*
X272198D02*
X271371Y149385D01*
X270601Y149066D01*
X269940Y148558D01*
X269433Y147897D01*
X269114Y147127D01*
X269005Y146301D01*
X269114Y145475D01*
X269433Y144704D01*
X269940Y144043D01*
X270601Y143536D01*
X271371Y143217D01*
X272198Y143108D01*
X273024Y143217D01*
X273794Y143536D01*
X274455Y144043D01*
X274963Y144704D01*
X275282Y145475D01*
X275390Y146301D01*
X275282Y147127D01*
X274963Y147897D01*
X274455Y148558D01*
X273794Y149066D01*
X273024Y149385D01*
X272198Y149493D01*
D02*
G37*
G36*
X262198D02*
X261371Y149385D01*
X260601Y149066D01*
X259940Y148558D01*
X259433Y147897D01*
X259114Y147127D01*
X259005Y146301D01*
X259114Y145475D01*
X259433Y144704D01*
X259940Y144043D01*
X260601Y143536D01*
X261371Y143217D01*
X262198Y143108D01*
X263024Y143217D01*
X263794Y143536D01*
X264455Y144043D01*
X264963Y144704D01*
X265282Y145475D01*
X265390Y146301D01*
X265282Y147127D01*
X264963Y147897D01*
X264455Y148558D01*
X263794Y149066D01*
X263024Y149385D01*
X262198Y149493D01*
D02*
G37*
G36*
X252198D02*
X251371Y149385D01*
X250601Y149066D01*
X249940Y148558D01*
X249433Y147897D01*
X249114Y147127D01*
X249005Y146301D01*
X249114Y145475D01*
X249433Y144704D01*
X249940Y144043D01*
X250601Y143536D01*
X251371Y143217D01*
X252198Y143108D01*
X253024Y143217D01*
X253794Y143536D01*
X254455Y144043D01*
X254963Y144704D01*
X255282Y145475D01*
X255390Y146301D01*
X255282Y147127D01*
X254963Y147897D01*
X254455Y148558D01*
X253794Y149066D01*
X253024Y149385D01*
X252198Y149493D01*
D02*
G37*
G36*
X242198D02*
X241371Y149385D01*
X240601Y149066D01*
X239940Y148558D01*
X239433Y147897D01*
X239114Y147127D01*
X239005Y146301D01*
X239114Y145475D01*
X239433Y144704D01*
X239940Y144043D01*
X240601Y143536D01*
X241371Y143217D01*
X242198Y143108D01*
X243024Y143217D01*
X243794Y143536D01*
X244455Y144043D01*
X244963Y144704D01*
X245282Y145475D01*
X245390Y146301D01*
X245282Y147127D01*
X244963Y147897D01*
X244455Y148558D01*
X243794Y149066D01*
X243024Y149385D01*
X242198Y149493D01*
D02*
G37*
G36*
X232198D02*
X231371Y149385D01*
X230601Y149066D01*
X229940Y148558D01*
X229433Y147897D01*
X229114Y147127D01*
X229005Y146301D01*
X229114Y145475D01*
X229433Y144704D01*
X229940Y144043D01*
X230601Y143536D01*
X231371Y143217D01*
X232198Y143108D01*
X233024Y143217D01*
X233794Y143536D01*
X234455Y144043D01*
X234963Y144704D01*
X235282Y145475D01*
X235390Y146301D01*
X235282Y147127D01*
X234963Y147897D01*
X234455Y148558D01*
X233794Y149066D01*
X233024Y149385D01*
X232198Y149493D01*
D02*
G37*
G36*
X129300Y144723D02*
X128595Y144631D01*
X127938Y144358D01*
X127374Y143926D01*
X126942Y143362D01*
X126670Y142705D01*
X126577Y142000D01*
X126670Y141295D01*
X126942Y140638D01*
X127374Y140074D01*
X127938Y139642D01*
X128595Y139369D01*
X129300Y139277D01*
X130005Y139369D01*
X130662Y139642D01*
X131226Y140074D01*
X131658Y140638D01*
X131930Y141295D01*
X132023Y142000D01*
X131930Y142705D01*
X131658Y143362D01*
X131226Y143926D01*
X130662Y144358D01*
X130005Y144631D01*
X129300Y144723D01*
D02*
G37*
G36*
X121500D02*
X120795Y144631D01*
X120138Y144358D01*
X119574Y143926D01*
X119142Y143362D01*
X118869Y142705D01*
X118777Y142000D01*
X118869Y141295D01*
X119142Y140638D01*
X119574Y140074D01*
X120138Y139642D01*
X120795Y139369D01*
X121500Y139277D01*
X122205Y139369D01*
X122862Y139642D01*
X123426Y140074D01*
X123858Y140638D01*
X124130Y141295D01*
X124223Y142000D01*
X124130Y142705D01*
X123858Y143362D01*
X123426Y143926D01*
X122862Y144358D01*
X122205Y144631D01*
X121500Y144723D01*
D02*
G37*
G36*
X193272Y139711D02*
Y138272D01*
X194711D01*
X194656Y138552D01*
X194214Y139214D01*
X193552Y139656D01*
X193272Y139711D01*
D02*
G37*
G36*
X192272D02*
X191991Y139656D01*
X191330Y139214D01*
X190888Y138552D01*
X190832Y138272D01*
X192272D01*
Y139711D01*
D02*
G37*
G36*
X194711Y137272D02*
X193272D01*
Y135832D01*
X193552Y135888D01*
X194214Y136330D01*
X194656Y136991D01*
X194711Y137272D01*
D02*
G37*
G36*
X192272D02*
X190832D01*
X190888Y136991D01*
X191330Y136330D01*
X191991Y135888D01*
X192272Y135832D01*
Y137272D01*
D02*
G37*
G36*
X186500Y134840D02*
Y133400D01*
X187940D01*
X187884Y133680D01*
X187442Y134342D01*
X186780Y134784D01*
X186500Y134840D01*
D02*
G37*
G36*
X185500D02*
X185220Y134784D01*
X184558Y134342D01*
X184116Y133680D01*
X184060Y133400D01*
X185500D01*
Y134840D01*
D02*
G37*
G36*
X129300Y137023D02*
X128595Y136931D01*
X127938Y136658D01*
X127374Y136226D01*
X126942Y135662D01*
X126670Y135005D01*
X126577Y134300D01*
X126670Y133595D01*
X126942Y132938D01*
X127374Y132374D01*
X127938Y131942D01*
X128595Y131669D01*
X129300Y131577D01*
X130005Y131669D01*
X130662Y131942D01*
X131226Y132374D01*
X131658Y132938D01*
X131930Y133595D01*
X132023Y134300D01*
X131930Y135005D01*
X131658Y135662D01*
X131226Y136226D01*
X130662Y136658D01*
X130005Y136931D01*
X129300Y137023D01*
D02*
G37*
G36*
X121500D02*
X120795Y136931D01*
X120138Y136658D01*
X119574Y136226D01*
X119142Y135662D01*
X118869Y135005D01*
X118777Y134300D01*
X118869Y133595D01*
X119142Y132938D01*
X119574Y132374D01*
X120138Y131942D01*
X120795Y131669D01*
X121500Y131577D01*
X122205Y131669D01*
X122862Y131942D01*
X123426Y132374D01*
X123858Y132938D01*
X124130Y133595D01*
X124223Y134300D01*
X124130Y135005D01*
X123858Y135662D01*
X123426Y136226D01*
X122862Y136658D01*
X122205Y136931D01*
X121500Y137023D01*
D02*
G37*
G36*
X170900Y134739D02*
X170120Y134584D01*
X169458Y134142D01*
X169016Y133480D01*
X168861Y132700D01*
X168973Y132136D01*
X167867Y131029D01*
X154811D01*
X154280Y131384D01*
X153500Y131539D01*
X152720Y131384D01*
X152058Y130942D01*
X151616Y130280D01*
X151461Y129500D01*
X151616Y128720D01*
X152058Y128058D01*
X152720Y127616D01*
X153500Y127461D01*
X154280Y127616D01*
X154811Y127971D01*
X168500D01*
X169085Y128087D01*
X169581Y128419D01*
X171981Y130819D01*
X172221Y131177D01*
X172342Y131258D01*
X172784Y131920D01*
X172939Y132700D01*
X172784Y133480D01*
X172342Y134142D01*
X171680Y134584D01*
X170900Y134739D01*
D02*
G37*
G36*
X187940Y132400D02*
X186500D01*
Y130960D01*
X186780Y131016D01*
X187442Y131458D01*
X187884Y132120D01*
X187940Y132400D01*
D02*
G37*
G36*
X185500D02*
X184060D01*
X184116Y132120D01*
X184558Y131458D01*
X185220Y131016D01*
X185500Y130960D01*
Y132400D01*
D02*
G37*
G36*
X209000Y153139D02*
X208220Y152984D01*
X207558Y152542D01*
X207116Y151880D01*
X206961Y151100D01*
Y149460D01*
X206598Y148987D01*
X206321Y148318D01*
X206226Y147600D01*
Y144700D01*
X206321Y143982D01*
X206598Y143313D01*
X207039Y142739D01*
X213239Y136539D01*
X213813Y136098D01*
X213926Y136051D01*
X220189Y129789D01*
X220763Y129348D01*
X221432Y129071D01*
X222023Y128993D01*
X223258Y127758D01*
X223258Y127758D01*
X223920Y127316D01*
X224700Y127161D01*
X225480Y127316D01*
X226142Y127758D01*
X226584Y128420D01*
X226739Y129200D01*
X226584Y129980D01*
X226142Y130642D01*
X226142Y130642D01*
X224907Y131877D01*
X224829Y132468D01*
X224552Y133137D01*
X224111Y133711D01*
X217361Y140461D01*
X216787Y140902D01*
X216674Y140949D01*
X211774Y145849D01*
Y147600D01*
X211679Y148318D01*
X211402Y148987D01*
X211039Y149460D01*
Y151100D01*
X210884Y151880D01*
X210442Y152542D01*
X209780Y152984D01*
X209000Y153139D01*
D02*
G37*
G36*
X115000Y121863D02*
Y113100D01*
X123763D01*
X123634Y114417D01*
X123104Y116164D01*
X122243Y117774D01*
X121085Y119185D01*
X119674Y120343D01*
X118064Y121204D01*
X116317Y121734D01*
X115000Y121863D01*
D02*
G37*
G36*
X114000D02*
X112683Y121734D01*
X110936Y121204D01*
X109326Y120343D01*
X107915Y119185D01*
X106757Y117774D01*
X105896Y116164D01*
X105366Y114417D01*
X105237Y113100D01*
X114000D01*
Y121863D01*
D02*
G37*
G36*
X355700Y121663D02*
Y112900D01*
X364463D01*
X364334Y114217D01*
X363804Y115964D01*
X362943Y117574D01*
X361785Y118985D01*
X360374Y120143D01*
X358764Y121004D01*
X357017Y121534D01*
X355700Y121663D01*
D02*
G37*
G36*
X354700D02*
X353383Y121534D01*
X351636Y121004D01*
X350026Y120143D01*
X348615Y118985D01*
X347457Y117574D01*
X346596Y115964D01*
X346066Y114217D01*
X345937Y112900D01*
X354700D01*
Y121663D01*
D02*
G37*
G36*
X123763Y112100D02*
X115000D01*
Y103337D01*
X116317Y103466D01*
X118064Y103996D01*
X119674Y104857D01*
X121085Y106015D01*
X122243Y107426D01*
X123104Y109036D01*
X123634Y110783D01*
X123763Y112100D01*
D02*
G37*
G36*
X114000D02*
X105237D01*
X105366Y110783D01*
X105896Y109036D01*
X106757Y107426D01*
X107915Y106015D01*
X109326Y104857D01*
X110936Y103996D01*
X112683Y103466D01*
X114000Y103337D01*
Y112100D01*
D02*
G37*
G36*
X364463Y111900D02*
X355700D01*
Y103137D01*
X357017Y103266D01*
X358764Y103796D01*
X360374Y104657D01*
X361785Y105815D01*
X362943Y107226D01*
X363804Y108836D01*
X364334Y110583D01*
X364463Y111900D01*
D02*
G37*
G36*
X354700D02*
X345937D01*
X346066Y110583D01*
X346596Y108836D01*
X347457Y107226D01*
X348615Y105815D01*
X350026Y104657D01*
X351636Y103796D01*
X353383Y103266D01*
X354700Y103137D01*
Y111900D01*
D02*
G37*
%LPD*%
D10*
X251000Y256500D02*
X255400Y252100D01*
Y232763D02*
Y252100D01*
Y232763D02*
X263163Y225000D01*
X248000Y249500D02*
X253000Y244500D01*
Y225000D02*
Y244500D01*
X266500Y219500D02*
X266900Y219900D01*
X279700D02*
X280000D01*
X266900D02*
X279700D01*
X263163Y225000D02*
X280000D01*
X168500Y129500D02*
X170900Y131900D01*
X153500Y129500D02*
X168500D01*
X170900Y131900D02*
Y132700D01*
X293236Y279500D02*
X339700Y233036D01*
Y230300D02*
Y233036D01*
X339400Y229900D02*
Y230000D01*
X339700Y230300D01*
X300512Y267688D02*
X335900Y232300D01*
X294311Y267688D02*
X300512D01*
X143500Y149800D02*
X166000Y149500D01*
Y150400D01*
X276000Y252500D02*
X293500Y235000D01*
X273500Y247500D02*
X274500D01*
X268500D02*
X278500Y237500D01*
X274500Y247500D02*
X280000Y242000D01*
X288000Y279500D02*
X293236D01*
X289500Y276500D02*
X292500Y273500D01*
X281000Y276500D02*
X289500D01*
X340500Y246000D02*
Y246500D01*
Y246000D02*
X343000Y243500D01*
X237500Y256725D02*
Y266500D01*
X343000Y230500D02*
Y243500D01*
X125500Y228000D02*
X130000D01*
X120000Y222500D02*
X125500Y228000D01*
X121500Y218000D02*
X128500Y225000D01*
X130000D01*
X133000Y222000D02*
Y246500D01*
X125500Y214500D02*
X133000Y222000D01*
X130000Y249500D02*
X133000Y246500D01*
X125500Y205000D02*
Y214500D01*
X150000Y224372D02*
Y232000D01*
X264500Y227500D02*
Y251000D01*
X253500Y262000D02*
X264500Y251000D01*
X143500Y224236D02*
Y225500D01*
X139000Y225000D02*
X151000Y237000D01*
X136516Y225000D02*
X139000D01*
X139000Y225000D01*
X153500Y211500D02*
Y215000D01*
X143000Y201000D02*
X153500Y211500D01*
X292500Y269500D02*
Y273500D01*
Y269500D02*
X294311Y267688D01*
X129500Y209000D02*
X134628D01*
X300000Y220000D02*
Y223000D01*
X295500Y227500D02*
X300000Y223000D01*
X298500Y230500D02*
Y245000D01*
X288500Y250000D02*
X295500Y243000D01*
X263000Y256500D02*
X293000D01*
Y250500D02*
X298500Y245000D01*
X295500Y227500D02*
Y243000D01*
X253000Y224500D02*
Y225000D01*
X130000Y249500D02*
Y252500D01*
X153500Y188741D02*
Y189000D01*
X143129Y178371D02*
X153500Y188741D01*
X143129Y177871D02*
Y178371D01*
X137000Y228000D02*
X137250Y228250D01*
X139250D01*
X148000Y237000D01*
X151000D02*
Y246500D01*
X130000Y228000D02*
X130500D01*
X147500Y218500D02*
X153500D01*
X125500Y204500D02*
Y205000D01*
X146500Y223700D02*
Y225000D01*
X133100Y213100D02*
X135900D01*
X146500Y223700D01*
X134628Y209000D02*
X150000Y224372D01*
X146500Y225000D02*
X147000Y225500D01*
X143500Y146500D02*
X171000D01*
X143300Y146300D02*
X143500Y146500D01*
X148000Y237000D02*
Y252500D01*
X133000Y175800D02*
Y190000D01*
X301000Y240000D02*
Y248500D01*
X293000Y256500D02*
X301000Y248500D01*
X237311Y252000D02*
X239000Y250311D01*
Y235000D02*
Y250311D01*
X229000Y251500D02*
X229500Y251000D01*
X253500Y262000D02*
Y267411D01*
X293500Y225500D02*
Y235000D01*
X217854Y234646D02*
Y252146D01*
Y234646D02*
X225000Y227500D01*
X129300Y200300D02*
X147500Y218500D01*
X136765Y217500D02*
X143500Y224236D01*
X229000Y263685D02*
Y266500D01*
X234645Y232355D02*
X237000Y230000D01*
X234645Y232355D02*
Y253870D01*
X237500Y256725D01*
X229500Y240000D02*
Y251000D01*
X225000Y227500D02*
X229500D01*
X232642Y226858D02*
X239500Y220000D01*
X229000Y263685D02*
X232453Y260232D01*
X232642Y226858D01*
D41*
X209000Y144700D02*
Y147600D01*
Y144700D02*
X215200Y138500D01*
X215400D02*
X222150Y131750D01*
X186000Y216500D02*
X202000D01*
D42*
X332800Y227700D02*
X336100Y224400D01*
X318800Y227700D02*
X332800D01*
X336100Y224400D02*
X359000D01*
X266300Y205000D02*
X300000D01*
X300000Y205000D01*
X266500Y210050D02*
X299950D01*
X300000Y210000D01*
X261400Y157300D02*
X262200D01*
X241700Y177000D02*
X261400Y157300D01*
X201000Y177000D02*
X241700D01*
X222150Y131750D02*
X224700Y129200D01*
X209000Y147600D02*
Y151100D01*
X215200Y138500D02*
X215400D01*
X180847Y268453D02*
X185800Y263500D01*
X162346Y262346D02*
X168453Y268453D01*
X180847D01*
X166000Y272000D02*
X191100D01*
X161500Y267500D02*
X166000Y272000D01*
X191100D02*
X199600Y263500D01*
X146000Y267500D02*
X161500D01*
X145846Y262346D02*
X162346D01*
X142500Y281000D02*
X190500D01*
X138000Y285500D02*
X142500Y281000D01*
X138000Y285500D02*
Y289500D01*
X315500Y209500D02*
X346000D01*
X315000Y210000D02*
X315500Y209500D01*
X315000Y215000D02*
X346000D01*
X266500D02*
X300000D01*
X315000Y205000D02*
X346000D01*
D47*
X143175Y154100D02*
X161200D01*
X186000Y254500D02*
Y263500D01*
X189500Y239500D02*
X214000Y215000D01*
X189500Y239500D02*
Y246000D01*
X172000Y197500D02*
X176500Y193000D01*
Y166000D02*
Y193000D01*
X145923Y257423D02*
X171923D01*
X172000Y257500D01*
Y263500D01*
X199600Y260977D02*
Y263500D01*
X239500Y205000D02*
Y205500D01*
X236000Y209000D02*
X239500Y205500D01*
X214000Y215000D02*
X237000D01*
X182000Y196500D02*
Y197000D01*
X172000Y211000D02*
Y257500D01*
X177000Y211000D02*
Y245500D01*
X186000Y254500D01*
X182000Y211000D02*
Y243377D01*
X199600Y260977D01*
X194000Y240500D02*
Y246000D01*
Y240500D02*
X216500Y218000D01*
X232500D01*
X202000Y237000D02*
Y246500D01*
X203500Y201000D02*
X222000D01*
X202000Y237000D02*
X216500Y222500D01*
X218500D01*
X219000Y209000D02*
X236000D01*
X300000Y210000D02*
X300000Y210000D01*
X182000Y196500D02*
X186000Y192500D01*
Y165500D02*
Y192500D01*
X181000Y165500D02*
Y193000D01*
X177000Y197000D02*
X181000Y193000D01*
D50*
X345100Y265700D02*
D03*
X355100D02*
D03*
X282198Y146301D02*
D03*
Y156301D02*
D03*
X272198D02*
D03*
Y146301D02*
D03*
X262198D02*
D03*
Y156301D02*
D03*
X252198D02*
D03*
Y146301D02*
D03*
X242198D02*
D03*
Y156301D02*
D03*
X232198D02*
D03*
Y146301D02*
D03*
D51*
X355200Y112400D02*
D03*
X114500Y112600D02*
D03*
X355100Y285000D02*
D03*
X114400D02*
D03*
D52*
X199600Y263500D02*
D03*
X185800D02*
D03*
X172000D02*
D03*
D53*
X158000Y289500D02*
D03*
X148000D02*
D03*
X138000D02*
D03*
D54*
X296654Y263757D02*
D03*
X288754D02*
D03*
X272954D02*
D03*
X280854D02*
D03*
X265054D02*
D03*
X257154D02*
D03*
X241354Y263857D02*
D03*
X249254D02*
D03*
X233454Y263757D02*
D03*
X225554D02*
D03*
X217854D02*
D03*
Y271557D02*
D03*
X225554D02*
D03*
X233454D02*
D03*
X249254Y271657D02*
D03*
X241354D02*
D03*
X257154Y271557D02*
D03*
X265054D02*
D03*
X280854D02*
D03*
X272954D02*
D03*
X288754D02*
D03*
X296654D02*
D03*
X121500Y213100D02*
D03*
Y205200D02*
D03*
Y189400D02*
D03*
Y197300D02*
D03*
Y181500D02*
D03*
Y173600D02*
D03*
X121400Y157800D02*
D03*
Y165700D02*
D03*
X121500Y149900D02*
D03*
Y142000D02*
D03*
Y134300D02*
D03*
X129300D02*
D03*
Y142000D02*
D03*
Y149900D02*
D03*
X129200Y165700D02*
D03*
Y157800D02*
D03*
X129300Y173600D02*
D03*
Y181500D02*
D03*
Y197300D02*
D03*
Y189400D02*
D03*
Y205200D02*
D03*
Y213100D02*
D03*
D55*
X331200Y292500D02*
D03*
X318800Y227700D02*
D03*
X359000Y224400D02*
D03*
X266300Y205000D02*
D03*
X266500Y210050D02*
D03*
X279700Y219900D02*
D03*
X280000Y225000D02*
D03*
X170900Y132700D02*
D03*
X209000Y151100D02*
D03*
X224700Y129200D02*
D03*
X339400Y229900D02*
D03*
X335900Y232300D02*
D03*
X143500Y149800D02*
D03*
X166000Y149500D02*
D03*
X142912Y154363D02*
D03*
X161200Y154100D02*
D03*
X201000Y177000D02*
D03*
X186000Y132900D02*
D03*
X192772Y137772D02*
D03*
X276000Y252500D02*
D03*
X273500Y247500D02*
D03*
X280000Y242000D02*
D03*
X288000Y279500D02*
D03*
X280000Y276500D02*
D03*
X190500Y281000D02*
D03*
X318500Y235500D02*
D03*
X340500Y246500D02*
D03*
X237500Y266500D02*
D03*
X266500Y220000D02*
D03*
X176500Y166000D02*
D03*
X120000Y222500D02*
D03*
X121500Y218000D02*
D03*
X150000Y232000D02*
D03*
X258854Y248354D02*
D03*
X143500Y225500D02*
D03*
X136516Y225000D02*
D03*
X153500Y215000D02*
D03*
X145000Y160000D02*
D03*
X129500Y209000D02*
D03*
X145923Y257423D02*
D03*
X145846Y262346D02*
D03*
X346000Y215000D02*
D03*
X315000D02*
D03*
X300000Y220000D02*
D03*
X298500Y230500D02*
D03*
X288500Y250000D02*
D03*
X293000Y250500D02*
D03*
X239500Y205000D02*
D03*
X237000Y215000D02*
D03*
X253000Y225000D02*
D03*
X143129Y177871D02*
D03*
X137000Y228000D02*
D03*
X130000D02*
D03*
X153500Y218500D02*
D03*
X141146Y205646D02*
D03*
X143000Y201000D02*
D03*
X129300Y200300D02*
D03*
X125500Y205000D02*
D03*
X136765Y217500D02*
D03*
X133000Y190000D02*
D03*
X153500Y189000D02*
D03*
X147000Y225500D02*
D03*
X133100Y213100D02*
D03*
X130000Y225000D02*
D03*
X171000Y146500D02*
D03*
X143300Y146300D02*
D03*
X153500Y129500D02*
D03*
X203500Y201000D02*
D03*
X151000Y246500D02*
D03*
X148000Y252500D02*
D03*
X130000D02*
D03*
X133000Y175800D02*
D03*
X301000Y240000D02*
D03*
X293500Y225500D02*
D03*
X263000Y256500D02*
D03*
X268500Y247500D02*
D03*
X278500Y237500D02*
D03*
X253500Y267411D02*
D03*
X264500Y227500D02*
D03*
X237311Y252000D02*
D03*
X239000Y235000D02*
D03*
X237000Y230000D02*
D03*
X239500Y220000D02*
D03*
X229000Y251500D02*
D03*
X217854Y252146D02*
D03*
X248000Y249500D02*
D03*
X121700Y243700D02*
D03*
X341000Y251500D02*
D03*
X343000Y230500D02*
D03*
X186000Y216500D02*
D03*
X202000D02*
D03*
X284972Y200528D02*
D03*
X330546Y200183D02*
D03*
X172000Y197500D02*
D03*
X181000Y165500D02*
D03*
X177000Y197000D02*
D03*
X186000Y165500D02*
D03*
X182000Y197000D02*
D03*
X191772Y183772D02*
D03*
X172000Y211000D02*
D03*
X177000D02*
D03*
X182000D02*
D03*
X146000Y267500D02*
D03*
X159000Y274000D02*
D03*
X189500Y246000D02*
D03*
X194000D02*
D03*
X202000Y246500D02*
D03*
X222000Y201000D02*
D03*
X230000Y205000D02*
D03*
X218500Y222500D02*
D03*
X219000Y209000D02*
D03*
X266500Y215000D02*
D03*
X300000D02*
D03*
X300000Y205000D02*
D03*
X315000Y205000D02*
D03*
X346000D02*
D03*
Y209500D02*
D03*
X315000Y210000D02*
D03*
X232500Y218000D02*
D03*
X300000Y210000D02*
D03*
X251000Y256500D02*
D03*
X229000Y266500D02*
D03*
X229500Y240000D02*
D03*
Y227500D02*
D03*
M02*
