G04*
G04 #@! TF.GenerationSoftware,Altium Limited,Altium Designer,19.1.7 (138)*
G04*
G04 Layer_Color=16711935*
%FSLAX25Y25*%
%MOIN*%
G70*
G01*
G75*
%ADD57C,0.00394*%
D57*
X150327Y190169D02*
G03*
X150327Y190169I-1969J0D01*
G01*
X233366Y238642D02*
G03*
X233366Y238642I-1969J0D01*
G01*
X154327Y144169D02*
G03*
X154327Y144169I-1969J0D01*
G01*
X338912Y238296D02*
G03*
X338912Y238296I-1969J0D01*
G01*
X154371Y233704D02*
G03*
X154371Y233704I-1969J0D01*
G01*
X293338Y238642D02*
G03*
X293338Y238642I-1969J0D01*
G01*
X329728Y270253D02*
Y276946D01*
X333272Y270253D02*
Y276946D01*
X329728Y270253D02*
X333272D01*
X329728Y276946D02*
X333272D01*
X252555Y241370D02*
X259445D01*
X252555Y237630D02*
X259445D01*
X252555D02*
Y241370D01*
X259445Y237630D02*
Y241370D01*
X145555Y164130D02*
Y167870D01*
X152445Y164130D02*
Y167870D01*
X145555D02*
X152445D01*
X145555Y164130D02*
X152445D01*
X312055Y241370D02*
X318945D01*
X312055Y237630D02*
X318945D01*
X312055D02*
Y241370D01*
X318945Y237630D02*
Y241370D01*
X140555Y208130D02*
Y211870D01*
X147445Y208130D02*
Y211870D01*
X140555D02*
X147445D01*
X140555Y208130D02*
X147445D01*
X345555Y244630D02*
X352445D01*
X345555Y248370D02*
X352445D01*
Y244630D02*
Y248370D01*
X345555Y244630D02*
Y248370D01*
X126630Y238945D02*
X130370D01*
X126630Y232055D02*
X130370D01*
Y238945D01*
X126630Y232055D02*
Y238945D01*
X259347Y242728D02*
Y246272D01*
X252654Y242728D02*
Y246272D01*
Y242728D02*
X259347D01*
X252654Y246272D02*
X259347D01*
X145653Y169228D02*
X152346D01*
X145653Y172772D02*
X152346D01*
Y169228D02*
Y172772D01*
X145653Y169228D02*
Y172772D01*
X318847Y243228D02*
Y246772D01*
X312154Y243228D02*
Y246772D01*
Y243228D02*
X318847D01*
X312154Y246772D02*
X318847D01*
X140653Y214728D02*
X147346D01*
X140653Y218272D02*
X147346D01*
Y214728D02*
Y218272D01*
X140653Y214728D02*
Y218272D01*
X345653Y250228D02*
Y253772D01*
X352346Y250228D02*
Y253772D01*
X345653D02*
X352346D01*
X345653Y250228D02*
X352346D01*
X119928Y231808D02*
Y238501D01*
X123472Y231808D02*
Y238501D01*
X119928Y231808D02*
X123472D01*
X119928Y238501D02*
X123472D01*
X184185Y186626D02*
Y202374D01*
X144815Y186626D02*
Y202374D01*
X184185D01*
X144815Y186626D02*
X184185D01*
X227854Y202815D02*
X243602D01*
X227854Y242185D02*
X243602D01*
Y202815D02*
Y242185D01*
X227854Y202815D02*
Y242185D01*
X188185Y140626D02*
Y156374D01*
X148815Y140626D02*
Y156374D01*
X188185D01*
X148815Y140626D02*
X188185D01*
X333400Y202469D02*
X349148D01*
X333400Y241839D02*
X349148D01*
Y202469D02*
Y241839D01*
X333400Y202469D02*
Y241839D01*
X140198Y269531D02*
X155946D01*
X140198Y230161D02*
X155946D01*
X140198D02*
Y269531D01*
X155946Y230161D02*
Y269531D01*
X287826Y202815D02*
X303574D01*
X287826Y242185D02*
X303574D01*
Y202815D02*
Y242185D01*
X287826Y202815D02*
Y242185D01*
X268236Y228015D02*
X272764D01*
X268236Y236677D02*
X272764D01*
X268236Y228015D02*
Y236677D01*
X272764Y228015D02*
Y236677D01*
X216831Y227236D02*
Y231764D01*
X208169Y227236D02*
Y231764D01*
Y227236D02*
X216831D01*
X208169Y231764D02*
X216831D01*
X158736Y131831D02*
X163264D01*
X158736Y123169D02*
X163264D01*
Y131831D01*
X158736Y123169D02*
Y131831D01*
X155736Y177984D02*
X160264D01*
X155736Y169323D02*
X160264D01*
Y177984D01*
X155736Y169323D02*
Y177984D01*
X322877Y217891D02*
Y222418D01*
X314215Y217891D02*
Y222418D01*
Y217891D02*
X322877D01*
X314215Y222418D02*
X322877D01*
X165169Y239736D02*
Y244264D01*
X173831Y239736D02*
Y244264D01*
X165169D02*
X173831D01*
X165169Y239736D02*
X173831D01*
M02*
