M48
;Layer_Color=39423
;FILE_FORMAT=4:4
METRIC,LZ
;TYPE=PLATED
T1F00S00C0.3810
T2F00S00C0.7110
T3F00S00C0.8000
T4F00S00C1.0200
T5F00S00C1.0200
T6F00S00C4.0000
%
T01
X00193294Y00356616
X00196596Y00374904
X00223266Y0037465
X00241173Y00344551
X00329946Y00345948
X0036322
X00322072Y00387096
X00413766Y00382524
X00426466
X00439166
X00474Y0037825
X0050325
X00505Y00348
X0050675Y00321
X004735
X0047425Y00348
X00451866Y00267716
X00469138Y00243332
X005895Y00335125
Y003635
X00672846Y00375666
X00727456Y0038735
X00743204Y00371856
X00761Y0038525
X00743204Y00339344
X00813562Y005588
Y005715
Y005842
X0088646
Y005715
Y005588
X00854456Y005461
X0093875Y0054175
X009385Y005285
X0096925Y005275
X00987Y005415
X00948Y0048225
Y00462
X00976247Y00669923
X0099187Y00667766
X0091821Y006858
X0090297
X00892302
X00882396
X0087249
X00862838
X00854456Y00675894
X00819529Y00673733
X00832358Y00734822
X00836168Y00757682
X00861822Y0075819
X00892302Y0075438
X00902589Y00754761
X0093726Y00779018
X00930148Y00719074
X008636Y0071755
X00853186Y00718058
X00776732Y00730758
X00765556Y00738378
X00744474Y00712724
Y00687578
X00755142Y00687324
X00766064
X00776986
X00709676Y0066675
X00697484Y00665734
X00659509Y00670685
X0061087Y00685038
X00599948
X00586994
X00575818
X00560832
X00536956
X0053721Y00708914
X00545592Y0074295
X00526034
X00576834
X00596138
X0059563Y00732028
X0061595Y00727456
X00610108Y0070993
X00606298Y00764794
X00586613Y00780923
X00686816Y00783082
X00678434Y00751586
X00722376Y006096
X00735838Y00597154
X00731774Y005842
Y005715
Y005588
X00697992Y005461
X00658622Y00559562
Y00572262
Y00584962
X00579882Y005842
Y005715
Y005588
X00537718Y005461
X00526034Y00493268
X00439166Y00461264
X00426466
X00413766
X0040132Y00502412
X00413766Y00551688
X00426466
X00439166
X00450342Y00584962
X00451866Y00602742
X00439166Y00670814
X00426466
X00413766
Y00713994
X00426466
X00439166
X00439674Y00751332
X0042672
X00413766
X00404622Y00779526
X00439674Y00767334
X00454914Y00751332
X00451866Y00441198
X00469392Y0041402
X00738124Y00409194
X00736092Y00482854
X00388366Y00514096
X0037592Y00517144
X00302768Y00520954
Y0051181
Y00502412
X00299974Y00463804
Y00452882
X00327914Y00462788
Y00472694
X00322963Y00561977
X00255778Y00573024
X00258572Y00598932
Y0061087
Y00622808
X00232918Y00621538
Y00610108
Y00599186
X0023241Y00562102
X00244602Y0054356
X00228092Y005334
X0021971Y00433578
X00232918Y00423926
X00232664Y00403606
X0021971
X00322709Y00727331
X00367792Y00817626
X00414782Y0081788
X00897128Y00796544
T02
X006025Y0027525
Y002925
X00666Y00292
Y0027525
T03
X00186944Y00393954
X00206756
Y00413512
X00186944
Y00433578
X00206756
X00206502Y00453644
X0018669
Y0047371
X00206502
X00206756Y00493776
X00186944
Y00513842
X00206756
Y00533908
X00186944
Y00553974
X00206756
Y0057404
X00186944
Y00594106
X00206756
X00536448Y00796798
X00556006
Y0081661
X00536448
X00576072
Y00796798
X00596138Y00797052
Y00816864
X00616204
Y00797052
X0063627Y00796798
Y0081661
X00656336
Y00796798
X00676402
Y0081661
X00696468
Y00796798
X00716534
Y0081661
X007366
Y00796798
T04
X00290322Y00817626
X00315722
X00341122
T05
X00947928Y0074803
X00973328
X00713388Y00462598
Y00437198
X00687988
Y00462598
X00662588
Y00437198
X00637188
Y00462598
X00611788
Y00437198
X00586388
Y00462598
T06
X00207772Y00207518
X00979138Y00207582
X00207772Y00803466
X00979138Y00803332
M30
