G04*
G04 #@! TF.GenerationSoftware,Altium Limited,Altium Designer,18.1.11 (251)*
G04*
G04 Layer_Physical_Order=2*
G04 Layer_Color=16711680*
%FSLAX25Y25*%
%MOIN*%
G70*
G01*
G75*
%ADD10C,0.01000*%
%ADD49C,0.02500*%
%ADD51C,0.02953*%
%ADD52C,0.01575*%
%ADD53C,0.02000*%
%ADD56C,0.01500*%
%ADD57C,0.05906*%
%ADD58C,0.04331*%
%ADD59C,0.05512*%
%ADD60C,0.05118*%
%ADD61C,0.16535*%
%ADD62C,0.02362*%
%ADD63C,0.02571*%
G36*
X402067Y102559D02*
Y69193D01*
X67421D01*
Y329035D01*
X402067D01*
Y102559D01*
D02*
G37*
%LPC*%
G36*
X163300Y324224D02*
X162449Y324055D01*
X162426Y324039D01*
X145226D01*
X144800Y324124D01*
X143949Y323955D01*
X143228Y323472D01*
X142745Y322751D01*
X142576Y321900D01*
X142745Y321049D01*
X143228Y320327D01*
X143949Y319845D01*
X144800Y319676D01*
X145651Y319845D01*
X145824Y319961D01*
X162426D01*
X162449Y319945D01*
X163300Y319776D01*
X164151Y319945D01*
X164873Y320427D01*
X165355Y321149D01*
X165524Y322000D01*
X165355Y322851D01*
X164873Y323572D01*
X164151Y324055D01*
X163300Y324224D01*
D02*
G37*
G36*
X242600Y324793D02*
X241774Y324684D01*
X241004Y324365D01*
X240342Y323857D01*
X239835Y323196D01*
X239516Y322426D01*
X239407Y321600D01*
X239516Y320774D01*
X239835Y320004D01*
X240342Y319342D01*
X241004Y318835D01*
X241774Y318516D01*
X242600Y318407D01*
X243426Y318516D01*
X244196Y318835D01*
X244858Y319342D01*
X245365Y320004D01*
X245684Y320774D01*
X245793Y321600D01*
X245684Y322426D01*
X245365Y323196D01*
X244858Y323857D01*
X244196Y324365D01*
X243426Y324684D01*
X242600Y324793D01*
D02*
G37*
G36*
X234700D02*
X233874Y324684D01*
X233104Y324365D01*
X232442Y323857D01*
X231935Y323196D01*
X231616Y322426D01*
X231507Y321600D01*
X231616Y320774D01*
X231935Y320004D01*
X232442Y319342D01*
X233104Y318835D01*
X233874Y318516D01*
X234700Y318407D01*
X235526Y318516D01*
X236296Y318835D01*
X236958Y319342D01*
X237465Y320004D01*
X237784Y320774D01*
X237893Y321600D01*
X237784Y322426D01*
X237465Y323196D01*
X236958Y323857D01*
X236296Y324365D01*
X235526Y324684D01*
X234700Y324793D01*
D02*
G37*
G36*
X290000Y324693D02*
X289174Y324584D01*
X288404Y324265D01*
X287742Y323758D01*
X287235Y323096D01*
X286916Y322326D01*
X286807Y321500D01*
X286916Y320674D01*
X287235Y319904D01*
X287742Y319243D01*
X288404Y318735D01*
X289174Y318416D01*
X290000Y318307D01*
X290826Y318416D01*
X291596Y318735D01*
X292257Y319243D01*
X292765Y319904D01*
X293084Y320674D01*
X293193Y321500D01*
X293084Y322326D01*
X292765Y323096D01*
X292257Y323758D01*
X291596Y324265D01*
X290826Y324584D01*
X290000Y324693D01*
D02*
G37*
G36*
X282100D02*
X281274Y324584D01*
X280504Y324265D01*
X279842Y323758D01*
X279335Y323096D01*
X279016Y322326D01*
X278907Y321500D01*
X279016Y320674D01*
X279335Y319904D01*
X279842Y319243D01*
X280504Y318735D01*
X281274Y318416D01*
X282100Y318307D01*
X282926Y318416D01*
X283696Y318735D01*
X284358Y319243D01*
X284865Y319904D01*
X285184Y320674D01*
X285293Y321500D01*
X285184Y322326D01*
X284865Y323096D01*
X284358Y323758D01*
X283696Y324265D01*
X282926Y324584D01*
X282100Y324693D01*
D02*
G37*
G36*
X274200D02*
X273374Y324584D01*
X272604Y324265D01*
X271942Y323758D01*
X271435Y323096D01*
X271116Y322326D01*
X271007Y321500D01*
X271116Y320674D01*
X271435Y319904D01*
X271942Y319243D01*
X272604Y318735D01*
X273374Y318416D01*
X274200Y318307D01*
X275026Y318416D01*
X275796Y318735D01*
X276458Y319243D01*
X276965Y319904D01*
X277284Y320674D01*
X277393Y321500D01*
X277284Y322326D01*
X276965Y323096D01*
X276458Y323758D01*
X275796Y324265D01*
X275026Y324584D01*
X274200Y324693D01*
D02*
G37*
G36*
X266300D02*
X265474Y324584D01*
X264704Y324265D01*
X264042Y323758D01*
X263535Y323096D01*
X263216Y322326D01*
X263107Y321500D01*
X263216Y320674D01*
X263535Y319904D01*
X264042Y319243D01*
X264704Y318735D01*
X265474Y318416D01*
X266300Y318307D01*
X267126Y318416D01*
X267896Y318735D01*
X268558Y319243D01*
X269065Y319904D01*
X269384Y320674D01*
X269493Y321500D01*
X269384Y322326D01*
X269065Y323096D01*
X268558Y323758D01*
X267896Y324265D01*
X267126Y324584D01*
X266300Y324693D01*
D02*
G37*
G36*
X258400D02*
X257574Y324584D01*
X256804Y324265D01*
X256142Y323758D01*
X255635Y323096D01*
X255316Y322326D01*
X255207Y321500D01*
X255316Y320674D01*
X255635Y319904D01*
X256142Y319243D01*
X256804Y318735D01*
X257574Y318416D01*
X258400Y318307D01*
X259226Y318416D01*
X259996Y318735D01*
X260658Y319243D01*
X261165Y319904D01*
X261484Y320674D01*
X261593Y321500D01*
X261484Y322326D01*
X261165Y323096D01*
X260658Y323758D01*
X259996Y324265D01*
X259226Y324584D01*
X258400Y324693D01*
D02*
G37*
G36*
X250500D02*
X249674Y324584D01*
X248904Y324265D01*
X248242Y323758D01*
X247735Y323096D01*
X247416Y322326D01*
X247307Y321500D01*
X247416Y320674D01*
X247735Y319904D01*
X248242Y319243D01*
X248904Y318735D01*
X249674Y318416D01*
X250500Y318307D01*
X251326Y318416D01*
X252096Y318735D01*
X252758Y319243D01*
X253265Y319904D01*
X253584Y320674D01*
X253693Y321500D01*
X253584Y322326D01*
X253265Y323096D01*
X252758Y323758D01*
X252096Y324265D01*
X251326Y324584D01*
X250500Y324693D01*
D02*
G37*
G36*
X226800D02*
X225974Y324584D01*
X225204Y324265D01*
X224542Y323758D01*
X224035Y323096D01*
X223716Y322326D01*
X223607Y321500D01*
X223716Y320674D01*
X224035Y319904D01*
X224542Y319243D01*
X225204Y318735D01*
X225974Y318416D01*
X226800Y318307D01*
X227626Y318416D01*
X228396Y318735D01*
X229058Y319243D01*
X229565Y319904D01*
X229884Y320674D01*
X229993Y321500D01*
X229884Y322326D01*
X229565Y323096D01*
X229058Y323758D01*
X228396Y324265D01*
X227626Y324584D01*
X226800Y324693D01*
D02*
G37*
G36*
X218900D02*
X218074Y324584D01*
X217304Y324265D01*
X216642Y323758D01*
X216135Y323096D01*
X215816Y322326D01*
X215707Y321500D01*
X215816Y320674D01*
X216135Y319904D01*
X216642Y319243D01*
X217304Y318735D01*
X218074Y318416D01*
X218900Y318307D01*
X219726Y318416D01*
X220496Y318735D01*
X221158Y319243D01*
X221665Y319904D01*
X221984Y320674D01*
X222093Y321500D01*
X221984Y322326D01*
X221665Y323096D01*
X221158Y323758D01*
X220496Y324265D01*
X219726Y324584D01*
X218900Y324693D01*
D02*
G37*
G36*
X211200D02*
X210374Y324584D01*
X209604Y324265D01*
X208943Y323758D01*
X208435Y323096D01*
X208116Y322326D01*
X208007Y321500D01*
X208116Y320674D01*
X208435Y319904D01*
X208943Y319243D01*
X209604Y318735D01*
X210374Y318416D01*
X211200Y318307D01*
X212026Y318416D01*
X212796Y318735D01*
X213457Y319243D01*
X213965Y319904D01*
X214284Y320674D01*
X214393Y321500D01*
X214284Y322326D01*
X213965Y323096D01*
X213457Y323758D01*
X212796Y324265D01*
X212026Y324584D01*
X211200Y324693D01*
D02*
G37*
G36*
X134343Y325688D02*
X133363Y325559D01*
X132449Y325181D01*
X131665Y324579D01*
X131062Y323794D01*
X130684Y322881D01*
X130555Y321900D01*
X130684Y320919D01*
X131062Y320006D01*
X131665Y319221D01*
X132449Y318619D01*
X133363Y318241D01*
X134343Y318112D01*
X135324Y318241D01*
X136238Y318619D01*
X137022Y319221D01*
X137624Y320006D01*
X138003Y320919D01*
X138132Y321900D01*
X138003Y322881D01*
X137624Y323794D01*
X137022Y324579D01*
X136238Y325181D01*
X135324Y325559D01*
X134343Y325688D01*
D02*
G37*
G36*
X124343D02*
X123363Y325559D01*
X122449Y325181D01*
X121665Y324579D01*
X121063Y323794D01*
X120684Y322881D01*
X120555Y321900D01*
X120684Y320919D01*
X121063Y320006D01*
X121665Y319221D01*
X122449Y318619D01*
X123363Y318241D01*
X124343Y318112D01*
X125324Y318241D01*
X126237Y318619D01*
X127022Y319221D01*
X127624Y320006D01*
X128003Y320919D01*
X128132Y321900D01*
X128003Y322881D01*
X127624Y323794D01*
X127022Y324579D01*
X126237Y325181D01*
X125324Y325559D01*
X124343Y325688D01*
D02*
G37*
G36*
X114343D02*
X113363Y325559D01*
X112449Y325181D01*
X111665Y324579D01*
X111063Y323794D01*
X110684Y322881D01*
X110555Y321900D01*
X110684Y320919D01*
X111063Y320006D01*
X111665Y319221D01*
X112449Y318619D01*
X113363Y318241D01*
X114343Y318112D01*
X115324Y318241D01*
X116237Y318619D01*
X117022Y319221D01*
X117624Y320006D01*
X118002Y320919D01*
X118132Y321900D01*
X118002Y322881D01*
X117624Y323794D01*
X117022Y324579D01*
X116237Y325181D01*
X115324Y325559D01*
X114343Y325688D01*
D02*
G37*
G36*
X82685Y323133D02*
Y314370D01*
X91448D01*
X91319Y315687D01*
X90789Y317434D01*
X89928Y319044D01*
X88770Y320455D01*
X87359Y321613D01*
X85749Y322474D01*
X84002Y323004D01*
X82685Y323133D01*
D02*
G37*
G36*
X81685D02*
X80368Y323004D01*
X78621Y322474D01*
X77011Y321613D01*
X75600Y320455D01*
X74442Y319044D01*
X73581Y317434D01*
X73051Y315687D01*
X72922Y314370D01*
X81685D01*
Y323133D01*
D02*
G37*
G36*
X387803D02*
Y314370D01*
X396566D01*
X396437Y315687D01*
X395907Y317434D01*
X395046Y319044D01*
X393888Y320455D01*
X392477Y321613D01*
X390867Y322474D01*
X389120Y323004D01*
X387803Y323133D01*
D02*
G37*
G36*
X386803D02*
X385486Y323004D01*
X383739Y322474D01*
X382129Y321613D01*
X380718Y320455D01*
X379560Y319044D01*
X378699Y317434D01*
X378169Y315687D01*
X378040Y314370D01*
X386803D01*
Y323133D01*
D02*
G37*
G36*
X242600Y316993D02*
X241774Y316884D01*
X241004Y316565D01*
X240342Y316057D01*
X239835Y315396D01*
X239516Y314626D01*
X239407Y313800D01*
X239516Y312974D01*
X239835Y312204D01*
X240342Y311543D01*
X241004Y311035D01*
X241774Y310716D01*
X242600Y310607D01*
X243426Y310716D01*
X244196Y311035D01*
X244858Y311543D01*
X245365Y312204D01*
X245684Y312974D01*
X245793Y313800D01*
X245684Y314626D01*
X245365Y315396D01*
X244858Y316057D01*
X244196Y316565D01*
X243426Y316884D01*
X242600Y316993D01*
D02*
G37*
G36*
X234700D02*
X233874Y316884D01*
X233104Y316565D01*
X232442Y316057D01*
X231935Y315396D01*
X231616Y314626D01*
X231507Y313800D01*
X231616Y312974D01*
X231935Y312204D01*
X232442Y311543D01*
X233104Y311035D01*
X233874Y310716D01*
X234700Y310607D01*
X235526Y310716D01*
X236296Y311035D01*
X236958Y311543D01*
X237465Y312204D01*
X237784Y312974D01*
X237893Y313800D01*
X237784Y314626D01*
X237465Y315396D01*
X236958Y316057D01*
X236296Y316565D01*
X235526Y316884D01*
X234700Y316993D01*
D02*
G37*
G36*
X290000Y316893D02*
X289174Y316784D01*
X288404Y316465D01*
X287742Y315957D01*
X287235Y315296D01*
X286916Y314526D01*
X286807Y313700D01*
X286916Y312874D01*
X287235Y312104D01*
X287742Y311442D01*
X288404Y310935D01*
X289174Y310616D01*
X290000Y310507D01*
X290826Y310616D01*
X291596Y310935D01*
X292257Y311442D01*
X292765Y312104D01*
X293084Y312874D01*
X293193Y313700D01*
X293084Y314526D01*
X292765Y315296D01*
X292257Y315957D01*
X291596Y316465D01*
X290826Y316784D01*
X290000Y316893D01*
D02*
G37*
G36*
X282100D02*
X281274Y316784D01*
X280504Y316465D01*
X279842Y315957D01*
X279335Y315296D01*
X279016Y314526D01*
X278907Y313700D01*
X279016Y312874D01*
X279335Y312104D01*
X279842Y311442D01*
X280504Y310935D01*
X281274Y310616D01*
X282100Y310507D01*
X282926Y310616D01*
X283696Y310935D01*
X284358Y311442D01*
X284865Y312104D01*
X285184Y312874D01*
X285293Y313700D01*
X285184Y314526D01*
X284865Y315296D01*
X284358Y315957D01*
X283696Y316465D01*
X282926Y316784D01*
X282100Y316893D01*
D02*
G37*
G36*
X274200D02*
X273374Y316784D01*
X272604Y316465D01*
X271942Y315957D01*
X271435Y315296D01*
X271116Y314526D01*
X271007Y313700D01*
X271116Y312874D01*
X271435Y312104D01*
X271942Y311442D01*
X272604Y310935D01*
X273374Y310616D01*
X274200Y310507D01*
X275026Y310616D01*
X275796Y310935D01*
X276458Y311442D01*
X276965Y312104D01*
X277284Y312874D01*
X277393Y313700D01*
X277284Y314526D01*
X276965Y315296D01*
X276458Y315957D01*
X275796Y316465D01*
X275026Y316784D01*
X274200Y316893D01*
D02*
G37*
G36*
X266300D02*
X265474Y316784D01*
X264704Y316465D01*
X264042Y315957D01*
X263535Y315296D01*
X263216Y314526D01*
X263107Y313700D01*
X263216Y312874D01*
X263535Y312104D01*
X264042Y311442D01*
X264704Y310935D01*
X265474Y310616D01*
X266300Y310507D01*
X267126Y310616D01*
X267896Y310935D01*
X268558Y311442D01*
X269065Y312104D01*
X269384Y312874D01*
X269493Y313700D01*
X269384Y314526D01*
X269065Y315296D01*
X268558Y315957D01*
X267896Y316465D01*
X267126Y316784D01*
X266300Y316893D01*
D02*
G37*
G36*
X258400D02*
X257574Y316784D01*
X256804Y316465D01*
X256142Y315957D01*
X255635Y315296D01*
X255316Y314526D01*
X255207Y313700D01*
X255316Y312874D01*
X255635Y312104D01*
X256142Y311442D01*
X256804Y310935D01*
X257574Y310616D01*
X258400Y310507D01*
X259226Y310616D01*
X259996Y310935D01*
X260658Y311442D01*
X261165Y312104D01*
X261484Y312874D01*
X261593Y313700D01*
X261484Y314526D01*
X261165Y315296D01*
X260658Y315957D01*
X259996Y316465D01*
X259226Y316784D01*
X258400Y316893D01*
D02*
G37*
G36*
X250500D02*
X249674Y316784D01*
X248904Y316465D01*
X248242Y315957D01*
X247735Y315296D01*
X247416Y314526D01*
X247307Y313700D01*
X247416Y312874D01*
X247735Y312104D01*
X248242Y311442D01*
X248904Y310935D01*
X249674Y310616D01*
X250500Y310507D01*
X251326Y310616D01*
X252096Y310935D01*
X252758Y311442D01*
X253265Y312104D01*
X253584Y312874D01*
X253693Y313700D01*
X253584Y314526D01*
X253265Y315296D01*
X252758Y315957D01*
X252096Y316465D01*
X251326Y316784D01*
X250500Y316893D01*
D02*
G37*
G36*
X226800D02*
X225974Y316784D01*
X225204Y316465D01*
X224542Y315957D01*
X224035Y315296D01*
X223716Y314526D01*
X223607Y313700D01*
X223716Y312874D01*
X224035Y312104D01*
X224542Y311442D01*
X225204Y310935D01*
X225974Y310616D01*
X226800Y310507D01*
X227626Y310616D01*
X228396Y310935D01*
X229058Y311442D01*
X229565Y312104D01*
X229884Y312874D01*
X229993Y313700D01*
X229884Y314526D01*
X229565Y315296D01*
X229058Y315957D01*
X228396Y316465D01*
X227626Y316784D01*
X226800Y316893D01*
D02*
G37*
G36*
X218900D02*
X218074Y316784D01*
X217304Y316465D01*
X216642Y315957D01*
X216135Y315296D01*
X215816Y314526D01*
X215707Y313700D01*
X215816Y312874D01*
X216135Y312104D01*
X216642Y311442D01*
X217304Y310935D01*
X218074Y310616D01*
X218900Y310507D01*
X219726Y310616D01*
X220496Y310935D01*
X221158Y311442D01*
X221665Y312104D01*
X221984Y312874D01*
X222093Y313700D01*
X221984Y314526D01*
X221665Y315296D01*
X221158Y315957D01*
X220496Y316465D01*
X219726Y316784D01*
X218900Y316893D01*
D02*
G37*
G36*
X211200D02*
X210374Y316784D01*
X209604Y316465D01*
X208943Y315957D01*
X208435Y315296D01*
X208116Y314526D01*
X208007Y313700D01*
X208116Y312874D01*
X208435Y312104D01*
X208943Y311442D01*
X209604Y310935D01*
X210374Y310616D01*
X211200Y310507D01*
X212026Y310616D01*
X212796Y310935D01*
X213457Y311442D01*
X213965Y312104D01*
X214284Y312874D01*
X214393Y313700D01*
X214284Y314526D01*
X213965Y315296D01*
X213457Y315957D01*
X212796Y316465D01*
X212026Y316784D01*
X211200Y316893D01*
D02*
G37*
G36*
X369500Y308824D02*
Y307200D01*
X371124D01*
X371055Y307551D01*
X370572Y308273D01*
X369851Y308755D01*
X369500Y308824D01*
D02*
G37*
G36*
X368500D02*
X368149Y308755D01*
X367427Y308273D01*
X366945Y307551D01*
X366876Y307200D01*
X368500D01*
Y308824D01*
D02*
G37*
G36*
X396566Y313370D02*
X387803D01*
Y304607D01*
X389120Y304736D01*
X390867Y305266D01*
X392477Y306127D01*
X393888Y307285D01*
X395046Y308696D01*
X395907Y310306D01*
X396437Y312053D01*
X396566Y313370D01*
D02*
G37*
G36*
X91448Y313370D02*
X82685D01*
Y304607D01*
X84002Y304736D01*
X85749Y305266D01*
X87359Y306127D01*
X88770Y307285D01*
X89928Y308696D01*
X90789Y310306D01*
X91319Y312053D01*
X91448Y313370D01*
D02*
G37*
G36*
X81685D02*
X72922D01*
X73051Y312053D01*
X73581Y310306D01*
X74442Y308696D01*
X75600Y307285D01*
X77011Y306127D01*
X78621Y305266D01*
X80368Y304736D01*
X81685Y304607D01*
Y313370D01*
D02*
G37*
G36*
X386803Y313370D02*
X378040D01*
X378169Y312053D01*
X378699Y310306D01*
X379560Y308696D01*
X380718Y307285D01*
X382129Y306127D01*
X383739Y305266D01*
X385486Y304736D01*
X386803Y304607D01*
Y313370D01*
D02*
G37*
G36*
X371124Y306200D02*
X369500D01*
Y304576D01*
X369851Y304645D01*
X370572Y305128D01*
X371055Y305849D01*
X371124Y306200D01*
D02*
G37*
G36*
X368500D02*
X366876D01*
X366945Y305849D01*
X367427Y305128D01*
X368149Y304645D01*
X368500Y304576D01*
Y306200D01*
D02*
G37*
G36*
X173100Y298024D02*
X172249Y297855D01*
X171528Y297373D01*
X171055Y296666D01*
X170975Y296651D01*
X170125D01*
X170045Y296666D01*
X169572Y297373D01*
X168851Y297855D01*
X168000Y298024D01*
X167149Y297855D01*
X166428Y297373D01*
X165955Y296666D01*
X165875Y296651D01*
X165025D01*
X164945Y296666D01*
X164472Y297373D01*
X163751Y297855D01*
X162900Y298024D01*
X162049Y297855D01*
X161328Y297373D01*
X160845Y296651D01*
X160676Y295800D01*
X160845Y294949D01*
X160978Y294751D01*
Y282149D01*
X160845Y281951D01*
X160676Y281100D01*
X160845Y280249D01*
X161328Y279527D01*
X162049Y279045D01*
X162900Y278876D01*
X163751Y279045D01*
X164472Y279527D01*
X164868Y280119D01*
X165400Y280190D01*
X165932Y280119D01*
X166328Y279527D01*
X167049Y279045D01*
X167900Y278876D01*
X168751Y279045D01*
X169473Y279527D01*
X169868Y280119D01*
X170400Y280190D01*
X170932Y280119D01*
X171327Y279527D01*
X172049Y279045D01*
X172900Y278876D01*
X173751Y279045D01*
X174472Y279527D01*
X174954Y280249D01*
X175124Y281100D01*
X174954Y281951D01*
X174722Y282298D01*
Y294302D01*
X175154Y294949D01*
X175324Y295800D01*
X175154Y296651D01*
X174672Y297373D01*
X173951Y297855D01*
X173100Y298024D01*
D02*
G37*
G36*
X383798Y298323D02*
Y294902D01*
X387219D01*
X387149Y295433D01*
X386751Y296395D01*
X386118Y297221D01*
X385292Y297854D01*
X384330Y298253D01*
X383798Y298323D01*
D02*
G37*
G36*
X382798Y298323D02*
X382266Y298253D01*
X381305Y297854D01*
X380479Y297221D01*
X379846Y296395D01*
X379447Y295433D01*
X379377Y294902D01*
X382798D01*
Y298323D01*
D02*
G37*
G36*
X270400Y310524D02*
X269549Y310355D01*
X268828Y309873D01*
X268345Y309151D01*
X268176Y308300D01*
X268345Y307449D01*
X268828Y306728D01*
X269549Y306245D01*
X270400Y306076D01*
X270451Y306086D01*
X275019Y301519D01*
X275515Y301187D01*
X276100Y301071D01*
X312266D01*
X320019Y293319D01*
X320515Y292987D01*
X321100Y292871D01*
X340866D01*
X341955Y291782D01*
X341818Y291271D01*
X341516Y290829D01*
X329301D01*
X329273Y290873D01*
X328551Y291355D01*
X327700Y291524D01*
X326849Y291355D01*
X326128Y290873D01*
X325645Y290151D01*
X325476Y289300D01*
X325645Y288449D01*
X326128Y287727D01*
X326849Y287245D01*
X327700Y287076D01*
X328551Y287245D01*
X329273Y287727D01*
X329301Y287771D01*
X341067D01*
X342171Y286666D01*
Y284814D01*
X341186Y284331D01*
X340851Y284555D01*
X340000Y284724D01*
X339149Y284555D01*
X338427Y284072D01*
X337473Y284273D01*
X336751Y284755D01*
X335900Y284924D01*
X335049Y284755D01*
X334328Y284273D01*
X333845Y283551D01*
X333676Y282700D01*
X333845Y281849D01*
X334328Y281128D01*
X334371Y281099D01*
Y266989D01*
X334345Y266951D01*
X334176Y266100D01*
X334345Y265249D01*
X334827Y264528D01*
X335549Y264045D01*
X336400Y263876D01*
X337251Y264045D01*
X337972Y264528D01*
X338455Y265249D01*
X338624Y266100D01*
X338455Y266951D01*
X338342Y267119D01*
X338629Y267586D01*
X338993Y267917D01*
X339700Y267776D01*
X340551Y267945D01*
X341272Y268427D01*
X341928D01*
X342649Y267945D01*
X343500Y267776D01*
X344351Y267945D01*
X344776Y268230D01*
X345450Y268356D01*
X346124Y268230D01*
X346549Y267945D01*
X347400Y267776D01*
X348251Y267945D01*
X348676Y268230D01*
X349350Y268356D01*
X350024Y268230D01*
X350449Y267945D01*
X351300Y267776D01*
X352151Y267945D01*
X352872Y268427D01*
X353927D01*
X354649Y267945D01*
X355500Y267776D01*
X356351Y267945D01*
X357072Y268427D01*
X357555Y269149D01*
X357724Y270000D01*
X357555Y270851D01*
X357072Y271572D01*
X356351Y272055D01*
X355500Y272224D01*
X355449Y272214D01*
X354679Y272984D01*
Y300564D01*
X354722Y300593D01*
X355204Y301314D01*
X355373Y302165D01*
X355204Y303016D01*
X354722Y303738D01*
X354001Y304220D01*
X353150Y304389D01*
X352299Y304220D01*
X352291Y304215D01*
X352059Y304169D01*
X351563Y303837D01*
X351231Y303341D01*
X351197Y303169D01*
X351095Y303016D01*
X350926Y302165D01*
X351095Y301314D01*
X351577Y300593D01*
X351620Y300564D01*
Y299290D01*
X350636Y298992D01*
X350490Y299210D01*
X349768Y299692D01*
X348917Y299862D01*
X348066Y299692D01*
X347345Y299210D01*
X346863Y298489D01*
X346693Y297638D01*
X346863Y296787D01*
X347345Y296065D01*
X348066Y295583D01*
X348766Y295444D01*
Y290689D01*
X347782Y290281D01*
X342581Y295481D01*
X342085Y295813D01*
X341500Y295929D01*
X341150D01*
X340852Y296914D01*
X340873Y296927D01*
X341355Y297649D01*
X341524Y298500D01*
X341355Y299351D01*
X340873Y300073D01*
X340151Y300555D01*
X339300Y300724D01*
X338449Y300555D01*
X337727Y300073D01*
X337565Y299829D01*
X330801D01*
X330772Y299872D01*
X330051Y300355D01*
X329200Y300524D01*
X328349Y300355D01*
X327627Y299872D01*
X327145Y299151D01*
X326976Y298300D01*
X327145Y297449D01*
X327503Y296914D01*
X327286Y296241D01*
X327067Y295929D01*
X321733D01*
X313981Y303681D01*
X313485Y304013D01*
X312900Y304129D01*
X276733D01*
X272614Y308249D01*
X272624Y308300D01*
X272455Y309151D01*
X271972Y309873D01*
X271251Y310355D01*
X270400Y310524D01*
D02*
G37*
G36*
X387219Y293902D02*
X383798D01*
Y290480D01*
X384330Y290551D01*
X385292Y290949D01*
X386118Y291582D01*
X386751Y292408D01*
X387149Y293370D01*
X387219Y293902D01*
D02*
G37*
G36*
X382798D02*
X379377D01*
X379447Y293370D01*
X379846Y292408D01*
X380479Y291582D01*
X381305Y290949D01*
X382266Y290551D01*
X382798Y290480D01*
Y293902D01*
D02*
G37*
G36*
X373298Y298388D02*
X372267Y298253D01*
X371305Y297854D01*
X370479Y297221D01*
X369846Y296395D01*
X369447Y295433D01*
X369311Y294402D01*
X369447Y293370D01*
X369846Y292408D01*
X370479Y291582D01*
X371305Y290949D01*
X372267Y290551D01*
X373298Y290415D01*
X374330Y290551D01*
X375292Y290949D01*
X376117Y291582D01*
X376751Y292408D01*
X377149Y293370D01*
X377285Y294402D01*
X377149Y295433D01*
X376751Y296395D01*
X376117Y297221D01*
X375292Y297854D01*
X374330Y298253D01*
X373298Y298388D01*
D02*
G37*
G36*
X127551Y288475D02*
Y286851D01*
X129175D01*
X129105Y287202D01*
X128623Y287923D01*
X127902Y288405D01*
X127551Y288475D01*
D02*
G37*
G36*
X126551D02*
X126200Y288405D01*
X125478Y287923D01*
X124996Y287202D01*
X124926Y286851D01*
X126551D01*
Y288475D01*
D02*
G37*
G36*
X129175Y285851D02*
X127551D01*
Y284226D01*
X127902Y284296D01*
X128623Y284778D01*
X129105Y285500D01*
X129175Y285851D01*
D02*
G37*
G36*
X126551D02*
X124926D01*
X124996Y285500D01*
X125478Y284778D01*
X126200Y284296D01*
X126551Y284226D01*
Y285851D01*
D02*
G37*
G36*
X230950Y309674D02*
X230099Y309505D01*
X229378Y309022D01*
X228895Y308301D01*
X228726Y307450D01*
X228895Y306599D01*
X229378Y305877D01*
X229421Y305849D01*
Y300750D01*
X229537Y300165D01*
X229869Y299669D01*
X231719Y297819D01*
X231719Y297818D01*
X233958Y295580D01*
X233907Y295106D01*
X233735Y294485D01*
X233724Y294471D01*
X233127Y294073D01*
X232645Y293351D01*
X232476Y292500D01*
X232645Y291649D01*
X233127Y290928D01*
X233006Y289825D01*
X232927Y289773D01*
X232445Y289051D01*
X232276Y288200D01*
X232445Y287349D01*
X232927Y286628D01*
X233649Y286145D01*
X234500Y285976D01*
X234671Y285015D01*
Y271301D01*
X234628Y271272D01*
X234155Y270566D01*
X234074Y270551D01*
X233225D01*
X233145Y270566D01*
X232673Y271272D01*
X232629Y271301D01*
Y282800D01*
X232513Y283385D01*
X232181Y283881D01*
X228629Y287434D01*
Y290899D01*
X228673Y290928D01*
X229155Y291649D01*
X229324Y292500D01*
X229155Y293351D01*
X228673Y294073D01*
X227951Y294555D01*
X227100Y294724D01*
X226249Y294555D01*
X225528Y294073D01*
X225045Y293351D01*
X224876Y292500D01*
X225045Y291649D01*
X225528Y290928D01*
X225571Y290899D01*
Y286800D01*
X225687Y286215D01*
X226019Y285719D01*
X229571Y282167D01*
Y272221D01*
X228586Y271813D01*
X228229Y272171D01*
Y279500D01*
X228113Y280085D01*
X227781Y280581D01*
X216798Y291565D01*
X216855Y291649D01*
X217024Y292500D01*
X216855Y293351D01*
X216372Y294073D01*
X215651Y294555D01*
X214800Y294724D01*
X213949Y294555D01*
X213228Y294073D01*
X212745Y293351D01*
X212576Y292500D01*
X212745Y291649D01*
X213228Y290928D01*
X213386Y290822D01*
X213387Y290815D01*
X213719Y290319D01*
X225171Y278867D01*
Y271301D01*
X225128Y271272D01*
X224645Y270551D01*
X224476Y269700D01*
X224645Y268849D01*
X225128Y268127D01*
X225849Y267645D01*
X226700Y267476D01*
X227551Y267645D01*
X228273Y268127D01*
X228308Y268181D01*
X229492D01*
X229527Y268127D01*
X230249Y267645D01*
X231100Y267476D01*
X231951Y267645D01*
X232673Y268127D01*
X233145Y268834D01*
X233225Y268849D01*
X234074D01*
X234155Y268834D01*
X234628Y268127D01*
X235349Y267645D01*
X236200Y267476D01*
X237051Y267645D01*
X237772Y268127D01*
X238928D01*
X239649Y267645D01*
X240500Y267476D01*
X241351Y267645D01*
X242073Y268127D01*
X242555Y268849D01*
X242724Y269700D01*
X242555Y270551D01*
X242073Y271272D01*
X241729Y271502D01*
Y277899D01*
X241773Y277927D01*
X242255Y278649D01*
X242424Y279500D01*
X242255Y280351D01*
X241773Y281072D01*
X241051Y281555D01*
X240200Y281724D01*
X239349Y281555D01*
X238714Y281130D01*
X238298Y281229D01*
X237729Y281500D01*
Y286500D01*
X237613Y287085D01*
X237281Y287581D01*
X236714Y288149D01*
X236724Y288200D01*
X236555Y289051D01*
X236072Y289773D01*
X236194Y290875D01*
X236273Y290928D01*
X236301Y290971D01*
X241166D01*
X242572Y289565D01*
X242561Y289423D01*
X242184Y288561D01*
X241649Y288455D01*
X240928Y287972D01*
X240445Y287251D01*
X240276Y286400D01*
X240445Y285549D01*
X240928Y284827D01*
X241649Y284345D01*
X242500Y284176D01*
X242551Y284186D01*
X245819Y280919D01*
X246315Y280587D01*
X246900Y280471D01*
X271066D01*
X273071Y278467D01*
Y263701D01*
X273027Y263672D01*
X272545Y262951D01*
X272376Y262100D01*
X272545Y261249D01*
X273027Y260527D01*
X273749Y260045D01*
X274600Y259876D01*
X275451Y260045D01*
X276172Y260527D01*
X276542Y261080D01*
X277246Y261218D01*
X277648Y261197D01*
X277828Y260928D01*
X278549Y260445D01*
X279400Y260276D01*
X280251Y260445D01*
X280973Y260928D01*
X281455Y261649D01*
X281624Y262500D01*
X281455Y263351D01*
X280973Y264072D01*
X280929Y264101D01*
Y281200D01*
X280851Y281594D01*
X281421Y282064D01*
X281663Y282174D01*
X284771Y279066D01*
Y243094D01*
X284400Y242224D01*
X283549Y242055D01*
X282827Y241572D01*
X282345Y240851D01*
X282176Y240000D01*
X282345Y239149D01*
X282827Y238427D01*
X283549Y237945D01*
X284400Y237776D01*
X285251Y237945D01*
X285972Y238427D01*
X286455Y239149D01*
X286624Y240000D01*
X286614Y240051D01*
X287286Y240723D01*
X287682Y240669D01*
X288271Y240378D01*
Y236768D01*
X288127Y236672D01*
X287645Y235951D01*
X287476Y235100D01*
X287645Y234249D01*
X288127Y233527D01*
X288437Y233321D01*
X288471Y233294D01*
X288257Y232257D01*
X288100Y232224D01*
X288018Y232207D01*
X287590Y232122D01*
X260498D01*
X260151Y232355D01*
X259300Y232524D01*
X258449Y232355D01*
X257728Y231873D01*
X257245Y231151D01*
X257076Y230300D01*
X257245Y229449D01*
X257728Y228728D01*
X258319Y228332D01*
X258390Y227800D01*
X258319Y227268D01*
X257728Y226872D01*
X257245Y226151D01*
X257076Y225300D01*
X257245Y224449D01*
X257728Y223727D01*
X258319Y223332D01*
X258390Y222800D01*
X258319Y222268D01*
X257728Y221872D01*
X257245Y221151D01*
X257076Y220300D01*
X257245Y219449D01*
X257728Y218727D01*
X258449Y218245D01*
X259300Y218076D01*
X260151Y218245D01*
X260498Y218478D01*
X286494D01*
X286527Y218427D01*
X287249Y217945D01*
X288100Y217776D01*
X288951Y217945D01*
X289672Y218427D01*
X290155Y219149D01*
X290324Y220000D01*
X290155Y220851D01*
X289672Y221572D01*
X289081Y221968D01*
X289010Y222500D01*
X289081Y223032D01*
X289672Y223428D01*
X290155Y224149D01*
X290324Y225000D01*
X290155Y225851D01*
X289672Y226572D01*
X289081Y226968D01*
X289010Y227500D01*
X289081Y228032D01*
X289672Y228428D01*
X290155Y229149D01*
X290324Y230000D01*
X290155Y230851D01*
X289672Y231573D01*
X289363Y231779D01*
X289329Y231806D01*
X289543Y232843D01*
X289700Y232876D01*
X289782Y232892D01*
X290551Y233045D01*
X291272Y233527D01*
X291755Y234249D01*
X291924Y235100D01*
X291755Y235951D01*
X291329Y236587D01*
Y268076D01*
X292225Y268630D01*
X292314Y268633D01*
X293100Y268476D01*
X293951Y268645D01*
X294672Y269127D01*
X295727Y269027D01*
X296449Y268545D01*
X297300Y268376D01*
X298151Y268545D01*
X298872Y269027D01*
X300027D01*
X300749Y268545D01*
X301600Y268376D01*
X302451Y268545D01*
X303172Y269027D01*
X304328D01*
X305049Y268545D01*
X305900Y268376D01*
X306751Y268545D01*
X307472Y269027D01*
X307955Y269749D01*
X308124Y270600D01*
X307955Y271451D01*
X307472Y272172D01*
X307329Y272268D01*
Y286099D01*
X307372Y286127D01*
X307855Y286849D01*
X308024Y287700D01*
X307855Y288551D01*
X307372Y289272D01*
X306651Y289755D01*
X305800Y289924D01*
X304949Y289755D01*
X304227Y289272D01*
X303455Y289849D01*
X303624Y290700D01*
X303455Y291551D01*
X302973Y292272D01*
X302251Y292755D01*
X301400Y292924D01*
X300549Y292755D01*
X299828Y292272D01*
X299345Y291551D01*
X299176Y290700D01*
X299256Y290299D01*
X298349Y289814D01*
X291181Y296981D01*
X290685Y297313D01*
X290100Y297429D01*
X268701D01*
X268672Y297473D01*
X267951Y297955D01*
X267100Y298124D01*
X266249Y297955D01*
X265528Y297473D01*
X265045Y296751D01*
X264876Y295900D01*
X265033Y295114D01*
X265030Y295024D01*
X264476Y294129D01*
X252433D01*
X245281Y301281D01*
X244381Y302181D01*
X243885Y302513D01*
X243300Y302629D01*
X240301D01*
X240272Y302673D01*
X239551Y303155D01*
X238700Y303324D01*
X237849Y303155D01*
X237127Y302673D01*
X236645Y301951D01*
X236476Y301100D01*
X236645Y300249D01*
X237127Y299528D01*
X237849Y299045D01*
X238700Y298876D01*
X239551Y299045D01*
X240272Y299528D01*
X240301Y299571D01*
X242667D01*
X243480Y298757D01*
X243179Y298024D01*
X243016Y297829D01*
X236034D01*
X233881Y299981D01*
X233881Y299981D01*
X232479Y301383D01*
Y305849D01*
X232523Y305877D01*
X233005Y306599D01*
X233174Y307450D01*
X233005Y308301D01*
X232523Y309022D01*
X231801Y309505D01*
X230950Y309674D01*
D02*
G37*
G36*
X207100Y294724D02*
X206249Y294555D01*
X205527Y294073D01*
X205045Y293351D01*
X204876Y292500D01*
X205045Y291649D01*
X205527Y290928D01*
X206249Y290445D01*
X207100Y290276D01*
X207151Y290286D01*
X210917Y286520D01*
X211119Y286219D01*
X219271Y278066D01*
Y271301D01*
X219228Y271272D01*
X218745Y270551D01*
X218576Y269700D01*
X218745Y268849D01*
X219228Y268127D01*
X219949Y267645D01*
X220800Y267476D01*
X221651Y267645D01*
X222373Y268127D01*
X222855Y268849D01*
X223024Y269700D01*
X222855Y270551D01*
X222373Y271272D01*
X222329Y271301D01*
Y278700D01*
X222213Y279285D01*
X221881Y279781D01*
X213583Y288080D01*
X213381Y288381D01*
X209314Y292449D01*
X209324Y292500D01*
X209155Y293351D01*
X208672Y294073D01*
X207951Y294555D01*
X207100Y294724D01*
D02*
G37*
G36*
X211500Y281324D02*
X210649Y281155D01*
X209928Y280673D01*
X209445Y279951D01*
X209276Y279100D01*
X209445Y278249D01*
X209928Y277527D01*
X209971Y277499D01*
Y271368D01*
X209827Y271272D01*
X209345Y270551D01*
X209176Y269700D01*
X209345Y268849D01*
X209827Y268127D01*
X210549Y267645D01*
X211400Y267476D01*
X212251Y267645D01*
X212972Y268127D01*
X213455Y268849D01*
X213624Y269700D01*
X213455Y270551D01*
X213029Y271187D01*
Y277499D01*
X213072Y277527D01*
X213555Y278249D01*
X213724Y279100D01*
X213555Y279951D01*
X213072Y280673D01*
X212351Y281155D01*
X211500Y281324D01*
D02*
G37*
G36*
X323149Y267374D02*
Y265749D01*
X324774D01*
X324704Y266100D01*
X324222Y266822D01*
X323500Y267304D01*
X323149Y267374D01*
D02*
G37*
G36*
X322149D02*
X321798Y267304D01*
X321077Y266822D01*
X320595Y266100D01*
X320525Y265749D01*
X322149D01*
Y267374D01*
D02*
G37*
G36*
X172900Y266324D02*
X172049Y266155D01*
X171327Y265672D01*
X170932Y265081D01*
X170400Y265010D01*
X169868Y265081D01*
X169473Y265672D01*
X168751Y266155D01*
X167900Y266324D01*
X167049Y266155D01*
X166328Y265672D01*
X165932Y265081D01*
X165400Y265010D01*
X164868Y265081D01*
X164472Y265672D01*
X163751Y266155D01*
X162900Y266324D01*
X162049Y266155D01*
X161328Y265672D01*
X160845Y264951D01*
X160676Y264100D01*
X160845Y263249D01*
X161078Y262902D01*
Y218398D01*
X160845Y218051D01*
X160676Y217200D01*
X160845Y216349D01*
X161328Y215628D01*
X162049Y215145D01*
X162900Y214976D01*
X163751Y215145D01*
X164472Y215628D01*
X164868Y216219D01*
X165400Y216290D01*
X165932Y216219D01*
X166328Y215628D01*
X167049Y215145D01*
X167900Y214976D01*
X168751Y215145D01*
X169473Y215628D01*
X169868Y216219D01*
X170400Y216290D01*
X170932Y216219D01*
X171327Y215628D01*
X172049Y215145D01*
X172900Y214976D01*
X173751Y215145D01*
X174472Y215628D01*
X174954Y216349D01*
X175124Y217200D01*
X174954Y218051D01*
X174722Y218398D01*
Y222272D01*
X175475Y222580D01*
X175707Y222598D01*
X205226Y193078D01*
X205527Y192628D01*
X206249Y192146D01*
X207100Y191976D01*
X207184Y191993D01*
X207300Y191970D01*
X208192Y192147D01*
X208948Y192652D01*
X209453Y193408D01*
X209630Y194300D01*
X209453Y195192D01*
X208948Y195948D01*
X179630Y225265D01*
Y229900D01*
X179453Y230792D01*
X179415Y230849D01*
X179355Y231151D01*
X178873Y231873D01*
X178151Y232355D01*
X177300Y232524D01*
X176449Y232355D01*
X175727Y231873D01*
X175707Y231841D01*
X174722Y232140D01*
Y237050D01*
X175707Y237147D01*
X175846Y236449D01*
X176328Y235728D01*
X177049Y235245D01*
X177400Y235176D01*
Y237300D01*
Y239424D01*
X177049Y239355D01*
X176328Y238873D01*
X175846Y238151D01*
X175707Y237453D01*
X174722Y237550D01*
Y262902D01*
X174954Y263249D01*
X175124Y264100D01*
X174954Y264951D01*
X174472Y265672D01*
X173751Y266155D01*
X172900Y266324D01*
D02*
G37*
G36*
X260149Y266174D02*
Y264549D01*
X261774D01*
X261704Y264900D01*
X261222Y265622D01*
X260500Y266104D01*
X260149Y266174D01*
D02*
G37*
G36*
X259149D02*
X258798Y266104D01*
X258077Y265622D01*
X257595Y264900D01*
X257525Y264549D01*
X259149D01*
Y266174D01*
D02*
G37*
G36*
X384849Y265874D02*
Y264249D01*
X386474D01*
X386404Y264600D01*
X385922Y265322D01*
X385200Y265804D01*
X384849Y265874D01*
D02*
G37*
G36*
X383849D02*
X383498Y265804D01*
X382777Y265322D01*
X382295Y264600D01*
X382225Y264249D01*
X383849D01*
Y265874D01*
D02*
G37*
G36*
X324774Y264749D02*
X323149D01*
Y263125D01*
X323500Y263195D01*
X324222Y263677D01*
X324704Y264398D01*
X324774Y264749D01*
D02*
G37*
G36*
X322149D02*
X320525D01*
X320595Y264398D01*
X321077Y263677D01*
X321798Y263195D01*
X322149Y263125D01*
Y264749D01*
D02*
G37*
G36*
X261774Y263549D02*
X260149D01*
Y261925D01*
X260500Y261995D01*
X261222Y262477D01*
X261704Y263198D01*
X261774Y263549D01*
D02*
G37*
G36*
X259149D02*
X257525D01*
X257595Y263198D01*
X258077Y262477D01*
X258798Y261995D01*
X259149Y261925D01*
Y263549D01*
D02*
G37*
G36*
X386474Y263249D02*
X384849D01*
Y261625D01*
X385200Y261695D01*
X385922Y262177D01*
X386404Y262898D01*
X386474Y263249D01*
D02*
G37*
G36*
X383849D02*
X382225D01*
X382295Y262898D01*
X382777Y262177D01*
X383498Y261695D01*
X383849Y261625D01*
Y263249D01*
D02*
G37*
G36*
X353200Y315824D02*
X352349Y315655D01*
X351627Y315173D01*
X351145Y314451D01*
X350976Y313600D01*
X351145Y312749D01*
X351627Y312028D01*
X352349Y311545D01*
X353200Y311376D01*
X353251Y311386D01*
X359971Y304666D01*
Y271601D01*
X359928Y271572D01*
X359445Y270851D01*
X359276Y270000D01*
X359445Y269149D01*
X359928Y268427D01*
X360649Y267945D01*
X361500Y267776D01*
X362351Y267945D01*
X363072Y268427D01*
X363555Y269149D01*
X363724Y270000D01*
X363555Y270851D01*
X363072Y271572D01*
X363029Y271601D01*
Y282815D01*
X364014Y282912D01*
X364145Y282249D01*
X364628Y281527D01*
X365349Y281045D01*
X366200Y280876D01*
X367051Y281045D01*
X367773Y281527D01*
X367801Y281571D01*
X376567D01*
X388971Y269166D01*
Y264501D01*
X388928Y264473D01*
X388445Y263751D01*
X388276Y262900D01*
X388445Y262049D01*
X388928Y261328D01*
X389649Y260845D01*
X390500Y260676D01*
X391351Y260845D01*
X392073Y261328D01*
X392555Y262049D01*
X392724Y262900D01*
X392555Y263751D01*
X392073Y264473D01*
X392029Y264501D01*
Y269800D01*
X391913Y270385D01*
X391581Y270881D01*
X378281Y284181D01*
X377785Y284513D01*
X377200Y284629D01*
X367801D01*
X367773Y284672D01*
X367051Y285155D01*
X366200Y285324D01*
X365349Y285155D01*
X364628Y284672D01*
X364145Y283951D01*
X364014Y283288D01*
X363029Y283385D01*
Y305300D01*
X362913Y305885D01*
X362581Y306381D01*
X355414Y313549D01*
X355424Y313600D01*
X355255Y314451D01*
X354772Y315173D01*
X354051Y315655D01*
X353200Y315824D01*
D02*
G37*
G36*
X101800Y247424D02*
X100949Y247255D01*
X100227Y246773D01*
X99865Y246229D01*
X93301D01*
X93273Y246272D01*
X92551Y246755D01*
X91700Y246924D01*
X90849Y246755D01*
X90127Y246272D01*
X89645Y245551D01*
X89476Y244700D01*
X89645Y243849D01*
X90127Y243127D01*
X90256Y243042D01*
Y241858D01*
X90127Y241773D01*
X89645Y241051D01*
X89476Y240200D01*
X89645Y239349D01*
X90127Y238628D01*
Y237473D01*
X89645Y236751D01*
X89476Y235900D01*
X89645Y235049D01*
X90127Y234328D01*
X90849Y233845D01*
X91700Y233676D01*
X92551Y233845D01*
X93273Y234328D01*
X93301Y234371D01*
X100132D01*
X100227Y234227D01*
X100949Y233745D01*
X101800Y233576D01*
X102651Y233745D01*
X103373Y234227D01*
X103855Y234949D01*
X104024Y235800D01*
X103855Y236651D01*
X103373Y237372D01*
X103039Y237595D01*
Y238705D01*
X103373Y238928D01*
X103855Y239649D01*
X104024Y240500D01*
X103855Y241351D01*
X103373Y242073D01*
X103039Y242295D01*
Y243405D01*
X103373Y243628D01*
X103855Y244349D01*
X104024Y245200D01*
X103855Y246051D01*
X103373Y246773D01*
X102651Y247255D01*
X101800Y247424D01*
D02*
G37*
G36*
X178400Y239424D02*
Y237800D01*
X180024D01*
X179955Y238151D01*
X179472Y238873D01*
X178751Y239355D01*
X178400Y239424D01*
D02*
G37*
G36*
X180024Y236800D02*
X178400D01*
Y235176D01*
X178751Y235245D01*
X179472Y235728D01*
X179955Y236449D01*
X180024Y236800D01*
D02*
G37*
G36*
X349000Y232224D02*
X348149Y232055D01*
X348126Y232039D01*
X321174D01*
X321151Y232055D01*
X320300Y232224D01*
X319449Y232055D01*
X318727Y231573D01*
X318245Y230851D01*
X318076Y230000D01*
X318245Y229149D01*
X318727Y228428D01*
X319319Y228032D01*
X319390Y227500D01*
X319319Y226968D01*
X318727Y226572D01*
X318245Y225851D01*
X318076Y225000D01*
X318245Y224149D01*
X318727Y223428D01*
X319319Y223032D01*
X319390Y222500D01*
X319319Y221968D01*
X318727Y221572D01*
X318245Y220851D01*
X318076Y220000D01*
X318245Y219149D01*
X318727Y218427D01*
X319449Y217945D01*
X320300Y217776D01*
X321151Y217945D01*
X321174Y217961D01*
X334682D01*
X334842Y217766D01*
X334827Y216572D01*
X334345Y215851D01*
X334276Y215500D01*
X338524D01*
X338455Y215851D01*
X337972Y216572D01*
X337958Y217766D01*
X338118Y217961D01*
X348126D01*
X348149Y217945D01*
X349000Y217776D01*
X349851Y217945D01*
X350572Y218427D01*
X351055Y219149D01*
X351224Y220000D01*
X351055Y220851D01*
X350572Y221572D01*
X349981Y221968D01*
X349910Y222500D01*
X349981Y223032D01*
X350572Y223428D01*
X351055Y224149D01*
X351224Y225000D01*
X351055Y225851D01*
X350572Y226572D01*
X349981Y226968D01*
X349910Y227500D01*
X349981Y228032D01*
X350572Y228428D01*
X351055Y229149D01*
X351224Y230000D01*
X351055Y230851D01*
X350572Y231573D01*
X349851Y232055D01*
X349000Y232224D01*
D02*
G37*
G36*
X81400Y237093D02*
X80574Y236984D01*
X79804Y236665D01*
X79142Y236157D01*
X78635Y235496D01*
X78316Y234726D01*
X78207Y233900D01*
X78316Y233074D01*
X78635Y232304D01*
X79142Y231643D01*
X79804Y231135D01*
X80574Y230816D01*
X81400Y230707D01*
X82226Y230816D01*
X82996Y231135D01*
X83658Y231643D01*
X84165Y232304D01*
X84484Y233074D01*
X84593Y233900D01*
X84484Y234726D01*
X84165Y235496D01*
X83658Y236157D01*
X82996Y236665D01*
X82226Y236984D01*
X81400Y237093D01*
D02*
G37*
G36*
X73600D02*
X72774Y236984D01*
X72004Y236665D01*
X71342Y236157D01*
X70835Y235496D01*
X70516Y234726D01*
X70407Y233900D01*
X70516Y233074D01*
X70835Y232304D01*
X71342Y231643D01*
X72004Y231135D01*
X72774Y230816D01*
X73600Y230707D01*
X74426Y230816D01*
X75196Y231135D01*
X75858Y231643D01*
X76365Y232304D01*
X76684Y233074D01*
X76793Y233900D01*
X76684Y234726D01*
X76365Y235496D01*
X75858Y236157D01*
X75196Y236665D01*
X74426Y236984D01*
X73600Y237093D01*
D02*
G37*
G36*
X100700Y227824D02*
X99849Y227655D01*
X99128Y227172D01*
X98646Y226451D01*
X98476Y225600D01*
X98486Y225549D01*
X95619Y222681D01*
X95619Y222681D01*
X95219Y222281D01*
X94887Y221785D01*
X94771Y221200D01*
Y215601D01*
X94727Y215573D01*
X94245Y214851D01*
X94076Y214000D01*
X94245Y213149D01*
X94727Y212427D01*
X95449Y211945D01*
X96300Y211776D01*
X97151Y211945D01*
X97873Y212427D01*
X98355Y213149D01*
X98524Y214000D01*
X98355Y214851D01*
X97873Y215573D01*
X97829Y215601D01*
Y220567D01*
X100649Y223386D01*
X100700Y223376D01*
X101551Y223545D01*
X102272Y224027D01*
X102754Y224749D01*
X102924Y225600D01*
X102754Y226451D01*
X102272Y227172D01*
X101551Y227655D01*
X100700Y227824D01*
D02*
G37*
G36*
X81400Y229193D02*
X80574Y229084D01*
X79804Y228765D01*
X79142Y228257D01*
X78635Y227596D01*
X78316Y226826D01*
X78207Y226000D01*
X78316Y225174D01*
X78635Y224404D01*
X79142Y223743D01*
X79804Y223235D01*
X80574Y222916D01*
X81400Y222807D01*
X82226Y222916D01*
X82996Y223235D01*
X83658Y223743D01*
X84165Y224404D01*
X84484Y225174D01*
X84593Y226000D01*
X84484Y226826D01*
X84165Y227596D01*
X83658Y228257D01*
X82996Y228765D01*
X82226Y229084D01*
X81400Y229193D01*
D02*
G37*
G36*
X73600D02*
X72774Y229084D01*
X72004Y228765D01*
X71342Y228257D01*
X70835Y227596D01*
X70516Y226826D01*
X70407Y226000D01*
X70516Y225174D01*
X70835Y224404D01*
X71342Y223743D01*
X72004Y223235D01*
X72774Y222916D01*
X73600Y222807D01*
X74426Y222916D01*
X75196Y223235D01*
X75858Y223743D01*
X76365Y224404D01*
X76684Y225174D01*
X76793Y226000D01*
X76684Y226826D01*
X76365Y227596D01*
X75858Y228257D01*
X75196Y228765D01*
X74426Y229084D01*
X73600Y229193D01*
D02*
G37*
G36*
X127651Y223375D02*
Y221751D01*
X129275D01*
X129205Y222102D01*
X128723Y222823D01*
X128002Y223305D01*
X127651Y223375D01*
D02*
G37*
G36*
X126651D02*
X126300Y223305D01*
X125578Y222823D01*
X125096Y222102D01*
X125026Y221751D01*
X126651D01*
Y223375D01*
D02*
G37*
G36*
X129275Y220751D02*
X127651D01*
Y219126D01*
X128002Y219196D01*
X128723Y219678D01*
X129205Y220400D01*
X129275Y220751D01*
D02*
G37*
G36*
X126651D02*
X125026D01*
X125096Y220400D01*
X125578Y219678D01*
X126300Y219196D01*
X126651Y219126D01*
Y220751D01*
D02*
G37*
G36*
X159300Y309124D02*
X158449Y308955D01*
X157728Y308472D01*
X157246Y307751D01*
X157076Y306900D01*
X157246Y306049D01*
X157728Y305328D01*
X158449Y304845D01*
X159300Y304676D01*
X160151Y304845D01*
X160498Y305078D01*
X171500D01*
X171619Y304913D01*
X171528Y303673D01*
X171045Y302951D01*
X170876Y302100D01*
X171045Y301249D01*
X171528Y300528D01*
X172249Y300045D01*
X173100Y299876D01*
X173951Y300045D01*
X174298Y300278D01*
X178839D01*
Y297972D01*
X178249Y297855D01*
X177527Y297373D01*
X177046Y296651D01*
X176876Y295800D01*
X177046Y294949D01*
X177278Y294602D01*
Y269200D01*
X177278Y269200D01*
X177416Y268503D01*
X177811Y267911D01*
X226164Y219559D01*
X226245Y219149D01*
X226728Y218427D01*
X227449Y217945D01*
X228300Y217776D01*
X229151Y217945D01*
X229872Y218427D01*
X230355Y219149D01*
X230524Y220000D01*
X230355Y220851D01*
X229872Y221572D01*
X229281Y221968D01*
X229210Y222500D01*
X229281Y223032D01*
X229872Y223428D01*
X230355Y224149D01*
X230524Y225000D01*
X230355Y225851D01*
X229872Y226572D01*
X229281Y226968D01*
X229210Y227500D01*
X229281Y228032D01*
X229872Y228428D01*
X230355Y229149D01*
X230524Y230000D01*
X230355Y230851D01*
X229872Y231573D01*
X229151Y232055D01*
X228741Y232136D01*
X191922Y268955D01*
Y296000D01*
X191922Y296000D01*
X191784Y296697D01*
X191389Y297289D01*
X191389Y297289D01*
X180489Y308189D01*
X179897Y308584D01*
X179200Y308722D01*
X179200Y308722D01*
X160498D01*
X160151Y308955D01*
X159300Y309124D01*
D02*
G37*
G36*
X275300Y217124D02*
Y215500D01*
X276924D01*
X276855Y215851D01*
X276373Y216572D01*
X275651Y217055D01*
X275300Y217124D01*
D02*
G37*
G36*
X274300D02*
X273949Y217055D01*
X273228Y216572D01*
X272745Y215851D01*
X272676Y215500D01*
X274300D01*
Y217124D01*
D02*
G37*
G36*
X212200D02*
Y215500D01*
X213824D01*
X213755Y215851D01*
X213273Y216572D01*
X212551Y217055D01*
X212200Y217124D01*
D02*
G37*
G36*
X211200D02*
X210849Y217055D01*
X210127Y216572D01*
X209645Y215851D01*
X209576Y215500D01*
X211200D01*
Y217124D01*
D02*
G37*
G36*
X81400Y221293D02*
X80574Y221184D01*
X79804Y220865D01*
X79142Y220357D01*
X78635Y219696D01*
X78316Y218926D01*
X78207Y218100D01*
X78316Y217274D01*
X78635Y216504D01*
X79142Y215843D01*
X79804Y215335D01*
X80574Y215016D01*
X81400Y214907D01*
X82226Y215016D01*
X82996Y215335D01*
X83658Y215843D01*
X84165Y216504D01*
X84484Y217274D01*
X84593Y218100D01*
X84484Y218926D01*
X84165Y219696D01*
X83658Y220357D01*
X82996Y220865D01*
X82226Y221184D01*
X81400Y221293D01*
D02*
G37*
G36*
X73600D02*
X72774Y221184D01*
X72004Y220865D01*
X71342Y220357D01*
X70835Y219696D01*
X70516Y218926D01*
X70407Y218100D01*
X70516Y217274D01*
X70835Y216504D01*
X71342Y215843D01*
X72004Y215335D01*
X72774Y215016D01*
X73600Y214907D01*
X74426Y215016D01*
X75196Y215335D01*
X75858Y215843D01*
X76365Y216504D01*
X76684Y217274D01*
X76793Y218100D01*
X76684Y218926D01*
X76365Y219696D01*
X75858Y220357D01*
X75196Y220865D01*
X74426Y221184D01*
X73600Y221293D01*
D02*
G37*
G36*
X338524Y214500D02*
X336900D01*
Y212876D01*
X337251Y212945D01*
X337972Y213427D01*
X338455Y214149D01*
X338524Y214500D01*
D02*
G37*
G36*
X335900D02*
X334276D01*
X334345Y214149D01*
X334827Y213427D01*
X335549Y212945D01*
X335900Y212876D01*
Y214500D01*
D02*
G37*
G36*
X276924D02*
X275300D01*
Y212876D01*
X275651Y212945D01*
X276373Y213427D01*
X276855Y214149D01*
X276924Y214500D01*
D02*
G37*
G36*
X274300D02*
X272676D01*
X272745Y214149D01*
X273228Y213427D01*
X273949Y212945D01*
X274300Y212876D01*
Y214500D01*
D02*
G37*
G36*
X213824D02*
X212200D01*
Y212876D01*
X212551Y212945D01*
X213273Y213427D01*
X213755Y214149D01*
X213824Y214500D01*
D02*
G37*
G36*
X211200D02*
X209576D01*
X209645Y214149D01*
X210127Y213427D01*
X210849Y212945D01*
X211200Y212876D01*
Y214500D01*
D02*
G37*
G36*
X91500Y223524D02*
X90649Y223355D01*
X89928Y222872D01*
X89446Y222151D01*
X89276Y221300D01*
X89286Y221249D01*
X88719Y220681D01*
X88387Y220185D01*
X88271Y219600D01*
Y211601D01*
X88227Y211573D01*
X87745Y210851D01*
X87576Y210000D01*
X87745Y209149D01*
X88227Y208428D01*
X88949Y207945D01*
X89800Y207776D01*
X90651Y207945D01*
X91373Y208428D01*
X91855Y209149D01*
X92024Y210000D01*
X91855Y210851D01*
X91373Y211573D01*
X91329Y211601D01*
Y218115D01*
X91500Y219076D01*
X92351Y219245D01*
X93072Y219727D01*
X93555Y220449D01*
X93724Y221300D01*
X93555Y222151D01*
X93072Y222872D01*
X92351Y223355D01*
X91500Y223524D01*
D02*
G37*
G36*
X81400Y213393D02*
X80574Y213284D01*
X79804Y212965D01*
X79142Y212457D01*
X78635Y211796D01*
X78316Y211026D01*
X78207Y210200D01*
X78316Y209374D01*
X78635Y208604D01*
X79142Y207943D01*
X79804Y207435D01*
X80574Y207116D01*
X81400Y207007D01*
X82226Y207116D01*
X82996Y207435D01*
X83658Y207943D01*
X84165Y208604D01*
X84484Y209374D01*
X84593Y210200D01*
X84484Y211026D01*
X84165Y211796D01*
X83658Y212457D01*
X82996Y212965D01*
X82226Y213284D01*
X81400Y213393D01*
D02*
G37*
G36*
X73600D02*
X72774Y213284D01*
X72004Y212965D01*
X71342Y212457D01*
X70835Y211796D01*
X70516Y211026D01*
X70407Y210200D01*
X70516Y209374D01*
X70835Y208604D01*
X71342Y207943D01*
X72004Y207435D01*
X72774Y207116D01*
X73600Y207007D01*
X74426Y207116D01*
X75196Y207435D01*
X75858Y207943D01*
X76365Y208604D01*
X76684Y209374D01*
X76793Y210200D01*
X76684Y211026D01*
X76365Y211796D01*
X75858Y212457D01*
X75196Y212965D01*
X74426Y213284D01*
X73600Y213393D01*
D02*
G37*
G36*
X369587Y215812D02*
X368620Y215620D01*
X367801Y215073D01*
X367254Y214254D01*
X367062Y213287D01*
X367254Y212321D01*
X367801Y211502D01*
X367900Y211404D01*
X368127Y211252D01*
X368073Y210104D01*
X367703Y209856D01*
X367156Y209037D01*
X366963Y208071D01*
X367156Y207105D01*
X367703Y206286D01*
X368096Y205892D01*
X368916Y205345D01*
X369882Y205152D01*
X381594D01*
X382561Y205345D01*
X383380Y205892D01*
X383927Y206711D01*
X384119Y207677D01*
X383927Y208643D01*
X383380Y209462D01*
X383055Y209680D01*
X383353Y210664D01*
X388583D01*
X389549Y210856D01*
X390368Y211404D01*
X390915Y212223D01*
X391108Y213189D01*
X390915Y214155D01*
X390368Y214974D01*
X389549Y215522D01*
X388583Y215714D01*
X370081D01*
X369587Y215812D01*
D02*
G37*
G36*
X81400Y205493D02*
X80574Y205384D01*
X79804Y205065D01*
X79142Y204557D01*
X78635Y203896D01*
X78316Y203126D01*
X78207Y202300D01*
X78316Y201474D01*
X78635Y200704D01*
X79142Y200043D01*
X79804Y199535D01*
X80574Y199216D01*
X81400Y199107D01*
X82226Y199216D01*
X82996Y199535D01*
X83658Y200043D01*
X84165Y200704D01*
X84484Y201474D01*
X84593Y202300D01*
X84484Y203126D01*
X84165Y203896D01*
X83658Y204557D01*
X82996Y205065D01*
X82226Y205384D01*
X81400Y205493D01*
D02*
G37*
G36*
X73600D02*
X72774Y205384D01*
X72004Y205065D01*
X71342Y204557D01*
X70835Y203896D01*
X70516Y203126D01*
X70407Y202300D01*
X70516Y201474D01*
X70835Y200704D01*
X71342Y200043D01*
X72004Y199535D01*
X72774Y199216D01*
X73600Y199107D01*
X74426Y199216D01*
X75196Y199535D01*
X75858Y200043D01*
X76365Y200704D01*
X76684Y201474D01*
X76793Y202300D01*
X76684Y203126D01*
X76365Y203896D01*
X75858Y204557D01*
X75196Y205065D01*
X74426Y205384D01*
X73600Y205493D01*
D02*
G37*
G36*
X119200Y207324D02*
X118349Y207155D01*
X117628Y206673D01*
X117146Y205951D01*
X116976Y205100D01*
X117146Y204249D01*
X117628Y203527D01*
Y203073D01*
X117146Y202351D01*
X116976Y201500D01*
X117146Y200649D01*
X117628Y199927D01*
Y199372D01*
X117146Y198651D01*
X116976Y197800D01*
X117146Y196949D01*
X117628Y196228D01*
X118349Y195746D01*
X119200Y195576D01*
X120051Y195746D01*
X120773Y196228D01*
X120801Y196271D01*
X156399D01*
X156428Y196228D01*
X157149Y195746D01*
X158000Y195576D01*
X158851Y195746D01*
X159573Y196228D01*
X160055Y196949D01*
X160224Y197800D01*
X160055Y198651D01*
X159573Y199372D01*
X158851Y199855D01*
X158000Y200024D01*
X157149Y199855D01*
X156428Y199372D01*
X156399Y199329D01*
X153688D01*
X153591Y200314D01*
X153751Y200345D01*
X154472Y200828D01*
X154955Y201549D01*
X155124Y202400D01*
X154955Y203251D01*
X154472Y203973D01*
X153751Y204454D01*
X152900Y204624D01*
X152049Y204454D01*
X151328Y203973D01*
X151182Y203754D01*
X150148Y203979D01*
X150055Y204451D01*
X149573Y205172D01*
X148851Y205655D01*
X148000Y205824D01*
X147149Y205655D01*
X146428Y205172D01*
X146399Y205129D01*
X124233D01*
X123181Y206181D01*
X122685Y206513D01*
X122100Y206629D01*
X120801D01*
X120773Y206673D01*
X120051Y207155D01*
X119200Y207324D01*
D02*
G37*
G36*
X81400Y197593D02*
X80574Y197484D01*
X79804Y197165D01*
X79142Y196658D01*
X78635Y195996D01*
X78316Y195226D01*
X78207Y194400D01*
X78316Y193574D01*
X78635Y192804D01*
X79142Y192142D01*
X79804Y191635D01*
X80574Y191316D01*
X81400Y191207D01*
X82226Y191316D01*
X82996Y191635D01*
X83658Y192142D01*
X84165Y192804D01*
X84484Y193574D01*
X84593Y194400D01*
X84484Y195226D01*
X84165Y195996D01*
X83658Y196658D01*
X82996Y197165D01*
X82226Y197484D01*
X81400Y197593D01*
D02*
G37*
G36*
X73600D02*
X72774Y197484D01*
X72004Y197165D01*
X71342Y196658D01*
X70835Y195996D01*
X70516Y195226D01*
X70407Y194400D01*
X70516Y193574D01*
X70835Y192804D01*
X71342Y192142D01*
X72004Y191635D01*
X72774Y191316D01*
X73600Y191207D01*
X74426Y191316D01*
X75196Y191635D01*
X75858Y192142D01*
X76365Y192804D01*
X76684Y193574D01*
X76793Y194400D01*
X76684Y195226D01*
X76365Y195996D01*
X75858Y196658D01*
X75196Y197165D01*
X74426Y197484D01*
X73600Y197593D01*
D02*
G37*
G36*
X373728Y191987D02*
Y190362D01*
X375353D01*
X375283Y190713D01*
X374801Y191435D01*
X374079Y191917D01*
X373728Y191987D01*
D02*
G37*
G36*
X372728D02*
X372377Y191917D01*
X371656Y191435D01*
X371174Y190713D01*
X371104Y190362D01*
X372728D01*
Y191987D01*
D02*
G37*
G36*
X289800Y192925D02*
X260827D01*
X259860Y192733D01*
X259803Y192694D01*
X259494D01*
X258617Y192519D01*
X257872Y192022D01*
X254874Y189024D01*
X254377Y188279D01*
X254202Y187402D01*
Y186033D01*
X253218Y185548D01*
X253152Y185598D01*
X252287Y185956D01*
X251358Y186079D01*
X250428Y185956D01*
X249563Y185598D01*
X248819Y185027D01*
X248249Y184284D01*
X247890Y183418D01*
X247768Y182489D01*
X247890Y181560D01*
X248249Y180694D01*
X248819Y179951D01*
X249563Y179380D01*
X250428Y179022D01*
X251358Y178899D01*
X252287Y179022D01*
X253152Y179380D01*
X253218Y179430D01*
X254202Y178945D01*
Y176398D01*
X254288Y175967D01*
X253395Y175412D01*
X253152Y175598D01*
X252287Y175956D01*
X251358Y176079D01*
X250428Y175956D01*
X249563Y175598D01*
X248819Y175027D01*
X248249Y174284D01*
X247890Y173418D01*
X247768Y172489D01*
X247890Y171560D01*
X248249Y170694D01*
X248819Y169951D01*
X249563Y169380D01*
X250428Y169021D01*
X251358Y168899D01*
X252287Y169021D01*
X253152Y169380D01*
X253896Y169951D01*
X254466Y170694D01*
X254825Y171560D01*
X254947Y172489D01*
X254825Y173418D01*
X254815Y173443D01*
X255649Y174000D01*
X257860Y171790D01*
X257890Y171560D01*
X258249Y170694D01*
X258819Y169951D01*
X259563Y169380D01*
X260428Y169021D01*
X261357Y168899D01*
X262287Y169021D01*
X263152Y169380D01*
X263257Y169460D01*
X264241Y168975D01*
Y165945D01*
X264416Y165067D01*
X264913Y164323D01*
X268833Y160403D01*
Y134646D01*
X232512Y98325D01*
X184700D01*
X183734Y98133D01*
X182915Y97585D01*
X182367Y96766D01*
X182175Y95800D01*
X182367Y94834D01*
X182915Y94015D01*
X183734Y93467D01*
X184700Y93275D01*
X233558D01*
X234524Y93467D01*
X235344Y94015D01*
X272404Y131075D01*
X292600D01*
X293566Y131267D01*
X294385Y131815D01*
X294933Y132634D01*
X295125Y133600D01*
X294933Y134566D01*
X294385Y135385D01*
X293566Y135933D01*
X292600Y136125D01*
X273883D01*
Y161122D01*
X273691Y162088D01*
X273144Y162907D01*
X272324Y163455D01*
X272256Y163468D01*
X268829Y166895D01*
Y168827D01*
X269814Y169276D01*
X270428Y169021D01*
X271357Y168899D01*
X272287Y169021D01*
X273152Y169380D01*
X273896Y169951D01*
X274466Y170694D01*
X274825Y171560D01*
X274947Y172489D01*
X274825Y173418D01*
X274466Y174284D01*
X273896Y175027D01*
X273152Y175598D01*
X272287Y175956D01*
X271357Y176079D01*
X270428Y175956D01*
X269814Y175702D01*
X268829Y176151D01*
Y176358D01*
X268655Y177236D01*
X268158Y177980D01*
X264753Y181385D01*
X264825Y181560D01*
X264947Y182489D01*
X264825Y183418D01*
X264466Y184284D01*
X263896Y185027D01*
X263152Y185598D01*
X262287Y185956D01*
X261357Y186079D01*
X260428Y185956D01*
X259318Y186515D01*
X259277Y186659D01*
X259359Y187020D01*
X260316Y187977D01*
X260827Y187875D01*
X289800D01*
X290766Y188067D01*
X291585Y188615D01*
X292133Y189434D01*
X292325Y190400D01*
X292133Y191366D01*
X291585Y192185D01*
X290766Y192733D01*
X289800Y192925D01*
D02*
G37*
G36*
X375353Y189362D02*
X373728D01*
Y187738D01*
X374079Y187808D01*
X374801Y188290D01*
X375283Y189011D01*
X375353Y189362D01*
D02*
G37*
G36*
X372728D02*
X371104D01*
X371174Y189011D01*
X371656Y188290D01*
X372377Y187808D01*
X372728Y187738D01*
Y189362D01*
D02*
G37*
G36*
X129100Y188324D02*
X128249Y188154D01*
X127527Y187672D01*
X127499Y187629D01*
X126000D01*
X125415Y187513D01*
X124919Y187181D01*
X121867Y184129D01*
X119701D01*
X119673Y184172D01*
X118951Y184654D01*
X118100Y184824D01*
X117249Y184654D01*
X116527Y184172D01*
X116045Y183451D01*
X115876Y182600D01*
X116045Y181749D01*
X116527Y181027D01*
Y179873D01*
X116045Y179151D01*
X115876Y178300D01*
X116045Y177449D01*
X116527Y176727D01*
X117249Y176245D01*
X118100Y176076D01*
X118951Y176245D01*
X119673Y176727D01*
X119701Y176771D01*
X125200D01*
X125785Y176887D01*
X126281Y177219D01*
X129049Y179986D01*
X129100Y179976D01*
X129951Y180146D01*
X130673Y180628D01*
X131155Y181349D01*
X131324Y182200D01*
X131155Y183051D01*
X130673Y183773D01*
Y184528D01*
X131155Y185249D01*
X131324Y186100D01*
X131155Y186951D01*
X130673Y187672D01*
X129951Y188154D01*
X129100Y188324D01*
D02*
G37*
G36*
X81300Y189693D02*
X80474Y189584D01*
X79704Y189265D01*
X79042Y188758D01*
X78535Y188096D01*
X78216Y187326D01*
X78107Y186500D01*
X78216Y185674D01*
X78535Y184904D01*
X79042Y184242D01*
X79704Y183735D01*
X80474Y183416D01*
X81300Y183307D01*
X82126Y183416D01*
X82896Y183735D01*
X83558Y184242D01*
X84065Y184904D01*
X84384Y185674D01*
X84493Y186500D01*
X84384Y187326D01*
X84065Y188096D01*
X83558Y188758D01*
X82896Y189265D01*
X82126Y189584D01*
X81300Y189693D01*
D02*
G37*
G36*
X73500D02*
X72674Y189584D01*
X71904Y189265D01*
X71242Y188758D01*
X70735Y188096D01*
X70416Y187326D01*
X70307Y186500D01*
X70416Y185674D01*
X70735Y184904D01*
X71242Y184242D01*
X71904Y183735D01*
X72674Y183416D01*
X73500Y183307D01*
X74326Y183416D01*
X75096Y183735D01*
X75758Y184242D01*
X76265Y184904D01*
X76584Y185674D01*
X76693Y186500D01*
X76584Y187326D01*
X76265Y188096D01*
X75758Y188758D01*
X75096Y189265D01*
X74326Y189584D01*
X73500Y189693D01*
D02*
G37*
G36*
X172900Y183824D02*
X172049Y183654D01*
X171327Y183173D01*
X170932Y182581D01*
X170400Y182510D01*
X169868Y182581D01*
X169473Y183173D01*
X168751Y183654D01*
X167900Y183824D01*
X167049Y183654D01*
X166328Y183173D01*
X165932Y182581D01*
X165400Y182510D01*
X164868Y182581D01*
X164472Y183173D01*
X163751Y183654D01*
X162900Y183824D01*
X162049Y183654D01*
X161328Y183173D01*
X160845Y182451D01*
X160676Y181600D01*
X160845Y180749D01*
X161078Y180402D01*
Y151798D01*
X160845Y151451D01*
X160676Y150600D01*
X160845Y149749D01*
X161328Y149028D01*
X162049Y148546D01*
X162900Y148376D01*
X163751Y148546D01*
X164472Y149028D01*
X164868Y149619D01*
X165400Y149690D01*
X165932Y149619D01*
X166328Y149028D01*
X167049Y148546D01*
X167900Y148376D01*
X168751Y148546D01*
X169473Y149028D01*
X169868Y149619D01*
X170400Y149690D01*
X170932Y149619D01*
X171327Y149028D01*
X172049Y148546D01*
X172900Y148376D01*
X173751Y148546D01*
X174472Y149028D01*
X174954Y149749D01*
X175124Y150600D01*
X174954Y151451D01*
X174722Y151798D01*
Y173450D01*
X175707Y173547D01*
X175846Y172849D01*
X176328Y172127D01*
X177049Y171645D01*
X177400Y171576D01*
Y173700D01*
Y175824D01*
X177049Y175754D01*
X176328Y175273D01*
X175846Y174551D01*
X175707Y173853D01*
X174722Y173950D01*
Y180402D01*
X174954Y180749D01*
X175124Y181600D01*
X174954Y182451D01*
X174472Y183173D01*
X173751Y183654D01*
X172900Y183824D01*
D02*
G37*
G36*
X373728Y184014D02*
Y182390D01*
X375353D01*
X375283Y182741D01*
X374801Y183462D01*
X374079Y183944D01*
X373728Y184014D01*
D02*
G37*
G36*
X372728D02*
X372377Y183944D01*
X371656Y183462D01*
X371174Y182741D01*
X371104Y182390D01*
X372728D01*
Y184014D01*
D02*
G37*
G36*
X375353Y181390D02*
X373728D01*
Y179765D01*
X374079Y179835D01*
X374801Y180317D01*
X375283Y181039D01*
X375353Y181390D01*
D02*
G37*
G36*
X372728D02*
X371104D01*
X371174Y181039D01*
X371656Y180317D01*
X372377Y179835D01*
X372728Y179765D01*
Y181390D01*
D02*
G37*
G36*
X281358Y186079D02*
X280428Y185956D01*
X279563Y185598D01*
X278819Y185027D01*
X278249Y184284D01*
X277890Y183418D01*
X277768Y182489D01*
X277890Y181560D01*
X278249Y180694D01*
X278819Y179951D01*
X279563Y179380D01*
X280428Y179022D01*
X281358Y178899D01*
X282287Y179022D01*
X283152Y179380D01*
X283896Y179951D01*
X284466Y180694D01*
X284825Y181560D01*
X284947Y182489D01*
X284825Y183418D01*
X284466Y184284D01*
X283896Y185027D01*
X283152Y185598D01*
X282287Y185956D01*
X281358Y186079D01*
D02*
G37*
G36*
X271357D02*
X270428Y185956D01*
X269563Y185598D01*
X268819Y185027D01*
X268249Y184284D01*
X267890Y183418D01*
X267768Y182489D01*
X267890Y181560D01*
X268249Y180694D01*
X268819Y179951D01*
X269563Y179380D01*
X270428Y179022D01*
X271357Y178899D01*
X272287Y179022D01*
X273152Y179380D01*
X273896Y179951D01*
X274466Y180694D01*
X274825Y181560D01*
X274947Y182489D01*
X274825Y183418D01*
X274466Y184284D01*
X273896Y185027D01*
X273152Y185598D01*
X272287Y185956D01*
X271357Y186079D01*
D02*
G37*
G36*
X241357D02*
X240428Y185956D01*
X239563Y185598D01*
X238819Y185027D01*
X238249Y184284D01*
X237890Y183418D01*
X237768Y182489D01*
X237890Y181560D01*
X238249Y180694D01*
X238819Y179951D01*
X239563Y179380D01*
X240428Y179022D01*
X241357Y178899D01*
X242287Y179022D01*
X243152Y179380D01*
X243896Y179951D01*
X244466Y180694D01*
X244825Y181560D01*
X244947Y182489D01*
X244825Y183418D01*
X244466Y184284D01*
X243896Y185027D01*
X243152Y185598D01*
X242287Y185956D01*
X241357Y186079D01*
D02*
G37*
G36*
X231358D02*
X230428Y185956D01*
X229563Y185598D01*
X228819Y185027D01*
X228249Y184284D01*
X227890Y183418D01*
X227768Y182489D01*
X227890Y181560D01*
X228249Y180694D01*
X228819Y179951D01*
X229563Y179380D01*
X230428Y179022D01*
X231358Y178899D01*
X232287Y179022D01*
X233152Y179380D01*
X233896Y179951D01*
X234466Y180694D01*
X234825Y181560D01*
X234947Y182489D01*
X234825Y183418D01*
X234466Y184284D01*
X233896Y185027D01*
X233152Y185598D01*
X232287Y185956D01*
X231358Y186079D01*
D02*
G37*
G36*
X81300Y181793D02*
X80474Y181684D01*
X79704Y181365D01*
X79042Y180858D01*
X78535Y180196D01*
X78216Y179426D01*
X78107Y178600D01*
X78216Y177774D01*
X78535Y177004D01*
X79042Y176342D01*
X79704Y175835D01*
X80474Y175516D01*
X81300Y175407D01*
X82126Y175516D01*
X82896Y175835D01*
X83558Y176342D01*
X84065Y177004D01*
X84384Y177774D01*
X84493Y178600D01*
X84384Y179426D01*
X84065Y180196D01*
X83558Y180858D01*
X82896Y181365D01*
X82126Y181684D01*
X81300Y181793D01*
D02*
G37*
G36*
X73500D02*
X72674Y181684D01*
X71904Y181365D01*
X71242Y180858D01*
X70735Y180196D01*
X70416Y179426D01*
X70307Y178600D01*
X70416Y177774D01*
X70735Y177004D01*
X71242Y176342D01*
X71904Y175835D01*
X72674Y175516D01*
X73500Y175407D01*
X74326Y175516D01*
X75096Y175835D01*
X75758Y176342D01*
X76265Y177004D01*
X76584Y177774D01*
X76693Y178600D01*
X76584Y179426D01*
X76265Y180196D01*
X75758Y180858D01*
X75096Y181365D01*
X74326Y181684D01*
X73500Y181793D01*
D02*
G37*
G36*
X178400Y175824D02*
Y174200D01*
X180024D01*
X179955Y174551D01*
X179472Y175273D01*
X178751Y175754D01*
X178400Y175824D01*
D02*
G37*
G36*
X180024Y173200D02*
X178400D01*
Y171576D01*
X178751Y171645D01*
X179472Y172127D01*
X179955Y172849D01*
X180024Y173200D01*
D02*
G37*
G36*
X281358Y176079D02*
X280428Y175956D01*
X279563Y175598D01*
X278819Y175027D01*
X278249Y174284D01*
X277890Y173418D01*
X277768Y172489D01*
X277890Y171560D01*
X278249Y170694D01*
X278819Y169951D01*
X279563Y169380D01*
X280428Y169021D01*
X281358Y168899D01*
X282287Y169021D01*
X283152Y169380D01*
X283896Y169951D01*
X284466Y170694D01*
X284825Y171560D01*
X284947Y172489D01*
X284825Y173418D01*
X284466Y174284D01*
X283896Y175027D01*
X283152Y175598D01*
X282287Y175956D01*
X281358Y176079D01*
D02*
G37*
G36*
X241357D02*
X240428Y175956D01*
X239563Y175598D01*
X238819Y175027D01*
X238249Y174284D01*
X237890Y173418D01*
X237768Y172489D01*
X237890Y171560D01*
X238249Y170694D01*
X238819Y169951D01*
X239563Y169380D01*
X240428Y169021D01*
X241357Y168899D01*
X242287Y169021D01*
X243152Y169380D01*
X243896Y169951D01*
X244466Y170694D01*
X244825Y171560D01*
X244947Y172489D01*
X244825Y173418D01*
X244466Y174284D01*
X243896Y175027D01*
X243152Y175598D01*
X242287Y175956D01*
X241357Y176079D01*
D02*
G37*
G36*
X231358D02*
X230428Y175956D01*
X229563Y175598D01*
X228819Y175027D01*
X228249Y174284D01*
X227890Y173418D01*
X227768Y172489D01*
X227890Y171560D01*
X228249Y170694D01*
X228819Y169951D01*
X229563Y169380D01*
X230428Y169021D01*
X231358Y168899D01*
X232287Y169021D01*
X233152Y169380D01*
X233896Y169951D01*
X234466Y170694D01*
X234825Y171560D01*
X234947Y172489D01*
X234825Y173418D01*
X234466Y174284D01*
X233896Y175027D01*
X233152Y175598D01*
X232287Y175956D01*
X231358Y176079D01*
D02*
G37*
G36*
X73600Y173893D02*
X72774Y173784D01*
X72004Y173465D01*
X71342Y172958D01*
X70835Y172296D01*
X70516Y171526D01*
X70407Y170700D01*
X70516Y169874D01*
X70835Y169104D01*
X71342Y168442D01*
X72004Y167935D01*
X72774Y167616D01*
X73600Y167507D01*
X74426Y167616D01*
X75196Y167935D01*
X75858Y168442D01*
X76365Y169104D01*
X76684Y169874D01*
X76793Y170700D01*
X76684Y171526D01*
X76365Y172296D01*
X75858Y172958D01*
X75196Y173465D01*
X74426Y173784D01*
X73600Y173893D01*
D02*
G37*
G36*
X81400D02*
X80574Y173784D01*
X79804Y173465D01*
X79142Y172958D01*
X78635Y172296D01*
X78316Y171526D01*
X78207Y170700D01*
X78316Y169874D01*
X78635Y169104D01*
X79142Y168442D01*
X79804Y167935D01*
X80574Y167616D01*
X81400Y167507D01*
X82226Y167616D01*
X82996Y167935D01*
X83658Y168442D01*
X83948Y168821D01*
X84050Y168853D01*
X84971Y168597D01*
Y164903D01*
X83986Y164629D01*
X83658Y165058D01*
X82996Y165565D01*
X82226Y165884D01*
X81400Y165993D01*
X80574Y165884D01*
X79804Y165565D01*
X79142Y165058D01*
X78635Y164396D01*
X78316Y163626D01*
X78207Y162800D01*
X78316Y161974D01*
X78635Y161204D01*
X79142Y160543D01*
X79804Y160035D01*
X80574Y159716D01*
X81400Y159607D01*
X82226Y159716D01*
X82996Y160035D01*
X83273Y160248D01*
X84307Y160041D01*
X84436Y159942D01*
X84485Y159811D01*
X84446Y159751D01*
X84276Y158900D01*
X84446Y158049D01*
X84927Y157327D01*
X85649Y156845D01*
X86500Y156676D01*
X87351Y156845D01*
X88073Y157327D01*
X88545Y158034D01*
X88626Y158049D01*
X89474D01*
X89555Y158034D01*
X90027Y157327D01*
X90749Y156845D01*
X91600Y156676D01*
X92451Y156845D01*
X93173Y157327D01*
X93655Y158049D01*
X93824Y158900D01*
X93655Y159751D01*
X93229Y160387D01*
Y165299D01*
X93273Y165328D01*
X93755Y166049D01*
X93924Y166900D01*
X93755Y167751D01*
X93273Y168473D01*
X92551Y168955D01*
X91700Y169124D01*
X90849Y168955D01*
X90127Y168473D01*
X89645Y167751D01*
X89476Y166900D01*
X89645Y166049D01*
X90127Y165328D01*
X90171Y165299D01*
Y160568D01*
X90027Y160473D01*
X89555Y159766D01*
X89474Y159751D01*
X88626D01*
X88545Y159766D01*
X88073Y160473D01*
X88029Y160501D01*
Y169099D01*
X88073Y169128D01*
X88555Y169849D01*
X88724Y170700D01*
X88555Y171551D01*
X88073Y172273D01*
X87351Y172755D01*
X86500Y172924D01*
X85649Y172755D01*
X85172Y172436D01*
X84640Y172362D01*
X83948Y172579D01*
X83658Y172958D01*
X82996Y173465D01*
X82226Y173784D01*
X81400Y173893D01*
D02*
G37*
G36*
X73600Y165993D02*
X72774Y165884D01*
X72004Y165565D01*
X71342Y165058D01*
X70835Y164396D01*
X70516Y163626D01*
X70407Y162800D01*
X70516Y161974D01*
X70835Y161204D01*
X71342Y160543D01*
X72004Y160035D01*
X72774Y159716D01*
X73600Y159607D01*
X74426Y159716D01*
X75196Y160035D01*
X75858Y160543D01*
X76365Y161204D01*
X76684Y161974D01*
X76793Y162800D01*
X76684Y163626D01*
X76365Y164396D01*
X75858Y165058D01*
X75196Y165565D01*
X74426Y165884D01*
X73600Y165993D01*
D02*
G37*
G36*
X127300Y154524D02*
Y152900D01*
X128924D01*
X128855Y153251D01*
X128373Y153972D01*
X127651Y154455D01*
X127300Y154524D01*
D02*
G37*
G36*
X126300D02*
X125949Y154455D01*
X125227Y153972D01*
X124746Y153251D01*
X124676Y152900D01*
X126300D01*
Y154524D01*
D02*
G37*
G36*
X81400Y158293D02*
X80574Y158184D01*
X79804Y157865D01*
X79142Y157358D01*
X78635Y156696D01*
X78316Y155926D01*
X78207Y155100D01*
X78316Y154274D01*
X78635Y153504D01*
X79142Y152842D01*
X79804Y152335D01*
X80574Y152016D01*
X81400Y151907D01*
X82226Y152016D01*
X82996Y152335D01*
X83658Y152842D01*
X84165Y153504D01*
X84484Y154274D01*
X84593Y155100D01*
X84484Y155926D01*
X84165Y156696D01*
X83658Y157358D01*
X82996Y157865D01*
X82226Y158184D01*
X81400Y158293D01*
D02*
G37*
G36*
X73600D02*
X72774Y158184D01*
X72004Y157865D01*
X71342Y157358D01*
X70835Y156696D01*
X70516Y155926D01*
X70407Y155100D01*
X70516Y154274D01*
X70835Y153504D01*
X71342Y152842D01*
X72004Y152335D01*
X72774Y152016D01*
X73600Y151907D01*
X74426Y152016D01*
X75196Y152335D01*
X75858Y152842D01*
X76365Y153504D01*
X76684Y154274D01*
X76793Y155100D01*
X76684Y155926D01*
X76365Y156696D01*
X75858Y157358D01*
X75196Y157865D01*
X74426Y158184D01*
X73600Y158293D01*
D02*
G37*
G36*
X128924Y151900D02*
X127300D01*
Y150276D01*
X127651Y150346D01*
X128373Y150828D01*
X128855Y151549D01*
X128924Y151900D01*
D02*
G37*
G36*
X126300D02*
X124676D01*
X124746Y151549D01*
X125227Y150828D01*
X125949Y150346D01*
X126300Y150276D01*
Y151900D01*
D02*
G37*
G36*
X290600Y163425D02*
X289634Y163233D01*
X288815Y162685D01*
X288267Y161866D01*
X288075Y160900D01*
X288267Y159934D01*
X288815Y159115D01*
X297931Y149998D01*
X298750Y149451D01*
X299716Y149259D01*
X300683Y149451D01*
X301502Y149998D01*
X302049Y150817D01*
X302241Y151784D01*
X302049Y152750D01*
X301502Y153569D01*
X292385Y162685D01*
X291566Y163233D01*
X290600Y163425D01*
D02*
G37*
G36*
X218400Y165525D02*
X184800D01*
X183834Y165333D01*
X183015Y164785D01*
X182467Y163966D01*
X182275Y163000D01*
X182467Y162034D01*
X183015Y161215D01*
X183834Y160667D01*
X184800Y160475D01*
X217354D01*
X223611Y154219D01*
X224430Y153671D01*
X225396Y153479D01*
X255750D01*
X263115Y146115D01*
X263934Y145567D01*
X264900Y145375D01*
X265866Y145567D01*
X266685Y146115D01*
X267233Y146934D01*
X267425Y147900D01*
X267233Y148866D01*
X266685Y149685D01*
X258581Y157789D01*
X257762Y158337D01*
X256796Y158529D01*
X226442D01*
X220185Y164785D01*
X219366Y165333D01*
X218400Y165525D01*
D02*
G37*
G36*
X77400Y149824D02*
X76549Y149654D01*
X75827Y149172D01*
X75345Y148451D01*
X75176Y147600D01*
X75345Y146749D01*
X75827Y146028D01*
X76549Y145545D01*
X77400Y145376D01*
X78251Y145545D01*
X78887Y145971D01*
X86299D01*
X86327Y145928D01*
X87049Y145446D01*
X87900Y145276D01*
X88751Y145446D01*
X89473Y145928D01*
X89955Y146649D01*
X90124Y147500D01*
X89955Y148351D01*
X89473Y149073D01*
X88751Y149555D01*
X87900Y149724D01*
X87049Y149555D01*
X86327Y149073D01*
X86299Y149029D01*
X79068D01*
X78973Y149172D01*
X78251Y149654D01*
X77400Y149824D01*
D02*
G37*
G36*
X286500Y155025D02*
X285534Y154833D01*
X284715Y154285D01*
X284167Y153466D01*
X283975Y152500D01*
X284167Y151534D01*
X284715Y150715D01*
X290815Y144615D01*
X291634Y144067D01*
X292600Y143875D01*
X293566Y144067D01*
X294385Y144615D01*
X294933Y145434D01*
X295125Y146400D01*
X294933Y147366D01*
X294385Y148185D01*
X288285Y154285D01*
X287466Y154833D01*
X286500Y155025D01*
D02*
G37*
G36*
X76100Y142624D02*
X75249Y142455D01*
X74528Y141972D01*
X74045Y141251D01*
X73876Y140400D01*
X74045Y139549D01*
X74528Y138828D01*
X75249Y138346D01*
X76100Y138176D01*
X76951Y138346D01*
X77438Y138671D01*
X89767D01*
X92736Y135701D01*
X92726Y135650D01*
X92896Y134799D01*
X93378Y134078D01*
X94099Y133596D01*
X94950Y133426D01*
X95801Y133596D01*
X96522Y134078D01*
X97004Y134799D01*
X97174Y135650D01*
X97004Y136501D01*
X96522Y137223D01*
X95801Y137705D01*
X94950Y137874D01*
X94899Y137864D01*
X91481Y141281D01*
X90985Y141613D01*
X90400Y141729D01*
X77835D01*
X77672Y141972D01*
X76951Y142455D01*
X76100Y142624D01*
D02*
G37*
G36*
X178400Y107524D02*
Y105900D01*
X180024D01*
X179955Y106251D01*
X179472Y106973D01*
X178751Y107455D01*
X178400Y107524D01*
D02*
G37*
G36*
X177400D02*
X177049Y107455D01*
X176328Y106973D01*
X175846Y106251D01*
X175776Y105900D01*
X177400D01*
Y107524D01*
D02*
G37*
G36*
X180024Y104900D02*
X178400D01*
Y103276D01*
X178751Y103346D01*
X179472Y103828D01*
X179955Y104549D01*
X180024Y104900D01*
D02*
G37*
G36*
X177400D02*
X175776D01*
X175846Y104549D01*
X176328Y103828D01*
X177049Y103346D01*
X177400Y103276D01*
Y104900D01*
D02*
G37*
G36*
X82685Y93622D02*
Y84858D01*
X91448D01*
X91319Y86175D01*
X90789Y87922D01*
X89928Y89532D01*
X88770Y90943D01*
X87359Y92101D01*
X85749Y92962D01*
X84002Y93492D01*
X82685Y93622D01*
D02*
G37*
G36*
X81685D02*
X80368Y93492D01*
X78621Y92962D01*
X77011Y92101D01*
X75600Y90943D01*
X74442Y89532D01*
X73581Y87922D01*
X73051Y86175D01*
X72922Y84858D01*
X81685D01*
Y93622D01*
D02*
G37*
G36*
X387803D02*
Y84858D01*
X396566D01*
X396437Y86175D01*
X395907Y87922D01*
X395046Y89532D01*
X393888Y90943D01*
X392477Y92101D01*
X390867Y92962D01*
X389120Y93492D01*
X387803Y93622D01*
D02*
G37*
G36*
X386803D02*
X385486Y93492D01*
X383739Y92962D01*
X382129Y92101D01*
X380718Y90943D01*
X379560Y89532D01*
X378699Y87922D01*
X378169Y86175D01*
X378040Y84858D01*
X386803D01*
Y93622D01*
D02*
G37*
G36*
X396566Y83858D02*
X387803D01*
Y75095D01*
X389120Y75225D01*
X390867Y75755D01*
X392477Y76615D01*
X393888Y77773D01*
X395046Y79185D01*
X395907Y80795D01*
X396437Y82542D01*
X396566Y83858D01*
D02*
G37*
G36*
X91448Y83858D02*
X82685D01*
Y75095D01*
X84002Y75225D01*
X85749Y75755D01*
X87359Y76615D01*
X88770Y77773D01*
X89928Y79185D01*
X90789Y80795D01*
X91319Y82542D01*
X91448Y83858D01*
D02*
G37*
G36*
X81685D02*
X72922D01*
X73051Y82542D01*
X73581Y80795D01*
X74442Y79185D01*
X75600Y77773D01*
X77011Y76615D01*
X78621Y75755D01*
X80368Y75225D01*
X81685Y75095D01*
Y83858D01*
D02*
G37*
G36*
X386803Y83858D02*
X378040D01*
X378169Y82542D01*
X378699Y80795D01*
X379560Y79185D01*
X380718Y77773D01*
X382129Y76615D01*
X383739Y75755D01*
X385486Y75225D01*
X386803Y75095D01*
Y83858D01*
D02*
G37*
%LPD*%
D10*
X352644Y302756D02*
X353150Y302250D01*
Y272350D02*
Y302250D01*
Y272350D02*
X355500Y270000D01*
X348917Y297638D02*
X350295Y296260D01*
Y271605D02*
Y296260D01*
Y271605D02*
X351300Y270600D01*
X293100Y270700D02*
Y280600D01*
Y270600D02*
Y270700D01*
X77500Y147500D02*
X87900D01*
X77400Y147600D02*
X77500Y147500D01*
X91700Y159400D02*
Y166900D01*
X91600Y159300D02*
X91700Y159400D01*
X91600Y158900D02*
Y159300D01*
X86500Y158900D02*
Y170700D01*
X119200Y197800D02*
X158000D01*
X89800Y210000D02*
Y219600D01*
X91500Y221300D01*
X335900Y266600D02*
Y282700D01*
Y266600D02*
X336400Y266100D01*
X353200Y313600D02*
X361500Y305300D01*
Y270000D02*
Y305300D01*
X327700Y289300D02*
X341700D01*
X343700Y287300D01*
Y270200D02*
Y287300D01*
X305800Y270600D02*
Y287700D01*
Y270600D02*
X305900Y270500D01*
X301400Y270800D02*
Y290700D01*
Y270800D02*
X301600Y270600D01*
X267100Y295900D02*
X290100D01*
X297600Y288400D01*
Y271200D02*
Y288400D01*
X274600Y262100D02*
X274800Y261900D01*
X244200Y300200D02*
X251800Y292600D01*
X279300D01*
X289800Y282100D01*
Y235200D02*
Y282100D01*
X289700Y235100D02*
X289800Y235200D01*
X232800Y298900D02*
X235400Y296300D01*
X243100D01*
X250300Y289100D01*
X284400Y240000D02*
X286300Y241900D01*
Y279700D01*
X250300Y289100D02*
X276900D01*
X286300Y279700D01*
X242600Y291700D02*
X249300Y285000D01*
X242500Y286400D02*
X246900Y282000D01*
X249300Y285000D02*
X275600D01*
X279400Y281200D01*
Y262500D02*
Y281200D01*
X246900Y282000D02*
X271700D01*
X274600Y279100D01*
Y262100D02*
Y279100D01*
X240200Y269900D02*
Y279500D01*
Y269900D02*
X240500Y269600D01*
X212200Y287300D02*
X220800Y278700D01*
Y269700D02*
Y278700D01*
X96700Y221600D02*
X100700Y225600D01*
X101300Y235900D02*
X101400Y235800D01*
X91700Y240200D02*
X101500D01*
X101800Y240500D01*
X96300Y221200D02*
X96700Y221600D01*
X96300Y214000D02*
Y221200D01*
X151000Y200500D02*
X152900Y202400D01*
X119200Y201500D02*
X120200Y200500D01*
X151000D01*
X212200Y287300D02*
X212300D01*
X390500Y262900D02*
Y269800D01*
X366200Y283100D02*
X377200D01*
X390500Y269800D01*
X339700Y270000D02*
Y282200D01*
X340000Y282500D01*
X270400Y308300D02*
X276100Y302600D01*
X312900D01*
X321100Y294400D01*
X341500D01*
X347400Y288500D01*
Y270000D02*
Y288500D01*
X230950Y300750D02*
X232800Y298900D01*
X230950Y300750D02*
Y307450D01*
X243300Y301100D02*
X244200Y300200D01*
X238700Y301100D02*
X243300D01*
X241800Y292500D02*
X242600Y291700D01*
X236200Y269900D02*
Y286500D01*
X234500Y288200D02*
X236200Y286500D01*
X227100Y286800D02*
Y292200D01*
Y286800D02*
X231100Y282800D01*
Y269900D02*
Y282800D01*
X234700Y292500D02*
X241800D01*
X226700Y269700D02*
Y279500D01*
X214800Y291400D02*
X226700Y279500D01*
X214800Y291400D02*
Y292500D01*
X207100D02*
X212300Y287300D01*
X211500Y269800D02*
Y279100D01*
X211400Y269700D02*
X211500Y269800D01*
X329200Y298300D02*
X339300D01*
X343500Y270000D02*
X343700Y270200D01*
X119600Y205100D02*
X122100D01*
X123600Y203600D01*
X148000D01*
X91900Y244700D02*
X101600D01*
X102100Y245200D01*
X91500Y235900D02*
X91700D01*
X101300D01*
X125200Y178300D02*
X129100Y182200D01*
X126000Y186100D02*
X129100D01*
X118100Y182600D02*
X122500D01*
X126000Y186100D01*
X117600Y178300D02*
X118100D01*
X125200D01*
X90400Y140200D02*
X94950Y135650D01*
X76350Y140200D02*
X90400D01*
D49*
X261594Y181300D02*
X266535Y176358D01*
Y165945D02*
Y176358D01*
X256496Y176398D02*
X261594Y171300D01*
X256496Y176398D02*
Y187402D01*
X259494Y190400D01*
X260827D01*
X266535Y165945D02*
X271358Y161122D01*
D51*
X290600Y160900D02*
X299716Y151784D01*
X260827Y190400D02*
X289800D01*
X286500Y152500D02*
X292600Y146400D01*
X184800Y163000D02*
X218400D01*
X369685Y213189D02*
X388583D01*
X369587Y213287D02*
X369685Y213189D01*
X369882Y207677D02*
X381594D01*
X369488Y208071D02*
X369882Y207677D01*
X218400Y163000D02*
X225396Y156004D01*
X256796D01*
X264900Y147900D01*
X271358Y133600D02*
X292600D01*
X271358Y133563D02*
Y133600D01*
Y161122D01*
X184700Y95800D02*
X233558D01*
X271358Y133600D01*
D52*
X167900Y295600D02*
X168100Y295800D01*
X172900Y295600D02*
X173100Y295800D01*
X162900Y281100D02*
X163100Y281300D01*
X172900Y150600D02*
Y181600D01*
Y217200D02*
Y264100D01*
X167900Y150600D02*
Y181600D01*
Y217200D02*
Y264100D01*
X162900Y150600D02*
Y181600D01*
Y217200D02*
Y264100D01*
X187100Y266200D02*
X228300Y225000D01*
X287800Y225300D02*
X288100Y225000D01*
X259300Y225300D02*
X287800D01*
Y220300D02*
X288100Y220000D01*
X259300Y220300D02*
X287800D01*
Y230300D02*
X288100Y230000D01*
X259300Y230300D02*
X287800D01*
X179100Y269200D02*
X228300Y220000D01*
X179100Y269200D02*
Y295800D01*
X167900Y281100D02*
Y295600D01*
X172900Y281100D02*
Y295600D01*
X180000Y302100D02*
X187100Y295000D01*
Y266200D02*
Y295000D01*
X162800Y281600D02*
Y295300D01*
X190100Y268200D02*
X228300Y230000D01*
X159300Y306900D02*
X179200D01*
X190100Y296000D01*
Y268200D02*
Y296000D01*
X172800Y302100D02*
X173100D01*
X180000D01*
X162800Y295300D02*
X163300Y295800D01*
X162800Y281600D02*
X163100Y281300D01*
D53*
X290600Y160900D02*
Y161100D01*
X320300Y225000D02*
X349000D01*
X320300Y220000D02*
X349000D01*
X320300Y230000D02*
X349000D01*
X144900Y322000D02*
X163300D01*
X144800Y321900D02*
X144900Y322000D01*
X292600Y133400D02*
Y133600D01*
D56*
Y146400D02*
X292700D01*
X286400Y152500D02*
X286500D01*
D57*
X373298Y294402D02*
D03*
X383298D02*
D03*
D58*
X73600Y233900D02*
D03*
Y226000D02*
D03*
Y210200D02*
D03*
Y218100D02*
D03*
Y202300D02*
D03*
Y194400D02*
D03*
X73500Y178600D02*
D03*
Y186500D02*
D03*
X73600Y170700D02*
D03*
Y162800D02*
D03*
Y155100D02*
D03*
X81400D02*
D03*
Y162800D02*
D03*
Y170700D02*
D03*
X81300Y186500D02*
D03*
Y178600D02*
D03*
X81400Y194400D02*
D03*
Y202300D02*
D03*
Y218100D02*
D03*
Y210200D02*
D03*
Y226000D02*
D03*
Y233900D02*
D03*
X290000Y321500D02*
D03*
X282100D02*
D03*
X266300D02*
D03*
X274200D02*
D03*
X258400D02*
D03*
X250500D02*
D03*
X234700Y321600D02*
D03*
X242600D02*
D03*
X226800Y321500D02*
D03*
X218900D02*
D03*
X211200D02*
D03*
Y313700D02*
D03*
X218900D02*
D03*
X226800D02*
D03*
X242600Y313800D02*
D03*
X234700D02*
D03*
X250500Y313700D02*
D03*
X258400D02*
D03*
X274200D02*
D03*
X266300D02*
D03*
X282100D02*
D03*
X290000D02*
D03*
D59*
X114343Y321900D02*
D03*
X124343D02*
D03*
X134343D02*
D03*
D60*
X231358Y172489D02*
D03*
Y182489D02*
D03*
X241357D02*
D03*
Y172489D02*
D03*
X251358D02*
D03*
Y182489D02*
D03*
X261357D02*
D03*
Y172489D02*
D03*
X271357D02*
D03*
Y182489D02*
D03*
X281358D02*
D03*
Y172489D02*
D03*
D61*
X387303Y313870D02*
D03*
Y84358D02*
D03*
X82185D02*
D03*
Y313870D02*
D03*
D62*
X353150Y302165D02*
D03*
X348917Y297638D02*
D03*
X260827Y190400D02*
D03*
X290600Y161100D02*
D03*
X173100Y295800D02*
D03*
X152900Y202400D02*
D03*
X77400Y147600D02*
D03*
X87900Y147500D02*
D03*
X91700Y166900D02*
D03*
X86500Y170700D02*
D03*
X91600Y158900D02*
D03*
X86500D02*
D03*
X118100Y182600D02*
D03*
X119200Y197800D02*
D03*
X158000D02*
D03*
X89800Y210000D02*
D03*
X91500Y221300D02*
D03*
X126800Y152400D02*
D03*
X127151Y221251D02*
D03*
X127051Y286351D02*
D03*
X259649Y264049D02*
D03*
X322649Y265249D02*
D03*
X384349Y263749D02*
D03*
X335900Y282700D02*
D03*
X336400Y266100D02*
D03*
X366200Y283100D02*
D03*
X390500Y262900D02*
D03*
X353200Y313600D02*
D03*
X361500Y270000D02*
D03*
X355500D02*
D03*
X270400Y308300D02*
D03*
X351300Y270000D02*
D03*
X347400D02*
D03*
X327700Y289300D02*
D03*
X343500Y270000D02*
D03*
X339300Y298500D02*
D03*
X340000Y282500D02*
D03*
X339700Y270000D02*
D03*
X305800Y287700D02*
D03*
X305900Y270600D02*
D03*
X301400Y290700D02*
D03*
X301600Y270600D02*
D03*
X267100Y295900D02*
D03*
X297300Y270600D02*
D03*
X293100Y280600D02*
D03*
X274600Y262100D02*
D03*
X279400Y262500D02*
D03*
X289700Y235100D02*
D03*
X284400Y240000D02*
D03*
X242500Y286400D02*
D03*
X240500Y269700D02*
D03*
X240200Y279500D02*
D03*
X236200Y269700D02*
D03*
X231100D02*
D03*
X226700D02*
D03*
X211500Y279100D02*
D03*
X211400Y269700D02*
D03*
X220800D02*
D03*
X100700Y225600D02*
D03*
X91700Y235900D02*
D03*
X101800Y235800D02*
D03*
X91700Y240200D02*
D03*
X101800Y240500D02*
D03*
X91700Y244700D02*
D03*
X101800Y245200D02*
D03*
X96300Y214000D02*
D03*
X148000Y203600D02*
D03*
X119200Y201500D02*
D03*
Y205100D02*
D03*
X184800Y163000D02*
D03*
X336400Y215000D02*
D03*
X274800D02*
D03*
X211700D02*
D03*
X177900Y237300D02*
D03*
Y173700D02*
D03*
Y105400D02*
D03*
X184700Y95800D02*
D03*
X177300Y230300D02*
D03*
X167900Y281100D02*
D03*
X162900D02*
D03*
X172900D02*
D03*
X168000Y295800D02*
D03*
X172900Y150600D02*
D03*
Y181600D02*
D03*
Y217200D02*
D03*
Y264100D02*
D03*
X167900Y150600D02*
D03*
Y181600D02*
D03*
Y217200D02*
D03*
Y264100D02*
D03*
X162900Y150600D02*
D03*
Y181600D02*
D03*
Y217200D02*
D03*
Y264100D02*
D03*
X228300Y225000D02*
D03*
Y220000D02*
D03*
Y230000D02*
D03*
X288100Y225000D02*
D03*
X259300Y225300D02*
D03*
X320300Y225000D02*
D03*
X349000D02*
D03*
X288100Y220000D02*
D03*
X259300Y220300D02*
D03*
X320300Y220000D02*
D03*
X349000D02*
D03*
X288100Y230000D02*
D03*
X259300Y230300D02*
D03*
X320300Y230000D02*
D03*
X349000D02*
D03*
X163300Y322000D02*
D03*
X144800Y321900D02*
D03*
X179100Y295800D02*
D03*
X173100Y302100D02*
D03*
X329200Y298300D02*
D03*
X230950Y307450D02*
D03*
X238700Y301100D02*
D03*
X234500Y288200D02*
D03*
X227100Y292500D02*
D03*
X214800D02*
D03*
X234700D02*
D03*
X207100D02*
D03*
X293100Y270700D02*
D03*
X286400Y152500D02*
D03*
X264900Y147900D02*
D03*
X369000Y306700D02*
D03*
X159300Y306900D02*
D03*
X162900Y295800D02*
D03*
X129100Y182200D02*
D03*
Y186100D02*
D03*
X118100Y178300D02*
D03*
X207100Y194200D02*
D03*
X94950Y135650D02*
D03*
X76100Y140400D02*
D03*
X292600Y146400D02*
D03*
Y133600D02*
D03*
X289800Y190100D02*
D03*
X299606Y151673D02*
D03*
X388583Y213189D02*
D03*
X369587Y213287D02*
D03*
X381594Y207677D02*
D03*
X369488Y208071D02*
D03*
X373228Y181890D02*
D03*
Y189862D02*
D03*
D63*
X177300Y224300D02*
X207300Y194300D01*
X177300Y224300D02*
Y229900D01*
M02*
