G04*
G04 #@! TF.GenerationSoftware,Altium Limited,Altium Designer,19.1.8 (144)*
G04*
G04 Layer_Color=8388736*
%FSLAX25Y25*%
%MOIN*%
G70*
G01*
G75*
%ADD28R,0.03950X0.03950*%
%ADD29R,0.04147X0.04343*%
%ADD30R,0.04934X0.04737*%
%ADD31R,0.10642X0.04737*%
%ADD32R,0.15761X0.07887*%
%ADD33O,0.07493X0.02965*%
%ADD34O,0.02965X0.07493*%
%ADD35R,0.03950X0.03950*%
%ADD36R,0.06902X0.05524*%
%ADD37R,0.05524X0.06902*%
%ADD38R,0.05918X0.09265*%
%ADD39R,0.03950X0.05524*%
%ADD40R,0.04540X0.04934*%
%ADD41C,0.04737*%
%ADD42C,0.17335*%
%ADD43C,0.05131*%
%ADD44C,0.04200*%
D28*
X225689Y148819D02*
D03*
X219189D02*
D03*
X225689Y137303D02*
D03*
X219189D02*
D03*
X225689Y126476D02*
D03*
X219189D02*
D03*
X367323Y177880D02*
D03*
X360823D02*
D03*
X367323Y185852D02*
D03*
X360823D02*
D03*
X367323Y193824D02*
D03*
X360823D02*
D03*
D29*
X205020Y126378D02*
D03*
X211122D02*
D03*
X205020Y137303D02*
D03*
X211122D02*
D03*
X205020Y148917D02*
D03*
X211122D02*
D03*
X346555Y193602D02*
D03*
X352658D02*
D03*
X346555Y185630D02*
D03*
X352658D02*
D03*
X346555Y177657D02*
D03*
X352658D02*
D03*
X366451Y294400D02*
D03*
X360349D02*
D03*
D30*
X373447Y260900D02*
D03*
X379353D02*
D03*
X137753Y283100D02*
D03*
X131847D02*
D03*
X311547Y262200D02*
D03*
X317453D02*
D03*
X137753Y217700D02*
D03*
X131847D02*
D03*
X248447Y261500D02*
D03*
X254353D02*
D03*
X137653Y149400D02*
D03*
X131747D02*
D03*
D31*
X373024Y114946D02*
D03*
Y122846D02*
D03*
Y130746D02*
D03*
Y138646D02*
D03*
Y146546D02*
D03*
Y154446D02*
D03*
D32*
X389424Y105446D02*
D03*
Y163946D02*
D03*
D33*
X373107Y220000D02*
D03*
Y225000D02*
D03*
Y230000D02*
D03*
Y235000D02*
D03*
Y240000D02*
D03*
Y245000D02*
D03*
Y250000D02*
D03*
Y255000D02*
D03*
X336493Y220000D02*
D03*
Y225000D02*
D03*
Y230000D02*
D03*
Y235000D02*
D03*
Y240000D02*
D03*
Y245000D02*
D03*
Y250000D02*
D03*
Y255000D02*
D03*
X311507Y220000D02*
D03*
Y225000D02*
D03*
Y230000D02*
D03*
Y235000D02*
D03*
Y240000D02*
D03*
Y245000D02*
D03*
Y250000D02*
D03*
Y255000D02*
D03*
X274893Y220000D02*
D03*
Y225000D02*
D03*
Y230000D02*
D03*
Y235000D02*
D03*
Y240000D02*
D03*
Y245000D02*
D03*
Y250000D02*
D03*
Y255000D02*
D03*
X248407Y220000D02*
D03*
Y225000D02*
D03*
Y230000D02*
D03*
Y235000D02*
D03*
Y240000D02*
D03*
Y245000D02*
D03*
Y250000D02*
D03*
Y255000D02*
D03*
X211793Y220000D02*
D03*
Y225000D02*
D03*
Y230000D02*
D03*
Y235000D02*
D03*
Y240000D02*
D03*
Y245000D02*
D03*
Y250000D02*
D03*
Y255000D02*
D03*
D34*
X172900Y274007D02*
D03*
X167900D02*
D03*
X162900D02*
D03*
X157900D02*
D03*
X152900D02*
D03*
X147900D02*
D03*
X142900D02*
D03*
X137900D02*
D03*
X172900Y237393D02*
D03*
X167900D02*
D03*
X162900D02*
D03*
X157900D02*
D03*
X152900D02*
D03*
X147900D02*
D03*
X142900D02*
D03*
X137900D02*
D03*
X172900Y142107D02*
D03*
X167900D02*
D03*
X162900D02*
D03*
X157900D02*
D03*
X152900D02*
D03*
X147900D02*
D03*
X142900D02*
D03*
X137900D02*
D03*
X172900Y105493D02*
D03*
X167900D02*
D03*
X162900D02*
D03*
X157900D02*
D03*
X152900D02*
D03*
X147900D02*
D03*
X142900D02*
D03*
X137900D02*
D03*
X172900Y210407D02*
D03*
X167900D02*
D03*
X162900D02*
D03*
X157900D02*
D03*
X152900D02*
D03*
X147900D02*
D03*
X142900D02*
D03*
X137900D02*
D03*
X172900Y173793D02*
D03*
X167900D02*
D03*
X162900D02*
D03*
X157900D02*
D03*
X152900D02*
D03*
X147900D02*
D03*
X142900D02*
D03*
X137900D02*
D03*
D35*
X360300Y306700D02*
D03*
Y300200D02*
D03*
D36*
X328300Y245454D02*
D03*
Y252147D02*
D03*
X147900Y230300D02*
D03*
Y223607D02*
D03*
X265200Y245007D02*
D03*
Y251700D02*
D03*
X148000Y163146D02*
D03*
Y156454D02*
D03*
X147800Y95846D02*
D03*
Y89153D02*
D03*
D37*
X200147Y244800D02*
D03*
X193454D02*
D03*
D38*
X155400Y323500D02*
D03*
X180600D02*
D03*
D39*
X163300Y314500D02*
D03*
X168200D02*
D03*
X173100D02*
D03*
D40*
X379354Y266600D02*
D03*
X373646D02*
D03*
X131846Y289600D02*
D03*
X137554D02*
D03*
X317354Y267900D02*
D03*
X311646D02*
D03*
X132146Y224100D02*
D03*
X137854D02*
D03*
X254354Y266700D02*
D03*
X248646D02*
D03*
X131846Y155400D02*
D03*
X137554D02*
D03*
D41*
X393800Y299900D02*
D03*
X200400Y293500D02*
D03*
X201083Y119685D02*
D03*
X114300Y321900D02*
D03*
X124300D02*
D03*
X134300D02*
D03*
D42*
X81800Y316325D02*
D03*
Y81700D02*
D03*
X385487Y81725D02*
D03*
Y316272D02*
D03*
D43*
X280861Y172125D02*
D03*
Y182125D02*
D03*
X270861D02*
D03*
Y172125D02*
D03*
X260861D02*
D03*
Y182125D02*
D03*
X250861D02*
D03*
Y172125D02*
D03*
X240861D02*
D03*
Y182125D02*
D03*
X230861D02*
D03*
Y172125D02*
D03*
X383200Y294500D02*
D03*
X373200D02*
D03*
D44*
X73600Y233900D02*
D03*
Y226000D02*
D03*
Y210200D02*
D03*
Y218100D02*
D03*
Y202300D02*
D03*
Y194400D02*
D03*
X73500Y178600D02*
D03*
Y186500D02*
D03*
X73600Y170700D02*
D03*
Y162800D02*
D03*
Y155100D02*
D03*
X81400D02*
D03*
Y162800D02*
D03*
Y170700D02*
D03*
X81300Y186500D02*
D03*
Y178600D02*
D03*
X81400Y194400D02*
D03*
Y202300D02*
D03*
Y218100D02*
D03*
Y210200D02*
D03*
Y226000D02*
D03*
Y233900D02*
D03*
X290000Y313700D02*
D03*
X282100D02*
D03*
X266300D02*
D03*
X274200D02*
D03*
X258400D02*
D03*
X250500D02*
D03*
X234700Y313800D02*
D03*
X242600D02*
D03*
X226800Y313700D02*
D03*
X218900D02*
D03*
X211200D02*
D03*
Y321500D02*
D03*
X218900D02*
D03*
X226800D02*
D03*
X242600Y321600D02*
D03*
X234700D02*
D03*
X250500Y321500D02*
D03*
X258400D02*
D03*
X274200D02*
D03*
X266300D02*
D03*
X282100D02*
D03*
X290000D02*
D03*
M02*
