G04*
G04 #@! TF.GenerationSoftware,Altium Limited,Altium Designer,19.1.7 (138)*
G04*
G04 Layer_Physical_Order=1*
G04 Layer_Color=255*
%FSLAX25Y25*%
%MOIN*%
G70*
G01*
G75*
%ADD10C,0.01000*%
%ADD18R,0.03543X0.03347*%
%ADD19R,0.04134X0.03937*%
%ADD20R,0.03937X0.04134*%
%ADD21R,0.03740X0.04134*%
%ADD22R,0.04134X0.03740*%
%ADD23R,0.03150X0.03150*%
%ADD24R,0.02362X0.05709*%
%ADD25R,0.05709X0.02362*%
%ADD26R,0.06102X0.04724*%
%ADD27R,0.04724X0.06102*%
%ADD44C,0.02500*%
%ADD45C,0.03500*%
%ADD46C,0.02000*%
%ADD47C,0.06000*%
%ADD48C,0.05000*%
%ADD49C,0.02953*%
%ADD50C,0.04500*%
%ADD51C,0.01500*%
%ADD52C,0.01800*%
%ADD53C,0.01968*%
%ADD54C,0.04331*%
%ADD55C,0.16535*%
%ADD56C,0.05906*%
%ADD57C,0.03937*%
%ADD58C,0.03400*%
%ADD59C,0.02000*%
D10*
X145146Y159646D02*
Y166000D01*
X252500Y225000D02*
X253000Y224500D01*
X244700Y225000D02*
X252500D01*
X284072Y219900D02*
X284472Y219500D01*
X280000Y219900D02*
X284072D01*
X143300Y149800D02*
X143500D01*
X142900Y149400D02*
X143300Y149800D01*
X142400Y149900D02*
X142900Y149400D01*
X156000Y153400D02*
Y159228D01*
X144600Y142000D02*
X156000Y153400D01*
X129800Y142000D02*
X144600D01*
X142550Y154000D02*
X142912Y154363D01*
X126600Y154000D02*
X142550D01*
X122500Y149900D02*
X126600Y154000D01*
X121500Y149900D02*
X122500D01*
X129800D02*
X142400D01*
X161000Y154300D02*
X161200Y154100D01*
X137677Y166305D02*
Y177213D01*
X137072Y165700D02*
X137677Y166305D01*
X129700Y165700D02*
X137072D01*
X275000Y252500D02*
X276000D01*
X261000Y263000D02*
X274000Y250000D01*
X288500D01*
X261000Y263000D02*
Y267711D01*
X267000Y254000D02*
X273500Y247500D01*
X280000Y242000D02*
X282000Y240000D01*
X265054Y262446D02*
X275000Y252500D01*
X276000Y255000D02*
X288500D01*
X269000Y262000D02*
X276000Y255000D01*
X288500D02*
X293000Y250500D01*
X288000Y279298D02*
Y279500D01*
Y279298D02*
X288298Y279000D01*
X272954Y271557D02*
X277898Y276500D01*
X280000D01*
X280854Y271557D02*
X288298Y279000D01*
X282000Y240000D02*
X284972D01*
X326191Y237509D02*
Y243480D01*
X312172Y257500D02*
X326191Y243480D01*
X279211Y257500D02*
X312172D01*
X340000Y246500D02*
X340500D01*
X309500Y277000D02*
X340000Y246500D01*
X307964Y275000D02*
X348310Y234654D01*
X308307Y271557D02*
X347500Y232364D01*
X313279Y263757D02*
X345500Y231536D01*
X237500Y266500D02*
Y269000D01*
X229000Y266500D02*
Y268111D01*
X225554Y271557D02*
X229000Y268111D01*
X326191Y237509D02*
X329046Y234654D01*
X284472Y219500D02*
X284972Y220000D01*
X115000Y217500D02*
X120000Y222500D01*
X115000Y202000D02*
Y217500D01*
X117000Y213500D02*
X121500Y218000D01*
X117000Y203500D02*
Y213500D01*
X150000Y232000D02*
Y236000D01*
X143500Y225500D02*
Y233000D01*
X130000Y225000D02*
X136516D01*
X130000Y225000D02*
X130000Y225000D01*
X153500Y215000D02*
X154500Y216000D01*
X136500Y162300D02*
X139677Y165477D01*
X141776Y163705D02*
Y173688D01*
X135870Y157800D02*
X141776Y163705D01*
Y173688D02*
X142654Y174567D01*
X145146Y171000D02*
X145500Y171354D01*
X139677Y165477D02*
Y174418D01*
X135677Y172977D02*
Y178605D01*
X133000Y170300D02*
X135677Y172977D01*
X145000Y159791D02*
Y160000D01*
Y159791D02*
X145146Y159646D01*
X137677Y177213D02*
X144236Y183772D01*
X129700Y157800D02*
X135870D01*
X329500Y239654D02*
Y243000D01*
X296654Y263757D02*
X313279D01*
X288754Y271557D02*
Y272754D01*
X293000Y277000D01*
X288754Y263757D02*
X292500Y267502D01*
X296654Y271557D02*
X308307D01*
X293000Y277000D02*
X309500D01*
X295026Y275000D02*
X307964D01*
X292500Y272474D02*
X295026Y275000D01*
X292500Y267502D02*
Y272474D01*
X269000Y262000D02*
Y267611D01*
X265054Y271557D02*
X269000Y267611D01*
X257154Y271557D02*
X261000Y267711D01*
X214000Y261500D02*
X217854Y257646D01*
X214000Y267702D02*
X217854Y271557D01*
X214000Y261500D02*
Y267702D01*
X217854Y252146D02*
Y257646D01*
X115000Y202000D02*
X119700Y197300D01*
X117000Y203500D02*
X119574Y200926D01*
X124074D01*
X125500Y193400D02*
Y199500D01*
X124074Y200926D02*
X125500Y199500D01*
X121500Y189400D02*
X125500Y193400D01*
X119700Y197300D02*
X121500D01*
Y213100D02*
X125600Y209000D01*
X129500D01*
X241354Y271657D02*
X245500Y267511D01*
X280854Y263757D02*
X284111Y260500D01*
X265054Y262446D02*
Y263757D01*
X233743D02*
X248000Y249500D01*
X233454Y263757D02*
X233743D01*
X272954D02*
X279211Y257500D01*
X257154Y262346D02*
Y263757D01*
X225554D02*
X237311Y252000D01*
X345500Y231500D02*
Y231536D01*
X281000Y235000D02*
X284972D01*
X302500D02*
X306428D01*
X305928Y230500D02*
X306428Y230000D01*
X305928Y225500D02*
X306428Y225000D01*
X280000D02*
X284972D01*
X300500Y220000D02*
X306428D01*
X298500Y230500D02*
X305928D01*
X151846Y247346D02*
X158800D01*
X151000Y246500D02*
X151846Y247346D01*
X156000Y217500D02*
X163500Y225000D01*
X136765Y212665D02*
Y217500D01*
X129300Y205200D02*
X136765Y212665D01*
X138500Y201000D02*
X143000D01*
X129300Y191800D02*
X138500Y201000D01*
X129300Y189400D02*
Y191800D01*
X139677Y174418D02*
X143129Y177871D01*
X144236Y183772D02*
X147000D01*
X133000Y175000D02*
Y175800D01*
X131600Y173600D02*
X133000Y175000D01*
X129300Y173600D02*
X131600D01*
X134386Y185800D02*
X146086Y197500D01*
X156000D01*
X167000Y198000D02*
Y205228D01*
X162500Y193500D02*
X167000Y198000D01*
X147743Y193500D02*
X162500D01*
X162000Y183772D02*
Y188000D01*
X160500Y189500D02*
X162000Y188000D01*
X154000Y189500D02*
X160500D01*
X153500Y189000D02*
X154000Y189500D01*
X156000Y217464D02*
Y217500D01*
X154535Y216000D02*
X156000Y217464D01*
X154500Y216000D02*
X154535D01*
X130500Y228000D02*
X137000D01*
X125300Y205200D02*
X125500Y205000D01*
X121500Y205200D02*
X125300D01*
X129300Y197300D02*
Y200300D01*
X150500Y199500D02*
X152000Y201000D01*
X129800Y181500D02*
X132915D01*
X146915Y195500D01*
X135677Y178605D02*
X148572Y191500D01*
X132543Y178300D02*
X147743Y193500D01*
X132000Y178300D02*
X132543D01*
X146915Y195500D02*
X159672D01*
X135758Y190000D02*
X145258Y199500D01*
X133000Y190000D02*
X135758D01*
X145258Y199500D02*
X150500D01*
X129300Y213100D02*
X133100D01*
X152000Y201000D02*
Y204000D01*
X162000Y197828D02*
Y205228D01*
X159672Y195500D02*
X162000Y197828D01*
X157000Y198500D02*
Y205228D01*
X156000Y197500D02*
X157000Y198500D01*
X126000Y146300D02*
X143300D01*
X126300Y129500D02*
X153500D01*
X121500Y134300D02*
X126300Y129500D01*
X134300Y138800D02*
X149972D01*
X151000Y137772D01*
X126000Y170300D02*
X133000D01*
X158646Y252500D02*
X158800Y252346D01*
X148000Y252500D02*
X158646D01*
X137189D02*
X137343Y252346D01*
X130000Y252500D02*
X137189D01*
X121500Y173600D02*
X126200Y178300D01*
X131500D01*
X121400Y165700D02*
X126000Y170300D01*
X121400Y157800D02*
X122000D01*
X126500Y162300D01*
X136500D01*
X121500Y142000D02*
X121700D01*
X126000Y146300D01*
X352003Y219654D02*
X352157Y219500D01*
X293500Y225500D02*
X305928D01*
X257154Y262346D02*
X263000Y256500D01*
X264000Y252000D02*
X268500Y247500D01*
X278500Y237500D02*
X281000Y235000D01*
X245500Y262000D02*
Y267511D01*
X239000Y235000D02*
X244700D01*
X244700Y235000D01*
X237000Y230000D02*
X237000Y230000D01*
X244700D01*
X239500Y220000D02*
X244700D01*
X244700Y220000D01*
X223243Y240000D02*
X223243Y240000D01*
X259111Y254000D02*
X267000D01*
X332000Y240000D02*
X332346Y239654D01*
X329046Y234654D02*
X330546D01*
X301000Y236500D02*
Y240000D01*
Y236500D02*
X302500Y235000D01*
X347500Y232328D02*
Y232364D01*
X223243Y240000D02*
X225000D01*
X129800Y134300D02*
X134300Y138800D01*
X343000Y223000D02*
Y230500D01*
Y223000D02*
X346346Y219654D01*
X352003D01*
X121500Y181500D02*
X125800Y185800D01*
X134386D01*
X148572Y191500D02*
X164500D01*
X167000Y189000D01*
Y183772D02*
Y189000D01*
X158800Y237346D02*
X160654D01*
X163500Y234500D01*
Y225000D02*
Y234500D01*
X150536Y225500D02*
X152500Y227465D01*
X147000Y225500D02*
X150536D01*
X153500Y218500D02*
X158800Y223800D01*
Y232346D01*
X137343Y247346D02*
X144154D01*
X152500Y239000D01*
Y227465D02*
Y239000D01*
X137343Y242346D02*
X143654D01*
X150000Y236000D01*
X241354Y261146D02*
Y263857D01*
Y261146D02*
X250500Y252000D01*
X264000D01*
X249254Y263857D02*
X259111Y254000D01*
X245500Y262000D02*
X251000Y256500D01*
X142654Y174567D02*
X144567D01*
X152000Y182000D01*
Y183772D01*
X137343Y237346D02*
X139154D01*
X143500Y233000D01*
X217854Y263757D02*
X229000Y252611D01*
Y251500D02*
Y252611D01*
X348310Y234654D02*
X352003D01*
X347500Y232328D02*
X350174Y229654D01*
X352003D01*
X350346Y224654D02*
X352003D01*
X346500Y228500D02*
X350346Y224654D01*
X346500Y228500D02*
Y230500D01*
X345500Y231500D02*
X346500Y230500D01*
X284111Y260500D02*
X312000D01*
X329500Y239654D02*
X330546D01*
X312000Y260500D02*
X329500Y243000D01*
X233454Y271557D02*
X234943D01*
X237500Y269000D01*
X225000Y240000D02*
X229500D01*
D18*
X331500Y270549D02*
D03*
Y276651D02*
D03*
D19*
X253047Y239500D02*
D03*
X258953D02*
D03*
X146047Y166000D02*
D03*
X151953D02*
D03*
X312547Y239500D02*
D03*
X318453D02*
D03*
X141047Y210000D02*
D03*
X146953D02*
D03*
X351953Y246500D02*
D03*
X346047D02*
D03*
D20*
X128500Y238453D02*
D03*
Y232547D02*
D03*
D21*
X258854Y244500D02*
D03*
X253146D02*
D03*
X151854Y171000D02*
D03*
X146146D02*
D03*
X318354Y245000D02*
D03*
X312646D02*
D03*
X146854Y216500D02*
D03*
X141146D02*
D03*
X346146Y252000D02*
D03*
X351854D02*
D03*
D22*
X121700Y232300D02*
D03*
Y238009D02*
D03*
D23*
X331500Y281600D02*
D03*
Y288100D02*
D03*
D24*
X182000Y205228D02*
D03*
X177000D02*
D03*
X172000D02*
D03*
X167000D02*
D03*
X162000D02*
D03*
X157000D02*
D03*
X152000D02*
D03*
X147000D02*
D03*
X182000Y183772D02*
D03*
X177000D02*
D03*
X172000D02*
D03*
X167000D02*
D03*
X162000D02*
D03*
X157000D02*
D03*
X152000D02*
D03*
X147000D02*
D03*
X186000Y159228D02*
D03*
X181000D02*
D03*
X176000D02*
D03*
X171000D02*
D03*
X166000D02*
D03*
X161000D02*
D03*
X156000D02*
D03*
X151000D02*
D03*
X186000Y137772D02*
D03*
X181000D02*
D03*
X176000D02*
D03*
X171000D02*
D03*
X166000D02*
D03*
X161000D02*
D03*
X156000D02*
D03*
X151000D02*
D03*
D25*
X246457Y205000D02*
D03*
Y210000D02*
D03*
Y215000D02*
D03*
Y220000D02*
D03*
Y225000D02*
D03*
Y230000D02*
D03*
Y235000D02*
D03*
Y240000D02*
D03*
X225000Y205000D02*
D03*
Y210000D02*
D03*
Y215000D02*
D03*
Y220000D02*
D03*
Y225000D02*
D03*
Y230000D02*
D03*
Y235000D02*
D03*
Y240000D02*
D03*
X352003Y204654D02*
D03*
Y209654D02*
D03*
Y214654D02*
D03*
Y219654D02*
D03*
Y224654D02*
D03*
Y229654D02*
D03*
Y234654D02*
D03*
Y239654D02*
D03*
X330546Y204654D02*
D03*
Y209654D02*
D03*
Y214654D02*
D03*
Y219654D02*
D03*
Y224654D02*
D03*
Y229654D02*
D03*
Y234654D02*
D03*
Y239654D02*
D03*
X137343Y267346D02*
D03*
Y262346D02*
D03*
Y257346D02*
D03*
Y252346D02*
D03*
Y247346D02*
D03*
Y242346D02*
D03*
Y237346D02*
D03*
Y232346D02*
D03*
X158800Y267346D02*
D03*
Y262346D02*
D03*
Y257346D02*
D03*
Y252346D02*
D03*
Y247346D02*
D03*
Y242346D02*
D03*
Y237346D02*
D03*
Y232346D02*
D03*
X306428Y205000D02*
D03*
Y210000D02*
D03*
Y215000D02*
D03*
Y220000D02*
D03*
Y225000D02*
D03*
Y230000D02*
D03*
Y235000D02*
D03*
Y240000D02*
D03*
X284972Y205000D02*
D03*
Y210000D02*
D03*
Y215000D02*
D03*
Y220000D02*
D03*
Y225000D02*
D03*
Y230000D02*
D03*
Y235000D02*
D03*
Y240000D02*
D03*
D26*
X270500Y228999D02*
D03*
Y235692D02*
D03*
X161000Y130847D02*
D03*
Y124153D02*
D03*
X158000Y177000D02*
D03*
Y170307D02*
D03*
D27*
X215846Y229500D02*
D03*
X209154D02*
D03*
X321892Y220154D02*
D03*
X315199D02*
D03*
X166154Y242000D02*
D03*
X172846D02*
D03*
D44*
X331500Y270149D02*
X332151Y270800D01*
X350000D01*
X355100Y265700D01*
X282200Y146300D02*
X321500Y185600D01*
Y217762D01*
X270500Y229999D02*
X276000D01*
Y162500D02*
Y229999D01*
Y162500D02*
X282200Y156300D01*
X226400Y201000D02*
X271100Y156300D01*
X222000Y201000D02*
X226400D01*
X271100Y156300D02*
X272200D01*
X261000Y134300D02*
X272200Y145500D01*
X222900Y134300D02*
X261000D01*
X218000Y129400D02*
X222900Y134300D01*
X230900Y139400D02*
X255300D01*
X214700Y155600D02*
X230900Y139400D01*
X214700Y155600D02*
Y226805D01*
X255300Y139400D02*
X262200Y146300D01*
X272200Y145500D02*
Y146300D01*
X163995Y129400D02*
X218000D01*
X157000Y177000D02*
Y183772D01*
X214700Y226805D02*
X215846Y227951D01*
X158000Y177000D02*
X201000D01*
X157000D02*
X158000D01*
X241400Y146700D02*
X242900D01*
X276000Y229999D02*
X284971D01*
X284972Y230000D01*
X321500Y217762D02*
X321892Y218154D01*
D45*
X351854Y239803D02*
Y252000D01*
X252547Y240000D02*
X253047Y240500D01*
X268308Y234500D02*
X271000Y237192D01*
X224800Y118600D02*
Y129200D01*
X147000Y205228D02*
Y210833D01*
X346146Y246500D02*
Y251500D01*
X159000Y267346D02*
Y274000D01*
Y257546D02*
Y267346D01*
X331500Y276651D02*
Y281051D01*
X208500Y151600D02*
Y170299D01*
Y151600D02*
X209000Y151100D01*
X162200Y118600D02*
X166800D01*
X161000Y119800D02*
X162200Y118600D01*
X161000Y119800D02*
Y124153D01*
X312646Y239598D02*
Y245000D01*
X311946Y245700D02*
X312646Y245000D01*
X277397Y245800D02*
X311946D01*
X271000Y239303D02*
X277397Y245700D01*
X186000Y137772D02*
X192772D01*
X172000Y183772D02*
X177000D01*
X208500Y170299D02*
Y181354D01*
X166008Y170299D02*
X208500D01*
X253146Y240599D02*
Y244500D01*
X253047Y240500D02*
X253146Y240599D01*
X253047Y239500D02*
Y240500D01*
Y236867D02*
Y239500D01*
X255414Y234500D02*
X268308D01*
X253047Y236867D02*
X255414Y234500D01*
X271000Y237192D02*
Y239303D01*
X246457Y240000D02*
X252547D01*
X209154Y242653D02*
X212250Y245750D01*
X253026D01*
X146854Y211000D02*
X147000Y210854D01*
Y210833D02*
X155833D01*
X161500Y216500D01*
X166000Y170307D02*
X166008Y170299D01*
X158000Y170307D02*
X166000D01*
X151903Y166049D02*
Y170789D01*
X151974Y170719D01*
X151854Y170839D02*
X151903Y170789D01*
X157589Y170719D02*
X158000Y170307D01*
X151974Y170719D02*
X157589D01*
X151854Y170839D02*
Y171000D01*
X151903Y166049D02*
X151953Y166000D01*
X151000Y162000D02*
X151636Y162636D01*
Y165781D01*
X151854Y166000D01*
X151953D01*
X151000Y159228D02*
Y162000D01*
X208500Y181653D02*
Y216500D01*
X158800Y257346D02*
X159000Y257546D01*
X176000Y137772D02*
X181000D01*
X186000D01*
X182000Y183772D02*
X191772D01*
X177000D02*
X182000D01*
X330546Y214654D02*
Y215000D01*
Y209654D02*
Y214654D01*
Y204654D02*
Y209654D01*
X284972Y210000D02*
Y215000D01*
Y205000D02*
Y210000D01*
X225000D02*
Y215000D01*
Y205000D02*
Y210000D01*
X166750Y236250D02*
Y241404D01*
X128604Y232250D02*
X137248D01*
X128500Y232146D02*
X128604Y232250D01*
X128346Y232300D02*
X128500Y232146D01*
X121700Y232300D02*
X128346D01*
X137248Y232250D02*
X137343Y232346D01*
X141146Y211000D02*
Y216500D01*
X121700Y238009D02*
X121854Y237854D01*
X128500D01*
X341000Y251500D02*
X341000Y251500D01*
X352354Y251500D02*
X357000D01*
X351854Y252000D02*
X352354Y251500D01*
X351854Y239803D02*
X352003Y239654D01*
X147000Y210833D02*
Y210854D01*
X161500Y216500D02*
X186000D01*
X208500D02*
Y229346D01*
X202000Y216500D02*
X208500D01*
X209154Y229500D02*
Y242000D01*
Y242653D01*
X172846Y242000D02*
X209154D01*
X330546Y200183D02*
Y204654D01*
X284972Y200528D02*
Y205000D01*
X194000Y210500D02*
X203500Y201000D01*
X194000Y210500D02*
Y217500D01*
X166750Y236250D02*
X177500Y225500D01*
X186000D01*
X194000Y217500D01*
D46*
X363800Y224400D02*
X365100D01*
X359000D02*
X363800D01*
X141146Y210000D02*
Y211000D01*
X331200Y288400D02*
Y292500D01*
Y288400D02*
X331500Y288100D01*
X224800Y118300D02*
Y118600D01*
X312547Y239500D02*
X312646Y239598D01*
X313800Y227700D02*
X318800D01*
X313800Y221554D02*
X315199Y220154D01*
X313800Y221554D02*
Y227700D01*
X244750Y210050D02*
X266500D01*
X244700Y210000D02*
X244750Y210050D01*
X162549Y130847D02*
X163995Y129400D01*
X224700Y129200D02*
X224800D01*
X176000Y165500D02*
X176500Y166000D01*
X176000Y159228D02*
Y165500D01*
X166000Y149500D02*
Y159028D01*
X166100Y159128D01*
X166000Y159228D02*
X166100Y159128D01*
X199500Y263500D02*
Y276000D01*
X190500Y281000D02*
X194500D01*
X199500Y276000D01*
X148000Y289500D02*
X152500Y294000D01*
X177976D01*
X185500Y286476D01*
X158000Y289500D02*
X163000D01*
X172000Y280500D01*
Y263500D02*
Y280500D01*
X185500Y263800D02*
Y286476D01*
X327397Y229654D02*
X330546D01*
X326743Y229000D02*
X327397Y229654D01*
X326500Y229000D02*
X326743D01*
X321892Y224392D02*
X326500Y229000D01*
X306428Y210000D02*
X315000D01*
X300000D02*
X306428D01*
Y205000D02*
X315000D01*
X300000D02*
X306428D01*
X145846Y257346D02*
X145923Y257423D01*
X199600Y248900D02*
Y263500D01*
X137343Y262346D02*
X145846D01*
X185500Y263800D02*
X185800Y263500D01*
X256478Y215000D02*
X266500D01*
X246457D02*
X256478D01*
X246457Y205000D02*
X266000D01*
X330546Y224654D02*
X335654D01*
X346154Y214654D02*
X352003D01*
X306428Y215000D02*
X315000D01*
X216347Y230000D02*
X223243D01*
X215846Y229500D02*
X216347Y230000D01*
X199600Y248900D02*
X202000Y246500D01*
X165808Y242346D02*
X166154Y242000D01*
X158800Y242346D02*
X165808D01*
X171000Y146500D02*
Y159228D01*
X161000Y130847D02*
Y137772D01*
X121700Y238009D02*
Y243700D01*
X181000Y159228D02*
Y165500D01*
X186000Y159228D02*
Y165500D01*
X172000Y205228D02*
Y211000D01*
X177000Y205228D02*
Y211000D01*
X182000Y205228D02*
Y211000D01*
X137343Y257346D02*
X145846D01*
X300000Y205000D02*
X300000Y205000D01*
X346000Y209500D02*
X346154Y209654D01*
X352003D01*
X351657Y205000D02*
X352003Y204654D01*
X321892Y218154D02*
Y220154D01*
X166154Y242000D02*
X166750Y241404D01*
X182000Y197000D02*
Y205228D01*
X172000Y197500D02*
Y205228D01*
X346000Y205000D02*
X351657D01*
X177000Y197000D02*
Y205228D01*
X321892Y220154D02*
Y224392D01*
X161000Y130847D02*
X162549D01*
X215846Y227951D02*
Y229500D01*
D47*
X365100Y195100D02*
Y224400D01*
X288600Y118600D02*
X365100Y195100D01*
X365000Y225600D02*
Y258700D01*
X224800Y118600D02*
X288600Y118600D01*
X166800Y118600D02*
X224800D01*
D48*
X358000Y265700D02*
X365000Y258700D01*
X355100Y265700D02*
X358000D01*
D49*
X341000Y251500D02*
X346146D01*
X318453Y235547D02*
X318500Y235500D01*
X318453Y235547D02*
Y239500D01*
X318404Y239549D02*
X318453Y239500D01*
X318404Y239549D02*
Y244951D01*
X318354Y245000D02*
X318404Y244951D01*
X258854Y244500D02*
Y248354D01*
Y244500D02*
X258904Y244451D01*
Y239549D02*
Y244451D01*
Y239549D02*
X258953Y239500D01*
X121802Y226001D02*
X126280Y221524D01*
X121802Y226001D02*
Y232197D01*
X121700Y232300D02*
X121802Y232197D01*
X131440Y221524D02*
X144476D01*
X131440Y221524D02*
X131440Y221524D01*
X144476D02*
X146854Y219146D01*
Y216500D02*
Y219146D01*
Y211000D02*
Y216500D01*
X126280Y221524D02*
X131440D01*
X146096Y170951D02*
X146146Y171000D01*
X146096Y166049D02*
Y170951D01*
X146047Y166000D02*
X146096Y166049D01*
D50*
X357000Y251500D02*
X362700D01*
D51*
X266000Y205000D02*
X266300D01*
X264500Y221500D02*
Y227500D01*
Y221500D02*
X266000Y220000D01*
X266500D01*
X170900Y132700D02*
Y137672D01*
X171000Y137772D01*
X161000Y154300D02*
Y159228D01*
X186000Y132900D02*
Y137772D01*
X172000Y263500D02*
X189500Y246000D01*
X194000D02*
Y253500D01*
X185800Y261700D02*
X194000Y253500D01*
X185800Y261700D02*
Y263500D01*
X218500Y209000D02*
Y222500D01*
X249254Y271657D02*
X251843D01*
X199500Y263500D02*
X199600D01*
X256478Y215000D02*
X256500Y215022D01*
X237000Y215000D02*
X246457D01*
X346000Y214809D02*
X346154Y214654D01*
X346000Y214809D02*
Y215000D01*
X300000D02*
X306428D01*
X253500Y267411D02*
Y270000D01*
X251843Y271657D02*
X253500Y270000D01*
X141146Y205646D02*
Y210000D01*
X145846Y267346D02*
X146000Y267500D01*
X137343Y267346D02*
X145846D01*
X225000Y205000D02*
X230000D01*
X218500Y209000D02*
X219000D01*
X239500Y205000D02*
X246457D01*
X237000Y210000D02*
X246457D01*
X232500Y214500D02*
Y218000D01*
Y214500D02*
X237000Y210000D01*
X226510Y220000D02*
X229604Y223094D01*
X225000Y220000D02*
X226510D01*
X229604Y223094D02*
Y227396D01*
X229500Y227500D02*
X229604Y227396D01*
D52*
X339400Y229900D02*
X339700Y229600D01*
Y223200D02*
Y229600D01*
X336154Y219654D02*
X339700Y223200D01*
X335900Y226100D02*
Y232300D01*
Y226100D02*
X336500Y225500D01*
X330546Y219654D02*
X336154D01*
X335654Y224654D02*
X336500Y225500D01*
D53*
X306428Y240000D02*
X306625Y239803D01*
X312244D01*
X312547Y239500D01*
D54*
X345100Y265700D02*
D03*
X355100D02*
D03*
X282198Y146301D02*
D03*
Y156301D02*
D03*
X272198D02*
D03*
Y146301D02*
D03*
X262198D02*
D03*
Y156301D02*
D03*
X252198D02*
D03*
Y146301D02*
D03*
X242198D02*
D03*
Y156301D02*
D03*
X232198D02*
D03*
Y146301D02*
D03*
D55*
X355200Y112400D02*
D03*
X114500Y112600D02*
D03*
X355100Y285000D02*
D03*
X114400D02*
D03*
D56*
X199600Y263500D02*
D03*
X185800D02*
D03*
X172000D02*
D03*
D57*
X158000Y289500D02*
D03*
X148000D02*
D03*
X138000D02*
D03*
D58*
X296654Y263757D02*
D03*
X288754D02*
D03*
X272954D02*
D03*
X280854D02*
D03*
X265054D02*
D03*
X257154D02*
D03*
X241354Y263857D02*
D03*
X249254D02*
D03*
X233454Y263757D02*
D03*
X225554D02*
D03*
X217854D02*
D03*
Y271557D02*
D03*
X225554D02*
D03*
X233454D02*
D03*
X249254Y271657D02*
D03*
X241354D02*
D03*
X257154Y271557D02*
D03*
X265054D02*
D03*
X280854D02*
D03*
X272954D02*
D03*
X288754D02*
D03*
X296654D02*
D03*
X121500Y213100D02*
D03*
Y205200D02*
D03*
Y189400D02*
D03*
Y197300D02*
D03*
Y181500D02*
D03*
Y173600D02*
D03*
X121400Y157800D02*
D03*
Y165700D02*
D03*
X121500Y149900D02*
D03*
Y142000D02*
D03*
Y134300D02*
D03*
X129300D02*
D03*
Y142000D02*
D03*
Y149900D02*
D03*
X129200Y165700D02*
D03*
Y157800D02*
D03*
X129300Y173600D02*
D03*
Y181500D02*
D03*
Y197300D02*
D03*
Y189400D02*
D03*
Y205200D02*
D03*
Y213100D02*
D03*
D59*
X331200Y292500D02*
D03*
X318800Y227700D02*
D03*
X359000Y224400D02*
D03*
X266300Y205000D02*
D03*
X266500Y210050D02*
D03*
X279700Y219900D02*
D03*
X280000Y225000D02*
D03*
X170900Y132700D02*
D03*
X209000Y151100D02*
D03*
X224700Y129200D02*
D03*
X339400Y229900D02*
D03*
X335900Y232300D02*
D03*
X143500Y149800D02*
D03*
X166000Y149500D02*
D03*
X142912Y154363D02*
D03*
X161200Y154100D02*
D03*
X201000Y177000D02*
D03*
X186000Y132900D02*
D03*
X192772Y137772D02*
D03*
X276000Y252500D02*
D03*
X273500Y247500D02*
D03*
X280000Y242000D02*
D03*
X288000Y279500D02*
D03*
X280000Y276500D02*
D03*
X190500Y281000D02*
D03*
X318500Y235500D02*
D03*
X340500Y246500D02*
D03*
X237500Y266500D02*
D03*
X266500Y220000D02*
D03*
X176500Y166000D02*
D03*
X120000Y222500D02*
D03*
X121500Y218000D02*
D03*
X150000Y232000D02*
D03*
X258854Y248354D02*
D03*
X143500Y225500D02*
D03*
X136516Y225000D02*
D03*
X153500Y215000D02*
D03*
X145000Y160000D02*
D03*
X129500Y209000D02*
D03*
X145923Y257423D02*
D03*
X145846Y262346D02*
D03*
X346000Y215000D02*
D03*
X315000D02*
D03*
X300000Y220000D02*
D03*
X298500Y230500D02*
D03*
X288500Y250000D02*
D03*
X293000Y250500D02*
D03*
X239500Y205000D02*
D03*
X237000Y215000D02*
D03*
X253000Y225000D02*
D03*
X143129Y177871D02*
D03*
X137000Y228000D02*
D03*
X130000D02*
D03*
X153500Y218500D02*
D03*
X141146Y205646D02*
D03*
X143000Y201000D02*
D03*
X129300Y200300D02*
D03*
X125500Y205000D02*
D03*
X136765Y217500D02*
D03*
X133000Y190000D02*
D03*
X153500Y189000D02*
D03*
X147000Y225500D02*
D03*
X133100Y213100D02*
D03*
X130000Y225000D02*
D03*
X171000Y146500D02*
D03*
X143300Y146300D02*
D03*
X153500Y129500D02*
D03*
X203500Y201000D02*
D03*
X151000Y246500D02*
D03*
X148000Y252500D02*
D03*
X130000D02*
D03*
X133000Y175800D02*
D03*
X301000Y240000D02*
D03*
X293500Y225500D02*
D03*
X263000Y256500D02*
D03*
X268500Y247500D02*
D03*
X278500Y237500D02*
D03*
X253500Y267411D02*
D03*
X264500Y227500D02*
D03*
X237311Y252000D02*
D03*
X239000Y235000D02*
D03*
X237000Y230000D02*
D03*
X239500Y220000D02*
D03*
X229000Y251500D02*
D03*
X217854Y252146D02*
D03*
X248000Y249500D02*
D03*
X121700Y243700D02*
D03*
X341000Y251500D02*
D03*
X343000Y230500D02*
D03*
X186000Y216500D02*
D03*
X202000D02*
D03*
X284972Y200528D02*
D03*
X330546Y200183D02*
D03*
X172000Y197500D02*
D03*
X181000Y165500D02*
D03*
X177000Y197000D02*
D03*
X186000Y165500D02*
D03*
X182000Y197000D02*
D03*
X191772Y183772D02*
D03*
X172000Y211000D02*
D03*
X177000D02*
D03*
X182000D02*
D03*
X146000Y267500D02*
D03*
X159000Y274000D02*
D03*
X189500Y246000D02*
D03*
X194000D02*
D03*
X202000Y246500D02*
D03*
X222000Y201000D02*
D03*
X230000Y205000D02*
D03*
X218500Y222500D02*
D03*
X219000Y209000D02*
D03*
X266500Y215000D02*
D03*
X300000D02*
D03*
X300000Y205000D02*
D03*
X315000Y205000D02*
D03*
X346000D02*
D03*
Y209500D02*
D03*
X315000Y210000D02*
D03*
X232500Y218000D02*
D03*
X300000Y210000D02*
D03*
X251000Y256500D02*
D03*
X229000Y266500D02*
D03*
X229500Y240000D02*
D03*
Y227500D02*
D03*
M02*
