G04*
G04 #@! TF.GenerationSoftware,Altium Limited,Altium Designer,18.1.11 (251)*
G04*
G04 Layer_Physical_Order=1*
G04 Layer_Color=255*
%FSLAX25Y25*%
%MOIN*%
G70*
G01*
G75*
%ADD10C,0.01000*%
%ADD15C,0.03937*%
%ADD16R,0.03740X0.04134*%
%ADD17R,0.03150X0.04724*%
%ADD18R,0.05118X0.08465*%
%ADD19R,0.06102X0.04724*%
%ADD20R,0.04724X0.06102*%
%ADD21R,0.03150X0.03150*%
%ADD22O,0.02165X0.06693*%
%ADD23O,0.06693X0.02165*%
%ADD24R,0.14961X0.07087*%
%ADD25R,0.09843X0.03937*%
%ADD26R,0.04134X0.03937*%
%ADD27R,0.03347X0.03543*%
%ADD28R,0.03150X0.03150*%
%ADD49C,0.02500*%
%ADD50C,0.03500*%
%ADD51C,0.02953*%
%ADD52C,0.01575*%
%ADD53C,0.02000*%
%ADD54C,0.03937*%
%ADD55C,0.01968*%
%ADD56C,0.01500*%
%ADD57C,0.05906*%
%ADD58C,0.04331*%
%ADD59C,0.05512*%
%ADD60C,0.05118*%
%ADD61C,0.16535*%
%ADD62C,0.02362*%
D10*
X355500Y270100D02*
X363400Y262200D01*
X348917Y297638D02*
Y301283D01*
X340800Y309400D02*
X348917Y301283D01*
X270300Y308400D02*
Y317000D01*
Y308400D02*
X270400Y308300D01*
X246555Y317555D02*
X250500Y321500D01*
X246555Y297745D02*
Y317555D01*
Y297745D02*
X263900Y280400D01*
X214800Y292500D02*
X215235Y292935D01*
Y317006D02*
X218900Y320672D01*
X215235Y292935D02*
Y317006D01*
X218900Y320672D02*
Y321500D01*
X77498Y147600D02*
Y158902D01*
X73600Y162800D02*
X77498Y158902D01*
X336400Y256004D02*
Y266100D01*
X142800Y142007D02*
X143000Y141807D01*
X139961Y135138D02*
X143000Y138177D01*
X122462Y135138D02*
X139961D01*
X94800Y162800D02*
X122462Y135138D01*
X143000Y138177D02*
Y141807D01*
X86300Y158900D02*
X86400Y158800D01*
Y158100D02*
X117400Y127100D01*
X86400Y158100D02*
Y158800D01*
X117400Y127100D02*
X146500D01*
X137807Y173700D02*
X137900Y173793D01*
X142900Y199000D02*
Y210407D01*
X142800Y142007D02*
X142900Y142107D01*
X157900Y105493D02*
Y110400D01*
X152900Y202400D02*
Y210407D01*
X87900Y147500D02*
X91000D01*
X157900Y132000D02*
Y142107D01*
X73600Y170700D02*
X77500Y166800D01*
X91400D01*
X81400Y162800D02*
X94800D01*
X91700Y166500D02*
Y166900D01*
X81400Y170700D02*
X86500D01*
X152900Y133500D02*
Y142107D01*
X147900Y134700D02*
Y142107D01*
X73500Y178600D02*
X77500Y182600D01*
X118100D01*
X73500Y186500D02*
X77500Y190500D01*
X138300Y194400D02*
X142900Y199000D01*
X81400Y194400D02*
X138300D01*
X158000Y197800D02*
Y210307D01*
X157900Y210407D02*
X158000Y210307D01*
X81400Y210200D02*
X89600D01*
X89800Y210000D01*
X91500Y221300D02*
X92500Y222300D01*
X113300D01*
X136000Y245000D01*
X141800D01*
X142900Y243900D01*
Y237393D02*
Y243900D01*
X373107Y250000D02*
X380100D01*
X390500Y260400D01*
Y262900D01*
X290000Y321500D02*
X345300D01*
X353200Y313600D01*
X361500Y270000D02*
X367500Y264000D01*
Y246800D02*
Y264000D01*
Y246800D02*
X369100Y245200D01*
X372907D01*
X373107Y245000D01*
X282100Y321500D02*
X286100Y317500D01*
Y311900D02*
Y317500D01*
Y311900D02*
X288600Y309400D01*
X340800D01*
X290000Y313700D02*
X341700D01*
X353150Y302250D01*
X363400Y244500D02*
X367900Y240000D01*
X373107D01*
X282100Y311700D02*
Y313700D01*
X274200D02*
X285000Y302900D01*
X332500D01*
X335900Y299500D01*
Y282700D02*
Y299500D01*
X266300Y320400D02*
Y321500D01*
X262500Y316600D02*
X266300Y320400D01*
X274200Y320900D02*
Y321500D01*
X270300Y317000D02*
X274200Y320900D01*
X266300Y307100D02*
Y313700D01*
X336493Y240000D02*
X336693Y239800D01*
X343500Y268600D02*
Y269400D01*
Y268600D02*
X347300Y264800D01*
X339300Y298500D02*
X339900Y297900D01*
X336493Y250000D02*
X336693Y249800D01*
X339900Y283000D02*
Y297900D01*
Y283000D02*
X340000Y282900D01*
Y282500D02*
Y282900D01*
Y267900D02*
Y269100D01*
Y267900D02*
X343800Y264100D01*
X336693Y249800D02*
X341100D01*
X343800Y252500D01*
Y264100D01*
X254600Y317700D02*
X258400Y321500D01*
X305900Y270500D02*
X306000Y270400D01*
Y251200D02*
Y270400D01*
Y251200D02*
X307100Y250100D01*
X311407D01*
X311507Y250000D01*
X262500Y306400D02*
Y316600D01*
X301600Y249100D02*
Y270600D01*
Y249100D02*
X305700Y245000D01*
X311507D01*
X258400Y304600D02*
Y313700D01*
Y304600D02*
X267100Y295900D01*
X254600Y302700D02*
Y317700D01*
Y302700D02*
X266600Y290700D01*
X301400D01*
X311307Y240200D02*
X311507Y240000D01*
X297300Y249500D02*
Y270500D01*
Y249500D02*
X306600Y240200D01*
X311307D01*
X306000Y235000D02*
X311507D01*
X274600Y262100D02*
X274893Y261807D01*
Y255000D02*
Y261807D01*
Y250000D02*
X277700D01*
X280100Y252400D01*
Y261800D01*
X279400Y262500D02*
X280100Y261800D01*
X234700Y320100D02*
Y321600D01*
X230900Y316300D02*
X234700Y320100D01*
X242600Y321300D02*
Y321600D01*
X238700Y317400D02*
X242600Y321300D01*
X238700Y301100D02*
Y317400D01*
X274993Y235100D02*
X289700D01*
X274893Y235000D02*
X274993Y235100D01*
X274893Y240000D02*
X284400D01*
X242600Y286400D02*
Y313800D01*
X240500Y269600D02*
X240800Y269300D01*
Y254400D02*
Y269300D01*
Y254400D02*
X245200Y250000D01*
X248407D01*
X218900Y281400D02*
Y313700D01*
Y281400D02*
X220800Y279500D01*
X240200D01*
X223100Y317800D02*
X226800Y321500D01*
Y292500D02*
Y313700D01*
X236200Y253300D02*
Y269900D01*
Y253300D02*
X244500Y245000D01*
X248407D01*
X231100Y251700D02*
Y269900D01*
Y251700D02*
X242900Y239900D01*
X248307D01*
X248407Y240000D01*
X240500Y235000D02*
X248407D01*
X211200Y279400D02*
Y313700D01*
Y279400D02*
X211500Y279100D01*
X211400Y255393D02*
Y268700D01*
Y255393D02*
X211793Y255000D01*
X211200Y320300D02*
Y321500D01*
X220800Y237400D02*
Y268500D01*
X218400Y235000D02*
X220800Y237400D01*
X211793Y235000D02*
X218400D01*
X157900Y237393D02*
Y244400D01*
X149800Y252500D02*
X157900Y244400D01*
X127700Y252500D02*
X149800D01*
X103800Y228600D02*
X127700Y252500D01*
X100700Y225600D02*
X108300D01*
X131000Y248300D01*
X148100D01*
X152900Y243500D01*
Y237393D02*
Y243500D01*
X139200Y266100D02*
X142900Y269800D01*
Y274007D01*
X73600Y226000D02*
X74300D01*
X91000Y235900D02*
X91500D01*
X121500Y255900D02*
X147200D01*
X157900Y266600D01*
Y274007D01*
X81400Y233900D02*
X82000D01*
X88300Y240200D01*
X91700D01*
X101800Y240500D02*
X121000Y259700D01*
X144100D01*
X152900Y268500D01*
Y274007D01*
X73600Y233900D02*
X84400Y244700D01*
X102100Y245200D02*
X119800Y262900D01*
X141600D01*
X147900Y269200D01*
Y274007D01*
X73600Y210200D02*
X77400Y214000D01*
X96300D01*
X73600Y202300D02*
X77400Y206100D01*
X147900Y210407D02*
X148000Y210307D01*
Y203600D02*
Y210307D01*
X81400Y202300D02*
X82200Y201500D01*
X119200D01*
X73600Y194400D02*
X77600Y198400D01*
X118600D01*
X119200Y197800D01*
X77400Y206100D02*
X118600D01*
X147900Y163247D02*
X148000Y163146D01*
X207100Y316200D02*
X211200Y320300D01*
X207100Y292500D02*
Y316200D01*
X135493Y237393D02*
X137900D01*
X81400Y218100D02*
X116200D01*
X135493Y237393D01*
X351300Y270000D02*
X359200Y262100D01*
Y241500D02*
Y262100D01*
Y241500D02*
X365700Y235000D01*
X373107D01*
X336493D02*
X342100D01*
X351500Y244400D01*
X336693Y239800D02*
X341700D01*
X347300Y245400D01*
Y264800D01*
X262500Y306400D02*
X274100Y294800D01*
X322200D01*
X327700Y289300D01*
X266300Y307100D02*
X275100Y298300D01*
X329200D01*
X263900Y280400D02*
X293100Y280600D01*
X250500Y300400D02*
Y313700D01*
Y300400D02*
X263200Y287700D01*
X305800D01*
X230900Y307500D02*
Y316300D01*
Y307500D02*
X230950Y307450D01*
X234700Y293700D02*
Y313800D01*
X223100Y291400D02*
Y317800D01*
Y291400D02*
X226300Y288200D01*
X234500D01*
X226800Y292500D02*
X227100Y292200D01*
X234700Y292500D02*
Y293700D01*
X226700Y248800D02*
X240500Y235000D01*
X226700Y248800D02*
Y269700D01*
X292900Y248100D02*
X306000Y235000D01*
X292900Y248100D02*
Y269500D01*
X363400Y244500D02*
Y262200D01*
X347400Y269300D02*
X351500Y265200D01*
Y244400D02*
Y265200D01*
X118600Y206100D02*
X119600Y205100D01*
X84400Y244700D02*
X91700D01*
X91900D01*
X91000Y147500D02*
X116200Y122300D01*
X148200D01*
X157900Y132000D01*
X146500Y127100D02*
X152900Y133500D01*
X91600Y158900D02*
X119100Y131400D01*
X144600D01*
X147900Y134700D01*
X91400Y166800D02*
X91700Y166500D01*
X81400Y142800D02*
Y155100D01*
X74300Y226000D02*
X78300Y230000D01*
X85100D01*
X91000Y235900D01*
X101400Y235800D02*
X121500Y255900D01*
X93000Y228600D02*
X103800D01*
X81400Y226000D02*
X82300Y226900D01*
X87500D01*
X97100Y236500D01*
X73600Y218100D02*
X77700Y222200D01*
X86600D01*
X93000Y228600D01*
X97100Y236500D02*
Y245100D01*
X118100Y266100D01*
X139200D01*
X129100Y182200D02*
X140100D01*
X129100Y186100D02*
X146700D01*
X152900Y179900D01*
Y173793D02*
Y179900D01*
X81300Y186500D02*
X119400D01*
X132200Y173700D01*
X137807D01*
X81300Y178600D02*
X81600Y178300D01*
X117600D01*
X140100Y182200D02*
X142900Y179400D01*
Y173793D02*
Y179400D01*
X77500Y190500D02*
X148800D01*
X157900Y181400D01*
Y173793D02*
Y181400D01*
X112900Y117700D02*
X150600D01*
X157900Y110400D01*
X94950Y135650D02*
X112900Y117700D01*
X81400Y142800D02*
X110800Y113400D01*
X135100D01*
X137900Y110600D01*
Y105493D02*
Y110600D01*
X73600Y142600D02*
Y155100D01*
Y142600D02*
X75800Y140400D01*
X76100D01*
X282100Y311700D02*
X287700Y306100D01*
X336400D01*
X338500D01*
X345000Y299600D01*
Y295300D02*
Y299600D01*
Y295300D02*
X357200Y283100D01*
X366200D01*
D15*
X200400Y293500D02*
D03*
X393800Y299900D02*
D03*
D16*
X137554Y155400D02*
D03*
X131846D02*
D03*
X248646Y266700D02*
D03*
X254354D02*
D03*
X137854Y224100D02*
D03*
X132146D02*
D03*
X311646Y267900D02*
D03*
X317354D02*
D03*
X137554Y289600D02*
D03*
X131846D02*
D03*
X373646Y266600D02*
D03*
X379354D02*
D03*
D17*
X173100Y314500D02*
D03*
X168200D02*
D03*
X163300D02*
D03*
D18*
X180600Y323500D02*
D03*
X155400D02*
D03*
D19*
X147800Y89153D02*
D03*
Y95846D02*
D03*
X148000Y156454D02*
D03*
Y163146D02*
D03*
X265200Y251700D02*
D03*
Y245007D02*
D03*
X147900Y223607D02*
D03*
Y230300D02*
D03*
X328300Y252147D02*
D03*
Y245454D02*
D03*
D20*
X193454Y244800D02*
D03*
X200147D02*
D03*
D21*
X358465Y300193D02*
D03*
Y306693D02*
D03*
D22*
X137900Y173793D02*
D03*
X142900D02*
D03*
X147900D02*
D03*
X152900D02*
D03*
X157900D02*
D03*
X162900D02*
D03*
X167900D02*
D03*
X172900D02*
D03*
X137900Y210407D02*
D03*
X142900D02*
D03*
X147900D02*
D03*
X152900D02*
D03*
X157900D02*
D03*
X162900D02*
D03*
X167900D02*
D03*
X172900D02*
D03*
X137900Y105493D02*
D03*
X142900D02*
D03*
X147900D02*
D03*
X152900D02*
D03*
X157900D02*
D03*
X162900D02*
D03*
X167900D02*
D03*
X172900D02*
D03*
X137900Y142107D02*
D03*
X142900D02*
D03*
X147900D02*
D03*
X152900D02*
D03*
X157900D02*
D03*
X162900D02*
D03*
X167900D02*
D03*
X172900D02*
D03*
X137900Y237393D02*
D03*
X142900D02*
D03*
X147900D02*
D03*
X152900D02*
D03*
X157900D02*
D03*
X162900D02*
D03*
X167900D02*
D03*
X172900D02*
D03*
X137900Y274007D02*
D03*
X142900D02*
D03*
X147900D02*
D03*
X152900D02*
D03*
X157900D02*
D03*
X162900D02*
D03*
X167900D02*
D03*
X172900D02*
D03*
D23*
X211793Y255000D02*
D03*
Y250000D02*
D03*
Y245000D02*
D03*
Y240000D02*
D03*
Y235000D02*
D03*
Y230000D02*
D03*
Y225000D02*
D03*
Y220000D02*
D03*
X248407Y255000D02*
D03*
Y250000D02*
D03*
Y245000D02*
D03*
Y240000D02*
D03*
Y235000D02*
D03*
Y230000D02*
D03*
Y225000D02*
D03*
Y220000D02*
D03*
X274893Y255000D02*
D03*
Y250000D02*
D03*
Y245000D02*
D03*
Y240000D02*
D03*
Y235000D02*
D03*
Y230000D02*
D03*
Y225000D02*
D03*
Y220000D02*
D03*
X311507Y255000D02*
D03*
Y250000D02*
D03*
Y245000D02*
D03*
Y240000D02*
D03*
Y235000D02*
D03*
Y230000D02*
D03*
Y225000D02*
D03*
Y220000D02*
D03*
X336493Y255000D02*
D03*
Y250000D02*
D03*
Y245000D02*
D03*
Y240000D02*
D03*
Y235000D02*
D03*
Y230000D02*
D03*
Y225000D02*
D03*
Y220000D02*
D03*
X373107Y255000D02*
D03*
Y250000D02*
D03*
Y245000D02*
D03*
Y240000D02*
D03*
Y235000D02*
D03*
Y230000D02*
D03*
Y225000D02*
D03*
Y220000D02*
D03*
D24*
X389424Y163946D02*
D03*
Y105446D02*
D03*
D25*
X373024Y154446D02*
D03*
Y146546D02*
D03*
Y138646D02*
D03*
Y130746D02*
D03*
Y122846D02*
D03*
Y114946D02*
D03*
D26*
X131747Y149400D02*
D03*
X137653D02*
D03*
X254353Y261500D02*
D03*
X248447D02*
D03*
X131847Y217700D02*
D03*
X137753D02*
D03*
X317453Y262200D02*
D03*
X311547D02*
D03*
X131847Y283100D02*
D03*
X137753D02*
D03*
X379353Y260900D02*
D03*
X373447D02*
D03*
D27*
X358449Y294390D02*
D03*
X364551D02*
D03*
X352658Y177657D02*
D03*
X346555D02*
D03*
X352658Y185630D02*
D03*
X346555D02*
D03*
X352658Y193602D02*
D03*
X346555D02*
D03*
D28*
X360823Y193824D02*
D03*
X367323D02*
D03*
X360823Y185852D02*
D03*
X367323D02*
D03*
X360823Y177880D02*
D03*
X367323D02*
D03*
D49*
X279753Y181300D02*
X281594D01*
X276575Y174507D02*
Y178121D01*
X276548Y174481D02*
X276575Y174507D01*
X276548Y170497D02*
Y174481D01*
Y170497D02*
X276575Y170471D01*
Y168405D02*
Y170471D01*
Y168405D02*
X280794Y164187D01*
X276575Y178121D02*
X279753Y181300D01*
X275752Y177298D02*
X276575Y178121D01*
X223802Y177298D02*
X275752D01*
X207100Y194000D02*
X223802Y177298D01*
X280794Y164187D02*
X287513D01*
X290600Y161100D01*
X345571Y185630D02*
X346555D01*
X341043Y190157D02*
X345571Y185630D01*
X341043Y190157D02*
Y196063D01*
X353051Y208071D01*
X342028Y177756D02*
X345965D01*
X335335Y184449D02*
X342028Y177756D01*
X335335Y184449D02*
Y197638D01*
X381600Y302900D02*
X390800D01*
X393800Y299900D01*
X373200Y294500D02*
X381600Y302900D01*
X147900Y230300D02*
X177300D01*
X207100Y194000D02*
Y194200D01*
X289800Y190100D02*
X306500Y173400D01*
X378346Y225000D02*
X381693Y221654D01*
X373107Y230000D02*
X379055D01*
X388583Y220472D01*
Y213189D02*
Y220472D01*
X350984Y213287D02*
X369587D01*
X335335Y197638D02*
X350984Y213287D01*
X381693Y207776D02*
Y221654D01*
X353051Y208071D02*
X369488D01*
X352658Y177657D02*
X360823D01*
X352658Y185630D02*
X360823D01*
X352658Y193602D02*
X360823D01*
X367323Y181866D02*
X373204D01*
X367323Y189838D02*
X373204D01*
D50*
X358449Y300177D02*
X358465Y300193D01*
X358449Y294390D02*
Y300177D01*
D51*
X292600Y133500D02*
X342400D01*
X260925Y190400D02*
Y214525D01*
X291594Y171300D02*
X296100Y166794D01*
X281594Y171300D02*
X291594D01*
X148000Y163146D02*
X184800D01*
X277600Y161500D02*
X286600Y152500D01*
X200200Y189900D02*
Y244900D01*
X271594Y163094D02*
Y171300D01*
X379354Y266600D02*
X382204Y263751D01*
X317453Y262200D02*
X320502Y265249D01*
X254354Y266700D02*
X257005Y264049D01*
X254456Y261500D02*
X257005Y264049D01*
X382202Y263749D02*
X384349D01*
X379353Y260900D02*
X382202Y263749D01*
X320005Y265249D02*
X320502D01*
X322649D01*
X317354Y267900D02*
X320005Y265249D01*
X257005Y264049D02*
X259649D01*
X254353Y261500D02*
X254456D01*
X128747Y152400D02*
X128846D01*
X126800D02*
X128747D01*
X131747Y149400D01*
X128846Y152400D02*
X131846Y155400D01*
X128296Y221251D02*
X129297D01*
X127151D02*
X128296D01*
X131847Y217700D01*
X129297Y221251D02*
X132146Y224100D01*
X128596Y286351D02*
X131847Y283100D01*
X127051Y286351D02*
X128596D01*
X131846Y289600D01*
X147900Y163247D02*
Y173793D01*
X265207Y245000D02*
X274893D01*
X147900Y230300D02*
Y237393D01*
X147800Y95846D02*
Y105393D01*
Y95846D02*
X184653D01*
X328300Y245454D02*
X328753Y245000D01*
X336493D01*
X200200Y244900D02*
X211693D01*
X265207Y218807D02*
Y245000D01*
X200200Y189900D02*
X228600Y161500D01*
X270000D01*
X277600D01*
X360300Y306700D02*
X369000D01*
X297200Y141800D02*
X342300D01*
X292600Y146400D02*
X297200Y141800D01*
X301300Y150000D02*
X342200D01*
X306500Y173400D02*
X342400D01*
X361354Y154446D01*
X373024D01*
X342500Y165500D02*
X361454Y146546D01*
X373024D01*
X361254Y138646D02*
X373024D01*
X342200Y150000D02*
X361454Y130746D01*
X373024D01*
X342300Y141800D02*
X361254Y122846D01*
X373024D01*
X342400Y133500D02*
X360954Y114946D01*
X373024D01*
X296100Y156435D02*
Y166794D01*
X306153Y165500D02*
X342500D01*
X280266Y191388D02*
X280277Y191377D01*
X306153Y165500D01*
X280277Y191377D02*
X295400Y206500D01*
X260925Y214525D02*
X265207Y218807D01*
X299627Y151673D02*
X301300Y150000D01*
X299606Y151673D02*
X299627D01*
X295400Y206500D02*
X316539D01*
X328300Y218261D01*
Y245454D01*
X270943Y182043D02*
X280277Y191377D01*
X264900Y147900D02*
X287565D01*
X296100Y156435D01*
X297660Y156890D02*
X343010D01*
X361254Y138646D01*
D52*
X168000Y313400D02*
X168750Y314150D01*
X127457Y316043D02*
X157262D01*
X159919Y318700D01*
X165100D01*
X159474Y314100D02*
X162900D01*
X157283Y311910D02*
X159474Y314100D01*
X119691Y311910D02*
X157283D01*
X114300Y317300D02*
X119691Y311910D01*
X124300Y319200D02*
X127457Y316043D01*
X167900Y274007D02*
Y281100D01*
X162900Y274007D02*
Y281100D01*
X172900Y274007D02*
Y281100D01*
Y181600D02*
Y210407D01*
Y217200D01*
Y148900D02*
Y150600D01*
Y264100D02*
Y274007D01*
X167900Y181600D02*
Y210407D01*
Y148900D02*
Y150600D01*
Y210407D02*
Y217200D01*
Y264100D02*
Y274007D01*
X162900Y181600D02*
Y210407D01*
Y148900D02*
Y150600D01*
Y210407D02*
Y217200D01*
Y264100D02*
Y274007D01*
X114300Y317300D02*
Y321900D01*
X167900Y315500D02*
X168100Y315300D01*
X124300Y319200D02*
Y321900D01*
X134300D02*
X144800D01*
X173100Y314500D02*
X173300Y314700D01*
Y319300D01*
X167900Y315500D02*
Y315900D01*
X170700Y321900D02*
X173300Y319300D01*
X163400Y321900D02*
X170700D01*
X163300Y322000D02*
X163400Y321900D01*
X165100Y318700D02*
X167900Y315900D01*
D53*
X270000Y161500D02*
X271594Y163094D01*
X173100Y295800D02*
X176900Y299600D01*
X167900Y173793D02*
X168100Y173993D01*
X211693Y244900D02*
X211793Y245000D01*
X172900Y142107D02*
Y148900D01*
X167900Y142107D02*
Y148900D01*
X162900Y142107D02*
Y148900D01*
X228300Y225000D02*
X248407D01*
X228300Y220000D02*
X248407D01*
X228300Y230000D02*
X248407D01*
Y225000D02*
X259000D01*
X259300Y225300D01*
X311507Y225000D02*
X320300D01*
X288100D02*
X311507D01*
X349000D02*
X373107D01*
X248407Y220000D02*
X259000D01*
X259300Y220300D01*
X311507Y220000D02*
X320300D01*
X288100D02*
X311507D01*
X349000D02*
X373107D01*
X248407Y230000D02*
X259000D01*
X259300Y230300D01*
X311507Y230000D02*
X320300D01*
X288100D02*
X311507D01*
X349000D02*
X373107D01*
X173100Y314500D02*
X174100Y313500D01*
X172800Y313600D02*
X179400D01*
X180600Y312400D01*
Y297300D02*
Y312400D01*
X179100Y295800D02*
X180600Y297300D01*
X176900Y299600D02*
Y313500D01*
X174100D02*
X176900D01*
X168850Y302100D02*
Y314550D01*
Y302100D02*
X172800D01*
X286400Y152500D02*
X286600D01*
X159300Y306900D02*
X159500Y307100D01*
X162900D01*
D54*
X373300Y266600D02*
Y275300D01*
X248407Y266700D02*
Y274493D01*
X373300Y260900D02*
Y266600D01*
Y275300D02*
Y294500D01*
X311507Y262200D02*
Y267900D01*
Y275207D01*
X248407Y261500D02*
Y266700D01*
X193100Y244800D02*
Y260718D01*
Y119587D02*
Y155400D01*
X137900Y217700D02*
Y224054D01*
Y149400D02*
Y155054D01*
X147900Y224100D02*
X193100D01*
X137554Y283100D02*
Y289600D01*
X148000Y155400D02*
X193100D01*
X367323Y189838D02*
Y193824D01*
Y185852D02*
Y189838D01*
X208100Y275000D02*
X247900D01*
X207382D02*
X208100D01*
X373300Y255193D02*
Y260900D01*
X311507Y255000D02*
Y262200D01*
X248407Y255000D02*
Y261500D01*
X193100Y224100D02*
Y244800D01*
X137854Y224100D02*
X147900D01*
X137554Y274353D02*
Y283100D01*
Y155400D02*
X148000D01*
X137900Y210407D02*
Y217700D01*
Y142107D02*
Y149400D01*
X193100Y260718D02*
X207382Y275000D01*
X373107Y255000D02*
X373300Y255193D01*
X311507Y275207D02*
X311600Y275300D01*
X247900Y275000D02*
X248107Y275207D01*
X139254Y291300D02*
X191800D01*
X137554Y289600D02*
X139254Y291300D01*
X194800Y288300D02*
X208100Y275000D01*
X366551Y294500D02*
X373200D01*
X366451Y294400D02*
X366551Y294500D01*
X248107Y275207D02*
X264900D01*
X311507D01*
X265200Y251700D02*
Y274907D01*
X264900Y275207D02*
X265200Y274907D01*
X328300Y252147D02*
Y275300D01*
X311600D02*
X328300D01*
X372500D01*
X336400Y215000D02*
X336493Y215093D01*
Y220000D01*
Y225000D01*
Y230000D01*
X274893Y225000D02*
Y230000D01*
Y220000D02*
Y225000D01*
Y215093D02*
Y220000D01*
X211793Y225000D02*
Y230000D01*
Y220000D02*
Y225000D01*
Y215093D02*
Y220000D01*
X162900Y237393D02*
X167900D01*
X172900D01*
X177807D01*
X162900Y173793D02*
X167900D01*
X172900D01*
X177807D01*
X162900Y105493D02*
X167900D01*
X172900D01*
X177807D01*
X190253Y89153D02*
X193100Y92000D01*
X147800Y89153D02*
X190253D01*
X137854Y224100D02*
X137900Y224054D01*
X195200Y288300D02*
X200400Y293500D01*
X194800Y288300D02*
X195200D01*
X191800Y291300D02*
X194800Y288300D01*
X193100Y92000D02*
Y119587D01*
Y155400D02*
Y224100D01*
X137554Y155400D02*
X137900Y155054D01*
X367323Y177880D02*
Y181866D01*
Y185852D01*
X247900Y275000D02*
X248407Y274493D01*
D55*
X346654Y193110D02*
Y194685D01*
X373107Y206178D02*
Y220000D01*
X370079Y203150D02*
X373107Y206178D01*
X355118Y203150D02*
X370079D01*
X346654Y194685D02*
X355118Y203150D01*
X168000Y295800D02*
Y313400D01*
X162900Y295800D02*
Y314100D01*
X373107Y225000D02*
X378346D01*
X381594Y207677D02*
X381693Y207776D01*
D56*
X147800Y105393D02*
X147900Y105493D01*
X184653Y95846D02*
X184700Y95800D01*
D57*
X373298Y294402D02*
D03*
X383298D02*
D03*
D58*
X73600Y233900D02*
D03*
Y226000D02*
D03*
Y210200D02*
D03*
Y218100D02*
D03*
Y202300D02*
D03*
Y194400D02*
D03*
X73500Y178600D02*
D03*
Y186500D02*
D03*
X73600Y170700D02*
D03*
Y162800D02*
D03*
Y155100D02*
D03*
X81400D02*
D03*
Y162800D02*
D03*
Y170700D02*
D03*
X81300Y186500D02*
D03*
Y178600D02*
D03*
X81400Y194400D02*
D03*
Y202300D02*
D03*
Y218100D02*
D03*
Y210200D02*
D03*
Y226000D02*
D03*
Y233900D02*
D03*
X290000Y321500D02*
D03*
X282100D02*
D03*
X266300D02*
D03*
X274200D02*
D03*
X258400D02*
D03*
X250500D02*
D03*
X234700Y321600D02*
D03*
X242600D02*
D03*
X226800Y321500D02*
D03*
X218900D02*
D03*
X211200D02*
D03*
Y313700D02*
D03*
X218900D02*
D03*
X226800D02*
D03*
X242600Y313800D02*
D03*
X234700D02*
D03*
X250500Y313700D02*
D03*
X258400D02*
D03*
X274200D02*
D03*
X266300D02*
D03*
X282100D02*
D03*
X290000D02*
D03*
D59*
X114343Y321900D02*
D03*
X124343D02*
D03*
X134343D02*
D03*
D60*
X231358Y172489D02*
D03*
Y182489D02*
D03*
X241357D02*
D03*
Y172489D02*
D03*
X251358D02*
D03*
Y182489D02*
D03*
X261357D02*
D03*
Y172489D02*
D03*
X271357D02*
D03*
Y182489D02*
D03*
X281358D02*
D03*
Y172489D02*
D03*
D61*
X387303Y313870D02*
D03*
Y84358D02*
D03*
X82185D02*
D03*
Y313870D02*
D03*
D62*
X353150Y302165D02*
D03*
X348917Y297638D02*
D03*
X260827Y190400D02*
D03*
X290600Y161100D02*
D03*
X173100Y295800D02*
D03*
X152900Y202400D02*
D03*
X77400Y147600D02*
D03*
X87900Y147500D02*
D03*
X91700Y166900D02*
D03*
X86500Y170700D02*
D03*
X91600Y158900D02*
D03*
X86500D02*
D03*
X118100Y182600D02*
D03*
X119200Y197800D02*
D03*
X158000D02*
D03*
X89800Y210000D02*
D03*
X91500Y221300D02*
D03*
X126800Y152400D02*
D03*
X127151Y221251D02*
D03*
X127051Y286351D02*
D03*
X259649Y264049D02*
D03*
X322649Y265249D02*
D03*
X384349Y263749D02*
D03*
X335900Y282700D02*
D03*
X336400Y266100D02*
D03*
X366200Y283100D02*
D03*
X390500Y262900D02*
D03*
X353200Y313600D02*
D03*
X361500Y270000D02*
D03*
X355500D02*
D03*
X270400Y308300D02*
D03*
X351300Y270000D02*
D03*
X347400D02*
D03*
X327700Y289300D02*
D03*
X343500Y270000D02*
D03*
X339300Y298500D02*
D03*
X340000Y282500D02*
D03*
X339700Y270000D02*
D03*
X305800Y287700D02*
D03*
X305900Y270600D02*
D03*
X301400Y290700D02*
D03*
X301600Y270600D02*
D03*
X267100Y295900D02*
D03*
X297300Y270600D02*
D03*
X293100Y280600D02*
D03*
X274600Y262100D02*
D03*
X279400Y262500D02*
D03*
X289700Y235100D02*
D03*
X284400Y240000D02*
D03*
X242500Y286400D02*
D03*
X240500Y269700D02*
D03*
X240200Y279500D02*
D03*
X236200Y269700D02*
D03*
X231100D02*
D03*
X226700D02*
D03*
X211500Y279100D02*
D03*
X211400Y269700D02*
D03*
X220800D02*
D03*
X100700Y225600D02*
D03*
X91700Y235900D02*
D03*
X101800Y235800D02*
D03*
X91700Y240200D02*
D03*
X101800Y240500D02*
D03*
X91700Y244700D02*
D03*
X101800Y245200D02*
D03*
X96300Y214000D02*
D03*
X148000Y203600D02*
D03*
X119200Y201500D02*
D03*
Y205100D02*
D03*
X184800Y163000D02*
D03*
X336400Y215000D02*
D03*
X274800D02*
D03*
X211700D02*
D03*
X177900Y237300D02*
D03*
Y173700D02*
D03*
Y105400D02*
D03*
X184700Y95800D02*
D03*
X177300Y230300D02*
D03*
X167900Y281100D02*
D03*
X162900D02*
D03*
X172900D02*
D03*
X168000Y295800D02*
D03*
X172900Y150600D02*
D03*
Y181600D02*
D03*
Y217200D02*
D03*
Y264100D02*
D03*
X167900Y150600D02*
D03*
Y181600D02*
D03*
Y217200D02*
D03*
Y264100D02*
D03*
X162900Y150600D02*
D03*
Y181600D02*
D03*
Y217200D02*
D03*
Y264100D02*
D03*
X228300Y225000D02*
D03*
Y220000D02*
D03*
Y230000D02*
D03*
X288100Y225000D02*
D03*
X259300Y225300D02*
D03*
X320300Y225000D02*
D03*
X349000D02*
D03*
X288100Y220000D02*
D03*
X259300Y220300D02*
D03*
X320300Y220000D02*
D03*
X349000D02*
D03*
X288100Y230000D02*
D03*
X259300Y230300D02*
D03*
X320300Y230000D02*
D03*
X349000D02*
D03*
X163300Y322000D02*
D03*
X144800Y321900D02*
D03*
X179100Y295800D02*
D03*
X173100Y302100D02*
D03*
X329200Y298300D02*
D03*
X230950Y307450D02*
D03*
X238700Y301100D02*
D03*
X234500Y288200D02*
D03*
X227100Y292500D02*
D03*
X214800D02*
D03*
X234700D02*
D03*
X207100D02*
D03*
X293100Y270700D02*
D03*
X286400Y152500D02*
D03*
X264900Y147900D02*
D03*
X369000Y306700D02*
D03*
X159300Y306900D02*
D03*
X162900Y295800D02*
D03*
X129100Y182200D02*
D03*
Y186100D02*
D03*
X118100Y178300D02*
D03*
X207100Y194200D02*
D03*
X94950Y135650D02*
D03*
X76100Y140400D02*
D03*
X292600Y146400D02*
D03*
Y133600D02*
D03*
X289800Y190100D02*
D03*
X299606Y151673D02*
D03*
X388583Y213189D02*
D03*
X369587Y213287D02*
D03*
X381594Y207677D02*
D03*
X369488Y208071D02*
D03*
X373228Y181890D02*
D03*
Y189862D02*
D03*
M02*
