G04*
G04 #@! TF.GenerationSoftware,Altium Limited,Altium Designer,19.1.7 (138)*
G04*
G04 Layer_Color=32768*
%FSLAX25Y25*%
%MOIN*%
G70*
G01*
G75*
%ADD61C,0.00394*%
%ADD63C,0.00197*%
D61*
X329728Y273600D02*
X333272D01*
X331500Y271828D02*
Y275372D01*
X256000Y237630D02*
Y241370D01*
X254130Y239500D02*
X257870D01*
X147130Y166000D02*
X150870D01*
X149000Y164130D02*
Y167870D01*
X315500Y237630D02*
Y241370D01*
X313630Y239500D02*
X317370D01*
X142130Y210000D02*
X145870D01*
X144000Y208130D02*
Y211870D01*
X349000Y244630D02*
Y248370D01*
X347130Y246500D02*
X350870D01*
X128500Y233630D02*
Y237370D01*
X126630Y235500D02*
X130370D01*
X254228Y244500D02*
X257772D01*
X256000Y242728D02*
Y246272D01*
X149000Y169228D02*
Y172772D01*
X147228Y171000D02*
X150772D01*
X313728Y245000D02*
X317272D01*
X315500Y243228D02*
Y246772D01*
X144000Y214728D02*
Y218272D01*
X142228Y216500D02*
X145772D01*
X347228Y252000D02*
X350772D01*
X349000Y250228D02*
Y253772D01*
X119928Y235154D02*
X123472D01*
X121700Y233383D02*
Y236926D01*
X162531Y194500D02*
X166469D01*
X164500Y192532D02*
Y196468D01*
X235728Y220532D02*
Y224468D01*
X233760Y222500D02*
X237697D01*
X166532Y148500D02*
X170468D01*
X168500Y146531D02*
Y150469D01*
X341274Y220186D02*
Y224123D01*
X339306Y222154D02*
X343243D01*
X148072Y247877D02*
Y251814D01*
X146103Y249846D02*
X150040D01*
X295700Y220532D02*
Y224468D01*
X293731Y222500D02*
X297669D01*
X270500Y230377D02*
Y234314D01*
X268531Y232346D02*
X272468D01*
X210531Y229500D02*
X214469D01*
X212500Y227532D02*
Y231469D01*
X161000Y125531D02*
Y129469D01*
X159031Y127500D02*
X162969D01*
X158000Y171685D02*
Y175622D01*
X156032Y173653D02*
X159968D01*
X316577Y220154D02*
X320514D01*
X318546Y218186D02*
Y222123D01*
X167532Y242000D02*
X171468D01*
X169500Y240032D02*
Y243969D01*
D63*
X328744Y267891D02*
Y279309D01*
X334256Y267891D02*
Y279309D01*
X328744Y267891D02*
X334256D01*
X328744Y279309D02*
X334256D01*
X250095Y242453D02*
X261906D01*
X250095Y236547D02*
X261906D01*
X250095D02*
Y242453D01*
X261906Y236547D02*
Y242453D01*
X143095Y163047D02*
Y168953D01*
X154905Y163047D02*
Y168953D01*
X143095D02*
X154905D01*
X143095Y163047D02*
X154905D01*
X309594Y242453D02*
X321406D01*
X309594Y236547D02*
X321406D01*
X309594D02*
Y242453D01*
X321406Y236547D02*
Y242453D01*
X138094Y207047D02*
Y212953D01*
X149906Y207047D02*
Y212953D01*
X138094D02*
X149906D01*
X138094Y207047D02*
X149906D01*
X343094Y243547D02*
X354906D01*
X343094Y249453D02*
X354906D01*
Y243547D02*
Y249453D01*
X343094Y243547D02*
Y249453D01*
X125547Y241406D02*
X131453D01*
X125547Y229594D02*
X131453D01*
Y241406D01*
X125547Y229594D02*
Y241406D01*
X262693Y240366D02*
Y248634D01*
X249307Y240366D02*
Y248634D01*
Y240366D02*
X262693D01*
X249307Y248634D02*
X262693D01*
X142307Y166866D02*
X155693D01*
X142307Y175134D02*
X155693D01*
Y166866D02*
Y175134D01*
X142307Y166866D02*
Y175134D01*
X322193Y240866D02*
Y249134D01*
X308807Y240866D02*
Y249134D01*
Y240866D02*
X322193D01*
X308807Y249134D02*
X322193D01*
X137307Y212366D02*
X150693D01*
X137307Y220634D02*
X150693D01*
Y212366D02*
Y220634D01*
X137307Y212366D02*
Y220634D01*
X342307Y247866D02*
Y256134D01*
X355693Y247866D02*
Y256134D01*
X342307D02*
X355693D01*
X342307Y247866D02*
X355693D01*
X117566Y228461D02*
Y241847D01*
X125834Y228461D02*
Y241847D01*
X117566Y228461D02*
X125834D01*
X117566Y241847D02*
X125834D01*
X185169Y179933D02*
Y209067D01*
X143831Y179933D02*
Y209067D01*
X185169D01*
X143831Y179933D02*
X185169D01*
X221161Y201831D02*
X250295D01*
X221161Y243169D02*
X250295D01*
Y201831D02*
Y243169D01*
X221161Y201831D02*
Y243169D01*
X189169Y133933D02*
Y163067D01*
X147831Y133933D02*
Y163067D01*
X189169D01*
X147831Y133933D02*
X189169D01*
X326707Y201485D02*
X355841D01*
X326707Y242824D02*
X355841D01*
Y201485D02*
Y242824D01*
X326707Y201485D02*
Y242824D01*
X133505Y270515D02*
X162639D01*
X133505Y229176D02*
X162639D01*
X133505D02*
Y270515D01*
X162639Y229176D02*
Y270515D01*
X281133Y201831D02*
X310267D01*
X281133Y243169D02*
X310267D01*
Y201831D02*
Y243169D01*
X281133Y201831D02*
Y243169D01*
X266366Y225653D02*
X274634D01*
X266366Y239039D02*
X274634D01*
X266366Y225653D02*
Y239039D01*
X274634Y225653D02*
Y239039D01*
X219193Y225366D02*
Y233634D01*
X205807Y225366D02*
Y233634D01*
Y225366D02*
X219193D01*
X205807Y233634D02*
X219193D01*
X156866Y134193D02*
X165134D01*
X156866Y120807D02*
X165134D01*
Y134193D01*
X156866Y120807D02*
Y134193D01*
X153866Y180347D02*
X162134D01*
X153866Y166961D02*
X162134D01*
Y180347D01*
X153866Y166961D02*
Y180347D01*
X325239Y216020D02*
Y224288D01*
X311853Y216020D02*
Y224288D01*
Y216020D02*
X325239D01*
X311853Y224288D02*
X325239D01*
X162807Y237866D02*
Y246134D01*
X176193Y237866D02*
Y246134D01*
X162807D02*
X176193D01*
X162807Y237866D02*
X176193D01*
M02*
