G04*
G04 #@! TF.GenerationSoftware,Altium Limited,Altium Designer,19.1.7 (138)*
G04*
G04 Layer_Color=65535*
%FSLAX25Y25*%
%MOIN*%
G70*
G01*
G75*
%ADD10C,0.01000*%
%ADD11C,0.02362*%
%ADD12C,0.00984*%
%ADD13C,0.00025*%
%ADD14C,0.00787*%
%ADD15C,0.00400*%
%ADD16C,0.00600*%
%ADD17C,0.00500*%
G36*
X146552Y109815D02*
X144908D01*
X144954Y110638D01*
X143882D01*
X143522Y109820D01*
X141900Y109815D01*
X143933Y113673D01*
X143984Y113751D01*
X144034Y113830D01*
X144081Y113895D01*
X144127Y113955D01*
X144164Y114001D01*
X144196Y114038D01*
X144215Y114056D01*
X144224Y114066D01*
X144289Y114130D01*
X144353Y114190D01*
X144418Y114241D01*
X144473Y114287D01*
X144524Y114320D01*
X144566Y114347D01*
X144589Y114366D01*
X144598Y114371D01*
X144677Y114417D01*
X144750Y114454D01*
X144820Y114486D01*
X144885Y114514D01*
X144940Y114537D01*
X144982Y114551D01*
X145009Y114560D01*
X145014Y114565D01*
X145018D01*
X145111Y114588D01*
X145194Y114602D01*
X145273Y114611D01*
X145397D01*
X145439Y114606D01*
X145467Y114602D01*
X145476D01*
X145578Y114648D01*
X146377D01*
X146552Y109815D01*
D02*
G37*
G36*
X162764Y113594D02*
X162838Y113590D01*
X162902Y113581D01*
X162953Y113571D01*
X162995Y113562D01*
X163018Y113557D01*
X163027Y113553D01*
X163097Y113530D01*
X163161Y113507D01*
X163217Y113479D01*
X163268Y113456D01*
X163304Y113433D01*
X163337Y113414D01*
X163355Y113400D01*
X163360Y113396D01*
X163411Y113345D01*
X163448Y113289D01*
X163480Y113234D01*
X163503Y113183D01*
X163517Y113137D01*
X163526Y113095D01*
X163535Y113072D01*
Y113068D01*
Y113063D01*
X163545Y112980D01*
Y112897D01*
X163535Y112809D01*
X163526Y112730D01*
X163517Y112656D01*
X163512Y112629D01*
X163503Y112601D01*
X163498Y112578D01*
Y112564D01*
X163494Y112555D01*
Y112550D01*
X162986Y110508D01*
X162967Y110453D01*
X162949Y110402D01*
X162898Y110305D01*
X162838Y110222D01*
X162778Y110148D01*
X162722Y110092D01*
X162676Y110051D01*
X162658Y110032D01*
X162644Y110023D01*
X162635Y110019D01*
X162630Y110014D01*
X162524Y109949D01*
X162417Y109903D01*
X162316Y109866D01*
X162223Y109843D01*
X162140Y109829D01*
X162108Y109824D01*
X162075D01*
X162052Y109820D01*
X161378D01*
X161969Y112236D01*
X161988Y112310D01*
X161997Y112370D01*
X162002Y112421D01*
X161997Y112458D01*
X161992Y112490D01*
X161988Y112513D01*
X161983Y112522D01*
X161978Y112527D01*
X161951Y112555D01*
X161918Y112573D01*
X161881Y112592D01*
X161845Y112601D01*
X161808Y112606D01*
X161780Y112610D01*
X161752D01*
X161688Y112606D01*
X161632Y112596D01*
X161581Y112578D01*
X161535Y112564D01*
X161503Y112546D01*
X161480Y112527D01*
X161461Y112518D01*
X161457Y112513D01*
X161419Y112476D01*
X161382Y112435D01*
X161355Y112393D01*
X161336Y112352D01*
X161318Y112315D01*
X161304Y112287D01*
X161299Y112268D01*
X161295Y112259D01*
X160689Y109820D01*
X159262D01*
X159853Y112232D01*
X159872Y112305D01*
X159881Y112365D01*
X159886Y112416D01*
X159881Y112458D01*
X159872Y112490D01*
X159867Y112513D01*
X159863Y112522D01*
X159858Y112527D01*
X159835Y112555D01*
X159798Y112573D01*
X159766Y112592D01*
X159729Y112601D01*
X159692Y112606D01*
X159664Y112610D01*
X159636D01*
X159576Y112606D01*
X159521Y112596D01*
X159470Y112583D01*
X159428Y112564D01*
X159396Y112546D01*
X159373Y112532D01*
X159354Y112522D01*
X159350Y112518D01*
X159313Y112481D01*
X159276Y112435D01*
X159248Y112384D01*
X159230Y112338D01*
X159211Y112292D01*
X159197Y112255D01*
X159193Y112232D01*
X159188Y112227D01*
Y112222D01*
X158583Y109820D01*
X157155D01*
X158061Y113502D01*
X159507D01*
X159423Y113160D01*
X160537Y113581D01*
X160565Y113604D01*
X160685Y113599D01*
X160745Y113594D01*
X160796Y113585D01*
X160837Y113581D01*
X160870Y113571D01*
X160888Y113567D01*
X160897D01*
X160958Y113553D01*
X161013Y113534D01*
X161059Y113516D01*
X161105Y113497D01*
X161138Y113484D01*
X161161Y113470D01*
X161179Y113460D01*
X161184Y113456D01*
X161258Y113396D01*
X161285Y113363D01*
X161309Y113336D01*
X161327Y113308D01*
X161341Y113285D01*
X161350Y113271D01*
X161355Y113266D01*
X161378Y113225D01*
X161396Y113188D01*
X161410Y113151D01*
X161419Y113119D01*
X161429Y113091D01*
Y113072D01*
X161433Y113058D01*
Y113054D01*
X161457Y113100D01*
X161484Y113146D01*
X161516Y113188D01*
X161554Y113225D01*
X161581Y113252D01*
X161609Y113276D01*
X161627Y113289D01*
X161632Y113294D01*
X161688Y113336D01*
X161738Y113368D01*
X161789Y113400D01*
X161835Y113423D01*
X161872Y113442D01*
X161900Y113456D01*
X161918Y113460D01*
X161923Y113465D01*
X161988Y113488D01*
X162052Y113511D01*
X162112Y113530D01*
X162163Y113543D01*
X162205Y113553D01*
X162237Y113562D01*
X162256Y113567D01*
X162265D01*
X162385Y113590D01*
X162441Y113594D01*
X162491Y113599D01*
X162533Y113604D01*
X162681D01*
X162764Y113594D01*
D02*
G37*
G36*
X156587Y109815D02*
X155164D01*
X155244Y110154D01*
X155169Y110079D01*
X155086Y110014D01*
X155007Y109963D01*
X154938Y109922D01*
X154887Y109889D01*
X154864Y109880D01*
X154850Y109871D01*
X154841Y109866D01*
X154836D01*
X154720Y109820D01*
X154605Y109787D01*
X154494Y109764D01*
X154393Y109750D01*
X154342Y109741D01*
X154300D01*
X154263Y109737D01*
X154231Y109732D01*
X154078D01*
X154000Y109737D01*
X153926Y109746D01*
X153866Y109755D01*
X153810Y109764D01*
X153773Y109769D01*
X153750Y109778D01*
X153741D01*
X153676Y109801D01*
X153616Y109824D01*
X153561Y109852D01*
X153515Y109875D01*
X153478Y109898D01*
X153450Y109917D01*
X153431Y109931D01*
X153427Y109935D01*
X153376Y109982D01*
X153334Y110032D01*
X153302Y110083D01*
X153274Y110134D01*
X153256Y110180D01*
X153247Y110217D01*
X153237Y110240D01*
Y110249D01*
X153228Y110333D01*
Y110416D01*
X153233Y110504D01*
X153242Y110582D01*
X153256Y110656D01*
X153261Y110684D01*
X153265Y110712D01*
X153270Y110735D01*
Y110748D01*
X153274Y110758D01*
Y110762D01*
X153949Y113456D01*
X154051Y113502D01*
X155390D01*
X154794Y111109D01*
X154781Y111030D01*
X154771Y110961D01*
Y110906D01*
X154776Y110864D01*
X154781Y110832D01*
X154785Y110809D01*
X154794Y110795D01*
Y110790D01*
X154817Y110762D01*
X154850Y110739D01*
X154887Y110725D01*
X154924Y110712D01*
X154956Y110707D01*
X154984Y110702D01*
X155007D01*
X155072Y110707D01*
X155127Y110716D01*
X155173Y110730D01*
X155215Y110748D01*
X155247Y110767D01*
X155275Y110781D01*
X155289Y110790D01*
X155293Y110795D01*
X155335Y110836D01*
X155367Y110882D01*
X155395Y110933D01*
X155418Y110979D01*
X155437Y111026D01*
X155450Y111063D01*
X155460Y111086D01*
Y111095D01*
X156065Y113502D01*
X157497D01*
X156587Y109815D01*
D02*
G37*
G36*
X152531D02*
X151108D01*
X152009Y113502D01*
X153445D01*
X152531Y109815D01*
D02*
G37*
G36*
X148160D02*
X146732D01*
X147924Y114602D01*
X148026Y114648D01*
X149361D01*
X148160Y109815D01*
D02*
G37*
G36*
X151048Y113502D02*
X151607D01*
X151399Y112601D01*
X150840D01*
X150424Y110961D01*
X150415Y110910D01*
X150410Y110864D01*
Y110827D01*
X150419Y110799D01*
X150424Y110781D01*
X150428Y110762D01*
X150438Y110758D01*
Y110753D01*
X150466Y110735D01*
X150498Y110725D01*
X150572Y110712D01*
X150604Y110707D01*
X150909D01*
X150701Y109820D01*
X150613Y109811D01*
X150535Y109806D01*
X150461Y109801D01*
X150396Y109797D01*
X150345D01*
X150304Y109792D01*
X150271D01*
X150202Y109787D01*
X150073D01*
X150017Y109783D01*
X149791D01*
X149689Y109787D01*
X149597Y109792D01*
X149523Y109801D01*
X149458Y109806D01*
X149412Y109815D01*
X149398D01*
X149384Y109820D01*
X149375D01*
X149301Y109838D01*
X149232Y109857D01*
X149177Y109880D01*
X149126Y109903D01*
X149089Y109922D01*
X149061Y109940D01*
X149042Y109949D01*
X149038Y109954D01*
X148992Y109991D01*
X148955Y110037D01*
X148927Y110083D01*
X148904Y110134D01*
X148890Y110176D01*
X148881Y110213D01*
X148876Y110236D01*
Y110245D01*
X148872Y110323D01*
X148876Y110402D01*
X148885Y110476D01*
X148899Y110545D01*
X148908Y110601D01*
X148922Y110647D01*
X148927Y110665D01*
Y110679D01*
X148932Y110684D01*
Y110688D01*
X149897Y114555D01*
X149999Y114602D01*
X151339D01*
X151048Y113502D01*
D02*
G37*
G36*
X130864Y110071D02*
X130929D01*
X131012Y110062D01*
X131104Y110043D01*
X131197Y110034D01*
X131428Y109997D01*
X131687Y109932D01*
X131955Y109858D01*
X132242Y109756D01*
X132131Y109423D01*
X132122D01*
X132094Y109432D01*
X132057Y109451D01*
X132001Y109460D01*
X131937Y109488D01*
X131863Y109506D01*
X131770Y109534D01*
X131678Y109553D01*
X131465Y109608D01*
X131225Y109654D01*
X130975Y109682D01*
X130716Y109701D01*
X130475D01*
X130392Y109692D01*
X130299Y109682D01*
X130105Y109664D01*
X129883Y109636D01*
X129652Y109590D01*
X129411Y109525D01*
X129402D01*
X129384Y109516D01*
X129347Y109506D01*
X129300Y109488D01*
X129245Y109469D01*
X129180Y109451D01*
X129032Y109386D01*
X128847Y109303D01*
X128653Y109211D01*
X128440Y109090D01*
X128237Y108961D01*
X128227D01*
X128209Y108942D01*
X128181Y108924D01*
X128144Y108896D01*
X128098Y108859D01*
X128033Y108813D01*
X127904Y108693D01*
X127746Y108554D01*
X127571Y108387D01*
X127386Y108193D01*
X127210Y107971D01*
Y107962D01*
X127191Y107943D01*
X127182Y107915D01*
X127155Y107878D01*
X127127Y107832D01*
X127090Y107767D01*
X127016Y107629D01*
X126933Y107444D01*
X126840Y107249D01*
X126757Y107018D01*
X126673Y106778D01*
Y106769D01*
X126664Y106750D01*
X126655Y106713D01*
X126646Y106667D01*
X126637Y106611D01*
X126618Y106546D01*
X126600Y106473D01*
X126590Y106389D01*
X126562Y106195D01*
X126535Y105982D01*
X126516Y105742D01*
Y105501D01*
Y105492D01*
Y105473D01*
Y105437D01*
X126525Y105390D01*
X126535Y105325D01*
Y105261D01*
X126544Y105177D01*
X126562Y105085D01*
X126590Y104872D01*
X126646Y104632D01*
X126701Y104364D01*
X126785Y104086D01*
Y104077D01*
X126794Y104068D01*
X126812Y104040D01*
X126831Y104003D01*
X126849Y103956D01*
X126886Y103901D01*
X126960Y103762D01*
X127053Y103596D01*
X127173Y103411D01*
X127312Y103207D01*
X127478Y102985D01*
X127303Y102828D01*
X127118Y102865D01*
X127108Y102874D01*
X127099Y102893D01*
X127071Y102920D01*
X127043Y102957D01*
X127006Y103013D01*
X126960Y103068D01*
X126905Y103142D01*
X126858Y103226D01*
X126738Y103411D01*
X126618Y103623D01*
X126507Y103864D01*
X126405Y104132D01*
Y104141D01*
X126396Y104160D01*
X126377Y104197D01*
X126368Y104243D01*
X126340Y104299D01*
X126322Y104373D01*
X126294Y104447D01*
X126276Y104539D01*
X126220Y104743D01*
X126174Y104974D01*
X126137Y105224D01*
X126119Y105492D01*
Y105501D01*
Y105529D01*
Y105566D01*
Y105622D01*
Y105686D01*
X126128Y105760D01*
Y105853D01*
X126137Y105945D01*
X126165Y106167D01*
X126192Y106417D01*
X126248Y106685D01*
X126322Y106954D01*
Y106963D01*
X126331Y106981D01*
X126340Y107018D01*
X126359Y107064D01*
X126377Y107120D01*
X126405Y107194D01*
X126470Y107351D01*
X126553Y107536D01*
X126664Y107730D01*
X126785Y107934D01*
X126933Y108138D01*
X126942Y108147D01*
X126951Y108165D01*
X126979Y108202D01*
X127016Y108258D01*
X127062Y108313D01*
X127118Y108387D01*
X127247Y108554D01*
X127404Y108730D01*
X127589Y108924D01*
X127793Y109118D01*
X128015Y109294D01*
X128024Y109303D01*
X128042Y109312D01*
X128070Y109331D01*
X128117Y109359D01*
X128172Y109396D01*
X128237Y109432D01*
X128311Y109479D01*
X128394Y109525D01*
X128588Y109617D01*
X128801Y109719D01*
X129042Y109821D01*
X129291Y109904D01*
X129300D01*
X129319Y109914D01*
X129356Y109923D01*
X129411Y109941D01*
X129476Y109950D01*
X129550Y109969D01*
X129633Y109987D01*
X129735Y110006D01*
X129948Y110043D01*
X130189Y110071D01*
X130457Y110080D01*
X130808D01*
X130864Y110071D01*
D02*
G37*
G36*
X150918Y104872D02*
X150307D01*
Y105816D01*
X149410D01*
Y104872D01*
X149003D01*
X148800Y104974D01*
Y107287D01*
X149410D01*
Y106361D01*
X150307D01*
Y107287D01*
X150918D01*
Y104872D01*
D02*
G37*
G36*
X155802D02*
X155219D01*
X154211Y106519D01*
Y104872D01*
X153610D01*
Y107287D01*
X154174D01*
X155191Y105677D01*
Y107287D01*
X155802D01*
Y104872D01*
D02*
G37*
G36*
X148078Y107277D02*
X148161Y107259D01*
X148254Y107240D01*
X148355Y107203D01*
X148448Y107157D01*
X148531Y107092D01*
X148540Y107083D01*
X148559Y107055D01*
X148596Y107018D01*
X148633Y106954D01*
X148670Y106879D01*
X148707Y106787D01*
X148725Y106676D01*
X148735Y106556D01*
Y106537D01*
Y106491D01*
X148725Y106426D01*
X148698Y106334D01*
X148670Y106241D01*
X148624Y106140D01*
X148559Y106038D01*
X148467Y105945D01*
X148457Y105936D01*
X148420Y105908D01*
X148355Y105871D01*
X148263Y105816D01*
X148143Y105770D01*
X147995Y105714D01*
X147819Y105668D01*
X147606Y105631D01*
X147532Y106186D01*
X147551D01*
X147588Y106195D01*
X147643Y106204D01*
X147717Y106223D01*
X147856Y106269D01*
X147930Y106297D01*
X147976Y106325D01*
X147985D01*
X147995Y106343D01*
X148041Y106389D01*
X148078Y106454D01*
X148087Y106500D01*
X148097Y106546D01*
Y106556D01*
Y106565D01*
X148087Y106602D01*
X148078Y106648D01*
X148050Y106685D01*
X148041Y106694D01*
X148022Y106704D01*
X147976Y106713D01*
X147921Y106722D01*
X147468D01*
Y104872D01*
X147061D01*
X146857Y104974D01*
Y107287D01*
X148013D01*
X148078Y107277D01*
D02*
G37*
G36*
X162804Y104872D02*
X162231D01*
Y106408D01*
X161786Y104872D01*
X161305D01*
X160852Y106408D01*
Y104872D01*
X160279D01*
Y107287D01*
X160862D01*
X161555Y105612D01*
X162221Y107287D01*
X162804D01*
Y104872D01*
D02*
G37*
G36*
X145886D02*
X145303D01*
Y106408D01*
X144868Y104872D01*
X144378D01*
X143934Y106408D01*
Y104872D01*
X143555D01*
X143351Y104974D01*
Y107287D01*
X143953D01*
X144628Y105612D01*
X145312Y107287D01*
X145886D01*
Y104872D01*
D02*
G37*
G36*
X143287D02*
X142667D01*
X142417Y105473D01*
X141649D01*
X141816Y106019D01*
X142232D01*
X141991Y106667D01*
X141325Y104872D01*
X140743D01*
Y104895D01*
X140734Y104872D01*
X139004D01*
Y107287D01*
X140724D01*
Y107194D01*
Y106731D01*
X139614D01*
Y106361D01*
X140678D01*
Y105807D01*
X139605D01*
Y105418D01*
X140743D01*
Y104895D01*
X141714Y107287D01*
X142288D01*
X143287Y104872D01*
D02*
G37*
G36*
X157717Y107194D02*
Y106731D01*
X157078D01*
Y104872D01*
X156468D01*
Y106731D01*
X155830D01*
Y107287D01*
X157717D01*
Y107194D01*
D02*
G37*
G36*
X153545Y104872D02*
X152934D01*
X152675Y105473D01*
X151908D01*
X152074Y106019D01*
X152499D01*
X152250Y106667D01*
X151602Y104946D01*
X151556Y104919D01*
X150982Y104872D01*
X151963Y107287D01*
X152546D01*
X153545Y104872D01*
D02*
G37*
G36*
X138976Y107194D02*
Y106731D01*
X138329D01*
Y104872D01*
X137718D01*
Y106731D01*
X137080D01*
Y107287D01*
X138976D01*
Y107194D01*
D02*
G37*
G36*
X158984Y107296D02*
X159086Y107287D01*
X159224Y107268D01*
X159363Y107222D01*
X159511Y107166D01*
X159659Y107092D01*
X159779Y106981D01*
X159789Y106963D01*
X159826Y106926D01*
X159872Y106852D01*
X159936Y106750D01*
X159992Y106621D01*
X160038Y106463D01*
X160075Y106288D01*
X160084Y106075D01*
Y106065D01*
Y106047D01*
Y106019D01*
Y105973D01*
X160066Y105871D01*
X160047Y105733D01*
X160011Y105585D01*
X159955Y105437D01*
X159881Y105289D01*
X159779Y105159D01*
X159770Y105150D01*
X159724Y105113D01*
X159650Y105067D01*
X159557Y105011D01*
X159428Y104946D01*
X159280Y104900D01*
X159095Y104863D01*
X158882Y104854D01*
X158826D01*
X158790Y104863D01*
X158688Y104872D01*
X158558Y104891D01*
X158420Y104928D01*
X158272Y104983D01*
X158133Y105057D01*
X158003Y105159D01*
X157994Y105177D01*
X157957Y105215D01*
X157911Y105289D01*
X157855Y105390D01*
X157809Y105520D01*
X157772Y105677D01*
X157754Y105853D01*
X157763Y106065D01*
X157661Y106075D01*
Y106084D01*
Y106103D01*
Y106130D01*
X157670Y106176D01*
X157679Y106278D01*
X157698Y106408D01*
X157735Y106556D01*
X157791Y106704D01*
X157864Y106852D01*
X157966Y106981D01*
X157985Y107000D01*
X158022Y107037D01*
X158096Y107083D01*
X158197Y107148D01*
X158327Y107203D01*
X158484Y107259D01*
X158669Y107296D01*
X158882Y107305D01*
X158938D01*
X158984Y107296D01*
D02*
G37*
G36*
X163285Y103735D02*
X136580D01*
Y104021D01*
X136728Y104068D01*
X163285Y104114D01*
Y103735D01*
D02*
G37*
G36*
X151112Y103226D02*
X151195Y103207D01*
X151205D01*
X151214Y103198D01*
X151269Y103170D01*
X151353Y103124D01*
X151454Y103050D01*
X151278Y102763D01*
X151269D01*
X151260Y102772D01*
X151205Y102791D01*
X151130Y102819D01*
X151066Y102837D01*
X151057Y102847D01*
X151020Y102856D01*
X150973Y102865D01*
X150918D01*
X150890Y102856D01*
X150881D01*
X150844Y102837D01*
X150835Y102819D01*
Y102810D01*
Y102791D01*
Y102782D01*
Y102763D01*
X150844Y102754D01*
X150853Y102735D01*
X150872Y102726D01*
X150909D01*
X150936Y102717D01*
X150945Y102708D01*
X150982Y102699D01*
X151066D01*
X151121Y102689D01*
X151186Y102671D01*
X151251Y102643D01*
X151269Y102634D01*
X151297Y102615D01*
X151343Y102587D01*
X151390Y102541D01*
X151399Y102532D01*
X151417Y102495D01*
X151445Y102449D01*
X151463Y102393D01*
X151473Y102384D01*
X151482Y102347D01*
X151491Y102301D01*
Y102245D01*
Y102236D01*
Y102208D01*
X151482Y102162D01*
X151473Y102116D01*
X151454Y102060D01*
X151436Y101996D01*
X151399Y101940D01*
X151353Y101894D01*
X151343D01*
X151325Y101875D01*
X151297Y101857D01*
X151251Y101838D01*
X151195Y101820D01*
X151130Y101801D01*
X151047Y101792D01*
X150955Y101783D01*
X150899D01*
X150853Y101792D01*
X150760Y101801D01*
X150649Y101829D01*
X150640D01*
X150631Y101838D01*
X150603Y101857D01*
X150566Y101875D01*
X150529Y101903D01*
X150474Y101940D01*
X150427Y101986D01*
X150372Y102042D01*
X150594Y102301D01*
X150603D01*
X150612Y102282D01*
X150668Y102254D01*
X150742Y102208D01*
X150797Y102181D01*
X150807D01*
X150853Y102171D01*
X150890D01*
X150936Y102162D01*
X151057D01*
X151029Y102144D01*
X151010Y102125D01*
X151001Y102116D01*
X151057Y102162D01*
X151075Y102181D01*
X151084D01*
X151093Y102199D01*
X151103Y102217D01*
Y102245D01*
Y102254D01*
Y102264D01*
X151084Y102282D01*
X151075Y102292D01*
X151057Y102310D01*
X151029Y102319D01*
X150927D01*
X150909Y102329D01*
X150853Y102338D01*
X150835D01*
X150797Y102347D01*
X150742Y102366D01*
X150677Y102384D01*
X150668Y102393D01*
X150631Y102412D01*
X150594Y102449D01*
X150557Y102486D01*
X150548Y102495D01*
X150520Y102532D01*
X150492Y102569D01*
X150464Y102624D01*
Y102643D01*
X150455Y102680D01*
X150446Y102726D01*
X150437Y102791D01*
Y102800D01*
Y102810D01*
Y102856D01*
X150446Y102911D01*
X150464Y102976D01*
X150474Y102995D01*
X150492Y103022D01*
X150529Y103078D01*
X150585Y103124D01*
X150594Y103133D01*
X150631Y103161D01*
X150677Y103189D01*
X150742Y103217D01*
X150760Y103226D01*
X150807Y103235D01*
X150872Y103244D01*
X151038D01*
X151112Y103226D01*
D02*
G37*
G36*
X138504D02*
X138587Y103207D01*
X138597D01*
X138606Y103198D01*
X138662Y103170D01*
X138745Y103124D01*
X138847Y103050D01*
X138671Y102763D01*
X138662D01*
X138652Y102772D01*
X138597Y102791D01*
X138523Y102819D01*
X138458Y102837D01*
X138449Y102847D01*
X138412Y102856D01*
X138365Y102865D01*
X138301D01*
X138282Y102856D01*
X138273D01*
X138236Y102837D01*
X138227Y102819D01*
Y102810D01*
X138217Y102791D01*
Y102782D01*
Y102772D01*
X138227Y102763D01*
X138245Y102735D01*
X138264Y102726D01*
X138301D01*
X138329Y102717D01*
X138338Y102708D01*
X138365Y102699D01*
X138458D01*
X138514Y102689D01*
X138578Y102671D01*
X138643Y102643D01*
X138662Y102634D01*
X138689Y102615D01*
X138735Y102587D01*
X138782Y102541D01*
X138791Y102532D01*
X138810Y102495D01*
X138837Y102449D01*
X138856Y102393D01*
X138865Y102384D01*
X138874Y102347D01*
X138883Y102310D01*
Y102264D01*
Y102254D01*
Y102227D01*
X138874Y102181D01*
X138865Y102125D01*
X138847Y102060D01*
X138819Y102005D01*
X138782Y101940D01*
X138735Y101894D01*
X138726D01*
X138708Y101875D01*
X138680Y101857D01*
X138634Y101838D01*
X138578Y101820D01*
X138514Y101801D01*
X138440Y101792D01*
X138347Y101783D01*
X138292D01*
X138245Y101792D01*
X138153Y101801D01*
X138042Y101829D01*
X138032D01*
X138023Y101838D01*
X137996Y101857D01*
X137959Y101875D01*
X137912Y101903D01*
X137866Y101940D01*
X137811Y101986D01*
X137755Y102042D01*
X137986Y102301D01*
X137996D01*
X138005Y102282D01*
X138060Y102254D01*
X138125Y102208D01*
X138180Y102181D01*
X138199D01*
X138245Y102171D01*
X138282D01*
X138329Y102162D01*
X138449D01*
X138421Y102144D01*
X138402Y102125D01*
X138393Y102116D01*
X138449Y102162D01*
X138467Y102181D01*
X138477D01*
X138486Y102199D01*
X138495Y102217D01*
Y102245D01*
Y102254D01*
X138477Y102282D01*
X138458Y102292D01*
X138440Y102310D01*
X138412Y102319D01*
X138329D01*
X138310Y102329D01*
X138245Y102338D01*
X138227D01*
X138190Y102347D01*
X138134Y102366D01*
X138069Y102384D01*
X138060Y102393D01*
X138023Y102412D01*
X137986Y102439D01*
X137940Y102477D01*
X137931Y102495D01*
X137912Y102523D01*
X137875Y102578D01*
X137847Y102624D01*
Y102634D01*
X137838Y102671D01*
X137829Y102726D01*
X137820Y102791D01*
Y102800D01*
Y102810D01*
X137829Y102856D01*
X137838Y102911D01*
X137857Y102976D01*
X137866Y102995D01*
X137884Y103022D01*
X137912Y103068D01*
X137959Y103115D01*
X137968Y103124D01*
X138005Y103152D01*
X138060Y103189D01*
X138125Y103217D01*
X138134D01*
X138144Y103226D01*
X138190Y103235D01*
X138254Y103244D01*
X138421D01*
X138504Y103226D01*
D02*
G37*
G36*
X161944D02*
X162018Y103207D01*
X162036Y103198D01*
X162073Y103189D01*
X162129Y103152D01*
X162184Y103105D01*
X162194Y103096D01*
X162221Y103068D01*
X162258Y103032D01*
X162295Y102976D01*
X162304Y102957D01*
X162314Y102939D01*
X162323Y102911D01*
X162332Y102865D01*
X162341Y102819D01*
X162351Y102754D01*
X162360Y102680D01*
X161971D01*
Y102689D01*
Y102699D01*
X161953Y102735D01*
X161944Y102772D01*
X161934Y102800D01*
X161925Y102810D01*
X161907Y102837D01*
X161898Y102847D01*
X161851Y102856D01*
X161842D01*
X161833Y102865D01*
X161796D01*
X161768Y102856D01*
X161749D01*
X161740Y102847D01*
X161722Y102828D01*
X161713Y102819D01*
X161694Y102800D01*
X161685Y102791D01*
X161676Y102782D01*
Y102772D01*
Y102754D01*
Y102745D01*
X161666Y102726D01*
X161657Y102671D01*
Y102662D01*
Y102634D01*
Y102587D01*
Y102523D01*
Y102504D01*
Y102458D01*
Y102412D01*
Y102366D01*
Y102356D01*
X161666Y102338D01*
X161676Y102273D01*
Y102264D01*
Y102236D01*
X161685D01*
X161694Y102227D01*
X161703Y102217D01*
X161722Y102199D01*
X161731Y102190D01*
X161749Y102181D01*
X161759Y102171D01*
X161777Y102162D01*
X161842D01*
X161870Y102171D01*
X161888Y102190D01*
X161898Y102199D01*
X161916Y102217D01*
X161944Y102264D01*
X161981Y102338D01*
X162360D01*
Y102245D01*
Y102236D01*
X162351Y102227D01*
X162332Y102162D01*
X162314Y102097D01*
X162277Y102023D01*
X162267Y102014D01*
X162249Y101977D01*
X162203Y101931D01*
X162156Y101884D01*
X162147Y101875D01*
X162110Y101857D01*
X162055Y101838D01*
X161999Y101811D01*
X161981D01*
X161944Y101801D01*
X161888Y101792D01*
X161814Y101783D01*
X161759D01*
X161703Y101792D01*
X161648Y101801D01*
X161638D01*
X161611Y101820D01*
X161565Y101829D01*
X161509Y101857D01*
X161500Y101866D01*
X161472Y101894D01*
X161435Y101931D01*
X161398Y101959D01*
Y101968D01*
X161380Y101986D01*
X161333Y102042D01*
Y102051D01*
X161324Y102060D01*
X161305Y102097D01*
Y102106D01*
X161296Y102116D01*
Y102125D01*
Y102134D01*
X161287Y102153D01*
Y102162D01*
Y102171D01*
X161278Y102208D01*
Y102217D01*
X161268Y102236D01*
Y102264D01*
X161259Y102319D01*
Y102338D01*
Y102375D01*
Y102439D01*
Y102523D01*
Y102532D01*
Y102541D01*
Y102587D01*
Y102652D01*
Y102708D01*
Y102726D01*
X161268Y102754D01*
Y102791D01*
X161278Y102828D01*
Y102837D01*
Y102856D01*
X161296Y102902D01*
Y102911D01*
X161305Y102930D01*
X161324Y102976D01*
X161333Y102985D01*
X161352Y103013D01*
X161407Y103078D01*
X161416Y103087D01*
X161435Y103105D01*
X161481Y103152D01*
X161500Y103161D01*
X161537Y103180D01*
X161592Y103207D01*
X161648Y103226D01*
X161666D01*
X161703Y103235D01*
X161749Y103244D01*
X161879D01*
X161944Y103226D01*
D02*
G37*
G36*
X158188Y103235D02*
X158253Y103217D01*
X158262D01*
X158272Y103207D01*
X158318Y103189D01*
X158373Y103161D01*
X158438Y103105D01*
X158447Y103096D01*
X158475Y103068D01*
X158493Y103045D01*
Y102884D01*
X158561Y102890D01*
X158568Y102865D01*
X158586Y102819D01*
X158595Y102754D01*
X158605Y102680D01*
X158216D01*
Y102699D01*
X158207Y102726D01*
X158197Y102763D01*
X158179Y102791D01*
Y102800D01*
X158170Y102810D01*
X158142Y102837D01*
X158133Y102847D01*
X158124D01*
X158096Y102856D01*
X158087Y102865D01*
X158049D01*
X158012Y102856D01*
X157994D01*
X157985Y102847D01*
X157957Y102828D01*
X157948Y102819D01*
X157929Y102800D01*
X157920Y102782D01*
Y102772D01*
X157911Y102735D01*
Y102726D01*
X157902Y102699D01*
Y102662D01*
Y102652D01*
Y102624D01*
Y102578D01*
Y102523D01*
Y102504D01*
Y102467D01*
Y102421D01*
Y102366D01*
Y102356D01*
Y102338D01*
X157911Y102273D01*
X157920Y102264D01*
Y102245D01*
X157929Y102236D01*
Y102227D01*
X157939Y102217D01*
X157957Y102199D01*
X157966Y102190D01*
X157985D01*
X158003Y102181D01*
X158012Y102171D01*
X158022Y102162D01*
X158087D01*
X158114Y102171D01*
X158142Y102190D01*
X158151Y102199D01*
X158170Y102217D01*
X158197Y102264D01*
X158235Y102338D01*
X158605D01*
Y102245D01*
Y102236D01*
X158595Y102227D01*
X158586Y102171D01*
X158558Y102097D01*
X158530Y102023D01*
X158521Y102014D01*
X158503Y101977D01*
X158457Y101931D01*
X158410Y101894D01*
X158392Y101884D01*
X158355Y101866D01*
X158299Y101838D01*
X158235Y101811D01*
X158216D01*
X158179Y101801D01*
X158124Y101792D01*
X158059Y101783D01*
X158003D01*
X157948Y101792D01*
X157892Y101801D01*
X157883D01*
X157846Y101820D01*
X157800Y101838D01*
X157754Y101866D01*
X157744Y101875D01*
X157717Y101903D01*
X157679Y101931D01*
X157652Y101959D01*
X157642Y101968D01*
X157624Y101986D01*
X157596Y102014D01*
X157559Y102060D01*
Y102069D01*
Y102079D01*
X157550Y102097D01*
Y102106D01*
X157541Y102116D01*
Y102125D01*
Y102134D01*
X157531Y102153D01*
Y102162D01*
Y102171D01*
X157522Y102208D01*
Y102217D01*
Y102236D01*
X157513Y102273D01*
Y102319D01*
Y102338D01*
Y102375D01*
Y102439D01*
Y102523D01*
Y102532D01*
Y102541D01*
Y102587D01*
Y102643D01*
Y102699D01*
Y102717D01*
Y102745D01*
Y102791D01*
X157522Y102828D01*
Y102837D01*
X157531Y102847D01*
X157541Y102893D01*
Y102902D01*
X157550Y102920D01*
X157569Y102976D01*
X157578Y102985D01*
X157587Y103004D01*
X157615Y103032D01*
X157642Y103068D01*
X157652Y103078D01*
X157679Y103105D01*
X157717Y103133D01*
X157754Y103161D01*
X157763Y103170D01*
X157800Y103189D01*
X157837Y103207D01*
X157892Y103226D01*
X157911D01*
X157948Y103235D01*
X157994Y103244D01*
X158124D01*
X158188Y103235D01*
D02*
G37*
G36*
X146376Y101792D02*
X145978D01*
Y102182D01*
X145886Y101968D01*
X145590D01*
X145488Y102204D01*
Y101792D01*
X145090D01*
Y103142D01*
X145247Y103189D01*
X145442Y103235D01*
X145738Y102430D01*
X146025Y103235D01*
X146376D01*
Y101792D01*
D02*
G37*
G36*
X147606Y102310D02*
Y102301D01*
Y102292D01*
X147597Y102245D01*
X147588Y102171D01*
X147560Y102097D01*
X147551Y102079D01*
X147532Y102042D01*
X147486Y101986D01*
X147440Y101921D01*
X147431Y101912D01*
X147394Y101884D01*
X147338Y101848D01*
X147264Y101811D01*
X147246D01*
X147199Y101801D01*
X147134Y101792D01*
X147051Y101783D01*
X146977D01*
X146913Y101792D01*
X146838Y101811D01*
X146820Y101820D01*
X146783Y101838D01*
X146718Y101875D01*
X146653Y101931D01*
X146644Y101940D01*
X146607Y101977D01*
X146570Y102032D01*
X146533Y102097D01*
X146524Y102116D01*
X146515Y102162D01*
X146505Y102227D01*
X146496Y102310D01*
Y103142D01*
X146653Y103189D01*
X146894Y103235D01*
Y102338D01*
Y102329D01*
Y102310D01*
Y102282D01*
X146903Y102254D01*
X146913Y102236D01*
X146940Y102208D01*
X146950D01*
X146959Y102190D01*
X146986Y102171D01*
X147005D01*
X147023Y102162D01*
X147070D01*
X147107Y102171D01*
X147116D01*
X147125Y102181D01*
X147153Y102199D01*
X147162Y102208D01*
X147171Y102217D01*
X147190Y102254D01*
Y102264D01*
X147199Y102282D01*
X147208Y102338D01*
Y103235D01*
X147606D01*
Y102310D01*
D02*
G37*
G36*
X141085D02*
Y102301D01*
Y102292D01*
X141076Y102245D01*
X141067Y102171D01*
X141039Y102097D01*
X141030Y102079D01*
X141011Y102042D01*
X140974Y101986D01*
X140928Y101921D01*
X140919Y101912D01*
X140882Y101884D01*
X140826Y101848D01*
X140752Y101811D01*
X140734D01*
X140687Y101801D01*
X140622Y101792D01*
X140539Y101783D01*
X140465D01*
X140401Y101792D01*
X140326Y101811D01*
X140308Y101820D01*
X140271Y101838D01*
X140206Y101875D01*
X140141Y101931D01*
X140132Y101940D01*
X140095Y101977D01*
X140058Y102032D01*
X140021Y102097D01*
X140012Y102116D01*
X140003Y102162D01*
X139994Y102227D01*
X139984Y102310D01*
Y103142D01*
X140141Y103189D01*
X140382Y103235D01*
Y102338D01*
Y102329D01*
Y102310D01*
Y102282D01*
X140391Y102254D01*
X140401Y102236D01*
X140428Y102208D01*
X140437D01*
X140447Y102190D01*
X140474Y102171D01*
X140493D01*
X140512Y102162D01*
X140558D01*
X140595Y102171D01*
X140604D01*
X140613Y102181D01*
X140641Y102208D01*
X140650D01*
X140659Y102217D01*
X140678Y102254D01*
Y102264D01*
X140687Y102282D01*
X140697Y102338D01*
Y103235D01*
X141085D01*
Y102310D01*
D02*
G37*
G36*
X161158Y101792D02*
X160760D01*
Y103235D01*
X161158D01*
Y101792D01*
D02*
G37*
G36*
X160307Y103226D02*
X160362Y103207D01*
X160380D01*
X160408Y103189D01*
X160464Y103170D01*
X160510Y103142D01*
X160519Y103133D01*
X160556Y103096D01*
X160584Y103041D01*
X160621Y102985D01*
X160630Y102967D01*
X160649Y102930D01*
X160658Y102874D01*
X160667Y102800D01*
Y102791D01*
Y102772D01*
Y102745D01*
X160658Y102708D01*
X160630Y102615D01*
X160584Y102523D01*
X160575Y102504D01*
X160538Y102467D01*
X160482Y102421D01*
X160427Y102393D01*
X160714Y101792D01*
X160334D01*
X160066Y102329D01*
X159992D01*
Y101792D01*
X159594D01*
Y103142D01*
X159751Y103189D01*
X160186Y103235D01*
X160251D01*
X160307Y103226D01*
D02*
G37*
G36*
X159576Y102884D02*
X159233D01*
Y101792D01*
X158836D01*
Y102915D01*
X158561Y102890D01*
X158558Y102902D01*
X158549Y102930D01*
Y102948D01*
X158540Y102967D01*
X158512Y103022D01*
X158493Y103045D01*
Y103235D01*
X159576D01*
Y102884D01*
D02*
G37*
G36*
X157485Y102865D02*
X156875D01*
Y102699D01*
X157402D01*
Y102338D01*
X156875D01*
Y102162D01*
X157485D01*
Y101792D01*
X156477D01*
Y103142D01*
X156625Y103189D01*
X157485Y103235D01*
Y102865D01*
D02*
G37*
G36*
X155802Y102162D02*
X156412D01*
Y101792D01*
X155404D01*
Y103142D01*
X155561Y103189D01*
X155802Y103235D01*
Y102162D01*
D02*
G37*
G36*
X155339Y102865D02*
X154729D01*
Y102699D01*
X155256D01*
Y102338D01*
X154729D01*
Y102162D01*
X155339D01*
Y101792D01*
X154331D01*
Y103142D01*
X154488Y103189D01*
X155339Y103235D01*
Y102865D01*
D02*
G37*
G36*
X153758D02*
X153138D01*
Y102699D01*
X153665D01*
Y102338D01*
X153138D01*
Y102162D01*
X153758D01*
Y101792D01*
X152749D01*
Y103142D01*
X152897Y103189D01*
X153758Y103235D01*
Y102865D01*
D02*
G37*
G36*
X152731Y101792D02*
X152351D01*
X152335Y102111D01*
X151926Y102069D01*
X151833Y101792D01*
X151454D01*
X151944Y103235D01*
X152241D01*
X152731Y101792D01*
D02*
G37*
G36*
X149946D02*
X149567D01*
X149551Y102111D01*
X149142Y102069D01*
X149049Y101792D01*
X148744D01*
Y102010D01*
X149160Y103235D01*
X149456D01*
X149946Y101792D01*
D02*
G37*
G36*
X148115Y102162D02*
X148744D01*
Y102010D01*
X148670Y101792D01*
X147736D01*
Y103142D01*
X147884Y103189D01*
X148115Y103235D01*
Y102162D01*
D02*
G37*
G36*
X144637Y103226D02*
X144693Y103207D01*
X144711D01*
X144739Y103189D01*
X144794Y103170D01*
X144841Y103142D01*
X144859Y103133D01*
X144887Y103096D01*
X144924Y103041D01*
X144961Y102985D01*
X144970Y102967D01*
X144979Y102930D01*
X144998Y102865D01*
X145007Y102791D01*
Y102782D01*
Y102763D01*
Y102735D01*
X144998Y102699D01*
X144970Y102615D01*
X144924Y102523D01*
X144914Y102504D01*
X144878Y102467D01*
X144822Y102421D01*
X144757Y102393D01*
X145053Y101792D01*
X144665D01*
X144406Y102329D01*
X144323D01*
Y101792D01*
X143925D01*
Y103235D01*
X144581D01*
X144637Y103226D01*
D02*
G37*
G36*
X142731Y102865D02*
X142121D01*
Y102689D01*
X142648D01*
Y102329D01*
X142121D01*
Y101792D01*
X141723D01*
Y103235D01*
X142731D01*
Y102865D01*
D02*
G37*
G36*
X139975D02*
X139365D01*
Y102689D01*
X139892D01*
Y102329D01*
X139365D01*
Y101792D01*
X138967D01*
Y103235D01*
X139975D01*
Y102865D01*
D02*
G37*
G36*
X143379Y103235D02*
X143435Y103226D01*
X143453D01*
X143481Y103207D01*
X143536Y103189D01*
X143582Y103152D01*
X143592Y103142D01*
X143620Y103133D01*
X143647Y103105D01*
X143684Y103068D01*
X143693Y103059D01*
X143712Y103041D01*
X143758Y102976D01*
Y102967D01*
X143767Y102948D01*
X143786Y102893D01*
Y102884D01*
X143795Y102874D01*
X143814Y102819D01*
Y102810D01*
Y102782D01*
Y102735D01*
Y102680D01*
Y102671D01*
X143823Y102634D01*
Y102578D01*
Y102523D01*
Y102504D01*
Y102467D01*
Y102402D01*
X143814Y102347D01*
Y102338D01*
Y102310D01*
Y102264D01*
Y102208D01*
Y102199D01*
X143805Y102181D01*
X143786Y102125D01*
Y102116D01*
X143777Y102097D01*
X143749Y102051D01*
Y102042D01*
X143730Y102023D01*
X143712Y101996D01*
X143684Y101959D01*
X143675Y101949D01*
X143657Y101931D01*
X143620Y101903D01*
X143582Y101866D01*
X143573Y101857D01*
X143536Y101838D01*
X143490Y101820D01*
X143435Y101801D01*
X143425D01*
X143388Y101792D01*
X143333Y101783D01*
X143212D01*
X143157Y101792D01*
X143102Y101801D01*
X143092D01*
X143064Y101820D01*
X143018Y101838D01*
X142963Y101866D01*
X142954Y101875D01*
X142926Y101894D01*
X142852Y101959D01*
X142842Y101968D01*
X142833Y101986D01*
X142787Y102051D01*
Y102060D01*
X142778Y102069D01*
Y102079D01*
X142769D01*
Y102088D01*
X142750Y102116D01*
Y102125D01*
Y102134D01*
Y102153D01*
X142741Y102162D01*
Y102171D01*
X142731Y102199D01*
Y102208D01*
Y102236D01*
Y102273D01*
X142722Y102329D01*
Y102338D01*
Y102384D01*
Y102439D01*
Y102523D01*
Y102532D01*
Y102541D01*
Y102587D01*
Y102643D01*
Y102699D01*
Y102708D01*
X142731Y102745D01*
Y102782D01*
Y102828D01*
Y102837D01*
X142741Y102847D01*
X142750Y102893D01*
Y102902D01*
X142759Y102920D01*
X142787Y102976D01*
Y102985D01*
X142806Y103004D01*
X142824Y103032D01*
X142852Y103068D01*
X142861Y103078D01*
X142889Y103105D01*
X142926Y103133D01*
X142963Y103161D01*
X142972Y103170D01*
X143009Y103189D01*
X143046Y103207D01*
X143102Y103226D01*
X143120D01*
X143157Y103235D01*
X143203Y103244D01*
X143324D01*
X143379Y103235D01*
D02*
G37*
G36*
X133861Y108609D02*
X133879Y108591D01*
X133907Y108563D01*
X133944Y108517D01*
X133990Y108461D01*
X134046Y108396D01*
X134101Y108313D01*
X134166Y108230D01*
X134295Y108036D01*
X134434Y107823D01*
X134573Y107582D01*
X134684Y107324D01*
Y107314D01*
X134693Y107296D01*
X134712Y107259D01*
X134730Y107203D01*
X134749Y107139D01*
X134776Y107064D01*
X134804Y106981D01*
X134832Y106889D01*
X134888Y106667D01*
X134943Y106426D01*
X134980Y106158D01*
X135008Y105880D01*
Y105871D01*
Y105843D01*
Y105807D01*
Y105751D01*
Y105686D01*
Y105603D01*
Y105510D01*
Y105418D01*
X134989Y105187D01*
X134952Y104937D01*
X134906Y104669D01*
X134832Y104391D01*
Y104382D01*
X134823Y104364D01*
X134813Y104317D01*
X134795Y104271D01*
X134767Y104206D01*
X134739Y104132D01*
X134712Y104040D01*
X134675Y103947D01*
X134582Y103744D01*
X134471Y103513D01*
X134342Y103281D01*
X134185Y103041D01*
X134175Y103032D01*
X134166Y103013D01*
X134138Y102985D01*
X134101Y102939D01*
X134064Y102884D01*
X134009Y102828D01*
X133888Y102680D01*
X133731Y102514D01*
X133546Y102347D01*
X133343Y102162D01*
X133112Y101996D01*
X133102Y101986D01*
X133084Y101977D01*
X133047Y101959D01*
X133001Y101921D01*
X132945Y101884D01*
X132871Y101848D01*
X132797Y101801D01*
X132704Y101755D01*
X132501Y101653D01*
X132270Y101542D01*
X132020Y101441D01*
X131752Y101357D01*
X131743D01*
X131705Y101348D01*
X131641Y101330D01*
X131567Y101311D01*
X131483Y101293D01*
X131382Y101274D01*
X131169Y101237D01*
X131160D01*
X131123Y101228D01*
X131067D01*
X131002Y101218D01*
X130919Y101209D01*
X130836D01*
X130669Y101200D01*
X130623Y101246D01*
X130577D01*
X130540Y101237D01*
X130179D01*
X130022Y101246D01*
X129856Y101256D01*
X129689Y101283D01*
X129680D01*
X129671Y101293D01*
X129615Y101302D01*
X129523Y101320D01*
X129411Y101357D01*
X129273Y101394D01*
X129125Y101450D01*
X128958Y101514D01*
X128782Y101588D01*
X128903Y101921D01*
X128912D01*
X128940Y101912D01*
X128977Y101894D01*
X129032Y101875D01*
X129097Y101848D01*
X129180Y101829D01*
X129273Y101801D01*
X129365Y101774D01*
X129587Y101709D01*
X129828Y101653D01*
X130087Y101616D01*
X130346Y101588D01*
X130762D01*
X130965Y101607D01*
X131187Y101635D01*
X131419Y101672D01*
X131659Y101727D01*
X131668D01*
X131687Y101736D01*
X131724Y101746D01*
X131770Y101764D01*
X131826Y101783D01*
X131890Y101811D01*
X132057Y101875D01*
X132242Y101949D01*
X132446Y102051D01*
X132668Y102181D01*
X132880Y102319D01*
X132889D01*
X132908Y102338D01*
X132936Y102356D01*
X132973Y102384D01*
X133074Y102458D01*
X133204Y102569D01*
X133361Y102689D01*
X133519Y102837D01*
X133676Y103004D01*
X133833Y103180D01*
X133842Y103189D01*
X133852Y103207D01*
X133879Y103244D01*
X133907Y103290D01*
X133944Y103355D01*
X133981Y103429D01*
X134027Y103513D01*
X134073Y103605D01*
X134185Y103808D01*
X134286Y104040D01*
X134388Y104289D01*
X134471Y104549D01*
Y104558D01*
X134481Y104576D01*
X134490Y104613D01*
X134499Y104659D01*
X134518Y104715D01*
X134527Y104789D01*
X134545Y104863D01*
X134564Y104946D01*
X134591Y105150D01*
X134610Y105362D01*
X134619Y105603D01*
Y105843D01*
Y105853D01*
Y105871D01*
Y105908D01*
X134610Y105955D01*
Y106019D01*
X134601Y106084D01*
X134591Y106167D01*
X134573Y106260D01*
X134536Y106454D01*
X134490Y106676D01*
X134425Y106907D01*
X134342Y107148D01*
Y107157D01*
X134333Y107176D01*
X134314Y107212D01*
X134295Y107259D01*
X134268Y107314D01*
X134231Y107379D01*
X134148Y107545D01*
X134046Y107730D01*
X133916Y107943D01*
X133759Y108165D01*
X133583Y108387D01*
X133852Y108618D01*
X133861Y108609D01*
D02*
G37*
G36*
X134693Y110561D02*
Y110533D01*
Y110496D01*
X134703Y110468D01*
X134712Y110459D01*
X134721Y110432D01*
Y110385D01*
X134712Y110376D01*
X134703Y110357D01*
X134675Y110330D01*
X134638Y110293D01*
X134545Y110191D01*
X134425Y110062D01*
X134286Y109904D01*
X134129Y109729D01*
X133963Y109544D01*
X133796Y109349D01*
X133787Y109340D01*
X133777Y109331D01*
X133750Y109303D01*
X133722Y109266D01*
X133630Y109164D01*
X133519Y109035D01*
X133389Y108887D01*
X133232Y108720D01*
X133074Y108535D01*
X132908Y108350D01*
X132899Y108341D01*
X132889Y108332D01*
X132862Y108304D01*
X132834Y108267D01*
X132741Y108165D01*
X132631Y108036D01*
X132492Y107888D01*
X132334Y107712D01*
X132177Y107536D01*
X132001Y107342D01*
X131992Y107333D01*
X131983Y107324D01*
X131955Y107296D01*
X131928Y107259D01*
X131835Y107157D01*
X131724Y107037D01*
X131585Y106898D01*
X131437Y106750D01*
X131280Y106593D01*
X131123Y106445D01*
X131141D01*
X131169Y106436D01*
X131206Y106426D01*
X131298Y106408D01*
X131419Y106380D01*
X131558Y106343D01*
X131724Y106297D01*
X131909Y106251D01*
X132103Y106204D01*
X132113D01*
X132131Y106195D01*
X132159D01*
X132196Y106176D01*
X132242Y106167D01*
X132307Y106149D01*
X132446Y106112D01*
X132612Y106065D01*
X132806Y106010D01*
X133019Y105945D01*
X133250Y105871D01*
X133241Y105862D01*
X133232Y105843D01*
X133204Y105807D01*
X133176Y105770D01*
X133112Y105686D01*
X133084Y105658D01*
X133056Y105631D01*
X133047Y105622D01*
X133028Y105603D01*
X132991Y105575D01*
X132945Y105538D01*
X132936Y105529D01*
X132908Y105510D01*
X132862Y105483D01*
X132806Y105437D01*
X132732Y105381D01*
X132640Y105316D01*
X132538Y105242D01*
X132427Y105168D01*
X132307Y105076D01*
X132168Y104983D01*
X132020Y104882D01*
X131872Y104780D01*
X131539Y104558D01*
X131187Y104326D01*
X131178Y104317D01*
X131150Y104299D01*
X131114Y104271D01*
X131049Y104225D01*
X130975Y104169D01*
X130892Y104104D01*
X130799Y104031D01*
X130688Y103947D01*
X130577Y103864D01*
X130447Y103762D01*
X130179Y103559D01*
X129883Y103346D01*
X129587Y103115D01*
X129578Y103105D01*
X129550Y103087D01*
X129504Y103059D01*
X129448Y103013D01*
X129375Y102957D01*
X129291Y102893D01*
X129190Y102819D01*
X129088Y102735D01*
X128967Y102652D01*
X128847Y102560D01*
X128570Y102356D01*
X128283Y102134D01*
X127987Y101912D01*
X127978Y101903D01*
X127959Y101884D01*
X127922Y101857D01*
X127876Y101811D01*
X127811Y101755D01*
X127746Y101699D01*
X127663Y101626D01*
X127571Y101551D01*
X127469Y101459D01*
X127358Y101366D01*
X127108Y101172D01*
X126840Y100960D01*
X126544Y100738D01*
X126535Y100728D01*
X126507Y100710D01*
X126452Y100682D01*
X126377Y100636D01*
X126359Y100627D01*
X126313Y100608D01*
X126285D01*
X126257Y100617D01*
X126230Y100636D01*
X126202Y100663D01*
Y100673D01*
Y100682D01*
X126192Y100738D01*
X126202Y100812D01*
X126220Y100839D01*
X126239Y100867D01*
X126257Y100876D01*
X126285Y100904D01*
X126331Y100941D01*
X126377Y100978D01*
X126396Y100996D01*
X126442Y101043D01*
X126507Y101117D01*
X126600Y101209D01*
X126710Y101320D01*
X126831Y101459D01*
X126960Y101598D01*
X127099Y101746D01*
X127118Y101764D01*
X127164Y101811D01*
X127238Y101894D01*
X127330Y101996D01*
X127441Y102106D01*
X127571Y102245D01*
X127700Y102393D01*
X127848Y102541D01*
X127857Y102550D01*
X127867Y102560D01*
X127913Y102615D01*
X127987Y102689D01*
X128089Y102800D01*
X128209Y102920D01*
X128339Y103059D01*
X128616Y103346D01*
X128635Y103365D01*
X128672Y103411D01*
X128736Y103485D01*
X128820Y103577D01*
X128912Y103688D01*
X129032Y103818D01*
X129153Y103947D01*
X129291Y104095D01*
X129300Y104104D01*
X129310Y104123D01*
X129338Y104151D01*
X129375Y104188D01*
X129458Y104280D01*
X129560Y104391D01*
X129569Y104401D01*
X129587Y104419D01*
X129615Y104447D01*
X129661Y104484D01*
X129717Y104530D01*
X129781Y104576D01*
X129856Y104632D01*
X129939Y104687D01*
X129828Y104669D01*
X129809D01*
X129754Y104687D01*
X129671Y104697D01*
X129569Y104724D01*
X129439Y104752D01*
X129300Y104789D01*
X129005Y104872D01*
X128986Y104882D01*
X128930Y104900D01*
X128847Y104928D01*
X128745Y104965D01*
X128607Y105020D01*
X128449Y105076D01*
X128274Y105140D01*
X128089Y105215D01*
X128098Y105224D01*
X128126Y105252D01*
X128172Y105289D01*
X128237Y105344D01*
X128311Y105418D01*
X128394Y105492D01*
X128496Y105585D01*
X128607Y105686D01*
X128736Y105788D01*
X128857Y105908D01*
X129143Y106140D01*
X129430Y106389D01*
X129735Y106639D01*
X129745Y106648D01*
X129772Y106667D01*
X129818Y106704D01*
X129874Y106750D01*
X129948Y106806D01*
X130031Y106879D01*
X130133Y106954D01*
X130235Y107046D01*
X130355Y107139D01*
X130484Y107240D01*
X130753Y107462D01*
X131040Y107703D01*
X131335Y107943D01*
X131345Y107952D01*
X131372Y107971D01*
X131419Y108008D01*
X131474Y108054D01*
X131548Y108119D01*
X131632Y108184D01*
X131733Y108267D01*
X131835Y108350D01*
X131955Y108452D01*
X132085Y108554D01*
X132353Y108766D01*
X132640Y109007D01*
X132936Y109248D01*
X132945Y109257D01*
X132973Y109275D01*
X133019Y109312D01*
X133074Y109359D01*
X133149Y109423D01*
X133241Y109488D01*
X133343Y109571D01*
X133454Y109664D01*
X133583Y109756D01*
X133713Y109858D01*
X133861Y109969D01*
X134009Y110089D01*
X134342Y110330D01*
X134693Y110580D01*
Y110561D01*
D02*
G37*
%LPC*%
G36*
X145115Y113520D02*
X144302Y111645D01*
X145005D01*
X145115Y113520D01*
D02*
G37*
G36*
X158882Y106741D02*
X158836D01*
X158780Y106731D01*
X158715Y106722D01*
X158642Y106704D01*
X158568Y106676D01*
X158503Y106639D01*
X158438Y106583D01*
X158429Y106574D01*
X158420Y106556D01*
X158392Y106519D01*
X158373Y106463D01*
X158345Y106389D01*
X158318Y106306D01*
X158308Y106204D01*
X158299Y106084D01*
Y106065D01*
Y106028D01*
X158308Y105964D01*
X158318Y105890D01*
X158336Y105807D01*
X158355Y105714D01*
X158392Y105640D01*
X158438Y105566D01*
X158447Y105557D01*
X158466Y105538D01*
X158503Y105510D01*
X158549Y105483D01*
X158614Y105455D01*
X158688Y105427D01*
X158780Y105409D01*
X158882Y105400D01*
X158928D01*
X158984Y105409D01*
X159039Y105418D01*
X159113Y105437D01*
X159187Y105473D01*
X159252Y105510D01*
X159308Y105566D01*
X159317Y105575D01*
X159335Y105594D01*
X159354Y105640D01*
X159381Y105695D01*
X159409Y105770D01*
X159437Y105853D01*
X159446Y105964D01*
X159456Y106084D01*
Y106103D01*
Y106140D01*
X159446Y106204D01*
X159437Y106278D01*
X159418Y106352D01*
X159391Y106436D01*
X159354Y106519D01*
X159308Y106583D01*
X159298Y106593D01*
X159280Y106611D01*
X159252Y106630D01*
X159206Y106667D01*
X159141Y106694D01*
X159067Y106713D01*
X158984Y106731D01*
X158882Y106741D01*
D02*
G37*
G36*
X160223Y102884D02*
X159992D01*
Y102654D01*
X160177Y102689D01*
X160232D01*
X160242Y102699D01*
X160269Y102717D01*
X160279Y102726D01*
Y102745D01*
X160288Y102763D01*
Y102800D01*
Y102810D01*
Y102819D01*
X160279Y102837D01*
X160269Y102847D01*
X160260Y102865D01*
X160251D01*
X160232Y102874D01*
X160223Y102884D01*
D02*
G37*
G36*
X152379Y102430D02*
X152158D01*
X152176Y102338D01*
X152379Y102430D01*
D02*
G37*
G36*
X149595D02*
X149374D01*
X149391Y102338D01*
X149595Y102430D01*
D02*
G37*
G36*
X144554Y102884D02*
X144323D01*
Y102653D01*
X144517Y102689D01*
X144563D01*
X144572Y102699D01*
X144591Y102708D01*
Y102717D01*
X144600Y102726D01*
X144618Y102754D01*
X144628Y102763D01*
Y102800D01*
Y102810D01*
Y102819D01*
X144618Y102837D01*
Y102847D01*
X144609Y102856D01*
X144591Y102865D01*
X144581D01*
X144563Y102874D01*
X144554Y102884D01*
D02*
G37*
G36*
X143296Y102865D02*
X143268D01*
X143231Y102856D01*
X143203D01*
X143194Y102847D01*
X143175Y102828D01*
X143166Y102810D01*
X143157Y102800D01*
X143139Y102772D01*
Y102763D01*
X143129Y102754D01*
Y102745D01*
Y102726D01*
X143120Y102689D01*
Y102680D01*
Y102643D01*
Y102587D01*
Y102523D01*
Y102504D01*
Y102458D01*
Y102402D01*
Y102347D01*
Y102338D01*
X143129Y102310D01*
Y102292D01*
Y102273D01*
Y102264D01*
X143139Y102245D01*
X143148Y102236D01*
X143166Y102208D01*
X143175Y102199D01*
Y102190D01*
X143185D01*
X143212Y102181D01*
X143222Y102171D01*
X143240Y102162D01*
X143305D01*
X143314Y102171D01*
X143324Y102181D01*
X143333D01*
X143342Y102190D01*
X143360D01*
X143370Y102199D01*
X143379Y102208D01*
X143388Y102217D01*
X143407Y102245D01*
Y102254D01*
X143416Y102264D01*
Y102282D01*
Y102292D01*
Y102301D01*
Y102329D01*
Y102366D01*
Y102375D01*
X143425Y102412D01*
Y102458D01*
Y102523D01*
Y102532D01*
Y102569D01*
Y102615D01*
X143416Y102662D01*
Y102671D01*
Y102699D01*
Y102735D01*
Y102754D01*
X143407Y102772D01*
X143397Y102782D01*
X143379Y102810D01*
X143370Y102819D01*
X143360Y102828D01*
X143351Y102837D01*
X143333Y102856D01*
X143305D01*
X143296Y102865D01*
D02*
G37*
%LPD*%
D10*
X334600Y289400D02*
G03*
X334600Y289400I-100J0D01*
G01*
D11*
X149933Y192138D02*
G03*
X149933Y192138I-1181J0D01*
G01*
X234547Y238248D02*
G03*
X234547Y238248I-1181J0D01*
G01*
X153933Y146138D02*
G03*
X153933Y146138I-1181J0D01*
G01*
X340093Y237902D02*
G03*
X340093Y237902I-1181J0D01*
G01*
X151615Y234098D02*
G03*
X151615Y234098I-1181J0D01*
G01*
X294519Y238248D02*
G03*
X294519Y238248I-1181J0D01*
G01*
D12*
X144146Y183772D02*
G03*
X144146Y183772I-492J0D01*
G01*
X225492Y243347D02*
G03*
X225492Y243347I-492J0D01*
G01*
X148146Y137772D02*
G03*
X148146Y137772I-492J0D01*
G01*
X331038Y243001D02*
G03*
X331038Y243001I-492J0D01*
G01*
X159292Y228999D02*
G03*
X159292Y228999I-492J0D01*
G01*
X285464Y243347D02*
G03*
X285464Y243347I-492J0D01*
G01*
D13*
X114500Y100000D02*
Y112600D01*
X100000Y100000D02*
X114500D01*
Y112600D02*
X114700Y112400D01*
X114400Y285000D02*
X114500Y284900D01*
X355100Y285000D02*
X355200Y284900D01*
D14*
X184185Y188201D02*
Y200799D01*
X144815Y188201D02*
Y200799D01*
X184185D01*
X144815Y188201D02*
X184185D01*
X229429Y202815D02*
X242028D01*
X229429Y242185D02*
X242028D01*
Y202815D02*
Y242185D01*
X229429Y202815D02*
Y242185D01*
X188185Y142201D02*
Y154799D01*
X148815Y142201D02*
Y154799D01*
X188185D01*
X148815Y142201D02*
X188185D01*
X334975Y202469D02*
X347573D01*
X334975Y241839D02*
X347573D01*
Y202469D02*
Y241839D01*
X334975Y202469D02*
Y241839D01*
X141772Y269531D02*
X154371D01*
X141772Y230161D02*
X154371D01*
X141772D02*
Y269531D01*
X154371Y230161D02*
Y269531D01*
X289401Y202815D02*
X301999D01*
X289401Y242185D02*
X301999D01*
Y202815D02*
Y242185D01*
X289401Y202815D02*
Y242185D01*
D15*
X335866Y266183D02*
X335450Y266599D01*
X334616D01*
X334200Y266183D01*
Y264516D01*
X334616Y264100D01*
X335450D01*
X335866Y264516D01*
Y265350D01*
X335033D01*
X336699Y264100D02*
Y266599D01*
X338365Y264100D01*
Y266599D01*
X339198D02*
Y264100D01*
X340448D01*
X340864Y264516D01*
Y266183D01*
X340448Y266599D01*
X339198D01*
X352600Y261683D02*
X353016Y262099D01*
X353850D01*
X354266Y261683D01*
Y261266D01*
X353850Y260850D01*
X353433D01*
X353850D01*
X354266Y260433D01*
Y260016D01*
X353850Y259600D01*
X353016D01*
X352600Y260016D01*
X355099Y259600D02*
Y260016D01*
X355516D01*
Y259600D01*
X355099D01*
X357182Y261683D02*
X357598Y262099D01*
X358431D01*
X358848Y261683D01*
Y261266D01*
X358431Y260850D01*
X358015D01*
X358431D01*
X358848Y260433D01*
Y260016D01*
X358431Y259600D01*
X357598D01*
X357182Y260016D01*
X359681Y262099D02*
Y260433D01*
X360514Y259600D01*
X361347Y260433D01*
Y262099D01*
X364679D02*
X365512D01*
X365096D01*
Y259600D01*
X364679D01*
X365512D01*
X366762D02*
Y262099D01*
X368428Y259600D01*
Y262099D01*
X129383Y248134D02*
X129799Y248550D01*
Y249383D01*
X129383Y249800D01*
X127717D01*
X127300Y249383D01*
Y248550D01*
X127717Y248134D01*
X129799Y245635D02*
Y247301D01*
X128550D01*
X128966Y246468D01*
Y246051D01*
X128550Y245635D01*
X127717D01*
X127300Y246051D01*
Y246884D01*
X127717Y247301D01*
X126883Y244802D02*
Y243135D01*
X127300Y242302D02*
Y241469D01*
Y241886D01*
X129799D01*
X129383Y242302D01*
X142999Y214999D02*
X142499Y215499D01*
X141500D01*
X141000Y214999D01*
Y213000D01*
X141500Y212500D01*
X142499D01*
X142999Y213000D01*
X143999Y215499D02*
X145998D01*
Y214999D01*
X143999Y213000D01*
Y212500D01*
X146998Y212000D02*
X148997D01*
X149997Y212500D02*
X150997D01*
X150497D01*
Y215499D01*
X149997Y214999D01*
X313299Y236399D02*
X312800Y236899D01*
X311800D01*
X311300Y236399D01*
Y234400D01*
X311800Y233900D01*
X312800D01*
X313299Y234400D01*
X314299Y236899D02*
X316298D01*
Y236399D01*
X314299Y234400D01*
Y233900D01*
X317298Y233400D02*
X319297D01*
X322296Y233900D02*
X320297D01*
X322296Y235899D01*
Y236399D01*
X321797Y236899D01*
X320797D01*
X320297Y236399D01*
X142999Y221499D02*
X142499Y221999D01*
X141500D01*
X141000Y221499D01*
Y219500D01*
X141500Y219000D01*
X142499D01*
X142999Y219500D01*
X143999Y221499D02*
X144499Y221999D01*
X145499D01*
X145998Y221499D01*
Y220999D01*
X145499Y220499D01*
X145998Y220000D01*
Y219500D01*
X145499Y219000D01*
X144499D01*
X143999Y219500D01*
Y220000D01*
X144499Y220499D01*
X143999Y220999D01*
Y221499D01*
X144499Y220499D02*
X145499D01*
X146998Y218500D02*
X148997D01*
X149997Y219000D02*
X150997D01*
X150497D01*
Y221999D01*
X149997Y221499D01*
X301299Y246399D02*
X300799Y246899D01*
X299800D01*
X299300Y246399D01*
Y244400D01*
X299800Y243900D01*
X300799D01*
X301299Y244400D01*
X302299Y246399D02*
X302799Y246899D01*
X303799D01*
X304298Y246399D01*
Y245899D01*
X303799Y245399D01*
X304298Y244900D01*
Y244400D01*
X303799Y243900D01*
X302799D01*
X302299Y244400D01*
Y244900D01*
X302799Y245399D01*
X302299Y245899D01*
Y246399D01*
X302799Y245399D02*
X303799D01*
X305298Y243400D02*
X307297D01*
X310296Y243900D02*
X308297D01*
X310296Y245899D01*
Y246399D01*
X309797Y246899D01*
X308797D01*
X308297Y246399D01*
X135399Y167099D02*
X134899Y167599D01*
X133900D01*
X133400Y167099D01*
Y165100D01*
X133900Y164600D01*
X134899D01*
X135399Y165100D01*
X136399D02*
X136899Y164600D01*
X137899D01*
X138398Y165100D01*
Y167099D01*
X137899Y167599D01*
X136899D01*
X136399Y167099D01*
Y166599D01*
X136899Y166100D01*
X138398D01*
X139398Y164100D02*
X141397D01*
X142397Y164600D02*
X143397D01*
X142897D01*
Y167599D01*
X142397Y167099D01*
X252799Y236199D02*
X252299Y236699D01*
X251300D01*
X250800Y236199D01*
Y234200D01*
X251300Y233700D01*
X252299D01*
X252799Y234200D01*
X253799D02*
X254299Y233700D01*
X255298D01*
X255798Y234200D01*
Y236199D01*
X255298Y236699D01*
X254299D01*
X253799Y236199D01*
Y235699D01*
X254299Y235199D01*
X255798D01*
X256798Y233200D02*
X258797D01*
X261796Y233700D02*
X259797D01*
X261796Y235699D01*
Y236199D01*
X261297Y236699D01*
X260297D01*
X259797Y236199D01*
X133299Y171999D02*
X132799Y172499D01*
X131800D01*
X131300Y171999D01*
Y170000D01*
X131800Y169500D01*
X132799D01*
X133299Y170000D01*
X134299Y169500D02*
X135299D01*
X134799D01*
Y172499D01*
X134299Y171999D01*
X136798D02*
X137298Y172499D01*
X138298D01*
X138798Y171999D01*
Y170000D01*
X138298Y169500D01*
X137298D01*
X136798Y170000D01*
Y171999D01*
X139797Y169000D02*
X141797D01*
X142796Y169500D02*
X143796D01*
X143296D01*
Y172499D01*
X142796Y171999D01*
X239199Y246099D02*
X238700Y246599D01*
X237700D01*
X237200Y246099D01*
Y244100D01*
X237700Y243600D01*
X238700D01*
X239199Y244100D01*
X240199Y243600D02*
X241199D01*
X240699D01*
Y246599D01*
X240199Y246099D01*
X242698D02*
X243198Y246599D01*
X244198D01*
X244698Y246099D01*
Y244100D01*
X244198Y243600D01*
X243198D01*
X242698Y244100D01*
Y246099D01*
X245697Y243100D02*
X247697D01*
X250696Y243600D02*
X248696D01*
X250696Y245599D01*
Y246099D01*
X250196Y246599D01*
X249196D01*
X248696Y246099D01*
D16*
X223700Y108699D02*
X226366D01*
X225033D01*
Y104700D01*
X227699Y108699D02*
Y104700D01*
Y106699D01*
X228365Y107366D01*
X229698D01*
X230364Y106699D01*
Y104700D01*
X233697D02*
X232364D01*
X231697Y105367D01*
Y106699D01*
X232364Y107366D01*
X233697D01*
X234363Y106699D01*
Y106033D01*
X231697D01*
X235696Y107366D02*
Y104700D01*
Y106033D01*
X236363Y106699D01*
X237029Y107366D01*
X237696D01*
X239695Y104700D02*
Y107366D01*
X240361D01*
X241028Y106699D01*
Y104700D01*
Y106699D01*
X241694Y107366D01*
X242361Y106699D01*
Y104700D01*
X250358Y108699D02*
X247692D01*
Y104700D01*
X250358D01*
X247692Y106699D02*
X249025D01*
X251691Y107366D02*
X254357Y104700D01*
X253024Y106033D01*
X254357Y107366D01*
X251691Y104700D01*
X255690Y103367D02*
Y107366D01*
X257689D01*
X258355Y106699D01*
Y105367D01*
X257689Y104700D01*
X255690D01*
X260355Y107366D02*
X261688D01*
X262354Y106699D01*
Y104700D01*
X260355D01*
X259688Y105367D01*
X260355Y106033D01*
X262354D01*
X263687Y104700D02*
Y107366D01*
X265686D01*
X266353Y106699D01*
Y104700D01*
X270352Y108699D02*
Y104700D01*
X268352D01*
X267686Y105367D01*
Y106699D01*
X268352Y107366D01*
X270352D01*
X275683Y108699D02*
X278349D01*
X277016D01*
Y104700D01*
X280348D02*
X281681D01*
X282348Y105367D01*
Y106699D01*
X281681Y107366D01*
X280348D01*
X279682Y106699D01*
Y105367D01*
X280348Y104700D01*
X283681Y103367D02*
Y107366D01*
X285680D01*
X286347Y106699D01*
Y105367D01*
X285680Y104700D01*
X283681D01*
X291678Y108699D02*
Y104700D01*
X293677D01*
X294344Y105367D01*
Y106033D01*
X293677Y106699D01*
X291678D01*
X293677D01*
X294344Y107366D01*
Y108032D01*
X293677Y108699D01*
X291678D01*
X296343Y104700D02*
X297676D01*
X298343Y105367D01*
Y106699D01*
X297676Y107366D01*
X296343D01*
X295677Y106699D01*
Y105367D01*
X296343Y104700D01*
X300342Y107366D02*
X301675D01*
X302341Y106699D01*
Y104700D01*
X300342D01*
X299675Y105367D01*
X300342Y106033D01*
X302341D01*
X303674Y107366D02*
Y104700D01*
Y106033D01*
X304341Y106699D01*
X305007Y107366D01*
X305674D01*
X310339Y108699D02*
Y104700D01*
X308339D01*
X307673Y105367D01*
Y106699D01*
X308339Y107366D01*
X310339D01*
X139566Y284532D02*
X138899Y285199D01*
X137566D01*
X136900Y284532D01*
Y281866D01*
X137566Y281200D01*
X138899D01*
X139566Y281866D01*
X146900Y285199D02*
Y281200D01*
X148899D01*
X149566Y281866D01*
Y282533D01*
X148899Y283199D01*
X146900D01*
X148899D01*
X149566Y283866D01*
Y284532D01*
X148899Y285199D01*
X146900D01*
X156900Y281200D02*
Y283866D01*
X158233Y285199D01*
X159566Y283866D01*
Y281200D01*
Y283199D01*
X156900D01*
X172700Y112199D02*
Y108200D01*
X174033Y109533D01*
X175366Y108200D01*
Y112199D01*
X176699Y108200D02*
X178032D01*
X177365D01*
Y110866D01*
X176699D01*
X180031Y108200D02*
X181364D01*
X180697D01*
Y112199D01*
X180031D01*
X183363Y108200D02*
X184696D01*
X184030D01*
Y112199D01*
X183363D01*
X190694Y108200D02*
Y112199D01*
X192027Y110866D01*
X193360Y112199D01*
Y108200D01*
X197359Y110866D02*
X195359D01*
X194693Y110199D01*
Y108867D01*
X195359Y108200D01*
X197359D01*
X198692Y112199D02*
Y108200D01*
Y109533D01*
X201357Y112199D01*
X199358Y110199D01*
X201357Y108200D01*
X202690D02*
Y110866D01*
X204690D01*
X205356Y110199D01*
Y108200D01*
X206689D02*
X208022D01*
X207355D01*
Y110866D01*
X206689D01*
X211354Y106867D02*
X212021D01*
X212687Y107534D01*
Y110866D01*
X210688D01*
X210021Y110199D01*
Y108867D01*
X210688Y108200D01*
X212687D01*
X214020Y112199D02*
Y108200D01*
Y110199D01*
X214686Y110866D01*
X216019D01*
X216686Y110199D01*
Y108200D01*
X218685Y111532D02*
Y110866D01*
X218019D01*
X219352D01*
X218685D01*
Y108867D01*
X219352Y108200D01*
X172500Y101600D02*
Y105599D01*
X174499D01*
X175166Y104932D01*
Y103599D01*
X174499Y102933D01*
X172500D01*
X173833D02*
X175166Y101600D01*
X179165Y105599D02*
X176499D01*
Y101600D01*
X179165D01*
X176499Y103599D02*
X177832D01*
X180497Y105599D02*
Y102933D01*
X181830Y101600D01*
X183163Y102933D01*
Y105599D01*
X188495Y104932D02*
X189161Y105599D01*
X190494D01*
X191161Y104932D01*
Y102266D01*
X190494Y101600D01*
X189161D01*
X188495Y102266D01*
Y104932D01*
X192494Y101600D02*
Y102266D01*
X193160D01*
Y101600D01*
X192494D01*
X195826Y104932D02*
X196492Y105599D01*
X197825D01*
X198492Y104932D01*
Y104266D01*
X197825Y103599D01*
X197159D01*
X197825D01*
X198492Y102933D01*
Y102266D01*
X197825Y101600D01*
X196492D01*
X195826Y102266D01*
X318100Y283000D02*
Y286999D01*
X320099D01*
X320766Y286332D01*
Y284999D01*
X320099Y284333D01*
X318100D01*
X322099Y286999D02*
Y283000D01*
X323432Y284333D01*
X324764Y283000D01*
Y286999D01*
X326097Y283000D02*
Y286999D01*
X328097D01*
X328763Y286332D01*
Y284999D01*
X328097Y284333D01*
X326097D01*
X327430D02*
X328763Y283000D01*
X334095Y286999D02*
Y283000D01*
X336761D01*
X340759Y286999D02*
X338094D01*
Y283000D01*
X340759D01*
X338094Y284999D02*
X339426D01*
X342092Y286999D02*
Y283000D01*
X344092D01*
X344758Y283666D01*
Y286332D01*
X344092Y286999D01*
X342092D01*
X347400Y269700D02*
Y273699D01*
X349399D01*
X350066Y273032D01*
Y271699D01*
X349399Y271033D01*
X347400D01*
X351399Y273032D02*
X352065Y273699D01*
X353398D01*
X354064Y273032D01*
Y272366D01*
X353398Y271699D01*
X352732D01*
X353398D01*
X354064Y271033D01*
Y270366D01*
X353398Y269700D01*
X352065D01*
X351399Y270366D01*
X227800Y167400D02*
Y171399D01*
X229799D01*
X230466Y170732D01*
Y169399D01*
X229799Y168733D01*
X227800D01*
X231799Y167400D02*
X233132D01*
X232465D01*
Y171399D01*
X231799Y170732D01*
X329000Y270700D02*
X325001D01*
Y272699D01*
X325668Y273366D01*
X327001D01*
X327667Y272699D01*
Y270700D01*
Y272033D02*
X329000Y273366D01*
Y276698D02*
X325001D01*
X327001Y274699D01*
Y277364D01*
X122400Y292200D02*
Y296199D01*
X123733Y294866D01*
X125066Y296199D01*
Y292200D01*
X126399Y294866D02*
Y292866D01*
X127065Y292200D01*
X129065D01*
Y294866D01*
X130397D02*
X133063Y292200D01*
X131730Y293533D01*
X133063Y294866D01*
X130397Y292200D01*
X141061Y295532D02*
X140394Y296199D01*
X139061D01*
X138395Y295532D01*
Y294866D01*
X139061Y294199D01*
X140394D01*
X141061Y293533D01*
Y292866D01*
X140394Y292200D01*
X139061D01*
X138395Y292866D01*
X144393Y292200D02*
X143060D01*
X142394Y292866D01*
Y294199D01*
X143060Y294866D01*
X144393D01*
X145059Y294199D01*
Y293533D01*
X142394D01*
X146392Y292200D02*
X147725D01*
X147059D01*
Y296199D01*
X146392D01*
X153723D02*
X156389D01*
X155056D01*
Y292200D01*
X157722D02*
Y296199D01*
X159721D01*
X160388Y295532D01*
Y294199D01*
X159721Y293533D01*
X157722D01*
X168385Y295532D02*
X167719Y296199D01*
X166386D01*
X165719Y295532D01*
Y292866D01*
X166386Y292200D01*
X167719D01*
X168385Y292866D01*
X170385Y292200D02*
X171717D01*
X172384Y292866D01*
Y294199D01*
X171717Y294866D01*
X170385D01*
X169718Y294199D01*
Y292866D01*
X170385Y292200D01*
X173717D02*
Y294866D01*
X175716D01*
X176383Y294199D01*
Y292200D01*
X177716D02*
Y294866D01*
X179715D01*
X180381Y294199D01*
Y292200D01*
X183714D02*
X182381D01*
X181714Y292866D01*
Y294199D01*
X182381Y294866D01*
X183714D01*
X184380Y294199D01*
Y293533D01*
X181714D01*
X188379Y294866D02*
X186379D01*
X185713Y294199D01*
Y292866D01*
X186379Y292200D01*
X188379D01*
X190378Y295532D02*
Y294866D01*
X189712D01*
X191044D01*
X190378D01*
Y292866D01*
X191044Y292200D01*
X193710D02*
X195043D01*
X195710Y292866D01*
Y294199D01*
X195043Y294866D01*
X193710D01*
X193044Y294199D01*
Y292866D01*
X193710Y292200D01*
X197043Y294866D02*
Y292200D01*
Y293533D01*
X197709Y294199D01*
X198375Y294866D01*
X199042D01*
X357366Y247882D02*
X356749Y248499D01*
X355517D01*
X354900Y247882D01*
Y245416D01*
X355517Y244800D01*
X356749D01*
X357366Y245416D01*
X361065Y248499D02*
X358599D01*
Y246649D01*
X359832Y247266D01*
X360448D01*
X361065Y246649D01*
Y245416D01*
X360448Y244800D01*
X359215D01*
X358599Y245416D01*
X362298Y244183D02*
X364763D01*
X368462Y244800D02*
X365996D01*
X368462Y247266D01*
Y247882D01*
X367846Y248499D01*
X366613D01*
X365996Y247882D01*
X114668Y231566D02*
X114001Y230899D01*
Y229566D01*
X114668Y228900D01*
X117333D01*
X118000Y229566D01*
Y230899D01*
X117333Y231566D01*
X114001Y235564D02*
X114668Y234232D01*
X116001Y232899D01*
X117333D01*
X118000Y233565D01*
Y234898D01*
X117333Y235564D01*
X116667D01*
X116001Y234898D01*
Y232899D01*
X118667Y236897D02*
Y239563D01*
X118000Y240896D02*
Y242229D01*
Y241563D01*
X114001D01*
X114668Y240896D01*
X326666Y253532D02*
X325999Y254199D01*
X324666D01*
X324000Y253532D01*
Y250866D01*
X324666Y250200D01*
X325999D01*
X326666Y250866D01*
X330664Y254199D02*
X329332Y253532D01*
X327999Y252199D01*
Y250866D01*
X328665Y250200D01*
X329998D01*
X330664Y250866D01*
Y251533D01*
X329998Y252199D01*
X327999D01*
X331997Y249534D02*
X334663D01*
X338662Y250200D02*
X335996D01*
X338662Y252866D01*
Y253532D01*
X337996Y254199D01*
X336663D01*
X335996Y253532D01*
X108401Y132600D02*
Y135266D01*
Y133933D01*
X112400D01*
X108401Y136599D02*
X112400D01*
X110401D01*
X109734Y137265D01*
Y138598D01*
X110401Y139265D01*
X112400D01*
Y142597D02*
Y141264D01*
X111733Y140597D01*
X110401D01*
X109734Y141264D01*
Y142597D01*
X110401Y143263D01*
X111067D01*
Y140597D01*
X109734Y144596D02*
X112400D01*
X111067D01*
X110401Y145263D01*
X109734Y145929D01*
Y146596D01*
X112400Y148595D02*
X109734D01*
Y149261D01*
X110401Y149928D01*
X112400D01*
X110401D01*
X109734Y150594D01*
X110401Y151261D01*
X112400D01*
Y152594D02*
Y153926D01*
Y153260D01*
X109734D01*
Y152594D01*
X112400Y155926D02*
Y157925D01*
X111733Y158592D01*
X111067Y157925D01*
Y156592D01*
X110401Y155926D01*
X109734Y156592D01*
Y158592D01*
X109068Y160591D02*
X109734D01*
Y159924D01*
Y161257D01*
Y160591D01*
X111733D01*
X112400Y161257D01*
Y163923D02*
Y165256D01*
X111733Y165923D01*
X110401D01*
X109734Y165256D01*
Y163923D01*
X110401Y163257D01*
X111733D01*
X112400Y163923D01*
X109734Y167255D02*
X112400D01*
X111067D01*
X110401Y167922D01*
X109734Y168588D01*
Y169255D01*
X109068Y177919D02*
X108401Y177252D01*
Y175919D01*
X109068Y175253D01*
X111733D01*
X112400Y175919D01*
Y177252D01*
X111733Y177919D01*
X112400Y179918D02*
Y181251D01*
X111733Y181917D01*
X110401D01*
X109734Y181251D01*
Y179918D01*
X110401Y179252D01*
X111733D01*
X112400Y179918D01*
Y183250D02*
X109734D01*
Y185250D01*
X110401Y185916D01*
X112400D01*
Y187249D02*
X109734D01*
Y189248D01*
X110401Y189915D01*
X112400D01*
Y193247D02*
Y191914D01*
X111733Y191248D01*
X110401D01*
X109734Y191914D01*
Y193247D01*
X110401Y193914D01*
X111067D01*
Y191248D01*
X109734Y197912D02*
Y195913D01*
X110401Y195247D01*
X111733D01*
X112400Y195913D01*
Y197912D01*
X109068Y199912D02*
X109734D01*
Y199245D01*
Y200578D01*
Y199912D01*
X111733D01*
X112400Y200578D01*
Y203244D02*
Y204577D01*
X111733Y205243D01*
X110401D01*
X109734Y204577D01*
Y203244D01*
X110401Y202577D01*
X111733D01*
X112400Y203244D01*
X109734Y206576D02*
X112400D01*
X111067D01*
X110401Y207243D01*
X109734Y207909D01*
Y208576D01*
X235000Y281499D02*
X237666D01*
X236333D01*
Y277500D01*
X238999Y281499D02*
Y277500D01*
Y279499D01*
X239665Y280166D01*
X240998D01*
X241665Y279499D01*
Y277500D01*
X244997D02*
X243664D01*
X242997Y278166D01*
Y279499D01*
X243664Y280166D01*
X244997D01*
X245663Y279499D01*
Y278833D01*
X242997D01*
X246996Y280166D02*
Y277500D01*
Y278833D01*
X247663Y279499D01*
X248329Y280166D01*
X248995D01*
X250995Y277500D02*
Y280166D01*
X251661D01*
X252328Y279499D01*
Y277500D01*
Y279499D01*
X252994Y280166D01*
X253661Y279499D01*
Y277500D01*
X254994D02*
X256327D01*
X255660D01*
Y280166D01*
X254994D01*
X258326Y277500D02*
X260325D01*
X260992Y278166D01*
X260325Y278833D01*
X258992D01*
X258326Y279499D01*
X258992Y280166D01*
X260992D01*
X262991Y280832D02*
Y280166D01*
X262325D01*
X263657D01*
X262991D01*
Y278166D01*
X263657Y277500D01*
X266323D02*
X267656D01*
X268323Y278166D01*
Y279499D01*
X267656Y280166D01*
X266323D01*
X265657Y279499D01*
Y278166D01*
X266323Y277500D01*
X269655Y280166D02*
Y277500D01*
Y278833D01*
X270322Y279499D01*
X270988Y280166D01*
X271655D01*
X280319Y280832D02*
X279652Y281499D01*
X278319D01*
X277653Y280832D01*
Y278166D01*
X278319Y277500D01*
X279652D01*
X280319Y278166D01*
X282318Y277500D02*
X283651D01*
X284317Y278166D01*
Y279499D01*
X283651Y280166D01*
X282318D01*
X281652Y279499D01*
Y278166D01*
X282318Y277500D01*
X285650D02*
Y280166D01*
X287650D01*
X288316Y279499D01*
Y277500D01*
X289649D02*
Y280166D01*
X291648D01*
X292315Y279499D01*
Y277500D01*
X295647D02*
X294314D01*
X293648Y278166D01*
Y279499D01*
X294314Y280166D01*
X295647D01*
X296314Y279499D01*
Y278833D01*
X293648D01*
X300312Y280166D02*
X298313D01*
X297646Y279499D01*
Y278166D01*
X298313Y277500D01*
X300312D01*
X302312Y280832D02*
Y280166D01*
X301645D01*
X302978D01*
X302312D01*
Y278166D01*
X302978Y277500D01*
X305644D02*
X306977D01*
X307643Y278166D01*
Y279499D01*
X306977Y280166D01*
X305644D01*
X304977Y279499D01*
Y278166D01*
X305644Y277500D01*
X308976Y280166D02*
Y277500D01*
Y278833D01*
X309643Y279499D01*
X310309Y280166D01*
X310976D01*
X163100Y247000D02*
Y250999D01*
X165099D01*
X165766Y250332D01*
Y248999D01*
X165099Y248333D01*
X163100D01*
X164433D02*
X165766Y247000D01*
X167099D02*
X168432D01*
X167765D01*
Y250999D01*
X167099Y250332D01*
X170431Y246334D02*
X173097D01*
X174430Y247000D02*
X175763D01*
X175096D01*
Y250999D01*
X174430Y250332D01*
X311200Y224300D02*
Y228299D01*
X313199D01*
X313866Y227632D01*
Y226299D01*
X313199Y225633D01*
X311200D01*
X312533D02*
X313866Y224300D01*
X315199D02*
X316532D01*
X315865D01*
Y228299D01*
X315199Y227632D01*
X318531Y223634D02*
X321197D01*
X325196Y224300D02*
X322530D01*
X325196Y226966D01*
Y227632D01*
X324529Y228299D01*
X323196D01*
X322530Y227632D01*
X162400Y178800D02*
X166399D01*
Y176801D01*
X165732Y176134D01*
X164399D01*
X163733Y176801D01*
Y178800D01*
Y177467D02*
X162400Y176134D01*
Y172135D02*
Y174801D01*
X165066Y172135D01*
X165732D01*
X166399Y172802D01*
Y174135D01*
X165732Y174801D01*
X161733Y170803D02*
Y168137D01*
X162400Y166804D02*
Y165471D01*
Y166137D01*
X166399D01*
X165732Y166804D01*
X274800Y235700D02*
X278799D01*
Y233701D01*
X278132Y233034D01*
X276799D01*
X276133Y233701D01*
Y235700D01*
Y234367D02*
X274800Y233034D01*
Y229035D02*
Y231701D01*
X277466Y229035D01*
X278132D01*
X278799Y229702D01*
Y231035D01*
X278132Y231701D01*
X274134Y227703D02*
Y225037D01*
X274800Y221038D02*
Y223704D01*
X277466Y221038D01*
X278132D01*
X278799Y221705D01*
Y223037D01*
X278132Y223704D01*
X203700Y235000D02*
Y238999D01*
X205699D01*
X206366Y238332D01*
Y236999D01*
X205699Y236333D01*
X203700D01*
X205033D02*
X206366Y235000D01*
X207699Y238332D02*
X208365Y238999D01*
X209698D01*
X210365Y238332D01*
Y237666D01*
X209698Y236999D01*
X209032D01*
X209698D01*
X210365Y236333D01*
Y235666D01*
X209698Y235000D01*
X208365D01*
X207699Y235666D01*
X211697Y234334D02*
X214363D01*
X218362Y235000D02*
X215696D01*
X218362Y237666D01*
Y238332D01*
X217695Y238999D01*
X216363D01*
X215696Y238332D01*
X144000Y275499D02*
Y272166D01*
X144667Y271500D01*
X145999D01*
X146666Y272166D01*
Y275499D01*
X147999Y274832D02*
X148665Y275499D01*
X149998D01*
X150664Y274832D01*
Y274166D01*
X149998Y273499D01*
X149332D01*
X149998D01*
X150664Y272833D01*
Y272166D01*
X149998Y271500D01*
X148665D01*
X147999Y272166D01*
X151997Y270834D02*
X154663D01*
X155996Y271500D02*
X157329D01*
X156663D01*
Y275499D01*
X155996Y274832D01*
X334100Y200899D02*
Y197566D01*
X334766Y196900D01*
X336099D01*
X336766Y197566D01*
Y200899D01*
X338099Y200232D02*
X338765Y200899D01*
X340098D01*
X340764Y200232D01*
Y199566D01*
X340098Y198899D01*
X339432D01*
X340098D01*
X340764Y198233D01*
Y197566D01*
X340098Y196900D01*
X338765D01*
X338099Y197566D01*
X342097Y196233D02*
X344763D01*
X348762Y196900D02*
X346096D01*
X348762Y199566D01*
Y200232D01*
X348095Y200899D01*
X346763D01*
X346096Y200232D01*
X289000Y200899D02*
Y197566D01*
X289666Y196900D01*
X290999D01*
X291666Y197566D01*
Y200899D01*
X294998Y196900D02*
Y200899D01*
X292999Y198899D01*
X295665D01*
X296997Y196233D02*
X299663D01*
X303662Y196900D02*
X300996D01*
X303662Y199566D01*
Y200232D01*
X302995Y200899D01*
X301663D01*
X300996Y200232D01*
X190301Y142200D02*
X193633D01*
X194300Y142867D01*
Y144199D01*
X193633Y144866D01*
X190301D01*
Y148864D02*
Y146199D01*
X192301D01*
X191634Y147532D01*
Y148198D01*
X192301Y148864D01*
X193633D01*
X194300Y148198D01*
Y146865D01*
X193633Y146199D01*
X194966Y150197D02*
Y152863D01*
X194300Y154196D02*
Y155529D01*
Y154863D01*
X190301D01*
X190968Y154196D01*
X228300Y200899D02*
Y197566D01*
X228966Y196900D01*
X230299D01*
X230966Y197566D01*
Y200899D01*
X234964D02*
X232299D01*
Y198899D01*
X233632Y199566D01*
X234298D01*
X234964Y198899D01*
Y197566D01*
X234298Y196900D01*
X232965D01*
X232299Y197566D01*
X236297Y196233D02*
X238963D01*
X242962Y196900D02*
X240296D01*
X242962Y199566D01*
Y200232D01*
X242296Y200899D01*
X240963D01*
X240296Y200232D01*
X173700Y278700D02*
Y282699D01*
X175699D01*
X176366Y282032D01*
Y280699D01*
X175699Y280033D01*
X173700D01*
X179698Y278700D02*
Y282699D01*
X177699Y280699D01*
X180365D01*
X181697Y278034D02*
X184363D01*
X185696Y278700D02*
X187029D01*
X186363D01*
Y282699D01*
X185696Y282032D01*
X186601Y187900D02*
X189934D01*
X190600Y188567D01*
Y189899D01*
X189934Y190566D01*
X186601D01*
X190600Y193898D02*
X186601D01*
X188601Y191899D01*
Y194564D01*
X191267Y195897D02*
Y198563D01*
X190600Y199896D02*
Y201229D01*
Y200563D01*
X186601D01*
X187268Y199896D01*
D17*
X165700Y130700D02*
X169199D01*
Y128951D01*
X168616Y128367D01*
X167449D01*
X166866Y128951D01*
Y130700D01*
Y129534D02*
X165700Y128367D01*
X168616Y127201D02*
X169199Y126618D01*
Y125452D01*
X168616Y124869D01*
X168033D01*
X167449Y125452D01*
Y126035D01*
Y125452D01*
X166866Y124869D01*
X166283D01*
X165700Y125452D01*
Y126618D01*
X166283Y127201D01*
X165117Y123702D02*
Y121370D01*
X165700Y120203D02*
Y119037D01*
Y119620D01*
X169199D01*
X168616Y120203D01*
M02*
