G04*
G04 #@! TF.GenerationSoftware,Altium Limited,Altium Designer,18.1.11 (251)*
G04*
G04 Layer_Color=32768*
%FSLAX25Y25*%
%MOIN*%
G70*
G01*
G75*
%ADD67C,0.00394*%
%ADD68C,0.00197*%
D67*
X134700Y153628D02*
Y157172D01*
X132928Y155400D02*
X136472D01*
X251500Y264928D02*
Y268472D01*
X249728Y266700D02*
X253272D01*
X135000Y222328D02*
Y225872D01*
X133228Y224100D02*
X136772D01*
X314500Y266128D02*
Y269672D01*
X312728Y267900D02*
X316272D01*
X134700Y287828D02*
Y291372D01*
X132928Y289600D02*
X136472D01*
X376500Y264828D02*
Y268372D01*
X374728Y266600D02*
X378272D01*
X145832Y92500D02*
X149768D01*
X147800Y90531D02*
Y94468D01*
X196800Y242831D02*
Y246768D01*
X194832Y244800D02*
X198768D01*
X146031Y159800D02*
X149969D01*
X148000Y157832D02*
Y161768D01*
X263231Y248354D02*
X267168D01*
X265200Y246385D02*
Y250322D01*
X145931Y226954D02*
X149869D01*
X147900Y224985D02*
Y228922D01*
X326331Y248800D02*
X330269D01*
X328300Y246831D02*
Y250768D01*
X155400Y190131D02*
Y194069D01*
X153431Y192100D02*
X157369D01*
X155400Y121832D02*
Y125768D01*
X153431Y123800D02*
X157369D01*
X228132Y237500D02*
X232068D01*
X230100Y235531D02*
Y239469D01*
X291231Y237500D02*
X295168D01*
X293200Y235531D02*
Y239469D01*
X155400Y253731D02*
Y257668D01*
X153431Y255700D02*
X157369D01*
X352832Y237500D02*
X356768D01*
X354800Y235531D02*
Y239469D01*
X132830Y149400D02*
X136570D01*
X134700Y147530D02*
Y151270D01*
X249530Y261500D02*
X253270D01*
X251400Y259630D02*
Y263370D01*
X132930Y217700D02*
X136670D01*
X134800Y215830D02*
Y219570D01*
X312630Y262200D02*
X316370D01*
X314500Y260330D02*
Y264070D01*
X132930Y283100D02*
X136670D01*
X134800Y281230D02*
Y284970D01*
X374530Y260900D02*
X378270D01*
X376400Y259030D02*
Y262770D01*
X359728Y294390D02*
X363272D01*
X361500Y292618D02*
Y296161D01*
X349606Y175886D02*
Y179429D01*
X347835Y177657D02*
X351378D01*
X349606Y183858D02*
Y187402D01*
X347835Y185630D02*
X351378D01*
X349606Y191831D02*
Y195374D01*
X347835Y193602D02*
X351378D01*
D68*
X128007Y151266D02*
X141393D01*
X128007Y159534D02*
X141393D01*
Y151266D02*
Y159534D01*
X128007Y151266D02*
Y159534D01*
X244807Y270834D02*
X258193D01*
X244807Y262566D02*
X258193D01*
X244807D02*
Y270834D01*
X258193Y262566D02*
Y270834D01*
X128307Y219966D02*
X141693D01*
X128307Y228234D02*
X141693D01*
Y219966D02*
Y228234D01*
X128307Y219966D02*
Y228234D01*
X307807Y272034D02*
X321193D01*
X307807Y263766D02*
X321193D01*
X307807D02*
Y272034D01*
X321193Y263766D02*
Y272034D01*
X128007Y285466D02*
X141393D01*
X128007Y293734D02*
X141393D01*
Y285466D02*
Y293734D01*
X128007Y285466D02*
Y293734D01*
X369807Y270734D02*
X383193D01*
X369807Y262466D02*
X383193D01*
X369807D02*
Y270734D01*
X383193Y262466D02*
Y270734D01*
X143666Y85807D02*
Y99193D01*
X151934Y85807D02*
Y99193D01*
X143666Y85807D02*
X151934D01*
X143666Y99193D02*
X151934D01*
X190107Y248934D02*
X203493D01*
X190107Y240666D02*
X203493D01*
X190107D02*
Y248934D01*
X203493Y240666D02*
Y248934D01*
X143866Y153107D02*
Y166493D01*
X152134Y153107D02*
Y166493D01*
X143866Y153107D02*
X152134D01*
X143866Y166493D02*
X152134D01*
X269334Y241661D02*
Y255047D01*
X261066Y241661D02*
Y255047D01*
X269334D01*
X261066Y241661D02*
X269334D01*
X143766Y220261D02*
Y233646D01*
X152034Y220261D02*
Y233646D01*
X143766Y220261D02*
X152034D01*
X143766Y233646D02*
X152034D01*
X332434Y242107D02*
Y255493D01*
X324166Y242107D02*
Y255493D01*
X332434D01*
X324166Y242107D02*
X332434D01*
X134337Y170151D02*
X176463D01*
X134337Y214049D02*
X176463D01*
X134337Y170151D02*
Y214049D01*
X176463Y170151D02*
Y214049D01*
X134337Y101851D02*
X176463D01*
X134337Y145749D02*
X176463D01*
X134337Y101851D02*
Y145749D01*
X176463Y101851D02*
Y145749D01*
X208151Y216437D02*
Y258563D01*
X252049Y216437D02*
Y258563D01*
X208151D02*
X252049D01*
X208151Y216437D02*
X252049D01*
X271251D02*
Y258563D01*
X315149Y216437D02*
Y258563D01*
X271251D02*
X315149D01*
X271251Y216437D02*
X315149D01*
X134337Y233751D02*
X176463D01*
X134337Y277649D02*
X176463D01*
X134337Y233751D02*
Y277649D01*
X176463Y233751D02*
Y277649D01*
X332851Y216437D02*
Y258563D01*
X376749Y216437D02*
Y258563D01*
X332851D02*
X376749D01*
X332851Y216437D02*
X376749D01*
X128795Y146447D02*
Y152353D01*
X140605Y146447D02*
Y152353D01*
X128795D02*
X140605D01*
X128795Y146447D02*
X140605D01*
X257306Y258547D02*
Y264453D01*
X245495Y258547D02*
Y264453D01*
Y258547D02*
X257306D01*
X245495Y264453D02*
X257306D01*
X128894Y214747D02*
Y220653D01*
X140706Y214747D02*
Y220653D01*
X128894D02*
X140706D01*
X128894Y214747D02*
X140706D01*
X320406Y259247D02*
Y265153D01*
X308594Y259247D02*
Y265153D01*
Y259247D02*
X320406D01*
X308594Y265153D02*
X320406D01*
X128894Y280147D02*
Y286053D01*
X140706Y280147D02*
Y286053D01*
X128894D02*
X140706D01*
X128894Y280147D02*
X140706D01*
X382306Y257947D02*
Y263853D01*
X370495Y257947D02*
Y263853D01*
Y257947D02*
X382306D01*
X370495Y263853D02*
X382306D01*
X355791Y291634D02*
Y297146D01*
X367209Y291634D02*
Y297146D01*
X355791D02*
X367209D01*
X355791Y291634D02*
X367209D01*
X343898Y174901D02*
X355315D01*
X343898Y180413D02*
X355315D01*
Y174901D02*
Y180413D01*
X343898Y174901D02*
Y180413D01*
Y182874D02*
X355315D01*
X343898Y188386D02*
X355315D01*
Y182874D02*
Y188386D01*
X343898Y182874D02*
Y188386D01*
Y190847D02*
X355315D01*
X343898Y196358D02*
X355315D01*
Y190847D02*
Y196358D01*
X343898Y190847D02*
Y196358D01*
M02*
