G04*
G04 #@! TF.GenerationSoftware,Altium Limited,Altium Designer,19.1.8 (144)*
G04*
G04 Layer_Physical_Order=2*
G04 Layer_Color=16711680*
%FSLAX25Y25*%
%MOIN*%
G70*
G01*
G75*
%ADD27C,0.03937*%
%ADD45C,0.02953*%
%ADD47C,0.01575*%
%ADD50C,0.02000*%
%ADD51C,0.01500*%
%ADD53C,0.16535*%
%ADD54C,0.04331*%
%ADD55C,0.03400*%
%ADD56C,0.03543*%
%ADD57C,0.02362*%
%ADD58C,0.02571*%
G36*
X399900Y328900D02*
X399900Y102700D01*
Y69200D01*
X67400Y69200D01*
Y328900D01*
X399900Y328900D01*
D02*
G37*
%LPC*%
G36*
X163300Y324224D02*
X162449Y324055D01*
X162426Y324039D01*
X145226D01*
X144800Y324124D01*
X143949Y323955D01*
X143228Y323472D01*
X142745Y322751D01*
X142576Y321900D01*
X142745Y321049D01*
X143228Y320327D01*
X143949Y319845D01*
X144800Y319676D01*
X145651Y319845D01*
X145824Y319961D01*
X162426D01*
X162449Y319945D01*
X163300Y319776D01*
X164151Y319945D01*
X164873Y320427D01*
X165355Y321149D01*
X165524Y322000D01*
X165355Y322851D01*
X164873Y323572D01*
X164151Y324055D01*
X163300Y324224D01*
D02*
G37*
G36*
X242600Y324323D02*
X241895Y324231D01*
X241238Y323958D01*
X240674Y323526D01*
X240242Y322962D01*
X239969Y322305D01*
X239877Y321600D01*
X239969Y320895D01*
X240242Y320238D01*
X240674Y319674D01*
X241238Y319242D01*
X241895Y318969D01*
X242600Y318877D01*
X243305Y318969D01*
X243962Y319242D01*
X244526Y319674D01*
X244958Y320238D01*
X245231Y320895D01*
X245323Y321600D01*
X245231Y322305D01*
X244958Y322962D01*
X244526Y323526D01*
X243962Y323958D01*
X243305Y324231D01*
X242600Y324323D01*
D02*
G37*
G36*
X234700D02*
X233995Y324231D01*
X233338Y323958D01*
X232774Y323526D01*
X232342Y322962D01*
X232069Y322305D01*
X231977Y321600D01*
X232069Y320895D01*
X232342Y320238D01*
X232774Y319674D01*
X233338Y319242D01*
X233995Y318969D01*
X234700Y318877D01*
X235405Y318969D01*
X236062Y319242D01*
X236626Y319674D01*
X237058Y320238D01*
X237331Y320895D01*
X237423Y321600D01*
X237331Y322305D01*
X237058Y322962D01*
X236626Y323526D01*
X236062Y323958D01*
X235405Y324231D01*
X234700Y324323D01*
D02*
G37*
G36*
X134300Y324934D02*
X133515Y324831D01*
X132783Y324527D01*
X132155Y324045D01*
X131673Y323417D01*
X131370Y322685D01*
X131266Y321900D01*
X131370Y321115D01*
X131673Y320383D01*
X132155Y319755D01*
X132783Y319273D01*
X133515Y318969D01*
X134300Y318866D01*
X135085Y318969D01*
X135817Y319273D01*
X136445Y319755D01*
X136927Y320383D01*
X137230Y321115D01*
X137334Y321900D01*
X137230Y322685D01*
X136927Y323417D01*
X136445Y324045D01*
X135817Y324527D01*
X135085Y324831D01*
X134300Y324934D01*
D02*
G37*
G36*
X124300D02*
X123515Y324831D01*
X122783Y324527D01*
X122155Y324045D01*
X121673Y323417D01*
X121370Y322685D01*
X121266Y321900D01*
X121370Y321115D01*
X121673Y320383D01*
X122155Y319755D01*
X122783Y319273D01*
X123515Y318969D01*
X124300Y318866D01*
X125085Y318969D01*
X125817Y319273D01*
X126445Y319755D01*
X126927Y320383D01*
X127230Y321115D01*
X127334Y321900D01*
X127230Y322685D01*
X126927Y323417D01*
X126445Y324045D01*
X125817Y324527D01*
X125085Y324831D01*
X124300Y324934D01*
D02*
G37*
G36*
X114300D02*
X113515Y324831D01*
X112783Y324527D01*
X112155Y324045D01*
X111673Y323417D01*
X111370Y322685D01*
X111266Y321900D01*
X111370Y321115D01*
X111673Y320383D01*
X112155Y319755D01*
X112783Y319273D01*
X113515Y318969D01*
X114300Y318866D01*
X115085Y318969D01*
X115817Y319273D01*
X116445Y319755D01*
X116927Y320383D01*
X117230Y321115D01*
X117334Y321900D01*
X117230Y322685D01*
X116927Y323417D01*
X116445Y324045D01*
X115817Y324527D01*
X115085Y324831D01*
X114300Y324934D01*
D02*
G37*
G36*
X290000Y324223D02*
X289295Y324131D01*
X288638Y323858D01*
X288074Y323426D01*
X287642Y322862D01*
X287369Y322205D01*
X287277Y321500D01*
X287369Y320795D01*
X287642Y320138D01*
X288074Y319574D01*
X288638Y319142D01*
X289295Y318869D01*
X290000Y318777D01*
X290705Y318869D01*
X291362Y319142D01*
X291926Y319574D01*
X292358Y320138D01*
X292631Y320795D01*
X292723Y321500D01*
X292631Y322205D01*
X292358Y322862D01*
X291926Y323426D01*
X291362Y323858D01*
X290705Y324131D01*
X290000Y324223D01*
D02*
G37*
G36*
X282100D02*
X281395Y324131D01*
X280738Y323858D01*
X280174Y323426D01*
X279742Y322862D01*
X279469Y322205D01*
X279377Y321500D01*
X279469Y320795D01*
X279742Y320138D01*
X280174Y319574D01*
X280738Y319142D01*
X281395Y318869D01*
X282100Y318777D01*
X282805Y318869D01*
X283462Y319142D01*
X284026Y319574D01*
X284458Y320138D01*
X284731Y320795D01*
X284823Y321500D01*
X284731Y322205D01*
X284458Y322862D01*
X284026Y323426D01*
X283462Y323858D01*
X282805Y324131D01*
X282100Y324223D01*
D02*
G37*
G36*
X274200D02*
X273495Y324131D01*
X272838Y323858D01*
X272274Y323426D01*
X271842Y322862D01*
X271569Y322205D01*
X271477Y321500D01*
X271569Y320795D01*
X271842Y320138D01*
X272274Y319574D01*
X272838Y319142D01*
X273495Y318869D01*
X274200Y318777D01*
X274905Y318869D01*
X275562Y319142D01*
X276126Y319574D01*
X276558Y320138D01*
X276831Y320795D01*
X276923Y321500D01*
X276831Y322205D01*
X276558Y322862D01*
X276126Y323426D01*
X275562Y323858D01*
X274905Y324131D01*
X274200Y324223D01*
D02*
G37*
G36*
X266300D02*
X265595Y324131D01*
X264938Y323858D01*
X264374Y323426D01*
X263942Y322862D01*
X263669Y322205D01*
X263577Y321500D01*
X263669Y320795D01*
X263942Y320138D01*
X264374Y319574D01*
X264938Y319142D01*
X265595Y318869D01*
X266300Y318777D01*
X267005Y318869D01*
X267662Y319142D01*
X268226Y319574D01*
X268658Y320138D01*
X268931Y320795D01*
X269023Y321500D01*
X268931Y322205D01*
X268658Y322862D01*
X268226Y323426D01*
X267662Y323858D01*
X267005Y324131D01*
X266300Y324223D01*
D02*
G37*
G36*
X258400D02*
X257695Y324131D01*
X257038Y323858D01*
X256474Y323426D01*
X256042Y322862D01*
X255769Y322205D01*
X255677Y321500D01*
X255769Y320795D01*
X256042Y320138D01*
X256474Y319574D01*
X257038Y319142D01*
X257695Y318869D01*
X258400Y318777D01*
X259105Y318869D01*
X259762Y319142D01*
X260326Y319574D01*
X260758Y320138D01*
X261031Y320795D01*
X261123Y321500D01*
X261031Y322205D01*
X260758Y322862D01*
X260326Y323426D01*
X259762Y323858D01*
X259105Y324131D01*
X258400Y324223D01*
D02*
G37*
G36*
X250500D02*
X249795Y324131D01*
X249138Y323858D01*
X248574Y323426D01*
X248142Y322862D01*
X247869Y322205D01*
X247777Y321500D01*
X247869Y320795D01*
X248142Y320138D01*
X248574Y319574D01*
X249138Y319142D01*
X249795Y318869D01*
X250500Y318777D01*
X251205Y318869D01*
X251862Y319142D01*
X252426Y319574D01*
X252858Y320138D01*
X253131Y320795D01*
X253223Y321500D01*
X253131Y322205D01*
X252858Y322862D01*
X252426Y323426D01*
X251862Y323858D01*
X251205Y324131D01*
X250500Y324223D01*
D02*
G37*
G36*
X226800D02*
X226095Y324131D01*
X225438Y323858D01*
X224874Y323426D01*
X224442Y322862D01*
X224169Y322205D01*
X224077Y321500D01*
X224169Y320795D01*
X224442Y320138D01*
X224874Y319574D01*
X225438Y319142D01*
X226095Y318869D01*
X226800Y318777D01*
X227505Y318869D01*
X228162Y319142D01*
X228726Y319574D01*
X229158Y320138D01*
X229431Y320795D01*
X229523Y321500D01*
X229431Y322205D01*
X229158Y322862D01*
X228726Y323426D01*
X228162Y323858D01*
X227505Y324131D01*
X226800Y324223D01*
D02*
G37*
G36*
X218900D02*
X218195Y324131D01*
X217538Y323858D01*
X216974Y323426D01*
X216542Y322862D01*
X216269Y322205D01*
X216177Y321500D01*
X216269Y320795D01*
X216542Y320138D01*
X216974Y319574D01*
X217538Y319142D01*
X218195Y318869D01*
X218900Y318777D01*
X219605Y318869D01*
X220262Y319142D01*
X220826Y319574D01*
X221258Y320138D01*
X221531Y320795D01*
X221623Y321500D01*
X221531Y322205D01*
X221258Y322862D01*
X220826Y323426D01*
X220262Y323858D01*
X219605Y324131D01*
X218900Y324223D01*
D02*
G37*
G36*
X211200D02*
X210495Y324131D01*
X209838Y323858D01*
X209274Y323426D01*
X208842Y322862D01*
X208570Y322205D01*
X208477Y321500D01*
X208570Y320795D01*
X208842Y320138D01*
X209274Y319574D01*
X209838Y319142D01*
X210495Y318869D01*
X211200Y318777D01*
X211905Y318869D01*
X212562Y319142D01*
X213126Y319574D01*
X213558Y320138D01*
X213830Y320795D01*
X213923Y321500D01*
X213830Y322205D01*
X213558Y322862D01*
X213126Y323426D01*
X212562Y323858D01*
X211905Y324131D01*
X211200Y324223D01*
D02*
G37*
G36*
X82300Y325588D02*
Y316825D01*
X91063D01*
X90934Y318142D01*
X90404Y319889D01*
X89543Y321499D01*
X88385Y322910D01*
X86974Y324068D01*
X85364Y324929D01*
X83617Y325459D01*
X82300Y325588D01*
D02*
G37*
G36*
X81300D02*
X79983Y325459D01*
X78236Y324929D01*
X76626Y324068D01*
X75215Y322910D01*
X74057Y321499D01*
X73196Y319889D01*
X72666Y318142D01*
X72537Y316825D01*
X81300D01*
Y325588D01*
D02*
G37*
G36*
X385987Y325536D02*
Y316772D01*
X394751D01*
X394621Y318089D01*
X394091Y319836D01*
X393231Y321446D01*
X392072Y322857D01*
X390661Y324015D01*
X389051Y324876D01*
X387304Y325406D01*
X385987Y325536D01*
D02*
G37*
G36*
X384987D02*
X383671Y325406D01*
X381924Y324876D01*
X380314Y324015D01*
X378902Y322857D01*
X377744Y321446D01*
X376884Y319836D01*
X376354Y318089D01*
X376224Y316772D01*
X384987D01*
Y325536D01*
D02*
G37*
G36*
X242600Y316523D02*
X241895Y316430D01*
X241238Y316158D01*
X240674Y315726D01*
X240242Y315162D01*
X239969Y314505D01*
X239877Y313800D01*
X239969Y313095D01*
X240242Y312438D01*
X240674Y311874D01*
X241238Y311442D01*
X241895Y311170D01*
X242600Y311077D01*
X243305Y311170D01*
X243962Y311442D01*
X244526Y311874D01*
X244958Y312438D01*
X245231Y313095D01*
X245323Y313800D01*
X245231Y314505D01*
X244958Y315162D01*
X244526Y315726D01*
X243962Y316158D01*
X243305Y316430D01*
X242600Y316523D01*
D02*
G37*
G36*
X234700D02*
X233995Y316430D01*
X233338Y316158D01*
X232774Y315726D01*
X232342Y315162D01*
X232069Y314505D01*
X231977Y313800D01*
X232069Y313095D01*
X232342Y312438D01*
X232774Y311874D01*
X233338Y311442D01*
X233995Y311170D01*
X234700Y311077D01*
X235405Y311170D01*
X236062Y311442D01*
X236626Y311874D01*
X237058Y312438D01*
X237331Y313095D01*
X237423Y313800D01*
X237331Y314505D01*
X237058Y315162D01*
X236626Y315726D01*
X236062Y316158D01*
X235405Y316430D01*
X234700Y316523D01*
D02*
G37*
G36*
X290000Y316423D02*
X289295Y316331D01*
X288638Y316058D01*
X288074Y315626D01*
X287642Y315062D01*
X287369Y314405D01*
X287277Y313700D01*
X287369Y312995D01*
X287642Y312338D01*
X288074Y311774D01*
X288638Y311342D01*
X289295Y311069D01*
X290000Y310977D01*
X290705Y311069D01*
X291362Y311342D01*
X291926Y311774D01*
X292358Y312338D01*
X292631Y312995D01*
X292723Y313700D01*
X292631Y314405D01*
X292358Y315062D01*
X291926Y315626D01*
X291362Y316058D01*
X290705Y316331D01*
X290000Y316423D01*
D02*
G37*
G36*
X282100D02*
X281395Y316331D01*
X280738Y316058D01*
X280174Y315626D01*
X279742Y315062D01*
X279469Y314405D01*
X279377Y313700D01*
X279469Y312995D01*
X279742Y312338D01*
X280174Y311774D01*
X280738Y311342D01*
X281395Y311069D01*
X282100Y310977D01*
X282805Y311069D01*
X283462Y311342D01*
X284026Y311774D01*
X284458Y312338D01*
X284731Y312995D01*
X284823Y313700D01*
X284731Y314405D01*
X284458Y315062D01*
X284026Y315626D01*
X283462Y316058D01*
X282805Y316331D01*
X282100Y316423D01*
D02*
G37*
G36*
X274200D02*
X273495Y316331D01*
X272838Y316058D01*
X272274Y315626D01*
X271842Y315062D01*
X271569Y314405D01*
X271477Y313700D01*
X271569Y312995D01*
X271842Y312338D01*
X272274Y311774D01*
X272838Y311342D01*
X273495Y311069D01*
X274200Y310977D01*
X274905Y311069D01*
X275562Y311342D01*
X276126Y311774D01*
X276558Y312338D01*
X276831Y312995D01*
X276923Y313700D01*
X276831Y314405D01*
X276558Y315062D01*
X276126Y315626D01*
X275562Y316058D01*
X274905Y316331D01*
X274200Y316423D01*
D02*
G37*
G36*
X266300D02*
X265595Y316331D01*
X264938Y316058D01*
X264374Y315626D01*
X263942Y315062D01*
X263669Y314405D01*
X263577Y313700D01*
X263669Y312995D01*
X263942Y312338D01*
X264374Y311774D01*
X264938Y311342D01*
X265595Y311069D01*
X266300Y310977D01*
X267005Y311069D01*
X267662Y311342D01*
X268226Y311774D01*
X268658Y312338D01*
X268931Y312995D01*
X269023Y313700D01*
X268931Y314405D01*
X268658Y315062D01*
X268226Y315626D01*
X267662Y316058D01*
X267005Y316331D01*
X266300Y316423D01*
D02*
G37*
G36*
X258400D02*
X257695Y316331D01*
X257038Y316058D01*
X256474Y315626D01*
X256042Y315062D01*
X255769Y314405D01*
X255677Y313700D01*
X255769Y312995D01*
X256042Y312338D01*
X256474Y311774D01*
X257038Y311342D01*
X257695Y311069D01*
X258400Y310977D01*
X259105Y311069D01*
X259762Y311342D01*
X260326Y311774D01*
X260758Y312338D01*
X261031Y312995D01*
X261123Y313700D01*
X261031Y314405D01*
X260758Y315062D01*
X260326Y315626D01*
X259762Y316058D01*
X259105Y316331D01*
X258400Y316423D01*
D02*
G37*
G36*
X250500D02*
X249795Y316331D01*
X249138Y316058D01*
X248574Y315626D01*
X248142Y315062D01*
X247869Y314405D01*
X247777Y313700D01*
X247869Y312995D01*
X248142Y312338D01*
X248574Y311774D01*
X249138Y311342D01*
X249795Y311069D01*
X250500Y310977D01*
X251205Y311069D01*
X251862Y311342D01*
X252426Y311774D01*
X252858Y312338D01*
X253131Y312995D01*
X253223Y313700D01*
X253131Y314405D01*
X252858Y315062D01*
X252426Y315626D01*
X251862Y316058D01*
X251205Y316331D01*
X250500Y316423D01*
D02*
G37*
G36*
X226800D02*
X226095Y316331D01*
X225438Y316058D01*
X224874Y315626D01*
X224442Y315062D01*
X224169Y314405D01*
X224077Y313700D01*
X224169Y312995D01*
X224442Y312338D01*
X224874Y311774D01*
X225438Y311342D01*
X226095Y311069D01*
X226800Y310977D01*
X227505Y311069D01*
X228162Y311342D01*
X228726Y311774D01*
X229158Y312338D01*
X229431Y312995D01*
X229523Y313700D01*
X229431Y314405D01*
X229158Y315062D01*
X228726Y315626D01*
X228162Y316058D01*
X227505Y316331D01*
X226800Y316423D01*
D02*
G37*
G36*
X218900D02*
X218195Y316331D01*
X217538Y316058D01*
X216974Y315626D01*
X216542Y315062D01*
X216269Y314405D01*
X216177Y313700D01*
X216269Y312995D01*
X216542Y312338D01*
X216974Y311774D01*
X217538Y311342D01*
X218195Y311069D01*
X218900Y310977D01*
X219605Y311069D01*
X220262Y311342D01*
X220826Y311774D01*
X221258Y312338D01*
X221531Y312995D01*
X221623Y313700D01*
X221531Y314405D01*
X221258Y315062D01*
X220826Y315626D01*
X220262Y316058D01*
X219605Y316331D01*
X218900Y316423D01*
D02*
G37*
G36*
X211200D02*
X210495Y316331D01*
X209838Y316058D01*
X209274Y315626D01*
X208842Y315062D01*
X208570Y314405D01*
X208477Y313700D01*
X208570Y312995D01*
X208842Y312338D01*
X209274Y311774D01*
X209838Y311342D01*
X210495Y311069D01*
X211200Y310977D01*
X211905Y311069D01*
X212562Y311342D01*
X213126Y311774D01*
X213558Y312338D01*
X213830Y312995D01*
X213923Y313700D01*
X213830Y314405D01*
X213558Y315062D01*
X213126Y315626D01*
X212562Y316058D01*
X211905Y316331D01*
X211200Y316423D01*
D02*
G37*
G36*
X369500Y308824D02*
Y307200D01*
X371124D01*
X371055Y307551D01*
X370572Y308273D01*
X369851Y308755D01*
X369500Y308824D01*
D02*
G37*
G36*
X368500D02*
X368149Y308755D01*
X367427Y308273D01*
X366945Y307551D01*
X366876Y307200D01*
X368500D01*
Y308824D01*
D02*
G37*
G36*
X91063Y315825D02*
X82300D01*
Y307062D01*
X83617Y307191D01*
X85364Y307721D01*
X86974Y308582D01*
X88385Y309740D01*
X89543Y311151D01*
X90404Y312761D01*
X90934Y314508D01*
X91063Y315825D01*
D02*
G37*
G36*
X81300D02*
X72537D01*
X72666Y314508D01*
X73196Y312761D01*
X74057Y311151D01*
X75215Y309740D01*
X76626Y308582D01*
X78236Y307721D01*
X79983Y307191D01*
X81300Y307062D01*
Y315825D01*
D02*
G37*
G36*
X394751Y315772D02*
X385987D01*
Y307009D01*
X387304Y307139D01*
X389051Y307669D01*
X390661Y308529D01*
X392072Y309687D01*
X393231Y311099D01*
X394091Y312709D01*
X394621Y314456D01*
X394751Y315772D01*
D02*
G37*
G36*
X384987D02*
X376224D01*
X376354Y314456D01*
X376884Y312709D01*
X377744Y311099D01*
X378902Y309687D01*
X380314Y308529D01*
X381924Y307669D01*
X383671Y307139D01*
X384987Y307009D01*
Y315772D01*
D02*
G37*
G36*
X371124Y306200D02*
X369500D01*
Y304576D01*
X369851Y304645D01*
X370572Y305128D01*
X371055Y305849D01*
X371124Y306200D01*
D02*
G37*
G36*
X368500D02*
X366876D01*
X366945Y305849D01*
X367427Y305128D01*
X368149Y304645D01*
X368500Y304576D01*
Y306200D01*
D02*
G37*
G36*
X173100Y298024D02*
X172249Y297855D01*
X171528Y297373D01*
X171055Y296666D01*
X170975Y296651D01*
X170125D01*
X170045Y296666D01*
X169572Y297373D01*
X168851Y297855D01*
X168000Y298024D01*
X167149Y297855D01*
X166428Y297373D01*
X165955Y296666D01*
X165875Y296651D01*
X165025D01*
X164945Y296666D01*
X164472Y297373D01*
X163751Y297855D01*
X162900Y298024D01*
X162049Y297855D01*
X161328Y297373D01*
X160845Y296651D01*
X160676Y295800D01*
X160845Y294949D01*
X160978Y294751D01*
Y282149D01*
X160845Y281951D01*
X160676Y281100D01*
X160845Y280249D01*
X161328Y279527D01*
X162049Y279045D01*
X162900Y278876D01*
X163751Y279045D01*
X164472Y279527D01*
X164868Y280119D01*
X165400Y280190D01*
X165932Y280119D01*
X166328Y279527D01*
X167049Y279045D01*
X167900Y278876D01*
X168751Y279045D01*
X169473Y279527D01*
X169868Y280119D01*
X170400Y280190D01*
X170932Y280119D01*
X171327Y279527D01*
X172049Y279045D01*
X172900Y278876D01*
X173751Y279045D01*
X174472Y279527D01*
X174954Y280249D01*
X175124Y281100D01*
X174954Y281951D01*
X174722Y282298D01*
Y294302D01*
X175154Y294949D01*
X175324Y295800D01*
X175154Y296651D01*
X174672Y297373D01*
X173951Y297855D01*
X173100Y298024D01*
D02*
G37*
G36*
X383700Y297627D02*
Y295000D01*
X386327D01*
X386284Y295326D01*
X385965Y296096D01*
X385457Y296758D01*
X384796Y297265D01*
X384026Y297584D01*
X383700Y297627D01*
D02*
G37*
G36*
X382700D02*
X382374Y297584D01*
X381604Y297265D01*
X380943Y296758D01*
X380435Y296096D01*
X380116Y295326D01*
X380073Y295000D01*
X382700D01*
Y297627D01*
D02*
G37*
G36*
X386327Y294000D02*
X383700D01*
Y291373D01*
X384026Y291416D01*
X384796Y291735D01*
X385457Y292243D01*
X385965Y292904D01*
X386284Y293674D01*
X386327Y294000D01*
D02*
G37*
G36*
X382700D02*
X380073D01*
X380116Y293674D01*
X380435Y292904D01*
X380943Y292243D01*
X381604Y291735D01*
X382374Y291416D01*
X382700Y291373D01*
Y294000D01*
D02*
G37*
G36*
X373200Y297693D02*
X372374Y297584D01*
X371604Y297265D01*
X370942Y296758D01*
X370435Y296096D01*
X370116Y295326D01*
X370007Y294500D01*
X370116Y293674D01*
X370435Y292904D01*
X370942Y292243D01*
X371604Y291735D01*
X372374Y291416D01*
X373200Y291307D01*
X374026Y291416D01*
X374796Y291735D01*
X375458Y292243D01*
X375965Y292904D01*
X376284Y293674D01*
X376393Y294500D01*
X376284Y295326D01*
X375965Y296096D01*
X375458Y296758D01*
X374796Y297265D01*
X374026Y297584D01*
X373200Y297693D01*
D02*
G37*
G36*
X127551Y288475D02*
Y286851D01*
X129175D01*
X129105Y287202D01*
X128623Y287923D01*
X127902Y288405D01*
X127551Y288475D01*
D02*
G37*
G36*
X126551D02*
X126200Y288405D01*
X125478Y287923D01*
X124996Y287202D01*
X124926Y286851D01*
X126551D01*
Y288475D01*
D02*
G37*
G36*
X270400Y310524D02*
X269549Y310355D01*
X268828Y309873D01*
X268345Y309151D01*
X268176Y308300D01*
X268345Y307449D01*
X268828Y306728D01*
X269549Y306245D01*
X269576Y306240D01*
X274658Y301158D01*
X275320Y300716D01*
X276100Y300561D01*
X312055D01*
X319658Y292958D01*
X320320Y292516D01*
X321100Y292361D01*
X326863D01*
X326960Y291377D01*
X326849Y291355D01*
X326128Y290873D01*
X325645Y290151D01*
X325476Y289300D01*
X325645Y288449D01*
X326128Y287727D01*
X326849Y287245D01*
X327700Y287076D01*
X328551Y287245D01*
X328574Y287261D01*
X340855D01*
X341661Y286455D01*
Y285197D01*
X341324Y284930D01*
X340677Y284589D01*
X340000Y284724D01*
X339149Y284555D01*
X338427Y284072D01*
X337473Y284273D01*
X336751Y284755D01*
X335900Y284924D01*
X335049Y284755D01*
X334328Y284273D01*
X333845Y283551D01*
X333676Y282700D01*
X333845Y281849D01*
X333861Y281826D01*
Y266600D01*
X334016Y265820D01*
X334324Y265360D01*
X334345Y265249D01*
X334827Y264528D01*
X335549Y264045D01*
X336400Y263876D01*
X337251Y264045D01*
X337972Y264528D01*
X338455Y265249D01*
X338624Y266100D01*
X338455Y266951D01*
X338342Y267119D01*
X338629Y267586D01*
X338993Y267917D01*
X339700Y267776D01*
X340551Y267945D01*
X341272Y268427D01*
X341928D01*
X342649Y267945D01*
X343500Y267776D01*
X344351Y267945D01*
X344776Y268230D01*
X345450Y268356D01*
X346124Y268230D01*
X346549Y267945D01*
X347400Y267776D01*
X348251Y267945D01*
X348676Y268230D01*
X349350Y268356D01*
X350024Y268230D01*
X350449Y267945D01*
X351300Y267776D01*
X352151Y267945D01*
X352872Y268427D01*
X353927D01*
X354649Y267945D01*
X355500Y267776D01*
X356351Y267945D01*
X357072Y268427D01*
X357555Y269149D01*
X357724Y270000D01*
X357555Y270851D01*
X357389Y271098D01*
Y296276D01*
X357405Y296299D01*
X357574Y297150D01*
X357405Y298001D01*
X356923Y298723D01*
X356201Y299205D01*
X355350Y299374D01*
X354499Y299205D01*
X353778Y298723D01*
X352872Y298572D01*
X352673Y298706D01*
X352151Y299055D01*
X351300Y299224D01*
X350449Y299055D01*
X349728Y298572D01*
X349245Y297851D01*
X349076Y297000D01*
X349245Y296149D01*
X349261Y296126D01*
Y290915D01*
X348277Y290507D01*
X342942Y295842D01*
X342280Y296284D01*
X341703Y296399D01*
X341353Y296929D01*
X341204Y297423D01*
X341355Y297649D01*
X341524Y298500D01*
X341355Y299351D01*
X340873Y300073D01*
X340151Y300555D01*
X339300Y300724D01*
X338449Y300555D01*
X338127Y300339D01*
X330074D01*
X330051Y300355D01*
X329200Y300524D01*
X328349Y300355D01*
X327627Y299872D01*
X327145Y299151D01*
X326976Y298300D01*
X327145Y297449D01*
X327163Y297423D01*
X326636Y296439D01*
X321945D01*
X314342Y304042D01*
X313680Y304484D01*
X312900Y304639D01*
X276945D01*
X272460Y309124D01*
X272455Y309151D01*
X271972Y309873D01*
X271251Y310355D01*
X270400Y310524D01*
D02*
G37*
G36*
X129175Y285851D02*
X127551D01*
Y284226D01*
X127902Y284296D01*
X128623Y284778D01*
X129105Y285500D01*
X129175Y285851D01*
D02*
G37*
G36*
X126551D02*
X124926D01*
X124996Y285500D01*
X125478Y284778D01*
X126200Y284296D01*
X126551Y284226D01*
Y285851D01*
D02*
G37*
G36*
X230950Y309674D02*
X230099Y309505D01*
X229378Y309022D01*
X228895Y308301D01*
X228726Y307450D01*
X228895Y306599D01*
X228911Y306576D01*
Y300750D01*
X229066Y299970D01*
X229508Y299308D01*
X231358Y297458D01*
X231358Y297458D01*
X233420Y295396D01*
X233262Y294162D01*
X233127Y294073D01*
X232645Y293351D01*
X232476Y292500D01*
X232645Y291649D01*
X233127Y290928D01*
X233006Y289825D01*
X232927Y289773D01*
X232445Y289051D01*
X232276Y288200D01*
X232445Y287349D01*
X232927Y286628D01*
X233649Y286145D01*
X233676Y286140D01*
X234161Y285655D01*
Y271865D01*
X233177Y271462D01*
X233139Y271499D01*
Y282800D01*
X232984Y283580D01*
X232542Y284242D01*
X229139Y287645D01*
Y291626D01*
X229155Y291649D01*
X229324Y292500D01*
X229155Y293351D01*
X228673Y294073D01*
X227951Y294555D01*
X227100Y294724D01*
X226249Y294555D01*
X225528Y294073D01*
X225045Y293351D01*
X224876Y292500D01*
X225045Y291649D01*
X225061Y291626D01*
Y286800D01*
X225216Y286020D01*
X225658Y285358D01*
X228773Y282243D01*
X228709Y281767D01*
X227669Y281415D01*
X216951Y292133D01*
X217024Y292500D01*
X216855Y293351D01*
X216372Y294073D01*
X215651Y294555D01*
X214800Y294724D01*
X213949Y294555D01*
X213228Y294073D01*
X212745Y293351D01*
X212576Y292500D01*
X212745Y291649D01*
X212586Y291290D01*
X211463Y291021D01*
X209160Y293324D01*
X209155Y293351D01*
X208672Y294073D01*
X207951Y294555D01*
X207100Y294724D01*
X206249Y294555D01*
X205527Y294073D01*
X205045Y293351D01*
X204876Y292500D01*
X205045Y291649D01*
X205527Y290928D01*
X206249Y290445D01*
X206276Y290440D01*
X210557Y286159D01*
X210758Y285858D01*
X218761Y277855D01*
Y270574D01*
X218745Y270551D01*
X218576Y269700D01*
X218745Y268849D01*
X219228Y268127D01*
X219949Y267645D01*
X220800Y267476D01*
X221651Y267645D01*
X222373Y268127D01*
X222855Y268849D01*
X223024Y269700D01*
X222855Y270551D01*
X222839Y270574D01*
Y278700D01*
X222839Y278700D01*
X222744Y279181D01*
X223651Y279665D01*
X224661Y278655D01*
Y270574D01*
X224645Y270551D01*
X224476Y269700D01*
X224645Y268849D01*
X225128Y268127D01*
X225849Y267645D01*
X226700Y267476D01*
X227551Y267645D01*
X228273Y268127D01*
X228308Y268181D01*
X229492D01*
X229527Y268127D01*
X230249Y267645D01*
X231100Y267476D01*
X231951Y267645D01*
X232673Y268127D01*
X233145Y268834D01*
X233225Y268849D01*
X234074D01*
X234155Y268834D01*
X234628Y268127D01*
X235349Y267645D01*
X236200Y267476D01*
X237051Y267645D01*
X237772Y268127D01*
X238928D01*
X239649Y267645D01*
X240500Y267476D01*
X241351Y267645D01*
X242073Y268127D01*
X242555Y268849D01*
X242724Y269700D01*
X242555Y270551D01*
X242239Y271023D01*
Y278626D01*
X242255Y278649D01*
X242424Y279500D01*
X242255Y280351D01*
X241773Y281072D01*
X241051Y281555D01*
X240200Y281724D01*
X239349Y281555D01*
X239223Y281471D01*
X238239Y281997D01*
Y286500D01*
X238084Y287280D01*
X237642Y287942D01*
X236560Y289024D01*
X236555Y289051D01*
X236270Y289477D01*
X236657Y290407D01*
X236706Y290461D01*
X240955D01*
X241907Y289509D01*
X241653Y288473D01*
X241601Y288423D01*
X240928Y287972D01*
X240445Y287251D01*
X240276Y286400D01*
X240445Y285549D01*
X240928Y284827D01*
X241649Y284345D01*
X241676Y284340D01*
X245458Y280558D01*
X246120Y280116D01*
X246900Y279961D01*
X270855D01*
X272561Y278255D01*
Y262974D01*
X272545Y262951D01*
X272376Y262100D01*
X272545Y261249D01*
X273027Y260527D01*
X273749Y260045D01*
X274600Y259876D01*
X274661Y259888D01*
X274800Y259861D01*
X275580Y260016D01*
X276242Y260458D01*
X276600Y260994D01*
X277203Y261127D01*
X277690Y261133D01*
X277828Y260928D01*
X278549Y260445D01*
X279400Y260276D01*
X280251Y260445D01*
X280973Y260928D01*
X281455Y261649D01*
X281624Y262500D01*
X281455Y263351D01*
X281439Y263374D01*
Y280285D01*
X282423Y280693D01*
X284261Y278855D01*
Y242745D01*
X283576Y242060D01*
X283549Y242055D01*
X282827Y241572D01*
X282345Y240851D01*
X282176Y240000D01*
X282345Y239149D01*
X282827Y238427D01*
X283549Y237945D01*
X284400Y237776D01*
X285251Y237945D01*
X285972Y238427D01*
X286455Y239149D01*
X286819Y239187D01*
X287761Y238421D01*
Y236124D01*
X287645Y235951D01*
X287476Y235100D01*
X287645Y234249D01*
X288127Y233527D01*
X288437Y233321D01*
X288471Y233294D01*
X288257Y232257D01*
X288100Y232224D01*
X288018Y232207D01*
X287590Y232122D01*
X260498D01*
X260151Y232355D01*
X259300Y232524D01*
X258449Y232355D01*
X257728Y231873D01*
X257245Y231151D01*
X257076Y230300D01*
X257245Y229449D01*
X257728Y228728D01*
X258319Y228332D01*
X258390Y227800D01*
X258319Y227268D01*
X257728Y226872D01*
X257245Y226151D01*
X257076Y225300D01*
X257245Y224449D01*
X257728Y223727D01*
X258319Y223332D01*
X258390Y222800D01*
X258319Y222268D01*
X257728Y221872D01*
X257245Y221151D01*
X257076Y220300D01*
X257245Y219449D01*
X257728Y218727D01*
X258449Y218245D01*
X259300Y218076D01*
X260151Y218245D01*
X260498Y218478D01*
X286494D01*
X286527Y218427D01*
X287249Y217945D01*
X288100Y217776D01*
X288951Y217945D01*
X289672Y218427D01*
X290155Y219149D01*
X290324Y220000D01*
X290155Y220851D01*
X289672Y221572D01*
X289081Y221968D01*
X289010Y222500D01*
X289081Y223032D01*
X289672Y223428D01*
X290155Y224149D01*
X290324Y225000D01*
X290155Y225851D01*
X289672Y226572D01*
X289081Y226968D01*
X289010Y227500D01*
X289081Y228032D01*
X289672Y228428D01*
X290155Y229149D01*
X290324Y230000D01*
X290155Y230851D01*
X289672Y231573D01*
X289363Y231779D01*
X289329Y231806D01*
X289543Y232843D01*
X289700Y232876D01*
X289782Y232892D01*
X290551Y233045D01*
X291272Y233527D01*
X291755Y234249D01*
X291924Y235100D01*
X291839Y235526D01*
Y267826D01*
X292823Y268531D01*
X293100Y268476D01*
X293951Y268645D01*
X294672Y269127D01*
X295727Y269027D01*
X296449Y268545D01*
X297300Y268376D01*
X298151Y268545D01*
X298872Y269027D01*
X300027D01*
X300749Y268545D01*
X301600Y268376D01*
X302451Y268545D01*
X303172Y269027D01*
X304328D01*
X305049Y268545D01*
X305900Y268376D01*
X306751Y268545D01*
X307472Y269027D01*
X307955Y269749D01*
X308124Y270600D01*
X307955Y271451D01*
X307839Y271624D01*
Y286826D01*
X307855Y286849D01*
X308024Y287700D01*
X307855Y288551D01*
X307372Y289272D01*
X306651Y289755D01*
X305800Y289924D01*
X304949Y289755D01*
X304423Y289403D01*
X303755Y289625D01*
X303455Y289849D01*
X303624Y290700D01*
X303455Y291551D01*
X302973Y292272D01*
X302251Y292755D01*
X301400Y292924D01*
X300549Y292755D01*
X299828Y292272D01*
X299345Y291551D01*
X299242Y291033D01*
X298343Y290652D01*
X298238Y290646D01*
X291542Y297342D01*
X290880Y297784D01*
X290100Y297939D01*
X267974D01*
X267951Y297955D01*
X267100Y298124D01*
X266249Y297955D01*
X265528Y297473D01*
X265045Y296751D01*
X264876Y295900D01*
X264931Y295623D01*
X264226Y294639D01*
X252645D01*
X245642Y301642D01*
X244742Y302542D01*
X244080Y302984D01*
X243300Y303139D01*
X239574D01*
X239551Y303155D01*
X238700Y303324D01*
X237849Y303155D01*
X237127Y302673D01*
X236645Y301951D01*
X236476Y301100D01*
X236645Y300249D01*
X237127Y299528D01*
X237382Y299358D01*
X237099Y298463D01*
X236218Y298366D01*
X234242Y300342D01*
X234242Y300342D01*
X232989Y301595D01*
Y306576D01*
X233005Y306599D01*
X233174Y307450D01*
X233005Y308301D01*
X232523Y309022D01*
X231801Y309505D01*
X230950Y309674D01*
D02*
G37*
G36*
X211500Y281324D02*
X210649Y281155D01*
X209928Y280673D01*
X209445Y279951D01*
X209276Y279100D01*
X209445Y278249D01*
X209461Y278226D01*
Y270724D01*
X209345Y270551D01*
X209176Y269700D01*
X209345Y268849D01*
X209827Y268127D01*
X210549Y267645D01*
X211400Y267476D01*
X212251Y267645D01*
X212972Y268127D01*
X213455Y268849D01*
X213624Y269700D01*
X213539Y270126D01*
Y278226D01*
X213555Y278249D01*
X213724Y279100D01*
X213555Y279951D01*
X213072Y280673D01*
X212351Y281155D01*
X211500Y281324D01*
D02*
G37*
G36*
X159300Y309124D02*
X158449Y308955D01*
X157728Y308472D01*
X157246Y307751D01*
X157076Y306900D01*
X157246Y306049D01*
X157728Y305328D01*
X158449Y304845D01*
X159300Y304676D01*
X160151Y304845D01*
X160498Y305078D01*
X171500D01*
X171619Y304913D01*
X171528Y303673D01*
X171045Y302951D01*
X170876Y302100D01*
X171045Y301249D01*
X171528Y300528D01*
X172249Y300045D01*
X173100Y299876D01*
X173951Y300045D01*
X174298Y300278D01*
X179245D01*
X185278Y294245D01*
Y266992D01*
X184293Y266584D01*
X180922Y269955D01*
Y294602D01*
X181155Y294949D01*
X181324Y295800D01*
X181155Y296651D01*
X180673Y297373D01*
X179951Y297855D01*
X179100Y298024D01*
X178249Y297855D01*
X177527Y297373D01*
X177046Y296651D01*
X176876Y295800D01*
X177046Y294949D01*
X177278Y294602D01*
Y269200D01*
X177278Y269200D01*
X177416Y268503D01*
X177811Y267911D01*
X226164Y219559D01*
X226245Y219149D01*
X226728Y218427D01*
X227449Y217945D01*
X228300Y217776D01*
X229151Y217945D01*
X229872Y218427D01*
X230355Y219149D01*
X230524Y220000D01*
X230355Y220851D01*
X229872Y221572D01*
X229281Y221968D01*
X229210Y222500D01*
X229281Y223032D01*
X229872Y223428D01*
X230355Y224149D01*
X230524Y225000D01*
X230355Y225851D01*
X229872Y226572D01*
X229281Y226968D01*
X229210Y227500D01*
X229281Y228032D01*
X229872Y228428D01*
X230355Y229149D01*
X230524Y230000D01*
X230355Y230851D01*
X229872Y231573D01*
X229151Y232055D01*
X228741Y232136D01*
X191922Y268955D01*
Y296000D01*
X191922Y296000D01*
X191784Y296697D01*
X191389Y297289D01*
X191389Y297289D01*
X180489Y308189D01*
X179897Y308584D01*
X179200Y308722D01*
X179200Y308722D01*
X160498D01*
X160151Y308955D01*
X159300Y309124D01*
D02*
G37*
G36*
X323149Y267374D02*
Y265749D01*
X324774D01*
X324704Y266100D01*
X324222Y266822D01*
X323500Y267304D01*
X323149Y267374D01*
D02*
G37*
G36*
X322149D02*
X321798Y267304D01*
X321077Y266822D01*
X320595Y266100D01*
X320525Y265749D01*
X322149D01*
Y267374D01*
D02*
G37*
G36*
X172900Y266324D02*
X172049Y266155D01*
X171327Y265672D01*
X170932Y265081D01*
X170400Y265010D01*
X169868Y265081D01*
X169473Y265672D01*
X168751Y266155D01*
X167900Y266324D01*
X167049Y266155D01*
X166328Y265672D01*
X165932Y265081D01*
X165400Y265010D01*
X164868Y265081D01*
X164472Y265672D01*
X163751Y266155D01*
X162900Y266324D01*
X162049Y266155D01*
X161328Y265672D01*
X160845Y264951D01*
X160676Y264100D01*
X160845Y263249D01*
X161078Y262902D01*
Y218398D01*
X160845Y218051D01*
X160676Y217200D01*
X160845Y216349D01*
X161328Y215628D01*
X162049Y215145D01*
X162900Y214976D01*
X163751Y215145D01*
X164472Y215628D01*
X164868Y216219D01*
X165400Y216290D01*
X165932Y216219D01*
X166328Y215628D01*
X167049Y215145D01*
X167900Y214976D01*
X168751Y215145D01*
X169473Y215628D01*
X169868Y216219D01*
X170400Y216290D01*
X170932Y216219D01*
X171327Y215628D01*
X172049Y215145D01*
X172900Y214976D01*
X173751Y215145D01*
X174472Y215628D01*
X174954Y216349D01*
X175124Y217200D01*
X174954Y218051D01*
X174722Y218398D01*
Y222272D01*
X175475Y222580D01*
X175707Y222598D01*
X205226Y193078D01*
X205527Y192628D01*
X206249Y192146D01*
X207100Y191976D01*
X207184Y191993D01*
X207300Y191970D01*
X208192Y192147D01*
X208948Y192652D01*
X209453Y193408D01*
X209630Y194300D01*
X209453Y195192D01*
X208948Y195948D01*
X179630Y225265D01*
Y229900D01*
X179453Y230792D01*
X179415Y230849D01*
X179355Y231151D01*
X178873Y231873D01*
X178151Y232355D01*
X177300Y232524D01*
X176449Y232355D01*
X175727Y231873D01*
X175707Y231841D01*
X174722Y232140D01*
Y237050D01*
X175707Y237147D01*
X175846Y236449D01*
X176328Y235728D01*
X177049Y235245D01*
X177400Y235176D01*
Y237300D01*
Y239424D01*
X177049Y239355D01*
X176328Y238873D01*
X175846Y238151D01*
X175707Y237453D01*
X174722Y237550D01*
Y262902D01*
X174954Y263249D01*
X175124Y264100D01*
X174954Y264951D01*
X174472Y265672D01*
X173751Y266155D01*
X172900Y266324D01*
D02*
G37*
G36*
X260149Y266174D02*
Y264549D01*
X261774D01*
X261704Y264900D01*
X261222Y265622D01*
X260500Y266104D01*
X260149Y266174D01*
D02*
G37*
G36*
X259149D02*
X258798Y266104D01*
X258077Y265622D01*
X257595Y264900D01*
X257525Y264549D01*
X259149D01*
Y266174D01*
D02*
G37*
G36*
X384849Y265874D02*
Y264249D01*
X386474D01*
X386404Y264600D01*
X385922Y265322D01*
X385200Y265804D01*
X384849Y265874D01*
D02*
G37*
G36*
X383849D02*
X383498Y265804D01*
X382777Y265322D01*
X382295Y264600D01*
X382225Y264249D01*
X383849D01*
Y265874D01*
D02*
G37*
G36*
X324774Y264749D02*
X323149D01*
Y263125D01*
X323500Y263195D01*
X324222Y263677D01*
X324704Y264398D01*
X324774Y264749D01*
D02*
G37*
G36*
X322149D02*
X320525D01*
X320595Y264398D01*
X321077Y263677D01*
X321798Y263195D01*
X322149Y263125D01*
Y264749D01*
D02*
G37*
G36*
X261774Y263549D02*
X260149D01*
Y261925D01*
X260500Y261995D01*
X261222Y262477D01*
X261704Y263198D01*
X261774Y263549D01*
D02*
G37*
G36*
X259149D02*
X257525D01*
X257595Y263198D01*
X258077Y262477D01*
X258798Y261995D01*
X259149Y261925D01*
Y263549D01*
D02*
G37*
G36*
X386474Y263249D02*
X384849D01*
Y261625D01*
X385200Y261695D01*
X385922Y262177D01*
X386404Y262898D01*
X386474Y263249D01*
D02*
G37*
G36*
X383849D02*
X382225D01*
X382295Y262898D01*
X382777Y262177D01*
X383498Y261695D01*
X383849Y261625D01*
Y263249D01*
D02*
G37*
G36*
X353200Y315824D02*
X352349Y315655D01*
X351627Y315173D01*
X351145Y314451D01*
X350976Y313600D01*
X351145Y312749D01*
X351627Y312028D01*
X352349Y311545D01*
X352376Y311540D01*
X359461Y304455D01*
Y270874D01*
X359445Y270851D01*
X359276Y270000D01*
X359445Y269149D01*
X359928Y268427D01*
X360649Y267945D01*
X361500Y267776D01*
X362351Y267945D01*
X363072Y268427D01*
X363555Y269149D01*
X363724Y270000D01*
X363555Y270851D01*
X363539Y270874D01*
Y281385D01*
X364523Y281683D01*
X364628Y281527D01*
X365349Y281045D01*
X366200Y280876D01*
X367051Y281045D01*
X367074Y281061D01*
X376355D01*
X388461Y268955D01*
Y263774D01*
X388445Y263751D01*
X388276Y262900D01*
X388445Y262049D01*
X388928Y261328D01*
X389649Y260845D01*
X390500Y260676D01*
X391351Y260845D01*
X392073Y261328D01*
X392555Y262049D01*
X392724Y262900D01*
X392555Y263751D01*
X392539Y263774D01*
Y269800D01*
X392384Y270580D01*
X391942Y271242D01*
X378642Y284542D01*
X377980Y284984D01*
X377200Y285139D01*
X367074D01*
X367051Y285155D01*
X366200Y285324D01*
X365349Y285155D01*
X364628Y284672D01*
X364523Y284517D01*
X363539Y284815D01*
Y305300D01*
X363384Y306080D01*
X362942Y306742D01*
X355260Y314424D01*
X355255Y314451D01*
X354772Y315173D01*
X354051Y315655D01*
X353200Y315824D01*
D02*
G37*
G36*
X101800Y247424D02*
X100949Y247255D01*
X100227Y246773D01*
X100205Y246739D01*
X92574D01*
X92551Y246755D01*
X91700Y246924D01*
X90849Y246755D01*
X90127Y246272D01*
X89645Y245551D01*
X89476Y244700D01*
X89645Y243849D01*
X90127Y243127D01*
X90256Y243042D01*
Y241858D01*
X90127Y241773D01*
X89645Y241051D01*
X89476Y240200D01*
X89645Y239349D01*
X90127Y238628D01*
Y237473D01*
X89645Y236751D01*
X89638Y236713D01*
X89616Y236680D01*
X89461Y235900D01*
X89616Y235120D01*
X89638Y235087D01*
X89645Y235049D01*
X90127Y234328D01*
X90849Y233845D01*
X91700Y233676D01*
X92551Y233845D01*
X92574Y233861D01*
X100776D01*
X100949Y233745D01*
X101800Y233576D01*
X102651Y233745D01*
X103373Y234227D01*
X103855Y234949D01*
X104024Y235800D01*
X103855Y236651D01*
X103373Y237372D01*
X103039Y237595D01*
Y238705D01*
X103373Y238928D01*
X103855Y239649D01*
X104024Y240500D01*
X103855Y241351D01*
X103373Y242073D01*
X103206Y242184D01*
X103110Y242812D01*
X103164Y243380D01*
X103542Y243758D01*
X103984Y244420D01*
X104139Y245200D01*
X103984Y245980D01*
X103542Y246642D01*
X103393Y246741D01*
X103373Y246773D01*
X102651Y247255D01*
X101800Y247424D01*
D02*
G37*
G36*
X178400Y239424D02*
Y237800D01*
X180024D01*
X179955Y238151D01*
X179472Y238873D01*
X178751Y239355D01*
X178400Y239424D01*
D02*
G37*
G36*
X180024Y236800D02*
X178400D01*
Y235176D01*
X178751Y235245D01*
X179472Y235728D01*
X179955Y236449D01*
X180024Y236800D01*
D02*
G37*
G36*
X349000Y232224D02*
X348149Y232055D01*
X348126Y232039D01*
X321174D01*
X321151Y232055D01*
X320300Y232224D01*
X319449Y232055D01*
X318727Y231573D01*
X318245Y230851D01*
X318076Y230000D01*
X318245Y229149D01*
X318727Y228428D01*
X319319Y228032D01*
X319390Y227500D01*
X319319Y226968D01*
X318727Y226572D01*
X318245Y225851D01*
X318076Y225000D01*
X318245Y224149D01*
X318727Y223428D01*
X319319Y223032D01*
X319390Y222500D01*
X319319Y221968D01*
X318727Y221572D01*
X318245Y220851D01*
X318076Y220000D01*
X318245Y219149D01*
X318727Y218427D01*
X319449Y217945D01*
X320300Y217776D01*
X321151Y217945D01*
X321174Y217961D01*
X334682D01*
X334842Y217766D01*
X334827Y216572D01*
X334345Y215851D01*
X334276Y215500D01*
X338524D01*
X338455Y215851D01*
X337972Y216572D01*
X337958Y217766D01*
X338118Y217961D01*
X348126D01*
X348149Y217945D01*
X349000Y217776D01*
X349851Y217945D01*
X350572Y218427D01*
X351055Y219149D01*
X351224Y220000D01*
X351055Y220851D01*
X350572Y221572D01*
X349981Y221968D01*
X349910Y222500D01*
X349981Y223032D01*
X350572Y223428D01*
X351055Y224149D01*
X351224Y225000D01*
X351055Y225851D01*
X350572Y226572D01*
X349981Y226968D01*
X349910Y227500D01*
X349981Y228032D01*
X350572Y228428D01*
X351055Y229149D01*
X351224Y230000D01*
X351055Y230851D01*
X350572Y231573D01*
X349851Y232055D01*
X349000Y232224D01*
D02*
G37*
G36*
X81400Y236623D02*
X80695Y236530D01*
X80038Y236258D01*
X79474Y235826D01*
X79041Y235262D01*
X78769Y234605D01*
X78677Y233900D01*
X78769Y233195D01*
X79041Y232538D01*
X79474Y231974D01*
X80038Y231542D01*
X80695Y231270D01*
X81400Y231177D01*
X82105Y231270D01*
X82762Y231542D01*
X83326Y231974D01*
X83758Y232538D01*
X84030Y233195D01*
X84123Y233900D01*
X84030Y234605D01*
X83758Y235262D01*
X83326Y235826D01*
X82762Y236258D01*
X82105Y236530D01*
X81400Y236623D01*
D02*
G37*
G36*
X73600D02*
X72895Y236530D01*
X72238Y236258D01*
X71674Y235826D01*
X71241Y235262D01*
X70969Y234605D01*
X70877Y233900D01*
X70969Y233195D01*
X71241Y232538D01*
X71674Y231974D01*
X72238Y231542D01*
X72895Y231270D01*
X73600Y231177D01*
X74305Y231270D01*
X74962Y231542D01*
X75526Y231974D01*
X75959Y232538D01*
X76231Y233195D01*
X76323Y233900D01*
X76231Y234605D01*
X75959Y235262D01*
X75526Y235826D01*
X74962Y236258D01*
X74305Y236530D01*
X73600Y236623D01*
D02*
G37*
G36*
X81400Y228723D02*
X80695Y228630D01*
X80038Y228358D01*
X79474Y227926D01*
X79041Y227362D01*
X78769Y226705D01*
X78677Y226000D01*
X78769Y225295D01*
X79041Y224638D01*
X79474Y224074D01*
X80038Y223642D01*
X80695Y223370D01*
X81400Y223277D01*
X82105Y223370D01*
X82762Y223642D01*
X83326Y224074D01*
X83758Y224638D01*
X84030Y225295D01*
X84123Y226000D01*
X84030Y226705D01*
X83758Y227362D01*
X83326Y227926D01*
X82762Y228358D01*
X82105Y228630D01*
X81400Y228723D01*
D02*
G37*
G36*
X73600D02*
X72895Y228630D01*
X72238Y228358D01*
X71674Y227926D01*
X71241Y227362D01*
X70969Y226705D01*
X70877Y226000D01*
X70969Y225295D01*
X71241Y224638D01*
X71674Y224074D01*
X72238Y223642D01*
X72895Y223370D01*
X73600Y223277D01*
X74305Y223370D01*
X74962Y223642D01*
X75526Y224074D01*
X75959Y224638D01*
X76231Y225295D01*
X76323Y226000D01*
X76231Y226705D01*
X75959Y227362D01*
X75526Y227926D01*
X74962Y228358D01*
X74305Y228630D01*
X73600Y228723D01*
D02*
G37*
G36*
X100700Y227824D02*
X99849Y227655D01*
X99128Y227172D01*
X98646Y226451D01*
X98640Y226424D01*
X95258Y223042D01*
X95258Y223042D01*
X94858Y222642D01*
X94552Y222183D01*
X93821Y222160D01*
X93757Y222166D01*
X93496Y222239D01*
X93072Y222872D01*
X92351Y223355D01*
X91500Y223524D01*
X90649Y223355D01*
X89928Y222872D01*
X89446Y222151D01*
X89440Y222124D01*
X88358Y221042D01*
X87916Y220380D01*
X87761Y219600D01*
Y210874D01*
X87745Y210851D01*
X87576Y210000D01*
X87745Y209149D01*
X88227Y208428D01*
X88949Y207945D01*
X89800Y207776D01*
X90651Y207945D01*
X91373Y208428D01*
X91855Y209149D01*
X92024Y210000D01*
X91855Y210851D01*
X91839Y210874D01*
Y218755D01*
X92324Y219240D01*
X92351Y219245D01*
X93072Y219727D01*
X93277Y220033D01*
X94261Y219734D01*
Y214874D01*
X94245Y214851D01*
X94076Y214000D01*
X94245Y213149D01*
X94727Y212427D01*
X95449Y211945D01*
X96300Y211776D01*
X97151Y211945D01*
X97873Y212427D01*
X98355Y213149D01*
X98524Y214000D01*
X98355Y214851D01*
X98339Y214874D01*
Y220355D01*
X101524Y223540D01*
X101551Y223545D01*
X102272Y224027D01*
X102754Y224749D01*
X102924Y225600D01*
X102754Y226451D01*
X102272Y227172D01*
X101551Y227655D01*
X100700Y227824D01*
D02*
G37*
G36*
X127651Y223375D02*
Y221751D01*
X129275D01*
X129205Y222102D01*
X128723Y222823D01*
X128002Y223305D01*
X127651Y223375D01*
D02*
G37*
G36*
X126651D02*
X126300Y223305D01*
X125578Y222823D01*
X125096Y222102D01*
X125026Y221751D01*
X126651D01*
Y223375D01*
D02*
G37*
G36*
X129275Y220751D02*
X127651D01*
Y219126D01*
X128002Y219196D01*
X128723Y219678D01*
X129205Y220400D01*
X129275Y220751D01*
D02*
G37*
G36*
X126651D02*
X125026D01*
X125096Y220400D01*
X125578Y219678D01*
X126300Y219196D01*
X126651Y219126D01*
Y220751D01*
D02*
G37*
G36*
X275300Y217124D02*
Y215500D01*
X276924D01*
X276855Y215851D01*
X276373Y216572D01*
X275651Y217055D01*
X275300Y217124D01*
D02*
G37*
G36*
X274300D02*
X273949Y217055D01*
X273228Y216572D01*
X272745Y215851D01*
X272676Y215500D01*
X274300D01*
Y217124D01*
D02*
G37*
G36*
X212200D02*
Y215500D01*
X213824D01*
X213755Y215851D01*
X213273Y216572D01*
X212551Y217055D01*
X212200Y217124D01*
D02*
G37*
G36*
X211200D02*
X210849Y217055D01*
X210127Y216572D01*
X209645Y215851D01*
X209576Y215500D01*
X211200D01*
Y217124D01*
D02*
G37*
G36*
X81400Y220823D02*
X80695Y220730D01*
X80038Y220458D01*
X79474Y220026D01*
X79041Y219462D01*
X78769Y218805D01*
X78677Y218100D01*
X78769Y217395D01*
X79041Y216738D01*
X79474Y216174D01*
X80038Y215742D01*
X80695Y215470D01*
X81400Y215377D01*
X82105Y215470D01*
X82762Y215742D01*
X83326Y216174D01*
X83758Y216738D01*
X84030Y217395D01*
X84123Y218100D01*
X84030Y218805D01*
X83758Y219462D01*
X83326Y220026D01*
X82762Y220458D01*
X82105Y220730D01*
X81400Y220823D01*
D02*
G37*
G36*
X73600D02*
X72895Y220730D01*
X72238Y220458D01*
X71674Y220026D01*
X71241Y219462D01*
X70969Y218805D01*
X70877Y218100D01*
X70969Y217395D01*
X71241Y216738D01*
X71674Y216174D01*
X72238Y215742D01*
X72895Y215470D01*
X73600Y215377D01*
X74305Y215470D01*
X74962Y215742D01*
X75526Y216174D01*
X75959Y216738D01*
X76231Y217395D01*
X76323Y218100D01*
X76231Y218805D01*
X75959Y219462D01*
X75526Y220026D01*
X74962Y220458D01*
X74305Y220730D01*
X73600Y220823D01*
D02*
G37*
G36*
X276924Y214500D02*
X275300D01*
Y212876D01*
X275651Y212945D01*
X276373Y213427D01*
X276855Y214149D01*
X276924Y214500D01*
D02*
G37*
G36*
X274300D02*
X272676D01*
X272745Y214149D01*
X273228Y213427D01*
X273949Y212945D01*
X274300Y212876D01*
Y214500D01*
D02*
G37*
G36*
X213824D02*
X212200D01*
Y212876D01*
X212551Y212945D01*
X213273Y213427D01*
X213755Y214149D01*
X213824Y214500D01*
D02*
G37*
G36*
X211200D02*
X209576D01*
X209645Y214149D01*
X210127Y213427D01*
X210849Y212945D01*
X211200Y212876D01*
Y214500D01*
D02*
G37*
G36*
X338524D02*
X336900D01*
Y212876D01*
X337251Y212945D01*
X337972Y213427D01*
X338455Y214149D01*
X338524Y214500D01*
D02*
G37*
G36*
X335900D02*
X334276D01*
X334345Y214149D01*
X334827Y213427D01*
X335549Y212945D01*
X335900Y212876D01*
Y214500D01*
D02*
G37*
G36*
X81400Y212923D02*
X80695Y212830D01*
X80038Y212558D01*
X79474Y212126D01*
X79041Y211562D01*
X78769Y210905D01*
X78677Y210200D01*
X78769Y209495D01*
X79041Y208838D01*
X79474Y208274D01*
X80038Y207842D01*
X80695Y207570D01*
X81400Y207477D01*
X82105Y207570D01*
X82762Y207842D01*
X83326Y208274D01*
X83758Y208838D01*
X84030Y209495D01*
X84123Y210200D01*
X84030Y210905D01*
X83758Y211562D01*
X83326Y212126D01*
X82762Y212558D01*
X82105Y212830D01*
X81400Y212923D01*
D02*
G37*
G36*
X73600D02*
X72895Y212830D01*
X72238Y212558D01*
X71674Y212126D01*
X71241Y211562D01*
X70969Y210905D01*
X70877Y210200D01*
X70969Y209495D01*
X71241Y208838D01*
X71674Y208274D01*
X72238Y207842D01*
X72895Y207570D01*
X73600Y207477D01*
X74305Y207570D01*
X74962Y207842D01*
X75526Y208274D01*
X75959Y208838D01*
X76231Y209495D01*
X76323Y210200D01*
X76231Y210905D01*
X75959Y211562D01*
X75526Y212126D01*
X74962Y212558D01*
X74305Y212830D01*
X73600Y212923D01*
D02*
G37*
G36*
X369587Y215812D02*
X368620Y215620D01*
X367801Y215073D01*
X367254Y214254D01*
X367062Y213287D01*
X367254Y212321D01*
X367801Y211502D01*
X367900Y211404D01*
X368127Y211252D01*
X368073Y210104D01*
X367703Y209856D01*
X367156Y209037D01*
X366963Y208071D01*
X367156Y207105D01*
X367703Y206286D01*
X368096Y205892D01*
X368916Y205345D01*
X369882Y205152D01*
X381594D01*
X382561Y205345D01*
X383380Y205892D01*
X383927Y206711D01*
X384119Y207677D01*
X383927Y208643D01*
X383380Y209462D01*
X383055Y209680D01*
X383353Y210664D01*
X388583D01*
X389549Y210856D01*
X390368Y211404D01*
X390915Y212223D01*
X391108Y213189D01*
X390915Y214155D01*
X390368Y214974D01*
X389549Y215522D01*
X388583Y215714D01*
X370081D01*
X369587Y215812D01*
D02*
G37*
G36*
X81400Y205023D02*
X80695Y204930D01*
X80038Y204658D01*
X79474Y204226D01*
X79041Y203662D01*
X78769Y203005D01*
X78677Y202300D01*
X78769Y201595D01*
X79041Y200938D01*
X79474Y200374D01*
X80038Y199942D01*
X80695Y199670D01*
X81400Y199577D01*
X82105Y199670D01*
X82762Y199942D01*
X83326Y200374D01*
X83758Y200938D01*
X84030Y201595D01*
X84123Y202300D01*
X84030Y203005D01*
X83758Y203662D01*
X83326Y204226D01*
X82762Y204658D01*
X82105Y204930D01*
X81400Y205023D01*
D02*
G37*
G36*
X73600D02*
X72895Y204930D01*
X72238Y204658D01*
X71674Y204226D01*
X71241Y203662D01*
X70969Y203005D01*
X70877Y202300D01*
X70969Y201595D01*
X71241Y200938D01*
X71674Y200374D01*
X72238Y199942D01*
X72895Y199670D01*
X73600Y199577D01*
X74305Y199670D01*
X74962Y199942D01*
X75526Y200374D01*
X75959Y200938D01*
X76231Y201595D01*
X76323Y202300D01*
X76231Y203005D01*
X75959Y203662D01*
X75526Y204226D01*
X74962Y204658D01*
X74305Y204930D01*
X73600Y205023D01*
D02*
G37*
G36*
X119200Y207324D02*
X118349Y207155D01*
X117628Y206673D01*
X117146Y205951D01*
X116976Y205100D01*
X117146Y204249D01*
X117628Y203527D01*
Y203073D01*
X117146Y202351D01*
X116976Y201500D01*
X117146Y200649D01*
X117628Y199927D01*
Y199372D01*
X117146Y198651D01*
X116976Y197800D01*
X117146Y196949D01*
X117628Y196228D01*
X118349Y195746D01*
X119200Y195576D01*
X120051Y195746D01*
X120398Y195978D01*
X156802D01*
X157149Y195746D01*
X158000Y195576D01*
X158851Y195746D01*
X159573Y196228D01*
X160055Y196949D01*
X160224Y197800D01*
X160055Y198651D01*
X159573Y199372D01*
X158851Y199855D01*
X158000Y200024D01*
X157149Y199855D01*
X156802Y199622D01*
X154440D01*
X154142Y200607D01*
X154472Y200828D01*
X154955Y201549D01*
X155124Y202400D01*
X154955Y203251D01*
X154472Y203973D01*
X153751Y204454D01*
X152900Y204624D01*
X152049Y204454D01*
X151328Y203973D01*
X151182Y203754D01*
X150148Y203979D01*
X150055Y204451D01*
X149573Y205172D01*
X148851Y205655D01*
X148000Y205824D01*
X147149Y205655D01*
X146802Y205422D01*
X124355D01*
X123389Y206389D01*
X122797Y206784D01*
X122100Y206922D01*
X122100Y206922D01*
X120398D01*
X120051Y207155D01*
X119200Y207324D01*
D02*
G37*
G36*
X81400Y197123D02*
X80695Y197030D01*
X80038Y196758D01*
X79474Y196326D01*
X79041Y195762D01*
X78769Y195105D01*
X78677Y194400D01*
X78769Y193695D01*
X79041Y193038D01*
X79474Y192474D01*
X80038Y192042D01*
X80695Y191770D01*
X81400Y191677D01*
X82105Y191770D01*
X82762Y192042D01*
X83326Y192474D01*
X83758Y193038D01*
X84030Y193695D01*
X84123Y194400D01*
X84030Y195105D01*
X83758Y195762D01*
X83326Y196326D01*
X82762Y196758D01*
X82105Y197030D01*
X81400Y197123D01*
D02*
G37*
G36*
X73600D02*
X72895Y197030D01*
X72238Y196758D01*
X71674Y196326D01*
X71241Y195762D01*
X70969Y195105D01*
X70877Y194400D01*
X70969Y193695D01*
X71241Y193038D01*
X71674Y192474D01*
X72238Y192042D01*
X72895Y191770D01*
X73600Y191677D01*
X74305Y191770D01*
X74962Y192042D01*
X75526Y192474D01*
X75959Y193038D01*
X76231Y193695D01*
X76323Y194400D01*
X76231Y195105D01*
X75959Y195762D01*
X75526Y196326D01*
X74962Y196758D01*
X74305Y197030D01*
X73600Y197123D01*
D02*
G37*
G36*
X373728Y191987D02*
Y190362D01*
X375353D01*
X375283Y190713D01*
X374801Y191435D01*
X374079Y191917D01*
X373728Y191987D01*
D02*
G37*
G36*
X372728D02*
X372377Y191917D01*
X371656Y191435D01*
X371174Y190713D01*
X371104Y190362D01*
X372728D01*
Y191987D01*
D02*
G37*
G36*
X375353Y189362D02*
X373728D01*
Y187738D01*
X374079Y187808D01*
X374801Y188290D01*
X375283Y189011D01*
X375353Y189362D01*
D02*
G37*
G36*
X372728D02*
X371104D01*
X371174Y189011D01*
X371656Y188290D01*
X372377Y187808D01*
X372728Y187738D01*
Y189362D01*
D02*
G37*
G36*
X289800Y192925D02*
X272191D01*
X271225Y192733D01*
X270406Y192185D01*
X263226Y185005D01*
X262180D01*
X261688Y185209D01*
X260861Y185318D01*
X260035Y185209D01*
X259265Y184890D01*
X258604Y184383D01*
X258097Y183721D01*
X257778Y182951D01*
X257669Y182125D01*
X257778Y181299D01*
X258097Y180529D01*
X258604Y179868D01*
X259265Y179360D01*
X260035Y179041D01*
X260861Y178932D01*
X261688Y179041D01*
X262458Y179360D01*
X263119Y179868D01*
X263186Y179955D01*
X264272D01*
X265238Y180148D01*
X266057Y180695D01*
X266770Y181408D01*
X267233Y181358D01*
X267858Y181104D01*
X268096Y180529D01*
X268604Y179868D01*
X269265Y179360D01*
X270035Y179041D01*
X270861Y178932D01*
X271688Y179041D01*
X272458Y179360D01*
X273119Y179868D01*
X273626Y180529D01*
X273945Y181299D01*
X274054Y182125D01*
X273945Y182951D01*
X273626Y183721D01*
X273119Y184383D01*
X272458Y184890D01*
X271882Y185128D01*
X271628Y185754D01*
X271578Y186216D01*
X273237Y187875D01*
X289800D01*
X290766Y188067D01*
X291585Y188615D01*
X292133Y189434D01*
X292325Y190400D01*
X292133Y191366D01*
X291585Y192185D01*
X290766Y192733D01*
X289800Y192925D01*
D02*
G37*
G36*
X129100Y188324D02*
X128249Y188154D01*
X128226Y188139D01*
X126000D01*
X125220Y187984D01*
X124558Y187542D01*
X121655Y184639D01*
X118974D01*
X118951Y184654D01*
X118100Y184824D01*
X117249Y184654D01*
X116527Y184172D01*
X116045Y183451D01*
X115876Y182600D01*
X116045Y181749D01*
X116502Y181065D01*
X116525Y181002D01*
X116419Y179916D01*
X116158Y179742D01*
X115716Y179080D01*
X115561Y178300D01*
X115716Y177520D01*
X116158Y176858D01*
X116820Y176416D01*
X117067Y176367D01*
X117249Y176245D01*
X118100Y176076D01*
X118951Y176245D01*
X118974Y176261D01*
X125200D01*
X125980Y176416D01*
X126642Y176858D01*
X129924Y180140D01*
X129951Y180146D01*
X130673Y180628D01*
X131155Y181349D01*
X131324Y182200D01*
X131155Y183051D01*
X130673Y183773D01*
Y184528D01*
X131155Y185249D01*
X131324Y186100D01*
X131155Y186951D01*
X130673Y187672D01*
X129951Y188154D01*
X129100Y188324D01*
D02*
G37*
G36*
X81300Y189223D02*
X80595Y189130D01*
X79938Y188858D01*
X79374Y188426D01*
X78942Y187862D01*
X78670Y187205D01*
X78577Y186500D01*
X78670Y185795D01*
X78942Y185138D01*
X79374Y184574D01*
X79938Y184142D01*
X80595Y183870D01*
X81300Y183777D01*
X82005Y183870D01*
X82662Y184142D01*
X83226Y184574D01*
X83658Y185138D01*
X83930Y185795D01*
X84023Y186500D01*
X83930Y187205D01*
X83658Y187862D01*
X83226Y188426D01*
X82662Y188858D01*
X82005Y189130D01*
X81300Y189223D01*
D02*
G37*
G36*
X73500D02*
X72795Y189130D01*
X72138Y188858D01*
X71574Y188426D01*
X71141Y187862D01*
X70869Y187205D01*
X70777Y186500D01*
X70869Y185795D01*
X71141Y185138D01*
X71574Y184574D01*
X72138Y184142D01*
X72795Y183870D01*
X73500Y183777D01*
X74205Y183870D01*
X74862Y184142D01*
X75426Y184574D01*
X75858Y185138D01*
X76130Y185795D01*
X76223Y186500D01*
X76130Y187205D01*
X75858Y187862D01*
X75426Y188426D01*
X74862Y188858D01*
X74205Y189130D01*
X73500Y189223D01*
D02*
G37*
G36*
X172900Y183824D02*
X172049Y183654D01*
X171327Y183173D01*
X170932Y182581D01*
X170400Y182510D01*
X169868Y182581D01*
X169473Y183173D01*
X168751Y183654D01*
X167900Y183824D01*
X167049Y183654D01*
X166328Y183173D01*
X165932Y182581D01*
X165400Y182510D01*
X164868Y182581D01*
X164472Y183173D01*
X163751Y183654D01*
X162900Y183824D01*
X162049Y183654D01*
X161328Y183173D01*
X160845Y182451D01*
X160676Y181600D01*
X160845Y180749D01*
X161078Y180402D01*
Y151798D01*
X160845Y151451D01*
X160676Y150600D01*
X160845Y149749D01*
X161328Y149028D01*
X162049Y148546D01*
X162900Y148376D01*
X163751Y148546D01*
X164472Y149028D01*
X164868Y149619D01*
X165400Y149690D01*
X165932Y149619D01*
X166328Y149028D01*
X167049Y148546D01*
X167900Y148376D01*
X168751Y148546D01*
X169473Y149028D01*
X169868Y149619D01*
X170400Y149690D01*
X170932Y149619D01*
X171327Y149028D01*
X172049Y148546D01*
X172900Y148376D01*
X173751Y148546D01*
X174472Y149028D01*
X174954Y149749D01*
X175124Y150600D01*
X174954Y151451D01*
X174722Y151798D01*
Y173450D01*
X175707Y173547D01*
X175846Y172849D01*
X176328Y172127D01*
X177049Y171645D01*
X177400Y171576D01*
Y173700D01*
Y175824D01*
X177049Y175754D01*
X176328Y175273D01*
X175846Y174551D01*
X175707Y173853D01*
X174722Y173950D01*
Y180402D01*
X174954Y180749D01*
X175124Y181600D01*
X174954Y182451D01*
X174472Y183173D01*
X173751Y183654D01*
X172900Y183824D01*
D02*
G37*
G36*
X373728Y184014D02*
Y182390D01*
X375353D01*
X375283Y182741D01*
X374801Y183462D01*
X374079Y183944D01*
X373728Y184014D01*
D02*
G37*
G36*
X372728D02*
X372377Y183944D01*
X371656Y183462D01*
X371174Y182741D01*
X371104Y182390D01*
X372728D01*
Y184014D01*
D02*
G37*
G36*
X375353Y181390D02*
X373728D01*
Y179765D01*
X374079Y179835D01*
X374801Y180317D01*
X375283Y181039D01*
X375353Y181390D01*
D02*
G37*
G36*
X372728D02*
X371104D01*
X371174Y181039D01*
X371656Y180317D01*
X372377Y179835D01*
X372728Y179765D01*
Y181390D01*
D02*
G37*
G36*
X280861Y185318D02*
X280035Y185209D01*
X279265Y184890D01*
X278604Y184383D01*
X278097Y183721D01*
X277778Y182951D01*
X277669Y182125D01*
X277778Y181299D01*
X278097Y180529D01*
X278604Y179868D01*
X279265Y179360D01*
X280035Y179041D01*
X280861Y178932D01*
X281688Y179041D01*
X282458Y179360D01*
X283119Y179868D01*
X283626Y180529D01*
X283945Y181299D01*
X284054Y182125D01*
X283945Y182951D01*
X283626Y183721D01*
X283119Y184383D01*
X282458Y184890D01*
X281688Y185209D01*
X280861Y185318D01*
D02*
G37*
G36*
X250861D02*
X250035Y185209D01*
X249265Y184890D01*
X248604Y184383D01*
X248096Y183721D01*
X247778Y182951D01*
X247669Y182125D01*
X247778Y181299D01*
X248096Y180529D01*
X248604Y179868D01*
X249265Y179360D01*
X250035Y179041D01*
X250861Y178932D01*
X251688Y179041D01*
X252458Y179360D01*
X253119Y179868D01*
X253626Y180529D01*
X253945Y181299D01*
X254054Y182125D01*
X253945Y182951D01*
X253626Y183721D01*
X253119Y184383D01*
X252458Y184890D01*
X251688Y185209D01*
X250861Y185318D01*
D02*
G37*
G36*
X240861D02*
X240035Y185209D01*
X239265Y184890D01*
X238604Y184383D01*
X238096Y183721D01*
X237778Y182951D01*
X237669Y182125D01*
X237778Y181299D01*
X238096Y180529D01*
X238604Y179868D01*
X239265Y179360D01*
X240035Y179041D01*
X240861Y178932D01*
X241688Y179041D01*
X242458Y179360D01*
X243119Y179868D01*
X243626Y180529D01*
X243945Y181299D01*
X244054Y182125D01*
X243945Y182951D01*
X243626Y183721D01*
X243119Y184383D01*
X242458Y184890D01*
X241688Y185209D01*
X240861Y185318D01*
D02*
G37*
G36*
X230861D02*
X230035Y185209D01*
X229265Y184890D01*
X228604Y184383D01*
X228097Y183721D01*
X227778Y182951D01*
X227669Y182125D01*
X227778Y181299D01*
X228097Y180529D01*
X228604Y179868D01*
X229265Y179360D01*
X230035Y179041D01*
X230861Y178932D01*
X231688Y179041D01*
X232458Y179360D01*
X233119Y179868D01*
X233626Y180529D01*
X233945Y181299D01*
X234054Y182125D01*
X233945Y182951D01*
X233626Y183721D01*
X233119Y184383D01*
X232458Y184890D01*
X231688Y185209D01*
X230861Y185318D01*
D02*
G37*
G36*
X81300Y181323D02*
X80595Y181230D01*
X79938Y180958D01*
X79374Y180526D01*
X78942Y179962D01*
X78670Y179305D01*
X78577Y178600D01*
X78670Y177895D01*
X78942Y177238D01*
X79374Y176674D01*
X79938Y176242D01*
X80595Y175970D01*
X81300Y175877D01*
X82005Y175970D01*
X82662Y176242D01*
X83226Y176674D01*
X83658Y177238D01*
X83930Y177895D01*
X84023Y178600D01*
X83930Y179305D01*
X83658Y179962D01*
X83226Y180526D01*
X82662Y180958D01*
X82005Y181230D01*
X81300Y181323D01*
D02*
G37*
G36*
X73500D02*
X72795Y181230D01*
X72138Y180958D01*
X71574Y180526D01*
X71141Y179962D01*
X70869Y179305D01*
X70777Y178600D01*
X70869Y177895D01*
X71141Y177238D01*
X71574Y176674D01*
X72138Y176242D01*
X72795Y175970D01*
X73500Y175877D01*
X74205Y175970D01*
X74862Y176242D01*
X75426Y176674D01*
X75858Y177238D01*
X76130Y177895D01*
X76223Y178600D01*
X76130Y179305D01*
X75858Y179962D01*
X75426Y180526D01*
X74862Y180958D01*
X74205Y181230D01*
X73500Y181323D01*
D02*
G37*
G36*
X178400Y175824D02*
Y174200D01*
X180024D01*
X179955Y174551D01*
X179472Y175273D01*
X178751Y175754D01*
X178400Y175824D01*
D02*
G37*
G36*
X180024Y173200D02*
X178400D01*
Y171576D01*
X178751Y171645D01*
X179472Y172127D01*
X179955Y172849D01*
X180024Y173200D01*
D02*
G37*
G36*
X280861Y175318D02*
X280035Y175209D01*
X279265Y174890D01*
X278604Y174383D01*
X278097Y173722D01*
X277778Y172951D01*
X277669Y172125D01*
X277778Y171299D01*
X278097Y170529D01*
X278604Y169868D01*
X279265Y169360D01*
X280035Y169041D01*
X280861Y168932D01*
X281688Y169041D01*
X282458Y169360D01*
X283119Y169868D01*
X283626Y170529D01*
X283945Y171299D01*
X284054Y172125D01*
X283945Y172951D01*
X283626Y173722D01*
X283119Y174383D01*
X282458Y174890D01*
X281688Y175209D01*
X280861Y175318D01*
D02*
G37*
G36*
X270861D02*
X270035Y175209D01*
X269265Y174890D01*
X268604Y174383D01*
X268096Y173722D01*
X267778Y172951D01*
X267669Y172125D01*
X267778Y171299D01*
X268096Y170529D01*
X268604Y169868D01*
X269265Y169360D01*
X270035Y169041D01*
X270861Y168932D01*
X271688Y169041D01*
X272458Y169360D01*
X273119Y169868D01*
X273626Y170529D01*
X273945Y171299D01*
X274054Y172125D01*
X273945Y172951D01*
X273626Y173722D01*
X273119Y174383D01*
X272458Y174890D01*
X271688Y175209D01*
X270861Y175318D01*
D02*
G37*
G36*
X250861D02*
X250035Y175209D01*
X249265Y174890D01*
X248604Y174383D01*
X248096Y173722D01*
X247778Y172951D01*
X247669Y172125D01*
X247778Y171299D01*
X248096Y170529D01*
X248604Y169868D01*
X249265Y169360D01*
X250035Y169041D01*
X250861Y168932D01*
X251688Y169041D01*
X252458Y169360D01*
X253119Y169868D01*
X253626Y170529D01*
X253945Y171299D01*
X254054Y172125D01*
X253945Y172951D01*
X253626Y173722D01*
X253119Y174383D01*
X252458Y174890D01*
X251688Y175209D01*
X250861Y175318D01*
D02*
G37*
G36*
X240861D02*
X240035Y175209D01*
X239265Y174890D01*
X238604Y174383D01*
X238096Y173722D01*
X237778Y172951D01*
X237669Y172125D01*
X237778Y171299D01*
X238096Y170529D01*
X238604Y169868D01*
X239265Y169360D01*
X240035Y169041D01*
X240861Y168932D01*
X241688Y169041D01*
X242458Y169360D01*
X243119Y169868D01*
X243626Y170529D01*
X243945Y171299D01*
X244054Y172125D01*
X243945Y172951D01*
X243626Y173722D01*
X243119Y174383D01*
X242458Y174890D01*
X241688Y175209D01*
X240861Y175318D01*
D02*
G37*
G36*
X230861D02*
X230035Y175209D01*
X229265Y174890D01*
X228604Y174383D01*
X228097Y173722D01*
X227778Y172951D01*
X227669Y172125D01*
X227778Y171299D01*
X228097Y170529D01*
X228604Y169868D01*
X229265Y169360D01*
X230035Y169041D01*
X230861Y168932D01*
X231688Y169041D01*
X232458Y169360D01*
X233119Y169868D01*
X233626Y170529D01*
X233945Y171299D01*
X234054Y172125D01*
X233945Y172951D01*
X233626Y173722D01*
X233119Y174383D01*
X232458Y174890D01*
X231688Y175209D01*
X230861Y175318D01*
D02*
G37*
G36*
X73600Y173423D02*
X72895Y173330D01*
X72238Y173058D01*
X71674Y172626D01*
X71241Y172062D01*
X70969Y171405D01*
X70877Y170700D01*
X70969Y169995D01*
X71241Y169338D01*
X71674Y168774D01*
X72238Y168342D01*
X72895Y168070D01*
X73600Y167977D01*
X74305Y168070D01*
X74962Y168342D01*
X75526Y168774D01*
X75959Y169338D01*
X76231Y169995D01*
X76323Y170700D01*
X76231Y171405D01*
X75959Y172062D01*
X75526Y172626D01*
X74962Y173058D01*
X74305Y173330D01*
X73600Y173423D01*
D02*
G37*
G36*
X81400D02*
X80695Y173330D01*
X80038Y173058D01*
X79474Y172626D01*
X79041Y172062D01*
X78769Y171405D01*
X78677Y170700D01*
X78769Y169995D01*
X79041Y169338D01*
X79474Y168774D01*
X80038Y168342D01*
X80695Y168070D01*
X81400Y167977D01*
X82105Y168070D01*
X82762Y168342D01*
X83326Y168774D01*
X83477Y168971D01*
X84461Y168637D01*
Y164863D01*
X83477Y164529D01*
X83326Y164726D01*
X82762Y165158D01*
X82105Y165430D01*
X81400Y165523D01*
X80695Y165430D01*
X80038Y165158D01*
X79474Y164726D01*
X79041Y164162D01*
X78769Y163505D01*
X78677Y162800D01*
X78769Y162095D01*
X79041Y161438D01*
X79474Y160874D01*
X80038Y160442D01*
X80695Y160169D01*
X81400Y160077D01*
X82105Y160169D01*
X82762Y160442D01*
X83326Y160874D01*
X83477Y161071D01*
X84461Y160737D01*
Y159774D01*
X84446Y159751D01*
X84438Y159713D01*
X84416Y159680D01*
X84261Y158900D01*
Y158200D01*
X84416Y157420D01*
X84858Y156758D01*
X85958Y155658D01*
X86620Y155216D01*
X87400Y155061D01*
X88180Y155216D01*
X88842Y155658D01*
X89284Y156320D01*
X89356Y156683D01*
X89373Y156699D01*
X90365Y157101D01*
X90367D01*
X90749Y156845D01*
X91600Y156676D01*
X92451Y156845D01*
X93173Y157327D01*
X93655Y158049D01*
X93824Y158900D01*
X93732Y159363D01*
X93739Y159400D01*
Y166026D01*
X93755Y166049D01*
X93924Y166900D01*
X93755Y167751D01*
X93273Y168473D01*
X92551Y168955D01*
X91700Y169124D01*
X90849Y168955D01*
X90127Y168473D01*
X89645Y167751D01*
X89630Y167673D01*
X88590Y167491D01*
X88539Y167554D01*
Y169826D01*
X88555Y169849D01*
X88724Y170700D01*
X88555Y171551D01*
X88073Y172273D01*
X87351Y172755D01*
X86500Y172924D01*
X85649Y172755D01*
X84927Y172273D01*
X84810Y172096D01*
X84171Y172075D01*
X83675Y172170D01*
X83326Y172626D01*
X82762Y173058D01*
X82105Y173330D01*
X81400Y173423D01*
D02*
G37*
G36*
X73600Y165523D02*
X72895Y165430D01*
X72238Y165158D01*
X71674Y164726D01*
X71241Y164162D01*
X70969Y163505D01*
X70877Y162800D01*
X70969Y162095D01*
X71241Y161438D01*
X71674Y160874D01*
X72238Y160442D01*
X72895Y160169D01*
X73600Y160077D01*
X74305Y160169D01*
X74962Y160442D01*
X75526Y160874D01*
X75959Y161438D01*
X76231Y162095D01*
X76323Y162800D01*
X76231Y163505D01*
X75959Y164162D01*
X75526Y164726D01*
X74962Y165158D01*
X74305Y165430D01*
X73600Y165523D01*
D02*
G37*
G36*
X127300Y154524D02*
Y152900D01*
X128924D01*
X128855Y153251D01*
X128373Y153972D01*
X127651Y154455D01*
X127300Y154524D01*
D02*
G37*
G36*
X126300D02*
X125949Y154455D01*
X125227Y153972D01*
X124746Y153251D01*
X124676Y152900D01*
X126300D01*
Y154524D01*
D02*
G37*
G36*
X81400Y157823D02*
X80695Y157730D01*
X80038Y157458D01*
X79474Y157026D01*
X79041Y156462D01*
X78769Y155805D01*
X78677Y155100D01*
X78769Y154395D01*
X79041Y153738D01*
X79474Y153174D01*
X80038Y152742D01*
X80695Y152470D01*
X81400Y152377D01*
X82105Y152470D01*
X82762Y152742D01*
X83326Y153174D01*
X83758Y153738D01*
X84030Y154395D01*
X84123Y155100D01*
X84030Y155805D01*
X83758Y156462D01*
X83326Y157026D01*
X82762Y157458D01*
X82105Y157730D01*
X81400Y157823D01*
D02*
G37*
G36*
X73600D02*
X72895Y157730D01*
X72238Y157458D01*
X71674Y157026D01*
X71241Y156462D01*
X70969Y155805D01*
X70877Y155100D01*
X70969Y154395D01*
X71241Y153738D01*
X71674Y153174D01*
X72238Y152742D01*
X72895Y152470D01*
X73600Y152377D01*
X74305Y152470D01*
X74962Y152742D01*
X75526Y153174D01*
X75959Y153738D01*
X76231Y154395D01*
X76323Y155100D01*
X76231Y155805D01*
X75959Y156462D01*
X75526Y157026D01*
X74962Y157458D01*
X74305Y157730D01*
X73600Y157823D01*
D02*
G37*
G36*
X128924Y151900D02*
X127300D01*
Y150276D01*
X127651Y150346D01*
X128373Y150828D01*
X128855Y151549D01*
X128924Y151900D01*
D02*
G37*
G36*
X126300D02*
X124676D01*
X124746Y151549D01*
X125227Y150828D01*
X125949Y150346D01*
X126300Y150276D01*
Y151900D01*
D02*
G37*
G36*
X290600Y163425D02*
X289634Y163233D01*
X288815Y162685D01*
X288267Y161866D01*
X288075Y160900D01*
X288267Y159934D01*
X288815Y159115D01*
X297931Y149998D01*
X298750Y149451D01*
X299716Y149259D01*
X300683Y149451D01*
X301502Y149998D01*
X302049Y150817D01*
X302241Y151784D01*
X302049Y152750D01*
X301502Y153569D01*
X292385Y162685D01*
X291566Y163233D01*
X290600Y163425D01*
D02*
G37*
G36*
X198130Y151442D02*
X186909D01*
X185943Y151250D01*
X185124Y150703D01*
X184829Y150407D01*
X184282Y149588D01*
X184089Y148622D01*
X184282Y147656D01*
X184829Y146837D01*
X185648Y146289D01*
X186614Y146097D01*
X187580Y146289D01*
X187735Y146392D01*
X198130D01*
X199096Y146585D01*
X199915Y147132D01*
X200463Y147951D01*
X200655Y148917D01*
X200463Y149884D01*
X199915Y150703D01*
X199096Y151250D01*
X198130Y151442D01*
D02*
G37*
G36*
X218400Y165525D02*
X184800D01*
X183834Y165333D01*
X183015Y164785D01*
X182467Y163966D01*
X182275Y163000D01*
X182467Y162034D01*
X183015Y161215D01*
X183834Y160667D01*
X184800Y160475D01*
X217354D01*
X223611Y154219D01*
X224430Y153671D01*
X225396Y153479D01*
X255750D01*
X263115Y146115D01*
X263934Y145567D01*
X264900Y145375D01*
X265866Y145567D01*
X266685Y146115D01*
X267233Y146934D01*
X267425Y147900D01*
X267233Y148866D01*
X266685Y149685D01*
X258581Y157789D01*
X257762Y158337D01*
X256796Y158529D01*
X226442D01*
X220185Y164785D01*
X219366Y165333D01*
X218400Y165525D01*
D02*
G37*
G36*
X77400Y149824D02*
X76549Y149654D01*
X75827Y149172D01*
X75345Y148451D01*
X75176Y147600D01*
X75345Y146749D01*
X75827Y146028D01*
X76549Y145545D01*
X76576Y145540D01*
X76758Y145358D01*
X77420Y144916D01*
X78200Y144761D01*
X87200D01*
X87980Y144916D01*
X88642Y145358D01*
X88724Y145440D01*
X88751Y145446D01*
X89473Y145928D01*
X89955Y146649D01*
X90124Y147500D01*
X89955Y148351D01*
X89473Y149073D01*
X88751Y149555D01*
X87900Y149724D01*
X87049Y149555D01*
X86327Y149073D01*
X86172Y148839D01*
X79195D01*
X78973Y149172D01*
X78251Y149654D01*
X77400Y149824D01*
D02*
G37*
G36*
X286500Y155025D02*
X285534Y154833D01*
X284715Y154285D01*
X284167Y153466D01*
X283975Y152500D01*
X284167Y151534D01*
X284715Y150715D01*
X290815Y144615D01*
X291634Y144067D01*
X292600Y143875D01*
X293566Y144067D01*
X294385Y144615D01*
X294933Y145434D01*
X295125Y146400D01*
X294933Y147366D01*
X294385Y148185D01*
X288285Y154285D01*
X287466Y154833D01*
X286500Y155025D01*
D02*
G37*
G36*
X232587Y145235D02*
Y143610D01*
X234211D01*
X234141Y143961D01*
X233659Y144683D01*
X232938Y145165D01*
X232587Y145235D01*
D02*
G37*
G36*
X231587D02*
X231236Y145165D01*
X230514Y144683D01*
X230032Y143961D01*
X229962Y143610D01*
X231587D01*
Y145235D01*
D02*
G37*
G36*
X234211Y142610D02*
X232587D01*
Y140986D01*
X232938Y141056D01*
X233659Y141538D01*
X234141Y142259D01*
X234211Y142610D01*
D02*
G37*
G36*
X231587D02*
X229962D01*
X230032Y142259D01*
X230514Y141538D01*
X231236Y141056D01*
X231587Y140986D01*
Y142610D01*
D02*
G37*
G36*
X143000Y138424D02*
X142149Y138254D01*
X142126Y138239D01*
X130774D01*
X130751Y138254D01*
X129900Y138424D01*
X129049Y138254D01*
X128328Y137773D01*
X127846Y137051D01*
X127676Y136200D01*
X127846Y135349D01*
X128328Y134627D01*
X129049Y134145D01*
X129900Y133976D01*
X130751Y134145D01*
X130774Y134161D01*
X142126D01*
X142149Y134145D01*
X143000Y133976D01*
X143851Y134145D01*
X144572Y134627D01*
X145054Y135349D01*
X145224Y136200D01*
X145054Y137051D01*
X144572Y137773D01*
X143851Y138254D01*
X143000Y138424D01*
D02*
G37*
G36*
X198819Y139533D02*
X186909D01*
X185943Y139341D01*
X185124Y138793D01*
X184927Y138596D01*
X184380Y137777D01*
X184188Y136811D01*
X184380Y135845D01*
X184927Y135026D01*
X185746Y134478D01*
X186713Y134286D01*
X187679Y134478D01*
X187686Y134483D01*
X198819D01*
X199785Y134675D01*
X200604Y135222D01*
X201152Y136042D01*
X201344Y137008D01*
X201152Y137974D01*
X200604Y138793D01*
X199785Y139341D01*
X198819Y139533D01*
D02*
G37*
G36*
X76100Y142624D02*
X75249Y142455D01*
X74528Y141972D01*
X74045Y141251D01*
X73876Y140400D01*
X74045Y139549D01*
X74528Y138828D01*
X75249Y138346D01*
X76100Y138176D01*
X76186Y138193D01*
X76350Y138161D01*
X89555D01*
X92890Y134826D01*
X92896Y134799D01*
X93378Y134078D01*
X94099Y133596D01*
X94950Y133426D01*
X95801Y133596D01*
X96522Y134078D01*
X97004Y134799D01*
X97174Y135650D01*
X97004Y136501D01*
X96522Y137223D01*
X95801Y137705D01*
X95774Y137710D01*
X91842Y141642D01*
X91180Y142084D01*
X90400Y142239D01*
X77273D01*
X76951Y142455D01*
X76100Y142624D01*
D02*
G37*
G36*
X232587Y134063D02*
Y132439D01*
X234211D01*
X234141Y132790D01*
X233659Y133511D01*
X232938Y133993D01*
X232587Y134063D01*
D02*
G37*
G36*
X231587D02*
X231236Y133993D01*
X230514Y133511D01*
X230032Y132790D01*
X229962Y132439D01*
X231587D01*
Y134063D01*
D02*
G37*
G36*
X234211Y131439D02*
X232587D01*
Y129815D01*
X232938Y129884D01*
X233659Y130367D01*
X234141Y131088D01*
X234211Y131439D01*
D02*
G37*
G36*
X231587D02*
X229962D01*
X230032Y131088D01*
X230514Y130367D01*
X231236Y129884D01*
X231587Y129815D01*
Y131439D01*
D02*
G37*
G36*
X199508Y128903D02*
X186909D01*
X185943Y128711D01*
X185124Y128163D01*
X185092Y128116D01*
X184845Y127950D01*
X184363Y127229D01*
X184194Y126378D01*
X184363Y125527D01*
X184845Y124805D01*
X185092Y124640D01*
X185124Y124593D01*
X185943Y124045D01*
X186909Y123853D01*
X199508D01*
X200474Y124045D01*
X201293Y124593D01*
X201841Y125412D01*
X202033Y126378D01*
X201841Y127344D01*
X201293Y128163D01*
X200474Y128711D01*
X199508Y128903D01*
D02*
G37*
G36*
X237705Y117887D02*
Y115657D01*
X239934D01*
X239905Y115881D01*
X239626Y116555D01*
X239181Y117134D01*
X238602Y117578D01*
X237928Y117858D01*
X237705Y117887D01*
D02*
G37*
G36*
X236705D02*
X236481Y117858D01*
X235807Y117578D01*
X235228Y117134D01*
X234784Y116555D01*
X234504Y115881D01*
X234475Y115657D01*
X236705D01*
Y117887D01*
D02*
G37*
G36*
X262705Y117690D02*
Y115461D01*
X264934D01*
X264905Y115684D01*
X264626Y116358D01*
X264182Y116937D01*
X263603Y117382D01*
X262928Y117661D01*
X262705Y117690D01*
D02*
G37*
G36*
X261705D02*
X261481Y117661D01*
X260807Y117382D01*
X260228Y116937D01*
X259784Y116358D01*
X259505Y115684D01*
X259475Y115461D01*
X261705D01*
Y117690D01*
D02*
G37*
G36*
X239934Y114657D02*
X237705D01*
Y112428D01*
X237928Y112457D01*
X238602Y112736D01*
X239181Y113181D01*
X239626Y113760D01*
X239905Y114434D01*
X239934Y114657D01*
D02*
G37*
G36*
X236705D02*
X234475D01*
X234504Y114434D01*
X234784Y113760D01*
X235228Y113181D01*
X235807Y112736D01*
X236481Y112457D01*
X236705Y112428D01*
Y114657D01*
D02*
G37*
G36*
X264934Y114461D02*
X262705D01*
Y112231D01*
X262928Y112260D01*
X263603Y112540D01*
X264182Y112984D01*
X264626Y113563D01*
X264905Y114237D01*
X264934Y114461D01*
D02*
G37*
G36*
X261705D02*
X259475D01*
X259505Y114237D01*
X259784Y113563D01*
X260228Y112984D01*
X260807Y112540D01*
X261481Y112260D01*
X261705Y112231D01*
Y114461D01*
D02*
G37*
G36*
X262705Y111096D02*
Y108866D01*
X264934D01*
X264905Y109090D01*
X264626Y109764D01*
X264182Y110343D01*
X263603Y110787D01*
X262928Y111066D01*
X262705Y111096D01*
D02*
G37*
G36*
X261705D02*
X261481Y111066D01*
X260807Y110787D01*
X260228Y110343D01*
X259784Y109764D01*
X259505Y109090D01*
X259475Y108866D01*
X261705D01*
Y111096D01*
D02*
G37*
G36*
X237705D02*
Y108866D01*
X239934D01*
X239905Y109090D01*
X239626Y109764D01*
X239181Y110343D01*
X238602Y110787D01*
X237928Y111066D01*
X237705Y111096D01*
D02*
G37*
G36*
X236705D02*
X236481Y111066D01*
X235807Y110787D01*
X235228Y110343D01*
X234784Y109764D01*
X234504Y109090D01*
X234475Y108866D01*
X236705D01*
Y111096D01*
D02*
G37*
G36*
X178400Y107524D02*
Y105900D01*
X180024D01*
X179955Y106251D01*
X179472Y106973D01*
X178751Y107455D01*
X178400Y107524D01*
D02*
G37*
G36*
X177400D02*
X177049Y107455D01*
X176328Y106973D01*
X175846Y106251D01*
X175776Y105900D01*
X177400D01*
Y107524D01*
D02*
G37*
G36*
X264934Y107866D02*
X262705D01*
Y105636D01*
X262928Y105666D01*
X263603Y105945D01*
X264182Y106389D01*
X264626Y106968D01*
X264905Y107643D01*
X264934Y107866D01*
D02*
G37*
G36*
X261705D02*
X259475D01*
X259505Y107643D01*
X259784Y106968D01*
X260228Y106389D01*
X260807Y105945D01*
X261481Y105666D01*
X261705Y105636D01*
Y107866D01*
D02*
G37*
G36*
X239934D02*
X237705D01*
Y105636D01*
X237928Y105666D01*
X238602Y105945D01*
X239181Y106389D01*
X239626Y106968D01*
X239905Y107643D01*
X239934Y107866D01*
D02*
G37*
G36*
X236705D02*
X234475D01*
X234504Y107643D01*
X234784Y106968D01*
X235228Y106389D01*
X235807Y105945D01*
X236481Y105666D01*
X236705Y105636D01*
Y107866D01*
D02*
G37*
G36*
X180024Y104900D02*
X178400D01*
Y103276D01*
X178751Y103346D01*
X179472Y103828D01*
X179955Y104549D01*
X180024Y104900D01*
D02*
G37*
G36*
X177400D02*
X175776D01*
X175846Y104549D01*
X176328Y103828D01*
X177049Y103346D01*
X177400Y103276D01*
Y104900D01*
D02*
G37*
G36*
X260861Y175318D02*
X260035Y175209D01*
X259265Y174890D01*
X258604Y174383D01*
X258097Y173722D01*
X257778Y172951D01*
X257669Y172125D01*
X257778Y171299D01*
X258097Y170529D01*
X258604Y169868D01*
X259265Y169360D01*
X259750Y169159D01*
X268833Y160076D01*
Y134646D01*
X232512Y98325D01*
X184700D01*
X183734Y98133D01*
X182915Y97585D01*
X182367Y96766D01*
X182175Y95800D01*
X182367Y94834D01*
X182915Y94015D01*
X183734Y93467D01*
X184700Y93275D01*
X233558D01*
X234524Y93467D01*
X235344Y94015D01*
X272404Y131075D01*
X292600D01*
X293566Y131267D01*
X294385Y131815D01*
X294933Y132634D01*
X295125Y133600D01*
X294933Y134566D01*
X294385Y135385D01*
X293566Y135933D01*
X292600Y136125D01*
X273883D01*
Y161122D01*
X273691Y162088D01*
X273144Y162907D01*
X264039Y172012D01*
X264054Y172125D01*
X263945Y172951D01*
X263626Y173722D01*
X263119Y174383D01*
X262458Y174890D01*
X261688Y175209D01*
X260861Y175318D01*
D02*
G37*
G36*
X385987Y90988D02*
Y82225D01*
X394751D01*
X394621Y83542D01*
X394091Y85289D01*
X393231Y86899D01*
X392072Y88310D01*
X390661Y89468D01*
X389051Y90329D01*
X387304Y90859D01*
X385987Y90988D01*
D02*
G37*
G36*
X384987D02*
X383671Y90859D01*
X381924Y90329D01*
X380314Y89468D01*
X378902Y88310D01*
X377744Y86899D01*
X376884Y85289D01*
X376354Y83542D01*
X376224Y82225D01*
X384987D01*
Y90988D01*
D02*
G37*
G36*
X82300Y90963D02*
Y82200D01*
X91063D01*
X90934Y83517D01*
X90404Y85264D01*
X89543Y86874D01*
X88385Y88285D01*
X86974Y89443D01*
X85364Y90304D01*
X83617Y90834D01*
X82300Y90963D01*
D02*
G37*
G36*
X81300D02*
X79983Y90834D01*
X78236Y90304D01*
X76626Y89443D01*
X75215Y88285D01*
X74057Y86874D01*
X73196Y85264D01*
X72666Y83517D01*
X72537Y82200D01*
X81300D01*
Y90963D01*
D02*
G37*
G36*
X394751Y81225D02*
X385987D01*
Y72462D01*
X387304Y72592D01*
X389051Y73122D01*
X390661Y73982D01*
X392072Y75140D01*
X393231Y76551D01*
X394091Y78162D01*
X394621Y79908D01*
X394751Y81225D01*
D02*
G37*
G36*
X384987D02*
X376224D01*
X376354Y79908D01*
X376884Y78162D01*
X377744Y76551D01*
X378902Y75140D01*
X380314Y73982D01*
X381924Y73122D01*
X383671Y72592D01*
X384987Y72462D01*
Y81225D01*
D02*
G37*
G36*
X91063Y81200D02*
X82300D01*
Y72437D01*
X83617Y72566D01*
X85364Y73096D01*
X86974Y73957D01*
X88385Y75115D01*
X89543Y76526D01*
X90404Y78136D01*
X90934Y79883D01*
X91063Y81200D01*
D02*
G37*
G36*
X81300D02*
X72537D01*
X72666Y79883D01*
X73196Y78136D01*
X74057Y76526D01*
X75215Y75115D01*
X76626Y73957D01*
X78236Y73096D01*
X79983Y72566D01*
X81300Y72437D01*
Y81200D01*
D02*
G37*
%LPD*%
D27*
X114300Y321900D02*
D03*
X124300D02*
D03*
X134300D02*
D03*
D45*
X233558Y95800D02*
X271358Y133600D01*
X184700Y95800D02*
X233558D01*
X271358Y133600D02*
Y161122D01*
Y133563D02*
Y133600D01*
X292600D01*
X261180Y171300D02*
X271358Y161122D01*
X290600Y160900D02*
X299716Y151784D01*
X186713Y136811D02*
X186909Y137008D01*
X186909Y126378D02*
X199508D01*
X186909Y137008D02*
X198819D01*
X186614Y148622D02*
X186909Y148917D01*
X198130D01*
X256796Y156004D02*
X264900Y147900D01*
X225396Y156004D02*
X256796D01*
X218400Y163000D02*
X225396Y156004D01*
X369488Y208071D02*
X369882Y207677D01*
X381594D01*
X369587Y213287D02*
X369685Y213189D01*
X388583D01*
X272191Y190400D02*
X289800D01*
X264272Y182480D02*
X272191Y190400D01*
X261380Y182480D02*
X264272D01*
X184800Y163000D02*
X218400D01*
X286500Y152500D02*
X292600Y146400D01*
D47*
X167900Y295600D02*
X168100Y295800D01*
X162800Y281600D02*
X163100Y281300D01*
X162800Y295300D02*
X163300Y295800D01*
X173100Y302100D02*
X180000D01*
X172800D02*
X173100D01*
X190100Y268200D02*
Y296000D01*
X179200Y306900D02*
X190100Y296000D01*
X159300Y306900D02*
X179200D01*
X190100Y268200D02*
X228300Y230000D01*
X162800Y281600D02*
Y295300D01*
X123600Y203600D02*
X148000D01*
X122100Y205100D02*
X123600Y203600D01*
X119600Y205100D02*
X122100D01*
X187100Y266200D02*
Y295000D01*
X180000Y302100D02*
X187100Y295000D01*
X172900Y295600D02*
X173100Y295800D01*
X172900Y281100D02*
Y295600D01*
X167900Y281100D02*
Y295600D01*
X179100Y269200D02*
Y295800D01*
Y269200D02*
X228300Y220000D01*
X259300Y230300D02*
X287800D01*
X288100Y230000D01*
X259300Y220300D02*
X287800D01*
X288100Y220000D01*
X259300Y225300D02*
X287800D01*
X288100Y225000D01*
X187100Y266200D02*
X228300Y225000D01*
X162900Y217200D02*
Y264100D01*
Y150600D02*
Y181600D01*
X167900Y217200D02*
Y264100D01*
Y150600D02*
Y181600D01*
X172900Y217200D02*
Y264100D01*
Y150600D02*
Y181600D01*
X162900Y281100D02*
X163100Y281300D01*
X120200Y200500D02*
X151000D01*
X119200Y201500D02*
X120200Y200500D01*
X151000D02*
X152900Y202400D01*
X119200Y197800D02*
X158000D01*
D50*
X290600Y160900D02*
Y161100D01*
X76350Y140200D02*
X90400D01*
X94950Y135650D01*
X118100Y178300D02*
X125200D01*
X117600D02*
X118100D01*
X122500Y182600D02*
X126000Y186100D01*
X118100Y182600D02*
X122500D01*
X126000Y186100D02*
X129100D01*
X125200Y178300D02*
X129100Y182200D01*
X91700Y235900D02*
X101300D01*
X91500D02*
X91700D01*
X87200Y146800D02*
X87900Y147500D01*
X78200Y146800D02*
X87200D01*
X77400Y147600D02*
X78200Y146800D01*
X86300Y158200D02*
Y158900D01*
X292600Y133400D02*
Y133600D01*
X101600Y244700D02*
X102100Y245200D01*
X91900Y244700D02*
X101600D01*
X343500Y270000D02*
X343700Y270200D01*
X329200Y298300D02*
X339300D01*
X293100Y270600D02*
Y280600D01*
X211400Y269700D02*
X211500Y269800D01*
Y279100D01*
X207100Y292500D02*
X212300Y287300D01*
X214800Y291400D02*
Y292500D01*
Y291400D02*
X226700Y279500D01*
Y269700D02*
Y279500D01*
X234700Y292500D02*
X241800D01*
X231100Y269900D02*
Y282800D01*
X227100Y286800D02*
X231100Y282800D01*
X227100Y286800D02*
Y292200D01*
X234500Y288200D02*
X236200Y286500D01*
Y269900D02*
Y286500D01*
X241800Y292500D02*
X242600Y291700D01*
X238700Y301100D02*
X243300D01*
X244200Y300200D01*
X230950Y300750D02*
Y307450D01*
Y300750D02*
X232800Y298900D01*
X347400Y270000D02*
Y288500D01*
X341500Y294400D02*
X347400Y288500D01*
X321100Y294400D02*
X341500D01*
X312900Y302600D02*
X321100Y294400D01*
X276100Y302600D02*
X312900D01*
X270400Y308300D02*
X276100Y302600D01*
X339700Y282200D02*
X340000Y282500D01*
X339700Y270000D02*
Y282200D01*
X377200Y283100D02*
X390500Y269800D01*
X366200Y283100D02*
X377200D01*
X390500Y262900D02*
Y269800D01*
X144800Y321900D02*
X144900Y322000D01*
X163300D01*
X212200Y287300D02*
X212300D01*
X320300Y230000D02*
X349000D01*
X320300Y220000D02*
X349000D01*
X320300Y225000D02*
X349000D01*
X96300Y214000D02*
Y221200D01*
X96700Y221600D01*
X101500Y240200D02*
X101800Y240500D01*
X91700Y240200D02*
X101500D01*
X101300Y235900D02*
X101400Y235800D01*
X96700Y221600D02*
X100700Y225600D01*
X220800Y269700D02*
Y278700D01*
X212200Y287300D02*
X220800Y278700D01*
X240200Y269900D02*
X240500Y269600D01*
X240200Y269900D02*
Y279500D01*
X274600Y262100D02*
Y279100D01*
X271700Y282000D02*
X274600Y279100D01*
X246900Y282000D02*
X271700D01*
X279400Y262500D02*
Y281200D01*
X275600Y285000D02*
X279400Y281200D01*
X249300Y285000D02*
X275600D01*
X242500Y286400D02*
X246900Y282000D01*
X242600Y291700D02*
X249300Y285000D01*
X276900Y289100D02*
X286300Y279700D01*
X250300Y289100D02*
X276900D01*
X286300Y241900D02*
Y279700D01*
X284400Y240000D02*
X286300Y241900D01*
X243100Y296300D02*
X250300Y289100D01*
X235400Y296300D02*
X243100D01*
X232800Y298900D02*
X235400Y296300D01*
X289700Y235100D02*
X289800Y235200D01*
Y282100D01*
X279300Y292600D02*
X289800Y282100D01*
X251800Y292600D02*
X279300D01*
X244200Y300200D02*
X251800Y292600D01*
X274600Y262100D02*
X274800Y261900D01*
X297600Y271200D02*
Y288400D01*
X290100Y295900D02*
X297600Y288400D01*
X267100Y295900D02*
X290100D01*
X301400Y270800D02*
X301600Y270600D01*
X301400Y270800D02*
Y290700D01*
X305800Y270600D02*
X305900Y270500D01*
X305800Y270600D02*
Y287700D01*
X343700Y270200D02*
Y287300D01*
X341700Y289300D02*
X343700Y287300D01*
X327700Y289300D02*
X341700D01*
X355350Y270100D02*
Y297150D01*
X351300Y270600D02*
Y297000D01*
X361500Y270000D02*
Y305300D01*
X353200Y313600D02*
X361500Y305300D01*
X335900Y266600D02*
X336400Y266100D01*
X335900Y266600D02*
Y282700D01*
X89800Y219600D02*
X91500Y221300D01*
X89800Y210000D02*
Y219600D01*
X86500Y158900D02*
Y170700D01*
Y158000D02*
Y158900D01*
Y158000D02*
X87400Y157100D01*
X86300Y158200D02*
X86500Y158000D01*
X91600Y158900D02*
Y159300D01*
X91700Y159400D01*
X129900Y136200D02*
X143000D01*
X91700Y159400D02*
Y166900D01*
X142900Y136100D02*
X143000Y136200D01*
D51*
X286400Y152500D02*
X286500D01*
X292600Y146400D02*
X292700D01*
D53*
X81800Y316325D02*
D03*
Y81700D02*
D03*
X385487Y81725D02*
D03*
Y316272D02*
D03*
D54*
X280861Y172125D02*
D03*
Y182125D02*
D03*
X270861D02*
D03*
Y172125D02*
D03*
X260861D02*
D03*
Y182125D02*
D03*
X250861D02*
D03*
Y172125D02*
D03*
X240861D02*
D03*
Y182125D02*
D03*
X230861D02*
D03*
Y172125D02*
D03*
X383200Y294500D02*
D03*
X373200D02*
D03*
D55*
X73600Y233900D02*
D03*
Y226000D02*
D03*
Y210200D02*
D03*
Y218100D02*
D03*
Y202300D02*
D03*
Y194400D02*
D03*
X73500Y178600D02*
D03*
Y186500D02*
D03*
X73600Y170700D02*
D03*
Y162800D02*
D03*
Y155100D02*
D03*
X81400D02*
D03*
Y162800D02*
D03*
Y170700D02*
D03*
X81300Y186500D02*
D03*
Y178600D02*
D03*
X81400Y194400D02*
D03*
Y202300D02*
D03*
Y218100D02*
D03*
Y210200D02*
D03*
Y226000D02*
D03*
Y233900D02*
D03*
X290000Y313700D02*
D03*
X282100D02*
D03*
X266300D02*
D03*
X274200D02*
D03*
X258400D02*
D03*
X250500D02*
D03*
X234700Y313800D02*
D03*
X242600D02*
D03*
X226800Y313700D02*
D03*
X218900D02*
D03*
X211200D02*
D03*
Y321500D02*
D03*
X218900D02*
D03*
X226800D02*
D03*
X242600Y321600D02*
D03*
X234700D02*
D03*
X250500Y321500D02*
D03*
X258400D02*
D03*
X274200D02*
D03*
X266300D02*
D03*
X282100D02*
D03*
X290000D02*
D03*
D56*
X237205Y108366D02*
D03*
X262205D02*
D03*
Y114961D02*
D03*
X237205Y115157D02*
D03*
D57*
X232087Y131939D02*
D03*
Y143110D02*
D03*
X199508Y126378D02*
D03*
X186417D02*
D03*
X198819Y137008D02*
D03*
X186713D02*
D03*
X198130Y148917D02*
D03*
X186614D02*
D03*
X373228Y189862D02*
D03*
Y181890D02*
D03*
X369488Y208071D02*
D03*
X381594Y207677D02*
D03*
X369587Y213287D02*
D03*
X388583Y213189D02*
D03*
X299606Y151673D02*
D03*
X289800Y190100D02*
D03*
X292600Y133600D02*
D03*
Y146400D02*
D03*
X76100Y140400D02*
D03*
X94950Y135650D02*
D03*
X207100Y194200D02*
D03*
X118100Y178300D02*
D03*
X129100Y186100D02*
D03*
Y182200D02*
D03*
X162900Y295800D02*
D03*
X159300Y306900D02*
D03*
X369000Y306700D02*
D03*
X264900Y147900D02*
D03*
X286400Y152500D02*
D03*
X290600Y161100D02*
D03*
X293100Y270700D02*
D03*
X207100Y292500D02*
D03*
X234700D02*
D03*
X214800D02*
D03*
X227100D02*
D03*
X234500Y288200D02*
D03*
X238700Y301100D02*
D03*
X230950Y307450D02*
D03*
X329200Y298300D02*
D03*
X173100Y302100D02*
D03*
X179100Y295800D02*
D03*
X144800Y321900D02*
D03*
X163300Y322000D02*
D03*
X349000Y230000D02*
D03*
X320300D02*
D03*
X259300Y230300D02*
D03*
X288100Y230000D02*
D03*
X349000Y220000D02*
D03*
X320300D02*
D03*
X259300Y220300D02*
D03*
X288100Y220000D02*
D03*
X349000Y225000D02*
D03*
X320300D02*
D03*
X259300Y225300D02*
D03*
X288100Y225000D02*
D03*
X228300Y230000D02*
D03*
Y220000D02*
D03*
Y225000D02*
D03*
X162900Y264100D02*
D03*
Y217200D02*
D03*
Y181600D02*
D03*
Y150600D02*
D03*
X167900Y264100D02*
D03*
Y217200D02*
D03*
Y181600D02*
D03*
Y150600D02*
D03*
X172900Y264100D02*
D03*
Y217200D02*
D03*
Y181600D02*
D03*
Y150600D02*
D03*
X168000Y295800D02*
D03*
X173100D02*
D03*
X172900Y281100D02*
D03*
X162900D02*
D03*
X167900D02*
D03*
X177300Y230300D02*
D03*
X184700Y95800D02*
D03*
X177900Y105400D02*
D03*
Y173700D02*
D03*
Y237300D02*
D03*
X211700Y215000D02*
D03*
X274800D02*
D03*
X336400D02*
D03*
X184800Y163000D02*
D03*
X119200Y205100D02*
D03*
Y201500D02*
D03*
X148000Y203600D02*
D03*
X96300Y214000D02*
D03*
X101800Y245200D02*
D03*
X91700Y244700D02*
D03*
X101800Y240500D02*
D03*
X91700Y240200D02*
D03*
X101800Y235800D02*
D03*
X91700Y235900D02*
D03*
X100700Y225600D02*
D03*
X220800Y269700D02*
D03*
X211400D02*
D03*
X211500Y279100D02*
D03*
X226700Y269700D02*
D03*
X231100D02*
D03*
X236200D02*
D03*
X240200Y279500D02*
D03*
X240500Y269700D02*
D03*
X242500Y286400D02*
D03*
X284400Y240000D02*
D03*
X289700Y235100D02*
D03*
X279400Y262500D02*
D03*
X274600Y262100D02*
D03*
X293100Y280600D02*
D03*
X297300Y270600D02*
D03*
X267100Y295900D02*
D03*
X301600Y270600D02*
D03*
X301400Y290700D02*
D03*
X305900Y270600D02*
D03*
X305800Y287700D02*
D03*
X339700Y270000D02*
D03*
X340000Y282500D02*
D03*
X339300Y298500D02*
D03*
X343500Y270000D02*
D03*
X327700Y289300D02*
D03*
X347400Y270000D02*
D03*
X351300D02*
D03*
X270400Y308300D02*
D03*
X355500Y270000D02*
D03*
X355350Y297150D02*
D03*
X351300Y297000D02*
D03*
X361500Y270000D02*
D03*
X353200Y313600D02*
D03*
X390500Y262900D02*
D03*
X366200Y283100D02*
D03*
X336400Y266100D02*
D03*
X335900Y282700D02*
D03*
X384349Y263749D02*
D03*
X322649Y265249D02*
D03*
X259649Y264049D02*
D03*
X127051Y286351D02*
D03*
X127151Y221251D02*
D03*
X126800Y152400D02*
D03*
X91500Y221300D02*
D03*
X89800Y210000D02*
D03*
X158000Y197800D02*
D03*
X119200D02*
D03*
X118100Y182600D02*
D03*
X86500Y158900D02*
D03*
X91600D02*
D03*
X129900Y136200D02*
D03*
X86500Y170700D02*
D03*
X91700Y166900D02*
D03*
X87900Y147500D02*
D03*
X77400Y147600D02*
D03*
X152900Y202400D02*
D03*
X143000Y136200D02*
D03*
D58*
X177300Y224300D02*
X207300Y194300D01*
X177300Y224300D02*
Y229900D01*
M02*
