M48
;Layer_Color=37055
;FILE_FORMAT=2:5
INCH,LZ
;TYPE=PLATED
T1F00S00C0.01500
T2F00S00C0.03150
T3F00S00C0.04016
T4F00S00C0.04016
T5F00S00C0.05118
T6F00S00C0.15748
%
T01
X01535Y01295
X01433Y01463
X01435Y01498
X0142912Y0154363
X01612Y01541
X0166Y01495
X0171Y01465
X01709Y01327
X0186Y01329
X0192772Y0137772
X0209Y01511
X02247Y01292
X0315Y0205
Y021
Y0215
X03188Y02277
X03185Y02355
X03359Y02323
X03394Y02299
X0343Y02305
X03405Y02465
X0341Y02515
X0346Y0215
Y02095
Y0205
X0330546Y0200183
X0359Y02244
X03312Y02925
X0288Y02795
X028Y02765
X0276Y02525
X02735Y02475
X02685
X0258854Y0248354
X0248Y02495
X0251Y02565
X0263
X02535Y0267411
X02375Y02665
X0229
Y02515
X0237311Y0252
X0239Y0235
X0237Y023
X02295Y02275
X02325Y0218
X0237Y0215
X02395Y022
Y0205
X023
X0222Y0201
X0219Y0209
X02185Y02225
X0202Y02165
X0186
X0182Y0211
X0177
X0172
Y01975
X0177Y0197
X0182
X0191772Y0183772
X0201Y0177
X02035Y0201
X0202Y02465
X0194Y0246
X01895
X0217854Y0252146
X02295Y024
X0253Y0225
X02645Y02275
X02665Y022
Y0215
Y021005
X02663Y0205
X0284972Y0200528
X03Y0205
X03Y021
Y0215
Y022
X02985Y02305
X02935Y02255
X028Y0225
X02797Y02199
X02785Y02375
X028Y0242
X02885Y025
X0293Y02505
X0301Y024
X01905Y0281
X0159Y0274
X01765Y0166
X0181Y01655
X0186
X0145Y016
X0143129Y0177871
X0133Y01758
Y019
X01293Y02003
X01255Y0205
X01295Y0209
X01331Y02131
X0136765Y02175
X0136516Y0225
X0137Y0228
X013
Y0225
X012Y02225
X01215Y0218
X01217Y02437
X013Y02525
X0148
X0145923Y0257423
X0145846Y0262346
X0146Y02675
X0151Y02465
X015Y0232
X0147Y02255
X01435
X01535Y02185
Y0215
X0141146Y0205646
X0143Y0201
X01535Y0189
T02
X01215Y01343
Y0142
X01293
Y01343
Y01499
X01215
X0217854Y0263757
X0225554
Y0271557
X0217854
X0233454
Y0263757
X0241354Y0263857
Y0271657
X0249254
Y0263857
X0257154Y0263757
Y0271557
X0265054
Y0263757
X0272954
Y0271557
X0280854
Y0263757
X0288754
Y0271557
X0296654
Y0263757
X01293Y02131
X01215
Y02052
X01293
Y01973
X01215
Y01894
X01293
Y01815
X01215
Y01736
X01293
X01292Y01657
X01214
Y01578
X01292
T03
X0158Y02895
X0148
X0138
T04
X0232198Y0146301
X0242198
X0252198
X0262198
X0272198
X0282198
X03451Y02657
X03551
X0282198Y0156301
X0272198
X0262198
X0252198
X0242198
X0232198
T05
X0172Y02635
X01858
X01996
T06
X01145Y01126
X03552Y01124
X03551Y0285
X01144
M30
