G04 Layer_Physical_Order=1*
G04 Layer_Color=255*
%FSLAX25Y25*%
%MOIN*%
G70*
G01*
G75*
%ADD10R,0.08100X0.03000*%
%ADD11R,0.03543X0.02756*%
%ADD12R,0.02756X0.03543*%
%ADD13C,0.01000*%
%ADD14C,0.00394*%
%ADD15C,0.02362*%
D10*
X133500Y138500D02*
D03*
Y133500D02*
D03*
Y128500D02*
D03*
Y123500D02*
D03*
X119500D02*
D03*
Y128500D02*
D03*
Y133500D02*
D03*
Y138500D02*
D03*
Y143500D02*
D03*
X133500D02*
D03*
D11*
X146063Y104921D02*
D03*
Y110827D02*
D03*
D12*
X121063Y161417D02*
D03*
X115157D02*
D03*
X134843Y161417D02*
D03*
X140748D02*
D03*
D13*
X110276Y159095D02*
X112598Y161417D01*
X110276Y155039D02*
Y159095D01*
X112598Y161417D02*
X115157D01*
X107480Y160197D02*
X112244Y164961D01*
X107480Y149020D02*
Y160197D01*
Y149020D02*
X113000Y143500D01*
X105118Y143701D02*
X106299Y144882D01*
X105118Y133071D02*
Y143701D01*
Y133071D02*
X109449Y128740D01*
X143110Y161417D02*
X145866Y158661D01*
X140748Y161417D02*
X143110D01*
X112244Y164961D02*
X145669D01*
X148819Y161811D01*
Y150000D02*
Y161811D01*
X143858Y145039D02*
X148819Y150000D01*
X140945Y145039D02*
X143858D01*
X134843Y161417D02*
X134843Y161417D01*
X124409Y161417D02*
X134843D01*
X121063D02*
X124409D01*
X146063Y110827D02*
Y135437D01*
X143000Y138500D02*
X146063Y135437D01*
X133500Y138500D02*
X143000D01*
X141083Y105768D02*
Y129783D01*
Y105768D02*
X142126Y104724D01*
X140516Y133500D02*
X140551Y133465D01*
X133500Y133500D02*
X140516D01*
X145866Y104724D02*
X146063Y104921D01*
X142126Y104724D02*
X145866D01*
X130709Y123500D02*
X133500D01*
X126748Y119539D02*
X130709Y123500D01*
X104724Y119539D02*
X126748D01*
X130315Y127559D02*
X131496Y128740D01*
X126378Y127559D02*
X130315D01*
X110669Y123500D02*
X119500D01*
X109055Y134646D02*
Y135039D01*
X112516Y138500D01*
X119500D01*
X109449Y128740D02*
X119839D01*
X113000Y143500D02*
X120280D01*
X137402Y155118D02*
X142913D01*
X134252Y151969D02*
X137402Y155118D01*
X134252Y143701D02*
Y151969D01*
X119500Y133500D02*
Y138500D01*
D14*
X100000Y100000D02*
X150787D01*
Y165748D01*
X100000D02*
X150787D01*
X100000Y100000D02*
Y165748D01*
D15*
X110276Y155039D02*
D03*
X106299Y144882D02*
D03*
X145866Y158661D02*
D03*
X140945Y145039D02*
D03*
X124409Y161417D02*
D03*
X141083Y129783D02*
D03*
X140551Y133465D02*
D03*
X104724Y119539D02*
D03*
X126378Y127559D02*
D03*
X110669Y123500D02*
D03*
X109055Y134646D02*
D03*
X142913Y155118D02*
D03*
M02*
