G04*
G04 #@! TF.GenerationSoftware,Altium Limited,Altium Designer,18.1.11 (251)*
G04*
G04 Layer_Color=65535*
%FSLAX25Y25*%
%MOIN*%
G70*
G01*
G75*
%ADD10C,0.00984*%
%ADD11C,0.00787*%
%ADD12C,0.00394*%
%ADD13C,0.01181*%
%ADD14C,0.00591*%
G36*
X61568Y4985D02*
X61022D01*
X60301Y8764D01*
X60787D01*
X61224Y6509D01*
Y6503D01*
X61229Y6481D01*
X61235Y6449D01*
X61240Y6405D01*
X61251Y6356D01*
X61262Y6296D01*
X61273Y6230D01*
X61289Y6154D01*
X61311Y6001D01*
X61339Y5832D01*
X61360Y5673D01*
X61371Y5591D01*
X61382Y5520D01*
X61388Y5526D01*
X61393Y5542D01*
X61404Y5564D01*
X61421Y5602D01*
X61442Y5641D01*
X61464Y5690D01*
X61524Y5799D01*
X61584Y5919D01*
X61650Y6045D01*
X61715Y6170D01*
X61775Y6285D01*
X63118Y8764D01*
X63643D01*
X61568Y4985D01*
D02*
G37*
G36*
X59793Y8338D02*
X57549D01*
X57304Y7153D01*
X59504D01*
X59411Y6727D01*
X57211D01*
X56938Y5411D01*
X59335D01*
X59242Y4985D01*
X56348D01*
X57140Y8764D01*
X59886D01*
X59793Y8338D01*
D02*
G37*
G36*
X55103Y8758D02*
X55207Y8753D01*
X55322Y8742D01*
X55436Y8731D01*
X55551Y8709D01*
X55649Y8682D01*
X55655D01*
X55660Y8676D01*
X55687Y8665D01*
X55737Y8643D01*
X55791Y8616D01*
X55851Y8578D01*
X55917Y8523D01*
X55977Y8463D01*
X56031Y8387D01*
X56037Y8376D01*
X56053Y8349D01*
X56075Y8300D01*
X56102Y8240D01*
X56130Y8158D01*
X56152Y8065D01*
X56168Y7961D01*
X56173Y7841D01*
Y7835D01*
Y7819D01*
Y7797D01*
X56168Y7764D01*
X56163Y7726D01*
X56157Y7677D01*
X56135Y7573D01*
X56097Y7448D01*
X56042Y7322D01*
X56010Y7257D01*
X55971Y7191D01*
X55922Y7131D01*
X55868Y7071D01*
X55862Y7066D01*
X55851Y7060D01*
X55835Y7044D01*
X55813Y7022D01*
X55780Y7000D01*
X55737Y6973D01*
X55687Y6940D01*
X55633Y6913D01*
X55573Y6880D01*
X55496Y6847D01*
X55420Y6814D01*
X55333Y6782D01*
X55234Y6754D01*
X55130Y6727D01*
X55016Y6700D01*
X54896Y6683D01*
X54907Y6678D01*
X54928Y6656D01*
X54967Y6629D01*
X55010Y6591D01*
X55065Y6541D01*
X55114Y6492D01*
X55163Y6438D01*
X55207Y6383D01*
X55212Y6378D01*
X55218Y6367D01*
X55229Y6350D01*
X55245Y6323D01*
X55267Y6296D01*
X55289Y6257D01*
X55344Y6170D01*
X55404Y6066D01*
X55464Y5952D01*
X55529Y5826D01*
X55584Y5695D01*
X55873Y4985D01*
X55311D01*
X55038Y5690D01*
Y5695D01*
X55032Y5706D01*
X55021Y5728D01*
X55010Y5755D01*
X55000Y5788D01*
X54983Y5826D01*
X54939Y5914D01*
X54890Y6017D01*
X54836Y6126D01*
X54770Y6236D01*
X54705Y6345D01*
X54699Y6356D01*
X54683Y6378D01*
X54655Y6410D01*
X54623Y6449D01*
X54584Y6492D01*
X54541Y6531D01*
X54492Y6569D01*
X54443Y6596D01*
X54437Y6601D01*
X54415Y6607D01*
X54382Y6618D01*
X54339Y6629D01*
X54279Y6640D01*
X54202Y6651D01*
X54110Y6662D01*
X53416D01*
X53061Y4985D01*
X52564D01*
X53356Y8764D01*
X55054D01*
X55103Y8758D01*
D02*
G37*
G36*
X47252Y5411D02*
X49206D01*
X49114Y4985D01*
X46662D01*
X47454Y8764D01*
X47951D01*
X47252Y5411D01*
D02*
G37*
G36*
X45772Y4985D02*
X45275D01*
X46067Y8764D01*
X46564D01*
X45772Y4985D01*
D02*
G37*
G36*
X44702D02*
X44210D01*
X44036Y6072D01*
X42502D01*
X41895Y4985D01*
X41339D01*
X43479Y8764D01*
X44080D01*
X44702Y4985D01*
D02*
G37*
G36*
X65210Y8775D02*
X65248Y8769D01*
X65292Y8764D01*
X65390Y8742D01*
X65504Y8698D01*
X65565Y8676D01*
X65625Y8643D01*
X65685Y8605D01*
X65745Y8562D01*
X65805Y8512D01*
X65859Y8452D01*
X65865Y8447D01*
X65870Y8436D01*
X65887Y8420D01*
X65903Y8392D01*
X65930Y8360D01*
X65952Y8321D01*
X65980Y8272D01*
X66007Y8218D01*
X66034Y8152D01*
X66062Y8087D01*
X66089Y8010D01*
X66111Y7923D01*
X66127Y7835D01*
X66143Y7737D01*
X66149Y7633D01*
X66154Y7524D01*
Y7519D01*
Y7497D01*
Y7464D01*
X66149Y7415D01*
Y7360D01*
X66143Y7295D01*
X66138Y7219D01*
X66127Y7137D01*
X66116Y7044D01*
X66105Y6945D01*
X66067Y6738D01*
X66018Y6514D01*
X65952Y6285D01*
Y6279D01*
X65941Y6252D01*
X65925Y6214D01*
X65909Y6165D01*
X65881Y6105D01*
X65854Y6034D01*
X65821Y5957D01*
X65777Y5875D01*
X65685Y5701D01*
X65570Y5520D01*
X65439Y5346D01*
X65368Y5264D01*
X65292Y5193D01*
X65286Y5187D01*
X65275Y5182D01*
X65259Y5165D01*
X65232Y5149D01*
X65204Y5127D01*
X65166Y5105D01*
X65122Y5084D01*
X65079Y5056D01*
X64964Y5007D01*
X64838Y4964D01*
X64702Y4931D01*
X64626Y4925D01*
X64549Y4920D01*
X64505D01*
X64478Y4925D01*
X64440Y4931D01*
X64402Y4936D01*
X64298Y4964D01*
X64189Y5002D01*
X64129Y5029D01*
X64063Y5062D01*
X64003Y5100D01*
X63943Y5144D01*
X63883Y5193D01*
X63828Y5253D01*
X63823Y5258D01*
X63817Y5269D01*
X63801Y5286D01*
X63785Y5313D01*
X63763Y5351D01*
X63736Y5389D01*
X63708Y5444D01*
X63686Y5499D01*
X63659Y5564D01*
X63632Y5635D01*
X63604Y5717D01*
X63583Y5799D01*
X63566Y5897D01*
X63550Y5995D01*
X63544Y6105D01*
X63539Y6219D01*
Y6225D01*
Y6241D01*
Y6268D01*
Y6301D01*
X63544Y6345D01*
Y6400D01*
X63550Y6454D01*
X63555Y6520D01*
X63566Y6591D01*
X63572Y6667D01*
X63599Y6836D01*
X63632Y7011D01*
X63681Y7197D01*
Y7202D01*
X63686Y7219D01*
X63697Y7246D01*
X63708Y7278D01*
X63719Y7322D01*
X63736Y7371D01*
X63752Y7426D01*
X63774Y7480D01*
X63823Y7606D01*
X63872Y7743D01*
X63932Y7868D01*
X63998Y7988D01*
Y7994D01*
X64003Y7999D01*
X64014Y8016D01*
X64030Y8038D01*
X64063Y8092D01*
X64107Y8158D01*
X64161Y8234D01*
X64221Y8310D01*
X64287Y8381D01*
X64358Y8452D01*
X64369Y8458D01*
X64391Y8480D01*
X64429Y8512D01*
X64478Y8545D01*
X64533Y8589D01*
X64593Y8627D01*
X64664Y8665D01*
X64729Y8698D01*
X64740Y8704D01*
X64762Y8709D01*
X64800Y8725D01*
X64849Y8742D01*
X64909Y8753D01*
X64980Y8769D01*
X65057Y8775D01*
X65139Y8780D01*
X65182D01*
X65210Y8775D01*
D02*
G37*
G36*
X52117Y3937D02*
X49043D01*
Y4270D01*
X52117D01*
Y3937D01*
D02*
G37*
%LPC*%
G36*
X55103Y8349D02*
X53765D01*
X53498Y7071D01*
X54464D01*
X54568Y7077D01*
X54765D01*
X54803Y7082D01*
X54847D01*
X54863Y7087D01*
X54885D01*
X54934Y7098D01*
X55000Y7109D01*
X55076Y7126D01*
X55152Y7147D01*
X55234Y7175D01*
X55305Y7208D01*
X55316Y7213D01*
X55338Y7224D01*
X55371Y7251D01*
X55409Y7278D01*
X55458Y7322D01*
X55502Y7366D01*
X55551Y7421D01*
X55589Y7480D01*
X55595Y7486D01*
X55606Y7508D01*
X55622Y7546D01*
X55644Y7590D01*
X55660Y7644D01*
X55677Y7704D01*
X55687Y7775D01*
X55693Y7846D01*
Y7852D01*
Y7874D01*
X55687Y7906D01*
X55682Y7945D01*
X55677Y7988D01*
X55660Y8038D01*
X55644Y8081D01*
X55616Y8130D01*
X55611Y8136D01*
X55600Y8152D01*
X55584Y8174D01*
X55562Y8201D01*
X55535Y8229D01*
X55502Y8256D01*
X55458Y8278D01*
X55414Y8300D01*
X55409D01*
X55393Y8305D01*
X55360Y8316D01*
X55316Y8327D01*
X55262Y8332D01*
X55191Y8343D01*
X55103Y8349D01*
D02*
G37*
G36*
X43714D02*
Y8343D01*
X43708Y8332D01*
X43703Y8316D01*
X43692Y8289D01*
X43676Y8261D01*
X43659Y8223D01*
X43643Y8179D01*
X43615Y8130D01*
X43566Y8016D01*
X43501Y7885D01*
X43424Y7737D01*
X43337Y7579D01*
X42720Y6459D01*
X43970D01*
X43823Y7410D01*
Y7415D01*
X43817Y7437D01*
Y7464D01*
X43806Y7502D01*
X43801Y7552D01*
X43796Y7606D01*
X43785Y7672D01*
X43779Y7737D01*
X43757Y7885D01*
X43741Y8043D01*
X43725Y8201D01*
X43714Y8349D01*
D02*
G37*
G36*
X65139Y8409D02*
X65106D01*
X65073Y8403D01*
X65024Y8398D01*
X64969Y8387D01*
X64915Y8365D01*
X64849Y8343D01*
X64789Y8310D01*
X64784Y8305D01*
X64762Y8294D01*
X64729Y8267D01*
X64691Y8234D01*
X64647Y8190D01*
X64593Y8136D01*
X64538Y8065D01*
X64483Y7983D01*
Y7977D01*
X64473Y7966D01*
X64462Y7950D01*
X64451Y7923D01*
X64429Y7885D01*
X64412Y7846D01*
X64385Y7797D01*
X64363Y7737D01*
X64336Y7672D01*
X64303Y7601D01*
X64276Y7519D01*
X64243Y7431D01*
X64216Y7333D01*
X64183Y7229D01*
X64151Y7120D01*
X64123Y7000D01*
Y6995D01*
X64118Y6978D01*
X64112Y6945D01*
X64101Y6907D01*
X64090Y6858D01*
X64079Y6803D01*
X64069Y6743D01*
X64058Y6678D01*
X64036Y6536D01*
X64014Y6389D01*
X63998Y6241D01*
X63992Y6105D01*
Y6099D01*
Y6088D01*
Y6072D01*
Y6045D01*
X63998Y5985D01*
X64008Y5908D01*
X64019Y5815D01*
X64041Y5728D01*
X64069Y5641D01*
X64107Y5559D01*
Y5553D01*
X64112Y5548D01*
X64134Y5515D01*
X64172Y5477D01*
X64227Y5428D01*
X64292Y5378D01*
X64369Y5335D01*
X64462Y5302D01*
X64516Y5297D01*
X64571Y5291D01*
X64582D01*
X64615Y5297D01*
X64669Y5302D01*
X64735Y5324D01*
X64811Y5351D01*
X64899Y5395D01*
X64980Y5455D01*
X65024Y5488D01*
X65068Y5531D01*
X65073Y5537D01*
X65084Y5548D01*
X65101Y5570D01*
X65122Y5597D01*
X65144Y5635D01*
X65177Y5679D01*
X65210Y5728D01*
X65248Y5788D01*
X65286Y5859D01*
X65324Y5935D01*
X65363Y6017D01*
X65406Y6110D01*
X65444Y6208D01*
X65483Y6312D01*
X65516Y6427D01*
X65548Y6547D01*
Y6552D01*
X65554Y6574D01*
X65565Y6612D01*
X65575Y6656D01*
X65586Y6716D01*
X65603Y6782D01*
X65614Y6853D01*
X65630Y6935D01*
X65663Y7104D01*
X65685Y7289D01*
X65707Y7470D01*
X65712Y7557D01*
Y7639D01*
Y7644D01*
Y7655D01*
Y7677D01*
Y7704D01*
X65707Y7737D01*
Y7775D01*
X65690Y7863D01*
X65674Y7961D01*
X65646Y8054D01*
X65608Y8147D01*
X65554Y8223D01*
X65548Y8229D01*
X65526Y8250D01*
X65488Y8283D01*
X65444Y8316D01*
X65384Y8349D01*
X65313Y8381D01*
X65232Y8403D01*
X65139Y8409D01*
D02*
G37*
%LPD*%
D10*
X94193Y60256D02*
G03*
X94193Y60256I-492J0D01*
G01*
X156512Y54921D02*
G03*
X156512Y54921I-492J0D01*
G01*
D11*
X150197Y32972D02*
X150984D01*
X150197Y37894D02*
X150984D01*
X87205Y82382D02*
Y98130D01*
X107677Y82382D02*
Y98130D01*
X101575Y34055D02*
X103150D01*
X101575D02*
Y60433D01*
X103150D01*
X148638Y56102D02*
X152575D01*
X148638Y67914D02*
X152575D01*
Y56102D02*
Y67914D01*
X148638Y56102D02*
Y67914D01*
X179331Y19882D02*
Y25787D01*
X166339Y19882D02*
Y25787D01*
X178150D01*
Y19882D02*
Y25787D01*
X166339Y19882D02*
X178150D01*
X75197Y38386D02*
Y91929D01*
X58661Y38386D02*
X75197D01*
X58661D02*
Y91929D01*
X75197D01*
X43658Y50461D02*
Y79461D01*
X-9842Y50461D02*
X43658D01*
X-9842D02*
Y79461D01*
X43658D01*
X212248Y50461D02*
X265748D01*
Y79461D01*
X212248D02*
X265748D01*
X212248Y50461D02*
Y79461D01*
X117126Y80216D02*
Y83760D01*
X123031Y80216D02*
Y83760D01*
X-29287Y0D02*
X0D01*
X-29287Y137795D02*
X0D01*
Y-18787D02*
Y-500D01*
X255906Y-18787D02*
Y984D01*
D12*
X-30500Y6000D02*
X-28500Y0D01*
X-26500Y6000D01*
X-28500Y137795D02*
X-26500Y131795D01*
X-30500D02*
X-28500Y137795D01*
Y0D02*
Y49616D01*
Y85392D02*
Y137795D01*
X0Y-18000D02*
X6000Y-16000D01*
X0Y-18000D02*
X6000Y-20000D01*
X249905D02*
X255906Y-18000D01*
X249905Y-16000D02*
X255906Y-18000D01*
X0D02*
X108671D01*
X144447D02*
X255906D01*
X-30106Y51009D02*
X-31105Y52009D01*
Y54008D01*
X-30106Y55008D01*
X-29106D01*
X-28106Y54008D01*
Y53009D01*
Y54008D01*
X-27107Y55008D01*
X-26107D01*
X-25107Y54008D01*
Y52009D01*
X-26107Y51009D01*
X-31105Y61006D02*
Y57007D01*
X-28106D01*
X-29106Y59007D01*
Y60006D01*
X-28106Y61006D01*
X-26107D01*
X-25107Y60006D01*
Y58007D01*
X-26107Y57007D01*
X-25107Y63005D02*
X-26107D01*
Y64005D01*
X-25107D01*
Y63005D01*
X-30106Y68004D02*
X-31105Y69003D01*
Y71003D01*
X-30106Y72003D01*
X-26107D01*
X-25107Y71003D01*
Y69003D01*
X-26107Y68004D01*
X-30106D01*
X-25107Y74002D02*
X-29106D01*
Y75002D01*
X-28106Y76001D01*
X-25107D01*
X-28106D01*
X-29106Y77001D01*
X-28106Y78000D01*
X-25107D01*
Y80000D02*
X-29106D01*
Y81000D01*
X-28106Y81999D01*
X-25107D01*
X-28106D01*
X-29106Y82999D01*
X-28106Y83999D01*
X-25107D01*
X114063Y-15395D02*
X112064Y-16394D01*
X110064Y-18394D01*
Y-20393D01*
X111064Y-21393D01*
X113063D01*
X114063Y-20393D01*
Y-19393D01*
X113063Y-18394D01*
X110064D01*
X120061Y-15395D02*
X116062D01*
Y-18394D01*
X118062Y-17394D01*
X119062D01*
X120061Y-18394D01*
Y-20393D01*
X119062Y-21393D01*
X117062D01*
X116062Y-20393D01*
X122061Y-21393D02*
Y-20393D01*
X123060D01*
Y-21393D01*
X122061D01*
X127059Y-16394D02*
X128059Y-15395D01*
X130058D01*
X131058Y-16394D01*
Y-20393D01*
X130058Y-21393D01*
X128059D01*
X127059Y-20393D01*
Y-16394D01*
X133057Y-21393D02*
Y-17394D01*
X134057D01*
X135056Y-18394D01*
Y-21393D01*
Y-18394D01*
X136056Y-17394D01*
X137056Y-18394D01*
Y-21393D01*
X139055D02*
Y-17394D01*
X140055D01*
X141054Y-18394D01*
Y-21393D01*
Y-18394D01*
X142054Y-17394D01*
X143054Y-18394D01*
Y-21393D01*
D13*
X40354Y125982D02*
Y118110D01*
Y122046D01*
X45602D01*
Y125982D01*
Y118110D01*
X48226Y125982D02*
X50850D01*
X49538D01*
Y118110D01*
X48226D01*
X50850D01*
X60033Y124670D02*
X58721Y125982D01*
X56097D01*
X54785Y124670D01*
Y119422D01*
X56097Y118110D01*
X58721D01*
X60033Y119422D01*
Y122046D01*
X57409D01*
X62657Y125982D02*
Y118110D01*
Y122046D01*
X67905D01*
Y125982D01*
Y118110D01*
X78400Y125982D02*
Y120734D01*
X81024Y118110D01*
X83648Y120734D01*
Y125982D01*
X90207D02*
X87583D01*
X86271Y124670D01*
Y119422D01*
X87583Y118110D01*
X90207D01*
X91519Y119422D01*
Y124670D01*
X90207Y125982D01*
X94143D02*
Y118110D01*
X99390D01*
X102014Y125982D02*
X107262D01*
X104638D01*
Y118110D01*
X109886D02*
Y123358D01*
X112510Y125982D01*
X115133Y123358D01*
Y118110D01*
Y122046D01*
X109886D01*
X123005Y124670D02*
X121693Y125982D01*
X119069D01*
X117757Y124670D01*
Y119422D01*
X119069Y118110D01*
X121693D01*
X123005Y119422D01*
Y122046D01*
X120381D01*
X130876Y125982D02*
X125629D01*
Y118110D01*
X130876D01*
X125629Y122046D02*
X128252D01*
D14*
X53151Y88254D02*
Y85630D01*
X55119D01*
Y86942D01*
Y85630D01*
X57087D01*
Y89566D02*
Y90878D01*
Y90222D01*
X53151D01*
X53807Y89566D01*
X150262Y43634D02*
X149606Y44290D01*
X148294D01*
X147638Y43634D01*
Y41010D01*
X148294Y40354D01*
X149606D01*
X150262Y41010D01*
X154197Y40354D02*
X151574D01*
X154197Y42978D01*
Y43634D01*
X153541Y44290D01*
X152229D01*
X151574Y43634D01*
X102362Y67869D02*
Y64589D01*
X103018Y63933D01*
X104330D01*
X104986Y64589D01*
Y67869D01*
X108922Y63933D02*
X106298D01*
X108922Y66557D01*
Y67213D01*
X108266Y67869D01*
X106954D01*
X106298Y67213D01*
X149130Y65353D02*
Y62073D01*
X149786Y61417D01*
X151098D01*
X151754Y62073D01*
Y65353D01*
X153066Y61417D02*
X154377D01*
X153721D01*
Y65353D01*
X153066Y64697D01*
X154232Y13937D02*
Y17873D01*
X156200D01*
X156856Y17217D01*
Y15905D01*
X156200Y15249D01*
X154232D01*
X155544D02*
X156856Y13937D01*
X160792Y17873D02*
X159480Y17217D01*
X158168Y15905D01*
Y14593D01*
X158824Y13937D01*
X160136D01*
X160792Y14593D01*
Y15249D01*
X160136Y15905D01*
X158168D01*
X180610Y75673D02*
Y79609D01*
X182578D01*
X183234Y78953D01*
Y77641D01*
X182578Y76985D01*
X180610D01*
X181922D02*
X183234Y75673D01*
X187170Y79609D02*
X184546D01*
Y77641D01*
X185858Y78297D01*
X186514D01*
X187170Y77641D01*
Y76329D01*
X186514Y75673D01*
X185202D01*
X184546Y76329D01*
X163386Y40354D02*
Y44290D01*
X165354D01*
X166010Y43634D01*
Y42322D01*
X165354Y41666D01*
X163386D01*
X164698D02*
X166010Y40354D01*
X169289D02*
Y44290D01*
X167322Y42322D01*
X169945D01*
X179134Y40256D02*
Y44192D01*
X181102D01*
X181758Y43536D01*
Y42224D01*
X181102Y41568D01*
X179134D01*
X180446D02*
X181758Y40256D01*
X183070Y43536D02*
X183726Y44192D01*
X185038D01*
X185693Y43536D01*
Y42880D01*
X185038Y42224D01*
X184381D01*
X185038D01*
X185693Y41568D01*
Y40912D01*
X185038Y40256D01*
X183726D01*
X183070Y40912D01*
X134843Y92520D02*
X130907D01*
Y94488D01*
X131563Y95144D01*
X132875D01*
X133531Y94488D01*
Y92520D01*
Y93832D02*
X134843Y95144D01*
Y99079D02*
Y96455D01*
X132219Y99079D01*
X131563D01*
X130907Y98423D01*
Y97111D01*
X131563Y96455D01*
X122047Y92555D02*
X118112D01*
Y94523D01*
X118767Y95179D01*
X120079D01*
X120735Y94523D01*
Y92555D01*
Y93867D02*
X122047Y95179D01*
Y96491D02*
Y97803D01*
Y97147D01*
X118112D01*
X118767Y96491D01*
X235038Y85629D02*
X233726D01*
X234382D01*
Y82349D01*
X233726Y81693D01*
X233070D01*
X232414Y82349D01*
X238974Y81693D02*
X236350D01*
X238974Y84317D01*
Y84973D01*
X238318Y85629D01*
X237006D01*
X236350Y84973D01*
X18372Y85629D02*
X17060D01*
X17716D01*
Y82349D01*
X17060Y81693D01*
X16404D01*
X15748Y82349D01*
X19684Y81693D02*
X20996D01*
X20340D01*
Y85629D01*
X19684Y84973D01*
X171915Y17873D02*
X169291D01*
Y15905D01*
X170603Y16561D01*
X171259D01*
X171915Y15905D01*
Y14593D01*
X171259Y13937D01*
X169947D01*
X169291Y14593D01*
X173227Y17873D02*
Y15249D01*
X174539Y13937D01*
X175851Y15249D01*
Y17873D01*
X81221Y90222D02*
X80565Y89566D01*
Y88254D01*
X81221Y87598D01*
X83845D01*
X84501Y88254D01*
Y89566D01*
X83845Y90222D01*
X84501Y91534D02*
Y92846D01*
Y92190D01*
X80565D01*
X81221Y91534D01*
M02*
