G04*
G04 #@! TF.GenerationSoftware,Altium Limited,Altium Designer,18.1.11 (251)*
G04*
G04 Layer_Color=32768*
%FSLAX25Y25*%
%MOIN*%
G70*
G01*
G75*
%ADD12C,0.00394*%
%ADD45C,0.00197*%
D12*
X150591Y33465D02*
Y37402D01*
X148622Y35433D02*
X152559D01*
X164862D02*
X168799D01*
X166831Y33465D02*
Y37402D01*
X182831Y33465D02*
Y37402D01*
X180862Y35433D02*
X184799D01*
X95472Y90256D02*
X99410D01*
X97441Y88287D02*
Y92224D01*
X111221Y45276D02*
Y49213D01*
X109252Y47244D02*
X113189D01*
X148638Y62008D02*
X152575D01*
X150606Y60039D02*
Y63977D01*
X157480Y20669D02*
Y24606D01*
X155512Y22638D02*
X159449D01*
X182087Y69961D02*
X186023D01*
X184055Y67992D02*
Y71929D01*
X130906Y84055D02*
X134843D01*
X132874Y82086D02*
Y86024D01*
X118110Y81988D02*
X122047D01*
X120079Y80019D02*
Y83956D01*
D45*
X143898Y31496D02*
X157283D01*
X143898Y39370D02*
X157283D01*
Y31496D02*
Y39370D01*
X143898Y31496D02*
Y39370D01*
X173524Y31693D02*
Y39173D01*
X160138Y31693D02*
Y39173D01*
Y31693D02*
X173524D01*
X160138Y39173D02*
X173524D01*
X176138D02*
X189524D01*
X176138Y31693D02*
X189524D01*
X176138D02*
Y39173D01*
X189524Y31693D02*
Y39173D01*
X85827Y75689D02*
Y104823D01*
X109055Y75689D02*
Y104823D01*
X85827Y75689D02*
X109055D01*
X85827Y104823D02*
X109055D01*
X88386Y32874D02*
X134055D01*
X88386Y61614D02*
X134055D01*
Y32874D02*
Y61614D01*
X88386Y32874D02*
Y61614D01*
X158874Y55118D02*
Y68898D01*
X142338Y55118D02*
Y68898D01*
Y55118D02*
X158874D01*
X142338Y68898D02*
X158874D01*
X151575Y25591D02*
X163386D01*
X151575Y19685D02*
X163386D01*
X151575D02*
Y25591D01*
X163386Y19685D02*
Y25591D01*
X190748Y66220D02*
Y73701D01*
X177362Y66220D02*
Y73701D01*
Y66220D02*
X190748D01*
X177362Y73701D02*
X190748D01*
X129134Y77362D02*
Y90748D01*
X136614Y77362D02*
Y90748D01*
X129134Y77362D02*
X136614D01*
X129134Y90748D02*
X136614D01*
X115748Y73327D02*
Y90649D01*
X124409Y73327D02*
Y90649D01*
X115748Y73327D02*
X124409D01*
X115748Y90649D02*
X124409D01*
M02*
