G04*
G04 #@! TF.GenerationSoftware,Altium Limited,Altium Designer,18.1.11 (251)*
G04*
G04 Layer_Physical_Order=1*
G04 Layer_Color=255*
%FSLAX25Y25*%
%MOIN*%
G70*
G01*
G75*
%ADD15R,0.04134X0.05709*%
%ADD16R,0.04331X0.05512*%
%ADD17R,0.21260X0.04134*%
%ADD18R,0.28347X0.26772*%
%ADD19R,0.08661X0.03740*%
%ADD20R,0.03937X0.02362*%
%ADD21R,0.04134X0.03937*%
%ADD22R,0.03150X0.03150*%
%ADD23R,0.15984X0.15000*%
%ADD24R,0.05512X0.04331*%
%ADD25R,0.06693X0.04331*%
%ADD40C,0.03543*%
%ADD41C,0.01968*%
%ADD42C,0.07087*%
%ADD43R,0.07087X0.07087*%
%ADD44C,0.16535*%
G36*
X244885Y133474D02*
X246705Y132720D01*
X248343Y131626D01*
X249736Y130233D01*
X250830Y128595D01*
X251584Y126775D01*
X251969Y124843D01*
Y123858D01*
Y13937D01*
Y12952D01*
X251584Y11020D01*
X250830Y9200D01*
X249736Y7562D01*
X248343Y6169D01*
X246705Y5075D01*
X244885Y4321D01*
X242953Y3937D01*
X12952D01*
X11020Y4321D01*
X9200Y5075D01*
X7562Y6169D01*
X6169Y7562D01*
X5075Y9200D01*
X4321Y11020D01*
X3937Y12952D01*
Y13937D01*
Y123858D01*
Y124843D01*
X4321Y126775D01*
X5075Y128595D01*
X6169Y130233D01*
X7562Y131626D01*
X9200Y132720D01*
X11020Y133474D01*
X12952Y133858D01*
X242953D01*
X244885Y133474D01*
D02*
G37*
%LPC*%
G36*
X240158Y131360D02*
X238341Y131181D01*
X236594Y130651D01*
X234984Y129790D01*
X233573Y128632D01*
X232414Y127221D01*
X231554Y125611D01*
X231024Y123864D01*
X230845Y122047D01*
X231024Y120230D01*
X231554Y118483D01*
X232414Y116874D01*
X233573Y115462D01*
X234984Y114304D01*
X236594Y113444D01*
X238341Y112914D01*
X240158Y112735D01*
X241974Y112914D01*
X243721Y113444D01*
X245331Y114304D01*
X246743Y115462D01*
X247901Y116874D01*
X248761Y118483D01*
X249291Y120230D01*
X249470Y122047D01*
X249291Y123864D01*
X248761Y125611D01*
X247901Y127221D01*
X246743Y128632D01*
X245331Y129790D01*
X243721Y130651D01*
X241974Y131181D01*
X240158Y131360D01*
D02*
G37*
G36*
X15748D02*
X13931Y131181D01*
X12184Y130651D01*
X10574Y129790D01*
X9163Y128632D01*
X8005Y127221D01*
X7144Y125611D01*
X6614Y123864D01*
X6436Y122047D01*
X6614Y120230D01*
X7144Y118483D01*
X8005Y116874D01*
X9163Y115462D01*
X10574Y114304D01*
X12184Y113444D01*
X13931Y112914D01*
X15748Y112735D01*
X17565Y112914D01*
X19312Y113444D01*
X20922Y114304D01*
X22333Y115462D01*
X23491Y116874D01*
X24352Y118483D01*
X24882Y120230D01*
X25061Y122047D01*
X24882Y123864D01*
X24352Y125611D01*
X23491Y127221D01*
X22333Y128632D01*
X20922Y129790D01*
X19312Y130651D01*
X17565Y131181D01*
X15748Y131360D01*
D02*
G37*
G36*
X109071Y104839D02*
X97941D01*
Y102272D01*
X109071D01*
Y104839D01*
D02*
G37*
G36*
X96941D02*
X85811D01*
Y102272D01*
X96941D01*
Y104839D01*
D02*
G37*
G36*
X109071Y101272D02*
X97941D01*
Y98705D01*
X109071D01*
Y101272D01*
D02*
G37*
G36*
X96941D02*
X85811D01*
Y98705D01*
X96941D01*
Y101272D01*
D02*
G37*
G36*
X136630Y80110D02*
X133374D01*
Y77445D01*
X136630D01*
Y80110D01*
D02*
G37*
G36*
X191634Y74685D02*
X176477D01*
Y69468D01*
X168254Y61246D01*
X159957D01*
Y61417D01*
X158988D01*
Y61508D01*
X156020D01*
X153051D01*
Y61417D01*
X152083D01*
Y55118D01*
X159957D01*
Y55289D01*
X169488D01*
X170259Y55391D01*
X170977Y55689D01*
X171594Y56162D01*
X180669Y65236D01*
X191634D01*
Y66982D01*
X213488D01*
X213689Y66720D01*
X214638Y65992D01*
X215743Y65534D01*
X216929Y65378D01*
X218115Y65534D01*
X219220Y65992D01*
X220169Y66720D01*
X220898Y67669D01*
X221356Y68775D01*
X221512Y69961D01*
X221356Y71147D01*
X220898Y72252D01*
X220169Y73201D01*
X219220Y73929D01*
X218115Y74387D01*
X216929Y74543D01*
X215743Y74387D01*
X214638Y73929D01*
X213689Y73201D01*
X213488Y72939D01*
X191634D01*
Y74685D01*
D02*
G37*
G36*
X79724Y103380D02*
X24606D01*
X23578Y103245D01*
X22621Y102848D01*
X21798Y102217D01*
X21167Y101395D01*
X20771Y100437D01*
X20635Y99410D01*
Y64961D01*
X20771Y63933D01*
X21167Y62975D01*
X21798Y62153D01*
X22621Y61522D01*
X23578Y61125D01*
X24606Y60990D01*
X34033D01*
X34446Y60583D01*
X34466Y60512D01*
X34460Y60461D01*
X38976D01*
X43493D01*
X43486Y60512D01*
X43507Y60583D01*
X43920Y60990D01*
X50163D01*
X50163Y33465D01*
X50298Y32437D01*
X50695Y31479D01*
X51326Y30657D01*
X52148Y30026D01*
X53106Y29629D01*
X54134Y29494D01*
X78740Y29494D01*
X79768Y29629D01*
X80726Y30026D01*
X81548Y30657D01*
X82179Y31479D01*
X82576Y32437D01*
X82711Y33465D01*
X82711Y46003D01*
X101378Y46003D01*
X102406Y46139D01*
X103232Y46481D01*
X103724Y46253D01*
Y32858D01*
X118398D01*
Y47244D01*
X118898D01*
Y47744D01*
X134071D01*
Y61630D01*
X129705D01*
X129478Y62122D01*
X129820Y62949D01*
X129955Y63976D01*
X129955Y77445D01*
X132374D01*
Y80610D01*
X132874D01*
Y81110D01*
X136630D01*
Y83366D01*
X137598D01*
Y84522D01*
X145912D01*
X153041Y77392D01*
Y68898D01*
X152083D01*
Y62599D01*
X153051D01*
Y62508D01*
X156020D01*
X158988D01*
Y62599D01*
X159957D01*
Y68898D01*
X158998D01*
Y78626D01*
X158998Y78626D01*
X158896Y79397D01*
X158599Y80115D01*
X158125Y80732D01*
X158125Y80732D01*
X149252Y89606D01*
X148635Y90079D01*
X147917Y90377D01*
X147146Y90478D01*
X137598D01*
Y91634D01*
X128150D01*
Y90478D01*
X125394D01*
Y91634D01*
X114764D01*
Y86648D01*
X83695D01*
Y99410D01*
X83560Y100437D01*
X83163Y101395D01*
X82532Y102217D01*
X81710Y102848D01*
X80752Y103245D01*
X79724Y103380D01*
D02*
G37*
G36*
X221472Y64504D02*
X217429D01*
Y60461D01*
X221472D01*
Y64504D01*
D02*
G37*
G36*
X216429D02*
X212386D01*
Y60461D01*
X216429D01*
Y64504D01*
D02*
G37*
G36*
X43493Y59461D02*
X39476D01*
Y55444D01*
X40162Y55534D01*
X41268Y55992D01*
X42217Y56720D01*
X42945Y57669D01*
X43403Y58775D01*
X43493Y59461D01*
D02*
G37*
G36*
X38476D02*
X34460D01*
X34550Y58775D01*
X35008Y57669D01*
X35736Y56720D01*
X36685Y55992D01*
X37790Y55534D01*
X38476Y55444D01*
Y59461D01*
D02*
G37*
G36*
X221472Y59461D02*
X217429D01*
Y55417D01*
X221472D01*
Y59461D01*
D02*
G37*
G36*
X216429D02*
X212386D01*
Y55417D01*
X216429D01*
Y59461D01*
D02*
G37*
G36*
X189441Y39189D02*
X186775D01*
Y35933D01*
X189441D01*
Y39189D01*
D02*
G37*
G36*
X146449Y39287D02*
X143882D01*
Y35933D01*
X146449D01*
Y39287D01*
D02*
G37*
G36*
X134071Y46744D02*
X119398D01*
Y32858D01*
X134071D01*
Y46744D01*
D02*
G37*
G36*
X189441Y34933D02*
X186775D01*
Y31677D01*
X189441D01*
Y34933D01*
D02*
G37*
G36*
X146449Y34933D02*
X143882D01*
Y31579D01*
X146449D01*
Y34933D01*
D02*
G37*
G36*
X145193Y69520D02*
X144217Y69392D01*
X143307Y69015D01*
X143154Y68898D01*
X141256D01*
Y62599D01*
X141420D01*
Y61417D01*
X141256D01*
Y55118D01*
X141420D01*
Y52642D01*
X141549Y51666D01*
X141926Y50756D01*
X142525Y49974D01*
X150460Y42040D01*
Y40256D01*
X150197D01*
Y39704D01*
X150016Y39287D01*
X149705Y39287D01*
X147449D01*
Y35433D01*
Y31579D01*
X149705D01*
X150016Y31579D01*
X150197Y31162D01*
Y30610D01*
X150460D01*
Y26410D01*
X103440D01*
X97473Y32377D01*
Y34429D01*
X100000D01*
Y42106D01*
X87402D01*
Y34429D01*
X89928D01*
Y30815D01*
X90057Y29838D01*
X90434Y28929D01*
X91033Y28147D01*
X99210Y19970D01*
X99992Y19371D01*
X100902Y18994D01*
X101878Y18865D01*
X150591D01*
Y18701D01*
X164370D01*
Y19660D01*
X165748D01*
Y19094D01*
X172835D01*
Y20063D01*
X174697D01*
Y22638D01*
Y25213D01*
X172835D01*
Y26181D01*
X165748D01*
Y25616D01*
X164370D01*
Y26575D01*
X158005D01*
Y30610D01*
X158268D01*
Y31661D01*
X159252D01*
Y30709D01*
X174409D01*
Y32455D01*
X175252D01*
Y30709D01*
X183520D01*
Y31677D01*
X185775D01*
Y35433D01*
Y39189D01*
X183520D01*
Y40157D01*
X175252D01*
Y38411D01*
X174409D01*
Y40157D01*
X159252D01*
Y39206D01*
X158268D01*
Y40256D01*
X158005D01*
Y43602D01*
X157876Y44579D01*
X157499Y45489D01*
X156900Y46270D01*
X148965Y54204D01*
Y55118D01*
X149130D01*
Y61417D01*
X148965D01*
Y62599D01*
X149130D01*
Y68898D01*
X147232D01*
X147079Y69015D01*
X146169Y69392D01*
X145193Y69520D01*
D02*
G37*
G36*
X177772Y25213D02*
X175697D01*
Y23138D01*
X177772D01*
Y25213D01*
D02*
G37*
G36*
Y22138D02*
X175697D01*
Y20063D01*
X177772D01*
Y22138D01*
D02*
G37*
G36*
X240158Y25061D02*
X238341Y24882D01*
X236594Y24352D01*
X234984Y23491D01*
X233573Y22333D01*
X232414Y20922D01*
X231554Y19312D01*
X231024Y17565D01*
X230845Y15748D01*
X231024Y13931D01*
X231554Y12184D01*
X232414Y10574D01*
X233573Y9163D01*
X234984Y8005D01*
X236594Y7144D01*
X238341Y6614D01*
X240158Y6436D01*
X241974Y6614D01*
X243721Y7144D01*
X245331Y8005D01*
X246743Y9163D01*
X247901Y10574D01*
X248761Y12184D01*
X249291Y13931D01*
X249470Y15748D01*
X249291Y17565D01*
X248761Y19312D01*
X247901Y20922D01*
X246743Y22333D01*
X245331Y23491D01*
X243721Y24352D01*
X241974Y24882D01*
X240158Y25061D01*
D02*
G37*
G36*
X15748D02*
X13931Y24882D01*
X12184Y24352D01*
X10574Y23491D01*
X9163Y22333D01*
X8005Y20922D01*
X7144Y19312D01*
X6614Y17565D01*
X6436Y15748D01*
X6614Y13931D01*
X7144Y12184D01*
X8005Y10574D01*
X9163Y9163D01*
X10574Y8005D01*
X12184Y7144D01*
X13931Y6614D01*
X15748Y6436D01*
X17565Y6614D01*
X19312Y7144D01*
X20922Y8005D01*
X22333Y9163D01*
X23491Y10574D01*
X24352Y12184D01*
X24882Y13931D01*
X25061Y15748D01*
X24882Y17565D01*
X24352Y19312D01*
X23491Y20922D01*
X22333Y22333D01*
X20922Y23491D01*
X19312Y24352D01*
X17565Y24882D01*
X15748Y25061D01*
D02*
G37*
%LPD*%
G36*
X79724Y64961D02*
X43624D01*
X43520Y65417D01*
X43520Y65461D01*
Y69461D01*
X38976D01*
X34433D01*
Y65461D01*
X34433Y65417D01*
X34328Y64961D01*
X24606D01*
Y99410D01*
X79724D01*
Y64961D01*
D02*
G37*
G36*
X125984Y63976D02*
X101378D01*
X101378Y49974D01*
X78740Y49974D01*
X78740Y33465D01*
X54134Y33465D01*
X54134Y62008D01*
X83661D01*
X83661Y82677D01*
X125984D01*
X125984Y63976D01*
D02*
G37*
%LPC*%
G36*
X75921Y92555D02*
X67429D01*
Y84555D01*
X75921D01*
Y92555D01*
D02*
G37*
G36*
X66429D02*
X57937D01*
Y84555D01*
X66429D01*
Y92555D01*
D02*
G37*
G36*
X75921Y83555D02*
X67429D01*
Y75555D01*
X75921D01*
Y83555D01*
D02*
G37*
G36*
X66429D02*
X57937D01*
Y75555D01*
X66429D01*
Y83555D01*
D02*
G37*
G36*
X43520Y74504D02*
X39476D01*
Y70461D01*
X43520D01*
Y74504D01*
D02*
G37*
G36*
X38476D02*
X34433D01*
Y70461D01*
X38476D01*
Y74504D01*
D02*
G37*
G36*
X109071Y81807D02*
X97941D01*
Y79240D01*
X109071D01*
Y81807D01*
D02*
G37*
G36*
X96941D02*
X85811D01*
Y79240D01*
X96941D01*
Y81807D01*
D02*
G37*
G36*
X124425Y79642D02*
X120579D01*
Y76976D01*
X124425D01*
Y79642D01*
D02*
G37*
G36*
X119579D02*
X115732D01*
Y76976D01*
X119579D01*
Y79642D01*
D02*
G37*
G36*
X109071Y78240D02*
X97941D01*
Y75673D01*
X109071D01*
Y78240D01*
D02*
G37*
G36*
X96941D02*
X85811D01*
Y75673D01*
X96941D01*
Y78240D01*
D02*
G37*
G36*
X124425Y75976D02*
X120579D01*
Y73311D01*
X124425D01*
Y75976D01*
D02*
G37*
G36*
X119579D02*
X115732D01*
Y73311D01*
X119579D01*
Y75976D01*
D02*
G37*
G36*
X99032Y59091D02*
X94201D01*
Y56721D01*
X99032D01*
Y59091D01*
D02*
G37*
G36*
X93201D02*
X88370D01*
Y56721D01*
X93201D01*
Y59091D01*
D02*
G37*
G36*
X99032Y55721D02*
X94201D01*
Y53350D01*
X99032D01*
Y55721D01*
D02*
G37*
G36*
X93201D02*
X88370D01*
Y53350D01*
X93201D01*
Y55721D01*
D02*
G37*
G36*
X75921Y54760D02*
X67429D01*
Y46760D01*
X75921D01*
Y54760D01*
D02*
G37*
G36*
X66429D02*
X57937D01*
Y46760D01*
X66429D01*
Y54760D01*
D02*
G37*
G36*
X75921Y45760D02*
X67429D01*
Y37760D01*
X75921D01*
Y45760D01*
D02*
G37*
G36*
X66429D02*
X57937D01*
Y37760D01*
X66429D01*
Y45760D01*
D02*
G37*
%LPD*%
D15*
X154232Y35433D02*
D03*
X146949D02*
D03*
D16*
X170275D02*
D03*
X163386D02*
D03*
X179386D02*
D03*
X186275D02*
D03*
X187500Y69961D02*
D03*
X180610D02*
D03*
D17*
X97441Y78740D02*
D03*
Y101772D02*
D03*
D18*
X118898Y47244D02*
D03*
D19*
X93701Y38268D02*
D03*
Y56221D02*
D03*
D20*
X156020Y58268D02*
D03*
Y62008D02*
D03*
Y65748D02*
D03*
X145193D02*
D03*
Y58268D02*
D03*
D21*
X154626Y22638D02*
D03*
X160335D02*
D03*
D22*
X175197Y22638D02*
D03*
X169291D02*
D03*
D23*
X66929Y84055D02*
D03*
Y46260D02*
D03*
D24*
X132874Y80610D02*
D03*
Y87500D02*
D03*
D25*
X120079Y76476D02*
D03*
Y87500D02*
D03*
D40*
X154232Y22638D02*
Y35433D01*
X101878Y22638D02*
X154232D01*
X93701Y30815D02*
X101878Y22638D01*
X93701Y30815D02*
Y38268D01*
X154232Y35433D02*
Y43602D01*
X145193Y52642D02*
X154232Y43602D01*
X145193Y52642D02*
Y58268D01*
X154937Y35713D02*
X155217Y35433D01*
X163386D01*
X145193Y58268D02*
Y65748D01*
D41*
X170275Y35433D02*
X179386D01*
X160335Y22638D02*
X169291D01*
X180118Y68898D02*
Y70866D01*
X169488Y58268D02*
X180118Y68898D01*
X156020Y58268D02*
X169488D01*
X187913Y69961D02*
X216929D01*
X120079Y87500D02*
X132874D01*
X147146D01*
X156020Y78626D01*
Y65748D02*
Y78626D01*
D42*
X38976Y59961D02*
D03*
X216929Y69961D02*
D03*
D43*
X38976D02*
D03*
X216929Y59961D02*
D03*
D44*
X240158Y122047D02*
D03*
X15748D02*
D03*
Y15748D02*
D03*
X240158D02*
D03*
M02*
