G04*
G04 #@! TF.GenerationSoftware,Altium Limited,Altium Designer,18.1.11 (251)*
G04*
G04 Layer_Color=16711935*
%FSLAX25Y25*%
%MOIN*%
G70*
G01*
G75*
%ADD11C,0.00787*%
%ADD12C,0.00394*%
D11*
X240158Y0D02*
G03*
X255906Y15748I0J15748D01*
G01*
Y122047D02*
G03*
X240158Y137795I-15748J0D01*
G01*
X15748Y137795D02*
G03*
X0Y122047I0J-15748D01*
G01*
Y15748D02*
G03*
X15748Y0I15748J0D01*
G01*
X0Y15748D02*
Y122047D01*
X15748Y0D02*
X240158D01*
X15748Y137795D02*
X240158D01*
X255906Y15748D02*
Y122047D01*
D12*
X146260Y32579D02*
X154921D01*
X146260Y38287D02*
X154921D01*
Y32579D02*
Y38287D01*
X146260Y32579D02*
Y38287D01*
X171063Y32677D02*
Y38189D01*
X162598Y32677D02*
Y38189D01*
Y32677D02*
X171063D01*
X162598Y38189D02*
X171063D01*
X178598D02*
X187063D01*
X178598Y32677D02*
X187063D01*
X178598D02*
Y38189D01*
X187063Y32677D02*
Y38189D01*
X86811Y78051D02*
Y102461D01*
X108071Y78051D02*
Y102461D01*
X86811Y78051D02*
X108071D01*
X86811Y102461D02*
X108071D01*
X101575Y33957D02*
X126063D01*
X101575Y60532D02*
X126063D01*
Y33957D02*
Y60532D01*
X101575Y33957D02*
Y60532D01*
X154051Y56102D02*
Y67914D01*
X147161Y56102D02*
Y67914D01*
Y56102D02*
X154051D01*
X147161Y67914D02*
X154051D01*
X153937Y24606D02*
X161024D01*
X153937Y20669D02*
X161024D01*
X153937D02*
Y24606D01*
X161024Y20669D02*
Y24606D01*
X188287Y67205D02*
Y72717D01*
X179823Y67205D02*
Y72717D01*
Y67205D02*
X188287D01*
X179823Y72717D02*
X188287D01*
X130118Y79823D02*
Y88287D01*
X135630Y79823D02*
Y88287D01*
X130118Y79823D02*
X135630D01*
X130118Y88287D02*
X135630D01*
X116732Y75689D02*
Y88287D01*
X123425Y75689D02*
Y88287D01*
X116732Y75689D02*
X123425D01*
X116732Y88287D02*
X123425D01*
M02*
