G04*
G04 #@! TF.GenerationSoftware,Altium Limited,Altium Designer,18.1.11 (251)*
G04*
G04 Layer_Color=32896*
%FSLAX25Y25*%
%MOIN*%
G70*
G01*
G75*
%ADD14C,0.00591*%
G36*
X109080Y67401D02*
X107439D01*
X106127Y71192D01*
X101717D01*
X103029Y67401D01*
X101352D01*
X98327Y76295D01*
X99967D01*
X101243Y72614D01*
X105653D01*
X104414Y76295D01*
X106054D01*
X109080Y67401D01*
D02*
G37*
G36*
X89761D02*
X88121D01*
X85897Y73999D01*
X83455Y67401D01*
X81742D01*
X78717Y76295D01*
X80321D01*
X82544Y69807D01*
X85059Y76295D01*
X86736D01*
X89761Y67401D01*
D02*
G37*
G36*
X130950Y67401D02*
X129419D01*
X127305Y73561D01*
X126977Y67401D01*
X125555D01*
X120999Y73561D01*
X123113Y67401D01*
X121582D01*
X118557Y76295D01*
X120197Y76295D01*
X125519Y69552D01*
X126211Y76295D01*
X127924D01*
X130950Y67401D01*
D02*
G37*
G36*
X62971Y67401D02*
X61440Y67401D01*
X59362Y73561D01*
X58961Y67401D01*
X57576D01*
X53020Y73561D01*
X55097Y67401D01*
X53603D01*
X50577Y76295D01*
X52218D01*
X57503Y69552D01*
X58232Y76295D01*
X59909D01*
X62971Y67401D01*
D02*
G37*
G36*
X153622Y74874D02*
X151070D01*
X153622Y67401D01*
X151945D01*
X149393Y74874D01*
X146842D01*
X146332Y76295D01*
X153148D01*
X153622Y74874D01*
D02*
G37*
G36*
X148446Y67401D02*
X142249D01*
X141775Y68823D01*
X146368D01*
X145566Y71156D01*
X141265D01*
X140755Y72614D01*
X145019D01*
X144254Y74874D01*
X139807D01*
X139297Y76295D01*
X145420D01*
X148446Y67401D01*
D02*
G37*
G36*
X141484D02*
X139807D01*
X134376Y74618D01*
X134157Y71228D01*
X135943D01*
X136964Y69807D01*
X134011D01*
X133829Y67401D01*
X132043D01*
X132882Y76295D01*
X134668D01*
X141484Y67401D01*
D02*
G37*
G36*
X116880Y67401D02*
X115240D01*
X112688Y74837D01*
X110465D01*
X110137Y74801D01*
X109882Y74691D01*
X109772Y74582D01*
X109736Y74545D01*
X109663Y74327D01*
Y74035D01*
X109699Y73816D01*
X109736Y73780D01*
Y73743D01*
X109845Y73488D01*
X109991Y73270D01*
X110283Y72905D01*
X110428Y72759D01*
X110574Y72650D01*
X110647Y72614D01*
X110684Y72577D01*
X110975Y72431D01*
X111303Y72285D01*
X111923Y72103D01*
X112178Y72030D01*
X112397Y71994D01*
X112579Y71957D01*
X112615D01*
X112871Y70463D01*
X112178Y70609D01*
X111558Y70755D01*
X111012Y70937D01*
X110538Y71156D01*
X110173Y71301D01*
X109918Y71447D01*
X109736Y71557D01*
X109699Y71593D01*
X109262Y71921D01*
X108897Y72285D01*
X108606Y72650D01*
X108387Y73014D01*
X108205Y73306D01*
X108096Y73561D01*
X108023Y73707D01*
X107986Y73780D01*
X107877Y74217D01*
X107804Y74582D01*
Y74910D01*
X107840Y75165D01*
X107913Y75384D01*
X107986Y75530D01*
X108023Y75603D01*
X108059Y75639D01*
X108278Y75858D01*
X108533Y76003D01*
X108825Y76149D01*
X109116Y76222D01*
X109408Y76259D01*
X109626Y76295D01*
X113855D01*
X116880Y67401D01*
D02*
G37*
G36*
X100295D02*
X98582D01*
X93187Y74618D01*
X92896Y71228D01*
X94718D01*
X95776Y69807D01*
X92823D01*
X92604Y67401D01*
X90818D01*
X91693Y76295D01*
X93443D01*
X100295Y67401D01*
D02*
G37*
G36*
X78280Y74874D02*
X75691D01*
X78243Y67401D01*
X76603D01*
X74051Y74874D01*
X71500D01*
X71026Y76295D01*
X77806D01*
X78280Y74874D01*
D02*
G37*
G36*
X66688Y76332D02*
X67417Y76186D01*
X68037Y76003D01*
X68584Y75785D01*
X69021Y75566D01*
X69349Y75384D01*
X69568Y75238D01*
X69641Y75201D01*
X70188Y74728D01*
X70661Y74181D01*
X71026Y73634D01*
X71354Y73087D01*
X71609Y72577D01*
X71791Y72176D01*
X71864Y72030D01*
X71901Y71921D01*
X71937Y71848D01*
Y71812D01*
X72119Y71046D01*
X72192Y70354D01*
Y69770D01*
X72156Y69297D01*
X72047Y68896D01*
X71974Y68641D01*
X71901Y68495D01*
X71864Y68422D01*
X71536Y68057D01*
X71099Y67766D01*
X70625Y67584D01*
X70151Y67438D01*
X69714Y67365D01*
X69313Y67328D01*
X69203Y67292D01*
X68985D01*
X68183Y67328D01*
X67454Y67474D01*
X66834Y67656D01*
X66287Y67875D01*
X65850Y68057D01*
X65522Y68240D01*
X65340Y68385D01*
X65267Y68422D01*
X64757Y68896D01*
X64283Y69442D01*
X63918Y70026D01*
X63590Y70572D01*
X63335Y71046D01*
X63189Y71447D01*
X63116Y71593D01*
X63080Y71702D01*
X63043Y71775D01*
Y71812D01*
X62825Y72614D01*
X62679Y73306D01*
Y73889D01*
X62715Y74363D01*
X62788Y74728D01*
X62861Y74983D01*
X62934Y75165D01*
X62971Y75201D01*
X63298Y75603D01*
X63700Y75894D01*
X64210Y76076D01*
X64684Y76222D01*
X65158Y76295D01*
X65522Y76368D01*
X65886D01*
X66688Y76332D01*
D02*
G37*
G36*
X159745Y62809D02*
X53238Y62809D01*
X52983Y63574D01*
X159490Y63574D01*
X159745Y62809D01*
D02*
G37*
G36*
X177350Y87485D02*
X178371Y87376D01*
X179246Y87266D01*
X179647Y87194D01*
X180011Y87121D01*
X180340Y87048D01*
X180595Y86975D01*
X180813Y86939D01*
X180959Y86902D01*
X181069Y86866D01*
X181105D01*
X182235Y86537D01*
X183292Y86137D01*
X184312Y85736D01*
X185187Y85335D01*
X185588Y85152D01*
X185953Y84970D01*
X186281Y84824D01*
X186536Y84679D01*
X186755Y84569D01*
X186900Y84496D01*
X187010Y84460D01*
X187046Y84423D01*
X188103Y83767D01*
X189124Y83075D01*
X190072Y82382D01*
X190874Y81726D01*
X191238Y81435D01*
X191566Y81143D01*
X191858Y80924D01*
X192113Y80705D01*
X192295Y80523D01*
X192441Y80414D01*
X192514Y80341D01*
X192550Y80304D01*
X193462Y79393D01*
X194300Y78482D01*
X195029Y77607D01*
X195649Y76805D01*
X195940Y76441D01*
X196159Y76113D01*
X196378Y75821D01*
X196523Y75603D01*
X196669Y75384D01*
X196778Y75238D01*
X196815Y75165D01*
X196851Y75129D01*
X197471Y74108D01*
X198018Y73088D01*
X198492Y72140D01*
X198856Y71265D01*
X199002Y70900D01*
X199148Y70536D01*
X199257Y70244D01*
X199330Y69989D01*
X199403Y69770D01*
X199476Y69625D01*
X199512Y69515D01*
Y69479D01*
X199767Y68422D01*
X199986Y67438D01*
X200095Y66490D01*
X200205Y65652D01*
Y65287D01*
X200241Y64959D01*
Y64667D01*
Y64449D01*
Y64230D01*
Y64084D01*
Y64011D01*
Y63975D01*
X200168Y62991D01*
X200023Y62043D01*
X199840Y61168D01*
X199621Y60403D01*
X199512Y60075D01*
X199439Y59783D01*
X199330Y59528D01*
X199257Y59309D01*
X199184Y59127D01*
X199111Y59018D01*
X199075Y58945D01*
Y58908D01*
X198273Y59455D01*
X198637Y60294D01*
X198892Y61132D01*
X199111Y61934D01*
X199257Y62663D01*
X199330Y63282D01*
X199366Y63574D01*
X199403Y63793D01*
X199439Y63975D01*
Y64121D01*
Y64194D01*
Y64230D01*
Y65214D01*
X199366Y66162D01*
X199257Y67073D01*
X199111Y67875D01*
X199038Y68203D01*
X198965Y68531D01*
X198892Y68823D01*
X198820Y69078D01*
X198783Y69260D01*
X198747Y69406D01*
X198710Y69479D01*
Y69515D01*
X198346Y70536D01*
X197945Y71484D01*
X197544Y72395D01*
X197143Y73197D01*
X196961Y73561D01*
X196778Y73889D01*
X196596Y74181D01*
X196487Y74400D01*
X196341Y74618D01*
X196268Y74764D01*
X196195Y74837D01*
Y74874D01*
X195539Y75858D01*
X194810Y76769D01*
X194118Y77607D01*
X193462Y78336D01*
X193170Y78664D01*
X192915Y78956D01*
X192660Y79211D01*
X192441Y79430D01*
X192259Y79612D01*
X192149Y79721D01*
X192076Y79794D01*
X192040Y79831D01*
X191129Y80669D01*
X190181Y81435D01*
X189306Y82127D01*
X188504Y82674D01*
X188140Y82929D01*
X187812Y83148D01*
X187520Y83330D01*
X187265Y83476D01*
X187083Y83622D01*
X186900Y83694D01*
X186828Y83767D01*
X186791D01*
X185734Y84314D01*
X184713Y84788D01*
X183766Y85189D01*
X182927Y85517D01*
X182526Y85663D01*
X182198Y85772D01*
X181870Y85881D01*
X181615Y85954D01*
X181433Y86027D01*
X181251Y86064D01*
X181178Y86100D01*
X181141D01*
X180084Y86355D01*
X179064Y86537D01*
X178116Y86647D01*
X177241Y86720D01*
X176877Y86756D01*
X176549Y86793D01*
X175528D01*
X174544Y86720D01*
X173596Y86610D01*
X172721Y86428D01*
X171992Y86209D01*
X171664Y86137D01*
X171373Y86027D01*
X171118Y85954D01*
X170899Y85845D01*
X170717Y85808D01*
X170607Y85736D01*
X170534Y85699D01*
X170498D01*
X169988Y86428D01*
X170899Y86793D01*
X171810Y87048D01*
X172685Y87266D01*
X173487Y87376D01*
X173851Y87449D01*
X174216Y87485D01*
X174507Y87522D01*
X174763D01*
X174945Y87558D01*
X176330D01*
X177350Y87485D01*
D02*
G37*
G36*
X128180Y55008D02*
X127414D01*
X126321Y58143D01*
X126284D01*
X126065Y55737D01*
X125409D01*
X123550Y58143D01*
X123514D01*
X124607Y55008D01*
X123842D01*
X122129Y60038D01*
X122858D01*
X125373Y56758D01*
X125737Y60038D01*
X126466D01*
X128180Y55008D01*
D02*
G37*
G36*
X148118Y56685D02*
X148191Y56430D01*
X148227Y56211D01*
Y56065D01*
Y55992D01*
X148191Y55774D01*
X148118Y55628D01*
X148045Y55482D01*
X148008Y55446D01*
X147863Y55300D01*
X147717Y55154D01*
X147607Y55118D01*
X147571Y55081D01*
X147352Y55008D01*
X147134Y54972D01*
X146915D01*
X146623Y55008D01*
X146368Y55045D01*
X146222Y55081D01*
X146149D01*
X145894Y55190D01*
X145676Y55300D01*
X145530Y55409D01*
X145493Y55446D01*
X145238Y55628D01*
X145056Y55810D01*
X144947Y55956D01*
X144910Y55992D01*
X144728Y56248D01*
X144618Y56466D01*
X144546Y56612D01*
X144509Y56685D01*
X143379Y60038D01*
X144145D01*
X145238Y56794D01*
X145311Y56612D01*
X145420Y56466D01*
X145457Y56393D01*
X145493Y56357D01*
X145603Y56211D01*
X145712Y56102D01*
X145785Y56029D01*
X145821Y55992D01*
X145967Y55883D01*
X146113Y55847D01*
X146186Y55774D01*
X146222D01*
X146514Y55737D01*
X146806D01*
X146915Y55774D01*
X147024D01*
X147206Y55919D01*
X147243Y55956D01*
X147279Y55992D01*
X147389Y56248D01*
X147425Y56320D01*
Y56357D01*
X147389Y56503D01*
X147352Y56648D01*
X147316Y56758D01*
Y56794D01*
X146222Y60038D01*
X146988D01*
X148118Y56685D01*
D02*
G37*
G36*
X121947D02*
X122020Y56430D01*
X122056Y56211D01*
Y56065D01*
Y55992D01*
X122020Y55774D01*
X121947Y55628D01*
X121874Y55482D01*
X121837Y55446D01*
X121691Y55300D01*
X121546Y55154D01*
X121436Y55118D01*
X121400Y55081D01*
X121181Y55008D01*
X120962Y54972D01*
X120744D01*
X120452Y55008D01*
X120197Y55045D01*
X120051Y55081D01*
X119978Y55081D01*
X119723Y55190D01*
X119504Y55300D01*
X119359Y55409D01*
X119286Y55446D01*
X119067Y55628D01*
X118885Y55810D01*
X118739Y55956D01*
X118702Y55992D01*
X118520Y56248D01*
X118411Y56466D01*
X118375Y56612D01*
X118338Y56685D01*
X117208Y60038D01*
X117973D01*
X119067Y56794D01*
X119140Y56612D01*
X119213Y56466D01*
X119249Y56393D01*
X119286Y56357D01*
X119504Y56102D01*
X119614Y56029D01*
X119650Y55992D01*
X119869Y55847D01*
X119978Y55774D01*
X120015Y55774D01*
X120160Y55737D01*
X120634D01*
X120744Y55774D01*
X120853D01*
X121035Y55919D01*
X121072Y55956D01*
X121108Y55992D01*
X121181Y56138D01*
X121218Y56248D01*
Y56320D01*
Y56357D01*
X121181Y56648D01*
X121145Y56758D01*
Y56794D01*
X120051Y60038D01*
X120817D01*
X121947Y56685D01*
D02*
G37*
G36*
X75145Y60038D02*
X75291Y60002D01*
X75327D01*
X75509Y59965D01*
X75691Y59892D01*
X75801Y59856D01*
X75837Y59820D01*
X75983Y59747D01*
X76129Y59637D01*
X76238Y59565D01*
X76275Y59528D01*
X76420Y59419D01*
X76530Y59309D01*
X76603Y59236D01*
X76639Y59200D01*
X76785Y59018D01*
X76822Y58981D01*
Y58945D01*
X76931Y58763D01*
X76967Y58726D01*
Y58690D01*
X77040Y58544D01*
X77113Y58434D01*
X77149Y58289D01*
X77186Y58252D01*
X77259Y58034D01*
X77332Y57815D01*
X77368Y57633D01*
X77405Y57596D01*
Y57560D01*
X77514Y57232D01*
X77587Y57013D01*
X77623Y56831D01*
X77660Y56794D01*
X77733Y56612D01*
X77769Y56466D01*
Y56393D01*
Y56357D01*
X77806Y56248D01*
Y56211D01*
Y56175D01*
Y56102D01*
Y56065D01*
Y55992D01*
Y55956D01*
Y55883D01*
Y55847D01*
X77696Y55628D01*
X77623Y55555D01*
Y55519D01*
X77441Y55336D01*
X77405Y55263D01*
X77368Y55227D01*
X77113Y55081D01*
X77040Y55045D01*
X77004D01*
X76822Y55008D01*
X76676Y54972D01*
X76275D01*
X76056Y55008D01*
X75910Y55045D01*
X75874D01*
X75655Y55118D01*
X75436Y55227D01*
X75291Y55263D01*
X75254Y55300D01*
X75035Y55482D01*
X74853Y55628D01*
X74707Y55737D01*
X74671Y55774D01*
X74489Y55992D01*
X74343Y56211D01*
X74234Y56357D01*
X74197Y56430D01*
X75035D01*
X75218Y56175D01*
X75436Y56029D01*
X75546Y55919D01*
X75619Y55883D01*
X75837Y55810D01*
X76020Y55774D01*
X76165Y55737D01*
X76493D01*
X76603Y55810D01*
X76639Y55847D01*
X76785Y55883D01*
X76822Y55919D01*
X76858Y56029D01*
X76894Y56065D01*
X76967Y56211D01*
Y56284D01*
Y56430D01*
Y56503D01*
X76931Y56612D01*
X76894Y56758D01*
X76858Y56867D01*
Y56904D01*
X76785Y57122D01*
X76712Y57341D01*
X76676Y57487D01*
X76639Y57560D01*
X76566Y57778D01*
X76493Y57961D01*
X76457Y58106D01*
Y58143D01*
X76384Y58325D01*
X76311Y58471D01*
X76275Y58507D01*
Y58544D01*
X76165Y58690D01*
X76129Y58763D01*
X75983Y58908D01*
X75910Y58981D01*
X75801Y59054D01*
X75728Y59091D01*
X75546Y59200D01*
X75509Y59236D01*
X75473D01*
X75363Y59273D01*
X75291D01*
X75072Y59309D01*
X75035Y59346D01*
X74999D01*
X74780Y59309D01*
X74707Y59273D01*
X74671D01*
X74489Y59200D01*
X74452Y59163D01*
Y59127D01*
X74379Y58945D01*
X74343Y58908D01*
Y58872D01*
X74306Y58763D01*
Y58690D01*
Y58617D01*
Y58580D01*
X73468D01*
Y58799D01*
Y58981D01*
X73505Y59127D01*
Y59163D01*
X73541Y59382D01*
X73614Y59528D01*
X73650Y59637D01*
X73687Y59674D01*
X73833Y59820D01*
X73942Y59892D01*
X74088Y59965D01*
X74124D01*
X74343Y60038D01*
X74525Y60075D01*
X74963D01*
X75145Y60038D01*
D02*
G37*
G36*
X60054Y60038D02*
X60200Y60002D01*
X60237D01*
X60419Y59965D01*
X60601Y59892D01*
X60711Y59856D01*
X60747Y59820D01*
X60929Y59747D01*
X61075Y59637D01*
X61148Y59565D01*
X61184Y59528D01*
X61440Y59309D01*
X61513Y59236D01*
X61549Y59200D01*
X61658Y59018D01*
X61695Y58981D01*
X61731Y58945D01*
X61840Y58763D01*
X61877Y58726D01*
Y58690D01*
X61950Y58544D01*
X62023Y58434D01*
X62059Y58289D01*
X62096Y58252D01*
X62169Y58034D01*
X62278Y57815D01*
X62314Y57633D01*
X62351Y57596D01*
Y57560D01*
X62460Y57232D01*
X62497Y57013D01*
X62569Y56831D01*
Y56794D01*
X62606Y56612D01*
X62642Y56466D01*
X62679Y56393D01*
Y56357D01*
Y56248D01*
X62715Y56211D01*
Y56175D01*
X62679Y56102D01*
Y56065D01*
Y55992D01*
Y55956D01*
Y55883D01*
Y55847D01*
X62569Y55628D01*
X62533Y55555D01*
Y55519D01*
X62387Y55336D01*
X62351Y55263D01*
X62314Y55227D01*
X62059Y55081D01*
X61950Y55045D01*
X61913D01*
X61731Y55008D01*
X61585Y54972D01*
X61148D01*
X60966Y55008D01*
X60820Y55045D01*
X60747D01*
X60528Y55118D01*
X60310Y55227D01*
X60164Y55263D01*
X60127Y55300D01*
X59909Y55482D01*
X59763Y55628D01*
X59654Y55737D01*
X59617Y55774D01*
X59435Y55992D01*
X59253Y56211D01*
X59143Y56357D01*
X59107Y56430D01*
X59945D01*
X60164Y56175D01*
X60346Y56029D01*
X60492Y55919D01*
X60528Y55883D01*
X60747Y55810D01*
X60929Y55774D01*
X61075Y55737D01*
X61367D01*
X61513Y55810D01*
X61549Y55847D01*
X61585D01*
X61658Y55883D01*
X61695Y55919D01*
X61768Y56029D01*
X61804Y56065D01*
X61840Y56211D01*
X61877Y56284D01*
X61840Y56430D01*
Y56503D01*
Y56612D01*
X61804Y56758D01*
X61768Y56867D01*
Y56904D01*
X61695Y57122D01*
X61658Y57341D01*
X61585Y57487D01*
Y57560D01*
X61476Y57778D01*
X61403Y57961D01*
X61330Y58106D01*
Y58143D01*
X61257Y58325D01*
X61184Y58471D01*
X61148Y58507D01*
Y58544D01*
X61075Y58690D01*
X61039Y58763D01*
X60893Y58908D01*
X60820Y58981D01*
X60674Y59054D01*
X60638Y59091D01*
X60492Y59200D01*
X60419Y59236D01*
X60237Y59273D01*
X60164D01*
X59982Y59309D01*
X59945Y59346D01*
X59909D01*
X59690Y59309D01*
X59654Y59273D01*
X59617D01*
X59398Y59200D01*
X59362Y59163D01*
X59325Y59127D01*
X59253Y58945D01*
Y58908D01*
Y58872D01*
X59216Y58690D01*
Y58617D01*
Y58580D01*
X58378D01*
Y58799D01*
Y58981D01*
X58414Y59127D01*
Y59163D01*
X58451Y59382D01*
X58524Y59528D01*
X58596Y59637D01*
X58633Y59674D01*
X58742Y59820D01*
X58888Y59892D01*
X58997Y59965D01*
X59034D01*
X59253Y60038D01*
X59435Y60075D01*
X59872D01*
X60054Y60038D01*
D02*
G37*
G36*
X152783Y55008D02*
X152018D01*
X151289Y57159D01*
X149175D01*
X148920Y57851D01*
X151034D01*
X150523Y59346D01*
X148081D01*
X147826Y60038D01*
X151070D01*
X152783Y55008D01*
D02*
G37*
G36*
X141702D02*
X140937D01*
X140208Y57159D01*
X138094D01*
X137839Y57851D01*
X139953D01*
X139443Y59346D01*
X137000D01*
X136745Y60038D01*
X139989D01*
X141702Y55008D01*
D02*
G37*
G36*
X132845D02*
X132080D01*
X131351Y57159D01*
X130367D01*
X130038Y55008D01*
X129127D01*
X129565Y57232D01*
X129200Y57377D01*
X128909Y57560D01*
X128726Y57705D01*
X128653Y57742D01*
X128398Y58034D01*
X128216Y58325D01*
X128107Y58580D01*
X128070Y58617D01*
Y58653D01*
X128034Y58908D01*
Y59091D01*
Y59236D01*
Y59273D01*
X128070Y59455D01*
X128107Y59601D01*
X128180Y59710D01*
X128216Y59747D01*
X128471Y59929D01*
X128580Y59965D01*
X128617D01*
X128799Y60002D01*
X128981Y60038D01*
X131132D01*
X132845Y55008D01*
D02*
G37*
G36*
X117573Y55008D02*
X114329D01*
X114073Y55737D01*
X116588D01*
X115130Y60038D01*
X115859D01*
X117573Y55008D01*
D02*
G37*
G36*
X113782D02*
X112980D01*
X112214Y56102D01*
X110283D01*
Y55008D01*
X109481D01*
X109626Y60038D01*
X110246D01*
X113782Y55008D01*
D02*
G37*
G36*
X102592D02*
X101790D01*
X101024Y56102D01*
X99129D01*
X99092Y55008D01*
X98290D01*
X98436Y60038D01*
X99056D01*
X102592Y55008D01*
D02*
G37*
G36*
X97416D02*
X94172D01*
X93953Y55737D01*
X96395D01*
X95885Y57195D01*
X93771D01*
X93552Y57888D01*
X95666D01*
X95156Y59346D01*
X92714D01*
X92458Y60038D01*
X95703D01*
X97416Y55008D01*
D02*
G37*
G36*
X91037D02*
X87793D01*
X87574Y55737D01*
X90016D01*
X89506Y57195D01*
X87392D01*
X87173Y57888D01*
X89287D01*
X88777Y59346D01*
X86335D01*
X86080Y60038D01*
X89324D01*
X91037Y55008D01*
D02*
G37*
G36*
X86736D02*
X83492D01*
X83237Y55737D01*
X85715D01*
X84257Y60038D01*
X85023D01*
X86736Y55008D01*
D02*
G37*
G36*
X82435D02*
X79191D01*
X78936Y55737D01*
X81414D01*
X80904Y57195D01*
X78790D01*
X78571Y57888D01*
X80685D01*
X80175Y59346D01*
X77733D01*
X77478Y60038D01*
X80722D01*
X82435Y55008D01*
D02*
G37*
G36*
X72812Y59382D02*
X71427D01*
X72921Y55008D01*
X72156D01*
X70661Y59382D01*
X69276D01*
X69058Y60038D01*
X72593D01*
X72812Y59382D01*
D02*
G37*
G36*
X69896Y55008D02*
X69130D01*
X68401Y57159D01*
X67417D01*
X67089Y55008D01*
X66215D01*
X66579Y57232D01*
X66215Y57377D01*
X65959Y57560D01*
X65777Y57705D01*
X65704Y57742D01*
X65449Y58034D01*
X65303Y58325D01*
X65194Y58580D01*
X65158Y58617D01*
Y58653D01*
X65085Y58908D01*
Y59091D01*
Y59236D01*
Y59273D01*
X65121Y59455D01*
X65194Y59601D01*
X65267Y59710D01*
X65303Y59747D01*
X65413Y59856D01*
X65522Y59929D01*
X65631Y59965D01*
X65668D01*
X65850Y60002D01*
X66032Y60038D01*
X68183D01*
X69896Y55008D01*
D02*
G37*
G36*
X65194D02*
X64429D01*
X62715Y60038D01*
X63481Y60038D01*
X65194Y55008D01*
D02*
G37*
G36*
X154533Y60038D02*
X154679Y60002D01*
X154752Y59965D01*
X154970Y59892D01*
X155152Y59820D01*
X155298Y59747D01*
X155335Y59710D01*
X155553Y59528D01*
X155699Y59382D01*
X155809Y59273D01*
X155845Y59236D01*
X155954Y59018D01*
X156064Y58836D01*
X156137Y58690D01*
X156173Y58617D01*
X156210Y58434D01*
X156246Y58252D01*
Y58143D01*
Y58106D01*
X156210Y57961D01*
X156173Y57815D01*
X156137Y57742D01*
Y57705D01*
X156027Y57560D01*
X155918Y57450D01*
X155845Y57377D01*
X155809Y57341D01*
X155626Y57268D01*
X155481Y57232D01*
X155335Y57195D01*
X155298D01*
X155080Y57159D01*
X155007Y57122D01*
X154642D01*
X154460Y57049D01*
X154314Y56976D01*
X154278Y56904D01*
X154241Y56867D01*
X154205Y56721D01*
X154168Y56576D01*
X154205Y56466D01*
Y56430D01*
X154314Y56175D01*
X154460Y56029D01*
X154606Y55919D01*
X154642Y55883D01*
X154897Y55810D01*
X155152Y55774D01*
X155371Y55737D01*
X155444D01*
X155736Y55774D01*
X155991Y55810D01*
X156137Y55847D01*
X156210D01*
X156428Y55956D01*
X156574Y56102D01*
X156647Y56211D01*
X156683Y56248D01*
X157449Y55664D01*
X157194Y55409D01*
X156975Y55263D01*
X156793Y55154D01*
X156720Y55118D01*
X156392Y55045D01*
X156027Y55008D01*
X155918Y54972D01*
X155699D01*
X155116Y55045D01*
X154897Y55081D01*
X154679Y55154D01*
X154533Y55227D01*
X154423Y55263D01*
X154351Y55336D01*
X154314D01*
X153913Y55664D01*
X153658Y56029D01*
X153549Y56175D01*
X153476Y56320D01*
X153439Y56393D01*
Y56430D01*
X153403Y56612D01*
X153366Y56758D01*
Y56867D01*
Y56904D01*
Y57086D01*
X153403Y57232D01*
X153439Y57341D01*
X153476Y57377D01*
X153549Y57523D01*
X153658Y57633D01*
X153731Y57669D01*
X153767Y57705D01*
X153950Y57815D01*
X154132Y57851D01*
X154241Y57888D01*
X154679D01*
X154824Y57924D01*
X154861Y57961D01*
X154897D01*
X155116Y57997D01*
X155152Y58034D01*
X155189D01*
X155298Y58143D01*
X155335Y58179D01*
X155371Y58362D01*
X155408Y58398D01*
Y58544D01*
Y58617D01*
X155298Y58836D01*
X155225Y58872D01*
Y58908D01*
X155116Y59018D01*
X155007Y59091D01*
X154970Y59163D01*
X154934D01*
X154715Y59236D01*
X154679Y59273D01*
X154642D01*
X154423Y59346D01*
X154314D01*
X154059Y59309D01*
X153840Y59273D01*
X153694Y59236D01*
X153658Y59200D01*
X153476Y59127D01*
X153294Y59018D01*
X153221Y58945D01*
X153184Y58908D01*
X152528Y59565D01*
X152747Y59747D01*
X152929Y59856D01*
X153075Y59892D01*
X153148Y59929D01*
X153439Y60002D01*
X153731Y60075D01*
X154278D01*
X154533Y60038D01*
D02*
G37*
G36*
X134595D02*
X134740Y60002D01*
X134777D01*
X134959Y59965D01*
X135105Y59892D01*
X135214Y59856D01*
X135251Y59820D01*
X135433Y59747D01*
X135579Y59637D01*
X135688Y59565D01*
X135725Y59528D01*
X135943Y59309D01*
X136016Y59236D01*
X136053Y59200D01*
X136198Y59018D01*
X136235Y58981D01*
Y58945D01*
X136344Y58763D01*
X136381Y58726D01*
X136417Y58690D01*
X136454Y58544D01*
X136527Y58434D01*
X136563Y58289D01*
X136600Y58252D01*
X136672Y58034D01*
X136782Y57815D01*
X136818Y57633D01*
X136855Y57596D01*
Y57560D01*
X136964Y57232D01*
X137000Y57013D01*
X137073Y56831D01*
Y56794D01*
X137110Y56612D01*
X137183Y56466D01*
X137219Y56393D01*
Y56357D01*
Y56248D01*
Y56211D01*
Y56175D01*
Y56102D01*
Y56065D01*
X137183Y55992D01*
Y55956D01*
Y55883D01*
Y55847D01*
X137110Y55628D01*
X137073Y55555D01*
Y55519D01*
X136891Y55336D01*
X136855Y55263D01*
X136818Y55227D01*
X136563Y55081D01*
X136490Y55045D01*
X136454D01*
X136271Y55008D01*
X136089Y54972D01*
X135688D01*
X135506Y55008D01*
X135397Y55045D01*
X135360D01*
X135142Y55118D01*
X134959Y55154D01*
X134850Y55227D01*
X134813D01*
X134631Y55336D01*
X134485Y55446D01*
X134413Y55482D01*
X134376Y55519D01*
X134230Y55664D01*
X134121Y55737D01*
X134084Y55810D01*
X134048Y55847D01*
X133866Y55992D01*
X133829Y56065D01*
X133720Y56284D01*
X133684Y56320D01*
Y56357D01*
X133611Y56503D01*
X133574Y56648D01*
X133501Y56758D01*
Y56794D01*
X133428Y57049D01*
X133319Y57305D01*
X133282Y57487D01*
X133246Y57523D01*
Y57560D01*
X133137Y57851D01*
X133064Y58070D01*
X133027Y58216D01*
Y58252D01*
X132955Y58434D01*
X132918Y58580D01*
X132882Y58653D01*
Y58690D01*
X132845Y58872D01*
Y58945D01*
Y59127D01*
X132882Y59200D01*
X132955Y59419D01*
X132991Y59492D01*
X133027Y59528D01*
X133100Y59637D01*
X133173Y59747D01*
X133246Y59783D01*
X133282Y59820D01*
X133392Y59929D01*
X133501Y59965D01*
X133611Y60002D01*
X133647D01*
X133829Y60038D01*
X133975Y60075D01*
X134376D01*
X134595Y60038D01*
D02*
G37*
G36*
X103831Y60038D02*
X103977Y60002D01*
X104050Y59965D01*
X104268Y59892D01*
X104487Y59820D01*
X104633Y59747D01*
X104669Y59710D01*
X104851Y59528D01*
X104997Y59382D01*
X105107Y59273D01*
X105143Y59236D01*
X105253Y59018D01*
X105362Y58836D01*
X105398Y58690D01*
X105435Y58617D01*
X105508Y58434D01*
X105544Y58252D01*
Y58143D01*
Y58106D01*
X105508Y57961D01*
X105471Y57815D01*
X105435Y57742D01*
Y57705D01*
X105325Y57560D01*
X105253Y57450D01*
X105180Y57377D01*
X105143Y57341D01*
X104961Y57268D01*
X104779Y57232D01*
X104633Y57195D01*
X104596D01*
X104378Y57159D01*
X104341Y57122D01*
X103977D01*
X103758Y57049D01*
X103649Y56976D01*
X103576Y56904D01*
Y56867D01*
X103539Y56721D01*
X103503Y56576D01*
X103539Y56466D01*
Y56430D01*
X103649Y56175D01*
X103795Y56029D01*
X103940Y55919D01*
X103977Y55883D01*
X104232Y55810D01*
X104487Y55774D01*
X104706Y55737D01*
X104779D01*
X105070Y55774D01*
X105289Y55810D01*
X105471Y55847D01*
X105508D01*
X105726Y55956D01*
X105872Y56102D01*
X105982Y56211D01*
X106018Y56248D01*
X106711Y55664D01*
X106492Y55409D01*
X106273Y55263D01*
X106127Y55154D01*
X106054Y55118D01*
X105726Y55045D01*
X105362Y55008D01*
X105253Y54972D01*
X105034D01*
X104451Y55045D01*
X104195Y55081D01*
X103977Y55154D01*
X103831Y55227D01*
X103722Y55263D01*
X103649Y55336D01*
X103612D01*
X103248Y55664D01*
X102956Y56029D01*
X102883Y56175D01*
X102810Y56320D01*
X102774Y56393D01*
Y56430D01*
X102737Y56612D01*
X102701Y56758D01*
Y56867D01*
Y56904D01*
Y57086D01*
X102737Y57232D01*
X102774Y57341D01*
X102810Y57377D01*
X102883Y57523D01*
X102993Y57633D01*
X103066Y57669D01*
X103102Y57705D01*
X103284Y57815D01*
X103466Y57851D01*
X103576Y57888D01*
X104013D01*
X104159Y57924D01*
X104195Y57961D01*
X104232D01*
X104414Y57997D01*
X104487Y58034D01*
X104524D01*
X104633Y58143D01*
X104669Y58179D01*
X104706Y58362D01*
Y58398D01*
X104669Y58544D01*
Y58617D01*
X104596Y58836D01*
X104524Y58872D01*
Y58908D01*
X104451Y59018D01*
X104341Y59091D01*
X104305Y59163D01*
X104268D01*
X104050Y59236D01*
X104013Y59273D01*
X103977D01*
X103722Y59346D01*
X103576D01*
X103357Y59309D01*
X103175Y59273D01*
X103029Y59236D01*
X102993Y59200D01*
X102810Y59127D01*
X102628Y59018D01*
X102555Y58945D01*
X102519Y58908D01*
X101863Y59565D01*
X102081Y59747D01*
X102264Y59856D01*
X102409Y59892D01*
X102482Y59929D01*
X102774Y60002D01*
X103029Y60075D01*
X103612D01*
X103831Y60038D01*
D02*
G37*
G36*
X165541Y81106D02*
X165140Y80268D01*
X164812Y79430D01*
X164593Y78628D01*
X164411Y77899D01*
X164302Y77243D01*
X164265Y76988D01*
X164229Y76732D01*
Y76550D01*
X164192Y76404D01*
Y76332D01*
Y76295D01*
Y75311D01*
X164229Y74327D01*
X164338Y73415D01*
X164447Y72614D01*
X164520Y72249D01*
X164593Y71921D01*
X164666Y71629D01*
X164739Y71374D01*
X164775Y71156D01*
X164812Y71010D01*
X164848Y70937D01*
Y70900D01*
X165176Y69880D01*
X165577Y68932D01*
X165978Y67984D01*
X166379Y67182D01*
X166598Y66818D01*
X166780Y66490D01*
X166926Y66198D01*
X167072Y65943D01*
X167181Y65724D01*
X167290Y65579D01*
X167327Y65506D01*
X167363Y65469D01*
X168019Y64449D01*
X168748Y63538D01*
X169441Y62663D01*
X170133Y61897D01*
X170425Y61569D01*
X170717Y61278D01*
X170972Y60986D01*
X171154Y60767D01*
X171336Y60622D01*
X171482Y60476D01*
X171555Y60403D01*
X171591Y60366D01*
X172539Y59492D01*
X173487Y58726D01*
X174398Y58070D01*
X175236Y57487D01*
X175601Y57232D01*
X175929Y57013D01*
X176257Y56831D01*
X176512Y56685D01*
X176695Y56539D01*
X176840Y56466D01*
X176950Y56430D01*
X176986Y56393D01*
X178043Y55847D01*
X179100Y55336D01*
X180048Y54935D01*
X180923Y54607D01*
X181324Y54461D01*
X181688Y54352D01*
X181980Y54243D01*
X182235Y54170D01*
X182454Y54097D01*
X182599Y54061D01*
X182709Y54024D01*
X182745D01*
X183839Y53769D01*
X184859Y53623D01*
X185807Y53514D01*
X186645Y53441D01*
X188395D01*
X189416Y53550D01*
X190363Y53696D01*
X191238Y53915D01*
X191967Y54170D01*
X192332Y54279D01*
X192623Y54389D01*
X192878Y54461D01*
X193097Y54571D01*
X193279Y54644D01*
X193389Y54717D01*
X193462Y54753D01*
X193498D01*
X194045Y53988D01*
X192988Y53550D01*
X192514Y53368D01*
X192040Y53222D01*
X191675Y53113D01*
X191347Y53040D01*
X191165Y52967D01*
X191092D01*
X189889Y52785D01*
X189343Y52712D01*
X188832Y52675D01*
X188395D01*
X188067Y52639D01*
X187775D01*
X186900Y52675D01*
X186500D01*
X186135Y52712D01*
X185807Y52748D01*
X185588D01*
X185406Y52785D01*
X185370D01*
X184458Y52931D01*
X184057Y53004D01*
X183656Y53076D01*
X183365Y53149D01*
X183110Y53222D01*
X182927Y53259D01*
X182891D01*
X181725Y53587D01*
X180595Y53988D01*
X179574Y54389D01*
X179100Y54607D01*
X178626Y54790D01*
X178225Y54972D01*
X177861Y55154D01*
X177533Y55336D01*
X177241Y55482D01*
X177023Y55591D01*
X176877Y55664D01*
X176767Y55737D01*
X176731D01*
X175601Y56393D01*
X174544Y57122D01*
X173596Y57815D01*
X172758Y58471D01*
X172393Y58763D01*
X172102Y59018D01*
X171810Y59273D01*
X171555Y59492D01*
X171373Y59674D01*
X171227Y59783D01*
X171154Y59856D01*
X171118Y59892D01*
X170206Y60804D01*
X169368Y61752D01*
X168603Y62626D01*
X167983Y63428D01*
X167691Y63793D01*
X167436Y64157D01*
X167254Y64449D01*
X167072Y64704D01*
X166926Y64886D01*
X166816Y65068D01*
X166780Y65141D01*
X166744Y65178D01*
X166087Y66271D01*
X165541Y67328D01*
X165067Y68313D01*
X164702Y69187D01*
X164557Y69588D01*
X164411Y69953D01*
X164302Y70281D01*
X164192Y70536D01*
X164119Y70755D01*
X164083Y70900D01*
X164046Y71010D01*
Y71046D01*
X163791Y72140D01*
X163573Y73197D01*
X163463Y74145D01*
X163390Y74983D01*
Y75384D01*
Y75712D01*
Y76003D01*
Y76259D01*
Y76477D01*
Y76623D01*
Y76696D01*
Y76732D01*
X163500Y77717D01*
X163682Y78664D01*
X163900Y79503D01*
X164119Y80232D01*
X164265Y80523D01*
X164374Y80815D01*
X164447Y81070D01*
X164557Y81252D01*
X164629Y81435D01*
X164702Y81544D01*
X164739Y81617D01*
Y81653D01*
X165541Y81106D01*
D02*
G37*
G36*
X160547Y88542D02*
X162042Y87594D01*
X163427Y86720D01*
X164046Y86319D01*
X164666Y85954D01*
X165213Y85590D01*
X165723Y85262D01*
X166160Y85007D01*
X166525Y84751D01*
X166816Y84569D01*
X167035Y84423D01*
X167181Y84351D01*
X167218Y84314D01*
X168748Y83330D01*
X170206Y82382D01*
X171591Y81507D01*
X172248Y81070D01*
X172831Y80705D01*
X173414Y80341D01*
X173888Y80013D01*
X174325Y79721D01*
X174726Y79503D01*
X175018Y79284D01*
X175236Y79138D01*
X175382Y79065D01*
X175419Y79029D01*
X176950Y78045D01*
X178444Y77097D01*
X179829Y76222D01*
X180449Y75821D01*
X181069Y75457D01*
X181615Y75092D01*
X182125Y74764D01*
X182563Y74509D01*
X182927Y74254D01*
X183219Y74072D01*
X183438Y73926D01*
X183583Y73853D01*
X183620Y73816D01*
X185151Y72832D01*
X186645Y71885D01*
X188067Y71010D01*
X188723Y70572D01*
X189306Y70208D01*
X189889Y69843D01*
X190400Y69515D01*
X190837Y69224D01*
X191202Y69005D01*
X191530Y68786D01*
X191748Y68641D01*
X191894Y68568D01*
X191931Y68531D01*
X191347Y68313D01*
X190764Y68094D01*
X190254Y67875D01*
X189780Y67693D01*
X189379Y67547D01*
X189087Y67438D01*
X188905Y67365D01*
X188832Y67328D01*
X187702Y66927D01*
X187192Y66709D01*
X186718Y66526D01*
X186317Y66381D01*
X185989Y66271D01*
X185807Y66198D01*
X185734Y66162D01*
X186317Y65652D01*
X186572Y65433D01*
X186828Y65214D01*
X187010Y65032D01*
X187156Y64923D01*
X187265Y64850D01*
X187301Y64813D01*
X187885Y64376D01*
X188358Y64011D01*
X188577Y63829D01*
X188723Y63720D01*
X188832Y63647D01*
X188869Y63611D01*
X189598Y63027D01*
X190327Y62444D01*
X191019Y61934D01*
X191639Y61460D01*
X192149Y61059D01*
X192550Y60731D01*
X192696Y60622D01*
X192769Y60549D01*
X192842Y60512D01*
X192878Y60476D01*
X193607Y59893D01*
X194336Y59309D01*
X195029Y58763D01*
X195649Y58289D01*
X196159Y57888D01*
X196560Y57560D01*
X196705Y57450D01*
X196778Y57377D01*
X196851Y57341D01*
X196888Y57305D01*
X197617Y56721D01*
X198346Y56138D01*
X199038Y55628D01*
X199658Y55154D01*
X200168Y54753D01*
X200569Y54425D01*
X200715Y54316D01*
X200788Y54243D01*
X200861Y54206D01*
X200897Y54170D01*
X201663Y53587D01*
X202392Y53004D01*
X203084Y52457D01*
X203667Y51983D01*
X204214Y51582D01*
X204579Y51254D01*
X204761Y51144D01*
X204834Y51072D01*
X204907Y51035D01*
X204943Y50999D01*
X205089Y50889D01*
X205235Y50780D01*
X205381Y50707D01*
X205417Y50671D01*
X205599Y50525D01*
X205672Y50416D01*
X205709Y50306D01*
Y50270D01*
Y50233D01*
X205672Y50197D01*
X205526Y50233D01*
X205417Y50270D01*
X205381Y50306D01*
X205162Y50452D01*
X204980Y50598D01*
X204870Y50671D01*
X204834Y50707D01*
X203339Y51582D01*
X201845Y52457D01*
X200496Y53259D01*
X199877Y53660D01*
X199257Y53988D01*
X198710Y54316D01*
X198236Y54607D01*
X197799Y54899D01*
X197434Y55118D01*
X197143Y55263D01*
X196924Y55409D01*
X196778Y55482D01*
X196742Y55519D01*
X195247Y56430D01*
X193790Y57305D01*
X192441Y58106D01*
X191785Y58471D01*
X191202Y58836D01*
X190655Y59163D01*
X190181Y59455D01*
X189744Y59710D01*
X189379Y59929D01*
X189087Y60111D01*
X188869Y60221D01*
X188723Y60294D01*
X188687Y60330D01*
X187156Y61241D01*
X185698Y62116D01*
X184349Y62954D01*
X183693Y63319D01*
X183110Y63683D01*
X182563Y64011D01*
X182089Y64303D01*
X181652Y64558D01*
X181287Y64777D01*
X180996Y64923D01*
X180777Y65068D01*
X180631Y65141D01*
X180595Y65178D01*
X179100Y66089D01*
X177606Y66964D01*
X176257Y67802D01*
X175637Y68167D01*
X175018Y68531D01*
X174471Y68859D01*
X173997Y69151D01*
X173560Y69406D01*
X173195Y69625D01*
X172904Y69770D01*
X172685Y69916D01*
X172539Y69989D01*
X172503Y70026D01*
X172284Y70171D01*
X172102Y70317D01*
X171956Y70390D01*
X171920Y70427D01*
X171664Y70572D01*
X171446Y70682D01*
X171263Y70791D01*
X171191Y70828D01*
X171920Y71046D01*
X172649Y71265D01*
X173305Y71447D01*
X173924Y71629D01*
X174398Y71739D01*
X174799Y71848D01*
X174945Y71921D01*
X175054D01*
X175091Y71957D01*
X175127D01*
X175820Y72176D01*
X176512Y72395D01*
X177168Y72577D01*
X177752Y72759D01*
X178262Y72905D01*
X178663Y73014D01*
X178809Y73051D01*
X178918Y73088D01*
X178954Y73124D01*
X178991D01*
X178043Y73889D01*
X177132Y74618D01*
X176294Y75311D01*
X175528Y75931D01*
X175164Y76186D01*
X174872Y76441D01*
X174617Y76660D01*
X174398Y76842D01*
X174216Y76988D01*
X174070Y77097D01*
X173997Y77133D01*
X173961Y77170D01*
X173013Y77935D01*
X172102Y78664D01*
X171263Y79357D01*
X170498Y79976D01*
X170133Y80232D01*
X169842Y80487D01*
X169587Y80705D01*
X169368Y80888D01*
X169186Y81033D01*
X169040Y81143D01*
X168967Y81179D01*
X168931Y81216D01*
X168019Y81981D01*
X167108Y82710D01*
X166270Y83403D01*
X165504Y84022D01*
X164885Y84533D01*
X164629Y84751D01*
X164411Y84934D01*
X164228Y85079D01*
X164083Y85189D01*
X164010Y85225D01*
X163973Y85262D01*
X163062Y86027D01*
X162151Y86756D01*
X161313Y87449D01*
X160583Y88068D01*
X159964Y88579D01*
X159709Y88797D01*
X159454Y88980D01*
X159308Y89125D01*
X159162Y89235D01*
X159089Y89271D01*
X159053Y89308D01*
Y89344D01*
Y89381D01*
X159016Y89490D01*
Y89526D01*
X160547Y88542D01*
D02*
G37*
G36*
X223943Y6588D02*
X223552D01*
X223461Y7030D01*
X223848D01*
X223943Y6588D01*
D02*
G37*
G36*
X229394Y3881D02*
X229008D01*
X228803Y4859D01*
X228784Y4937D01*
X228766Y5009D01*
X228753Y5073D01*
X228734Y5137D01*
X228716Y5191D01*
X228703Y5241D01*
X228684Y5287D01*
X228671Y5328D01*
X228657Y5364D01*
X228643Y5396D01*
X228634Y5419D01*
X228625Y5442D01*
X228616Y5460D01*
X228612Y5469D01*
X228607Y5478D01*
X228566Y5546D01*
X228516Y5610D01*
X228471Y5660D01*
X228420Y5706D01*
X228380Y5737D01*
X228348Y5765D01*
X228325Y5778D01*
X228316Y5783D01*
X228243Y5819D01*
X228175Y5847D01*
X228107Y5869D01*
X228047Y5883D01*
X227993Y5892D01*
X227956Y5897D01*
X227920D01*
X227870Y5892D01*
X227824Y5887D01*
X227788Y5874D01*
X227756Y5860D01*
X227733Y5847D01*
X227715Y5838D01*
X227706Y5828D01*
X227702Y5824D01*
X227674Y5796D01*
X227656Y5765D01*
X227642Y5733D01*
X227633Y5706D01*
X227629Y5678D01*
X227624Y5660D01*
Y5646D01*
Y5642D01*
Y5624D01*
X227629Y5605D01*
X227633Y5551D01*
X227647Y5487D01*
X227656Y5423D01*
X227670Y5364D01*
X227683Y5314D01*
X227688Y5291D01*
Y5278D01*
X227693Y5269D01*
Y5264D01*
X227993Y3881D01*
X227606D01*
X227306Y5223D01*
X227292Y5282D01*
X227283Y5337D01*
X227265Y5428D01*
X227251Y5505D01*
X227242Y5565D01*
X227238Y5610D01*
X227233Y5642D01*
Y5660D01*
Y5665D01*
X227238Y5756D01*
X227256Y5833D01*
X227283Y5901D01*
X227310Y5960D01*
X227338Y6006D01*
X227365Y6038D01*
X227383Y6060D01*
X227388Y6065D01*
X227451Y6115D01*
X227520Y6151D01*
X227592Y6179D01*
X227665Y6197D01*
X227729Y6206D01*
X227779Y6215D01*
X227824D01*
X227897Y6211D01*
X227965Y6202D01*
X228029Y6183D01*
X228088Y6170D01*
X228134Y6151D01*
X228170Y6133D01*
X228193Y6124D01*
X228202Y6120D01*
X228270Y6079D01*
X228339Y6033D01*
X228407Y5983D01*
X228466Y5938D01*
X228521Y5892D01*
X228562Y5856D01*
X228589Y5828D01*
X228593Y5824D01*
X228598Y5819D01*
X228348Y7030D01*
X228734D01*
X229394Y3881D01*
D02*
G37*
G36*
X218019Y6206D02*
X218115Y6188D01*
X218201Y6160D01*
X218283Y6133D01*
X218347Y6101D01*
X218374Y6088D01*
X218397Y6074D01*
X218415Y6060D01*
X218429Y6056D01*
X218438Y6047D01*
X218442D01*
X218533Y5979D01*
X218615Y5901D01*
X218688Y5819D01*
X218752Y5742D01*
X218802Y5669D01*
X218825Y5642D01*
X218843Y5615D01*
X218856Y5592D01*
X218865Y5574D01*
X218875Y5565D01*
Y5560D01*
X218934Y5437D01*
X218979Y5314D01*
X219011Y5196D01*
X219034Y5087D01*
X219043Y5037D01*
X219047Y4996D01*
X219052Y4955D01*
Y4918D01*
X219057Y4891D01*
Y4873D01*
Y4859D01*
Y4855D01*
X219052Y4768D01*
X219047Y4691D01*
X219034Y4614D01*
X219020Y4545D01*
X219002Y4482D01*
X218984Y4418D01*
X218961Y4368D01*
X218938Y4318D01*
X218920Y4272D01*
X218897Y4236D01*
X218879Y4204D01*
X218861Y4177D01*
X218847Y4158D01*
X218834Y4145D01*
X218829Y4136D01*
X218825Y4131D01*
X218779Y4086D01*
X218734Y4049D01*
X218684Y4017D01*
X218638Y3986D01*
X218538Y3940D01*
X218447Y3913D01*
X218370Y3895D01*
X218333Y3890D01*
X218306Y3886D01*
X218279Y3881D01*
X218247D01*
X218183Y3886D01*
X218119Y3895D01*
X218060Y3908D01*
X218001Y3931D01*
X217892Y3977D01*
X217796Y4036D01*
X217755Y4063D01*
X217719Y4090D01*
X217687Y4113D01*
X217655Y4140D01*
X217637Y4158D01*
X217619Y4172D01*
X217610Y4181D01*
X217605Y4186D01*
X217642Y3999D01*
X217660Y3926D01*
X217673Y3863D01*
X217692Y3799D01*
X217705Y3749D01*
X217723Y3699D01*
X217737Y3658D01*
X217755Y3617D01*
X217769Y3585D01*
X217778Y3558D01*
X217792Y3535D01*
X217810Y3499D01*
X217824Y3481D01*
X217828Y3476D01*
X217860Y3444D01*
X217892Y3412D01*
X217974Y3367D01*
X218056Y3335D01*
X218138Y3312D01*
X218215Y3299D01*
X218247Y3294D01*
X218274D01*
X218301Y3289D01*
X218333D01*
X218392Y3294D01*
X218447Y3299D01*
X218492Y3308D01*
X218533Y3317D01*
X218565Y3326D01*
X218588Y3330D01*
X218602Y3339D01*
X218606D01*
X218661Y3371D01*
X218697Y3408D01*
X218715Y3435D01*
X218724Y3440D01*
Y3444D01*
X218734Y3472D01*
X218743Y3503D01*
X218752Y3567D01*
X218756Y3594D01*
Y3617D01*
Y3635D01*
Y3640D01*
X219148Y3676D01*
X219152Y3635D01*
X219157Y3599D01*
Y3572D01*
Y3567D01*
Y3562D01*
X219152Y3499D01*
X219143Y3440D01*
X219125Y3385D01*
X219107Y3339D01*
X219093Y3303D01*
X219075Y3276D01*
X219066Y3258D01*
X219061Y3253D01*
X219020Y3203D01*
X218975Y3162D01*
X218925Y3126D01*
X218879Y3098D01*
X218834Y3076D01*
X218797Y3057D01*
X218775Y3048D01*
X218765Y3044D01*
X218688Y3021D01*
X218606Y3003D01*
X218529Y2989D01*
X218451Y2980D01*
X218388Y2976D01*
X218338Y2971D01*
X218292D01*
X218188Y2976D01*
X218092Y2989D01*
X218006Y3007D01*
X217933Y3030D01*
X217874Y3048D01*
X217828Y3067D01*
X217814Y3076D01*
X217801Y3080D01*
X217796Y3085D01*
X217792D01*
X217714Y3130D01*
X217646Y3180D01*
X217587Y3230D01*
X217537Y3285D01*
X217500Y3330D01*
X217473Y3367D01*
X217455Y3390D01*
X217450Y3399D01*
X217405Y3481D01*
X217369Y3572D01*
X217332Y3663D01*
X217305Y3754D01*
X217282Y3836D01*
X217278Y3867D01*
X217268Y3899D01*
X217264Y3922D01*
X217259Y3945D01*
X217255Y3954D01*
Y3958D01*
X216791Y6165D01*
X217150D01*
X217228Y5796D01*
X217278Y5869D01*
X217328Y5933D01*
X217382Y5992D01*
X217437Y6038D01*
X217496Y6079D01*
X217555Y6115D01*
X217610Y6142D01*
X217664Y6165D01*
X217719Y6179D01*
X217764Y6192D01*
X217810Y6202D01*
X217846Y6211D01*
X217878D01*
X217901Y6215D01*
X217919D01*
X218019Y6206D01*
D02*
G37*
G36*
X232283Y3881D02*
X231869D01*
X231656Y4896D01*
X230991Y5478D01*
X230081Y3881D01*
X229617D01*
X230682Y5746D01*
X229217Y7030D01*
X229813D01*
X231524Y5510D01*
X231210Y7030D01*
X231624D01*
X232283Y3881D01*
D02*
G37*
G36*
X222255D02*
X221846D01*
X221445Y5796D01*
X221413Y5960D01*
X221382Y6111D01*
X221359Y6242D01*
X221350Y6306D01*
X221341Y6361D01*
X221332Y6415D01*
X221327Y6461D01*
X221322Y6497D01*
X221318Y6529D01*
X221313Y6556D01*
X221309Y6579D01*
Y6588D01*
Y6593D01*
X221254Y6438D01*
X221200Y6279D01*
X221145Y6129D01*
X221118Y6060D01*
X221091Y5992D01*
X221068Y5933D01*
X221045Y5874D01*
X221022Y5824D01*
X221004Y5783D01*
X220990Y5746D01*
X220981Y5724D01*
X220972Y5706D01*
Y5701D01*
X220208Y3881D01*
X219789D01*
X219129Y7030D01*
X219544D01*
X219926Y5178D01*
X219957Y5023D01*
X219989Y4873D01*
X220012Y4732D01*
X220026Y4668D01*
X220035Y4609D01*
X220044Y4554D01*
X220053Y4504D01*
X220058Y4463D01*
X220067Y4427D01*
X220071Y4400D01*
Y4377D01*
X220076Y4363D01*
Y4359D01*
X220112Y4486D01*
X220149Y4604D01*
X220181Y4700D01*
X220208Y4786D01*
X220231Y4850D01*
X220240Y4877D01*
X220249Y4896D01*
X220253Y4914D01*
X220258Y4927D01*
X220262Y4932D01*
Y4937D01*
X220317Y5082D01*
X220381Y5232D01*
X220440Y5387D01*
X220503Y5528D01*
X220531Y5596D01*
X220558Y5655D01*
X220581Y5710D01*
X220599Y5756D01*
X220617Y5796D01*
X220631Y5824D01*
X220636Y5842D01*
X220640Y5847D01*
X221159Y7030D01*
X221596D01*
X222255Y3881D01*
D02*
G37*
G36*
X213597Y3876D02*
X213720Y3658D01*
X213760Y3590D01*
X213801Y3535D01*
X213838Y3485D01*
X213865Y3449D01*
X213892Y3421D01*
X213911Y3403D01*
X213924Y3394D01*
X213929Y3390D01*
X213956Y3371D01*
X213988Y3358D01*
X214052Y3344D01*
X214079Y3339D01*
X214102Y3335D01*
X214120D01*
X214202Y3339D01*
X214243Y3349D01*
X214279Y3353D01*
X214306Y3362D01*
X214334Y3367D01*
X214347Y3371D01*
X214352D01*
X214375Y3003D01*
X214325Y2985D01*
X214279Y2976D01*
X214238Y2966D01*
X214197Y2957D01*
X214165D01*
X214138Y2953D01*
X214115D01*
X214038Y2957D01*
X213965Y2971D01*
X213901Y2994D01*
X213847Y3016D01*
X213801Y3039D01*
X213765Y3062D01*
X213747Y3076D01*
X213738Y3080D01*
X213706Y3108D01*
X213674Y3139D01*
X213610Y3212D01*
X213547Y3294D01*
X213487Y3381D01*
X213437Y3458D01*
X213419Y3494D01*
X213401Y3522D01*
X213383Y3549D01*
X213374Y3567D01*
X213365Y3581D01*
Y3585D01*
X211913Y6165D01*
X212314D01*
X213333Y4331D01*
X213346Y4459D01*
X213360Y4582D01*
X213378Y4695D01*
X213392Y4800D01*
X213396Y4846D01*
X213405Y4887D01*
X213410Y4923D01*
X213415Y4955D01*
X213419Y4982D01*
Y5000D01*
X213424Y5009D01*
Y5014D01*
X213592Y6165D01*
X213974D01*
X213597Y3876D01*
D02*
G37*
G36*
X216468Y4846D02*
X216481Y4782D01*
X216495Y4723D01*
X216504Y4668D01*
X216513Y4623D01*
X216531Y4536D01*
X216541Y4468D01*
X216545Y4413D01*
X216550Y4377D01*
Y4359D01*
Y4350D01*
X216541Y4272D01*
X216522Y4200D01*
X216499Y4136D01*
X216468Y4086D01*
X216436Y4040D01*
X216413Y4008D01*
X216395Y3990D01*
X216386Y3981D01*
X216322Y3931D01*
X216249Y3895D01*
X216177Y3867D01*
X216108Y3849D01*
X216049Y3840D01*
X216004Y3836D01*
X215985Y3831D01*
X215958D01*
X215876Y3836D01*
X215799Y3849D01*
X215722Y3872D01*
X215649Y3904D01*
X215576Y3936D01*
X215503Y3977D01*
X215439Y4017D01*
X215380Y4063D01*
X215321Y4104D01*
X215271Y4145D01*
X215230Y4186D01*
X215189Y4218D01*
X215162Y4250D01*
X215139Y4272D01*
X215125Y4286D01*
X215121Y4290D01*
X215203Y3881D01*
X214843D01*
X214338Y6165D01*
X214725D01*
X214943Y5169D01*
X214966Y5068D01*
X214989Y4982D01*
X215007Y4909D01*
X215025Y4855D01*
X215039Y4809D01*
X215048Y4782D01*
X215053Y4764D01*
X215057Y4759D01*
X215085Y4691D01*
X215116Y4632D01*
X215148Y4577D01*
X215176Y4527D01*
X215203Y4491D01*
X215226Y4459D01*
X215239Y4441D01*
X215244Y4436D01*
X215289Y4391D01*
X215335Y4350D01*
X215380Y4313D01*
X215421Y4281D01*
X215462Y4259D01*
X215489Y4240D01*
X215508Y4231D01*
X215517Y4227D01*
X215576Y4200D01*
X215635Y4181D01*
X215690Y4168D01*
X215740Y4158D01*
X215781Y4154D01*
X215812Y4149D01*
X215840D01*
X215894Y4154D01*
X215944Y4158D01*
X215985Y4168D01*
X216022Y4181D01*
X216044Y4195D01*
X216067Y4204D01*
X216076Y4209D01*
X216081Y4213D01*
X216108Y4240D01*
X216126Y4272D01*
X216140Y4300D01*
X216149Y4331D01*
X216154Y4354D01*
X216158Y4377D01*
Y4391D01*
Y4395D01*
Y4436D01*
X216154Y4486D01*
X216145Y4532D01*
X216136Y4582D01*
X216131Y4623D01*
X216122Y4654D01*
X216117Y4677D01*
Y4686D01*
X215785Y6165D01*
X216167D01*
X216468Y4846D01*
D02*
G37*
G36*
X210848Y6206D02*
X210958Y6188D01*
X211058Y6160D01*
X211149Y6129D01*
X211222Y6097D01*
X211253Y6083D01*
X211276Y6069D01*
X211299Y6060D01*
X211313Y6051D01*
X211322Y6042D01*
X211326D01*
X211422Y5969D01*
X211513Y5887D01*
X211585Y5801D01*
X211649Y5715D01*
X211704Y5637D01*
X211722Y5605D01*
X211740Y5578D01*
X211754Y5551D01*
X211763Y5533D01*
X211772Y5523D01*
Y5519D01*
X211831Y5387D01*
X211872Y5260D01*
X211904Y5137D01*
X211922Y5028D01*
X211931Y4978D01*
X211936Y4932D01*
X211940Y4891D01*
Y4859D01*
X211945Y4832D01*
Y4814D01*
Y4800D01*
Y4795D01*
X211940Y4691D01*
X211927Y4595D01*
X211909Y4509D01*
X211890Y4431D01*
X211872Y4372D01*
X211854Y4327D01*
X211845Y4309D01*
X211840Y4295D01*
X211836Y4290D01*
Y4286D01*
X211790Y4209D01*
X211740Y4140D01*
X211686Y4081D01*
X211636Y4031D01*
X211590Y3995D01*
X211554Y3967D01*
X211526Y3949D01*
X211517Y3945D01*
X211435Y3908D01*
X211353Y3881D01*
X211276Y3858D01*
X211203Y3845D01*
X211140Y3836D01*
X211090Y3831D01*
X211049D01*
X210971Y3836D01*
X210903Y3840D01*
X210767Y3872D01*
X210648Y3908D01*
X210594Y3931D01*
X210544Y3958D01*
X210503Y3981D01*
X210462Y4004D01*
X210430Y4022D01*
X210398Y4040D01*
X210375Y4058D01*
X210362Y4072D01*
X210352Y4077D01*
X210348Y4081D01*
X210293Y4131D01*
X210248Y4177D01*
X210202Y4227D01*
X210166Y4272D01*
X210098Y4363D01*
X210048Y4445D01*
X210011Y4513D01*
X209998Y4545D01*
X209988Y4568D01*
X209979Y4591D01*
X209975Y4604D01*
X209970Y4614D01*
Y4618D01*
X210348Y4654D01*
X210393Y4568D01*
X210443Y4491D01*
X210493Y4427D01*
X210539Y4372D01*
X210584Y4331D01*
X210621Y4300D01*
X210644Y4281D01*
X210648Y4277D01*
X210653D01*
X210726Y4236D01*
X210794Y4204D01*
X210862Y4181D01*
X210921Y4168D01*
X210971Y4158D01*
X211008Y4149D01*
X211044D01*
X211121Y4158D01*
X211190Y4177D01*
X211253Y4204D01*
X211308Y4236D01*
X211349Y4263D01*
X211381Y4290D01*
X211399Y4309D01*
X211408Y4318D01*
X211458Y4386D01*
X211490Y4463D01*
X211517Y4545D01*
X211536Y4623D01*
X211545Y4695D01*
X211549Y4727D01*
Y4755D01*
X211554Y4773D01*
Y4791D01*
Y4800D01*
Y4805D01*
Y4846D01*
X211549Y4887D01*
X211545Y4918D01*
Y4923D01*
Y4927D01*
X209861D01*
X209843Y5055D01*
X209838Y5110D01*
X209834Y5164D01*
X209829Y5205D01*
Y5241D01*
Y5260D01*
Y5269D01*
X209834Y5351D01*
X209838Y5423D01*
X209852Y5496D01*
X209866Y5560D01*
X209884Y5624D01*
X209907Y5678D01*
X209929Y5733D01*
X209952Y5778D01*
X209975Y5819D01*
X209998Y5856D01*
X210016Y5887D01*
X210038Y5915D01*
X210052Y5933D01*
X210066Y5947D01*
X210070Y5956D01*
X210075Y5960D01*
X210120Y6006D01*
X210175Y6047D01*
X210225Y6079D01*
X210280Y6106D01*
X210389Y6151D01*
X210493Y6183D01*
X210544Y6192D01*
X210589Y6202D01*
X210626Y6206D01*
X210662Y6211D01*
X210689Y6215D01*
X210730D01*
X210848Y6206D01*
D02*
G37*
G36*
X224507Y3881D02*
X224121D01*
X223643Y6165D01*
X224030D01*
X224507Y3881D01*
D02*
G37*
G36*
X208059Y6211D02*
X208137Y6197D01*
X208205Y6179D01*
X208269Y6160D01*
X208319Y6142D01*
X208360Y6124D01*
X208387Y6111D01*
X208391Y6106D01*
X208396D01*
X208473Y6060D01*
X208546Y6006D01*
X208619Y5951D01*
X208687Y5897D01*
X208746Y5842D01*
X208787Y5801D01*
X208805Y5787D01*
X208819Y5774D01*
X208824Y5769D01*
X208828Y5765D01*
X208746Y6165D01*
X209101D01*
X209579Y3881D01*
X209192D01*
X208969Y4941D01*
X208946Y5037D01*
X208924Y5123D01*
X208896Y5205D01*
X208869Y5278D01*
X208842Y5346D01*
X208810Y5405D01*
X208783Y5460D01*
X208755Y5505D01*
X208728Y5546D01*
X208705Y5583D01*
X208683Y5615D01*
X208660Y5637D01*
X208646Y5655D01*
X208633Y5669D01*
X208628Y5674D01*
X208624Y5678D01*
X208578Y5715D01*
X208533Y5751D01*
X208437Y5806D01*
X208346Y5842D01*
X208264Y5869D01*
X208191Y5887D01*
X208159Y5892D01*
X208132D01*
X208109Y5897D01*
X208082D01*
X208027Y5892D01*
X207982Y5887D01*
X207945Y5874D01*
X207914Y5860D01*
X207886Y5847D01*
X207868Y5838D01*
X207859Y5828D01*
X207855Y5824D01*
X207827Y5796D01*
X207809Y5765D01*
X207791Y5733D01*
X207782Y5706D01*
X207777Y5678D01*
X207773Y5655D01*
Y5642D01*
Y5637D01*
Y5596D01*
X207782Y5546D01*
X207786Y5496D01*
X207795Y5446D01*
X207804Y5401D01*
X207809Y5364D01*
X207818Y5337D01*
Y5332D01*
Y5328D01*
X208137Y3881D01*
X207750D01*
X207440Y5255D01*
X207422Y5351D01*
X207404Y5432D01*
X207395Y5501D01*
X207390Y5560D01*
X207386Y5601D01*
X207381Y5633D01*
Y5651D01*
Y5655D01*
X207386Y5746D01*
X207404Y5828D01*
X207431Y5897D01*
X207459Y5956D01*
X207490Y6001D01*
X207513Y6033D01*
X207531Y6056D01*
X207541Y6060D01*
X207604Y6111D01*
X207677Y6151D01*
X207750Y6179D01*
X207823Y6197D01*
X207886Y6206D01*
X207936Y6215D01*
X207982D01*
X208059Y6211D01*
D02*
G37*
G36*
X225736D02*
X225827Y6202D01*
X225914Y6183D01*
X225995Y6160D01*
X226073Y6129D01*
X226141Y6101D01*
X226205Y6065D01*
X226264Y6033D01*
X226314Y6001D01*
X226359Y5965D01*
X226400Y5938D01*
X226432Y5910D01*
X226460Y5883D01*
X226478Y5865D01*
X226487Y5856D01*
X226491Y5851D01*
X226560Y5765D01*
X226619Y5678D01*
X226673Y5587D01*
X226719Y5496D01*
X226755Y5401D01*
X226787Y5310D01*
X226814Y5219D01*
X226833Y5137D01*
X226851Y5055D01*
X226860Y4982D01*
X226869Y4914D01*
X226878Y4859D01*
Y4809D01*
X226883Y4777D01*
Y4755D01*
Y4746D01*
X226878Y4645D01*
X226864Y4554D01*
X226846Y4473D01*
X226823Y4404D01*
X226805Y4345D01*
X226787Y4300D01*
X226773Y4272D01*
X226769Y4268D01*
Y4263D01*
X226723Y4190D01*
X226669Y4127D01*
X226614Y4072D01*
X226560Y4027D01*
X226509Y3990D01*
X226473Y3967D01*
X226446Y3949D01*
X226441Y3945D01*
X226437D01*
X226355Y3908D01*
X226268Y3881D01*
X226186Y3858D01*
X226114Y3845D01*
X226050Y3836D01*
X226000Y3831D01*
X225954D01*
X225832Y3840D01*
X225718Y3858D01*
X225613Y3886D01*
X225522Y3922D01*
X225481Y3936D01*
X225445Y3954D01*
X225413Y3967D01*
X225386Y3981D01*
X225363Y3990D01*
X225349Y3999D01*
X225340Y4008D01*
X225336D01*
X225231Y4081D01*
X225140Y4168D01*
X225063Y4254D01*
X224999Y4336D01*
X224944Y4413D01*
X224926Y4445D01*
X224908Y4473D01*
X224899Y4495D01*
X224890Y4513D01*
X224881Y4522D01*
Y4527D01*
X224826Y4654D01*
X224790Y4786D01*
X224762Y4909D01*
X224740Y5023D01*
X224735Y5073D01*
X224730Y5119D01*
X224726Y5159D01*
Y5191D01*
X224721Y5223D01*
Y5241D01*
Y5255D01*
Y5260D01*
X224726Y5342D01*
X224730Y5414D01*
X224744Y5487D01*
X224762Y5551D01*
X224781Y5615D01*
X224803Y5674D01*
X224826Y5724D01*
X224849Y5774D01*
X224871Y5815D01*
X224894Y5851D01*
X224917Y5883D01*
X224935Y5910D01*
X224953Y5928D01*
X224967Y5942D01*
X224972Y5951D01*
X224976Y5956D01*
X225026Y6001D01*
X225076Y6042D01*
X225131Y6074D01*
X225185Y6106D01*
X225240Y6133D01*
X225295Y6151D01*
X225404Y6183D01*
X225449Y6192D01*
X225495Y6202D01*
X225536Y6206D01*
X225572Y6211D01*
X225600Y6215D01*
X225641D01*
X225736Y6211D01*
D02*
G37*
%LPC*%
G36*
X66615Y74910D02*
X66397D01*
X65923Y74874D01*
X65558Y74801D01*
X65267Y74655D01*
X65012Y74545D01*
X64829Y74400D01*
X64720Y74254D01*
X64684Y74181D01*
X64647Y74145D01*
X64538Y73816D01*
X64465Y73452D01*
X64501Y73087D01*
X64538Y72723D01*
X64611Y72358D01*
X64684Y72103D01*
X64720Y71921D01*
X64757Y71848D01*
X64975Y71301D01*
X65194Y70828D01*
X65449Y70427D01*
X65668Y70099D01*
X65886Y69843D01*
X66069Y69661D01*
X66178Y69552D01*
X66215Y69515D01*
X66579Y69260D01*
X66980Y69042D01*
X67344Y68896D01*
X67709Y68823D01*
X68037Y68750D01*
X68292Y68713D01*
X68511D01*
X68985Y68750D01*
X69386Y68823D01*
X69677Y68969D01*
X69932Y69114D01*
X70115Y69260D01*
X70224Y69406D01*
X70297Y69479D01*
X70333Y69515D01*
X70443Y69843D01*
X70479Y70208D01*
Y70609D01*
X70406Y70973D01*
X70333Y71338D01*
X70261Y71593D01*
X70224Y71775D01*
X70188Y71848D01*
X69969Y72395D01*
X69750Y72869D01*
X69495Y73233D01*
X69276Y73561D01*
X69058Y73816D01*
X68875Y73999D01*
X68766Y74108D01*
X68730Y74145D01*
X68365Y74400D01*
X67964Y74582D01*
X67563Y74728D01*
X67199Y74801D01*
X66871Y74874D01*
X66615Y74910D01*
D02*
G37*
G36*
X130585Y59382D02*
X129164D01*
X129127Y59346D01*
X129091D01*
X128909Y59273D01*
X128872Y59236D01*
X128799Y59163D01*
X128763Y59054D01*
Y59018D01*
Y58981D01*
Y58763D01*
X128799Y58690D01*
Y58653D01*
X128909Y58434D01*
X128945Y58362D01*
X128981Y58325D01*
X129164Y58143D01*
X129200Y58106D01*
X129237Y58070D01*
X129346Y57997D01*
X129455Y57924D01*
X129528Y57888D01*
X129565D01*
X129820Y57851D01*
X131132D01*
X130585Y59382D01*
D02*
G37*
G36*
X110283Y59018D02*
Y56794D01*
X111741D01*
X110283Y59018D01*
D02*
G37*
G36*
X99092D02*
Y56794D01*
X100587D01*
X99092Y59018D01*
D02*
G37*
G36*
X67636Y59382D02*
X66215D01*
X66178Y59346D01*
X66142D01*
X65959Y59273D01*
X65923Y59236D01*
X65850Y59054D01*
Y59018D01*
Y58981D01*
Y58872D01*
Y58763D01*
X65886Y58690D01*
Y58653D01*
X65996Y58434D01*
X66032Y58362D01*
Y58325D01*
X66105Y58216D01*
X66178Y58143D01*
X66251Y58106D01*
X66287Y58070D01*
X66506Y57924D01*
X66579Y57888D01*
X66615D01*
X66725Y57851D01*
X68146D01*
X67636Y59382D01*
D02*
G37*
G36*
X134449Y59346D02*
X134413D01*
X134230Y59309D01*
X134157Y59273D01*
X134048D01*
X134011Y59236D01*
X133902Y59127D01*
X133866Y59091D01*
X133793Y59018D01*
Y58981D01*
X133720Y58836D01*
Y58799D01*
Y58763D01*
X133684Y58617D01*
Y58580D01*
Y58544D01*
X133720Y58434D01*
X133756Y58289D01*
X133793Y58179D01*
Y58143D01*
X133866Y57961D01*
X133939Y57742D01*
X133975Y57633D01*
X134011Y57560D01*
X134084Y57305D01*
X134157Y57086D01*
X134194Y56940D01*
X134230Y56904D01*
X134303Y56721D01*
X134340Y56612D01*
X134376Y56539D01*
Y56503D01*
X134485Y56357D01*
X134522Y56320D01*
X134558Y56284D01*
X134704Y56138D01*
X134740Y56102D01*
X134777Y56065D01*
X134850Y55956D01*
X134886Y55919D01*
X134923D01*
X135069Y55883D01*
X135105Y55847D01*
X135142D01*
X135324Y55774D01*
X135360Y55737D01*
X135907D01*
X136053Y55810D01*
X136089Y55847D01*
X136198Y55883D01*
X136235Y55919D01*
X136271Y56029D01*
X136308Y56065D01*
X136344Y56211D01*
X136381Y56284D01*
Y56430D01*
Y56503D01*
X136344Y56612D01*
X136308Y56758D01*
X136271Y56867D01*
Y56904D01*
X136198Y57122D01*
X136162Y57341D01*
X136089Y57487D01*
Y57560D01*
X135980Y57778D01*
X135907Y57961D01*
X135834Y58106D01*
Y58143D01*
X135761Y58325D01*
X135725Y58471D01*
X135688Y58507D01*
Y58544D01*
X135579Y58690D01*
X135542Y58763D01*
X135397Y58908D01*
X135324Y58981D01*
X135214Y59054D01*
X135178Y59091D01*
X134996Y59200D01*
X134959Y59236D01*
X134923D01*
X134777Y59273D01*
X134704D01*
X134485Y59309D01*
X134449Y59346D01*
D02*
G37*
G36*
X217928Y5901D02*
X217905D01*
X217824Y5892D01*
X217751Y5874D01*
X217683Y5847D01*
X217628Y5819D01*
X217582Y5787D01*
X217551Y5760D01*
X217532Y5742D01*
X217523Y5733D01*
X217469Y5665D01*
X217432Y5592D01*
X217405Y5514D01*
X217382Y5446D01*
X217373Y5382D01*
X217369Y5328D01*
X217364Y5310D01*
Y5296D01*
Y5287D01*
Y5282D01*
X217369Y5187D01*
X217382Y5091D01*
X217400Y5000D01*
X217423Y4918D01*
X217446Y4850D01*
X217455Y4818D01*
X217464Y4795D01*
X217473Y4773D01*
X217478Y4759D01*
X217482Y4750D01*
Y4746D01*
X217528Y4645D01*
X217582Y4563D01*
X217633Y4491D01*
X217683Y4431D01*
X217723Y4386D01*
X217760Y4359D01*
X217783Y4336D01*
X217792Y4331D01*
X217860Y4286D01*
X217928Y4254D01*
X217992Y4231D01*
X218051Y4218D01*
X218101Y4209D01*
X218138Y4200D01*
X218169D01*
X218224Y4204D01*
X218274Y4213D01*
X218315Y4227D01*
X218356Y4245D01*
X218388Y4259D01*
X218410Y4272D01*
X218429Y4281D01*
X218433Y4286D01*
X218474Y4322D01*
X218511Y4363D01*
X218543Y4404D01*
X218570Y4445D01*
X218593Y4482D01*
X218606Y4509D01*
X218615Y4527D01*
X218620Y4536D01*
X218634Y4586D01*
X218643Y4641D01*
X218652Y4700D01*
X218656Y4759D01*
Y4809D01*
X218661Y4855D01*
Y4882D01*
Y4887D01*
Y4891D01*
X218656Y4937D01*
X218652Y4987D01*
X218643Y5041D01*
X218634Y5096D01*
X218624Y5146D01*
X218615Y5182D01*
X218606Y5210D01*
Y5214D01*
Y5219D01*
X218583Y5296D01*
X218556Y5369D01*
X218524Y5432D01*
X218497Y5487D01*
X218474Y5533D01*
X218451Y5565D01*
X218438Y5583D01*
X218433Y5592D01*
X218388Y5646D01*
X218342Y5692D01*
X218301Y5733D01*
X218265Y5765D01*
X218233Y5792D01*
X218206Y5810D01*
X218188Y5819D01*
X218183Y5824D01*
X218133Y5851D01*
X218083Y5869D01*
X218033Y5883D01*
X217992Y5892D01*
X217955Y5897D01*
X217928Y5901D01*
D02*
G37*
G36*
X210744Y5915D02*
X210721D01*
X210639Y5910D01*
X210562Y5892D01*
X210498Y5865D01*
X210443Y5838D01*
X210402Y5806D01*
X210371Y5783D01*
X210348Y5765D01*
X210343Y5756D01*
X210293Y5692D01*
X210257Y5619D01*
X210230Y5546D01*
X210211Y5474D01*
X210202Y5410D01*
X210193Y5360D01*
Y5337D01*
Y5323D01*
Y5314D01*
Y5310D01*
Y5287D01*
Y5260D01*
X210198Y5237D01*
Y5232D01*
Y5228D01*
X211485D01*
X211440Y5346D01*
X211394Y5451D01*
X211340Y5542D01*
X211290Y5615D01*
X211244Y5669D01*
X211208Y5710D01*
X211185Y5733D01*
X211176Y5742D01*
X211099Y5801D01*
X211017Y5842D01*
X210944Y5874D01*
X210871Y5892D01*
X210812Y5906D01*
X210762Y5910D01*
X210744Y5915D01*
D02*
G37*
G36*
X225686D02*
X225654D01*
X225568Y5906D01*
X225495Y5887D01*
X225427Y5860D01*
X225367Y5828D01*
X225322Y5796D01*
X225290Y5769D01*
X225272Y5751D01*
X225263Y5742D01*
X225208Y5674D01*
X225172Y5592D01*
X225145Y5514D01*
X225122Y5437D01*
X225113Y5369D01*
X225108Y5337D01*
Y5310D01*
X225104Y5291D01*
Y5273D01*
Y5264D01*
Y5260D01*
X225108Y5187D01*
X225113Y5114D01*
X225126Y5046D01*
X225135Y4982D01*
X225149Y4932D01*
X225163Y4891D01*
X225167Y4864D01*
X225172Y4859D01*
Y4855D01*
X225190Y4800D01*
X225208Y4746D01*
X225231Y4695D01*
X225249Y4654D01*
X225267Y4618D01*
X225281Y4591D01*
X225290Y4573D01*
X225295Y4568D01*
X225354Y4477D01*
X225381Y4436D01*
X225408Y4400D01*
X225436Y4372D01*
X225454Y4350D01*
X225468Y4336D01*
X225472Y4331D01*
X225513Y4295D01*
X225550Y4268D01*
X225590Y4240D01*
X225627Y4218D01*
X225654Y4204D01*
X225677Y4190D01*
X225695Y4186D01*
X225700Y4181D01*
X225745Y4163D01*
X225791Y4154D01*
X225832Y4145D01*
X225872Y4136D01*
X225904D01*
X225927Y4131D01*
X225950D01*
X226036Y4140D01*
X226109Y4158D01*
X226177Y4181D01*
X226232Y4213D01*
X226277Y4245D01*
X226314Y4268D01*
X226332Y4286D01*
X226341Y4295D01*
X226391Y4363D01*
X226432Y4445D01*
X226460Y4522D01*
X226478Y4604D01*
X226487Y4677D01*
X226491Y4704D01*
Y4732D01*
X226496Y4755D01*
Y4773D01*
Y4782D01*
Y4786D01*
X226491Y4855D01*
X226487Y4923D01*
X226478Y4987D01*
X226469Y5050D01*
X226460Y5105D01*
X226450Y5146D01*
X226441Y5173D01*
Y5178D01*
Y5182D01*
X226418Y5264D01*
X226387Y5337D01*
X226359Y5401D01*
X226332Y5460D01*
X226305Y5505D01*
X226282Y5542D01*
X226268Y5560D01*
X226264Y5569D01*
X226218Y5628D01*
X226168Y5678D01*
X226123Y5724D01*
X226082Y5760D01*
X226045Y5787D01*
X226018Y5806D01*
X225995Y5819D01*
X225991Y5824D01*
X225932Y5856D01*
X225872Y5878D01*
X225818Y5892D01*
X225768Y5906D01*
X225722Y5910D01*
X225686Y5915D01*
D02*
G37*
%LPD*%
D14*
X223164Y130791D02*
X225787D01*
Y128823D01*
X224476Y129479D01*
X223819D01*
X223164Y128823D01*
Y127512D01*
X223819Y126856D01*
X225131D01*
X225787Y127512D01*
X221852Y130791D02*
Y128167D01*
X220540Y126856D01*
X219228Y128167D01*
Y130791D01*
X213980Y129479D02*
Y127512D01*
X213324Y126856D01*
X212668Y127512D01*
X212012Y126856D01*
X211356Y127512D01*
Y129479D01*
X210045Y126856D02*
X208733D01*
X209388D01*
Y129479D01*
X210045D01*
X206765Y126856D02*
X205453D01*
X206109D01*
Y130791D01*
X206765D01*
X203485Y126856D02*
X202173D01*
X202829D01*
Y130791D01*
X203485D01*
X196269D02*
Y126856D01*
X194301D01*
X193646Y127512D01*
Y128167D01*
Y128823D01*
X194301Y129479D01*
X196269D01*
X190366Y126856D02*
X191678D01*
X192334Y127512D01*
Y128823D01*
X191678Y129479D01*
X190366D01*
X189710Y128823D01*
Y128167D01*
X192334D01*
X184462Y125544D02*
Y129479D01*
X182494D01*
X181838Y128823D01*
Y127512D01*
X182494Y126856D01*
X184462D01*
X180526Y129479D02*
Y126856D01*
Y128167D01*
X179870Y128823D01*
X179215Y129479D01*
X178559D01*
X174623Y126856D02*
X175935D01*
X176591Y127512D01*
Y128823D01*
X175935Y129479D01*
X174623D01*
X173967Y128823D01*
Y128167D01*
X176591D01*
X172655Y126856D02*
X170687D01*
X170031Y127512D01*
X170687Y128167D01*
X171999D01*
X172655Y128823D01*
X171999Y129479D01*
X170031D01*
X166751Y126856D02*
X168063D01*
X168719Y127512D01*
Y128823D01*
X168063Y129479D01*
X166751D01*
X166095Y128823D01*
Y128167D01*
X168719D01*
X164783Y126856D02*
Y129479D01*
X162816D01*
X162160Y128823D01*
Y126856D01*
X160192Y130135D02*
Y129479D01*
X160848D01*
X159536D01*
X160192D01*
Y127512D01*
X159536Y126856D01*
X225131Y122027D02*
X223819D01*
X223164Y121371D01*
Y119404D01*
X225131D01*
X225787Y120060D01*
X225131Y120715D01*
X223164D01*
X221196Y122683D02*
Y122027D01*
X221852D01*
X220540D01*
X221196D01*
Y120060D01*
X220540Y119404D01*
X213980Y122683D02*
Y122027D01*
X214636D01*
X213324D01*
X213980D01*
Y120060D01*
X213324Y119404D01*
X211356Y123339D02*
Y119404D01*
Y121371D01*
X210700Y122027D01*
X209388D01*
X208733Y121371D01*
Y119404D01*
X205453D02*
X206765D01*
X207421Y120060D01*
Y121371D01*
X206765Y122027D01*
X205453D01*
X204797Y121371D01*
Y120715D01*
X207421D01*
X198893Y119404D02*
X197581D01*
X196925Y120060D01*
Y121371D01*
X197581Y122027D01*
X198893D01*
X199549Y121371D01*
Y120060D01*
X198893Y119404D01*
X195613Y122027D02*
Y120060D01*
X194957Y119404D01*
X192990D01*
Y122027D01*
X191022Y122683D02*
Y122027D01*
X191678D01*
X190366D01*
X191022D01*
Y120060D01*
X190366Y119404D01*
X188398Y118092D02*
Y122027D01*
X186430D01*
X185774Y121371D01*
Y120060D01*
X186430Y119404D01*
X188398D01*
X184462Y122027D02*
Y120060D01*
X183806Y119404D01*
X181838D01*
Y122027D01*
X179870Y122683D02*
Y122027D01*
X180526D01*
X179215D01*
X179870D01*
Y120060D01*
X179215Y119404D01*
X172655Y122683D02*
Y122027D01*
X173311D01*
X171999D01*
X172655D01*
Y120060D01*
X171999Y119404D01*
X169375D02*
X168063D01*
X167407Y120060D01*
Y121371D01*
X168063Y122027D01*
X169375D01*
X170031Y121371D01*
Y120060D01*
X169375Y119404D01*
X161504Y122683D02*
Y122027D01*
X162160D01*
X160848D01*
X161504D01*
Y120060D01*
X160848Y119404D01*
X158880Y122027D02*
Y120060D01*
X158224Y119404D01*
X156256D01*
Y122027D01*
X154944D02*
Y119404D01*
Y120715D01*
X154288Y121371D01*
X153632Y122027D01*
X152976D01*
X151008Y119404D02*
Y122027D01*
X149040D01*
X148384Y121371D01*
Y119404D01*
X142481D02*
X141169D01*
X140513Y120060D01*
Y121371D01*
X141169Y122027D01*
X142481D01*
X143137Y121371D01*
Y120060D01*
X142481Y119404D01*
X139201D02*
Y122027D01*
X137233D01*
X136577Y121371D01*
Y119404D01*
X225131Y115231D02*
Y114575D01*
X225787D01*
X224476D01*
X225131D01*
Y112607D01*
X224476Y111951D01*
X222508Y115887D02*
Y111951D01*
Y113919D01*
X221852Y114575D01*
X220540D01*
X219884Y113919D01*
Y111951D01*
X216604D02*
X217916D01*
X218572Y112607D01*
Y113919D01*
X217916Y114575D01*
X216604D01*
X215948Y113919D01*
Y113263D01*
X218572D01*
X210700Y111951D02*
Y114575D01*
X209388Y115887D01*
X208077Y114575D01*
Y111951D01*
Y113919D01*
X210700D01*
X206765Y115887D02*
X205453D01*
X206109D01*
Y111951D01*
X206765D01*
X205453D01*
X203485Y115887D02*
Y111951D01*
X200861D01*
X195613Y114575D02*
Y112607D01*
X194957Y111951D01*
X194301Y112607D01*
X193646Y111951D01*
X192990Y112607D01*
Y114575D01*
X191678Y115887D02*
Y111951D01*
Y113919D01*
X191022Y114575D01*
X189710D01*
X189054Y113919D01*
Y111951D01*
X185774D02*
X187086D01*
X187742Y112607D01*
Y113919D01*
X187086Y114575D01*
X185774D01*
X185118Y113919D01*
Y113263D01*
X187742D01*
X183806Y111951D02*
Y114575D01*
X181838D01*
X181182Y113919D01*
Y111951D01*
X173311Y115887D02*
X174623Y115231D01*
X175935Y113919D01*
Y112607D01*
X175279Y111951D01*
X173967D01*
X173311Y112607D01*
Y113263D01*
X173967Y113919D01*
X175935D01*
X171999Y115231D02*
X171343Y115887D01*
X170031D01*
X169375Y115231D01*
Y112607D01*
X170031Y111951D01*
X171343D01*
X171999Y112607D01*
Y115231D01*
X168063Y115887D02*
Y113263D01*
X166751Y111951D01*
X165439Y113263D01*
Y115887D01*
X159536Y111951D02*
X158224D01*
X157568Y112607D01*
Y113919D01*
X158224Y114575D01*
X159536D01*
X160192Y113919D01*
Y112607D01*
X159536Y111951D01*
X156256Y114575D02*
Y111951D01*
Y113263D01*
X155600Y113919D01*
X154944Y114575D01*
X154288D01*
X224476Y104499D02*
X223819D01*
X223164Y105155D01*
Y108435D01*
X225131D01*
X225787Y107779D01*
Y106467D01*
X225131Y105811D01*
X223164D01*
X221852Y108435D02*
Y105811D01*
Y107123D01*
X221196Y107779D01*
X220540Y108435D01*
X219884D01*
X215948Y105811D02*
X217260D01*
X217916Y106467D01*
Y107779D01*
X217260Y108435D01*
X215948D01*
X215292Y107779D01*
Y107123D01*
X217916D01*
X213324Y108435D02*
X212012D01*
X211356Y107779D01*
Y105811D01*
X213324D01*
X213980Y106467D01*
X213324Y107123D01*
X211356D01*
X209388Y109091D02*
Y108435D01*
X210045D01*
X208733D01*
X209388D01*
Y106467D01*
X208733Y105811D01*
X204797D02*
X206109D01*
X206765Y106467D01*
Y107779D01*
X206109Y108435D01*
X204797D01*
X204141Y107779D01*
Y107123D01*
X206765D01*
X202829Y108435D02*
Y105811D01*
Y107123D01*
X202173Y107779D01*
X201517Y108435D01*
X200861D01*
X194957Y105811D02*
X193646D01*
X194301D01*
Y108435D01*
X194957D01*
X191678Y105811D02*
X189710D01*
X189054Y106467D01*
X189710Y107123D01*
X191022D01*
X191678Y107779D01*
X191022Y108435D01*
X189054D01*
X183806Y105811D02*
X181838D01*
X181182Y106467D01*
X181838Y107123D01*
X183150D01*
X183806Y107779D01*
X183150Y108435D01*
X181182D01*
X177903Y105811D02*
X179215D01*
X179870Y106467D01*
Y107779D01*
X179215Y108435D01*
X177903D01*
X177247Y107779D01*
Y107123D01*
X179870D01*
X173967Y105811D02*
X175279D01*
X175935Y106467D01*
Y107779D01*
X175279Y108435D01*
X173967D01*
X173311Y107779D01*
Y107123D01*
X175935D01*
X171999Y105811D02*
Y108435D01*
X170031D01*
X169375Y107779D01*
Y105811D01*
X163471Y108435D02*
X162160D01*
X161504Y107779D01*
Y105811D01*
X163471D01*
X164128Y106467D01*
X163471Y107123D01*
X161504D01*
X159536Y109091D02*
Y108435D01*
X160192D01*
X158880D01*
X159536D01*
Y106467D01*
X158880Y105811D01*
X152320Y109091D02*
Y108435D01*
X152976D01*
X151664D01*
X152320D01*
Y106467D01*
X151664Y105811D01*
X149697Y109747D02*
Y105811D01*
Y107779D01*
X149040Y108435D01*
X147729D01*
X147073Y107779D01*
Y105811D01*
X143793D02*
X145105D01*
X145761Y106467D01*
Y107779D01*
X145105Y108435D01*
X143793D01*
X143137Y107779D01*
Y107123D01*
X145761D01*
X225787Y98359D02*
X224476D01*
X225131D01*
Y100983D01*
X225787D01*
X222508Y98359D02*
Y100983D01*
X220540D01*
X219884Y100327D01*
Y98359D01*
X218572Y97047D02*
Y100983D01*
X216604D01*
X215948Y100327D01*
Y99015D01*
X216604Y98359D01*
X218572D01*
X214636Y100983D02*
Y99015D01*
X213980Y98359D01*
X212012D01*
Y100983D01*
X210045Y101639D02*
Y100983D01*
X210700D01*
X209388D01*
X210045D01*
Y99015D01*
X209388Y98359D01*
X63715Y40334D02*
X66339D01*
Y36399D01*
X63715D01*
X66339Y38367D02*
X65027D01*
X62403Y39022D02*
X59779Y36399D01*
X61091Y37711D01*
X59779Y39022D01*
X62403Y36399D01*
X58467Y35087D02*
Y39022D01*
X56499D01*
X55843Y38367D01*
Y37055D01*
X56499Y36399D01*
X58467D01*
X52564D02*
X53875D01*
X54531Y37055D01*
Y38367D01*
X53875Y39022D01*
X52564D01*
X51908Y38367D01*
Y37711D01*
X54531D01*
X47972Y39022D02*
X49940D01*
X50596Y38367D01*
Y37055D01*
X49940Y36399D01*
X47972D01*
X46004Y39678D02*
Y39022D01*
X46660D01*
X45348D01*
X46004D01*
Y37055D01*
X45348Y36399D01*
X41412D02*
X42724D01*
X43380Y37055D01*
Y38367D01*
X42724Y39022D01*
X41412D01*
X40756Y38367D01*
Y37711D01*
X43380D01*
X36821Y40334D02*
Y36399D01*
X38788D01*
X39444Y37055D01*
Y38367D01*
X38788Y39022D01*
X36821D01*
X66339Y31570D02*
X65027Y28947D01*
X63715Y31570D01*
X61747Y28947D02*
X60435D01*
X59779Y29603D01*
Y30915D01*
X60435Y31570D01*
X61747D01*
X62403Y30915D01*
Y29603D01*
X61747Y28947D01*
X58467D02*
X57155D01*
X57811D01*
Y32882D01*
X58467D01*
X54531Y32226D02*
Y31570D01*
X55187D01*
X53875D01*
X54531D01*
Y29603D01*
X53875Y28947D01*
X51252Y31570D02*
X49940D01*
X49284Y30915D01*
Y28947D01*
X51252D01*
X51908Y29603D01*
X51252Y30259D01*
X49284D01*
X46660Y27635D02*
X46004D01*
X45348Y28291D01*
Y31570D01*
X47316D01*
X47972Y30915D01*
Y29603D01*
X47316Y28947D01*
X45348D01*
X42068D02*
X43380D01*
X44036Y29603D01*
Y30915D01*
X43380Y31570D01*
X42068D01*
X41412Y30915D01*
Y30259D01*
X44036D01*
X36165Y27635D02*
Y31570D01*
X34197D01*
X33541Y30915D01*
Y29603D01*
X34197Y28947D01*
X36165D01*
X30261D02*
X31573D01*
X32229Y29603D01*
Y30915D01*
X31573Y31570D01*
X30261D01*
X29605Y30915D01*
Y30259D01*
X32229D01*
X28293Y31570D02*
Y28947D01*
Y30259D01*
X27637Y30915D01*
X26981Y31570D01*
X26325D01*
X65683Y24118D02*
X64371D01*
X63715Y23462D01*
Y21495D01*
X65683D01*
X66339Y22151D01*
X65683Y22806D01*
X63715D01*
X59779Y24118D02*
X61747D01*
X62403Y23462D01*
Y22151D01*
X61747Y21495D01*
X59779D01*
X55843Y24118D02*
X57811D01*
X58467Y23462D01*
Y22151D01*
X57811Y21495D01*
X55843D01*
X54531Y24118D02*
Y22151D01*
X53875Y21495D01*
X51908D01*
Y24118D01*
X50596Y21495D02*
Y24118D01*
X49940D01*
X49284Y23462D01*
Y21495D01*
Y23462D01*
X48628Y24118D01*
X47972Y23462D01*
Y21495D01*
X46660Y24118D02*
Y22151D01*
X46004Y21495D01*
X44036D01*
Y24118D01*
X42724Y21495D02*
X41412D01*
X42068D01*
Y25430D01*
X42724D01*
X38788Y24118D02*
X37477D01*
X36821Y23462D01*
Y21495D01*
X38788D01*
X39444Y22151D01*
X38788Y22806D01*
X36821D01*
X34853Y24774D02*
Y24118D01*
X35509D01*
X34197D01*
X34853D01*
Y22151D01*
X34197Y21495D01*
X31573D02*
X30261D01*
X29605Y22151D01*
Y23462D01*
X30261Y24118D01*
X31573D01*
X32229Y23462D01*
Y22151D01*
X31573Y21495D01*
X28293Y24118D02*
Y21495D01*
Y22806D01*
X27637Y23462D01*
X26981Y24118D01*
X26325D01*
X24357D02*
X23701D01*
Y23462D01*
X24357D01*
Y24118D01*
Y22151D02*
X23701D01*
Y21495D01*
X24357D01*
Y22151D01*
X63715Y19290D02*
X65027Y18634D01*
X66339Y17322D01*
Y16010D01*
X65683Y15354D01*
X64371D01*
X63715Y16010D01*
Y16666D01*
X64371Y17322D01*
X66339D01*
X60435Y15354D02*
Y19290D01*
X62403Y17322D01*
X59779D01*
X58467D02*
X55843D01*
X54531Y18634D02*
X53875Y19290D01*
X52564D01*
X51908Y18634D01*
Y17978D01*
X52564Y17322D01*
X51908Y16666D01*
Y16010D01*
X52564Y15354D01*
X53875D01*
X54531Y16010D01*
Y16666D01*
X53875Y17322D01*
X54531Y17978D01*
Y18634D01*
X53875Y17322D02*
X52564D01*
X48628Y15354D02*
Y19290D01*
X50596Y17322D01*
X47972D01*
X46660Y19290D02*
Y16666D01*
X45348Y15354D01*
X44036Y16666D01*
Y19290D01*
X234252Y62007D02*
Y58071D01*
Y60039D01*
X231628D01*
Y62007D01*
Y58071D01*
X230316Y62007D02*
Y59383D01*
X229004Y58071D01*
X227692Y59383D01*
Y62007D01*
X226380Y60039D02*
X223757D01*
X233268Y67913D02*
Y70537D01*
X231956Y71849D01*
X230644Y70537D01*
Y67913D01*
Y69881D01*
X233268D01*
X229332Y71849D02*
X228020D01*
X228676D01*
Y67913D01*
X229332D01*
X228020D01*
X226052Y71849D02*
Y67913D01*
X223428D01*
X30512Y62007D02*
Y58071D01*
Y60039D01*
X27888D01*
Y62007D01*
Y58071D01*
X26576Y62007D02*
Y59383D01*
X25264Y58071D01*
X23952Y59383D01*
Y62007D01*
X22640Y60039D02*
X20017D01*
X30512Y71849D02*
Y67913D01*
Y69881D01*
X27888D01*
Y71849D01*
Y67913D01*
X26576Y71849D02*
Y69225D01*
X25264Y67913D01*
X23952Y69225D01*
Y71849D01*
X22640Y69881D02*
X20017D01*
X21328Y71193D02*
Y68569D01*
M02*
