G04*
G04 #@! TF.GenerationSoftware,Altium Limited,Altium Designer,18.1.11 (251)*
G04*
G04 Layer_Color=8421504*
%FSLAX25Y25*%
%MOIN*%
G70*
G01*
G75*
%ADD15R,0.04134X0.05709*%
%ADD16R,0.04331X0.05512*%
%ADD17R,0.21260X0.04134*%
%ADD18R,0.28347X0.26772*%
%ADD19R,0.08661X0.03740*%
%ADD20R,0.03937X0.02362*%
%ADD21R,0.04134X0.03937*%
%ADD22R,0.03150X0.03150*%
%ADD23R,0.15984X0.15000*%
%ADD24R,0.05512X0.04331*%
%ADD25R,0.06693X0.04331*%
D15*
X154232Y35433D02*
D03*
X146949D02*
D03*
D16*
X170275D02*
D03*
X163386D02*
D03*
X179386D02*
D03*
X186275D02*
D03*
X187500Y69961D02*
D03*
X180610D02*
D03*
D17*
X97441Y78740D02*
D03*
Y101772D02*
D03*
D18*
X118898Y47244D02*
D03*
D19*
X93701Y38268D02*
D03*
Y56221D02*
D03*
D20*
X156020Y58268D02*
D03*
Y62008D02*
D03*
Y65748D02*
D03*
X145193D02*
D03*
Y58268D02*
D03*
D21*
X154626Y22638D02*
D03*
X160335D02*
D03*
D22*
X175197Y22638D02*
D03*
X169291D02*
D03*
D23*
X66929Y84055D02*
D03*
Y46260D02*
D03*
D24*
X132874Y80610D02*
D03*
Y87500D02*
D03*
D25*
X120079Y76476D02*
D03*
Y87500D02*
D03*
M02*
